<svg width="746" height="327" viewBox="0 0 746 327" fill="none" xmlns="http://www.w3.org/2000/svg">
<g clip-path="url(#clip0_819_15957)">
<rect width="746" height="327" fill="white"/>
<rect opacity="0.4" y="286.085" width="746" height="40.9149" fill="#F2F4F8"/>
<rect opacity="0.4" y="204.255" width="746" height="40.9149" fill="#F2F4F8"/>
<rect opacity="0.4" y="122.425" width="746" height="40.9149" fill="#F2F4F8"/>
<rect opacity="0.4" y="40.5955" width="746" height="40.9149" fill="#F2F4F8"/>
<rect x="0.5" y="0.180542" width="745" height="326.319" stroke="#DDE1E6"/>
<rect width="112" height="72" transform="translate(15 82)" fill="#1192E8"/>
<path d="M26.478 108.8H28.76L30.874 113H32.204L29.964 108.688C31.238 108.394 31.924 107.428 31.924 106C31.924 104.222 30.902 103.228 29.194 103.228H25.302V113H26.478V108.8ZM26.478 107.792V104.264H29.194C30.118 104.264 30.664 104.768 30.664 105.664V106.392C30.664 107.288 30.118 107.792 29.194 107.792H26.478ZM40.0484 113V112.02H39.2224V108.044C39.2224 106.518 38.1864 105.608 36.4504 105.608C35.1484 105.608 34.2804 106.252 33.8884 107.022L34.5604 107.652C34.9524 106.994 35.5264 106.574 36.3944 106.574C37.5424 106.574 38.1024 107.134 38.1024 108.156V108.87H36.6744C34.5744 108.87 33.5944 109.626 33.5944 110.984C33.5944 112.328 34.4904 113.168 36.0164 113.168C37.0244 113.168 37.7944 112.706 38.1024 111.824H38.1724C38.2564 112.496 38.5924 113 39.4184 113H40.0484ZM36.1984 112.216C35.3304 112.216 34.7704 111.81 34.7704 111.096V110.802C34.7704 110.102 35.3444 109.71 36.6184 109.71H38.1024V110.9C38.1024 111.642 37.3044 112.216 36.1984 112.216ZM42.9269 113V107.988C42.9269 107.064 43.7949 106.616 44.6909 106.616C45.7689 106.616 46.3289 107.274 46.3289 108.562V113H47.4489V108.366C47.4489 106.616 46.5109 105.608 45.0269 105.608C43.9489 105.608 43.3329 106.14 42.9829 106.952H42.9269V105.776H41.8069V113H42.9269ZM54.5439 113H55.6639V102.64H54.5439V106.952H54.4879C54.1099 106.042 53.3679 105.608 52.3739 105.608C50.5679 105.608 49.4339 107.078 49.4339 109.388C49.4339 111.698 50.5679 113.168 52.3739 113.168C53.3679 113.168 54.0539 112.72 54.4879 111.824H54.5439V113ZM52.6819 112.16C51.4219 112.16 50.6379 111.292 50.6379 110.004V108.772C50.6379 107.484 51.4219 106.616 52.6819 106.616C53.7039 106.616 54.5439 107.204 54.5439 108.002V110.69C54.5439 111.628 53.7039 112.16 52.6819 112.16ZM60.935 113.168C62.867 113.168 64.197 111.684 64.197 109.388C64.197 107.092 62.867 105.608 60.935 105.608C59.003 105.608 57.673 107.092 57.673 109.388C57.673 111.684 59.003 113.168 60.935 113.168ZM60.935 112.174C59.731 112.174 58.877 111.432 58.877 109.906V108.87C58.877 107.344 59.731 106.602 60.935 106.602C62.139 106.602 62.993 107.344 62.993 108.87V109.906C62.993 111.432 62.139 112.174 60.935 112.174ZM67.319 113V107.988C67.319 107.064 68.159 106.616 69.041 106.616C70.105 106.616 70.595 107.274 70.595 108.562V113H71.715V107.988C71.715 107.064 72.527 106.616 73.409 106.616C74.501 106.616 74.991 107.288 74.991 108.562V113H76.111V108.366C76.111 106.616 75.229 105.608 73.759 105.608C72.527 105.608 71.827 106.294 71.561 107.078H71.533C71.141 106.042 70.273 105.608 69.321 105.608C68.201 105.608 67.697 106.21 67.375 106.952H67.319V105.776H66.199V113H67.319ZM85.6202 113V112.02H84.2482V104.208H85.6202V103.228H81.7002V104.208H83.0722V112.02H81.7002V113H85.6202ZM88.9357 113V107.988C88.9357 107.064 89.8037 106.616 90.6997 106.616C91.7777 106.616 92.3377 107.274 92.3377 108.562V113H93.4577V108.366C93.4577 106.616 92.5197 105.608 91.0357 105.608C89.9577 105.608 89.3417 106.14 88.9917 106.952H88.9357V105.776H87.8157V113H88.9357ZM95.9327 115.8H97.0527V111.824H97.1087C97.5427 112.72 98.2287 113.168 99.2227 113.168C101.029 113.168 102.163 111.698 102.163 109.388C102.163 107.078 101.029 105.608 99.2227 105.608C98.2287 105.608 97.4867 106.042 97.1087 106.952H97.0527V105.776H95.9327V115.8ZM98.9147 112.16C97.8927 112.16 97.0527 111.628 97.0527 110.69V108.002C97.0527 107.204 97.8927 106.616 98.9147 106.616C100.175 106.616 100.959 107.484 100.959 108.772V110.004C100.959 111.292 100.175 112.16 98.9147 112.16ZM108.666 113H109.786V105.776H108.666V110.774C108.666 111.726 107.798 112.16 106.916 112.16C105.838 112.16 105.264 111.502 105.264 110.214V105.776H104.144V110.41C104.144 112.16 105.096 113.168 106.58 113.168C107.784 113.168 108.33 112.51 108.61 111.824H108.666V113ZM115.327 113V112.02H113.857V106.756H115.439V105.776H113.857V103.774H112.849V105.118C112.849 105.608 112.695 105.776 112.219 105.776H111.547V106.756H112.737V111.81C112.737 112.51 113.157 113 113.927 113H115.327ZM28.956 133L32.246 123.228H31.028L29.404 128.156L28.298 131.824H28.228L27.15 128.156L25.54 123.228H24.28L27.528 133H28.956ZM36.1734 133.168C37.5314 133.168 38.5674 132.496 39.0294 131.516L38.2314 130.942C37.8534 131.74 37.1534 132.188 36.2434 132.188C34.8994 132.188 34.1014 131.25 34.1014 130.004V129.668H39.2954V129.136C39.2954 127.092 38.1054 125.608 36.1734 125.608C34.2134 125.608 32.9254 127.092 32.9254 129.388C32.9254 131.684 34.2134 133.168 36.1734 133.168ZM36.1734 126.546C37.3214 126.546 38.0914 127.4 38.0914 128.674V128.828H34.1014V128.73C34.1014 127.47 34.9554 126.546 36.1734 126.546ZM43.989 133.168C45.361 133.168 46.299 132.496 46.761 131.46L45.949 130.914C45.557 131.74 44.899 132.174 43.989 132.174C42.659 132.174 41.973 131.264 41.973 130.004V128.772C41.973 127.512 42.659 126.602 43.989 126.602C44.871 126.602 45.487 127.036 45.753 127.778L46.691 127.302C46.271 126.308 45.417 125.608 43.989 125.608C41.959 125.608 40.769 127.078 40.769 129.388C40.769 131.698 41.959 133.168 43.989 133.168ZM51.498 133V132.02H50.028V126.756H51.61V125.776H50.028V123.774H49.02V125.118C49.02 125.608 48.866 125.776 48.39 125.776H47.718V126.756H48.908V131.81C48.908 132.51 49.328 133 50.098 133H51.498ZM56.2455 133.168C58.1775 133.168 59.5075 131.684 59.5075 129.388C59.5075 127.092 58.1775 125.608 56.2455 125.608C54.3135 125.608 52.9835 127.092 52.9835 129.388C52.9835 131.684 54.3135 133.168 56.2455 133.168ZM56.2455 132.174C55.0415 132.174 54.1875 131.432 54.1875 129.906V128.87C54.1875 127.344 55.0415 126.602 56.2455 126.602C57.4495 126.602 58.3035 127.344 58.3035 128.87V129.906C58.3035 131.432 57.4495 132.174 56.2455 132.174ZM62.6295 133V128.1C62.6295 127.414 63.3575 126.896 64.5615 126.896H65.2195V125.776H64.7855C63.6095 125.776 62.9515 126.42 62.6995 127.106H62.6295V125.776H61.5095V133H62.6295Z" fill="white"/>
<rect width="128" height="72" transform="translate(420 126)" fill="#1192E8"/>
<path d="M440.302 158H443.578C446.014 158 447.582 156.376 447.582 153.114C447.582 149.852 446.014 148.228 443.578 148.228H440.302V158ZM441.478 156.964V149.264H443.578C445.188 149.264 446.322 150.384 446.322 152.316V153.912C446.322 155.844 445.188 156.964 443.578 156.964H441.478ZM450.303 149.082C450.779 149.082 450.989 148.83 450.989 148.452V148.27C450.989 147.892 450.779 147.64 450.303 147.64C449.827 147.64 449.617 147.892 449.617 148.27V148.452C449.617 148.83 449.827 149.082 450.303 149.082ZM449.743 158H450.863V150.776H449.743V158ZM455.573 158.168C457.225 158.168 458.247 157.314 458.247 155.914C458.247 154.822 457.631 154.122 456.035 153.884L455.475 153.8C454.579 153.66 454.089 153.38 454.089 152.68C454.089 151.994 454.579 151.56 455.503 151.56C456.427 151.56 457.043 151.994 457.365 152.442L458.107 151.77C457.519 151.042 456.749 150.608 455.587 150.608C454.117 150.608 453.011 151.308 453.011 152.736C453.011 154.08 454.005 154.626 455.335 154.822L455.909 154.906C456.861 155.046 457.169 155.48 457.169 156.04C457.169 156.782 456.609 157.216 455.657 157.216C454.747 157.216 454.075 156.81 453.515 156.11L452.717 156.754C453.361 157.608 454.243 158.168 455.573 158.168ZM463.073 158.168C464.445 158.168 465.383 157.496 465.845 156.46L465.033 155.914C464.641 156.74 463.983 157.174 463.073 157.174C461.743 157.174 461.057 156.264 461.057 155.004V153.772C461.057 152.512 461.743 151.602 463.073 151.602C463.955 151.602 464.571 152.036 464.837 152.778L465.775 152.302C465.355 151.308 464.501 150.608 463.073 150.608C461.043 150.608 459.853 152.078 459.853 154.388C459.853 156.698 461.043 158.168 463.073 158.168ZM468.706 158V153.1C468.706 152.414 469.434 151.896 470.638 151.896H471.296V150.776H470.862C469.686 150.776 469.028 151.42 468.776 152.106H468.706V150.776H467.586V158H468.706ZM473.446 149.082C473.922 149.082 474.132 148.83 474.132 148.452V148.27C474.132 147.892 473.922 147.64 473.446 147.64C472.97 147.64 472.76 147.892 472.76 148.27V148.452C472.76 148.83 472.97 149.082 473.446 149.082ZM472.886 158H474.006V150.776H472.886V158ZM477.666 158V152.988C477.666 152.064 478.506 151.616 479.388 151.616C480.452 151.616 480.942 152.274 480.942 153.562V158H482.062V152.988C482.062 152.064 482.874 151.616 483.756 151.616C484.848 151.616 485.338 152.288 485.338 153.562V158H486.458V153.366C486.458 151.616 485.576 150.608 484.106 150.608C482.874 150.608 482.174 151.294 481.908 152.078H481.88C481.488 151.042 480.62 150.608 479.668 150.608C478.548 150.608 478.044 151.21 477.722 151.952H477.666V150.776H476.546V158H477.666ZM489.489 149.082C489.965 149.082 490.175 148.83 490.175 148.452V148.27C490.175 147.892 489.965 147.64 489.489 147.64C489.013 147.64 488.803 147.892 488.803 148.27V148.452C488.803 148.83 489.013 149.082 489.489 149.082ZM488.929 158H490.049V150.776H488.929V158ZM493.709 158V152.988C493.709 152.064 494.577 151.616 495.473 151.616C496.551 151.616 497.111 152.274 497.111 153.562V158H498.231V153.366C498.231 151.616 497.293 150.608 495.809 150.608C494.731 150.608 494.115 151.14 493.765 151.952H493.709V150.776H492.589V158H493.709ZM506.586 158V157.02H505.76V153.044C505.76 151.518 504.724 150.608 502.988 150.608C501.686 150.608 500.818 151.252 500.426 152.022L501.098 152.652C501.49 151.994 502.064 151.574 502.932 151.574C504.08 151.574 504.64 152.134 504.64 153.156V153.87H503.212C501.112 153.87 500.132 154.626 500.132 155.984C500.132 157.328 501.028 158.168 502.554 158.168C503.562 158.168 504.332 157.706 504.64 156.824H504.71C504.794 157.496 505.13 158 505.956 158H506.586ZM502.736 157.216C501.868 157.216 501.308 156.81 501.308 156.096V155.802C501.308 155.102 501.882 154.71 503.156 154.71H504.64V155.9C504.64 156.642 503.842 157.216 502.736 157.216ZM511.341 158V157.02H509.871V151.756H511.453V150.776H509.871V148.774H508.863V150.118C508.863 150.608 508.709 150.776 508.233 150.776H507.561V151.756H508.751V156.81C508.751 157.51 509.171 158 509.941 158H511.341ZM516.088 158.168C518.02 158.168 519.35 156.684 519.35 154.388C519.35 152.092 518.02 150.608 516.088 150.608C514.156 150.608 512.826 152.092 512.826 154.388C512.826 156.684 514.156 158.168 516.088 158.168ZM516.088 157.174C514.884 157.174 514.03 156.432 514.03 154.906V153.87C514.03 152.344 514.884 151.602 516.088 151.602C517.292 151.602 518.146 152.344 518.146 153.87V154.906C518.146 156.432 517.292 157.174 516.088 157.174ZM522.472 158V153.1C522.472 152.414 523.2 151.896 524.404 151.896H525.062V150.776H524.628C523.452 150.776 522.794 151.42 522.542 152.106H522.472V150.776H521.352V158H522.472ZM440.302 178H441.45V169.768H441.52L442.346 171.406L444.684 175.662L447.022 171.406L447.848 169.768H447.918V178H449.066V168.228H447.554L444.74 173.492H444.67L441.87 168.228H440.302V178ZM454.441 178.168C456.373 178.168 457.703 176.684 457.703 174.388C457.703 172.092 456.373 170.608 454.441 170.608C452.509 170.608 451.179 172.092 451.179 174.388C451.179 176.684 452.509 178.168 454.441 178.168ZM454.441 177.174C453.237 177.174 452.383 176.432 452.383 174.906V173.87C452.383 172.344 453.237 171.602 454.441 171.602C455.645 171.602 456.499 172.344 456.499 173.87V174.906C456.499 176.432 455.645 177.174 454.441 177.174ZM464.325 178H465.445V167.64H464.325V171.952H464.269C463.891 171.042 463.149 170.608 462.155 170.608C460.349 170.608 459.215 172.078 459.215 174.388C459.215 176.698 460.349 178.168 462.155 178.168C463.149 178.168 463.835 177.72 464.269 176.824H464.325V178ZM462.463 177.16C461.203 177.16 460.419 176.292 460.419 175.004V173.772C460.419 172.484 461.203 171.616 462.463 171.616C463.485 171.616 464.325 172.204 464.325 173.002V175.69C464.325 176.628 463.485 177.16 462.463 177.16ZM470.702 178.168C472.06 178.168 473.096 177.496 473.558 176.516L472.76 175.942C472.382 176.74 471.682 177.188 470.772 177.188C469.428 177.188 468.63 176.25 468.63 175.004V174.668H473.824V174.136C473.824 172.092 472.634 170.608 470.702 170.608C468.742 170.608 467.454 172.092 467.454 174.388C467.454 176.684 468.742 178.168 470.702 178.168ZM470.702 171.546C471.85 171.546 472.62 172.4 472.62 173.674V173.828H468.63V173.73C468.63 172.47 469.484 171.546 470.702 171.546ZM478.014 178V177.02H476.95V167.64H475.83V176.838C475.83 177.51 476.25 178 477.02 178H478.014Z" fill="white"/>
<path d="M390.232 276.228V281.996C390.232 284.838 391.1 286.168 393.704 286.168C396.308 286.168 397.26 284.838 397.26 281.996V276.228H396.084V282.276C396.084 284.138 395.482 285.118 393.746 285.118C392.01 285.118 391.408 284.138 391.408 282.276V276.228H390.232ZM399.838 288.8H400.958V284.824H401.014C401.448 285.72 402.134 286.168 403.128 286.168C404.934 286.168 406.068 284.698 406.068 282.388C406.068 280.078 404.934 278.608 403.128 278.608C402.134 278.608 401.392 279.042 401.014 279.952H400.958V278.776H399.838V288.8ZM402.82 285.16C401.798 285.16 400.958 284.628 400.958 283.69V281.002C400.958 280.204 401.798 279.616 402.82 279.616C404.08 279.616 404.864 280.484 404.864 281.772V283.004C404.864 284.292 404.08 285.16 402.82 285.16ZM412.739 286H413.859V275.64H412.739V279.952H412.683C412.305 279.042 411.563 278.608 410.569 278.608C408.763 278.608 407.629 280.078 407.629 282.388C407.629 284.698 408.763 286.168 410.569 286.168C411.563 286.168 412.249 285.72 412.683 284.824H412.739V286ZM410.877 285.16C409.617 285.16 408.833 284.292 408.833 283.004V281.772C408.833 280.484 409.617 279.616 410.877 279.616C411.899 279.616 412.739 280.204 412.739 281.002V283.69C412.739 284.628 411.899 285.16 410.877 285.16ZM422.28 286V285.02H421.454V281.044C421.454 279.518 420.418 278.608 418.682 278.608C417.38 278.608 416.512 279.252 416.12 280.022L416.792 280.652C417.184 279.994 417.758 279.574 418.626 279.574C419.774 279.574 420.334 280.134 420.334 281.156V281.87H418.906C416.806 281.87 415.826 282.626 415.826 283.984C415.826 285.328 416.722 286.168 418.248 286.168C419.256 286.168 420.026 285.706 420.334 284.824H420.404C420.488 285.496 420.824 286 421.65 286H422.28ZM418.43 285.216C417.562 285.216 417.002 284.81 417.002 284.096V283.802C417.002 283.102 417.576 282.71 418.85 282.71H420.334V283.9C420.334 284.642 419.536 285.216 418.43 285.216ZM427.035 286V285.02H425.565V279.756H427.147V278.776H425.565V276.774H424.557V278.118C424.557 278.608 424.403 278.776 423.927 278.776H423.255V279.756H424.445V284.81C424.445 285.51 424.865 286 425.635 286H427.035ZM431.768 286.168C433.126 286.168 434.162 285.496 434.624 284.516L433.826 283.942C433.448 284.74 432.748 285.188 431.838 285.188C430.494 285.188 429.696 284.25 429.696 283.004V282.668H434.89V282.136C434.89 280.092 433.7 278.608 431.768 278.608C429.808 278.608 428.52 280.092 428.52 282.388C428.52 284.684 429.808 286.168 431.768 286.168ZM431.768 279.546C432.916 279.546 433.686 280.4 433.686 281.674V281.828H429.696V281.73C429.696 280.47 430.55 279.546 431.768 279.546ZM440.477 286H441.625V277.768H441.695L442.521 279.406L444.859 283.662L447.197 279.406L448.023 277.768H448.093V286H449.241V276.228H447.729L444.915 281.492H444.845L442.045 276.228H440.477V286ZM454.616 286.168C456.548 286.168 457.878 284.684 457.878 282.388C457.878 280.092 456.548 278.608 454.616 278.608C452.684 278.608 451.354 280.092 451.354 282.388C451.354 284.684 452.684 286.168 454.616 286.168ZM454.616 285.174C453.412 285.174 452.558 284.432 452.558 282.906V281.87C452.558 280.344 453.412 279.602 454.616 279.602C455.82 279.602 456.674 280.344 456.674 281.87V282.906C456.674 284.432 455.82 285.174 454.616 285.174ZM464.5 286H465.62V275.64H464.5V279.952H464.444C464.066 279.042 463.324 278.608 462.33 278.608C460.524 278.608 459.39 280.078 459.39 282.388C459.39 284.698 460.524 286.168 462.33 286.168C463.324 286.168 464.01 285.72 464.444 284.824H464.5V286ZM462.638 285.16C461.378 285.16 460.594 284.292 460.594 283.004V281.772C460.594 280.484 461.378 279.616 462.638 279.616C463.66 279.616 464.5 280.204 464.5 281.002V283.69C464.5 284.628 463.66 285.16 462.638 285.16ZM470.877 286.168C472.235 286.168 473.271 285.496 473.733 284.516L472.935 283.942C472.557 284.74 471.857 285.188 470.947 285.188C469.603 285.188 468.805 284.25 468.805 283.004V282.668H473.999V282.136C473.999 280.092 472.809 278.608 470.877 278.608C468.917 278.608 467.629 280.092 467.629 282.388C467.629 284.684 468.917 286.168 470.877 286.168ZM470.877 279.546C472.025 279.546 472.795 280.4 472.795 281.674V281.828H468.805V281.73C468.805 280.47 469.659 279.546 470.877 279.546ZM478.189 286V285.02H477.125V275.64H476.005V284.838C476.005 285.51 476.425 286 477.195 286H478.189Z" fill="#121619"/>
<path d="M523.232 66.228V71.996C523.232 74.838 524.1 76.168 526.704 76.168C529.308 76.168 530.26 74.838 530.26 71.996V66.228H529.084V72.276C529.084 74.138 528.482 75.118 526.746 75.118C525.01 75.118 524.408 74.138 524.408 72.276V66.228H523.232ZM532.838 78.8H533.958V74.824H534.014C534.448 75.72 535.134 76.168 536.128 76.168C537.934 76.168 539.068 74.698 539.068 72.388C539.068 70.078 537.934 68.608 536.128 68.608C535.134 68.608 534.392 69.042 534.014 69.952H533.958V68.776H532.838V78.8ZM535.82 75.16C534.798 75.16 533.958 74.628 533.958 73.69V71.002C533.958 70.204 534.798 69.616 535.82 69.616C537.08 69.616 537.864 70.484 537.864 71.772V73.004C537.864 74.292 537.08 75.16 535.82 75.16ZM545.739 76H546.859V65.64H545.739V69.952H545.683C545.305 69.042 544.563 68.608 543.569 68.608C541.763 68.608 540.629 70.078 540.629 72.388C540.629 74.698 541.763 76.168 543.569 76.168C544.563 76.168 545.249 75.72 545.683 74.824H545.739V76ZM543.877 75.16C542.617 75.16 541.833 74.292 541.833 73.004V71.772C541.833 70.484 542.617 69.616 543.877 69.616C544.899 69.616 545.739 70.204 545.739 71.002V73.69C545.739 74.628 544.899 75.16 543.877 75.16ZM555.28 76V75.02H554.454V71.044C554.454 69.518 553.418 68.608 551.682 68.608C550.38 68.608 549.512 69.252 549.12 70.022L549.792 70.652C550.184 69.994 550.758 69.574 551.626 69.574C552.774 69.574 553.334 70.134 553.334 71.156V71.87H551.906C549.806 71.87 548.826 72.626 548.826 73.984C548.826 75.328 549.722 76.168 551.248 76.168C552.256 76.168 553.026 75.706 553.334 74.824H553.404C553.488 75.496 553.824 76 554.65 76H555.28ZM551.43 75.216C550.562 75.216 550.002 74.81 550.002 74.096V73.802C550.002 73.102 550.576 72.71 551.85 72.71H553.334V73.9C553.334 74.642 552.536 75.216 551.43 75.216ZM560.035 76V75.02H558.565V69.756H560.147V68.776H558.565V66.774H557.557V68.118C557.557 68.608 557.403 68.776 556.927 68.776H556.255V69.756H557.445V74.81C557.445 75.51 557.865 76 558.635 76H560.035ZM564.768 76.168C566.126 76.168 567.162 75.496 567.624 74.516L566.826 73.942C566.448 74.74 565.748 75.188 564.838 75.188C563.494 75.188 562.696 74.25 562.696 73.004V72.668H567.89V72.136C567.89 70.092 566.7 68.608 564.768 68.608C562.808 68.608 561.52 70.092 561.52 72.388C561.52 74.684 562.808 76.168 564.768 76.168ZM564.768 69.546C565.916 69.546 566.686 70.4 566.686 71.674V71.828H562.696V71.73C562.696 70.47 563.55 69.546 564.768 69.546ZM573.477 76H574.625V67.768H574.695L575.521 69.406L577.859 73.662L580.197 69.406L581.023 67.768H581.093V76H582.241V66.228H580.729L577.915 71.492H577.845L575.045 66.228H573.477V76ZM587.616 76.168C589.548 76.168 590.878 74.684 590.878 72.388C590.878 70.092 589.548 68.608 587.616 68.608C585.684 68.608 584.354 70.092 584.354 72.388C584.354 74.684 585.684 76.168 587.616 76.168ZM587.616 75.174C586.412 75.174 585.558 74.432 585.558 72.906V71.87C585.558 70.344 586.412 69.602 587.616 69.602C588.82 69.602 589.674 70.344 589.674 71.87V72.906C589.674 74.432 588.82 75.174 587.616 75.174ZM597.5 76H598.62V65.64H597.5V69.952H597.444C597.066 69.042 596.324 68.608 595.33 68.608C593.524 68.608 592.39 70.078 592.39 72.388C592.39 74.698 593.524 76.168 595.33 76.168C596.324 76.168 597.01 75.72 597.444 74.824H597.5V76ZM595.638 75.16C594.378 75.16 593.594 74.292 593.594 73.004V71.772C593.594 70.484 594.378 69.616 595.638 69.616C596.66 69.616 597.5 70.204 597.5 71.002V73.69C597.5 74.628 596.66 75.16 595.638 75.16ZM603.877 76.168C605.235 76.168 606.271 75.496 606.733 74.516L605.935 73.942C605.557 74.74 604.857 75.188 603.947 75.188C602.603 75.188 601.805 74.25 601.805 73.004V72.668H606.999V72.136C606.999 70.092 605.809 68.608 603.877 68.608C601.917 68.608 600.629 70.092 600.629 72.388C600.629 74.684 601.917 76.168 603.877 76.168ZM603.877 69.546C605.025 69.546 605.795 70.4 605.795 71.674V71.828H601.805V71.73C601.805 70.47 602.659 69.546 603.877 69.546ZM611.189 76V75.02H610.125V65.64H609.005V74.838C609.005 75.51 609.425 76 610.195 76H611.189Z" fill="#121619"/>
<rect width="145" height="72" transform="translate(586 126)" fill="#1192E8"/>
<path d="M595.302 156H599.74C601.182 156 602.26 154.782 602.26 153.172C602.26 151.548 601.042 150.946 600.342 150.904V150.82C600.986 150.722 601.924 150.204 601.924 148.748C601.924 147.222 600.93 146.228 599.32 146.228H595.302V156ZM596.478 151.464H599.376C600.384 151.464 601 151.996 601 152.976V153.452C601 154.432 600.384 154.964 599.376 154.964H596.478V151.464ZM596.478 147.264H599.18C600.104 147.264 600.664 147.754 600.664 148.622V149.098C600.664 149.966 600.104 150.456 599.18 150.456H596.478V147.264ZM605.056 147.082C605.532 147.082 605.742 146.83 605.742 146.452V146.27C605.742 145.892 605.532 145.64 605.056 145.64C604.58 145.64 604.37 145.892 604.37 146.27V146.452C604.37 146.83 604.58 147.082 605.056 147.082ZM604.496 156H605.616V148.776H604.496V156ZM609.276 156V150.988C609.276 150.064 610.144 149.616 611.04 149.616C612.118 149.616 612.678 150.274 612.678 151.562V156H613.798V151.366C613.798 149.616 612.86 148.608 611.376 148.608C610.298 148.608 609.682 149.14 609.332 149.952H609.276V148.776H608.156V156H609.276ZM622.154 156V155.02H621.328V151.044C621.328 149.518 620.292 148.608 618.556 148.608C617.254 148.608 616.386 149.252 615.994 150.022L616.666 150.652C617.058 149.994 617.632 149.574 618.5 149.574C619.648 149.574 620.208 150.134 620.208 151.156V151.87H618.78C616.68 151.87 615.7 152.626 615.7 153.984C615.7 155.328 616.596 156.168 618.122 156.168C619.13 156.168 619.9 155.706 620.208 154.824H620.278C620.362 155.496 620.698 156 621.524 156H622.154ZM618.304 155.216C617.436 155.216 616.876 154.81 616.876 154.096V153.802C616.876 153.102 617.45 152.71 618.724 152.71H620.208V153.9C620.208 154.642 619.41 155.216 618.304 155.216ZM625.032 156V151.1C625.032 150.414 625.76 149.896 626.964 149.896H627.622V148.776H627.188C626.012 148.776 625.354 149.42 625.102 150.106H625.032V148.776H623.912V156H625.032ZM632.051 153.69L631.659 154.866H631.589L631.253 153.69L629.517 148.776H628.397L631.099 156.28L630.553 157.82H629.419V158.8H629.993C631.057 158.8 631.351 158.548 631.673 157.68L634.907 148.776H633.801L632.051 153.69ZM643.52 156.168C645.144 156.168 646.334 155.314 646.95 153.942L646.012 153.354C645.62 154.418 644.766 155.118 643.52 155.118C641.84 155.118 640.846 153.9 640.846 151.898V150.442C640.846 148.44 641.84 147.11 643.52 147.11C644.724 147.11 645.536 147.768 645.928 148.776L646.88 148.202C646.264 146.844 645.144 146.06 643.52 146.06C641.056 146.06 639.586 147.908 639.586 151.17C639.586 154.432 641.056 156.168 643.52 156.168ZM651.004 156V155.02H649.94V145.64H648.82V154.838C648.82 155.51 649.24 156 650.01 156H651.004ZM658.674 156V155.02H657.848V151.044C657.848 149.518 656.812 148.608 655.076 148.608C653.774 148.608 652.906 149.252 652.514 150.022L653.186 150.652C653.578 149.994 654.152 149.574 655.02 149.574C656.168 149.574 656.728 150.134 656.728 151.156V151.87H655.3C653.2 151.87 652.22 152.626 652.22 153.984C652.22 155.328 653.116 156.168 654.642 156.168C655.65 156.168 656.42 155.706 656.728 154.824H656.798C656.882 155.496 657.218 156 658.044 156H658.674ZM654.824 155.216C653.956 155.216 653.396 154.81 653.396 154.096V153.802C653.396 153.102 653.97 152.71 655.244 152.71H656.728V153.9C656.728 154.642 655.93 155.216 654.824 155.216ZM662.603 156.168C664.255 156.168 665.277 155.314 665.277 153.914C665.277 152.822 664.661 152.122 663.065 151.884L662.505 151.8C661.609 151.66 661.119 151.38 661.119 150.68C661.119 149.994 661.609 149.56 662.533 149.56C663.457 149.56 664.073 149.994 664.395 150.442L665.137 149.77C664.549 149.042 663.779 148.608 662.617 148.608C661.147 148.608 660.041 149.308 660.041 150.736C660.041 152.08 661.035 152.626 662.365 152.822L662.939 152.906C663.891 153.046 664.199 153.48 664.199 154.04C664.199 154.782 663.639 155.216 662.687 155.216C661.777 155.216 661.105 154.81 660.545 154.11L659.747 154.754C660.391 155.608 661.273 156.168 662.603 156.168ZM669.503 156.168C671.155 156.168 672.177 155.314 672.177 153.914C672.177 152.822 671.561 152.122 669.965 151.884L669.405 151.8C668.509 151.66 668.019 151.38 668.019 150.68C668.019 149.994 668.509 149.56 669.433 149.56C670.357 149.56 670.973 149.994 671.295 150.442L672.037 149.77C671.449 149.042 670.679 148.608 669.517 148.608C668.047 148.608 666.941 149.308 666.941 150.736C666.941 152.08 667.935 152.626 669.265 152.822L669.839 152.906C670.791 153.046 671.099 153.48 671.099 154.04C671.099 154.782 670.539 155.216 669.587 155.216C668.677 155.216 668.005 154.81 667.445 154.11L666.647 154.754C667.291 155.608 668.173 156.168 669.503 156.168ZM674.875 147.082C675.351 147.082 675.561 146.83 675.561 146.452V146.27C675.561 145.892 675.351 145.64 674.875 145.64C674.399 145.64 674.189 145.892 674.189 146.27V146.452C674.189 146.83 674.399 147.082 674.875 147.082ZM674.315 156H675.435V148.776H674.315V156ZM678.367 156H679.487V149.756H682.413V156H683.533V148.776H679.487V146.62H681.041V145.64H679.949C678.885 145.64 678.367 146.326 678.367 147.32V148.776H677.191V149.756H678.367V156ZM682.973 147.082C683.449 147.082 683.659 146.83 683.659 146.452V146.27C683.659 145.892 683.449 145.64 682.973 145.64C682.497 145.64 682.287 145.892 682.287 146.27V146.452C682.287 146.83 682.497 147.082 682.973 147.082ZM688.766 156.168C690.138 156.168 691.076 155.496 691.538 154.46L690.726 153.914C690.334 154.74 689.676 155.174 688.766 155.174C687.436 155.174 686.75 154.264 686.75 153.004V151.772C686.75 150.512 687.436 149.602 688.766 149.602C689.648 149.602 690.264 150.036 690.53 150.778L691.468 150.302C691.048 149.308 690.194 148.608 688.766 148.608C686.736 148.608 685.546 150.078 685.546 152.388C685.546 154.698 686.736 156.168 688.766 156.168ZM699.159 156V155.02H698.333V151.044C698.333 149.518 697.297 148.608 695.561 148.608C694.259 148.608 693.391 149.252 692.999 150.022L693.671 150.652C694.063 149.994 694.637 149.574 695.505 149.574C696.653 149.574 697.213 150.134 697.213 151.156V151.87H695.785C693.685 151.87 692.705 152.626 692.705 153.984C692.705 155.328 693.601 156.168 695.127 156.168C696.135 156.168 696.905 155.706 697.213 154.824H697.283C697.367 155.496 697.703 156 698.529 156H699.159ZM695.309 155.216C694.441 155.216 693.881 154.81 693.881 154.096V153.802C693.881 153.102 694.455 152.71 695.729 152.71H697.213V153.9C697.213 154.642 696.415 155.216 695.309 155.216ZM703.914 156V155.02H702.444V149.756H704.026V148.776H702.444V146.774H701.436V148.118C701.436 148.608 701.282 148.776 700.806 148.776H700.134V149.756H701.324V154.81C701.324 155.51 701.744 156 702.514 156H703.914ZM706.546 147.082C707.022 147.082 707.232 146.83 707.232 146.452V146.27C707.232 145.892 707.022 145.64 706.546 145.64C706.07 145.64 705.86 145.892 705.86 146.27V146.452C705.86 146.83 706.07 147.082 706.546 147.082ZM705.986 156H707.106V148.776H705.986V156ZM712.376 156.168C714.308 156.168 715.638 154.684 715.638 152.388C715.638 150.092 714.308 148.608 712.376 148.608C710.444 148.608 709.114 150.092 709.114 152.388C709.114 154.684 710.444 156.168 712.376 156.168ZM712.376 155.174C711.172 155.174 710.318 154.432 710.318 152.906V151.87C710.318 150.344 711.172 149.602 712.376 149.602C713.58 149.602 714.434 150.344 714.434 151.87V152.906C714.434 154.432 713.58 155.174 712.376 155.174ZM718.76 156V150.988C718.76 150.064 719.628 149.616 720.524 149.616C721.602 149.616 722.162 150.274 722.162 151.562V156H723.282V151.366C723.282 149.616 722.344 148.608 720.86 148.608C719.782 148.608 719.166 149.14 718.816 149.952H718.76V148.776H717.64V156H718.76ZM596.478 171.8H598.76L600.874 176H602.204L599.964 171.688C601.238 171.394 601.924 170.428 601.924 169C601.924 167.222 600.902 166.228 599.194 166.228H595.302V176H596.478V171.8ZM596.478 170.792V167.264H599.194C600.118 167.264 600.664 167.768 600.664 168.664V169.392C600.664 170.288 600.118 170.792 599.194 170.792H596.478ZM606.816 176.168C608.174 176.168 609.21 175.496 609.672 174.516L608.874 173.942C608.496 174.74 607.796 175.188 606.886 175.188C605.542 175.188 604.744 174.25 604.744 173.004V172.668H609.938V172.136C609.938 170.092 608.748 168.608 606.816 168.608C604.856 168.608 603.568 170.092 603.568 172.388C603.568 174.684 604.856 176.168 606.816 176.168ZM606.816 169.546C607.964 169.546 608.734 170.4 608.734 171.674V171.828H604.744V171.73C604.744 170.47 605.598 169.546 606.816 169.546ZM617.824 176V175.02H616.998V171.044C616.998 169.518 615.962 168.608 614.226 168.608C612.924 168.608 612.056 169.252 611.664 170.022L612.336 170.652C612.728 169.994 613.302 169.574 614.17 169.574C615.318 169.574 615.878 170.134 615.878 171.156V171.87H614.45C612.35 171.87 611.37 172.626 611.37 173.984C611.37 175.328 612.266 176.168 613.792 176.168C614.8 176.168 615.57 175.706 615.878 174.824H615.948C616.032 175.496 616.368 176 617.194 176H617.824ZM613.974 175.216C613.106 175.216 612.546 174.81 612.546 174.096V173.802C612.546 173.102 613.12 172.71 614.394 172.71H615.878V173.9C615.878 174.642 615.08 175.216 613.974 175.216ZM621.766 176V175.02H620.702V165.64H619.582V174.838C619.582 175.51 620.002 176 620.772 176H621.766ZM623.501 178.114L627.155 165.64H626.147L622.493 178.114H623.501ZM630.364 176V171.576H634.606V170.54H630.364V167.264H635.012V166.228H629.188V176H630.364ZM642.376 176V175.02H641.55V171.044C641.55 169.518 640.514 168.608 638.778 168.608C637.476 168.608 636.608 169.252 636.216 170.022L636.888 170.652C637.28 169.994 637.854 169.574 638.722 169.574C639.87 169.574 640.43 170.134 640.43 171.156V171.87H639.002C636.902 171.87 635.922 172.626 635.922 173.984C635.922 175.328 636.818 176.168 638.344 176.168C639.352 176.168 640.122 175.706 640.43 174.824H640.5C640.584 175.496 640.92 176 641.746 176H642.376ZM638.526 175.216C637.658 175.216 637.098 174.81 637.098 174.096V173.802C637.098 173.102 637.672 172.71 638.946 172.71H640.43V173.9C640.43 174.642 639.632 175.216 638.526 175.216ZM644.134 176H645.254V173.424L646.332 172.318L648.726 176H650.084L647.144 171.632L649.818 168.776H648.46L646.416 170.974L645.31 172.206H645.254V165.64H644.134V176ZM654.161 176.168C655.519 176.168 656.555 175.496 657.017 174.516L656.219 173.942C655.841 174.74 655.141 175.188 654.231 175.188C652.887 175.188 652.089 174.25 652.089 173.004V172.668H657.283V172.136C657.283 170.092 656.093 168.608 654.161 168.608C652.201 168.608 650.913 170.092 650.913 172.388C650.913 174.684 652.201 176.168 654.161 176.168ZM654.161 169.546C655.309 169.546 656.079 170.4 656.079 171.674V171.828H652.089V171.73C652.089 170.47 652.943 169.546 654.161 169.546Z" fill="white"/>
<rect width="86" height="72" transform="translate(165 82)" fill="#1192E8"/>
<path d="M183.63 113H184.722V107.974H181.418V109.01H183.574V109.976C183.574 111.418 182.44 112.118 181.082 112.118C179.22 112.118 178.072 110.83 178.072 108.898V107.316C178.072 105.384 179.248 104.11 180.97 104.11C182.202 104.11 183.112 104.754 183.56 105.79L184.526 105.202C183.896 103.928 182.72 103.06 180.97 103.06C178.464 103.06 176.812 104.866 176.812 108.114C176.812 111.39 178.478 113.168 180.872 113.168C182.356 113.168 183.35 112.482 183.588 111.572H183.63V113ZM189.8 113.168C191.158 113.168 192.194 112.496 192.656 111.516L191.858 110.942C191.48 111.74 190.78 112.188 189.87 112.188C188.526 112.188 187.728 111.25 187.728 110.004V109.668H192.922V109.136C192.922 107.092 191.732 105.608 189.8 105.608C187.84 105.608 186.552 107.092 186.552 109.388C186.552 111.684 187.84 113.168 189.8 113.168ZM189.8 106.546C190.948 106.546 191.718 107.4 191.718 108.674V108.828H187.728V108.73C187.728 107.47 188.582 106.546 189.8 106.546ZM196.048 113V107.988C196.048 107.064 196.916 106.616 197.812 106.616C198.89 106.616 199.45 107.274 199.45 108.562V113H200.57V108.366C200.57 106.616 199.632 105.608 198.148 105.608C197.07 105.608 196.454 106.14 196.104 106.952H196.048V105.776H194.928V113H196.048ZM205.761 113.168C207.119 113.168 208.155 112.496 208.617 111.516L207.819 110.942C207.441 111.74 206.741 112.188 205.831 112.188C204.487 112.188 203.689 111.25 203.689 110.004V109.668H208.883V109.136C208.883 107.092 207.693 105.608 205.761 105.608C203.801 105.608 202.513 107.092 202.513 109.388C202.513 111.684 203.801 113.168 205.761 113.168ZM205.761 106.546C206.909 106.546 207.679 107.4 207.679 108.674V108.828H203.689V108.73C203.689 107.47 204.543 106.546 205.761 106.546ZM212.009 113V108.1C212.009 107.414 212.737 106.896 213.941 106.896H214.599V105.776H214.165C212.989 105.776 212.331 106.42 212.079 107.106H212.009V105.776H210.889V113H212.009ZM222.015 113V112.02H221.189V108.044C221.189 106.518 220.153 105.608 218.417 105.608C217.115 105.608 216.247 106.252 215.855 107.022L216.527 107.652C216.919 106.994 217.493 106.574 218.361 106.574C219.509 106.574 220.069 107.134 220.069 108.156V108.87H218.641C216.541 108.87 215.561 109.626 215.561 110.984C215.561 112.328 216.457 113.168 217.983 113.168C218.991 113.168 219.761 112.706 220.069 111.824H220.139C220.223 112.496 220.559 113 221.385 113H222.015ZM218.165 112.216C217.297 112.216 216.737 111.81 216.737 111.096V110.802C216.737 110.102 217.311 109.71 218.585 109.71H220.069V110.9C220.069 111.642 219.271 112.216 218.165 112.216ZM226.769 113V112.02H225.299V106.756H226.881V105.776H225.299V103.774H224.291V105.118C224.291 105.608 224.137 105.776 223.661 105.776H222.989V106.756H224.179V111.81C224.179 112.51 224.599 113 225.369 113H226.769ZM231.517 113.168C233.449 113.168 234.779 111.684 234.779 109.388C234.779 107.092 233.449 105.608 231.517 105.608C229.585 105.608 228.255 107.092 228.255 109.388C228.255 111.684 229.585 113.168 231.517 113.168ZM231.517 112.174C230.313 112.174 229.459 111.432 229.459 109.906V108.87C229.459 107.344 230.313 106.602 231.517 106.602C232.721 106.602 233.575 107.344 233.575 108.87V109.906C233.575 111.432 232.721 112.174 231.517 112.174ZM237.901 113V108.1C237.901 107.414 238.629 106.896 239.833 106.896H240.491V105.776H240.057C238.881 105.776 238.223 106.42 237.971 107.106H237.901V105.776H236.781V113H237.901ZM177.302 133H178.45V124.768H178.52L179.346 126.406L181.684 130.662L184.022 126.406L184.848 124.768H184.918V133H186.066V123.228H184.554L181.74 128.492H181.67L178.87 123.228H177.302V133ZM191.441 133.168C193.373 133.168 194.703 131.684 194.703 129.388C194.703 127.092 193.373 125.608 191.441 125.608C189.509 125.608 188.179 127.092 188.179 129.388C188.179 131.684 189.509 133.168 191.441 133.168ZM191.441 132.174C190.237 132.174 189.383 131.432 189.383 129.906V128.87C189.383 127.344 190.237 126.602 191.441 126.602C192.645 126.602 193.499 127.344 193.499 128.87V129.906C193.499 131.432 192.645 132.174 191.441 132.174ZM201.325 133H202.445V122.64H201.325V126.952H201.269C200.891 126.042 200.149 125.608 199.155 125.608C197.349 125.608 196.215 127.078 196.215 129.388C196.215 131.698 197.349 133.168 199.155 133.168C200.149 133.168 200.835 132.72 201.269 131.824H201.325V133ZM199.463 132.16C198.203 132.16 197.419 131.292 197.419 130.004V128.772C197.419 127.484 198.203 126.616 199.463 126.616C200.485 126.616 201.325 127.204 201.325 128.002V130.69C201.325 131.628 200.485 132.16 199.463 132.16ZM207.702 133.168C209.06 133.168 210.096 132.496 210.558 131.516L209.76 130.942C209.382 131.74 208.682 132.188 207.772 132.188C206.428 132.188 205.63 131.25 205.63 130.004V129.668H210.824V129.136C210.824 127.092 209.634 125.608 207.702 125.608C205.742 125.608 204.454 127.092 204.454 129.388C204.454 131.684 205.742 133.168 207.702 133.168ZM207.702 126.546C208.85 126.546 209.62 127.4 209.62 128.674V128.828H205.63V128.73C205.63 127.47 206.484 126.546 207.702 126.546ZM215.014 133V132.02H213.95V122.64H212.83V131.838C212.83 132.51 213.25 133 214.02 133H215.014Z" fill="white"/>
<rect width="86" height="72" transform="translate(289 82)" fill="#1192E8"/>
<path d="M305.63 113H306.722V107.974H303.418V109.01H305.574V109.976C305.574 111.418 304.44 112.118 303.082 112.118C301.22 112.118 300.072 110.83 300.072 108.898V107.316C300.072 105.384 301.248 104.11 302.97 104.11C304.202 104.11 305.112 104.754 305.56 105.79L306.526 105.202C305.896 103.928 304.72 103.06 302.97 103.06C300.464 103.06 298.812 104.866 298.812 108.114C298.812 111.39 300.478 113.168 302.872 113.168C304.356 113.168 305.35 112.482 305.588 111.572H305.63V113ZM311.8 113.168C313.158 113.168 314.194 112.496 314.656 111.516L313.858 110.942C313.48 111.74 312.78 112.188 311.87 112.188C310.526 112.188 309.728 111.25 309.728 110.004V109.668H314.922V109.136C314.922 107.092 313.732 105.608 311.8 105.608C309.84 105.608 308.552 107.092 308.552 109.388C308.552 111.684 309.84 113.168 311.8 113.168ZM311.8 106.546C312.948 106.546 313.718 107.4 313.718 108.674V108.828H309.728V108.73C309.728 107.47 310.582 106.546 311.8 106.546ZM318.048 113V107.988C318.048 107.064 318.916 106.616 319.812 106.616C320.89 106.616 321.45 107.274 321.45 108.562V113H322.57V108.366C322.57 106.616 321.632 105.608 320.148 105.608C319.07 105.608 318.454 106.14 318.104 106.952H318.048V105.776H316.928V113H318.048ZM327.761 113.168C329.119 113.168 330.155 112.496 330.617 111.516L329.819 110.942C329.441 111.74 328.741 112.188 327.831 112.188C326.487 112.188 325.689 111.25 325.689 110.004V109.668H330.883V109.136C330.883 107.092 329.693 105.608 327.761 105.608C325.801 105.608 324.513 107.092 324.513 109.388C324.513 111.684 325.801 113.168 327.761 113.168ZM327.761 106.546C328.909 106.546 329.679 107.4 329.679 108.674V108.828H325.689V108.73C325.689 107.47 326.543 106.546 327.761 106.546ZM334.009 113V108.1C334.009 107.414 334.737 106.896 335.941 106.896H336.599V105.776H336.165C334.989 105.776 334.331 106.42 334.079 107.106H334.009V105.776H332.889V113H334.009ZM344.015 113V112.02H343.189V108.044C343.189 106.518 342.153 105.608 340.417 105.608C339.115 105.608 338.247 106.252 337.855 107.022L338.527 107.652C338.919 106.994 339.493 106.574 340.361 106.574C341.509 106.574 342.069 107.134 342.069 108.156V108.87H340.641C338.541 108.87 337.561 109.626 337.561 110.984C337.561 112.328 338.457 113.168 339.983 113.168C340.991 113.168 341.761 112.706 342.069 111.824H342.139C342.223 112.496 342.559 113 343.385 113H344.015ZM340.165 112.216C339.297 112.216 338.737 111.81 338.737 111.096V110.802C338.737 110.102 339.311 109.71 340.585 109.71H342.069V110.9C342.069 111.642 341.271 112.216 340.165 112.216ZM348.769 113V112.02H347.299V106.756H348.881V105.776H347.299V103.774H346.291V105.118C346.291 105.608 346.137 105.776 345.661 105.776H344.989V106.756H346.179V111.81C346.179 112.51 346.599 113 347.369 113H348.769ZM353.503 113.168C354.861 113.168 355.897 112.496 356.359 111.516L355.561 110.942C355.183 111.74 354.483 112.188 353.573 112.188C352.229 112.188 351.431 111.25 351.431 110.004V109.668H356.625V109.136C356.625 107.092 355.435 105.608 353.503 105.608C351.543 105.608 350.255 107.092 350.255 109.388C350.255 111.684 351.543 113.168 353.503 113.168ZM353.503 106.546C354.651 106.546 355.421 107.4 355.421 108.674V108.828H351.431V108.73C351.431 107.47 352.285 106.546 353.503 106.546ZM363.25 113H364.37V102.64H363.25V106.952H363.194C362.816 106.042 362.074 105.608 361.08 105.608C359.274 105.608 358.14 107.078 358.14 109.388C358.14 111.698 359.274 113.168 361.08 113.168C362.074 113.168 362.76 112.72 363.194 111.824H363.25V113ZM361.388 112.16C360.128 112.16 359.344 111.292 359.344 110.004V108.772C359.344 107.484 360.128 106.616 361.388 106.616C362.41 106.616 363.25 107.204 363.25 108.002V110.69C363.25 111.628 362.41 112.16 361.388 112.16ZM305.266 133V131.964H300.478V128.576H304.986V127.54H300.478V124.264H305.266V123.228H299.302V133H305.266ZM306.616 133H307.862L309.892 130.172H309.934L311.81 133H313.126L310.522 129.276L313.07 125.776H311.824L309.92 128.464H309.878L308.044 125.776H306.728L309.29 129.36L306.616 133ZM320.648 133V132.02H319.822V128.044C319.822 126.518 318.786 125.608 317.05 125.608C315.748 125.608 314.88 126.252 314.488 127.022L315.16 127.652C315.552 126.994 316.126 126.574 316.994 126.574C318.142 126.574 318.702 127.134 318.702 128.156V128.87H317.274C315.174 128.87 314.194 129.626 314.194 130.984C314.194 132.328 315.09 133.168 316.616 133.168C317.624 133.168 318.394 132.706 318.702 131.824H318.772C318.856 132.496 319.192 133 320.018 133H320.648ZM316.798 132.216C315.93 132.216 315.37 131.81 315.37 131.096V130.802C315.37 130.102 315.944 129.71 317.218 129.71H318.702V130.9C318.702 131.642 317.904 132.216 316.798 132.216ZM323.526 133V127.988C323.526 127.064 324.366 126.616 325.248 126.616C326.312 126.616 326.802 127.274 326.802 128.562V133H327.922V127.988C327.922 127.064 328.734 126.616 329.616 126.616C330.708 126.616 331.198 127.288 331.198 128.562V133H332.318V128.366C332.318 126.616 331.436 125.608 329.966 125.608C328.734 125.608 328.034 126.294 327.768 127.078H327.74C327.348 126.042 326.48 125.608 325.528 125.608C324.408 125.608 323.904 126.21 323.582 126.952H323.526V125.776H322.406V133H323.526ZM334.789 135.8H335.909V131.824H335.965C336.399 132.72 337.085 133.168 338.079 133.168C339.885 133.168 341.019 131.698 341.019 129.388C341.019 127.078 339.885 125.608 338.079 125.608C337.085 125.608 336.343 126.042 335.965 126.952H335.909V125.776H334.789V135.8ZM337.771 132.16C336.749 132.16 335.909 131.628 335.909 130.69V128.002C335.909 127.204 336.749 126.616 337.771 126.616C339.031 126.616 339.815 127.484 339.815 128.772V130.004C339.815 131.292 339.031 132.16 337.771 132.16ZM345.254 133V132.02H344.19V122.64H343.07V131.838C343.07 132.51 343.49 133 344.26 133H345.254ZM349.761 133.168C351.119 133.168 352.155 132.496 352.617 131.516L351.819 130.942C351.441 131.74 350.741 132.188 349.831 132.188C348.487 132.188 347.689 131.25 347.689 130.004V129.668H352.883V129.136C352.883 127.092 351.693 125.608 349.761 125.608C347.801 125.608 346.513 127.092 346.513 129.388C346.513 131.684 347.801 133.168 349.761 133.168ZM349.761 126.546C350.909 126.546 351.679 127.4 351.679 128.674V128.828H347.689V128.73C347.689 127.47 348.543 126.546 349.761 126.546Z" fill="white"/>
<rect width="86" height="72" transform="translate(289 168)" fill="#1192E8"/>
<path d="M307.478 194.8H309.76L311.874 199H313.204L310.964 194.688C312.238 194.394 312.924 193.428 312.924 192C312.924 190.222 311.902 189.228 310.194 189.228H306.302V199H307.478V194.8ZM307.478 193.792V190.264H310.194C311.118 190.264 311.664 190.768 311.664 191.664V192.392C311.664 193.288 311.118 193.792 310.194 193.792H307.478ZM317.816 199.168C319.174 199.168 320.21 198.496 320.672 197.516L319.874 196.942C319.496 197.74 318.796 198.188 317.886 198.188C316.542 198.188 315.744 197.25 315.744 196.004V195.668H320.938V195.136C320.938 193.092 319.748 191.608 317.816 191.608C315.856 191.608 314.568 193.092 314.568 195.388C314.568 197.684 315.856 199.168 317.816 199.168ZM317.816 192.546C318.964 192.546 319.734 193.4 319.734 194.674V194.828H315.744V194.73C315.744 193.47 316.598 192.546 317.816 192.546ZM328.824 199V198.02H327.998V194.044C327.998 192.518 326.962 191.608 325.226 191.608C323.924 191.608 323.056 192.252 322.664 193.022L323.336 193.652C323.728 192.994 324.302 192.574 325.17 192.574C326.318 192.574 326.878 193.134 326.878 194.156V194.87H325.45C323.35 194.87 322.37 195.626 322.37 196.984C322.37 198.328 323.266 199.168 324.792 199.168C325.8 199.168 326.57 198.706 326.878 197.824H326.948C327.032 198.496 327.368 199 328.194 199H328.824ZM324.974 198.216C324.106 198.216 323.546 197.81 323.546 197.096V196.802C323.546 196.102 324.12 195.71 325.394 195.71H326.878V196.9C326.878 197.642 326.08 198.216 324.974 198.216ZM332.766 199V198.02H331.702V188.64H330.582V197.838C330.582 198.51 331.002 199 331.772 199H332.766ZM312.266 219V217.964H307.478V214.576H311.986V213.54H307.478V210.264H312.266V209.228H306.302V219H312.266ZM313.616 219H314.862L316.892 216.172H316.934L318.81 219H320.126L317.522 215.276L320.07 211.776H318.824L316.92 214.464H316.878L315.044 211.776H313.728L316.29 215.36L313.616 219ZM327.648 219V218.02H326.822V214.044C326.822 212.518 325.786 211.608 324.05 211.608C322.748 211.608 321.88 212.252 321.488 213.022L322.16 213.652C322.552 212.994 323.126 212.574 323.994 212.574C325.142 212.574 325.702 213.134 325.702 214.156V214.87H324.274C322.174 214.87 321.194 215.626 321.194 216.984C321.194 218.328 322.09 219.168 323.616 219.168C324.624 219.168 325.394 218.706 325.702 217.824H325.772C325.856 218.496 326.192 219 327.018 219H327.648ZM323.798 218.216C322.93 218.216 322.37 217.81 322.37 217.096V216.802C322.37 216.102 322.944 215.71 324.218 215.71H325.702V216.9C325.702 217.642 324.904 218.216 323.798 218.216ZM330.526 219V213.988C330.526 213.064 331.366 212.616 332.248 212.616C333.312 212.616 333.802 213.274 333.802 214.562V219H334.922V213.988C334.922 213.064 335.734 212.616 336.616 212.616C337.708 212.616 338.198 213.288 338.198 214.562V219H339.318V214.366C339.318 212.616 338.436 211.608 336.966 211.608C335.734 211.608 335.034 212.294 334.768 213.078H334.74C334.348 212.042 333.48 211.608 332.528 211.608C331.408 211.608 330.904 212.21 330.582 212.952H330.526V211.776H329.406V219H330.526ZM341.789 221.8H342.909V217.824H342.965C343.399 218.72 344.085 219.168 345.079 219.168C346.885 219.168 348.019 217.698 348.019 215.388C348.019 213.078 346.885 211.608 345.079 211.608C344.085 211.608 343.343 212.042 342.965 212.952H342.909V211.776H341.789V221.8ZM344.771 218.16C343.749 218.16 342.909 217.628 342.909 216.69V214.002C342.909 213.204 343.749 212.616 344.771 212.616C346.031 212.616 346.815 213.484 346.815 214.772V216.004C346.815 217.292 346.031 218.16 344.771 218.16ZM352.254 219V218.02H351.19V208.64H350.07V217.838C350.07 218.51 350.49 219 351.26 219H352.254ZM356.761 219.168C358.119 219.168 359.155 218.496 359.617 217.516L358.819 216.942C358.441 217.74 357.741 218.188 356.831 218.188C355.487 218.188 354.689 217.25 354.689 216.004V215.668H359.883V215.136C359.883 213.092 358.693 211.608 356.761 211.608C354.801 211.608 353.513 213.092 353.513 215.388C353.513 217.684 354.801 219.168 356.761 219.168ZM356.761 212.546C357.909 212.546 358.679 213.4 358.679 214.674V214.828H354.689V214.73C354.689 213.47 355.543 212.546 356.761 212.546Z" fill="white"/>
<path d="M155 120L159 118.5L155 117V120Z" fill="#343A3F"/>
<line x1="155" y1="118.5" x2="133" y2="118.5" stroke="#343A3F"/>
<path d="M279 120L283 118.5L279 117V120Z" fill="#343A3F"/>
<line x1="279" y1="118.5" x2="257" y2="118.5" stroke="#343A3F"/>
<path d="M576 163L580 161.5L576 160V163Z" fill="#343A3F"/>
<line x1="576" y1="161.5" x2="554" y2="161.5" stroke="#343A3F"/>
<path d="M209.5 165L208 161L206.5 165H209.5Z" fill="#343A3F"/>
<path d="M530 299H213C210.239 299 208 296.761 208 294V165" stroke="#343A3F" stroke-dasharray="2 2"/>
<path d="M530 299H655C657.761 299 660 296.761 660 294V212" stroke="#343A3F" stroke-dasharray="2 2"/>
<path d="M528.5 43H653.5C656.261 43 658.5 45.2386 658.5 48V108" stroke="#343A3F" stroke-dasharray="2 2"/>
<path d="M529 43H489C486.239 43 484 45.2386 484 48V108" stroke="#343A3F" stroke-dasharray="2 2"/>
<path d="M482.5 108L484 112L485.5 108H482.5Z" fill="#343A3F"/>
<path d="M410 162H401.299C398.537 162 396.299 159.761 396.299 157V125C396.299 122.239 394.06 120 391.299 120H383" stroke="#343A3F"/>
<path d="M410 162H401.299C398.537 162 396.299 164.239 396.299 167V199C396.299 201.761 394.06 204 391.299 204H383" stroke="#343A3F"/>
<path d="M410 163.5L414 162L410 160.5V163.5Z" fill="#343A3F"/>
<line x1="410" y1="162" x2="399" y2="162" stroke="#343A3F"/>
</g>
<defs>
<clipPath id="clip0_819_15957">
<rect width="746" height="327" fill="white"/>
</clipPath>
</defs>
</svg>
