<svg width="475" height="205" viewBox="0 0 475 205" fill="none" xmlns="http://www.w3.org/2000/svg">
<g clip-path="url(#clip0_1125_23302)">
<rect width="475" height="205" fill="white"/>
<rect opacity="0.4" y="200" width="475" height="25.625" fill="#F2F4F8"/>
<rect opacity="0.4" y="120" width="475" height="40" fill="#F2F4F8"/>
<rect opacity="0.4" y="40" width="475" height="40" fill="#F2F4F8"/>
<rect x="0.5" y="0.5" width="474" height="204" stroke="#DDE1E6"/>
<line x1="15" y1="31.5" x2="315" y2="31.5" stroke="black"/>
<line x1="15" y1="111.5" x2="315" y2="111.5" stroke="black"/>
<line x1="15" y1="176.5" x2="315" y2="176.5" stroke="black"/>
<line x1="15" y1="71.5" x2="315" y2="71.5" stroke="black"/>
<rect width="70" height="175" transform="translate(86 16)" fill="#1192E8"/>
<path d="M108.843 107.112C108.216 109.619 106.139 111.087 104.456 111.087C103.167 111.087 102.289 110.227 102.289 108.741C102.289 108.669 102.289 108.132 102.486 107.344L104.241 100.307C104.402 99.6984 104.438 99.5193 105.709 99.5193C106.032 99.5193 106.211 99.5193 106.211 99.197C106.211 99 106.05 99 105.942 99C105.62 99 105.244 99.0358 104.904 99.0358H102.791C102.45 99.0358 102.074 99 101.734 99C101.609 99 101.394 99 101.394 99.3402C101.394 99.5193 101.519 99.5193 101.86 99.5193C102.934 99.5193 102.934 99.6625 102.934 99.8595C102.934 99.9669 102.809 100.486 102.719 100.791L101.161 107.058C101.107 107.255 101 107.738 101 108.222C101 110.192 102.415 111.606 104.366 111.606C106.175 111.606 108.18 110.174 109.094 107.9C109.219 107.595 109.38 106.968 109.488 106.485C109.667 105.84 110.043 104.265 110.168 103.799L110.849 101.113C111.081 100.182 111.225 99.5909 112.8 99.5193C112.944 99.5014 113.015 99.3581 113.015 99.197C113.015 99 112.854 99 112.782 99C112.532 99 112.209 99.0358 111.959 99.0358H111.117C110.007 99.0358 109.434 99 109.416 99C109.309 99 109.094 99 109.094 99.3402C109.094 99.5193 109.237 99.5193 109.362 99.5193C110.437 99.5551 110.508 99.9669 110.508 100.289C110.508 100.45 110.508 100.504 110.437 100.755L108.843 107.112Z" fill="white"/>
<path d="M116.728 112.392C118.948 112.189 120.13 111.019 120.13 109.945C120.13 108.811 118.889 107.677 116.728 107.486V106.841C116.728 106.423 116.728 106.256 117.85 106.256H118.232V105.862C117.695 105.898 116.8 105.898 116.227 105.898C115.654 105.898 114.746 105.898 114.209 105.862V106.256H114.591C115.713 106.256 115.713 106.423 115.713 106.841V107.498C113.72 107.677 112.395 108.775 112.395 109.933C112.395 111.151 113.779 112.201 115.713 112.38V113.037C115.713 113.455 115.713 113.622 114.591 113.622H114.209V114.016C114.746 113.98 115.642 113.98 116.215 113.98C116.788 113.98 117.695 113.98 118.232 114.016V113.622H117.85C116.728 113.622 116.728 113.455 116.728 113.037V112.392ZM115.713 112.046C114.675 111.927 113.6 111.437 113.6 109.945C113.6 108.608 114.448 107.975 115.713 107.832V112.046ZM116.728 107.832C117.778 107.916 118.924 108.393 118.924 109.933C118.924 111.461 117.826 111.951 116.728 112.046V107.832Z" fill="white"/>
<path d="M124.826 117C124.921 117 125.064 117 125.064 116.857C125.064 116.809 125.053 116.797 124.897 116.642C123.262 115.102 122.856 112.882 122.856 111.031C122.856 107.593 124.277 105.982 124.885 105.433C125.053 105.277 125.064 105.265 125.064 105.206C125.064 105.146 125.017 105.062 124.897 105.062C124.706 105.062 124.109 105.671 124.014 105.779C122.414 107.45 122.08 109.599 122.08 111.031C122.08 113.705 123.202 115.854 124.826 117Z" fill="white"/>
<path d="M132.015 109.456C132.588 108.871 134.284 107.128 134.57 106.901C135.071 106.519 135.37 106.304 136.229 106.256C136.301 106.244 136.397 106.185 136.397 106.029C136.397 105.922 136.289 105.862 136.229 105.862C136.11 105.862 136.038 105.898 135.107 105.898C134.212 105.898 133.89 105.862 133.83 105.862C133.782 105.862 133.591 105.862 133.591 106.089C133.591 106.101 133.591 106.244 133.77 106.256C133.854 106.268 134.176 106.292 134.176 106.567C134.176 106.65 134.128 106.782 134.033 106.877L133.997 106.937C133.961 106.973 133.961 106.996 133.842 107.104L131.848 109.121L130.631 106.591C130.798 106.304 131.156 106.268 131.299 106.256C131.359 106.256 131.526 106.244 131.526 106.041C131.526 105.934 131.442 105.862 131.335 105.862C131.216 105.862 130.762 105.886 130.643 105.886C130.571 105.898 130.129 105.898 129.879 105.898C128.768 105.898 128.625 105.862 128.518 105.862C128.47 105.862 128.279 105.862 128.279 106.089C128.279 106.256 128.434 106.256 128.625 106.256C129.222 106.256 129.329 106.376 129.437 106.602L131.025 109.945L128.577 112.44C127.861 113.156 127.3 113.574 126.453 113.622C126.309 113.634 126.166 113.634 126.166 113.849C126.166 113.92 126.226 114.016 126.345 114.016C126.429 114.016 126.56 113.98 127.467 113.98C128.327 113.98 128.697 114.016 128.745 114.016C128.804 114.016 128.983 114.016 128.983 113.789C128.983 113.765 128.971 113.634 128.792 113.622C128.565 113.61 128.398 113.526 128.398 113.311C128.398 113.12 128.542 112.965 128.721 112.786C128.924 112.559 129.544 111.939 129.974 111.521C130.249 111.246 130.917 110.554 131.192 110.291L132.565 113.144C132.624 113.264 132.624 113.276 132.624 113.288C132.624 113.395 132.374 113.598 131.98 113.622C131.896 113.622 131.741 113.634 131.741 113.849C131.741 113.861 131.753 114.016 131.944 114.016C132.063 114.016 132.505 113.992 132.624 113.98H133.388C134.487 113.98 134.654 114.016 134.761 114.016C134.809 114.016 134.988 114.016 134.988 113.789C134.988 113.622 134.833 113.622 134.654 113.622C134.009 113.622 133.937 113.479 133.854 113.299L132.015 109.456Z" fill="white"/>
<path d="M140.836 111.031C140.836 109.897 140.645 108.536 139.905 107.128C139.32 106.029 138.233 105.062 138.018 105.062C137.899 105.062 137.863 105.146 137.863 105.206C137.863 105.254 137.863 105.277 138.007 105.421C139.678 107.008 140.06 109.193 140.06 111.031C140.06 114.457 138.639 116.081 138.03 116.63C137.875 116.785 137.863 116.797 137.863 116.857C137.863 116.917 137.899 117 138.018 117C138.209 117 138.806 116.391 138.902 116.284C140.501 114.613 140.836 112.464 140.836 111.031Z" fill="white"/>
<rect width="70" height="175" transform="translate(228 16)" fill="#1192E8"/>
<line x1="53" y1="136" x2="53" y2="152" stroke="black" stroke-width="2" stroke-linecap="round" stroke-dasharray="0.1 6"/>
<line x1="353" y1="31.5" x2="457" y2="31.5" stroke="black"/>
<line x1="353" y1="111.5" x2="457" y2="111.5" stroke="black"/>
<line x1="353" y1="71.5" x2="457" y2="71.5" stroke="black"/>
<line x1="353" y1="176.5" x2="457" y2="176.5" stroke="black"/>
<rect width="70" height="175" transform="translate(370 17)" fill="#1192E8"/>
<line x1="360" y1="136" x2="360" y2="152" stroke="black" stroke-width="2" stroke-linecap="round" stroke-dasharray="0.1 6"/>
<line x1="190" y1="136" x2="190" y2="152" stroke="black" stroke-width="2" stroke-linecap="round" stroke-dasharray="0.1 6"/>
<path d="M337.265 109.792V108.84H330.741V109.792H337.265ZM337.265 112.592V111.64H330.741V112.592H337.265Z" fill="black"/>
<rect x="175" y="16" width="32" height="32" fill="#1192E8"/>
<path d="M194.177 39H195.689V26.436H194.177V31.98H187.823V26.436H186.311V39H187.823V33.312H194.177V39Z" fill="white"/>
<rect x="175" y="56" width="32" height="32" fill="#1192E8"/>
<path d="M194.177 79H195.689V66.436H194.177V71.98H187.823V66.436H186.311V79H187.823V73.312H194.177V79Z" fill="white"/>
<rect x="175" y="95" width="32" height="32" fill="#1192E8"/>
<path d="M194.177 118H195.689V105.436H194.177V110.98H187.823V105.436H186.311V118H187.823V112.312H194.177V118Z" fill="white"/>
<rect x="175" y="159" width="32" height="32" fill="#1192E8"/>
<path d="M194.177 182H195.689V169.436H194.177V174.98H187.823V169.436H186.311V182H187.823V176.312H194.177V182Z" fill="white"/>
<rect x="36" y="16" width="32" height="32" fill="#1192E8"/>
<path d="M55.1767 39H56.6887V26.436H55.1767V31.98H48.8227V26.436H47.3107V39H48.8227V33.312H55.1767V39Z" fill="white"/>
<rect x="36" y="56" width="32" height="32" fill="#1192E8"/>
<path d="M55.1767 79H56.6887V66.436H55.1767V71.98H48.8227V66.436H47.3107V79H48.8227V73.312H55.1767V79Z" fill="white"/>
<rect x="36" y="95" width="32" height="32" fill="#1192E8"/>
<path d="M55.1767 118H56.6887V105.436H55.1767V110.98H48.8227V105.436H47.3107V118H48.8227V112.312H55.1767V118Z" fill="white"/>
<rect x="36" y="159" width="32" height="32" fill="#1192E8"/>
<path d="M55.1767 182H56.6887V169.436H55.1767V174.98H48.8227V169.436H47.3107V182H48.8227V176.312H55.1767V182Z" fill="white"/>
<path d="M250.843 107.112C250.216 109.619 248.139 111.087 246.456 111.087C245.167 111.087 244.289 110.227 244.289 108.741C244.289 108.669 244.289 108.132 244.486 107.344L246.241 100.307C246.402 99.6984 246.438 99.5193 247.709 99.5193C248.032 99.5193 248.211 99.5193 248.211 99.197C248.211 99 248.05 99 247.942 99C247.62 99 247.244 99.0358 246.904 99.0358H244.791C244.45 99.0358 244.074 99 243.734 99C243.609 99 243.394 99 243.394 99.3402C243.394 99.5193 243.519 99.5193 243.86 99.5193C244.934 99.5193 244.934 99.6625 244.934 99.8595C244.934 99.9669 244.809 100.486 244.719 100.791L243.161 107.058C243.107 107.255 243 107.738 243 108.222C243 110.192 244.415 111.606 246.366 111.606C248.175 111.606 250.18 110.174 251.094 107.9C251.219 107.595 251.38 106.968 251.488 106.485C251.667 105.84 252.043 104.265 252.168 103.799L252.849 101.113C253.081 100.182 253.225 99.5909 254.8 99.5193C254.944 99.5014 255.015 99.3581 255.015 99.197C255.015 99 254.854 99 254.782 99C254.532 99 254.209 99.0358 253.959 99.0358H253.117C252.007 99.0358 251.434 99 251.416 99C251.309 99 251.094 99 251.094 99.3402C251.094 99.5193 251.237 99.5193 251.362 99.5193C252.437 99.5551 252.508 99.9669 252.508 100.289C252.508 100.45 252.508 100.504 252.437 100.755L250.843 107.112Z" fill="white"/>
<path d="M258.728 112.392C260.948 112.189 262.13 111.019 262.13 109.945C262.13 108.811 260.889 107.677 258.728 107.486V106.841C258.728 106.423 258.728 106.256 259.85 106.256H260.232V105.862C259.695 105.898 258.8 105.898 258.227 105.898C257.654 105.898 256.746 105.898 256.209 105.862V106.256H256.591C257.713 106.256 257.713 106.423 257.713 106.841V107.498C255.72 107.677 254.395 108.775 254.395 109.933C254.395 111.151 255.779 112.201 257.713 112.38V113.037C257.713 113.455 257.713 113.622 256.591 113.622H256.209V114.016C256.746 113.98 257.642 113.98 258.215 113.98C258.788 113.98 259.695 113.98 260.232 114.016V113.622H259.85C258.728 113.622 258.728 113.455 258.728 113.037V112.392ZM257.713 112.046C256.675 111.927 255.6 111.437 255.6 109.945C255.6 108.608 256.448 107.975 257.713 107.832V112.046ZM258.728 107.832C259.778 107.916 260.924 108.393 260.924 109.933C260.924 111.461 259.826 111.951 258.728 112.046V107.832Z" fill="white"/>
<path d="M266.826 117C266.921 117 267.064 117 267.064 116.857C267.064 116.809 267.053 116.797 266.897 116.642C265.262 115.102 264.856 112.882 264.856 111.031C264.856 107.593 266.277 105.982 266.885 105.433C267.053 105.277 267.064 105.265 267.064 105.206C267.064 105.146 267.017 105.062 266.897 105.062C266.706 105.062 266.109 105.671 266.014 105.779C264.414 107.45 264.08 109.599 264.08 111.031C264.08 113.705 265.202 115.854 266.826 117Z" fill="white"/>
<path d="M274.015 109.456C274.588 108.871 276.284 107.128 276.57 106.901C277.071 106.519 277.37 106.304 278.229 106.256C278.301 106.244 278.397 106.185 278.397 106.029C278.397 105.922 278.289 105.862 278.229 105.862C278.11 105.862 278.038 105.898 277.107 105.898C276.212 105.898 275.89 105.862 275.83 105.862C275.782 105.862 275.591 105.862 275.591 106.089C275.591 106.101 275.591 106.244 275.77 106.256C275.854 106.268 276.176 106.292 276.176 106.567C276.176 106.65 276.128 106.782 276.033 106.877L275.997 106.937C275.961 106.973 275.961 106.996 275.842 107.104L273.848 109.121L272.631 106.591C272.798 106.304 273.156 106.268 273.299 106.256C273.359 106.256 273.526 106.244 273.526 106.041C273.526 105.934 273.442 105.862 273.335 105.862C273.216 105.862 272.762 105.886 272.643 105.886C272.571 105.898 272.129 105.898 271.879 105.898C270.768 105.898 270.625 105.862 270.518 105.862C270.47 105.862 270.279 105.862 270.279 106.089C270.279 106.256 270.434 106.256 270.625 106.256C271.222 106.256 271.329 106.376 271.437 106.602L273.025 109.945L270.577 112.44C269.861 113.156 269.3 113.574 268.453 113.622C268.309 113.634 268.166 113.634 268.166 113.849C268.166 113.92 268.226 114.016 268.345 114.016C268.429 114.016 268.56 113.98 269.467 113.98C270.327 113.98 270.697 114.016 270.745 114.016C270.804 114.016 270.983 114.016 270.983 113.789C270.983 113.765 270.971 113.634 270.792 113.622C270.565 113.61 270.398 113.526 270.398 113.311C270.398 113.12 270.542 112.965 270.721 112.786C270.924 112.559 271.544 111.939 271.974 111.521C272.249 111.246 272.917 110.554 273.192 110.291L274.565 113.144C274.624 113.264 274.624 113.276 274.624 113.288C274.624 113.395 274.374 113.598 273.98 113.622C273.896 113.622 273.741 113.634 273.741 113.849C273.741 113.861 273.753 114.016 273.944 114.016C274.063 114.016 274.505 113.992 274.624 113.98H275.388C276.487 113.98 276.654 114.016 276.761 114.016C276.809 114.016 276.988 114.016 276.988 113.789C276.988 113.622 276.833 113.622 276.654 113.622C276.009 113.622 275.937 113.479 275.854 113.299L274.015 109.456Z" fill="white"/>
<path d="M282.836 111.031C282.836 109.897 282.645 108.536 281.905 107.128C281.32 106.029 280.233 105.062 280.018 105.062C279.899 105.062 279.863 105.146 279.863 105.206C279.863 105.254 279.863 105.277 280.007 105.421C281.678 107.008 282.06 109.193 282.06 111.031C282.06 114.457 280.639 116.081 280.03 116.63C279.875 116.785 279.863 116.797 279.863 116.857C279.863 116.917 279.899 117 280.018 117C280.209 117 280.806 116.391 280.902 116.284C282.501 114.613 282.836 112.464 282.836 111.031Z" fill="white"/>
<path d="M392.843 106.112C392.216 108.619 390.139 110.087 388.456 110.087C387.167 110.087 386.289 109.227 386.289 107.741C386.289 107.669 386.289 107.132 386.486 106.344L388.241 99.3072C388.402 98.6984 388.438 98.5193 389.709 98.5193C390.032 98.5193 390.211 98.5193 390.211 98.197C390.211 98 390.05 98 389.942 98C389.62 98 389.244 98.0358 388.904 98.0358H386.791C386.45 98.0358 386.074 98 385.734 98C385.609 98 385.394 98 385.394 98.3402C385.394 98.5193 385.519 98.5193 385.86 98.5193C386.934 98.5193 386.934 98.6625 386.934 98.8595C386.934 98.9669 386.809 99.4862 386.719 99.7906L385.161 106.058C385.107 106.255 385 106.738 385 107.222C385 109.192 386.415 110.606 388.366 110.606C390.175 110.606 392.18 109.174 393.094 106.9C393.219 106.595 393.38 105.968 393.488 105.485C393.667 104.84 394.043 103.265 394.168 102.799L394.849 100.113C395.081 99.1818 395.225 98.5909 396.8 98.5193C396.944 98.5014 397.015 98.3581 397.015 98.197C397.015 98 396.854 98 396.782 98C396.532 98 396.209 98.0358 395.959 98.0358H395.117C394.007 98.0358 393.434 98 393.416 98C393.309 98 393.094 98 393.094 98.3402C393.094 98.5193 393.237 98.5193 393.362 98.5193C394.437 98.5551 394.508 98.9669 394.508 99.2893C394.508 99.4504 394.508 99.5041 394.437 99.7548L392.843 106.112Z" fill="white"/>
<path d="M400.728 111.392C402.948 111.189 404.13 110.019 404.13 108.945C404.13 107.811 402.889 106.677 400.728 106.486V105.841C400.728 105.423 400.728 105.256 401.85 105.256H402.232V104.862C401.695 104.898 400.8 104.898 400.227 104.898C399.654 104.898 398.746 104.898 398.209 104.862V105.256H398.591C399.713 105.256 399.713 105.423 399.713 105.841V106.498C397.72 106.677 396.395 107.775 396.395 108.933C396.395 110.151 397.779 111.201 399.713 111.38V112.037C399.713 112.455 399.713 112.622 398.591 112.622H398.209V113.016C398.746 112.98 399.642 112.98 400.215 112.98C400.788 112.98 401.695 112.98 402.232 113.016V112.622H401.85C400.728 112.622 400.728 112.455 400.728 112.037V111.392ZM399.713 111.046C398.675 110.927 397.6 110.437 397.6 108.945C397.6 107.608 398.448 106.975 399.713 106.832V111.046ZM400.728 106.832C401.778 106.916 402.924 107.393 402.924 108.933C402.924 110.461 401.826 110.951 400.728 111.046V106.832Z" fill="white"/>
<path d="M408.826 116C408.921 116 409.064 116 409.064 115.857C409.064 115.809 409.053 115.797 408.897 115.642C407.262 114.102 406.856 111.882 406.856 110.031C406.856 106.593 408.277 104.982 408.885 104.433C409.053 104.277 409.064 104.265 409.064 104.206C409.064 104.146 409.017 104.062 408.897 104.062C408.706 104.062 408.109 104.671 408.014 104.779C406.414 106.45 406.08 108.599 406.08 110.031C406.08 112.705 407.202 114.854 408.826 116Z" fill="white"/>
<path d="M416.015 108.456C416.588 107.871 418.284 106.128 418.57 105.901C419.071 105.519 419.37 105.304 420.229 105.256C420.301 105.244 420.397 105.185 420.397 105.029C420.397 104.922 420.289 104.862 420.229 104.862C420.11 104.862 420.038 104.898 419.107 104.898C418.212 104.898 417.89 104.862 417.83 104.862C417.782 104.862 417.591 104.862 417.591 105.089C417.591 105.101 417.591 105.244 417.77 105.256C417.854 105.268 418.176 105.292 418.176 105.567C418.176 105.65 418.128 105.782 418.033 105.877L417.997 105.937C417.961 105.973 417.961 105.996 417.842 106.104L415.848 108.121L414.631 105.591C414.798 105.304 415.156 105.268 415.299 105.256C415.359 105.256 415.526 105.244 415.526 105.041C415.526 104.934 415.442 104.862 415.335 104.862C415.216 104.862 414.762 104.886 414.643 104.886C414.571 104.898 414.129 104.898 413.879 104.898C412.768 104.898 412.625 104.862 412.518 104.862C412.47 104.862 412.279 104.862 412.279 105.089C412.279 105.256 412.434 105.256 412.625 105.256C413.222 105.256 413.329 105.376 413.437 105.602L415.025 108.945L412.577 111.44C411.861 112.156 411.3 112.574 410.453 112.622C410.309 112.634 410.166 112.634 410.166 112.849C410.166 112.92 410.226 113.016 410.345 113.016C410.429 113.016 410.56 112.98 411.467 112.98C412.327 112.98 412.697 113.016 412.745 113.016C412.804 113.016 412.983 113.016 412.983 112.789C412.983 112.765 412.971 112.634 412.792 112.622C412.565 112.61 412.398 112.526 412.398 112.311C412.398 112.12 412.542 111.965 412.721 111.786C412.924 111.559 413.544 110.939 413.974 110.521C414.249 110.246 414.917 109.554 415.192 109.291L416.565 112.144C416.624 112.264 416.624 112.276 416.624 112.288C416.624 112.395 416.374 112.598 415.98 112.622C415.896 112.622 415.741 112.634 415.741 112.849C415.741 112.861 415.753 113.016 415.944 113.016C416.063 113.016 416.505 112.992 416.624 112.98H417.388C418.487 112.98 418.654 113.016 418.761 113.016C418.809 113.016 418.988 113.016 418.988 112.789C418.988 112.622 418.833 112.622 418.654 112.622C418.009 112.622 417.937 112.479 417.854 112.299L416.015 108.456Z" fill="white"/>
<path d="M424.836 110.031C424.836 108.897 424.645 107.536 423.905 106.128C423.32 105.029 422.233 104.062 422.018 104.062C421.899 104.062 421.863 104.146 421.863 104.206C421.863 104.254 421.863 104.277 422.007 104.421C423.678 106.008 424.06 108.193 424.06 110.031C424.06 113.457 422.639 115.081 422.03 115.63C421.875 115.785 421.863 115.797 421.863 115.857C421.863 115.917 421.899 116 422.018 116C422.209 116 422.806 115.391 422.902 115.284C424.501 113.613 424.836 111.464 424.836 110.031Z" fill="white"/>
</g>
<defs>
<clipPath id="clip0_1125_23302">
<rect width="475" height="205" fill="white"/>
</clipPath>
</defs>
</svg>
