<svg width="580" height="248" viewBox="0 0 580 248" fill="none" xmlns="http://www.w3.org/2000/svg">
<rect width="580" height="248" fill="white"/>
<rect opacity="0.4" y="199" width="580" height="40" fill="#F2F4F8"/>
<rect opacity="0.4" y="119" width="580" height="40" fill="#F2F4F8"/>
<rect opacity="0.4" y="39" width="580" height="40" fill="#F2F4F8"/>
<rect x="0.5" y="0.5" width="579" height="247" stroke="#DDE1E6"/>
<path fill-rule="evenodd" clip-rule="evenodd" d="M140.4 58.2008H141.6C142.594 58.2008 143.4 57.3949 143.4 56.4008V51.6008C143.4 50.6067 142.594 49.8008 141.6 49.8008H140.4C139.405 49.8008 138.6 50.6067 138.6 51.6008V56.4008C138.6 57.3949 139.405 58.2008 140.4 58.2008ZM139.8 51.6008C139.8 51.2694 140.068 51.0008 140.4 51.0008H141.6C141.931 51.0008 142.2 51.2694 142.2 51.6008V56.4008C142.2 56.7322 141.931 57.0008 141.6 57.0008H140.4C140.068 57.0008 139.8 56.7322 139.8 56.4008V51.6008Z" fill="#161616"/>
<path d="M146.054 60L145 59.46L147.68 54L145 48.54L146.054 48L149 54L146.054 60Z" fill="#161616"/>
<rect x="135" y="48" width="1" height="12" fill="#161616"/>
<line x1="157" y1="53.5" x2="345" y2="53.5" stroke="black"/>
<path fill-rule="evenodd" clip-rule="evenodd" d="M140.4 106.201H141.6C142.594 106.201 143.4 105.395 143.4 104.401V99.6008C143.4 98.6067 142.594 97.8008 141.6 97.8008H140.4C139.405 97.8008 138.6 98.6067 138.6 99.6008V104.401C138.6 105.395 139.405 106.201 140.4 106.201ZM139.8 99.6008C139.8 99.2694 140.068 99.0008 140.4 99.0008H141.6C141.931 99.0008 142.2 99.2694 142.2 99.6008V104.401C142.2 104.732 141.931 105.001 141.6 105.001H140.4C140.068 105.001 139.8 104.732 139.8 104.401V99.6008Z" fill="#161616"/>
<path d="M146.054 108L145 107.46L147.68 102L145 96.54L146.054 96L149 102L146.054 108Z" fill="#161616"/>
<rect x="135" y="96" width="1" height="12" fill="#161616"/>
<line x1="157" y1="101.5" x2="345" y2="101.5" stroke="black"/>
<path fill-rule="evenodd" clip-rule="evenodd" d="M140.4 154.201H141.6C142.594 154.201 143.4 153.395 143.4 152.401V147.601C143.4 146.607 142.594 145.801 141.6 145.801H140.4C139.405 145.801 138.6 146.607 138.6 147.601V152.401C138.6 153.395 139.405 154.201 140.4 154.201ZM139.8 147.601C139.8 147.269 140.068 147.001 140.4 147.001H141.6C141.931 147.001 142.2 147.269 142.2 147.601V152.401C142.2 152.732 141.931 153.001 141.6 153.001H140.4C140.068 153.001 139.8 152.732 139.8 152.401V147.601Z" fill="#161616"/>
<path d="M146.054 156L145 155.46L147.68 150L145 144.54L146.054 144L149 150L146.054 156Z" fill="#161616"/>
<rect x="135" y="144" width="1" height="12" fill="#161616"/>
<line x1="157" y1="149.5" x2="345" y2="149.5" stroke="black"/>
<rect x="248" y="85" width="32" height="32" rx="16" fill="#1192E8"/>
<path d="M265 100V92H263V100H255V102H263V110H265V102H273V100H265Z" fill="white"/>
<rect x="258" y="47" width="12" height="12" rx="6" fill="#1192E8"/>
<line x1="264" y1="87" x2="264" y2="58" stroke="#1192E8" stroke-width="2"/>
<rect x="290" y="134" width="32" height="32" rx="16" fill="#1192E8"/>
<path d="M307 149V141H305V149H297V151H305V159H307V151H315V149H307Z" fill="white"/>
<rect x="300" y="96" width="12" height="12" rx="6" fill="#1192E8"/>
<line x1="306" y1="136" x2="306" y2="107" stroke="#1192E8" stroke-width="2"/>
<line x1="405" y1="53.5" x2="509" y2="53.5" stroke="black"/>
<line x1="405" y1="101.5" x2="509" y2="101.5" stroke="black"/>
<line x1="405" y1="149.5" x2="509" y2="149.5" stroke="black"/>
<rect x="174" y="38" width="32" height="32" fill="#6929C4"/>
<path d="M182.473 48.6H185.407L188.125 54H189.835L186.955 48.456C188.593 48.078 189.475 46.836 189.475 45C189.475 42.714 188.161 41.436 185.965 41.436H180.961V54H182.473V48.6ZM182.473 47.304V42.768H185.965C187.153 42.768 187.855 43.416 187.855 44.568V45.504C187.855 46.656 187.153 47.304 185.965 47.304H182.473ZM195.734 51.03L195.23 52.542H195.14L194.708 51.03L192.476 44.712H191.036L194.51 54.36L193.808 56.34H192.35V57.6H193.088C194.456 57.6 194.834 57.276 195.248 56.16L199.406 44.712H197.984L195.734 51.03Z" fill="white"/>
<path d="M194.5 65.5219C194.5 64.742 194.426 64.2682 194.205 63.8018C193.911 63.1604 193.368 63 193 63C192.156 63 191.848 63.6851 191.754 63.8892C191.513 64.4213 191.5 65.1429 191.5 65.5219C191.5 66.0029 191.52 66.7391 191.842 67.3222C192.15 67.8615 192.645 68 193 68C193.321 68 193.897 67.8907 194.232 67.1691C194.48 66.6443 194.5 65.9956 194.5 65.5219ZM193 67.7959C192.772 67.7959 192.31 67.6793 192.17 66.914C192.096 66.4985 192.096 65.8134 192.096 65.4344C192.096 64.9315 192.096 64.4213 192.17 64.0204C192.31 63.277 192.833 63.2041 193 63.2041C193.228 63.2041 193.69 63.328 193.824 63.9913C193.904 64.3921 193.904 64.9388 193.904 65.4344C193.904 65.8644 193.904 66.5204 193.824 66.9286C193.683 67.6939 193.221 67.7959 193 67.7959Z" fill="white"/>
<path d="M182.809 62.88C182.809 64.83 183.629 66.53 184.619 67.37H185.379C184.299 66.41 183.559 64.72 183.559 63.32V62.46C183.559 61.06 184.269 59.4 185.379 58.4H184.619C183.599 59.27 182.809 60.95 182.809 62.88ZM188.139 58.48C186.719 58.48 185.889 59.42 185.889 62.3C185.889 65.18 186.719 66.12 188.139 66.12C189.559 66.12 190.389 65.18 190.389 62.3C190.389 59.42 189.559 58.48 188.139 58.48ZM186.749 61.32C186.749 59.75 187.259 59.17 188.139 59.17C189.019 59.17 189.529 59.75 189.529 61.32V61.95H186.749V61.32ZM188.139 65.43C187.259 65.43 186.749 64.85 186.749 63.28V62.65H189.529V63.28C189.529 64.85 189.019 65.43 188.139 65.43ZM198.191 62.88C198.191 60.95 197.401 59.27 196.381 58.4H195.621C196.731 59.4 197.441 61.06 197.441 62.46V63.32C197.441 64.72 196.701 66.41 195.621 67.37H196.381C197.371 66.53 198.191 64.83 198.191 62.88Z" fill="white"/>
<rect x="174" y="85" width="32" height="32" fill="#6929C4"/>
<path d="M182.473 95.6H185.407L188.125 101H189.835L186.955 95.456C188.593 95.078 189.475 93.836 189.475 92C189.475 89.714 188.161 88.436 185.965 88.436H180.961V101H182.473V95.6ZM182.473 94.304V89.768H185.965C187.153 89.768 187.855 90.416 187.855 91.568V92.504C187.855 93.656 187.153 94.304 185.965 94.304H182.473ZM195.734 98.03L195.23 99.542H195.14L194.708 98.03L192.476 91.712H191.036L194.51 101.36L193.808 103.34H192.35V104.6H193.088C194.456 104.6 194.834 104.276 195.248 103.16L199.406 91.712H197.984L195.734 98.03Z" fill="white"/>
<path d="M182.809 109.88C182.809 111.83 183.629 113.53 184.619 114.37H185.379C184.299 113.41 183.559 111.72 183.559 110.32V109.46C183.559 108.06 184.269 106.4 185.379 105.4H184.619C183.599 106.27 182.809 107.95 182.809 109.88ZM188.139 105.48C186.719 105.48 185.889 106.42 185.889 109.3C185.889 112.18 186.719 113.12 188.139 113.12C189.559 113.12 190.389 112.18 190.389 109.3C190.389 106.42 189.559 105.48 188.139 105.48ZM186.749 108.32C186.749 106.75 187.259 106.17 188.139 106.17C189.019 106.17 189.529 106.75 189.529 108.32V108.95H186.749V108.32ZM188.139 112.43C187.259 112.43 186.749 111.85 186.749 110.28V109.65H189.529V110.28C189.529 111.85 189.019 112.43 188.139 112.43ZM198.191 109.88C198.191 107.95 197.401 106.27 196.381 105.4H195.621C196.731 106.4 197.441 108.06 197.441 109.46V110.32C197.441 111.72 196.701 113.41 195.621 114.37H196.381C197.371 113.53 198.191 111.83 198.191 109.88Z" fill="white"/>
<path d="M193.639 110.211C193.639 110.008 193.624 110 193.421 110C193.113 110.301 192.714 110.481 192 110.481V110.729C192.203 110.729 192.609 110.729 193.045 110.526V114.383C193.045 114.662 193.023 114.752 192.308 114.752H192.045V115C192.353 114.977 193 114.977 193.338 114.977C193.677 114.977 194.331 114.977 194.639 115V114.752H194.376C193.662 114.752 193.639 114.662 193.639 114.383V110.211Z" fill="white"/>
<rect x="174" y="134" width="32" height="32" fill="#6929C4"/>
<path d="M182.473 144.6H185.407L188.125 150H189.835L186.955 144.456C188.593 144.078 189.475 142.836 189.475 141C189.475 138.714 188.161 137.436 185.965 137.436H180.961V150H182.473V144.6ZM182.473 143.304V138.768H185.965C187.153 138.768 187.855 139.416 187.855 140.568V141.504C187.855 142.656 187.153 143.304 185.965 143.304H182.473ZM195.734 147.03L195.23 148.542H195.14L194.708 147.03L192.476 140.712H191.036L194.51 150.36L193.808 152.34H192.35V153.6H193.088C194.456 153.6 194.834 153.276 195.248 152.16L199.406 140.712H197.984L195.734 147.03Z" fill="white"/>
<path d="M182.809 158.88C182.809 160.83 183.629 162.53 184.619 163.37H185.379C184.299 162.41 183.559 160.72 183.559 159.32V158.46C183.559 157.06 184.269 155.4 185.379 154.4H184.619C183.599 155.27 182.809 156.95 182.809 158.88ZM188.139 154.48C186.719 154.48 185.889 155.42 185.889 158.3C185.889 161.18 186.719 162.12 188.139 162.12C189.559 162.12 190.389 161.18 190.389 158.3C190.389 155.42 189.559 154.48 188.139 154.48ZM186.749 157.32C186.749 155.75 187.259 155.17 188.139 155.17C189.019 155.17 189.529 155.75 189.529 157.32V157.95H186.749V157.32ZM188.139 161.43C187.259 161.43 186.749 160.85 186.749 159.28V158.65H189.529V159.28C189.529 160.85 189.019 161.43 188.139 161.43ZM198.191 158.88C198.191 156.95 197.401 155.27 196.381 154.4H195.621C196.731 155.4 197.441 157.06 197.441 158.46V159.32C197.441 160.72 196.701 162.41 195.621 163.37H196.381C197.371 162.53 198.191 160.83 198.191 158.88Z" fill="white"/>
<path d="M193.287 162.466C193.412 162.353 193.739 162.105 193.864 162C194.348 161.571 194.808 161.158 194.808 160.474C194.808 159.579 194.028 159 193.053 159C192.116 159 191.5 159.684 191.5 160.353C191.5 160.722 191.804 160.774 191.914 160.774C192.077 160.774 192.319 160.662 192.319 160.376C192.319 159.985 191.929 159.985 191.836 159.985C192.062 159.436 192.585 159.248 192.967 159.248C193.693 159.248 194.067 159.842 194.067 160.474C194.067 161.256 193.497 161.827 192.577 162.737L191.594 163.714C191.5 163.797 191.5 163.812 191.5 164H194.582L194.808 162.654H194.566C194.543 162.805 194.481 163.18 194.387 163.323C194.34 163.383 193.747 163.383 193.622 163.383H192.233L193.287 162.466Z" fill="white"/>
<rect x="427" y="37" width="32" height="32" fill="#6929C4"/>
<path d="M435.473 47.6H438.407L441.125 53H442.835L439.955 47.456C441.593 47.078 442.475 45.836 442.475 44C442.475 41.714 441.161 40.436 438.965 40.436H433.961V53H435.473V47.6ZM435.473 46.304V41.768H438.965C440.153 41.768 440.855 42.416 440.855 43.568V44.504C440.855 45.656 440.153 46.304 438.965 46.304H435.473ZM448.734 50.03L448.23 51.542H448.14L447.708 50.03L445.476 43.712H444.036L447.51 53.36L446.808 55.34H445.35V56.6H446.088C447.456 56.6 447.834 56.276 448.248 55.16L452.406 43.712H450.984L448.734 50.03Z" fill="white"/>
<path d="M435.809 61.88C435.809 63.83 436.629 65.53 437.619 66.37H438.379C437.299 65.41 436.559 63.72 436.559 62.32V61.46C436.559 60.06 437.269 58.4 438.379 57.4H437.619C436.599 58.27 435.809 59.95 435.809 61.88ZM441.139 57.48C439.719 57.48 438.889 58.42 438.889 61.3C438.889 64.18 439.719 65.12 441.139 65.12C442.559 65.12 443.389 64.18 443.389 61.3C443.389 58.42 442.559 57.48 441.139 57.48ZM439.749 60.32C439.749 58.75 440.259 58.17 441.139 58.17C442.019 58.17 442.529 58.75 442.529 60.32V60.95H439.749V60.32ZM441.139 64.43C440.259 64.43 439.749 63.85 439.749 62.28V61.65H442.529V62.28C442.529 63.85 442.019 64.43 441.139 64.43ZM451.191 61.88C451.191 59.95 450.401 58.27 449.381 57.4H448.621C449.731 58.4 450.441 60.06 450.441 61.46V62.32C450.441 63.72 449.701 65.41 448.621 66.37H449.381C450.371 65.53 451.191 63.83 451.191 61.88Z" fill="white"/>
<path d="M444.621 61.4C444.621 61.3433 444.633 61.278 444.655 61.2043C444.678 61.1305 444.712 61.0936 444.757 61.0936C444.763 61.0936 444.967 61.0794 445.37 61.0511C445.773 61.0227 445.98 61.0057 445.991 61C446.06 61 446.094 61.0227 446.094 61.0681C446.094 61.1078 445.952 61.7007 445.668 62.8468C445.384 63.9702 445.243 64.5518 445.243 64.5915C445.35 64.5348 445.433 64.4809 445.489 64.4298C445.626 64.3277 445.821 64.1489 446.077 63.8936C446.332 63.6383 446.53 63.4652 446.672 63.3745C446.899 63.2213 447.115 63.1447 447.319 63.1447C447.489 63.1447 447.623 63.1986 447.719 63.3064C447.816 63.4142 447.867 63.5674 447.872 63.766C447.872 63.9078 447.852 64.027 447.813 64.1234C447.773 64.2199 447.719 64.2908 447.651 64.3362C447.583 64.3816 447.523 64.4128 447.472 64.4298C447.421 64.4468 447.37 64.4553 447.319 64.4553C447.206 64.4553 447.115 64.4241 447.047 64.3617C446.979 64.2993 446.945 64.217 446.945 64.1149C446.945 63.973 446.99 63.8567 447.081 63.766C447.172 63.6752 447.262 63.6156 447.353 63.5872L447.489 63.5617C447.421 63.4936 447.353 63.4596 447.285 63.4596H447.251C447.07 63.4766 446.891 63.5475 446.715 63.6723C446.539 63.7972 446.332 63.9787 446.094 64.217C445.855 64.4553 445.668 64.6284 445.532 64.7362C445.543 64.7418 445.586 64.7504 445.66 64.7617C445.733 64.773 445.801 64.7901 445.864 64.8128C445.926 64.8355 446 64.8582 446.085 64.8809C446.17 64.9035 446.247 64.9433 446.315 65C446.383 65.0567 446.445 65.1078 446.502 65.1532C446.559 65.1986 446.607 65.2723 446.647 65.3745C446.687 65.4766 446.704 65.5702 446.698 65.6553C446.698 65.7518 446.684 65.8681 446.655 66.0043C446.627 66.1404 446.61 66.2539 446.604 66.3447C446.604 66.5716 446.681 66.6851 446.834 66.6851C447.106 66.6851 447.328 66.3475 447.498 65.6723C447.509 65.627 447.566 65.6043 447.668 65.6043H447.702C447.793 65.6043 447.838 65.6298 447.838 65.6809C447.838 65.7092 447.83 65.7489 447.813 65.8C447.58 66.6 447.245 67 446.809 67C446.553 67 446.346 66.9262 446.187 66.7787C446.028 66.6312 445.949 66.4184 445.949 66.1404C445.949 66.0383 445.957 65.9504 445.974 65.8766C445.991 65.8028 446 65.7348 446 65.6723C446 65.5475 445.96 65.4397 445.881 65.3489C445.801 65.2582 445.702 65.1929 445.583 65.1532C445.464 65.1135 445.367 65.0823 445.294 65.0596C445.22 65.0369 445.169 65.0284 445.14 65.034H445.123C445.055 65.2723 444.996 65.5021 444.945 65.7234C444.894 65.9447 444.854 66.1092 444.826 66.217C444.797 66.3248 444.772 66.4298 444.749 66.5319C444.726 66.634 444.706 66.7021 444.689 66.7362C444.672 66.7702 444.652 66.8071 444.63 66.8468C444.607 66.8865 444.576 66.9121 444.536 66.9234C444.462 66.9745 444.383 67 444.298 67C444.201 67 444.128 66.9716 444.077 66.9149C444.026 66.8582 444 66.8099 444 66.7702C444 66.7135 444.105 66.2596 444.315 65.4085C444.525 64.5574 444.732 63.7206 444.936 62.8979L445.251 61.6638C445.257 61.5901 445.237 61.5447 445.191 61.5277C445.146 61.5106 445.035 61.4965 444.86 61.4851H444.817C444.76 61.4851 444.723 61.4851 444.706 61.4851C444.689 61.4851 444.67 61.4766 444.647 61.4596C444.624 61.4426 444.616 61.4227 444.621 61.4Z" fill="white"/>
<rect x="427" y="85" width="32" height="32" fill="#6929C4"/>
<path d="M435.473 95.6H438.407L441.125 101H442.835L439.955 95.456C441.593 95.078 442.475 93.836 442.475 92C442.475 89.714 441.161 88.436 438.965 88.436H433.961V101H435.473V95.6ZM435.473 94.304V89.768H438.965C440.153 89.768 440.855 90.416 440.855 91.568V92.504C440.855 93.656 440.153 94.304 438.965 94.304H435.473ZM448.734 98.03L448.23 99.542H448.14L447.708 98.03L445.476 91.712H444.036L447.51 101.36L446.808 103.34H445.35V104.6H446.088C447.456 104.6 447.834 104.276 448.248 103.16L452.406 91.712H450.984L448.734 98.03Z" fill="white"/>
<path d="M432.265 109.88C432.265 111.83 433.085 113.53 434.075 114.37H434.835C433.755 113.41 433.015 111.72 433.015 110.32V109.46C433.015 108.06 433.725 106.4 434.835 105.4H434.075C433.055 106.27 432.265 107.95 432.265 109.88ZM437.594 105.48C436.174 105.48 435.344 106.42 435.344 109.3C435.344 112.18 436.174 113.12 437.594 113.12C439.014 113.12 439.844 112.18 439.844 109.3C439.844 106.42 439.014 105.48 437.594 105.48ZM436.204 108.32C436.204 106.75 436.714 106.17 437.594 106.17C438.474 106.17 438.984 106.75 438.984 108.32V108.95H436.204V108.32ZM437.594 112.43C436.714 112.43 436.204 111.85 436.204 110.28V109.65H438.984V110.28C438.984 111.85 438.474 112.43 437.594 112.43ZM454.736 109.88C454.736 107.95 453.946 106.27 452.926 105.4H452.166C453.276 106.4 453.986 108.06 453.986 109.46V110.32C453.986 111.72 453.246 113.41 452.166 114.37H452.926C453.916 113.53 454.736 111.83 454.736 109.88Z" fill="white"/>
<path d="M440.658 109.424C440.658 109.364 440.67 109.295 440.694 109.217C440.718 109.139 440.754 109.1 440.803 109.1C440.809 109.1 441.025 109.084 441.452 109.054C441.879 109.024 442.098 109.006 442.11 109C442.182 109 442.218 109.024 442.218 109.072C442.218 109.115 442.068 109.743 441.767 110.957C441.467 112.147 441.317 112.763 441.317 112.806C441.431 112.745 441.518 112.688 441.578 112.634C441.722 112.526 441.93 112.337 442.2 112.066C442.471 111.796 442.681 111.612 442.831 111.516C443.072 111.354 443.3 111.273 443.517 111.273C443.697 111.273 443.838 111.33 443.94 111.444C444.043 111.558 444.097 111.721 444.103 111.931C444.103 112.081 444.082 112.207 444.04 112.31C443.998 112.412 443.94 112.487 443.868 112.535C443.796 112.583 443.733 112.616 443.679 112.634C443.625 112.652 443.571 112.661 443.517 112.661C443.396 112.661 443.3 112.628 443.228 112.562C443.156 112.496 443.12 112.409 443.12 112.301C443.12 112.15 443.168 112.027 443.264 111.931C443.36 111.835 443.457 111.772 443.553 111.742L443.697 111.714C443.625 111.642 443.553 111.606 443.481 111.606H443.445C443.252 111.624 443.063 111.699 442.876 111.832C442.69 111.964 442.471 112.156 442.218 112.409C441.966 112.661 441.767 112.845 441.623 112.959C441.635 112.965 441.68 112.974 441.758 112.986C441.836 112.998 441.909 113.016 441.975 113.04C442.041 113.064 442.119 113.088 442.209 113.112C442.299 113.136 442.381 113.178 442.453 113.238C442.525 113.299 442.591 113.353 442.651 113.401C442.711 113.449 442.762 113.527 442.804 113.635C442.846 113.743 442.864 113.843 442.858 113.933C442.858 114.035 442.843 114.158 442.813 114.302C442.783 114.447 442.765 114.567 442.759 114.663C442.759 114.904 442.84 115.024 443.003 115.024C443.291 115.024 443.526 114.666 443.706 113.951C443.718 113.903 443.778 113.879 443.886 113.879H443.922C444.019 113.879 444.067 113.906 444.067 113.96C444.067 113.99 444.058 114.032 444.04 114.086C443.793 114.934 443.439 115.357 442.976 115.357C442.705 115.357 442.486 115.279 442.317 115.123C442.149 114.967 442.065 114.741 442.065 114.447C442.065 114.338 442.074 114.245 442.092 114.167C442.11 114.089 442.119 114.017 442.119 113.951C442.119 113.818 442.077 113.704 441.993 113.608C441.909 113.512 441.803 113.443 441.677 113.401C441.551 113.359 441.449 113.326 441.371 113.302C441.292 113.277 441.238 113.268 441.208 113.274H441.19C441.118 113.527 441.055 113.77 441.001 114.005C440.947 114.239 440.905 114.414 440.875 114.528C440.845 114.642 440.818 114.753 440.794 114.861C440.769 114.97 440.748 115.042 440.73 115.078C440.712 115.114 440.691 115.153 440.667 115.195C440.643 115.237 440.61 115.264 440.568 115.276C440.49 115.33 440.406 115.357 440.316 115.357C440.213 115.357 440.135 115.327 440.081 115.267C440.027 115.207 440 115.156 440 115.114C440 115.054 440.111 114.573 440.334 113.671C440.556 112.77 440.775 111.883 440.992 111.011L441.326 109.704C441.332 109.626 441.31 109.577 441.262 109.559C441.214 109.541 441.097 109.526 440.911 109.514H440.866C440.806 109.514 440.766 109.514 440.748 109.514C440.73 109.514 440.709 109.505 440.685 109.487C440.661 109.469 440.652 109.448 440.658 109.424Z" fill="white"/>
<path d="M444.75 113.081C444.75 113.081 444.75 113.055 444.75 113.003C444.75 112.951 444.778 112.911 444.834 112.883H446.633V111.98L446.639 111.078C446.679 111.026 446.717 111 446.753 111C446.805 111 446.845 111.03 446.873 111.09V112.883H448.666C448.726 112.915 448.756 112.955 448.756 113.003C448.756 113.051 448.726 113.091 448.666 113.123H446.873V114.916C446.841 114.972 446.805 115 446.765 115H446.753H446.741C446.693 115 446.657 114.972 446.633 114.916V113.123H444.834C444.778 113.095 444.75 113.055 444.75 113.003V113.081Z" fill="white"/>
<path d="M450.172 110.288L450.055 110.333C449.971 110.363 449.851 110.393 449.694 110.423C449.538 110.453 449.364 110.474 449.171 110.486H449V110.072H449.171C449.454 110.06 449.715 110.015 449.956 109.936C450.196 109.858 450.365 109.786 450.461 109.72C450.557 109.654 450.641 109.588 450.713 109.522C450.725 109.504 450.761 109.495 450.821 109.495C450.876 109.495 450.927 109.513 450.975 109.549V112.245L450.984 114.95C451.026 114.992 451.062 115.019 451.092 115.031C451.122 115.043 451.194 115.055 451.308 115.067C451.423 115.079 451.609 115.085 451.867 115.085H452.102V115.5H452.003C451.876 115.482 451.399 115.473 450.569 115.473C449.751 115.473 449.28 115.482 449.153 115.5H449.045V115.085H449.28C449.412 115.085 449.526 115.085 449.622 115.085C449.718 115.085 449.794 115.082 449.848 115.076C449.902 115.07 449.95 115.061 449.992 115.049C450.034 115.037 450.058 115.031 450.064 115.031C450.07 115.031 450.088 115.016 450.118 114.986C450.148 114.956 450.166 114.944 450.172 114.95V110.288Z" fill="white"/>
<rect x="427" y="133" width="32" height="32" fill="#6929C4"/>
<path d="M435.473 143.6H438.407L441.125 149H442.835L439.955 143.456C441.593 143.078 442.475 141.836 442.475 140C442.475 137.714 441.161 136.436 438.965 136.436H433.961V149H435.473V143.6ZM435.473 142.304V137.768H438.965C440.153 137.768 440.855 138.416 440.855 139.568V140.504C440.855 141.656 440.153 142.304 438.965 142.304H435.473ZM448.734 146.03L448.23 147.542H448.14L447.708 146.03L445.476 139.712H444.036L447.51 149.36L446.808 151.34H445.35V152.6H446.088C447.456 152.6 447.834 152.276 448.248 151.16L452.406 139.712H450.984L448.734 146.03Z" fill="white"/>
<path d="M432.265 157.88C432.265 159.83 433.085 161.53 434.075 162.37H434.835C433.755 161.41 433.015 159.72 433.015 158.32V157.46C433.015 156.06 433.725 154.4 434.835 153.4H434.075C433.055 154.27 432.265 155.95 432.265 157.88ZM437.594 153.48C436.174 153.48 435.344 154.42 435.344 157.3C435.344 160.18 436.174 161.12 437.594 161.12C439.014 161.12 439.844 160.18 439.844 157.3C439.844 154.42 439.014 153.48 437.594 153.48ZM436.204 156.32C436.204 154.75 436.714 154.17 437.594 154.17C438.474 154.17 438.984 154.75 438.984 156.32V156.95H436.204V156.32ZM437.594 160.43C436.714 160.43 436.204 159.85 436.204 158.28V157.65H438.984V158.28C438.984 159.85 438.474 160.43 437.594 160.43ZM455.736 157.88C455.736 155.95 454.946 154.27 453.926 153.4H453.166C454.276 154.4 454.986 156.06 454.986 157.46V158.32C454.986 159.72 454.246 161.41 453.166 162.37H453.926C454.916 161.53 455.736 159.83 455.736 157.88Z" fill="white"/>
<path d="M440.659 157.424C440.659 157.364 440.671 157.295 440.695 157.216C440.719 157.138 440.755 157.099 440.803 157.099C440.809 157.099 441.025 157.084 441.452 157.054C441.879 157.024 442.099 157.006 442.111 157C442.183 157 442.219 157.024 442.219 157.072C442.219 157.114 442.069 157.743 441.768 158.957C441.467 160.148 441.317 160.764 441.317 160.807C441.431 160.746 441.518 160.689 441.579 160.635C441.723 160.527 441.93 160.337 442.201 160.067C442.472 159.796 442.682 159.613 442.832 159.517C443.073 159.354 443.302 159.273 443.518 159.273C443.698 159.273 443.84 159.33 443.942 159.444C444.044 159.559 444.098 159.721 444.104 159.932C444.104 160.082 444.083 160.208 444.041 160.31C443.999 160.413 443.942 160.488 443.87 160.536C443.798 160.584 443.735 160.617 443.68 160.635C443.626 160.653 443.572 160.662 443.518 160.662C443.398 160.662 443.302 160.629 443.229 160.563C443.157 160.497 443.121 160.41 443.121 160.301C443.121 160.151 443.169 160.028 443.265 159.932C443.362 159.835 443.458 159.772 443.554 159.742L443.698 159.715C443.626 159.643 443.554 159.607 443.482 159.607H443.446C443.253 159.625 443.064 159.7 442.878 159.832C442.691 159.965 442.472 160.157 442.219 160.41C441.966 160.662 441.768 160.846 441.624 160.96C441.636 160.966 441.681 160.975 441.759 160.987C441.837 160.999 441.909 161.017 441.976 161.041C442.042 161.065 442.12 161.089 442.21 161.113C442.3 161.137 442.381 161.179 442.454 161.24C442.526 161.3 442.592 161.354 442.652 161.402C442.712 161.45 442.763 161.528 442.805 161.636C442.848 161.745 442.866 161.844 442.86 161.934C442.86 162.036 442.845 162.16 442.814 162.304C442.784 162.448 442.766 162.569 442.76 162.665C442.76 162.905 442.841 163.026 443.004 163.026C443.293 163.026 443.527 162.668 443.707 161.952C443.72 161.904 443.78 161.88 443.888 161.88H443.924C444.02 161.88 444.068 161.907 444.068 161.961C444.068 161.991 444.059 162.033 444.041 162.087C443.795 162.935 443.44 163.359 442.977 163.359C442.706 163.359 442.487 163.281 442.318 163.125C442.15 162.968 442.066 162.743 442.066 162.448C442.066 162.34 442.075 162.247 442.093 162.169C442.111 162.09 442.12 162.018 442.12 161.952C442.12 161.82 442.078 161.706 441.994 161.609C441.909 161.513 441.804 161.444 441.678 161.402C441.552 161.36 441.449 161.327 441.371 161.303C441.293 161.279 441.239 161.27 441.209 161.276H441.191C441.119 161.528 441.055 161.772 441.001 162.006C440.947 162.241 440.905 162.415 440.875 162.529C440.845 162.644 440.818 162.755 440.794 162.863C440.77 162.971 440.749 163.044 440.731 163.08C440.713 163.116 440.692 163.155 440.668 163.197C440.643 163.239 440.61 163.266 440.568 163.278C440.49 163.332 440.406 163.359 440.316 163.359C440.213 163.359 440.135 163.329 440.081 163.269C440.027 163.209 440 163.158 440 163.116C440 163.056 440.111 162.575 440.334 161.673C440.556 160.77 440.776 159.883 440.992 159.011L441.326 157.703C441.332 157.625 441.311 157.577 441.263 157.559C441.215 157.541 441.098 157.526 440.911 157.514H440.866C440.806 157.514 440.767 157.514 440.749 157.514C440.731 157.514 440.71 157.505 440.686 157.487C440.662 157.469 440.652 157.448 440.659 157.424Z" fill="white"/>
<path d="M445 161.081C445 161.081 445 161.055 445 161.003C445 160.951 445.028 160.911 445.084 160.883H446.883V159.98L446.889 159.078C446.929 159.026 446.967 159 447.003 159C447.055 159 447.095 159.03 447.123 159.09V160.883H448.916C448.976 160.915 449.006 160.955 449.006 161.003C449.006 161.051 448.976 161.091 448.916 161.123H447.123V162.916C447.091 162.972 447.055 163 447.015 163H447.003H446.991C446.943 163 446.907 162.972 446.883 162.916V161.123H445.084C445.028 161.095 445 161.055 445 161.003V161.081Z" fill="white"/>
<path d="M449.532 159.63C449.37 159.63 449.241 159.576 449.144 159.468C449.048 159.36 449 159.227 449 159.071C449 158.644 449.159 158.274 449.478 157.961C449.797 157.649 450.194 157.492 450.669 157.492C451.216 157.492 451.673 157.661 452.04 157.997C452.407 158.334 452.593 158.77 452.599 159.305C452.599 159.564 452.539 159.811 452.419 160.045C452.299 160.28 452.154 160.484 451.986 160.659C451.817 160.833 451.577 161.055 451.264 161.326C451.048 161.512 450.747 161.789 450.362 162.156L449.83 162.661L450.515 162.67C451.46 162.67 451.962 162.655 452.022 162.625C452.064 162.613 452.136 162.345 452.238 161.822V161.795H452.599V161.822C452.593 161.84 452.554 162.114 452.482 162.643C452.41 163.172 452.365 163.449 452.347 163.473V163.5H449V163.329V163.22C449 163.178 449.018 163.133 449.054 163.085C449.09 163.037 449.18 162.932 449.325 162.769C449.499 162.577 449.649 162.409 449.776 162.264C449.83 162.204 449.932 162.093 450.082 161.93C450.233 161.768 450.335 161.657 450.389 161.597C450.443 161.537 450.53 161.437 450.651 161.299C450.771 161.161 450.855 161.058 450.903 160.992C450.951 160.926 451.021 160.836 451.111 160.722C451.201 160.607 451.264 160.511 451.3 160.433C451.336 160.355 451.381 160.268 451.436 160.171C451.49 160.075 451.529 159.979 451.553 159.883C451.577 159.787 451.598 159.696 451.616 159.612C451.634 159.528 451.643 159.429 451.643 159.314C451.643 158.936 451.541 158.608 451.336 158.331C451.132 158.055 450.84 157.916 450.461 157.916C450.263 157.916 450.088 157.967 449.938 158.07C449.788 158.172 449.683 158.271 449.622 158.367C449.562 158.463 449.532 158.521 449.532 158.539C449.532 158.545 449.547 158.548 449.577 158.548C449.686 158.548 449.797 158.59 449.911 158.674C450.025 158.758 450.082 158.896 450.082 159.089C450.082 159.239 450.034 159.366 449.938 159.468C449.842 159.57 449.707 159.624 449.532 159.63Z" fill="white"/>
<line x1="141" y1="184" x2="141" y2="200" stroke="black" stroke-width="2" stroke-linecap="round" stroke-dasharray="0.1 6"/>
<line x1="326.583" y1="176.397" x2="335.914" y2="189.395" stroke="black" stroke-width="2" stroke-linecap="round" stroke-dasharray="0.1 6"/>
<path d="M109 23C99.9333 31.125 109.301 89.2799 101 126.188C107.087 150.625 101 218.812 109 231" stroke="black"/>
<line x1="368" y1="150" x2="384" y2="150" stroke="black" stroke-width="2" stroke-linecap="round" stroke-dasharray="0.1 6"/>
<line x1="368" y1="102" x2="384" y2="102" stroke="black" stroke-width="2" stroke-linecap="round" stroke-dasharray="0.1 6"/>
<line x1="368" y1="54" x2="384" y2="54" stroke="black" stroke-width="2" stroke-linecap="round" stroke-dasharray="0.1 6"/>
<line x1="529" y1="150" x2="545" y2="150" stroke="black" stroke-width="2" stroke-linecap="round" stroke-dasharray="0.1 6"/>
<line x1="529" y1="101" x2="545" y2="101" stroke="black" stroke-width="2" stroke-linecap="round" stroke-dasharray="0.1 6"/>
<line x1="529" y1="54" x2="545" y2="54" stroke="black" stroke-width="2" stroke-linecap="round" stroke-dasharray="0.1 6"/>
<path d="M36.31 129V123.988C36.31 123.064 37.178 122.616 38.074 122.616C39.152 122.616 39.712 123.274 39.712 124.562V129H40.832V124.366C40.832 122.616 39.894 121.608 38.41 121.608C37.332 121.608 36.716 122.14 36.366 122.952H36.31V121.776H35.19V129H36.31ZM51.3956 131.8H52.5156V121.776H51.3956V122.952H51.3396C50.9616 122.042 50.2196 121.608 49.2256 121.608C47.4196 121.608 46.2856 123.078 46.2856 125.388C46.2856 127.698 47.4196 129.168 49.2256 129.168C50.2196 129.168 50.9056 128.72 51.3396 127.824H51.3956V131.8ZM49.5336 128.16C48.2736 128.16 47.4896 127.292 47.4896 126.004V124.772C47.4896 123.484 48.2736 122.616 49.5336 122.616C50.5556 122.616 51.3956 123.204 51.3956 124.002V126.69C51.3956 127.628 50.5556 128.16 49.5336 128.16ZM59.5087 129H60.6287V121.776H59.5087V126.774C59.5087 127.726 58.6407 128.16 57.7587 128.16C56.6807 128.16 56.1067 127.502 56.1067 126.214V121.776H54.9867V126.41C54.9867 128.16 55.9387 129.168 57.4227 129.168C58.6267 129.168 59.1727 128.51 59.4527 127.824H59.5087V129ZM63.1737 129H64.2937V127.824H64.3497C64.7837 128.72 65.4697 129.168 66.4637 129.168C68.2697 129.168 69.4037 127.698 69.4037 125.388C69.4037 123.078 68.2697 121.608 66.4637 121.608C65.4697 121.608 64.7277 122.042 64.3497 122.952H64.2937V118.64H63.1737V129ZM66.1557 128.16C65.1337 128.16 64.2937 127.628 64.2937 126.69V124.002C64.2937 123.204 65.1337 122.616 66.1557 122.616C67.4157 122.616 68.1997 123.484 68.1997 124.772V126.004C68.1997 127.292 67.4157 128.16 66.1557 128.16ZM72.0148 120.082C72.4908 120.082 72.7008 119.83 72.7008 119.452V119.27C72.7008 118.892 72.4908 118.64 72.0148 118.64C71.5388 118.64 71.3288 118.892 71.3288 119.27V119.452C71.3288 119.83 71.5388 120.082 72.0148 120.082ZM71.4548 129H72.5748V121.776H71.4548V129ZM78.1108 129V128.02H76.6408V122.756H78.2228V121.776H76.6408V119.774H75.6328V121.118C75.6328 121.608 75.4788 121.776 75.0028 121.776H74.3308V122.756H75.5208V127.81C75.5208 128.51 75.9408 129 76.7108 129H78.1108ZM82.353 129.168C84.005 129.168 85.027 128.314 85.027 126.914C85.027 125.822 84.411 125.122 82.815 124.884L82.255 124.8C81.359 124.66 80.869 124.38 80.869 123.68C80.869 122.994 81.359 122.56 82.283 122.56C83.207 122.56 83.823 122.994 84.145 123.442L84.887 122.77C84.299 122.042 83.529 121.608 82.367 121.608C80.897 121.608 79.791 122.308 79.791 123.736C79.791 125.08 80.785 125.626 82.115 125.822L82.689 125.906C83.641 126.046 83.949 126.48 83.949 127.04C83.949 127.782 83.389 128.216 82.437 128.216C81.527 128.216 80.855 127.81 80.295 127.11L79.497 127.754C80.141 128.608 81.023 129.168 82.353 129.168Z" fill="black"/>
<path d="M339.31 229V224.1C339.31 223.414 340.038 222.896 341.242 222.896H341.9V221.776H341.466C340.29 221.776 339.632 222.42 339.38 223.106H339.31V221.776H338.19V229H339.31ZM346.138 229.168C347.496 229.168 348.532 228.496 348.994 227.516L348.196 226.942C347.818 227.74 347.118 228.188 346.208 228.188C344.864 228.188 344.066 227.25 344.066 226.004V225.668H349.26V225.136C349.26 223.092 348.07 221.608 346.138 221.608C344.178 221.608 342.89 223.092 342.89 225.388C342.89 227.684 344.178 229.168 346.138 229.168ZM346.138 222.546C347.286 222.546 348.056 223.4 348.056 224.674V224.828H344.066V224.73C344.066 223.47 344.92 222.546 346.138 222.546ZM351.266 231.8H352.386V227.824H352.442C352.876 228.72 353.562 229.168 354.556 229.168C356.362 229.168 357.496 227.698 357.496 225.388C357.496 223.078 356.362 221.608 354.556 221.608C353.562 221.608 352.82 222.042 352.442 222.952H352.386V221.776H351.266V231.8ZM354.248 228.16C353.226 228.16 352.386 227.628 352.386 226.69V224.002C352.386 223.204 353.226 222.616 354.248 222.616C355.508 222.616 356.292 223.484 356.292 224.772V226.004C356.292 227.292 355.508 228.16 354.248 228.16ZM362.263 229.168C363.621 229.168 364.657 228.496 365.119 227.516L364.321 226.942C363.943 227.74 363.243 228.188 362.333 228.188C360.989 228.188 360.191 227.25 360.191 226.004V225.668H365.385V225.136C365.385 223.092 364.195 221.608 362.263 221.608C360.303 221.608 359.015 223.092 359.015 225.388C359.015 227.684 360.303 229.168 362.263 229.168ZM362.263 222.546C363.411 222.546 364.181 223.4 364.181 224.674V224.828H360.191V224.73C360.191 223.47 361.045 222.546 362.263 222.546ZM373.271 229V228.02H372.445V224.044C372.445 222.518 371.409 221.608 369.673 221.608C368.371 221.608 367.503 222.252 367.111 223.022L367.783 223.652C368.175 222.994 368.749 222.574 369.617 222.574C370.765 222.574 371.325 223.134 371.325 224.156V224.87H369.897C367.797 224.87 366.817 225.626 366.817 226.984C366.817 228.328 367.713 229.168 369.239 229.168C370.247 229.168 371.017 228.706 371.325 227.824H371.395C371.479 228.496 371.815 229 372.641 229H373.271ZM369.421 228.216C368.553 228.216 367.993 227.81 367.993 227.096V226.802C367.993 226.102 368.567 225.71 369.841 225.71H371.325V226.9C371.325 227.642 370.527 228.216 369.421 228.216ZM378.025 229V228.02H376.555V222.756H378.137V221.776H376.555V219.774H375.547V221.118C375.547 221.608 375.393 221.776 374.917 221.776H374.245V222.756H375.435V227.81C375.435 228.51 375.855 229 376.625 229H378.025ZM384.686 229V224.1C384.686 223.414 385.414 222.896 386.618 222.896H387.276V221.776H386.842C385.666 221.776 385.008 222.42 384.756 223.106H384.686V221.776H383.566V229H384.686ZM395.331 229V228.02H393.861V222.756H395.443V221.776H393.861V219.774H392.853V221.118C392.853 221.608 392.699 221.776 392.223 221.776H391.551V222.756H392.741V227.81C392.741 228.51 393.161 229 393.931 229H395.331ZM397.963 220.082C398.439 220.082 398.649 219.83 398.649 219.452V219.27C398.649 218.892 398.439 218.64 397.963 218.64C397.487 218.64 397.277 218.892 397.277 219.27V219.452C397.277 219.83 397.487 220.082 397.963 220.082ZM397.403 229H398.523V221.776H397.403V229ZM402.183 229V223.988C402.183 223.064 403.023 222.616 403.905 222.616C404.969 222.616 405.459 223.274 405.459 224.562V229H406.579V223.988C406.579 223.064 407.391 222.616 408.273 222.616C409.365 222.616 409.855 223.288 409.855 224.562V229H410.975V224.366C410.975 222.616 410.093 221.608 408.623 221.608C407.391 221.608 406.691 222.294 406.425 223.078H406.397C406.005 222.042 405.137 221.608 404.185 221.608C403.065 221.608 402.561 222.21 402.239 222.952H402.183V221.776H401.063V229H402.183ZM416.162 229.168C417.52 229.168 418.556 228.496 419.018 227.516L418.22 226.942C417.842 227.74 417.142 228.188 416.232 228.188C414.888 228.188 414.09 227.25 414.09 226.004V225.668H419.284V225.136C419.284 223.092 418.094 221.608 416.162 221.608C414.202 221.608 412.914 223.092 412.914 225.388C412.914 227.684 414.202 229.168 416.162 229.168ZM416.162 222.546C417.31 222.546 418.08 223.4 418.08 224.674V224.828H414.09V224.73C414.09 223.47 414.944 222.546 416.162 222.546ZM423.46 229.168C425.112 229.168 426.134 228.314 426.134 226.914C426.134 225.822 425.518 225.122 423.922 224.884L423.362 224.8C422.466 224.66 421.976 224.38 421.976 223.68C421.976 222.994 422.466 222.56 423.39 222.56C424.314 222.56 424.93 222.994 425.252 223.442L425.994 222.77C425.406 222.042 424.636 221.608 423.474 221.608C422.004 221.608 420.898 222.308 420.898 223.736C420.898 225.08 421.892 225.626 423.222 225.822L423.796 225.906C424.748 226.046 425.056 226.48 425.056 227.04C425.056 227.782 424.496 228.216 423.544 228.216C422.634 228.216 421.962 227.81 421.402 227.11L420.604 227.754C421.248 228.608 422.13 229.168 423.46 229.168Z" fill="black"/>
<rect x="241.5" y="23.5" width="275" height="180" rx="4.5" stroke="black" stroke-dasharray="6 6"/>
<path d="M186.402 19.8801C186.402 19.8352 186.402 19.8052 186.147 19.5504C184.648 18.037 183.809 15.5644 183.809 12.5075C183.809 9.6004 184.513 7.0979 186.252 5.32967C186.402 5.1948 186.402 5.16484 186.402 5.11988C186.402 5.02997 186.327 5 186.267 5C186.072 5 184.843 6.07892 184.109 7.54745C183.345 9.06094 183 10.6643 183 12.5075C183 13.8412 183.21 15.6244 183.989 17.2278C184.873 19.026 186.102 20 186.267 20C186.327 20 186.402 19.97 186.402 19.8801Z" fill="white"/>
<path d="M193.876 8.70144C193.876 7.17297 193.396 5.68945 192.168 5.68945C190.07 5.68945 187.837 10.0801 187.837 13.3768C187.837 14.0661 187.987 16.3888 189.56 16.3888C191.598 16.3888 193.876 12.103 193.876 8.70144ZM189.335 10.8143C189.56 9.93021 189.875 8.67147 190.474 7.60753C190.969 6.70843 191.493 5.98915 192.153 5.98915C192.647 5.98915 192.977 6.40873 192.977 7.8473C192.977 8.38676 192.932 9.13601 192.497 10.8143H189.335ZM192.392 11.2639C192.018 12.7324 191.703 13.6765 191.164 14.6205C190.729 15.3848 190.205 16.0891 189.575 16.0891C189.111 16.0891 188.736 15.7294 188.736 14.2459C188.736 13.2719 188.976 12.2529 189.216 11.2639H192.392Z" fill="white"/>
<path d="M198.96 15.3003C198.96 14.2314 198.85 13.582 198.521 12.9427C198.081 12.0635 197.272 11.8438 196.723 11.8438C195.464 11.8438 195.004 12.7828 194.864 13.0625C194.505 13.7918 194.485 14.7808 194.485 15.3003C194.485 15.9596 194.515 16.9686 194.994 17.7678C195.454 18.5071 196.193 18.6969 196.723 18.6969C197.202 18.6969 198.061 18.547 198.561 17.558C198.93 16.8388 198.96 15.9496 198.96 15.3003ZM196.723 18.4172C196.383 18.4172 195.694 18.2573 195.484 17.2084C195.374 16.639 195.374 15.6999 195.374 15.1804C195.374 14.4911 195.374 13.7918 195.484 13.2424C195.694 12.2234 196.473 12.1235 196.723 12.1235C197.062 12.1235 197.752 12.2933 197.951 13.2024C198.071 13.7518 198.071 14.5011 198.071 15.1804C198.071 15.7698 198.071 16.6689 197.951 17.2284C197.742 18.2773 197.052 18.4172 196.723 18.4172Z" fill="white"/>
<path d="M204.233 12.5075C204.233 11.3686 204.083 9.51049 203.244 7.77223C202.359 5.97403 201.131 5 200.966 5C200.906 5 200.831 5.02997 200.831 5.11988C200.831 5.16484 200.831 5.1948 201.086 5.44955C202.584 6.96304 203.423 9.43556 203.423 12.4925C203.423 15.3996 202.719 17.9021 200.981 19.6703C200.831 19.8052 200.831 19.8352 200.831 19.8801C200.831 19.97 200.906 20 200.966 20C201.161 20 202.389 18.9211 203.124 17.4525C203.888 15.9241 204.233 14.3057 204.233 12.5075Z" fill="white"/>
</svg>
