<svg width="665" height="440" viewBox="0 0 665 440" fill="none" xmlns="http://www.w3.org/2000/svg">
<path d="M267.02 437V430.808H267.98V431.816H268.028C268.18 431.464 268.392 431.184 268.664 430.976C268.944 430.768 269.316 430.664 269.78 430.664C270.42 430.664 270.924 430.872 271.292 431.288C271.668 431.696 271.856 432.276 271.856 433.028V437H270.896V433.196C270.896 432.084 270.428 431.528 269.492 431.528C269.3 431.528 269.112 431.552 268.928 431.6C268.752 431.648 268.592 431.72 268.448 431.816C268.304 431.912 268.188 432.036 268.1 432.188C268.02 432.332 267.98 432.504 267.98 432.704V437H267.02ZM277.976 435.992H277.928C277.864 436.136 277.784 436.28 277.688 436.424C277.6 436.56 277.488 436.684 277.352 436.796C277.216 436.9 277.052 436.984 276.86 437.048C276.668 437.112 276.444 437.144 276.188 437.144C275.548 437.144 275.04 436.94 274.664 436.532C274.288 436.116 274.1 435.532 274.1 434.78V430.808H275.06V434.612C275.06 435.724 275.532 436.28 276.476 436.28C276.668 436.28 276.852 436.256 277.028 436.208C277.212 436.16 277.372 436.088 277.508 435.992C277.652 435.896 277.764 435.776 277.844 435.632C277.932 435.48 277.976 435.3 277.976 435.092V430.808H278.936V437H277.976V435.992ZM281.301 437V430.808H282.261V431.816H282.309C282.381 431.656 282.461 431.508 282.549 431.372C282.645 431.228 282.757 431.104 282.885 431C283.021 430.896 283.177 430.816 283.353 430.76C283.529 430.696 283.737 430.664 283.977 430.664C284.385 430.664 284.761 430.764 285.105 430.964C285.449 431.156 285.705 431.476 285.873 431.924H285.897C286.009 431.588 286.217 431.296 286.521 431.048C286.833 430.792 287.253 430.664 287.781 430.664C288.413 430.664 288.905 430.872 289.257 431.288C289.617 431.696 289.797 432.276 289.797 433.028V437H288.837V433.196C288.837 432.644 288.729 432.228 288.513 431.948C288.297 431.668 287.953 431.528 287.481 431.528C287.289 431.528 287.105 431.552 286.929 431.6C286.761 431.648 286.609 431.72 286.473 431.816C286.337 431.912 286.229 432.036 286.149 432.188C286.069 432.332 286.029 432.504 286.029 432.704V437H285.069V433.196C285.069 432.644 284.961 432.228 284.745 431.948C284.529 431.668 284.193 431.528 283.737 431.528C283.545 431.528 283.361 431.552 283.185 431.6C283.009 431.648 282.853 431.72 282.717 431.816C282.581 431.912 282.469 432.036 282.381 432.188C282.301 432.332 282.261 432.504 282.261 432.704V437H281.301ZM292.097 428.12H293.057V431.816H293.105C293.265 431.424 293.497 431.136 293.801 430.952C294.113 430.76 294.485 430.664 294.917 430.664C295.301 430.664 295.649 430.74 295.961 430.892C296.273 431.044 296.537 431.26 296.753 431.54C296.977 431.82 297.145 432.16 297.257 432.56C297.377 432.96 297.437 433.408 297.437 433.904C297.437 434.4 297.377 434.848 297.257 435.248C297.145 435.648 296.977 435.988 296.753 436.268C296.537 436.548 296.273 436.764 295.961 436.916C295.649 437.068 295.301 437.144 294.917 437.144C294.077 437.144 293.473 436.76 293.105 435.992H293.057V437H292.097V428.12ZM294.653 436.28C295.197 436.28 295.625 436.112 295.937 435.776C296.249 435.432 296.405 434.984 296.405 434.432V433.376C296.405 432.824 296.249 432.38 295.937 432.044C295.625 431.7 295.197 431.528 294.653 431.528C294.437 431.528 294.229 431.56 294.029 431.624C293.837 431.68 293.669 431.76 293.525 431.864C293.381 431.968 293.265 432.096 293.177 432.248C293.097 432.392 293.057 432.548 293.057 432.716V435.02C293.057 435.22 293.097 435.4 293.177 435.56C293.265 435.712 293.381 435.844 293.525 435.956C293.669 436.06 293.837 436.14 294.029 436.196C294.229 436.252 294.437 436.28 294.653 436.28ZM301.706 437.144C301.282 437.144 300.898 437.068 300.554 436.916C300.218 436.764 299.926 436.548 299.678 436.268C299.438 435.98 299.25 435.64 299.114 435.248C298.986 434.848 298.922 434.4 298.922 433.904C298.922 433.416 298.986 432.972 299.114 432.572C299.25 432.172 299.438 431.832 299.678 431.552C299.926 431.264 300.218 431.044 300.554 430.892C300.898 430.74 301.282 430.664 301.706 430.664C302.122 430.664 302.494 430.74 302.822 430.892C303.15 431.044 303.43 431.256 303.662 431.528C303.894 431.792 304.07 432.108 304.19 432.476C304.318 432.844 304.382 433.248 304.382 433.688V434.144H299.93V434.432C299.93 434.696 299.97 434.944 300.05 435.176C300.138 435.4 300.258 435.596 300.41 435.764C300.57 435.932 300.762 436.064 300.986 436.16C301.218 436.256 301.478 436.304 301.766 436.304C302.158 436.304 302.498 436.212 302.786 436.028C303.082 435.844 303.31 435.58 303.47 435.236L304.154 435.728C303.954 436.152 303.642 436.496 303.218 436.76C302.794 437.016 302.29 437.144 301.706 437.144ZM301.706 431.468C301.442 431.468 301.202 431.516 300.986 431.612C300.77 431.7 300.582 431.828 300.422 431.996C300.27 432.164 300.15 432.364 300.062 432.596C299.974 432.82 299.93 433.068 299.93 433.34V433.424H303.35V433.292C303.35 432.74 303.198 432.3 302.894 431.972C302.598 431.636 302.202 431.468 301.706 431.468ZM306.284 437V430.808H307.244V431.948H307.304C307.416 431.652 307.616 431.388 307.904 431.156C308.192 430.924 308.588 430.808 309.092 430.808H309.464V431.768H308.9C308.38 431.768 307.972 431.868 307.676 432.068C307.388 432.26 307.244 432.504 307.244 432.8V437H306.284ZM316.506 437.144C316.09 437.144 315.71 437.068 315.366 436.916C315.022 436.764 314.726 436.548 314.478 436.268C314.238 435.98 314.05 435.64 313.914 435.248C313.778 434.848 313.71 434.4 313.71 433.904C313.71 433.416 313.778 432.972 313.914 432.572C314.05 432.172 314.238 431.832 314.478 431.552C314.726 431.264 315.022 431.044 315.366 430.892C315.71 430.74 316.09 430.664 316.506 430.664C316.922 430.664 317.298 430.74 317.634 430.892C317.978 431.044 318.274 431.264 318.522 431.552C318.77 431.832 318.962 432.172 319.098 432.572C319.234 432.972 319.302 433.416 319.302 433.904C319.302 434.4 319.234 434.848 319.098 435.248C318.962 435.64 318.77 435.98 318.522 436.268C318.274 436.548 317.978 436.764 317.634 436.916C317.298 437.068 316.922 437.144 316.506 437.144ZM316.506 436.292C317.026 436.292 317.45 436.132 317.778 435.812C318.106 435.492 318.27 435.004 318.27 434.348V433.46C318.27 432.804 318.106 432.316 317.778 431.996C317.45 431.676 317.026 431.516 316.506 431.516C315.986 431.516 315.562 431.676 315.234 431.996C314.906 432.316 314.742 432.804 314.742 433.46V434.348C314.742 435.004 314.906 435.492 315.234 435.812C315.562 436.132 315.986 436.292 316.506 436.292ZM321.467 431.648H320.459V430.808H321.467V429.56C321.467 429.128 321.579 428.78 321.803 428.516C322.027 428.252 322.367 428.12 322.823 428.12H323.759V428.96H322.427V430.808H323.759V431.648H322.427V437H321.467V431.648ZM328.497 430.808H329.457V431.816H329.505C329.665 431.424 329.897 431.136 330.201 430.952C330.513 430.76 330.885 430.664 331.317 430.664C331.701 430.664 332.049 430.74 332.361 430.892C332.673 431.044 332.937 431.26 333.153 431.54C333.377 431.82 333.545 432.16 333.657 432.56C333.777 432.96 333.837 433.408 333.837 433.904C333.837 434.4 333.777 434.848 333.657 435.248C333.545 435.648 333.377 435.988 333.153 436.268C332.937 436.548 332.673 436.764 332.361 436.916C332.049 437.068 331.701 437.144 331.317 437.144C330.477 437.144 329.873 436.76 329.505 435.992H329.457V439.4H328.497V430.808ZM331.053 436.28C331.597 436.28 332.025 436.112 332.337 435.776C332.649 435.432 332.805 434.984 332.805 434.432V433.376C332.805 432.824 332.649 432.38 332.337 432.044C332.025 431.7 331.597 431.528 331.053 431.528C330.837 431.528 330.629 431.56 330.429 431.624C330.237 431.68 330.069 431.76 329.925 431.864C329.781 431.968 329.665 432.096 329.577 432.248C329.497 432.392 329.457 432.548 329.457 432.716V435.02C329.457 435.22 329.497 435.4 329.577 435.56C329.665 435.712 329.781 435.844 329.925 435.956C330.069 436.06 330.237 436.14 330.429 436.196C330.629 436.252 330.837 436.28 331.053 436.28ZM340.278 437C339.918 437 339.658 436.904 339.498 436.712C339.346 436.52 339.25 436.28 339.21 435.992H339.15C339.014 436.376 338.79 436.664 338.478 436.856C338.166 437.048 337.794 437.144 337.362 437.144C336.706 437.144 336.194 436.976 335.826 436.64C335.466 436.304 335.286 435.848 335.286 435.272C335.286 434.688 335.498 434.24 335.922 433.928C336.354 433.616 337.022 433.46 337.926 433.46H339.15V432.848C339.15 432.408 339.03 432.072 338.79 431.84C338.55 431.608 338.182 431.492 337.686 431.492C337.31 431.492 336.994 431.576 336.738 431.744C336.49 431.912 336.282 432.136 336.114 432.416L335.538 431.876C335.706 431.54 335.974 431.256 336.342 431.024C336.71 430.784 337.174 430.664 337.734 430.664C338.486 430.664 339.07 430.848 339.486 431.216C339.902 431.584 340.11 432.096 340.11 432.752V436.16H340.818V437H340.278ZM337.518 436.328C337.758 436.328 337.978 436.3 338.178 436.244C338.378 436.188 338.55 436.108 338.694 436.004C338.838 435.9 338.95 435.78 339.03 435.644C339.11 435.508 339.15 435.36 339.15 435.2V434.18H337.878C337.326 434.18 336.922 434.26 336.666 434.42C336.418 434.58 336.294 434.812 336.294 435.116V435.368C336.294 435.672 336.402 435.908 336.618 436.076C336.842 436.244 337.142 436.328 337.518 436.328ZM342.508 437V430.808H343.468V431.948H343.528C343.64 431.652 343.84 431.388 344.128 431.156C344.416 430.924 344.812 430.808 345.316 430.808H345.688V431.768H345.124C344.604 431.768 344.196 431.868 343.9 432.068C343.612 432.26 343.468 432.504 343.468 432.8V437H342.508ZM351.688 437C351.328 437 351.068 436.904 350.908 436.712C350.756 436.52 350.66 436.28 350.62 435.992H350.56C350.424 436.376 350.2 436.664 349.888 436.856C349.576 437.048 349.204 437.144 348.772 437.144C348.116 437.144 347.604 436.976 347.236 436.64C346.876 436.304 346.696 435.848 346.696 435.272C346.696 434.688 346.908 434.24 347.332 433.928C347.764 433.616 348.432 433.46 349.336 433.46H350.56V432.848C350.56 432.408 350.44 432.072 350.2 431.84C349.96 431.608 349.592 431.492 349.096 431.492C348.72 431.492 348.404 431.576 348.148 431.744C347.9 431.912 347.692 432.136 347.524 432.416L346.948 431.876C347.116 431.54 347.384 431.256 347.752 431.024C348.12 430.784 348.584 430.664 349.144 430.664C349.896 430.664 350.48 430.848 350.896 431.216C351.312 431.584 351.52 432.096 351.52 432.752V436.16H352.228V437H351.688ZM348.928 436.328C349.168 436.328 349.388 436.3 349.588 436.244C349.788 436.188 349.96 436.108 350.104 436.004C350.248 435.9 350.36 435.78 350.44 435.644C350.52 435.508 350.56 435.36 350.56 435.2V434.18H349.288C348.736 434.18 348.332 434.26 348.076 434.42C347.828 434.58 347.704 434.812 347.704 435.116V435.368C347.704 435.672 347.812 435.908 348.028 436.076C348.252 436.244 348.552 436.328 348.928 436.328ZM353.918 437V430.808H354.878V431.816H354.926C354.998 431.656 355.078 431.508 355.166 431.372C355.262 431.228 355.374 431.104 355.502 431C355.638 430.896 355.794 430.816 355.97 430.76C356.146 430.696 356.354 430.664 356.594 430.664C357.002 430.664 357.378 430.764 357.722 430.964C358.066 431.156 358.322 431.476 358.49 431.924H358.514C358.626 431.588 358.834 431.296 359.138 431.048C359.45 430.792 359.87 430.664 360.398 430.664C361.03 430.664 361.522 430.872 361.874 431.288C362.234 431.696 362.414 432.276 362.414 433.028V437H361.454V433.196C361.454 432.644 361.346 432.228 361.13 431.948C360.914 431.668 360.57 431.528 360.098 431.528C359.906 431.528 359.722 431.552 359.546 431.6C359.378 431.648 359.226 431.72 359.09 431.816C358.954 431.912 358.846 432.036 358.766 432.188C358.686 432.332 358.646 432.504 358.646 432.704V437H357.686V433.196C357.686 432.644 357.578 432.228 357.362 431.948C357.146 431.668 356.81 431.528 356.354 431.528C356.162 431.528 355.978 431.552 355.802 431.6C355.626 431.648 355.47 431.72 355.334 431.816C355.198 431.912 355.086 432.036 354.998 432.188C354.918 432.332 354.878 432.504 354.878 432.704V437H353.918ZM367.043 437.144C366.619 437.144 366.235 437.068 365.891 436.916C365.555 436.764 365.263 436.548 365.015 436.268C364.775 435.98 364.587 435.64 364.451 435.248C364.323 434.848 364.259 434.4 364.259 433.904C364.259 433.416 364.323 432.972 364.451 432.572C364.587 432.172 364.775 431.832 365.015 431.552C365.263 431.264 365.555 431.044 365.891 430.892C366.235 430.74 366.619 430.664 367.043 430.664C367.459 430.664 367.831 430.74 368.159 430.892C368.487 431.044 368.767 431.256 368.999 431.528C369.231 431.792 369.407 432.108 369.527 432.476C369.655 432.844 369.719 433.248 369.719 433.688V434.144H365.267V434.432C365.267 434.696 365.307 434.944 365.387 435.176C365.475 435.4 365.595 435.596 365.747 435.764C365.907 435.932 366.099 436.064 366.323 436.16C366.555 436.256 366.815 436.304 367.103 436.304C367.495 436.304 367.835 436.212 368.123 436.028C368.419 435.844 368.647 435.58 368.807 435.236L369.491 435.728C369.291 436.152 368.979 436.496 368.555 436.76C368.131 437.016 367.627 437.144 367.043 437.144ZM367.043 431.468C366.779 431.468 366.539 431.516 366.323 431.612C366.107 431.7 365.919 431.828 365.759 431.996C365.607 432.164 365.487 432.364 365.399 432.596C365.311 432.82 365.267 433.068 365.267 433.34V433.424H368.687V433.292C368.687 432.74 368.535 432.3 368.231 431.972C367.935 431.636 367.539 431.468 367.043 431.468ZM372.988 437C372.652 437 372.396 436.908 372.22 436.724C372.052 436.532 371.968 436.284 371.968 435.98V431.648H370.948V430.808H371.524C371.732 430.808 371.872 430.768 371.944 430.688C372.024 430.6 372.064 430.452 372.064 430.244V429.092H372.928V430.808H374.284V431.648H372.928V436.16H374.188V437H372.988ZM378.429 437.144C378.005 437.144 377.621 437.068 377.277 436.916C376.941 436.764 376.649 436.548 376.401 436.268C376.161 435.98 375.973 435.64 375.837 435.248C375.709 434.848 375.645 434.4 375.645 433.904C375.645 433.416 375.709 432.972 375.837 432.572C375.973 432.172 376.161 431.832 376.401 431.552C376.649 431.264 376.941 431.044 377.277 430.892C377.621 430.74 378.005 430.664 378.429 430.664C378.845 430.664 379.217 430.74 379.545 430.892C379.873 431.044 380.153 431.256 380.385 431.528C380.617 431.792 380.793 432.108 380.913 432.476C381.041 432.844 381.105 433.248 381.105 433.688V434.144H376.653V434.432C376.653 434.696 376.693 434.944 376.773 435.176C376.861 435.4 376.981 435.596 377.133 435.764C377.293 435.932 377.485 436.064 377.709 436.16C377.941 436.256 378.201 436.304 378.489 436.304C378.881 436.304 379.221 436.212 379.509 436.028C379.805 435.844 380.033 435.58 380.193 435.236L380.877 435.728C380.677 436.152 380.365 436.496 379.941 436.76C379.517 437.016 379.013 437.144 378.429 437.144ZM378.429 431.468C378.165 431.468 377.925 431.516 377.709 431.612C377.493 431.7 377.305 431.828 377.145 431.996C376.993 432.164 376.873 432.364 376.785 432.596C376.697 432.82 376.653 433.068 376.653 433.34V433.424H380.073V433.292C380.073 432.74 379.921 432.3 379.617 431.972C379.321 431.636 378.925 431.468 378.429 431.468ZM383.007 437V430.808H383.967V431.948H384.027C384.139 431.652 384.339 431.388 384.627 431.156C384.915 430.924 385.311 430.808 385.815 430.808H386.187V431.768H385.623C385.103 431.768 384.695 431.868 384.399 432.068C384.111 432.26 383.967 432.504 383.967 432.8V437H383.007ZM389.593 437.144C389.017 437.144 388.533 437.036 388.141 436.82C387.757 436.596 387.425 436.3 387.145 435.932L387.829 435.38C388.069 435.684 388.337 435.92 388.633 436.088C388.929 436.248 389.273 436.328 389.665 436.328C390.073 436.328 390.389 436.24 390.613 436.064C390.845 435.888 390.961 435.64 390.961 435.32C390.961 435.08 390.881 434.876 390.721 434.708C390.569 434.532 390.289 434.412 389.881 434.348L389.389 434.276C389.101 434.236 388.837 434.176 388.597 434.096C388.357 434.008 388.145 433.896 387.961 433.76C387.785 433.616 387.645 433.44 387.541 433.232C387.445 433.024 387.397 432.776 387.397 432.488C387.397 432.184 387.453 431.92 387.565 431.696C387.677 431.464 387.829 431.272 388.021 431.12C388.221 430.968 388.457 430.856 388.729 430.784C389.001 430.704 389.293 430.664 389.605 430.664C390.109 430.664 390.529 430.752 390.865 430.928C391.209 431.104 391.509 431.348 391.765 431.66L391.129 432.236C390.993 432.044 390.793 431.872 390.529 431.72C390.265 431.56 389.933 431.48 389.533 431.48C389.133 431.48 388.829 431.568 388.621 431.744C388.421 431.912 388.321 432.144 388.321 432.44C388.321 432.744 388.421 432.964 388.621 433.1C388.829 433.236 389.125 433.336 389.509 433.4L389.989 433.472C390.677 433.576 391.165 433.776 391.453 434.072C391.741 434.36 391.885 434.74 391.885 435.212C391.885 435.812 391.681 436.284 391.273 436.628C390.865 436.972 390.305 437.144 389.593 437.144ZM397.536 429.356C397.328 429.356 397.176 429.308 397.08 429.212C396.992 429.108 396.948 428.976 396.948 428.816V428.66C396.948 428.5 396.992 428.372 397.08 428.276C397.176 428.172 397.328 428.12 397.536 428.12C397.744 428.12 397.892 428.172 397.98 428.276C398.076 428.372 398.124 428.5 398.124 428.66V428.816C398.124 428.976 398.076 429.108 397.98 429.212C397.892 429.308 397.744 429.356 397.536 429.356ZM397.056 430.808H398.016V437H397.056V430.808ZM400.376 437V430.808H401.336V431.816H401.384C401.536 431.464 401.748 431.184 402.02 430.976C402.3 430.768 402.672 430.664 403.136 430.664C403.776 430.664 404.28 430.872 404.648 431.288C405.024 431.696 405.212 432.276 405.212 433.028V437H404.252V433.196C404.252 432.084 403.784 431.528 402.848 431.528C402.656 431.528 402.468 431.552 402.284 431.6C402.108 431.648 401.948 431.72 401.804 431.816C401.66 431.912 401.544 432.036 401.456 432.188C401.376 432.332 401.336 432.504 401.336 432.704V437H400.376ZM415.173 437C414.813 437 414.553 436.904 414.393 436.712C414.241 436.52 414.145 436.28 414.105 435.992H414.045C413.909 436.376 413.685 436.664 413.373 436.856C413.061 437.048 412.689 437.144 412.257 437.144C411.601 437.144 411.089 436.976 410.721 436.64C410.361 436.304 410.181 435.848 410.181 435.272C410.181 434.688 410.393 434.24 410.817 433.928C411.249 433.616 411.917 433.46 412.821 433.46H414.045V432.848C414.045 432.408 413.925 432.072 413.685 431.84C413.445 431.608 413.077 431.492 412.581 431.492C412.205 431.492 411.889 431.576 411.633 431.744C411.385 431.912 411.177 432.136 411.009 432.416L410.433 431.876C410.601 431.54 410.869 431.256 411.237 431.024C411.605 430.784 412.069 430.664 412.629 430.664C413.381 430.664 413.965 430.848 414.381 431.216C414.797 431.584 415.005 432.096 415.005 432.752V436.16H415.713V437H415.173ZM412.413 436.328C412.653 436.328 412.873 436.3 413.073 436.244C413.273 436.188 413.445 436.108 413.589 436.004C413.733 435.9 413.845 435.78 413.925 435.644C414.005 435.508 414.045 435.36 414.045 435.2V434.18H412.773C412.221 434.18 411.817 434.26 411.561 434.42C411.313 434.58 411.189 434.812 411.189 435.116V435.368C411.189 435.672 411.297 435.908 411.513 436.076C411.737 436.244 412.037 436.328 412.413 436.328ZM417.403 437V430.808H418.363V431.816H418.411C418.563 431.464 418.775 431.184 419.047 430.976C419.327 430.768 419.699 430.664 420.163 430.664C420.803 430.664 421.307 430.872 421.675 431.288C422.051 431.696 422.239 432.276 422.239 433.028V437H421.279V433.196C421.279 432.084 420.811 431.528 419.875 431.528C419.683 431.528 419.495 431.552 419.311 431.6C419.135 431.648 418.975 431.72 418.831 431.816C418.687 431.912 418.571 432.036 418.483 432.188C418.403 432.332 418.363 432.504 418.363 432.704V437H417.403ZM426.403 437.144C425.827 437.144 425.343 437.036 424.951 436.82C424.567 436.596 424.235 436.3 423.955 435.932L424.639 435.38C424.879 435.684 425.147 435.92 425.443 436.088C425.739 436.248 426.083 436.328 426.475 436.328C426.883 436.328 427.199 436.24 427.423 436.064C427.655 435.888 427.771 435.64 427.771 435.32C427.771 435.08 427.691 434.876 427.531 434.708C427.379 434.532 427.099 434.412 426.691 434.348L426.199 434.276C425.911 434.236 425.647 434.176 425.407 434.096C425.167 434.008 424.955 433.896 424.771 433.76C424.595 433.616 424.455 433.44 424.351 433.232C424.255 433.024 424.207 432.776 424.207 432.488C424.207 432.184 424.263 431.92 424.375 431.696C424.487 431.464 424.639 431.272 424.831 431.12C425.031 430.968 425.267 430.856 425.539 430.784C425.811 430.704 426.103 430.664 426.415 430.664C426.919 430.664 427.339 430.752 427.675 430.928C428.019 431.104 428.319 431.348 428.575 431.66L427.939 432.236C427.803 432.044 427.603 431.872 427.339 431.72C427.075 431.56 426.743 431.48 426.343 431.48C425.943 431.48 425.639 431.568 425.431 431.744C425.231 431.912 425.131 432.144 425.131 432.44C425.131 432.744 425.231 432.964 425.431 433.1C425.639 433.236 425.935 433.336 426.319 433.4L426.799 433.472C427.487 433.576 427.975 433.776 428.263 434.072C428.551 434.36 428.695 434.74 428.695 435.212C428.695 435.812 428.491 436.284 428.083 436.628C427.675 436.972 427.115 437.144 426.403 437.144ZM435.211 437C434.851 437 434.591 436.904 434.431 436.712C434.279 436.52 434.183 436.28 434.143 435.992H434.083C433.947 436.376 433.723 436.664 433.411 436.856C433.099 437.048 432.727 437.144 432.295 437.144C431.639 437.144 431.127 436.976 430.759 436.64C430.399 436.304 430.219 435.848 430.219 435.272C430.219 434.688 430.431 434.24 430.855 433.928C431.287 433.616 431.955 433.46 432.859 433.46H434.083V432.848C434.083 432.408 433.963 432.072 433.723 431.84C433.483 431.608 433.115 431.492 432.619 431.492C432.243 431.492 431.927 431.576 431.671 431.744C431.423 431.912 431.215 432.136 431.047 432.416L430.471 431.876C430.639 431.54 430.907 431.256 431.275 431.024C431.643 430.784 432.107 430.664 432.667 430.664C433.419 430.664 434.003 430.848 434.419 431.216C434.835 431.584 435.043 432.096 435.043 432.752V436.16H435.751V437H435.211ZM432.451 436.328C432.691 436.328 432.911 436.3 433.111 436.244C433.311 436.188 433.483 436.108 433.627 436.004C433.771 435.9 433.883 435.78 433.963 435.644C434.043 435.508 434.083 435.36 434.083 435.2V434.18H432.811C432.259 434.18 431.855 434.26 431.599 434.42C431.351 434.58 431.227 434.812 431.227 435.116V435.368C431.227 435.672 431.335 435.908 431.551 436.076C431.775 436.244 432.075 436.328 432.451 436.328ZM438.809 437C438.473 437 438.217 436.908 438.041 436.724C437.873 436.532 437.789 436.284 437.789 435.98V431.648H436.769V430.808H437.345C437.553 430.808 437.693 430.768 437.765 430.688C437.845 430.6 437.885 430.452 437.885 430.244V429.092H438.749V430.808H440.105V431.648H438.749V436.16H440.009V437H438.809ZM441.344 437V436.196L444.86 431.648H441.452V430.808H446.024V431.528L442.436 436.16H446.12V437H441.344Z" fill="black"/>
<path d="M217.942 14.168C217.298 14.168 216.715 14.0653 216.192 13.86C215.679 13.6453 215.235 13.328 214.862 12.908C214.498 12.488 214.218 11.97 214.022 11.354C213.826 10.7287 213.728 10.0053 213.728 9.184C213.728 8.36267 213.826 7.63467 214.022 7C214.218 6.356 214.498 5.81933 214.862 5.39C215.235 4.95133 215.679 4.62 216.192 4.396C216.715 4.172 217.298 4.06 217.942 4.06C218.819 4.06 219.547 4.24667 220.126 4.62C220.705 4.99333 221.167 5.558 221.512 6.314L219.93 7.154C219.79 6.71533 219.561 6.36533 219.244 6.104C218.927 5.83333 218.493 5.698 217.942 5.698C217.251 5.698 216.701 5.93133 216.29 6.398C215.889 6.86467 215.688 7.518 215.688 8.358V9.898C215.688 10.7473 215.889 11.4007 216.29 11.858C216.701 12.306 217.251 12.53 217.942 12.53C218.493 12.53 218.941 12.3807 219.286 12.082C219.641 11.7833 219.897 11.4147 220.056 10.976L221.554 11.858C221.199 12.586 220.728 13.1553 220.14 13.566C219.552 13.9673 218.819 14.168 217.942 14.168ZM226.076 14.168C225.554 14.168 225.082 14.0793 224.662 13.902C224.252 13.7247 223.897 13.468 223.598 13.132C223.309 12.796 223.085 12.3947 222.926 11.928C222.768 11.452 222.688 10.92 222.688 10.332C222.688 9.744 222.768 9.21667 222.926 8.75C223.085 8.28333 223.309 7.88667 223.598 7.56C223.897 7.224 224.252 6.96733 224.662 6.79C225.082 6.61267 225.554 6.524 226.076 6.524C226.599 6.524 227.07 6.61267 227.49 6.79C227.91 6.96733 228.265 7.224 228.554 7.56C228.853 7.88667 229.082 8.28333 229.24 8.75C229.399 9.21667 229.478 9.744 229.478 10.332C229.478 10.92 229.399 11.452 229.24 11.928C229.082 12.3947 228.853 12.796 228.554 13.132C228.265 13.468 227.91 13.7247 227.49 13.902C227.07 14.0793 226.599 14.168 226.076 14.168ZM226.076 12.726C226.552 12.726 226.926 12.5813 227.196 12.292C227.467 12.0027 227.602 11.578 227.602 11.018V9.66C227.602 9.10933 227.467 8.68933 227.196 8.4C226.926 8.11067 226.552 7.966 226.076 7.966C225.61 7.966 225.241 8.11067 224.97 8.4C224.7 8.68933 224.564 9.10933 224.564 9.66V11.018C224.564 11.578 224.7 12.0027 224.97 12.292C225.241 12.5813 225.61 12.726 226.076 12.726ZM233.621 14.168C232.921 14.168 232.333 14.0513 231.857 13.818C231.381 13.5753 230.961 13.244 230.597 12.824L231.689 11.76C231.96 12.068 232.254 12.3107 232.571 12.488C232.898 12.6653 233.271 12.754 233.691 12.754C234.12 12.754 234.428 12.6793 234.615 12.53C234.811 12.3807 234.909 12.1753 234.909 11.914C234.909 11.6993 234.839 11.5313 234.699 11.41C234.568 11.2793 234.34 11.1907 234.013 11.144L233.285 11.046C232.492 10.9433 231.885 10.7193 231.465 10.374C231.054 10.0193 230.849 9.506 230.849 8.834C230.849 8.47933 230.914 8.162 231.045 7.882C231.176 7.59267 231.362 7.35 231.605 7.154C231.848 6.94867 232.137 6.79467 232.473 6.692C232.818 6.58 233.201 6.524 233.621 6.524C233.976 6.524 234.288 6.552 234.559 6.608C234.839 6.65467 235.091 6.72933 235.315 6.832C235.539 6.92533 235.744 7.04667 235.931 7.196C236.118 7.336 236.3 7.49467 236.477 7.672L235.427 8.722C235.212 8.498 234.956 8.31133 234.657 8.162C234.358 8.01267 234.032 7.938 233.677 7.938C233.285 7.938 233 8.008 232.823 8.148C232.655 8.288 232.571 8.47 232.571 8.694C232.571 8.93667 232.641 9.12333 232.781 9.254C232.93 9.37533 233.178 9.464 233.523 9.52L234.265 9.618C235.842 9.842 236.631 10.5607 236.631 11.774C236.631 12.1287 236.556 12.4553 236.407 12.754C236.267 13.0433 236.066 13.2953 235.805 13.51C235.544 13.7153 235.226 13.8787 234.853 14C234.489 14.112 234.078 14.168 233.621 14.168ZM240.546 14C239.93 14 239.459 13.8413 239.132 13.524C238.815 13.1973 238.656 12.7353 238.656 12.138V8.12H237.578V6.692H238.138C238.409 6.692 238.591 6.63133 238.684 6.51C238.787 6.37933 238.838 6.188 238.838 5.936V4.69H240.448V6.692H241.946V8.12H240.448V12.572H241.834V14H240.546ZM247.129 6.692H248.921V7.896H248.977C249.108 7.476 249.355 7.14467 249.719 6.902C250.083 6.65 250.508 6.524 250.993 6.524C251.926 6.524 252.636 6.85533 253.121 7.518C253.616 8.17133 253.863 9.10933 253.863 10.332C253.863 11.564 253.616 12.5113 253.121 13.174C252.636 13.8367 251.926 14.168 250.993 14.168C250.508 14.168 250.083 14.042 249.719 13.79C249.364 13.538 249.117 13.202 248.977 12.782H248.921V16.8H247.129V6.692ZM250.419 12.684C250.886 12.684 251.264 12.53 251.553 12.222C251.842 11.914 251.987 11.4987 251.987 10.976V9.716C251.987 9.19333 251.842 8.778 251.553 8.47C251.264 8.15267 250.886 7.994 250.419 7.994C249.99 7.994 249.63 8.10133 249.341 8.316C249.061 8.53067 248.921 8.81533 248.921 9.17V11.494C248.921 11.8767 249.061 12.1707 249.341 12.376C249.63 12.5813 249.99 12.684 250.419 12.684ZM258.637 14.168C258.096 14.168 257.611 14.0793 257.181 13.902C256.761 13.7153 256.402 13.4587 256.103 13.132C255.814 12.796 255.59 12.3947 255.431 11.928C255.273 11.452 255.193 10.92 255.193 10.332C255.193 9.75333 255.268 9.23067 255.417 8.764C255.576 8.29733 255.8 7.90067 256.089 7.574C256.379 7.238 256.733 6.98133 257.153 6.804C257.573 6.61733 258.049 6.524 258.581 6.524C259.151 6.524 259.645 6.622 260.065 6.818C260.485 7.014 260.831 7.28 261.101 7.616C261.372 7.952 261.573 8.344 261.703 8.792C261.843 9.23067 261.913 9.702 261.913 10.206V10.794H257.055V10.976C257.055 11.508 257.205 11.9373 257.503 12.264C257.802 12.5813 258.245 12.74 258.833 12.74C259.281 12.74 259.645 12.6467 259.925 12.46C260.215 12.2733 260.471 12.0353 260.695 11.746L261.661 12.824C261.363 13.244 260.952 13.5753 260.429 13.818C259.916 14.0513 259.319 14.168 258.637 14.168ZM258.609 7.868C258.133 7.868 257.755 8.02667 257.475 8.344C257.195 8.66133 257.055 9.072 257.055 9.576V9.688H260.051V9.562C260.051 9.058 259.925 8.652 259.673 8.344C259.431 8.02667 259.076 7.868 258.609 7.868ZM263.65 14V6.692H265.442V8.204H265.512C265.559 8.008 265.629 7.82133 265.722 7.644C265.825 7.45733 265.955 7.294 266.114 7.154C266.273 7.014 266.459 6.902 266.674 6.818C266.898 6.734 267.155 6.692 267.444 6.692H267.836V8.386H267.276C266.669 8.386 266.212 8.47467 265.904 8.652C265.596 8.82933 265.442 9.11867 265.442 9.52V14H263.65ZM273.671 5.628C273.297 5.628 273.027 5.544 272.859 5.376C272.7 5.208 272.621 4.99333 272.621 4.732V4.452C272.621 4.19067 272.7 3.976 272.859 3.808C273.027 3.64 273.297 3.556 273.671 3.556C274.035 3.556 274.301 3.64 274.469 3.808C274.637 3.976 274.721 4.19067 274.721 4.452V4.732C274.721 4.99333 274.637 5.208 274.469 5.376C274.301 5.544 274.035 5.628 273.671 5.628ZM272.775 6.692H274.567V14H272.775V6.692ZM279.086 14C278.47 14 277.999 13.8413 277.672 13.524C277.355 13.1973 277.196 12.7353 277.196 12.138V8.12H276.118V6.692H276.678C276.949 6.692 277.131 6.63133 277.224 6.51C277.327 6.37933 277.378 6.188 277.378 5.936V4.69H278.988V6.692H280.486V8.12H278.988V12.572H280.374V14H279.086ZM285.1 14.168C284.558 14.168 284.073 14.0793 283.644 13.902C283.224 13.7153 282.864 13.4587 282.566 13.132C282.276 12.796 282.052 12.3947 281.894 11.928C281.735 11.452 281.656 10.92 281.656 10.332C281.656 9.75333 281.73 9.23067 281.88 8.764C282.038 8.29733 282.262 7.90067 282.552 7.574C282.841 7.238 283.196 6.98133 283.616 6.804C284.036 6.61733 284.512 6.524 285.044 6.524C285.613 6.524 286.108 6.622 286.528 6.818C286.948 7.014 287.293 7.28 287.564 7.616C287.834 7.952 288.035 8.344 288.166 8.792C288.306 9.23067 288.376 9.702 288.376 10.206V10.794H283.518V10.976C283.518 11.508 283.667 11.9373 283.966 12.264C284.264 12.5813 284.708 12.74 285.296 12.74C285.744 12.74 286.108 12.6467 286.388 12.46C286.677 12.2733 286.934 12.0353 287.158 11.746L288.124 12.824C287.825 13.244 287.414 13.5753 286.892 13.818C286.378 14.0513 285.781 14.168 285.1 14.168ZM285.072 7.868C284.596 7.868 284.218 8.02667 283.938 8.344C283.658 8.66133 283.518 9.072 283.518 9.576V9.688H286.514V9.562C286.514 9.058 286.388 8.652 286.136 8.344C285.893 8.02667 285.538 7.868 285.072 7.868ZM290.112 14V6.692H291.904V8.204H291.974C292.021 8.008 292.091 7.82133 292.184 7.644C292.287 7.45733 292.418 7.294 292.576 7.154C292.735 7.014 292.922 6.902 293.136 6.818C293.36 6.734 293.617 6.692 293.906 6.692H294.298V8.386H293.738C293.132 8.386 292.674 8.47467 292.366 8.652C292.058 8.82933 291.904 9.11867 291.904 9.52V14H290.112ZM300.994 14C300.602 14 300.289 13.888 300.056 13.664C299.832 13.4307 299.692 13.1227 299.636 12.74H299.552C299.431 13.216 299.183 13.5753 298.81 13.818C298.437 14.0513 297.975 14.168 297.424 14.168C296.677 14.168 296.103 13.972 295.702 13.58C295.301 13.188 295.1 12.6653 295.1 12.012C295.1 11.256 295.371 10.696 295.912 10.332C296.453 9.95867 297.223 9.772 298.222 9.772H299.468V9.24C299.468 8.82933 299.361 8.512 299.146 8.288C298.931 8.064 298.586 7.952 298.11 7.952C297.69 7.952 297.349 8.04533 297.088 8.232C296.836 8.40933 296.621 8.624 296.444 8.876L295.38 7.924C295.651 7.504 296.01 7.168 296.458 6.916C296.906 6.65467 297.499 6.524 298.236 6.524C299.225 6.524 299.977 6.748 300.49 7.196C301.003 7.644 301.26 8.288 301.26 9.128V12.572H301.988V14H300.994ZM298.026 12.866C298.427 12.866 298.768 12.7773 299.048 12.6C299.328 12.4227 299.468 12.1613 299.468 11.816V10.85H298.32C297.387 10.85 296.92 11.1487 296.92 11.746V11.984C296.92 12.2827 297.013 12.5067 297.2 12.656C297.396 12.796 297.671 12.866 298.026 12.866ZM305.826 14C305.21 14 304.738 13.8413 304.412 13.524C304.094 13.1973 303.936 12.7353 303.936 12.138V8.12H302.858V6.692H303.418C303.688 6.692 303.87 6.63133 303.964 6.51C304.066 6.37933 304.118 6.188 304.118 5.936V4.69H305.728V6.692H307.226V8.12H305.728V12.572H307.114V14H305.826ZM309.836 5.628C309.463 5.628 309.192 5.544 309.024 5.376C308.865 5.208 308.786 4.99333 308.786 4.732V4.452C308.786 4.19067 308.865 3.976 309.024 3.808C309.192 3.64 309.463 3.556 309.836 3.556C310.2 3.556 310.466 3.64 310.634 3.808C310.802 3.976 310.886 4.19067 310.886 4.452V4.732C310.886 4.99333 310.802 5.208 310.634 5.376C310.466 5.544 310.2 5.628 309.836 5.628ZM308.94 6.692H310.732V14H308.94V6.692ZM315.867 14.168C315.344 14.168 314.873 14.0793 314.453 13.902C314.042 13.7247 313.688 13.468 313.389 13.132C313.1 12.796 312.876 12.3947 312.717 11.928C312.558 11.452 312.479 10.92 312.479 10.332C312.479 9.744 312.558 9.21667 312.717 8.75C312.876 8.28333 313.1 7.88667 313.389 7.56C313.688 7.224 314.042 6.96733 314.453 6.79C314.873 6.61267 315.344 6.524 315.867 6.524C316.39 6.524 316.861 6.61267 317.281 6.79C317.701 6.96733 318.056 7.224 318.345 7.56C318.644 7.88667 318.872 8.28333 319.031 8.75C319.19 9.21667 319.269 9.744 319.269 10.332C319.269 10.92 319.19 11.452 319.031 11.928C318.872 12.3947 318.644 12.796 318.345 13.132C318.056 13.468 317.701 13.7247 317.281 13.902C316.861 14.0793 316.39 14.168 315.867 14.168ZM315.867 12.726C316.343 12.726 316.716 12.5813 316.987 12.292C317.258 12.0027 317.393 11.578 317.393 11.018V9.66C317.393 9.10933 317.258 8.68933 316.987 8.4C316.716 8.11067 316.343 7.966 315.867 7.966C315.4 7.966 315.032 8.11067 314.761 8.4C314.49 8.68933 314.355 9.10933 314.355 9.66V11.018C314.355 11.578 314.49 12.0027 314.761 12.292C315.032 12.5813 315.4 12.726 315.867 12.726ZM321.018 14V6.692H322.81V7.91H322.88C323.029 7.518 323.262 7.19133 323.58 6.93C323.906 6.65933 324.354 6.524 324.924 6.524C325.68 6.524 326.258 6.77133 326.66 7.266C327.061 7.76067 327.262 8.46533 327.262 9.38V14H325.47V9.562C325.47 9.03933 325.376 8.64733 325.19 8.386C325.003 8.12467 324.695 7.994 324.266 7.994C324.079 7.994 323.897 8.022 323.72 8.078C323.552 8.12467 323.398 8.19933 323.258 8.302C323.127 8.39533 323.02 8.51667 322.936 8.666C322.852 8.806 322.81 8.974 322.81 9.17V14H321.018ZM333.241 8.106H332.163V6.692H333.241V5.642C333.241 4.998 333.409 4.50333 333.745 4.158C334.09 3.81267 334.594 3.64 335.257 3.64H336.531V5.068H335.033V6.692H336.531V8.106H335.033V14H333.241V8.106ZM340.775 14.168C340.252 14.168 339.781 14.0793 339.361 13.902C338.95 13.7247 338.595 13.468 338.297 13.132C338.007 12.796 337.783 12.3947 337.625 11.928C337.466 11.452 337.387 10.92 337.387 10.332C337.387 9.744 337.466 9.21667 337.625 8.75C337.783 8.28333 338.007 7.88667 338.297 7.56C338.595 7.224 338.95 6.96733 339.361 6.79C339.781 6.61267 340.252 6.524 340.775 6.524C341.297 6.524 341.769 6.61267 342.189 6.79C342.609 6.96733 342.963 7.224 343.253 7.56C343.551 7.88667 343.78 8.28333 343.939 8.75C344.097 9.21667 344.177 9.744 344.177 10.332C344.177 10.92 344.097 11.452 343.939 11.928C343.78 12.3947 343.551 12.796 343.253 13.132C342.963 13.468 342.609 13.7247 342.189 13.902C341.769 14.0793 341.297 14.168 340.775 14.168ZM340.775 12.726C341.251 12.726 341.624 12.5813 341.895 12.292C342.165 12.0027 342.301 11.578 342.301 11.018V9.66C342.301 9.10933 342.165 8.68933 341.895 8.4C341.624 8.11067 341.251 7.966 340.775 7.966C340.308 7.966 339.939 8.11067 339.669 8.4C339.398 8.68933 339.263 9.10933 339.263 9.66V11.018C339.263 11.578 339.398 12.0027 339.669 12.292C339.939 12.5813 340.308 12.726 340.775 12.726ZM345.925 14V6.692H347.717V8.204H347.787C347.834 8.008 347.904 7.82133 347.997 7.644C348.1 7.45733 348.231 7.294 348.389 7.154C348.548 7.014 348.735 6.902 348.949 6.818C349.173 6.734 349.43 6.692 349.719 6.692H350.111V8.386H349.551C348.945 8.386 348.487 8.47467 348.179 8.652C347.871 8.82933 347.717 9.11867 347.717 9.52V14H345.925ZM359.586 12.782H359.516C359.385 13.202 359.138 13.538 358.774 13.79C358.41 14.042 357.985 14.168 357.5 14.168C356.576 14.168 355.867 13.8367 355.372 13.174C354.887 12.5113 354.644 11.564 354.644 10.332C354.644 9.10933 354.887 8.17133 355.372 7.518C355.867 6.85533 356.576 6.524 357.5 6.524C357.985 6.524 358.41 6.65 358.774 6.902C359.138 7.14467 359.385 7.476 359.516 7.896H359.586V3.64H361.378V14H359.586V12.782ZM358.074 12.684C358.503 12.684 358.863 12.5813 359.152 12.376C359.441 12.1707 359.586 11.8767 359.586 11.494V9.17C359.586 8.81533 359.441 8.53067 359.152 8.316C358.863 8.10133 358.503 7.994 358.074 7.994C357.607 7.994 357.229 8.15267 356.94 8.47C356.66 8.778 356.52 9.19333 356.52 9.716V10.976C356.52 11.4987 356.66 11.914 356.94 12.222C357.229 12.53 357.607 12.684 358.074 12.684ZM364.501 5.628C364.127 5.628 363.857 5.544 363.689 5.376C363.53 5.208 363.451 4.99333 363.451 4.732V4.452C363.451 4.19067 363.53 3.976 363.689 3.808C363.857 3.64 364.127 3.556 364.501 3.556C364.865 3.556 365.131 3.64 365.299 3.808C365.467 3.976 365.551 4.19067 365.551 4.452V4.732C365.551 4.99333 365.467 5.208 365.299 5.376C365.131 5.544 364.865 5.628 364.501 5.628ZM363.605 6.692H365.397V14H363.605V6.692ZM367.998 8.106H366.92V6.692H367.998V5.642C367.998 4.998 368.166 4.50333 368.502 4.158C368.847 3.81267 369.351 3.64 370.014 3.64H371.288V5.068H369.79V6.692H371.288V8.106H369.79V14H367.998V8.106ZM373.093 8.106H372.015V6.692H373.093V5.642C373.093 4.998 373.261 4.50333 373.597 4.158C373.943 3.81267 374.447 3.64 375.109 3.64H376.383V5.068H374.885V6.692H376.383V8.106H374.885V14H373.093V8.106ZM380.683 14.168C380.142 14.168 379.656 14.0793 379.227 13.902C378.807 13.7153 378.448 13.4587 378.149 13.132C377.86 12.796 377.636 12.3947 377.477 11.928C377.318 11.452 377.239 10.92 377.239 10.332C377.239 9.75333 377.314 9.23067 377.463 8.764C377.622 8.29733 377.846 7.90067 378.135 7.574C378.424 7.238 378.779 6.98133 379.199 6.804C379.619 6.61733 380.095 6.524 380.627 6.524C381.196 6.524 381.691 6.622 382.111 6.818C382.531 7.014 382.876 7.28 383.147 7.616C383.418 7.952 383.618 8.344 383.749 8.792C383.889 9.23067 383.959 9.702 383.959 10.206V10.794H379.101V10.976C379.101 11.508 379.25 11.9373 379.549 12.264C379.848 12.5813 380.291 12.74 380.879 12.74C381.327 12.74 381.691 12.6467 381.971 12.46C382.26 12.2733 382.517 12.0353 382.741 11.746L383.707 12.824C383.408 13.244 382.998 13.5753 382.475 13.818C381.962 14.0513 381.364 14.168 380.683 14.168ZM380.655 7.868C380.179 7.868 379.801 8.02667 379.521 8.344C379.241 8.66133 379.101 9.072 379.101 9.576V9.688H382.097V9.562C382.097 9.058 381.971 8.652 381.719 8.344C381.476 8.02667 381.122 7.868 380.655 7.868ZM385.696 14V6.692H387.488V8.204H387.558C387.604 8.008 387.674 7.82133 387.768 7.644C387.87 7.45733 388.001 7.294 388.16 7.154C388.318 7.014 388.505 6.902 388.72 6.818C388.944 6.734 389.2 6.692 389.49 6.692H389.882V8.386H389.322C388.715 8.386 388.258 8.47467 387.95 8.652C387.642 8.82933 387.488 9.11867 387.488 9.52V14H385.696ZM394.237 14.168C393.696 14.168 393.211 14.0793 392.781 13.902C392.361 13.7153 392.002 13.4587 391.703 13.132C391.414 12.796 391.19 12.3947 391.031 11.928C390.873 11.452 390.793 10.92 390.793 10.332C390.793 9.75333 390.868 9.23067 391.017 8.764C391.176 8.29733 391.4 7.90067 391.689 7.574C391.979 7.238 392.333 6.98133 392.753 6.804C393.173 6.61733 393.649 6.524 394.181 6.524C394.751 6.524 395.245 6.622 395.665 6.818C396.085 7.014 396.431 7.28 396.701 7.616C396.972 7.952 397.173 8.344 397.303 8.792C397.443 9.23067 397.513 9.702 397.513 10.206V10.794H392.655V10.976C392.655 11.508 392.805 11.9373 393.103 12.264C393.402 12.5813 393.845 12.74 394.433 12.74C394.881 12.74 395.245 12.6467 395.525 12.46C395.815 12.2733 396.071 12.0353 396.295 11.746L397.261 12.824C396.963 13.244 396.552 13.5753 396.029 13.818C395.516 14.0513 394.919 14.168 394.237 14.168ZM394.209 7.868C393.733 7.868 393.355 8.02667 393.075 8.344C392.795 8.66133 392.655 9.072 392.655 9.576V9.688H395.651V9.562C395.651 9.058 395.525 8.652 395.273 8.344C395.031 8.02667 394.676 7.868 394.209 7.868ZM399.25 14V6.692H401.042V7.91H401.112C401.261 7.518 401.495 7.19133 401.812 6.93C402.139 6.65933 402.587 6.524 403.156 6.524C403.912 6.524 404.491 6.77133 404.892 7.266C405.293 7.76067 405.494 8.46533 405.494 9.38V14H403.702V9.562C403.702 9.03933 403.609 8.64733 403.422 8.386C403.235 8.12467 402.927 7.994 402.498 7.994C402.311 7.994 402.129 8.022 401.952 8.078C401.784 8.12467 401.63 8.19933 401.49 8.302C401.359 8.39533 401.252 8.51667 401.168 8.666C401.084 8.806 401.042 8.974 401.042 9.17V14H399.25ZM409.923 14C409.307 14 408.835 13.8413 408.509 13.524C408.191 13.1973 408.033 12.7353 408.033 12.138V8.12H406.955V6.692H407.515C407.785 6.692 407.967 6.63133 408.061 6.51C408.163 6.37933 408.215 6.188 408.215 5.936V4.69H409.825V6.692H411.323V8.12H409.825V12.572H411.211V14H409.923ZM419.403 14.168C418.881 14.168 418.409 14.0793 417.989 13.902C417.579 13.7247 417.224 13.468 416.925 13.132C416.636 12.796 416.412 12.3947 416.253 11.928C416.095 11.452 416.015 10.92 416.015 10.332C416.015 9.744 416.095 9.21667 416.253 8.75C416.412 8.28333 416.636 7.88667 416.925 7.56C417.224 7.224 417.579 6.96733 417.989 6.79C418.409 6.61267 418.881 6.524 419.403 6.524C419.926 6.524 420.397 6.61267 420.817 6.79C421.237 6.96733 421.592 7.224 421.881 7.56C422.18 7.88667 422.409 8.28333 422.567 8.75C422.726 9.21667 422.805 9.744 422.805 10.332C422.805 10.92 422.726 11.452 422.567 11.928C422.409 12.3947 422.18 12.796 421.881 13.132C421.592 13.468 421.237 13.7247 420.817 13.902C420.397 14.0793 419.926 14.168 419.403 14.168ZM419.403 12.726C419.879 12.726 420.253 12.5813 420.523 12.292C420.794 12.0027 420.929 11.578 420.929 11.018V9.66C420.929 9.10933 420.794 8.68933 420.523 8.4C420.253 8.11067 419.879 7.966 419.403 7.966C418.937 7.966 418.568 8.11067 418.297 8.4C418.027 8.68933 417.891 9.10933 417.891 9.66V11.018C417.891 11.578 418.027 12.0027 418.297 12.292C418.568 12.5813 418.937 12.726 419.403 12.726ZM424.554 6.692H426.346V7.896H426.402C426.533 7.476 426.78 7.14467 427.144 6.902C427.508 6.65 427.933 6.524 428.418 6.524C429.351 6.524 430.061 6.85533 430.546 7.518C431.041 8.17133 431.288 9.10933 431.288 10.332C431.288 11.564 431.041 12.5113 430.546 13.174C430.061 13.8367 429.351 14.168 428.418 14.168C427.933 14.168 427.508 14.042 427.144 13.79C426.789 13.538 426.542 13.202 426.402 12.782H426.346V16.8H424.554V6.692ZM427.844 12.684C428.311 12.684 428.689 12.53 428.978 12.222C429.267 11.914 429.412 11.4987 429.412 10.976V9.716C429.412 9.19333 429.267 8.778 428.978 8.47C428.689 8.15267 428.311 7.994 427.844 7.994C427.415 7.994 427.055 8.10133 426.766 8.316C426.486 8.53067 426.346 8.81533 426.346 9.17V11.494C426.346 11.8767 426.486 12.1707 426.766 12.376C427.055 12.5813 427.415 12.684 427.844 12.684ZM435.309 14C434.693 14 434.221 13.8413 433.895 13.524C433.577 13.1973 433.419 12.7353 433.419 12.138V8.12H432.341V6.692H432.901C433.171 6.692 433.353 6.63133 433.447 6.51C433.549 6.37933 433.601 6.188 433.601 5.936V4.69H435.211V6.692H436.709V8.12H435.211V12.572H436.597V14H435.309ZM439.319 5.628C438.946 5.628 438.675 5.544 438.507 5.376C438.348 5.208 438.269 4.99333 438.269 4.732V4.452C438.269 4.19067 438.348 3.976 438.507 3.808C438.675 3.64 438.946 3.556 439.319 3.556C439.683 3.556 439.949 3.64 440.117 3.808C440.285 3.976 440.369 4.19067 440.369 4.452V4.732C440.369 4.99333 440.285 5.208 440.117 5.376C439.949 5.544 439.683 5.628 439.319 5.628ZM438.423 6.692H440.215V14H438.423V6.692ZM442.452 14V6.692H444.244V7.91H444.314C444.454 7.52733 444.678 7.20067 444.986 6.93C445.294 6.65933 445.723 6.524 446.274 6.524C446.778 6.524 447.212 6.64533 447.576 6.888C447.94 7.13067 448.211 7.49933 448.388 7.994H448.416C448.547 7.58333 448.803 7.238 449.186 6.958C449.578 6.66867 450.068 6.524 450.656 6.524C451.375 6.524 451.925 6.77133 452.308 7.266C452.7 7.76067 452.896 8.46533 452.896 9.38V14H451.104V9.562C451.104 8.51667 450.712 7.994 449.928 7.994C449.751 7.994 449.578 8.022 449.41 8.078C449.251 8.12467 449.107 8.19933 448.976 8.302C448.855 8.39533 448.757 8.51667 448.682 8.666C448.607 8.806 448.57 8.974 448.57 9.17V14H446.778V9.562C446.778 8.51667 446.386 7.994 445.602 7.994C445.434 7.994 445.266 8.022 445.098 8.078C444.939 8.12467 444.795 8.19933 444.664 8.302C444.543 8.39533 444.44 8.51667 444.356 8.666C444.281 8.806 444.244 8.974 444.244 9.17V14H442.452ZM455.936 5.628C455.562 5.628 455.292 5.544 455.124 5.376C454.965 5.208 454.886 4.99333 454.886 4.732V4.452C454.886 4.19067 454.965 3.976 455.124 3.808C455.292 3.64 455.562 3.556 455.936 3.556C456.3 3.556 456.566 3.64 456.734 3.808C456.902 3.976 456.986 4.19067 456.986 4.452V4.732C456.986 4.99333 456.902 5.208 456.734 5.376C456.566 5.544 456.3 5.628 455.936 5.628ZM455.04 6.692H456.832V14H455.04V6.692ZM458.551 14V12.572L462.345 8.106H458.677V6.692H464.445V8.078L460.623 12.572H464.543V14H458.551ZM469.06 14.168C468.519 14.168 468.033 14.0793 467.604 13.902C467.184 13.7153 466.825 13.4587 466.526 13.132C466.237 12.796 466.013 12.3947 465.854 11.928C465.695 11.452 465.616 10.92 465.616 10.332C465.616 9.75333 465.691 9.23067 465.84 8.764C465.999 8.29733 466.223 7.90067 466.512 7.574C466.801 7.238 467.156 6.98133 467.576 6.804C467.996 6.61733 468.472 6.524 469.004 6.524C469.573 6.524 470.068 6.622 470.488 6.818C470.908 7.014 471.253 7.28 471.524 7.616C471.795 7.952 471.995 8.344 472.126 8.792C472.266 9.23067 472.336 9.702 472.336 10.206V10.794H467.478V10.976C467.478 11.508 467.627 11.9373 467.926 12.264C468.225 12.5813 468.668 12.74 469.256 12.74C469.704 12.74 470.068 12.6467 470.348 12.46C470.637 12.2733 470.894 12.0353 471.118 11.746L472.084 12.824C471.785 13.244 471.375 13.5753 470.852 13.818C470.339 14.0513 469.741 14.168 469.06 14.168ZM469.032 7.868C468.556 7.868 468.178 8.02667 467.898 8.344C467.618 8.66133 467.478 9.072 467.478 9.576V9.688H470.474V9.562C470.474 9.058 470.348 8.652 470.096 8.344C469.853 8.02667 469.499 7.868 469.032 7.868ZM474.073 14V6.692H475.865V8.204H475.935C475.981 8.008 476.051 7.82133 476.145 7.644C476.247 7.45733 476.378 7.294 476.537 7.154C476.695 7.014 476.882 6.902 477.097 6.818C477.321 6.734 477.577 6.692 477.867 6.692H478.259V8.386H477.699C477.092 8.386 476.635 8.47467 476.327 8.652C476.019 8.82933 475.865 9.11867 475.865 9.52V14H474.073ZM482.123 14.168C481.423 14.168 480.835 14.0513 480.359 13.818C479.883 13.5753 479.463 13.244 479.099 12.824L480.191 11.76C480.461 12.068 480.755 12.3107 481.073 12.488C481.399 12.6653 481.773 12.754 482.193 12.754C482.622 12.754 482.93 12.6793 483.117 12.53C483.313 12.3807 483.411 12.1753 483.411 11.914C483.411 11.6993 483.341 11.5313 483.201 11.41C483.07 11.2793 482.841 11.1907 482.515 11.144L481.787 11.046C480.993 10.9433 480.387 10.7193 479.967 10.374C479.556 10.0193 479.351 9.506 479.351 8.834C479.351 8.47933 479.416 8.162 479.547 7.882C479.677 7.59267 479.864 7.35 480.107 7.154C480.349 6.94867 480.639 6.79467 480.975 6.692C481.32 6.58 481.703 6.524 482.123 6.524C482.477 6.524 482.79 6.552 483.061 6.608C483.341 6.65467 483.593 6.72933 483.817 6.832C484.041 6.92533 484.246 7.04667 484.433 7.196C484.619 7.336 484.801 7.49467 484.979 7.672L483.929 8.722C483.714 8.498 483.457 8.31133 483.159 8.162C482.86 8.01267 482.533 7.938 482.179 7.938C481.787 7.938 481.502 8.008 481.325 8.148C481.157 8.288 481.073 8.47 481.073 8.694C481.073 8.93667 481.143 9.12333 481.283 9.254C481.432 9.37533 481.679 9.464 482.025 9.52L482.767 9.618C484.344 9.842 485.133 10.5607 485.133 11.774C485.133 12.1287 485.058 12.4553 484.909 12.754C484.769 13.0433 484.568 13.2953 484.307 13.51C484.045 13.7153 483.728 13.8787 483.355 14C482.991 14.112 482.58 14.168 482.123 14.168Z" fill="black"/>
<path d="M13.1441 275.653C13.1441 276.077 13.0681 276.461 12.9161 276.805C12.7641 277.141 12.5481 277.433 12.2681 277.681C11.98 277.921 11.64 278.109 11.248 278.244C10.848 278.372 10.4 278.436 9.90402 278.436C9.41602 278.436 8.97203 278.372 8.57203 278.244C8.17204 278.108 7.83205 277.92 7.55206 277.68C7.26407 277.432 7.04408 277.14 6.8921 276.804C6.74011 276.46 6.66413 276.076 6.66415 275.652C6.66417 275.236 6.74018 274.864 6.8922 274.536C7.04421 274.208 7.25622 273.928 7.52823 273.696C7.79224 273.464 8.10825 273.288 8.47626 273.168C8.84426 273.04 9.24827 272.976 9.68827 272.976L10.1443 272.976L10.1441 277.428L10.4321 277.428C10.6961 277.428 10.9441 277.388 11.1761 277.308C11.4001 277.221 11.5961 277.101 11.7641 276.949C11.9321 276.789 12.0641 276.597 12.1601 276.373C12.2561 276.141 12.3041 275.881 12.3042 275.593C12.3042 275.201 12.2122 274.861 12.0282 274.573C11.8442 274.277 11.5802 274.049 11.2362 273.888L11.7283 273.205C12.1522 273.405 12.4962 273.717 12.7602 274.141C13.0162 274.565 13.1442 275.069 13.1441 275.653ZM7.46815 275.652C7.46814 275.916 7.51613 276.156 7.61212 276.372C7.70011 276.588 7.8281 276.776 7.99609 276.936C8.16408 277.088 8.36408 277.208 8.59608 277.296C8.82007 277.384 9.06807 277.428 9.34007 277.428L9.42407 277.428L9.42422 274.008L9.29222 274.008C8.74022 274.008 8.30021 274.16 7.9722 274.464C7.63619 274.76 7.46817 275.156 7.46815 275.652ZM13.0004 269.8L6.80831 271.972L6.80835 271.012L9.8804 269.932L11.9924 269.26L11.9924 269.2L9.88046 268.528L6.80851 267.424L6.80855 266.5L13.0005 268.684L13.0004 269.8ZM13.0008 260.548C13.0008 260.908 12.9048 261.168 12.7128 261.328C12.5208 261.48 12.2808 261.576 11.9928 261.616L11.9928 261.676C12.3768 261.812 12.6648 262.036 12.8567 262.348C13.0487 262.66 13.1447 263.032 13.1447 263.464C13.1447 264.12 12.9766 264.632 12.6406 265C12.3046 265.36 11.8486 265.54 11.2726 265.54C10.6886 265.54 10.2406 265.327 9.92862 264.903C9.61664 264.471 9.46067 263.803 9.46071 262.899L9.46077 261.675L8.84877 261.675C8.40877 261.675 8.07276 261.795 7.84075 262.035C7.60874 262.275 7.49272 262.643 7.4927 263.139C7.49268 263.515 7.57667 263.831 7.74466 264.087C7.91265 264.335 8.13664 264.543 8.41663 264.711L7.87661 265.287C7.54061 265.119 7.25663 264.851 7.02464 264.483C6.78466 264.115 6.66468 263.651 6.6647 263.091C6.66474 262.339 6.84876 261.755 7.21678 261.339C7.5848 260.923 8.09681 260.715 8.75281 260.715L12.1608 260.716L12.1608 260.008L13.0008 260.008L13.0008 260.548ZM12.3287 263.308C12.3287 263.068 12.3007 262.848 12.2447 262.648C12.1887 262.448 12.1087 262.276 12.0047 262.132C11.9008 261.988 11.7808 261.876 11.6448 261.796C11.5088 261.716 11.3608 261.676 11.2008 261.676L10.1808 261.675L10.1807 262.947C10.1807 263.499 10.2607 263.903 10.4207 264.159C10.5806 264.407 10.8126 264.532 11.1166 264.532L11.3686 264.532C11.6726 264.532 11.9086 264.424 12.0767 264.208C12.2447 263.984 12.3287 263.684 12.3287 263.308ZM13.001 257.297C13.0009 257.633 12.9089 257.889 12.7249 258.065C12.5329 258.233 12.2929 258.317 12.0049 258.317L4.12091 258.317L4.12096 257.357L12.161 257.357L12.161 256.445L13.001 256.445L13.001 257.297ZM11.9932 250.912L11.9932 250.96C12.1372 251.024 12.2812 251.104 12.4252 251.2C12.5612 251.288 12.6852 251.4 12.7972 251.536C12.9012 251.672 12.9852 251.836 13.0492 252.028C13.1132 252.22 13.1452 252.444 13.1452 252.7C13.1451 253.34 12.9411 253.848 12.5331 254.224C12.1171 254.6 11.5331 254.788 10.7811 254.788L6.80907 254.788L6.80911 253.828L10.6131 253.828C11.7251 253.828 12.2811 253.356 12.2812 252.412C12.2812 252.22 12.2572 252.036 12.2092 251.86C12.1612 251.676 12.0892 251.516 11.9932 251.38C11.8972 251.236 11.7772 251.124 11.6332 251.044C11.4812 250.956 11.3012 250.912 11.0932 250.912L6.80924 250.912L6.80928 249.952L13.0013 249.952L13.0012 250.912L11.9932 250.912ZM13.0016 243.088C13.0016 243.448 12.9056 243.708 12.7136 243.868C12.5215 244.02 12.2815 244.116 11.9935 244.156L11.9935 244.216C12.3775 244.352 12.6655 244.576 12.8575 244.888C13.0495 245.2 13.1455 245.572 13.1455 246.004C13.1454 246.66 12.9774 247.172 12.6414 247.54C12.3054 247.9 11.8494 248.08 11.2734 248.08C10.6894 248.08 10.2414 247.867 9.9294 247.443C9.61741 247.011 9.46144 246.343 9.46148 245.439L9.46154 244.215L8.84954 244.215C8.40954 244.215 8.07353 244.335 7.84152 244.575C7.60951 244.815 7.4935 245.183 7.49347 245.679C7.49346 246.055 7.57744 246.371 7.74543 246.627C7.91342 246.875 8.13741 247.083 8.4174 247.251L7.87738 247.827C7.54139 247.659 7.2574 247.391 7.02541 247.023C6.78543 246.655 6.66545 246.191 6.66548 245.631C6.66551 244.879 6.84953 244.295 7.21755 243.879C7.58557 243.463 8.09758 243.255 8.75358 243.255L12.1616 243.256L12.1616 242.548L13.0016 242.548L13.0016 243.088ZM12.3295 245.848C12.3295 245.608 12.3015 245.388 12.2455 245.188C12.1895 244.988 12.1095 244.816 12.0055 244.672C11.9015 244.528 11.7815 244.416 11.6455 244.336C11.5095 244.256 11.3615 244.216 11.2015 244.216L10.1815 244.215L10.1815 245.487C10.1815 246.039 10.2614 246.443 10.4214 246.699C10.5814 246.947 10.8134 247.072 11.1174 247.072L11.3694 247.072C11.6734 247.072 11.9094 246.964 12.0774 246.748C12.2454 246.524 12.3294 246.224 12.3295 245.848ZM13.0017 239.489C13.0017 239.825 12.9097 240.081 12.7257 240.257C12.5337 240.425 12.2857 240.509 11.9817 240.509L7.6497 240.509L7.64966 241.529L6.80966 241.529L6.80968 240.953C6.80969 240.745 6.7697 240.605 6.6897 240.533C6.6017 240.453 6.45371 240.413 6.24571 240.413L5.09371 240.413L5.09374 239.549L6.80974 239.549L6.8098 238.193L7.6498 238.193L7.64974 239.549L12.1617 239.549L12.1618 238.289L13.0018 238.289L13.0017 239.489ZM5.35791 235.85C5.3579 236.058 5.30989 236.21 5.21389 236.306C5.10988 236.394 4.97788 236.438 4.81788 236.438L4.66188 236.438C4.50188 236.438 4.37388 236.394 4.27789 236.306C4.17389 236.21 4.1219 236.058 4.12191 235.85C4.12192 235.642 4.17392 235.494 4.27793 235.406C4.37393 235.31 4.50193 235.262 4.66193 235.262L4.81793 235.262C4.97793 235.262 5.10993 235.31 5.21393 235.406C5.30992 235.494 5.35792 235.642 5.35791 235.85ZM6.80989 236.33L6.80993 235.37L13.0019 235.37L13.0019 236.33L6.80989 236.33ZM13.1461 230.67C13.1461 231.086 13.0701 231.466 12.9181 231.81C12.7661 232.154 12.5501 232.45 12.27 232.698C11.982 232.938 11.642 233.126 11.25 233.262C10.85 233.398 10.402 233.466 9.90601 233.466C9.41801 233.466 8.97402 233.398 8.57402 233.262C8.17403 233.126 7.83404 232.938 7.55405 232.698C7.26606 232.45 7.04607 232.154 6.89409 231.81C6.7421 231.466 6.66612 231.086 6.66614 230.67C6.66616 230.254 6.74217 229.878 6.89419 229.542C7.0462 229.198 7.26622 228.902 7.55423 228.654C7.83424 228.406 8.17425 228.214 8.57425 228.078C8.97426 227.942 9.41826 227.874 9.90626 227.874C10.4023 227.874 10.8503 227.942 11.2503 228.078C11.6422 228.214 11.9822 228.406 12.2702 228.654C12.5502 228.902 12.7662 229.198 12.9182 229.542C13.0702 229.878 13.1462 230.254 13.1461 230.67ZM12.2941 230.67C12.2942 230.15 12.1342 229.726 11.8142 229.398C11.4942 229.07 11.0062 228.906 10.3502 228.906L9.46222 228.906C8.80622 228.906 8.31821 229.07 7.99819 229.398C7.67818 229.726 7.51816 230.15 7.51814 230.67C7.51811 231.19 7.6781 231.614 7.99808 231.942C8.31807 232.27 8.80606 232.434 9.46206 232.434L10.3501 232.434C11.0061 232.434 11.4941 232.27 11.8141 231.942C12.1341 231.614 12.2941 231.19 12.2941 230.67ZM13.0023 225.976L6.81034 225.975L6.81039 225.015L7.81839 225.015L7.81839 224.967C7.4664 224.815 7.18641 224.603 6.97842 224.331C6.77043 224.051 6.66645 223.679 6.66647 223.215C6.6665 222.575 6.87452 222.071 7.29053 221.703C7.69855 221.327 8.27856 221.139 9.03056 221.139L13.0026 221.14L13.0025 222.1L9.19852 222.099C8.08652 222.099 7.5305 222.567 7.53045 223.503C7.53045 223.695 7.55444 223.883 7.60243 224.067C7.65042 224.243 7.72241 224.403 7.81841 224.547C7.9144 224.691 8.0384 224.807 8.19039 224.895C8.33439 224.975 8.50639 225.015 8.70639 225.015L13.0024 225.016L13.0023 225.976ZM13.1467 216.975C13.1467 217.551 13.0387 218.035 12.8227 218.427C12.5987 218.811 12.3026 219.143 11.9346 219.423L11.3827 218.739C11.6867 218.499 11.9227 218.231 12.0907 217.935C12.2507 217.639 12.3307 217.295 12.3307 216.903C12.3308 216.495 12.2428 216.179 12.0668 215.955C11.8908 215.723 11.6428 215.607 11.3228 215.607C11.0828 215.607 10.8788 215.687 10.7108 215.847C10.5348 215.999 10.4148 216.279 10.3508 216.687L10.2787 217.179C10.2387 217.467 10.1787 217.731 10.0987 217.971C10.0107 218.211 9.89868 218.423 9.76267 218.607C9.61866 218.783 9.44266 218.923 9.23465 219.027C9.02665 219.123 8.77865 219.171 8.49065 219.171C8.18665 219.171 7.92265 219.115 7.69865 219.003C7.46666 218.891 7.27467 218.739 7.12267 218.547C6.97068 218.347 6.85869 218.111 6.7867 217.839C6.70672 217.567 6.66673 217.275 6.66674 216.963C6.66677 216.459 6.75478 216.039 6.9308 215.703C7.10681 215.359 7.35083 215.059 7.66284 214.803L8.23881 215.439C8.0468 215.575 7.8748 215.775 7.72278 216.039C7.56277 216.303 7.48276 216.635 7.48274 217.035C7.48272 217.435 7.57071 217.739 7.7467 217.947C7.91469 218.147 8.14669 218.247 8.44269 218.247C8.74669 218.247 8.96669 218.147 9.1027 217.947C9.23871 217.739 9.33872 217.443 9.40274 217.059L9.47476 216.579C9.57879 215.891 9.77881 215.403 10.0748 215.115C10.3628 214.827 10.7428 214.683 11.2148 214.683C11.8148 214.683 12.2868 214.887 12.6308 215.295C12.9748 215.703 13.1468 216.263 13.1467 216.975ZM6.81107 209.511L6.81112 208.551L7.81912 208.551L7.81912 208.503C7.42712 208.343 7.13913 208.111 6.95515 207.807C6.76316 207.495 6.66718 207.123 6.6672 206.691C6.66722 206.307 6.74323 205.959 6.89524 205.647C7.04726 205.335 7.26327 205.071 7.54328 204.855C7.82329 204.631 8.1633 204.463 8.5633 204.351C8.96331 204.231 9.41131 204.172 9.90731 204.172C10.4033 204.172 10.8513 204.232 11.2513 204.352C11.6513 204.464 11.9913 204.632 12.2713 204.856C12.5513 205.072 12.7673 205.336 12.9192 205.648C13.0712 205.96 13.1472 206.308 13.1472 206.692C13.1472 207.532 12.7631 208.136 11.9951 208.504L11.9951 208.552L15.4031 208.552L15.4031 209.512L6.81107 209.511ZM12.2832 206.956C12.2832 206.412 12.1152 205.984 11.7792 205.672C11.4353 205.36 10.9873 205.204 10.4353 205.204L9.37926 205.204C8.82726 205.203 8.38326 205.359 8.04724 205.671C7.70323 205.983 7.53121 206.411 7.53119 206.955C7.53118 207.171 7.56317 207.379 7.62716 207.579C7.68315 207.771 7.76314 207.939 7.86714 208.083C7.97113 208.227 8.09912 208.343 8.25112 208.431C8.39512 208.511 8.55112 208.551 8.71912 208.551L11.0231 208.552C11.2231 208.552 11.4031 208.512 11.5631 208.432C11.7151 208.344 11.8471 208.228 11.9591 208.084C12.0631 207.94 12.1432 207.772 12.1992 207.58C12.2552 207.38 12.2832 207.172 12.2832 206.956ZM13.1475 199.903C13.1475 200.327 13.0715 200.711 12.9194 201.055C12.7674 201.391 12.5514 201.683 12.2714 201.931C11.9834 202.171 11.6434 202.359 11.2514 202.495C10.8514 202.623 10.4034 202.687 9.90737 202.687C9.41938 202.687 8.97538 202.623 8.57538 202.495C8.17539 202.359 7.8354 202.17 7.55541 201.93C7.26742 201.682 7.04743 201.39 6.89545 201.054C6.74346 200.71 6.66748 200.326 6.6675 199.902C6.66752 199.486 6.74353 199.114 6.89555 198.786C7.04756 198.458 7.25957 198.178 7.53158 197.946C7.79559 197.714 8.1116 197.539 8.47961 197.419C8.84761 197.291 9.25162 197.227 9.69162 197.227L10.1476 197.227L10.1474 201.679L10.4354 201.679C10.6994 201.679 10.9474 201.639 11.1794 201.559C11.4034 201.471 11.5994 201.351 11.7674 201.199C11.9354 201.039 12.0675 200.847 12.1635 200.623C12.2595 200.391 12.3075 200.131 12.3075 199.843C12.3075 199.451 12.2155 199.111 12.0315 198.823C11.8476 198.527 11.5836 198.299 11.2396 198.139L11.7316 197.455C12.1556 197.655 12.4996 197.967 12.7636 198.391C13.0195 198.815 13.1475 199.319 13.1475 199.903ZM7.4715 199.902C7.47149 200.166 7.51948 200.406 7.61547 200.622C7.70346 200.838 7.83145 201.026 7.99944 201.187C8.16743 201.339 8.36743 201.459 8.59943 201.547C8.82342 201.635 9.07142 201.679 9.34342 201.679L9.42742 201.679L9.42757 198.259L9.29557 198.259C8.74357 198.259 8.30356 198.411 7.97555 198.715C7.63954 199.01 7.47152 199.406 7.4715 199.902ZM13.0037 195.325L6.8117 195.325L6.81174 194.365L7.95174 194.365L7.95175 194.305C7.65575 194.193 7.39176 193.993 7.15977 193.705C6.92778 193.417 6.8118 193.021 6.81182 192.517L6.81184 192.145L7.77184 192.145L7.77182 192.709C7.77179 193.229 7.87178 193.637 8.07176 193.933C8.26375 194.221 8.50774 194.365 8.80374 194.365L13.0037 194.365L13.0037 195.325ZM5.36007 186.962C5.36006 187.17 5.31205 187.322 5.21605 187.418C5.11205 187.506 4.98004 187.55 4.82004 187.55L4.66404 187.55C4.50404 187.55 4.37605 187.506 4.28005 187.418C4.17605 187.322 4.12406 187.17 4.12407 186.962C4.12408 186.754 4.17609 186.606 4.28009 186.518C4.37609 186.422 4.5041 186.374 4.6641 186.374L4.8201 186.374C4.9801 186.374 5.11209 186.422 5.21609 186.518C5.31209 186.606 5.36008 186.754 5.36007 186.962ZM6.81205 187.442L6.81209 186.482L13.0041 186.483L13.004 187.443L6.81205 187.442ZM13.0043 182.755C13.0042 183.091 12.9122 183.347 12.7282 183.523C12.5362 183.691 12.2882 183.775 11.9842 183.775L7.65221 183.774L7.65217 184.794L6.81217 184.794L6.81219 184.218C6.8122 184.01 6.77221 183.87 6.69221 183.798C6.60421 183.718 6.45622 183.678 6.24822 183.678L5.09622 183.678L5.09625 182.814L6.81225 182.814L6.81231 181.458L7.65231 181.458L7.65225 182.814L12.1643 182.815L12.1643 181.555L13.0043 181.555L13.0043 182.755ZM13.1485 177.314C13.1485 177.738 13.0725 178.122 12.9204 178.466C12.7684 178.802 12.5524 179.094 12.2724 179.342C11.9844 179.582 11.6444 179.77 11.2524 179.906C10.8524 180.034 10.4044 180.098 9.90837 180.098C9.42037 180.098 8.97638 180.034 8.57638 179.906C8.17639 179.77 7.8364 179.582 7.55641 179.342C7.26842 179.094 7.04843 178.802 6.89645 178.466C6.74446 178.122 6.66848 177.738 6.6685 177.314C6.66852 176.898 6.74453 176.526 6.89655 176.198C7.04856 175.87 7.26057 175.59 7.53258 175.358C7.79659 175.126 8.1126 174.95 8.48061 174.83C8.84861 174.702 9.25262 174.638 9.69262 174.638L10.1486 174.638L10.1484 179.09L10.4364 179.09C10.7004 179.09 10.9484 179.05 11.1804 178.97C11.4044 178.882 11.6004 178.762 11.7684 178.61C11.9364 178.45 12.0685 178.258 12.1645 178.034C12.2605 177.802 12.3085 177.542 12.3085 177.254C12.3085 176.862 12.2165 176.522 12.0325 176.234C11.8486 175.938 11.5846 175.71 11.2406 175.55L11.7326 174.866C12.1566 175.066 12.5006 175.378 12.7646 175.802C13.0205 176.226 13.1485 176.73 13.1485 177.314ZM7.4725 177.314C7.47249 177.578 7.52047 177.818 7.61647 178.034C7.70446 178.25 7.83245 178.438 8.00044 178.598C8.16843 178.75 8.36843 178.87 8.60042 178.958C8.82442 179.046 9.07242 179.09 9.34442 179.09L9.42842 179.09L9.42857 175.67L9.29657 175.67C8.74457 175.67 8.30456 175.822 7.97655 176.126C7.64054 176.422 7.47252 176.818 7.4725 177.314ZM13.0047 172.737L6.8127 172.736L6.81274 171.776L7.95274 171.776L7.95274 171.716C7.65675 171.604 7.39276 171.404 7.16077 171.116C6.92878 170.828 6.8128 170.432 6.81282 169.928L6.81284 169.556L7.77284 169.556L7.77282 170.12C7.77279 170.64 7.87277 171.048 8.07276 171.344C8.26475 171.632 8.50874 171.776 8.80474 171.776L13.0047 171.777L13.0047 172.737ZM13.0051 163.557C13.0051 163.917 12.9091 164.177 12.7171 164.337C12.5251 164.489 12.2851 164.585 11.9971 164.625L11.9971 164.685C12.381 164.821 12.669 165.045 12.861 165.357C13.053 165.669 13.149 166.041 13.149 166.473C13.1489 167.129 12.9809 167.641 12.6449 168.009C12.3089 168.369 11.8529 168.549 11.2769 168.549C10.6929 168.549 10.2449 168.337 9.93291 167.913C9.62093 167.481 9.46496 166.813 9.465 165.909L9.46506 164.685L8.85306 164.685C8.41306 164.685 8.07705 164.805 7.84504 165.045C7.61303 165.285 7.49701 165.653 7.49699 166.149C7.49697 166.525 7.58096 166.841 7.74895 167.097C7.91694 167.345 8.14093 167.553 8.42092 167.721L7.8809 168.297C7.5449 168.129 7.26092 167.861 7.02893 167.493C6.78895 167.125 6.66897 166.661 6.66899 166.101C6.66903 165.349 6.85305 164.765 7.22107 164.349C7.58909 163.933 8.1011 163.725 8.7571 163.725L12.1651 163.725L12.1651 163.017L13.0051 163.017L13.0051 163.557ZM12.333 166.317C12.333 166.077 12.305 165.857 12.249 165.657C12.193 165.457 12.113 165.285 12.009 165.141C11.905 164.997 11.785 164.885 11.6491 164.805C11.5131 164.725 11.3651 164.685 11.2051 164.685L10.1851 164.685L10.185 165.957C10.185 166.509 10.265 166.913 10.4249 167.169C10.5849 167.417 10.8169 167.541 11.1209 167.541L11.3729 167.541C11.6769 167.541 11.9129 167.433 12.0809 167.217C12.249 166.993 12.333 166.693 12.333 166.317ZM13.0053 159.959C13.0053 160.295 12.9132 160.551 12.7292 160.727C12.5372 160.895 12.2892 160.979 11.9852 160.979L7.65322 160.979L7.65317 161.999L6.81317 161.999L6.8132 161.423C6.81321 161.215 6.77322 161.075 6.69322 161.003C6.60522 160.923 6.45722 160.883 6.24922 160.883L5.09722 160.883L5.09726 160.019L6.81326 160.019L6.81332 158.663L7.65332 158.663L7.65326 160.019L12.1653 160.019L12.1653 158.759L13.0053 158.759L13.0053 159.959ZM5.36143 156.32C5.36142 156.528 5.31341 156.68 5.21741 156.776C5.1134 156.864 4.9814 156.908 4.8214 156.908L4.6654 156.908C4.5054 156.908 4.3774 156.864 4.2814 156.776C4.17741 156.68 4.12542 156.528 4.12543 156.32C4.12543 156.112 4.17744 155.964 4.28144 155.876C4.37745 155.78 4.50545 155.732 4.66545 155.732L4.82145 155.732C4.98145 155.732 5.11345 155.78 5.21744 155.876C5.31344 155.964 5.36143 156.112 5.36143 156.32ZM6.8134 156.8L6.81345 155.84L13.0054 155.84L13.0054 156.8L6.8134 156.8ZM13.1497 151.14C13.1496 151.556 13.0736 151.936 12.9216 152.28C12.7696 152.624 12.5536 152.92 12.2736 153.168C11.9856 153.408 11.6455 153.596 11.2535 153.732C10.8535 153.868 10.4055 153.936 9.90953 153.936C9.42153 153.936 8.97753 153.868 8.57754 153.732C8.17755 153.596 7.83755 153.408 7.55756 153.168C7.26958 152.92 7.04959 152.624 6.8976 152.28C6.74562 151.936 6.66964 151.556 6.66965 151.14C6.66967 150.724 6.74569 150.348 6.8977 150.012C7.04972 149.668 7.26973 149.372 7.55774 149.124C7.83775 148.876 8.17776 148.684 8.57777 148.548C8.97778 148.412 9.42178 148.344 9.90978 148.344C10.4058 148.344 10.8538 148.412 11.2538 148.548C11.6458 148.684 11.9858 148.876 12.2737 149.124C12.5537 149.372 12.7697 149.668 12.9217 150.012C13.0737 150.348 13.1497 150.724 13.1497 151.14ZM12.2977 151.14C12.2977 150.62 12.1377 150.196 11.8177 149.868C11.4977 149.54 11.0097 149.376 10.3537 149.376L9.46573 149.376C8.80973 149.376 8.32173 149.54 8.00171 149.868C7.6817 150.196 7.52168 150.62 7.52165 151.14C7.52163 151.66 7.68161 152.084 8.0016 152.412C8.32158 152.74 8.80958 152.904 9.46558 152.904L10.3536 152.904C11.0096 152.904 11.4976 152.74 11.8176 152.412C12.1376 152.084 12.2976 151.66 12.2977 151.14ZM13.0059 146.445L6.81386 146.445L6.8139 145.485L7.8219 145.485L7.82191 145.437C7.46991 145.285 7.18992 145.073 6.98193 144.801C6.77395 144.521 6.66996 144.149 6.66998 143.685C6.67001 143.045 6.87804 142.541 7.29405 142.173C7.70207 141.797 8.28208 141.609 9.03408 141.609L13.0061 141.609L13.006 142.569L9.20203 142.569C8.09003 142.569 7.53401 143.037 7.53397 143.973C7.53396 144.165 7.55795 144.353 7.60595 144.537C7.65394 144.713 7.72593 144.873 7.82193 145.017C7.91792 145.161 8.04191 145.277 8.19391 145.365C8.33791 145.445 8.5099 145.485 8.7099 145.485L13.0059 145.485L13.0059 146.445Z" fill="black"/>
<rect opacity="0.4" x="49" y="195" width="615" height="77" fill="#F2F4F8"/>
<rect opacity="0.4" x="48" y="348" width="616" height="54" fill="#F2F4F8"/>
<rect opacity="0.4" x="49" y="42" width="615" height="77" fill="#F2F4F8"/>
<path d="M199 43L199 402" stroke="#DDE1E6"/>
<line y1="-0.5" x2="360" y2="-0.5" transform="matrix(-0.00139024 0.999999 -0.999999 -0.00120302 351 42)" stroke="#DDE1E6"/>
<path d="M504 42L504 402" stroke="#DDE1E6"/>
<rect x="49.5" y="42.5" width="614" height="359" stroke="#DDE1E6"/>
<path d="M50.5 362.5C218 321.5 378 230.5 664 87" stroke="#198038"/>
<path d="M50 385.5C287.449 327.05 423.111 291.582 663.5 230" stroke="#0F62FE"/>
<rect x="57.5" y="58.5" width="133" height="43" fill="white" stroke="#DDE1E6"/>
<path d="M96.388 75L94.216 68.808H95.176L96.256 71.88L96.928 73.992H96.988L97.66 71.88L98.764 68.808H99.688L97.504 75H96.388ZM105.641 75C105.281 75 105.021 74.904 104.861 74.712C104.709 74.52 104.613 74.28 104.573 73.992H104.513C104.377 74.376 104.153 74.664 103.841 74.856C103.529 75.048 103.157 75.144 102.725 75.144C102.069 75.144 101.557 74.976 101.189 74.64C100.829 74.304 100.649 73.848 100.649 73.272C100.649 72.688 100.861 72.24 101.285 71.928C101.717 71.616 102.385 71.46 103.289 71.46H104.513V70.848C104.513 70.408 104.393 70.072 104.153 69.84C103.913 69.608 103.545 69.492 103.049 69.492C102.673 69.492 102.357 69.576 102.101 69.744C101.853 69.912 101.645 70.136 101.477 70.416L100.901 69.876C101.069 69.54 101.337 69.256 101.705 69.024C102.073 68.784 102.537 68.664 103.097 68.664C103.849 68.664 104.433 68.848 104.849 69.216C105.265 69.584 105.473 70.096 105.473 70.752V74.16H106.181V75H105.641ZM102.881 74.328C103.121 74.328 103.341 74.3 103.541 74.244C103.741 74.188 103.913 74.108 104.057 74.004C104.201 73.9 104.313 73.78 104.393 73.644C104.473 73.508 104.513 73.36 104.513 73.2V72.18H103.241C102.689 72.18 102.285 72.26 102.029 72.42C101.781 72.58 101.657 72.812 101.657 73.116V73.368C101.657 73.672 101.765 73.908 101.981 74.076C102.205 74.244 102.505 74.328 102.881 74.328ZM107.871 75V68.808H108.831V69.816H108.879C109.031 69.464 109.243 69.184 109.515 68.976C109.795 68.768 110.167 68.664 110.631 68.664C111.271 68.664 111.775 68.872 112.143 69.288C112.519 69.696 112.707 70.276 112.707 71.028V75H111.747V71.196C111.747 70.084 111.279 69.528 110.343 69.528C110.151 69.528 109.963 69.552 109.779 69.6C109.603 69.648 109.443 69.72 109.299 69.816C109.155 69.912 109.039 70.036 108.951 70.188C108.871 70.332 108.831 70.504 108.831 70.704V75H107.871ZM115.491 67.356C115.283 67.356 115.131 67.308 115.035 67.212C114.947 67.108 114.903 66.976 114.903 66.816V66.66C114.903 66.5 114.947 66.372 115.035 66.276C115.131 66.172 115.283 66.12 115.491 66.12C115.699 66.12 115.847 66.172 115.935 66.276C116.031 66.372 116.079 66.5 116.079 66.66V66.816C116.079 66.976 116.031 67.108 115.935 67.212C115.847 67.308 115.699 67.356 115.491 67.356ZM115.011 68.808H115.971V75H115.011V68.808ZM119.351 75C119.015 75 118.759 74.908 118.583 74.724C118.415 74.532 118.331 74.292 118.331 74.004V66.12H119.291V74.16H120.203V75H119.351ZM122.882 75C122.546 75 122.29 74.908 122.114 74.724C121.946 74.532 121.862 74.292 121.862 74.004V66.12H122.822V74.16H123.734V75H122.882ZM129.952 75C129.592 75 129.332 74.904 129.172 74.712C129.02 74.52 128.924 74.28 128.884 73.992H128.824C128.688 74.376 128.464 74.664 128.152 74.856C127.84 75.048 127.468 75.144 127.036 75.144C126.38 75.144 125.868 74.976 125.5 74.64C125.14 74.304 124.96 73.848 124.96 73.272C124.96 72.688 125.172 72.24 125.596 71.928C126.028 71.616 126.696 71.46 127.6 71.46H128.824V70.848C128.824 70.408 128.704 70.072 128.464 69.84C128.224 69.608 127.856 69.492 127.36 69.492C126.984 69.492 126.668 69.576 126.412 69.744C126.164 69.912 125.956 70.136 125.788 70.416L125.212 69.876C125.38 69.54 125.648 69.256 126.016 69.024C126.384 68.784 126.848 68.664 127.408 68.664C128.16 68.664 128.744 68.848 129.16 69.216C129.576 69.584 129.784 70.096 129.784 70.752V74.16H130.492V75H129.952ZM127.192 74.328C127.432 74.328 127.652 74.3 127.852 74.244C128.052 74.188 128.224 74.108 128.368 74.004C128.512 73.9 128.624 73.78 128.704 73.644C128.784 73.508 128.824 73.36 128.824 73.2V72.18H127.552C127 72.18 126.596 72.26 126.34 72.42C126.092 72.58 125.968 72.812 125.968 73.116V73.368C125.968 73.672 126.076 73.908 126.292 74.076C126.516 74.244 126.816 74.328 127.192 74.328ZM140.558 75.684C140.558 76.324 140.306 76.792 139.802 77.088C139.306 77.392 138.558 77.544 137.558 77.544C136.59 77.544 135.894 77.412 135.47 77.148C135.046 76.884 134.834 76.508 134.834 76.02C134.834 75.684 134.922 75.42 135.098 75.228C135.274 75.044 135.514 74.908 135.818 74.82V74.688C135.45 74.512 135.266 74.224 135.266 73.824C135.266 73.512 135.366 73.276 135.566 73.116C135.766 72.948 136.022 72.824 136.334 72.744V72.696C135.966 72.52 135.678 72.268 135.47 71.94C135.27 71.612 135.17 71.232 135.17 70.8C135.17 70.488 135.226 70.2 135.338 69.936C135.45 69.672 135.606 69.448 135.806 69.264C136.014 69.072 136.258 68.924 136.538 68.82C136.826 68.716 137.146 68.664 137.498 68.664C137.938 68.664 138.33 68.744 138.674 68.904V68.796C138.674 68.556 138.73 68.36 138.842 68.208C138.954 68.048 139.138 67.968 139.394 67.968H140.318V68.808H139.142V69.204C139.366 69.396 139.538 69.628 139.658 69.9C139.786 70.164 139.85 70.464 139.85 70.8C139.85 71.112 139.794 71.4 139.682 71.664C139.57 71.928 139.41 72.156 139.202 72.348C139.002 72.532 138.758 72.676 138.47 72.78C138.182 72.884 137.862 72.936 137.51 72.936C137.31 72.936 137.11 72.916 136.91 72.876C136.702 72.932 136.514 73.016 136.346 73.128C136.178 73.232 136.094 73.38 136.094 73.572C136.094 73.756 136.182 73.88 136.358 73.944C136.534 74.008 136.762 74.04 137.042 74.04H138.362C139.13 74.04 139.686 74.188 140.03 74.484C140.382 74.772 140.558 75.172 140.558 75.684ZM139.658 75.756C139.658 75.508 139.562 75.308 139.37 75.156C139.186 75.012 138.854 74.94 138.374 74.94H136.31C135.926 75.116 135.734 75.396 135.734 75.78C135.734 76.052 135.834 76.284 136.034 76.476C136.242 76.668 136.59 76.764 137.078 76.764H137.966C138.502 76.764 138.918 76.68 139.214 76.512C139.51 76.344 139.658 76.092 139.658 75.756ZM137.51 72.168C137.918 72.168 138.242 72.072 138.482 71.88C138.722 71.68 138.842 71.376 138.842 70.968V70.632C138.842 70.224 138.722 69.924 138.482 69.732C138.242 69.532 137.918 69.432 137.51 69.432C137.102 69.432 136.778 69.532 136.538 69.732C136.298 69.924 136.178 70.224 136.178 70.632V70.968C136.178 71.376 136.298 71.68 136.538 71.88C136.778 72.072 137.102 72.168 137.51 72.168ZM141.998 75V68.808H142.958V69.948H143.018C143.13 69.652 143.33 69.388 143.618 69.156C143.906 68.924 144.302 68.808 144.806 68.808H145.178V69.768H144.614C144.094 69.768 143.686 69.868 143.39 70.068C143.102 70.26 142.958 70.504 142.958 70.8V75H141.998ZM151.177 75C150.817 75 150.557 74.904 150.397 74.712C150.245 74.52 150.149 74.28 150.109 73.992H150.049C149.913 74.376 149.689 74.664 149.377 74.856C149.065 75.048 148.693 75.144 148.261 75.144C147.605 75.144 147.093 74.976 146.725 74.64C146.365 74.304 146.185 73.848 146.185 73.272C146.185 72.688 146.397 72.24 146.821 71.928C147.253 71.616 147.921 71.46 148.825 71.46H150.049V70.848C150.049 70.408 149.929 70.072 149.689 69.84C149.449 69.608 149.081 69.492 148.585 69.492C148.209 69.492 147.893 69.576 147.637 69.744C147.389 69.912 147.181 70.136 147.013 70.416L146.437 69.876C146.605 69.54 146.873 69.256 147.241 69.024C147.609 68.784 148.073 68.664 148.633 68.664C149.385 68.664 149.969 68.848 150.385 69.216C150.801 69.584 151.009 70.096 151.009 70.752V74.16H151.717V75H151.177ZM148.417 74.328C148.657 74.328 148.877 74.3 149.077 74.244C149.277 74.188 149.449 74.108 149.593 74.004C149.737 73.9 149.849 73.78 149.929 73.644C150.009 73.508 150.049 73.36 150.049 73.2V72.18H148.777C148.225 72.18 147.821 72.26 147.565 72.42C147.317 72.58 147.193 72.812 147.193 73.116V73.368C147.193 73.672 147.301 73.908 147.517 74.076C147.741 74.244 148.041 74.328 148.417 74.328ZM157.367 73.992H157.319C156.943 74.76 156.339 75.144 155.507 75.144C155.123 75.144 154.775 75.068 154.463 74.916C154.151 74.764 153.883 74.548 153.659 74.268C153.443 73.988 153.275 73.648 153.155 73.248C153.043 72.848 152.987 72.4 152.987 71.904C152.987 71.408 153.043 70.96 153.155 70.56C153.275 70.16 153.443 69.82 153.659 69.54C153.883 69.26 154.151 69.044 154.463 68.892C154.775 68.74 155.123 68.664 155.507 68.664C155.939 68.664 156.307 68.76 156.611 68.952C156.923 69.136 157.159 69.424 157.319 69.816H157.367V66.12H158.327V75H157.367V73.992ZM155.771 74.28C155.987 74.28 156.191 74.252 156.383 74.196C156.583 74.14 156.755 74.06 156.899 73.956C157.043 73.844 157.155 73.712 157.235 73.56C157.323 73.4 157.367 73.22 157.367 73.02V70.716C157.367 70.548 157.323 70.392 157.235 70.248C157.155 70.096 157.043 69.968 156.899 69.864C156.755 69.76 156.583 69.68 156.383 69.624C156.191 69.56 155.987 69.528 155.771 69.528C155.227 69.528 154.799 69.7 154.487 70.044C154.175 70.38 154.019 70.824 154.019 71.376V72.432C154.019 72.984 154.175 73.432 154.487 73.776C154.799 74.112 155.227 74.28 155.771 74.28ZM161.168 67.356C160.96 67.356 160.808 67.308 160.712 67.212C160.624 67.108 160.58 66.976 160.58 66.816V66.66C160.58 66.5 160.624 66.372 160.712 66.276C160.808 66.172 160.96 66.12 161.168 66.12C161.376 66.12 161.524 66.172 161.612 66.276C161.708 66.372 161.756 66.5 161.756 66.66V66.816C161.756 66.976 161.708 67.108 161.612 67.212C161.524 67.308 161.376 67.356 161.168 67.356ZM160.688 68.808H161.648V75H160.688V68.808ZM166.336 75.144C165.912 75.144 165.528 75.068 165.184 74.916C164.848 74.764 164.556 74.548 164.308 74.268C164.068 73.98 163.88 73.64 163.744 73.248C163.616 72.848 163.552 72.4 163.552 71.904C163.552 71.416 163.616 70.972 163.744 70.572C163.88 70.172 164.068 69.832 164.308 69.552C164.556 69.264 164.848 69.044 165.184 68.892C165.528 68.74 165.912 68.664 166.336 68.664C166.752 68.664 167.124 68.74 167.452 68.892C167.78 69.044 168.06 69.256 168.292 69.528C168.524 69.792 168.7 70.108 168.82 70.476C168.948 70.844 169.012 71.248 169.012 71.688V72.144H164.56V72.432C164.56 72.696 164.6 72.944 164.68 73.176C164.768 73.4 164.888 73.596 165.04 73.764C165.2 73.932 165.392 74.064 165.616 74.16C165.848 74.256 166.108 74.304 166.396 74.304C166.788 74.304 167.128 74.212 167.416 74.028C167.712 73.844 167.94 73.58 168.1 73.236L168.784 73.728C168.584 74.152 168.272 74.496 167.848 74.76C167.424 75.016 166.92 75.144 166.336 75.144ZM166.336 69.468C166.072 69.468 165.832 69.516 165.616 69.612C165.4 69.7 165.212 69.828 165.052 69.996C164.9 70.164 164.78 70.364 164.692 70.596C164.604 70.82 164.56 71.068 164.56 71.34V71.424H167.98V71.292C167.98 70.74 167.828 70.3 167.524 69.972C167.228 69.636 166.832 69.468 166.336 69.468ZM170.914 75V68.808H171.874V69.816H171.922C172.074 69.464 172.286 69.184 172.558 68.976C172.838 68.768 173.21 68.664 173.674 68.664C174.314 68.664 174.818 68.872 175.186 69.288C175.562 69.696 175.75 70.276 175.75 71.028V75H174.79V71.196C174.79 70.084 174.322 69.528 173.386 69.528C173.194 69.528 173.006 69.552 172.822 69.6C172.646 69.648 172.486 69.72 172.342 69.816C172.198 69.912 172.082 70.036 171.994 70.188C171.914 70.332 171.874 70.504 171.874 70.704V75H170.914ZM179.422 75C179.086 75 178.83 74.908 178.654 74.724C178.486 74.532 178.402 74.284 178.402 73.98V69.648H177.382V68.808H177.958C178.166 68.808 178.306 68.768 178.378 68.688C178.458 68.6 178.498 68.452 178.498 68.244V67.092H179.362V68.808H180.718V69.648H179.362V74.16H180.622V75H179.422ZM95.02 91V84.808H95.98V85.816H96.028C96.18 85.464 96.392 85.184 96.664 84.976C96.944 84.768 97.316 84.664 97.78 84.664C98.42 84.664 98.924 84.872 99.292 85.288C99.668 85.696 99.856 86.276 99.856 87.028V91H98.896V87.196C98.896 86.084 98.428 85.528 97.492 85.528C97.3 85.528 97.112 85.552 96.928 85.6C96.752 85.648 96.592 85.72 96.448 85.816C96.304 85.912 96.188 86.036 96.1 86.188C96.02 86.332 95.98 86.504 95.98 86.704V91H95.02ZM106.66 91C106.3 91 106.04 90.904 105.88 90.712C105.728 90.52 105.632 90.28 105.592 89.992H105.532C105.396 90.376 105.172 90.664 104.86 90.856C104.548 91.048 104.176 91.144 103.744 91.144C103.088 91.144 102.576 90.976 102.208 90.64C101.848 90.304 101.668 89.848 101.668 89.272C101.668 88.688 101.88 88.24 102.304 87.928C102.736 87.616 103.404 87.46 104.308 87.46H105.532V86.848C105.532 86.408 105.412 86.072 105.172 85.84C104.932 85.608 104.564 85.492 104.068 85.492C103.692 85.492 103.376 85.576 103.12 85.744C102.872 85.912 102.664 86.136 102.496 86.416L101.92 85.876C102.088 85.54 102.356 85.256 102.724 85.024C103.092 84.784 103.556 84.664 104.116 84.664C104.868 84.664 105.452 84.848 105.868 85.216C106.284 85.584 106.492 86.096 106.492 86.752V90.16H107.2V91H106.66ZM103.9 90.328C104.14 90.328 104.36 90.3 104.56 90.244C104.76 90.188 104.932 90.108 105.076 90.004C105.22 89.9 105.332 89.78 105.412 89.644C105.492 89.508 105.532 89.36 105.532 89.2V88.18H104.26C103.708 88.18 103.304 88.26 103.048 88.42C102.8 88.58 102.676 88.812 102.676 89.116V89.368C102.676 89.672 102.784 89.908 103 90.076C103.224 90.244 103.524 90.328 103.9 90.328ZM110.258 91C109.922 91 109.666 90.908 109.49 90.724C109.322 90.532 109.238 90.284 109.238 89.98V85.648H108.218V84.808H108.794C109.002 84.808 109.142 84.768 109.214 84.688C109.294 84.6 109.334 84.452 109.334 84.244V83.092H110.198V84.808H111.554V85.648H110.198V90.16H111.458V91H110.258ZM117.233 89.992H117.185C117.121 90.136 117.041 90.28 116.945 90.424C116.857 90.56 116.745 90.684 116.609 90.796C116.473 90.9 116.309 90.984 116.117 91.048C115.925 91.112 115.701 91.144 115.445 91.144C114.805 91.144 114.297 90.94 113.921 90.532C113.545 90.116 113.357 89.532 113.357 88.78V84.808H114.317V88.612C114.317 89.724 114.789 90.28 115.733 90.28C115.925 90.28 116.109 90.256 116.285 90.208C116.469 90.16 116.629 90.088 116.765 89.992C116.909 89.896 117.021 89.776 117.101 89.632C117.189 89.48 117.233 89.3 117.233 89.092V84.808H118.193V91H117.233V89.992ZM120.558 91V84.808H121.518V85.948H121.578C121.69 85.652 121.89 85.388 122.178 85.156C122.466 84.924 122.862 84.808 123.366 84.808H123.738V85.768H123.174C122.654 85.768 122.246 85.868 121.95 86.068C121.662 86.26 121.518 86.504 121.518 86.8V91H120.558ZM129.737 91C129.377 91 129.117 90.904 128.957 90.712C128.805 90.52 128.709 90.28 128.669 89.992H128.609C128.473 90.376 128.249 90.664 127.937 90.856C127.625 91.048 127.253 91.144 126.821 91.144C126.165 91.144 125.653 90.976 125.285 90.64C124.925 90.304 124.745 89.848 124.745 89.272C124.745 88.688 124.957 88.24 125.381 87.928C125.813 87.616 126.481 87.46 127.385 87.46H128.609V86.848C128.609 86.408 128.489 86.072 128.249 85.84C128.009 85.608 127.641 85.492 127.145 85.492C126.769 85.492 126.453 85.576 126.197 85.744C125.949 85.912 125.741 86.136 125.573 86.416L124.997 85.876C125.165 85.54 125.433 85.256 125.801 85.024C126.169 84.784 126.633 84.664 127.193 84.664C127.945 84.664 128.529 84.848 128.945 85.216C129.361 85.584 129.569 86.096 129.569 86.752V90.16H130.277V91H129.737ZM126.977 90.328C127.217 90.328 127.437 90.3 127.637 90.244C127.837 90.188 128.009 90.108 128.153 90.004C128.297 89.9 128.409 89.78 128.489 89.644C128.569 89.508 128.609 89.36 128.609 89.2V88.18H127.337C126.785 88.18 126.381 88.26 126.125 88.42C125.877 88.58 125.753 88.812 125.753 89.116V89.368C125.753 89.672 125.861 89.908 126.077 90.076C126.301 90.244 126.601 90.328 126.977 90.328ZM132.987 91C132.651 91 132.395 90.908 132.219 90.724C132.051 90.532 131.967 90.292 131.967 90.004V82.12H132.927V90.16H133.839V91H132.987ZM143.933 91.684C143.933 92.324 143.681 92.792 143.177 93.088C142.681 93.392 141.933 93.544 140.933 93.544C139.965 93.544 139.269 93.412 138.845 93.148C138.421 92.884 138.209 92.508 138.209 92.02C138.209 91.684 138.297 91.42 138.473 91.228C138.649 91.044 138.889 90.908 139.193 90.82V90.688C138.825 90.512 138.641 90.224 138.641 89.824C138.641 89.512 138.741 89.276 138.941 89.116C139.141 88.948 139.397 88.824 139.709 88.744V88.696C139.341 88.52 139.053 88.268 138.845 87.94C138.645 87.612 138.545 87.232 138.545 86.8C138.545 86.488 138.601 86.2 138.713 85.936C138.825 85.672 138.981 85.448 139.181 85.264C139.389 85.072 139.633 84.924 139.913 84.82C140.201 84.716 140.521 84.664 140.873 84.664C141.313 84.664 141.705 84.744 142.049 84.904V84.796C142.049 84.556 142.105 84.36 142.217 84.208C142.329 84.048 142.513 83.968 142.769 83.968H143.693V84.808H142.517V85.204C142.741 85.396 142.913 85.628 143.033 85.9C143.161 86.164 143.225 86.464 143.225 86.8C143.225 87.112 143.169 87.4 143.057 87.664C142.945 87.928 142.785 88.156 142.577 88.348C142.377 88.532 142.133 88.676 141.845 88.78C141.557 88.884 141.237 88.936 140.885 88.936C140.685 88.936 140.485 88.916 140.285 88.876C140.077 88.932 139.889 89.016 139.721 89.128C139.553 89.232 139.469 89.38 139.469 89.572C139.469 89.756 139.557 89.88 139.733 89.944C139.909 90.008 140.137 90.04 140.417 90.04H141.737C142.505 90.04 143.061 90.188 143.405 90.484C143.757 90.772 143.933 91.172 143.933 91.684ZM143.033 91.756C143.033 91.508 142.937 91.308 142.745 91.156C142.561 91.012 142.229 90.94 141.749 90.94H139.685C139.301 91.116 139.109 91.396 139.109 91.78C139.109 92.052 139.209 92.284 139.409 92.476C139.617 92.668 139.965 92.764 140.453 92.764H141.341C141.877 92.764 142.293 92.68 142.589 92.512C142.885 92.344 143.033 92.092 143.033 91.756ZM140.885 88.168C141.293 88.168 141.617 88.072 141.857 87.88C142.097 87.68 142.217 87.376 142.217 86.968V86.632C142.217 86.224 142.097 85.924 141.857 85.732C141.617 85.532 141.293 85.432 140.885 85.432C140.477 85.432 140.153 85.532 139.913 85.732C139.673 85.924 139.553 86.224 139.553 86.632V86.968C139.553 87.376 139.673 87.68 139.913 87.88C140.153 88.072 140.477 88.168 140.885 88.168ZM145.373 91V84.808H146.333V85.948H146.393C146.505 85.652 146.705 85.388 146.993 85.156C147.281 84.924 147.677 84.808 148.181 84.808H148.553V85.768H147.989C147.469 85.768 147.061 85.868 146.765 86.068C146.477 86.26 146.333 86.504 146.333 86.8V91H145.373ZM154.552 91C154.192 91 153.932 90.904 153.772 90.712C153.62 90.52 153.524 90.28 153.484 89.992H153.424C153.288 90.376 153.064 90.664 152.752 90.856C152.44 91.048 152.068 91.144 151.636 91.144C150.98 91.144 150.468 90.976 150.1 90.64C149.74 90.304 149.56 89.848 149.56 89.272C149.56 88.688 149.772 88.24 150.196 87.928C150.628 87.616 151.296 87.46 152.2 87.46H153.424V86.848C153.424 86.408 153.304 86.072 153.064 85.84C152.824 85.608 152.456 85.492 151.96 85.492C151.584 85.492 151.268 85.576 151.012 85.744C150.764 85.912 150.556 86.136 150.388 86.416L149.812 85.876C149.98 85.54 150.248 85.256 150.616 85.024C150.984 84.784 151.448 84.664 152.008 84.664C152.76 84.664 153.344 84.848 153.76 85.216C154.176 85.584 154.384 86.096 154.384 86.752V90.16H155.092V91H154.552ZM151.792 90.328C152.032 90.328 152.252 90.3 152.452 90.244C152.652 90.188 152.824 90.108 152.968 90.004C153.112 89.9 153.224 89.78 153.304 89.644C153.384 89.508 153.424 89.36 153.424 89.2V88.18H152.152C151.6 88.18 151.196 88.26 150.94 88.42C150.692 88.58 150.568 88.812 150.568 89.116V89.368C150.568 89.672 150.676 89.908 150.892 90.076C151.116 90.244 151.416 90.328 151.792 90.328ZM160.742 89.992H160.694C160.318 90.76 159.714 91.144 158.882 91.144C158.498 91.144 158.15 91.068 157.838 90.916C157.526 90.764 157.258 90.548 157.034 90.268C156.818 89.988 156.65 89.648 156.53 89.248C156.418 88.848 156.362 88.4 156.362 87.904C156.362 87.408 156.418 86.96 156.53 86.56C156.65 86.16 156.818 85.82 157.034 85.54C157.258 85.26 157.526 85.044 157.838 84.892C158.15 84.74 158.498 84.664 158.882 84.664C159.314 84.664 159.682 84.76 159.986 84.952C160.298 85.136 160.534 85.424 160.694 85.816H160.742V82.12H161.702V91H160.742V89.992ZM159.146 90.28C159.362 90.28 159.566 90.252 159.758 90.196C159.958 90.14 160.13 90.06 160.274 89.956C160.418 89.844 160.53 89.712 160.61 89.56C160.698 89.4 160.742 89.22 160.742 89.02V86.716C160.742 86.548 160.698 86.392 160.61 86.248C160.53 86.096 160.418 85.968 160.274 85.864C160.13 85.76 159.958 85.68 159.758 85.624C159.566 85.56 159.362 85.528 159.146 85.528C158.602 85.528 158.174 85.7 157.862 86.044C157.55 86.38 157.394 86.824 157.394 87.376V88.432C157.394 88.984 157.55 89.432 157.862 89.776C158.174 90.112 158.602 90.28 159.146 90.28ZM164.543 83.356C164.335 83.356 164.183 83.308 164.087 83.212C163.999 83.108 163.955 82.976 163.955 82.816V82.66C163.955 82.5 163.999 82.372 164.087 82.276C164.183 82.172 164.335 82.12 164.543 82.12C164.751 82.12 164.899 82.172 164.987 82.276C165.083 82.372 165.131 82.5 165.131 82.66V82.816C165.131 82.976 165.083 83.108 164.987 83.212C164.899 83.308 164.751 83.356 164.543 83.356ZM164.063 84.808H165.023V91H164.063V84.808ZM169.711 91.144C169.287 91.144 168.903 91.068 168.559 90.916C168.223 90.764 167.931 90.548 167.683 90.268C167.443 89.98 167.255 89.64 167.119 89.248C166.991 88.848 166.927 88.4 166.927 87.904C166.927 87.416 166.991 86.972 167.119 86.572C167.255 86.172 167.443 85.832 167.683 85.552C167.931 85.264 168.223 85.044 168.559 84.892C168.903 84.74 169.287 84.664 169.711 84.664C170.127 84.664 170.499 84.74 170.827 84.892C171.155 85.044 171.435 85.256 171.667 85.528C171.899 85.792 172.075 86.108 172.195 86.476C172.323 86.844 172.387 87.248 172.387 87.688V88.144H167.935V88.432C167.935 88.696 167.975 88.944 168.055 89.176C168.143 89.4 168.263 89.596 168.415 89.764C168.575 89.932 168.767 90.064 168.991 90.16C169.223 90.256 169.483 90.304 169.771 90.304C170.163 90.304 170.503 90.212 170.791 90.028C171.087 89.844 171.315 89.58 171.475 89.236L172.159 89.728C171.959 90.152 171.647 90.496 171.223 90.76C170.799 91.016 170.295 91.144 169.711 91.144ZM169.711 85.468C169.447 85.468 169.207 85.516 168.991 85.612C168.775 85.7 168.587 85.828 168.427 85.996C168.275 86.164 168.155 86.364 168.067 86.596C167.979 86.82 167.935 87.068 167.935 87.34V87.424H171.355V87.292C171.355 86.74 171.203 86.3 170.899 85.972C170.603 85.636 170.207 85.468 169.711 85.468ZM174.289 91V84.808H175.249V85.816H175.297C175.449 85.464 175.661 85.184 175.933 84.976C176.213 84.768 176.585 84.664 177.049 84.664C177.689 84.664 178.193 84.872 178.561 85.288C178.937 85.696 179.125 86.276 179.125 87.028V91H178.165V87.196C178.165 86.084 177.697 85.528 176.761 85.528C176.569 85.528 176.381 85.552 176.197 85.6C176.021 85.648 175.861 85.72 175.717 85.816C175.573 85.912 175.457 86.036 175.369 86.188C175.289 86.332 175.249 86.504 175.249 86.704V91H174.289ZM182.797 91C182.461 91 182.205 90.908 182.029 90.724C181.861 90.532 181.777 90.284 181.777 89.98V85.648H180.757V84.808H181.333C181.541 84.808 181.681 84.768 181.753 84.688C181.833 84.6 181.873 84.452 181.873 84.244V83.092H182.737V84.808H184.093V85.648H182.737V90.16H183.997V91H182.797Z" fill="black"/>
<line x1="66" y1="71.5" x2="86" y2="71.5" stroke="#0072C3"/>
<line x1="66" y1="87.5" x2="86" y2="87.5" stroke="#198038"/>
</svg>
