<svg width="503" height="359" viewBox="0 0 503 359" fill="none" xmlns="http://www.w3.org/2000/svg">
<rect opacity="0.4" x="4.28716" y="271.406" width="481.181" height="40" fill="#F2F4F8"/>
<rect opacity="0.4" x="4.28716" y="191.406" width="481.181" height="40" fill="#F2F4F8"/>
<rect opacity="0.4" x="4.28716" y="111.406" width="481.181" height="40" fill="#F2F4F8"/>
<rect opacity="0.4" x="4.28716" y="31.4058" width="481.181" height="40" fill="#F2F4F8"/>
<line x1="125.586" y1="31.4058" x2="125.586" y2="350.288" stroke="#DDE1E6"/>
<line x1="245.378" y1="31.4058" x2="245.378" y2="350.288" stroke="#DDE1E6"/>
<line x1="365.169" y1="31.4058" x2="365.169" y2="350.288" stroke="#DDE1E6"/>
<rect x="4.78716" y="31.9058" width="480.181" height="317.882" stroke="#DDE1E6"/>
<path d="M88.8653 93.1249C128.154 173.296 139.726 223.421 171.729 297.713" stroke="#0F62FE"/>
<path d="M26.0032 103.411C54.3168 61.9829 68.2123 58.5396 88.8653 93.6963" stroke="#0F62FE"/>
<path d="M171.729 297.712C187.588 327.2 200.254 325.249 228.305 295.427" stroke="#0F62FE"/>
<path d="M228.305 295.427C263.798 262.6 287.738 244.565 315.169 244.565" stroke="#0F62FE"/>
<path d="M315.169 244.565C341.457 245.137 356.315 224.564 391.746 195.99" stroke="#0F62FE"/>
<path d="M391.746 195.99C410.796 180.461 422.406 177.094 443.75 174.846" stroke="#0F62FE"/>
<circle cx="196.874" cy="317.714" r="4.00032" fill="#A56EFF"/>
<circle cx="206.017" cy="314.285" r="4.00032" fill="#A56EFF"/>
<path d="M205.611 315.329C205.872 315.237 206.009 314.952 205.918 314.692L204.431 310.444C204.34 310.184 204.055 310.046 203.794 310.137C203.533 310.229 203.396 310.514 203.487 310.775L204.809 314.55L201.033 315.871C200.773 315.963 200.635 316.248 200.727 316.508C200.818 316.769 201.103 316.906 201.364 316.815L205.611 315.329ZM174.369 300.449L176.298 301.378L176.732 300.477L174.803 299.548L174.369 300.449ZM180.156 303.235L184.013 305.092L184.447 304.191L180.589 302.334L180.156 303.235ZM187.87 306.949L191.728 308.807L192.162 307.906L188.304 306.048L187.87 306.949ZM195.585 310.664L199.443 312.521L199.877 311.62L196.019 309.763L195.585 310.664ZM203.3 314.379L205.229 315.307L205.663 314.406L203.734 313.478L203.3 314.379Z" fill="black"/>
<circle cx="171.729" cy="298.284" r="4.00032" fill="#A56EFF"/>
<path d="M172.103 299.315C172.357 299.424 172.651 299.306 172.76 299.052L174.533 294.916C174.641 294.662 174.524 294.368 174.27 294.26C174.016 294.151 173.722 294.268 173.613 294.522L172.038 298.199L168.361 296.623C168.107 296.514 167.813 296.632 167.705 296.886C167.596 297.14 167.713 297.434 167.967 297.542L172.103 299.315ZM142.12 224.75L142.862 226.607L143.791 226.235L143.048 224.378L142.12 224.75ZM144.348 230.321L145.834 234.036L146.763 233.665L145.277 229.95L144.348 230.321ZM147.32 237.751L148.806 241.465L149.734 241.094L148.248 237.379L147.32 237.751ZM150.292 245.18L151.777 248.894L152.706 248.523L151.22 244.808L150.292 245.18ZM153.263 252.609L154.749 256.323L155.678 255.952L154.192 252.237L153.263 252.609ZM156.235 260.038L157.721 263.753L158.649 263.381L157.163 259.667L156.235 260.038ZM159.207 267.467L160.692 271.182L161.621 270.81L160.135 267.096L159.207 267.467ZM162.178 274.896L163.664 278.611L164.593 278.24L163.107 274.525L162.178 274.896ZM165.15 282.326L166.636 286.04L167.564 285.669L166.078 281.954L165.15 282.326ZM168.122 289.755L169.607 293.469L170.536 293.098L169.05 289.383L168.122 289.755ZM171.093 297.184L171.836 299.041L172.765 298.67L172.022 296.812L171.093 297.184Z" fill="black"/>
<circle cx="144.298" cy="229.707" r="4.00032" fill="#A56EFF"/>
<path d="M144.665 229.592C144.917 229.705 145.213 229.592 145.326 229.34L147.167 225.234C147.28 224.982 147.167 224.686 146.915 224.573C146.663 224.46 146.367 224.573 146.254 224.825L144.618 228.475L140.968 226.839C140.716 226.726 140.42 226.838 140.307 227.09C140.194 227.342 140.307 227.638 140.559 227.751L144.665 229.592ZM116.972 157.308L117.657 159.108L118.592 158.752L117.906 156.952L116.972 157.308ZM119.029 162.708L120.401 166.309L121.335 165.953L119.963 162.352L119.029 162.708ZM121.772 169.909L123.144 173.509L124.078 173.153L122.707 169.553L121.772 169.909ZM124.515 177.11L125.887 180.71L126.821 180.354L125.45 176.754L124.515 177.11ZM127.258 184.31L128.63 187.91L129.564 187.554L128.193 183.954L127.258 184.31ZM130.001 191.511L131.373 195.111L132.307 194.755L130.936 191.155L130.001 191.511ZM132.744 198.711L134.116 202.312L135.05 201.956L133.679 198.355L132.744 198.711ZM135.487 205.912L136.859 209.512L137.793 209.156L136.422 205.556L135.487 205.912ZM138.231 213.112L139.602 216.713L140.537 216.357L139.165 212.756L138.231 213.112ZM140.974 220.313L142.345 223.913L143.28 223.557L141.908 219.957L140.974 220.313ZM143.717 227.514L144.402 229.314L145.337 228.958L144.651 227.158L143.717 227.514Z" fill="black"/>
<circle cx="116.867" cy="155.416" r="4.00032" fill="#A56EFF"/>
<path d="M117.267 155.313C117.526 155.409 117.813 155.276 117.908 155.016L119.459 150.792C119.554 150.533 119.421 150.246 119.162 150.15C118.903 150.055 118.615 150.188 118.52 150.447L117.142 154.202L113.387 152.824C113.128 152.729 112.84 152.862 112.745 153.121C112.65 153.38 112.783 153.668 113.042 153.763L117.267 155.313ZM88.4115 93.335L89.2052 95.0494L90.1127 94.6293L89.319 92.9149L88.4115 93.335ZM90.7927 98.4783L92.3801 101.907L93.2876 101.487L91.7001 98.0581L90.7927 98.4783ZM93.9675 105.336L95.5549 108.765L96.4624 108.345L94.875 104.916L93.9675 105.336ZM97.1424 112.194L98.7298 115.622L99.6373 115.202L98.0498 111.774L97.1424 112.194ZM100.317 119.051L101.905 122.48L102.812 122.06L101.225 118.631L100.317 119.051ZM103.492 125.909L105.08 129.338L105.987 128.918L104.4 125.489L103.492 125.909ZM106.667 132.767L108.254 136.196L109.162 135.775L107.574 132.347L106.667 132.767ZM109.842 139.624L111.429 143.053L112.337 142.633L110.749 139.204L109.842 139.624ZM113.017 146.482L114.604 149.911L115.512 149.491L113.924 146.062L113.017 146.482ZM116.191 153.34L116.985 155.054L117.893 154.634L117.099 152.92L116.191 153.34Z" fill="black"/>
<circle cx="88.2938" cy="92.5534" r="4.00032" fill="#A56EFF"/>
<path d="M134.538 147.341C134.813 147.366 135.056 147.164 135.081 146.889L135.489 142.407C135.514 142.132 135.311 141.889 135.036 141.864C134.761 141.839 134.518 142.042 134.493 142.317L134.13 146.3L130.147 145.938C129.872 145.913 129.629 146.116 129.604 146.391C129.579 146.666 129.781 146.909 130.056 146.934L134.538 147.341ZM88.4811 92.302L134.199 147.163L134.967 146.523L89.2494 91.6618L88.4811 92.302Z" fill="#8A3FFC"/>
<path d="M4.64071 31.0522C4.44545 30.857 4.12887 30.857 3.9336 31.0522L0.751623 34.2342C0.556361 34.4295 0.556361 34.7461 0.751623 34.9413C0.946885 35.1366 1.26347 35.1366 1.45873 34.9413L4.28716 32.1129L7.11558 34.9413C7.31085 35.1366 7.62743 35.1366 7.82269 34.9413C8.01795 34.7461 8.01795 34.4295 7.82269 34.2342L4.64071 31.0522ZM4.78716 349.145L4.78716 31.4058H3.78716L3.78716 349.145H4.78716Z" fill="black"/>
<path d="M485.822 349.499C486.017 349.303 486.017 348.987 485.822 348.792L482.64 345.61C482.444 345.414 482.128 345.414 481.932 345.61C481.737 345.805 481.737 346.121 481.932 346.317L484.761 349.145L481.932 351.974C481.737 352.169 481.737 352.485 481.932 352.681C482.128 352.876 482.444 352.876 482.64 352.681L485.822 349.499ZM4.28716 349.645H485.468V348.645H4.28716V349.645Z" fill="black"/>
<path d="M75.264 108.793C74.5973 108.793 74.1093 108.539 73.8 108.033C73.496 107.526 73.344 106.817 73.344 105.905C73.344 104.993 73.496 104.283 73.8 103.777C74.1093 103.27 74.5973 103.017 75.264 103.017C75.9307 103.017 76.416 103.27 76.72 103.777C77.0293 104.283 77.184 104.993 77.184 105.905C77.184 106.817 77.0293 107.526 76.72 108.033C76.416 108.539 75.9307 108.793 75.264 108.793ZM75.264 108.209C75.4827 108.209 75.6693 108.163 75.824 108.073C75.9787 107.982 76.104 107.854 76.2 107.689C76.296 107.523 76.3653 107.329 76.408 107.105C76.456 106.881 76.48 106.633 76.48 106.361V105.449C76.48 105.177 76.456 104.929 76.408 104.705C76.3653 104.481 76.296 104.286 76.2 104.121C76.104 103.955 75.9787 103.827 75.824 103.737C75.6693 103.646 75.4827 103.601 75.264 103.601C75.0453 103.601 74.8587 103.646 74.704 103.737C74.5493 103.827 74.424 103.955 74.328 104.121C74.232 104.286 74.16 104.481 74.112 104.705C74.0693 104.929 74.048 105.177 74.048 105.449V106.361C74.048 106.633 74.0693 106.881 74.112 107.105C74.16 107.329 74.232 107.523 74.328 107.689C74.424 107.854 74.5493 107.982 74.704 108.073C74.8587 108.163 75.0453 108.209 75.264 108.209Z" fill="black"/>
<path d="M175.988 163.04C175.488 163.04 175.122 162.85 174.89 162.47C174.662 162.09 174.548 161.558 174.548 160.874C174.548 160.19 174.662 159.658 174.89 159.278C175.122 158.898 175.488 158.708 175.988 158.708C176.488 158.708 176.852 158.898 177.08 159.278C177.312 159.658 177.428 160.19 177.428 160.874C177.428 161.558 177.312 162.09 177.08 162.47C176.852 162.85 176.488 163.04 175.988 163.04ZM175.988 162.602C176.152 162.602 176.292 162.568 176.408 162.5C176.524 162.432 176.618 162.336 176.69 162.212C176.762 162.088 176.814 161.942 176.846 161.774C176.882 161.606 176.9 161.42 176.9 161.216V160.532C176.9 160.328 176.882 160.142 176.846 159.974C176.814 159.806 176.762 159.66 176.69 159.536C176.618 159.412 176.524 159.316 176.408 159.248C176.292 159.18 176.152 159.146 175.988 159.146C175.824 159.146 175.684 159.18 175.568 159.248C175.452 159.316 175.358 159.412 175.286 159.536C175.214 159.66 175.16 159.806 175.124 159.974C175.092 160.142 175.076 160.328 175.076 160.532V161.216C175.076 161.42 175.092 161.606 175.124 161.774C175.16 161.942 175.214 162.088 175.286 162.212C175.358 162.336 175.452 162.432 175.568 162.5C175.684 162.568 175.824 162.602 175.988 162.602Z" fill="#8A3FFC"/>
<path d="M96.4269 176.131V175.539H97.9869V171.043H97.9309L96.5229 172.355L96.1309 171.931L97.6109 170.547H98.6589V175.539H100.099V176.131H96.4269Z" fill="black"/>
<path d="M126.275 243.564H122.611V242.876L124.435 241.196C124.696 240.956 124.915 240.703 125.091 240.436C125.267 240.164 125.355 239.892 125.355 239.62V239.524C125.355 239.215 125.269 238.964 125.099 238.772C124.928 238.58 124.669 238.484 124.323 238.484C124.152 238.484 124.003 238.508 123.875 238.556C123.747 238.604 123.635 238.671 123.539 238.756C123.448 238.842 123.371 238.943 123.307 239.06C123.248 239.172 123.2 239.295 123.163 239.428L122.563 239.196C122.616 239.031 122.688 238.871 122.779 238.716C122.875 238.556 122.992 238.415 123.131 238.292C123.275 238.17 123.445 238.071 123.643 237.996C123.845 237.922 124.083 237.884 124.355 237.884C124.627 237.884 124.869 237.924 125.083 238.004C125.296 238.084 125.475 238.196 125.619 238.34C125.763 238.484 125.872 238.655 125.947 238.852C126.027 239.05 126.067 239.268 126.067 239.508C126.067 239.727 126.035 239.93 125.971 240.116C125.912 240.303 125.829 240.482 125.723 240.652C125.616 240.818 125.485 240.98 125.331 241.14C125.181 241.3 125.019 241.46 124.843 241.62L123.339 242.972H126.275V243.564Z" fill="black"/>
<path d="M144.672 315.783C145.05 315.783 145.333 315.698 145.52 315.527C145.712 315.351 145.808 315.127 145.808 314.855V314.799C145.808 314.506 145.714 314.287 145.528 314.143C145.346 313.994 145.106 313.919 144.808 313.919C144.52 313.919 144.285 313.983 144.104 314.111C143.922 314.234 143.773 314.402 143.656 314.615L143.16 314.231C143.229 314.119 143.312 314.01 143.408 313.903C143.509 313.791 143.626 313.692 143.76 313.607C143.893 313.522 144.048 313.452 144.224 313.399C144.4 313.346 144.6 313.319 144.824 313.319C145.058 313.319 145.28 313.351 145.488 313.415C145.696 313.474 145.874 313.564 146.024 313.687C146.178 313.804 146.298 313.951 146.384 314.127C146.474 314.303 146.52 314.503 146.52 314.727C146.52 314.908 146.49 315.071 146.432 315.215C146.378 315.359 146.304 315.484 146.208 315.591C146.112 315.698 145.997 315.788 145.864 315.863C145.736 315.938 145.597 315.994 145.448 316.031V316.063C145.597 316.095 145.741 316.148 145.88 316.223C146.024 316.292 146.149 316.386 146.256 316.503C146.368 316.615 146.456 316.754 146.52 316.919C146.589 317.079 146.624 317.263 146.624 317.471C146.624 317.711 146.578 317.932 146.488 318.135C146.397 318.332 146.269 318.503 146.104 318.647C145.938 318.786 145.738 318.895 145.504 318.975C145.269 319.055 145.01 319.095 144.728 319.095C144.488 319.095 144.274 319.068 144.088 319.015C143.901 318.962 143.736 318.89 143.592 318.799C143.448 318.708 143.32 318.607 143.208 318.495C143.101 318.383 143.005 318.266 142.92 318.143L143.424 317.759C143.493 317.871 143.568 317.972 143.648 318.063C143.733 318.154 143.826 318.231 143.928 318.295C144.029 318.359 144.144 318.41 144.272 318.447C144.4 318.479 144.549 318.495 144.72 318.495C145.114 318.495 145.413 318.407 145.616 318.231C145.818 318.05 145.92 317.794 145.92 317.463V317.399C145.92 317.068 145.818 316.815 145.616 316.639C145.413 316.458 145.114 316.367 144.72 316.367H144.064V315.783H144.672Z" fill="black"/>
<path d="M184.285 336.866H181.837L181.677 338.994H181.733C181.866 338.807 182.016 338.658 182.181 338.546C182.352 338.434 182.584 338.378 182.877 338.378C183.117 338.378 183.338 338.418 183.541 338.498C183.744 338.578 183.92 338.693 184.069 338.842C184.218 338.986 184.333 339.165 184.413 339.378C184.498 339.591 184.541 339.834 184.541 340.106C184.541 340.378 184.498 340.629 184.413 340.858C184.328 341.082 184.202 341.277 184.037 341.442C183.877 341.602 183.68 341.727 183.445 341.818C183.216 341.909 182.954 341.954 182.661 341.954C182.426 341.954 182.218 341.927 182.037 341.874C181.861 341.821 181.704 341.749 181.565 341.658C181.426 341.567 181.304 341.466 181.197 341.354C181.096 341.242 181.002 341.125 180.917 341.002L181.421 340.618C181.49 340.73 181.562 340.831 181.637 340.922C181.717 341.013 181.802 341.09 181.893 341.154C181.989 341.218 182.098 341.269 182.221 341.306C182.344 341.338 182.49 341.354 182.661 341.354C183.045 341.354 183.336 341.253 183.533 341.05C183.73 340.847 183.829 340.562 183.829 340.194V340.114C183.829 339.746 183.73 339.461 183.533 339.258C183.336 339.055 183.045 338.954 182.661 338.954C182.405 338.954 182.202 339.002 182.053 339.098C181.909 339.189 181.778 339.298 181.661 339.426L181.093 339.346L181.293 336.274H184.285V336.866Z" fill="black"/>
<path d="M237.02 327V325.904H234.324V325.312L236.66 321.416H237.66V325.344H238.468V325.904H237.66V327H237.02ZM234.956 325.344H237.02V321.936H236.98L234.956 325.344Z" fill="black"/>
<path d="M150.539 150.919C150.663 150.661 150.663 150.618 150.663 150.532C150.663 150.103 150.271 150.103 149.94 150.103H139.966C139.636 150.103 139.243 150.103 139.243 150.532C139.243 150.618 139.264 150.704 139.346 150.876L144.488 162.479C144.654 162.866 144.819 162.909 144.963 162.909C145.087 162.909 145.191 162.866 145.273 162.78L150.539 150.919ZM140.296 150.962H149.61L144.963 161.469L140.296 150.962Z" fill="#8A3FFC"/>
<path d="M158.445 153.969C158.752 153.969 158.875 153.969 158.875 153.665C158.875 153.505 158.752 153.505 158.476 153.505H157.231C157.523 151.859 157.738 150.724 157.861 150.213C157.953 149.829 158.276 149.461 158.675 149.461C158.998 149.461 159.321 149.605 159.474 149.749C158.875 149.813 158.691 150.277 158.691 150.548C158.691 150.868 158.921 151.06 159.213 151.06C159.52 151.06 159.981 150.788 159.981 150.181C159.981 149.509 159.336 149.142 158.66 149.142C157.999 149.142 157.354 149.653 157.047 150.277C156.77 150.836 156.617 151.411 156.264 153.505H155.234C154.942 153.505 154.789 153.505 154.789 153.793C154.789 153.969 154.881 153.969 155.188 153.969H156.171C155.895 155.455 155.265 159.068 154.912 160.778C154.651 162.169 154.42 163.336 153.652 163.336C153.606 163.336 153.16 163.336 152.884 163.032C153.667 162.968 153.667 162.265 153.667 162.249C153.667 161.929 153.437 161.737 153.145 161.737C152.838 161.737 152.377 162.009 152.377 162.616C152.377 163.304 153.053 163.655 153.652 163.655C155.219 163.655 155.864 160.73 156.033 159.931C156.31 158.7 157.062 154.448 157.139 153.969H158.445Z" fill="#8A3FFC"/>
<path d="M165.641 164.278C165.641 164.23 165.641 164.198 165.38 163.926C163.844 162.312 162.983 159.674 162.983 156.414C162.983 153.313 163.705 150.644 165.487 148.757C165.641 148.614 165.641 148.582 165.641 148.534C165.641 148.438 165.564 148.406 165.503 148.406C165.303 148.406 164.043 149.557 163.291 151.123C162.507 152.737 162.154 154.448 162.154 156.414C162.154 157.836 162.369 159.738 163.168 161.449C164.074 163.367 165.334 164.406 165.503 164.406C165.564 164.406 165.641 164.374 165.641 164.278Z" fill="#8A3FFC"/>
<path d="M173.303 152.355C173.303 150.724 172.811 149.142 171.552 149.142C169.401 149.142 167.112 153.825 167.112 157.342C167.112 158.077 167.266 160.554 168.879 160.554C170.968 160.554 173.303 155.983 173.303 152.355ZM168.648 154.608C168.879 153.665 169.201 152.323 169.816 151.188C170.323 150.229 170.86 149.461 171.536 149.461C172.043 149.461 172.381 149.909 172.381 151.443C172.381 152.019 172.335 152.818 171.89 154.608H168.648ZM171.782 155.088C171.398 156.654 171.076 157.661 170.523 158.668C170.077 159.483 169.539 160.235 168.894 160.235C168.418 160.235 168.034 159.851 168.034 158.269C168.034 157.23 168.28 156.143 168.525 155.088H171.782Z" fill="#8A3FFC"/>
<path d="M181.669 156.414C181.669 155.199 181.515 153.217 180.655 151.363C179.748 149.445 178.489 148.406 178.32 148.406C178.258 148.406 178.181 148.438 178.181 148.534C178.181 148.582 178.181 148.614 178.443 148.885C179.979 150.5 180.839 153.137 180.839 156.398C180.839 159.499 180.117 162.168 178.335 164.054C178.181 164.198 178.181 164.23 178.181 164.278C178.181 164.374 178.258 164.406 178.32 164.406C178.519 164.406 179.779 163.255 180.532 161.688C181.315 160.058 181.669 158.332 181.669 156.414Z" fill="#8A3FFC"/>
<path d="M13.9153 8.07137C14.4173 8.07137 14.6181 8.07137 14.6181 7.63068C14.6181 7.39875 14.4173 7.39874 13.9655 7.39874H11.9322C12.4092 5.00976 12.7606 3.36298 12.9614 2.62077C13.112 2.06412 13.6392 1.53065 14.2918 1.53065C14.8189 1.53065 15.3461 1.7394 15.5971 1.94815C14.6181 2.04092 14.3169 2.71355 14.3169 3.10785C14.3169 3.57173 14.6934 3.85006 15.1704 3.85006C15.6724 3.85006 16.4255 3.45576 16.4255 2.57439C16.4255 1.60024 15.3712 1.06677 14.2667 1.06677C13.1873 1.06677 12.133 1.80898 11.631 2.71355C11.1792 3.52534 10.9281 4.36033 10.3508 7.39874H8.66896C8.19203 7.39874 7.94101 7.39875 7.94101 7.81624C7.94101 8.07137 8.09162 8.07137 8.59366 8.07137H10.2002C9.74835 10.2284 8.71917 15.4703 8.14182 17.952C7.71509 19.9699 7.33856 21.6631 6.08346 21.6631C6.00816 21.6631 5.2802 21.6631 4.82836 21.2224C6.10856 21.1296 6.10856 20.1091 6.10856 20.0859C6.10856 19.622 5.73203 19.3437 5.2551 19.3437C4.75306 19.3437 4 19.738 4 20.6193C4 21.6167 5.10449 22.127 6.08346 22.127C8.64386 22.127 9.69815 17.8825 9.97427 16.7227C10.4261 14.9368 11.6561 8.76719 11.7816 8.07137H13.9153Z" fill="black"/>
<path d="M25.6737 23.0315C25.6737 22.962 25.6737 22.9156 25.247 22.5213C22.7368 20.1787 21.3311 16.3517 21.3311 11.6201C21.3311 7.12053 22.5109 3.24714 25.4227 0.510266C25.6737 0.30152 25.6737 0.255133 25.6737 0.185551C25.6737 0.0463874 25.5482 0 25.4478 0C25.1215 0 23.0631 1.66996 21.8331 3.94296C20.5529 6.28555 19.9756 8.76729 19.9756 11.6201C19.9756 13.6844 20.327 16.4445 21.6323 18.9262C23.1133 21.7095 25.1717 23.2171 25.4478 23.2171C25.5482 23.2171 25.6737 23.1707 25.6737 23.0315Z" fill="black"/>
<path d="M38.1939 5.72877C38.1939 3.36298 37.3906 1.06677 35.3322 1.06677C31.818 1.06677 28.0778 7.86262 28.0778 12.9653C28.0778 14.0322 28.3288 17.6273 30.9645 17.6273C34.3784 17.6273 38.1939 10.9938 38.1939 5.72877ZM30.588 8.99913C30.9645 7.63068 31.4917 5.68238 32.4957 4.03561C33.3241 2.64396 34.2027 1.53065 35.3071 1.53065C36.1355 1.53065 36.6877 2.18009 36.6877 4.40671C36.6877 5.2417 36.6124 6.40139 35.8845 8.99913H30.588ZM35.7088 9.69495C35.0812 11.968 34.5541 13.4292 33.6504 14.8904C32.9225 16.0733 32.0439 17.1634 30.9896 17.1634C30.2115 17.1634 29.5839 16.6068 29.5839 14.3106C29.5839 12.8029 29.9855 11.2258 30.3872 9.69495H35.7088Z" fill="black"/>
<path d="M46.2892 11.6201C46.2892 9.85741 46.0382 6.98137 44.6325 4.29087C43.1515 1.5076 41.0931 0 40.817 0C40.7166 0 40.5911 0.0463874 40.5911 0.185551C40.5911 0.255133 40.5911 0.30152 41.0178 0.695817C43.528 3.0384 44.9337 6.8654 44.9337 11.597C44.9337 16.0966 43.7539 19.9699 40.8421 22.7068C40.5911 22.9156 40.5911 22.962 40.5911 23.0315C40.5911 23.1707 40.7166 23.2171 40.817 23.2171C41.1433 23.2171 43.2017 21.5471 44.4317 19.2741C45.7119 16.9084 46.2892 14.4034 46.2892 11.6201Z" fill="black"/>
<path d="M502.387 346.151C502.387 343.743 501.661 341.406 499.8 341.406C496.624 341.406 493.243 348.323 493.243 353.516C493.243 354.602 493.47 358.262 495.852 358.262C498.938 358.262 502.387 351.51 502.387 346.151ZM495.512 349.48C495.852 348.087 496.329 346.104 497.236 344.428C497.985 343.011 498.779 341.878 499.778 341.878C500.526 341.878 501.025 342.539 501.025 344.805C501.025 345.655 500.957 346.836 500.299 349.48H495.512ZM500.141 350.188C499.573 352.501 499.097 353.989 498.28 355.476C497.622 356.68 496.828 357.789 495.875 357.789C495.172 357.789 494.604 357.223 494.604 354.886C494.604 353.351 494.968 351.746 495.331 350.188H500.141Z" fill="black"/>
<path d="M70.9224 92.91C70.9224 90.6242 70.2333 88.4058 68.4672 88.4058C65.4521 88.4058 62.2432 94.9716 62.2432 99.9016C62.2432 100.932 62.4585 104.406 64.7199 104.406C67.6489 104.406 70.9224 97.9968 70.9224 92.91ZM64.3968 96.0696C64.7199 94.7475 65.1721 92.8651 66.0336 91.2741C66.7443 89.9296 67.4981 88.8539 68.4457 88.8539C69.1564 88.8539 69.6302 89.4814 69.6302 91.6327C69.6302 92.4394 69.5656 93.5598 68.9411 96.0696H64.3968ZM68.7903 96.7419C68.2519 98.938 67.7996 100.35 67.0243 101.762C66.3997 102.904 65.646 103.958 64.7414 103.958C64.0738 103.958 63.5354 103.42 63.5354 101.201C63.5354 99.7447 63.8799 98.2209 64.2245 96.7419H68.7903Z" fill="black"/>
<path d="M94.9244 160.885C94.9244 158.599 94.2352 156.381 92.4692 156.381C89.4541 156.381 86.2451 162.947 86.2451 167.877C86.2451 168.907 86.4605 172.381 88.7218 172.381C91.6508 172.381 94.9244 165.972 94.9244 160.885ZM88.3988 164.045C88.7218 162.723 89.1741 160.84 90.0356 159.249C90.7463 157.905 91.5001 156.829 92.4477 156.829C93.1584 156.829 93.6322 157.456 93.6322 159.608C93.6322 160.414 93.5676 161.535 92.943 164.045H88.3988ZM92.7923 164.717C92.2538 166.913 91.8016 168.325 91.0262 169.737C90.4017 170.879 89.6479 171.933 88.7434 171.933C88.0757 171.933 87.5373 171.395 87.5373 169.176C87.5373 167.72 87.8819 166.196 88.2265 164.717H92.7923Z" fill="black"/>
<path d="M122.069 228.24C122.069 225.954 121.38 223.735 119.614 223.735C116.599 223.735 113.39 230.301 113.39 235.231C113.39 236.262 113.606 239.735 115.867 239.735C118.796 239.735 122.069 233.326 122.069 228.24ZM115.544 231.399C115.867 230.077 116.319 228.195 117.181 226.604C117.891 225.259 118.645 224.184 119.593 224.184C120.303 224.184 120.777 224.811 120.777 226.962C120.777 227.769 120.713 228.889 120.088 231.399H115.544ZM119.937 232.071C119.399 234.268 118.947 235.679 118.171 237.091C117.547 238.234 116.793 239.287 115.888 239.287C115.221 239.287 114.682 238.749 114.682 236.531C114.682 235.074 115.027 233.55 115.372 232.071H119.937Z" fill="black"/>
<path d="M143.25 301.54C143.25 299.254 142.523 297.036 140.663 297.036C137.487 297.036 134.106 303.601 134.106 308.531C134.106 309.562 134.333 313.036 136.715 313.036C139.801 313.036 143.25 306.627 143.25 301.54ZM136.375 304.7C136.715 303.377 137.192 301.495 138.099 299.904C138.848 298.559 139.642 297.484 140.64 297.484C141.389 297.484 141.888 298.111 141.888 300.263C141.888 301.069 141.82 302.19 141.162 304.7H136.375ZM141.003 305.372C140.436 307.568 139.96 308.98 139.143 310.391C138.485 311.534 137.691 312.587 136.738 312.587C136.035 312.587 135.467 312.05 135.467 309.831C135.467 308.375 135.83 306.851 136.193 305.372H141.003Z" fill="black"/>
<path d="M180.967 325.325C180.967 323.039 180.241 320.82 178.38 320.82C175.204 320.82 171.823 327.386 171.823 332.316C171.823 333.347 172.05 336.82 174.432 336.82C177.518 336.82 180.967 330.411 180.967 325.325ZM174.092 328.484C174.432 327.162 174.909 325.28 175.816 323.689C176.565 322.344 177.359 321.268 178.358 321.268C179.106 321.268 179.605 321.896 179.605 324.047C179.605 324.854 179.537 325.974 178.879 328.484H174.092ZM178.721 329.156C178.153 331.353 177.677 332.764 176.86 334.176C176.202 335.319 175.408 336.372 174.455 336.372C173.752 336.372 173.185 335.834 173.185 333.616C173.185 332.159 173.548 330.635 173.911 329.156H178.721Z" fill="black"/>
<path d="M235.828 309.865C235.828 307.579 235.102 305.36 233.242 305.36C230.065 305.36 226.685 311.926 226.685 316.856C226.685 317.887 226.912 321.36 229.294 321.36C232.38 321.36 235.828 314.951 235.828 309.865ZM228.954 313.024C229.294 311.702 229.77 309.82 230.678 308.229C231.427 306.884 232.221 305.809 233.219 305.809C233.968 305.809 234.467 306.436 234.467 308.587C234.467 309.394 234.399 310.514 233.741 313.024H228.954ZM233.582 313.696C233.015 315.893 232.538 317.304 231.722 318.716C231.064 319.859 230.27 320.912 229.317 320.912C228.613 320.912 228.046 320.374 228.046 318.156C228.046 316.699 228.409 315.175 228.772 313.696H233.582Z" fill="black"/>
<path d="M226.243 96.7598C226.243 95.3023 226.511 93.7662 227.047 92.1515C227.582 90.5368 228.31 89.1436 229.23 87.9718C230.15 86.8001 231.105 86.1285 232.094 85.957C232.107 85.957 232.162 85.957 232.258 85.957C232.354 85.957 232.437 85.9499 232.506 85.9356C233.247 85.9928 233.824 86.3429 234.236 86.9859C234.772 87.8432 235.039 88.9935 235.039 90.4368C235.039 92.08 234.73 93.7519 234.112 95.4523C233.494 97.1528 232.705 98.546 231.743 99.632C230.782 100.718 229.862 101.261 228.983 101.261H228.839C228.344 101.261 227.919 101.118 227.562 100.832C227.204 100.547 226.937 100.168 226.758 99.6963C226.58 99.2247 226.449 98.7461 226.367 98.2602C226.284 97.7744 226.243 97.2742 226.243 96.7598ZM233.412 88.9149C233.412 87.4574 233.048 86.7287 232.32 86.7287C231.826 86.7287 231.345 87.0502 230.878 87.6932C230.411 88.3362 230.027 89.065 229.725 89.8795C229.422 90.694 229.189 91.4084 229.024 92.0229C228.859 92.6373 228.77 92.9946 228.756 93.0946C229.429 93.1089 230.095 93.116 230.755 93.116L232.753 93.0946C232.766 93.0803 232.821 92.8445 232.918 92.3873C233.014 91.93 233.124 91.3584 233.247 90.6725C233.371 89.9867 233.426 89.4008 233.412 88.9149ZM227.85 98.2173C227.85 99.732 228.214 100.489 228.942 100.489C229.148 100.489 229.367 100.418 229.601 100.275C229.834 100.132 230.116 99.8606 230.446 99.4605C230.775 99.0604 231.105 98.4388 231.434 97.5958C231.764 96.7527 232.094 95.7096 232.423 94.4664L232.526 94.102H228.509C228.509 94.1449 228.447 94.4164 228.324 94.9165C228.2 95.4166 228.09 95.9739 227.994 96.5884C227.898 97.2028 227.85 97.7458 227.85 98.2173Z" fill="black"/>
<path d="M234.686 80.8343C234.686 80.72 234.72 80.62 234.789 80.5342C234.858 80.4485 234.961 80.4056 235.098 80.4056C235.194 80.4056 235.277 80.4414 235.345 80.5128C235.414 80.57 235.483 80.7057 235.551 80.9201C235.689 81.4488 235.97 81.8561 236.396 82.1419C236.547 82.2419 236.622 82.3705 236.622 82.5277C236.622 82.6563 236.602 82.742 236.561 82.7849C236.519 82.8278 236.423 82.8921 236.272 82.9778C235.682 83.2922 235.167 83.7423 234.727 84.3282C234.7 84.3568 234.665 84.3996 234.624 84.4568C234.583 84.514 234.549 84.5568 234.521 84.5854C234.494 84.614 234.459 84.6283 234.418 84.6283C234.377 84.6283 234.329 84.6354 234.274 84.6497C234.178 84.6497 234.089 84.614 234.006 84.5425C233.924 84.4711 233.876 84.3639 233.862 84.221C233.862 83.9495 234.185 83.528 234.83 82.9564H231.308L227.785 82.9349C227.607 82.8063 227.517 82.6706 227.517 82.5277C227.517 82.4276 227.607 82.2848 227.785 82.099H235.18C234.851 81.556 234.686 81.1344 234.686 80.8343Z" fill="black"/>
<path d="M237.522 99.9116C237.532 99.851 237.547 99.7702 237.566 99.6691C237.585 99.5681 237.644 99.3762 237.741 99.0933C237.838 98.8104 237.935 98.573 238.032 98.3811C238.129 98.1891 238.289 98.0023 238.513 97.8204C238.736 97.6386 238.959 97.5527 239.183 97.5628C239.532 97.5628 239.823 97.6537 240.056 97.8356C240.289 98.0174 240.435 98.1891 240.493 98.3508C240.552 98.5124 240.581 98.6185 240.581 98.669C240.581 98.6892 240.586 98.6993 240.595 98.6993L240.756 98.5326C241.348 97.8861 242.023 97.5628 242.78 97.5628C243.304 97.5628 243.727 97.6992 244.047 97.9719C244.367 98.2447 244.532 98.6437 244.542 99.1691C244.552 99.6944 244.367 100.487 243.989 101.548C243.61 102.609 243.426 103.25 243.435 103.473C243.435 103.735 243.518 103.867 243.683 103.867C243.741 103.867 243.785 103.862 243.814 103.851C244.096 103.801 244.348 103.609 244.571 103.276C244.795 102.942 244.965 102.538 245.081 102.063C245.1 101.983 245.198 101.942 245.372 101.942C245.567 101.942 245.664 101.983 245.664 102.063C245.664 102.073 245.644 102.149 245.605 102.291C245.528 102.584 245.421 102.872 245.285 103.154C245.149 103.437 244.926 103.72 244.615 104.003C244.304 104.286 243.969 104.422 243.61 104.412C243.154 104.412 242.824 104.276 242.62 104.003C242.416 103.73 242.314 103.447 242.314 103.154C242.314 102.962 242.489 102.356 242.838 101.336C243.188 100.316 243.367 99.5479 243.377 99.0327C243.377 98.4367 243.163 98.1386 242.736 98.1386H242.663C241.828 98.1386 241.124 98.6488 240.552 99.6691L240.45 99.851L239.969 101.882C239.649 103.205 239.464 103.917 239.416 104.018C239.289 104.291 239.081 104.427 238.789 104.427C238.663 104.427 238.561 104.397 238.484 104.336C238.406 104.276 238.352 104.215 238.323 104.155C238.294 104.094 238.284 104.043 238.294 104.003C238.294 103.872 238.479 103.048 238.848 101.533C239.217 100.018 239.411 99.1943 239.43 99.063C239.44 99.0125 239.445 98.8963 239.445 98.7145C239.445 98.3205 239.328 98.1235 239.095 98.1235C238.726 98.1235 238.42 98.6286 238.178 99.6388C238.119 99.8409 238.09 99.9469 238.09 99.957C238.071 100.018 237.979 100.048 237.814 100.048H237.61C237.551 99.9874 237.522 99.9419 237.522 99.9116Z" fill="black"/>
<path d="M246.771 100.669C246.771 100.669 246.771 100.603 246.771 100.472C246.771 100.34 246.839 100.239 246.975 100.169H251.33V97.8954L251.344 95.6223C251.442 95.491 251.534 95.4253 251.621 95.4253C251.747 95.4253 251.845 95.5011 251.912 95.6526V100.169H256.253C256.398 100.249 256.471 100.35 256.471 100.472C256.471 100.593 256.398 100.694 256.253 100.775H251.912V105.291C251.835 105.432 251.747 105.503 251.65 105.503H251.621H251.592C251.476 105.503 251.388 105.432 251.33 105.291V100.775H246.975C246.839 100.704 246.771 100.603 246.771 100.472V100.669Z" fill="black"/>
<path d="M260.388 95.5027L260.199 95.5784C260.063 95.6289 259.869 95.6794 259.616 95.73C259.364 95.7805 259.082 95.8158 258.772 95.836H258.495V95.139H258.772C259.228 95.1187 259.65 95.043 260.039 94.9116C260.427 94.7803 260.699 94.6591 260.854 94.5479C261.01 94.4368 261.146 94.3257 261.262 94.2146C261.282 94.1842 261.34 94.1691 261.437 94.1691C261.524 94.1691 261.607 94.1994 261.684 94.26V98.7911L261.699 103.337C261.767 103.408 261.825 103.454 261.874 103.474C261.922 103.494 262.039 103.514 262.223 103.534C262.408 103.555 262.709 103.565 263.126 103.565H263.505V104.262H263.345C263.141 104.231 262.369 104.216 261.029 104.216C259.709 104.216 258.946 104.231 258.743 104.262H258.568V103.565H258.946C259.16 103.565 259.345 103.565 259.5 103.565C259.655 103.565 259.777 103.56 259.864 103.549C259.951 103.539 260.029 103.524 260.097 103.504C260.165 103.484 260.204 103.474 260.213 103.474C260.223 103.474 260.252 103.448 260.301 103.398C260.349 103.347 260.379 103.327 260.388 103.337V95.5027Z" fill="black"/>
<path d="M272.479 93.6095C272.479 93.4237 272.576 93.2808 272.768 93.1808H285.89C286.096 93.2951 286.199 93.438 286.199 93.6095C286.199 93.7666 286.103 93.9024 285.911 94.0167L279.36 94.0381H272.809C272.589 93.9667 272.479 93.8238 272.479 93.6095ZM272.479 97.7676C272.479 97.5532 272.589 97.4103 272.809 97.3389H285.911C286.103 97.4818 286.199 97.6247 286.199 97.7676C286.199 97.9533 286.096 98.0962 285.89 98.1962H272.768C272.576 98.0962 272.479 97.9533 272.479 97.7676Z" fill="black"/>
<path d="M294.117 96.7605C294.117 95.303 294.384 93.7669 294.92 92.1522C295.456 90.5375 296.183 89.1442 297.104 87.9725C298.024 86.8008 298.978 86.1292 299.967 85.9577C299.981 85.9577 300.036 85.9577 300.132 85.9577C300.228 85.9577 300.31 85.9506 300.379 85.9363C301.121 85.9934 301.697 86.3435 302.109 86.9865C302.645 87.8439 302.913 88.9942 302.913 90.4374C302.913 92.0807 302.604 93.7526 301.986 95.453C301.368 97.1535 300.578 98.5467 299.617 99.6327C298.655 100.719 297.735 101.262 296.856 101.262H296.712C296.218 101.262 295.792 101.119 295.435 100.833C295.078 100.547 294.81 100.169 294.632 99.697C294.453 99.2254 294.323 98.7467 294.24 98.2609C294.158 97.775 294.117 97.2749 294.117 96.7605ZM301.285 88.9156C301.285 87.4581 300.921 86.7293 300.194 86.7293C299.699 86.7293 299.219 87.0509 298.752 87.6939C298.285 88.3369 297.9 89.0657 297.598 89.8802C297.296 90.6946 297.062 91.4091 296.898 92.0236C296.733 92.638 296.644 92.9952 296.63 93.0953C297.303 93.1096 297.969 93.1167 298.628 93.1167L300.626 93.0953C300.64 93.081 300.695 92.8452 300.791 92.3879C300.887 91.9307 300.997 91.3591 301.121 90.6732C301.244 89.9873 301.299 89.4015 301.285 88.9156ZM295.723 98.218C295.723 99.7327 296.087 100.49 296.815 100.49C297.021 100.49 297.241 100.419 297.474 100.276C297.708 100.133 297.989 99.8613 298.319 99.4612C298.649 99.0611 298.978 98.4395 299.308 97.5964C299.637 96.7534 299.967 95.7102 300.297 94.467L300.4 94.1027H296.383C296.383 94.1455 296.321 94.417 296.197 94.9172C296.074 95.4173 295.964 95.9746 295.868 96.589C295.771 97.2035 295.723 97.7465 295.723 98.218Z" fill="black"/>
<path d="M302.557 80.835C302.557 80.7207 302.591 80.6206 302.66 80.5349C302.729 80.4491 302.832 80.4063 302.969 80.4063C303.065 80.4063 303.147 80.442 303.216 80.5134C303.285 80.5706 303.353 80.7064 303.422 80.9207C303.559 81.4495 303.841 81.8567 304.267 82.1425C304.418 82.2426 304.493 82.3712 304.493 82.5284C304.493 82.657 304.473 82.7427 304.432 82.7856C304.39 82.8285 304.294 82.8928 304.143 82.9785C303.553 83.2929 303.038 83.7431 302.598 84.329C302.571 84.3576 302.536 84.4004 302.495 84.4576C302.454 84.5148 302.42 84.5576 302.392 84.5862C302.365 84.6148 302.33 84.6291 302.289 84.6291C302.248 84.6291 302.2 84.6362 302.145 84.6505C302.049 84.6505 301.96 84.6148 301.877 84.5433C301.795 84.4719 301.747 84.3647 301.733 84.2218C301.733 83.9503 302.056 83.5287 302.701 82.9571H299.179L295.656 82.9357C295.477 82.8071 295.388 82.6713 295.388 82.5284C295.388 82.4284 295.477 82.2855 295.656 82.0997H303.051C302.722 81.5566 302.557 81.1351 302.557 80.835Z" fill="black"/>
<path d="M305.398 99.9133C305.408 99.8527 305.422 99.7719 305.442 99.6708C305.461 99.5698 305.52 99.3779 305.617 99.095C305.714 98.8121 305.811 98.5747 305.908 98.3828C306.005 98.1908 306.165 98.0039 306.389 97.8221C306.612 97.6402 306.835 97.5544 307.058 97.5645C307.408 97.5645 307.699 97.6554 307.932 97.8372C308.165 98.0191 308.311 98.1908 308.369 98.3525C308.427 98.5141 308.457 98.6202 308.457 98.6707C308.457 98.6909 308.461 98.701 308.471 98.701L308.631 98.5343C309.224 97.8878 309.898 97.5645 310.656 97.5645C311.18 97.5645 311.602 97.7009 311.923 97.9736C312.243 98.2464 312.408 98.6454 312.418 99.1708C312.428 99.6961 312.243 100.489 311.865 101.55C311.486 102.611 311.301 103.252 311.311 103.474C311.311 103.737 311.394 103.868 311.559 103.868C311.617 103.868 311.661 103.863 311.69 103.853C311.971 103.803 312.224 103.611 312.447 103.277C312.671 102.944 312.84 102.54 312.957 102.065C312.976 101.984 313.073 101.944 313.248 101.944C313.442 101.944 313.539 101.984 313.539 102.065C313.539 102.075 313.52 102.151 313.481 102.292C313.404 102.585 313.297 102.873 313.161 103.156C313.025 103.439 312.802 103.722 312.491 104.005C312.18 104.288 311.845 104.424 311.486 104.414C311.03 104.414 310.699 104.278 310.496 104.005C310.292 103.732 310.19 103.449 310.19 103.156C310.19 102.964 310.365 102.358 310.714 101.338C311.064 100.317 311.243 99.5496 311.253 99.0344C311.253 98.4383 311.039 98.1403 310.612 98.1403H310.539C309.704 98.1403 309 98.6505 308.427 99.6708L308.326 99.8527L307.845 101.883C307.525 103.207 307.34 103.919 307.291 104.02C307.165 104.293 306.957 104.429 306.665 104.429C306.539 104.429 306.437 104.399 306.359 104.338C306.282 104.278 306.228 104.217 306.199 104.156C306.17 104.096 306.16 104.045 306.17 104.005C306.17 103.873 306.355 103.05 306.723 101.535C307.092 100.019 307.287 99.196 307.306 99.0647C307.316 99.0142 307.321 98.898 307.321 98.7162C307.321 98.3222 307.204 98.1252 306.971 98.1252C306.602 98.1252 306.296 98.6303 306.054 99.6405C305.995 99.8426 305.966 99.9487 305.966 99.9588C305.947 100.019 305.855 100.05 305.689 100.05H305.486C305.427 99.9891 305.398 99.9436 305.398 99.9133Z" fill="black"/>
<path d="M321.169 95.9671C321.169 95.9671 321.169 95.8741 321.169 95.688C321.169 95.5019 321.266 95.3588 321.458 95.2586H333.426C333.632 95.3731 333.735 95.5163 333.735 95.688C333.735 95.8597 333.632 96.0029 333.426 96.1174H321.458C321.266 96.0172 321.169 95.8741 321.169 95.688V95.9671Z" fill="black"/>
<path d="M340.474 94.8945C340.488 94.8516 340.502 94.7944 340.516 94.723C340.529 94.6515 340.564 94.4944 340.619 94.2514C340.674 94.0085 340.742 93.787 340.825 93.587C340.907 93.3869 341.01 93.1512 341.134 92.8797C341.257 92.6082 341.395 92.3938 341.546 92.2366C341.697 92.0794 341.875 91.9223 342.081 91.7651C342.287 91.6079 342.514 91.5436 342.761 91.5722C343.091 91.5722 343.386 91.6222 343.647 91.7222C343.908 91.8222 344.114 91.9508 344.265 92.108C344.416 92.2652 344.526 92.4224 344.594 92.5796C344.663 92.7368 344.718 92.8725 344.759 92.9868L344.8 93.1369C344.8 93.1654 344.807 93.1797 344.821 93.1797L345.048 92.944C345.885 92.0294 346.84 91.5722 347.911 91.5722C348.653 91.5722 349.25 91.7651 349.703 92.1509C350.156 92.5367 350.39 93.1011 350.404 93.8442V94.0585C350.404 94.4015 349.964 96.352 349.085 99.91C348.289 103.268 347.863 104.997 347.808 105.097C347.629 105.483 347.32 105.676 346.881 105.676C346.702 105.676 346.551 105.619 346.428 105.504C346.304 105.39 346.229 105.233 346.201 105.033C346.201 104.904 346.606 103.168 347.417 99.8243L348.694 94.4658C348.735 94.2514 348.756 93.9799 348.756 93.6513C348.756 92.8082 348.453 92.3867 347.849 92.3867H347.746C346.565 92.3867 345.569 93.1083 344.759 94.5515L344.615 94.8087L343.935 97.6809C343.482 99.5528 343.221 100.56 343.152 100.703C342.974 101.089 342.679 101.282 342.267 101.282C342.088 101.282 341.944 101.239 341.834 101.153C341.724 101.067 341.649 100.982 341.607 100.896C341.566 100.81 341.552 100.739 341.566 100.682C341.566 100.496 341.841 99.267 342.39 96.995C342.94 94.723 343.214 93.4584 343.214 93.2012C343.214 92.6439 343.036 92.3652 342.679 92.3652C342.39 92.3652 342.143 92.5653 341.937 92.9654C341.731 93.3655 341.566 93.8013 341.443 94.2729C341.319 94.7444 341.243 95.0016 341.216 95.0445C341.189 95.0731 341.079 95.0874 340.886 95.0874H340.598C340.516 95.0016 340.474 94.9373 340.474 94.8945Z" fill="black"/>
<path d="M351.227 86.5577C351.227 86.5148 351.262 86.4648 351.33 86.4077H366.368C366.437 86.4648 366.471 86.5148 366.471 86.5577C366.471 86.5863 365.311 89.0869 362.99 94.0596C360.669 99.0323 359.481 101.547 359.426 101.604C359.357 101.704 359.165 101.754 358.849 101.754C358.533 101.754 358.341 101.704 358.273 101.604C358.231 101.547 357.05 99.0323 354.729 94.0596C352.408 89.0869 351.241 86.5863 351.227 86.5577ZM364.638 88.2724C364.638 88.2581 362.907 88.251 359.447 88.251C355.986 88.251 354.256 88.2581 354.256 88.2724C354.283 88.3439 355.148 90.2015 356.851 93.8453C358.554 97.489 359.419 99.3181 359.447 99.3324L364.638 88.2724Z" fill="black"/>
<path d="M361.476 81.3064C361.476 81.1921 361.511 81.092 361.579 81.0063C361.648 80.9206 361.751 80.8777 361.888 80.8777C361.984 80.8777 362.067 80.9134 362.136 80.9849C362.204 81.042 362.273 81.1778 362.342 81.3921C362.479 81.9208 362.76 82.3281 363.186 82.6139C363.337 82.7139 363.413 82.8425 363.413 82.9997C363.413 83.1283 363.392 83.2141 363.351 83.2569C363.31 83.2998 363.214 83.3641 363.063 83.4499C362.472 83.7642 361.957 84.2144 361.518 84.8002C361.49 84.8288 361.456 84.8717 361.415 84.9289C361.373 84.986 361.339 85.0289 361.312 85.0575C361.284 85.086 361.25 85.1003 361.209 85.1003C361.167 85.1003 361.119 85.1075 361.064 85.1218C360.968 85.1218 360.879 85.086 360.797 85.0146C360.714 84.9431 360.666 84.836 360.652 84.6931C360.652 84.4216 360.975 84 361.621 83.4284H358.098L354.575 83.407C354.397 83.2784 354.308 83.1426 354.308 82.9997C354.308 82.8997 354.397 82.7568 354.575 82.571H361.971C361.641 82.028 361.476 81.6065 361.476 81.3064Z" fill="black"/>
<path d="M369.872 104.519C369.899 104.519 369.94 104.533 369.995 104.562C370.05 104.59 370.126 104.612 370.222 104.626C370.318 104.64 370.4 104.647 370.469 104.647C370.648 104.647 370.812 104.554 370.963 104.369C371.114 104.183 371.224 103.976 371.293 103.747C371.43 103.361 371.664 102.268 371.993 100.468C372.323 98.6672 372.639 96.9525 372.941 95.3235C373.243 93.6946 373.394 92.8729 373.394 92.8586V92.7943H372.426C371.781 92.7943 371.437 92.78 371.396 92.7515C371.341 92.7086 371.314 92.6371 371.314 92.5371L371.458 91.937C371.485 91.8655 371.54 91.8298 371.623 91.8298C371.705 91.8298 372.028 91.8227 372.591 91.8084C373.25 91.8084 373.58 91.8012 373.58 91.7869C373.58 91.7584 373.641 91.4011 373.765 90.7152C373.889 90.0293 373.971 89.615 374.012 89.4721C374.52 87.1143 375.523 85.9355 377.02 85.9355C377.528 85.964 377.947 86.1212 378.276 86.407C378.606 86.6928 378.771 87.0715 378.771 87.543C378.771 88.0574 378.627 88.4289 378.338 88.6576C378.05 88.8862 377.761 89.0077 377.473 89.022C376.869 89.022 376.567 88.7219 376.567 88.1217C376.567 87.8502 376.642 87.6145 376.793 87.4144C376.944 87.2144 377.109 87.0643 377.288 86.9643L377.473 86.8571C377.253 86.7714 377.047 86.7285 376.855 86.7285C376.69 86.7285 376.532 86.8 376.381 86.9429C376.23 87.0858 376.127 87.2858 376.072 87.543C375.976 87.9574 375.866 88.5147 375.743 89.2149C375.619 89.915 375.509 90.508 375.413 90.9939C375.317 91.4797 375.269 91.7369 375.269 91.7655C375.269 91.7941 375.646 91.8084 376.402 91.8084C377.02 91.8084 377.377 91.8155 377.473 91.8298C377.569 91.8441 377.645 91.887 377.7 91.9584C377.713 92.0156 377.7 92.137 377.658 92.3228C377.617 92.5085 377.583 92.6229 377.555 92.6657C377.528 92.7372 377.466 92.7729 377.37 92.7729C377.274 92.7729 376.903 92.78 376.258 92.7943H375.104L374.63 95.4093C373.971 98.953 373.511 101.168 373.25 102.054C372.879 103.268 372.398 104.169 371.808 104.754C371.3 105.212 370.799 105.44 370.304 105.44C369.865 105.44 369.466 105.305 369.109 105.033C368.752 104.762 368.574 104.376 368.574 103.876C368.574 103.347 368.718 102.961 369.006 102.718C369.295 102.475 369.583 102.354 369.872 102.354C370.476 102.354 370.778 102.654 370.778 103.254C370.778 103.526 370.702 103.761 370.551 103.961C370.4 104.161 370.236 104.312 370.057 104.412L369.872 104.519Z" fill="black"/>
<path d="M380.707 95.6886C380.707 94.7026 380.776 93.7667 380.913 92.8807C381.05 91.9948 381.208 91.2303 381.387 90.5873C381.565 89.9442 381.819 89.3155 382.149 88.701C382.479 88.0866 382.74 87.6079 382.932 87.265C383.124 86.922 383.412 86.5505 383.797 86.1504C384.182 85.7503 384.408 85.5073 384.477 85.4216C384.545 85.3359 384.717 85.1858 384.992 84.9715H385.26H385.342C385.534 84.9715 385.63 85.0358 385.63 85.1644C385.63 85.2073 385.514 85.3573 385.28 85.6145C385.047 85.8717 384.765 86.2504 384.436 86.7505C384.106 87.2507 383.77 87.8651 383.426 88.5939C383.083 89.3226 382.794 90.3086 382.561 91.5518C382.328 92.795 382.211 94.1739 382.211 95.6886C382.211 97.2033 382.328 98.5751 382.561 99.804C382.794 101.033 383.076 102.026 383.406 102.783C383.735 103.541 384.072 104.155 384.415 104.627C384.758 105.098 385.047 105.477 385.28 105.763C385.514 106.049 385.63 106.199 385.63 106.213C385.63 106.341 385.527 106.406 385.321 106.406H385.26H384.992L384.415 105.891C383.124 104.677 382.183 103.162 381.593 101.347C381.002 99.5325 380.707 97.6463 380.707 95.6886Z" fill="black"/>
<path d="M387.826 96.7605C387.826 95.303 388.094 93.7669 388.63 92.1522C389.165 90.5375 389.893 89.1442 390.813 87.9725C391.734 86.8008 392.688 86.1292 393.677 85.9577C393.691 85.9577 393.745 85.9577 393.842 85.9577C393.938 85.9577 394.02 85.9506 394.089 85.9363C394.83 85.9934 395.407 86.3435 395.819 86.9865C396.355 87.8439 396.623 88.9942 396.623 90.4374C396.623 92.0807 396.314 93.7526 395.696 95.453C395.078 97.1535 394.288 98.5467 393.327 99.6327C392.365 100.719 391.445 101.262 390.566 101.262H390.422C389.928 101.262 389.502 101.119 389.145 100.833C388.788 100.547 388.52 100.169 388.341 99.697C388.163 99.2254 388.032 98.7467 387.95 98.2609C387.868 97.775 387.826 97.2749 387.826 96.7605ZM394.995 88.9156C394.995 87.4581 394.631 86.7293 393.903 86.7293C393.409 86.7293 392.928 87.0509 392.461 87.6939C391.994 88.3369 391.61 89.0657 391.308 89.8802C391.006 90.6946 390.772 91.4091 390.607 92.0236C390.443 92.638 390.353 92.9952 390.34 93.0953C391.013 93.1096 391.679 93.1167 392.338 93.1167L394.336 93.0953C394.35 93.081 394.405 92.8452 394.501 92.3879C394.597 91.9307 394.707 91.3591 394.83 90.6732C394.954 89.9873 395.009 89.4015 394.995 88.9156ZM389.433 98.218C389.433 99.7327 389.797 100.49 390.525 100.49C390.731 100.49 390.951 100.419 391.184 100.276C391.418 100.133 391.699 99.8613 392.029 99.4612C392.358 99.0611 392.688 98.4395 393.018 97.5964C393.347 96.7534 393.677 95.7102 394.006 94.467L394.109 94.1027H390.092C390.092 94.1455 390.031 94.417 389.907 94.9172C389.783 95.4173 389.674 95.9746 389.577 96.589C389.481 97.2035 389.433 97.7465 389.433 98.218Z" fill="black"/>
<path d="M396.268 80.8353C396.268 80.721 396.302 80.6209 396.371 80.5352C396.439 80.4494 396.542 80.4066 396.68 80.4066C396.776 80.4066 396.858 80.4423 396.927 80.5137C396.996 80.5709 397.064 80.7067 397.133 80.921C397.27 81.4498 397.552 81.857 397.978 82.1429C398.129 82.2429 398.204 82.3715 398.204 82.5287C398.204 82.6573 398.184 82.7431 398.142 82.7859C398.101 82.8288 398.005 82.8931 397.854 82.9788C397.263 83.2932 396.748 83.7434 396.309 84.3293C396.282 84.3579 396.247 84.4007 396.206 84.4579C396.165 84.5151 396.13 84.5579 396.103 84.5865C396.076 84.6151 396.041 84.6294 396 84.6294C395.959 84.6294 395.911 84.6365 395.856 84.6508C395.76 84.6508 395.67 84.6151 395.588 84.5436C395.506 84.4722 395.458 84.365 395.444 84.2221C395.444 83.9506 395.767 83.529 396.412 82.9574H392.889L389.367 82.936C389.188 82.8074 389.099 82.6716 389.099 82.5287C389.099 82.4287 389.188 82.2858 389.367 82.1H396.762C396.433 81.5569 396.268 81.1354 396.268 80.8353Z" fill="black"/>
<path d="M399.107 99.9133C399.117 99.8527 399.131 99.7719 399.151 99.6708C399.17 99.5698 399.228 99.3779 399.325 99.095C399.422 98.8121 399.519 98.5747 399.617 98.3828C399.714 98.1908 399.874 98.0039 400.097 97.8221C400.32 97.6402 400.544 97.5544 400.767 97.5645C401.117 97.5645 401.408 97.6554 401.641 97.8372C401.874 98.0191 402.02 98.1908 402.078 98.3525C402.136 98.5141 402.165 98.6202 402.165 98.6707C402.165 98.6909 402.17 98.701 402.18 98.701L402.34 98.5343C402.932 97.8878 403.607 97.5645 404.364 97.5645C404.889 97.5645 405.311 97.7009 405.632 97.9736C405.952 98.2464 406.117 98.6454 406.127 99.1708C406.136 99.6961 405.952 100.489 405.573 101.55C405.195 102.611 405.01 103.252 405.02 103.474C405.02 103.737 405.102 103.868 405.267 103.868C405.326 103.868 405.369 103.863 405.399 103.853C405.68 103.803 405.933 103.611 406.156 103.277C406.379 102.944 406.549 102.54 406.666 102.065C406.685 101.984 406.782 101.944 406.957 101.944C407.151 101.944 407.248 101.984 407.248 102.065C407.248 102.075 407.229 102.151 407.19 102.292C407.112 102.585 407.005 102.873 406.869 103.156C406.734 103.439 406.51 103.722 406.2 104.005C405.889 104.288 405.554 104.424 405.195 104.414C404.738 104.414 404.408 104.278 404.204 104.005C404 103.732 403.898 103.449 403.898 103.156C403.898 102.964 404.073 102.358 404.423 101.338C404.772 100.317 404.952 99.5496 404.962 99.0344C404.962 98.4383 404.748 98.1403 404.321 98.1403H404.248C403.413 98.1403 402.709 98.6505 402.136 99.6708L402.034 99.8527L401.554 101.883C401.233 103.207 401.049 103.919 401 104.02C400.874 104.293 400.665 104.429 400.374 104.429C400.248 104.429 400.146 104.399 400.068 104.338C399.99 104.278 399.937 104.217 399.908 104.156C399.879 104.096 399.869 104.045 399.879 104.005C399.879 103.873 400.063 103.05 400.432 101.535C400.801 100.019 400.995 99.196 401.015 99.0647C401.024 99.0142 401.029 98.898 401.029 98.7162C401.029 98.3222 400.913 98.1252 400.68 98.1252C400.311 98.1252 400.005 98.6303 399.762 99.6405C399.704 99.8426 399.675 99.9487 399.675 99.9588C399.655 100.019 399.563 100.05 399.398 100.05H399.194C399.136 99.9891 399.107 99.9436 399.107 99.9133Z" fill="black"/>
<path d="M409.807 84.9929L409.89 84.9715C409.958 84.9715 410.027 84.9715 410.096 84.9715H410.343L410.92 85.4859C412.211 86.7005 413.151 88.2152 413.742 90.03C414.332 91.8447 414.628 93.731 414.628 95.6886C414.628 96.6603 414.559 97.5963 414.422 98.4965C414.284 99.3968 414.126 100.161 413.948 100.79C413.769 101.419 413.515 102.047 413.186 102.676C412.856 103.305 412.595 103.784 412.403 104.112C412.211 104.441 411.929 104.805 411.558 105.205C411.187 105.606 410.968 105.841 410.899 105.913C410.83 105.984 410.672 106.12 410.425 106.32C410.384 106.363 410.357 106.391 410.343 106.406H410.096C409.986 106.406 409.91 106.406 409.869 106.406C409.828 106.406 409.794 106.384 409.766 106.341C409.739 106.299 409.718 106.234 409.704 106.149C409.718 106.134 409.794 106.041 409.931 105.87C412.059 103.569 413.124 100.176 413.124 95.6886C413.124 91.2017 412.059 87.808 409.931 85.5073C409.794 85.3359 409.718 85.243 409.704 85.2287C409.704 85.1144 409.739 85.0358 409.807 84.9929Z" fill="black"/>
</svg>
