<svg width="739" height="440" viewBox="0 0 739 440" fill="none" xmlns="http://www.w3.org/2000/svg">
<rect opacity="0.4" x="7" y="314" width="730.915" height="40" fill="#F2F4F8"/>
<rect opacity="0.4" x="7" y="234" width="730.915" height="40" fill="#F2F4F8"/>
<rect opacity="0.4" x="7" y="154" width="730.915" height="40" fill="#F2F4F8"/>
<rect opacity="0.4" x="7" y="74" width="730.915" height="40" fill="#F2F4F8"/>
<line x1="190.229" y1="30.3018" x2="190.229" y2="382.665" stroke="#DDE1E6"/>
<line x1="372.957" y1="30.3018" x2="372.957" y2="382.665" stroke="#DDE1E6"/>
<line x1="555.686" y1="30.3018" x2="555.686" y2="382.665" stroke="#DDE1E6"/>
<rect x="7.5" y="30.8027" width="729.915" height="351.363" stroke="#DDE1E6"/>
<path d="M7.77068 84.7188C198.128 295.113 442.147 349.32 709.857 355.226" stroke="#198038"/>
<path d="M7.77068 281.241H710.628" stroke="#198038" stroke-dasharray="6 6"/>
<path d="M7.35355 29.6465C7.15829 29.4512 6.84171 29.4512 6.64645 29.6465L3.46447 32.8284C3.2692 33.0237 3.2692 33.3403 3.46447 33.5355C3.65973 33.7308 3.97631 33.7308 4.17157 33.5355L7 30.7071L9.82843 33.5355C10.0237 33.7308 10.3403 33.7308 10.5355 33.5355C10.7308 33.3403 10.7308 33.0237 10.5355 32.8284L7.35355 29.6465ZM7.5 381L7.5 30H6.5L6.5 381H7.5Z" fill="black"/>
<path d="M738.267 383.325C738.463 383.13 738.463 382.813 738.268 382.618L735.093 379.429C734.898 379.233 734.581 379.233 734.386 379.428C734.19 379.622 734.189 379.939 734.384 380.135L737.207 382.969L734.373 385.792C734.177 385.986 734.176 386.303 734.371 386.499C734.566 386.694 734.883 386.695 735.078 386.5L738.267 383.325ZM6.99898 381.974L737.913 383.47L737.915 382.47L7.00102 380.974L6.99898 381.974Z" fill="black"/>
<path d="M1.116 13V4.624H2.124V12.112H5.688V13H1.116ZM9.56253 13.144C9.13853 13.144 8.75453 13.068 8.41053 12.916C8.07453 12.764 7.78253 12.548 7.53453 12.268C7.29453 11.98 7.10653 11.64 6.97053 11.248C6.84253 10.848 6.77853 10.4 6.77853 9.904C6.77853 9.416 6.84253 8.972 6.97053 8.572C7.10653 8.172 7.29453 7.832 7.53453 7.552C7.78253 7.264 8.07453 7.044 8.41053 6.892C8.75453 6.74 9.13853 6.664 9.56253 6.664C9.97853 6.664 10.3505 6.74 10.6785 6.892C11.0065 7.044 11.2865 7.256 11.5185 7.528C11.7505 7.792 11.9265 8.108 12.0465 8.476C12.1745 8.844 12.2385 9.248 12.2385 9.688V10.144H7.78653V10.432C7.78653 10.696 7.82653 10.944 7.90653 11.176C7.99453 11.4 8.11453 11.596 8.26653 11.764C8.42653 11.932 8.61853 12.064 8.84253 12.16C9.07453 12.256 9.33453 12.304 9.62253 12.304C10.0145 12.304 10.3545 12.212 10.6425 12.028C10.9385 11.844 11.1665 11.58 11.3265 11.236L12.0105 11.728C11.8105 12.152 11.4985 12.496 11.0745 12.76C10.6505 13.016 10.1465 13.144 9.56253 13.144ZM9.56253 7.468C9.29853 7.468 9.05853 7.516 8.84253 7.612C8.62653 7.7 8.43853 7.828 8.27853 7.996C8.12653 8.164 8.00653 8.364 7.91853 8.596C7.83053 8.82 7.78653 9.068 7.78653 9.34V9.424H11.2065V9.292C11.2065 8.74 11.0545 8.3 10.7505 7.972C10.4545 7.636 10.0585 7.468 9.56253 7.468ZM18.6405 13C18.2805 13 18.0205 12.904 17.8605 12.712C17.7085 12.52 17.6125 12.28 17.5725 11.992H17.5125C17.3765 12.376 17.1525 12.664 16.8405 12.856C16.5285 13.048 16.1565 13.144 15.7245 13.144C15.0685 13.144 14.5565 12.976 14.1885 12.64C13.8285 12.304 13.6485 11.848 13.6485 11.272C13.6485 10.688 13.8605 10.24 14.2845 9.928C14.7165 9.616 15.3845 9.46 16.2885 9.46H17.5125V8.848C17.5125 8.408 17.3925 8.072 17.1525 7.84C16.9125 7.608 16.5445 7.492 16.0485 7.492C15.6725 7.492 15.3565 7.576 15.1005 7.744C14.8525 7.912 14.6445 8.136 14.4765 8.416L13.9005 7.876C14.0685 7.54 14.3365 7.256 14.7045 7.024C15.0725 6.784 15.5365 6.664 16.0965 6.664C16.8485 6.664 17.4325 6.848 17.8485 7.216C18.2645 7.584 18.4725 8.096 18.4725 8.752V12.16H19.1805V13H18.6405ZM15.8805 12.328C16.1205 12.328 16.3405 12.3 16.5405 12.244C16.7405 12.188 16.9125 12.108 17.0565 12.004C17.2005 11.9 17.3125 11.78 17.3925 11.644C17.4725 11.508 17.5125 11.36 17.5125 11.2V10.18H16.2405C15.6885 10.18 15.2845 10.26 15.0285 10.42C14.7805 10.58 14.6565 10.812 14.6565 11.116V11.368C14.6565 11.672 14.7645 11.908 14.9805 12.076C15.2045 12.244 15.5045 12.328 15.8805 12.328ZM20.8706 13V6.808H21.8306V7.948H21.8906C22.0026 7.652 22.2026 7.388 22.4906 7.156C22.7786 6.924 23.1746 6.808 23.6786 6.808H24.0506V7.768H23.4866C22.9666 7.768 22.5586 7.868 22.2626 8.068C21.9746 8.26 21.8306 8.504 21.8306 8.8V13H20.8706ZM25.5969 13V6.808H26.5569V7.816H26.6049C26.7569 7.464 26.9689 7.184 27.2409 6.976C27.5209 6.768 27.8929 6.664 28.3569 6.664C28.9969 6.664 29.5009 6.872 29.8689 7.288C30.2449 7.696 30.4329 8.276 30.4329 9.028V13H29.4729V9.196C29.4729 8.084 29.0049 7.528 28.0689 7.528C27.8769 7.528 27.6889 7.552 27.5049 7.6C27.3289 7.648 27.1689 7.72 27.0249 7.816C26.8809 7.912 26.7649 8.036 26.6769 8.188C26.5969 8.332 26.5569 8.504 26.5569 8.704V13H25.5969ZM33.2172 5.356C33.0092 5.356 32.8572 5.308 32.7612 5.212C32.6732 5.108 32.6292 4.976 32.6292 4.816V4.66C32.6292 4.5 32.6732 4.372 32.7612 4.276C32.8572 4.172 33.0092 4.12 33.2172 4.12C33.4252 4.12 33.5732 4.172 33.6612 4.276C33.7572 4.372 33.8052 4.5 33.8052 4.66V4.816C33.8052 4.976 33.7572 5.108 33.6612 5.212C33.5732 5.308 33.4252 5.356 33.2172 5.356ZM32.7372 6.808H33.6972V13H32.7372V6.808ZM36.0572 13V6.808H37.0172V7.816H37.0652C37.2172 7.464 37.4292 7.184 37.7012 6.976C37.9812 6.768 38.3532 6.664 38.8172 6.664C39.4572 6.664 39.9612 6.872 40.3292 7.288C40.7052 7.696 40.8932 8.276 40.8932 9.028V13H39.9332V9.196C39.9332 8.084 39.4652 7.528 38.5292 7.528C38.3372 7.528 38.1492 7.552 37.9652 7.6C37.7892 7.648 37.6292 7.72 37.4852 7.816C37.3412 7.912 37.2252 8.036 37.1372 8.188C37.0572 8.332 37.0172 8.504 37.0172 8.704V13H36.0572ZM48.4175 13.684C48.4175 14.324 48.1655 14.792 47.6615 15.088C47.1655 15.392 46.4175 15.544 45.4175 15.544C44.4495 15.544 43.7535 15.412 43.3295 15.148C42.9055 14.884 42.6935 14.508 42.6935 14.02C42.6935 13.684 42.7815 13.42 42.9575 13.228C43.1335 13.044 43.3735 12.908 43.6775 12.82V12.688C43.3095 12.512 43.1255 12.224 43.1255 11.824C43.1255 11.512 43.2255 11.276 43.4255 11.116C43.6255 10.948 43.8815 10.824 44.1935 10.744V10.696C43.8255 10.52 43.5375 10.268 43.3295 9.94C43.1295 9.612 43.0295 9.232 43.0295 8.8C43.0295 8.488 43.0855 8.2 43.1975 7.936C43.3095 7.672 43.4655 7.448 43.6655 7.264C43.8735 7.072 44.1175 6.924 44.3975 6.82C44.6855 6.716 45.0055 6.664 45.3575 6.664C45.7975 6.664 46.1895 6.744 46.5335 6.904V6.796C46.5335 6.556 46.5895 6.36 46.7015 6.208C46.8135 6.048 46.9975 5.968 47.2535 5.968H48.1775V6.808H47.0015V7.204C47.2255 7.396 47.3975 7.628 47.5175 7.9C47.6455 8.164 47.7095 8.464 47.7095 8.8C47.7095 9.112 47.6535 9.4 47.5415 9.664C47.4295 9.928 47.2695 10.156 47.0615 10.348C46.8615 10.532 46.6175 10.676 46.3295 10.78C46.0415 10.884 45.7215 10.936 45.3695 10.936C45.1695 10.936 44.9695 10.916 44.7695 10.876C44.5615 10.932 44.3735 11.016 44.2055 11.128C44.0375 11.232 43.9535 11.38 43.9535 11.572C43.9535 11.756 44.0415 11.88 44.2175 11.944C44.3935 12.008 44.6215 12.04 44.9015 12.04H46.2215C46.9895 12.04 47.5455 12.188 47.8895 12.484C48.2415 12.772 48.4175 13.172 48.4175 13.684ZM47.5175 13.756C47.5175 13.508 47.4215 13.308 47.2295 13.156C47.0455 13.012 46.7135 12.94 46.2335 12.94H44.1695C43.7855 13.116 43.5935 13.396 43.5935 13.78C43.5935 14.052 43.6935 14.284 43.8935 14.476C44.1015 14.668 44.4495 14.764 44.9375 14.764H45.8255C46.3615 14.764 46.7775 14.68 47.0735 14.512C47.3695 14.344 47.5175 14.092 47.5175 13.756ZM45.3695 10.168C45.7775 10.168 46.1015 10.072 46.3415 9.88C46.5815 9.68 46.7015 9.376 46.7015 8.968V8.632C46.7015 8.224 46.5815 7.924 46.3415 7.732C46.1015 7.532 45.7775 7.432 45.3695 7.432C44.9615 7.432 44.6375 7.532 44.3975 7.732C44.1575 7.924 44.0375 8.224 44.0375 8.632V8.968C44.0375 9.376 44.1575 9.68 44.3975 9.88C44.6375 10.072 44.9615 10.168 45.3695 10.168ZM53.0133 13V6.808H53.9733V7.948H54.0333C54.1453 7.652 54.3453 7.388 54.6333 7.156C54.9213 6.924 55.3173 6.808 55.8213 6.808H56.1933V7.768H55.6293C55.1093 7.768 54.7013 7.868 54.4053 8.068C54.1173 8.26 53.9733 8.504 53.9733 8.8V13H53.0133ZM62.1927 13C61.8327 13 61.5727 12.904 61.4127 12.712C61.2607 12.52 61.1647 12.28 61.1247 11.992H61.0647C60.9287 12.376 60.7047 12.664 60.3927 12.856C60.0807 13.048 59.7087 13.144 59.2767 13.144C58.6207 13.144 58.1087 12.976 57.7407 12.64C57.3807 12.304 57.2007 11.848 57.2007 11.272C57.2007 10.688 57.4127 10.24 57.8367 9.928C58.2687 9.616 58.9367 9.46 59.8407 9.46H61.0647V8.848C61.0647 8.408 60.9447 8.072 60.7047 7.84C60.4647 7.608 60.0967 7.492 59.6007 7.492C59.2247 7.492 58.9087 7.576 58.6527 7.744C58.4047 7.912 58.1967 8.136 58.0287 8.416L57.4527 7.876C57.6207 7.54 57.8887 7.256 58.2567 7.024C58.6247 6.784 59.0887 6.664 59.6487 6.664C60.4007 6.664 60.9847 6.848 61.4007 7.216C61.8167 7.584 62.0247 8.096 62.0247 8.752V12.16H62.7327V13H62.1927ZM59.4327 12.328C59.6727 12.328 59.8927 12.3 60.0927 12.244C60.2927 12.188 60.4647 12.108 60.6087 12.004C60.7527 11.9 60.8647 11.78 60.9447 11.644C61.0247 11.508 61.0647 11.36 61.0647 11.2V10.18H59.7927C59.2407 10.18 58.8367 10.26 58.5807 10.42C58.3327 10.58 58.2087 10.812 58.2087 11.116V11.368C58.2087 11.672 58.3167 11.908 58.5327 12.076C58.7567 12.244 59.0567 12.328 59.4327 12.328ZM65.7908 13C65.4548 13 65.1988 12.908 65.0228 12.724C64.8548 12.532 64.7708 12.284 64.7708 11.98V7.648H63.7508V6.808H64.3268C64.5348 6.808 64.6748 6.768 64.7468 6.688C64.8268 6.6 64.8668 6.452 64.8668 6.244V5.092H65.7308V6.808H67.0868V7.648H65.7308V12.16H66.9908V13H65.7908ZM71.231 13.144C70.807 13.144 70.423 13.068 70.079 12.916C69.743 12.764 69.451 12.548 69.203 12.268C68.963 11.98 68.775 11.64 68.639 11.248C68.511 10.848 68.447 10.4 68.447 9.904C68.447 9.416 68.511 8.972 68.639 8.572C68.775 8.172 68.963 7.832 69.203 7.552C69.451 7.264 69.743 7.044 70.079 6.892C70.423 6.74 70.807 6.664 71.231 6.664C71.647 6.664 72.019 6.74 72.347 6.892C72.675 7.044 72.955 7.256 73.187 7.528C73.419 7.792 73.595 8.108 73.715 8.476C73.843 8.844 73.907 9.248 73.907 9.688V10.144H69.455V10.432C69.455 10.696 69.495 10.944 69.575 11.176C69.663 11.4 69.783 11.596 69.935 11.764C70.095 11.932 70.287 12.064 70.511 12.16C70.743 12.256 71.003 12.304 71.291 12.304C71.683 12.304 72.023 12.212 72.311 12.028C72.607 11.844 72.835 11.58 72.995 11.236L73.679 11.728C73.479 12.152 73.167 12.496 72.743 12.76C72.319 13.016 71.815 13.144 71.231 13.144ZM71.231 7.468C70.967 7.468 70.727 7.516 70.511 7.612C70.295 7.7 70.107 7.828 69.947 7.996C69.795 8.164 69.675 8.364 69.587 8.596C69.499 8.82 69.455 9.068 69.455 9.34V9.424H72.875V9.292C72.875 8.74 72.723 8.3 72.419 7.972C72.123 7.636 71.727 7.468 71.231 7.468Z" fill="black"/>
<path d="M339.72 428V427.16H340.896V420.464H339.72V419.624H343.08V420.464H341.904V427.16H343.08V428H339.72ZM346.513 428C346.177 428 345.921 427.908 345.745 427.724C345.577 427.532 345.493 427.284 345.493 426.98V422.648H344.473V421.808H345.049C345.257 421.808 345.397 421.768 345.469 421.688C345.549 421.6 345.589 421.452 345.589 421.244V420.092H346.453V421.808H347.809V422.648H346.453V427.16H347.713V428H346.513ZM351.953 428.144C351.529 428.144 351.145 428.068 350.801 427.916C350.465 427.764 350.173 427.548 349.925 427.268C349.685 426.98 349.497 426.64 349.361 426.248C349.233 425.848 349.169 425.4 349.169 424.904C349.169 424.416 349.233 423.972 349.361 423.572C349.497 423.172 349.685 422.832 349.925 422.552C350.173 422.264 350.465 422.044 350.801 421.892C351.145 421.74 351.529 421.664 351.953 421.664C352.369 421.664 352.741 421.74 353.069 421.892C353.397 422.044 353.677 422.256 353.909 422.528C354.141 422.792 354.317 423.108 354.437 423.476C354.565 423.844 354.629 424.248 354.629 424.688V425.144H350.177V425.432C350.177 425.696 350.217 425.944 350.297 426.176C350.385 426.4 350.505 426.596 350.657 426.764C350.817 426.932 351.009 427.064 351.233 427.16C351.465 427.256 351.725 427.304 352.013 427.304C352.405 427.304 352.745 427.212 353.033 427.028C353.329 426.844 353.557 426.58 353.717 426.236L354.401 426.728C354.201 427.152 353.889 427.496 353.465 427.76C353.041 428.016 352.537 428.144 351.953 428.144ZM351.953 422.468C351.689 422.468 351.449 422.516 351.233 422.612C351.017 422.7 350.829 422.828 350.669 422.996C350.517 423.164 350.397 423.364 350.309 423.596C350.221 423.82 350.177 424.068 350.177 424.34V424.424H353.597V424.292C353.597 423.74 353.445 423.3 353.141 422.972C352.845 422.636 352.449 422.468 351.953 422.468ZM356.531 428V421.808H357.491V422.948H357.551C357.663 422.652 357.863 422.388 358.151 422.156C358.439 421.924 358.835 421.808 359.339 421.808H359.711V422.768H359.147C358.627 422.768 358.219 422.868 357.923 423.068C357.635 423.26 357.491 423.504 357.491 423.8V428H356.531ZM365.71 428C365.35 428 365.09 427.904 364.93 427.712C364.778 427.52 364.682 427.28 364.642 426.992H364.582C364.446 427.376 364.222 427.664 363.91 427.856C363.598 428.048 363.226 428.144 362.794 428.144C362.138 428.144 361.626 427.976 361.258 427.64C360.898 427.304 360.718 426.848 360.718 426.272C360.718 425.688 360.93 425.24 361.354 424.928C361.786 424.616 362.454 424.46 363.358 424.46H364.582V423.848C364.582 423.408 364.462 423.072 364.222 422.84C363.982 422.608 363.614 422.492 363.118 422.492C362.742 422.492 362.426 422.576 362.17 422.744C361.922 422.912 361.714 423.136 361.546 423.416L360.97 422.876C361.138 422.54 361.406 422.256 361.774 422.024C362.142 421.784 362.606 421.664 363.166 421.664C363.918 421.664 364.502 421.848 364.918 422.216C365.334 422.584 365.542 423.096 365.542 423.752V427.16H366.25V428H365.71ZM362.95 427.328C363.19 427.328 363.41 427.3 363.61 427.244C363.81 427.188 363.982 427.108 364.126 427.004C364.27 426.9 364.382 426.78 364.462 426.644C364.542 426.508 364.582 426.36 364.582 426.2V425.18H363.31C362.758 425.18 362.354 425.26 362.098 425.42C361.85 425.58 361.726 425.812 361.726 426.116V426.368C361.726 426.672 361.834 426.908 362.05 427.076C362.274 427.244 362.574 427.328 362.95 427.328ZM369.308 428C368.972 428 368.716 427.908 368.54 427.724C368.372 427.532 368.288 427.284 368.288 426.98V422.648H367.268V421.808H367.844C368.052 421.808 368.192 421.768 368.264 421.688C368.344 421.6 368.384 421.452 368.384 421.244V420.092H369.248V421.808H370.604V422.648H369.248V427.16H370.508V428H369.308ZM372.947 420.356C372.739 420.356 372.587 420.308 372.491 420.212C372.403 420.108 372.359 419.976 372.359 419.816V419.66C372.359 419.5 372.403 419.372 372.491 419.276C372.587 419.172 372.739 419.12 372.947 419.12C373.155 419.12 373.303 419.172 373.391 419.276C373.487 419.372 373.535 419.5 373.535 419.66V419.816C373.535 419.976 373.487 420.108 373.391 420.212C373.303 420.308 373.155 420.356 372.947 420.356ZM372.467 421.808H373.427V428H372.467V421.808ZM378.127 428.144C377.711 428.144 377.331 428.068 376.987 427.916C376.643 427.764 376.347 427.548 376.099 427.268C375.859 426.98 375.671 426.64 375.535 426.248C375.399 425.848 375.331 425.4 375.331 424.904C375.331 424.416 375.399 423.972 375.535 423.572C375.671 423.172 375.859 422.832 376.099 422.552C376.347 422.264 376.643 422.044 376.987 421.892C377.331 421.74 377.711 421.664 378.127 421.664C378.543 421.664 378.919 421.74 379.255 421.892C379.599 422.044 379.895 422.264 380.143 422.552C380.391 422.832 380.583 423.172 380.719 423.572C380.855 423.972 380.923 424.416 380.923 424.904C380.923 425.4 380.855 425.848 380.719 426.248C380.583 426.64 380.391 426.98 380.143 427.268C379.895 427.548 379.599 427.764 379.255 427.916C378.919 428.068 378.543 428.144 378.127 428.144ZM378.127 427.292C378.647 427.292 379.071 427.132 379.399 426.812C379.727 426.492 379.891 426.004 379.891 425.348V424.46C379.891 423.804 379.727 423.316 379.399 422.996C379.071 422.676 378.647 422.516 378.127 422.516C377.607 422.516 377.183 422.676 376.855 422.996C376.527 423.316 376.363 423.804 376.363 424.46V425.348C376.363 426.004 376.527 426.492 376.855 426.812C377.183 427.132 377.607 427.292 378.127 427.292ZM382.822 428V421.808H383.782V422.816H383.83C383.982 422.464 384.194 422.184 384.466 421.976C384.746 421.768 385.118 421.664 385.582 421.664C386.222 421.664 386.726 421.872 387.094 422.288C387.47 422.696 387.658 423.276 387.658 424.028V428H386.698V424.196C386.698 423.084 386.23 422.528 385.294 422.528C385.102 422.528 384.914 422.552 384.73 422.6C384.554 422.648 384.394 422.72 384.25 422.816C384.106 422.912 383.99 423.036 383.902 423.188C383.822 423.332 383.782 423.504 383.782 423.704V428H382.822ZM391.823 428.144C391.247 428.144 390.763 428.036 390.371 427.82C389.987 427.596 389.655 427.3 389.375 426.932L390.059 426.38C390.299 426.684 390.567 426.92 390.863 427.088C391.159 427.248 391.503 427.328 391.895 427.328C392.303 427.328 392.619 427.24 392.843 427.064C393.075 426.888 393.191 426.64 393.191 426.32C393.191 426.08 393.111 425.876 392.951 425.708C392.799 425.532 392.519 425.412 392.111 425.348L391.619 425.276C391.331 425.236 391.067 425.176 390.827 425.096C390.587 425.008 390.375 424.896 390.191 424.76C390.015 424.616 389.875 424.44 389.771 424.232C389.675 424.024 389.627 423.776 389.627 423.488C389.627 423.184 389.683 422.92 389.795 422.696C389.907 422.464 390.059 422.272 390.251 422.12C390.451 421.968 390.687 421.856 390.959 421.784C391.231 421.704 391.523 421.664 391.835 421.664C392.339 421.664 392.759 421.752 393.095 421.928C393.439 422.104 393.739 422.348 393.995 422.66L393.359 423.236C393.223 423.044 393.023 422.872 392.759 422.72C392.495 422.56 392.163 422.48 391.763 422.48C391.363 422.48 391.059 422.568 390.851 422.744C390.651 422.912 390.551 423.144 390.551 423.44C390.551 423.744 390.651 423.964 390.851 424.1C391.059 424.236 391.355 424.336 391.739 424.4L392.219 424.472C392.907 424.576 393.395 424.776 393.683 425.072C393.971 425.36 394.115 425.74 394.115 426.212C394.115 426.812 393.911 427.284 393.503 427.628C393.095 427.972 392.535 428.144 391.823 428.144Z" fill="black"/>
<path d="M87.8597 9C87.9474 8.51219 88 8.21951 88 7.56098C88 6.09756 87.386 5 86.0526 5C84.4912 5 83.6667 6.53658 83.3509 7.14634C83.2982 5.7561 82.5789 5 81.807 5C81.2982 5 80.8947 5.34146 80.5614 6.26829C80.2456 7.14634 80 8.63415 80 8.73171C80 8.82927 80.0702 8.95122 80.193 8.95122C80.3333 8.95122 80.3509 8.92683 80.4561 8.36585C80.7193 6.92683 81.0526 5.4878 81.7544 5.4878C82.1579 5.4878 82.2982 5.87805 82.2982 6.60976C82.2982 7.14634 82.1228 8.09756 82 8.85366L81.5088 11.4878C81.4386 11.9512 81.2456 13.0488 81.1579 13.4878C81.0351 14.122 80.8421 15.2683 80.8421 15.3902C80.8421 15.7317 81.0351 16 81.2982 16C81.5088 16 81.7544 15.8537 81.8947 15.4878C81.9298 15.3659 82.0877 14.5122 82.1754 14.0244L82.5614 11.8293L83.1404 8.60976C83.1754 8.46342 83.614 7.2439 84.2632 6.46342C84.7193 5.87805 85.3158 5.4878 86 5.4878C86.7018 5.4878 86.9474 6.21951 86.9474 7.19512C86.9474 7.90244 86.8772 8.29268 86.7895 8.7561L84.7544 19.9756C84.7368 20.0976 84.7018 20.2439 84.7018 20.3902C84.7018 20.7561 84.9123 21 85.1754 21C85.3333 21 85.7018 20.9024 85.8421 20.1707L87.8597 9Z" fill="black"/>
<path d="M414.114 420C414.25 419.512 414.331 419.22 414.331 418.561C414.331 417.098 413.384 416 411.329 416C408.923 416 407.652 417.537 407.165 418.146C407.084 416.756 405.975 416 404.785 416C404.001 416 403.379 416.341 402.865 417.268C402.379 418.146 402 419.634 402 419.732C402 419.829 402.108 419.951 402.297 419.951C402.514 419.951 402.541 419.927 402.703 419.366C403.109 417.927 403.622 416.488 404.704 416.488C405.326 416.488 405.542 416.878 405.542 417.61C405.542 418.146 405.272 419.098 405.083 419.854L404.326 422.488C404.217 422.951 403.92 424.049 403.785 424.488C403.595 425.122 403.298 426.268 403.298 426.39C403.298 426.732 403.595 427 404.001 427C404.326 427 404.704 426.854 404.92 426.488C404.975 426.366 405.218 425.512 405.353 425.024L405.948 422.829L406.84 419.61C406.894 419.463 407.571 418.244 408.571 417.463C409.274 416.878 410.194 416.488 411.248 416.488C412.33 416.488 412.708 417.22 412.708 418.195C412.708 418.902 412.6 419.293 412.465 419.756L409.328 430.976C409.301 431.098 409.247 431.244 409.247 431.39C409.247 431.756 409.572 432 409.977 432C410.221 432 410.788 431.902 411.005 431.171L414.114 420Z" fill="black"/>
<path d="M119.519 144.909C119.53 144.875 119.541 144.83 119.553 144.773C119.564 144.717 119.592 144.592 119.638 144.4C119.683 144.207 119.739 144.031 119.807 143.873C119.875 143.714 119.96 143.527 120.062 143.312C120.164 143.097 120.278 142.927 120.402 142.802C120.527 142.678 120.674 142.553 120.844 142.428C121.014 142.304 121.201 142.253 121.405 142.275C121.677 142.275 121.92 142.315 122.135 142.394C122.351 142.474 122.521 142.576 122.645 142.7C122.77 142.825 122.861 142.95 122.917 143.074C122.974 143.199 123.019 143.306 123.053 143.397L123.087 143.516C123.087 143.539 123.093 143.55 123.104 143.55L123.291 143.363C123.982 142.638 124.769 142.275 125.653 142.275C126.265 142.275 126.758 142.428 127.131 142.734C127.505 143.04 127.698 143.488 127.709 144.077V144.247C127.709 144.519 127.347 146.065 126.622 148.886C125.965 151.548 125.613 152.919 125.568 152.998C125.421 153.304 125.166 153.457 124.803 153.457C124.656 153.457 124.531 153.412 124.43 153.321C124.328 153.23 124.265 153.106 124.243 152.947C124.243 152.845 124.577 151.469 125.245 148.818L126.299 144.57C126.333 144.4 126.35 144.184 126.35 143.924C126.35 143.255 126.101 142.921 125.602 142.921H125.517C124.543 142.921 123.721 143.493 123.053 144.638L122.934 144.841L122.373 147.119C122 148.603 121.784 149.401 121.728 149.515C121.58 149.82 121.337 149.973 120.997 149.973C120.85 149.973 120.731 149.939 120.64 149.871C120.549 149.803 120.487 149.736 120.453 149.668C120.419 149.6 120.408 149.543 120.419 149.498C120.419 149.35 120.646 148.376 121.099 146.575C121.552 144.773 121.779 143.771 121.779 143.567C121.779 143.125 121.631 142.904 121.337 142.904C121.099 142.904 120.895 143.063 120.725 143.38C120.555 143.697 120.419 144.043 120.317 144.417C120.215 144.79 120.153 144.994 120.13 145.028C120.108 145.051 120.017 145.062 119.858 145.062H119.621C119.553 144.994 119.519 144.943 119.519 144.909Z" fill="#0E6027"/>
<path d="M133.279 147.68C133.279 147.68 133.279 147.158 133.279 146.116C133.279 145.074 133.568 144.173 134.146 143.414C134.724 142.655 135.466 142.276 136.372 142.276C136.621 142.276 136.859 142.298 137.086 142.344C137.312 142.389 137.533 142.463 137.749 142.565C137.964 142.667 138.151 142.768 138.309 142.87C138.468 142.972 138.638 143.097 138.819 143.244C139 143.392 139.136 143.528 139.227 143.652C139.318 143.777 139.437 143.918 139.584 144.077C139.731 144.236 139.816 144.355 139.839 144.434C139.861 144.513 139.935 144.615 140.06 144.74C140.184 144.864 140.224 144.932 140.179 144.944L140.298 144.74C141.272 143.097 142.461 142.276 143.866 142.276C143.957 142.276 144.2 142.304 144.597 142.361V143.023H144.529C144.438 143.001 144.302 142.989 144.121 142.989C143.702 142.989 143.3 143.086 142.915 143.278C142.529 143.471 142.212 143.697 141.963 143.958C141.714 144.219 141.487 144.496 141.283 144.791C141.079 145.085 140.943 145.317 140.875 145.487C140.807 145.657 140.762 145.759 140.739 145.793C140.739 145.839 140.881 146.082 141.164 146.524C141.447 146.966 141.64 147.243 141.742 147.357C142.546 148.478 143.351 149.039 144.155 149.039C144.393 149.039 144.523 149.028 144.546 149.005H144.597V149.872C144.291 149.94 144.042 149.974 143.849 149.974C142.422 149.974 141.17 149.113 140.094 147.391C140.071 147.345 140.054 147.317 140.043 147.306L139.924 147.51C138.961 149.152 137.76 149.974 136.321 149.974C135.438 149.974 134.713 149.594 134.146 148.835L133.279 147.68ZM133.908 146.167C133.908 146.96 134.095 147.674 134.469 148.308C134.843 148.943 135.375 149.26 136.066 149.26C136.497 149.26 136.905 149.164 137.29 148.971C137.675 148.778 137.998 148.552 138.258 148.291C138.519 148.031 138.746 147.753 138.938 147.459C139.131 147.164 139.267 146.932 139.346 146.762C139.425 146.592 139.471 146.49 139.482 146.456C139.482 146.411 139.34 146.167 139.057 145.725C138.774 145.283 138.581 145.006 138.479 144.893C138.026 144.247 137.607 143.805 137.222 143.567C136.837 143.329 136.412 143.21 135.947 143.21C135.381 143.21 134.899 143.494 134.503 144.06C134.106 144.626 133.908 145.329 133.908 146.167Z" fill="#0E6027"/>
<path d="M150.847 147.136C150.847 145.844 151.334 144.711 152.308 143.737C153.283 142.763 154.353 142.276 155.52 142.276C156.313 142.276 156.947 142.502 157.423 142.955C157.899 143.409 158.222 143.964 158.392 144.621C158.46 144.949 158.5 145.329 158.511 145.759V146.252C159.066 145.414 159.491 144.473 159.785 143.431C159.831 143.273 159.865 143.182 159.887 143.159C159.91 143.137 160.001 143.12 160.159 143.108C160.397 143.108 160.516 143.154 160.516 143.244C160.516 143.346 160.465 143.567 160.363 143.907C160.261 144.247 160.057 144.728 159.751 145.351C159.445 145.975 159.1 146.541 158.715 147.051L158.528 147.289L158.545 147.697C158.567 148.331 158.613 148.761 158.681 148.988C158.749 149.215 158.856 149.334 159.004 149.345C159.162 149.322 159.31 149.26 159.445 149.158C159.581 149.056 159.678 148.926 159.734 148.767C159.757 148.688 159.785 148.642 159.819 148.631C159.853 148.62 159.938 148.609 160.074 148.597C160.301 148.597 160.414 148.642 160.414 148.733C160.414 148.801 160.38 148.909 160.312 149.056C160.176 149.328 159.978 149.543 159.717 149.702C159.457 149.86 159.208 149.945 158.97 149.957H158.851C158.092 149.957 157.576 149.549 157.304 148.733L157.253 148.614L157.066 148.75C156.953 148.841 156.783 148.954 156.557 149.09C156.33 149.226 156.075 149.356 155.792 149.481C155.509 149.605 155.18 149.719 154.806 149.821C154.433 149.923 154.07 149.974 153.719 149.974C152.824 149.974 152.121 149.69 151.612 149.124C151.102 148.558 150.847 147.895 150.847 147.136ZM153.804 149.345C154.359 149.345 154.914 149.226 155.469 148.988C156.024 148.75 156.438 148.507 156.71 148.257L157.117 147.883C157.095 146.263 157.055 145.255 156.998 144.859C156.84 143.556 156.319 142.904 155.435 142.904C154.653 142.904 153.968 143.318 153.379 144.145C153.073 144.598 152.824 145.21 152.631 145.98C152.439 146.751 152.337 147.34 152.325 147.748C152.325 148.303 152.467 148.705 152.75 148.954C153.033 149.203 153.385 149.334 153.804 149.345Z" fill="#0E6027"/>
<path d="M161.397 139.32C161.405 139.272 161.417 139.208 161.433 139.128C161.449 139.048 161.497 138.896 161.577 138.671C161.657 138.447 161.737 138.259 161.818 138.107C161.898 137.955 162.03 137.806 162.214 137.662C162.398 137.518 162.582 137.45 162.767 137.458C163.055 137.458 163.295 137.53 163.487 137.674C163.68 137.818 163.8 137.955 163.848 138.083C163.896 138.211 163.92 138.295 163.92 138.335C163.92 138.351 163.924 138.359 163.932 138.359L164.064 138.227C164.553 137.714 165.109 137.458 165.734 137.458C166.167 137.458 166.515 137.566 166.779 137.782C167.044 137.999 167.18 138.315 167.188 138.731C167.196 139.148 167.044 139.777 166.731 140.618C166.419 141.459 166.267 141.967 166.275 142.143C166.275 142.352 166.343 142.456 166.479 142.456C166.527 142.456 166.563 142.452 166.587 142.444C166.819 142.404 167.028 142.252 167.212 141.987C167.396 141.723 167.536 141.403 167.632 141.026C167.648 140.962 167.728 140.93 167.873 140.93C168.033 140.93 168.113 140.962 168.113 141.026C168.113 141.034 168.097 141.094 168.065 141.206C168.001 141.439 167.913 141.667 167.801 141.891C167.688 142.115 167.504 142.34 167.248 142.564C166.992 142.788 166.715 142.896 166.419 142.888C166.042 142.888 165.77 142.78 165.602 142.564C165.434 142.348 165.35 142.123 165.35 141.891C165.35 141.739 165.494 141.258 165.782 140.449C166.07 139.641 166.219 139.032 166.227 138.623C166.227 138.151 166.05 137.914 165.698 137.914H165.638C164.949 137.914 164.368 138.319 163.896 139.128L163.812 139.272L163.415 140.882C163.151 141.931 162.999 142.496 162.959 142.576C162.855 142.792 162.683 142.9 162.442 142.9C162.338 142.9 162.254 142.876 162.19 142.828C162.126 142.78 162.082 142.732 162.058 142.684C162.034 142.636 162.026 142.596 162.034 142.564C162.034 142.46 162.186 141.807 162.49 140.606C162.795 139.404 162.955 138.751 162.971 138.647C162.979 138.607 162.983 138.515 162.983 138.371C162.983 138.059 162.887 137.902 162.695 137.902C162.39 137.902 162.138 138.303 161.938 139.104C161.89 139.264 161.866 139.348 161.866 139.356C161.85 139.404 161.773 139.428 161.637 139.428H161.469C161.421 139.38 161.397 139.344 161.397 139.32Z" fill="#0E6027"/>
<path d="M527.978 247.843C527.99 247.805 528.003 247.753 528.016 247.689C528.029 247.625 528.061 247.484 528.112 247.265C528.164 247.047 528.228 246.848 528.305 246.669C528.382 246.489 528.478 246.277 528.594 246.033C528.709 245.789 528.838 245.597 528.979 245.455C529.12 245.314 529.287 245.173 529.479 245.032C529.672 244.891 529.884 244.833 530.115 244.859C530.423 244.859 530.699 244.904 530.943 244.993C531.187 245.083 531.379 245.199 531.52 245.34C531.662 245.481 531.764 245.622 531.829 245.764C531.893 245.905 531.944 246.027 531.983 246.129L532.021 246.264C532.021 246.29 532.027 246.303 532.04 246.303L532.252 246.091C533.035 245.269 533.927 244.859 534.929 244.859C535.622 244.859 536.18 245.032 536.604 245.378C537.027 245.725 537.246 246.232 537.258 246.9V247.092C537.258 247.4 536.848 249.152 536.026 252.349C535.282 255.365 534.884 256.919 534.832 257.008C534.665 257.355 534.377 257.528 533.966 257.528C533.799 257.528 533.658 257.477 533.542 257.374C533.427 257.272 533.356 257.13 533.33 256.951C533.33 256.835 533.709 255.275 534.466 252.272L535.66 247.458C535.699 247.265 535.718 247.022 535.718 246.726C535.718 245.969 535.436 245.59 534.871 245.59H534.775C533.671 245.59 532.74 246.239 531.983 247.535L531.848 247.766L531.212 250.346C530.789 252.028 530.545 252.933 530.481 253.061C530.314 253.408 530.038 253.581 529.653 253.581C529.486 253.581 529.351 253.543 529.248 253.466C529.146 253.389 529.075 253.311 529.037 253.234C528.998 253.157 528.985 253.093 528.998 253.042C528.998 252.875 529.255 251.771 529.768 249.73C530.282 247.689 530.538 246.553 530.538 246.322C530.538 245.821 530.372 245.571 530.038 245.571C529.768 245.571 529.537 245.751 529.345 246.11C529.152 246.47 528.998 246.861 528.883 247.285C528.767 247.708 528.696 247.939 528.671 247.978C528.645 248.004 528.542 248.016 528.363 248.016H528.093C528.016 247.939 527.978 247.882 527.978 247.843Z" fill="#0E6027"/>
<path d="M543.571 246.688C543.571 246.521 543.66 246.393 543.84 246.303H556.106C556.298 246.406 556.394 246.534 556.394 246.688C556.394 246.829 556.305 246.951 556.125 247.054L550.002 247.073H543.879C543.673 247.009 543.571 246.881 543.571 246.688ZM543.571 250.423C543.571 250.231 543.673 250.103 543.879 250.038H556.125C556.305 250.167 556.394 250.295 556.394 250.423C556.394 250.59 556.298 250.719 556.106 250.809H543.84C543.66 250.719 543.571 250.59 543.571 250.423Z" fill="#0E6027"/>
<path d="M569.945 247.497C569.945 247.497 569.811 247.497 569.541 247.497C569.271 247.497 569.04 247.401 568.848 247.208C568.655 247.016 568.553 246.772 568.54 246.477C568.54 246.181 568.636 245.938 568.829 245.745C568.893 245.681 568.925 245.642 568.925 245.629C568.925 245.617 568.861 245.604 568.732 245.591C568.398 245.54 568.084 245.514 567.789 245.514C567.16 245.514 566.646 245.719 566.248 246.13C565.645 246.733 565.343 247.741 565.343 249.153C565.343 250.206 565.542 251.034 565.94 251.637C566.467 252.42 567.173 252.812 568.058 252.812C568.585 252.812 569.008 252.645 569.329 252.311C569.65 251.977 569.881 251.579 570.022 251.117C570.048 251.014 570.08 250.95 570.119 250.925C570.157 250.899 570.26 250.886 570.427 250.886H570.696C570.773 250.963 570.812 251.021 570.812 251.059C570.812 251.111 570.786 251.213 570.735 251.367C570.683 251.521 570.581 251.733 570.427 252.003C570.273 252.272 570.087 252.516 569.868 252.735C569.65 252.953 569.342 253.152 568.944 253.331C568.546 253.511 568.103 253.595 567.615 253.582C566.512 253.582 565.549 253.171 564.727 252.349C563.906 251.528 563.488 250.495 563.476 249.249C563.476 247.914 563.893 246.83 564.727 245.995C565.562 245.161 566.531 244.744 567.635 244.744C568.739 244.744 569.509 244.917 569.945 245.264C570.382 245.61 570.6 246.021 570.6 246.496C570.6 246.791 570.491 247.029 570.273 247.208L569.945 247.497Z" fill="#0E6027"/>
<path d="M571.909 249.249C571.909 248.03 572.326 246.977 573.161 246.092C573.995 245.206 575.003 244.757 576.184 244.744C577.339 244.744 578.334 245.18 579.168 246.053C580.002 246.926 580.426 247.985 580.439 249.23C580.439 250.45 580.028 251.477 579.207 252.311C578.385 253.145 577.377 253.562 576.184 253.562C574.938 253.562 573.918 253.132 573.122 252.272C572.326 251.412 571.922 250.405 571.909 249.249ZM576.184 252.792C577.75 252.792 578.533 251.746 578.533 249.654V249.038V248.556C578.533 248.274 578.526 248.03 578.513 247.825C578.501 247.619 578.456 247.375 578.379 247.093C578.302 246.81 578.199 246.579 578.071 246.4C577.942 246.22 577.743 246.04 577.474 245.861C577.204 245.681 576.89 245.552 576.53 245.475C576.466 245.463 576.363 245.456 576.222 245.456C575.837 245.456 575.471 245.533 575.125 245.687C574.573 245.97 574.213 246.361 574.046 246.862C573.879 247.362 573.796 247.953 573.796 248.633V249.018C573.796 250.251 573.918 251.117 574.162 251.618C574.573 252.401 575.246 252.792 576.184 252.792Z" fill="#0E6027"/>
<path d="M581.786 252.484H582.056C582.557 252.484 582.858 252.395 582.961 252.215V252.061C582.961 251.945 582.961 251.798 582.961 251.618C582.961 251.438 582.961 251.239 582.961 251.021C582.961 250.803 582.967 250.552 582.98 250.27C582.993 249.988 582.993 249.718 582.98 249.461C582.98 249.063 582.98 248.64 582.98 248.191C582.98 247.741 582.974 247.363 582.961 247.055V246.612C582.922 246.368 582.833 246.207 582.691 246.13C582.55 246.053 582.261 245.995 581.825 245.957H581.478V245.514C581.478 245.219 581.491 245.071 581.517 245.071L581.709 245.052C581.838 245.039 582.017 245.026 582.248 245.013C582.48 245.001 582.717 244.988 582.961 244.975C583.179 244.962 583.41 244.949 583.654 244.936C583.898 244.924 584.084 244.904 584.212 244.879C584.341 244.853 584.411 244.847 584.424 244.859H584.482V245.63C584.482 246.117 584.488 246.361 584.501 246.361C584.514 246.361 584.546 246.329 584.598 246.265C584.649 246.201 584.726 246.105 584.829 245.976C584.931 245.848 585.053 245.732 585.194 245.63C585.336 245.527 585.522 245.405 585.753 245.264C585.984 245.123 586.228 245.02 586.485 244.956C586.741 244.892 587.069 244.859 587.467 244.859C588.93 244.911 589.745 245.636 589.912 247.035C589.925 247.125 589.931 248.017 589.931 249.712V251.368C589.931 251.855 589.944 252.144 589.97 252.234C589.995 252.324 590.066 252.388 590.181 252.427C590.451 252.465 590.766 252.484 591.125 252.484H591.433V253.37H591.279L590.817 253.351C590.522 253.338 590.201 253.332 589.854 253.332C589.508 253.332 589.264 253.325 589.122 253.312C587.8 253.312 587.081 253.332 586.966 253.37H586.812V252.484H587.12C587.903 252.484 588.295 252.382 588.295 252.176C588.307 252.151 588.314 251.265 588.314 249.519C588.301 247.786 588.288 246.868 588.275 246.766C588.198 246.406 588.07 246.137 587.89 245.957C587.71 245.777 587.556 245.668 587.428 245.63C587.3 245.591 587.133 245.578 586.927 245.591C586.35 245.591 585.843 245.809 585.406 246.246C585.06 246.592 584.841 246.945 584.752 247.305C584.662 247.664 584.61 248.197 584.598 248.903V250.135V251.291C584.598 251.676 584.604 251.932 584.617 252.061C584.63 252.189 584.649 252.273 584.675 252.311C584.7 252.35 584.758 252.388 584.848 252.427C585.117 252.465 585.432 252.484 585.791 252.484H586.099V253.37H585.945L585.503 253.351C585.194 253.338 584.867 253.332 584.521 253.332C584.174 253.332 583.93 253.325 583.789 253.312C582.467 253.312 581.748 253.332 581.632 253.37H581.478V252.484H581.786Z" fill="#0E6027"/>
<path d="M597.384 247.286C597.384 246.772 597.211 246.329 596.864 245.957C596.517 245.585 596.017 245.399 595.362 245.399C594.9 245.399 594.502 245.482 594.168 245.649C593.783 245.893 593.591 246.227 593.591 246.65C593.578 246.714 593.578 246.798 593.591 246.901C593.603 247.003 593.706 247.157 593.899 247.363C594.091 247.568 594.367 247.729 594.727 247.844C594.958 247.908 595.24 247.966 595.574 248.017C595.908 248.069 596.19 248.126 596.421 248.191C596.652 248.255 596.858 248.338 597.037 248.441C597.255 248.544 597.467 248.672 597.673 248.826C597.878 248.98 598.083 249.243 598.289 249.616C598.494 249.988 598.603 250.386 598.616 250.809C598.616 251.605 598.372 252.26 597.884 252.773C597.397 253.287 596.607 253.55 595.516 253.563H595.362C594.695 253.563 594.078 253.332 593.514 252.87L593.36 253.004L593.186 253.178C593.109 253.255 593.032 253.325 592.955 253.389L592.743 253.582H592.589H592.512C592.474 253.582 592.416 253.544 592.339 253.467V251.945V250.829C592.339 250.559 592.352 250.399 592.378 250.347C592.403 250.296 592.467 250.264 592.57 250.251H592.743C592.897 250.251 593 250.277 593.051 250.328C593.103 250.379 593.135 250.456 593.148 250.559C593.161 250.662 593.206 250.835 593.283 251.079C593.36 251.323 593.482 251.592 593.648 251.888C594.098 252.542 594.72 252.87 595.516 252.87C596.761 252.87 597.384 252.369 597.384 251.368C597.384 250.995 597.268 250.694 597.037 250.463C596.781 250.155 596.248 249.924 595.439 249.77C594.63 249.616 594.098 249.468 593.841 249.327C593.379 249.108 593.013 248.813 592.743 248.441C592.474 248.069 592.339 247.671 592.339 247.247C592.339 246.747 592.448 246.323 592.666 245.976C592.885 245.63 593.161 245.373 593.494 245.206C593.828 245.039 594.149 244.924 594.457 244.86C594.765 244.795 595.048 244.763 595.304 244.763H595.516C596.03 244.763 596.479 244.86 596.864 245.052L597.153 245.206L597.326 245.071C597.454 244.956 597.596 244.847 597.75 244.744H597.904H597.981C598.019 244.744 598.077 244.783 598.154 244.86V247.401L598.039 247.517H597.499C597.422 247.44 597.384 247.363 597.384 247.286Z" fill="#0E6027"/>
<path d="M599.81 245.244C600.49 245.193 601.016 244.834 601.388 244.166C601.761 243.499 601.966 242.716 602.005 241.817V241.528H602.775V245.071H605.374V245.957H602.775V248.73C602.788 250.334 602.794 251.239 602.794 251.444C602.794 251.65 602.839 251.855 602.929 252.061C603.109 252.561 603.423 252.812 603.872 252.812C604.437 252.812 604.784 252.356 604.912 251.444C604.925 251.342 604.931 251.047 604.931 250.559V249.885H605.702V250.559V250.79C605.702 251.778 605.432 252.529 604.893 253.043C604.546 253.389 604.097 253.562 603.545 253.562C603.109 253.562 602.73 253.485 602.409 253.331C602.088 253.177 601.844 252.978 601.677 252.735C601.51 252.491 601.388 252.266 601.311 252.061C601.234 251.855 601.189 251.65 601.177 251.444C601.164 251.355 601.157 250.405 601.157 248.595V245.957H599.636V245.244H599.81Z" fill="#0E6027"/>
</svg>
