<svg width="478" height="200" viewBox="0 0 478 200" fill="none" xmlns="http://www.w3.org/2000/svg">
<rect x="0.5" y="0.5" width="151" height="199" fill="#F2F4F8" stroke="#C1C7CD"/>
<rect x="151.5" y="0.5" width="175" height="199" stroke="#C1C7CD"/>
<rect x="326.5" y="0.5" width="151" height="199" fill="#F2F4F8" stroke="#C1C7CD"/>
<path d="M15.408 76.228V82.276C15.408 83.2093 15.5807 83.9187 15.926 84.404C16.2713 84.88 16.878 85.118 17.746 85.118C18.614 85.118 19.2207 84.88 19.566 84.404C19.9113 83.9187 20.084 83.2093 20.084 82.276V76.228H21.26V81.996C21.26 82.7053 21.1947 83.3213 21.064 83.844C20.9427 84.3667 20.742 84.8007 20.462 85.146C20.182 85.4913 19.8133 85.748 19.356 85.916C18.908 86.084 18.3573 86.168 17.704 86.168C17.0507 86.168 16.5 86.084 16.052 85.916C15.6133 85.748 15.2587 85.4913 14.988 85.146C14.7173 84.8007 14.5213 84.3667 14.4 83.844C14.288 83.3213 14.232 82.7053 14.232 81.996V76.228H15.408ZM23.8383 78.776H24.9583V79.952H25.0143C25.2009 79.4947 25.4716 79.1587 25.8263 78.944C26.1903 78.72 26.6243 78.608 27.1283 78.608C27.5763 78.608 27.9823 78.6967 28.3463 78.874C28.7103 79.0513 29.0183 79.3033 29.2703 79.63C29.5316 79.9567 29.7276 80.3533 29.8583 80.82C29.9983 81.2867 30.0683 81.8093 30.0683 82.388C30.0683 82.9667 29.9983 83.4893 29.8583 83.956C29.7276 84.4227 29.5316 84.8193 29.2703 85.146C29.0183 85.4727 28.7103 85.7247 28.3463 85.902C27.9823 86.0793 27.5763 86.168 27.1283 86.168C26.1483 86.168 25.4436 85.72 25.0143 84.824H24.9583V88.8H23.8383V78.776ZM26.8203 85.16C27.4549 85.16 27.9543 84.964 28.3183 84.572C28.6823 84.1707 28.8643 83.648 28.8643 83.004V81.772C28.8643 81.128 28.6823 80.61 28.3183 80.218C27.9543 79.8167 27.4549 79.616 26.8203 79.616C26.5683 79.616 26.3256 79.6533 26.0923 79.728C25.8683 79.7933 25.6723 79.8867 25.5043 80.008C25.3363 80.1293 25.2009 80.2787 25.0983 80.456C25.0049 80.624 24.9583 80.806 24.9583 81.002V83.69C24.9583 83.9233 25.0049 84.1333 25.0983 84.32C25.2009 84.4973 25.3363 84.6513 25.5043 84.782C25.6723 84.9033 25.8683 84.9967 26.0923 85.062C26.3256 85.1273 26.5683 85.16 26.8203 85.16ZM36.7394 84.824H36.6834C36.2447 85.72 35.54 86.168 34.5694 86.168C34.1214 86.168 33.7154 86.0793 33.3514 85.902C32.9874 85.7247 32.6747 85.4727 32.4134 85.146C32.1614 84.8193 31.9654 84.4227 31.8254 83.956C31.6947 83.4893 31.6294 82.9667 31.6294 82.388C31.6294 81.8093 31.6947 81.2867 31.8254 80.82C31.9654 80.3533 32.1614 79.9567 32.4134 79.63C32.6747 79.3033 32.9874 79.0513 33.3514 78.874C33.7154 78.6967 34.1214 78.608 34.5694 78.608C35.0734 78.608 35.5027 78.72 35.8574 78.944C36.2214 79.1587 36.4967 79.4947 36.6834 79.952H36.7394V75.64H37.8594V86H36.7394V84.824ZM34.8774 85.16C35.1294 85.16 35.3674 85.1273 35.5914 85.062C35.8247 84.9967 36.0254 84.9033 36.1934 84.782C36.3614 84.6513 36.492 84.4973 36.5854 84.32C36.688 84.1333 36.7394 83.9233 36.7394 83.69V81.002C36.7394 80.806 36.688 80.624 36.5854 80.456C36.492 80.2787 36.3614 80.1293 36.1934 80.008C36.0254 79.8867 35.8247 79.7933 35.5914 79.728C35.3674 79.6533 35.1294 79.616 34.8774 79.616C34.2427 79.616 33.7434 79.8167 33.3794 80.218C33.0154 80.61 32.8334 81.128 32.8334 81.772V83.004C32.8334 83.648 33.0154 84.1707 33.3794 84.572C33.7434 84.964 34.2427 85.16 34.8774 85.16ZM45.6505 86C45.2305 86 44.9271 85.888 44.7405 85.664C44.5631 85.44 44.4511 85.16 44.4045 84.824H44.3345C44.1758 85.272 43.9145 85.608 43.5505 85.832C43.1865 86.056 42.7525 86.168 42.2485 86.168C41.4831 86.168 40.8858 85.972 40.4565 85.58C40.0365 85.188 39.8265 84.656 39.8265 83.984C39.8265 83.3027 40.0738 82.78 40.5685 82.416C41.0725 82.052 41.8518 81.87 42.9065 81.87H44.3345V81.156C44.3345 80.6427 44.1945 80.2507 43.9145 79.98C43.6345 79.7093 43.2051 79.574 42.6265 79.574C42.1878 79.574 41.8191 79.672 41.5205 79.868C41.2311 80.064 40.9885 80.3253 40.7925 80.652L40.1205 80.022C40.3165 79.63 40.6291 79.2987 41.0585 79.028C41.4878 78.748 42.0291 78.608 42.6825 78.608C43.5598 78.608 44.2411 78.8227 44.7265 79.252C45.2118 79.6813 45.4545 80.2787 45.4545 81.044V85.02H46.2805V86H45.6505ZM42.4305 85.216C42.7105 85.216 42.9671 85.1833 43.2005 85.118C43.4338 85.0527 43.6345 84.9593 43.8025 84.838C43.9705 84.7167 44.1011 84.5767 44.1945 84.418C44.2878 84.2593 44.3345 84.0867 44.3345 83.9V82.71H42.8505C42.2065 82.71 41.7351 82.8033 41.4365 82.99C41.1471 83.1767 41.0025 83.4473 41.0025 83.802V84.096C41.0025 84.4507 41.1285 84.726 41.3805 84.922C41.6418 85.118 41.9918 85.216 42.4305 85.216ZM49.635 86C49.243 86 48.9443 85.8927 48.739 85.678C48.543 85.454 48.445 85.1647 48.445 84.81V79.756H47.255V78.776H47.927C48.1697 78.776 48.333 78.7293 48.417 78.636C48.5103 78.5333 48.557 78.3607 48.557 78.118V76.774H49.565V78.776H51.147V79.756H49.565V85.02H51.035V86H49.635ZM55.7685 86.168C55.2738 86.168 54.8258 86.0793 54.4245 85.902C54.0325 85.7247 53.6918 85.4727 53.4025 85.146C53.1225 84.81 52.9032 84.4133 52.7445 83.956C52.5952 83.4893 52.5205 82.9667 52.5205 82.388C52.5205 81.8187 52.5952 81.3007 52.7445 80.834C52.9032 80.3673 53.1225 79.9707 53.4025 79.644C53.6918 79.308 54.0325 79.0513 54.4245 78.874C54.8258 78.6967 55.2738 78.608 55.7685 78.608C56.2538 78.608 56.6878 78.6967 57.0705 78.874C57.4532 79.0513 57.7798 79.2987 58.0505 79.616C58.3212 79.924 58.5265 80.2927 58.6665 80.722C58.8158 81.1513 58.8905 81.6227 58.8905 82.136V82.668H53.6965V83.004C53.6965 83.312 53.7432 83.6013 53.8365 83.872C53.9392 84.1333 54.0792 84.362 54.2565 84.558C54.4432 84.754 54.6672 84.908 54.9285 85.02C55.1992 85.132 55.5025 85.188 55.8385 85.188C56.2958 85.188 56.6925 85.0807 57.0285 84.866C57.3738 84.6513 57.6398 84.3433 57.8265 83.942L58.6245 84.516C58.3912 85.0107 58.0272 85.412 57.5325 85.72C57.0378 86.0187 56.4498 86.168 55.7685 86.168ZM55.7685 79.546C55.4605 79.546 55.1805 79.602 54.9285 79.714C54.6765 79.8167 54.4572 79.966 54.2705 80.162C54.0932 80.358 53.9532 80.5913 53.8505 80.862C53.7478 81.1233 53.6965 81.4127 53.6965 81.73V81.828H57.6865V81.674C57.6865 81.03 57.5092 80.5167 57.1545 80.134C56.8092 79.742 56.3472 79.546 55.7685 79.546ZM64.3647 78.776H65.4847V79.952H65.5407C65.7274 79.4947 65.998 79.1587 66.3527 78.944C66.7167 78.72 67.1507 78.608 67.6547 78.608C68.1027 78.608 68.5087 78.6967 68.8727 78.874C69.2367 79.0513 69.5447 79.3033 69.7967 79.63C70.058 79.9567 70.254 80.3533 70.3847 80.82C70.5247 81.2867 70.5947 81.8093 70.5947 82.388C70.5947 82.9667 70.5247 83.4893 70.3847 83.956C70.254 84.4227 70.058 84.8193 69.7967 85.146C69.5447 85.4727 69.2367 85.7247 68.8727 85.902C68.5087 86.0793 68.1027 86.168 67.6547 86.168C66.6747 86.168 65.97 85.72 65.5407 84.824H65.4847V88.8H64.3647V78.776ZM67.3467 85.16C67.9814 85.16 68.4807 84.964 68.8447 84.572C69.2087 84.1707 69.3907 83.648 69.3907 83.004V81.772C69.3907 81.128 69.2087 80.61 68.8447 80.218C68.4807 79.8167 67.9814 79.616 67.3467 79.616C67.0947 79.616 66.852 79.6533 66.6187 79.728C66.3947 79.7933 66.1987 79.8867 66.0307 80.008C65.8627 80.1293 65.7274 80.2787 65.6247 80.456C65.5314 80.624 65.4847 80.806 65.4847 81.002V83.69C65.4847 83.9233 65.5314 84.1333 65.6247 84.32C65.7274 84.4973 65.8627 84.6513 66.0307 84.782C66.1987 84.9033 66.3947 84.9967 66.6187 85.062C66.852 85.1273 67.0947 85.16 67.3467 85.16ZM77.8958 86C77.4758 86 77.1724 85.888 76.9858 85.664C76.8084 85.44 76.6964 85.16 76.6498 84.824H76.5798C76.4211 85.272 76.1598 85.608 75.7958 85.832C75.4318 86.056 74.9978 86.168 74.4938 86.168C73.7284 86.168 73.1311 85.972 72.7018 85.58C72.2818 85.188 72.0718 84.656 72.0718 83.984C72.0718 83.3027 72.3191 82.78 72.8138 82.416C73.3178 82.052 74.0971 81.87 75.1518 81.87H76.5798V81.156C76.5798 80.6427 76.4398 80.2507 76.1598 79.98C75.8798 79.7093 75.4504 79.574 74.8718 79.574C74.4331 79.574 74.0644 79.672 73.7658 79.868C73.4764 80.064 73.2338 80.3253 73.0378 80.652L72.3658 80.022C72.5618 79.63 72.8744 79.2987 73.3038 79.028C73.7331 78.748 74.2744 78.608 74.9278 78.608C75.8051 78.608 76.4864 78.8227 76.9718 79.252C77.4571 79.6813 77.6998 80.2787 77.6998 81.044V85.02H78.5258V86H77.8958ZM74.6758 85.216C74.9558 85.216 75.2124 85.1833 75.4458 85.118C75.6791 85.0527 75.8798 84.9593 76.0478 84.838C76.2158 84.7167 76.3464 84.5767 76.4398 84.418C76.5331 84.2593 76.5798 84.0867 76.5798 83.9V82.71H75.0958C74.4518 82.71 73.9804 82.8033 73.6818 82.99C73.3924 83.1767 73.2478 83.4473 73.2478 83.802V84.096C73.2478 84.4507 73.3738 84.726 73.6258 84.922C73.8871 85.118 74.2371 85.216 74.6758 85.216ZM80.2843 86V78.776H81.4043V80.106H81.4743C81.605 79.7607 81.8383 79.4527 82.1743 79.182C82.5103 78.9113 82.9723 78.776 83.5603 78.776H83.9943V79.896H83.3363C82.7296 79.896 82.2536 80.0127 81.9083 80.246C81.5723 80.47 81.4043 80.7547 81.4043 81.1V86H80.2843ZM90.7802 86C90.3602 86 90.0569 85.888 89.8702 85.664C89.6929 85.44 89.5809 85.16 89.5342 84.824H89.4642C89.3056 85.272 89.0442 85.608 88.6802 85.832C88.3162 86.056 87.8822 86.168 87.3782 86.168C86.6129 86.168 86.0156 85.972 85.5862 85.58C85.1662 85.188 84.9562 84.656 84.9562 83.984C84.9562 83.3027 85.2036 82.78 85.6982 82.416C86.2022 82.052 86.9816 81.87 88.0362 81.87H89.4642V81.156C89.4642 80.6427 89.3242 80.2507 89.0442 79.98C88.7642 79.7093 88.3349 79.574 87.7562 79.574C87.3176 79.574 86.9489 79.672 86.6502 79.868C86.3609 80.064 86.1182 80.3253 85.9222 80.652L85.2502 80.022C85.4462 79.63 85.7589 79.2987 86.1882 79.028C86.6176 78.748 87.1589 78.608 87.8122 78.608C88.6896 78.608 89.3709 78.8227 89.8562 79.252C90.3416 79.6813 90.5842 80.2787 90.5842 81.044V85.02H91.4102V86H90.7802ZM87.5602 85.216C87.8402 85.216 88.0969 85.1833 88.3302 85.118C88.5636 85.0527 88.7642 84.9593 88.9322 84.838C89.1002 84.7167 89.2309 84.5767 89.3242 84.418C89.4176 84.2593 89.4642 84.0867 89.4642 83.9V82.71H87.9802C87.3362 82.71 86.8649 82.8033 86.5662 82.99C86.2769 83.1767 86.1322 83.4473 86.1322 83.802V84.096C86.1322 84.4507 86.2582 84.726 86.5102 84.922C86.7716 85.118 87.1216 85.216 87.5602 85.216ZM93.1688 86V78.776H94.2888V79.952H94.3448C94.4288 79.7653 94.5221 79.5927 94.6248 79.434C94.7368 79.266 94.8674 79.1213 95.0168 79C95.1754 78.8787 95.3574 78.7853 95.5628 78.72C95.7681 78.6453 96.0108 78.608 96.2908 78.608C96.7668 78.608 97.2054 78.7247 97.6068 78.958C98.0081 79.182 98.3068 79.5553 98.5028 80.078H98.5308C98.6614 79.686 98.9041 79.3453 99.2588 79.056C99.6228 78.7573 100.113 78.608 100.729 78.608C101.466 78.608 102.04 78.8507 102.451 79.336C102.871 79.812 103.081 80.4887 103.081 81.366V86H101.961V81.562C101.961 80.918 101.835 80.4327 101.583 80.106C101.331 79.7793 100.929 79.616 100.379 79.616C100.155 79.616 99.9401 79.644 99.7348 79.7C99.5388 79.756 99.3614 79.84 99.2028 79.952C99.0441 80.064 98.9181 80.2087 98.8248 80.386C98.7314 80.554 98.6848 80.7547 98.6848 80.988V86H97.5648V81.562C97.5648 80.918 97.4388 80.4327 97.1868 80.106C96.9348 79.7793 96.5428 79.616 96.0108 79.616C95.7868 79.616 95.5721 79.644 95.3668 79.7C95.1614 79.756 94.9794 79.84 94.8208 79.952C94.6621 80.064 94.5314 80.2087 94.4288 80.386C94.3354 80.554 94.2888 80.7547 94.2888 80.988V86H93.1688ZM108.267 86.168C107.773 86.168 107.325 86.0793 106.923 85.902C106.531 85.7247 106.191 85.4727 105.901 85.146C105.621 84.81 105.402 84.4133 105.243 83.956C105.094 83.4893 105.019 82.9667 105.019 82.388C105.019 81.8187 105.094 81.3007 105.243 80.834C105.402 80.3673 105.621 79.9707 105.901 79.644C106.191 79.308 106.531 79.0513 106.923 78.874C107.325 78.6967 107.773 78.608 108.267 78.608C108.753 78.608 109.187 78.6967 109.569 78.874C109.952 79.0513 110.279 79.2987 110.549 79.616C110.82 79.924 111.025 80.2927 111.165 80.722C111.315 81.1513 111.389 81.6227 111.389 82.136V82.668H106.195V83.004C106.195 83.312 106.242 83.6013 106.335 83.872C106.438 84.1333 106.578 84.362 106.755 84.558C106.942 84.754 107.166 84.908 107.427 85.02C107.698 85.132 108.001 85.188 108.337 85.188C108.795 85.188 109.191 85.0807 109.527 84.866C109.873 84.6513 110.139 84.3433 110.325 83.942L111.123 84.516C110.89 85.0107 110.526 85.412 110.031 85.72C109.537 86.0187 108.949 86.168 108.267 86.168ZM108.267 79.546C107.959 79.546 107.679 79.602 107.427 79.714C107.175 79.8167 106.956 79.966 106.769 80.162C106.592 80.358 106.452 80.5913 106.349 80.862C106.247 81.1233 106.195 81.4127 106.195 81.73V81.828H110.185V81.674C110.185 81.03 110.008 80.5167 109.653 80.134C109.308 79.742 108.846 79.546 108.267 79.546ZM114.991 86C114.599 86 114.3 85.8927 114.095 85.678C113.899 85.454 113.801 85.1647 113.801 84.81V79.756H112.611V78.776H113.283C113.526 78.776 113.689 78.7293 113.773 78.636C113.866 78.5333 113.913 78.3607 113.913 78.118V76.774H114.921V78.776H116.503V79.756H114.921V85.02H116.391V86H114.991ZM121.125 86.168C120.63 86.168 120.182 86.0793 119.781 85.902C119.389 85.7247 119.048 85.4727 118.759 85.146C118.479 84.81 118.259 84.4133 118.101 83.956C117.951 83.4893 117.877 82.9667 117.877 82.388C117.877 81.8187 117.951 81.3007 118.101 80.834C118.259 80.3673 118.479 79.9707 118.759 79.644C119.048 79.308 119.389 79.0513 119.781 78.874C120.182 78.6967 120.63 78.608 121.125 78.608C121.61 78.608 122.044 78.6967 122.427 78.874C122.809 79.0513 123.136 79.2987 123.407 79.616C123.677 79.924 123.883 80.2927 124.023 80.722C124.172 81.1513 124.247 81.6227 124.247 82.136V82.668H119.053V83.004C119.053 83.312 119.099 83.6013 119.193 83.872C119.295 84.1333 119.435 84.362 119.613 84.558C119.799 84.754 120.023 84.908 120.285 85.02C120.555 85.132 120.859 85.188 121.195 85.188C121.652 85.188 122.049 85.0807 122.385 84.866C122.73 84.6513 122.996 84.3433 123.183 83.942L123.981 84.516C123.747 85.0107 123.383 85.412 122.889 85.72C122.394 86.0187 121.806 86.168 121.125 86.168ZM121.125 79.546C120.817 79.546 120.537 79.602 120.285 79.714C120.033 79.8167 119.813 79.966 119.627 80.162C119.449 80.358 119.309 80.5913 119.207 80.862C119.104 81.1233 119.053 81.4127 119.053 81.73V81.828H123.043V81.674C123.043 81.03 122.865 80.5167 122.511 80.134C122.165 79.742 121.703 79.546 121.125 79.546ZM126.252 86V78.776H127.372V80.106H127.442C127.573 79.7607 127.806 79.4527 128.142 79.182C128.478 78.9113 128.94 78.776 129.528 78.776H129.962V79.896H129.304C128.697 79.896 128.221 80.0127 127.876 80.246C127.54 80.47 127.372 80.7547 127.372 81.1V86H126.252ZM133.723 86.168C133.051 86.168 132.486 86.042 132.029 85.79C131.581 85.5287 131.193 85.1833 130.867 84.754L131.665 84.11C131.945 84.4647 132.257 84.74 132.603 84.936C132.948 85.1227 133.349 85.216 133.807 85.216C134.283 85.216 134.651 85.1133 134.913 84.908C135.183 84.7027 135.319 84.4133 135.319 84.04C135.319 83.76 135.225 83.522 135.039 83.326C134.861 83.1207 134.535 82.9807 134.059 82.906L133.485 82.822C133.149 82.7753 132.841 82.7053 132.561 82.612C132.281 82.5093 132.033 82.3787 131.819 82.22C131.613 82.052 131.45 81.8467 131.329 81.604C131.217 81.3613 131.161 81.072 131.161 80.736C131.161 80.3813 131.226 80.0733 131.357 79.812C131.487 79.5413 131.665 79.3173 131.889 79.14C132.122 78.9627 132.397 78.832 132.715 78.748C133.032 78.6547 133.373 78.608 133.737 78.608C134.325 78.608 134.815 78.7107 135.207 78.916C135.608 79.1213 135.958 79.406 136.257 79.77L135.515 80.442C135.356 80.218 135.123 80.0173 134.815 79.84C134.507 79.6533 134.119 79.56 133.653 79.56C133.186 79.56 132.831 79.6627 132.589 79.868C132.355 80.064 132.239 80.3347 132.239 80.68C132.239 81.0347 132.355 81.2913 132.589 81.45C132.831 81.6087 133.177 81.7253 133.625 81.8L134.185 81.884C134.987 82.0053 135.557 82.2387 135.893 82.584C136.229 82.92 136.397 83.3633 136.397 83.914C136.397 84.614 136.159 85.1647 135.683 85.566C135.207 85.9673 134.553 86.168 133.723 86.168Z" fill="black"/>
<path d="M359.746 81.168C358.505 81.168 357.539 80.748 356.848 79.908C356.157 79.0587 355.812 77.8127 355.812 76.17C355.812 74.5273 356.157 73.2673 356.848 72.39C357.539 71.5033 358.505 71.06 359.746 71.06C360.567 71.06 361.253 71.2467 361.804 71.62C362.364 71.9933 362.798 72.5207 363.106 73.202L362.154 73.776C361.958 73.272 361.659 72.8707 361.258 72.572C360.857 72.264 360.353 72.11 359.746 72.11C359.326 72.11 358.948 72.1893 358.612 72.348C358.285 72.5067 358.005 72.7353 357.772 73.034C357.548 73.3233 357.375 73.6733 357.254 74.084C357.133 74.4853 357.072 74.938 357.072 75.442V76.898C357.072 77.906 357.305 78.6947 357.772 79.264C358.239 79.8333 358.897 80.118 359.746 80.118C360.371 80.118 360.894 79.9593 361.314 79.642C361.734 79.3153 362.042 78.886 362.238 78.354L363.176 78.942C362.868 79.6327 362.425 80.1787 361.846 80.58C361.267 80.972 360.567 81.168 359.746 81.168ZM367.775 81.168C367.29 81.168 366.847 81.0793 366.445 80.902C366.044 80.7247 365.699 80.4727 365.409 80.146C365.129 79.81 364.91 79.4133 364.751 78.956C364.593 78.4893 364.513 77.9667 364.513 77.388C364.513 76.8187 364.593 76.3007 364.751 75.834C364.91 75.3673 365.129 74.9707 365.409 74.644C365.699 74.308 366.044 74.0513 366.445 73.874C366.847 73.6967 367.29 73.608 367.775 73.608C368.261 73.608 368.699 73.6967 369.091 73.874C369.493 74.0513 369.838 74.308 370.127 74.644C370.417 74.9707 370.641 75.3673 370.799 75.834C370.958 76.3007 371.037 76.8187 371.037 77.388C371.037 77.9667 370.958 78.4893 370.799 78.956C370.641 79.4133 370.417 79.81 370.127 80.146C369.838 80.4727 369.493 80.7247 369.091 80.902C368.699 81.0793 368.261 81.168 367.775 81.168ZM367.775 80.174C368.382 80.174 368.877 79.9873 369.259 79.614C369.642 79.2407 369.833 78.6713 369.833 77.906V76.87C369.833 76.1047 369.642 75.5353 369.259 75.162C368.877 74.7887 368.382 74.602 367.775 74.602C367.169 74.602 366.674 74.7887 366.291 75.162C365.909 75.5353 365.717 76.1047 365.717 76.87V77.906C365.717 78.6713 365.909 79.2407 366.291 79.614C366.674 79.9873 367.169 80.174 367.775 80.174ZM373.039 81V73.776H374.159V74.952H374.215C374.299 74.7653 374.393 74.5927 374.495 74.434C374.607 74.266 374.738 74.1213 374.887 74C375.046 73.8787 375.228 73.7853 375.433 73.72C375.639 73.6453 375.881 73.608 376.161 73.608C376.637 73.608 377.076 73.7247 377.477 73.958C377.879 74.182 378.177 74.5553 378.373 75.078H378.401C378.532 74.686 378.775 74.3453 379.129 74.056C379.493 73.7573 379.983 73.608 380.599 73.608C381.337 73.608 381.911 73.8507 382.321 74.336C382.741 74.812 382.951 75.4887 382.951 76.366V81H381.831V76.562C381.831 75.918 381.705 75.4327 381.453 75.106C381.201 74.7793 380.8 74.616 380.249 74.616C380.025 74.616 379.811 74.644 379.605 74.7C379.409 74.756 379.232 74.84 379.073 74.952C378.915 75.064 378.789 75.2087 378.695 75.386C378.602 75.554 378.555 75.7547 378.555 75.988V81H377.435V76.562C377.435 75.918 377.309 75.4327 377.057 75.106C376.805 74.7793 376.413 74.616 375.881 74.616C375.657 74.616 375.443 74.644 375.237 74.7C375.032 74.756 374.85 74.84 374.691 74.952C374.533 75.064 374.402 75.2087 374.299 75.386C374.206 75.554 374.159 75.7547 374.159 75.988V81H373.039ZM385.422 73.776H386.542V74.952H386.598C386.785 74.4947 387.055 74.1587 387.41 73.944C387.774 73.72 388.208 73.608 388.712 73.608C389.16 73.608 389.566 73.6967 389.93 73.874C390.294 74.0513 390.602 74.3033 390.854 74.63C391.115 74.9567 391.311 75.3533 391.442 75.82C391.582 76.2867 391.652 76.8093 391.652 77.388C391.652 77.9667 391.582 78.4893 391.442 78.956C391.311 79.4227 391.115 79.8193 390.854 80.146C390.602 80.4727 390.294 80.7247 389.93 80.902C389.566 81.0793 389.16 81.168 388.712 81.168C387.732 81.168 387.027 80.72 386.598 79.824H386.542V83.8H385.422V73.776ZM388.404 80.16C389.039 80.16 389.538 79.964 389.902 79.572C390.266 79.1707 390.448 78.648 390.448 78.004V76.772C390.448 76.128 390.266 75.61 389.902 75.218C389.538 74.8167 389.039 74.616 388.404 74.616C388.152 74.616 387.909 74.6533 387.676 74.728C387.452 74.7933 387.256 74.8867 387.088 75.008C386.92 75.1293 386.785 75.2787 386.682 75.456C386.589 75.624 386.542 75.806 386.542 76.002V78.69C386.542 78.9233 386.589 79.1333 386.682 79.32C386.785 79.4973 386.92 79.6513 387.088 79.782C387.256 79.9033 387.452 79.9967 387.676 80.062C387.909 80.1273 388.152 80.16 388.404 80.16ZM398.155 79.824H398.099C398.024 79.992 397.931 80.16 397.819 80.328C397.716 80.4867 397.586 80.6313 397.427 80.762C397.268 80.8833 397.077 80.9813 396.853 81.056C396.629 81.1307 396.368 81.168 396.069 81.168C395.322 81.168 394.73 80.93 394.291 80.454C393.852 79.9687 393.633 79.2873 393.633 78.41V73.776H394.753V78.214C394.753 79.5113 395.304 80.16 396.405 80.16C396.629 80.16 396.844 80.132 397.049 80.076C397.264 80.02 397.45 79.936 397.609 79.824C397.777 79.712 397.908 79.572 398.001 79.404C398.104 79.2267 398.155 79.0167 398.155 78.774V73.776H399.275V81H398.155V79.824ZM403.416 81C403.024 81 402.725 80.8927 402.52 80.678C402.324 80.454 402.226 80.1647 402.226 79.81V74.756H401.036V73.776H401.708C401.951 73.776 402.114 73.7293 402.198 73.636C402.291 73.5333 402.338 73.3607 402.338 73.118V71.774H403.346V73.776H404.928V74.756H403.346V80.02H404.816V81H403.416ZM409.55 81.168C409.055 81.168 408.607 81.0793 408.206 80.902C407.814 80.7247 407.473 80.4727 407.184 80.146C406.904 79.81 406.684 79.4133 406.526 78.956C406.376 78.4893 406.302 77.9667 406.302 77.388C406.302 76.8187 406.376 76.3007 406.526 75.834C406.684 75.3673 406.904 74.9707 407.184 74.644C407.473 74.308 407.814 74.0513 408.206 73.874C408.607 73.6967 409.055 73.608 409.55 73.608C410.035 73.608 410.469 73.6967 410.852 73.874C411.234 74.0513 411.561 74.2987 411.832 74.616C412.102 74.924 412.308 75.2927 412.448 75.722C412.597 76.1513 412.672 76.6227 412.672 77.136V77.668H407.478V78.004C407.478 78.312 407.524 78.6013 407.618 78.872C407.72 79.1333 407.86 79.362 408.038 79.558C408.224 79.754 408.448 79.908 408.71 80.02C408.98 80.132 409.284 80.188 409.62 80.188C410.077 80.188 410.474 80.0807 410.81 79.866C411.155 79.6513 411.421 79.3433 411.608 78.942L412.406 79.516C412.172 80.0107 411.808 80.412 411.314 80.72C410.819 81.0187 410.231 81.168 409.55 81.168ZM409.55 74.546C409.242 74.546 408.962 74.602 408.71 74.714C408.458 74.8167 408.238 74.966 408.052 75.162C407.874 75.358 407.734 75.5913 407.632 75.862C407.529 76.1233 407.478 76.4127 407.478 76.73V76.828H411.468V76.674C411.468 76.03 411.29 75.5167 410.936 75.134C410.59 74.742 410.128 74.546 409.55 74.546Z" fill="black"/>
<path d="M357.354 47.3536C357.549 47.1583 357.549 46.8417 357.354 46.6464L354.172 43.4645C353.976 43.2692 353.66 43.2692 353.464 43.4645C353.269 43.6597 353.269 43.9763 353.464 44.1716L356.293 47L353.464 49.8284C353.269 50.0237 353.269 50.3403 353.464 50.5355C353.66 50.7308 353.976 50.7308 354.172 50.5355L357.354 47.3536ZM117 47.5H357V46.5H117V47.5Z" fill="black"/>
<path d="M118.646 129.646C118.451 129.842 118.451 130.158 118.646 130.354L121.828 133.536C122.024 133.731 122.34 133.731 122.536 133.536C122.731 133.34 122.731 133.024 122.536 132.828L119.707 130L122.536 127.172C122.731 126.976 122.731 126.66 122.536 126.464C122.34 126.269 122.024 126.269 121.828 126.464L118.646 129.646ZM359 129.5L119 129.5L119 130.5L359 130.5L359 129.5Z" fill="black"/>
<path d="M192.302 155V145.228H198.126V146.264H193.478V149.54H197.72V150.576H193.478V155H192.302ZM204.267 153.824H204.211C204.136 153.992 204.043 154.16 203.931 154.328C203.828 154.487 203.698 154.631 203.539 154.762C203.38 154.883 203.189 154.981 202.965 155.056C202.741 155.131 202.48 155.168 202.181 155.168C201.434 155.168 200.842 154.93 200.403 154.454C199.964 153.969 199.745 153.287 199.745 152.41V147.776H200.865V152.214C200.865 153.511 201.416 154.16 202.517 154.16C202.741 154.16 202.956 154.132 203.161 154.076C203.376 154.02 203.562 153.936 203.721 153.824C203.889 153.712 204.02 153.572 204.113 153.404C204.216 153.227 204.267 153.017 204.267 152.774V147.776H205.387V155H204.267V153.824ZM207.932 155V147.776H209.052V148.952H209.108C209.285 148.541 209.533 148.215 209.85 147.972C210.177 147.729 210.611 147.608 211.152 147.608C211.899 147.608 212.487 147.851 212.916 148.336C213.355 148.812 213.574 149.489 213.574 150.366V155H212.454V150.562C212.454 149.265 211.908 148.616 210.816 148.616C210.592 148.616 210.373 148.644 210.158 148.7C209.953 148.756 209.766 148.84 209.598 148.952C209.43 149.064 209.295 149.209 209.192 149.386C209.099 149.554 209.052 149.755 209.052 149.988V155H207.932ZM218.737 155.168C218.233 155.168 217.78 155.079 217.379 154.902C216.978 154.725 216.637 154.473 216.357 154.146C216.086 153.819 215.876 153.423 215.727 152.956C215.587 152.489 215.517 151.967 215.517 151.388C215.517 150.809 215.587 150.287 215.727 149.82C215.876 149.353 216.086 148.957 216.357 148.63C216.637 148.303 216.978 148.051 217.379 147.874C217.78 147.697 218.233 147.608 218.737 147.608C219.456 147.608 220.03 147.767 220.459 148.084C220.898 148.392 221.224 148.798 221.439 149.302L220.501 149.778C220.37 149.405 220.156 149.115 219.857 148.91C219.558 148.705 219.185 148.602 218.737 148.602C218.401 148.602 218.107 148.658 217.855 148.77C217.603 148.873 217.393 149.022 217.225 149.218C217.057 149.405 216.931 149.633 216.847 149.904C216.763 150.165 216.721 150.455 216.721 150.772V152.004C216.721 152.639 216.889 153.161 217.225 153.572C217.57 153.973 218.074 154.174 218.737 154.174C219.642 154.174 220.296 153.754 220.697 152.914L221.509 153.46C221.276 153.983 220.926 154.398 220.459 154.706C220.002 155.014 219.428 155.168 218.737 155.168ZM224.846 155C224.454 155 224.155 154.893 223.95 154.678C223.754 154.454 223.656 154.165 223.656 153.81V148.756H222.466V147.776H223.138C223.381 147.776 223.544 147.729 223.628 147.636C223.721 147.533 223.768 147.361 223.768 147.118V145.774H224.776V147.776H226.358V148.756H224.776V154.02H226.246V155H224.846ZM228.878 146.082C228.635 146.082 228.458 146.026 228.346 145.914C228.243 145.793 228.192 145.639 228.192 145.452V145.27C228.192 145.083 228.243 144.934 228.346 144.822C228.458 144.701 228.635 144.64 228.878 144.64C229.121 144.64 229.293 144.701 229.396 144.822C229.508 144.934 229.564 145.083 229.564 145.27V145.452C229.564 145.639 229.508 145.793 229.396 145.914C229.293 146.026 229.121 146.082 228.878 146.082ZM228.318 147.776H229.438V155H228.318V147.776ZM234.708 155.168C234.223 155.168 233.779 155.079 233.378 154.902C232.977 154.725 232.631 154.473 232.342 154.146C232.062 153.81 231.843 153.413 231.684 152.956C231.525 152.489 231.446 151.967 231.446 151.388C231.446 150.819 231.525 150.301 231.684 149.834C231.843 149.367 232.062 148.971 232.342 148.644C232.631 148.308 232.977 148.051 233.378 147.874C233.779 147.697 234.223 147.608 234.708 147.608C235.193 147.608 235.632 147.697 236.024 147.874C236.425 148.051 236.771 148.308 237.06 148.644C237.349 148.971 237.573 149.367 237.732 149.834C237.891 150.301 237.97 150.819 237.97 151.388C237.97 151.967 237.891 152.489 237.732 152.956C237.573 153.413 237.349 153.81 237.06 154.146C236.771 154.473 236.425 154.725 236.024 154.902C235.632 155.079 235.193 155.168 234.708 155.168ZM234.708 154.174C235.315 154.174 235.809 153.987 236.192 153.614C236.575 153.241 236.766 152.671 236.766 151.906V150.87C236.766 150.105 236.575 149.535 236.192 149.162C235.809 148.789 235.315 148.602 234.708 148.602C234.101 148.602 233.607 148.789 233.224 149.162C232.841 149.535 232.65 150.105 232.65 150.87V151.906C232.65 152.671 232.841 153.241 233.224 153.614C233.607 153.987 234.101 154.174 234.708 154.174ZM239.972 155V147.776H241.092V148.952H241.148C241.325 148.541 241.573 148.215 241.89 147.972C242.217 147.729 242.651 147.608 243.192 147.608C243.939 147.608 244.527 147.851 244.956 148.336C245.395 148.812 245.614 149.489 245.614 150.366V155H244.494V150.562C244.494 149.265 243.948 148.616 242.856 148.616C242.632 148.616 242.413 148.644 242.198 148.7C241.993 148.756 241.806 148.84 241.638 148.952C241.47 149.064 241.335 149.209 241.232 149.386C241.139 149.554 241.092 149.755 241.092 149.988V155H239.972ZM253.154 155L250.62 147.776H251.74L253 151.36L253.784 153.824H253.854L254.638 151.36L255.926 147.776H257.004L254.456 155H253.154ZM263.735 155C263.315 155 263.012 154.888 262.825 154.664C262.648 154.44 262.536 154.16 262.489 153.824H262.419C262.261 154.272 261.999 154.608 261.635 154.832C261.271 155.056 260.837 155.168 260.333 155.168C259.568 155.168 258.971 154.972 258.541 154.58C258.121 154.188 257.911 153.656 257.911 152.984C257.911 152.303 258.159 151.78 258.653 151.416C259.157 151.052 259.937 150.87 260.991 150.87H262.419V150.156C262.419 149.643 262.279 149.251 261.999 148.98C261.719 148.709 261.29 148.574 260.711 148.574C260.273 148.574 259.904 148.672 259.605 148.868C259.316 149.064 259.073 149.325 258.877 149.652L258.205 149.022C258.401 148.63 258.714 148.299 259.143 148.028C259.573 147.748 260.114 147.608 260.767 147.608C261.645 147.608 262.326 147.823 262.811 148.252C263.297 148.681 263.539 149.279 263.539 150.044V154.02H264.365V155H263.735ZM260.515 154.216C260.795 154.216 261.052 154.183 261.285 154.118C261.519 154.053 261.719 153.959 261.887 153.838C262.055 153.717 262.186 153.577 262.279 153.418C262.373 153.259 262.419 153.087 262.419 152.9V151.71H260.935C260.291 151.71 259.82 151.803 259.521 151.99C259.232 152.177 259.087 152.447 259.087 152.802V153.096C259.087 153.451 259.213 153.726 259.465 153.922C259.727 154.118 260.077 154.216 260.515 154.216ZM267.314 155C266.922 155 266.623 154.893 266.418 154.678C266.222 154.454 266.124 154.174 266.124 153.838V144.64H267.244V154.02H268.308V155H267.314ZM274.55 153.824H274.494C274.42 153.992 274.326 154.16 274.214 154.328C274.112 154.487 273.981 154.631 273.822 154.762C273.664 154.883 273.472 154.981 273.248 155.056C273.024 155.131 272.763 155.168 272.464 155.168C271.718 155.168 271.125 154.93 270.686 154.454C270.248 153.969 270.028 153.287 270.028 152.41V147.776H271.148V152.214C271.148 153.511 271.699 154.16 272.8 154.16C273.024 154.16 273.239 154.132 273.444 154.076C273.659 154.02 273.846 153.936 274.004 153.824C274.172 153.712 274.303 153.572 274.396 153.404C274.499 153.227 274.55 153.017 274.55 152.774V147.776H275.67V155H274.55V153.824ZM280.931 155.168C280.437 155.168 279.989 155.079 279.587 154.902C279.195 154.725 278.855 154.473 278.565 154.146C278.285 153.81 278.066 153.413 277.907 152.956C277.758 152.489 277.683 151.967 277.683 151.388C277.683 150.819 277.758 150.301 277.907 149.834C278.066 149.367 278.285 148.971 278.565 148.644C278.855 148.308 279.195 148.051 279.587 147.874C279.989 147.697 280.437 147.608 280.931 147.608C281.417 147.608 281.851 147.697 282.233 147.874C282.616 148.051 282.943 148.299 283.213 148.616C283.484 148.924 283.689 149.293 283.829 149.722C283.979 150.151 284.053 150.623 284.053 151.136V151.668H278.859V152.004C278.859 152.312 278.906 152.601 278.999 152.872C279.102 153.133 279.242 153.362 279.419 153.558C279.606 153.754 279.83 153.908 280.091 154.02C280.362 154.132 280.665 154.188 281.001 154.188C281.459 154.188 281.855 154.081 282.191 153.866C282.537 153.651 282.803 153.343 282.989 152.942L283.787 153.516C283.554 154.011 283.19 154.412 282.695 154.72C282.201 155.019 281.613 155.168 280.931 155.168ZM280.931 148.546C280.623 148.546 280.343 148.602 280.091 148.714C279.839 148.817 279.62 148.966 279.433 149.162C279.256 149.358 279.116 149.591 279.013 149.862C278.911 150.123 278.859 150.413 278.859 150.73V150.828H282.849V150.674C282.849 150.03 282.672 149.517 282.317 149.134C281.972 148.742 281.51 148.546 280.931 148.546Z" fill="black"/>
<path d="M358.472 110.72C358.462 110.792 358.431 110.855 358.379 110.907C358.327 110.958 358.254 110.99 358.161 111C358.057 111 357.969 110.948 357.896 110.844C357.865 110.772 357.377 109.495 356.433 107.014C355.488 104.533 355.011 103.266 355 103.215C354.99 103.163 355.462 101.896 356.417 99.4152C357.372 96.9343 357.865 95.6574 357.896 95.5848C357.928 95.5329 357.979 95.4862 358.052 95.4446L358.099 95.4291C358.13 95.4291 358.151 95.4291 358.161 95.4291C358.348 95.4291 358.452 95.5225 358.472 95.7093C358.472 95.7612 358.005 97.0225 357.071 99.4931C356.126 101.953 355.654 103.194 355.654 103.215C355.654 103.235 356.126 104.476 357.071 106.936C358.005 109.407 358.472 110.668 358.472 110.72Z" fill="black"/>
<path d="M364.639 97.4221C364.618 97.4118 364.592 97.3962 364.561 97.3754C364.53 97.3547 364.509 97.3339 364.499 97.3132C364.488 97.2924 364.457 97.282 364.405 97.282C364.353 97.282 364.296 97.2664 364.234 97.2353C364.172 97.2042 364.088 97.199 363.985 97.2197C363.881 97.2405 363.756 97.2353 363.611 97.2042C363.466 97.173 363.284 97.1678 363.066 97.1886H362.646V96.4723H362.832C363.082 96.5035 363.938 96.519 365.402 96.519C366.865 96.519 367.722 96.5035 367.971 96.4723H368.158V97.1886H367.737C367.114 97.1886 366.725 97.199 366.569 97.2197C366.414 97.2405 366.284 97.308 366.18 97.4221L366.165 100.77C366.165 103.002 366.17 104.118 366.18 104.118C366.222 104.107 366.274 104.092 366.336 104.071C366.398 104.05 366.528 103.988 366.725 103.884C366.922 103.78 367.094 103.651 367.239 103.495C367.384 103.339 367.535 103.111 367.691 102.81C367.846 102.509 367.955 102.156 368.018 101.751C368.049 101.533 368.075 101.154 368.095 100.614C368.116 100.074 368.173 99.6799 368.267 99.4308C368.412 98.9844 368.656 98.7197 368.999 98.6367C369.071 98.6159 369.336 98.6055 369.793 98.6055H370.478L370.587 98.699V99.0882C370.504 99.1505 370.431 99.1817 370.369 99.1817C370.078 99.2232 369.886 99.3945 369.793 99.6955C369.699 99.9965 369.632 100.433 369.59 101.003C369.549 101.574 369.476 102.016 369.372 102.327C368.905 103.676 367.903 104.476 366.367 104.725L366.165 104.756V105.457L366.18 106.157C366.253 106.23 366.315 106.277 366.367 106.298C366.419 106.318 366.549 106.339 366.756 106.36C366.964 106.381 367.291 106.391 367.737 106.391H368.158V107.107H367.971C367.722 107.076 366.865 107.061 365.402 107.061C363.938 107.061 363.082 107.076 362.832 107.107H362.646V106.391H363.066C363.274 106.391 363.45 106.391 363.595 106.391C363.741 106.391 363.87 106.386 363.985 106.375C364.099 106.365 364.182 106.36 364.234 106.36C364.286 106.36 364.343 106.344 364.405 106.313C364.467 106.282 364.499 106.266 364.499 106.266C364.499 106.266 364.519 106.251 364.561 106.22C364.602 106.189 364.628 106.168 364.639 106.157V104.756C362.417 104.476 361.26 103.152 361.166 100.785C361.146 99.7785 360.896 99.2439 360.419 99.1817C360.274 99.1817 360.201 99.0934 360.201 98.917C360.201 98.7612 360.222 98.673 360.263 98.6523C360.305 98.6315 360.445 98.6159 360.684 98.6055H361.011H361.213C361.524 98.6055 361.737 98.6211 361.851 98.6523C361.966 98.6834 362.085 98.7612 362.21 98.8858C362.355 99.0311 362.459 99.2128 362.521 99.4308C362.604 99.6488 362.651 100.028 362.661 100.567C362.672 101.107 362.739 101.647 362.864 102.187C362.988 102.727 363.227 103.173 363.58 103.526C363.736 103.671 363.896 103.791 364.063 103.884C364.229 103.978 364.369 104.045 364.483 104.087L364.623 104.118C364.633 104.118 364.639 103.002 364.639 100.77V97.4221Z" fill="black"/>
<path d="M372.922 103.215C372.922 102.498 372.974 101.818 373.078 101.175C373.182 100.531 373.301 99.9758 373.436 99.5087C373.571 99.0415 373.763 98.5848 374.012 98.1384C374.261 97.692 374.458 97.3443 374.604 97.0952C374.749 96.846 374.967 96.5761 375.258 96.2855C375.548 95.9948 375.72 95.8183 375.771 95.7561C375.823 95.6938 375.953 95.5848 376.161 95.4291H376.363H376.425C376.571 95.4291 376.643 95.4758 376.643 95.5692C376.643 95.6003 376.555 95.7093 376.379 95.8962C376.202 96.083 375.989 96.3581 375.74 96.7215C375.491 97.0848 375.237 97.5311 374.977 98.0606C374.718 98.59 374.5 99.3062 374.323 100.209C374.147 101.112 374.059 102.114 374.059 103.215C374.059 104.315 374.147 105.311 374.323 106.204C374.5 107.097 374.713 107.818 374.962 108.369C375.211 108.919 375.465 109.365 375.725 109.708C375.984 110.05 376.202 110.325 376.379 110.533C376.555 110.74 376.643 110.849 376.643 110.86C376.643 110.953 376.566 111 376.41 111H376.363H376.161L375.725 110.626C374.749 109.744 374.038 108.644 373.592 107.325C373.145 106.007 372.922 104.637 372.922 103.215Z" fill="black"/>
<path d="M378.061 103.993C378.061 102.934 378.264 101.818 378.669 100.645C379.073 99.4725 379.624 98.4604 380.319 97.6091C381.015 96.7579 381.736 96.27 382.483 96.1455C382.494 96.1455 382.535 96.1455 382.608 96.1455C382.681 96.1455 382.743 96.1403 382.795 96.1299C383.355 96.1714 383.791 96.4258 384.103 96.8929C384.508 97.5157 384.71 98.3514 384.71 99.3998C384.71 100.594 384.477 101.808 384.009 103.043C383.542 104.279 382.945 105.291 382.219 106.08C381.492 106.869 380.797 107.263 380.132 107.263H380.023C379.65 107.263 379.328 107.159 379.058 106.952C378.788 106.744 378.586 106.469 378.451 106.126C378.316 105.784 378.217 105.436 378.155 105.083C378.092 104.73 378.061 104.367 378.061 103.993ZM383.48 98.2943C383.48 97.2354 383.205 96.706 382.655 96.706C382.281 96.706 381.918 96.9396 381.565 97.4067C381.212 97.8738 380.921 98.4033 380.693 98.995C380.464 99.5867 380.288 100.106 380.163 100.552C380.039 100.998 379.971 101.258 379.961 101.331C380.47 101.341 380.973 101.346 381.471 101.346L382.982 101.331C382.992 101.32 383.034 101.149 383.106 100.817C383.179 100.485 383.262 100.069 383.355 99.5711C383.449 99.0728 383.49 98.6472 383.48 98.2943ZM379.276 105.052C379.276 106.152 379.551 106.703 380.101 106.703C380.257 106.703 380.423 106.651 380.599 106.547C380.776 106.443 380.989 106.246 381.238 105.955C381.487 105.665 381.736 105.213 381.985 104.6C382.234 103.988 382.483 103.23 382.733 102.327L382.81 102.062H379.774C379.774 102.094 379.727 102.291 379.634 102.654C379.541 103.017 379.457 103.422 379.385 103.869C379.312 104.315 379.276 104.709 379.276 105.052Z" fill="black"/>
<path d="M385.051 106.284C385.058 106.24 385.069 106.181 385.084 106.107C385.098 106.034 385.143 105.895 385.216 105.689C385.289 105.484 385.363 105.311 385.436 105.172C385.509 105.032 385.631 104.897 385.799 104.764C385.968 104.632 386.137 104.57 386.306 104.577C386.57 104.577 386.79 104.643 386.966 104.775C387.142 104.908 387.253 105.032 387.297 105.15C387.341 105.267 387.363 105.344 387.363 105.381C387.363 105.396 387.366 105.403 387.374 105.403L387.495 105.282C387.942 104.812 388.452 104.577 389.025 104.577C389.421 104.577 389.74 104.676 389.983 104.875C390.225 105.073 390.35 105.363 390.357 105.744C390.364 106.126 390.225 106.702 389.939 107.473C389.652 108.243 389.513 108.709 389.52 108.871C389.52 109.061 389.583 109.157 389.707 109.157C389.751 109.157 389.785 109.153 389.807 109.146C390.019 109.109 390.21 108.97 390.379 108.728C390.548 108.485 390.676 108.192 390.764 107.847C390.779 107.788 390.852 107.759 390.984 107.759C391.131 107.759 391.205 107.788 391.205 107.847C391.205 107.854 391.19 107.909 391.161 108.012C391.102 108.225 391.021 108.434 390.918 108.639C390.816 108.845 390.647 109.05 390.412 109.256C390.177 109.461 389.924 109.561 389.652 109.553C389.307 109.553 389.058 109.454 388.904 109.256C388.75 109.058 388.673 108.852 388.673 108.639C388.673 108.5 388.805 108.06 389.069 107.318C389.333 106.577 389.469 106.019 389.476 105.645C389.476 105.212 389.315 104.996 388.992 104.996H388.937C388.306 104.996 387.774 105.366 387.341 106.107L387.264 106.24L386.9 107.715C386.658 108.676 386.519 109.194 386.482 109.267C386.386 109.465 386.229 109.564 386.009 109.564C385.913 109.564 385.836 109.542 385.777 109.498C385.719 109.454 385.678 109.41 385.656 109.366C385.634 109.322 385.627 109.285 385.634 109.256C385.634 109.161 385.774 108.562 386.053 107.462C386.331 106.361 386.478 105.763 386.493 105.667C386.5 105.63 386.504 105.546 386.504 105.414C386.504 105.128 386.416 104.985 386.24 104.985C385.961 104.985 385.73 105.352 385.546 106.085C385.502 106.232 385.48 106.309 385.48 106.317C385.465 106.361 385.396 106.383 385.271 106.383H385.117C385.073 106.339 385.051 106.306 385.051 106.284Z" fill="black"/>
<path d="M393.138 95.4446L393.2 95.4291C393.252 95.4291 393.304 95.4291 393.356 95.4291H393.543L393.979 95.8028C394.954 96.6851 395.665 97.7855 396.112 99.1038C396.558 100.422 396.781 101.792 396.781 103.215C396.781 103.92 396.729 104.6 396.626 105.254C396.522 105.908 396.402 106.464 396.268 106.92C396.133 107.377 395.941 107.834 395.691 108.291C395.442 108.747 395.245 109.095 395.1 109.334C394.954 109.573 394.742 109.837 394.461 110.128C394.181 110.419 394.015 110.59 393.963 110.642C393.911 110.694 393.792 110.792 393.605 110.938C393.574 110.969 393.553 110.99 393.543 111H393.356C393.273 111 393.216 111 393.185 111C393.153 111 393.127 110.984 393.107 110.953C393.086 110.922 393.07 110.875 393.06 110.813C393.07 110.803 393.127 110.735 393.231 110.611C394.84 108.939 395.645 106.474 395.645 103.215C395.645 99.955 394.84 97.4896 393.231 95.8183C393.127 95.6938 393.07 95.6263 393.06 95.6159C393.06 95.5329 393.086 95.4758 393.138 95.4446Z" fill="black"/>
<path d="M400.426 110.984H400.395C400.27 110.984 400.177 110.912 400.114 110.766V103.199L400.13 95.6314C400.234 95.4965 400.332 95.429 400.426 95.429C400.561 95.429 400.664 95.5069 400.737 95.6626V110.766C400.654 110.912 400.561 110.984 400.457 110.984H400.426Z" fill="black"/>
<path d="M406.139 97.1886C405.786 97.1886 405.599 97.1678 405.579 97.1263C405.568 97.1055 405.563 97.064 405.563 97.0017C405.563 96.7526 405.62 96.5813 405.734 96.4879C405.755 96.4775 405.843 96.4723 405.999 96.4723C406.425 96.4931 407.131 96.5035 408.117 96.5035C408.47 96.5035 408.797 96.5035 409.098 96.5035C409.399 96.5035 409.632 96.4983 409.798 96.4879C409.965 96.4775 410.068 96.4775 410.11 96.4879C410.276 96.4879 410.359 96.5398 410.359 96.6436C410.359 96.6644 410.349 96.737 410.328 96.8616C410.276 97.0381 410.224 97.1419 410.172 97.173H410.141C410.12 97.173 410.094 97.173 410.063 97.173C410.032 97.173 409.996 97.173 409.954 97.173C409.913 97.173 409.866 97.1782 409.814 97.1886C409.762 97.199 409.715 97.199 409.674 97.1886C409.269 97.199 409.009 97.2145 408.895 97.2353C408.781 97.2561 408.688 97.3132 408.615 97.4066C408.584 97.4481 408.418 98.0865 408.117 99.3218C408.044 99.5917 407.966 99.8927 407.883 100.225C407.8 100.557 407.738 100.801 407.696 100.957L407.634 101.19C407.634 101.211 408.387 101.221 409.892 101.221H412.15L412.165 101.175C412.165 101.144 412.326 100.505 412.648 99.2595C412.939 98.0657 413.084 97.4273 413.084 97.3443C413.084 97.2612 412.788 97.2093 412.196 97.1886C411.958 97.1886 411.802 97.1782 411.729 97.1574C411.657 97.1367 411.62 97.09 411.62 97.0173C411.62 96.9965 411.631 96.9343 411.651 96.8305C411.693 96.654 411.724 96.5554 411.745 96.5346C411.766 96.5138 411.849 96.4983 411.994 96.4879C412.046 96.4879 412.264 96.4931 412.648 96.5035C413.032 96.5138 413.52 96.519 414.112 96.519C414.755 96.519 415.248 96.5138 415.591 96.5035C415.933 96.4931 416.12 96.4879 416.151 96.4879C416.328 96.4879 416.416 96.5398 416.416 96.6436C416.416 96.9239 416.354 97.1003 416.229 97.173H416.198C416.177 97.173 416.151 97.173 416.12 97.173C416.089 97.173 416.053 97.173 416.011 97.173C415.97 97.173 415.923 97.1782 415.871 97.1886C415.819 97.199 415.772 97.199 415.731 97.1886C415.326 97.199 415.067 97.2145 414.952 97.2353C414.838 97.2561 414.745 97.3132 414.672 97.4066C414.641 97.4585 414.267 98.9273 413.551 101.813C412.835 104.699 412.471 106.163 412.461 106.204C412.461 106.277 412.482 106.313 412.523 106.313C412.606 106.344 412.887 106.37 413.364 106.391H413.847C413.909 106.474 413.94 106.521 413.94 106.531C413.94 106.542 413.925 106.635 413.894 106.811C413.852 106.946 413.8 107.045 413.738 107.107H413.504C413.12 107.087 412.425 107.076 411.418 107.076C411.065 107.076 410.738 107.076 410.437 107.076C410.136 107.076 409.897 107.076 409.721 107.076C409.544 107.076 409.435 107.081 409.394 107.092C409.217 107.092 409.129 107.045 409.129 106.952C409.129 106.9 409.144 106.827 409.176 106.734C409.227 106.536 409.279 106.427 409.331 106.407C409.373 106.396 409.451 106.391 409.565 106.391H409.658C409.939 106.391 410.25 106.375 410.593 106.344C410.655 106.334 410.696 106.329 410.717 106.329C410.738 106.329 410.769 106.303 410.811 106.251C410.852 106.199 410.883 106.152 410.904 106.111C410.925 106.069 410.956 105.976 410.997 105.83C411.039 105.685 411.075 105.54 411.106 105.394C411.138 105.249 411.195 105.026 411.278 104.725C411.35 104.434 411.407 104.201 411.449 104.024C411.792 102.654 411.963 101.964 411.963 101.953C411.963 101.943 411.21 101.938 409.705 101.938H407.447L406.933 104.04C406.58 105.431 406.404 106.152 406.404 106.204C406.404 106.277 406.445 106.324 406.529 106.344C406.612 106.365 406.871 106.381 407.307 106.391H407.79C407.852 106.474 407.883 106.521 407.883 106.531C407.883 106.542 407.868 106.635 407.836 106.811C407.795 106.946 407.743 107.045 407.681 107.107H407.447C407.063 107.087 406.368 107.076 405.361 107.076C405.008 107.076 404.681 107.076 404.38 107.076C404.079 107.076 403.84 107.076 403.663 107.076C403.487 107.076 403.378 107.081 403.336 107.092C403.16 107.092 403.072 107.045 403.072 106.952C403.072 106.931 403.087 106.858 403.118 106.734C403.17 106.536 403.222 106.427 403.274 106.407C403.316 106.396 403.394 106.391 403.508 106.391H403.601C403.881 106.391 404.193 106.375 404.535 106.344C404.681 106.313 404.779 106.251 404.831 106.157C404.862 106.116 405.236 104.673 405.952 101.829C406.669 98.9844 407.027 97.4844 407.027 97.3287C407.027 97.2561 406.731 97.2093 406.139 97.1886Z" fill="black"/>
<path d="M408.885 95.0867L411.018 93.0001L411.143 93.1247C412.493 94.4119 413.167 95.0659 413.167 95.0867L412.762 95.5382C412.742 95.5278 412.441 95.2683 411.859 94.7597L411.034 94.0434L410.178 94.7752C410.043 94.8894 409.908 95.0088 409.773 95.1334C409.638 95.2579 409.529 95.3565 409.446 95.4292L409.321 95.5226C409.3 95.5434 409.223 95.4707 409.088 95.3046L408.885 95.0867Z" fill="black"/>
<path d="M418.581 110.984H418.549C418.425 110.984 418.331 110.912 418.269 110.766V103.199L418.285 95.6314C418.389 95.4965 418.487 95.429 418.581 95.429C418.716 95.429 418.819 95.5069 418.892 95.6626V110.766C418.809 110.912 418.716 110.984 418.612 110.984H418.581Z" fill="black"/>
<path d="M426.039 97.4221C426.018 97.4118 425.992 97.3962 425.961 97.3754C425.93 97.3547 425.909 97.3339 425.899 97.3132C425.889 97.2924 425.857 97.282 425.805 97.282C425.754 97.282 425.696 97.2664 425.634 97.2353C425.572 97.2042 425.489 97.199 425.385 97.2197C425.281 97.2405 425.157 97.2353 425.011 97.2042C424.866 97.173 424.684 97.1678 424.466 97.1886H424.046V96.4723H424.233C424.482 96.5035 425.338 96.519 426.802 96.519C428.266 96.519 429.122 96.5035 429.371 96.4723H429.558V97.1886H429.138C428.515 97.1886 428.126 97.199 427.97 97.2197C427.814 97.2405 427.684 97.308 427.581 97.4221L427.565 100.77C427.565 103.002 427.57 104.118 427.581 104.118C427.622 104.107 427.674 104.092 427.736 104.071C427.799 104.05 427.928 103.988 428.126 103.884C428.323 103.78 428.494 103.651 428.639 103.495C428.785 103.339 428.935 103.111 429.091 102.81C429.247 102.509 429.356 102.156 429.418 101.751C429.449 101.533 429.475 101.154 429.496 100.614C429.517 100.074 429.574 99.6799 429.667 99.4308C429.812 98.9844 430.056 98.7197 430.399 98.6367C430.472 98.6159 430.736 98.6055 431.193 98.6055H431.878L431.987 98.699V99.0882C431.904 99.1505 431.831 99.1817 431.769 99.1817C431.478 99.2232 431.286 99.3945 431.193 99.6955C431.1 99.9965 431.032 100.433 430.991 101.003C430.949 101.574 430.876 102.016 430.773 102.327C430.305 103.676 429.304 104.476 427.767 104.725L427.565 104.756V105.457L427.581 106.157C427.653 106.23 427.716 106.277 427.767 106.298C427.819 106.318 427.949 106.339 428.157 106.36C428.364 106.381 428.691 106.391 429.138 106.391H429.558V107.107H429.371C429.122 107.076 428.266 107.061 426.802 107.061C425.338 107.061 424.482 107.076 424.233 107.107H424.046V106.391H424.466C424.674 106.391 424.85 106.391 424.996 106.391C425.141 106.391 425.271 106.386 425.385 106.375C425.499 106.365 425.582 106.36 425.634 106.36C425.686 106.36 425.743 106.344 425.805 106.313C425.868 106.282 425.899 106.266 425.899 106.266C425.899 106.266 425.92 106.251 425.961 106.22C426.003 106.189 426.029 106.168 426.039 106.157V104.756C423.818 104.476 422.66 103.152 422.567 100.785C422.546 99.7785 422.297 99.2439 421.819 99.1817C421.674 99.1817 421.601 99.0934 421.601 98.917C421.601 98.7612 421.622 98.673 421.664 98.6523C421.705 98.6315 421.845 98.6159 422.084 98.6055H422.411H422.613C422.925 98.6055 423.138 98.6211 423.252 98.6523C423.366 98.6834 423.485 98.7612 423.61 98.8858C423.755 99.0311 423.859 99.2128 423.921 99.4308C424.004 99.6488 424.051 100.028 424.062 100.567C424.072 101.107 424.139 101.647 424.264 102.187C424.389 102.727 424.627 103.173 424.98 103.526C425.136 103.671 425.297 103.791 425.463 103.884C425.629 103.978 425.769 104.045 425.883 104.087L426.023 104.118C426.034 104.118 426.039 103.002 426.039 100.77V97.4221Z" fill="black"/>
<path d="M434.323 103.215C434.323 102.498 434.375 101.818 434.479 101.175C434.583 100.531 434.702 99.9758 434.837 99.5087C434.972 99.0415 435.164 98.5848 435.413 98.1384C435.663 97.692 435.86 97.3443 436.005 97.0952C436.15 96.846 436.368 96.5761 436.659 96.2855C436.95 95.9948 437.121 95.8183 437.173 95.7561C437.225 95.6938 437.355 95.5848 437.562 95.4291H437.765H437.827C437.972 95.4291 438.045 95.4758 438.045 95.5692C438.045 95.6003 437.957 95.7093 437.78 95.8962C437.604 96.083 437.391 96.3581 437.142 96.7215C436.893 97.0848 436.638 97.5311 436.379 98.0606C436.119 98.59 435.901 99.3062 435.725 100.209C435.548 101.112 435.46 102.114 435.46 103.215C435.46 104.315 435.548 105.311 435.725 106.204C435.901 107.097 436.114 107.818 436.363 108.369C436.612 108.919 436.867 109.365 437.126 109.708C437.386 110.05 437.604 110.325 437.78 110.533C437.957 110.74 438.045 110.849 438.045 110.86C438.045 110.953 437.967 111 437.811 111H437.765H437.562L437.126 110.626C436.15 109.744 435.439 108.644 434.993 107.325C434.547 106.007 434.323 104.637 434.323 103.215Z" fill="black"/>
<path d="M439.462 103.993C439.462 102.934 439.664 101.818 440.069 100.645C440.474 99.4725 441.024 98.4604 441.719 97.6091C442.415 96.7579 443.136 96.27 443.884 96.1455C443.894 96.1455 443.936 96.1455 444.008 96.1455C444.081 96.1455 444.143 96.1403 444.195 96.1299C444.756 96.1714 445.192 96.4258 445.503 96.8929C445.908 97.5157 446.11 98.3514 446.11 99.3998C446.11 100.594 445.877 101.808 445.41 103.043C444.943 104.279 444.346 105.291 443.619 106.08C442.892 106.869 442.197 107.263 441.533 107.263H441.424C441.05 107.263 440.728 107.159 440.458 106.952C440.188 106.744 439.986 106.469 439.851 106.126C439.716 105.784 439.617 105.436 439.555 105.083C439.493 104.73 439.462 104.367 439.462 103.993ZM444.88 98.2943C444.88 97.2354 444.605 96.706 444.055 96.706C443.681 96.706 443.318 96.9396 442.965 97.4067C442.612 97.8738 442.322 98.4033 442.093 98.995C441.865 99.5867 441.688 100.106 441.564 100.552C441.439 100.998 441.372 101.258 441.361 101.331C441.87 101.341 442.373 101.346 442.872 101.346L444.382 101.331C444.392 101.32 444.434 101.149 444.507 100.817C444.579 100.485 444.662 100.069 444.756 99.5711C444.849 99.0728 444.891 98.6472 444.88 98.2943ZM440.676 105.052C440.676 106.152 440.951 106.703 441.501 106.703C441.657 106.703 441.823 106.651 442 106.547C442.176 106.443 442.389 106.246 442.638 105.955C442.887 105.665 443.136 105.213 443.386 104.6C443.635 103.988 443.884 103.23 444.133 102.327L444.211 102.062H441.174C441.174 102.094 441.128 102.291 441.034 102.654C440.941 103.017 440.858 103.422 440.785 103.869C440.713 104.315 440.676 104.709 440.676 105.052Z" fill="black"/>
<path d="M446.451 106.284C446.459 106.24 446.47 106.181 446.484 106.107C446.499 106.034 446.543 105.895 446.616 105.689C446.69 105.484 446.763 105.311 446.836 105.172C446.91 105.032 447.031 104.897 447.2 104.764C447.369 104.632 447.537 104.57 447.706 104.577C447.97 104.577 448.191 104.643 448.367 104.775C448.543 104.908 448.653 105.032 448.697 105.15C448.741 105.267 448.763 105.344 448.763 105.381C448.763 105.396 448.767 105.403 448.774 105.403L448.895 105.282C449.343 104.812 449.853 104.577 450.425 104.577C450.822 104.577 451.141 104.676 451.383 104.875C451.625 105.073 451.75 105.363 451.757 105.744C451.765 106.126 451.625 106.702 451.339 107.473C451.053 108.243 450.913 108.709 450.921 108.871C450.921 109.061 450.983 109.157 451.108 109.157C451.152 109.157 451.185 109.153 451.207 109.146C451.42 109.109 451.611 108.97 451.779 108.728C451.948 108.485 452.077 108.192 452.165 107.847C452.179 107.788 452.253 107.759 452.385 107.759C452.532 107.759 452.605 107.788 452.605 107.847C452.605 107.854 452.59 107.909 452.561 108.012C452.502 108.225 452.422 108.434 452.319 108.639C452.216 108.845 452.047 109.05 451.812 109.256C451.578 109.461 451.324 109.561 451.053 109.553C450.708 109.553 450.458 109.454 450.304 109.256C450.15 109.058 450.073 108.852 450.073 108.639C450.073 108.5 450.205 108.06 450.469 107.318C450.734 106.577 450.869 106.019 450.877 105.645C450.877 105.212 450.715 104.996 450.392 104.996H450.337C449.706 104.996 449.174 105.366 448.741 106.107L448.664 106.24L448.301 107.715C448.058 108.676 447.919 109.194 447.882 109.267C447.787 109.465 447.629 109.564 447.409 109.564C447.314 109.564 447.236 109.542 447.178 109.498C447.119 109.454 447.079 109.41 447.057 109.366C447.035 109.322 447.027 109.285 447.035 109.256C447.035 109.161 447.174 108.562 447.453 107.462C447.732 106.361 447.879 105.763 447.893 105.667C447.901 105.63 447.904 105.546 447.904 105.414C447.904 105.128 447.816 104.985 447.64 104.985C447.361 104.985 447.13 105.352 446.947 106.085C446.903 106.232 446.881 106.309 446.881 106.317C446.866 106.361 446.796 106.383 446.671 106.383H446.517C446.473 106.339 446.451 106.306 446.451 106.284Z" fill="black"/>
<path d="M454.537 95.4446L454.599 95.4291C454.651 95.4291 454.703 95.4291 454.755 95.4291H454.942L455.378 95.8028C456.354 96.6851 457.065 97.7855 457.511 99.1038C457.957 100.422 458.181 101.792 458.181 103.215C458.181 103.92 458.129 104.6 458.025 105.254C457.921 105.908 457.802 106.464 457.667 106.92C457.532 107.377 457.34 107.834 457.091 108.291C456.842 108.747 456.644 109.095 456.499 109.334C456.354 109.573 456.141 109.837 455.861 110.128C455.58 110.419 455.414 110.59 455.362 110.642C455.31 110.694 455.191 110.792 455.004 110.938C454.973 110.969 454.952 110.99 454.942 111H454.755C454.672 111 454.615 111 454.584 111C454.553 111 454.527 110.984 454.506 110.953C454.485 110.922 454.47 110.875 454.459 110.813C454.47 110.803 454.527 110.735 454.631 110.611C456.24 108.939 457.044 106.474 457.044 103.215C457.044 99.955 456.24 97.4896 454.631 95.8183C454.527 95.6938 454.47 95.6263 454.459 95.6159C454.459 95.5329 454.485 95.4758 454.537 95.4446Z" fill="black"/>
<path d="M460.517 95.7093C460.527 95.6367 460.559 95.5744 460.611 95.5225C460.662 95.4706 460.735 95.4394 460.829 95.4291C460.932 95.4291 461.021 95.481 461.093 95.5848C461.124 95.6574 461.612 96.9343 462.557 99.4152C463.502 101.896 463.979 103.163 463.989 103.215C464 103.266 463.527 104.533 462.572 107.014C461.617 109.495 461.124 110.772 461.093 110.844C461.021 110.948 460.932 111 460.829 111C460.745 111 460.678 110.974 460.626 110.922C460.574 110.87 460.538 110.803 460.517 110.72C460.517 110.668 460.984 109.407 461.918 106.936C462.863 104.476 463.335 103.235 463.335 103.215C463.335 103.194 462.863 101.953 461.918 99.4931C460.984 97.0225 460.517 95.7612 460.517 95.7093Z" fill="black"/>
<path d="M15 106.956C15 105.616 15.2563 104.203 15.7689 102.717C16.2815 101.232 16.9782 99.9507 17.8588 98.8729C18.7394 97.7951 19.6529 97.1773 20.5993 97.0196C20.6124 97.0196 20.665 97.0196 20.757 97.0196C20.849 97.0196 20.9279 97.013 20.9936 96.9999C21.7034 97.0525 22.2554 97.3745 22.6497 97.966C23.1623 98.7546 23.4186 99.8127 23.4186 101.14C23.4186 102.652 23.1229 104.19 22.5314 105.754C21.94 107.318 21.1842 108.599 20.2641 109.598C19.344 110.597 18.4634 111.097 17.6222 111.097H17.4842C17.011 111.097 16.6036 110.965 16.2618 110.702C15.9201 110.439 15.6638 110.091 15.4929 109.657C15.322 109.224 15.1972 108.783 15.1183 108.336C15.0394 107.89 15 107.43 15 106.956ZM21.8611 99.7404C21.8611 98.3997 21.5128 97.7294 20.8162 97.7294C20.343 97.7294 19.8829 98.0251 19.4361 98.6166C18.9892 99.2081 18.6211 99.8784 18.332 100.628C18.0428 101.377 17.8194 102.034 17.6616 102.599C17.5039 103.164 17.4185 103.493 17.4053 103.585C18.0494 103.598 18.6869 103.605 19.3178 103.605L21.2302 103.585C21.2433 103.572 21.2959 103.355 21.3879 102.934C21.4799 102.514 21.5851 101.988 21.7034 101.357C21.8217 100.726 21.8742 100.187 21.8611 99.7404ZM16.5378 108.297C16.5378 109.69 16.8861 110.387 17.5828 110.387C17.7799 110.387 17.9902 110.321 18.2137 110.19C18.4371 110.058 18.7066 109.809 19.022 109.441C19.3375 109.073 19.6529 108.501 19.9684 107.725C20.2838 106.95 20.5993 105.99 20.9147 104.847L21.0133 104.512H17.1687C17.1687 104.551 17.1096 104.801 16.9913 105.261C16.873 105.721 16.7678 106.233 16.6758 106.799C16.5838 107.364 16.5378 107.863 16.5378 108.297Z" fill="black"/>
<path d="M23.8495 109.856C23.8588 109.801 23.8727 109.726 23.8913 109.633C23.9099 109.54 23.9656 109.364 24.0586 109.104C24.1515 108.844 24.2444 108.625 24.3374 108.449C24.4303 108.272 24.5836 108.1 24.7973 107.933C25.0111 107.766 25.2248 107.687 25.4385 107.696C25.7731 107.696 26.0519 107.779 26.2749 107.947C26.4979 108.114 26.6373 108.272 26.6931 108.421C26.7488 108.569 26.7767 108.667 26.7767 108.713C26.7767 108.732 26.7813 108.741 26.7906 108.741L26.944 108.588C27.5108 107.993 28.1567 107.696 28.8815 107.696C29.3833 107.696 29.7875 107.821 30.0942 108.072C30.4008 108.323 30.5588 108.69 30.5681 109.173C30.5774 109.657 30.4008 110.386 30.0384 111.362C29.676 112.338 29.4995 112.928 29.5087 113.132C29.5087 113.374 29.5877 113.495 29.7457 113.495C29.8015 113.495 29.8433 113.49 29.8712 113.481C30.1407 113.434 30.3823 113.258 30.596 112.951C30.8097 112.644 30.9723 112.273 31.0839 111.836C31.1024 111.761 31.1954 111.724 31.3626 111.724C31.5485 111.724 31.6414 111.761 31.6414 111.836C31.6414 111.845 31.6228 111.915 31.5857 112.045C31.5113 112.314 31.4091 112.579 31.279 112.839C31.1489 113.1 30.9352 113.36 30.6378 113.62C30.3404 113.88 30.0198 114.006 29.676 113.996C29.2393 113.996 28.9233 113.871 28.7282 113.62C28.533 113.369 28.4354 113.109 28.4354 112.839C28.4354 112.663 28.6027 112.105 28.9372 111.167C29.2718 110.228 29.4437 109.522 29.453 109.048C29.453 108.5 29.2486 108.226 28.8397 108.226H28.77C27.9708 108.226 27.2971 108.695 26.7488 109.633L26.6512 109.801L26.1912 111.668C25.8846 112.886 25.708 113.541 25.6616 113.634C25.5408 113.885 25.341 114.01 25.0622 114.01C24.9414 114.01 24.8438 113.982 24.7695 113.927C24.6951 113.871 24.644 113.815 24.6161 113.759C24.5883 113.704 24.579 113.657 24.5883 113.62C24.5883 113.499 24.7648 112.742 25.1179 111.348C25.4711 109.954 25.6569 109.197 25.6755 109.076C25.6848 109.029 25.6894 108.922 25.6894 108.755C25.6894 108.393 25.5779 108.212 25.3549 108.212C25.0018 108.212 24.7091 108.676 24.4767 109.606C24.421 109.791 24.3931 109.889 24.3931 109.898C24.3745 109.954 24.2862 109.982 24.1283 109.982H23.9331C23.8774 109.926 23.8495 109.884 23.8495 109.856Z" fill="black"/>
<path d="M39.4869 106.227C39.4869 106.227 39.4869 106.142 39.4869 105.971C39.4869 105.8 39.5789 105.668 39.7629 105.576H54.8455C53.3208 104.433 52.381 102.967 52.0261 101.18C52.0261 101.167 52.0261 101.147 52.0261 101.121C52.0261 101.094 52.0195 101.075 52.0064 101.062C52.0064 100.904 52.1181 100.825 52.3416 100.825H52.4007C52.519 100.825 52.5979 100.832 52.6373 100.845C52.6767 100.858 52.7162 100.884 52.7556 100.924C52.795 100.963 52.8147 101.022 52.8147 101.101C52.8147 101.18 52.8345 101.285 52.8739 101.416C52.9133 101.548 52.9659 101.712 53.0316 101.909C53.3208 102.79 53.8005 103.579 54.4709 104.275C55.1412 104.972 55.9233 105.465 56.8171 105.754C56.9354 105.793 56.9945 105.866 56.9945 105.971C56.9945 106.05 56.9616 106.109 56.8959 106.148C56.8302 106.188 56.6725 106.253 56.4227 106.345C56.173 106.437 55.9233 106.562 55.6735 106.72C55.1346 107.062 54.668 107.456 54.2737 107.903C53.8794 108.35 53.5837 108.79 53.3865 109.224C53.1894 109.658 53.0513 109.986 52.9725 110.21C52.8936 110.433 52.841 110.637 52.8147 110.821C52.7885 110.952 52.7556 111.031 52.7162 111.057C52.6767 111.084 52.5716 111.103 52.4007 111.117C52.1378 111.117 52.0064 111.044 52.0064 110.9C52.0064 110.808 52.0393 110.643 52.105 110.407C52.5256 108.751 53.4391 107.403 54.8455 106.365H39.7629C39.5789 106.273 39.4869 106.142 39.4869 105.971V106.227Z" fill="black"/>
<path d="M64.2659 106.956C64.2659 105.616 64.5222 104.203 65.0348 102.718C65.5474 101.232 66.244 99.9508 67.1247 98.873C68.0053 97.7952 68.9188 97.1775 69.8652 97.0197C69.8783 97.0197 69.9309 97.0197 70.0229 97.0197C70.1149 97.0197 70.1937 97.0132 70.2595 97C70.9692 97.0526 71.5213 97.3746 71.9156 97.9661C72.4282 98.7547 72.6845 99.8128 72.6845 101.14C72.6845 102.652 72.3888 104.19 71.7973 105.754C71.2058 107.318 70.4501 108.599 69.53 109.598C68.6099 110.597 67.7293 111.097 66.8881 111.097H66.7501C66.2769 111.097 65.8694 110.965 65.5277 110.702C65.1859 110.44 64.9296 110.091 64.7588 109.658C64.5879 109.224 64.463 108.783 64.3842 108.337C64.3053 107.89 64.2659 107.43 64.2659 106.956ZM71.127 99.7405C71.127 98.3998 70.7787 97.7295 70.082 97.7295C69.6088 97.7295 69.1488 98.0252 68.7019 98.6167C68.255 99.2082 67.887 99.8785 67.5978 100.628C67.3087 101.377 67.0852 102.034 66.9275 102.599C66.7698 103.164 66.6843 103.493 66.6712 103.585C67.3152 103.598 67.9527 103.605 68.5836 103.605L70.4961 103.585C70.5092 103.572 70.5618 103.355 70.6538 102.934C70.7458 102.514 70.8509 101.988 70.9692 101.357C71.0875 100.726 71.1401 100.187 71.127 99.7405ZM65.8037 108.297C65.8037 109.69 66.152 110.387 66.8486 110.387C67.0458 110.387 67.2561 110.321 67.4795 110.19C67.703 110.058 67.9724 109.809 68.2879 109.441C68.6033 109.073 68.9188 108.501 69.2342 107.725C69.5497 106.95 69.8652 105.99 70.1806 104.847L70.2792 104.512H66.4346C66.4346 104.551 66.3755 104.801 66.2572 105.261C66.1389 105.721 66.0337 106.234 65.9417 106.799C65.8497 107.364 65.8037 107.863 65.8037 108.297Z" fill="black"/>
<path d="M73.115 109.857C73.1243 109.801 73.1382 109.726 73.1568 109.634C73.1754 109.541 73.2311 109.364 73.3241 109.104C73.417 108.844 73.5099 108.625 73.6029 108.449C73.6958 108.272 73.8491 108.1 74.0628 107.933C74.2766 107.766 74.4903 107.687 74.704 107.696C75.0386 107.696 75.3174 107.78 75.5404 107.947C75.7634 108.114 75.9028 108.272 75.9586 108.421C76.0143 108.569 76.0422 108.667 76.0422 108.714C76.0422 108.732 76.0468 108.741 76.0561 108.741L76.2095 108.588C76.7763 107.993 77.4222 107.696 78.147 107.696C78.6488 107.696 79.053 107.821 79.3597 108.072C79.6663 108.323 79.8243 108.69 79.8336 109.174C79.8429 109.657 79.6663 110.386 79.3039 111.362C78.9415 112.338 78.765 112.928 78.7742 113.132C78.7742 113.374 78.8532 113.495 79.0112 113.495C79.067 113.495 79.1088 113.49 79.1367 113.481C79.4062 113.434 79.6478 113.258 79.8615 112.951C80.0752 112.644 80.2379 112.273 80.3494 111.836C80.3679 111.762 80.4609 111.724 80.6281 111.724C80.814 111.724 80.9069 111.762 80.9069 111.836C80.9069 111.845 80.8883 111.915 80.8512 112.045C80.7768 112.314 80.6746 112.579 80.5445 112.839C80.4144 113.1 80.2007 113.36 79.9033 113.62C79.6059 113.88 79.2853 114.006 78.9415 113.996C78.5048 113.996 78.1888 113.871 77.9937 113.62C77.7985 113.369 77.7009 113.109 77.7009 112.839C77.7009 112.663 77.8682 112.105 78.2027 111.167C78.5373 110.228 78.7092 109.522 78.7185 109.048C78.7185 108.5 78.5141 108.226 78.1052 108.226H78.0355C77.2363 108.226 76.5626 108.695 76.0143 109.634L75.9167 109.801L75.4568 111.669C75.1501 112.886 74.9735 113.541 74.9271 113.634C74.8063 113.885 74.6065 114.01 74.3277 114.01C74.2069 114.01 74.1093 113.982 74.035 113.927C73.9606 113.871 73.9095 113.815 73.8816 113.759C73.8538 113.704 73.8445 113.657 73.8538 113.62C73.8538 113.499 74.0303 112.742 74.3834 111.348C74.7366 109.954 74.9224 109.197 74.941 109.076C74.9503 109.029 74.9549 108.923 74.9549 108.755C74.9549 108.393 74.8434 108.212 74.6204 108.212C74.2673 108.212 73.9746 108.676 73.7422 109.606C73.6865 109.791 73.6586 109.889 73.6586 109.898C73.64 109.954 73.5517 109.982 73.3938 109.982H73.1986C73.1429 109.926 73.115 109.884 73.115 109.857Z" fill="black"/>
<path d="M81.9661 110.553C81.9661 110.553 81.9661 110.493 81.9661 110.372C81.9661 110.251 82.0312 110.158 82.1613 110.093H86.3291V108.003L86.343 105.912C86.4359 105.791 86.5242 105.731 86.6078 105.731C86.7286 105.731 86.8216 105.8 86.8866 105.94V110.093H91.0405C91.1798 110.168 91.2495 110.261 91.2495 110.372C91.2495 110.484 91.1798 110.577 91.0405 110.651H86.8866V114.805C86.8123 114.935 86.7286 115 86.6357 115H86.6078H86.58C86.4684 115 86.3848 114.935 86.3291 114.805V110.651H82.1613C82.0312 110.586 81.9661 110.493 81.9661 110.372V110.553Z" fill="black"/>
<path d="M94.9991 105.8L94.8179 105.87C94.6878 105.916 94.5019 105.963 94.2603 106.009C94.0187 106.056 93.7492 106.088 93.4519 106.107H93.187V105.466H93.4519C93.8886 105.447 94.2928 105.377 94.6646 105.256C95.0363 105.136 95.2965 105.024 95.4451 104.922C95.5938 104.82 95.7239 104.717 95.8354 104.615C95.854 104.587 95.9098 104.573 96.0027 104.573C96.0863 104.573 96.1653 104.601 96.2397 104.657V108.825L96.2536 113.007C96.3187 113.072 96.3744 113.113 96.4209 113.132C96.4673 113.151 96.5789 113.169 96.7554 113.188C96.932 113.206 97.22 113.216 97.6196 113.216H97.982V113.857H97.8287C97.6336 113.829 96.8948 113.815 95.6124 113.815C94.3486 113.815 93.6191 113.829 93.424 113.857H93.2567V113.216H93.6191C93.8236 113.216 94.0001 113.216 94.1488 113.216C94.2975 113.216 94.4136 113.211 94.4973 113.202C94.5809 113.192 94.6553 113.179 94.7203 113.16C94.7854 113.141 94.8225 113.132 94.8318 113.132C94.8411 113.132 94.869 113.109 94.9155 113.062C94.9619 113.016 94.9898 112.997 94.9991 113.007V105.8Z" fill="black"/>
<path d="M232 24.5358C232 23.1171 232.271 21.6219 232.814 20.0503C233.356 18.4786 234.093 17.1225 235.025 15.982C235.957 14.8415 236.924 14.1878 237.925 14.0209C237.939 14.0209 237.995 14.0209 238.092 14.0209C238.189 14.0209 238.273 14.0139 238.342 14C239.093 14.0556 239.678 14.3964 240.095 15.0223C240.637 15.8568 240.908 16.9764 240.908 18.3812C240.908 19.9807 240.596 21.608 239.97 23.2632C239.344 24.9183 238.544 26.2744 237.57 27.3314C236.597 28.3885 235.665 28.917 234.775 28.917H234.629C234.128 28.917 233.697 28.7779 233.335 28.4998C232.974 28.2216 232.702 27.853 232.522 27.394C232.341 26.935 232.209 26.4691 232.125 25.9962C232.042 25.5233 232 25.0365 232 24.5358ZM239.26 16.8999C239.26 15.4813 238.892 14.7719 238.155 14.7719C237.654 14.7719 237.167 15.0849 236.694 15.7108C236.221 16.3366 235.832 17.046 235.526 17.8388C235.22 18.6316 234.983 19.327 234.817 19.9251C234.65 20.5231 234.559 20.8709 234.545 20.9682C235.227 20.9821 235.901 20.9891 236.569 20.9891L238.593 20.9682C238.607 20.9543 238.662 20.7248 238.76 20.2797C238.857 19.8347 238.968 19.2783 239.093 18.6107C239.219 17.9431 239.274 17.3728 239.26 16.8999ZM233.627 25.9545C233.627 27.4288 233.996 28.166 234.733 28.166C234.942 28.166 235.164 28.0964 235.401 27.9573C235.637 27.8182 235.922 27.554 236.256 27.1645C236.59 26.7751 236.924 26.1701 237.257 25.3495C237.591 24.5288 237.925 23.5135 238.259 22.3035L238.363 21.9488H234.295C234.295 21.9905 234.232 22.2548 234.107 22.7416C233.982 23.2284 233.871 23.7708 233.773 24.3689C233.676 24.967 233.627 25.4955 233.627 25.9545Z" fill="black"/>
<path d="M241.365 27.6045C241.374 27.5455 241.389 27.4668 241.409 27.3685C241.429 27.2701 241.488 27.0833 241.586 26.808C241.684 26.5326 241.783 26.3015 241.881 26.1147C241.979 25.9279 242.141 25.7459 242.368 25.5689C242.594 25.3919 242.82 25.3084 243.046 25.3182C243.4 25.3182 243.695 25.4067 243.931 25.5837C244.167 25.7607 244.315 25.9279 244.374 26.0852C244.433 26.2425 244.462 26.3458 244.462 26.395C244.462 26.4146 244.467 26.4245 244.477 26.4245L244.639 26.2622C245.239 25.6329 245.922 25.3182 246.689 25.3182C247.22 25.3182 247.648 25.4509 247.973 25.7164C248.297 25.9819 248.464 26.3704 248.474 26.8817C248.484 27.393 248.297 28.165 247.914 29.1975C247.53 30.23 247.343 30.8544 247.353 31.0707C247.353 31.3264 247.437 31.4542 247.604 31.4542C247.663 31.4542 247.707 31.4493 247.737 31.4395C248.022 31.3903 248.278 31.2035 248.504 30.879C248.73 30.5545 248.902 30.1612 249.02 29.699C249.04 29.6203 249.138 29.581 249.315 29.581C249.512 29.581 249.61 29.6203 249.61 29.699C249.61 29.7088 249.59 29.7826 249.551 29.9202C249.472 30.2054 249.364 30.4857 249.226 30.761C249.089 31.0363 248.863 31.3117 248.548 31.587C248.233 31.8623 247.894 31.9951 247.53 31.9852C247.068 31.9852 246.734 31.8525 246.527 31.587C246.321 31.3215 246.217 31.0462 246.217 30.761C246.217 30.5742 246.394 29.9841 246.748 28.991C247.102 27.9978 247.284 27.2505 247.294 26.749C247.294 26.1688 247.078 25.8787 246.645 25.8787H246.571C245.726 25.8787 245.013 26.3753 244.433 27.3685L244.329 27.5455L243.843 29.522C243.518 30.8102 243.331 31.5034 243.282 31.6017C243.154 31.8672 242.943 32 242.648 32C242.52 32 242.417 31.9705 242.338 31.9115C242.259 31.8525 242.205 31.7935 242.176 31.7345C242.146 31.6755 242.137 31.6263 242.146 31.587C242.146 31.4592 242.333 30.6577 242.707 29.1827C243.081 27.7077 243.277 26.9063 243.297 26.7785C243.307 26.7293 243.312 26.6162 243.312 26.4392C243.312 26.0557 243.194 25.8639 242.958 25.8639C242.584 25.8639 242.274 26.3556 242.028 27.339C241.969 27.5356 241.94 27.6389 241.94 27.6487C241.92 27.7077 241.827 27.7372 241.66 27.7372H241.453C241.394 27.6782 241.365 27.634 241.365 27.6045Z" fill="black"/>
</svg>
