<svg xmlns="http://www.w3.org/2000/svg" width="441" height="434" fill="none" viewBox="0 0 441 434"><path fill="#000" d="M8.53033 25.4697C8.23744 25.1768 7.76256 25.1768 7.46967 25.4697L2.6967 30.2426C2.40381 30.5355 2.40381 31.0104 2.6967 31.3033C2.98959 31.5962 3.46447 31.5962 3.75736 31.3033L8 27.0607L12.2426 31.3033C12.5355 31.5962 13.0104 31.5962 13.3033 31.3033C13.5962 31.0104 13.5962 30.5355 13.3033 30.2426L8.53033 25.4697ZM8.75 426L8.75 26H7.25L7.25 426H8.75Z"/><path fill="#000" d="M408.53 426.53C408.823 426.237 408.823 425.763 408.53 425.47L403.757 420.697C403.464 420.404 402.99 420.404 402.697 420.697C402.404 420.99 402.404 421.464 402.697 421.757L406.939 426L402.697 430.243C402.404 430.536 402.404 431.01 402.697 431.303C402.99 431.596 403.464 431.596 403.757 431.303L408.53 426.53ZM8 426.75H408V425.25H8V426.75Z"/><path fill="#000" d="M3.18 14.656V3.88H4.02V14.656H3.18Z"/><path fill="#000" d="M422.18 432.656V421.88H423.02V432.656H422.18ZM427.247 431L429.551 427.856L427.307 424.808H428.459L429.395 426.116L430.139 427.148H430.187L430.907 426.116L431.831 424.808H432.935L430.667 427.844L432.995 431H431.843L430.799 429.548L430.091 428.564H430.043L429.359 429.548L428.351 431H427.247Z"/><path stroke="#000" d="M17.2866 4L20.2866 9.5L17.2866 15"/><path stroke="#000" d="M6 10.5908L8.78662 14L14.7866 5"/><path stroke="#000" stroke-width=".85" d="M437 422L440 427.5L437 433"/></svg>