<svg width="261" height="95" viewBox="0 0 261 95" fill="none" xmlns="http://www.w3.org/2000/svg">
<rect x="0.5" y="0.5" width="47" height="47" fill="#F2F4F8" stroke="#262626"/>
<rect x="47.5" y="0.5" width="47" height="47" fill="#F2F4F8" stroke="#262626"/>
<rect x="47.5" y="47.5" width="47" height="47" fill="#F2F4F8" stroke="#262626"/>
<rect x="0.5" y="47.5" width="47" height="47" fill="#F2F4F8" stroke="#262626"/>
<path d="M31.9722 42.8H33.0922V32.776H31.9722V33.952H31.9162C31.5382 33.042 30.7962 32.608 29.8022 32.608C27.9962 32.608 26.8622 34.078 26.8622 36.388C26.8622 38.698 27.9962 40.168 29.8022 40.168C30.7962 40.168 31.4822 39.72 31.9162 38.824H31.9722V42.8ZM30.1102 39.16C28.8502 39.16 28.0662 38.292 28.0662 37.004V35.772C28.0662 34.484 28.8502 33.616 30.1102 33.616C31.1322 33.616 31.9722 34.204 31.9722 35.002V37.69C31.9722 38.628 31.1322 39.16 30.1102 39.16ZM38.6433 40.168C40.9813 40.168 42.0033 38.306 42.0033 35.114C42.0033 31.922 40.9813 30.06 38.6433 30.06C36.3053 30.06 35.2833 31.922 35.2833 35.114C35.2833 38.306 36.3053 40.168 38.6433 40.168ZM38.6433 39.146C37.1173 39.146 36.5153 37.802 36.5153 35.912V34.316C36.5153 32.426 37.1173 31.082 38.6433 31.082C40.1693 31.082 40.7713 32.426 40.7713 34.316V35.912C40.7713 37.802 40.1693 39.146 38.6433 39.146Z" fill="black"/>
<path d="M78.9722 43.8H80.0922V33.776H78.9722V34.952H78.9162C78.5382 34.042 77.7962 33.608 76.8022 33.608C74.9962 33.608 73.8622 35.078 73.8622 37.388C73.8622 39.698 74.9962 41.168 76.8022 41.168C77.7962 41.168 78.4822 40.72 78.9162 39.824H78.9722V43.8ZM77.1102 40.16C75.8502 40.16 75.0662 39.292 75.0662 38.004V36.772C75.0662 35.484 75.8502 34.616 77.1102 34.616C78.1322 34.616 78.9722 35.204 78.9722 36.002V38.69C78.9722 39.628 78.1322 40.16 77.1102 40.16ZM89.1013 41V39.964H86.5813V31.228H84.7473L82.1573 33.65L82.8433 34.392L85.3073 32.096H85.4053V39.964H82.6753V41H89.1013Z" fill="black"/>
<path d="M31.9722 90.8H33.0922V80.776H31.9722V81.952H31.9162C31.5382 81.042 30.7962 80.608 29.8022 80.608C27.9962 80.608 26.8622 82.078 26.8622 84.388C26.8622 86.698 27.9962 88.168 29.8022 88.168C30.7962 88.168 31.4822 87.72 31.9162 86.824H31.9722V90.8ZM30.1102 87.16C28.8502 87.16 28.0662 86.292 28.0662 85.004V83.772C28.0662 82.484 28.8502 81.616 30.1102 81.616C31.1322 81.616 31.9722 82.204 31.9722 83.002V85.69C31.9722 86.628 31.1322 87.16 30.1102 87.16ZM41.9053 86.964H36.7673L39.3993 84.598C40.6453 83.478 41.5413 82.414 41.5413 80.902C41.5413 79.236 40.4493 78.06 38.5453 78.06C36.6553 78.06 35.7873 79.208 35.4093 80.356L36.4593 80.762C36.7253 79.838 37.2853 79.11 38.4893 79.11C39.6933 79.11 40.2953 79.852 40.2953 80.93V81.098C40.2953 82.036 39.5953 83.016 38.6853 83.856L35.4933 86.796V88H41.9053V86.964Z" fill="black"/>
<path d="M78.9722 90.8H80.0922V80.776H78.9722V81.952H78.9162C78.5382 81.042 77.7962 80.608 76.8022 80.608C74.9962 80.608 73.8622 82.078 73.8622 84.388C73.8622 86.698 74.9962 88.168 76.8022 88.168C77.7962 88.168 78.4822 87.72 78.9162 86.824H78.9722V90.8ZM77.1102 87.16C75.8502 87.16 75.0662 86.292 75.0662 85.004V83.772C75.0662 82.484 75.8502 81.616 77.1102 81.616C78.1322 81.616 78.9722 82.204 78.9722 83.002V85.69C78.9722 86.628 78.1322 87.16 77.1102 87.16ZM84.0333 82.372V83.394H85.1813C86.5533 83.394 87.2813 84.052 87.2813 85.2V85.312C87.2813 86.46 86.5533 87.118 85.1813 87.118C83.9913 87.118 83.4173 86.6 82.9133 85.83L82.0313 86.502C82.6333 87.342 83.5013 88.168 85.1953 88.168C87.1833 88.168 88.5133 87.006 88.5133 85.326C88.5133 83.856 87.5053 83.072 86.4553 82.862V82.806C87.4913 82.54 88.3313 81.784 88.3313 80.524C88.3313 78.942 87.0153 78.06 85.3633 78.06C83.7953 78.06 82.9413 78.872 82.4513 79.656L83.3193 80.328C83.7253 79.586 84.3273 79.11 85.3353 79.11C86.3713 79.11 87.0853 79.628 87.0853 80.65V80.748C87.0853 81.686 86.4133 82.372 85.0973 82.372H84.0333Z" fill="black"/>
<path d="M111 48.2022C111 47.9398 111.141 47.738 111.424 47.5967H130.711C131.014 47.7581 131.165 47.96 131.165 48.2022C131.165 48.4243 131.024 48.616 130.742 48.7775L121.113 48.8078H111.484C111.161 48.7069 111 48.505 111 48.2022ZM111 54.0763C111 53.7735 111.161 53.5716 111.484 53.4707H130.742C131.024 53.6725 131.165 53.8744 131.165 54.0763C131.165 54.3387 131.014 54.5405 130.711 54.6818H111.424C111.141 54.5405 111 54.3387 111 54.0763Z" fill="black"/>
<path d="M145.481 66.2482H145.42C145.178 66.2482 144.996 66.1069 144.875 65.8243V51.109L144.905 36.3936C145.107 36.1312 145.299 36 145.481 36C145.743 36 145.945 36.1514 146.086 36.4542V65.8243C145.925 66.1069 145.743 66.2482 145.541 66.2482H145.481Z" fill="black"/>
<path d="M150.688 53.9551C150.688 51.9164 151.455 49.9786 152.989 48.1417C154.523 46.3048 156.249 45.3762 158.166 45.356C159.377 45.356 160.306 45.8809 160.952 46.9305C160.972 46.9103 161.023 46.8498 161.103 46.7488C161.184 46.6479 161.295 46.5369 161.436 46.4158C161.578 46.2947 161.739 46.1736 161.921 46.0524C162.607 45.568 163.071 45.3258 163.314 45.3258C163.394 45.3258 163.465 45.356 163.526 45.4166C163.586 45.4772 163.616 45.5276 163.616 45.568C163.616 45.7497 162.92 48.6261 161.527 54.1974C160.094 59.9301 159.377 62.8368 159.377 62.9176C159.377 63.0791 159.832 63.1699 160.74 63.1901H161.497C161.618 63.3516 161.679 63.4424 161.679 63.4626C161.679 63.4828 161.648 63.6644 161.588 64.0076C161.507 64.27 161.406 64.4618 161.285 64.5829H160.891C160.266 64.5425 159.176 64.5223 157.621 64.5223C157.056 64.5223 156.541 64.5223 156.077 64.5223C155.613 64.5223 155.239 64.5223 154.957 64.5223C154.674 64.5223 154.503 64.5324 154.442 64.5526C154.159 64.5526 154.018 64.4719 154.018 64.3104C154.018 64.2498 154.038 64.0984 154.079 63.8562C154.159 63.5332 154.23 63.3415 154.291 63.2809C154.351 63.2204 154.553 63.1901 154.896 63.1901C155.865 63.1901 156.451 63.1194 156.652 62.9781C156.814 62.8772 157.096 61.989 157.5 60.3136C157.904 58.6382 158.116 57.7803 158.136 57.7399C158.136 57.7198 158.065 57.75 157.924 57.8308C156.955 58.618 155.946 59.0116 154.896 59.0116C153.786 59.0116 152.807 58.6079 151.959 57.8005C151.111 56.9931 150.688 55.7113 150.688 53.9551ZM160.346 48.8381C159.882 47.2434 159.125 46.4461 158.075 46.4461C157.369 46.4461 156.693 46.7589 156.047 47.3847C155.401 48.0105 154.896 48.828 154.533 49.8373C153.947 51.4319 153.534 53.0871 153.291 54.8029C153.291 54.8635 153.291 54.9745 153.291 55.136C153.291 55.2975 153.281 55.4186 153.261 55.4993C153.261 56.4077 153.443 57.0334 153.806 57.3766C154.17 57.7198 154.604 57.9014 155.108 57.9216C156.198 57.9216 157.318 57.1949 158.469 55.7416L158.711 55.4085L160.346 48.8381Z" fill="black"/>
<path d="M165.913 53.3393C165.528 53.3393 165.228 53.218 165.014 52.9754C164.8 52.7327 164.686 52.4188 164.672 52.0335C164.672 51.2485 165.014 50.5492 165.699 49.9356C166.384 49.3219 167.212 49.0151 168.182 49.0151C168.682 49.0151 168.996 49.0222 169.124 49.0365C170.18 49.2077 170.987 49.5859 171.543 50.171C172.1 50.7562 172.385 51.3912 172.4 52.0763C172.4 52.8184 172.157 53.5391 171.672 54.2384C171.187 54.9377 170.516 55.4443 169.66 55.7583L169.595 55.8011C169.595 55.8153 169.66 55.8367 169.788 55.8653C169.916 55.8938 170.123 55.958 170.409 56.0579C170.694 56.1578 170.965 56.3077 171.222 56.5075C172.392 57.2639 172.978 58.2629 172.978 59.5045C172.978 60.6319 172.535 61.6166 171.65 62.4586C170.766 63.3006 169.645 63.7216 168.29 63.7216C167.148 63.7216 166.163 63.4148 165.335 62.8011C164.508 62.1875 164.094 61.4097 164.094 60.4678C164.094 60.0682 164.222 59.7471 164.479 59.5045C164.736 59.2618 165.057 59.1334 165.442 59.1191C165.842 59.1191 166.17 59.2476 166.427 59.5045C166.684 59.7613 166.812 60.0824 166.812 60.4678C166.812 60.6248 166.791 60.7675 166.748 60.8959C166.705 61.0243 166.655 61.1385 166.598 61.2384C166.541 61.3383 166.463 61.4239 166.363 61.4953C166.263 61.5667 166.177 61.6237 166.106 61.6666C166.035 61.7094 165.963 61.7379 165.892 61.7522C165.821 61.7665 165.763 61.7879 165.721 61.8164L165.635 61.8378C166.363 62.48 167.248 62.8011 168.29 62.8011C169.074 62.8011 169.667 62.4229 170.066 61.6666C170.309 61.1956 170.43 60.4749 170.43 59.5045V59.0763C170.43 57.7206 169.974 56.8143 169.06 56.3576C168.846 56.272 168.411 56.2221 167.754 56.2078L166.855 56.1864L166.791 56.1436C166.762 56.1008 166.748 55.9866 166.748 55.8011C166.748 55.5442 166.805 55.4157 166.919 55.4157C167.319 55.4157 167.733 55.3801 168.161 55.3087C168.646 55.2373 169.089 54.9377 169.488 54.4096C169.888 53.8816 170.088 53.0824 170.088 52.012V51.8408C170.088 51.0273 169.838 50.4636 169.338 50.1496C169.024 49.9498 168.689 49.8499 168.332 49.8499C167.876 49.8499 167.455 49.9284 167.069 50.0854C166.684 50.2424 166.413 50.4065 166.256 50.5778C166.099 50.749 166.02 50.8347 166.02 50.8347H166.085C166.127 50.8489 166.184 50.8632 166.256 50.8775C166.327 50.8917 166.399 50.9274 166.47 50.9845C166.541 51.0416 166.627 51.0915 166.727 51.1344C166.827 51.1772 166.898 51.2557 166.941 51.3698C166.984 51.484 167.041 51.591 167.112 51.6909C167.183 51.7908 167.205 51.9336 167.176 52.1191C167.176 52.433 167.076 52.7113 166.877 52.9539C166.677 53.1966 166.356 53.325 165.913 53.3393Z" fill="black"/>
<path d="M176.41 53.9551C176.41 51.9164 177.177 49.9786 178.711 48.1417C180.245 46.3048 181.971 45.3762 183.889 45.356C185.1 45.356 186.029 45.8809 186.675 46.9305C186.695 46.9103 186.745 46.8498 186.826 46.7488C186.907 46.6479 187.018 46.5369 187.159 46.4158C187.3 46.2947 187.462 46.1736 187.643 46.0524C188.33 45.568 188.794 45.3258 189.036 45.3258C189.117 45.3258 189.188 45.356 189.248 45.4166C189.309 45.4772 189.339 45.5276 189.339 45.568C189.339 45.7497 188.643 48.6261 187.25 54.1974C185.817 59.9301 185.1 62.8368 185.1 62.9176C185.1 63.0791 185.554 63.1699 186.463 63.1901H187.22C187.341 63.3516 187.401 63.4424 187.401 63.4626C187.401 63.4828 187.371 63.6644 187.31 64.0076C187.23 64.27 187.129 64.4618 187.008 64.5829H186.614C185.988 64.5425 184.898 64.5223 183.344 64.5223C182.779 64.5223 182.264 64.5223 181.8 64.5223C181.335 64.5223 180.962 64.5223 180.679 64.5223C180.397 64.5223 180.225 64.5324 180.165 64.5526C179.882 64.5526 179.741 64.4719 179.741 64.3104C179.741 64.2498 179.761 64.0984 179.801 63.8562C179.882 63.5332 179.953 63.3415 180.013 63.2809C180.074 63.2204 180.276 63.1901 180.619 63.1901C181.588 63.1901 182.173 63.1194 182.375 62.9781C182.537 62.8772 182.819 61.989 183.223 60.3136C183.627 58.6382 183.838 57.7803 183.859 57.7399C183.859 57.7198 183.788 57.75 183.647 57.8308C182.678 58.618 181.669 59.0116 180.619 59.0116C179.509 59.0116 178.53 58.6079 177.682 57.8005C176.834 56.9931 176.41 55.7113 176.41 53.9551ZM186.069 48.8381C185.605 47.2434 184.848 46.4461 183.798 46.4461C183.092 46.4461 182.415 46.7589 181.769 47.3847C181.124 48.0105 180.619 48.828 180.256 49.8373C179.67 51.4319 179.256 53.0871 179.014 54.8029C179.014 54.8635 179.014 54.9745 179.014 55.136C179.014 55.2975 179.004 55.4186 178.984 55.4993C178.984 56.4077 179.165 57.0334 179.529 57.3766C179.892 57.7198 180.326 57.9014 180.831 57.9216C181.921 57.9216 183.041 57.1949 184.192 55.7416L184.434 55.4085L186.069 48.8381Z" fill="black"/>
<path d="M191.249 54.0671C190.864 54.0671 190.557 53.9386 190.329 53.6817C190.1 53.4248 189.986 53.1109 189.986 52.7398C189.986 51.7266 190.365 50.8489 191.121 50.1068C191.877 49.3647 192.819 48.9936 193.947 48.9936C195.245 48.9936 196.33 49.3932 197.2 50.1924C198.071 50.9916 198.513 52.0263 198.528 53.2964C198.528 53.9101 198.385 54.4952 198.1 55.0518C197.814 55.6083 197.472 56.0936 197.072 56.5074C196.672 56.9213 196.102 57.4493 195.359 58.0915C194.846 58.534 194.132 59.1904 193.219 60.061L191.956 61.2598L193.583 61.2812C195.823 61.2812 197.015 61.2455 197.158 61.1741C197.258 61.1456 197.429 60.5105 197.671 59.2689V59.2047H198.528V59.2689C198.513 59.3117 198.421 59.9611 198.249 61.217C198.078 62.4728 197.971 63.1293 197.928 63.1864V63.2506H189.986V62.8439V62.587C189.986 62.4871 190.029 62.3801 190.115 62.2659C190.2 62.1517 190.414 61.902 190.757 61.5167C191.171 61.06 191.528 60.6604 191.827 60.3179C191.956 60.1752 192.198 59.9111 192.555 59.5258C192.912 59.1405 193.155 58.8765 193.283 58.7338C193.411 58.591 193.618 58.3556 193.904 58.0273C194.189 57.6991 194.389 57.4565 194.503 57.2995C194.617 57.1425 194.781 56.9284 194.996 56.6573C195.21 56.3861 195.359 56.1578 195.445 55.9723C195.531 55.7867 195.638 55.5798 195.766 55.3515C195.895 55.1231 195.987 54.8948 196.044 54.6664C196.102 54.4381 196.152 54.224 196.194 54.0242C196.237 53.8244 196.259 53.589 196.259 53.3178C196.259 52.4187 196.016 51.6409 195.531 50.9845C195.045 50.328 194.353 49.9997 193.454 49.9997C192.983 49.9997 192.569 50.121 192.213 50.3637C191.856 50.6063 191.606 50.8417 191.463 51.0701C191.321 51.2984 191.249 51.434 191.249 51.4768C191.249 51.4911 191.285 51.4982 191.356 51.4982C191.613 51.4982 191.877 51.5981 192.148 51.7979C192.42 51.9977 192.555 52.326 192.555 52.7826C192.555 53.1394 192.441 53.4391 192.213 53.6817C191.984 53.9243 191.663 54.0528 191.249 54.0671Z" fill="black"/>
<path d="M202.135 53.9551C202.135 51.9164 202.902 49.9786 204.436 48.1417C205.97 46.3048 207.696 45.3762 209.614 45.356C210.825 45.356 211.753 45.8809 212.399 46.9305C212.419 46.9103 212.47 46.8498 212.551 46.7488C212.631 46.6479 212.742 46.5369 212.884 46.4158C213.025 46.2947 213.186 46.1736 213.368 46.0524C214.054 45.568 214.519 45.3258 214.761 45.3258C214.842 45.3258 214.912 45.356 214.973 45.4166C215.033 45.4772 215.064 45.5276 215.064 45.568C215.064 45.7497 214.367 48.6261 212.974 54.1974C211.541 59.9301 210.825 62.8368 210.825 62.9176C210.825 63.0791 211.279 63.1699 212.187 63.1901H212.944C213.065 63.3516 213.126 63.4424 213.126 63.4626C213.126 63.4828 213.096 63.6644 213.035 64.0076C212.954 64.27 212.853 64.4618 212.732 64.5829H212.339C211.713 64.5425 210.623 64.5223 209.069 64.5223C208.503 64.5223 207.989 64.5223 207.524 64.5223C207.06 64.5223 206.687 64.5223 206.404 64.5223C206.121 64.5223 205.95 64.5324 205.889 64.5526C205.607 64.5526 205.465 64.4719 205.465 64.3104C205.465 64.2498 205.486 64.0984 205.526 63.8562C205.607 63.5332 205.677 63.3415 205.738 63.2809C205.798 63.2204 206 63.1901 206.343 63.1901C207.312 63.1901 207.898 63.1194 208.1 62.9781C208.261 62.8772 208.544 61.989 208.947 60.3136C209.351 58.6382 209.563 57.7803 209.583 57.7399C209.583 57.7198 209.513 57.75 209.371 57.8308C208.402 58.618 207.393 59.0116 206.343 59.0116C205.233 59.0116 204.254 58.6079 203.406 57.8005C202.559 56.9931 202.135 55.7113 202.135 53.9551ZM211.794 48.8381C211.329 47.2434 210.572 46.4461 209.523 46.4461C208.816 46.4461 208.14 46.7589 207.494 47.3847C206.848 48.0105 206.343 48.828 205.98 49.8373C205.395 51.4319 204.981 53.0871 204.739 54.8029C204.739 54.8635 204.739 54.9745 204.739 55.136C204.739 55.2975 204.729 55.4186 204.708 55.4993C204.708 56.4077 204.89 57.0334 205.253 57.3766C205.617 57.7198 206.051 57.9014 206.555 57.9216C207.645 57.9216 208.766 57.1949 209.916 55.7416L210.159 55.4085L211.794 48.8381Z" fill="black"/>
<path d="M219.201 50.8774L218.923 50.9845C218.723 51.0558 218.437 51.1272 218.066 51.1985C217.695 51.2699 217.281 51.3198 216.825 51.3484H216.418V50.3637H216.825C217.495 50.3351 218.116 50.2281 218.687 50.0426C219.258 49.857 219.658 49.6858 219.886 49.5288C220.114 49.3718 220.314 49.2148 220.485 49.0578C220.514 49.015 220.599 48.9936 220.742 48.9936C220.871 48.9936 220.992 49.0364 221.106 49.1221V55.5227L221.127 61.9448C221.227 62.0447 221.313 62.1089 221.384 62.1375C221.456 62.166 221.627 62.1945 221.898 62.2231C222.169 62.2516 222.612 62.2659 223.225 62.2659H223.782V63.2506H223.546C223.247 63.2078 222.112 63.1864 220.143 63.1864C218.202 63.1864 217.082 63.2078 216.782 63.2506H216.525V62.2659H217.082C217.396 62.2659 217.667 62.2659 217.895 62.2659C218.123 62.2659 218.302 62.2588 218.43 62.2445C218.559 62.2302 218.673 62.2088 218.773 62.1803C218.873 62.1517 218.93 62.1375 218.944 62.1375C218.958 62.1375 219.001 62.1018 219.072 62.0304C219.144 61.9591 219.187 61.9305 219.201 61.9448V50.8774Z" fill="black"/>
<path d="M227.855 53.9551C227.855 51.9164 228.623 49.9786 230.157 48.1417C231.691 46.3048 233.417 45.3762 235.334 45.356C236.545 45.356 237.474 45.8809 238.12 46.9305C238.14 46.9103 238.191 46.8498 238.271 46.7488C238.352 46.6479 238.463 46.5369 238.604 46.4158C238.746 46.2947 238.907 46.1736 239.089 46.0524C239.775 45.568 240.239 45.3258 240.482 45.3258C240.562 45.3258 240.633 45.356 240.694 45.4166C240.754 45.4772 240.784 45.5276 240.784 45.568C240.784 45.7497 240.088 48.6261 238.695 54.1974C237.262 59.9301 236.545 62.8368 236.545 62.9176C236.545 63.0791 237 63.1699 237.908 63.1901H238.665C238.786 63.3516 238.847 63.4424 238.847 63.4626C238.847 63.4828 238.816 63.6644 238.756 64.0076C238.675 64.27 238.574 64.4618 238.453 64.5829H238.059C237.434 64.5425 236.344 64.5223 234.789 64.5223C234.224 64.5223 233.709 64.5223 233.245 64.5223C232.781 64.5223 232.407 64.5223 232.125 64.5223C231.842 64.5223 231.671 64.5324 231.61 64.5526C231.327 64.5526 231.186 64.4719 231.186 64.3104C231.186 64.2498 231.206 64.0984 231.247 63.8562C231.327 63.5332 231.398 63.3415 231.459 63.2809C231.519 63.2204 231.721 63.1901 232.064 63.1901C233.033 63.1901 233.618 63.1194 233.82 62.9781C233.982 62.8772 234.264 61.989 234.668 60.3136C235.072 58.6382 235.284 57.7803 235.304 57.7399C235.304 57.7198 235.233 57.75 235.092 57.8308C234.123 58.618 233.114 59.0116 232.064 59.0116C230.954 59.0116 229.975 58.6079 229.127 57.8005C228.279 56.9931 227.855 55.7113 227.855 53.9551ZM237.514 48.8381C237.05 47.2434 236.293 46.4461 235.243 46.4461C234.537 46.4461 233.861 46.7589 233.215 47.3847C232.569 48.0105 232.064 48.828 231.701 49.8373C231.115 51.4319 230.702 53.0871 230.459 54.8029C230.459 54.8635 230.459 54.9745 230.459 55.136C230.459 55.2975 230.449 55.4186 230.429 55.4993C230.429 56.4077 230.611 57.0334 230.974 57.3766C231.337 57.7198 231.771 57.9014 232.276 57.9216C233.366 57.9216 234.486 57.1949 235.637 55.7416L235.879 55.4085L237.514 48.8381Z" fill="black"/>
<path d="M242.417 50.7276C243.217 49.5717 244.308 48.9937 245.693 48.9937C246.378 48.9937 247.063 49.1792 247.748 49.5503C248.433 49.9213 248.989 50.5778 249.418 51.5197C249.946 52.7042 250.21 54.3311 250.21 56.4005C250.21 58.6125 249.903 60.3037 249.289 61.4739C249.004 62.0733 248.611 62.5514 248.112 62.9082C247.612 63.2649 247.177 63.4861 246.806 63.5718C246.435 63.6574 246.071 63.7073 245.714 63.7216C245.343 63.7216 244.972 63.6788 244.601 63.5932C244.23 63.5075 243.795 63.2792 243.295 62.9082C242.796 62.5371 242.403 62.059 242.118 61.4739C241.504 60.3037 241.197 58.6125 241.197 56.4005C241.197 53.9173 241.604 52.0263 242.417 50.7276ZM247.234 50.4707C246.806 50.0141 246.299 49.7857 245.714 49.7857C245.115 49.7857 244.601 50.0141 244.173 50.4707C243.816 50.8418 243.581 51.3556 243.466 52.012C243.352 52.6685 243.295 54.0386 243.295 56.1222C243.295 58.377 243.352 59.8612 243.466 60.5748C243.581 61.2884 243.837 61.8521 244.237 62.2659C244.637 62.6941 245.129 62.9082 245.714 62.9082C246.285 62.9082 246.77 62.6941 247.17 62.2659C247.584 61.8378 247.841 61.2384 247.94 60.4678C248.04 59.6971 248.097 58.2486 248.112 56.1222C248.112 54.0528 248.055 52.6899 247.94 52.0335C247.826 51.377 247.591 50.8561 247.234 50.4707Z" fill="black"/>
<path d="M254.246 36.545C254.266 36.4037 254.327 36.2826 254.428 36.1817C254.529 36.0807 254.67 36.0202 254.852 36C255.054 36 255.225 36.1009 255.366 36.3028C255.427 36.4441 256.376 38.9269 258.213 43.7513C260.049 48.5757 260.978 51.0383 260.998 51.1393C261.018 51.2402 260.1 53.7028 258.243 58.5272C256.386 63.3516 255.427 65.8344 255.366 65.9757C255.225 66.1776 255.054 66.2785 254.852 66.2785C254.69 66.2785 254.559 66.228 254.458 66.1271C254.357 66.0262 254.286 65.895 254.246 65.7335C254.246 65.6326 255.154 63.18 256.971 58.3758C258.808 53.5918 259.727 51.1796 259.727 51.1393C259.727 51.0989 258.808 48.6867 256.971 43.9027C255.154 39.0985 254.246 36.6459 254.246 36.545Z" fill="black"/>
</svg>
