<svg width="252" height="90" viewBox="0 0 252 90" fill="none" xmlns="http://www.w3.org/2000/svg">
<rect x="0.5" y="0.5" width="30.2477" height="30.2477" fill="#F2F4F8" stroke="#262626"/>
<path d="M19.504 26.715H20.224V20.271H19.504V21.027H19.468C19.225 20.442 18.748 20.163 18.109 20.163C16.948 20.163 16.219 21.108 16.219 22.593C16.219 24.078 16.948 25.023 18.109 25.023C18.748 25.023 19.189 24.735 19.468 24.159H19.504V26.715ZM18.307 24.375C17.497 24.375 16.993 23.817 16.993 22.989V22.197C16.993 21.369 17.497 20.811 18.307 20.811C18.964 20.811 19.504 21.189 19.504 21.702V23.43C19.504 24.033 18.964 24.375 18.307 24.375ZM23.8497 25.023C25.3527 25.023 26.0097 23.826 26.0097 21.774C26.0097 19.722 25.3527 18.525 23.8497 18.525C22.3467 18.525 21.6897 19.722 21.6897 21.774C21.6897 23.826 22.3467 25.023 23.8497 25.023ZM23.8497 24.366C22.8687 24.366 22.4817 23.502 22.4817 22.287V21.261C22.4817 20.046 22.8687 19.182 23.8497 19.182C24.8307 19.182 25.2177 20.046 25.2177 21.261V22.287C25.2177 23.502 24.8307 24.366 23.8497 24.366Z" fill="#262626"/>
<rect x="0.5" y="29.8761" width="30.2477" height="30.2477" fill="#F2F4F8" stroke="#262626"/>
<path d="M19.504 56.0911H20.224V49.6471H19.504V50.4031H19.468C19.225 49.8181 18.748 49.5391 18.109 49.5391C16.948 49.5391 16.219 50.4841 16.219 51.9691C16.219 53.4541 16.948 54.3991 18.109 54.3991C18.748 54.3991 19.189 54.1111 19.468 53.5351H19.504V56.0911ZM18.307 53.7511C17.497 53.7511 16.993 53.1931 16.993 52.3651V51.5731C16.993 50.7451 17.497 50.1871 18.307 50.1871C18.964 50.1871 19.504 50.5651 19.504 51.0781V52.8061C19.504 53.4091 18.964 53.7511 18.307 53.7511ZM22.8147 50.6731V51.3301H23.5527C24.4347 51.3301 24.9027 51.7531 24.9027 52.4911V52.5631C24.9027 53.3011 24.4347 53.7241 23.5527 53.7241C22.7877 53.7241 22.4187 53.3911 22.0947 52.8961L21.5277 53.3281C21.9147 53.8681 22.4727 54.3991 23.5617 54.3991C24.8397 54.3991 25.6947 53.6521 25.6947 52.5721C25.6947 51.6271 25.0467 51.1231 24.3717 50.9881V50.9521C25.0377 50.7811 25.5777 50.2951 25.5777 49.4851C25.5777 48.4681 24.7317 47.9011 23.6697 47.9011C22.6617 47.9011 22.1127 48.4231 21.7977 48.9271L22.3557 49.3591C22.6167 48.8821 23.0037 48.5761 23.6517 48.5761C24.3177 48.5761 24.7767 48.9091 24.7767 49.5661V49.6291C24.7767 50.2321 24.3447 50.6731 23.4987 50.6731H22.8147Z" fill="#262626"/>
<rect x="0.5" y="59.2523" width="30.2477" height="30.2477" fill="#F2F4F8" stroke="#262626"/>
<path d="M19.504 85.4673H20.224V79.0233H19.504V79.7793H19.468C19.225 79.1943 18.748 78.9153 18.109 78.9153C16.948 78.9153 16.219 79.8603 16.219 81.3453C16.219 82.8303 16.948 83.7753 18.109 83.7753C18.748 83.7753 19.189 83.4873 19.468 82.9113H19.504V85.4673ZM18.307 83.1273C17.497 83.1273 16.993 82.5693 16.993 81.7413V80.9493C16.993 80.1213 17.497 79.5633 18.307 79.5633C18.964 79.5633 19.504 79.9413 19.504 80.4543V82.1823C19.504 82.7853 18.964 83.1273 18.307 83.1273ZM23.8587 83.7753C25.1187 83.7753 25.9467 82.9293 25.9467 81.6963C25.9467 80.5083 25.1727 79.7613 24.0927 79.7613C23.3277 79.7613 22.8777 80.1483 22.5807 80.6613L22.5357 80.6433C22.8777 79.1853 23.6247 78.3663 24.9657 77.3853H23.9937C22.9857 78.0423 21.7527 79.5003 21.7527 81.3633C21.7527 82.8573 22.5537 83.7753 23.8587 83.7753ZM23.8497 83.1183C23.0217 83.1183 22.5357 82.6413 22.5357 81.7953V81.7233C22.5357 80.8773 23.0217 80.4003 23.8497 80.4003C24.6777 80.4003 25.1637 80.8773 25.1637 81.7233V81.7953C25.1637 82.6413 24.6777 83.1183 23.8497 83.1183Z" fill="#262626"/>
<rect x="29.877" y="0.5" width="30.2477" height="30.2477" fill="#F2F4F8" stroke="#262626"/>
<path d="M48.879 26.715H49.599V20.271H48.879V21.027H48.843C48.6 20.442 48.123 20.163 47.484 20.163C46.323 20.163 45.594 21.108 45.594 22.593C45.594 24.078 46.323 25.023 47.484 25.023C48.123 25.023 48.564 24.735 48.843 24.159H48.879V26.715ZM47.682 24.375C46.872 24.375 46.368 23.817 46.368 22.989V22.197C46.368 21.369 46.872 20.811 47.682 20.811C48.339 20.811 48.879 21.189 48.879 21.702V23.43C48.879 24.033 48.339 24.375 47.682 24.375ZM55.4477 24.915V24.249H53.8277V18.633H52.6487L50.9837 20.19L51.4247 20.667L53.0087 19.191H53.0717V24.249H51.3167V24.915H55.4477Z" fill="#262626"/>
<rect x="29.877" y="29.8761" width="30.2477" height="30.2477" fill="#F2F4F8" stroke="#262626"/>
<path d="M48.879 56.0911H49.599V49.6471H48.879V50.4031H48.843C48.6 49.8181 48.123 49.5391 47.484 49.5391C46.323 49.5391 45.594 50.4841 45.594 51.9691C45.594 53.4541 46.323 54.3991 47.484 54.3991C48.123 54.3991 48.564 54.1111 48.843 53.5351H48.879V56.0911ZM47.682 53.7511C46.872 53.7511 46.368 53.1931 46.368 52.3651V51.5731C46.368 50.7451 46.872 50.1871 47.682 50.1871C48.339 50.1871 48.879 50.5651 48.879 51.0781V52.8061C48.879 53.4091 48.339 53.7511 47.682 53.7511ZM54.6197 54.2911V53.0581H55.5287V52.4281H54.6197V48.0091H53.4947L50.8667 52.3921V53.0581H53.8997V54.2911H54.6197ZM53.8547 48.5941H53.8997V52.4281H51.5777L53.8547 48.5941Z" fill="#262626"/>
<rect x="29.877" y="59.2523" width="30.2477" height="30.2477" fill="#F2F4F8" stroke="#262626"/>
<path d="M48.879 85.4673H49.599V79.0233H48.879V79.7793H48.843C48.6 79.1943 48.123 78.9153 47.484 78.9153C46.323 78.9153 45.594 79.8603 45.594 81.3453C45.594 82.8303 46.323 83.7753 47.484 83.7753C48.123 83.7753 48.564 83.4873 48.843 82.9113H48.879V85.4673ZM47.682 83.1273C46.872 83.1273 46.368 82.5693 46.368 81.7413V80.9493C46.368 80.1213 46.872 79.5633 47.682 79.5633C48.339 79.5633 48.879 79.9413 48.879 80.4543V82.1823C48.879 82.7853 48.339 83.1273 47.682 83.1273ZM52.9097 83.6673L55.2677 78.0513V77.3853H51.1457V79.2033H51.8207V78.0333H54.5027L52.0997 83.6673H52.9097Z" fill="#262626"/>
<rect x="59.252" y="0.5" width="30.2477" height="30.2477" fill="#F2F4F8" stroke="#262626"/>
<path d="M78.2559 26.715H78.9759V20.271H78.2559V21.027H78.2199C77.9769 20.442 77.4999 20.163 76.8609 20.163C75.6999 20.163 74.9709 21.108 74.9709 22.593C74.9709 24.078 75.6999 25.023 76.8609 25.023C77.4999 25.023 77.9409 24.735 78.2199 24.159H78.2559V26.715ZM77.0589 24.375C76.2489 24.375 75.7449 23.817 75.7449 22.989V22.197C75.7449 21.369 76.2489 20.811 77.0589 20.811C77.7159 20.811 78.2559 21.189 78.2559 21.702V23.43C78.2559 24.033 77.7159 24.375 77.0589 24.375ZM84.6986 24.249H81.3956L83.0876 22.728C83.8886 22.008 84.4646 21.324 84.4646 20.352C84.4646 19.281 83.7626 18.525 82.5386 18.525C81.3236 18.525 80.7656 19.263 80.5226 20.001L81.1976 20.262C81.3686 19.668 81.7286 19.2 82.5026 19.2C83.2766 19.2 83.6636 19.677 83.6636 20.37V20.478C83.6636 21.081 83.2136 21.711 82.6286 22.251L80.5766 24.141V24.915H84.6986V24.249Z" fill="#262626"/>
<rect x="59.252" y="29.8761" width="30.2477" height="30.2477" fill="#F2F4F8" stroke="#262626"/>
<path d="M78.2559 56.0911H78.9759V49.6471H78.2559V50.4031H78.2199C77.9769 49.8181 77.4999 49.5391 76.8609 49.5391C75.6999 49.5391 74.9709 50.4841 74.9709 51.9691C74.9709 53.4541 75.6999 54.3991 76.8609 54.3991C77.4999 54.3991 77.9409 54.1111 78.2199 53.5351H78.2559V56.0911ZM77.0589 53.7511C76.2489 53.7511 75.7449 53.1931 75.7449 52.3651V51.5731C75.7449 50.7451 76.2489 50.1871 77.0589 50.1871C77.7159 50.1871 78.2559 50.5651 78.2559 51.0781V52.8061C78.2559 53.4091 77.7159 53.7511 77.0589 53.7511ZM84.3836 48.0091H81.0176L80.7926 51.4651L81.4316 51.5551C81.6926 51.2671 81.9806 51.0241 82.5566 51.0241C83.4116 51.0241 83.8706 51.5011 83.8706 52.3291V52.4191C83.8706 53.2471 83.4116 53.7241 82.5566 53.7241C81.8006 53.7241 81.4856 53.3911 81.1616 52.8961L80.5946 53.3281C80.9726 53.8681 81.5126 54.3991 82.5566 54.3991C83.8796 54.3991 84.6716 53.5441 84.6716 52.3201C84.6716 51.1051 83.8796 50.3761 82.7996 50.3761C82.1426 50.3761 81.8096 50.6461 81.5126 51.0691H81.4496L81.6296 48.6751H84.3836V48.0091Z" fill="#262626"/>
<rect x="59.252" y="59.2523" width="30.2477" height="30.2477" fill="#F2F4F8" stroke="#262626"/>
<path d="M78.2559 85.4673H78.9759V79.0233H78.2559V79.7793H78.2199C77.9769 79.1943 77.4999 78.9153 76.8609 78.9153C75.6999 78.9153 74.9709 79.8603 74.9709 81.3453C74.9709 82.8303 75.6999 83.7753 76.8609 83.7753C77.4999 83.7753 77.9409 83.4873 78.2199 82.9113H78.2559V85.4673ZM77.0589 83.1273C76.2489 83.1273 75.7449 82.5693 75.7449 81.7413V80.9493C75.7449 80.1213 76.2489 79.5633 77.0589 79.5633C77.7159 79.5633 78.2559 79.9413 78.2559 80.4543V82.1823C78.2559 82.7853 77.7159 83.1273 77.0589 83.1273ZM82.6016 83.7753C84.0326 83.7753 84.7796 82.9923 84.7796 81.9573C84.7796 81.1023 84.2666 80.6073 83.5106 80.4003V80.3283C84.1676 80.1033 84.5906 79.5723 84.5906 78.8523C84.5906 77.8983 83.8526 77.2773 82.6016 77.2773C81.3506 77.2773 80.6126 77.8983 80.6126 78.8523C80.6126 79.5723 81.0356 80.1033 81.6926 80.3283V80.4003C80.9366 80.6073 80.4236 81.1023 80.4236 81.9573C80.4236 82.9923 81.1706 83.7753 82.6016 83.7753ZM82.6016 83.1183C81.7286 83.1183 81.2246 82.7043 81.2246 81.9933V81.8043C81.2246 81.0933 81.7286 80.6793 82.6016 80.6793C83.4746 80.6793 83.9786 81.0933 83.9786 81.8043V81.9933C83.9786 82.7043 83.4746 83.1183 82.6016 83.1183ZM82.6016 80.0493C81.8186 80.0493 81.3956 79.6983 81.3956 79.0593V78.9243C81.3956 78.2853 81.8186 77.9343 82.6016 77.9343C83.3846 77.9343 83.8076 78.2853 83.8076 78.9243V79.0593C83.8076 79.6983 83.3846 80.0493 82.6016 80.0493Z" fill="#262626"/>
<path d="M101 43.2376C101 43.082 101.084 42.9622 101.251 42.8784H112.692C112.871 42.9742 112.961 43.0939 112.961 43.2376C112.961 43.3693 112.877 43.4831 112.709 43.5788L106.998 43.5968H101.287C101.096 43.5369 101 43.4172 101 43.2376ZM101 46.7217C101 46.5421 101.096 46.4224 101.287 46.3625H112.709C112.877 46.4823 112.961 46.602 112.961 46.7217C112.961 46.8774 112.871 46.9971 112.692 47.0809H101.251C101.084 46.9971 101 46.8774 101 46.7217Z" fill="black"/>
<path d="M121.453 53.9414H121.417C121.273 53.9414 121.166 53.8576 121.094 53.6899V44.9617L121.112 36.2335C121.231 36.0778 121.345 36 121.453 36C121.609 36 121.728 36.0898 121.812 36.2694V53.6899C121.716 53.8576 121.609 53.9414 121.489 53.9414H121.453Z" fill="black"/>
<path d="M124.541 46.6499C124.541 45.4406 124.996 44.2912 125.906 43.2017C126.816 42.1122 127.84 41.5614 128.977 41.5494C129.695 41.5494 130.246 41.8607 130.629 42.4833C130.641 42.4713 130.671 42.4354 130.719 42.3756C130.767 42.3157 130.833 42.2498 130.917 42.178C131 42.1062 131.096 42.0343 131.204 41.9625C131.611 41.6751 131.886 41.5315 132.03 41.5315C132.078 41.5315 132.12 41.5494 132.156 41.5854C132.192 41.6213 132.21 41.6512 132.21 41.6751C132.21 41.7829 131.797 43.489 130.97 46.7936C130.12 50.1938 129.695 51.9179 129.695 51.9658C129.695 52.0616 129.965 52.1155 130.504 52.1275H130.952C131.024 52.2233 131.06 52.2771 131.06 52.2891C131.06 52.3011 131.042 52.4088 131.006 52.6124C130.958 52.768 130.899 52.8818 130.827 52.9536H130.593C130.222 52.9297 129.576 52.9177 128.654 52.9177C128.318 52.9177 128.013 52.9177 127.738 52.9177C127.462 52.9177 127.241 52.9177 127.073 52.9177C126.906 52.9177 126.804 52.9237 126.768 52.9356C126.6 52.9356 126.517 52.8877 126.517 52.792C126.517 52.756 126.529 52.6662 126.552 52.5226C126.6 52.331 126.642 52.2173 126.678 52.1813C126.714 52.1454 126.834 52.1275 127.037 52.1275C127.612 52.1275 127.959 52.0856 128.079 52.0018C128.175 51.9419 128.342 51.4151 128.582 50.4213C128.821 49.4276 128.947 48.9187 128.959 48.8948C128.959 48.8828 128.917 48.9008 128.833 48.9487C128.259 49.4156 127.66 49.6491 127.037 49.6491C126.379 49.6491 125.798 49.4096 125.295 48.9307C124.792 48.4518 124.541 47.6915 124.541 46.6499ZM130.27 43.6148C129.995 42.6689 129.546 42.196 128.923 42.196C128.504 42.196 128.103 42.3815 127.72 42.7527C127.337 43.1239 127.037 43.6088 126.822 44.2074C126.475 45.1533 126.229 46.135 126.086 47.1527C126.086 47.1887 126.086 47.2545 126.086 47.3503C126.086 47.4461 126.08 47.5179 126.068 47.5658C126.068 48.1046 126.175 48.4757 126.391 48.6793C126.606 48.8828 126.864 48.9906 127.163 49.0025C127.81 49.0025 128.474 48.5715 129.157 47.7095L129.3 47.5119L130.27 43.6148Z" fill="black"/>
<path d="M132.656 46.348C132.665 46.3311 132.737 45.8698 132.872 44.964L133.075 43.6054C133.075 43.5885 133.16 43.58 133.329 43.58H133.583V43.6308C133.583 43.7155 133.647 43.7874 133.774 43.8467C133.901 43.9059 134.121 43.944 134.434 43.961C134.747 43.9779 135.462 43.9864 136.58 43.9864H138.116V44.4816L137.253 45.6624C137.176 45.764 137.049 45.9333 136.872 46.1703C136.694 46.4073 136.58 46.5639 136.529 46.6401C136.478 46.7163 136.389 46.8517 136.262 47.0464C136.135 47.2411 136.051 47.3935 136.008 47.5035C135.966 47.6135 135.907 47.7701 135.831 47.9733C135.754 48.1764 135.699 48.3711 135.665 48.5574C135.632 48.7436 135.598 48.9721 135.564 49.243C135.53 49.5139 135.505 49.8017 135.488 50.1064C135.471 50.4112 135.458 50.7582 135.45 51.1476C135.45 51.2661 135.45 51.3846 135.45 51.5031C135.45 51.6216 135.445 51.7232 135.437 51.8079V51.9221C135.403 52.066 135.323 52.1888 135.196 52.2904C135.069 52.3919 134.925 52.4427 134.764 52.4427C134.671 52.4427 134.582 52.43 134.497 52.4046C134.413 52.3792 134.324 52.2988 134.231 52.1634C134.138 52.0279 134.091 51.8586 134.091 51.6555C134.091 50.318 134.502 48.9298 135.323 47.4908C135.492 47.2199 135.847 46.7078 136.389 45.9544L136.973 45.1545H135.792C134.32 45.1545 133.545 45.1799 133.469 45.2307C133.418 45.2561 133.372 45.3577 133.329 45.5354C133.287 45.7132 133.245 45.8952 133.202 46.0814L133.164 46.348V46.3861H132.656V46.348Z" fill="black"/>
<path d="M139.797 46.6499C139.797 45.4406 140.252 44.2912 141.162 43.2017C142.072 42.1122 143.095 41.5614 144.233 41.5494C144.951 41.5494 145.502 41.8607 145.885 42.4833C145.897 42.4713 145.927 42.4354 145.975 42.3756C146.023 42.3157 146.089 42.2498 146.172 42.178C146.256 42.1062 146.352 42.0343 146.46 41.9625C146.867 41.6751 147.142 41.5315 147.286 41.5315C147.334 41.5315 147.376 41.5494 147.412 41.5854C147.448 41.6213 147.466 41.6512 147.466 41.6751C147.466 41.7829 147.052 43.489 146.226 46.7936C145.376 50.1938 144.951 51.9179 144.951 51.9658C144.951 52.0616 145.221 52.1155 145.759 52.1275H146.208C146.28 52.2233 146.316 52.2771 146.316 52.2891C146.316 52.3011 146.298 52.4088 146.262 52.6124C146.214 52.768 146.154 52.8818 146.083 52.9536H145.849C145.478 52.9297 144.831 52.9177 143.91 52.9177C143.574 52.9177 143.269 52.9177 142.994 52.9177C142.718 52.9177 142.497 52.9177 142.329 52.9177C142.162 52.9177 142.06 52.9237 142.024 52.9356C141.856 52.9356 141.772 52.8877 141.772 52.792C141.772 52.756 141.784 52.6662 141.808 52.5226C141.856 52.331 141.898 52.2173 141.934 52.1813C141.97 52.1454 142.09 52.1275 142.293 52.1275C142.868 52.1275 143.215 52.0856 143.335 52.0018C143.431 51.9419 143.598 51.4151 143.838 50.4213C144.077 49.4276 144.203 48.9187 144.215 48.8948C144.215 48.8828 144.173 48.9008 144.089 48.9487C143.514 49.4156 142.916 49.6491 142.293 49.6491C141.635 49.6491 141.054 49.4096 140.551 48.9307C140.048 48.4518 139.797 47.6915 139.797 46.6499ZM145.526 43.6148C145.251 42.6689 144.802 42.196 144.179 42.196C143.76 42.196 143.359 42.3815 142.976 42.7527C142.593 43.1239 142.293 43.6088 142.078 44.2074C141.73 45.1533 141.485 46.135 141.341 47.1527C141.341 47.1887 141.341 47.2545 141.341 47.3503C141.341 47.4461 141.335 47.5179 141.323 47.5658C141.323 48.1046 141.431 48.4757 141.647 48.6793C141.862 48.8828 142.12 48.9906 142.419 49.0025C143.065 49.0025 143.73 48.5715 144.412 47.7095L144.556 47.5119L145.526 43.6148Z" fill="black"/>
<path d="M147.749 48.1891C147.749 46.8094 148.092 45.7174 148.777 44.9133C149.463 44.1091 150.225 43.707 151.063 43.707C151.647 43.707 152.066 43.8594 152.32 44.1641C152.574 44.4689 152.701 44.8074 152.701 45.1799C152.701 45.3915 152.642 45.5608 152.523 45.6878C152.404 45.8148 152.239 45.8782 152.028 45.8782C151.833 45.8782 151.672 45.819 151.545 45.7005C151.418 45.582 151.355 45.4169 151.355 45.2053C151.355 44.8328 151.554 44.6085 151.952 44.5323C151.765 44.3461 151.503 44.2403 151.164 44.2149C150.563 44.2149 150.068 44.4689 149.679 44.9767C149.281 45.5354 149.082 46.3904 149.082 47.5416L149.095 47.5924C149.137 47.5416 149.171 47.4866 149.196 47.4273C149.543 46.9194 149.996 46.6655 150.555 46.6655H150.606C150.995 46.6655 151.338 46.7459 151.634 46.9067C151.837 47.0252 152.041 47.1945 152.244 47.4146C152.447 47.6347 152.612 47.8759 152.739 48.1384C152.917 48.5531 153.005 49.006 153.005 49.497V49.7255C153.005 49.9202 152.984 50.1022 152.942 50.2715C152.849 50.7709 152.578 51.2576 152.129 51.7317C151.681 52.2057 151.114 52.4427 150.428 52.4427C150.191 52.4427 149.962 52.4089 149.742 52.3411C149.522 52.2734 149.285 52.1464 149.031 51.9602C148.777 51.774 148.561 51.5243 148.384 51.2111C148.206 50.8979 148.054 50.4873 147.927 49.9795C147.8 49.4716 147.74 48.8748 147.749 48.1891ZM150.479 47.1226C150.225 47.1226 150.005 47.1945 149.818 47.3384C149.632 47.4823 149.488 47.6728 149.387 47.9098C149.285 48.1468 149.213 48.3881 149.171 48.6335C149.129 48.879 149.103 49.1414 149.095 49.4208C149.095 50.1234 149.146 50.627 149.247 50.9317C149.349 51.2365 149.51 51.482 149.73 51.6682C149.933 51.8206 150.157 51.8967 150.403 51.8967C150.834 51.8967 151.164 51.7359 151.393 51.4142C151.503 51.2619 151.579 51.0714 151.621 50.8429C151.664 50.6143 151.685 50.1699 151.685 49.5097C151.685 48.8325 151.664 48.3796 151.621 48.1511C151.579 47.9225 151.503 47.732 151.393 47.5797C151.164 47.2749 150.86 47.1226 150.479 47.1226Z" fill="black"/>
<path d="M155.055 46.6499C155.055 45.4406 155.51 44.2912 156.42 43.2017C157.33 42.1122 158.353 41.5614 159.491 41.5494C160.209 41.5494 160.76 41.8607 161.143 42.4833C161.155 42.4713 161.185 42.4354 161.233 42.3756C161.281 42.3157 161.346 42.2498 161.43 42.178C161.514 42.1062 161.61 42.0343 161.718 41.9625C162.125 41.6751 162.4 41.5315 162.544 41.5315C162.592 41.5315 162.634 41.5494 162.669 41.5854C162.705 41.6213 162.723 41.6512 162.723 41.6751C162.723 41.7829 162.31 43.489 161.484 46.7936C160.634 50.1938 160.209 51.9179 160.209 51.9658C160.209 52.0616 160.478 52.1155 161.017 52.1275H161.466C161.538 52.2233 161.574 52.2771 161.574 52.2891C161.574 52.3011 161.556 52.4088 161.52 52.6124C161.472 52.768 161.412 52.8818 161.34 52.9536H161.107C160.736 52.9297 160.089 52.9177 159.167 52.9177C158.832 52.9177 158.527 52.9177 158.251 52.9177C157.976 52.9177 157.755 52.9177 157.587 52.9177C157.419 52.9177 157.318 52.9237 157.282 52.9356C157.114 52.9356 157.03 52.8877 157.03 52.792C157.03 52.756 157.042 52.6662 157.066 52.5226C157.114 52.331 157.156 52.2173 157.192 52.1813C157.228 52.1454 157.347 52.1275 157.551 52.1275C158.126 52.1275 158.473 52.0856 158.593 52.0018C158.688 51.9419 158.856 51.4151 159.096 50.4213C159.335 49.4276 159.461 48.9187 159.473 48.8948C159.473 48.8828 159.431 48.9008 159.347 48.9487C158.772 49.4156 158.174 49.6491 157.551 49.6491C156.893 49.6491 156.312 49.4096 155.809 48.9307C155.306 48.4518 155.055 47.6915 155.055 46.6499ZM160.784 43.6148C160.508 42.6689 160.059 42.196 159.437 42.196C159.018 42.196 158.617 42.3815 158.233 42.7527C157.85 43.1239 157.551 43.6088 157.336 44.2074C156.988 45.1533 156.743 46.135 156.599 47.1527C156.599 47.1887 156.599 47.2545 156.599 47.3503C156.599 47.4461 156.593 47.5179 156.581 47.5658C156.581 48.1046 156.689 48.4757 156.904 48.6793C157.12 48.8828 157.377 48.9906 157.677 49.0025C158.323 49.0025 158.988 48.5715 159.67 47.7095L159.814 47.5119L160.784 43.6148Z" fill="black"/>
<path d="M164.555 50.1699C164.555 50.3731 164.487 50.5424 164.352 50.6778C164.216 50.8132 164.051 50.881 163.857 50.881H163.768C164.157 51.5497 164.673 51.884 165.317 51.884C165.909 51.884 166.341 51.6301 166.612 51.1222C166.773 50.8429 166.853 50.3011 166.853 49.497C166.853 48.6251 166.739 48.0368 166.51 47.732C166.29 47.4527 166.045 47.313 165.774 47.313H165.698C165.037 47.313 164.538 47.6008 164.199 48.1764C164.166 48.2357 164.136 48.2696 164.111 48.278C164.085 48.2865 164.022 48.295 163.92 48.3034C163.776 48.3034 163.696 48.278 163.679 48.2272C163.662 48.1934 163.653 47.4527 163.653 46.0052V44.3673C163.653 43.944 163.675 43.7324 163.717 43.7324C163.734 43.7155 163.751 43.707 163.768 43.707C163.776 43.707 163.865 43.7409 164.034 43.8086C164.204 43.8763 164.436 43.944 164.733 44.0118C165.029 44.0795 165.346 44.1133 165.685 44.1133C166.286 44.1133 166.862 43.9948 167.412 43.7578C167.48 43.7239 167.535 43.707 167.577 43.707C167.645 43.707 167.678 43.7832 167.678 43.9356V44.1006C166.984 44.9217 166.117 45.3323 165.075 45.3323C164.813 45.3323 164.576 45.3069 164.364 45.2561L164.237 45.2307V47.4146C164.398 47.2961 164.525 47.203 164.618 47.1353C164.712 47.0676 164.864 46.9998 165.075 46.9321C165.287 46.8644 165.503 46.8305 165.723 46.8305C166.409 46.8305 166.989 47.1056 167.463 47.6559C167.937 48.2061 168.174 48.8579 168.174 49.6112C168.174 50.39 167.903 51.0545 167.361 51.6047C166.819 52.1549 166.159 52.4343 165.38 52.4427C164.695 52.4427 164.144 52.2142 163.73 51.7571C163.315 51.3 163.107 50.7836 163.107 50.208C163.107 50.0048 163.154 49.844 163.247 49.7255C163.34 49.607 163.438 49.5308 163.539 49.497C163.641 49.4631 163.738 49.4462 163.831 49.4462C164.043 49.4462 164.216 49.5181 164.352 49.662C164.487 49.8059 164.555 49.9752 164.555 50.1699Z" fill="black"/>
<path d="M170.312 46.6499C170.312 45.4406 170.767 44.2912 171.677 43.2017C172.587 42.1122 173.611 41.5614 174.748 41.5494C175.467 41.5494 176.018 41.8607 176.401 42.4833C176.413 42.4713 176.443 42.4354 176.491 42.3756C176.538 42.3157 176.604 42.2498 176.688 42.178C176.772 42.1062 176.868 42.0343 176.975 41.9625C177.382 41.6751 177.658 41.5315 177.802 41.5315C177.849 41.5315 177.891 41.5494 177.927 41.5854C177.963 41.6213 177.981 41.6512 177.981 41.6751C177.981 41.7829 177.568 43.489 176.742 46.7936C175.892 50.1938 175.467 51.9179 175.467 51.9658C175.467 52.0616 175.736 52.1155 176.275 52.1275H176.724C176.796 52.2233 176.832 52.2771 176.832 52.2891C176.832 52.3011 176.814 52.4088 176.778 52.6124C176.73 52.768 176.67 52.8818 176.598 52.9536H176.365C175.994 52.9297 175.347 52.9177 174.425 52.9177C174.09 52.9177 173.785 52.9177 173.509 52.9177C173.234 52.9177 173.012 52.9177 172.845 52.9177C172.677 52.9177 172.575 52.9237 172.539 52.9356C172.372 52.9356 172.288 52.8877 172.288 52.792C172.288 52.756 172.3 52.6662 172.324 52.5226C172.372 52.331 172.414 52.2173 172.45 52.1813C172.486 52.1454 172.605 52.1275 172.809 52.1275C173.384 52.1275 173.731 52.0856 173.85 52.0018C173.946 51.9419 174.114 51.4151 174.353 50.4213C174.593 49.4276 174.719 48.9187 174.73 48.8948C174.73 48.8828 174.689 48.9008 174.605 48.9487C174.03 49.4156 173.431 49.6491 172.809 49.6491C172.15 49.6491 171.57 49.4096 171.067 48.9307C170.564 48.4518 170.312 47.6915 170.312 46.6499ZM176.042 43.6148C175.766 42.6689 175.317 42.196 174.695 42.196C174.276 42.196 173.874 42.3815 173.491 42.7527C173.108 43.1239 172.809 43.6088 172.593 44.2074C172.246 45.1533 172.001 46.135 171.857 47.1527C171.857 47.1887 171.857 47.2545 171.857 47.3503C171.857 47.4461 171.851 47.5179 171.839 47.5658C171.839 48.1046 171.947 48.4757 172.162 48.6793C172.378 48.8828 172.635 48.9906 172.935 49.0025C173.581 49.0025 174.246 48.5715 174.928 47.7095L175.072 47.5119L176.042 43.6148Z" fill="black"/>
<path d="M183.595 52.1634C183.442 52.138 182.896 52.1253 181.957 52.1253C180.975 52.1253 180.408 52.138 180.255 52.1634H180.141V51.5793H180.535C180.704 51.5793 180.818 51.5793 180.877 51.5793C180.937 51.5793 181.009 51.5709 181.093 51.5539C181.178 51.537 181.237 51.5158 181.271 51.4904C181.305 51.465 181.334 51.4312 181.36 51.3889C181.368 51.3719 181.373 51.1434 181.373 50.7032V50.0683H178.084V49.4843L180.001 46.5512C181.296 44.5874 181.952 43.6012 181.969 43.5928C181.986 43.5758 182.075 43.5674 182.236 43.5674H182.465L182.541 43.6435V49.4843H183.709V50.0683H182.541V50.7159C182.541 51.063 182.541 51.2661 182.541 51.3254C182.541 51.3846 182.566 51.4354 182.617 51.4777C182.685 51.537 182.926 51.5709 183.341 51.5793H183.709V52.1634H183.595ZM181.449 49.4843V45.2434L178.668 49.4716L180.052 49.4843H181.449Z" fill="black"/>
<path d="M185.57 46.6499C185.57 45.4406 186.025 44.2912 186.935 43.2017C187.845 42.1122 188.869 41.5614 190.006 41.5494C190.725 41.5494 191.275 41.8607 191.659 42.4833C191.67 42.4713 191.7 42.4354 191.748 42.3756C191.796 42.3157 191.862 42.2498 191.946 42.178C192.03 42.1062 192.125 42.0343 192.233 41.9625C192.64 41.6751 192.916 41.5315 193.059 41.5315C193.107 41.5315 193.149 41.5494 193.185 41.5854C193.221 41.6213 193.239 41.6512 193.239 41.6751C193.239 41.7829 192.826 43.489 192 46.7936C191.15 50.1938 190.725 51.9179 190.725 51.9658C190.725 52.0616 190.994 52.1155 191.533 52.1275H191.982C192.054 52.2233 192.09 52.2771 192.09 52.2891C192.09 52.3011 192.072 52.4088 192.036 52.6124C191.988 52.768 191.928 52.8818 191.856 52.9536H191.623C191.251 52.9297 190.605 52.9177 189.683 52.9177C189.348 52.9177 189.042 52.9177 188.767 52.9177C188.492 52.9177 188.27 52.9177 188.103 52.9177C187.935 52.9177 187.833 52.9237 187.797 52.9356C187.63 52.9356 187.546 52.8877 187.546 52.792C187.546 52.756 187.558 52.6662 187.582 52.5226C187.63 52.331 187.672 52.2173 187.707 52.1813C187.743 52.1454 187.863 52.1275 188.067 52.1275C188.641 52.1275 188.989 52.0856 189.108 52.0018C189.204 51.9419 189.372 51.4151 189.611 50.4213C189.851 49.4276 189.976 48.9187 189.988 48.8948C189.988 48.8828 189.946 48.9008 189.863 48.9487C189.288 49.4156 188.689 49.6491 188.067 49.6491C187.408 49.6491 186.827 49.4096 186.325 48.9307C185.822 48.4518 185.57 47.6915 185.57 46.6499ZM191.299 43.6148C191.024 42.6689 190.575 42.196 189.952 42.196C189.533 42.196 189.132 42.3815 188.749 42.7527C188.366 43.1239 188.067 43.6088 187.851 44.2074C187.504 45.1533 187.258 46.135 187.115 47.1527C187.115 47.1887 187.115 47.2545 187.115 47.3503C187.115 47.4461 187.109 47.5179 187.097 47.5658C187.097 48.1046 187.205 48.4757 187.42 48.6793C187.636 48.8828 187.893 48.9906 188.192 49.0025C188.839 49.0025 189.503 48.5715 190.186 47.7095L190.33 47.5119L191.299 43.6148Z" fill="black"/>
<path d="M194.601 46.2846C194.372 46.2846 194.194 46.2126 194.067 46.0687C193.94 45.9248 193.873 45.7386 193.864 45.51C193.864 45.0445 194.067 44.6297 194.474 44.2657C194.88 43.9017 195.371 43.7197 195.947 43.7197C196.243 43.7197 196.429 43.7239 196.505 43.7324C197.132 43.834 197.61 44.0583 197.94 44.4054C198.27 44.7524 198.44 45.1291 198.448 45.5354C198.448 45.9756 198.304 46.4031 198.016 46.8178C197.729 47.2326 197.331 47.5331 196.823 47.7193L196.785 47.7447C196.785 47.7532 196.823 47.7659 196.899 47.7828C196.975 47.7998 197.098 47.8379 197.267 47.8971C197.436 47.9564 197.597 48.0452 197.75 48.1637C198.444 48.6124 198.791 49.2049 198.791 49.9414C198.791 50.6101 198.528 51.1942 198.004 51.6936C197.479 52.193 196.814 52.4427 196.01 52.4427C195.333 52.4427 194.749 52.2607 194.258 51.8967C193.767 51.5327 193.521 51.0714 193.521 50.5127C193.521 50.2757 193.598 50.0853 193.75 49.9414C193.902 49.7975 194.093 49.7213 194.321 49.7128C194.558 49.7128 194.753 49.789 194.905 49.9414C195.058 50.0937 195.134 50.2842 195.134 50.5127C195.134 50.6059 195.121 50.6905 195.096 50.7667C195.071 50.8429 195.041 50.9106 195.007 50.9698C194.973 51.0291 194.927 51.0799 194.867 51.1222C194.808 51.1645 194.757 51.1984 194.715 51.2238C194.673 51.2492 194.63 51.2661 194.588 51.2746C194.546 51.283 194.512 51.2957 194.486 51.3127L194.436 51.3254C194.867 51.7063 195.392 51.8967 196.01 51.8967C196.476 51.8967 196.827 51.6724 197.064 51.2238C197.208 50.9444 197.28 50.517 197.28 49.9414V49.6874C197.28 48.8833 197.009 48.3457 196.467 48.0749C196.34 48.0241 196.082 47.9945 195.693 47.986L195.159 47.9733L195.121 47.9479C195.104 47.9225 195.096 47.8548 195.096 47.7447C195.096 47.5924 195.13 47.5162 195.198 47.5162C195.435 47.5162 195.68 47.495 195.934 47.4527C196.222 47.4104 196.484 47.2326 196.721 46.9194C196.958 46.6062 197.077 46.1322 197.077 45.4973V45.3958C197.077 44.9133 196.929 44.5789 196.632 44.3927C196.446 44.2742 196.247 44.2149 196.036 44.2149C195.765 44.2149 195.515 44.2615 195.286 44.3546C195.058 44.4477 194.897 44.545 194.804 44.6466C194.711 44.7482 194.664 44.799 194.664 44.799H194.702C194.728 44.8074 194.762 44.8159 194.804 44.8244C194.846 44.8328 194.889 44.854 194.931 44.8879C194.973 44.9217 195.024 44.9513 195.083 44.9767C195.142 45.0021 195.185 45.0487 195.21 45.1164C195.236 45.1841 195.269 45.2476 195.312 45.3069C195.354 45.3661 195.367 45.4508 195.35 45.5608C195.35 45.747 195.291 45.9121 195.172 46.056C195.054 46.1999 194.863 46.2761 194.601 46.2846Z" fill="black"/>
<path d="M200.826 46.6499C200.826 45.4406 201.281 44.2912 202.191 43.2017C203.101 42.1122 204.125 41.5614 205.262 41.5494C205.98 41.5494 206.531 41.8607 206.914 42.4833C206.926 42.4713 206.956 42.4354 207.004 42.3756C207.052 42.3157 207.118 42.2498 207.202 42.178C207.286 42.1062 207.381 42.0343 207.489 41.9625C207.896 41.6751 208.172 41.5315 208.315 41.5315C208.363 41.5315 208.405 41.5494 208.441 41.5854C208.477 41.6213 208.495 41.6512 208.495 41.6751C208.495 41.7829 208.082 43.489 207.256 46.7936C206.406 50.1938 205.98 51.9179 205.98 51.9658C205.98 52.0616 206.25 52.1155 206.789 52.1275H207.238C207.309 52.2233 207.345 52.2771 207.345 52.2891C207.345 52.3011 207.327 52.4088 207.292 52.6124C207.244 52.768 207.184 52.8818 207.112 52.9536H206.878C206.507 52.9297 205.861 52.9177 204.939 52.9177C204.604 52.9177 204.298 52.9177 204.023 52.9177C203.748 52.9177 203.526 52.9177 203.358 52.9177C203.191 52.9177 203.089 52.9237 203.053 52.9356C202.886 52.9356 202.802 52.8877 202.802 52.792C202.802 52.756 202.814 52.6662 202.838 52.5226C202.886 52.331 202.927 52.2173 202.963 52.1813C202.999 52.1454 203.119 52.1275 203.323 52.1275C203.897 52.1275 204.244 52.0856 204.364 52.0018C204.46 51.9419 204.628 51.4151 204.867 50.4213C205.106 49.4276 205.232 48.9187 205.244 48.8948C205.244 48.8828 205.202 48.9008 205.118 48.9487C204.544 49.4156 203.945 49.6491 203.323 49.6491C202.664 49.6491 202.083 49.4096 201.58 48.9307C201.078 48.4518 200.826 47.6915 200.826 46.6499ZM206.555 43.6148C206.28 42.6689 205.831 42.196 205.208 42.196C204.789 42.196 204.388 42.3815 204.005 42.7527C203.622 43.1239 203.323 43.6088 203.107 44.2074C202.76 45.1533 202.514 46.135 202.371 47.1527C202.371 47.1887 202.371 47.2545 202.371 47.3503C202.371 47.4461 202.365 47.5179 202.353 47.5658C202.353 48.1046 202.46 48.4757 202.676 48.6793C202.891 48.8828 203.149 48.9906 203.448 49.0025C204.095 49.0025 204.759 48.5715 205.442 47.7095L205.585 47.5119L206.555 43.6148Z" fill="black"/>
<path d="M209.628 46.7163C209.399 46.7163 209.217 46.6401 209.082 46.4877C208.947 46.3354 208.879 46.1491 208.879 45.929C208.879 45.328 209.103 44.8075 209.552 44.3673C210 43.9271 210.559 43.707 211.228 43.707C211.998 43.707 212.642 43.944 213.158 44.4181C213.674 44.8921 213.937 45.5058 213.945 46.2592C213.945 46.6232 213.86 46.9702 213.691 47.3003C213.522 47.6305 213.319 47.9183 213.082 48.1638C212.845 48.4092 212.506 48.7224 212.066 49.1034C211.761 49.3658 211.338 49.7551 210.796 50.2715L210.047 50.9825L211.012 50.9952C212.341 50.9952 213.048 50.9741 213.132 50.9318C213.192 50.9148 213.293 50.5381 213.437 49.8017V49.7636H213.945V49.8017C213.937 49.8271 213.882 50.2122 213.78 50.9572C213.678 51.7021 213.615 52.0914 213.59 52.1253V52.1634H208.879V51.9221V51.7698C208.879 51.7105 208.904 51.647 208.955 51.5793C209.006 51.5116 209.133 51.3635 209.336 51.1349C209.581 50.864 209.793 50.627 209.971 50.4239C210.047 50.3392 210.191 50.1826 210.403 49.9541C210.614 49.7255 210.758 49.5689 210.834 49.4843C210.91 49.3996 211.033 49.26 211.203 49.0653C211.372 48.8706 211.49 48.7267 211.558 48.6336C211.626 48.5404 211.723 48.4135 211.85 48.2526C211.977 48.0918 212.066 47.9564 212.117 47.8463C212.167 47.7363 212.231 47.6135 212.307 47.4781C212.383 47.3427 212.438 47.2072 212.472 47.0718C212.506 46.9364 212.536 46.8094 212.561 46.6909C212.586 46.5724 212.599 46.4327 212.599 46.2719C212.599 45.7386 212.455 45.2773 212.167 44.8879C211.88 44.4985 211.469 44.3038 210.936 44.3038C210.657 44.3038 210.411 44.3758 210.199 44.5197C209.988 44.6636 209.84 44.8032 209.755 44.9387C209.67 45.0741 209.628 45.1545 209.628 45.1799C209.628 45.1884 209.649 45.1926 209.692 45.1926C209.844 45.1926 210 45.2519 210.161 45.3704C210.322 45.4889 210.403 45.6836 210.403 45.9544C210.403 46.1661 210.335 46.3438 210.199 46.4877C210.064 46.6316 209.874 46.7078 209.628 46.7163Z" fill="black"/>
<path d="M216.086 46.6499C216.086 45.4406 216.541 44.2912 217.451 43.2017C218.361 42.1122 219.384 41.5614 220.522 41.5494C221.24 41.5494 221.791 41.8607 222.174 42.4833C222.186 42.4713 222.216 42.4354 222.264 42.3756C222.312 42.3157 222.378 42.2498 222.461 42.178C222.545 42.1062 222.641 42.0343 222.749 41.9625C223.156 41.6751 223.431 41.5315 223.575 41.5315C223.623 41.5315 223.665 41.5494 223.701 41.5854C223.737 41.6213 223.755 41.6512 223.755 41.6751C223.755 41.7829 223.342 43.489 222.515 46.7936C221.665 50.1938 221.24 51.9179 221.24 51.9658C221.24 52.0616 221.51 52.1155 222.048 52.1275H222.497C222.569 52.2233 222.605 52.2771 222.605 52.2891C222.605 52.3011 222.587 52.4088 222.551 52.6124C222.503 52.768 222.444 52.8818 222.372 52.9536H222.138C221.767 52.9297 221.121 52.9177 220.199 52.9177C219.863 52.9177 219.558 52.9177 219.283 52.9177C219.007 52.9177 218.786 52.9177 218.618 52.9177C218.451 52.9177 218.349 52.9237 218.313 52.9356C218.145 52.9356 218.061 52.8877 218.061 52.792C218.061 52.756 218.073 52.6662 218.097 52.5226C218.145 52.331 218.187 52.2173 218.223 52.1813C218.259 52.1454 218.379 52.1275 218.582 52.1275C219.157 52.1275 219.504 52.0856 219.624 52.0018C219.72 51.9419 219.887 51.4151 220.127 50.4213C220.366 49.4276 220.492 48.9187 220.504 48.8948C220.504 48.8828 220.462 48.9008 220.378 48.9487C219.804 49.4156 219.205 49.6491 218.582 49.6491C217.924 49.6491 217.343 49.4096 216.84 48.9307C216.337 48.4518 216.086 47.6915 216.086 46.6499ZM221.815 43.6148C221.54 42.6689 221.091 42.196 220.468 42.196C220.049 42.196 219.648 42.3815 219.265 42.7527C218.882 43.1239 218.582 43.6088 218.367 44.2074C218.02 45.1533 217.774 46.135 217.63 47.1527C217.63 47.1887 217.63 47.2545 217.63 47.3503C217.63 47.4461 217.624 47.5179 217.612 47.5658C217.612 48.1046 217.72 48.4757 217.936 48.6793C218.151 48.8828 218.409 48.9906 218.708 49.0025C219.355 49.0025 220.019 48.5715 220.701 47.7095L220.845 47.5119L221.815 43.6148Z" fill="black"/>
<path d="M226.207 44.8244L226.042 44.8879C225.924 44.9302 225.754 44.9725 225.534 45.0148C225.314 45.0572 225.069 45.0868 224.798 45.1037H224.557V44.5197H224.798C225.196 44.5027 225.564 44.4392 225.903 44.3292C226.241 44.2192 226.478 44.1176 226.614 44.0245C226.749 43.9313 226.868 43.8382 226.969 43.7451C226.986 43.7197 227.037 43.707 227.121 43.707C227.198 43.707 227.27 43.7324 227.337 43.7832V47.5797L227.35 51.3889C227.409 51.4481 227.46 51.4862 227.502 51.5031C227.545 51.5201 227.646 51.537 227.807 51.5539C227.968 51.5709 228.23 51.5793 228.594 51.5793H228.924V52.1634H228.785C228.607 52.138 227.934 52.1253 226.766 52.1253C225.615 52.1253 224.95 52.138 224.772 52.1634H224.62V51.5793H224.95C225.136 51.5793 225.297 51.5793 225.433 51.5793C225.568 51.5793 225.674 51.5751 225.75 51.5666C225.826 51.5582 225.894 51.5455 225.953 51.5285C226.013 51.5116 226.046 51.5031 226.055 51.5031C226.063 51.5031 226.089 51.482 226.131 51.4396C226.173 51.3973 226.199 51.3804 226.207 51.3889V44.8244Z" fill="black"/>
<path d="M231.344 46.6499C231.344 45.4406 231.799 44.2912 232.709 43.2017C233.619 42.1122 234.642 41.5614 235.78 41.5494C236.498 41.5494 237.049 41.8607 237.432 42.4833C237.444 42.4713 237.474 42.4354 237.522 42.3756C237.57 42.3157 237.635 42.2498 237.719 42.178C237.803 42.1062 237.899 42.0343 238.007 41.9625C238.414 41.6751 238.689 41.5315 238.833 41.5315C238.881 41.5315 238.923 41.5494 238.958 41.5854C238.994 41.6213 239.012 41.6512 239.012 41.6751C239.012 41.7829 238.599 43.489 237.773 46.7936C236.923 50.1938 236.498 51.9179 236.498 51.9658C236.498 52.0616 236.767 52.1155 237.306 52.1275H237.755C237.827 52.2233 237.863 52.2771 237.863 52.2891C237.863 52.3011 237.845 52.4088 237.809 52.6124C237.761 52.768 237.701 52.8818 237.63 52.9536H237.396C237.025 52.9297 236.378 52.9177 235.456 52.9177C235.121 52.9177 234.816 52.9177 234.541 52.9177C234.265 52.9177 234.044 52.9177 233.876 52.9177C233.708 52.9177 233.607 52.9237 233.571 52.9356C233.403 52.9356 233.319 52.8877 233.319 52.792C233.319 52.756 233.331 52.6662 233.355 52.5226C233.403 52.331 233.445 52.2173 233.481 52.1813C233.517 52.1454 233.637 52.1275 233.84 52.1275C234.415 52.1275 234.762 52.0856 234.882 52.0018C234.978 51.9419 235.145 51.4151 235.385 50.4213C235.624 49.4276 235.75 48.9187 235.762 48.8948C235.762 48.8828 235.72 48.9008 235.636 48.9487C235.061 49.4156 234.463 49.6491 233.84 49.6491C233.182 49.6491 232.601 49.4096 232.098 48.9307C231.595 48.4518 231.344 47.6915 231.344 46.6499ZM237.073 43.6148C236.797 42.6689 236.348 42.196 235.726 42.196C235.307 42.196 234.906 42.3815 234.523 42.7527C234.139 43.1239 233.84 43.6088 233.625 44.2074C233.277 45.1533 233.032 46.135 232.888 47.1527C232.888 47.1887 232.888 47.2545 232.888 47.3503C232.888 47.4461 232.882 47.5179 232.87 47.5658C232.87 48.1046 232.978 48.4757 233.194 48.6793C233.409 48.8828 233.666 48.9906 233.966 49.0025C234.612 49.0025 235.277 48.5715 235.959 47.7095L236.103 47.5119L237.073 43.6148Z" fill="black"/>
<path d="M239.98 44.7355C240.454 44.0498 241.101 43.707 241.922 43.707C242.329 43.707 242.735 43.8171 243.141 44.0371C243.548 44.2572 243.878 44.6466 244.132 45.2053C244.445 45.9079 244.601 46.8729 244.601 48.1003C244.601 49.4123 244.419 50.4154 244.055 51.1095C243.886 51.465 243.653 51.7486 243.357 51.9602C243.061 52.1718 242.803 52.303 242.583 52.3538C242.362 52.4046 242.147 52.4343 241.935 52.4427C241.715 52.4427 241.495 52.4173 241.275 52.3665C241.055 52.3157 240.796 52.1803 240.5 51.9602C240.204 51.7401 239.971 51.4566 239.802 51.1095C239.438 50.4154 239.256 49.4123 239.256 48.1003C239.256 46.6274 239.497 45.5058 239.98 44.7355ZM242.836 44.5831C242.583 44.3123 242.282 44.1768 241.935 44.1768C241.579 44.1768 241.275 44.3123 241.021 44.5831C240.809 44.8032 240.669 45.1079 240.602 45.4973C240.534 45.8867 240.5 46.6993 240.5 47.9352C240.5 49.2726 240.534 50.153 240.602 50.5762C240.669 50.9995 240.822 51.3338 241.059 51.5793C241.296 51.8333 241.588 51.9602 241.935 51.9602C242.274 51.9602 242.561 51.8333 242.798 51.5793C243.044 51.3254 243.196 50.9698 243.255 50.5127C243.315 50.0556 243.349 49.1965 243.357 47.9352C243.357 46.7078 243.323 45.8994 243.255 45.51C243.188 45.1206 243.048 44.8117 242.836 44.5831Z" fill="black"/>
<path d="M246.996 36.3233C247.008 36.2395 247.044 36.1676 247.104 36.1078C247.164 36.0479 247.248 36.012 247.355 36C247.475 36 247.577 36.0599 247.661 36.1796C247.697 36.2634 248.259 37.7361 249.349 40.5976C250.438 43.4591 250.989 44.9198 251.001 44.9797C251.013 45.0395 250.468 46.5002 249.367 49.3617C248.265 52.2233 247.697 53.6959 247.661 53.7797C247.577 53.8995 247.475 53.9593 247.355 53.9593C247.259 53.9593 247.182 53.9294 247.122 53.8695C247.062 53.8097 247.02 53.7318 246.996 53.6361C246.996 53.5762 247.535 52.1215 248.612 49.2719C249.702 46.4344 250.247 45.0036 250.247 44.9797C250.247 44.9557 249.702 43.525 248.612 40.6874C247.535 37.8378 246.996 36.3831 246.996 36.3233Z" fill="black"/>
</svg>
