<svg width="704" height="387" viewBox="0 0 704 387" fill="none" xmlns="http://www.w3.org/2000/svg">
<rect width="704" height="387" fill="white"/>
<circle cx="48" cy="76" r="24" fill="#DDE1E6"/>
<circle cx="48.5" cy="75.5" r="13" transform="rotate(-90 48.5 75.5)" fill="#BE95FF" stroke="#491D8B"/>
<path d="M58 76.6562L62 75.1562L58 73.6562L58 76.6562Z" fill="#491D8B"/>
<line x1="58" y1="75.1562" x2="47" y2="75.1562" stroke="#491D8B"/>
<path d="M43.2255 117.168C45.5635 117.168 46.5855 115.306 46.5855 112.114C46.5855 108.922 45.5635 107.06 43.2255 107.06C40.8875 107.06 39.8655 108.922 39.8655 112.114C39.8655 115.306 40.8875 117.168 43.2255 117.168ZM43.2255 116.146C41.6995 116.146 41.0975 114.802 41.0975 112.912V111.316C41.0975 109.426 41.6995 108.082 43.2255 108.082C44.7515 108.082 45.3535 109.426 45.3535 111.316V112.912C45.3535 114.802 44.7515 116.146 43.2255 116.146ZM51.78 117.168C54.118 117.168 55.14 115.306 55.14 112.114C55.14 108.922 54.118 107.06 51.78 107.06C49.442 107.06 48.42 108.922 48.42 112.114C48.42 115.306 49.442 117.168 51.78 117.168ZM51.78 116.146C50.254 116.146 49.652 114.802 49.652 112.912V111.316C49.652 109.426 50.254 108.082 51.78 108.082C53.306 108.082 53.908 109.426 53.908 111.316V112.912C53.908 114.802 53.306 116.146 51.78 116.146Z" fill="black"/>
<path d="M43.2255 199.168C45.5635 199.168 46.5855 197.306 46.5855 194.114C46.5855 190.922 45.5635 189.06 43.2255 189.06C40.8875 189.06 39.8655 190.922 39.8655 194.114C39.8655 197.306 40.8875 199.168 43.2255 199.168ZM43.2255 198.146C41.6995 198.146 41.0975 196.802 41.0975 194.912V193.316C41.0975 191.426 41.6995 190.082 43.2255 190.082C44.7515 190.082 45.3535 191.426 45.3535 193.316V194.912C45.3535 196.802 44.7515 198.146 43.2255 198.146ZM55.238 199V197.964H52.718V189.228H50.884L48.294 191.65L48.98 192.392L51.444 190.096H51.542V197.964H48.812V199H55.238Z" fill="black"/>
<path d="M46.6835 277V275.964H44.1635V267.228H42.3295L39.7395 269.65L40.4255 270.392L42.8895 268.096H42.9875V275.964H40.2575V277H46.6835ZM51.78 277.168C54.118 277.168 55.14 275.306 55.14 272.114C55.14 268.922 54.118 267.06 51.78 267.06C49.442 267.06 48.42 268.922 48.42 272.114C48.42 275.306 49.442 277.168 51.78 277.168ZM51.78 276.146C50.254 276.146 49.652 274.802 49.652 272.912V271.316C49.652 269.426 50.254 268.082 51.78 268.082C53.306 268.082 53.908 269.426 53.908 271.316V272.912C53.908 274.802 53.306 276.146 51.78 276.146Z" fill="black"/>
<path d="M46.6835 355V353.964H44.1635V345.228H42.3295L39.7395 347.65L40.4255 348.392L42.8895 346.096H42.9875V353.964H40.2575V355H46.6835ZM55.238 355V353.964H52.718V345.228H50.884L48.294 347.65L48.98 348.392L51.444 346.096H51.542V353.964H48.812V355H55.238Z" fill="black"/>
<circle cx="48" cy="236" r="24" fill="#DDE1E6"/>
<circle cx="48.5" cy="235.5" r="13" transform="rotate(-90 48.5 235.5)" fill="#BE95FF" stroke="#491D8B"/>
<path d="M58 236.656L62 235.156L58 233.656L58 236.656Z" fill="#491D8B"/>
<line x1="58" y1="235.156" x2="47" y2="235.156" stroke="#491D8B"/>
<circle cx="48" cy="158" r="24" fill="#DDE1E6"/>
<circle cx="48.5" cy="157.5" r="13" transform="rotate(90 48.5 157.5)" fill="#BE95FF" stroke="#491D8B"/>
<path d="M39 156.344L35 157.844L39 159.344L39 156.344Z" fill="#491D8B"/>
<line x1="39" y1="157.844" x2="50" y2="157.844" stroke="#491D8B"/>
<circle cx="48" cy="314" r="24" fill="#DDE1E6"/>
<circle cx="48.5" cy="313.5" r="13" transform="rotate(90 48.5 313.5)" fill="#BE95FF" stroke="#491D8B"/>
<path d="M39 312.344L35 313.844L39 315.344L39 312.344Z" fill="#491D8B"/>
<line x1="39" y1="313.844" x2="50" y2="313.844" stroke="#491D8B"/>
<path d="M64 49H77C78.6569 49 80 50.3431 80 52V368C80 369.657 78.6569 371 77 371H66.5" stroke="#343A3F"/>
<path d="M32 49H19C17.3431 49 16 50.3431 16 52V368C16 369.657 17.3431 371 19 371H29.5" stroke="#343A3F"/>
<path d="M27.5 37.9751H27.45C27.25 37.9751 27.1 37.8584 27 37.6251V25.4751L27.025 13.3251C27.1917 13.1084 27.35 13.0001 27.5 13.0001C27.7167 13.0001 27.8833 13.1251 28 13.3751V37.6251C27.8667 37.8584 27.7167 37.9751 27.55 37.9751H27.5Z" fill="black"/>
<path d="M32.375 25.8248C32.375 25.8248 32.375 25.7165 32.375 25.4998C32.375 25.2831 32.4917 25.1165 32.725 24.9998H40.2V21.2498L40.225 17.4998C40.3917 17.2831 40.55 17.1748 40.7 17.1748C40.9167 17.1748 41.0833 17.2998 41.2 17.5498V24.9998H48.65C48.9 25.1331 49.025 25.2998 49.025 25.4998C49.025 25.6998 48.9 25.8665 48.65 25.9998H41.2V33.4498C41.0667 33.6831 40.9167 33.7998 40.75 33.7998H40.7H40.65C40.45 33.7998 40.3 33.6831 40.2 33.4498V25.9998H32.725C32.4917 25.8831 32.375 25.7165 32.375 25.4998V25.8248Z" fill="black"/>
<path d="M52.5254 25.825C52.5254 25.825 52.5254 25.7167 52.5254 25.5C52.5254 25.2833 52.6421 25.1167 52.8754 25H67.4004C67.6504 25.1333 67.7754 25.3 67.7754 25.5C67.7754 25.7 67.6504 25.8667 67.4004 26H52.8754C52.6421 25.8833 52.5254 25.7167 52.5254 25.5V25.825Z" fill="black"/>
<path d="M71.25 13.45C71.2667 13.3333 71.3167 13.2333 71.4 13.15C71.4833 13.0667 71.6 13.0167 71.75 13C71.9167 13 72.0583 13.0833 72.175 13.25C72.225 13.3667 73.0083 15.4167 74.525 19.4C76.0417 23.3833 76.8083 25.4167 76.825 25.5C76.8417 25.5833 76.0833 27.6167 74.55 31.6C73.0167 35.5833 72.225 37.6333 72.175 37.75C72.0583 37.9167 71.9167 38 71.75 38C71.6167 38 71.5083 37.9583 71.425 37.875C71.3417 37.7917 71.2833 37.6833 71.25 37.55C71.25 37.4667 72 35.4417 73.5 31.475C75.0167 27.525 75.775 25.5333 75.775 25.5C75.775 25.4667 75.0167 23.475 73.5 19.525C72 15.5583 71.25 13.5333 71.25 13.45Z" fill="black"/>
</svg>
