<svg width="663" height="220" viewBox="0 0 663 220" fill="none" xmlns="http://www.w3.org/2000/svg">
<rect x="185.5" y="0.5" width="151" height="199" fill="#F2F4F8" stroke="#C1C7CD"/>
<rect x="336.5" y="0.5" width="175" height="199" stroke="#C1C7CD"/>
<rect x="511.5" y="0.5" width="151" height="199" fill="#F2F4F8" stroke="#C1C7CD"/>
<path d="M199.408 67.228V73.276C199.408 74.2093 199.581 74.9187 199.926 75.404C200.271 75.88 200.878 76.118 201.746 76.118C202.614 76.118 203.221 75.88 203.566 75.404C203.911 74.9187 204.084 74.2093 204.084 73.276V67.228H205.26V72.996C205.26 73.7053 205.195 74.3213 205.064 74.844C204.943 75.3667 204.742 75.8007 204.462 76.146C204.182 76.4913 203.813 76.748 203.356 76.916C202.908 77.084 202.357 77.168 201.704 77.168C201.051 77.168 200.5 77.084 200.052 76.916C199.613 76.748 199.259 76.4913 198.988 76.146C198.717 75.8007 198.521 75.3667 198.4 74.844C198.288 74.3213 198.232 73.7053 198.232 72.996V67.228H199.408ZM207.838 69.776H208.958V70.952H209.014C209.201 70.4947 209.472 70.1587 209.826 69.944C210.19 69.72 210.624 69.608 211.128 69.608C211.576 69.608 211.982 69.6967 212.346 69.874C212.71 70.0513 213.018 70.3033 213.27 70.63C213.532 70.9567 213.728 71.3533 213.858 71.82C213.998 72.2867 214.068 72.8093 214.068 73.388C214.068 73.9667 213.998 74.4893 213.858 74.956C213.728 75.4227 213.532 75.8193 213.27 76.146C213.018 76.4727 212.71 76.7247 212.346 76.902C211.982 77.0793 211.576 77.168 211.128 77.168C210.148 77.168 209.444 76.72 209.014 75.824H208.958V79.8H207.838V69.776ZM210.82 76.16C211.455 76.16 211.954 75.964 212.318 75.572C212.682 75.1707 212.864 74.648 212.864 74.004V72.772C212.864 72.128 212.682 71.61 212.318 71.218C211.954 70.8167 211.455 70.616 210.82 70.616C210.568 70.616 210.326 70.6533 210.092 70.728C209.868 70.7933 209.672 70.8867 209.504 71.008C209.336 71.1293 209.201 71.2787 209.098 71.456C209.005 71.624 208.958 71.806 208.958 72.002V74.69C208.958 74.9233 209.005 75.1333 209.098 75.32C209.201 75.4973 209.336 75.6513 209.504 75.782C209.672 75.9033 209.868 75.9967 210.092 76.062C210.326 76.1273 210.568 76.16 210.82 76.16ZM220.739 75.824H220.683C220.245 76.72 219.54 77.168 218.569 77.168C218.121 77.168 217.715 77.0793 217.351 76.902C216.987 76.7247 216.675 76.4727 216.413 76.146C216.161 75.8193 215.965 75.4227 215.825 74.956C215.695 74.4893 215.629 73.9667 215.629 73.388C215.629 72.8093 215.695 72.2867 215.825 71.82C215.965 71.3533 216.161 70.9567 216.413 70.63C216.675 70.3033 216.987 70.0513 217.351 69.874C217.715 69.6967 218.121 69.608 218.569 69.608C219.073 69.608 219.503 69.72 219.857 69.944C220.221 70.1587 220.497 70.4947 220.683 70.952H220.739V66.64H221.859V77H220.739V75.824ZM218.877 76.16C219.129 76.16 219.367 76.1273 219.591 76.062C219.825 75.9967 220.025 75.9033 220.193 75.782C220.361 75.6513 220.492 75.4973 220.585 75.32C220.688 75.1333 220.739 74.9233 220.739 74.69V72.002C220.739 71.806 220.688 71.624 220.585 71.456C220.492 71.2787 220.361 71.1293 220.193 71.008C220.025 70.8867 219.825 70.7933 219.591 70.728C219.367 70.6533 219.129 70.616 218.877 70.616C218.243 70.616 217.743 70.8167 217.379 71.218C217.015 71.61 216.833 72.128 216.833 72.772V74.004C216.833 74.648 217.015 75.1707 217.379 75.572C217.743 75.964 218.243 76.16 218.877 76.16ZM229.65 77C229.23 77 228.927 76.888 228.74 76.664C228.563 76.44 228.451 76.16 228.404 75.824H228.334C228.176 76.272 227.914 76.608 227.55 76.832C227.186 77.056 226.752 77.168 226.248 77.168C225.483 77.168 224.886 76.972 224.456 76.58C224.036 76.188 223.826 75.656 223.826 74.984C223.826 74.3027 224.074 73.78 224.568 73.416C225.072 73.052 225.852 72.87 226.906 72.87H228.334V72.156C228.334 71.6427 228.194 71.2507 227.914 70.98C227.634 70.7093 227.205 70.574 226.626 70.574C226.188 70.574 225.819 70.672 225.52 70.868C225.231 71.064 224.988 71.3253 224.792 71.652L224.12 71.022C224.316 70.63 224.629 70.2987 225.058 70.028C225.488 69.748 226.029 69.608 226.682 69.608C227.56 69.608 228.241 69.8227 228.726 70.252C229.212 70.6813 229.454 71.2787 229.454 72.044V76.02H230.28V77H229.65ZM226.43 76.216C226.71 76.216 226.967 76.1833 227.2 76.118C227.434 76.0527 227.634 75.9593 227.802 75.838C227.97 75.7167 228.101 75.5767 228.194 75.418C228.288 75.2593 228.334 75.0867 228.334 74.9V73.71H226.85C226.206 73.71 225.735 73.8033 225.436 73.99C225.147 74.1767 225.002 74.4473 225.002 74.802V75.096C225.002 75.4507 225.128 75.726 225.38 75.922C225.642 76.118 225.992 76.216 226.43 76.216ZM233.635 77C233.243 77 232.944 76.8927 232.739 76.678C232.543 76.454 232.445 76.1647 232.445 75.81V70.756H231.255V69.776H231.927C232.17 69.776 232.333 69.7293 232.417 69.636C232.51 69.5333 232.557 69.3607 232.557 69.118V67.774H233.565V69.776H235.147V70.756H233.565V76.02H235.035V77H233.635ZM239.768 77.168C239.274 77.168 238.826 77.0793 238.424 76.902C238.032 76.7247 237.692 76.4727 237.402 76.146C237.122 75.81 236.903 75.4133 236.744 74.956C236.595 74.4893 236.52 73.9667 236.52 73.388C236.52 72.8187 236.595 72.3007 236.744 71.834C236.903 71.3673 237.122 70.9707 237.402 70.644C237.692 70.308 238.032 70.0513 238.424 69.874C238.826 69.6967 239.274 69.608 239.768 69.608C240.254 69.608 240.688 69.6967 241.07 69.874C241.453 70.0513 241.78 70.2987 242.05 70.616C242.321 70.924 242.526 71.2927 242.666 71.722C242.816 72.1513 242.89 72.6227 242.89 73.136V73.668H237.696V74.004C237.696 74.312 237.743 74.6013 237.836 74.872C237.939 75.1333 238.079 75.362 238.256 75.558C238.443 75.754 238.667 75.908 238.928 76.02C239.199 76.132 239.502 76.188 239.838 76.188C240.296 76.188 240.692 76.0807 241.028 75.866C241.374 75.6513 241.64 75.3433 241.826 74.942L242.624 75.516C242.391 76.0107 242.027 76.412 241.532 76.72C241.038 77.0187 240.45 77.168 239.768 77.168ZM239.768 70.546C239.46 70.546 239.18 70.602 238.928 70.714C238.676 70.8167 238.457 70.966 238.27 71.162C238.093 71.358 237.953 71.5913 237.85 71.862C237.748 72.1233 237.696 72.4127 237.696 72.73V72.828H241.686V72.674C241.686 72.03 241.509 71.5167 241.154 71.134C240.809 70.742 240.347 70.546 239.768 70.546ZM248.365 69.776H249.485V70.952H249.541C249.727 70.4947 249.998 70.1587 250.353 69.944C250.717 69.72 251.151 69.608 251.655 69.608C252.103 69.608 252.509 69.6967 252.873 69.874C253.237 70.0513 253.545 70.3033 253.797 70.63C254.058 70.9567 254.254 71.3533 254.385 71.82C254.525 72.2867 254.595 72.8093 254.595 73.388C254.595 73.9667 254.525 74.4893 254.385 74.956C254.254 75.4227 254.058 75.8193 253.797 76.146C253.545 76.4727 253.237 76.7247 252.873 76.902C252.509 77.0793 252.103 77.168 251.655 77.168C250.675 77.168 249.97 76.72 249.541 75.824H249.485V79.8H248.365V69.776ZM251.347 76.16C251.981 76.16 252.481 75.964 252.845 75.572C253.209 75.1707 253.391 74.648 253.391 74.004V72.772C253.391 72.128 253.209 71.61 252.845 71.218C252.481 70.8167 251.981 70.616 251.347 70.616C251.095 70.616 250.852 70.6533 250.619 70.728C250.395 70.7933 250.199 70.8867 250.031 71.008C249.863 71.1293 249.727 71.2787 249.625 71.456C249.531 71.624 249.485 71.806 249.485 72.002V74.69C249.485 74.9233 249.531 75.1333 249.625 75.32C249.727 75.4973 249.863 75.6513 250.031 75.782C250.199 75.9033 250.395 75.9967 250.619 76.062C250.852 76.1273 251.095 76.16 251.347 76.16ZM261.896 77C261.476 77 261.172 76.888 260.986 76.664C260.808 76.44 260.696 76.16 260.65 75.824H260.58C260.421 76.272 260.16 76.608 259.796 76.832C259.432 77.056 258.998 77.168 258.494 77.168C257.728 77.168 257.131 76.972 256.702 76.58C256.282 76.188 256.072 75.656 256.072 74.984C256.072 74.3027 256.319 73.78 256.814 73.416C257.318 73.052 258.097 72.87 259.152 72.87H260.58V72.156C260.58 71.6427 260.44 71.2507 260.16 70.98C259.88 70.7093 259.45 70.574 258.872 70.574C258.433 70.574 258.064 70.672 257.766 70.868C257.476 71.064 257.234 71.3253 257.038 71.652L256.366 71.022C256.562 70.63 256.874 70.2987 257.304 70.028C257.733 69.748 258.274 69.608 258.928 69.608C259.805 69.608 260.486 69.8227 260.972 70.252C261.457 70.6813 261.7 71.2787 261.7 72.044V76.02H262.526V77H261.896ZM258.676 76.216C258.956 76.216 259.212 76.1833 259.446 76.118C259.679 76.0527 259.88 75.9593 260.048 75.838C260.216 75.7167 260.346 75.5767 260.44 75.418C260.533 75.2593 260.58 75.0867 260.58 74.9V73.71H259.096C258.452 73.71 257.98 73.8033 257.682 73.99C257.392 74.1767 257.248 74.4473 257.248 74.802V75.096C257.248 75.4507 257.374 75.726 257.626 75.922C257.887 76.118 258.237 76.216 258.676 76.216ZM264.284 77V69.776H265.404V71.106H265.474C265.605 70.7607 265.838 70.4527 266.174 70.182C266.51 69.9113 266.972 69.776 267.56 69.776H267.994V70.896H267.336C266.73 70.896 266.254 71.0127 265.908 71.246C265.572 71.47 265.404 71.7547 265.404 72.1V77H264.284ZM274.78 77C274.36 77 274.057 76.888 273.87 76.664C273.693 76.44 273.581 76.16 273.534 75.824H273.464C273.306 76.272 273.044 76.608 272.68 76.832C272.316 77.056 271.882 77.168 271.378 77.168C270.613 77.168 270.016 76.972 269.586 76.58C269.166 76.188 268.956 75.656 268.956 74.984C268.956 74.3027 269.204 73.78 269.698 73.416C270.202 73.052 270.982 72.87 272.036 72.87H273.464V72.156C273.464 71.6427 273.324 71.2507 273.044 70.98C272.764 70.7093 272.335 70.574 271.756 70.574C271.318 70.574 270.949 70.672 270.65 70.868C270.361 71.064 270.118 71.3253 269.922 71.652L269.25 71.022C269.446 70.63 269.759 70.2987 270.188 70.028C270.618 69.748 271.159 69.608 271.812 69.608C272.69 69.608 273.371 69.8227 273.856 70.252C274.342 70.6813 274.584 71.2787 274.584 72.044V76.02H275.41V77H274.78ZM271.56 76.216C271.84 76.216 272.097 76.1833 272.33 76.118C272.564 76.0527 272.764 75.9593 272.932 75.838C273.1 75.7167 273.231 75.5767 273.324 75.418C273.418 75.2593 273.464 75.0867 273.464 74.9V73.71H271.98C271.336 73.71 270.865 73.8033 270.566 73.99C270.277 74.1767 270.132 74.4473 270.132 74.802V75.096C270.132 75.4507 270.258 75.726 270.51 75.922C270.772 76.118 271.122 76.216 271.56 76.216ZM277.169 77V69.776H278.289V70.952H278.345C278.429 70.7653 278.522 70.5927 278.625 70.434C278.737 70.266 278.867 70.1213 279.017 70C279.175 69.8787 279.357 69.7853 279.563 69.72C279.768 69.6453 280.011 69.608 280.291 69.608C280.767 69.608 281.205 69.7247 281.607 69.958C282.008 70.182 282.307 70.5553 282.503 71.078H282.531C282.661 70.686 282.904 70.3453 283.259 70.056C283.623 69.7573 284.113 69.608 284.729 69.608C285.466 69.608 286.04 69.8507 286.451 70.336C286.871 70.812 287.081 71.4887 287.081 72.366V77H285.961V72.562C285.961 71.918 285.835 71.4327 285.583 71.106C285.331 70.7793 284.929 70.616 284.379 70.616C284.155 70.616 283.94 70.644 283.735 70.7C283.539 70.756 283.361 70.84 283.203 70.952C283.044 71.064 282.918 71.2087 282.825 71.386C282.731 71.554 282.685 71.7547 282.685 71.988V77H281.565V72.562C281.565 71.918 281.439 71.4327 281.187 71.106C280.935 70.7793 280.543 70.616 280.011 70.616C279.787 70.616 279.572 70.644 279.367 70.7C279.161 70.756 278.979 70.84 278.821 70.952C278.662 71.064 278.531 71.2087 278.429 71.386C278.335 71.554 278.289 71.7547 278.289 71.988V77H277.169ZM292.267 77.168C291.773 77.168 291.325 77.0793 290.923 76.902C290.531 76.7247 290.191 76.4727 289.901 76.146C289.621 75.81 289.402 75.4133 289.243 74.956C289.094 74.4893 289.019 73.9667 289.019 73.388C289.019 72.8187 289.094 72.3007 289.243 71.834C289.402 71.3673 289.621 70.9707 289.901 70.644C290.191 70.308 290.531 70.0513 290.923 69.874C291.325 69.6967 291.773 69.608 292.267 69.608C292.753 69.608 293.187 69.6967 293.569 69.874C293.952 70.0513 294.279 70.2987 294.549 70.616C294.82 70.924 295.025 71.2927 295.165 71.722C295.315 72.1513 295.389 72.6227 295.389 73.136V73.668H290.195V74.004C290.195 74.312 290.242 74.6013 290.335 74.872C290.438 75.1333 290.578 75.362 290.755 75.558C290.942 75.754 291.166 75.908 291.427 76.02C291.698 76.132 292.001 76.188 292.337 76.188C292.795 76.188 293.191 76.0807 293.527 75.866C293.873 75.6513 294.139 75.3433 294.325 74.942L295.123 75.516C294.89 76.0107 294.526 76.412 294.031 76.72C293.537 77.0187 292.949 77.168 292.267 77.168ZM292.267 70.546C291.959 70.546 291.679 70.602 291.427 70.714C291.175 70.8167 290.956 70.966 290.769 71.162C290.592 71.358 290.452 71.5913 290.349 71.862C290.247 72.1233 290.195 72.4127 290.195 72.73V72.828H294.185V72.674C294.185 72.03 294.008 71.5167 293.653 71.134C293.308 70.742 292.846 70.546 292.267 70.546ZM298.991 77C298.599 77 298.3 76.8927 298.095 76.678C297.899 76.454 297.801 76.1647 297.801 75.81V70.756H296.611V69.776H297.283C297.526 69.776 297.689 69.7293 297.773 69.636C297.866 69.5333 297.913 69.3607 297.913 69.118V67.774H298.921V69.776H300.503V70.756H298.921V76.02H300.391V77H298.991ZM305.125 77.168C304.63 77.168 304.182 77.0793 303.781 76.902C303.389 76.7247 303.048 76.4727 302.759 76.146C302.479 75.81 302.259 75.4133 302.101 74.956C301.951 74.4893 301.877 73.9667 301.877 73.388C301.877 72.8187 301.951 72.3007 302.101 71.834C302.259 71.3673 302.479 70.9707 302.759 70.644C303.048 70.308 303.389 70.0513 303.781 69.874C304.182 69.6967 304.63 69.608 305.125 69.608C305.61 69.608 306.044 69.6967 306.427 69.874C306.809 70.0513 307.136 70.2987 307.407 70.616C307.677 70.924 307.883 71.2927 308.023 71.722C308.172 72.1513 308.247 72.6227 308.247 73.136V73.668H303.053V74.004C303.053 74.312 303.099 74.6013 303.193 74.872C303.295 75.1333 303.435 75.362 303.613 75.558C303.799 75.754 304.023 75.908 304.285 76.02C304.555 76.132 304.859 76.188 305.195 76.188C305.652 76.188 306.049 76.0807 306.385 75.866C306.73 75.6513 306.996 75.3433 307.183 74.942L307.981 75.516C307.747 76.0107 307.383 76.412 306.889 76.72C306.394 77.0187 305.806 77.168 305.125 77.168ZM305.125 70.546C304.817 70.546 304.537 70.602 304.285 70.714C304.033 70.8167 303.813 70.966 303.627 71.162C303.449 71.358 303.309 71.5913 303.207 71.862C303.104 72.1233 303.053 72.4127 303.053 72.73V72.828H307.043V72.674C307.043 72.03 306.865 71.5167 306.511 71.134C306.165 70.742 305.703 70.546 305.125 70.546ZM310.252 77V69.776H311.372V71.106H311.442C311.573 70.7607 311.806 70.4527 312.142 70.182C312.478 69.9113 312.94 69.776 313.528 69.776H313.962V70.896H313.304C312.697 70.896 312.221 71.0127 311.876 71.246C311.54 71.47 311.372 71.7547 311.372 72.1V77H310.252ZM317.723 77.168C317.051 77.168 316.486 77.042 316.029 76.79C315.581 76.5287 315.193 76.1833 314.867 75.754L315.665 75.11C315.945 75.4647 316.257 75.74 316.603 75.936C316.948 76.1227 317.349 76.216 317.807 76.216C318.283 76.216 318.651 76.1133 318.913 75.908C319.183 75.7027 319.319 75.4133 319.319 75.04C319.319 74.76 319.225 74.522 319.039 74.326C318.861 74.1207 318.535 73.9807 318.059 73.906L317.485 73.822C317.149 73.7753 316.841 73.7053 316.561 73.612C316.281 73.5093 316.033 73.3787 315.819 73.22C315.613 73.052 315.45 72.8467 315.329 72.604C315.217 72.3613 315.161 72.072 315.161 71.736C315.161 71.3813 315.226 71.0733 315.357 70.812C315.487 70.5413 315.665 70.3173 315.889 70.14C316.122 69.9627 316.397 69.832 316.715 69.748C317.032 69.6547 317.373 69.608 317.737 69.608C318.325 69.608 318.815 69.7107 319.207 69.916C319.608 70.1213 319.958 70.406 320.257 70.77L319.515 71.442C319.356 71.218 319.123 71.0173 318.815 70.84C318.507 70.6533 318.119 70.56 317.653 70.56C317.186 70.56 316.831 70.6627 316.589 70.868C316.355 71.064 316.239 71.3347 316.239 71.68C316.239 72.0347 316.355 72.2913 316.589 72.45C316.831 72.6087 317.177 72.7253 317.625 72.8L318.185 72.884C318.987 73.0053 319.557 73.2387 319.893 73.584C320.229 73.92 320.397 74.3633 320.397 74.914C320.397 75.614 320.159 76.1647 319.683 76.566C319.207 76.9673 318.553 77.168 317.723 77.168Z" fill="black"/>
<path d="M40.232 205.228V210.996C40.232 213.838 41.1 215.168 43.704 215.168C46.308 215.168 47.26 213.838 47.26 210.996V205.228H46.084V211.276C46.084 213.138 45.482 214.118 43.746 214.118C42.01 214.118 41.408 213.138 41.408 211.276V205.228H40.232ZM52.0083 215.168C53.6603 215.168 54.6823 214.314 54.6823 212.914C54.6823 211.822 54.0663 211.122 52.4703 210.884L51.9103 210.8C51.0143 210.66 50.5243 210.38 50.5243 209.68C50.5243 208.994 51.0143 208.56 51.9383 208.56C52.8623 208.56 53.4783 208.994 53.8003 209.442L54.5423 208.77C53.9543 208.042 53.1843 207.608 52.0223 207.608C50.5523 207.608 49.4463 208.308 49.4463 209.736C49.4463 211.08 50.4403 211.626 51.7703 211.822L52.3443 211.906C53.2963 212.046 53.6043 212.48 53.6043 213.04C53.6043 213.782 53.0443 214.216 52.0923 214.216C51.1823 214.216 50.5103 213.81 49.9503 213.11L49.1523 213.754C49.7963 214.608 50.6783 215.168 52.0083 215.168ZM59.5365 215.168C60.8945 215.168 61.9305 214.496 62.3925 213.516L61.5945 212.942C61.2165 213.74 60.5165 214.188 59.6065 214.188C58.2625 214.188 57.4645 213.25 57.4645 212.004V211.668H62.6585V211.136C62.6585 209.092 61.4685 207.608 59.5365 207.608C57.5765 207.608 56.2885 209.092 56.2885 211.388C56.2885 213.684 57.5765 215.168 59.5365 215.168ZM59.5365 208.546C60.6845 208.546 61.4545 209.4 61.4545 210.674V210.828H57.4645V210.73C57.4645 209.47 58.3185 208.546 59.5365 208.546ZM65.7841 215V210.1C65.7841 209.414 66.5121 208.896 67.7161 208.896H68.3741V207.776H67.9401C66.7641 207.776 66.1061 208.42 65.8541 209.106H65.7841V207.776H64.6641V215H65.7841Z" fill="black"/>
<path d="M15.168 122.254C15.168 123.495 14.748 124.461 13.908 125.152C13.0587 125.843 11.8127 126.188 10.17 126.188C8.52733 126.188 7.26733 125.843 6.39 125.152C5.50333 124.461 5.06 123.495 5.06 122.254C5.06 121.433 5.24667 120.747 5.62 120.196C5.99333 119.636 6.52067 119.202 7.202 118.894L7.776 119.846C7.272 120.042 6.87067 120.341 6.572 120.742C6.264 121.143 6.11 121.647 6.11 122.254C6.11 122.674 6.18933 123.052 6.348 123.388C6.50667 123.715 6.73533 123.995 7.034 124.228C7.32333 124.452 7.67333 124.625 8.084 124.746C8.48533 124.867 8.938 124.928 9.442 124.928H10.898C11.906 124.928 12.6947 124.695 13.264 124.228C13.8333 123.761 14.118 123.103 14.118 122.254C14.118 121.629 13.9593 121.106 13.642 120.686C13.3153 120.266 12.886 119.958 12.354 119.762L12.942 118.824C13.6327 119.132 14.1787 119.575 14.58 120.154C14.972 120.733 15.168 121.433 15.168 122.254ZM15 111.705C15 112.125 14.888 112.428 14.664 112.615C14.44 112.792 14.16 112.904 13.824 112.951V113.021C14.272 113.179 14.608 113.441 14.832 113.805C15.056 114.169 15.168 114.603 15.168 115.107C15.168 115.872 14.972 116.469 14.58 116.899C14.188 117.319 13.656 117.529 12.984 117.529C12.3027 117.529 11.78 117.281 11.416 116.787C11.052 116.283 10.87 115.503 10.87 114.449V113.021H10.156C9.64267 113.021 9.25067 113.161 8.98 113.441C8.70933 113.721 8.574 114.15 8.574 114.729C8.574 115.167 8.672 115.536 8.868 115.835C9.064 116.124 9.32533 116.367 9.652 116.563L9.022 117.235C8.63 117.039 8.29867 116.726 8.028 116.297C7.748 115.867 7.608 115.326 7.608 114.673C7.608 113.795 7.82267 113.114 8.252 112.629C8.68133 112.143 9.27867 111.901 10.044 111.901H14.02V111.075H15V111.705ZM14.216 114.925C14.216 114.645 14.1833 114.388 14.118 114.155C14.0527 113.921 13.9593 113.721 13.838 113.553C13.7167 113.385 13.5767 113.254 13.418 113.161C13.2593 113.067 13.0867 113.021 12.9 113.021H11.71V114.505C11.71 115.149 11.8033 115.62 11.99 115.919C12.1767 116.208 12.4473 116.353 12.802 116.353H13.096C13.4507 116.353 13.726 116.227 13.922 115.975C14.118 115.713 14.216 115.363 14.216 114.925ZM15 108.126C15 108.518 14.8927 108.817 14.678 109.022C14.454 109.218 14.174 109.316 13.838 109.316H4.64L4.64 108.196H14.02V107.132H15V108.126ZM15 104.22C15 104.612 14.8927 104.911 14.678 105.116C14.454 105.312 14.174 105.41 13.838 105.41H4.64V104.29H14.02V103.226H15V104.22ZM4.64 101.436V100.316H8.952V100.26C8.49467 100.073 8.15867 99.8023 7.944 99.4476C7.72 99.0836 7.608 98.6496 7.608 98.1456C7.608 97.6976 7.69667 97.2916 7.874 96.9276C8.05133 96.5636 8.30333 96.2556 8.63 96.0036C8.95667 95.7423 9.35333 95.5463 9.82 95.4156C10.2867 95.2756 10.8093 95.2056 11.388 95.2056C11.9667 95.2056 12.4893 95.2756 12.956 95.4156C13.4227 95.5463 13.8193 95.7423 14.146 96.0036C14.4727 96.2556 14.7247 96.5636 14.902 96.9276C15.0793 97.2916 15.168 97.6976 15.168 98.1456C15.168 99.1256 14.72 99.8303 13.824 100.26V100.316H15V101.436H4.64ZM14.16 98.4536C14.16 97.819 13.964 97.3196 13.572 96.9556C13.1707 96.5916 12.648 96.4096 12.004 96.4096H10.772C10.128 96.4096 9.61 96.5916 9.218 96.9556C8.81667 97.3196 8.616 97.819 8.616 98.4536C8.616 98.7056 8.65333 98.9483 8.728 99.1816C8.79333 99.4056 8.88667 99.6016 9.008 99.7696C9.12933 99.9376 9.27867 100.073 9.456 100.176C9.624 100.269 9.806 100.316 10.002 100.316H12.69C12.9233 100.316 13.1333 100.269 13.32 100.176C13.4973 100.073 13.6513 99.9376 13.782 99.7696C13.9033 99.6016 13.9967 99.4056 14.062 99.1816C14.1273 98.9483 14.16 98.7056 14.16 98.4536ZM15 87.9045C15 88.3245 14.888 88.6279 14.664 88.8145C14.44 88.9919 14.16 89.1039 13.824 89.1505V89.2205C14.272 89.3792 14.608 89.6405 14.832 90.0045C15.056 90.3685 15.168 90.8025 15.168 91.3065C15.168 92.0719 14.972 92.6692 14.58 93.0985C14.188 93.5185 13.656 93.7285 12.984 93.7285C12.3027 93.7285 11.78 93.4812 11.416 92.9865C11.052 92.4825 10.87 91.7032 10.87 90.6485L10.87 89.2205H10.156C9.64267 89.2205 9.25067 89.3605 8.98 89.6405C8.70933 89.9205 8.574 90.3499 8.574 90.9285C8.574 91.3672 8.672 91.7359 8.868 92.0345C9.064 92.3239 9.32533 92.5665 9.652 92.7625L9.022 93.4345C8.63 93.2385 8.29867 92.9259 8.028 92.4965C7.748 92.0672 7.608 91.5259 7.608 90.8725C7.608 89.9952 7.82267 89.3139 8.252 88.8285C8.68133 88.3432 9.27867 88.1005 10.044 88.1005H14.02V87.2745H15V87.9045ZM14.216 91.1245C14.216 90.8445 14.1833 90.5879 14.118 90.3545C14.0527 90.1212 13.9593 89.9205 13.838 89.7525C13.7167 89.5845 13.5767 89.4539 13.418 89.3605C13.2593 89.2672 13.0867 89.2205 12.9 89.2205H11.71L11.71 90.7045C11.71 91.3485 11.8033 91.8199 11.99 92.1185C12.1767 92.4079 12.4473 92.5525 12.802 92.5525H13.096C13.4507 92.5525 13.726 92.4265 13.922 92.1745C14.118 91.9132 14.216 91.5632 14.216 91.1245ZM15.168 82.828C15.168 83.332 15.0793 83.7847 14.902 84.186C14.7247 84.5873 14.4727 84.928 14.146 85.208C13.8193 85.4787 13.4227 85.6887 12.956 85.838C12.4893 85.978 11.9667 86.048 11.388 86.048C10.8093 86.048 10.2867 85.978 9.82 85.838C9.35333 85.6887 8.95667 85.4787 8.63 85.208C8.30333 84.928 8.05133 84.5873 7.874 84.186C7.69667 83.7847 7.608 83.332 7.608 82.828C7.608 82.1093 7.76667 81.5353 8.084 81.106C8.392 80.6673 8.798 80.3407 9.302 80.126L9.778 81.064C9.40467 81.1947 9.11533 81.4093 8.91 81.708C8.70467 82.0067 8.602 82.38 8.602 82.828C8.602 83.164 8.658 83.458 8.77 83.71C8.87267 83.962 9.022 84.172 9.218 84.34C9.40467 84.508 9.63333 84.634 9.904 84.718C10.1653 84.802 10.4547 84.844 10.772 84.844H12.004C12.6387 84.844 13.1613 84.676 13.572 84.34C13.9733 83.9947 14.174 83.4907 14.174 82.828C14.174 81.9227 13.754 81.2693 12.914 80.868L13.46 80.056C13.9827 80.2893 14.398 80.6393 14.706 81.106C15.014 81.5633 15.168 82.1373 15.168 82.828ZM4.64 78.315V77.195H11.206V77.139L9.974 76.033L7.776 73.989V72.631L10.632 75.305L15 72.365V73.723L11.318 76.117L12.424 77.195H15V78.315H4.64Z" fill="black"/>
<path d="M96 62.84H96.98V64.212H104.792V62.84H105.772V66.76H104.792V65.388H96.98V66.76H96V62.84ZM96 68.9555H103.224V70.0755H102.048V70.1315C102.459 70.3088 102.785 70.5561 103.028 70.8735C103.271 71.2001 103.392 71.6341 103.392 72.1755C103.392 72.9221 103.149 73.5101 102.664 73.9395C102.188 74.3781 101.511 74.5975 100.634 74.5975H96V73.4775H100.438C101.735 73.4775 102.384 72.9315 102.384 71.8395C102.384 71.6155 102.356 71.3961 102.3 71.1815C102.244 70.9761 102.16 70.7895 102.048 70.6215C101.936 70.4535 101.791 70.3181 101.614 70.2155C101.446 70.1221 101.245 70.0755 101.012 70.0755H96V68.9555ZM102.244 77.4645V76.2885H103.224V77.4645H104.68C105.184 77.4645 105.59 77.5952 105.898 77.8565C106.206 78.1178 106.36 78.5145 106.36 79.0465V80.1385H105.38V78.5845H103.224V80.1385H102.244V78.5845H96V77.4645H102.244ZM95.832 84.4469C95.832 83.9615 95.9207 83.5182 96.098 83.1169C96.2753 82.7155 96.5273 82.3702 96.854 82.0809C97.19 81.8009 97.5867 81.5815 98.044 81.4229C98.5107 81.2642 99.0333 81.1849 99.612 81.1849C100.181 81.1849 100.699 81.2642 101.166 81.4229C101.633 81.5815 102.029 81.8009 102.356 82.0809C102.692 82.3702 102.949 82.7155 103.126 83.1169C103.303 83.5182 103.392 83.9615 103.392 84.4469C103.392 84.9322 103.303 85.3709 103.126 85.7629C102.949 86.1642 102.692 86.5095 102.356 86.7989C102.029 87.0882 101.633 87.3122 101.166 87.4709C100.699 87.6295 100.181 87.7089 99.612 87.7089C99.0333 87.7089 98.5107 87.6295 98.044 87.4709C97.5867 87.3122 97.19 87.0882 96.854 86.7989C96.5273 86.5095 96.2753 86.1642 96.098 85.7629C95.9207 85.3709 95.832 84.9322 95.832 84.4469ZM96.826 84.4469C96.826 85.0535 97.0127 85.5482 97.386 85.9309C97.7593 86.3135 98.3287 86.5049 99.094 86.5049H100.13C100.895 86.5049 101.465 86.3135 101.838 85.9309C102.211 85.5482 102.398 85.0535 102.398 84.4469C102.398 83.8402 102.211 83.3455 101.838 82.9629C101.465 82.5802 100.895 82.3889 100.13 82.3889H99.094C98.3287 82.3889 97.7593 82.5802 97.386 82.9629C97.0127 83.3455 96.826 83.8402 96.826 84.4469ZM96 89.7109H103.224V90.8309H101.894V90.9009C102.239 91.0315 102.547 91.2649 102.818 91.6009C103.089 91.9369 103.224 92.3989 103.224 92.9869V93.4209H102.104V92.7629C102.104 92.1562 101.987 91.6802 101.754 91.3349C101.53 90.9989 101.245 90.8309 100.9 90.8309H96V89.7109ZM96 95.0115H103.224V96.1315H102.048V96.1875C102.235 96.2715 102.407 96.3648 102.566 96.4675C102.734 96.5795 102.879 96.7102 103 96.8595C103.121 97.0182 103.215 97.2002 103.28 97.4055C103.355 97.6108 103.392 97.8535 103.392 98.1335C103.392 98.6095 103.275 99.0482 103.042 99.4495C102.818 99.8508 102.445 100.149 101.922 100.345V100.373C102.314 100.504 102.655 100.747 102.944 101.101C103.243 101.465 103.392 101.955 103.392 102.571C103.392 103.309 103.149 103.883 102.664 104.293C102.188 104.713 101.511 104.923 100.634 104.923H96V103.803H100.438C101.082 103.803 101.567 103.677 101.894 103.425C102.221 103.173 102.384 102.772 102.384 102.221C102.384 101.997 102.356 101.783 102.3 101.577C102.244 101.381 102.16 101.204 102.048 101.045C101.936 100.887 101.791 100.761 101.614 100.667C101.446 100.574 101.245 100.527 101.012 100.527H96V99.4075H100.438C101.082 99.4075 101.567 99.2815 101.894 99.0295C102.221 98.7775 102.384 98.3855 102.384 97.8535C102.384 97.6295 102.356 97.4148 102.3 97.2095C102.244 97.0042 102.16 96.8222 102.048 96.6635C101.936 96.5048 101.791 96.3742 101.614 96.2715C101.446 96.1782 101.245 96.1315 101.012 96.1315H96V95.0115ZM96 112.644C96 112.224 96.112 111.921 96.336 111.734C96.56 111.557 96.84 111.445 97.176 111.398V111.328C96.728 111.169 96.392 110.908 96.168 110.544C95.944 110.18 95.832 109.746 95.832 109.242C95.832 108.477 96.028 107.879 96.42 107.45C96.812 107.03 97.344 106.82 98.016 106.82C98.6973 106.82 99.22 107.067 99.584 107.562C99.948 108.066 100.13 108.845 100.13 109.9V111.328H100.844C101.357 111.328 101.749 111.188 102.02 110.908C102.291 110.628 102.426 110.199 102.426 109.62C102.426 109.181 102.328 108.813 102.132 108.514C101.936 108.225 101.675 107.982 101.348 107.786L101.978 107.114C102.37 107.31 102.701 107.623 102.972 108.052C103.252 108.481 103.392 109.023 103.392 109.676C103.392 110.553 103.177 111.235 102.748 111.72C102.319 112.205 101.721 112.448 100.956 112.448H96.98V113.274H96V112.644ZM96.784 109.424C96.784 109.704 96.8167 109.961 96.882 110.194C96.9473 110.427 97.0407 110.628 97.162 110.796C97.2833 110.964 97.4233 111.095 97.582 111.188C97.7407 111.281 97.9133 111.328 98.1 111.328H99.29V109.844C99.29 109.2 99.1967 108.729 99.01 108.43C98.8233 108.141 98.5527 107.996 98.198 107.996H97.904C97.5493 107.996 97.274 108.122 97.078 108.374C96.882 108.635 96.784 108.985 96.784 109.424ZM96 116.629C96 116.237 96.1073 115.938 96.322 115.733C96.546 115.537 96.8353 115.439 97.19 115.439H102.244V114.249H103.224V114.921C103.224 115.163 103.271 115.327 103.364 115.411C103.467 115.504 103.639 115.551 103.882 115.551H105.226V116.559H103.224V118.141H102.244V116.559H96.98V118.029H96V116.629ZM104.918 120.661C104.918 120.418 104.974 120.241 105.086 120.129C105.207 120.026 105.361 119.975 105.548 119.975H105.73C105.917 119.975 106.066 120.026 106.178 120.129C106.299 120.241 106.36 120.418 106.36 120.661C106.36 120.904 106.299 121.076 106.178 121.179C106.066 121.291 105.917 121.347 105.73 121.347H105.548C105.361 121.347 105.207 121.291 105.086 121.179C104.974 121.076 104.918 120.904 104.918 120.661ZM103.224 120.101V121.221H96V120.101H103.224ZM95.832 126.491C95.832 126.006 95.9207 125.562 96.098 125.161C96.2753 124.76 96.5273 124.414 96.854 124.125C97.19 123.845 97.5867 123.626 98.044 123.467C98.5107 123.308 99.0333 123.229 99.612 123.229C100.181 123.229 100.699 123.308 101.166 123.467C101.633 123.626 102.029 123.845 102.356 124.125C102.692 124.414 102.949 124.76 103.126 125.161C103.303 125.562 103.392 126.006 103.392 126.491C103.392 126.976 103.303 127.415 103.126 127.807C102.949 128.208 102.692 128.554 102.356 128.843C102.029 129.132 101.633 129.356 101.166 129.515C100.699 129.674 100.181 129.753 99.612 129.753C99.0333 129.753 98.5107 129.674 98.044 129.515C97.5867 129.356 97.19 129.132 96.854 128.843C96.5273 128.554 96.2753 128.208 96.098 127.807C95.9207 127.415 95.832 126.976 95.832 126.491ZM96.826 126.491C96.826 127.098 97.0127 127.592 97.386 127.975C97.7593 128.358 98.3287 128.549 99.094 128.549H100.13C100.895 128.549 101.465 128.358 101.838 127.975C102.211 127.592 102.398 127.098 102.398 126.491C102.398 125.884 102.211 125.39 101.838 125.007C101.465 124.624 100.895 124.433 100.13 124.433H99.094C98.3287 124.433 97.7593 124.624 97.386 125.007C97.0127 125.39 96.826 125.884 96.826 126.491ZM96 131.755H103.224V132.875H102.048V132.931C102.459 133.108 102.785 133.356 103.028 133.673C103.271 134 103.392 134.434 103.392 134.975C103.392 135.722 103.149 136.31 102.664 136.739C102.188 137.178 101.511 137.397 100.634 137.397H96V136.277H100.438C101.735 136.277 102.384 135.731 102.384 134.639C102.384 134.415 102.356 134.196 102.3 133.981C102.244 133.776 102.16 133.589 102.048 133.421C101.936 133.253 101.791 133.118 101.614 133.015C101.446 132.922 101.245 132.875 101.012 132.875H96V131.755Z" fill="black"/>
<path d="M542.746 77.168C541.505 77.168 540.539 76.748 539.848 75.908C539.157 75.0587 538.812 73.8127 538.812 72.17C538.812 70.5273 539.157 69.2673 539.848 68.39C540.539 67.5033 541.505 67.06 542.746 67.06C543.567 67.06 544.253 67.2467 544.804 67.62C545.364 67.9933 545.798 68.5207 546.106 69.202L545.154 69.776C544.958 69.272 544.659 68.8707 544.258 68.572C543.857 68.264 543.353 68.11 542.746 68.11C542.326 68.11 541.948 68.1893 541.612 68.348C541.285 68.5067 541.005 68.7353 540.772 69.034C540.548 69.3233 540.375 69.6733 540.254 70.084C540.133 70.4853 540.072 70.938 540.072 71.442V72.898C540.072 73.906 540.305 74.6947 540.772 75.264C541.239 75.8333 541.897 76.118 542.746 76.118C543.371 76.118 543.894 75.9593 544.314 75.642C544.734 75.3153 545.042 74.886 545.238 74.354L546.176 74.942C545.868 75.6327 545.425 76.1787 544.846 76.58C544.267 76.972 543.567 77.168 542.746 77.168ZM550.775 77.168C550.29 77.168 549.847 77.0793 549.445 76.902C549.044 76.7247 548.699 76.4727 548.409 76.146C548.129 75.81 547.91 75.4133 547.751 74.956C547.593 74.4893 547.513 73.9667 547.513 73.388C547.513 72.8187 547.593 72.3007 547.751 71.834C547.91 71.3673 548.129 70.9707 548.409 70.644C548.699 70.308 549.044 70.0513 549.445 69.874C549.847 69.6967 550.29 69.608 550.775 69.608C551.261 69.608 551.699 69.6967 552.091 69.874C552.493 70.0513 552.838 70.308 553.127 70.644C553.417 70.9707 553.641 71.3673 553.799 71.834C553.958 72.3007 554.037 72.8187 554.037 73.388C554.037 73.9667 553.958 74.4893 553.799 74.956C553.641 75.4133 553.417 75.81 553.127 76.146C552.838 76.4727 552.493 76.7247 552.091 76.902C551.699 77.0793 551.261 77.168 550.775 77.168ZM550.775 76.174C551.382 76.174 551.877 75.9873 552.259 75.614C552.642 75.2407 552.833 74.6713 552.833 73.906V72.87C552.833 72.1047 552.642 71.5353 552.259 71.162C551.877 70.7887 551.382 70.602 550.775 70.602C550.169 70.602 549.674 70.7887 549.291 71.162C548.909 71.5353 548.717 72.1047 548.717 72.87V73.906C548.717 74.6713 548.909 75.2407 549.291 75.614C549.674 75.9873 550.169 76.174 550.775 76.174ZM556.039 77V69.776H557.159V70.952H557.215C557.299 70.7653 557.393 70.5927 557.495 70.434C557.607 70.266 557.738 70.1213 557.887 70C558.046 69.8787 558.228 69.7853 558.433 69.72C558.639 69.6453 558.881 69.608 559.161 69.608C559.637 69.608 560.076 69.7247 560.477 69.958C560.879 70.182 561.177 70.5553 561.373 71.078H561.401C561.532 70.686 561.775 70.3453 562.129 70.056C562.493 69.7573 562.983 69.608 563.599 69.608C564.337 69.608 564.911 69.8507 565.321 70.336C565.741 70.812 565.951 71.4887 565.951 72.366V77H564.831V72.562C564.831 71.918 564.705 71.4327 564.453 71.106C564.201 70.7793 563.8 70.616 563.249 70.616C563.025 70.616 562.811 70.644 562.605 70.7C562.409 70.756 562.232 70.84 562.073 70.952C561.915 71.064 561.789 71.2087 561.695 71.386C561.602 71.554 561.555 71.7547 561.555 71.988V77H560.435V72.562C560.435 71.918 560.309 71.4327 560.057 71.106C559.805 70.7793 559.413 70.616 558.881 70.616C558.657 70.616 558.443 70.644 558.237 70.7C558.032 70.756 557.85 70.84 557.691 70.952C557.533 71.064 557.402 71.2087 557.299 71.386C557.206 71.554 557.159 71.7547 557.159 71.988V77H556.039ZM568.422 69.776H569.542V70.952H569.598C569.785 70.4947 570.055 70.1587 570.41 69.944C570.774 69.72 571.208 69.608 571.712 69.608C572.16 69.608 572.566 69.6967 572.93 69.874C573.294 70.0513 573.602 70.3033 573.854 70.63C574.115 70.9567 574.311 71.3533 574.442 71.82C574.582 72.2867 574.652 72.8093 574.652 73.388C574.652 73.9667 574.582 74.4893 574.442 74.956C574.311 75.4227 574.115 75.8193 573.854 76.146C573.602 76.4727 573.294 76.7247 572.93 76.902C572.566 77.0793 572.16 77.168 571.712 77.168C570.732 77.168 570.027 76.72 569.598 75.824H569.542V79.8H568.422V69.776ZM571.404 76.16C572.039 76.16 572.538 75.964 572.902 75.572C573.266 75.1707 573.448 74.648 573.448 74.004V72.772C573.448 72.128 573.266 71.61 572.902 71.218C572.538 70.8167 572.039 70.616 571.404 70.616C571.152 70.616 570.909 70.6533 570.676 70.728C570.452 70.7933 570.256 70.8867 570.088 71.008C569.92 71.1293 569.785 71.2787 569.682 71.456C569.589 71.624 569.542 71.806 569.542 72.002V74.69C569.542 74.9233 569.589 75.1333 569.682 75.32C569.785 75.4973 569.92 75.6513 570.088 75.782C570.256 75.9033 570.452 75.9967 570.676 76.062C570.909 76.1273 571.152 76.16 571.404 76.16ZM581.155 75.824H581.099C581.024 75.992 580.931 76.16 580.819 76.328C580.716 76.4867 580.586 76.6313 580.427 76.762C580.268 76.8833 580.077 76.9813 579.853 77.056C579.629 77.1307 579.368 77.168 579.069 77.168C578.322 77.168 577.73 76.93 577.291 76.454C576.852 75.9687 576.633 75.2873 576.633 74.41V69.776H577.753V74.214C577.753 75.5113 578.304 76.16 579.405 76.16C579.629 76.16 579.844 76.132 580.049 76.076C580.264 76.02 580.45 75.936 580.609 75.824C580.777 75.712 580.908 75.572 581.001 75.404C581.104 75.2267 581.155 75.0167 581.155 74.774V69.776H582.275V77H581.155V75.824ZM586.416 77C586.024 77 585.725 76.8927 585.52 76.678C585.324 76.454 585.226 76.1647 585.226 75.81V70.756H584.036V69.776H584.708C584.951 69.776 585.114 69.7293 585.198 69.636C585.291 69.5333 585.338 69.3607 585.338 69.118V67.774H586.346V69.776H587.928V70.756H586.346V76.02H587.816V77H586.416ZM592.55 77.168C592.055 77.168 591.607 77.0793 591.206 76.902C590.814 76.7247 590.473 76.4727 590.184 76.146C589.904 75.81 589.684 75.4133 589.526 74.956C589.376 74.4893 589.302 73.9667 589.302 73.388C589.302 72.8187 589.376 72.3007 589.526 71.834C589.684 71.3673 589.904 70.9707 590.184 70.644C590.473 70.308 590.814 70.0513 591.206 69.874C591.607 69.6967 592.055 69.608 592.55 69.608C593.035 69.608 593.469 69.6967 593.852 69.874C594.234 70.0513 594.561 70.2987 594.832 70.616C595.102 70.924 595.308 71.2927 595.448 71.722C595.597 72.1513 595.672 72.6227 595.672 73.136V73.668H590.478V74.004C590.478 74.312 590.524 74.6013 590.618 74.872C590.72 75.1333 590.86 75.362 591.038 75.558C591.224 75.754 591.448 75.908 591.71 76.02C591.98 76.132 592.284 76.188 592.62 76.188C593.077 76.188 593.474 76.0807 593.81 75.866C594.155 75.6513 594.421 75.3433 594.608 74.942L595.406 75.516C595.172 76.0107 594.808 76.412 594.314 76.72C593.819 77.0187 593.231 77.168 592.55 77.168ZM592.55 70.546C592.242 70.546 591.962 70.602 591.71 70.714C591.458 70.8167 591.238 70.966 591.052 71.162C590.874 71.358 590.734 71.5913 590.632 71.862C590.529 72.1233 590.478 72.4127 590.478 72.73V72.828H594.468V72.674C594.468 72.03 594.29 71.5167 593.936 71.134C593.59 70.742 593.128 70.546 592.55 70.546Z" fill="black"/>
<path d="M542.354 47.3536C542.549 47.1583 542.549 46.8417 542.354 46.6464L539.172 43.4645C538.976 43.2692 538.66 43.2692 538.464 43.4645C538.269 43.6597 538.269 43.9763 538.464 44.1716L541.293 47L538.464 49.8284C538.269 50.0237 538.269 50.3403 538.464 50.5355C538.66 50.7308 538.976 50.7308 539.172 50.5355L542.354 47.3536ZM302 47.5H542V46.5H302V47.5Z" fill="black"/>
<path d="M31.3536 12.6464C31.1583 12.4511 30.8417 12.4511 30.6464 12.6464L27.4645 15.8284C27.2692 16.0237 27.2692 16.3402 27.4645 16.5355C27.6597 16.7307 27.9763 16.7307 28.1716 16.5355L31 13.7071L33.8284 16.5355C34.0237 16.7307 34.3403 16.7307 34.5355 16.5355C34.7308 16.3402 34.7308 16.0237 34.5355 15.8284L31.3536 12.6464ZM31.5 181.003L31.5 13H30.5L30.5 181.003H31.5Z" fill="black"/>
<path d="M74.6464 181.357C74.8417 181.552 75.1583 181.552 75.3536 181.357L78.5355 178.175C78.7308 177.979 78.7308 177.663 78.5355 177.467C78.3403 177.272 78.0237 177.272 77.8284 177.467L75 180.296L72.1716 177.467C71.9763 177.272 71.6597 177.272 71.4645 177.467C71.2692 177.663 71.2692 177.979 71.4645 178.175L74.6464 181.357ZM74.5 13V14H75.5V13H74.5ZM74.5 16.0001V18.0001H75.5V16.0001H74.5ZM74.5 20.0001V22.0002H75.5V20.0001H74.5ZM74.5 24.0002V26.0002H75.5V24.0002H74.5ZM74.5 28.0003V30.0003H75.5V28.0003H74.5ZM74.5 32.0003V34.0004H75.5V32.0003H74.5ZM74.5 36.0004V38.0004H75.5V36.0004H74.5ZM74.5 40.0005V42.0005H75.5V40.0005H74.5ZM74.5 44.0006V46.0006H75.5V44.0006H74.5ZM74.5 48.0006V50.0007H75.5V48.0006H74.5ZM74.5 52.0007V54.0007H75.5V52.0007H74.5ZM74.5 56.0008V58.0008H75.5V56.0008H74.5ZM74.5 60.0008V62.0009H75.5V60.0008H74.5ZM74.5 64.0009V66.0009H75.5V64.0009H74.5ZM74.5 68.001V70.001H75.5V68.001H74.5ZM74.5 72.001V74.0011H75.5V72.001H74.5ZM74.5 76.0011V78.0011H75.5V76.0011H74.5ZM74.5 80.0012V82.0012H75.5V80.0012H74.5ZM74.5 84.0013V86.0013H75.5V84.0013H74.5ZM74.5 88.0013V90.0014H75.5V88.0013H74.5ZM74.5 92.0014V94.0014H75.5V92.0014H74.5ZM74.5 96.0015V98.0015H75.5V96.0015H74.5ZM74.5 100.002V102.002H75.5V100.002H74.5ZM74.5 104.002V106.002H75.5V104.002H74.5ZM74.5 108.002V110.002H75.5V108.002H74.5ZM74.5 112.002V114.002H75.5V112.002H74.5ZM74.5 116.002V118.002H75.5V116.002H74.5ZM74.5 120.002V122.002H75.5V120.002H74.5ZM74.5 124.002V126.002H75.5V124.002H74.5ZM74.5 128.002V130.002H75.5V128.002H74.5ZM74.5 132.002V134.002H75.5V132.002H74.5ZM74.5 136.002V138.002H75.5V136.002H74.5ZM74.5 140.002V142.002H75.5V140.002H74.5ZM74.5 144.002V146.002H75.5V144.002H74.5ZM74.5 148.002V150.002H75.5V148.002H74.5ZM74.5 152.003V154.003H75.5V152.003H74.5ZM74.5 156.003V158.003H75.5V156.003H74.5ZM74.5 160.003V162.003H75.5V160.003H74.5ZM74.5 164.003V166.003H75.5V164.003H74.5ZM74.5 168.003V170.003H75.5V168.003H74.5ZM74.5 172.003V174.003H75.5V172.003H74.5ZM74.5 176.003V178.003H75.5V176.003H74.5ZM74.5 180.003V181.003H75.5V180.003H74.5Z" fill="black"/>
<path d="M303.646 129.646C303.451 129.842 303.451 130.158 303.646 130.354L306.828 133.536C307.024 133.731 307.34 133.731 307.536 133.536C307.731 133.34 307.731 133.024 307.536 132.828L304.707 130L307.536 127.172C307.731 126.976 307.731 126.66 307.536 126.464C307.34 126.269 307.024 126.269 306.828 126.464L303.646 129.646ZM544 129.5L304 129.5L304 130.5L544 130.5L544 129.5Z" fill="black"/>
<path d="M377.302 155V145.228H383.126V146.264H378.478V149.54H382.72V150.576H378.478V155H377.302ZM389.267 153.824H389.211C389.136 153.992 389.043 154.16 388.931 154.328C388.828 154.487 388.698 154.631 388.539 154.762C388.38 154.883 388.189 154.981 387.965 155.056C387.741 155.131 387.48 155.168 387.181 155.168C386.434 155.168 385.842 154.93 385.403 154.454C384.964 153.969 384.745 153.287 384.745 152.41V147.776H385.865V152.214C385.865 153.511 386.416 154.16 387.517 154.16C387.741 154.16 387.956 154.132 388.161 154.076C388.376 154.02 388.562 153.936 388.721 153.824C388.889 153.712 389.02 153.572 389.113 153.404C389.216 153.227 389.267 153.017 389.267 152.774V147.776H390.387V155H389.267V153.824ZM392.932 155V147.776H394.052V148.952H394.108C394.285 148.541 394.533 148.215 394.85 147.972C395.177 147.729 395.611 147.608 396.152 147.608C396.899 147.608 397.487 147.851 397.916 148.336C398.355 148.812 398.574 149.489 398.574 150.366V155H397.454V150.562C397.454 149.265 396.908 148.616 395.816 148.616C395.592 148.616 395.373 148.644 395.158 148.7C394.953 148.756 394.766 148.84 394.598 148.952C394.43 149.064 394.295 149.209 394.192 149.386C394.099 149.554 394.052 149.755 394.052 149.988V155H392.932ZM403.737 155.168C403.233 155.168 402.78 155.079 402.379 154.902C401.978 154.725 401.637 154.473 401.357 154.146C401.086 153.819 400.876 153.423 400.727 152.956C400.587 152.489 400.517 151.967 400.517 151.388C400.517 150.809 400.587 150.287 400.727 149.82C400.876 149.353 401.086 148.957 401.357 148.63C401.637 148.303 401.978 148.051 402.379 147.874C402.78 147.697 403.233 147.608 403.737 147.608C404.456 147.608 405.03 147.767 405.459 148.084C405.898 148.392 406.224 148.798 406.439 149.302L405.501 149.778C405.37 149.405 405.156 149.115 404.857 148.91C404.558 148.705 404.185 148.602 403.737 148.602C403.401 148.602 403.107 148.658 402.855 148.77C402.603 148.873 402.393 149.022 402.225 149.218C402.057 149.405 401.931 149.633 401.847 149.904C401.763 150.165 401.721 150.455 401.721 150.772V152.004C401.721 152.639 401.889 153.161 402.225 153.572C402.57 153.973 403.074 154.174 403.737 154.174C404.642 154.174 405.296 153.754 405.697 152.914L406.509 153.46C406.276 153.983 405.926 154.398 405.459 154.706C405.002 155.014 404.428 155.168 403.737 155.168ZM409.846 155C409.454 155 409.155 154.893 408.95 154.678C408.754 154.454 408.656 154.165 408.656 153.81V148.756H407.466V147.776H408.138C408.381 147.776 408.544 147.729 408.628 147.636C408.721 147.533 408.768 147.361 408.768 147.118V145.774H409.776V147.776H411.358V148.756H409.776V154.02H411.246V155H409.846ZM413.878 146.082C413.635 146.082 413.458 146.026 413.346 145.914C413.243 145.793 413.192 145.639 413.192 145.452V145.27C413.192 145.083 413.243 144.934 413.346 144.822C413.458 144.701 413.635 144.64 413.878 144.64C414.121 144.64 414.293 144.701 414.396 144.822C414.508 144.934 414.564 145.083 414.564 145.27V145.452C414.564 145.639 414.508 145.793 414.396 145.914C414.293 146.026 414.121 146.082 413.878 146.082ZM413.318 147.776H414.438V155H413.318V147.776ZM419.708 155.168C419.223 155.168 418.779 155.079 418.378 154.902C417.977 154.725 417.631 154.473 417.342 154.146C417.062 153.81 416.843 153.413 416.684 152.956C416.525 152.489 416.446 151.967 416.446 151.388C416.446 150.819 416.525 150.301 416.684 149.834C416.843 149.367 417.062 148.971 417.342 148.644C417.631 148.308 417.977 148.051 418.378 147.874C418.779 147.697 419.223 147.608 419.708 147.608C420.193 147.608 420.632 147.697 421.024 147.874C421.425 148.051 421.771 148.308 422.06 148.644C422.349 148.971 422.573 149.367 422.732 149.834C422.891 150.301 422.97 150.819 422.97 151.388C422.97 151.967 422.891 152.489 422.732 152.956C422.573 153.413 422.349 153.81 422.06 154.146C421.771 154.473 421.425 154.725 421.024 154.902C420.632 155.079 420.193 155.168 419.708 155.168ZM419.708 154.174C420.315 154.174 420.809 153.987 421.192 153.614C421.575 153.241 421.766 152.671 421.766 151.906V150.87C421.766 150.105 421.575 149.535 421.192 149.162C420.809 148.789 420.315 148.602 419.708 148.602C419.101 148.602 418.607 148.789 418.224 149.162C417.841 149.535 417.65 150.105 417.65 150.87V151.906C417.65 152.671 417.841 153.241 418.224 153.614C418.607 153.987 419.101 154.174 419.708 154.174ZM424.972 155V147.776H426.092V148.952H426.148C426.325 148.541 426.573 148.215 426.89 147.972C427.217 147.729 427.651 147.608 428.192 147.608C428.939 147.608 429.527 147.851 429.956 148.336C430.395 148.812 430.614 149.489 430.614 150.366V155H429.494V150.562C429.494 149.265 428.948 148.616 427.856 148.616C427.632 148.616 427.413 148.644 427.198 148.7C426.993 148.756 426.806 148.84 426.638 148.952C426.47 149.064 426.335 149.209 426.232 149.386C426.139 149.554 426.092 149.755 426.092 149.988V155H424.972ZM438.154 155L435.62 147.776H436.74L438 151.36L438.784 153.824H438.854L439.638 151.36L440.926 147.776H442.004L439.456 155H438.154ZM448.735 155C448.315 155 448.012 154.888 447.825 154.664C447.648 154.44 447.536 154.16 447.489 153.824H447.419C447.261 154.272 446.999 154.608 446.635 154.832C446.271 155.056 445.837 155.168 445.333 155.168C444.568 155.168 443.971 154.972 443.541 154.58C443.121 154.188 442.911 153.656 442.911 152.984C442.911 152.303 443.159 151.78 443.653 151.416C444.157 151.052 444.937 150.87 445.991 150.87H447.419V150.156C447.419 149.643 447.279 149.251 446.999 148.98C446.719 148.709 446.29 148.574 445.711 148.574C445.273 148.574 444.904 148.672 444.605 148.868C444.316 149.064 444.073 149.325 443.877 149.652L443.205 149.022C443.401 148.63 443.714 148.299 444.143 148.028C444.573 147.748 445.114 147.608 445.767 147.608C446.645 147.608 447.326 147.823 447.811 148.252C448.297 148.681 448.539 149.279 448.539 150.044V154.02H449.365V155H448.735ZM445.515 154.216C445.795 154.216 446.052 154.183 446.285 154.118C446.519 154.053 446.719 153.959 446.887 153.838C447.055 153.717 447.186 153.577 447.279 153.418C447.373 153.259 447.419 153.087 447.419 152.9V151.71H445.935C445.291 151.71 444.82 151.803 444.521 151.99C444.232 152.177 444.087 152.447 444.087 152.802V153.096C444.087 153.451 444.213 153.726 444.465 153.922C444.727 154.118 445.077 154.216 445.515 154.216ZM452.314 155C451.922 155 451.623 154.893 451.418 154.678C451.222 154.454 451.124 154.174 451.124 153.838V144.64H452.244V154.02H453.308V155H452.314ZM459.55 153.824H459.494C459.42 153.992 459.326 154.16 459.214 154.328C459.112 154.487 458.981 154.631 458.822 154.762C458.664 154.883 458.472 154.981 458.248 155.056C458.024 155.131 457.763 155.168 457.464 155.168C456.718 155.168 456.125 154.93 455.686 154.454C455.248 153.969 455.028 153.287 455.028 152.41V147.776H456.148V152.214C456.148 153.511 456.699 154.16 457.8 154.16C458.024 154.16 458.239 154.132 458.444 154.076C458.659 154.02 458.846 153.936 459.004 153.824C459.172 153.712 459.303 153.572 459.396 153.404C459.499 153.227 459.55 153.017 459.55 152.774V147.776H460.67V155H459.55V153.824ZM465.931 155.168C465.437 155.168 464.989 155.079 464.587 154.902C464.195 154.725 463.855 154.473 463.565 154.146C463.285 153.81 463.066 153.413 462.907 152.956C462.758 152.489 462.683 151.967 462.683 151.388C462.683 150.819 462.758 150.301 462.907 149.834C463.066 149.367 463.285 148.971 463.565 148.644C463.855 148.308 464.195 148.051 464.587 147.874C464.989 147.697 465.437 147.608 465.931 147.608C466.417 147.608 466.851 147.697 467.233 147.874C467.616 148.051 467.943 148.299 468.213 148.616C468.484 148.924 468.689 149.293 468.829 149.722C468.979 150.151 469.053 150.623 469.053 151.136V151.668H463.859V152.004C463.859 152.312 463.906 152.601 463.999 152.872C464.102 153.133 464.242 153.362 464.419 153.558C464.606 153.754 464.83 153.908 465.091 154.02C465.362 154.132 465.665 154.188 466.001 154.188C466.459 154.188 466.855 154.081 467.191 153.866C467.537 153.651 467.803 153.343 467.989 152.942L468.787 153.516C468.554 154.011 468.19 154.412 467.695 154.72C467.201 155.019 466.613 155.168 465.931 155.168ZM465.931 148.546C465.623 148.546 465.343 148.602 465.091 148.714C464.839 148.817 464.62 148.966 464.433 149.162C464.256 149.358 464.116 149.591 464.013 149.862C463.911 150.123 463.859 150.413 463.859 150.73V150.828H467.849V150.674C467.849 150.03 467.672 149.517 467.317 149.134C466.972 148.742 466.51 148.546 465.931 148.546Z" fill="black"/>
<path d="M541.472 109.72C541.462 109.792 541.431 109.855 541.379 109.907C541.327 109.958 541.254 109.99 541.161 110C541.057 110 540.969 109.948 540.896 109.844C540.865 109.772 540.377 108.495 539.433 106.014C538.488 103.533 538.011 102.266 538 102.215C537.99 102.163 538.462 100.896 539.417 98.4152C540.372 95.9343 540.865 94.6574 540.896 94.5848C540.928 94.5329 540.979 94.4862 541.052 94.4446L541.099 94.4291C541.13 94.4291 541.151 94.4291 541.161 94.4291C541.348 94.4291 541.452 94.5225 541.472 94.7093C541.472 94.7612 541.005 96.0225 540.071 98.4931C539.126 100.953 538.654 102.194 538.654 102.215C538.654 102.235 539.126 103.476 540.071 105.936C541.005 108.407 541.472 109.668 541.472 109.72Z" fill="black"/>
<path d="M547.639 96.4222C547.618 96.4118 547.592 96.3962 547.561 96.3755C547.53 96.3547 547.509 96.3339 547.499 96.3132C547.488 96.2924 547.457 96.282 547.405 96.282C547.353 96.282 547.296 96.2665 547.234 96.2353C547.172 96.2042 547.089 96.199 546.985 96.2198C546.881 96.2405 546.757 96.2353 546.611 96.2042C546.466 96.173 546.284 96.1679 546.066 96.1886H545.646V95.4724H545.833C546.082 95.5035 546.938 95.5191 548.402 95.5191C549.866 95.5191 550.722 95.5035 550.971 95.4724H551.158V96.1886H550.738C550.115 96.1886 549.725 96.199 549.57 96.2198C549.414 96.2405 549.284 96.308 549.18 96.4222L549.165 99.7699C549.165 102.002 549.17 103.118 549.18 103.118C549.222 103.107 549.274 103.092 549.336 103.071C549.398 103.05 549.528 102.988 549.725 102.884C549.923 102.78 550.094 102.651 550.239 102.495C550.385 102.339 550.535 102.111 550.691 101.81C550.847 101.509 550.955 101.156 551.018 100.751C551.049 100.533 551.075 100.154 551.096 99.6142C551.116 99.0744 551.173 98.68 551.267 98.4308C551.412 97.9845 551.656 97.7198 551.999 97.6367C552.071 97.616 552.336 97.6056 552.793 97.6056H553.478L553.587 97.699V98.0883C553.504 98.1506 553.431 98.1817 553.369 98.1817C553.078 98.2232 552.886 98.3945 552.793 98.6955C552.699 98.9966 552.632 99.4326 552.59 100.003C552.549 100.574 552.476 101.016 552.372 101.327C551.905 102.677 550.904 103.476 549.367 103.725L549.165 103.756V104.457L549.18 105.157C549.253 105.23 549.315 105.277 549.367 105.298C549.419 105.318 549.549 105.339 549.757 105.36C549.964 105.381 550.291 105.391 550.738 105.391H551.158V106.107H550.971C550.722 106.076 549.866 106.061 548.402 106.061C546.938 106.061 546.082 106.076 545.833 106.107H545.646V105.391H546.066C546.274 105.391 546.45 105.391 546.596 105.391C546.741 105.391 546.871 105.386 546.985 105.375C547.099 105.365 547.182 105.36 547.234 105.36C547.286 105.36 547.343 105.344 547.405 105.313C547.468 105.282 547.499 105.266 547.499 105.266C547.499 105.266 547.52 105.251 547.561 105.22C547.603 105.189 547.629 105.168 547.639 105.157V103.756C545.417 103.476 544.26 102.152 544.167 99.7855C544.146 98.7786 543.897 98.244 543.419 98.1817C543.274 98.1817 543.201 98.0935 543.201 97.917C543.201 97.7613 543.222 97.673 543.263 97.6523C543.305 97.6315 543.445 97.616 543.684 97.6056H544.011H544.213C544.525 97.6056 544.738 97.6211 544.852 97.6523C544.966 97.6834 545.085 97.7613 545.21 97.8858C545.355 98.0312 545.459 98.2128 545.521 98.4308C545.604 98.6488 545.651 99.0277 545.661 99.5675C545.672 100.107 545.739 100.647 545.864 101.187C545.988 101.727 546.227 102.173 546.58 102.526C546.736 102.671 546.897 102.791 547.063 102.884C547.229 102.978 547.369 103.045 547.483 103.087L547.623 103.118C547.634 103.118 547.639 102.002 547.639 99.7699V96.4222Z" fill="black"/>
<path d="M555.922 102.215C555.922 101.498 555.974 100.818 556.078 100.175C556.181 99.5311 556.301 98.9758 556.436 98.5087C556.571 98.0415 556.763 97.5848 557.012 97.1384C557.261 96.692 557.458 96.3443 557.604 96.0952C557.749 95.846 557.967 95.5761 558.258 95.2855C558.548 94.9948 558.719 94.8183 558.771 94.7561C558.823 94.6938 558.953 94.5848 559.161 94.4291H559.363H559.425C559.571 94.4291 559.643 94.4758 559.643 94.5692C559.643 94.6003 559.555 94.7093 559.379 94.8962C559.202 95.083 558.989 95.3581 558.74 95.7215C558.491 96.0848 558.237 96.5311 557.977 97.0606C557.718 97.59 557.5 98.3062 557.323 99.2093C557.147 100.112 557.059 101.114 557.059 102.215C557.059 103.315 557.147 104.311 557.323 105.204C557.5 106.097 557.713 106.818 557.962 107.369C558.211 107.919 558.465 108.365 558.725 108.708C558.984 109.05 559.202 109.325 559.379 109.533C559.555 109.74 559.643 109.849 559.643 109.86C559.643 109.953 559.565 110 559.41 110H559.363H559.161L558.725 109.626C557.749 108.744 557.038 107.644 556.591 106.325C556.145 105.007 555.922 103.637 555.922 102.215Z" fill="black"/>
<path d="M561.062 102.993C561.062 101.934 561.264 100.819 561.669 99.6455C562.074 98.4725 562.624 97.4604 563.319 96.6092C564.015 95.758 564.736 95.2701 565.484 95.1455C565.494 95.1455 565.536 95.1455 565.608 95.1455C565.681 95.1455 565.743 95.1403 565.795 95.13C566.356 95.1715 566.792 95.4258 567.103 95.8929C567.508 96.5158 567.71 97.3514 567.71 98.3999C567.71 99.5936 567.477 100.808 567.01 102.043C566.542 103.279 565.946 104.291 565.219 105.08C564.492 105.869 563.797 106.263 563.132 106.263H563.023C562.65 106.263 562.328 106.159 562.058 105.952C561.788 105.744 561.586 105.469 561.451 105.127C561.316 104.784 561.217 104.436 561.155 104.083C561.093 103.73 561.062 103.367 561.062 102.993ZM566.48 97.2943C566.48 96.2355 566.205 95.7061 565.655 95.7061C565.281 95.7061 564.918 95.9397 564.565 96.4068C564.212 96.8739 563.921 97.4033 563.693 97.995C563.465 98.5867 563.288 99.1057 563.164 99.5521C563.039 99.9985 562.972 100.258 562.961 100.331C563.47 100.341 563.973 100.346 564.472 100.346L565.982 100.331C565.992 100.32 566.034 100.149 566.107 99.8168C566.179 99.4846 566.262 99.0694 566.356 98.5711C566.449 98.0729 566.491 97.6473 566.48 97.2943ZM562.276 104.052C562.276 105.152 562.551 105.703 563.101 105.703C563.257 105.703 563.423 105.651 563.6 105.547C563.776 105.443 563.989 105.246 564.238 104.955C564.487 104.665 564.736 104.213 564.985 103.601C565.235 102.988 565.484 102.23 565.733 101.327L565.811 101.062H562.774C562.774 101.094 562.728 101.291 562.634 101.654C562.541 102.018 562.458 102.422 562.385 102.869C562.312 103.315 562.276 103.71 562.276 104.052Z" fill="black"/>
<path d="M568.051 105.284C568.058 105.24 568.069 105.181 568.084 105.107C568.098 105.034 568.143 104.895 568.216 104.689C568.289 104.484 568.363 104.311 568.436 104.172C568.509 104.032 568.631 103.897 568.799 103.764C568.968 103.632 569.137 103.57 569.306 103.577C569.57 103.577 569.79 103.643 569.966 103.775C570.142 103.908 570.253 104.032 570.297 104.15C570.341 104.267 570.363 104.344 570.363 104.381C570.363 104.396 570.366 104.403 570.374 104.403L570.495 104.282C570.942 103.812 571.452 103.577 572.025 103.577C572.421 103.577 572.74 103.676 572.983 103.875C573.225 104.073 573.35 104.363 573.357 104.744C573.364 105.126 573.225 105.702 572.939 106.473C572.652 107.243 572.513 107.709 572.52 107.871C572.52 108.061 572.583 108.157 572.707 108.157C572.751 108.157 572.785 108.153 572.807 108.146C573.019 108.109 573.21 107.97 573.379 107.728C573.548 107.485 573.676 107.192 573.764 106.847C573.779 106.788 573.852 106.759 573.984 106.759C574.131 106.759 574.205 106.788 574.205 106.847C574.205 106.854 574.19 106.909 574.161 107.012C574.102 107.225 574.021 107.434 573.918 107.639C573.816 107.845 573.647 108.05 573.412 108.256C573.177 108.461 572.924 108.561 572.652 108.553C572.307 108.553 572.058 108.454 571.904 108.256C571.75 108.058 571.673 107.852 571.673 107.639C571.673 107.5 571.805 107.06 572.069 106.318C572.333 105.577 572.469 105.019 572.476 104.645C572.476 104.212 572.315 103.996 571.992 103.996H571.937C571.306 103.996 570.774 104.366 570.341 105.107L570.264 105.24L569.9 106.715C569.658 107.676 569.519 108.194 569.482 108.267C569.386 108.465 569.229 108.564 569.009 108.564C568.913 108.564 568.836 108.542 568.777 108.498C568.719 108.454 568.678 108.41 568.656 108.366C568.634 108.322 568.627 108.285 568.634 108.256C568.634 108.161 568.774 107.562 569.053 106.462C569.331 105.361 569.478 104.763 569.493 104.667C569.5 104.63 569.504 104.546 569.504 104.414C569.504 104.128 569.416 103.985 569.24 103.985C568.961 103.985 568.73 104.352 568.546 105.085C568.502 105.232 568.48 105.309 568.48 105.317C568.465 105.361 568.396 105.383 568.271 105.383H568.117C568.073 105.339 568.051 105.306 568.051 105.284Z" fill="black"/>
<path d="M576.137 94.4446L576.2 94.4291C576.252 94.4291 576.304 94.4291 576.355 94.4291H576.542L576.978 94.8028C577.954 95.6851 578.665 96.7855 579.111 98.1038C579.558 99.4221 579.781 100.792 579.781 102.215C579.781 102.92 579.729 103.6 579.625 104.254C579.522 104.908 579.402 105.464 579.267 105.92C579.132 106.377 578.94 106.834 578.691 107.291C578.442 107.747 578.245 108.095 578.099 108.334C577.954 108.573 577.741 108.837 577.461 109.128C577.181 109.419 577.015 109.59 576.963 109.642C576.911 109.694 576.791 109.792 576.605 109.938C576.573 109.969 576.553 109.99 576.542 110H576.355C576.272 110 576.215 110 576.184 110C576.153 110 576.127 109.984 576.106 109.953C576.086 109.922 576.07 109.875 576.06 109.813C576.07 109.803 576.127 109.735 576.231 109.611C577.84 107.939 578.644 105.474 578.644 102.215C578.644 98.955 577.84 96.4896 576.231 94.8183C576.127 94.6938 576.07 94.6263 576.06 94.6159C576.06 94.5329 576.086 94.4758 576.137 94.4446Z" fill="black"/>
<path d="M583.426 109.984H583.395C583.27 109.984 583.177 109.912 583.114 109.766V102.199L583.13 94.6314C583.234 94.4965 583.332 94.429 583.426 94.429C583.561 94.429 583.664 94.5069 583.737 94.6626V109.766C583.654 109.912 583.561 109.984 583.457 109.984H583.426Z" fill="black"/>
<path d="M589.14 96.1886C588.787 96.1886 588.6 96.1679 588.579 96.1263C588.569 96.1056 588.564 96.064 588.564 96.0018C588.564 95.7526 588.621 95.5813 588.735 95.4879C588.756 95.4775 588.844 95.4724 589 95.4724C589.425 95.4931 590.131 95.5035 591.117 95.5035C591.47 95.5035 591.797 95.5035 592.098 95.5035C592.399 95.5035 592.633 95.4983 592.799 95.4879C592.965 95.4775 593.069 95.4775 593.11 95.4879C593.276 95.4879 593.359 95.5398 593.359 95.6436C593.359 95.6644 593.349 95.7371 593.328 95.8616C593.276 96.0381 593.225 96.1419 593.173 96.173H593.141C593.121 96.173 593.095 96.173 593.064 96.173C593.032 96.173 592.996 96.173 592.955 96.173C592.913 96.173 592.866 96.1782 592.814 96.1886C592.763 96.199 592.716 96.199 592.674 96.1886C592.269 96.199 592.01 96.2146 591.896 96.2353C591.782 96.2561 591.688 96.3132 591.616 96.4066C591.584 96.4481 591.418 97.0865 591.117 98.3218C591.045 98.5917 590.967 98.8928 590.884 99.2249C590.801 99.5571 590.738 99.8011 590.697 99.9568L590.635 100.19C590.635 100.211 591.387 100.221 592.892 100.221H595.15L595.166 100.175C595.166 100.144 595.327 99.5052 595.648 98.2595C595.939 97.0658 596.084 96.4274 596.084 96.3443C596.084 96.2613 595.789 96.2094 595.197 96.1886C594.958 96.1886 594.802 96.1782 594.73 96.1575C594.657 96.1367 594.621 96.09 594.621 96.0173C594.621 95.9966 594.631 95.9343 594.652 95.8305C594.693 95.654 594.725 95.5554 594.745 95.5346C594.766 95.5139 594.849 95.4983 594.994 95.4879C595.046 95.4879 595.264 95.4931 595.648 95.5035C596.032 95.5139 596.52 95.5191 597.112 95.5191C597.756 95.5191 598.249 95.5139 598.591 95.5035C598.934 95.4931 599.121 95.4879 599.152 95.4879C599.328 95.4879 599.417 95.5398 599.417 95.6436C599.417 95.9239 599.354 96.1004 599.23 96.173H599.199C599.178 96.173 599.152 96.173 599.121 96.173C599.09 96.173 599.053 96.173 599.012 96.173C598.97 96.173 598.923 96.1782 598.872 96.1886C598.82 96.199 598.773 96.199 598.731 96.1886C598.327 96.199 598.067 96.2146 597.953 96.2353C597.839 96.2561 597.745 96.3132 597.673 96.4066C597.641 96.4585 597.268 97.9274 596.552 100.813C595.835 103.699 595.472 105.163 595.462 105.204C595.462 105.277 595.482 105.313 595.524 105.313C595.607 105.344 595.887 105.37 596.365 105.391H596.847C596.91 105.474 596.941 105.521 596.941 105.531C596.941 105.542 596.925 105.635 596.894 105.811C596.853 105.946 596.801 106.045 596.738 106.107H596.505C596.121 106.087 595.425 106.076 594.418 106.076C594.065 106.076 593.738 106.076 593.437 106.076C593.136 106.076 592.898 106.076 592.721 106.076C592.545 106.076 592.436 106.081 592.394 106.092C592.218 106.092 592.129 106.045 592.129 105.952C592.129 105.9 592.145 105.827 592.176 105.734C592.228 105.536 592.28 105.427 592.332 105.407C592.373 105.396 592.451 105.391 592.565 105.391H592.659C592.939 105.391 593.25 105.375 593.593 105.344C593.655 105.334 593.697 105.329 593.718 105.329C593.738 105.329 593.769 105.303 593.811 105.251C593.853 105.199 593.884 105.152 593.904 105.111C593.925 105.069 593.956 104.976 593.998 104.83C594.039 104.685 594.076 104.54 594.107 104.394C594.138 104.249 594.195 104.026 594.278 103.725C594.351 103.434 594.408 103.201 594.449 103.024C594.792 101.654 594.963 100.964 594.963 100.953C594.963 100.943 594.211 100.938 592.705 100.938H590.448L589.934 103.04C589.581 104.431 589.404 105.152 589.404 105.204C589.404 105.277 589.446 105.324 589.529 105.344C589.612 105.365 589.872 105.381 590.308 105.391H590.79C590.853 105.474 590.884 105.521 590.884 105.531C590.884 105.542 590.868 105.635 590.837 105.811C590.795 105.946 590.744 106.045 590.681 106.107H590.448C590.064 106.087 589.368 106.076 588.361 106.076C588.008 106.076 587.681 106.076 587.38 106.076C587.079 106.076 586.84 106.076 586.664 106.076C586.487 106.076 586.378 106.081 586.337 106.092C586.161 106.092 586.072 106.045 586.072 105.952C586.072 105.931 586.088 105.858 586.119 105.734C586.171 105.536 586.223 105.427 586.275 105.407C586.316 105.396 586.394 105.391 586.508 105.391H586.602C586.882 105.391 587.193 105.375 587.536 105.344C587.681 105.313 587.78 105.251 587.832 105.157C587.863 105.116 588.237 103.673 588.953 100.829C589.669 97.9845 590.027 96.4845 590.027 96.3288C590.027 96.2561 589.731 96.2094 589.14 96.1886Z" fill="black"/>
<path d="M591.886 94.0867L594.019 92.0001L594.144 92.1247C595.493 93.4119 596.168 94.0659 596.168 94.0867L595.763 94.5382C595.742 94.5278 595.441 94.2683 594.86 93.7597L594.035 93.0434L593.178 93.7752C593.043 93.8894 592.908 94.0088 592.773 94.1334C592.638 94.2579 592.529 94.3565 592.446 94.4292L592.322 94.5226C592.301 94.5434 592.223 94.4707 592.088 94.3046L591.886 94.0867Z" fill="black"/>
<path d="M601.581 109.984H601.55C601.425 109.984 601.332 109.912 601.27 109.766V102.199L601.285 94.6314C601.389 94.4965 601.488 94.429 601.581 94.429C601.716 94.429 601.82 94.5069 601.892 94.6626V109.766C601.809 109.912 601.716 109.984 601.612 109.984H601.581Z" fill="black"/>
<path d="M609.039 96.4222C609.019 96.4118 608.993 96.3962 608.961 96.3755C608.93 96.3547 608.91 96.3339 608.899 96.3132C608.889 96.2924 608.858 96.282 608.806 96.282C608.754 96.282 608.697 96.2665 608.634 96.2353C608.572 96.2042 608.489 96.199 608.385 96.2198C608.281 96.2405 608.157 96.2353 608.012 96.2042C607.866 96.173 607.685 96.1679 607.467 96.1886H607.046V95.4724H607.233C607.482 95.5035 608.339 95.5191 609.802 95.5191C611.266 95.5191 612.122 95.5035 612.371 95.4724H612.558V96.1886H612.138C611.515 96.1886 611.126 96.199 610.97 96.2198C610.814 96.2405 610.685 96.308 610.581 96.4222L610.565 99.7699C610.565 102.002 610.57 103.118 610.581 103.118C610.622 103.107 610.674 103.092 610.737 103.071C610.799 103.05 610.929 102.988 611.126 102.884C611.323 102.78 611.494 102.651 611.64 102.495C611.785 102.339 611.935 102.111 612.091 101.81C612.247 101.509 612.356 101.156 612.418 100.751C612.449 100.533 612.475 100.154 612.496 99.6142C612.517 99.0744 612.574 98.68 612.667 98.4308C612.813 97.9845 613.057 97.7198 613.399 97.6367C613.472 97.616 613.737 97.6056 614.193 97.6056H614.878L614.987 97.699V98.0883C614.904 98.1506 614.832 98.1817 614.769 98.1817C614.479 98.2232 614.287 98.3945 614.193 98.6955C614.1 98.9966 614.032 99.4326 613.991 100.003C613.949 100.574 613.877 101.016 613.773 101.327C613.306 102.677 612.304 103.476 610.768 103.725L610.565 103.756V104.457L610.581 105.157C610.653 105.23 610.716 105.277 610.768 105.298C610.82 105.318 610.949 105.339 611.157 105.36C611.365 105.381 611.692 105.391 612.138 105.391H612.558V106.107H612.371C612.122 106.076 611.266 106.061 609.802 106.061C608.339 106.061 607.482 106.076 607.233 106.107H607.046V105.391H607.467C607.674 105.391 607.851 105.391 607.996 105.391C608.141 105.391 608.271 105.386 608.385 105.375C608.499 105.365 608.583 105.36 608.634 105.36C608.686 105.36 608.743 105.344 608.806 105.313C608.868 105.282 608.899 105.266 608.899 105.266C608.899 105.266 608.92 105.251 608.961 105.22C609.003 105.189 609.029 105.168 609.039 105.157V103.756C606.818 103.476 605.66 102.152 605.567 99.7855C605.546 98.7786 605.297 98.244 604.82 98.1817C604.674 98.1817 604.602 98.0935 604.602 97.917C604.602 97.7613 604.622 97.673 604.664 97.6523C604.705 97.6315 604.846 97.616 605.084 97.6056H605.411H605.614C605.925 97.6056 606.138 97.6211 606.252 97.6523C606.366 97.6834 606.486 97.7613 606.61 97.8858C606.756 98.0312 606.859 98.2128 606.922 98.4308C607.005 98.6488 607.051 99.0277 607.062 99.5675C607.072 100.107 607.14 100.647 607.264 101.187C607.389 101.727 607.628 102.173 607.98 102.526C608.136 102.671 608.297 102.791 608.463 102.884C608.629 102.978 608.769 103.045 608.884 103.087L609.024 103.118C609.034 103.118 609.039 102.002 609.039 99.7699V96.4222Z" fill="black"/>
<path d="M617.323 102.215C617.323 101.498 617.375 100.818 617.479 100.175C617.583 99.5311 617.702 98.9758 617.837 98.5087C617.972 98.0415 618.164 97.5848 618.413 97.1384C618.662 96.692 618.86 96.3443 619.005 96.0952C619.15 95.846 619.368 95.5761 619.659 95.2855C619.95 94.9948 620.121 94.8183 620.173 94.7561C620.225 94.6938 620.354 94.5848 620.562 94.4291H620.764H620.827C620.972 94.4291 621.045 94.4758 621.045 94.5692C621.045 94.6003 620.956 94.7093 620.78 94.8962C620.604 95.083 620.391 95.3581 620.142 95.7215C619.892 96.0848 619.638 96.5311 619.379 97.0606C619.119 97.59 618.901 98.3062 618.725 99.2093C618.548 100.112 618.46 101.114 618.46 102.215C618.46 103.315 618.548 104.311 618.725 105.204C618.901 106.097 619.114 106.818 619.363 107.369C619.612 107.919 619.866 108.365 620.126 108.708C620.386 109.05 620.604 109.325 620.78 109.533C620.956 109.74 621.045 109.849 621.045 109.86C621.045 109.953 620.967 110 620.811 110H620.764H620.562L620.126 109.626C619.15 108.744 618.439 107.644 617.993 106.325C617.546 105.007 617.323 103.637 617.323 102.215Z" fill="black"/>
<path d="M622.462 102.993C622.462 101.934 622.664 100.819 623.069 99.6455C623.474 98.4725 624.024 97.4604 624.72 96.6092C625.415 95.758 626.137 95.2701 626.884 95.1455C626.894 95.1455 626.936 95.1455 627.009 95.1455C627.081 95.1455 627.144 95.1403 627.195 95.13C627.756 95.1715 628.192 95.4258 628.503 95.8929C628.908 96.5158 629.111 97.3514 629.111 98.3999C629.111 99.5936 628.877 100.808 628.41 102.043C627.943 103.279 627.346 104.291 626.619 105.08C625.893 105.869 625.197 106.263 624.533 106.263H624.424C624.05 106.263 623.728 106.159 623.458 105.952C623.189 105.744 622.986 105.469 622.851 105.127C622.716 104.784 622.618 104.436 622.555 104.083C622.493 103.73 622.462 103.367 622.462 102.993ZM627.881 97.2943C627.881 96.2355 627.606 95.7061 627.055 95.7061C626.682 95.7061 626.318 95.9397 625.965 96.4068C625.612 96.8739 625.322 97.4033 625.093 97.995C624.865 98.5867 624.689 99.1057 624.564 99.5521C624.439 99.9985 624.372 100.258 624.362 100.331C624.87 100.341 625.374 100.346 625.872 100.346L627.382 100.331C627.393 100.32 627.434 100.149 627.507 99.8168C627.58 99.4846 627.663 99.0694 627.756 98.5711C627.849 98.0729 627.891 97.6473 627.881 97.2943ZM623.676 104.052C623.676 105.152 623.952 105.703 624.502 105.703C624.657 105.703 624.824 105.651 625 105.547C625.176 105.443 625.389 105.246 625.638 104.955C625.888 104.665 626.137 104.213 626.386 103.601C626.635 102.988 626.884 102.23 627.133 101.327L627.211 101.062H624.175C624.175 101.094 624.128 101.291 624.035 101.654C623.941 102.018 623.858 102.422 623.785 102.869C623.713 103.315 623.676 103.71 623.676 104.052Z" fill="black"/>
<path d="M629.451 105.284C629.459 105.24 629.47 105.181 629.484 105.107C629.499 105.034 629.543 104.895 629.616 104.689C629.69 104.484 629.763 104.311 629.836 104.172C629.91 104.032 630.031 103.897 630.2 103.764C630.369 103.632 630.537 103.57 630.706 103.577C630.97 103.577 631.191 103.643 631.367 103.775C631.543 103.908 631.653 104.032 631.697 104.15C631.741 104.267 631.763 104.344 631.763 104.381C631.763 104.396 631.767 104.403 631.774 104.403L631.895 104.282C632.343 103.812 632.853 103.577 633.425 103.577C633.822 103.577 634.141 103.676 634.383 103.875C634.625 104.073 634.75 104.363 634.757 104.744C634.765 105.126 634.625 105.702 634.339 106.473C634.053 107.243 633.913 107.709 633.921 107.871C633.921 108.061 633.983 108.157 634.108 108.157C634.152 108.157 634.185 108.153 634.207 108.146C634.42 108.109 634.611 107.97 634.779 107.728C634.948 107.485 635.077 107.192 635.165 106.847C635.179 106.788 635.253 106.759 635.385 106.759C635.532 106.759 635.605 106.788 635.605 106.847C635.605 106.854 635.59 106.909 635.561 107.012C635.502 107.225 635.422 107.434 635.319 107.639C635.216 107.845 635.047 108.05 634.812 108.256C634.578 108.461 634.324 108.561 634.053 108.553C633.708 108.553 633.458 108.454 633.304 108.256C633.15 108.058 633.073 107.852 633.073 107.639C633.073 107.5 633.205 107.06 633.469 106.318C633.734 105.577 633.869 105.019 633.877 104.645C633.877 104.212 633.715 103.996 633.392 103.996H633.337C632.706 103.996 632.174 104.366 631.741 105.107L631.664 105.24L631.301 106.715C631.058 107.676 630.919 108.194 630.882 108.267C630.787 108.465 630.629 108.564 630.409 108.564C630.314 108.564 630.236 108.542 630.178 108.498C630.119 108.454 630.079 108.41 630.057 108.366C630.035 108.322 630.027 108.285 630.035 108.256C630.035 108.161 630.174 107.562 630.453 106.462C630.732 105.361 630.879 104.763 630.893 104.667C630.901 104.63 630.904 104.546 630.904 104.414C630.904 104.128 630.816 103.985 630.64 103.985C630.361 103.985 630.13 104.352 629.947 105.085C629.903 105.232 629.881 105.309 629.881 105.317C629.866 105.361 629.796 105.383 629.671 105.383H629.517C629.473 105.339 629.451 105.306 629.451 105.284Z" fill="black"/>
<path d="M637.537 94.4446L637.599 94.4291C637.651 94.4291 637.703 94.4291 637.755 94.4291H637.942L638.378 94.8028C639.353 95.6851 640.065 96.7855 640.511 98.1038C640.957 99.4221 641.18 100.792 641.18 102.215C641.18 102.92 641.129 103.6 641.025 104.254C640.921 104.908 640.802 105.464 640.667 105.92C640.532 106.377 640.34 106.834 640.09 107.291C639.841 107.747 639.644 108.095 639.499 108.334C639.353 108.573 639.141 108.837 638.86 109.128C638.58 109.419 638.414 109.59 638.362 109.642C638.31 109.694 638.191 109.792 638.004 109.938C637.973 109.969 637.952 109.99 637.942 110H637.755C637.672 110 637.615 110 637.584 110C637.552 110 637.526 109.984 637.506 109.953C637.485 109.922 637.469 109.875 637.459 109.813C637.469 109.803 637.526 109.735 637.63 109.611C639.239 107.939 640.044 105.474 640.044 102.215C640.044 98.955 639.239 96.4896 637.63 94.8183C637.526 94.6938 637.469 94.6263 637.459 94.6159C637.459 94.5329 637.485 94.4758 637.537 94.4446Z" fill="black"/>
<path d="M643.518 94.7093C643.528 94.6367 643.559 94.5744 643.611 94.5225C643.663 94.4706 643.736 94.4394 643.829 94.4291C643.933 94.4291 644.021 94.481 644.094 94.5848C644.125 94.6574 644.613 95.9343 645.557 98.4152C646.502 100.896 646.98 102.163 646.99 102.215C647 102.266 646.528 103.533 645.573 106.014C644.618 108.495 644.125 109.772 644.094 109.844C644.021 109.948 643.933 110 643.829 110C643.746 110 643.678 109.974 643.627 109.922C643.575 109.87 643.538 109.803 643.518 109.72C643.518 109.668 643.985 108.407 644.919 105.936C645.864 103.476 646.336 102.235 646.336 102.215C646.336 102.194 645.864 100.953 644.919 98.4931C643.985 96.0225 643.518 94.7612 643.518 94.7093Z" fill="black"/>
<path d="M199 104.956C199 103.616 199.256 102.203 199.769 100.717C200.282 99.2322 200.978 97.9507 201.859 96.8729C202.739 95.7951 203.653 95.1773 204.599 95.0196C204.612 95.0196 204.665 95.0196 204.757 95.0196C204.849 95.0196 204.928 95.013 204.994 94.9999C205.703 95.0525 206.255 95.3745 206.65 95.966C207.162 96.7546 207.419 97.8127 207.419 99.1402C207.419 100.652 207.123 102.19 206.531 103.754C205.94 105.318 205.184 106.599 204.264 107.598C203.344 108.597 202.463 109.097 201.622 109.097H201.484C201.011 109.097 200.604 108.965 200.262 108.702C199.92 108.439 199.664 108.091 199.493 107.657C199.322 107.224 199.197 106.783 199.118 106.336C199.039 105.89 199 105.43 199 104.956ZM205.861 97.7404C205.861 96.3997 205.513 95.7294 204.816 95.7294C204.343 95.7294 203.883 96.0251 203.436 96.6166C202.989 97.2081 202.621 97.8784 202.332 98.6276C202.043 99.3768 201.819 100.034 201.662 100.599C201.504 101.164 201.418 101.493 201.405 101.585C202.049 101.598 202.687 101.605 203.318 101.605L205.23 101.585C205.243 101.572 205.296 101.355 205.388 100.934C205.48 100.514 205.585 99.988 205.703 99.3571C205.822 98.7262 205.874 98.1873 205.861 97.7404ZM200.538 106.297C200.538 107.69 200.886 108.387 201.583 108.387C201.78 108.387 201.99 108.321 202.214 108.19C202.437 108.058 202.707 107.809 203.022 107.441C203.337 107.073 203.653 106.501 203.968 105.725C204.284 104.95 204.599 103.99 204.915 102.847L205.013 102.512H201.169C201.169 102.551 201.11 102.801 200.991 103.261C200.873 103.721 200.768 104.233 200.676 104.799C200.584 105.364 200.538 105.863 200.538 106.297Z" fill="black"/>
<path d="M207.85 107.856C207.859 107.801 207.873 107.726 207.891 107.633C207.91 107.54 207.966 107.364 208.059 107.104C208.152 106.844 208.245 106.625 208.337 106.449C208.43 106.272 208.584 106.1 208.797 105.933C209.011 105.766 209.225 105.687 209.439 105.696C209.773 105.696 210.052 105.779 210.275 105.947C210.498 106.114 210.637 106.272 210.693 106.421C210.749 106.569 210.777 106.667 210.777 106.713C210.777 106.732 210.781 106.741 210.791 106.741L210.944 106.588C211.511 105.993 212.157 105.696 212.882 105.696C213.383 105.696 213.788 105.821 214.094 106.072C214.401 106.323 214.559 106.69 214.568 107.173C214.578 107.657 214.401 108.386 214.039 109.362C213.676 110.338 213.5 110.928 213.509 111.132C213.509 111.374 213.588 111.495 213.746 111.495C213.802 111.495 213.843 111.49 213.871 111.481C214.141 111.434 214.382 111.258 214.596 110.951C214.81 110.644 214.972 110.273 215.084 109.836C215.103 109.761 215.195 109.724 215.363 109.724C215.549 109.724 215.642 109.761 215.642 109.836C215.642 109.845 215.623 109.915 215.586 110.045C215.511 110.314 215.409 110.579 215.279 110.839C215.149 111.1 214.935 111.36 214.638 111.62C214.341 111.88 214.02 112.006 213.676 111.996C213.239 111.996 212.923 111.871 212.728 111.62C212.533 111.369 212.436 111.109 212.436 110.839C212.436 110.663 212.603 110.105 212.937 109.167C213.272 108.228 213.444 107.522 213.453 107.048C213.453 106.5 213.249 106.226 212.84 106.226H212.77C211.971 106.226 211.297 106.695 210.749 107.633L210.651 107.801L210.191 109.668C209.885 110.886 209.708 111.541 209.662 111.634C209.541 111.885 209.341 112.01 209.062 112.01C208.942 112.01 208.844 111.982 208.77 111.927C208.695 111.871 208.644 111.815 208.616 111.759C208.588 111.704 208.579 111.657 208.588 111.62C208.588 111.499 208.765 110.742 209.118 109.348C209.471 107.954 209.657 107.197 209.676 107.076C209.685 107.029 209.69 106.922 209.69 106.755C209.69 106.393 209.578 106.212 209.355 106.212C209.002 106.212 208.709 106.676 208.477 107.606C208.421 107.791 208.393 107.889 208.393 107.898C208.375 107.954 208.286 107.982 208.128 107.982H207.933C207.877 107.926 207.85 107.884 207.85 107.856Z" fill="black"/>
<path d="M223.487 104.227C223.487 104.227 223.487 104.142 223.487 103.971C223.487 103.8 223.579 103.668 223.763 103.576H238.846C237.321 102.433 236.381 100.967 236.027 99.1798C236.027 99.1667 236.027 99.147 236.027 99.1207C236.027 99.0944 236.02 99.0747 236.007 99.0615C236.007 98.9038 236.119 98.8249 236.342 98.8249H236.401C236.519 98.8249 236.598 98.8315 236.638 98.8447C236.677 98.8578 236.717 98.8841 236.756 98.9235C236.795 98.9629 236.815 99.0221 236.815 99.101C236.815 99.1798 236.835 99.285 236.874 99.4164C236.914 99.5478 236.966 99.7121 237.032 99.9093C237.321 100.79 237.801 101.579 238.471 102.275C239.142 102.972 239.924 103.465 240.817 103.754C240.936 103.793 240.995 103.866 240.995 103.971C240.995 104.05 240.962 104.109 240.896 104.148C240.831 104.188 240.673 104.253 240.423 104.345C240.173 104.437 239.924 104.562 239.674 104.72C239.135 105.062 238.668 105.456 238.274 105.903C237.88 106.35 237.584 106.79 237.387 107.224C237.19 107.658 237.052 107.986 236.973 108.21C236.894 108.433 236.841 108.637 236.815 108.821C236.789 108.952 236.756 109.031 236.717 109.057C236.677 109.084 236.572 109.103 236.401 109.117C236.138 109.117 236.007 109.044 236.007 108.9C236.007 108.808 236.04 108.643 236.105 108.407C236.526 106.751 237.44 105.403 238.846 104.365H223.763C223.579 104.273 223.487 104.142 223.487 103.971V104.227Z" fill="black"/>
<path d="M248.266 104.956C248.266 103.616 248.522 102.203 249.035 100.718C249.547 99.2323 250.244 97.9508 251.124 96.873C252.005 95.7952 252.919 95.1775 253.865 95.0197C253.878 95.0197 253.931 95.0197 254.023 95.0197C254.115 95.0197 254.194 95.0132 254.259 95C254.969 95.0526 255.521 95.3746 255.915 95.9661C256.428 96.7547 256.684 97.8128 256.684 99.1403C256.684 100.652 256.389 102.19 255.797 103.754C255.206 105.318 254.45 106.599 253.53 107.598C252.61 108.597 251.729 109.097 250.888 109.097H250.75C250.277 109.097 249.869 108.965 249.527 108.702C249.186 108.44 248.929 108.091 248.759 107.658C248.588 107.224 248.463 106.783 248.384 106.337C248.305 105.89 248.266 105.43 248.266 104.956ZM255.127 97.7405C255.127 96.3998 254.778 95.7295 254.082 95.7295C253.609 95.7295 253.149 96.0252 252.702 96.6167C252.255 97.2082 251.887 97.8785 251.598 98.6277C251.308 99.3769 251.085 100.034 250.927 100.599C250.77 101.164 250.684 101.493 250.671 101.585C251.315 101.598 251.952 101.605 252.583 101.605L254.496 101.585C254.509 101.572 254.562 101.355 254.654 100.934C254.746 100.514 254.851 99.9881 254.969 99.3572C255.087 98.7263 255.14 98.1874 255.127 97.7405ZM249.803 106.297C249.803 107.69 250.152 108.387 250.848 108.387C251.046 108.387 251.256 108.321 251.479 108.19C251.703 108.058 251.972 107.809 252.288 107.441C252.603 107.073 252.919 106.501 253.234 105.725C253.549 104.95 253.865 103.99 254.18 102.847L254.279 102.512H250.434C250.434 102.551 250.375 102.801 250.257 103.261C250.139 103.721 250.033 104.234 249.941 104.799C249.849 105.364 249.803 105.863 249.803 106.297Z" fill="black"/>
<path d="M257.115 107.857C257.125 107.801 257.138 107.726 257.157 107.634C257.176 107.541 257.231 107.364 257.324 107.104C257.417 106.844 257.51 106.625 257.603 106.449C257.696 106.272 257.849 106.1 258.063 105.933C258.277 105.766 258.491 105.687 258.704 105.696C259.039 105.696 259.318 105.78 259.541 105.947C259.764 106.114 259.903 106.272 259.959 106.421C260.015 106.569 260.042 106.667 260.042 106.714C260.042 106.732 260.047 106.741 260.056 106.741L260.21 106.588C260.777 105.993 261.422 105.696 262.147 105.696C262.649 105.696 263.053 105.821 263.36 106.072C263.667 106.323 263.825 106.69 263.834 107.174C263.843 107.657 263.667 108.386 263.304 109.362C262.942 110.338 262.765 110.928 262.774 111.132C262.774 111.374 262.853 111.495 263.011 111.495C263.067 111.495 263.109 111.49 263.137 111.481C263.406 111.434 263.648 111.258 263.862 110.951C264.075 110.644 264.238 110.273 264.35 109.836C264.368 109.762 264.461 109.724 264.628 109.724C264.814 109.724 264.907 109.762 264.907 109.836C264.907 109.845 264.889 109.915 264.851 110.045C264.777 110.314 264.675 110.579 264.545 110.839C264.415 111.1 264.201 111.36 263.904 111.62C263.606 111.88 263.286 112.006 262.942 111.996C262.505 111.996 262.189 111.871 261.994 111.62C261.799 111.369 261.701 111.109 261.701 110.839C261.701 110.663 261.868 110.105 262.203 109.167C262.538 108.228 262.709 107.522 262.719 107.048C262.719 106.5 262.514 106.226 262.105 106.226H262.036C261.237 106.226 260.563 106.695 260.015 107.634L259.917 107.801L259.457 109.669C259.15 110.886 258.974 111.541 258.927 111.634C258.807 111.885 258.607 112.01 258.328 112.01C258.207 112.01 258.11 111.982 258.035 111.927C257.961 111.871 257.91 111.815 257.882 111.759C257.854 111.704 257.845 111.657 257.854 111.62C257.854 111.499 258.031 110.742 258.384 109.348C258.737 107.954 258.923 107.197 258.941 107.076C258.951 107.029 258.955 106.923 258.955 106.755C258.955 106.393 258.844 106.212 258.621 106.212C258.268 106.212 257.975 106.676 257.742 107.606C257.687 107.791 257.659 107.889 257.659 107.898C257.64 107.954 257.552 107.982 257.394 107.982H257.199C257.143 107.926 257.115 107.884 257.115 107.857Z" fill="black"/>
<path d="M265.967 108.553C265.967 108.553 265.967 108.493 265.967 108.372C265.967 108.251 266.032 108.158 266.162 108.093H270.33V106.003L270.344 103.912C270.437 103.791 270.525 103.731 270.609 103.731C270.729 103.731 270.822 103.8 270.887 103.94V108.093H275.041C275.181 108.168 275.25 108.261 275.25 108.372C275.25 108.484 275.181 108.577 275.041 108.651H270.887V112.805C270.813 112.935 270.729 113 270.636 113H270.609H270.581C270.469 113 270.385 112.935 270.33 112.805V108.651H266.162C266.032 108.586 265.967 108.493 265.967 108.372V108.553Z" fill="black"/>
<path d="M279 103.8L278.818 103.87C278.688 103.916 278.502 103.963 278.261 104.009C278.019 104.056 277.75 104.088 277.452 104.107H277.188V103.466H277.452C277.889 103.447 278.293 103.377 278.665 103.257C279.037 103.136 279.297 103.024 279.446 102.922C279.594 102.82 279.724 102.718 279.836 102.615C279.855 102.587 279.91 102.574 280.003 102.574C280.087 102.574 280.166 102.601 280.24 102.657V106.825L280.254 111.007C280.319 111.072 280.375 111.114 280.421 111.132C280.468 111.151 280.579 111.169 280.756 111.188C280.932 111.206 281.221 111.216 281.62 111.216H281.983V111.857H281.829C281.634 111.829 280.895 111.815 279.613 111.815C278.349 111.815 277.62 111.829 277.424 111.857H277.257V111.216H277.62C277.824 111.216 278.001 111.216 278.149 111.216C278.298 111.216 278.414 111.211 278.498 111.202C278.581 111.193 278.656 111.179 278.721 111.16C278.786 111.141 278.823 111.132 278.832 111.132C278.842 111.132 278.869 111.109 278.916 111.062C278.962 111.016 278.99 110.997 279 111.007V103.8Z" fill="black"/>
<path d="M415 23.5358C415 22.1171 415.271 20.6219 415.814 19.0502C416.356 17.4785 417.093 16.1225 418.025 14.9819C418.957 13.8414 419.924 13.1877 420.925 13.0208C420.939 13.0208 420.995 13.0208 421.092 13.0208C421.189 13.0208 421.273 13.0139 421.342 13C422.093 13.0556 422.678 13.3964 423.095 14.0222C423.637 14.8568 423.908 15.9764 423.908 17.3812C423.908 18.9807 423.596 20.608 422.97 22.2631C422.344 23.9183 421.544 25.2743 420.57 26.3314C419.597 27.3885 418.665 27.917 417.775 27.917H417.629C417.128 27.917 416.697 27.7779 416.335 27.4997C415.974 27.2216 415.702 26.853 415.522 26.394C415.341 25.935 415.209 25.4691 415.125 24.9962C415.042 24.5233 415 24.0365 415 23.5358ZM422.26 15.8999C422.26 14.4812 421.892 13.7719 421.155 13.7719C420.654 13.7719 420.167 14.0848 419.694 14.7107C419.221 15.3366 418.832 16.046 418.526 16.8387C418.22 17.6315 417.983 18.327 417.817 18.925C417.65 19.5231 417.559 19.8708 417.545 19.9682C418.227 19.9821 418.901 19.9891 419.569 19.9891L421.593 19.9682C421.607 19.9543 421.662 19.7248 421.76 19.2797C421.857 18.8346 421.968 18.2783 422.093 17.6107C422.219 16.9431 422.274 16.3728 422.26 15.8999ZM416.627 24.9544C416.627 26.4288 416.996 27.1659 417.733 27.1659C417.942 27.1659 418.164 27.0964 418.401 26.9573C418.637 26.8182 418.922 26.5539 419.256 26.1645C419.59 25.7751 419.924 25.17 420.257 24.3494C420.591 23.5288 420.925 22.5135 421.259 21.3034L421.363 20.9488H417.295C417.295 20.9905 417.232 21.2547 417.107 21.7415C416.982 22.2284 416.871 22.7708 416.773 23.3689C416.676 23.9669 416.627 24.4955 416.627 24.9544Z" fill="black"/>
<path d="M424.364 26.6045C424.374 26.5455 424.389 26.4668 424.409 26.3685C424.428 26.2701 424.487 26.0833 424.586 25.808C424.684 25.5326 424.782 25.3015 424.881 25.1147C424.979 24.9279 425.141 24.7459 425.367 24.5689C425.593 24.3919 425.82 24.3084 426.046 24.3182C426.4 24.3182 426.695 24.4067 426.931 24.5837C427.167 24.7607 427.314 24.9279 427.373 25.0852C427.432 25.2425 427.462 25.3458 427.462 25.395C427.462 25.4146 427.467 25.4245 427.477 25.4245L427.639 25.2622C428.239 24.6329 428.922 24.3182 429.689 24.3182C430.22 24.3182 430.648 24.4509 430.972 24.7164C431.297 24.9819 431.464 25.3704 431.474 25.8817C431.484 26.393 431.297 27.165 430.913 28.1975C430.53 29.23 430.343 29.8544 430.353 30.0707C430.353 30.3264 430.436 30.4542 430.604 30.4542C430.663 30.4542 430.707 30.4493 430.736 30.4395C431.021 30.3903 431.277 30.2035 431.503 29.879C431.729 29.5545 431.902 29.1612 432.02 28.699C432.039 28.6203 432.138 28.581 432.315 28.581C432.511 28.581 432.61 28.6203 432.61 28.699C432.61 28.7088 432.59 28.7826 432.551 28.9202C432.472 29.2054 432.364 29.4857 432.226 29.761C432.088 30.0363 431.862 30.3117 431.548 30.587C431.233 30.8623 430.894 30.9951 430.53 30.9852C430.068 30.9852 429.733 30.8525 429.527 30.587C429.32 30.3215 429.217 30.0462 429.217 29.761C429.217 29.5742 429.394 28.9841 429.748 27.991C430.102 26.9978 430.284 26.2505 430.294 25.749C430.294 25.1688 430.077 24.8787 429.645 24.8787H429.571C428.725 24.8787 428.012 25.3753 427.432 26.3685L427.329 26.5455L426.842 28.522C426.518 29.8102 426.331 30.5034 426.282 30.6017C426.154 30.8672 425.943 31 425.648 31C425.52 31 425.416 30.9705 425.338 30.9115C425.259 30.8525 425.205 30.7935 425.176 30.7345C425.146 30.6755 425.136 30.6263 425.146 30.587C425.146 30.4592 425.333 29.6577 425.707 28.1827C426.08 26.7077 426.277 25.9063 426.297 25.7785C426.306 25.7293 426.311 25.6162 426.311 25.4392C426.311 25.0557 426.193 24.8639 425.957 24.8639C425.584 24.8639 425.274 25.3556 425.028 26.339C424.969 26.5356 424.94 26.6389 424.94 26.6487C424.92 26.7077 424.826 26.7372 424.659 26.7372H424.453C424.394 26.6782 424.364 26.634 424.364 26.6045Z" fill="black"/>
</svg>
