<svg width="325" height="319" viewBox="0 0 325 319" fill="none" xmlns="http://www.w3.org/2000/svg">
<rect opacity="0.4" x="1" y="244" width="323" height="40" fill="#F2F4F8"/>
<rect opacity="0.4" x="1" y="84" width="323" height="40" fill="#F2F4F8"/>
<rect opacity="0.4" x="1" y="164" width="323" height="40" fill="#F2F4F8"/>
<line x1="81.5" y1="47" x2="81.5" y2="318" stroke="#DDE1E6"/>
<line y1="46.5" x2="325" y2="46.5" stroke="#DDE1E6"/>
<line y1="317.5" x2="325" y2="317.5" stroke="#DDE1E6"/>
<line x1="0.5" y1="47" x2="0.5" y2="318" stroke="#DDE1E6"/>
<line x1="162.5" y1="47" x2="162.5" y2="318" stroke="#DDE1E6"/>
<line x1="243.5" y1="46" x2="243.5" y2="319" stroke="#DDE1E6"/>
<line x1="324.5" y1="47" x2="324.5" y2="318" stroke="#DDE1E6"/>
<path d="M81.5 115.5L243.5 250.5L317.5 316" stroke="#0F62FE"/>
<line x1="81.5" y1="116" x2="81.5146" y2="250" stroke="black" stroke-dasharray="6 6"/>
<line x1="162.5" y1="182" x2="162.5" y2="252" stroke="black" stroke-dasharray="6 6"/>
<path d="M81.5 115.5C61 98.5 33 80 5 106.5" stroke="#0F62FE"/>
<line x1="81" y1="251.5" x2="242" y2="251.5" stroke="black" stroke-dasharray="6 6"/>
<circle cx="243.5" cy="250.5" r="4.5" fill="#121619"/>
<path d="M243.045 253.498C243.32 253.473 243.523 253.23 243.498 252.955L243.091 248.473C243.066 248.198 242.822 247.996 242.547 248.021C242.272 248.046 242.07 248.289 242.095 248.564L242.457 252.547L238.473 252.909C238.198 252.934 237.996 253.178 238.021 253.453C238.046 253.728 238.289 253.93 238.564 253.905L243.045 253.498ZM80.6799 118.384L242.68 253.384L243.32 252.616L81.3201 117.616L80.6799 118.384Z" fill="#8A3FFC"/>
<circle cx="162.5" cy="182.5" r="4.5" fill="#121619"/>
<circle cx="81.5" cy="115.5" r="4.5" fill="#121619"/>
<line x1="191" y1="110.625" x2="311" y2="110.625" stroke="#8A3FFC" stroke-width="0.75"/>
<path d="M82.3362 93.8926C82.6064 93.8926 82.7145 93.8926 82.7145 93.6255C82.7145 93.4849 82.6064 93.4849 82.3632 93.4849H81.269C81.5256 92.0371 81.7148 91.0391 81.8228 90.5893C81.9039 90.2519 82.1876 89.9286 82.5388 89.9286C82.8225 89.9286 83.1062 90.0551 83.2413 90.1816C82.7145 90.2378 82.5523 90.6455 82.5523 90.8844C82.5523 91.1656 82.755 91.3343 83.0117 91.3343C83.2819 91.3343 83.6871 91.0953 83.6871 90.5611C83.6871 89.9708 83.1197 89.6475 82.5253 89.6475C81.9444 89.6475 81.377 90.0973 81.1068 90.6455C80.8637 91.1375 80.7286 91.6435 80.4179 93.4849H79.5127C79.2561 93.4849 79.121 93.4849 79.121 93.7379C79.121 93.8926 79.202 93.8926 79.4722 93.8926H80.3368C80.0936 95.1998 79.5398 98.3766 79.229 99.8807C78.9994 101.104 78.7967 102.13 78.1213 102.13C78.0807 102.13 77.689 102.13 77.4458 101.863C78.1348 101.806 78.1348 101.188 78.1348 101.174C78.1348 100.893 77.9321 100.724 77.6755 100.724C77.4053 100.724 77 100.963 77 101.497C77 102.102 77.5944 102.411 78.1213 102.411C79.4992 102.411 80.0666 99.8385 80.2152 99.1357C80.4584 98.0533 81.1204 94.3143 81.1879 93.8926H82.3362Z" fill="black"/>
<path d="M88.664 102.958C88.664 102.916 88.664 102.888 88.4344 102.649C87.0834 101.229 86.3269 98.9098 86.3269 96.0423C86.3269 93.3153 86.9619 90.9679 88.5289 89.3092C88.664 89.1827 88.664 89.1546 88.664 89.1125C88.664 89.0281 88.5965 89 88.5424 89C88.3668 89 87.2591 90.0121 86.5971 91.3896C85.9081 92.8093 85.5974 94.3134 85.5974 96.0423C85.5974 97.2933 85.7865 98.9661 86.489 100.47C87.2861 102.157 88.3938 103.071 88.5424 103.071C88.5965 103.071 88.664 103.042 88.664 102.958Z" fill="black"/>
<path d="M95.4023 92.4728C95.4023 91.039 94.97 89.6475 93.8622 89.6475C91.9709 89.6475 89.958 93.7659 89.958 96.8583C89.958 97.5049 90.0931 99.6836 91.5116 99.6836C93.3488 99.6836 95.4023 95.6635 95.4023 92.4728ZM91.3089 94.4547C91.5116 93.6254 91.7953 92.4446 92.3356 91.4467C92.7815 90.6033 93.2543 89.9286 93.8487 89.9286C94.2945 89.9286 94.5917 90.3222 94.5917 91.6716C94.5917 92.1776 94.5512 92.8804 94.1594 94.4547H91.3089ZM94.0648 94.8764C93.7271 96.2539 93.4434 97.1394 92.9571 98.025C92.5653 98.7418 92.0925 99.4025 91.5251 99.4025C91.1063 99.4025 90.7686 99.0651 90.7686 97.6736C90.7686 96.7599 90.9847 95.8041 91.2009 94.8764H94.0648Z" fill="black"/>
<path d="M107.854 96.3103C108.084 96.3103 108.327 96.3103 108.327 96.0286C108.327 95.7468 108.084 95.7468 107.854 95.7468H100.546C100.316 95.7468 100.073 95.7468 100.073 96.0286C100.073 96.3103 100.316 96.3103 100.546 96.3103H107.854Z" fill="black"/>
<path d="M116.392 96.3516C116.595 96.3516 116.824 96.3516 116.824 96.1267C116.824 95.9439 116.689 95.9439 116.446 95.9439H114.258C114.595 94.6648 115.392 93.8918 116.595 93.8918H116.986C117.216 93.8918 117.419 93.8918 117.419 93.6669C117.419 93.4841 117.27 93.4841 117.027 93.4841H116.568C114.906 93.4841 113.082 94.8616 113.082 97.0684C113.082 98.6287 114.095 99.6829 115.433 99.6829C116.297 99.6829 117.149 99.1206 117.149 98.9801C117.149 98.8957 117.108 98.8114 117.027 98.8114C116.986 98.8114 116.959 98.8254 116.892 98.8817C116.378 99.2331 115.879 99.4017 115.473 99.4017C114.757 99.4017 114.001 98.9098 114.001 97.5463C114.001 97.2793 114.028 96.9138 114.149 96.3516H116.392Z" fill="black"/>
<path d="M121.612 96.0423C121.612 94.974 121.476 93.231 120.72 91.6005C119.923 89.9137 118.815 89 118.667 89C118.612 89 118.545 89.0281 118.545 89.1125C118.545 89.1546 118.545 89.1827 118.775 89.4217C120.126 90.8414 120.882 93.1607 120.882 96.0283C120.882 98.7552 120.247 101.103 118.68 102.761C118.545 102.888 118.545 102.916 118.545 102.958C118.545 103.042 118.612 103.071 118.667 103.071C118.842 103.071 119.95 102.058 120.612 100.681C121.301 99.2472 121.612 97.7291 121.612 96.0423Z" fill="black"/>
<path d="M269.336 94.8921C269.606 94.8921 269.714 94.8921 269.714 94.625C269.714 94.4844 269.606 94.4844 269.363 94.4844H268.269C268.526 93.0366 268.715 92.0386 268.823 91.5888C268.904 91.2514 269.188 90.9281 269.539 90.9281C269.823 90.9281 270.106 91.0546 270.241 91.1811C269.714 91.2374 269.552 91.645 269.552 91.884C269.552 92.1651 269.755 92.3338 270.012 92.3338C270.282 92.3338 270.687 92.0948 270.687 91.5607C270.687 90.9703 270.12 90.647 269.525 90.647C268.944 90.647 268.377 91.0968 268.107 91.645C267.864 92.137 267.729 92.643 267.418 94.4844H266.513C266.256 94.4844 266.121 94.4844 266.121 94.7375C266.121 94.8921 266.202 94.8921 266.472 94.8921H267.337C267.094 96.1993 266.54 99.3761 266.229 100.88C265.999 102.103 265.797 103.129 265.121 103.129C265.081 103.129 264.689 103.129 264.446 102.862C265.135 102.806 265.135 102.187 265.135 102.173C265.135 101.892 264.932 101.724 264.675 101.724C264.405 101.724 264 101.963 264 102.497C264 103.101 264.594 103.41 265.121 103.41C266.499 103.41 267.067 100.838 267.215 100.135C267.458 99.0528 268.12 95.3138 268.188 94.8921H269.336Z" fill="#8A3FFC"/>
<path d="M275.664 103.958C275.664 103.916 275.664 103.888 275.434 103.649C274.083 102.229 273.327 99.9098 273.327 97.0423C273.327 94.3153 273.962 91.9679 275.529 90.3092C275.664 90.1827 275.664 90.1546 275.664 90.1125C275.664 90.0281 275.597 90 275.542 90C275.367 90 274.259 91.0121 273.597 92.3896C272.908 93.8093 272.597 95.3134 272.597 97.0423C272.597 98.2933 272.787 99.9661 273.489 101.47C274.286 103.157 275.394 104.071 275.542 104.071C275.597 104.071 275.664 104.042 275.664 103.958Z" fill="#8A3FFC"/>
<path d="M282.402 93.4724C282.402 92.0386 281.97 90.647 280.862 90.647C278.971 90.647 276.958 94.7656 276.958 97.8582C276.958 98.5048 277.093 100.684 278.512 100.684C280.349 100.684 282.402 96.6633 282.402 93.4724ZM278.309 95.4544C278.512 94.6251 278.795 93.4443 279.336 92.4463C279.781 91.6028 280.254 90.9281 280.849 90.9281C281.295 90.9281 281.592 91.3217 281.592 92.6712C281.592 93.1772 281.551 93.8801 281.159 95.4544H278.309ZM281.065 95.8761C280.727 97.2537 280.443 98.1393 279.957 99.0249C279.565 99.7418 279.092 100.402 278.525 100.402C278.106 100.402 277.769 100.065 277.769 98.6735C277.769 97.7598 277.985 96.8039 278.201 95.8761H281.065Z" fill="#8A3FFC"/>
<path d="M294.854 97.3101C295.084 97.3101 295.327 97.3101 295.327 97.0283C295.327 96.7466 295.084 96.7466 294.854 96.7466H287.546C287.316 96.7466 287.073 96.7466 287.073 97.0283C287.073 97.3101 287.316 97.3101 287.546 97.3101H294.854Z" fill="#8A3FFC"/>
<path d="M303.392 97.3516C303.595 97.3516 303.824 97.3516 303.824 97.1267C303.824 96.9439 303.689 96.9439 303.446 96.9439H301.258C301.595 95.6648 302.392 94.8918 303.595 94.8918H303.986C304.216 94.8918 304.419 94.8918 304.419 94.6669C304.419 94.4841 304.27 94.4841 304.027 94.4841H303.568C301.906 94.4841 300.082 95.8616 300.082 98.0684C300.082 99.6287 301.095 100.683 302.433 100.683C303.297 100.683 304.149 100.121 304.149 99.9801C304.149 99.8957 304.108 99.8114 304.027 99.8114C303.986 99.8114 303.959 99.8254 303.892 99.8817C303.378 100.233 302.879 100.402 302.473 100.402C301.757 100.402 301.001 99.9098 301.001 98.5463C301.001 98.2793 301.028 97.9138 301.149 97.3516H303.392Z" fill="#8A3FFC"/>
<path d="M308.612 97.0423C308.612 95.974 308.476 94.231 307.72 92.6005C306.923 90.9137 305.815 90 305.667 90C305.612 90 305.545 90.0281 305.545 90.1125C305.545 90.1546 305.545 90.1827 305.775 90.4217C307.126 91.8414 307.882 94.1607 307.882 97.0283C307.882 99.7552 307.247 102.103 305.68 103.761C305.545 103.888 305.545 103.916 305.545 103.958C305.545 104.042 305.612 104.071 305.667 104.071C305.842 104.071 306.95 103.058 307.612 101.681C308.301 100.247 308.612 98.7291 308.612 97.0423Z" fill="#8A3FFC"/>
<path d="M257.336 236.893C257.606 236.893 257.714 236.893 257.714 236.626C257.714 236.485 257.606 236.485 257.363 236.485H256.269C256.526 235.037 256.715 234.039 256.823 233.589C256.904 233.252 257.188 232.929 257.539 232.929C257.823 232.929 258.106 233.055 258.241 233.182C257.714 233.238 257.552 233.646 257.552 233.885C257.552 234.166 257.755 234.335 258.012 234.335C258.282 234.335 258.687 234.096 258.687 233.561C258.687 232.971 258.12 232.648 257.525 232.648C256.944 232.648 256.377 233.098 256.107 233.646C255.864 234.138 255.729 234.644 255.418 236.485H254.513C254.256 236.485 254.121 236.485 254.121 236.738C254.121 236.893 254.202 236.893 254.472 236.893H255.337C255.094 238.2 254.54 241.377 254.229 242.881C253.999 244.104 253.797 245.13 253.121 245.13C253.081 245.13 252.689 245.13 252.446 244.863C253.135 244.807 253.135 244.188 253.135 244.174C253.135 243.893 252.932 243.724 252.675 243.724C252.405 243.724 252 243.963 252 244.497C252 245.102 252.594 245.411 253.121 245.411C254.499 245.411 255.067 242.839 255.215 242.136C255.458 241.054 256.12 237.315 256.188 236.893H257.336Z" fill="black"/>
<path d="M263.664 245.958C263.664 245.916 263.664 245.888 263.434 245.649C262.083 244.229 261.327 241.91 261.327 239.042C261.327 236.315 261.962 233.968 263.529 232.309C263.664 232.183 263.664 232.155 263.664 232.112C263.664 232.028 263.597 232 263.542 232C263.367 232 262.259 233.012 261.597 234.39C260.908 235.809 260.597 237.313 260.597 239.042C260.597 240.293 260.787 241.966 261.489 243.47C262.286 245.157 263.394 246.071 263.542 246.071C263.597 246.071 263.664 246.043 263.664 245.958Z" fill="black"/>
<path d="M270.402 235.473C270.402 234.039 269.97 232.648 268.862 232.648C266.971 232.648 264.958 236.766 264.958 239.859C264.958 240.505 265.093 242.684 266.512 242.684C268.349 242.684 270.402 238.664 270.402 235.473ZM266.309 237.455C266.512 236.626 266.795 235.445 267.336 234.447C267.781 233.604 268.254 232.929 268.849 232.929C269.295 232.929 269.592 233.322 269.592 234.672C269.592 235.178 269.551 235.881 269.159 237.455H266.309ZM269.065 237.877C268.727 239.254 268.443 240.14 267.957 241.025C267.565 241.742 267.092 242.403 266.525 242.403C266.106 242.403 265.769 242.066 265.769 240.674C265.769 239.76 265.985 238.804 266.201 237.877H269.065Z" fill="black"/>
<path d="M279.342 239.295H283.07C283.259 239.295 283.503 239.295 283.503 239.042C283.503 238.775 283.273 238.775 283.07 238.775H279.342V234.896C279.342 234.699 279.342 234.446 279.099 234.446C278.842 234.446 278.842 234.685 278.842 234.896V238.775H275.113C274.924 238.775 274.681 238.775 274.681 239.028C274.681 239.295 274.911 239.295 275.113 239.295H278.842V243.175C278.842 243.372 278.842 243.625 279.085 243.625C279.342 243.625 279.342 243.386 279.342 243.175V239.295Z" fill="black"/>
<path d="M291.173 239.352C291.376 239.352 291.605 239.352 291.605 239.127C291.605 238.944 291.47 238.944 291.227 238.944H289.038C289.376 237.665 290.173 236.892 291.376 236.892H291.767C291.997 236.892 292.2 236.892 292.2 236.667C292.2 236.484 292.051 236.484 291.808 236.484H291.349C289.687 236.484 287.863 237.862 287.863 240.069C287.863 241.629 288.876 242.683 290.214 242.683C291.078 242.683 291.929 242.121 291.929 241.981C291.929 241.896 291.889 241.812 291.808 241.812C291.767 241.812 291.74 241.826 291.673 241.882C291.159 242.234 290.66 242.402 290.254 242.402C289.538 242.402 288.782 241.91 288.782 240.547C288.782 240.28 288.809 239.914 288.93 239.352H291.173Z" fill="black"/>
<path d="M296.393 239.042C296.393 237.974 296.257 236.231 295.501 234.6C294.704 232.914 293.596 232 293.447 232C293.393 232 293.326 232.028 293.326 232.112C293.326 232.155 293.326 232.183 293.556 232.422C294.906 233.841 295.663 236.161 295.663 239.028C295.663 241.755 295.028 244.103 293.461 245.762C293.326 245.888 293.326 245.916 293.326 245.958C293.326 246.043 293.393 246.071 293.447 246.071C293.623 246.071 294.731 245.059 295.393 243.681C296.082 242.247 296.393 240.729 296.393 239.042Z" fill="black"/>
<path d="M202.336 94.8921C202.606 94.8921 202.714 94.8921 202.714 94.625C202.714 94.4844 202.606 94.4844 202.363 94.4844H201.269C201.526 93.0366 201.715 92.0386 201.823 91.5888C201.904 91.2514 202.188 90.9281 202.539 90.9281C202.823 90.9281 203.106 91.0546 203.241 91.1811C202.714 91.2374 202.552 91.645 202.552 91.884C202.552 92.1651 202.755 92.3338 203.012 92.3338C203.282 92.3338 203.687 92.0948 203.687 91.5607C203.687 90.9703 203.12 90.647 202.525 90.647C201.944 90.647 201.377 91.0968 201.107 91.645C200.864 92.137 200.729 92.643 200.418 94.4844H199.513C199.256 94.4844 199.121 94.4844 199.121 94.7375C199.121 94.8921 199.202 94.8921 199.472 94.8921H200.337C200.094 96.1993 199.54 99.3761 199.229 100.88C198.999 102.103 198.797 103.129 198.121 103.129C198.081 103.129 197.689 103.129 197.446 102.862C198.135 102.806 198.135 102.187 198.135 102.173C198.135 101.892 197.932 101.724 197.675 101.724C197.405 101.724 197 101.963 197 102.497C197 103.101 197.594 103.41 198.121 103.41C199.499 103.41 200.067 100.838 200.215 100.135C200.458 99.0528 201.12 95.3138 201.188 94.8921H202.336Z" fill="#8A3FFC"/>
<path d="M208.664 103.958C208.664 103.916 208.664 103.888 208.434 103.649C207.083 102.229 206.327 99.9098 206.327 97.0423C206.327 94.3153 206.962 91.9679 208.529 90.3092C208.664 90.1827 208.664 90.1546 208.664 90.1125C208.664 90.0281 208.597 90 208.542 90C208.367 90 207.259 91.0121 206.597 92.3896C205.908 93.8093 205.597 95.3134 205.597 97.0423C205.597 98.2933 205.787 99.9661 206.489 101.47C207.286 103.157 208.394 104.071 208.542 104.071C208.597 104.071 208.664 104.042 208.664 103.958Z" fill="#8A3FFC"/>
<path d="M215.402 93.4724C215.402 92.0386 214.97 90.647 213.862 90.647C211.971 90.647 209.958 94.7656 209.958 97.8582C209.958 98.5048 210.093 100.684 211.512 100.684C213.349 100.684 215.402 96.6633 215.402 93.4724ZM211.309 95.4544C211.512 94.6251 211.795 93.4443 212.336 92.4463C212.781 91.6028 213.254 90.9281 213.849 90.9281C214.295 90.9281 214.592 91.3217 214.592 92.6712C214.592 93.1772 214.551 93.8801 214.159 95.4544H211.309ZM214.065 95.8761C213.727 97.2537 213.443 98.1393 212.957 99.0249C212.565 99.7418 212.092 100.402 211.525 100.402C211.106 100.402 210.769 100.065 210.769 98.6735C210.769 97.7598 210.985 96.8039 211.201 95.8761H214.065Z" fill="#8A3FFC"/>
<path d="M224.342 97.2951H228.07C228.259 97.2951 228.503 97.2951 228.503 97.0421C228.503 96.775 228.273 96.775 228.07 96.775H224.342V92.8954C224.342 92.6986 224.342 92.4456 224.099 92.4456C223.842 92.4456 223.842 92.6845 223.842 92.8954V96.775H220.113C219.924 96.775 219.681 96.775 219.681 97.028C219.681 97.2951 219.911 97.2951 220.113 97.2951H223.842V101.175C223.842 101.371 223.842 101.625 224.085 101.625C224.342 101.625 224.342 101.386 224.342 101.175V97.2951Z" fill="#8A3FFC"/>
<path d="M236.173 97.3516C236.376 97.3516 236.605 97.3516 236.605 97.1267C236.605 96.9439 236.47 96.9439 236.227 96.9439H234.038C234.376 95.6648 235.173 94.8918 236.376 94.8918H236.767C236.997 94.8918 237.2 94.8918 237.2 94.6669C237.2 94.4841 237.051 94.4841 236.808 94.4841H236.349C234.687 94.4841 232.863 95.8616 232.863 98.0684C232.863 99.6287 233.876 100.683 235.214 100.683C236.078 100.683 236.929 100.121 236.929 99.9801C236.929 99.8957 236.889 99.8114 236.808 99.8114C236.767 99.8114 236.74 99.8254 236.673 99.8817C236.159 100.233 235.66 100.402 235.254 100.402C234.538 100.402 233.782 99.9098 233.782 98.5463C233.782 98.2793 233.809 97.9138 233.93 97.3516H236.173Z" fill="#8A3FFC"/>
<path d="M241.393 97.0423C241.393 95.974 241.257 94.231 240.501 92.6005C239.704 90.9137 238.596 90 238.447 90C238.393 90 238.326 90.0281 238.326 90.1125C238.326 90.1546 238.326 90.1827 238.556 90.4217C239.906 91.8414 240.663 94.1607 240.663 97.0283C240.663 99.7552 240.028 102.103 238.461 103.761C238.326 103.888 238.326 103.916 238.326 103.958C238.326 104.042 238.393 104.071 238.447 104.071C238.623 104.071 239.731 103.058 240.393 101.681C241.082 100.247 241.393 98.7291 241.393 97.0423Z" fill="#8A3FFC"/>
<path d="M177.336 168.893C177.606 168.893 177.714 168.893 177.714 168.625C177.714 168.485 177.606 168.485 177.363 168.485H176.269C176.526 167.037 176.715 166.039 176.823 165.589C176.904 165.252 177.188 164.929 177.539 164.929C177.823 164.929 178.106 165.055 178.241 165.182C177.714 165.238 177.552 165.645 177.552 165.884C177.552 166.166 177.755 166.334 178.012 166.334C178.282 166.334 178.687 166.095 178.687 165.561C178.687 164.971 178.12 164.647 177.525 164.647C176.944 164.647 176.377 165.097 176.107 165.645C175.864 166.137 175.729 166.644 175.418 168.485H174.513C174.256 168.485 174.121 168.485 174.121 168.738C174.121 168.893 174.202 168.893 174.472 168.893H175.337C175.094 170.2 174.54 173.377 174.229 174.881C173.999 176.104 173.797 177.13 173.121 177.13C173.081 177.13 172.689 177.13 172.446 176.863C173.135 176.806 173.135 176.188 173.135 176.174C173.135 175.893 172.932 175.724 172.675 175.724C172.405 175.724 172 175.963 172 176.497C172 177.102 172.594 177.411 173.121 177.411C174.499 177.411 175.067 174.839 175.215 174.136C175.458 173.053 176.12 169.314 176.188 168.893H177.336Z" fill="black"/>
<path d="M183.664 177.958C183.664 177.916 183.664 177.888 183.434 177.649C182.083 176.229 181.327 173.91 181.327 171.042C181.327 168.315 181.962 165.968 183.529 164.309C183.664 164.183 183.664 164.155 183.664 164.112C183.664 164.028 183.596 164 183.542 164C183.367 164 182.259 165.012 181.597 166.39C180.908 167.809 180.597 169.313 180.597 171.042C180.597 172.293 180.787 173.966 181.489 175.47C182.286 177.157 183.394 178.07 183.542 178.07C183.596 178.07 183.664 178.042 183.664 177.958Z" fill="black"/>
<path d="M190.402 167.473C190.402 166.039 189.97 164.647 188.862 164.647C186.971 164.647 184.958 168.766 184.958 171.858C184.958 172.505 185.093 174.684 186.512 174.684C188.349 174.684 190.402 170.664 190.402 167.473ZM186.309 169.455C186.512 168.625 186.795 167.445 187.336 166.447C187.781 165.603 188.254 164.929 188.849 164.929C189.295 164.929 189.592 165.322 189.592 166.672C189.592 167.178 189.551 167.88 189.159 169.455H186.309ZM189.065 169.876C188.727 171.254 188.443 172.139 187.957 173.025C187.565 173.742 187.092 174.402 186.525 174.402C186.106 174.402 185.769 174.065 185.769 172.674C185.769 171.76 185.985 170.804 186.201 169.876H189.065Z" fill="black"/>
<path d="M194.759 171.042C194.759 169.974 194.624 168.231 193.867 166.6C193.07 164.914 191.963 164 191.814 164C191.76 164 191.692 164.028 191.692 164.112C191.692 164.155 191.692 164.183 191.922 164.422C193.273 165.841 194.03 168.161 194.03 171.028C194.03 173.755 193.395 176.102 191.828 177.761C191.692 177.888 191.692 177.916 191.692 177.958C191.692 178.042 191.76 178.07 191.814 178.07C191.99 178.07 193.097 177.058 193.759 175.681C194.448 174.247 194.759 172.729 194.759 171.042Z" fill="black"/>
<path d="M148.379 105.606C148.471 105.414 148.471 105.383 148.471 105.319C148.471 105 148.18 105 147.935 105H140.536C140.291 105 140 105 140 105.319C140 105.383 140.015 105.446 140.077 105.574L143.891 114.181C144.013 114.467 144.136 114.499 144.243 114.499C144.335 114.499 144.411 114.467 144.473 114.404L148.379 105.606ZM140.781 105.638H147.689L144.243 113.431L140.781 105.638Z" fill="#8A3FFC"/>
<path d="M154.336 107.891C154.606 107.891 154.714 107.891 154.714 107.624C154.714 107.484 154.606 107.484 154.363 107.484H153.269C153.526 106.036 153.715 105.038 153.823 104.588C153.904 104.251 154.188 103.927 154.539 103.927C154.823 103.927 155.106 104.054 155.241 104.18C154.714 104.237 154.552 104.644 154.552 104.883C154.552 105.164 154.755 105.333 155.012 105.333C155.282 105.333 155.687 105.094 155.687 104.56C155.687 103.97 155.12 103.646 154.525 103.646C153.944 103.646 153.377 104.096 153.107 104.644C152.864 105.136 152.729 105.642 152.418 107.484H151.513C151.256 107.484 151.121 107.484 151.121 107.737C151.121 107.891 151.202 107.891 151.472 107.891H152.337C152.094 109.199 151.54 112.375 151.229 113.879C150.999 115.102 150.797 116.129 150.121 116.129C150.081 116.129 149.689 116.129 149.446 115.861C150.135 115.805 150.135 115.187 150.135 115.173C150.135 114.892 149.932 114.723 149.675 114.723C149.405 114.723 149 114.962 149 115.496C149 116.1 149.594 116.41 150.121 116.41C151.499 116.41 152.067 113.837 152.215 113.134C152.458 112.052 153.12 108.313 153.188 107.891H154.336Z" fill="#8A3FFC"/>
<path d="M160.664 116.958C160.664 116.916 160.664 116.888 160.434 116.649C159.083 115.229 158.327 112.91 158.327 110.042C158.327 107.315 158.962 104.968 160.529 103.309C160.664 103.183 160.664 103.155 160.664 103.112C160.664 103.028 160.596 103 160.542 103C160.367 103 159.259 104.012 158.597 105.39C157.908 106.809 157.597 108.313 157.597 110.042C157.597 111.293 157.787 112.966 158.489 114.47C159.286 116.157 160.394 117.07 160.542 117.07C160.596 117.07 160.664 117.042 160.664 116.958Z" fill="#8A3FFC"/>
<path d="M167.402 106.472C167.402 105.038 166.97 103.646 165.862 103.646C163.971 103.646 161.958 107.765 161.958 110.857C161.958 111.504 162.093 113.683 163.512 113.683C165.349 113.683 167.402 109.662 167.402 106.472ZM163.309 108.454C163.512 107.624 163.795 106.443 164.336 105.445C164.781 104.602 165.254 103.927 165.849 103.927C166.294 103.927 166.592 104.321 166.592 105.67C166.592 106.176 166.551 106.879 166.159 108.454H163.309ZM166.065 108.875C165.727 110.253 165.443 111.138 164.957 112.024C164.565 112.741 164.092 113.401 163.525 113.401C163.106 113.401 162.769 113.064 162.769 111.673C162.769 110.759 162.985 109.803 163.201 108.875H166.065Z" fill="#8A3FFC"/>
<path d="M171.759 110.042C171.759 108.974 171.624 107.231 170.867 105.6C170.07 103.914 168.963 103 168.814 103C168.76 103 168.692 103.028 168.692 103.112C168.692 103.155 168.692 103.183 168.922 103.422C170.273 104.841 171.03 107.161 171.03 110.028C171.03 112.755 170.395 115.102 168.828 116.761C168.692 116.888 168.692 116.916 168.692 116.958C168.692 117.042 168.76 117.07 168.814 117.07C168.99 117.07 170.097 116.058 170.759 114.681C171.448 113.247 171.759 111.729 171.759 110.042Z" fill="#8A3FFC"/>
<path d="M186.6 109.579C186.6 108.285 185.708 107.02 184.344 107.02C183.452 107.02 182.777 107.554 181.872 108.285C181.318 108.735 180.656 109.241 179.859 109.241C178.791 109.241 178.035 108.37 177.981 107.498C177.967 107.287 177.954 107.034 177.792 107.034C177.697 107.034 177.603 107.147 177.603 107.484C177.603 108.721 178.467 110.028 179.859 110.028C180.75 110.028 181.426 109.494 182.331 108.763C182.885 108.313 183.547 107.807 184.344 107.807C185.397 107.807 186.154 108.651 186.222 109.55C186.235 109.747 186.249 110.014 186.411 110.014C186.505 110.014 186.6 109.902 186.6 109.579ZM178.089 112.474C177.859 112.474 177.603 112.474 177.603 112.755C177.603 113.036 177.846 113.036 178.075 113.036H186.127C186.357 113.036 186.6 113.036 186.6 112.755C186.6 112.474 186.343 112.474 186.113 112.474H178.089Z" fill="#8A3FFC"/>
<path d="M246.282 124.986H245.985C245.944 125.225 245.836 125.998 245.701 126.223C245.607 126.349 244.837 126.349 244.431 126.349H241.932C242.297 126.026 243.121 125.126 243.472 124.789C245.526 122.821 246.282 122.09 246.282 120.699C246.282 119.082 245.053 118 243.486 118C241.919 118 241 119.392 241 120.6C241 121.317 241.594 121.317 241.635 121.317C241.919 121.317 242.27 121.106 242.27 120.657C242.27 120.263 242.013 119.996 241.635 119.996C241.513 119.996 241.486 119.996 241.446 120.01C241.702 119.054 242.432 118.408 243.31 118.408C244.458 118.408 245.161 119.406 245.161 120.699C245.161 121.893 244.499 122.934 243.729 123.833L241 127.01V127.347H245.931L246.282 124.986Z" fill="#8A3FFC"/>
<path d="M250.883 124.157C251.086 124.157 251.315 124.157 251.315 123.932C251.315 123.749 251.18 123.749 250.937 123.749H248.749C249.086 122.47 249.883 121.697 251.086 121.697H251.478C251.707 121.697 251.91 121.697 251.91 121.472C251.91 121.289 251.761 121.289 251.518 121.289H251.059C249.397 121.289 247.573 122.667 247.573 124.874C247.573 126.434 248.587 127.488 249.924 127.488C250.789 127.488 251.64 126.926 251.64 126.785C251.64 126.701 251.599 126.617 251.518 126.617C251.478 126.617 251.451 126.631 251.383 126.687C250.87 127.038 250.37 127.207 249.965 127.207C249.249 127.207 248.492 126.715 248.492 125.351C248.492 125.084 248.519 124.719 248.641 124.157H250.883Z" fill="#8A3FFC"/>
<path d="M257.781 97.8467C258.011 97.8467 258.254 97.8467 258.254 97.5651C258.254 97.2834 258.011 97.2834 257.781 97.2834H250.473C250.243 97.2834 250 97.2834 250 97.5651C250 97.8467 250.243 97.8467 250.473 97.8467H257.781Z" fill="#8A3FFC"/>
</svg>
