<svg width="580" height="248" viewBox="0 0 580 248" fill="none" xmlns="http://www.w3.org/2000/svg">
<rect width="580" height="248" fill="white"/>
<rect opacity="0.4" y="199" width="580" height="40" fill="#F2F4F8"/>
<rect opacity="0.4" y="119" width="580" height="40" fill="#F2F4F8"/>
<rect opacity="0.4" y="39" width="580" height="40" fill="#F2F4F8"/>
<rect x="0.5" y="0.5" width="579" height="247" stroke="#DDE1E6"/>
<path fill-rule="evenodd" clip-rule="evenodd" d="M140.4 58.2008H141.6C142.594 58.2008 143.4 57.3949 143.4 56.4008V51.6008C143.4 50.6067 142.594 49.8008 141.6 49.8008H140.4C139.405 49.8008 138.6 50.6067 138.6 51.6008V56.4008C138.6 57.3949 139.405 58.2008 140.4 58.2008ZM139.8 51.6008C139.8 51.2694 140.068 51.0008 140.4 51.0008H141.6C141.931 51.0008 142.2 51.2694 142.2 51.6008V56.4008C142.2 56.7322 141.931 57.0008 141.6 57.0008H140.4C140.068 57.0008 139.8 56.7322 139.8 56.4008V51.6008Z" fill="#161616"/>
<path d="M146.054 60L145 59.46L147.68 54L145 48.54L146.054 48L149 54L146.054 60V60Z" fill="#161616"/>
<rect x="135" y="48" width="1" height="12" fill="#161616"/>
<line x1="157" y1="53.5" x2="345" y2="53.5" stroke="black"/>
<path fill-rule="evenodd" clip-rule="evenodd" d="M140.4 106.201H141.6C142.594 106.201 143.4 105.395 143.4 104.401V99.6008C143.4 98.6067 142.594 97.8008 141.6 97.8008H140.4C139.405 97.8008 138.6 98.6067 138.6 99.6008V104.401C138.6 105.395 139.405 106.201 140.4 106.201ZM139.8 99.6008C139.8 99.2694 140.068 99.0008 140.4 99.0008H141.6C141.931 99.0008 142.2 99.2694 142.2 99.6008V104.401C142.2 104.732 141.931 105.001 141.6 105.001H140.4C140.068 105.001 139.8 104.732 139.8 104.401V99.6008Z" fill="#161616"/>
<path d="M146.054 108L145 107.46L147.68 102L145 96.54L146.054 96L149 102L146.054 108V108Z" fill="#161616"/>
<rect x="135" y="96" width="1" height="12" fill="#161616"/>
<line x1="157" y1="101.5" x2="345" y2="101.5" stroke="black"/>
<path fill-rule="evenodd" clip-rule="evenodd" d="M140.4 154.201H141.6C142.594 154.201 143.4 153.395 143.4 152.401V147.601C143.4 146.607 142.594 145.801 141.6 145.801H140.4C139.405 145.801 138.6 146.607 138.6 147.601V152.401C138.6 153.395 139.405 154.201 140.4 154.201ZM139.8 147.601C139.8 147.269 140.068 147.001 140.4 147.001H141.6C141.931 147.001 142.2 147.269 142.2 147.601V152.401C142.2 152.732 141.931 153.001 141.6 153.001H140.4C140.068 153.001 139.8 152.732 139.8 152.401V147.601Z" fill="#161616"/>
<path d="M146.054 156L145 155.46L147.68 150L145 144.54L146.054 144L149 150L146.054 156V156Z" fill="#161616"/>
<rect x="135" y="144" width="1" height="12" fill="#161616"/>
<line x1="157" y1="149.5" x2="345" y2="149.5" stroke="black"/>
<rect x="248" y="85" width="32" height="32" rx="16" fill="#1192E8"/>
<path d="M265 100V92H263V100H255V102H263V110H265V102H273V100H265V100Z" fill="white"/>
<rect x="258" y="47" width="12" height="12" rx="6" fill="#1192E8"/>
<line x1="264" y1="87" x2="264" y2="58" stroke="#1192E8" stroke-width="2"/>
<rect x="290" y="134" width="32" height="32" rx="16" fill="#1192E8"/>
<path d="M307 149V141H305V149H297V151H305V159H307V151H315V149H307V149Z" fill="white"/>
<rect x="300" y="96" width="12" height="12" rx="6" fill="#1192E8"/>
<line x1="306" y1="136" x2="306" y2="107" stroke="#1192E8" stroke-width="2"/>
<line x1="405" y1="53.5" x2="509" y2="53.5" stroke="black"/>
<line x1="405" y1="101.5" x2="509" y2="101.5" stroke="black"/>
<line x1="405" y1="149.5" x2="509" y2="149.5" stroke="black"/>
<rect x="174" y="38" width="32" height="32" fill="#6929C4"/>
<path d="M182.473 48.6H185.407L188.125 54H189.835L186.955 48.456C188.593 48.078 189.475 46.836 189.475 45C189.475 42.714 188.161 41.436 185.965 41.436H180.961V54H182.473V48.6ZM182.473 47.304V42.768H185.965C187.153 42.768 187.855 43.416 187.855 44.568V45.504C187.855 46.656 187.153 47.304 185.965 47.304H182.473ZM195.734 51.03L195.23 52.542H195.14L194.708 51.03L192.476 44.712H191.036L194.51 54.36L193.808 56.34H192.35V57.6H193.088C194.456 57.6 194.834 57.276 195.248 56.16L199.406 44.712H197.984L195.734 51.03Z" fill="white"/>
<path d="M194.5 65.5219C194.5 64.742 194.426 64.2682 194.205 63.8018C193.911 63.1604 193.368 63 193 63C192.156 63 191.848 63.6851 191.754 63.8892C191.513 64.4213 191.5 65.1429 191.5 65.5219C191.5 66.0029 191.52 66.7391 191.842 67.3222C192.15 67.8615 192.645 68 193 68C193.321 68 193.897 67.8907 194.232 67.1691C194.48 66.6443 194.5 65.9956 194.5 65.5219ZM193 67.7959C192.772 67.7959 192.31 67.6793 192.17 66.914C192.096 66.4985 192.096 65.8134 192.096 65.4344C192.096 64.9315 192.096 64.4213 192.17 64.0204C192.31 63.277 192.833 63.2041 193 63.2041C193.228 63.2041 193.69 63.328 193.824 63.9913C193.904 64.3921 193.904 64.9388 193.904 65.4344C193.904 65.8644 193.904 66.5204 193.824 66.9286C193.683 67.6939 193.221 67.7959 193 67.7959Z" fill="white"/>
<path d="M182.809 62.88C182.809 64.83 183.629 66.53 184.619 67.37H185.379C184.299 66.41 183.559 64.72 183.559 63.32V62.46C183.559 61.06 184.269 59.4 185.379 58.4H184.619C183.599 59.27 182.809 60.95 182.809 62.88ZM188.139 58.48C186.719 58.48 185.889 59.42 185.889 62.3C185.889 65.18 186.719 66.12 188.139 66.12C189.559 66.12 190.389 65.18 190.389 62.3C190.389 59.42 189.559 58.48 188.139 58.48ZM186.749 61.32C186.749 59.75 187.259 59.17 188.139 59.17C189.019 59.17 189.529 59.75 189.529 61.32V61.95H186.749V61.32ZM188.139 65.43C187.259 65.43 186.749 64.85 186.749 63.28V62.65H189.529V63.28C189.529 64.85 189.019 65.43 188.139 65.43ZM198.191 62.88C198.191 60.95 197.401 59.27 196.381 58.4H195.621C196.731 59.4 197.441 61.06 197.441 62.46V63.32C197.441 64.72 196.701 66.41 195.621 67.37H196.381C197.371 66.53 198.191 64.83 198.191 62.88Z" fill="white"/>
<rect x="174" y="85" width="32" height="32" fill="#6929C4"/>
<path d="M182.473 95.6H185.407L188.125 101H189.835L186.955 95.456C188.593 95.078 189.475 93.836 189.475 92C189.475 89.714 188.161 88.436 185.965 88.436H180.961V101H182.473V95.6ZM182.473 94.304V89.768H185.965C187.153 89.768 187.855 90.416 187.855 91.568V92.504C187.855 93.656 187.153 94.304 185.965 94.304H182.473ZM195.734 98.03L195.23 99.542H195.14L194.708 98.03L192.476 91.712H191.036L194.51 101.36L193.808 103.34H192.35V104.6H193.088C194.456 104.6 194.834 104.276 195.248 103.16L199.406 91.712H197.984L195.734 98.03Z" fill="white"/>
<path d="M182.809 109.88C182.809 111.83 183.629 113.53 184.619 114.37H185.379C184.299 113.41 183.559 111.72 183.559 110.32V109.46C183.559 108.06 184.269 106.4 185.379 105.4H184.619C183.599 106.27 182.809 107.95 182.809 109.88ZM188.139 105.48C186.719 105.48 185.889 106.42 185.889 109.3C185.889 112.18 186.719 113.12 188.139 113.12C189.559 113.12 190.389 112.18 190.389 109.3C190.389 106.42 189.559 105.48 188.139 105.48ZM186.749 108.32C186.749 106.75 187.259 106.17 188.139 106.17C189.019 106.17 189.529 106.75 189.529 108.32V108.95H186.749V108.32ZM188.139 112.43C187.259 112.43 186.749 111.85 186.749 110.28V109.65H189.529V110.28C189.529 111.85 189.019 112.43 188.139 112.43ZM198.191 109.88C198.191 107.95 197.401 106.27 196.381 105.4H195.621C196.731 106.4 197.441 108.06 197.441 109.46V110.32C197.441 111.72 196.701 113.41 195.621 114.37H196.381C197.371 113.53 198.191 111.83 198.191 109.88Z" fill="white"/>
<path d="M193.639 110.211C193.639 110.008 193.624 110 193.421 110C193.113 110.301 192.714 110.481 192 110.481V110.729C192.203 110.729 192.609 110.729 193.045 110.526V114.383C193.045 114.662 193.023 114.752 192.308 114.752H192.045V115C192.353 114.977 193 114.977 193.338 114.977C193.677 114.977 194.331 114.977 194.639 115V114.752H194.376C193.662 114.752 193.639 114.662 193.639 114.383V110.211Z" fill="white"/>
<rect x="174" y="134" width="32" height="32" fill="#6929C4"/>
<path d="M182.473 144.6H185.407L188.125 150H189.835L186.955 144.456C188.593 144.078 189.475 142.836 189.475 141C189.475 138.714 188.161 137.436 185.965 137.436H180.961V150H182.473V144.6ZM182.473 143.304V138.768H185.965C187.153 138.768 187.855 139.416 187.855 140.568V141.504C187.855 142.656 187.153 143.304 185.965 143.304H182.473ZM195.734 147.03L195.23 148.542H195.14L194.708 147.03L192.476 140.712H191.036L194.51 150.36L193.808 152.34H192.35V153.6H193.088C194.456 153.6 194.834 153.276 195.248 152.16L199.406 140.712H197.984L195.734 147.03Z" fill="white"/>
<path d="M182.809 158.88C182.809 160.83 183.629 162.53 184.619 163.37H185.379C184.299 162.41 183.559 160.72 183.559 159.32V158.46C183.559 157.06 184.269 155.4 185.379 154.4H184.619C183.599 155.27 182.809 156.95 182.809 158.88ZM188.139 154.48C186.719 154.48 185.889 155.42 185.889 158.3C185.889 161.18 186.719 162.12 188.139 162.12C189.559 162.12 190.389 161.18 190.389 158.3C190.389 155.42 189.559 154.48 188.139 154.48ZM186.749 157.32C186.749 155.75 187.259 155.17 188.139 155.17C189.019 155.17 189.529 155.75 189.529 157.32V157.95H186.749V157.32ZM188.139 161.43C187.259 161.43 186.749 160.85 186.749 159.28V158.65H189.529V159.28C189.529 160.85 189.019 161.43 188.139 161.43ZM198.191 158.88C198.191 156.95 197.401 155.27 196.381 154.4H195.621C196.731 155.4 197.441 157.06 197.441 158.46V159.32C197.441 160.72 196.701 162.41 195.621 163.37H196.381C197.371 162.53 198.191 160.83 198.191 158.88Z" fill="white"/>
<path d="M193.287 162.466C193.412 162.353 193.739 162.105 193.864 162C194.348 161.571 194.808 161.158 194.808 160.474C194.808 159.579 194.028 159 193.053 159C192.116 159 191.5 159.684 191.5 160.353C191.5 160.722 191.804 160.774 191.914 160.774C192.077 160.774 192.319 160.662 192.319 160.376C192.319 159.985 191.929 159.985 191.836 159.985C192.062 159.436 192.585 159.248 192.967 159.248C193.693 159.248 194.067 159.842 194.067 160.474C194.067 161.256 193.497 161.827 192.577 162.737L191.594 163.714C191.5 163.797 191.5 163.812 191.5 164H194.582L194.808 162.654H194.566C194.543 162.805 194.481 163.18 194.387 163.323C194.34 163.383 193.747 163.383 193.622 163.383H192.233L193.287 162.466Z" fill="white"/>
<rect x="427" y="37" width="32" height="32" fill="#6929C4"/>
<path d="M435.473 47.6H438.407L441.125 53H442.835L439.955 47.456C441.593 47.078 442.475 45.836 442.475 44C442.475 41.714 441.161 40.436 438.965 40.436H433.961V53H435.473V47.6ZM435.473 46.304V41.768H438.965C440.153 41.768 440.855 42.416 440.855 43.568V44.504C440.855 45.656 440.153 46.304 438.965 46.304H435.473ZM448.734 50.03L448.23 51.542H448.14L447.708 50.03L445.476 43.712H444.036L447.51 53.36L446.808 55.34H445.35V56.6H446.088C447.456 56.6 447.834 56.276 448.248 55.16L452.406 43.712H450.984L448.734 50.03Z" fill="white"/>
<path d="M435.809 61.88C435.809 63.83 436.629 65.53 437.619 66.37H438.379C437.299 65.41 436.559 63.72 436.559 62.32V61.46C436.559 60.06 437.269 58.4 438.379 57.4H437.619C436.599 58.27 435.809 59.95 435.809 61.88ZM441.139 57.48C439.719 57.48 438.889 58.42 438.889 61.3C438.889 64.18 439.719 65.12 441.139 65.12C442.559 65.12 443.389 64.18 443.389 61.3C443.389 58.42 442.559 57.48 441.139 57.48ZM439.749 60.32C439.749 58.75 440.259 58.17 441.139 58.17C442.019 58.17 442.529 58.75 442.529 60.32V60.95H439.749V60.32ZM441.139 64.43C440.259 64.43 439.749 63.85 439.749 62.28V61.65H442.529V62.28C442.529 63.85 442.019 64.43 441.139 64.43ZM451.191 61.88C451.191 59.95 450.401 58.27 449.381 57.4H448.621C449.731 58.4 450.441 60.06 450.441 61.46V62.32C450.441 63.72 449.701 65.41 448.621 66.37H449.381C450.371 65.53 451.191 63.83 451.191 61.88Z" fill="white"/>
<path d="M445.131 64.8426C445.151 64.7428 445.217 64.49 445.237 64.3902C445.33 64.031 445.33 64.0244 445.483 63.8049C445.703 63.4789 446.016 63.1863 446.461 63.1863C446.701 63.1863 446.84 63.3259 446.84 63.6386C446.84 64.0044 446.561 64.7627 446.435 65.0887C446.348 65.3082 446.348 65.3481 446.348 65.4346C446.348 65.8137 446.661 66 446.947 66C447.599 66 447.871 65.0687 447.871 64.9823C447.871 64.9157 447.818 64.8958 447.772 64.8958C447.692 64.8958 447.678 64.9424 447.659 65.0089C447.499 65.5543 447.22 65.8137 446.967 65.8137C446.86 65.8137 446.807 65.7472 446.807 65.5942C446.807 65.4412 446.86 65.2949 446.927 65.1286C447.027 64.8758 447.319 64.1109 447.319 63.7384C447.319 63.2395 446.973 63 446.494 63C445.956 63 445.61 63.3259 445.417 63.5787C445.37 63.2129 445.078 63 444.738 63C444.499 63 444.333 63.153 444.226 63.3592C444.067 63.6718 444 64.0044 444 64.0177C444 64.0776 444.047 64.1042 444.1 64.1042C444.186 64.1042 444.193 64.0776 444.239 63.9047C444.319 63.5787 444.439 63.1863 444.718 63.1863C444.891 63.1863 444.931 63.3525 444.931 63.4989C444.931 63.6186 444.898 63.745 444.845 63.9645C444.831 64.0177 444.732 64.4102 444.705 64.5033L444.459 65.5011C444.432 65.6009 444.392 65.7672 444.392 65.7938C444.392 65.9468 444.519 66 444.605 66C444.725 66 444.825 65.9202 444.871 65.8404C444.891 65.8004 444.945 65.5743 444.978 65.4346L445.131 64.8426Z" fill="white"/>
<rect x="427" y="85" width="32" height="32" fill="#6929C4"/>
<path d="M435.473 95.6H438.407L441.125 101H442.835L439.955 95.456C441.593 95.078 442.475 93.836 442.475 92C442.475 89.714 441.161 88.436 438.965 88.436H433.961V101H435.473V95.6ZM435.473 94.304V89.768H438.965C440.153 89.768 440.855 90.416 440.855 91.568V92.504C440.855 93.656 440.153 94.304 438.965 94.304H435.473ZM448.734 98.03L448.23 99.542H448.14L447.708 98.03L445.476 91.712H444.036L447.51 101.36L446.808 103.34H445.35V104.6H446.088C447.456 104.6 447.834 104.276 448.248 103.16L452.406 91.712H450.984L448.734 98.03Z" fill="white"/>
<path d="M432.265 109.88C432.265 111.83 433.085 113.53 434.075 114.37H434.835C433.755 113.41 433.015 111.72 433.015 110.32V109.46C433.015 108.06 433.725 106.4 434.835 105.4H434.075C433.055 106.27 432.265 107.95 432.265 109.88ZM437.594 105.48C436.174 105.48 435.344 106.42 435.344 109.3C435.344 112.18 436.174 113.12 437.594 113.12C439.014 113.12 439.844 112.18 439.844 109.3C439.844 106.42 439.014 105.48 437.594 105.48ZM436.204 108.32C436.204 106.75 436.714 106.17 437.594 106.17C438.474 106.17 438.984 106.75 438.984 108.32V108.95H436.204V108.32ZM437.594 112.43C436.714 112.43 436.204 111.85 436.204 110.28V109.65H438.984V110.28C438.984 111.85 438.474 112.43 437.594 112.43ZM454.736 109.88C454.736 107.95 453.946 106.27 452.926 105.4H452.166C453.276 106.4 453.986 108.06 453.986 109.46V110.32C453.986 111.72 453.246 113.41 452.166 114.37H452.926C453.916 113.53 454.736 111.83 454.736 109.88Z" fill="white"/>
<path d="M442.131 112.843C442.151 112.743 442.217 112.49 442.237 112.39C442.33 112.031 442.33 112.024 442.483 111.805C442.703 111.479 443.016 111.186 443.461 111.186C443.701 111.186 443.84 111.326 443.84 111.639C443.84 112.004 443.561 112.763 443.435 113.089C443.348 113.308 443.348 113.348 443.348 113.435C443.348 113.814 443.661 114 443.947 114C444.599 114 444.871 113.069 444.871 112.982C444.871 112.916 444.818 112.896 444.772 112.896C444.692 112.896 444.678 112.942 444.659 113.009C444.499 113.554 444.22 113.814 443.967 113.814C443.86 113.814 443.807 113.747 443.807 113.594C443.807 113.441 443.86 113.295 443.927 113.129C444.027 112.876 444.319 112.111 444.319 111.738C444.319 111.239 443.973 111 443.494 111C442.956 111 442.61 111.326 442.417 111.579C442.37 111.213 442.078 111 441.738 111C441.499 111 441.333 111.153 441.226 111.359C441.067 111.672 441 112.004 441 112.018C441 112.078 441.047 112.104 441.1 112.104C441.186 112.104 441.193 112.078 441.239 111.905C441.319 111.579 441.439 111.186 441.718 111.186C441.891 111.186 441.931 111.353 441.931 111.499C441.931 111.619 441.898 111.745 441.845 111.965C441.831 112.018 441.732 112.41 441.705 112.503L441.459 113.501C441.432 113.601 441.392 113.767 441.392 113.794C441.392 113.947 441.519 114 441.605 114C441.725 114 441.825 113.92 441.871 113.84C441.891 113.8 441.945 113.574 441.978 113.435L442.131 112.843Z" fill="white"/>
<path d="M447.097 112.597H448.343C448.403 112.597 448.496 112.597 448.496 112.5C448.496 112.403 448.403 112.403 448.343 112.403H447.097V111.153C447.097 111.093 447.097 111 447 111C446.903 111 446.903 111.093 446.903 111.153V112.403H445.653C445.593 112.403 445.5 112.403 445.5 112.5C445.5 112.597 445.593 112.597 445.653 112.597H446.903V113.847C446.903 113.907 446.903 114 447 114C447.097 114 447.097 113.907 447.097 113.847V112.597Z" fill="white"/>
<path d="M450.811 110.168C450.811 110.006 450.799 110 450.637 110C450.39 110.241 450.071 110.385 449.5 110.385V110.583C449.662 110.583 449.987 110.583 450.336 110.421V113.507C450.336 113.729 450.318 113.802 449.747 113.802H449.536V114C449.783 113.982 450.3 113.982 450.571 113.982C450.841 113.982 451.365 113.982 451.611 114V113.802H451.401C450.829 113.802 450.811 113.729 450.811 113.507V110.168Z" fill="white"/>
<rect x="427" y="133" width="32" height="32" fill="#6929C4"/>
<path d="M435.473 143.6H438.407L441.125 149H442.835L439.955 143.456C441.593 143.078 442.475 141.836 442.475 140C442.475 137.714 441.161 136.436 438.965 136.436H433.961V149H435.473V143.6ZM435.473 142.304V137.768H438.965C440.153 137.768 440.855 138.416 440.855 139.568V140.504C440.855 141.656 440.153 142.304 438.965 142.304H435.473ZM448.734 146.03L448.23 147.542H448.14L447.708 146.03L445.476 139.712H444.036L447.51 149.36L446.808 151.34H445.35V152.6H446.088C447.456 152.6 447.834 152.276 448.248 151.16L452.406 139.712H450.984L448.734 146.03Z" fill="white"/>
<path d="M432.265 157.88C432.265 159.83 433.085 161.53 434.075 162.37H434.835C433.755 161.41 433.015 159.72 433.015 158.32V157.46C433.015 156.06 433.725 154.4 434.835 153.4H434.075C433.055 154.27 432.265 155.95 432.265 157.88ZM437.594 153.48C436.174 153.48 435.344 154.42 435.344 157.3C435.344 160.18 436.174 161.12 437.594 161.12C439.014 161.12 439.844 160.18 439.844 157.3C439.844 154.42 439.014 153.48 437.594 153.48ZM436.204 156.32C436.204 154.75 436.714 154.17 437.594 154.17C438.474 154.17 438.984 154.75 438.984 156.32V156.95H436.204V156.32ZM437.594 160.43C436.714 160.43 436.204 159.85 436.204 158.28V157.65H438.984V158.28C438.984 159.85 438.474 160.43 437.594 160.43ZM454.736 157.88C454.736 155.95 453.946 154.27 452.926 153.4H452.166C453.276 154.4 453.986 156.06 453.986 157.46V158.32C453.986 159.72 453.246 161.41 452.166 162.37H452.926C453.916 161.53 454.736 159.83 454.736 157.88Z" fill="white"/>
<path d="M442.131 160.843C442.151 160.743 442.217 160.49 442.237 160.39C442.33 160.031 442.33 160.024 442.483 159.805C442.703 159.479 443.016 159.186 443.461 159.186C443.701 159.186 443.84 159.326 443.84 159.639C443.84 160.004 443.561 160.763 443.435 161.089C443.348 161.308 443.348 161.348 443.348 161.435C443.348 161.814 443.661 162 443.947 162C444.599 162 444.871 161.069 444.871 160.982C444.871 160.916 444.818 160.896 444.772 160.896C444.692 160.896 444.678 160.942 444.659 161.009C444.499 161.554 444.22 161.814 443.967 161.814C443.86 161.814 443.807 161.747 443.807 161.594C443.807 161.441 443.86 161.295 443.927 161.129C444.027 160.876 444.319 160.111 444.319 159.738C444.319 159.239 443.973 159 443.494 159C442.956 159 442.61 159.326 442.417 159.579C442.37 159.213 442.078 159 441.738 159C441.499 159 441.333 159.153 441.226 159.359C441.067 159.672 441 160.004 441 160.018C441 160.078 441.047 160.104 441.1 160.104C441.186 160.104 441.193 160.078 441.239 159.905C441.319 159.579 441.439 159.186 441.718 159.186C441.891 159.186 441.931 159.353 441.931 159.499C441.931 159.619 441.898 159.745 441.845 159.965C441.831 160.018 441.732 160.41 441.705 160.503L441.459 161.501C441.432 161.601 441.392 161.767 441.392 161.794C441.392 161.947 441.519 162 441.605 162C441.725 162 441.825 161.92 441.871 161.84C441.891 161.8 441.945 161.574 441.978 161.435L442.131 160.843Z" fill="white"/>
<path d="M447.097 160.597H448.343C448.403 160.597 448.496 160.597 448.496 160.5C448.496 160.403 448.403 160.403 448.343 160.403H447.097V159.153C447.097 159.093 447.097 159 447 159C446.903 159 446.903 159.093 446.903 159.153V160.403H445.653C445.593 160.403 445.5 160.403 445.5 160.5C445.5 160.597 445.593 160.597 445.653 160.597H446.903V161.847C446.903 161.907 446.903 162 447 162C447.097 162 447.097 161.907 447.097 161.847V160.597Z" fill="white"/>
<path d="M450.377 161.273C450.474 161.183 450.726 160.984 450.823 160.9C451.195 160.557 451.55 160.226 451.55 159.679C451.55 158.963 450.949 158.5 450.197 158.5C449.475 158.5 449 159.047 449 159.583C449 159.877 449.235 159.92 449.319 159.92C449.445 159.92 449.632 159.829 449.632 159.601C449.632 159.288 449.331 159.288 449.259 159.288C449.433 158.849 449.836 158.698 450.131 158.698C450.69 158.698 450.979 159.174 450.979 159.679C450.979 160.305 450.54 160.762 449.83 161.489L449.072 162.271C449 162.338 449 162.35 449 162.5H451.376L451.55 161.423H451.364C451.346 161.544 451.298 161.844 451.226 161.959C451.189 162.007 450.732 162.007 450.636 162.007H449.565L450.377 161.273Z" fill="white"/>
<line x1="141" y1="184" x2="141" y2="200" stroke="black" stroke-width="2" stroke-linecap="round" stroke-dasharray="0.1 6"/>
<line x1="326.583" y1="176.397" x2="335.914" y2="189.395" stroke="black" stroke-width="2" stroke-linecap="round" stroke-dasharray="0.1 6"/>
<path d="M109 23C99.9333 31.125 109.301 89.2799 101 126.188C107.087 150.625 101 218.812 109 231" stroke="black"/>
<line x1="368" y1="150" x2="384" y2="150" stroke="black" stroke-width="2" stroke-linecap="round" stroke-dasharray="0.1 6"/>
<line x1="368" y1="102" x2="384" y2="102" stroke="black" stroke-width="2" stroke-linecap="round" stroke-dasharray="0.1 6"/>
<line x1="368" y1="54" x2="384" y2="54" stroke="black" stroke-width="2" stroke-linecap="round" stroke-dasharray="0.1 6"/>
<line x1="529" y1="150" x2="545" y2="150" stroke="black" stroke-width="2" stroke-linecap="round" stroke-dasharray="0.1 6"/>
<line x1="529" y1="101" x2="545" y2="101" stroke="black" stroke-width="2" stroke-linecap="round" stroke-dasharray="0.1 6"/>
<line x1="529" y1="54" x2="545" y2="54" stroke="black" stroke-width="2" stroke-linecap="round" stroke-dasharray="0.1 6"/>
<path d="M28.31 129V123.988C28.31 123.064 29.178 122.616 30.074 122.616C31.152 122.616 31.712 123.274 31.712 124.562V129H32.832V124.366C32.832 122.616 31.894 121.608 30.41 121.608C29.332 121.608 28.716 122.14 28.366 122.952H28.31V121.776H27.19V129H28.31ZM43.3956 131.8H44.5156V121.776H43.3956V122.952H43.3396C42.9616 122.042 42.2196 121.608 41.2256 121.608C39.4196 121.608 38.2856 123.078 38.2856 125.388C38.2856 127.698 39.4196 129.168 41.2256 129.168C42.2196 129.168 42.9056 128.72 43.3396 127.824H43.3956V131.8ZM41.5336 128.16C40.2736 128.16 39.4896 127.292 39.4896 126.004V124.772C39.4896 123.484 40.2736 122.616 41.5336 122.616C42.5556 122.616 43.3956 123.204 43.3956 124.002V126.69C43.3956 127.628 42.5556 128.16 41.5336 128.16ZM51.5087 129H52.6287V121.776H51.5087V126.774C51.5087 127.726 50.6407 128.16 49.7587 128.16C48.6807 128.16 48.1067 127.502 48.1067 126.214V121.776H46.9867V126.41C46.9867 128.16 47.9387 129.168 49.4227 129.168C50.6267 129.168 51.1727 128.51 51.4527 127.824H51.5087V129ZM55.7337 120.082C56.2097 120.082 56.4197 119.83 56.4197 119.452V119.27C56.4197 118.892 56.2097 118.64 55.7337 118.64C55.2577 118.64 55.0477 118.892 55.0477 119.27V119.452C55.0477 119.83 55.2577 120.082 55.7337 120.082ZM55.1737 129H56.2937V121.776H55.1737V129ZM58.8337 129H59.9537V127.824H60.0097C60.4437 128.72 61.1297 129.168 62.1237 129.168C63.9297 129.168 65.0637 127.698 65.0637 125.388C65.0637 123.078 63.9297 121.608 62.1237 121.608C61.1297 121.608 60.3877 122.042 60.0097 122.952H59.9537V118.64H58.8337V129ZM61.8157 128.16C60.7937 128.16 59.9537 127.628 59.9537 126.69V124.002C59.9537 123.204 60.7937 122.616 61.8157 122.616C63.0757 122.616 63.8597 123.484 63.8597 124.772V126.004C63.8597 127.292 63.0757 128.16 61.8157 128.16ZM67.6748 120.082C68.1508 120.082 68.3608 119.83 68.3608 119.452V119.27C68.3608 118.892 68.1508 118.64 67.6748 118.64C67.1988 118.64 66.9888 118.892 66.9888 119.27V119.452C66.9888 119.83 67.1988 120.082 67.6748 120.082ZM67.1148 129H68.2348V121.776H67.1148V129ZM73.7708 129V128.02H72.3008V122.756H73.8828V121.776H72.3008V119.774H71.2928V121.118C71.2928 121.608 71.1388 121.776 70.6628 121.776H69.9908V122.756H71.1808V127.81C71.1808 128.51 71.6008 129 72.3708 129H73.7708ZM78.013 129.168C79.665 129.168 80.687 128.314 80.687 126.914C80.687 125.822 80.071 125.122 78.475 124.884L77.915 124.8C77.019 124.66 76.529 124.38 76.529 123.68C76.529 122.994 77.019 122.56 77.943 122.56C78.867 122.56 79.483 122.994 79.805 123.442L80.547 122.77C79.959 122.042 79.189 121.608 78.027 121.608C76.557 121.608 75.451 122.308 75.451 123.736C75.451 125.08 76.445 125.626 77.775 125.822L78.349 125.906C79.301 126.046 79.609 126.48 79.609 127.04C79.609 127.782 79.049 128.216 78.097 128.216C77.187 128.216 76.515 127.81 75.955 127.11L75.157 127.754C75.801 128.608 76.683 129.168 78.013 129.168Z" fill="black"/>
<path d="M339.31 229V224.1C339.31 223.414 340.038 222.896 341.242 222.896H341.9V221.776H341.466C340.29 221.776 339.632 222.42 339.38 223.106H339.31V221.776H338.19V229H339.31ZM346.138 229.168C347.496 229.168 348.532 228.496 348.994 227.516L348.196 226.942C347.818 227.74 347.118 228.188 346.208 228.188C344.864 228.188 344.066 227.25 344.066 226.004V225.668H349.26V225.136C349.26 223.092 348.07 221.608 346.138 221.608C344.178 221.608 342.89 223.092 342.89 225.388C342.89 227.684 344.178 229.168 346.138 229.168ZM346.138 222.546C347.286 222.546 348.056 223.4 348.056 224.674V224.828H344.066V224.73C344.066 223.47 344.92 222.546 346.138 222.546ZM351.266 231.8H352.386V227.824H352.442C352.876 228.72 353.562 229.168 354.556 229.168C356.362 229.168 357.496 227.698 357.496 225.388C357.496 223.078 356.362 221.608 354.556 221.608C353.562 221.608 352.82 222.042 352.442 222.952H352.386V221.776H351.266V231.8ZM354.248 228.16C353.226 228.16 352.386 227.628 352.386 226.69V224.002C352.386 223.204 353.226 222.616 354.248 222.616C355.508 222.616 356.292 223.484 356.292 224.772V226.004C356.292 227.292 355.508 228.16 354.248 228.16ZM362.263 229.168C363.621 229.168 364.657 228.496 365.119 227.516L364.321 226.942C363.943 227.74 363.243 228.188 362.333 228.188C360.989 228.188 360.191 227.25 360.191 226.004V225.668H365.385V225.136C365.385 223.092 364.195 221.608 362.263 221.608C360.303 221.608 359.015 223.092 359.015 225.388C359.015 227.684 360.303 229.168 362.263 229.168ZM362.263 222.546C363.411 222.546 364.181 223.4 364.181 224.674V224.828H360.191V224.73C360.191 223.47 361.045 222.546 362.263 222.546ZM373.271 229V228.02H372.445V224.044C372.445 222.518 371.409 221.608 369.673 221.608C368.371 221.608 367.503 222.252 367.111 223.022L367.783 223.652C368.175 222.994 368.749 222.574 369.617 222.574C370.765 222.574 371.325 223.134 371.325 224.156V224.87H369.897C367.797 224.87 366.817 225.626 366.817 226.984C366.817 228.328 367.713 229.168 369.239 229.168C370.247 229.168 371.017 228.706 371.325 227.824H371.395C371.479 228.496 371.815 229 372.641 229H373.271ZM369.421 228.216C368.553 228.216 367.993 227.81 367.993 227.096V226.802C367.993 226.102 368.567 225.71 369.841 225.71H371.325V226.9C371.325 227.642 370.527 228.216 369.421 228.216ZM378.025 229V228.02H376.555V222.756H378.137V221.776H376.555V219.774H375.547V221.118C375.547 221.608 375.393 221.776 374.917 221.776H374.245V222.756H375.435V227.81C375.435 228.51 375.855 229 376.625 229H378.025ZM384.686 229V223.988C384.686 223.064 385.554 222.616 386.45 222.616C387.528 222.616 388.088 223.274 388.088 224.562V229H389.208V224.366C389.208 222.616 388.27 221.608 386.786 221.608C385.708 221.608 385.092 222.14 384.742 222.952H384.686V221.776H383.566V229H384.686ZM398.147 229V228.02H396.677V222.756H398.259V221.776H396.677V219.774H395.669V221.118C395.669 221.608 395.515 221.776 395.039 221.776H394.367V222.756H395.557V227.81C395.557 228.51 395.977 229 396.747 229H398.147ZM400.78 220.082C401.256 220.082 401.466 219.83 401.466 219.452V219.27C401.466 218.892 401.256 218.64 400.78 218.64C400.304 218.64 400.094 218.892 400.094 219.27V219.452C400.094 219.83 400.304 220.082 400.78 220.082ZM400.22 229H401.34V221.776H400.22V229ZM405 229V223.988C405 223.064 405.84 222.616 406.722 222.616C407.786 222.616 408.276 223.274 408.276 224.562V229H409.396V223.988C409.396 223.064 410.208 222.616 411.09 222.616C412.182 222.616 412.672 223.288 412.672 224.562V229H413.792V224.366C413.792 222.616 412.91 221.608 411.44 221.608C410.208 221.608 409.508 222.294 409.242 223.078H409.214C408.822 222.042 407.954 221.608 407.002 221.608C405.882 221.608 405.378 222.21 405.056 222.952H405V221.776H403.88V229H405ZM418.978 229.168C420.336 229.168 421.372 228.496 421.834 227.516L421.036 226.942C420.658 227.74 419.958 228.188 419.048 228.188C417.704 228.188 416.906 227.25 416.906 226.004V225.668H422.1V225.136C422.1 223.092 420.91 221.608 418.978 221.608C417.018 221.608 415.73 223.092 415.73 225.388C415.73 227.684 417.018 229.168 418.978 229.168ZM418.978 222.546C420.126 222.546 420.896 223.4 420.896 224.674V224.828H416.906V224.73C416.906 223.47 417.76 222.546 418.978 222.546ZM426.276 229.168C427.928 229.168 428.95 228.314 428.95 226.914C428.95 225.822 428.334 225.122 426.738 224.884L426.178 224.8C425.282 224.66 424.792 224.38 424.792 223.68C424.792 222.994 425.282 222.56 426.206 222.56C427.13 222.56 427.746 222.994 428.068 223.442L428.81 222.77C428.222 222.042 427.452 221.608 426.29 221.608C424.82 221.608 423.714 222.308 423.714 223.736C423.714 225.08 424.708 225.626 426.038 225.822L426.612 225.906C427.564 226.046 427.872 226.48 427.872 227.04C427.872 227.782 427.312 228.216 426.36 228.216C425.45 228.216 424.778 227.81 424.218 227.11L423.42 227.754C424.064 228.608 424.946 229.168 426.276 229.168Z" fill="black"/>
<rect x="241.5" y="23.5" width="275" height="180" rx="4.5" stroke="black" stroke-dasharray="6 6"/>
<path d="M186.402 19.8801C186.402 19.8352 186.402 19.8052 186.147 19.5504C184.648 18.037 183.809 15.5644 183.809 12.5075C183.809 9.6004 184.513 7.0979 186.252 5.32967C186.402 5.1948 186.402 5.16484 186.402 5.11988C186.402 5.02997 186.327 5 186.267 5C186.072 5 184.843 6.07892 184.109 7.54745C183.345 9.06094 183 10.6643 183 12.5075C183 13.8412 183.21 15.6244 183.989 17.2278C184.873 19.026 186.102 20 186.267 20C186.327 20 186.402 19.97 186.402 19.8801Z" fill="white"/>
<path d="M193.876 8.70144C193.876 7.17297 193.396 5.68945 192.168 5.68945C190.07 5.68945 187.837 10.0801 187.837 13.3768C187.837 14.0661 187.987 16.3888 189.56 16.3888C191.598 16.3888 193.876 12.103 193.876 8.70144ZM189.335 10.8143C189.56 9.93021 189.875 8.67147 190.474 7.60753C190.969 6.70843 191.493 5.98915 192.153 5.98915C192.647 5.98915 192.977 6.40873 192.977 7.8473C192.977 8.38676 192.932 9.13601 192.497 10.8143H189.335ZM192.392 11.2639C192.018 12.7324 191.703 13.6765 191.164 14.6205C190.729 15.3848 190.205 16.0891 189.575 16.0891C189.111 16.0891 188.736 15.7294 188.736 14.2459C188.736 13.2719 188.976 12.2529 189.216 11.2639H192.392Z" fill="white"/>
<path d="M198.96 15.3003C198.96 14.2314 198.85 13.582 198.521 12.9427C198.081 12.0635 197.272 11.8438 196.723 11.8438C195.464 11.8438 195.004 12.7828 194.864 13.0625C194.505 13.7918 194.485 14.7808 194.485 15.3003C194.485 15.9596 194.515 16.9686 194.994 17.7678C195.454 18.5071 196.193 18.6969 196.723 18.6969C197.202 18.6969 198.061 18.547 198.561 17.558C198.93 16.8388 198.96 15.9496 198.96 15.3003ZM196.723 18.4172C196.383 18.4172 195.694 18.2573 195.484 17.2084C195.374 16.639 195.374 15.6999 195.374 15.1804C195.374 14.4911 195.374 13.7918 195.484 13.2424C195.694 12.2234 196.473 12.1235 196.723 12.1235C197.062 12.1235 197.752 12.2933 197.951 13.2024C198.071 13.7518 198.071 14.5011 198.071 15.1804C198.071 15.7698 198.071 16.6689 197.951 17.2284C197.742 18.2773 197.052 18.4172 196.723 18.4172Z" fill="white"/>
<path d="M204.233 12.5075C204.233 11.3686 204.083 9.51049 203.244 7.77223C202.359 5.97403 201.131 5 200.966 5C200.906 5 200.831 5.02997 200.831 5.11988C200.831 5.16484 200.831 5.1948 201.086 5.44955C202.584 6.96304 203.423 9.43557 203.423 12.4925C203.423 15.3996 202.719 17.9021 200.981 19.6703C200.831 19.8052 200.831 19.8352 200.831 19.8801C200.831 19.97 200.906 20 200.966 20C201.161 20 202.389 18.9211 203.124 17.4525C203.888 15.9241 204.233 14.3057 204.233 12.5075Z" fill="white"/>
</svg>
