<svg width="740" height="392" viewBox="0 0 740 392" fill="none" xmlns="http://www.w3.org/2000/svg">
<rect opacity="0.4" x="4" y="312" width="735.118" height="40" fill="#F2F4F8"/>
<rect opacity="0.4" x="4" y="232" width="735.118" height="40" fill="#F2F4F8"/>
<rect opacity="0.4" x="4" y="152" width="735.118" height="40" fill="#F2F4F8"/>
<rect opacity="0.4" x="4" y="72" width="735.118" height="40" fill="#F2F4F8"/>
<line x1="188.28" y1="33.3027" x2="188.28" y2="387.692" stroke="#DDE1E6"/>
<line x1="372.059" y1="33.3027" x2="372.059" y2="387.692" stroke="#DDE1E6"/>
<line x1="555.839" y1="33.3027" x2="555.839" y2="387.692" stroke="#DDE1E6"/>
<rect x="4.5" y="33.8037" width="734.118" height="353.389" stroke="#DDE1E6"/>
<path d="M4 330.642L727.952 325.991" stroke="#0E6027"/>
<path d="M10.2009 101.209C175.502 199.132 500.845 333.742 541.151 322.115" stroke="#0F62FE" stroke-dasharray="6 6"/>
<path d="M7.87563 105.86C7.87563 105.86 15.6267 96.5586 18.7272 96.5586C21.8276 96.5586 48.1813 157.792 50.5066 158.567C52.832 159.342 60.5831 157.017 62.1333 158.567C63.6835 160.118 65.2337 181.821 66.0088 184.146C66.7839 186.471 85.3865 218.251 88.487 220.576C91.5874 222.901 104.764 220.576 111.74 225.227C118.716 229.877 134.994 298.862 139.644 298.862C144.295 298.862 156.697 298.087 158.247 298.862C159.797 299.637 163.673 308.163 164.448 308.163C165.223 308.163 174.524 298.862 176.074 298.862C177.625 298.862 185.376 308.163 186.926 308.163C188.476 308.163 201.653 298.862 208.629 298.862C215.605 298.862 228.782 322.89 234.983 322.89C241.183 322.89 250.485 317.465 254.36 317.465C258.236 317.465 259.786 322.89 263.662 322.89C267.537 322.89 274.513 317.465 277.614 317.465C280.714 317.465 286.915 322.115 288.465 322.89C290.015 323.666 295.441 320.565 298.542 322.89C301.642 325.216 301.642 325.991 303.192 326.766C304.742 327.541 319.47 321.34 323.345 322.89C327.221 324.441 334.972 332.192 338.072 332.192C341.173 332.192 350.474 325.991 355.125 326.766C359.775 327.541 362.876 332.192 365.976 332.192C369.077 332.192 372.952 326.766 376.052 326.766C379.153 326.766 383.028 332.192 386.904 332.192C390.78 332.192 414.808 326.766 420.234 329.866C425.659 332.967 429.535 334.517 432.635 334.517C435.736 334.517 438.061 326.766 441.937 326.766C445.812 326.766 449.688 330.642 453.563 332.192C457.439 333.742 468.29 329.091 475.266 329.866C482.242 330.642 481.467 332.192 485.343 332.192C489.218 332.192 493.869 322.115 499.295 322.89C504.721 323.666 506.271 332.192 509.371 332.192C512.472 332.192 514.797 329.091 517.897 326.766C520.998 324.441 525.649 327.541 527.974 326.766C530.299 325.991 528.749 323.666 531.074 322.89C533.4 322.115 538.05 322.89 539.601 322.89C541.151 322.89 542.701 319.015 548.127 317.465C553.552 315.914 568.28 336.067 574.48 334.517C580.681 332.967 579.906 330.642 583.782 329.866C587.657 329.091 603.935 328.316 606.26 326.766C608.585 325.216 608.585 322.89 610.135 322.89C611.686 322.89 617.111 329.866 619.437 329.866C621.762 329.866 624.863 327.541 627.188 326.766C629.513 325.991 634.164 329.866 636.489 329.866C638.814 329.866 646.566 323.666 650.441 322.89C654.317 322.115 658.192 326.766 660.518 326.766C662.843 326.766 664.393 323.666 666.718 322.89C669.044 322.115 672.919 325.991 674.47 326.766C676.02 327.541 688.421 330.642 691.522 329.866C694.622 329.091 700.823 323.666 703.149 322.89C705.474 322.115 710.9 322.115 713.225 322.89C715.55 323.666 717.101 329.091 720.201 329.866C723.301 330.642 725.627 326.766 727.952 326.766" stroke="#0F62FE"/>
<path d="M4.35355 32.6465C4.15829 32.4512 3.84171 32.4512 3.64645 32.6465L0.464466 35.8284C0.269204 36.0237 0.269204 36.3403 0.464466 36.5355C0.659728 36.7308 0.976311 36.7308 1.17157 36.5355L4 33.7071L6.82843 36.5355C7.02369 36.7308 7.34027 36.7308 7.53553 36.5355C7.7308 36.3403 7.7308 36.0237 7.53553 35.8284L4.35355 32.6465ZM4.5 386L4.5 33H3.5L3.5 386H4.5Z" fill="black"/>
<path d="M739.471 388.355C739.666 388.16 739.667 387.843 739.472 387.648L736.297 384.459C736.102 384.263 735.785 384.263 735.59 384.458C735.394 384.653 735.393 384.969 735.588 385.165L738.411 387.999L735.576 390.822C735.381 391.016 735.38 391.333 735.575 391.529C735.77 391.724 736.086 391.725 736.282 391.53L739.471 388.355ZM3.99898 386.995L739.117 388.5L739.119 387.5L4.00102 385.995L3.99898 386.995Z" fill="black"/>
<path d="M41.833 5.56339C42.179 5.56339 42.3174 5.56339 42.3174 5.2597C42.3174 5.09986 42.179 5.09986 41.8676 5.09986H40.4664C40.7951 3.45355 41.0373 2.31871 41.1757 1.80723C41.2795 1.42362 41.6428 1.056 42.0925 1.056C42.4558 1.056 42.8191 1.19985 42.9921 1.34371C42.3174 1.40764 42.1098 1.87117 42.1098 2.14289C42.1098 2.46256 42.3693 2.65437 42.698 2.65437C43.044 2.65437 43.5629 2.38264 43.5629 1.77527C43.5629 1.10395 42.8364 0.736328 42.0752 0.736328C41.3314 0.736328 40.6048 1.2478 40.2588 1.87117C39.9475 2.43059 39.7745 3.00601 39.3766 5.09986H38.2176C37.8889 5.09986 37.7159 5.09986 37.7159 5.38757C37.7159 5.56339 37.8197 5.56339 38.1657 5.56339H39.2728C38.9614 7.04987 38.2522 10.6622 37.8543 12.3724C37.5602 13.763 37.3007 14.9298 36.4358 14.9298C36.3839 14.9298 35.8822 14.9298 35.5709 14.6261C36.4531 14.5622 36.4531 13.8589 36.4531 13.8429C36.4531 13.5232 36.1936 13.3314 35.8649 13.3314C35.519 13.3314 35 13.6032 35 14.2105C35 14.8978 35.7611 15.2495 36.4358 15.2495C38.2003 15.2495 38.9268 12.3245 39.1171 11.5253C39.4285 10.2945 40.2761 6.0429 40.3626 5.56339H41.833Z" fill="black"/>
<path d="M49.9363 15.8721C49.9363 15.8242 49.9363 15.7922 49.6422 15.5205C47.9123 13.9061 46.9436 11.2687 46.9436 8.00799C46.9436 4.90709 47.7567 2.23776 49.7633 0.351649C49.9363 0.207792 49.9363 0.175825 49.9363 0.127872C49.9363 0.0319678 49.8498 0 49.7806 0C49.5557 0 48.1372 1.15085 47.2896 2.71728C46.4073 4.33167 46.0095 6.04196 46.0095 8.00799C46.0095 9.43057 46.2517 11.3327 47.1512 13.043C48.1718 14.961 49.5903 16 49.7806 16C49.8498 16 49.9363 15.968 49.9363 15.8721Z" fill="black"/>
<path d="M58.5645 3.9491C58.5645 2.31874 58.0109 0.736328 56.5924 0.736328C54.1706 0.736328 51.593 5.41962 51.593 8.93609C51.593 9.67135 51.766 12.1489 53.5824 12.1489C55.935 12.1489 58.5645 7.57745 58.5645 3.9491ZM53.3229 6.20283C53.5824 5.25978 53.9457 3.91713 54.6376 2.78227C55.2085 1.82324 55.814 1.05601 56.5751 1.05601C57.146 1.05601 57.5265 1.50356 57.5265 3.03801C57.5265 3.61344 57.4746 4.41263 56.973 6.20283H53.3229ZM56.8519 6.68235C56.4194 8.24878 56.0561 9.25576 55.4334 10.2628C54.9317 11.0779 54.3263 11.8292 53.5997 11.8292C53.0634 11.8292 52.631 11.4456 52.631 9.86315C52.631 8.8242 52.9078 7.73729 53.1845 6.68235H56.8519Z" fill="black"/>
<path d="M64.1433 8.00799C64.1433 6.79321 63.9703 4.81119 63.0016 2.95704C61.981 1.03896 60.5625 0 60.3722 0C60.303 0 60.2165 0.0319678 60.2165 0.127872C60.2165 0.175825 60.2165 0.207792 60.5106 0.47952C62.2405 2.09391 63.2092 4.73127 63.2092 7.99201C63.2092 11.0929 62.3961 13.7622 60.3895 15.6484C60.2165 15.7922 60.2165 15.8242 60.2165 15.8721C60.2165 15.968 60.303 16 60.3722 16C60.5971 16 62.0156 14.8492 62.8632 13.2827C63.7455 11.6523 64.1433 9.92607 64.1433 8.00799Z" fill="black"/>
<path d="M4.116 13V4.624H5.124V12.112H8.688V13H4.116ZM12.5745 13.144C12.1585 13.144 11.7785 13.068 11.4345 12.916C11.0905 12.764 10.7945 12.548 10.5465 12.268C10.3065 11.98 10.1185 11.64 9.98253 11.248C9.84653 10.848 9.77853 10.4 9.77853 9.904C9.77853 9.416 9.84653 8.972 9.98253 8.572C10.1185 8.172 10.3065 7.832 10.5465 7.552C10.7945 7.264 11.0905 7.044 11.4345 6.892C11.7785 6.74 12.1585 6.664 12.5745 6.664C12.9905 6.664 13.3665 6.74 13.7025 6.892C14.0465 7.044 14.3425 7.264 14.5905 7.552C14.8385 7.832 15.0305 8.172 15.1665 8.572C15.3025 8.972 15.3705 9.416 15.3705 9.904C15.3705 10.4 15.3025 10.848 15.1665 11.248C15.0305 11.64 14.8385 11.98 14.5905 12.268C14.3425 12.548 14.0465 12.764 13.7025 12.916C13.3665 13.068 12.9905 13.144 12.5745 13.144ZM12.5745 12.292C13.0945 12.292 13.5185 12.132 13.8465 11.812C14.1745 11.492 14.3385 11.004 14.3385 10.348V9.46C14.3385 8.804 14.1745 8.316 13.8465 7.996C13.5185 7.676 13.0945 7.516 12.5745 7.516C12.0545 7.516 11.6305 7.676 11.3025 7.996C10.9745 8.316 10.8105 8.804 10.8105 9.46V10.348C10.8105 11.004 10.9745 11.492 11.3025 11.812C11.6305 12.132 12.0545 12.292 12.5745 12.292ZM19.1294 13.144C18.5534 13.144 18.0694 13.036 17.6774 12.82C17.2934 12.596 16.9614 12.3 16.6814 11.932L17.3654 11.38C17.6054 11.684 17.8734 11.92 18.1694 12.088C18.4654 12.248 18.8094 12.328 19.2014 12.328C19.6094 12.328 19.9254 12.24 20.1494 12.064C20.3814 11.888 20.4974 11.64 20.4974 11.32C20.4974 11.08 20.4174 10.876 20.2574 10.708C20.1054 10.532 19.8254 10.412 19.4174 10.348L18.9254 10.276C18.6374 10.236 18.3734 10.176 18.1334 10.096C17.8934 10.008 17.6814 9.896 17.4974 9.76C17.3214 9.616 17.1814 9.44 17.0774 9.232C16.9814 9.024 16.9334 8.776 16.9334 8.488C16.9334 8.184 16.9894 7.92 17.1014 7.696C17.2134 7.464 17.3654 7.272 17.5574 7.12C17.7574 6.968 17.9934 6.856 18.2654 6.784C18.5374 6.704 18.8294 6.664 19.1414 6.664C19.6454 6.664 20.0654 6.752 20.4014 6.928C20.7454 7.104 21.0454 7.348 21.3014 7.66L20.6654 8.236C20.5294 8.044 20.3294 7.872 20.0654 7.72C19.8014 7.56 19.4694 7.48 19.0694 7.48C18.6694 7.48 18.3654 7.568 18.1574 7.744C17.9574 7.912 17.8574 8.144 17.8574 8.44C17.8574 8.744 17.9574 8.964 18.1574 9.1C18.3654 9.236 18.6614 9.336 19.0454 9.4L19.5254 9.472C20.2134 9.576 20.7014 9.776 20.9894 10.072C21.2774 10.36 21.4214 10.74 21.4214 11.212C21.4214 11.812 21.2174 12.284 20.8094 12.628C20.4014 12.972 19.8414 13.144 19.1294 13.144ZM25.2267 13.144C24.6507 13.144 24.1667 13.036 23.7747 12.82C23.3907 12.596 23.0587 12.3 22.7787 11.932L23.4627 11.38C23.7027 11.684 23.9707 11.92 24.2667 12.088C24.5627 12.248 24.9067 12.328 25.2987 12.328C25.7067 12.328 26.0227 12.24 26.2467 12.064C26.4787 11.888 26.5947 11.64 26.5947 11.32C26.5947 11.08 26.5147 10.876 26.3547 10.708C26.2027 10.532 25.9227 10.412 25.5147 10.348L25.0227 10.276C24.7347 10.236 24.4707 10.176 24.2307 10.096C23.9907 10.008 23.7787 9.896 23.5947 9.76C23.4187 9.616 23.2787 9.44 23.1747 9.232C23.0787 9.024 23.0307 8.776 23.0307 8.488C23.0307 8.184 23.0867 7.92 23.1987 7.696C23.3107 7.464 23.4627 7.272 23.6547 7.12C23.8547 6.968 24.0907 6.856 24.3627 6.784C24.6347 6.704 24.9267 6.664 25.2387 6.664C25.7427 6.664 26.1627 6.752 26.4987 6.928C26.8427 7.104 27.1427 7.348 27.3987 7.66L26.7627 8.236C26.6267 8.044 26.4267 7.872 26.1627 7.72C25.8987 7.56 25.5667 7.48 25.1667 7.48C24.7667 7.48 24.4627 7.568 24.2547 7.744C24.0547 7.912 23.9547 8.144 23.9547 8.44C23.9547 8.744 24.0547 8.964 24.2547 9.1C24.4627 9.236 24.7587 9.336 25.1427 9.4L25.6227 9.472C26.3107 9.576 26.7987 9.776 27.0867 10.072C27.3747 10.36 27.5187 10.74 27.5187 11.212C27.5187 11.812 27.3147 12.284 26.9067 12.628C26.4987 12.972 25.9387 13.144 25.2267 13.144Z" fill="black"/>
<path d="M269.116 142V133.624H274.108V134.512H270.124V137.32H273.76V138.208H270.124V142H269.116ZM276.523 134.356C276.315 134.356 276.163 134.308 276.067 134.212C275.979 134.108 275.935 133.976 275.935 133.816V133.66C275.935 133.5 275.979 133.372 276.067 133.276C276.163 133.172 276.315 133.12 276.523 133.12C276.731 133.12 276.879 133.172 276.967 133.276C277.063 133.372 277.111 133.5 277.111 133.66V133.816C277.111 133.976 277.063 134.108 276.967 134.212C276.879 134.308 276.731 134.356 276.523 134.356ZM276.043 135.808H277.003V142H276.043V135.808ZM278.595 142L280.887 138.88L278.691 135.808H279.819L281.391 138.112H281.427L283.059 135.808H284.127L281.943 138.808L284.175 142H283.047L281.439 139.576H281.403L279.663 142H278.595ZM287.953 142.144C287.529 142.144 287.145 142.068 286.801 141.916C286.465 141.764 286.173 141.548 285.925 141.268C285.685 140.98 285.497 140.64 285.361 140.248C285.233 139.848 285.169 139.4 285.169 138.904C285.169 138.416 285.233 137.972 285.361 137.572C285.497 137.172 285.685 136.832 285.925 136.552C286.173 136.264 286.465 136.044 286.801 135.892C287.145 135.74 287.529 135.664 287.953 135.664C288.369 135.664 288.741 135.74 289.069 135.892C289.397 136.044 289.677 136.256 289.909 136.528C290.141 136.792 290.317 137.108 290.437 137.476C290.565 137.844 290.629 138.248 290.629 138.688V139.144H286.177V139.432C286.177 139.696 286.217 139.944 286.297 140.176C286.385 140.4 286.505 140.596 286.657 140.764C286.817 140.932 287.009 141.064 287.233 141.16C287.465 141.256 287.725 141.304 288.013 141.304C288.405 141.304 288.745 141.212 289.033 141.028C289.329 140.844 289.557 140.58 289.717 140.236L290.401 140.728C290.201 141.152 289.889 141.496 289.465 141.76C289.041 142.016 288.537 142.144 287.953 142.144ZM287.953 136.468C287.689 136.468 287.449 136.516 287.233 136.612C287.017 136.7 286.829 136.828 286.669 136.996C286.517 137.164 286.397 137.364 286.309 137.596C286.221 137.82 286.177 138.068 286.177 138.34V138.424H289.597V138.292C289.597 137.74 289.445 137.3 289.141 136.972C288.845 136.636 288.449 136.468 287.953 136.468ZM296.49 140.992H296.442C296.066 141.76 295.462 142.144 294.63 142.144C294.246 142.144 293.898 142.068 293.586 141.916C293.274 141.764 293.006 141.548 292.782 141.268C292.566 140.988 292.398 140.648 292.278 140.248C292.166 139.848 292.11 139.4 292.11 138.904C292.11 138.408 292.166 137.96 292.278 137.56C292.398 137.16 292.566 136.82 292.782 136.54C293.006 136.26 293.274 136.044 293.586 135.892C293.898 135.74 294.246 135.664 294.63 135.664C295.062 135.664 295.43 135.76 295.734 135.952C296.046 136.136 296.282 136.424 296.442 136.816H296.49V133.12H297.45V142H296.49V140.992ZM294.894 141.28C295.11 141.28 295.314 141.252 295.506 141.196C295.706 141.14 295.878 141.06 296.022 140.956C296.166 140.844 296.278 140.712 296.358 140.56C296.446 140.4 296.49 140.22 296.49 140.02V137.716C296.49 137.548 296.446 137.392 296.358 137.248C296.278 137.096 296.166 136.968 296.022 136.864C295.878 136.76 295.706 136.68 295.506 136.624C295.314 136.56 295.11 136.528 294.894 136.528C294.35 136.528 293.922 136.7 293.61 137.044C293.298 137.38 293.142 137.824 293.142 138.376V139.432C293.142 139.984 293.298 140.432 293.61 140.776C293.922 141.112 294.35 141.28 294.894 141.28Z" fill="black"/>
<path d="M424.116 220V211.624H427.452C428.204 211.624 428.78 211.84 429.18 212.272C429.588 212.696 429.792 213.28 429.792 214.024C429.792 214.768 429.588 215.356 429.18 215.788C428.78 216.212 428.204 216.424 427.452 216.424H425.124V220H424.116ZM425.124 215.536H427.452C427.852 215.536 428.16 215.432 428.376 215.224C428.6 215.016 428.712 214.72 428.712 214.336V213.712C428.712 213.328 428.6 213.032 428.376 212.824C428.16 212.616 427.852 212.512 427.452 212.512H425.124V215.536ZM433.723 220.144C433.307 220.144 432.927 220.068 432.583 219.916C432.239 219.764 431.943 219.548 431.695 219.268C431.455 218.98 431.267 218.64 431.131 218.248C430.995 217.848 430.927 217.4 430.927 216.904C430.927 216.416 430.995 215.972 431.131 215.572C431.267 215.172 431.455 214.832 431.695 214.552C431.943 214.264 432.239 214.044 432.583 213.892C432.927 213.74 433.307 213.664 433.723 213.664C434.139 213.664 434.515 213.74 434.851 213.892C435.195 214.044 435.491 214.264 435.739 214.552C435.987 214.832 436.179 215.172 436.315 215.572C436.451 215.972 436.519 216.416 436.519 216.904C436.519 217.4 436.451 217.848 436.315 218.248C436.179 218.64 435.987 218.98 435.739 219.268C435.491 219.548 435.195 219.764 434.851 219.916C434.515 220.068 434.139 220.144 433.723 220.144ZM433.723 219.292C434.243 219.292 434.667 219.132 434.995 218.812C435.323 218.492 435.487 218.004 435.487 217.348V216.46C435.487 215.804 435.323 215.316 434.995 214.996C434.667 214.676 434.243 214.516 433.723 214.516C433.203 214.516 432.779 214.676 432.451 214.996C432.123 215.316 431.959 215.804 431.959 216.46V217.348C431.959 218.004 432.123 218.492 432.451 218.812C432.779 219.132 433.203 219.292 433.723 219.292ZM437.711 213.808H438.647L439.307 216.484L439.967 219.196H439.991L440.747 216.484L441.527 213.808H442.379L443.183 216.484L443.951 219.196H443.975L444.611 216.484L445.283 213.808H446.183L444.539 220H443.351L442.487 217.024L441.947 215.14H441.923L441.395 217.024L440.531 220H439.367L437.711 213.808ZM450.16 220.144C449.736 220.144 449.352 220.068 449.008 219.916C448.672 219.764 448.38 219.548 448.132 219.268C447.892 218.98 447.704 218.64 447.568 218.248C447.44 217.848 447.376 217.4 447.376 216.904C447.376 216.416 447.44 215.972 447.568 215.572C447.704 215.172 447.892 214.832 448.132 214.552C448.38 214.264 448.672 214.044 449.008 213.892C449.352 213.74 449.736 213.664 450.16 213.664C450.576 213.664 450.948 213.74 451.276 213.892C451.604 214.044 451.884 214.256 452.116 214.528C452.348 214.792 452.524 215.108 452.644 215.476C452.772 215.844 452.836 216.248 452.836 216.688V217.144H448.384V217.432C448.384 217.696 448.424 217.944 448.504 218.176C448.592 218.4 448.712 218.596 448.864 218.764C449.024 218.932 449.216 219.064 449.44 219.16C449.672 219.256 449.932 219.304 450.22 219.304C450.612 219.304 450.952 219.212 451.24 219.028C451.536 218.844 451.764 218.58 451.924 218.236L452.608 218.728C452.408 219.152 452.096 219.496 451.672 219.76C451.248 220.016 450.744 220.144 450.16 220.144ZM450.16 214.468C449.896 214.468 449.656 214.516 449.44 214.612C449.224 214.7 449.036 214.828 448.876 214.996C448.724 215.164 448.604 215.364 448.516 215.596C448.428 215.82 448.384 216.068 448.384 216.34V216.424H451.804V216.292C451.804 215.74 451.652 215.3 451.348 214.972C451.052 214.636 450.656 214.468 450.16 214.468ZM454.738 220V213.808H455.698V214.948H455.758C455.87 214.652 456.07 214.388 456.358 214.156C456.646 213.924 457.042 213.808 457.546 213.808H457.918V214.768H457.354C456.834 214.768 456.426 214.868 456.13 215.068C455.842 215.26 455.698 215.504 455.698 215.8V220H454.738ZM460.484 220C460.148 220 459.892 219.908 459.716 219.724C459.548 219.532 459.464 219.292 459.464 219.004V211.12H460.424V219.16H461.336V220H460.484ZM467.553 220C467.193 220 466.933 219.904 466.773 219.712C466.621 219.52 466.525 219.28 466.485 218.992H466.425C466.289 219.376 466.065 219.664 465.753 219.856C465.441 220.048 465.069 220.144 464.637 220.144C463.981 220.144 463.469 219.976 463.101 219.64C462.741 219.304 462.561 218.848 462.561 218.272C462.561 217.688 462.773 217.24 463.197 216.928C463.629 216.616 464.297 216.46 465.201 216.46H466.425V215.848C466.425 215.408 466.305 215.072 466.065 214.84C465.825 214.608 465.457 214.492 464.961 214.492C464.585 214.492 464.269 214.576 464.013 214.744C463.765 214.912 463.557 215.136 463.389 215.416L462.813 214.876C462.981 214.54 463.249 214.256 463.617 214.024C463.985 213.784 464.449 213.664 465.009 213.664C465.761 213.664 466.345 213.848 466.761 214.216C467.177 214.584 467.385 215.096 467.385 215.752V219.16H468.093V220H467.553ZM464.793 219.328C465.033 219.328 465.253 219.3 465.453 219.244C465.653 219.188 465.825 219.108 465.969 219.004C466.113 218.9 466.225 218.78 466.305 218.644C466.385 218.508 466.425 218.36 466.425 218.2V217.18H465.153C464.601 217.18 464.197 217.26 463.941 217.42C463.693 217.58 463.569 217.812 463.569 218.116V218.368C463.569 218.672 463.677 218.908 463.893 219.076C464.117 219.244 464.417 219.328 464.793 219.328ZM469.1 213.808H470.036L470.696 216.484L471.356 219.196H471.38L472.136 216.484L472.916 213.808H473.768L474.572 216.484L475.34 219.196H475.364L476 216.484L476.672 213.808H477.572L475.928 220H474.74L473.876 217.024L473.336 215.14H473.312L472.784 217.024L471.92 220H470.756L469.1 213.808Z" fill="black"/>
<path d="M23.936 297.512V305H22.928V297.512H20.264V296.624H26.6V297.512H23.936ZM31.8634 305C31.5034 305 31.2434 304.904 31.0834 304.712C30.9314 304.52 30.8354 304.28 30.7954 303.992H30.7354C30.5994 304.376 30.3754 304.664 30.0634 304.856C29.7514 305.048 29.3794 305.144 28.9474 305.144C28.2914 305.144 27.7794 304.976 27.4114 304.64C27.0514 304.304 26.8714 303.848 26.8714 303.272C26.8714 302.688 27.0834 302.24 27.5074 301.928C27.9394 301.616 28.6074 301.46 29.5114 301.46H30.7354V300.848C30.7354 300.408 30.6154 300.072 30.3754 299.84C30.1354 299.608 29.7674 299.492 29.2714 299.492C28.8954 299.492 28.5794 299.576 28.3234 299.744C28.0754 299.912 27.8674 300.136 27.6994 300.416L27.1234 299.876C27.2914 299.54 27.5594 299.256 27.9274 299.024C28.2954 298.784 28.7594 298.664 29.3194 298.664C30.0714 298.664 30.6554 298.848 31.0714 299.216C31.4874 299.584 31.6954 300.096 31.6954 300.752V304.16H32.4034V305H31.8634ZM29.1034 304.328C29.3434 304.328 29.5634 304.3 29.7634 304.244C29.9634 304.188 30.1354 304.108 30.2794 304.004C30.4234 303.9 30.5354 303.78 30.6154 303.644C30.6954 303.508 30.7354 303.36 30.7354 303.2V302.18H29.4634C28.9114 302.18 28.5074 302.26 28.2514 302.42C28.0034 302.58 27.8794 302.812 27.8794 303.116V303.368C27.8794 303.672 27.9874 303.908 28.2034 304.076C28.4274 304.244 28.7274 304.328 29.1034 304.328ZM34.0936 305V298.808H35.0536V299.948H35.1136C35.2256 299.652 35.4256 299.388 35.7136 299.156C36.0016 298.924 36.3976 298.808 36.9016 298.808H37.2736V299.768H36.7096C36.1896 299.768 35.7816 299.868 35.4856 300.068C35.1976 300.26 35.0536 300.504 35.0536 300.8V305H34.0936ZM43.7586 305.684C43.7586 306.324 43.5066 306.792 43.0026 307.088C42.5066 307.392 41.7586 307.544 40.7586 307.544C39.7906 307.544 39.0946 307.412 38.6706 307.148C38.2466 306.884 38.0346 306.508 38.0346 306.02C38.0346 305.684 38.1226 305.42 38.2986 305.228C38.4746 305.044 38.7146 304.908 39.0186 304.82V304.688C38.6506 304.512 38.4666 304.224 38.4666 303.824C38.4666 303.512 38.5666 303.276 38.7666 303.116C38.9666 302.948 39.2226 302.824 39.5346 302.744V302.696C39.1666 302.52 38.8786 302.268 38.6706 301.94C38.4706 301.612 38.3706 301.232 38.3706 300.8C38.3706 300.488 38.4266 300.2 38.5386 299.936C38.6506 299.672 38.8066 299.448 39.0066 299.264C39.2146 299.072 39.4586 298.924 39.7386 298.82C40.0266 298.716 40.3466 298.664 40.6986 298.664C41.1386 298.664 41.5306 298.744 41.8746 298.904V298.796C41.8746 298.556 41.9306 298.36 42.0426 298.208C42.1546 298.048 42.3386 297.968 42.5946 297.968H43.5186V298.808H42.3426V299.204C42.5666 299.396 42.7386 299.628 42.8586 299.9C42.9866 300.164 43.0506 300.464 43.0506 300.8C43.0506 301.112 42.9946 301.4 42.8826 301.664C42.7706 301.928 42.6106 302.156 42.4026 302.348C42.2026 302.532 41.9586 302.676 41.6706 302.78C41.3826 302.884 41.0626 302.936 40.7106 302.936C40.5106 302.936 40.3106 302.916 40.1106 302.876C39.9026 302.932 39.7146 303.016 39.5466 303.128C39.3786 303.232 39.2946 303.38 39.2946 303.572C39.2946 303.756 39.3826 303.88 39.5586 303.944C39.7346 304.008 39.9626 304.04 40.2426 304.04H41.5626C42.3306 304.04 42.8866 304.188 43.2306 304.484C43.5826 304.772 43.7586 305.172 43.7586 305.684ZM42.8586 305.756C42.8586 305.508 42.7626 305.308 42.5706 305.156C42.3866 305.012 42.0546 304.94 41.5746 304.94H39.5106C39.1266 305.116 38.9346 305.396 38.9346 305.78C38.9346 306.052 39.0346 306.284 39.2346 306.476C39.4426 306.668 39.7906 306.764 40.2786 306.764H41.1666C41.7026 306.764 42.1186 306.68 42.4146 306.512C42.7106 306.344 42.8586 306.092 42.8586 305.756ZM40.7106 302.168C41.1186 302.168 41.4426 302.072 41.6826 301.88C41.9226 301.68 42.0426 301.376 42.0426 300.968V300.632C42.0426 300.224 41.9226 299.924 41.6826 299.732C41.4426 299.532 41.1186 299.432 40.7106 299.432C40.3026 299.432 39.9786 299.532 39.7386 299.732C39.4986 299.924 39.3786 300.224 39.3786 300.632V300.968C39.3786 301.376 39.4986 301.68 39.7386 301.88C39.9786 302.072 40.3026 302.168 40.7106 302.168ZM47.4561 305.144C47.0321 305.144 46.6481 305.068 46.3041 304.916C45.9681 304.764 45.6761 304.548 45.4281 304.268C45.1881 303.98 45.0001 303.64 44.8641 303.248C44.7361 302.848 44.6721 302.4 44.6721 301.904C44.6721 301.416 44.7361 300.972 44.8641 300.572C45.0001 300.172 45.1881 299.832 45.4281 299.552C45.6761 299.264 45.9681 299.044 46.3041 298.892C46.6481 298.74 47.0321 298.664 47.4561 298.664C47.8721 298.664 48.2441 298.74 48.5721 298.892C48.9001 299.044 49.1801 299.256 49.4121 299.528C49.6441 299.792 49.8201 300.108 49.9401 300.476C50.0681 300.844 50.1321 301.248 50.1321 301.688V302.144H45.6801V302.432C45.6801 302.696 45.7201 302.944 45.8001 303.176C45.8881 303.4 46.0081 303.596 46.1601 303.764C46.3201 303.932 46.5121 304.064 46.7361 304.16C46.9681 304.256 47.2281 304.304 47.5161 304.304C47.9081 304.304 48.2481 304.212 48.5361 304.028C48.8321 303.844 49.0601 303.58 49.2201 303.236L49.9041 303.728C49.7041 304.152 49.3921 304.496 48.9681 304.76C48.5441 305.016 48.0401 305.144 47.4561 305.144ZM47.4561 299.468C47.1921 299.468 46.9521 299.516 46.7361 299.612C46.5201 299.7 46.3321 299.828 46.1721 299.996C46.0201 300.164 45.9001 300.364 45.8121 300.596C45.7241 300.82 45.6801 301.068 45.6801 301.34V301.424H49.1001V301.292C49.1001 300.74 48.9481 300.3 48.6441 299.972C48.3481 299.636 47.9521 299.468 47.4561 299.468ZM53.4021 305C53.0661 305 52.8101 304.908 52.6341 304.724C52.4661 304.532 52.3821 304.284 52.3821 303.98V299.648H51.3621V298.808H51.9381C52.1461 298.808 52.2861 298.768 52.3581 298.688C52.4381 298.6 52.4781 298.452 52.4781 298.244V297.092H53.3421V298.808H54.6981V299.648H53.3421V304.16H54.6021V305H53.4021Z" fill="#0E6027"/>
<path d="M209 203C223.076 173.137 233.877 161.109 259 149" stroke="#0F62FE"/>
<path d="M283 319C343.851 295.694 372.151 275.345 414 228" stroke="#0F62FE"/>
<path d="M318.184 136C318.32 135.512 318.402 135.22 318.402 134.561C318.402 133.098 317.45 132 315.383 132C312.962 132 311.684 133.537 311.195 134.146C311.113 132.756 309.998 132 308.801 132C308.013 132 307.387 132.341 306.87 133.268C306.381 134.146 306 135.634 306 135.732C306 135.829 306.109 135.951 306.299 135.951C306.517 135.951 306.544 135.927 306.707 135.366C307.115 133.927 307.632 132.488 308.72 132.488C309.345 132.488 309.563 132.878 309.563 133.61C309.563 134.146 309.291 135.098 309.1 135.854L308.339 138.488C308.23 138.951 307.931 140.049 307.795 140.488C307.605 141.122 307.305 142.268 307.305 142.39C307.305 142.732 307.605 143 308.013 143C308.339 143 308.72 142.854 308.937 142.488C308.992 142.366 309.236 141.512 309.372 141.024L309.971 138.829L310.868 135.61C310.923 135.463 311.603 134.244 312.609 133.463C313.316 132.878 314.241 132.488 315.301 132.488C316.389 132.488 316.77 133.22 316.77 134.195C316.77 134.902 316.661 135.293 316.525 135.756L313.37 146.976C313.343 147.098 313.289 147.244 313.289 147.39C313.289 147.756 313.615 148 314.023 148C314.268 148 314.839 147.902 315.057 147.171L318.184 136Z" fill="black"/>
<path d="M498.184 214.159C498.32 213.671 498.402 213.379 498.402 212.72C498.402 211.257 497.45 210.159 495.383 210.159C492.962 210.159 491.684 211.696 491.195 212.306C491.113 210.915 489.998 210.159 488.801 210.159C488.013 210.159 487.387 210.501 486.87 211.427C486.381 212.306 486 213.793 486 213.891C486 213.988 486.109 214.11 486.299 214.11C486.517 214.11 486.544 214.086 486.707 213.525C487.115 212.086 487.632 210.647 488.72 210.647C489.345 210.647 489.563 211.037 489.563 211.769C489.563 212.306 489.291 213.257 489.1 214.013L488.339 216.647C488.23 217.11 487.931 218.208 487.795 218.647C487.605 219.281 487.305 220.427 487.305 220.549C487.305 220.891 487.605 221.159 488.013 221.159C488.339 221.159 488.72 221.013 488.937 220.647C488.992 220.525 489.236 219.671 489.372 219.184L489.971 216.988L490.868 213.769C490.923 213.623 491.603 212.403 492.609 211.623C493.316 211.037 494.241 210.647 495.301 210.647C496.389 210.647 496.77 211.379 496.77 212.354C496.77 213.062 496.661 213.452 496.525 213.915L493.37 225.135C493.343 225.257 493.289 225.403 493.289 225.549C493.289 225.915 493.615 226.159 494.023 226.159C494.268 226.159 494.839 226.062 495.057 225.33L498.184 214.159Z" fill="black"/>
</svg>
