<svg width="544" height="339" viewBox="0 0 544 339" fill="none" xmlns="http://www.w3.org/2000/svg">
<rect opacity="0.4" x="1.18896" y="240" width="541.238" height="40" fill="#F2F4F8"/>
<path opacity="0.4" d="M1.18896 320H542.427V338H1.18896V320Z" fill="#F2F4F8"/>
<rect opacity="0.4" x="1.18896" y="80" width="541.238" height="40" fill="#F2F4F8"/>
<rect opacity="0.4" x="1.18896" y="160" width="541.238" height="40" fill="#F2F4F8"/>
<rect opacity="0.4" x="1.18913" width="541.238" height="40" fill="#F2F4F8"/>
<line x1="78.1063" x2="78.1063" y2="339" stroke="#DDE1E6"/>
<line x1="0.5" x2="0.5" y2="339" stroke="#DDE1E6"/>
<line x1="155.713" x2="155.713" y2="339" stroke="#DDE1E6"/>
<line y1="0.5" x2="544" y2="0.5" stroke="#DDE1E6"/>
<line y1="338.5" x2="544" y2="338.5" stroke="#DDE1E6"/>
<line x1="233.5" x2="233.5" y2="339" stroke="#DDE1E6"/>
<line x1="310.923" x2="310.923" y2="339" stroke="#DDE1E6"/>
<line x1="388.5" y1="-4.33386e-05" x2="388.529" y2="338" stroke="#DDE1E6"/>
<line x1="465.5" x2="465.5" y2="339" stroke="#DDE1E6"/>
<line x1="543.5" x2="543.5" y2="339" stroke="#DDE1E6"/>
<path d="M12.5 113C12.5 113 25.5 87 27.5 90C29.5 93 26 113 29.5 110.5C33 108 36.5 98 38.5 98C40.5 98 40.5 103 42.5 103C44.5 103 49 93 51 93C53 93 52.5 100.5 54.5 100.5C56.5 100.5 61 90 63 90C65 90 64 100.5 65.5 100.5C67 100.5 69 93 71 93C73 93 73.5 98 76 98C78.5 98 80.5 90 82 90C83.5 90 84 98 86.5 98C89 98 99.5 66 103 66C106.5 66 107.5 100.5 107.5 100.5C114.459 118.592 115 161 117 160" stroke="#0F62FE"/>
<path d="M117 160C120.5 161 140 87 142 87.5C144 88 142.5 102.5 144.5 103C146.5 103.5 151.5 87.5 154 87.5C156.5 87.5 162.5 99.5 164.5 100C166.5 100.5 167.5 87.5 169.5 87.5C171.5 87.5 172.5 100 175 100C177.5 100 178.5 87.5 180 87.5C181.5 87.5 180 99.5 182.5 100C185 100.5 198.5 64.5 202 64.5C205.5 64.5 212.5 102 214.5 103C216.5 104 220.5 94.5 223.5 95C226.5 95.5 226 112 227.5 113C229 114 231 106.5 233 106.5C235 106.5 238 130.5 240.5 130.5C243 130.5 248 103 250.5 103C253 103 255.5 118.5 257.5 119C259.5 119.5 259 115.5 260 115.5C261 115.5 261.5 119 262.5 119C263.5 119 281 66 284.5 66C288 66 311.5 201 311.5 201C311.5 201 322.5 158.5 324.5 158.5C326.5 158.5 326 171 328 171C330 171 331 160.5 332.5 160.5C334 160.5 339 182.5 340.5 182.5C342 182.5 347.5 171 349.5 171C351.5 171 352.5 179 352.5 179C352.5 179 355 187.5 357.5 187.5C360 187.5 362.5 176.5 364 177C365.5 177.5 370.5 201.5 373 202.5C375.5 203.5 389.5 164.5 389.5 164.5C389.5 164.5 403.5 211 404.5 211C405.5 211 406 209.5 407 211C408 212.5 415 290 418.5 290C422 290 431 235 432 234C433 233 433 234.5 434.5 234C436 233.5 435 230 437 230C439 230 439 231 440 230C441 229 443.5 212.5 445.5 212.5C447.5 212.5 457 241.5 458.5 241.5C460 241.5 460.5 234 462 234C463.5 234 473 256.5 475 257C477 257.5 483.5 230 485 230C486.5 230 499 283 501.5 283C504 283 513 251 515 250.5C517 250 518.5 257 518.5 257L525 280C525 280 527.5 281.5 528 283C528.5 284.5 528 295 528 295" stroke="#0F62FE"/>
<circle cx="311" cy="202" r="3" fill="#121619"/>
<circle cx="353" cy="179" r="3" fill="#121619"/>
<line x1="389.5" y1="165" x2="389.5" y2="204" stroke="black" stroke-dasharray="4 4"/>
<line x1="352.5" y1="178" x2="352.5" y2="205" stroke="black" stroke-dasharray="4 4"/>
<line x1="311" y1="204.5" x2="389" y2="204.5" stroke="black" stroke-dasharray="5 5"/>
<path d="M310.529 201.832C310.436 202.092 310.572 202.378 310.832 202.471L315.071 203.982C315.331 204.075 315.617 203.939 315.71 203.679C315.802 203.419 315.667 203.133 315.407 203.04L311.639 201.697L312.982 197.929C313.075 197.669 312.939 197.383 312.679 197.29C312.419 197.198 312.133 197.333 312.04 197.593L310.529 201.832ZM388.786 164.548L310.786 201.548L311.214 202.452L389.214 165.452L388.786 164.548Z" fill="#8A3FFC"/>
<circle cx="389" cy="165" r="3" fill="#121619"/>
<path d="M442.156 224.475C442.418 224.389 442.561 224.106 442.475 223.844L441.071 219.569C440.985 219.306 440.703 219.163 440.44 219.25C440.178 219.336 440.035 219.618 440.121 219.881L441.369 223.681L437.569 224.929C437.306 225.015 437.163 225.297 437.25 225.56C437.336 225.822 437.618 225.965 437.881 225.879L442.156 224.475ZM352.774 179.446L441.774 224.446L442.226 223.554L353.226 178.554L352.774 179.446Z" fill="#198038"/>
<path d="M320.144 97.888L319.136 96.028H319.1V103H318.116V94.624H319.28L322.34 99.736L323.348 101.596H323.384V94.624H324.368V103H323.204L320.144 97.888ZM329.164 103.144C328.748 103.144 328.368 103.068 328.024 102.916C327.68 102.764 327.384 102.548 327.136 102.268C326.896 101.98 326.708 101.64 326.572 101.248C326.436 100.848 326.368 100.4 326.368 99.904C326.368 99.416 326.436 98.972 326.572 98.572C326.708 98.172 326.896 97.832 327.136 97.552C327.384 97.264 327.68 97.044 328.024 96.892C328.368 96.74 328.748 96.664 329.164 96.664C329.58 96.664 329.956 96.74 330.292 96.892C330.636 97.044 330.932 97.264 331.18 97.552C331.428 97.832 331.62 98.172 331.756 98.572C331.892 98.972 331.96 99.416 331.96 99.904C331.96 100.4 331.892 100.848 331.756 101.248C331.62 101.64 331.428 101.98 331.18 102.268C330.932 102.548 330.636 102.764 330.292 102.916C329.956 103.068 329.58 103.144 329.164 103.144ZM329.164 102.292C329.684 102.292 330.108 102.132 330.436 101.812C330.764 101.492 330.928 101.004 330.928 100.348V99.46C330.928 98.804 330.764 98.316 330.436 97.996C330.108 97.676 329.684 97.516 329.164 97.516C328.644 97.516 328.22 97.676 327.892 97.996C327.564 98.316 327.4 98.804 327.4 99.46V100.348C327.4 101.004 327.564 101.492 327.892 101.812C328.22 102.132 328.644 102.292 329.164 102.292ZM334.339 95.356C334.131 95.356 333.979 95.308 333.883 95.212C333.795 95.108 333.751 94.976 333.751 94.816V94.66C333.751 94.5 333.795 94.372 333.883 94.276C333.979 94.172 334.131 94.12 334.339 94.12C334.547 94.12 334.695 94.172 334.783 94.276C334.879 94.372 334.927 94.5 334.927 94.66V94.816C334.927 94.976 334.879 95.108 334.783 95.212C334.695 95.308 334.547 95.356 334.339 95.356ZM333.859 96.808H334.819V103H333.859V96.808ZM339.039 103.144C338.463 103.144 337.979 103.036 337.587 102.82C337.203 102.596 336.871 102.3 336.591 101.932L337.275 101.38C337.515 101.684 337.783 101.92 338.079 102.088C338.375 102.248 338.719 102.328 339.111 102.328C339.519 102.328 339.835 102.24 340.059 102.064C340.291 101.888 340.407 101.64 340.407 101.32C340.407 101.08 340.327 100.876 340.167 100.708C340.015 100.532 339.735 100.412 339.327 100.348L338.835 100.276C338.547 100.236 338.283 100.176 338.043 100.096C337.803 100.008 337.591 99.896 337.407 99.76C337.231 99.616 337.091 99.44 336.987 99.232C336.891 99.024 336.843 98.776 336.843 98.488C336.843 98.184 336.899 97.92 337.011 97.696C337.123 97.464 337.275 97.272 337.467 97.12C337.667 96.968 337.903 96.856 338.175 96.784C338.447 96.704 338.739 96.664 339.051 96.664C339.555 96.664 339.975 96.752 340.311 96.928C340.655 97.104 340.955 97.348 341.211 97.66L340.575 98.236C340.439 98.044 340.239 97.872 339.975 97.72C339.711 97.56 339.379 97.48 338.979 97.48C338.579 97.48 338.275 97.568 338.067 97.744C337.867 97.912 337.767 98.144 337.767 98.44C337.767 98.744 337.867 98.964 338.067 99.1C338.275 99.236 338.571 99.336 338.955 99.4L339.435 99.472C340.123 99.576 340.611 99.776 340.899 100.072C341.187 100.36 341.331 100.74 341.331 101.212C341.331 101.812 341.127 102.284 340.719 102.628C340.311 102.972 339.751 103.144 339.039 103.144ZM346.952 96.808H347.9L345.128 104.44C345.056 104.624 344.984 104.776 344.912 104.896C344.84 105.024 344.752 105.124 344.648 105.196C344.544 105.268 344.412 105.32 344.252 105.352C344.1 105.384 343.912 105.4 343.688 105.4H343.196V104.56H344.168L344.636 103.24L342.32 96.808H343.28L344.768 101.02L345.056 102.028H345.116L345.452 101.02L346.952 96.808ZM352.936 97.648H351.928V96.808H352.936V95.56C352.936 95.128 353.048 94.78 353.272 94.516C353.496 94.252 353.836 94.12 354.292 94.12H355.228V94.96H353.896V96.808H357.364V103H356.404V97.648H353.896V103H352.936V97.648ZM356.884 95.356C356.676 95.356 356.524 95.308 356.428 95.212C356.34 95.108 356.296 94.976 356.296 94.816V94.66C356.296 94.5 356.34 94.372 356.428 94.276C356.524 94.172 356.676 94.12 356.884 94.12C357.092 94.12 357.24 94.172 357.328 94.276C357.424 94.372 357.472 94.5 357.472 94.66V94.816C357.472 94.976 357.424 95.108 357.328 95.212C357.24 95.308 357.092 95.356 356.884 95.356ZM359.729 103V96.808H360.689V97.816H360.737C360.889 97.464 361.101 97.184 361.373 96.976C361.653 96.768 362.025 96.664 362.489 96.664C363.129 96.664 363.633 96.872 364.001 97.288C364.377 97.696 364.565 98.276 364.565 99.028V103H363.605V99.196C363.605 98.084 363.137 97.528 362.201 97.528C362.009 97.528 361.821 97.552 361.637 97.6C361.461 97.648 361.301 97.72 361.157 97.816C361.013 97.912 360.897 98.036 360.809 98.188C360.729 98.332 360.689 98.504 360.689 98.704V103H359.729ZM367.349 95.356C367.141 95.356 366.989 95.308 366.893 95.212C366.805 95.108 366.761 94.976 366.761 94.816V94.66C366.761 94.5 366.805 94.372 366.893 94.276C366.989 94.172 367.141 94.12 367.349 94.12C367.557 94.12 367.705 94.172 367.793 94.276C367.889 94.372 367.937 94.5 367.937 94.66V94.816C367.937 94.976 367.889 95.108 367.793 95.212C367.705 95.308 367.557 95.356 367.349 95.356ZM366.869 96.808H367.829V103H366.869V96.808ZM371.557 103C371.221 103 370.965 102.908 370.789 102.724C370.621 102.532 370.537 102.284 370.537 101.98V97.648H369.517V96.808H370.093C370.301 96.808 370.441 96.768 370.513 96.688C370.593 96.6 370.633 96.452 370.633 96.244V95.092H371.497V96.808H372.853V97.648H371.497V102.16H372.757V103H371.557ZM376.997 103.144C376.573 103.144 376.189 103.068 375.845 102.916C375.509 102.764 375.217 102.548 374.969 102.268C374.729 101.98 374.541 101.64 374.405 101.248C374.277 100.848 374.213 100.4 374.213 99.904C374.213 99.416 374.277 98.972 374.405 98.572C374.541 98.172 374.729 97.832 374.969 97.552C375.217 97.264 375.509 97.044 375.845 96.892C376.189 96.74 376.573 96.664 376.997 96.664C377.413 96.664 377.785 96.74 378.113 96.892C378.441 97.044 378.721 97.256 378.953 97.528C379.185 97.792 379.361 98.108 379.481 98.476C379.609 98.844 379.673 99.248 379.673 99.688V100.144H375.221V100.432C375.221 100.696 375.261 100.944 375.341 101.176C375.429 101.4 375.549 101.596 375.701 101.764C375.861 101.932 376.053 102.064 376.277 102.16C376.509 102.256 376.769 102.304 377.057 102.304C377.449 102.304 377.789 102.212 378.077 102.028C378.373 101.844 378.601 101.58 378.761 101.236L379.445 101.728C379.245 102.152 378.933 102.496 378.509 102.76C378.085 103.016 377.581 103.144 376.997 103.144ZM376.997 97.468C376.733 97.468 376.493 97.516 376.277 97.612C376.061 97.7 375.873 97.828 375.713 97.996C375.561 98.164 375.441 98.364 375.353 98.596C375.265 98.82 375.221 99.068 375.221 99.34V99.424H378.641V99.292C378.641 98.74 378.489 98.3 378.185 97.972C377.889 97.636 377.493 97.468 376.997 97.468ZM388.691 101.992H388.643C388.267 102.76 387.663 103.144 386.831 103.144C386.447 103.144 386.099 103.068 385.787 102.916C385.475 102.764 385.207 102.548 384.983 102.268C384.767 101.988 384.599 101.648 384.479 101.248C384.367 100.848 384.311 100.4 384.311 99.904C384.311 99.408 384.367 98.96 384.479 98.56C384.599 98.16 384.767 97.82 384.983 97.54C385.207 97.26 385.475 97.044 385.787 96.892C386.099 96.74 386.447 96.664 386.831 96.664C387.263 96.664 387.631 96.76 387.935 96.952C388.247 97.136 388.483 97.424 388.643 97.816H388.691V94.12H389.651V103H388.691V101.992ZM387.095 102.28C387.311 102.28 387.515 102.252 387.707 102.196C387.907 102.14 388.079 102.06 388.223 101.956C388.367 101.844 388.479 101.712 388.559 101.56C388.647 101.4 388.691 101.22 388.691 101.02V98.716C388.691 98.548 388.647 98.392 388.559 98.248C388.479 98.096 388.367 97.968 388.223 97.864C388.079 97.76 387.907 97.68 387.707 97.624C387.515 97.56 387.311 97.528 387.095 97.528C386.551 97.528 386.123 97.7 385.811 98.044C385.499 98.38 385.343 98.824 385.343 99.376V100.432C385.343 100.984 385.499 101.432 385.811 101.776C386.123 102.112 386.551 102.28 387.095 102.28ZM392.492 95.356C392.284 95.356 392.132 95.308 392.036 95.212C391.948 95.108 391.904 94.976 391.904 94.816V94.66C391.904 94.5 391.948 94.372 392.036 94.276C392.132 94.172 392.284 94.12 392.492 94.12C392.7 94.12 392.848 94.172 392.936 94.276C393.032 94.372 393.08 94.5 393.08 94.66V94.816C393.08 94.976 393.032 95.108 392.936 95.212C392.848 95.308 392.7 95.356 392.492 95.356ZM392.012 96.808H392.972V103H392.012V96.808ZM395.668 97.648H394.66V96.808H395.668V95.56C395.668 95.128 395.78 94.78 396.004 94.516C396.228 94.252 396.568 94.12 397.024 94.12H397.96V94.96H396.628V96.808H397.96V97.648H396.628V103H395.668V97.648ZM399.879 97.648H398.871V96.808H399.879V95.56C399.879 95.128 399.991 94.78 400.215 94.516C400.439 94.252 400.779 94.12 401.235 94.12H402.171V94.96H400.839V96.808H402.171V97.648H400.839V103H399.879V97.648ZM406.034 103.144C405.61 103.144 405.226 103.068 404.882 102.916C404.546 102.764 404.254 102.548 404.006 102.268C403.766 101.98 403.578 101.64 403.442 101.248C403.314 100.848 403.25 100.4 403.25 99.904C403.25 99.416 403.314 98.972 403.442 98.572C403.578 98.172 403.766 97.832 404.006 97.552C404.254 97.264 404.546 97.044 404.882 96.892C405.226 96.74 405.61 96.664 406.034 96.664C406.45 96.664 406.822 96.74 407.15 96.892C407.478 97.044 407.758 97.256 407.99 97.528C408.222 97.792 408.398 98.108 408.518 98.476C408.646 98.844 408.71 99.248 408.71 99.688V100.144H404.258V100.432C404.258 100.696 404.298 100.944 404.378 101.176C404.466 101.4 404.586 101.596 404.738 101.764C404.898 101.932 405.09 102.064 405.314 102.16C405.546 102.256 405.806 102.304 406.094 102.304C406.486 102.304 406.826 102.212 407.114 102.028C407.41 101.844 407.638 101.58 407.798 101.236L408.482 101.728C408.282 102.152 407.97 102.496 407.546 102.76C407.122 103.016 406.618 103.144 406.034 103.144ZM406.034 97.468C405.77 97.468 405.53 97.516 405.314 97.612C405.098 97.7 404.91 97.828 404.75 97.996C404.598 98.164 404.478 98.364 404.39 98.596C404.302 98.82 404.258 99.068 404.258 99.34V99.424H407.678V99.292C407.678 98.74 407.526 98.3 407.222 97.972C406.926 97.636 406.53 97.468 406.034 97.468ZM410.612 103V96.808H411.572V97.948H411.632C411.744 97.652 411.944 97.388 412.232 97.156C412.52 96.924 412.916 96.808 413.42 96.808H413.792V97.768H413.228C412.708 97.768 412.3 97.868 412.004 98.068C411.716 98.26 411.572 98.504 411.572 98.8V103H410.612ZM417.608 103.144C417.184 103.144 416.8 103.068 416.456 102.916C416.12 102.764 415.828 102.548 415.58 102.268C415.34 101.98 415.152 101.64 415.016 101.248C414.888 100.848 414.824 100.4 414.824 99.904C414.824 99.416 414.888 98.972 415.016 98.572C415.152 98.172 415.34 97.832 415.58 97.552C415.828 97.264 416.12 97.044 416.456 96.892C416.8 96.74 417.184 96.664 417.608 96.664C418.024 96.664 418.396 96.74 418.724 96.892C419.052 97.044 419.332 97.256 419.564 97.528C419.796 97.792 419.972 98.108 420.092 98.476C420.22 98.844 420.284 99.248 420.284 99.688V100.144H415.832V100.432C415.832 100.696 415.872 100.944 415.952 101.176C416.04 101.4 416.16 101.596 416.312 101.764C416.472 101.932 416.664 102.064 416.888 102.16C417.12 102.256 417.38 102.304 417.668 102.304C418.06 102.304 418.4 102.212 418.688 102.028C418.984 101.844 419.212 101.58 419.372 101.236L420.056 101.728C419.856 102.152 419.544 102.496 419.12 102.76C418.696 103.016 418.192 103.144 417.608 103.144ZM417.608 97.468C417.344 97.468 417.104 97.516 416.888 97.612C416.672 97.7 416.484 97.828 416.324 97.996C416.172 98.164 416.052 98.364 415.964 98.596C415.876 98.82 415.832 99.068 415.832 99.34V99.424H419.252V99.292C419.252 98.74 419.1 98.3 418.796 97.972C418.5 97.636 418.104 97.468 417.608 97.468ZM422.186 103V96.808H423.146V97.816H423.194C423.346 97.464 423.558 97.184 423.83 96.976C424.11 96.768 424.482 96.664 424.946 96.664C425.586 96.664 426.09 96.872 426.458 97.288C426.834 97.696 427.022 98.276 427.022 99.028V103H426.062V99.196C426.062 98.084 425.594 97.528 424.658 97.528C424.466 97.528 424.278 97.552 424.094 97.6C423.918 97.648 423.758 97.72 423.614 97.816C423.47 97.912 423.354 98.036 423.266 98.188C423.186 98.332 423.146 98.504 423.146 98.704V103H422.186ZM431.63 103.144C431.198 103.144 430.81 103.068 430.466 102.916C430.122 102.764 429.83 102.548 429.59 102.268C429.358 101.988 429.178 101.648 429.05 101.248C428.93 100.848 428.87 100.4 428.87 99.904C428.87 99.408 428.93 98.96 429.05 98.56C429.178 98.16 429.358 97.82 429.59 97.54C429.83 97.26 430.122 97.044 430.466 96.892C430.81 96.74 431.198 96.664 431.63 96.664C432.246 96.664 432.738 96.8 433.106 97.072C433.482 97.336 433.762 97.684 433.946 98.116L433.142 98.524C433.03 98.204 432.846 97.956 432.59 97.78C432.334 97.604 432.014 97.516 431.63 97.516C431.342 97.516 431.09 97.564 430.874 97.66C430.658 97.748 430.478 97.876 430.334 98.044C430.19 98.204 430.082 98.4 430.01 98.632C429.938 98.856 429.902 99.104 429.902 99.376V100.432C429.902 100.976 430.046 101.424 430.334 101.776C430.63 102.12 431.062 102.292 431.63 102.292C432.406 102.292 432.966 101.932 433.31 101.212L434.006 101.68C433.806 102.128 433.506 102.484 433.106 102.748C432.714 103.012 432.222 103.144 431.63 103.144ZM437.939 103.144C437.515 103.144 437.131 103.068 436.787 102.916C436.451 102.764 436.159 102.548 435.911 102.268C435.671 101.98 435.483 101.64 435.347 101.248C435.219 100.848 435.155 100.4 435.155 99.904C435.155 99.416 435.219 98.972 435.347 98.572C435.483 98.172 435.671 97.832 435.911 97.552C436.159 97.264 436.451 97.044 436.787 96.892C437.131 96.74 437.515 96.664 437.939 96.664C438.355 96.664 438.727 96.74 439.055 96.892C439.383 97.044 439.663 97.256 439.895 97.528C440.127 97.792 440.303 98.108 440.423 98.476C440.551 98.844 440.615 99.248 440.615 99.688V100.144H436.163V100.432C436.163 100.696 436.203 100.944 436.283 101.176C436.371 101.4 436.491 101.596 436.643 101.764C436.803 101.932 436.995 102.064 437.219 102.16C437.451 102.256 437.711 102.304 437.999 102.304C438.391 102.304 438.731 102.212 439.019 102.028C439.315 101.844 439.543 101.58 439.703 101.236L440.387 101.728C440.187 102.152 439.875 102.496 439.451 102.76C439.027 103.016 438.523 103.144 437.939 103.144ZM437.939 97.468C437.675 97.468 437.435 97.516 437.219 97.612C437.003 97.7 436.815 97.828 436.655 97.996C436.503 98.164 436.383 98.364 436.295 98.596C436.207 98.82 436.163 99.068 436.163 99.34V99.424H439.583V99.292C439.583 98.74 439.431 98.3 439.127 97.972C438.831 97.636 438.435 97.468 437.939 97.468ZM450.893 103.684C450.893 104.324 450.641 104.792 450.137 105.088C449.641 105.392 448.893 105.544 447.893 105.544C446.925 105.544 446.229 105.412 445.805 105.148C445.381 104.884 445.169 104.508 445.169 104.02C445.169 103.684 445.257 103.42 445.433 103.228C445.609 103.044 445.849 102.908 446.153 102.82V102.688C445.785 102.512 445.601 102.224 445.601 101.824C445.601 101.512 445.701 101.276 445.901 101.116C446.101 100.948 446.357 100.824 446.669 100.744V100.696C446.301 100.52 446.013 100.268 445.805 99.94C445.605 99.612 445.505 99.232 445.505 98.8C445.505 98.488 445.561 98.2 445.673 97.936C445.785 97.672 445.941 97.448 446.141 97.264C446.349 97.072 446.593 96.924 446.873 96.82C447.161 96.716 447.481 96.664 447.833 96.664C448.273 96.664 448.665 96.744 449.009 96.904V96.796C449.009 96.556 449.065 96.36 449.177 96.208C449.289 96.048 449.473 95.968 449.729 95.968H450.653V96.808H449.477V97.204C449.701 97.396 449.873 97.628 449.993 97.9C450.121 98.164 450.185 98.464 450.185 98.8C450.185 99.112 450.129 99.4 450.017 99.664C449.905 99.928 449.745 100.156 449.537 100.348C449.337 100.532 449.093 100.676 448.805 100.78C448.517 100.884 448.197 100.936 447.845 100.936C447.645 100.936 447.445 100.916 447.245 100.876C447.037 100.932 446.849 101.016 446.681 101.128C446.513 101.232 446.429 101.38 446.429 101.572C446.429 101.756 446.517 101.88 446.693 101.944C446.869 102.008 447.097 102.04 447.377 102.04H448.697C449.465 102.04 450.021 102.188 450.365 102.484C450.717 102.772 450.893 103.172 450.893 103.684ZM449.993 103.756C449.993 103.508 449.897 103.308 449.705 103.156C449.521 103.012 449.189 102.94 448.709 102.94H446.645C446.261 103.116 446.069 103.396 446.069 103.78C446.069 104.052 446.169 104.284 446.369 104.476C446.577 104.668 446.925 104.764 447.413 104.764H448.301C448.837 104.764 449.253 104.68 449.549 104.512C449.845 104.344 449.993 104.092 449.993 103.756ZM447.845 100.168C448.253 100.168 448.577 100.072 448.817 99.88C449.057 99.68 449.177 99.376 449.177 98.968V98.632C449.177 98.224 449.057 97.924 448.817 97.732C448.577 97.532 448.253 97.432 447.845 97.432C447.437 97.432 447.113 97.532 446.873 97.732C446.633 97.924 446.513 98.224 446.513 98.632V98.968C446.513 99.376 446.633 99.68 446.873 99.88C447.113 100.072 447.437 100.168 447.845 100.168ZM452.333 103V96.808H453.293V97.948H453.353C453.465 97.652 453.665 97.388 453.953 97.156C454.241 96.924 454.637 96.808 455.141 96.808H455.513V97.768H454.949C454.429 97.768 454.021 97.868 453.725 98.068C453.437 98.26 453.293 98.504 453.293 98.8V103H452.333ZM461.512 103C461.152 103 460.892 102.904 460.732 102.712C460.58 102.52 460.484 102.28 460.444 101.992H460.384C460.248 102.376 460.024 102.664 459.712 102.856C459.4 103.048 459.028 103.144 458.596 103.144C457.94 103.144 457.428 102.976 457.06 102.64C456.7 102.304 456.52 101.848 456.52 101.272C456.52 100.688 456.732 100.24 457.156 99.928C457.588 99.616 458.256 99.46 459.16 99.46H460.384V98.848C460.384 98.408 460.264 98.072 460.024 97.84C459.784 97.608 459.416 97.492 458.92 97.492C458.544 97.492 458.228 97.576 457.972 97.744C457.724 97.912 457.516 98.136 457.348 98.416L456.772 97.876C456.94 97.54 457.208 97.256 457.576 97.024C457.944 96.784 458.408 96.664 458.968 96.664C459.72 96.664 460.304 96.848 460.72 97.216C461.136 97.584 461.344 98.096 461.344 98.752V102.16H462.052V103H461.512ZM458.752 102.328C458.992 102.328 459.212 102.3 459.412 102.244C459.612 102.188 459.784 102.108 459.928 102.004C460.072 101.9 460.184 101.78 460.264 101.644C460.344 101.508 460.384 101.36 460.384 101.2V100.18H459.112C458.56 100.18 458.156 100.26 457.9 100.42C457.652 100.58 457.528 100.812 457.528 101.116V101.368C457.528 101.672 457.636 101.908 457.852 102.076C458.076 102.244 458.376 102.328 458.752 102.328ZM467.702 101.992H467.654C467.278 102.76 466.674 103.144 465.842 103.144C465.458 103.144 465.11 103.068 464.798 102.916C464.486 102.764 464.218 102.548 463.994 102.268C463.778 101.988 463.61 101.648 463.49 101.248C463.378 100.848 463.322 100.4 463.322 99.904C463.322 99.408 463.378 98.96 463.49 98.56C463.61 98.16 463.778 97.82 463.994 97.54C464.218 97.26 464.486 97.044 464.798 96.892C465.11 96.74 465.458 96.664 465.842 96.664C466.274 96.664 466.642 96.76 466.946 96.952C467.258 97.136 467.494 97.424 467.654 97.816H467.702V94.12H468.662V103H467.702V101.992ZM466.106 102.28C466.322 102.28 466.526 102.252 466.718 102.196C466.918 102.14 467.09 102.06 467.234 101.956C467.378 101.844 467.49 101.712 467.57 101.56C467.658 101.4 467.702 101.22 467.702 101.02V98.716C467.702 98.548 467.658 98.392 467.57 98.248C467.49 98.096 467.378 97.968 467.234 97.864C467.09 97.76 466.918 97.68 466.718 97.624C466.526 97.56 466.322 97.528 466.106 97.528C465.562 97.528 465.134 97.7 464.822 98.044C464.51 98.38 464.354 98.824 464.354 99.376V100.432C464.354 100.984 464.51 101.432 464.822 101.776C465.134 102.112 465.562 102.28 466.106 102.28ZM471.503 95.356C471.295 95.356 471.143 95.308 471.047 95.212C470.959 95.108 470.915 94.976 470.915 94.816V94.66C470.915 94.5 470.959 94.372 471.047 94.276C471.143 94.172 471.295 94.12 471.503 94.12C471.711 94.12 471.859 94.172 471.947 94.276C472.043 94.372 472.091 94.5 472.091 94.66V94.816C472.091 94.976 472.043 95.108 471.947 95.212C471.859 95.308 471.711 95.356 471.503 95.356ZM471.023 96.808H471.983V103H471.023V96.808ZM476.671 103.144C476.247 103.144 475.863 103.068 475.519 102.916C475.183 102.764 474.891 102.548 474.643 102.268C474.403 101.98 474.215 101.64 474.079 101.248C473.951 100.848 473.887 100.4 473.887 99.904C473.887 99.416 473.951 98.972 474.079 98.572C474.215 98.172 474.403 97.832 474.643 97.552C474.891 97.264 475.183 97.044 475.519 96.892C475.863 96.74 476.247 96.664 476.671 96.664C477.087 96.664 477.459 96.74 477.787 96.892C478.115 97.044 478.395 97.256 478.627 97.528C478.859 97.792 479.035 98.108 479.155 98.476C479.283 98.844 479.347 99.248 479.347 99.688V100.144H474.895V100.432C474.895 100.696 474.935 100.944 475.015 101.176C475.103 101.4 475.223 101.596 475.375 101.764C475.535 101.932 475.727 102.064 475.951 102.16C476.183 102.256 476.443 102.304 476.731 102.304C477.123 102.304 477.463 102.212 477.751 102.028C478.047 101.844 478.275 101.58 478.435 101.236L479.119 101.728C478.919 102.152 478.607 102.496 478.183 102.76C477.759 103.016 477.255 103.144 476.671 103.144ZM476.671 97.468C476.407 97.468 476.167 97.516 475.951 97.612C475.735 97.7 475.547 97.828 475.387 97.996C475.235 98.164 475.115 98.364 475.027 98.596C474.939 98.82 474.895 99.068 474.895 99.34V99.424H478.315V99.292C478.315 98.74 478.163 98.3 477.859 97.972C477.563 97.636 477.167 97.468 476.671 97.468ZM481.249 103V96.808H482.209V97.816H482.257C482.409 97.464 482.621 97.184 482.893 96.976C483.173 96.768 483.545 96.664 484.009 96.664C484.649 96.664 485.153 96.872 485.521 97.288C485.897 97.696 486.085 98.276 486.085 99.028V103H485.125V99.196C485.125 98.084 484.657 97.528 483.721 97.528C483.529 97.528 483.341 97.552 483.157 97.6C482.981 97.648 482.821 97.72 482.677 97.816C482.533 97.912 482.417 98.036 482.329 98.188C482.249 98.332 482.209 98.504 482.209 98.704V103H481.249ZM489.758 103C489.422 103 489.166 102.908 488.99 102.724C488.822 102.532 488.738 102.284 488.738 101.98V97.648H487.718V96.808H488.294C488.502 96.808 488.642 96.768 488.714 96.688C488.794 96.6 488.834 96.452 488.834 96.244V95.092H489.698V96.808H491.054V97.648H489.698V102.16H490.958V103H489.758Z" fill="#8A3FFC"/>
<path d="M445.936 185.512V193H444.928V185.512H442.264V184.624H448.6V185.512H445.936ZM449.668 193V186.808H450.628V187.948H450.688C450.8 187.652 451 187.388 451.288 187.156C451.576 186.924 451.972 186.808 452.476 186.808H452.848V187.768H452.284C451.764 187.768 451.356 187.868 451.06 188.068C450.772 188.26 450.628 188.504 450.628 188.8V193H449.668ZM458.21 191.992H458.162C458.098 192.136 458.018 192.28 457.922 192.424C457.834 192.56 457.722 192.684 457.586 192.796C457.45 192.9 457.286 192.984 457.094 193.048C456.902 193.112 456.678 193.144 456.422 193.144C455.782 193.144 455.274 192.94 454.898 192.532C454.522 192.116 454.334 191.532 454.334 190.78V186.808H455.294V190.612C455.294 191.724 455.766 192.28 456.71 192.28C456.902 192.28 457.086 192.256 457.262 192.208C457.446 192.16 457.606 192.088 457.742 191.992C457.886 191.896 457.998 191.776 458.078 191.632C458.166 191.48 458.21 191.3 458.21 191.092V186.808H459.17V193H458.21V191.992ZM463.863 193.144C463.439 193.144 463.055 193.068 462.711 192.916C462.375 192.764 462.083 192.548 461.835 192.268C461.595 191.98 461.407 191.64 461.271 191.248C461.143 190.848 461.079 190.4 461.079 189.904C461.079 189.416 461.143 188.972 461.271 188.572C461.407 188.172 461.595 187.832 461.835 187.552C462.083 187.264 462.375 187.044 462.711 186.892C463.055 186.74 463.439 186.664 463.863 186.664C464.279 186.664 464.651 186.74 464.979 186.892C465.307 187.044 465.587 187.256 465.819 187.528C466.051 187.792 466.227 188.108 466.347 188.476C466.475 188.844 466.539 189.248 466.539 189.688V190.144H462.087V190.432C462.087 190.696 462.127 190.944 462.207 191.176C462.295 191.4 462.415 191.596 462.567 191.764C462.727 191.932 462.919 192.064 463.143 192.16C463.375 192.256 463.635 192.304 463.923 192.304C464.315 192.304 464.655 192.212 464.943 192.028C465.239 191.844 465.467 191.58 465.627 191.236L466.311 191.728C466.111 192.152 465.799 192.496 465.375 192.76C464.951 193.016 464.447 193.144 463.863 193.144ZM463.863 187.468C463.599 187.468 463.359 187.516 463.143 187.612C462.927 187.7 462.739 187.828 462.579 187.996C462.427 188.164 462.307 188.364 462.219 188.596C462.131 188.82 462.087 189.068 462.087 189.34V189.424H465.507V189.292C465.507 188.74 465.355 188.3 465.051 187.972C464.755 187.636 464.359 187.468 463.863 187.468ZM476.817 193.684C476.817 194.324 476.565 194.792 476.061 195.088C475.565 195.392 474.817 195.544 473.817 195.544C472.849 195.544 472.153 195.412 471.729 195.148C471.305 194.884 471.093 194.508 471.093 194.02C471.093 193.684 471.181 193.42 471.357 193.228C471.533 193.044 471.773 192.908 472.077 192.82V192.688C471.709 192.512 471.525 192.224 471.525 191.824C471.525 191.512 471.625 191.276 471.825 191.116C472.025 190.948 472.281 190.824 472.593 190.744V190.696C472.225 190.52 471.937 190.268 471.729 189.94C471.529 189.612 471.429 189.232 471.429 188.8C471.429 188.488 471.485 188.2 471.597 187.936C471.709 187.672 471.865 187.448 472.065 187.264C472.273 187.072 472.517 186.924 472.797 186.82C473.085 186.716 473.405 186.664 473.757 186.664C474.197 186.664 474.589 186.744 474.933 186.904V186.796C474.933 186.556 474.989 186.36 475.101 186.208C475.213 186.048 475.397 185.968 475.653 185.968H476.577V186.808H475.401V187.204C475.625 187.396 475.797 187.628 475.917 187.9C476.045 188.164 476.109 188.464 476.109 188.8C476.109 189.112 476.053 189.4 475.941 189.664C475.829 189.928 475.669 190.156 475.461 190.348C475.261 190.532 475.017 190.676 474.729 190.78C474.441 190.884 474.121 190.936 473.769 190.936C473.569 190.936 473.369 190.916 473.169 190.876C472.961 190.932 472.773 191.016 472.605 191.128C472.437 191.232 472.353 191.38 472.353 191.572C472.353 191.756 472.441 191.88 472.617 191.944C472.793 192.008 473.021 192.04 473.301 192.04H474.621C475.389 192.04 475.945 192.188 476.289 192.484C476.641 192.772 476.817 193.172 476.817 193.684ZM475.917 193.756C475.917 193.508 475.821 193.308 475.629 193.156C475.445 193.012 475.113 192.94 474.633 192.94H472.569C472.185 193.116 471.993 193.396 471.993 193.78C471.993 194.052 472.093 194.284 472.293 194.476C472.501 194.668 472.849 194.764 473.337 194.764H474.225C474.761 194.764 475.177 194.68 475.473 194.512C475.769 194.344 475.917 194.092 475.917 193.756ZM473.769 190.168C474.177 190.168 474.501 190.072 474.741 189.88C474.981 189.68 475.101 189.376 475.101 188.968V188.632C475.101 188.224 474.981 187.924 474.741 187.732C474.501 187.532 474.177 187.432 473.769 187.432C473.361 187.432 473.037 187.532 472.797 187.732C472.557 187.924 472.437 188.224 472.437 188.632V188.968C472.437 189.376 472.557 189.68 472.797 189.88C473.037 190.072 473.361 190.168 473.769 190.168ZM478.256 193V186.808H479.216V187.948H479.276C479.388 187.652 479.588 187.388 479.876 187.156C480.164 186.924 480.56 186.808 481.064 186.808H481.436V187.768H480.872C480.352 187.768 479.944 187.868 479.648 188.068C479.36 188.26 479.216 188.504 479.216 188.8V193H478.256ZM487.436 193C487.076 193 486.816 192.904 486.656 192.712C486.504 192.52 486.408 192.28 486.368 191.992H486.308C486.172 192.376 485.948 192.664 485.636 192.856C485.324 193.048 484.952 193.144 484.52 193.144C483.864 193.144 483.352 192.976 482.984 192.64C482.624 192.304 482.444 191.848 482.444 191.272C482.444 190.688 482.656 190.24 483.08 189.928C483.512 189.616 484.18 189.46 485.084 189.46H486.308V188.848C486.308 188.408 486.188 188.072 485.948 187.84C485.708 187.608 485.34 187.492 484.844 187.492C484.468 187.492 484.152 187.576 483.896 187.744C483.648 187.912 483.44 188.136 483.272 188.416L482.696 187.876C482.864 187.54 483.132 187.256 483.5 187.024C483.868 186.784 484.332 186.664 484.892 186.664C485.644 186.664 486.228 186.848 486.644 187.216C487.06 187.584 487.268 188.096 487.268 188.752V192.16H487.976V193H487.436ZM484.676 192.328C484.916 192.328 485.136 192.3 485.336 192.244C485.536 192.188 485.708 192.108 485.852 192.004C485.996 191.9 486.108 191.78 486.188 191.644C486.268 191.508 486.308 191.36 486.308 191.2V190.18H485.036C484.484 190.18 484.08 190.26 483.824 190.42C483.576 190.58 483.452 190.812 483.452 191.116V191.368C483.452 191.672 483.56 191.908 483.776 192.076C484 192.244 484.3 192.328 484.676 192.328ZM493.626 191.992H493.578C493.202 192.76 492.598 193.144 491.766 193.144C491.382 193.144 491.034 193.068 490.722 192.916C490.41 192.764 490.142 192.548 489.918 192.268C489.702 191.988 489.534 191.648 489.414 191.248C489.302 190.848 489.246 190.4 489.246 189.904C489.246 189.408 489.302 188.96 489.414 188.56C489.534 188.16 489.702 187.82 489.918 187.54C490.142 187.26 490.41 187.044 490.722 186.892C491.034 186.74 491.382 186.664 491.766 186.664C492.198 186.664 492.566 186.76 492.87 186.952C493.182 187.136 493.418 187.424 493.578 187.816H493.626V184.12H494.586V193H493.626V191.992ZM492.03 192.28C492.246 192.28 492.45 192.252 492.642 192.196C492.842 192.14 493.014 192.06 493.158 191.956C493.302 191.844 493.414 191.712 493.494 191.56C493.582 191.4 493.626 191.22 493.626 191.02V188.716C493.626 188.548 493.582 188.392 493.494 188.248C493.414 188.096 493.302 187.968 493.158 187.864C493.014 187.76 492.842 187.68 492.642 187.624C492.45 187.56 492.246 187.528 492.03 187.528C491.486 187.528 491.058 187.7 490.746 188.044C490.434 188.38 490.278 188.824 490.278 189.376V190.432C490.278 190.984 490.434 191.432 490.746 191.776C491.058 192.112 491.486 192.28 492.03 192.28ZM497.427 185.356C497.219 185.356 497.067 185.308 496.971 185.212C496.883 185.108 496.839 184.976 496.839 184.816V184.66C496.839 184.5 496.883 184.372 496.971 184.276C497.067 184.172 497.219 184.12 497.427 184.12C497.635 184.12 497.783 184.172 497.871 184.276C497.967 184.372 498.015 184.5 498.015 184.66V184.816C498.015 184.976 497.967 185.108 497.871 185.212C497.783 185.308 497.635 185.356 497.427 185.356ZM496.947 186.808H497.907V193H496.947V186.808ZM502.595 193.144C502.171 193.144 501.787 193.068 501.443 192.916C501.107 192.764 500.815 192.548 500.567 192.268C500.327 191.98 500.139 191.64 500.003 191.248C499.875 190.848 499.811 190.4 499.811 189.904C499.811 189.416 499.875 188.972 500.003 188.572C500.139 188.172 500.327 187.832 500.567 187.552C500.815 187.264 501.107 187.044 501.443 186.892C501.787 186.74 502.171 186.664 502.595 186.664C503.011 186.664 503.383 186.74 503.711 186.892C504.039 187.044 504.319 187.256 504.551 187.528C504.783 187.792 504.959 188.108 505.079 188.476C505.207 188.844 505.271 189.248 505.271 189.688V190.144H500.819V190.432C500.819 190.696 500.859 190.944 500.939 191.176C501.027 191.4 501.147 191.596 501.299 191.764C501.459 191.932 501.651 192.064 501.875 192.16C502.107 192.256 502.367 192.304 502.655 192.304C503.047 192.304 503.387 192.212 503.675 192.028C503.971 191.844 504.199 191.58 504.359 191.236L505.043 191.728C504.843 192.152 504.531 192.496 504.107 192.76C503.683 193.016 503.179 193.144 502.595 193.144ZM502.595 187.468C502.331 187.468 502.091 187.516 501.875 187.612C501.659 187.7 501.471 187.828 501.311 187.996C501.159 188.164 501.039 188.364 500.951 188.596C500.863 188.82 500.819 189.068 500.819 189.34V189.424H504.239V189.292C504.239 188.74 504.087 188.3 503.783 187.972C503.487 187.636 503.091 187.468 502.595 187.468ZM507.173 193V186.808H508.133V187.816H508.181C508.333 187.464 508.545 187.184 508.817 186.976C509.097 186.768 509.469 186.664 509.933 186.664C510.573 186.664 511.077 186.872 511.445 187.288C511.821 187.696 512.009 188.276 512.009 189.028V193H511.049V189.196C511.049 188.084 510.581 187.528 509.645 187.528C509.453 187.528 509.265 187.552 509.081 187.6C508.905 187.648 508.745 187.72 508.601 187.816C508.457 187.912 508.341 188.036 508.253 188.188C508.173 188.332 508.133 188.504 508.133 188.704V193H507.173ZM515.681 193C515.345 193 515.089 192.908 514.913 192.724C514.745 192.532 514.661 192.284 514.661 191.98V187.648H513.641V186.808H514.217C514.425 186.808 514.565 186.768 514.637 186.688C514.717 186.6 514.757 186.452 514.757 186.244V185.092H515.621V186.808H516.977V187.648H515.621V192.16H516.881V193H515.681Z" fill="#198038"/>
<path d="M248.336 187.892C248.606 187.892 248.714 187.892 248.714 187.625C248.714 187.484 248.606 187.484 248.363 187.484H247.269C247.526 186.036 247.715 185.038 247.823 184.589C247.904 184.251 248.188 183.928 248.539 183.928C248.823 183.928 249.106 184.055 249.241 184.181C248.714 184.237 248.552 184.645 248.552 184.884C248.552 185.165 248.755 185.334 249.012 185.334C249.282 185.334 249.687 185.095 249.687 184.561C249.687 183.97 249.12 183.647 248.525 183.647C247.944 183.647 247.377 184.097 247.107 184.645C246.864 185.137 246.729 185.643 246.418 187.484H245.513C245.256 187.484 245.121 187.484 245.121 187.737C245.121 187.892 245.202 187.892 245.472 187.892H246.337C246.094 189.199 245.54 192.376 245.229 193.88C244.999 195.102 244.797 196.129 244.121 196.129C244.081 196.129 243.689 196.129 243.446 195.861C244.135 195.805 244.135 195.187 244.135 195.173C244.135 194.892 243.932 194.723 243.675 194.723C243.405 194.723 243 194.962 243 195.496C243 196.1 243.594 196.41 244.121 196.41C245.499 196.41 246.067 193.837 246.215 193.135C246.458 192.052 247.12 188.314 247.188 187.892H248.336Z" fill="black"/>
<path d="M254.664 196.958C254.664 196.916 254.664 196.888 254.434 196.649C253.083 195.229 252.327 192.91 252.327 190.042C252.327 187.315 252.962 184.968 254.529 183.309C254.664 183.183 254.664 183.155 254.664 183.112C254.664 183.028 254.597 183 254.542 183C254.367 183 253.259 184.012 252.597 185.39C251.908 186.809 251.597 188.313 251.597 190.042C251.597 191.293 251.787 192.966 252.489 194.47C253.286 196.157 254.394 197.07 254.542 197.07C254.597 197.07 254.664 197.042 254.664 196.958Z" fill="black"/>
<path d="M261.402 186.472C261.402 185.039 260.97 183.647 259.862 183.647C257.971 183.647 255.958 187.766 255.958 190.858C255.958 191.505 256.093 193.684 257.512 193.684C259.349 193.684 261.402 189.663 261.402 186.472ZM257.309 188.454C257.512 187.625 257.795 186.444 258.336 185.446C258.781 184.603 259.254 183.928 259.849 183.928C260.295 183.928 260.592 184.322 260.592 185.671C260.592 186.177 260.551 186.88 260.159 188.454H257.309ZM260.065 188.876C259.727 190.254 259.443 191.139 258.957 192.025C258.565 192.742 258.092 193.402 257.525 193.402C257.106 193.402 256.769 193.065 256.769 191.673C256.769 190.76 256.985 189.804 257.201 188.876H260.065Z" fill="black"/>
<path d="M273.854 190.31C274.084 190.31 274.327 190.31 274.327 190.028C274.327 189.747 274.084 189.747 273.854 189.747H266.546C266.316 189.747 266.073 189.747 266.073 190.028C266.073 190.31 266.316 190.31 266.546 190.31H273.854Z" fill="black"/>
<path d="M282.392 190.352C282.595 190.352 282.824 190.352 282.824 190.127C282.824 189.944 282.689 189.944 282.446 189.944H280.258C280.595 188.665 281.392 187.892 282.595 187.892H282.986C283.216 187.892 283.419 187.892 283.419 187.667C283.419 187.484 283.27 187.484 283.027 187.484H282.568C280.906 187.484 279.082 188.862 279.082 191.069C279.082 192.629 280.095 193.683 281.433 193.683C282.297 193.683 283.149 193.121 283.149 192.98C283.149 192.896 283.108 192.812 283.027 192.812C282.986 192.812 282.959 192.826 282.892 192.882C282.378 193.233 281.879 193.402 281.473 193.402C280.757 193.402 280.001 192.91 280.001 191.547C280.001 191.28 280.028 190.914 280.149 190.352H282.392Z" fill="black"/>
<path d="M287.612 190.042C287.612 188.974 287.476 187.231 286.72 185.6C285.923 183.914 284.815 183 284.667 183C284.612 183 284.545 183.028 284.545 183.112C284.545 183.155 284.545 183.183 284.775 183.422C286.126 184.841 286.882 187.161 286.882 190.028C286.882 192.755 286.247 195.102 284.68 196.761C284.545 196.888 284.545 196.916 284.545 196.958C284.545 197.042 284.612 197.07 284.667 197.07C284.842 197.07 285.95 196.058 286.612 194.681C287.301 193.247 287.612 191.729 287.612 190.042Z" fill="black"/>
<path d="M404.336 143.893C404.606 143.893 404.714 143.893 404.714 143.626C404.714 143.485 404.606 143.485 404.363 143.485H403.269C403.526 142.038 403.715 141.04 403.823 140.59C403.904 140.252 404.188 139.929 404.539 139.929C404.823 139.929 405.106 140.056 405.241 140.182C404.714 140.238 404.552 140.646 404.552 140.885C404.552 141.166 404.755 141.335 405.012 141.335C405.282 141.335 405.687 141.096 405.687 140.562C405.687 139.971 405.12 139.648 404.525 139.648C403.944 139.648 403.377 140.098 403.107 140.646C402.864 141.138 402.729 141.644 402.418 143.485H401.513C401.256 143.485 401.121 143.485 401.121 143.738C401.121 143.893 401.202 143.893 401.472 143.893H402.337C402.094 145.2 401.54 148.377 401.229 149.881C400.999 151.104 400.797 152.13 400.121 152.13C400.081 152.13 399.689 152.13 399.446 151.863C400.135 151.807 400.135 151.188 400.135 151.174C400.135 150.893 399.932 150.724 399.675 150.724C399.405 150.724 399 150.963 399 151.497C399 152.102 399.594 152.411 400.121 152.411C401.499 152.411 402.067 149.839 402.215 149.136C402.458 148.054 403.12 144.315 403.188 143.893H404.336Z" fill="black"/>
<path d="M410.664 152.959C410.664 152.917 410.664 152.889 410.434 152.65C409.083 151.23 408.327 148.91 408.327 146.043C408.327 143.316 408.962 140.968 410.529 139.309C410.664 139.183 410.664 139.155 410.664 139.112C410.664 139.028 410.597 139 410.542 139C410.367 139 409.259 140.012 408.597 141.39C407.908 142.81 407.597 144.314 407.597 146.043C407.597 147.294 407.787 148.967 408.489 150.471C409.286 152.158 410.394 153.071 410.542 153.071C410.597 153.071 410.664 153.043 410.664 152.959Z" fill="black"/>
<path d="M417.402 142.473C417.402 141.04 416.97 139.648 415.862 139.648C413.971 139.648 411.958 143.766 411.958 146.859C411.958 147.505 412.093 149.684 413.512 149.684C415.349 149.684 417.402 145.664 417.402 142.473ZM413.309 144.455C413.512 143.626 413.795 142.445 414.336 141.447C414.781 140.604 415.254 139.929 415.849 139.929C416.295 139.929 416.592 140.323 416.592 141.672C416.592 142.178 416.551 142.881 416.159 144.455H413.309ZM416.065 144.877C415.727 146.254 415.443 147.14 414.957 148.025C414.565 148.742 414.092 149.403 413.525 149.403C413.106 149.403 412.769 149.066 412.769 147.674C412.769 146.76 412.985 145.805 413.201 144.877H416.065Z" fill="black"/>
<path d="M426.342 146.295H430.07C430.259 146.295 430.503 146.295 430.503 146.042C430.503 145.775 430.273 145.775 430.07 145.775H426.342V141.896C426.342 141.699 426.342 141.446 426.099 141.446C425.842 141.446 425.842 141.685 425.842 141.896V145.775H422.113C421.924 145.775 421.681 145.775 421.681 146.028C421.681 146.295 421.911 146.295 422.113 146.295H425.842V150.175C425.842 150.372 425.842 150.625 426.085 150.625C426.342 150.625 426.342 150.386 426.342 150.175V146.295Z" fill="black"/>
<path d="M438.173 146.352C438.376 146.352 438.605 146.352 438.605 146.127C438.605 145.944 438.47 145.944 438.227 145.944H436.038C436.376 144.665 437.173 143.892 438.376 143.892H438.767C438.997 143.892 439.2 143.892 439.2 143.667C439.2 143.484 439.051 143.484 438.808 143.484H438.349C436.687 143.484 434.863 144.862 434.863 147.069C434.863 148.629 435.876 149.683 437.214 149.683C438.078 149.683 438.929 149.121 438.929 148.98C438.929 148.896 438.889 148.812 438.808 148.812C438.767 148.812 438.74 148.826 438.673 148.882C438.159 149.233 437.66 149.402 437.254 149.402C436.538 149.402 435.782 148.91 435.782 147.547C435.782 147.28 435.809 146.914 435.93 146.352H438.173Z" fill="black"/>
<path d="M443.393 146.043C443.393 144.974 443.257 143.231 442.501 141.601C441.704 139.914 440.596 139 440.447 139C440.393 139 440.326 139.028 440.326 139.112C440.326 139.155 440.326 139.183 440.556 139.422C441.906 140.841 442.663 143.161 442.663 146.029C442.663 148.756 442.028 151.103 440.461 152.762C440.326 152.889 440.326 152.917 440.326 152.959C440.326 153.043 440.393 153.071 440.447 153.071C440.623 153.071 441.731 152.059 442.393 150.682C443.082 149.248 443.393 147.73 443.393 146.043Z" fill="black"/>
<path d="M330.781 219.907C331.011 219.907 331.254 219.907 331.254 219.625C331.254 219.344 331.011 219.344 330.781 219.344H323.473C323.243 219.344 323 219.344 323 219.625C323 219.907 323.243 219.907 323.473 219.907H330.781Z" fill="black"/>
<path d="M336.317 219.949C336.52 219.949 336.75 219.949 336.75 219.724C336.75 219.541 336.614 219.541 336.371 219.541H334.183C334.52 218.262 335.318 217.489 336.52 217.489H336.912C337.141 217.489 337.344 217.489 337.344 217.264C337.344 217.082 337.195 217.082 336.952 217.082H336.493C334.831 217.082 333.007 218.459 333.007 220.666C333.007 222.226 334.021 223.28 335.358 223.28C336.223 223.28 337.074 222.718 337.074 222.577C337.074 222.493 337.033 222.408 336.952 222.408C336.912 222.408 336.885 222.422 336.817 222.479C336.304 222.83 335.804 222.999 335.399 222.999C334.683 222.999 333.926 222.507 333.926 221.143C333.926 220.876 333.953 220.511 334.075 219.949H336.317Z" fill="black"/>
<path d="M366.661 219.85H370.389C370.578 219.85 370.822 219.85 370.822 219.597C370.822 219.33 370.592 219.33 370.389 219.33H366.661V215.45C366.661 215.253 366.661 215 366.418 215C366.161 215 366.161 215.239 366.161 215.45V219.33H362.432C362.243 219.33 362 219.33 362 219.583C362 219.85 362.23 219.85 362.432 219.85H366.161V223.729C366.161 223.926 366.161 224.179 366.404 224.179C366.661 224.179 366.661 223.94 366.661 223.729V219.85Z" fill="black"/>
<path d="M375.49 219.906C375.693 219.906 375.922 219.906 375.922 219.681C375.922 219.498 375.787 219.498 375.544 219.498H373.355C373.693 218.219 374.49 217.446 375.693 217.446H376.084C376.314 217.446 376.517 217.446 376.517 217.221C376.517 217.039 376.368 217.039 376.125 217.039H375.666C374.004 217.039 372.18 218.416 372.18 220.623C372.18 222.183 373.193 223.237 374.531 223.237C375.395 223.237 376.246 222.675 376.246 222.534C376.246 222.45 376.206 222.365 376.125 222.365C376.084 222.365 376.057 222.379 375.99 222.436C375.476 222.787 374.977 222.956 374.571 222.956C373.855 222.956 373.099 222.464 373.099 221.1C373.099 220.833 373.126 220.468 373.247 219.906H375.49Z" fill="black"/>
</svg>
