<svg width="533" height="45" viewBox="0 0 533 45" fill="none" xmlns="http://www.w3.org/2000/svg">
<path d="M339.478 31V26.828H342.194C343.944 26.828 344.924 25.75 344.924 24.028C344.924 22.306 343.944 21.228 342.194 21.228H338.302V31H339.478ZM339.478 22.264H342.194C343.118 22.264 343.664 22.768 343.664 23.664V24.392C343.664 25.288 343.118 25.792 342.194 25.792H339.478V22.264ZM352.584 31V30.02H351.758V26.044C351.758 24.518 350.722 23.608 348.986 23.608C347.684 23.608 346.816 24.252 346.424 25.022L347.096 25.652C347.488 24.994 348.062 24.574 348.93 24.574C350.078 24.574 350.638 25.134 350.638 26.156V26.87H349.21C347.11 26.87 346.13 27.626 346.13 28.984C346.13 30.328 347.026 31.168 348.552 31.168C349.56 31.168 350.33 30.706 350.638 29.824H350.708C350.792 30.496 351.128 31 351.954 31H352.584ZM348.734 30.216C347.866 30.216 347.306 29.81 347.306 29.096V28.802C347.306 28.102 347.88 27.71 349.154 27.71H350.638V28.9C350.638 29.642 349.84 30.216 348.734 30.216ZM355.462 31V26.1C355.462 25.414 356.19 24.896 357.394 24.896H358.052V23.776H357.618C356.442 23.776 355.784 24.42 355.532 25.106H355.462V23.776H354.342V31H355.462ZM365.468 31V30.02H364.642V26.044C364.642 24.518 363.606 23.608 361.87 23.608C360.568 23.608 359.7 24.252 359.308 25.022L359.98 25.652C360.372 24.994 360.946 24.574 361.814 24.574C362.962 24.574 363.522 25.134 363.522 26.156V26.87H362.094C359.994 26.87 359.014 27.626 359.014 28.984C359.014 30.328 359.91 31.168 361.436 31.168C362.444 31.168 363.214 30.706 363.522 29.824H363.592C363.676 30.496 364.012 31 364.838 31H365.468ZM361.618 30.216C360.75 30.216 360.19 29.81 360.19 29.096V28.802C360.19 28.102 360.764 27.71 362.038 27.71H363.522V28.9C363.522 29.642 362.724 30.216 361.618 30.216ZM368.346 31V25.988C368.346 25.064 369.186 24.616 370.068 24.616C371.132 24.616 371.622 25.274 371.622 26.562V31H372.742V25.988C372.742 25.064 373.554 24.616 374.436 24.616C375.528 24.616 376.018 25.288 376.018 26.562V31H377.138V26.366C377.138 24.616 376.256 23.608 374.786 23.608C373.554 23.608 372.854 24.294 372.588 25.078H372.56C372.168 24.042 371.3 23.608 370.348 23.608C369.228 23.608 368.724 24.21 368.402 24.952H368.346V23.776H367.226V31H368.346ZM382.325 31.168C383.683 31.168 384.719 30.496 385.181 29.516L384.383 28.942C384.005 29.74 383.305 30.188 382.395 30.188C381.051 30.188 380.253 29.25 380.253 28.004V27.668H385.447V27.136C385.447 25.092 384.257 23.608 382.325 23.608C380.365 23.608 379.077 25.092 379.077 27.388C379.077 29.684 380.365 31.168 382.325 31.168ZM382.325 24.546C383.473 24.546 384.243 25.4 384.243 26.674V26.828H380.253V26.73C380.253 25.47 381.107 24.546 382.325 24.546ZM390.449 31V30.02H388.979V24.756H390.561V23.776H388.979V21.774H387.971V23.118C387.971 23.608 387.817 23.776 387.341 23.776H386.669V24.756H387.859V29.81C387.859 30.51 388.279 31 389.049 31H390.449ZM395.182 31.168C396.54 31.168 397.576 30.496 398.038 29.516L397.24 28.942C396.862 29.74 396.162 30.188 395.252 30.188C393.908 30.188 393.11 29.25 393.11 28.004V27.668H398.304V27.136C398.304 25.092 397.114 23.608 395.182 23.608C393.222 23.608 391.934 25.092 391.934 27.388C391.934 29.684 393.222 31.168 395.182 31.168ZM395.182 24.546C396.33 24.546 397.1 25.4 397.1 26.674V26.828H393.11V26.73C393.11 25.47 393.964 24.546 395.182 24.546ZM401.43 31V26.1C401.43 25.414 402.158 24.896 403.362 24.896H404.02V23.776H403.586C402.41 23.776 401.752 24.42 401.5 25.106H401.43V23.776H400.31V31H401.43ZM411.935 31.168C414.035 31.168 415.295 30.02 415.295 28.228C415.295 26.772 414.469 25.932 412.565 25.498L411.767 25.316C410.535 25.036 409.933 24.616 409.933 23.692C409.933 22.642 410.703 22.096 411.949 22.096C413.083 22.096 413.825 22.558 414.357 23.3L415.239 22.656C414.511 21.62 413.475 21.06 412.005 21.06C410.087 21.06 408.771 21.998 408.771 23.734C408.771 25.232 409.751 26.016 411.529 26.422L412.327 26.604C413.615 26.898 414.133 27.36 414.133 28.284C414.133 29.404 413.377 30.132 411.977 30.132C410.843 30.132 410.031 29.642 409.345 28.732L408.477 29.46C409.261 30.524 410.367 31.168 411.935 31.168ZM417.374 31H418.494V25.988C418.494 25.064 419.362 24.616 420.258 24.616C421.336 24.616 421.896 25.274 421.896 26.562V31H423.016V26.366C423.016 24.616 422.078 23.608 420.594 23.608C419.516 23.608 418.9 24.14 418.55 24.952H418.494V20.64H417.374V31ZM426.051 22.082C426.527 22.082 426.737 21.83 426.737 21.452V21.27C426.737 20.892 426.527 20.64 426.051 20.64C425.575 20.64 425.365 20.892 425.365 21.27V21.452C425.365 21.83 425.575 22.082 426.051 22.082ZM425.491 31H426.611V23.776H425.491V31ZM429.543 31H430.663V24.756H432.217V23.776H430.663V21.62H432.217V20.64H431.125C430.061 20.64 429.543 21.326 429.543 22.32V23.776H428.367V24.756H429.543V31ZM436.846 31V30.02H435.376V24.756H436.958V23.776H435.376V21.774H434.368V23.118C434.368 23.608 434.214 23.776 433.738 23.776H433.066V24.756H434.256V29.81C434.256 30.51 434.676 31 435.446 31H436.846ZM443.507 31V26.1C443.507 25.414 444.235 24.896 445.439 24.896H446.097V23.776H445.663C444.487 23.776 443.829 24.42 443.577 25.106H443.507V23.776H442.387V31H443.507ZM452.139 31H453.259V23.776H452.139V28.774C452.139 29.726 451.271 30.16 450.389 30.16C449.311 30.16 448.737 29.502 448.737 28.214V23.776H447.617V28.41C447.617 30.16 448.569 31.168 450.053 31.168C451.257 31.168 451.803 30.51 452.083 29.824H452.139V31ZM457.988 31V30.02H456.924V20.64H455.804V29.838C455.804 30.51 456.224 31 456.994 31H457.988ZM462.495 31.168C463.853 31.168 464.889 30.496 465.351 29.516L464.553 28.942C464.175 29.74 463.475 30.188 462.565 30.188C461.221 30.188 460.423 29.25 460.423 28.004V27.668H465.617V27.136C465.617 25.092 464.427 23.608 462.495 23.608C460.535 23.608 459.247 25.092 459.247 27.388C459.247 29.684 460.535 31.168 462.495 31.168ZM462.495 24.546C463.643 24.546 464.413 25.4 464.413 26.674V26.828H460.423V26.73C460.423 25.47 461.277 24.546 462.495 24.546ZM473.261 31.168C474.913 31.168 475.935 30.314 475.935 28.914C475.935 27.822 475.319 27.122 473.723 26.884L473.163 26.8C472.267 26.66 471.777 26.38 471.777 25.68C471.777 24.994 472.267 24.56 473.191 24.56C474.115 24.56 474.731 24.994 475.053 25.442L475.795 24.77C475.207 24.042 474.437 23.608 473.275 23.608C471.805 23.608 470.699 24.308 470.699 25.736C470.699 27.08 471.693 27.626 473.023 27.822L473.597 27.906C474.549 28.046 474.857 28.48 474.857 29.04C474.857 29.782 474.297 30.216 473.345 30.216C472.435 30.216 471.763 29.81 471.203 29.11L470.405 29.754C471.049 30.608 471.931 31.168 473.261 31.168ZM478.633 22.082C479.109 22.082 479.319 21.83 479.319 21.452V21.27C479.319 20.892 479.109 20.64 478.633 20.64C478.157 20.64 477.947 20.892 477.947 21.27V21.452C477.947 21.83 478.157 22.082 478.633 22.082ZM478.073 31H479.193V23.776H478.073V31ZM482.853 31V25.988C482.853 25.064 483.693 24.616 484.575 24.616C485.639 24.616 486.129 25.274 486.129 26.562V31H487.249V25.988C487.249 25.064 488.061 24.616 488.943 24.616C490.035 24.616 490.525 25.288 490.525 26.562V31H491.645V26.366C491.645 24.616 490.763 23.608 489.293 23.608C488.061 23.608 487.361 24.294 487.095 25.078H487.067C486.675 24.042 485.807 23.608 484.855 23.608C483.735 23.608 483.231 24.21 482.909 24.952H482.853V23.776H481.733V31H482.853ZM494.116 33.8H495.236V29.824H495.292C495.726 30.72 496.412 31.168 497.406 31.168C499.212 31.168 500.346 29.698 500.346 27.388C500.346 25.078 499.212 23.608 497.406 23.608C496.412 23.608 495.67 24.042 495.292 24.952H495.236V23.776H494.116V33.8ZM497.098 30.16C496.076 30.16 495.236 29.628 495.236 28.69V26.002C495.236 25.204 496.076 24.616 497.098 24.616C498.358 24.616 499.142 25.484 499.142 26.772V28.004C499.142 29.292 498.358 30.16 497.098 30.16ZM504.581 31V30.02H503.517V20.64H502.397V29.838C502.397 30.51 502.817 31 503.587 31H504.581ZM506.931 22.082C507.407 22.082 507.617 21.83 507.617 21.452V21.27C507.617 20.892 507.407 20.64 506.931 20.64C506.455 20.64 506.245 20.892 506.245 21.27V21.452C506.245 21.83 506.455 22.082 506.931 22.082ZM506.371 31H507.491V23.776H506.371V31ZM510.423 31H511.543V24.756H514.469V31H515.589V23.776H511.543V21.62H513.097V20.64H512.005C510.941 20.64 510.423 21.326 510.423 22.32V23.776H509.247V24.756H510.423V31ZM515.029 22.082C515.505 22.082 515.715 21.83 515.715 21.452V21.27C515.715 20.892 515.505 20.64 515.029 20.64C514.553 20.64 514.343 20.892 514.343 21.27V21.452C514.343 21.83 514.553 22.082 515.029 22.082ZM520.851 31.168C522.209 31.168 523.245 30.496 523.707 29.516L522.909 28.942C522.531 29.74 521.831 30.188 520.921 30.188C519.577 30.188 518.779 29.25 518.779 28.004V27.668H523.973V27.136C523.973 25.092 522.783 23.608 520.851 23.608C518.891 23.608 517.603 25.092 517.603 27.388C517.603 29.684 518.891 31.168 520.851 31.168ZM520.851 24.546C521.999 24.546 522.769 25.4 522.769 26.674V26.828H518.779V26.73C518.779 25.47 519.633 24.546 520.851 24.546ZM530.598 31H531.718V20.64H530.598V24.952H530.542C530.164 24.042 529.422 23.608 528.428 23.608C526.622 23.608 525.488 25.078 525.488 27.388C525.488 29.698 526.622 31.168 528.428 31.168C529.422 31.168 530.108 30.72 530.542 29.824H530.598V31ZM528.736 30.16C527.476 30.16 526.692 29.292 526.692 28.004V26.772C526.692 25.484 527.476 24.616 528.736 24.616C529.758 24.616 530.598 25.204 530.598 26.002V28.69C530.598 29.628 529.758 30.16 528.736 30.16Z" fill="black"/>
<path d="M268.646 25.6464C268.451 25.8417 268.451 26.1583 268.646 26.3536L271.828 29.5355C272.024 29.7308 272.34 29.7308 272.536 29.5355C272.731 29.3403 272.731 29.0237 272.536 28.8284L269.707 26L272.536 23.1716C272.731 22.9763 272.731 22.6597 272.536 22.4645C272.34 22.2692 272.024 22.2692 271.828 22.4645L268.646 25.6464ZM313 25.5L269 25.5V26.5L313 26.5V25.5Z" fill="black"/>
<path d="M7.04191 10.062C6.77772 10.062 6.58819 9.99309 6.47333 9.85525C6.35847 9.71741 6.29529 9.56235 6.2838 9.39005C6.2838 9.27518 6.31826 9.10289 6.38718 8.87316C6.4561 8.64343 6.57671 8.3735 6.74901 8.06336C6.9213 7.75323 7.17975 7.46032 7.52434 7.18465C7.86894 6.90897 8.27671 6.70796 8.74765 6.58161L9.299 6.49546H9.50576C9.88481 6.49546 10.1088 6.5012 10.1777 6.51269C10.9014 6.63904 11.5044 6.94343 11.9868 7.42586C12.4693 7.90829 12.8139 8.44241 13.0206 9.02823C13.2274 9.61404 13.325 10.2515 13.3135 10.9407C13.3135 12.0319 13.0436 13.2782 12.5037 14.6796C11.9639 16.0809 11.2919 17.1549 10.4879 17.9015C9.55745 18.763 8.52941 19.1938 7.40373 19.1938C6.25509 19.1938 5.3936 18.7458 4.81928 17.8498C4.4632 17.3215 4.28516 16.7931 4.28516 16.2647V16.0752C4.28516 14.7313 4.78482 13.5194 5.78414 12.4397C6.78346 11.36 7.89191 10.8144 9.10948 10.8029C9.81015 10.8029 10.3385 10.9809 10.6946 11.337C11.0507 11.6931 11.2862 12.0779 11.401 12.4914L11.4527 12.3019C11.6824 11.3485 11.7973 10.5617 11.7973 9.9414C11.7973 8.93059 11.5618 8.21843 11.0909 7.80492C10.6199 7.3914 10.0858 7.1789 9.48853 7.16742C8.59258 7.16742 7.89765 7.53498 7.40373 8.27012C7.87468 8.33904 8.11015 8.56877 8.11015 8.95931C8.11015 9.24647 8.00677 9.49917 7.80002 9.71741C7.59326 9.93566 7.34056 10.0505 7.04191 10.062ZM10.9703 13.5424C10.9703 12.7843 10.8037 12.2444 10.4706 11.9228C10.1375 11.6012 9.74698 11.4404 9.299 11.4404C8.57535 11.4404 7.93786 11.7046 7.3865 12.233C7.09934 12.5546 6.87536 12.8934 6.71455 13.2495C6.55374 13.6056 6.36421 14.1914 6.14597 15.0069C5.93921 15.834 5.83583 16.437 5.83583 16.8161C5.83583 17.9073 6.41015 18.4529 7.5588 18.4529C7.69664 18.4529 7.80002 18.4471 7.86894 18.4356C8.7534 18.2863 9.46556 17.7694 10.0054 16.885C10.1777 16.5978 10.3787 16.1154 10.6085 15.4377C10.8382 14.76 10.9588 14.1282 10.9703 13.5424Z" fill="black"/>
<path d="M15.3462 21.6059C15.3692 21.6059 15.4036 21.6174 15.4496 21.6404C15.4955 21.6634 15.5587 21.6806 15.6391 21.6921C15.7195 21.7036 15.7884 21.7093 15.8459 21.7093C15.9952 21.7093 16.133 21.6346 16.2594 21.4853C16.3857 21.336 16.4776 21.1694 16.5351 20.9857C16.6499 20.6755 16.8452 19.7968 17.1209 18.3495C17.3966 16.9022 17.6607 15.5238 17.9134 14.2144C18.1661 12.9049 18.2925 12.2444 18.2925 12.233V12.1813H17.4827C16.9428 12.1813 16.6557 12.1698 16.6212 12.1468C16.5753 12.1123 16.5523 12.0549 16.5523 11.9745L16.6729 11.4921C16.6959 11.4346 16.7418 11.4059 16.8107 11.4059C16.8797 11.4059 17.1496 11.4002 17.6205 11.3887C18.1719 11.3887 18.4476 11.383 18.4476 11.3715C18.4476 11.3485 18.4993 11.0613 18.6026 10.51C18.706 9.95864 18.7749 9.62553 18.8094 9.51066C19.2344 7.61539 20.0729 6.66776 21.3249 6.66776C21.7499 6.69073 22.1003 6.81708 22.3759 7.04681C22.6516 7.27654 22.7895 7.58093 22.7895 7.95999C22.7895 8.3735 22.6688 8.67215 22.4276 8.85593C22.1864 9.03972 21.9452 9.13735 21.704 9.14884C21.1986 9.14884 20.9459 8.90762 20.9459 8.42519C20.9459 8.20695 21.009 8.01742 21.1354 7.85661C21.2617 7.6958 21.3996 7.57519 21.5489 7.49479L21.704 7.40864C21.5202 7.33972 21.3479 7.30526 21.1871 7.30526C21.0493 7.30526 20.9172 7.36269 20.7908 7.47756C20.6645 7.59242 20.5783 7.75323 20.5324 7.95999C20.452 8.2931 20.3601 8.74107 20.2567 9.30391C20.1533 9.86674 20.0614 10.3434 19.981 10.734C19.9006 11.1245 19.8604 11.3313 19.8604 11.3542C19.8604 11.3772 20.1763 11.3887 20.808 11.3887C21.3249 11.3887 21.6236 11.3944 21.704 11.4059C21.7844 11.4174 21.8476 11.4519 21.8935 11.5093C21.905 11.5553 21.8935 11.6529 21.859 11.8022C21.8246 11.9515 21.7959 12.0434 21.7729 12.0779C21.7499 12.1353 21.6982 12.164 21.6178 12.164C21.5374 12.164 21.2273 12.1698 20.6874 12.1813H19.7226L19.3263 14.2833C18.7749 17.1319 18.3901 18.9123 18.1719 19.6245C17.8618 20.6009 17.4597 21.3245 16.9658 21.7955C16.5408 22.163 16.1216 22.3468 15.708 22.3468C15.3405 22.3468 15.0074 22.2377 14.7087 22.0194C14.4101 21.8012 14.2607 21.4911 14.2607 21.089C14.2607 20.664 14.3814 20.3539 14.6226 20.1586C14.8638 19.9634 15.105 19.8657 15.3462 19.8657C15.8516 19.8657 16.1043 20.1069 16.1043 20.5894C16.1043 20.8076 16.0411 20.9971 15.9148 21.158C15.7884 21.3188 15.6506 21.4394 15.5013 21.5198L15.3462 21.6059Z" fill="black"/>
<path d="M5.19718 33.529C4.93299 33.529 4.74347 33.46 4.6286 33.3222C4.51374 33.1844 4.45056 33.0293 4.43908 32.857C4.43908 32.7421 4.47354 32.5698 4.54245 32.3401C4.61137 32.1104 4.73198 31.8404 4.90428 31.5303C5.07658 31.2202 5.33502 30.9273 5.67962 30.6516C6.02421 30.3759 6.43198 30.1749 6.90293 30.0486L7.45428 29.9624H7.66103C8.04009 29.9624 8.26407 29.9681 8.33299 29.9796C9.05664 30.106 9.65968 30.4104 10.1421 30.8928C10.6245 31.3752 10.9691 31.9094 11.1759 32.4952C11.3827 33.081 11.4803 33.7185 11.4688 34.4077C11.4688 35.4989 11.1989 36.7452 10.659 38.1465C10.1191 39.5479 9.44718 40.6219 8.64313 41.3685C7.71272 42.23 6.68468 42.6607 5.55901 42.6607C4.41036 42.6607 3.54887 42.2127 2.97455 41.3168C2.61847 40.7884 2.44043 40.26 2.44043 39.7317V39.5421C2.44043 38.1982 2.94009 36.9864 3.93941 35.9067C4.93874 34.8269 6.04718 34.2813 7.26475 34.2698C7.96542 34.2698 8.4938 34.4479 8.84988 34.804C9.20596 35.16 9.44144 35.5448 9.5563 35.9583L9.60799 35.7688C9.83772 34.8154 9.95258 34.0286 9.95258 33.4083C9.95258 32.3975 9.71711 31.6854 9.24617 31.2719C8.77522 30.8584 8.2411 30.6459 7.6438 30.6344C6.74786 30.6344 6.05293 31.0019 5.55901 31.7371C6.02995 31.806 6.26543 32.0357 6.26543 32.4263C6.26543 32.7134 6.16205 32.9661 5.95529 33.1844C5.74853 33.4026 5.49583 33.5175 5.19718 33.529ZM9.12556 37.0094C9.12556 36.2513 8.959 35.7114 8.6259 35.3898C8.29279 35.0681 7.90225 34.9073 7.45428 34.9073C6.73063 34.9073 6.09313 35.1715 5.54178 35.6999C5.25462 36.0215 5.03063 36.3604 4.86982 36.7165C4.70901 37.0725 4.51948 37.6583 4.30124 38.4739C4.09448 39.3009 3.9911 39.904 3.9911 40.283C3.9911 41.3742 4.56543 41.9198 5.71408 41.9198C5.85191 41.9198 5.95529 41.9141 6.02421 41.9026C6.90867 41.7533 7.62083 41.2364 8.16069 40.3519C8.33299 40.0648 8.53401 39.5823 8.76373 38.9046C8.99346 38.2269 9.11407 37.5952 9.12556 37.0094Z" fill="black"/>
<path d="M12.0703 38.8356C12.0703 37.664 12.2943 36.4292 12.7423 35.1312C13.1902 33.8333 13.799 32.7133 14.5686 31.7714C15.3382 30.8295 16.1365 30.2897 16.9636 30.1518C16.975 30.1518 17.021 30.1518 17.1014 30.1518C17.1818 30.1518 17.2507 30.1461 17.3081 30.1346C17.9284 30.1806 18.4108 30.462 18.7554 30.9789C19.2034 31.6681 19.4274 32.5927 19.4274 33.7529C19.4274 35.0738 19.169 36.4177 18.6521 37.7846C18.1352 39.1515 17.4747 40.2714 16.6706 41.1444C15.8666 42.0174 15.097 42.4539 14.3619 42.4539H14.2413C13.8277 42.4539 13.4717 42.339 13.173 42.1093C12.8744 41.8795 12.6504 41.5751 12.5011 41.1961C12.3517 40.817 12.2426 40.4322 12.1737 40.0417C12.1048 39.6512 12.0703 39.2491 12.0703 38.8356ZM18.0663 32.5295C18.0663 31.3579 17.7619 30.7721 17.1531 30.7721C16.7396 30.7721 16.3375 31.0306 15.947 31.5474C15.5565 32.0643 15.2348 32.6502 14.9821 33.3049C14.7294 33.9596 14.5342 34.5339 14.3963 35.0279C14.2585 35.5218 14.1838 35.8089 14.1723 35.8893C14.7352 35.9008 15.2923 35.9066 15.8436 35.9066L17.5149 35.8893C17.5264 35.8779 17.5723 35.6883 17.6527 35.3208C17.7331 34.9532 17.825 34.4937 17.9284 33.9424C18.0318 33.391 18.0777 32.9201 18.0663 32.5295ZM13.4142 40.0072C13.4142 41.2248 13.7186 41.8336 14.3274 41.8336C14.4997 41.8336 14.6835 41.7762 14.8788 41.6613C15.074 41.5464 15.3095 41.3282 15.5852 41.0066C15.8608 40.6849 16.1365 40.1853 16.4122 39.5076C16.6879 38.8299 16.9636 37.9914 17.2392 36.992L17.3254 36.6991H13.9656C13.9656 36.7336 13.9139 36.9518 13.8105 37.3539C13.7071 37.7559 13.6152 38.2039 13.5348 38.6978C13.4544 39.1917 13.4142 39.6282 13.4142 40.0072Z" fill="black"/>
<path d="M21.7893 37.5572C21.7893 37.3623 21.8664 37.1917 22.0207 37.0455C22.175 36.8994 22.3537 36.8222 22.5567 36.8141C22.7029 36.8141 22.8247 36.8628 22.9222 36.9603C23.0196 37.0577 23.0724 37.1795 23.0805 37.3257C23.0805 37.5125 22.9993 37.683 22.8369 37.8373C22.6745 37.9916 22.4958 38.0728 22.3009 38.081C22.1791 38.081 22.0654 38.0404 21.9598 37.9591C21.8542 37.8779 21.7974 37.7439 21.7893 37.5572ZM19.8037 41.3699C19.8037 41.305 19.8403 41.1791 19.9133 40.9923C19.9864 40.8055 20.0839 40.5985 20.2057 40.3711C20.3275 40.1437 20.5062 39.9366 20.7417 39.7498C20.9772 39.563 21.2208 39.4737 21.4726 39.4818C21.7893 39.4818 22.0532 39.5752 22.2644 39.762C22.4755 39.9488 22.5851 40.2005 22.5933 40.5172C22.5933 40.6553 22.5364 40.8827 22.4227 41.1994C22.309 41.5161 22.1466 41.9425 21.9355 42.4784C21.7243 43.0144 21.5538 43.4733 21.4238 43.8549C21.3832 44.0336 21.3629 44.1635 21.3629 44.2448C21.3629 44.4478 21.432 44.5493 21.57 44.5493C21.6431 44.5493 21.7203 44.5371 21.8015 44.5127C21.8827 44.4884 21.9761 44.4315 22.0816 44.3422C22.1872 44.2529 22.2968 44.1108 22.4105 43.9159C22.5242 43.721 22.6257 43.4814 22.7151 43.1972C22.7394 43.0997 22.7597 43.0429 22.776 43.0266C22.7922 43.0104 22.8612 43.0022 22.9831 43.0022C23.1455 43.0022 23.2267 43.0429 23.2267 43.1241C23.2267 43.189 23.1901 43.3149 23.1171 43.5017C23.044 43.6885 22.9425 43.8956 22.8125 44.1229C22.6826 44.3503 22.4999 44.5533 22.2644 44.732C22.0288 44.9107 21.7771 45 21.5091 45C21.2492 45 21.0097 44.9147 20.7904 44.7442C20.5711 44.5737 20.4574 44.3138 20.4493 43.9646C20.4493 43.8265 20.4696 43.6966 20.5102 43.5748C20.5508 43.453 20.7254 42.9901 21.034 42.1861C21.3426 41.3659 21.5213 40.8746 21.57 40.7121C21.6187 40.5497 21.6472 40.3914 21.6553 40.2371C21.6553 40.0422 21.5863 39.9447 21.4482 39.9447H21.4238C21.1802 39.9447 20.9569 40.0787 20.7539 40.3467C20.5508 40.6147 20.3965 40.9558 20.291 41.3699C20.2828 41.3781 20.2747 41.3902 20.2666 41.4065C20.2585 41.4227 20.2544 41.4349 20.2544 41.443C20.2544 41.4512 20.2463 41.4593 20.2301 41.4674C20.2138 41.4755 20.2016 41.4796 20.1935 41.4796C20.1854 41.4796 20.1692 41.4796 20.1448 41.4796C20.1204 41.4796 20.0879 41.4796 20.0473 41.4796H19.8768C19.8281 41.4308 19.8037 41.3943 19.8037 41.3699Z" fill="black"/>
<path d="M26.3442 26.6714H0V25.6376H26.3442V26.6714Z" fill="black"/>
<path d="M34.1587 24.4833C34.1587 24.334 34.2391 24.2191 34.3999 24.1387H45.3752C45.5475 24.2306 45.6337 24.3454 45.6337 24.4833C45.6337 24.6096 45.5533 24.7188 45.3925 24.8106L39.9134 24.8279H34.4344C34.2506 24.7704 34.1587 24.6556 34.1587 24.4833ZM34.1587 27.8258C34.1587 27.6535 34.2506 27.5387 34.4344 27.4813H45.3925C45.5533 27.5961 45.6337 27.711 45.6337 27.8258C45.6337 27.9752 45.5475 28.09 45.3752 28.1704H34.3999C34.2391 28.09 34.1587 27.9752 34.1587 27.8258Z" fill="black"/>
<path d="M57.2163 19.3834C57.2393 19.3834 57.2738 19.3948 57.3197 19.4178C57.3657 19.4408 57.4288 19.458 57.5092 19.4695C57.5896 19.481 57.6586 19.4867 57.716 19.4867C57.8653 19.4867 58.0032 19.4121 58.1295 19.2628C58.2559 19.1134 58.3477 18.9469 58.4052 18.7631C58.52 18.453 58.7153 17.5742 58.991 16.1269C59.2667 14.6796 59.5309 13.3013 59.7836 11.9918C60.0363 10.6824 60.1626 10.0219 60.1626 10.0104V9.9587H59.3528C58.813 9.9587 58.5258 9.94722 58.4913 9.92424C58.4454 9.88979 58.4224 9.83235 58.4224 9.75195L58.543 9.26952C58.566 9.21208 58.6119 9.18337 58.6809 9.18337C58.7498 9.18337 59.0197 9.17762 59.4907 9.16614C60.042 9.16614 60.3177 9.16039 60.3177 9.14891C60.3177 9.12593 60.3694 8.83877 60.4727 8.28742C60.5761 7.73607 60.645 7.40296 60.6795 7.2881C61.1045 5.39283 61.943 4.44519 63.195 4.44519C63.62 4.46817 63.9704 4.59452 64.2461 4.82425C64.5217 5.05398 64.6596 5.35837 64.6596 5.73742C64.6596 6.15094 64.539 6.44958 64.2977 6.63337C64.0565 6.81715 63.8153 6.91479 63.5741 6.92627C63.0687 6.92627 62.816 6.68506 62.816 6.20263C62.816 5.98438 62.8792 5.79486 63.0055 5.63404C63.1319 5.47323 63.2697 5.35263 63.419 5.27222L63.5741 5.18607C63.3903 5.11715 63.218 5.08269 63.0572 5.08269C62.9194 5.08269 62.7873 5.14013 62.6609 5.25499C62.5346 5.36986 62.4484 5.53067 62.4025 5.73742C62.3221 6.07053 62.2302 6.5185 62.1268 7.08134C62.0234 7.64418 61.9315 8.12087 61.8511 8.51141C61.7707 8.90195 61.7305 9.1087 61.7305 9.13168C61.7305 9.15465 62.0464 9.16614 62.6782 9.16614C63.195 9.16614 63.4937 9.17188 63.5741 9.18337C63.6545 9.19485 63.7177 9.22931 63.7636 9.28674C63.7751 9.33269 63.7636 9.43033 63.7292 9.57965C63.6947 9.72897 63.666 9.82087 63.643 9.85533C63.62 9.91276 63.5684 9.94147 63.4879 9.94147C63.4075 9.94147 63.0974 9.94722 62.5575 9.9587H61.5927L61.1964 12.0607C60.645 14.9094 60.2602 16.6898 60.042 17.4019C59.7319 18.3783 59.3298 19.1019 58.8359 19.5729C58.4109 19.9405 57.9917 20.1242 57.5782 20.1242C57.2106 20.1242 56.8775 20.0151 56.5788 19.7969C56.2802 19.5786 56.1309 19.2685 56.1309 18.8665C56.1309 18.4415 56.2515 18.1313 56.4927 17.9361C56.7339 17.7408 56.9751 17.6432 57.2163 17.6432C57.7217 17.6432 57.9744 17.8844 57.9744 18.3668C57.9744 18.585 57.9113 18.7746 57.7849 18.9354C57.6586 19.0962 57.5207 19.2168 57.3714 19.2972L57.2163 19.3834Z" fill="black"/>
<path d="M66.2793 12.2848C66.2793 11.4922 66.3367 10.7398 66.4516 10.0277C66.5665 9.31552 66.6986 8.70099 66.8479 8.1841C66.9972 7.66721 67.2097 7.1618 67.4854 6.66788C67.7611 6.17397 67.9793 5.78917 68.1401 5.51349C68.3009 5.23782 68.5421 4.93917 68.8638 4.61755C69.1854 4.29593 69.3749 4.10066 69.4323 4.03174C69.4898 3.96282 69.6333 3.84221 69.8631 3.66991H70.0871H70.156C70.3168 3.66991 70.3972 3.7216 70.3972 3.82498C70.3972 3.85944 70.2996 3.98005 70.1043 4.18681C69.909 4.39356 69.6736 4.69795 69.3979 5.09998C69.1222 5.50201 68.8408 5.99593 68.5536 6.58174C68.2665 7.16755 68.0252 7.96011 67.83 8.95944C67.6347 9.95876 67.5371 11.0672 67.5371 12.2848C67.5371 13.5023 67.6347 14.605 67.83 15.5929C68.0252 16.5807 68.2607 17.379 68.5364 17.9878C68.8121 18.5966 69.0935 19.0905 69.3806 19.4696C69.6678 19.8486 69.909 20.153 70.1043 20.3827C70.2996 20.6125 70.3972 20.7331 70.3972 20.7446C70.3972 20.8479 70.311 20.8996 70.1388 20.8996H70.0871H69.8631L69.3806 20.4861C68.3009 19.5098 67.5141 18.2922 67.0202 16.8334C66.5263 15.3746 66.2793 13.8584 66.2793 12.2848Z" fill="black"/>
<path d="M72.229 13.1463C72.229 11.9747 72.453 10.7399 72.901 9.4419C73.3489 8.14393 73.9577 7.024 74.7273 6.0821C75.4969 5.14021 76.2952 4.60035 77.1222 4.46251C77.1337 4.46251 77.1797 4.46251 77.2601 4.46251C77.3405 4.46251 77.4094 4.45677 77.4668 4.44528C78.0871 4.49123 78.5695 4.77265 78.9141 5.28954C79.3621 5.97873 79.5861 6.90339 79.5861 8.06352C79.5861 9.38447 79.3276 10.7284 78.8108 12.0953C78.2939 13.4622 77.6334 14.5821 76.8293 15.4551C76.0253 16.328 75.2557 16.7645 74.5206 16.7645H74.3999C73.9864 16.7645 73.6304 16.6497 73.3317 16.4199C73.0331 16.1902 72.8091 15.8858 72.6597 15.5068C72.5104 15.1277 72.4013 14.7429 72.3324 14.3524C72.2635 13.9618 72.229 13.5598 72.229 13.1463ZM78.2249 6.84021C78.2249 5.66859 77.9206 5.08278 77.3118 5.08278C76.8983 5.08278 76.4962 5.34123 76.1057 5.85812C75.7151 6.37501 75.3935 6.96082 75.1408 7.61555C74.8881 8.27028 74.6929 8.8446 74.555 9.33852C74.4172 9.83244 74.3425 10.1196 74.331 10.2C74.8939 10.2115 75.451 10.2172 76.0023 10.2172L77.6736 10.2C77.6851 10.1885 77.731 9.99899 77.8114 9.63142C77.8918 9.26386 77.9837 8.8044 78.0871 8.25305C78.1905 7.7017 78.2364 7.23075 78.2249 6.84021ZM73.5729 14.3179C73.5729 15.5355 73.8773 16.1443 74.4861 16.1443C74.6584 16.1443 74.8422 16.0868 75.0374 15.972C75.2327 15.8571 75.4682 15.6389 75.7439 15.3172C76.0195 14.9956 76.2952 14.4959 76.5709 13.8182C76.8466 13.1405 77.1222 12.302 77.3979 11.3027L77.4841 11.0098H74.1243C74.1243 11.0443 74.0726 11.2625 73.9692 11.6645C73.8658 12.0666 73.7739 12.5145 73.6935 13.0084C73.6131 13.5024 73.5729 13.9389 73.5729 14.3179Z" fill="black"/>
<path d="M79.2884 0.34461C79.2884 0.252718 79.3171 0.172313 79.3746 0.103394C79.432 0.0344752 79.5181 1.57505e-05 79.633 1.57505e-05C79.7134 1.57505e-05 79.7823 0.0287319 79.8398 0.0861643C79.8972 0.13211 79.9546 0.241232 80.0121 0.413529C80.1269 0.838528 80.3624 1.16589 80.7185 1.39562C80.8448 1.47603 80.908 1.57941 80.908 1.70576C80.908 1.80914 80.8908 1.87805 80.8563 1.91251C80.8219 1.94697 80.7415 1.99866 80.6151 2.06758C80.1212 2.32028 79.6904 2.68211 79.3229 3.15305C79.2999 3.17603 79.2712 3.21049 79.2367 3.25643C79.2023 3.30238 79.1736 3.33684 79.1506 3.35981C79.1276 3.38278 79.0989 3.39427 79.0644 3.39427C79.03 3.39427 78.9898 3.40001 78.9438 3.4115C78.8634 3.4115 78.7888 3.38278 78.7198 3.32535C78.6509 3.26792 78.6107 3.18177 78.5992 3.0669C78.5992 2.84866 78.8692 2.50981 79.409 2.05035H76.4627L73.5165 2.03312C73.3671 1.92974 73.2925 1.82062 73.2925 1.70576C73.2925 1.62535 73.3671 1.51049 73.5165 1.36116H79.7019C79.4263 0.924677 79.2884 0.585826 79.2884 0.34461Z" fill="black"/>
<path d="M86.2026 12.5088C86.2026 12.5088 86.2026 12.4341 86.2026 12.2848C86.2026 12.1354 86.283 12.0206 86.4439 11.9402H91.5955V9.35572L91.6128 6.77126C91.7276 6.62194 91.8368 6.54728 91.9401 6.54728C92.0895 6.54728 92.2043 6.63343 92.2847 6.80572V11.9402H97.4192C97.5915 12.0321 97.6776 12.1469 97.6776 12.2848C97.6776 12.4226 97.5915 12.5375 97.4192 12.6294H92.2847V17.7638C92.1928 17.9246 92.0895 18.005 91.9746 18.005H91.9401H91.9057C91.7678 18.005 91.6645 17.9246 91.5955 17.7638V12.6294H86.4439C86.283 12.549 86.2026 12.4341 86.2026 12.2848V12.5088Z" fill="black"/>
<path d="M107.866 9.93774C107.59 9.93774 107.452 9.80375 107.452 9.53576V9.40176L107.61 9.06068C108.219 7.77757 108.662 6.66907 108.938 5.73516L109.035 5.44281H108.645C108.337 5.44281 108.118 5.45499 107.988 5.47935C107.858 5.50371 107.699 5.58086 107.512 5.7108C107.423 5.76764 107.334 5.84073 107.245 5.93006C107.155 6.01939 107.078 6.10466 107.013 6.18587C106.948 6.26708 106.912 6.31581 106.903 6.33205C106.887 6.34017 106.826 6.34423 106.721 6.34423C106.566 6.34423 106.489 6.30362 106.489 6.22242C106.489 6.17369 106.566 6.03157 106.721 5.79607C106.875 5.56056 107.098 5.30881 107.391 5.04082C107.683 4.77283 107.971 4.61853 108.256 4.57793C108.312 4.56168 109.226 4.55356 110.996 4.55356C112.296 4.55356 112.962 4.55762 112.994 4.56574C113.157 4.62259 113.238 4.73628 113.238 4.90682C113.238 5.15857 113.108 5.32911 112.848 5.41844C112.799 5.43468 112.519 5.44281 112.007 5.44281H111.228L111.191 5.64989C111.094 6.2346 111.045 6.71779 111.045 7.09948C111.045 7.52177 111.082 7.89939 111.155 8.23235C111.228 8.56531 111.305 8.82518 111.386 9.01196C111.467 9.19874 111.508 9.31243 111.508 9.35304C111.508 9.49109 111.451 9.62103 111.337 9.74284C111.224 9.86466 111.078 9.92556 110.899 9.92556C110.81 9.92556 110.737 9.91338 110.68 9.88902C110.623 9.86466 110.558 9.7672 110.485 9.59666C110.412 9.42613 110.347 9.1825 110.29 8.86578C110.282 8.79269 110.278 8.61403 110.278 8.3298C110.278 7.93187 110.314 7.50552 110.387 7.05075C110.46 6.59598 110.533 6.22242 110.607 5.93006C110.68 5.63771 110.72 5.47529 110.728 5.44281H109.535L109.522 5.49153C109.522 5.51589 109.445 5.83667 109.291 6.45386C109.137 7.07105 108.962 7.72479 108.767 8.41507C108.572 9.10535 108.446 9.49921 108.39 9.59666C108.3 9.82405 108.126 9.93774 107.866 9.93774Z" fill="black"/>
<path d="M108.016 17.3106C107.797 17.3106 107.622 17.2376 107.492 17.0914C107.362 16.9452 107.297 16.7665 107.297 16.5554C107.297 15.9788 107.513 15.4794 107.943 15.0571C108.373 14.6348 108.909 14.4237 109.551 14.4237C110.29 14.4237 110.907 14.651 111.402 15.1058C111.898 15.5606 112.15 16.1494 112.158 16.8721C112.158 17.2213 112.077 17.5543 111.914 17.871C111.752 18.1877 111.557 18.4638 111.329 18.6993C111.102 18.9348 110.777 19.2353 110.355 19.6007C110.063 19.8525 109.656 20.2261 109.137 20.7214L108.418 21.4036L109.344 21.4158C110.619 21.4158 111.297 21.3955 111.378 21.3549C111.435 21.3386 111.532 20.9772 111.67 20.2707V20.2342H112.158V20.2707C112.15 20.2951 112.097 20.6646 111.999 21.3792C111.902 22.0939 111.841 22.4674 111.817 22.4999V22.5365H107.297V22.305V22.1588C107.297 22.102 107.322 22.0411 107.37 21.9761C107.419 21.9112 107.541 21.769 107.736 21.5498C107.971 21.2899 108.174 21.0625 108.345 20.8676C108.418 20.7864 108.556 20.6362 108.759 20.4169C108.962 20.1976 109.1 20.0474 109.173 19.9662C109.246 19.885 109.364 19.751 109.527 19.5642C109.689 19.3774 109.803 19.2394 109.868 19.15C109.933 19.0607 110.026 18.9389 110.148 18.7846C110.27 18.6303 110.355 18.5004 110.404 18.3948C110.452 18.2892 110.513 18.1715 110.586 18.0415C110.659 17.9116 110.712 17.7817 110.745 17.6517C110.777 17.5218 110.806 17.4 110.83 17.2863C110.854 17.1726 110.867 17.0386 110.867 16.8843C110.867 16.3727 110.728 15.9301 110.452 15.5565C110.176 15.183 109.782 14.9962 109.271 14.9962C109.003 14.9962 108.767 15.0652 108.564 15.2033C108.361 15.3413 108.219 15.4753 108.138 15.6052C108.057 15.7352 108.016 15.8123 108.016 15.8367C108.016 15.8448 108.036 15.8489 108.077 15.8489C108.223 15.8489 108.373 15.9057 108.528 16.0194C108.682 16.1331 108.759 16.3199 108.759 16.5798C108.759 16.7828 108.694 16.9533 108.564 17.0914C108.434 17.2294 108.252 17.3025 108.016 17.3106Z" fill="black"/>
<path d="M114.929 12.8016H104.538V11.7679H114.929V12.8016Z" fill="black"/>
<path d="M117.963 13.6975C117.963 13.0428 118.073 12.4455 118.291 11.9056C118.509 11.3657 118.79 10.9178 119.135 10.5617C119.48 10.2056 119.864 9.90696 120.289 9.66574C120.714 9.42453 121.116 9.24649 121.495 9.13162C121.875 9.01676 122.236 8.96507 122.581 8.97656H122.633C123.15 8.97656 123.597 9.10291 123.977 9.35561C124.356 9.60831 124.545 9.98162 124.545 10.4755C124.545 11.5093 123.908 12.187 122.633 12.5086C122.07 12.658 121.3 12.7384 120.324 12.7499C119.899 12.7499 119.681 12.7613 119.669 12.7843C119.669 12.8073 119.635 13.0083 119.566 13.3874C119.497 13.7664 119.457 14.0995 119.445 14.3867C119.445 14.9266 119.566 15.3515 119.807 15.6617C120.048 15.9718 120.41 16.1326 120.892 16.1441C121.375 16.1556 121.909 16.0465 122.495 15.8168C123.081 15.587 123.609 15.208 124.08 14.6796C124.183 14.5647 124.252 14.5073 124.287 14.5073C124.333 14.5073 124.407 14.559 124.511 14.6624C124.614 14.7657 124.671 14.8461 124.683 14.9036C124.694 14.961 124.643 15.0529 124.528 15.1793C124.413 15.3056 124.241 15.4607 124.011 15.6445C123.781 15.8282 123.517 16.0063 123.218 16.1786C122.92 16.3509 122.558 16.4945 122.133 16.6093C121.708 16.7242 121.271 16.7816 120.824 16.7816C119.916 16.7816 119.215 16.4772 118.721 15.8684C118.228 15.2597 117.975 14.536 117.963 13.6975ZM123.718 10.51C123.649 9.9127 123.259 9.61405 122.546 9.61405C122.167 9.61405 121.817 9.69446 121.495 9.85527C121.174 10.0161 120.915 10.2114 120.72 10.4411C120.525 10.6708 120.358 10.9063 120.22 11.1475C120.083 11.3887 119.991 11.5955 119.945 11.7678C119.899 11.9401 119.87 12.0492 119.859 12.0951C119.859 12.1066 119.974 12.1124 120.203 12.1124C121.501 12.1124 122.409 11.9745 122.926 11.6989C123.442 11.4232 123.707 11.0269 123.718 10.51Z" fill="black"/>
<path d="M124.45 4.87586C124.45 4.78397 124.479 4.70356 124.536 4.63464C124.594 4.56573 124.68 4.53127 124.795 4.53127C124.875 4.53127 124.944 4.55998 125.001 4.61741C125.059 4.66336 125.116 4.77248 125.174 4.94478C125.289 5.36978 125.524 5.69714 125.88 5.92687C126.006 6.00728 126.07 6.11066 126.07 6.23701C126.07 6.34039 126.052 6.4093 126.018 6.44376C125.983 6.47822 125.903 6.52991 125.777 6.59883C125.283 6.85153 124.852 7.21336 124.485 7.6843C124.462 7.70728 124.433 7.74174 124.398 7.78768C124.364 7.83363 124.335 7.86809 124.312 7.89106C124.289 7.91403 124.261 7.92552 124.226 7.92552C124.192 7.92552 124.151 7.93126 124.105 7.94275C124.025 7.94275 123.95 7.91403 123.881 7.8566C123.813 7.79917 123.772 7.71302 123.761 7.59815C123.761 7.37991 124.031 7.04106 124.571 6.5816H121.624L118.678 6.56437C118.529 6.46099 118.454 6.35187 118.454 6.23701C118.454 6.1566 118.529 6.04174 118.678 5.89241H124.864C124.588 5.45593 124.45 5.11708 124.45 4.87586Z" fill="black"/>
<path d="M128.815 11.8678C128.815 11.6729 128.892 11.5024 129.046 11.3562C129.2 11.21 129.379 11.1329 129.582 11.1248C129.728 11.1248 129.85 11.1735 129.948 11.2709C130.045 11.3684 130.098 11.4902 130.106 11.6364C130.106 11.8232 130.025 11.9937 129.862 12.148C129.7 12.3023 129.521 12.3835 129.326 12.3916C129.204 12.3916 129.091 12.351 128.985 12.2698C128.88 12.1886 128.823 12.0546 128.815 11.8678ZM126.829 15.6806C126.829 15.6156 126.866 15.4898 126.939 15.303C127.012 15.1162 127.109 14.9091 127.231 14.6817C127.353 14.4543 127.532 14.2473 127.767 14.0605C128.003 13.8737 128.246 13.7844 128.498 13.7925C128.815 13.7925 129.079 13.8859 129.29 14.0727C129.501 14.2594 129.611 14.5112 129.619 14.8279C129.619 14.966 129.562 15.1934 129.448 15.5101C129.334 15.8268 129.172 16.2531 128.961 16.7891C128.75 17.3251 128.579 17.7839 128.449 18.1656C128.409 18.3443 128.388 18.4742 128.388 18.5554C128.388 18.7584 128.457 18.86 128.595 18.86C128.668 18.86 128.746 18.8478 128.827 18.8234C128.908 18.799 129.001 18.7422 129.107 18.6529C129.213 18.5635 129.322 18.4214 129.436 18.2265C129.55 18.0316 129.651 17.7921 129.74 17.5078C129.765 17.4104 129.785 17.3535 129.801 17.3373C129.818 17.321 129.887 17.3129 130.008 17.3129C130.171 17.3129 130.252 17.3535 130.252 17.4347C130.252 17.4997 130.216 17.6256 130.142 17.8124C130.069 17.9991 129.968 18.2062 129.838 18.4336C129.708 18.661 129.525 18.864 129.29 19.0427C129.054 19.2213 128.802 19.3107 128.534 19.3107C128.275 19.3107 128.035 19.2254 127.816 19.0549C127.597 18.8843 127.483 18.6244 127.475 18.2752C127.475 18.1372 127.495 18.0073 127.536 17.8854C127.576 17.7636 127.751 17.3007 128.059 16.4968C128.368 15.6765 128.547 15.1852 128.595 15.0228C128.644 14.8604 128.673 14.702 128.681 14.5477C128.681 14.3528 128.612 14.2554 128.474 14.2554H128.449C128.206 14.2554 127.982 14.3894 127.779 14.6574C127.576 14.9254 127.422 15.2664 127.316 15.6806C127.308 15.6887 127.3 15.7009 127.292 15.7172C127.284 15.7334 127.28 15.7456 127.28 15.7537C127.28 15.7618 127.272 15.7699 127.255 15.7781C127.239 15.7862 127.227 15.7902 127.219 15.7902C127.211 15.7902 127.195 15.7902 127.17 15.7902C127.146 15.7902 127.113 15.7902 127.073 15.7902H126.902C126.853 15.7415 126.829 15.705 126.829 15.6806Z" fill="black"/>
<path d="M132.672 3.68714L132.741 3.66991C132.798 3.66991 132.856 3.66991 132.913 3.66991H133.12L133.602 4.08343C134.682 5.05978 135.469 6.27734 135.963 7.73613C136.457 9.19491 136.704 10.7111 136.704 12.2848C136.704 13.0659 136.646 13.8182 136.532 14.5419C136.417 15.2655 136.285 15.88 136.135 16.3854C135.986 16.8908 135.773 17.3963 135.498 17.9017C135.222 18.4071 135.004 18.7919 134.843 19.056C134.682 19.3202 134.447 19.6131 134.137 19.9348C133.826 20.2564 133.643 20.4459 133.585 20.5033C133.528 20.5608 133.396 20.6699 133.189 20.8307C133.155 20.8652 133.132 20.8881 133.12 20.8996H132.913C132.821 20.8996 132.758 20.8996 132.724 20.8996C132.689 20.8996 132.661 20.8824 132.638 20.8479C132.615 20.8135 132.597 20.7618 132.586 20.6929C132.597 20.6814 132.661 20.6067 132.775 20.4689C134.556 18.6196 135.446 15.8915 135.446 12.2848C135.446 8.67802 134.556 5.94998 132.775 4.10066C132.661 3.96282 132.597 3.88816 132.586 3.87667C132.586 3.78478 132.615 3.7216 132.672 3.68714Z" fill="black"/>
<path d="M143.618 12.5086C143.618 12.5086 143.618 12.434 143.618 12.2846C143.618 12.1353 143.699 12.0205 143.859 11.9401H153.87C154.042 12.0319 154.128 12.1468 154.128 12.2846C154.128 12.4225 154.042 12.5374 153.87 12.6292H143.859C143.699 12.5488 143.618 12.434 143.618 12.2846V12.5086Z" fill="black"/>
<path d="M161.438 19.3834C161.461 19.3834 161.496 19.3948 161.542 19.4178C161.588 19.4408 161.651 19.458 161.731 19.4695C161.812 19.481 161.881 19.4867 161.938 19.4867C162.087 19.4867 162.225 19.4121 162.352 19.2628C162.478 19.1134 162.57 18.9469 162.627 18.7631C162.742 18.453 162.937 17.5742 163.213 16.1269C163.489 14.6796 163.753 13.3013 164.006 11.9918C164.258 10.6824 164.385 10.0219 164.385 10.0104V9.9587H163.575C163.035 9.9587 162.748 9.94722 162.713 9.92424C162.668 9.88979 162.645 9.83235 162.645 9.75195L162.765 9.26952C162.788 9.21208 162.834 9.18337 162.903 9.18337C162.972 9.18337 163.242 9.17762 163.713 9.16614C164.264 9.16614 164.54 9.16039 164.54 9.14891C164.54 9.12593 164.592 8.83877 164.695 8.28742C164.798 7.73607 164.867 7.40296 164.902 7.2881C165.327 5.39283 166.165 4.44519 167.417 4.44519C167.842 4.46817 168.193 4.59452 168.468 4.82425C168.744 5.05398 168.882 5.35837 168.882 5.73742C168.882 6.15094 168.761 6.44958 168.52 6.63337C168.279 6.81715 168.037 6.91479 167.796 6.92627C167.291 6.92627 167.038 6.68506 167.038 6.20263C167.038 5.98438 167.101 5.79486 167.228 5.63404C167.354 5.47323 167.492 5.35263 167.641 5.27222L167.796 5.18607C167.612 5.11715 167.44 5.08269 167.279 5.08269C167.142 5.08269 167.009 5.14013 166.883 5.25499C166.757 5.36986 166.671 5.53067 166.625 5.73742C166.544 6.07053 166.452 6.5185 166.349 7.08134C166.246 7.64418 166.154 8.12087 166.073 8.51141C165.993 8.90195 165.953 9.1087 165.953 9.13168C165.953 9.15465 166.269 9.16614 166.9 9.16614C167.417 9.16614 167.716 9.17188 167.796 9.18337C167.877 9.19485 167.94 9.22931 167.986 9.28674C167.997 9.33269 167.986 9.43033 167.951 9.57965C167.917 9.72897 167.888 9.82087 167.865 9.85533C167.842 9.91276 167.791 9.94147 167.71 9.94147C167.63 9.94147 167.32 9.94722 166.78 9.9587H165.815L165.419 12.0607C164.867 14.9094 164.482 16.6898 164.264 17.4019C163.954 18.3783 163.552 19.1019 163.058 19.5729C162.633 19.9405 162.214 20.1242 161.8 20.1242C161.433 20.1242 161.1 20.0151 160.801 19.7969C160.502 19.5786 160.353 19.2685 160.353 18.8665C160.353 18.4415 160.474 18.1313 160.715 17.9361C160.956 17.7408 161.197 17.6432 161.438 17.6432C161.944 17.6432 162.197 17.8844 162.197 18.3668C162.197 18.585 162.133 18.7746 162.007 18.9354C161.881 19.0962 161.743 19.2168 161.594 19.2972L161.438 19.3834Z" fill="black"/>
<path d="M170.5 12.2848C170.5 11.4922 170.557 10.7398 170.672 10.0277C170.787 9.31552 170.919 8.70099 171.068 8.1841C171.217 7.66721 171.43 7.1618 171.706 6.66788C171.981 6.17397 172.2 5.78917 172.36 5.51349C172.521 5.23782 172.762 4.93917 173.084 4.61755C173.406 4.29593 173.595 4.10066 173.653 4.03174C173.71 3.96282 173.854 3.84221 174.083 3.66991H174.307H174.376C174.537 3.66991 174.617 3.7216 174.617 3.82498C174.617 3.85944 174.52 3.98005 174.325 4.18681C174.129 4.39356 173.894 4.69795 173.618 5.09998C173.342 5.50201 173.061 5.99593 172.774 6.58174C172.487 7.16755 172.245 7.96011 172.05 8.95944C171.855 9.95876 171.757 11.0672 171.757 12.2848C171.757 13.5023 171.855 14.605 172.05 15.5929C172.245 16.5807 172.481 17.379 172.757 17.9878C173.032 18.5966 173.314 19.0905 173.601 19.4696C173.888 19.8486 174.129 20.153 174.325 20.3827C174.52 20.6125 174.617 20.7331 174.617 20.7446C174.617 20.8479 174.531 20.8996 174.359 20.8996H174.307H174.083L173.601 20.4861C172.521 19.5098 171.734 18.2922 171.24 16.8334C170.746 15.3746 170.5 13.8584 170.5 12.2848Z" fill="black"/>
<path d="M176.451 13.1463C176.451 11.9747 176.675 10.7399 177.123 9.4419C177.571 8.14393 178.18 7.024 178.949 6.0821C179.719 5.14021 180.517 4.60035 181.344 4.46251C181.356 4.46251 181.402 4.46251 181.482 4.46251C181.563 4.46251 181.632 4.45677 181.689 4.44528C182.309 4.49123 182.792 4.77265 183.136 5.28954C183.584 5.97873 183.808 6.90339 183.808 8.06352C183.808 9.38447 183.55 10.7284 183.033 12.0953C182.516 13.4622 181.856 14.5821 181.052 15.4551C180.247 16.328 179.478 16.7645 178.743 16.7645H178.622C178.209 16.7645 177.853 16.6497 177.554 16.4199C177.255 16.1902 177.031 15.8858 176.882 15.5068C176.733 15.1277 176.623 14.7429 176.555 14.3524C176.486 13.9618 176.451 13.5598 176.451 13.1463ZM182.447 6.84021C182.447 5.66859 182.143 5.08278 181.534 5.08278C181.12 5.08278 180.718 5.34123 180.328 5.85812C179.937 6.37501 179.616 6.96082 179.363 7.61555C179.11 8.27028 178.915 8.8446 178.777 9.33852C178.639 9.83244 178.565 10.1196 178.553 10.2C179.116 10.2115 179.673 10.2172 180.224 10.2172L181.896 10.2C181.907 10.1885 181.953 9.99899 182.034 9.63142C182.114 9.26386 182.206 8.8044 182.309 8.25305C182.413 7.7017 182.459 7.23075 182.447 6.84021ZM177.795 14.3179C177.795 15.5355 178.099 16.1443 178.708 16.1443C178.881 16.1443 179.064 16.0868 179.26 15.972C179.455 15.8571 179.69 15.6389 179.966 15.3172C180.242 14.9956 180.517 14.4959 180.793 13.8182C181.069 13.1405 181.344 12.302 181.62 11.3027L181.706 11.0098H178.346C178.346 11.0443 178.295 11.2625 178.191 11.6645C178.088 12.0666 177.996 12.5145 177.916 13.0084C177.835 13.5024 177.795 13.9389 177.795 14.3179Z" fill="black"/>
<path d="M183.51 0.34461C183.51 0.252718 183.539 0.172313 183.596 0.103394C183.654 0.0344752 183.74 1.57505e-05 183.855 1.57505e-05C183.935 1.57505e-05 184.004 0.0287319 184.061 0.0861643C184.119 0.13211 184.176 0.241232 184.234 0.413529C184.349 0.838528 184.584 1.16589 184.94 1.39562C185.067 1.47603 185.13 1.57941 185.13 1.70576C185.13 1.80914 185.112 1.87805 185.078 1.91251C185.044 1.94697 184.963 1.99866 184.837 2.06758C184.343 2.32028 183.912 2.68211 183.545 3.15305C183.522 3.17603 183.493 3.21049 183.458 3.25643C183.424 3.30238 183.395 3.33684 183.372 3.35981C183.349 3.38278 183.321 3.39427 183.286 3.39427C183.252 3.39427 183.211 3.40001 183.166 3.4115C183.085 3.4115 183.01 3.38278 182.942 3.32535C182.873 3.26792 182.832 3.18177 182.821 3.0669C182.821 2.84866 183.091 2.50981 183.631 2.05035H180.684L177.738 2.03312C177.589 1.92974 177.514 1.82062 177.514 1.70576C177.514 1.62535 177.589 1.51049 177.738 1.36116H183.924C183.648 0.924677 183.51 0.585826 183.51 0.34461Z" fill="black"/>
<path d="M190.907 12.5086C190.907 12.5086 190.907 12.434 190.907 12.2846C190.907 12.1353 190.988 12.0205 191.148 11.9401H201.159C201.331 12.0319 201.417 12.1468 201.417 12.2846C201.417 12.4225 201.331 12.5374 201.159 12.6292H191.148C190.988 12.5488 190.907 12.434 190.907 12.2846V12.5086Z" fill="black"/>
<path d="M212.091 9.93774C211.815 9.93774 211.677 9.80375 211.677 9.53576V9.40176L211.836 9.06068C212.445 7.77757 212.887 6.66907 213.163 5.73516L213.261 5.44281H212.871C212.562 5.44281 212.343 5.45499 212.213 5.47935C212.083 5.50371 211.925 5.58086 211.738 5.7108C211.649 5.76764 211.559 5.84073 211.47 5.93006C211.381 6.01939 211.304 6.10466 211.239 6.18587C211.174 6.26708 211.137 6.31581 211.129 6.33205C211.113 6.34017 211.052 6.34423 210.946 6.34423C210.792 6.34423 210.715 6.30362 210.715 6.22242C210.715 6.17369 210.792 6.03157 210.946 5.79607C211.101 5.56056 211.324 5.30881 211.616 5.04082C211.909 4.77283 212.197 4.61853 212.481 4.57793C212.538 4.56168 213.452 4.55356 215.222 4.55356C216.521 4.55356 217.187 4.55762 217.22 4.56574C217.382 4.62259 217.463 4.73628 217.463 4.90682C217.463 5.15857 217.333 5.32911 217.074 5.41844C217.025 5.43468 216.745 5.44281 216.233 5.44281H215.453L215.417 5.64989C215.319 6.2346 215.271 6.71779 215.271 7.09948C215.271 7.52177 215.307 7.89939 215.38 8.23235C215.453 8.56531 215.531 8.82518 215.612 9.01196C215.693 9.19874 215.734 9.31243 215.734 9.35304C215.734 9.49109 215.677 9.62103 215.563 9.74284C215.449 9.86466 215.303 9.92556 215.125 9.92556C215.035 9.92556 214.962 9.91338 214.905 9.88902C214.848 9.86466 214.783 9.7672 214.71 9.59666C214.637 9.42613 214.572 9.1825 214.515 8.86578C214.507 8.79269 214.503 8.61403 214.503 8.3298C214.503 7.93187 214.54 7.50552 214.613 7.05075C214.686 6.59598 214.759 6.22242 214.832 5.93006C214.905 5.63771 214.946 5.47529 214.954 5.44281H213.76L213.748 5.49153C213.748 5.51589 213.671 5.83667 213.517 6.45386C213.362 7.07105 213.188 7.72479 212.993 8.41507C212.798 9.10535 212.672 9.49921 212.615 9.59666C212.526 9.82405 212.351 9.93774 212.091 9.93774Z" fill="black"/>
<path d="M212.242 17.3106C212.023 17.3106 211.848 17.2376 211.718 17.0914C211.588 16.9452 211.523 16.7665 211.523 16.5554C211.523 15.9788 211.739 15.4794 212.169 15.0571C212.599 14.6348 213.135 14.4237 213.777 14.4237C214.516 14.4237 215.133 14.651 215.629 15.1058C216.124 15.5606 216.376 16.1494 216.384 16.8721C216.384 17.2213 216.303 17.5543 216.14 17.871C215.978 18.1877 215.783 18.4638 215.555 18.6993C215.328 18.9348 215.003 19.2353 214.581 19.6007C214.289 19.8525 213.883 20.2261 213.363 20.7214L212.644 21.4036L213.57 21.4158C214.845 21.4158 215.523 21.3955 215.604 21.3549C215.661 21.3386 215.759 20.9772 215.897 20.2707V20.2342H216.384V20.2707C216.376 20.2951 216.323 20.6646 216.225 21.3792C216.128 22.0939 216.067 22.4674 216.043 22.4999V22.5365H211.523V22.305V22.1588C211.523 22.102 211.548 22.0411 211.597 21.9761C211.645 21.9112 211.767 21.769 211.962 21.5498C212.197 21.2899 212.4 21.0625 212.571 20.8676C212.644 20.7864 212.782 20.6362 212.985 20.4169C213.188 20.1976 213.326 20.0474 213.399 19.9662C213.472 19.885 213.59 19.751 213.753 19.5642C213.915 19.3774 214.029 19.2394 214.094 19.15C214.159 19.0607 214.252 18.9389 214.374 18.7846C214.496 18.6303 214.581 18.5004 214.63 18.3948C214.678 18.2892 214.739 18.1715 214.812 18.0415C214.886 17.9116 214.938 17.7817 214.971 17.6517C215.003 17.5218 215.032 17.4 215.056 17.2863C215.08 17.1726 215.093 17.0386 215.093 16.8843C215.093 16.3727 214.955 15.9301 214.678 15.5565C214.402 15.183 214.008 14.9962 213.497 14.9962C213.229 14.9962 212.993 15.0652 212.79 15.2033C212.587 15.3413 212.445 15.4753 212.364 15.6052C212.283 15.7352 212.242 15.8123 212.242 15.8367C212.242 15.8448 212.262 15.8489 212.303 15.8489C212.449 15.8489 212.599 15.9057 212.754 16.0194C212.908 16.1331 212.985 16.3199 212.985 16.5798C212.985 16.7828 212.92 16.9533 212.79 17.0914C212.66 17.2294 212.478 17.3025 212.242 17.3106Z" fill="black"/>
<path d="M219.155 12.8016H208.764V11.7679H219.155V12.8016Z" fill="black"/>
<path d="M222.185 13.6976C222.185 13.0429 222.294 12.4456 222.512 11.9057C222.73 11.3658 223.012 10.9179 223.356 10.5618C223.701 10.2057 224.086 9.90705 224.511 9.66584C224.936 9.42462 225.338 9.24658 225.717 9.13171C226.096 9.01685 226.458 8.96516 226.802 8.97665H226.854C227.371 8.97665 227.819 9.103 228.198 9.3557C228.577 9.6084 228.766 9.98171 228.766 10.4756C228.766 11.5094 228.129 12.1871 226.854 12.5087C226.291 12.6581 225.521 12.7385 224.545 12.75C224.12 12.75 223.902 12.7614 223.89 12.7844C223.89 12.8074 223.856 13.0084 223.787 13.3875C223.718 13.7665 223.678 14.0996 223.666 14.3868C223.666 14.9266 223.787 15.3516 224.028 15.6618C224.269 15.9719 224.631 16.1327 225.114 16.1442C225.596 16.1557 226.13 16.0466 226.716 15.8168C227.302 15.5871 227.83 15.2081 228.301 14.6797C228.404 14.5648 228.473 14.5074 228.508 14.5074C228.554 14.5074 228.628 14.5591 228.732 14.6625C228.835 14.7658 228.893 14.8462 228.904 14.9037C228.916 14.9611 228.864 15.053 228.749 15.1793C228.634 15.3057 228.462 15.4608 228.232 15.6445C228.002 15.8283 227.738 16.0064 227.44 16.1787C227.141 16.351 226.779 16.4945 226.354 16.6094C225.929 16.7243 225.493 16.7817 225.045 16.7817C224.137 16.7817 223.437 16.4773 222.943 15.8685C222.449 15.2597 222.196 14.5361 222.185 13.6976ZM227.939 10.5101C227.87 9.91279 227.48 9.61415 226.768 9.61415C226.389 9.61415 226.038 9.69455 225.717 9.85536C225.395 10.0162 225.137 10.2114 224.941 10.4412C224.746 10.6709 224.58 10.9064 224.442 11.1476C224.304 11.3888 224.212 11.5956 224.166 11.7679C224.12 11.9402 224.091 12.0493 224.08 12.0952C224.08 12.1067 224.195 12.1125 224.424 12.1125C225.722 12.1125 226.63 11.9746 227.147 11.6989C227.664 11.4233 227.928 11.027 227.939 10.5101Z" fill="black"/>
<path d="M228.673 4.87595C228.673 4.78406 228.701 4.70365 228.759 4.63474C228.816 4.56582 228.902 4.53136 229.017 4.53136C229.098 4.53136 229.167 4.56007 229.224 4.61751C229.281 4.66345 229.339 4.77257 229.396 4.94487C229.511 5.36987 229.747 5.69723 230.103 5.92696C230.229 6.00737 230.292 6.11075 230.292 6.2371C230.292 6.34048 230.275 6.4094 230.241 6.44386C230.206 6.47831 230.126 6.53 229.999 6.59892C229.505 6.85163 229.075 7.21345 228.707 7.68439C228.684 7.70737 228.655 7.74183 228.621 7.78777C228.587 7.83372 228.558 7.86818 228.535 7.89115C228.512 7.91412 228.483 7.92561 228.449 7.92561C228.414 7.92561 228.374 7.93135 228.328 7.94284C228.248 7.94284 228.173 7.91412 228.104 7.85669C228.035 7.79926 227.995 7.71311 227.984 7.59825C227.984 7.38 228.253 7.04115 228.793 6.58169H225.847L222.901 6.56446C222.751 6.46109 222.677 6.35196 222.677 6.2371C222.677 6.15669 222.751 6.04183 222.901 5.8925H229.086C228.811 5.45602 228.673 5.11717 228.673 4.87595Z" fill="black"/>
<path d="M233.036 11.8678C233.036 11.6729 233.113 11.5024 233.268 11.3562C233.422 11.21 233.601 11.1329 233.804 11.1248C233.95 11.1248 234.072 11.1735 234.169 11.2709C234.267 11.3684 234.319 11.4902 234.328 11.6364C234.328 11.8232 234.246 11.9937 234.084 12.148C233.922 12.3023 233.743 12.3835 233.548 12.3916C233.426 12.3916 233.312 12.351 233.207 12.2698C233.101 12.1886 233.044 12.0546 233.036 11.8678ZM231.051 15.6806C231.051 15.6156 231.087 15.4898 231.16 15.303C231.234 15.1162 231.331 14.9091 231.453 14.6817C231.575 14.4543 231.753 14.2473 231.989 14.0605C232.224 13.8737 232.468 13.7844 232.72 13.7925C233.036 13.7925 233.3 13.8859 233.511 14.0727C233.723 14.2594 233.832 14.5112 233.84 14.8279C233.84 14.966 233.783 15.1934 233.67 15.5101C233.556 15.8268 233.394 16.2531 233.183 16.7891C232.971 17.3251 232.801 17.7839 232.671 18.1656C232.63 18.3443 232.61 18.4742 232.61 18.5554C232.61 18.7584 232.679 18.86 232.817 18.86C232.89 18.86 232.967 18.8478 233.049 18.8234C233.13 18.799 233.223 18.7422 233.329 18.6529C233.434 18.5635 233.544 18.4214 233.658 18.2265C233.771 18.0316 233.873 17.7921 233.962 17.5078C233.987 17.4104 234.007 17.3535 234.023 17.3373C234.039 17.321 234.108 17.3129 234.23 17.3129C234.393 17.3129 234.474 17.3535 234.474 17.4347C234.474 17.4997 234.437 17.6256 234.364 17.8124C234.291 17.9991 234.19 18.2062 234.06 18.4336C233.93 18.661 233.747 18.864 233.511 19.0427C233.276 19.2213 233.024 19.3107 232.756 19.3107C232.496 19.3107 232.257 19.2254 232.037 19.0549C231.818 18.8843 231.705 18.6244 231.696 18.2752C231.696 18.1372 231.717 18.0073 231.757 17.8854C231.798 17.7636 231.973 17.3007 232.281 16.4968C232.59 15.6765 232.768 15.1852 232.817 15.0228C232.866 14.8604 232.894 14.702 232.902 14.5477C232.902 14.3528 232.833 14.2554 232.695 14.2554H232.671C232.427 14.2554 232.204 14.3894 232.001 14.6574C231.798 14.9254 231.644 15.2664 231.538 15.6806C231.53 15.6887 231.522 15.7009 231.514 15.7172C231.506 15.7334 231.501 15.7456 231.501 15.7537C231.501 15.7618 231.493 15.7699 231.477 15.7781C231.461 15.7862 231.449 15.7902 231.441 15.7902C231.432 15.7902 231.416 15.7902 231.392 15.7902C231.367 15.7902 231.335 15.7902 231.294 15.7902H231.124C231.075 15.7415 231.051 15.705 231.051 15.6806Z" fill="black"/>
<path d="M236.888 3.68714L236.957 3.66991C237.014 3.66991 237.072 3.66991 237.129 3.66991H237.336L237.818 4.08343C238.898 5.05978 239.685 6.27734 240.179 7.73613C240.673 9.19491 240.92 10.7111 240.92 12.2848C240.92 13.0659 240.862 13.8182 240.747 14.5419C240.632 15.2655 240.5 15.88 240.351 16.3854C240.202 16.8908 239.989 17.3963 239.714 17.9017C239.438 18.4071 239.22 18.7919 239.059 19.056C238.898 19.3202 238.663 19.6131 238.352 19.9348C238.042 20.2564 237.859 20.4459 237.801 20.5033C237.744 20.5608 237.612 20.6699 237.405 20.8307C237.37 20.8652 237.347 20.8881 237.336 20.8996H237.129C237.037 20.8996 236.974 20.8996 236.94 20.8996C236.905 20.8996 236.876 20.8824 236.853 20.8479C236.83 20.8135 236.813 20.7618 236.802 20.6929C236.813 20.6814 236.876 20.6067 236.991 20.4689C238.772 18.6196 239.662 15.8915 239.662 12.2848C239.662 8.67802 238.772 5.94998 236.991 4.10066C236.876 3.96282 236.813 3.88816 236.802 3.87667C236.802 3.78478 236.83 3.7216 236.888 3.68714Z" fill="black"/>
<path d="M146.442 34.89C146.132 34.89 145.885 34.7867 145.701 34.5799C145.517 34.3731 145.425 34.1204 145.425 33.8218C145.425 33.0063 145.73 32.2998 146.338 31.7025C146.947 31.1052 147.705 30.8066 148.613 30.8066C149.658 30.8066 150.531 31.1282 151.232 31.7715C151.932 32.4147 152.288 33.2475 152.3 34.2698C152.3 34.7637 152.185 35.2346 151.955 35.6826C151.726 36.1306 151.45 36.5211 151.128 36.8542C150.807 37.1873 150.347 37.6123 149.75 38.1292C149.336 38.4853 148.762 39.0137 148.027 39.7144L147.01 40.6792L148.32 40.6965C150.123 40.6965 151.082 40.6677 151.197 40.6103C151.278 40.5873 151.415 40.0762 151.611 39.0769V39.0252H152.3V39.0769C152.288 39.1113 152.214 39.634 152.076 40.6448C151.938 41.6556 151.852 42.184 151.818 42.2299V42.2816H145.425V41.9542V41.7475C145.425 41.6671 145.46 41.5809 145.529 41.489C145.598 41.3971 145.77 41.1961 146.046 40.886C146.379 40.5184 146.666 40.1968 146.907 39.9211C147.01 39.8062 147.206 39.5938 147.493 39.2836C147.78 38.9735 147.975 38.761 148.079 38.6461C148.182 38.5313 148.349 38.3417 148.578 38.0775C148.808 37.8133 148.969 37.6181 149.061 37.4917C149.153 37.3654 149.285 37.1931 149.457 36.9748C149.629 36.7566 149.75 36.5728 149.819 36.4235C149.888 36.2742 149.974 36.1076 150.077 35.9238C150.181 35.74 150.255 35.5563 150.301 35.3725C150.347 35.1887 150.387 35.0164 150.422 34.8556C150.456 34.6948 150.474 34.5052 150.474 34.287C150.474 33.5633 150.278 32.9373 149.888 32.409C149.497 31.8806 148.94 31.6164 148.217 31.6164C147.837 31.6164 147.504 31.714 147.217 31.9093C146.93 32.1046 146.729 32.2941 146.614 32.4779C146.499 32.6617 146.442 32.7708 146.442 32.8052C146.442 32.8167 146.471 32.8225 146.528 32.8225C146.735 32.8225 146.947 32.9029 147.165 33.0637C147.384 33.2245 147.493 33.4887 147.493 33.8563C147.493 34.1434 147.401 34.3846 147.217 34.5799C147.033 34.7752 146.775 34.8786 146.442 34.89Z" fill="black"/>
<path d="M244.28 26.6714H53.459V25.6377H244.28V26.6714Z" fill="black"/>
</svg>
