<svg width="476" height="391" viewBox="0 0 476 391" fill="none" xmlns="http://www.w3.org/2000/svg">
<line x1="184.5" y1="60" x2="184.5" y2="331" stroke="#A8A8A8" stroke-dasharray="2 2"/>
<line x1="184" y1="60.5" x2="107" y2="60.5" stroke="#A8A8A8" stroke-dasharray="2 2"/>
<line x1="339" y1="285.5" x2="107" y2="285.5" stroke="#A8A8A8" stroke-dasharray="2 2"/>
<line x1="339.5" y1="285" x2="339.5" y2="331" stroke="#A8A8A8" stroke-dasharray="2 2"/>
<path d="M50 40.0002C68 24.5 83.0064 13.5617 107.5 13C216.5 10.5 306.5 331 413.5 331C443 331 449.5 323 475.5 304" stroke="url(#paint0_linear_305_4)"/>
<path d="M107.354 0.646454C107.158 0.451172 106.842 0.451172 106.646 0.646454L103.464 3.82843C103.269 4.02368 103.269 4.34027 103.464 4.53552C103.66 4.7308 103.976 4.7308 104.172 4.53552L107 1.70709L109.828 4.53552C110.024 4.7308 110.34 4.7308 110.536 4.53552C110.731 4.34027 110.731 4.02368 110.536 3.82843L107.354 0.646454ZM107.5 336L107.5 1H106.5L106.5 336H107.5Z" fill="#21272A"/>
<path d="M445.354 331.354C445.549 331.158 445.549 330.842 445.354 330.646L442.172 327.464C441.976 327.269 441.66 327.269 441.464 327.464C441.269 327.66 441.269 327.976 441.464 328.172L444.293 331L441.464 333.828C441.269 334.024 441.269 334.34 441.464 334.536C441.66 334.731 441.976 334.731 442.172 334.536L445.354 331.354ZM102 331.5L445 331.5V330.5L102 330.5V331.5Z" fill="#21272A"/>
<path d="M202.116 388V379.624H204.924C207.012 379.624 208.356 381.016 208.356 383.812C208.356 386.608 207.012 388 204.924 388H202.116ZM203.124 387.112H204.924C206.304 387.112 207.276 386.152 207.276 384.496V383.128C207.276 381.472 206.304 380.512 204.924 380.512H203.124V387.112ZM210.551 380.356C210.143 380.356 209.963 380.14 209.963 379.816V379.66C209.963 379.336 210.143 379.12 210.551 379.12C210.959 379.12 211.139 379.336 211.139 379.66V379.816C211.139 380.14 210.959 380.356 210.551 380.356ZM210.071 388V381.808H211.031V388H210.071ZM213.407 388V382.648H212.399V381.808H213.407V380.56C213.407 379.708 213.851 379.12 214.763 379.12H215.699V379.96H214.367V381.808H215.699V382.648H214.367V388H213.407ZM217.297 388V382.648H216.289V381.808H217.297V380.56C217.297 379.708 217.741 379.12 218.653 379.12H219.589V379.96H218.257V381.808H219.589V382.648H218.257V388H217.297ZM223.133 388.144C221.453 388.144 220.349 386.872 220.349 384.904C220.349 382.936 221.453 381.664 223.133 381.664C224.789 381.664 225.809 382.936 225.809 384.688V385.144H221.357V385.432C221.357 386.5 222.041 387.304 223.193 387.304C223.973 387.304 224.573 386.92 224.897 386.236L225.581 386.728C225.185 387.568 224.297 388.144 223.133 388.144ZM223.133 382.468C222.089 382.468 221.357 383.26 221.357 384.34V384.424H224.777V384.292C224.777 383.2 224.117 382.468 223.133 382.468ZM228.351 388H227.391V381.808H228.351V382.948H228.411C228.627 382.36 229.191 381.808 230.199 381.808H230.571V382.768H230.007C228.975 382.768 228.351 383.212 228.351 383.8V388ZM234.067 388.144C232.387 388.144 231.283 386.872 231.283 384.904C231.283 382.936 232.387 381.664 234.067 381.664C235.723 381.664 236.743 382.936 236.743 384.688V385.144H232.291V385.432C232.291 386.5 232.975 387.304 234.127 387.304C234.907 387.304 235.507 386.92 235.831 386.236L236.515 386.728C236.119 387.568 235.231 388.144 234.067 388.144ZM234.067 382.468C233.023 382.468 232.291 383.26 232.291 384.34V384.424H235.711V384.292C235.711 383.2 235.051 382.468 234.067 382.468ZM239.285 388H238.325V381.808H239.285V382.816H239.333C239.633 382.12 240.161 381.664 241.085 381.664C242.357 381.664 243.161 382.528 243.161 384.028V388H242.201V384.196C242.201 383.092 241.721 382.528 240.797 382.528C240.029 382.528 239.285 382.912 239.285 383.704V388ZM247.449 388.144C245.709 388.144 244.689 386.884 244.689 384.904C244.689 382.924 245.709 381.664 247.449 381.664C248.673 381.664 249.405 382.264 249.765 383.116L248.961 383.524C248.733 382.888 248.205 382.516 247.449 382.516C246.309 382.516 245.721 383.296 245.721 384.376V385.432C245.721 386.512 246.309 387.292 247.449 387.292C248.229 387.292 248.793 386.92 249.129 386.212L249.825 386.68C249.429 387.568 248.625 388.144 247.449 388.144ZM253.438 388.144C251.758 388.144 250.654 386.872 250.654 384.904C250.654 382.936 251.758 381.664 253.438 381.664C255.094 381.664 256.114 382.936 256.114 384.688V385.144H251.662V385.432C251.662 386.5 252.346 387.304 253.498 387.304C254.278 387.304 254.878 386.92 255.202 386.236L255.886 386.728C255.49 387.568 254.602 388.144 253.438 388.144ZM253.438 382.468C252.394 382.468 251.662 383.26 251.662 384.34V384.424H255.082V384.292C255.082 383.2 254.422 382.468 253.438 382.468ZM260.532 388V379.12H261.492V382.816H261.54C261.864 382.036 262.5 381.664 263.352 381.664C264.9 381.664 265.872 382.924 265.872 384.904C265.872 386.884 264.9 388.144 263.352 388.144C262.5 388.144 261.912 387.76 261.54 386.992H261.492V388H260.532ZM263.088 387.28C264.168 387.28 264.84 386.536 264.84 385.432V384.376C264.84 383.272 264.168 382.528 263.088 382.528C262.212 382.528 261.492 383.032 261.492 383.716V386.02C261.492 386.824 262.212 387.28 263.088 387.28ZM269.821 388.144C268.141 388.144 267.037 386.872 267.037 384.904C267.037 382.936 268.141 381.664 269.821 381.664C271.477 381.664 272.497 382.936 272.497 384.688V385.144H268.045V385.432C268.045 386.5 268.729 387.304 269.881 387.304C270.661 387.304 271.261 386.92 271.585 386.236L272.269 386.728C271.873 387.568 270.985 388.144 269.821 388.144ZM269.821 382.468C268.777 382.468 268.045 383.26 268.045 384.34V384.424H271.465V384.292C271.465 383.2 270.805 382.468 269.821 382.468ZM276.647 388H275.447C274.787 388 274.427 387.58 274.427 386.98V382.648H273.407V381.808H273.983C274.391 381.808 274.523 381.664 274.523 381.244V380.092H275.387V381.808H276.743V382.648H275.387V387.16H276.647V388ZM279.294 388L277.638 381.808H278.574L279.234 384.484L279.894 387.196H279.918L280.674 384.484L281.454 381.808H282.306L283.11 384.484L283.878 387.196H283.902L284.538 384.484L285.21 381.808H286.11L284.466 388H283.278L282.414 385.024L281.874 383.14H281.85L281.322 385.024L280.458 388H279.294ZM289.766 388.144C288.086 388.144 286.982 386.872 286.982 384.904C286.982 382.936 288.086 381.664 289.766 381.664C291.422 381.664 292.442 382.936 292.442 384.688V385.144H287.99V385.432C287.99 386.5 288.674 387.304 289.826 387.304C290.606 387.304 291.206 386.92 291.53 386.236L292.214 386.728C291.818 387.568 290.93 388.144 289.766 388.144ZM289.766 382.468C288.722 382.468 287.99 383.26 287.99 384.34V384.424H291.41V384.292C291.41 383.2 290.75 382.468 289.766 382.468ZM296.352 388.144C294.672 388.144 293.568 386.872 293.568 384.904C293.568 382.936 294.672 381.664 296.352 381.664C298.008 381.664 299.028 382.936 299.028 384.688V385.144H294.576V385.432C294.576 386.5 295.26 387.304 296.412 387.304C297.192 387.304 297.792 386.92 298.116 386.236L298.8 386.728C298.404 387.568 297.516 388.144 296.352 388.144ZM296.352 382.468C295.308 382.468 294.576 383.26 294.576 384.34V384.424H297.996V384.292C297.996 383.2 297.336 382.468 296.352 382.468ZM301.57 388H300.61V381.808H301.57V382.816H301.618C301.918 382.12 302.446 381.664 303.37 381.664C304.642 381.664 305.446 382.528 305.446 384.028V388H304.486V384.196C304.486 383.092 304.006 382.528 303.082 382.528C302.314 382.528 301.57 382.912 301.57 383.704V388ZM315.306 388H314.766C314.058 388 313.77 387.568 313.698 386.992H313.638C313.374 387.748 312.714 388.144 311.85 388.144C310.542 388.144 309.774 387.424 309.774 386.272C309.774 385.108 310.614 384.46 312.414 384.46H313.638V383.848C313.638 382.972 313.158 382.492 312.174 382.492C311.43 382.492 310.938 382.852 310.602 383.416L310.026 382.876C310.362 382.216 311.106 381.664 312.222 381.664C313.71 381.664 314.598 382.444 314.598 383.752V387.16H315.306V388ZM312.006 387.328C312.954 387.328 313.638 386.836 313.638 386.2V385.18H312.366C311.274 385.18 310.782 385.516 310.782 386.116V386.368C310.782 386.98 311.262 387.328 312.006 387.328ZM317.636 388H316.676V381.808H317.636V382.816H317.684C317.984 382.12 318.512 381.664 319.436 381.664C320.708 381.664 321.512 382.528 321.512 384.028V388H320.552V384.196C320.552 383.092 320.072 382.528 319.148 382.528C318.38 382.528 317.636 382.912 317.636 383.704V388ZM328.717 388.684C328.717 389.956 327.709 390.544 325.717 390.544C323.785 390.544 322.993 389.992 322.993 389.02C322.993 388.348 323.365 387.988 323.977 387.82V387.688C323.629 387.52 323.425 387.244 323.425 386.824C323.425 386.2 323.869 385.9 324.493 385.744V385.696C323.761 385.348 323.329 384.664 323.329 383.8C323.329 382.54 324.253 381.664 325.657 381.664C326.101 381.664 326.497 381.748 326.833 381.904V381.796C326.833 381.316 327.037 380.968 327.553 380.968H328.477V381.808H327.301V382.204C327.745 382.588 328.009 383.14 328.009 383.8C328.009 385.06 327.085 385.936 325.669 385.936C325.465 385.936 325.249 385.912 325.069 385.876C324.661 385.984 324.253 386.188 324.253 386.572C324.253 386.944 324.637 387.04 325.201 387.04H326.521C328.057 387.04 328.717 387.664 328.717 388.684ZM327.817 388.756C327.817 388.264 327.493 387.94 326.533 387.94H324.469C324.073 388.12 323.893 388.396 323.893 388.78C323.893 389.32 324.265 389.764 325.237 389.764H326.125C327.193 389.764 327.817 389.428 327.817 388.756ZM325.669 385.168C326.485 385.168 327.001 384.784 327.001 383.968V383.632C327.001 382.816 326.485 382.432 325.669 382.432C324.853 382.432 324.337 382.816 324.337 383.632V383.968C324.337 384.784 324.853 385.168 325.669 385.168ZM331.708 388H330.856C330.196 388 329.836 387.58 329.836 387.004V379.12H330.796V387.16H331.708V388ZM335.434 388.144C333.754 388.144 332.65 386.872 332.65 384.904C332.65 382.936 333.754 381.664 335.434 381.664C337.09 381.664 338.11 382.936 338.11 384.688V385.144H333.658V385.432C333.658 386.5 334.342 387.304 335.494 387.304C336.274 387.304 336.874 386.92 337.198 386.236L337.882 386.728C337.486 387.568 336.598 388.144 335.434 388.144ZM335.434 382.468C334.39 382.468 333.658 383.26 333.658 384.34V384.424H337.078V384.292C337.078 383.2 336.418 382.468 335.434 382.468ZM341.552 388.144C340.412 388.144 339.656 387.664 339.104 386.932L339.788 386.38C340.268 386.98 340.844 387.328 341.624 387.328C342.44 387.328 342.92 386.956 342.92 386.32C342.92 385.84 342.656 385.468 341.84 385.348L341.348 385.276C340.208 385.108 339.356 384.64 339.356 383.488C339.356 382.264 340.304 381.664 341.564 381.664C342.56 381.664 343.22 382.036 343.724 382.66L343.088 383.236C342.812 382.852 342.284 382.48 341.492 382.48C340.7 382.48 340.28 382.852 340.28 383.44C340.28 384.04 340.7 384.28 341.468 384.4L341.948 384.472C343.316 384.676 343.844 385.276 343.844 386.212C343.844 387.412 342.968 388.144 341.552 388.144Z" fill="#21272A"/>
<path d="M106.6 352.144C104.596 352.144 103.72 350.548 103.72 347.812C103.72 345.076 104.596 343.48 106.6 343.48C108.604 343.48 109.48 345.076 109.48 347.812C109.48 350.548 108.604 352.144 106.6 352.144ZM106.6 351.268C107.908 351.268 108.424 350.116 108.424 348.496V347.128C108.424 345.508 107.908 344.356 106.6 344.356C105.292 344.356 104.776 345.508 104.776 347.128V348.496C104.776 350.116 105.292 351.268 106.6 351.268Z" fill="#21272A"/>
<path d="M90.6 336.144C88.596 336.144 87.72 334.548 87.72 331.812C87.72 329.076 88.596 327.48 90.6 327.48C92.604 327.48 93.48 329.076 93.48 331.812C93.48 334.548 92.604 336.144 90.6 336.144ZM90.6 335.268C91.908 335.268 92.424 334.116 92.424 332.496V331.128C92.424 329.508 91.908 328.356 90.6 328.356C89.292 328.356 88.776 329.508 88.776 331.128V332.496C88.776 334.116 89.292 335.268 90.6 335.268Z" fill="#21272A"/>
<path d="M181.844 346.648V351.16H182.612V352H181.904C181.244 352 180.884 351.568 180.884 351.016V346.648H178.388V352H177.428V346.648H176.288V345.808H183.08V346.648H181.844ZM184.32 353.812H183.456L186.588 343.12H187.452L184.32 353.812ZM193.401 352H192.441V350.356H188.397V349.468L191.901 343.624H193.401V349.516H194.613V350.356H193.401V352ZM192.381 344.404L189.345 349.516H192.441V344.404H192.381Z" fill="#21272A"/>
<path d="M67.028 62.168C66.44 62.168 66.032 61.988 65.48 61.724C65.036 61.508 64.616 61.316 64.124 61.316C63.728 61.316 63.488 61.436 63.128 61.7L62.732 61.172C63.056 60.776 63.452 60.512 64.172 60.512C64.76 60.512 65.168 60.692 65.72 60.956C66.164 61.172 66.584 61.364 67.076 61.364C67.472 61.364 67.712 61.244 68.072 60.98L68.468 61.508C68.144 61.904 67.748 62.168 67.028 62.168ZM72.7953 65.144C70.7913 65.144 69.9153 63.548 69.9153 60.812C69.9153 58.076 70.7913 56.48 72.7953 56.48C74.7993 56.48 75.6753 58.076 75.6753 60.812C75.6753 63.548 74.7993 65.144 72.7953 65.144ZM72.7953 64.268C74.1033 64.268 74.6193 63.116 74.6193 61.496V60.128C74.6193 58.508 74.1033 57.356 72.7953 57.356C71.4873 57.356 70.9713 58.508 70.9713 60.128V61.496C70.9713 63.116 71.4873 64.268 72.7953 64.268ZM78.0226 65.144C77.5186 65.144 77.2906 64.856 77.2906 64.448V64.292C77.2906 63.884 77.5186 63.596 78.0226 63.596C78.5266 63.596 78.7546 63.884 78.7546 64.292V64.448C78.7546 64.856 78.5266 65.144 78.0226 65.144ZM83.2602 65.144C81.3522 65.144 80.3562 64.1 80.3562 62.72C80.3562 61.58 81.0402 60.92 82.0482 60.644V60.548C81.1722 60.248 80.6082 59.54 80.6082 58.58C80.6082 57.308 81.5922 56.48 83.2602 56.48C84.9282 56.48 85.9122 57.308 85.9122 58.58C85.9122 59.54 85.3482 60.248 84.4722 60.548V60.644C85.4802 60.92 86.1642 61.58 86.1642 62.72C86.1642 64.1 85.1682 65.144 83.2602 65.144ZM83.2602 64.268C84.4242 64.268 85.0962 63.716 85.0962 62.768V62.516C85.0962 61.568 84.4242 61.016 83.2602 61.016C82.0962 61.016 81.4242 61.568 81.4242 62.516V62.768C81.4242 63.716 82.0962 64.268 83.2602 64.268ZM83.2602 60.176C84.3042 60.176 84.8682 59.708 84.8682 58.856V58.676C84.8682 57.824 84.3042 57.356 83.2602 57.356C82.2162 57.356 81.6522 57.824 81.6522 58.676V58.856C81.6522 59.708 82.2162 60.176 83.2602 60.176ZM92.8315 56.624V57.512H89.1595L88.9195 60.704H89.0035C89.3995 60.14 89.8435 59.78 90.7195 59.78C92.1595 59.78 93.2155 60.752 93.2155 62.372C93.2155 64.004 92.1595 65.144 90.3955 65.144C89.0035 65.144 88.2835 64.436 87.7795 63.716L88.5355 63.14C88.9675 63.8 89.3875 64.244 90.3955 64.244C91.5355 64.244 92.1475 63.608 92.1475 62.504V62.384C92.1475 61.28 91.5355 60.644 90.3955 60.644C89.6275 60.644 89.2435 60.968 88.8955 61.352L88.0435 61.232L88.3435 56.624H92.8315Z" fill="#21272A"/>
<path d="M67.028 286.168C66.44 286.168 66.032 285.988 65.48 285.724C65.036 285.508 64.616 285.316 64.124 285.316C63.728 285.316 63.488 285.436 63.128 285.7L62.732 285.172C63.056 284.776 63.452 284.512 64.172 284.512C64.76 284.512 65.168 284.692 65.72 284.956C66.164 285.172 66.584 285.364 67.076 285.364C67.472 285.364 67.712 285.244 68.072 284.98L68.468 285.508C68.144 285.904 67.748 286.168 67.028 286.168ZM72.7953 289.144C70.7913 289.144 69.9153 287.548 69.9153 284.812C69.9153 282.076 70.7913 280.48 72.7953 280.48C74.7993 280.48 75.6753 282.076 75.6753 284.812C75.6753 287.548 74.7993 289.144 72.7953 289.144ZM72.7953 288.268C74.1033 288.268 74.6193 287.116 74.6193 285.496V284.128C74.6193 282.508 74.1033 281.356 72.7953 281.356C71.4873 281.356 70.9713 282.508 70.9713 284.128V285.496C70.9713 287.116 71.4873 288.268 72.7953 288.268ZM78.0226 289.144C77.5186 289.144 77.2906 288.856 77.2906 288.448V288.292C77.2906 287.884 77.5186 287.596 78.0226 287.596C78.5266 287.596 78.7546 287.884 78.7546 288.292V288.448C78.7546 288.856 78.5266 289.144 78.0226 289.144ZM86.2242 289H80.7162V288.112H83.0562V281.368H82.9722L80.8602 283.336L80.2722 282.7L82.4922 280.624H84.0642V288.112H86.2242V289ZM92.8315 280.624V281.512H89.1595L88.9195 284.704H89.0035C89.3995 284.14 89.8435 283.78 90.7195 283.78C92.1595 283.78 93.2155 284.752 93.2155 286.372C93.2155 288.004 92.1595 289.144 90.3955 289.144C89.0035 289.144 88.2835 288.436 87.7795 287.716L88.5355 287.14C88.9675 287.8 89.3875 288.244 90.3955 288.244C91.5355 288.244 92.1475 287.608 92.1475 286.504V286.384C92.1475 285.28 91.5355 284.644 90.3955 284.644C89.6275 284.644 89.2435 284.968 88.8955 285.352L88.0435 285.232L88.3435 280.624H92.8315Z" fill="#21272A"/>
<path d="M327.22 347.176H328.132C329.26 347.176 329.836 346.588 329.836 345.784V345.7C329.836 344.824 329.224 344.38 328.336 344.38C327.472 344.38 326.956 344.788 326.608 345.424L325.864 344.848C326.284 344.176 327.016 343.48 328.36 343.48C329.776 343.48 330.904 344.236 330.904 345.592C330.904 346.672 330.184 347.32 329.296 347.548V347.596C330.196 347.776 331.06 348.448 331.06 349.708C331.06 351.148 329.92 352.144 328.216 352.144C326.764 352.144 326.02 351.436 325.504 350.716L326.26 350.14C326.692 350.8 327.184 351.244 328.204 351.244C329.38 351.244 330.004 350.68 330.004 349.696V349.6C330.004 348.616 329.38 348.052 328.204 348.052H327.22V347.176ZM338.039 346.648V351.16H338.807V352H338.099C337.439 352 337.079 351.568 337.079 351.016V346.648H334.583V352H333.623V346.648H332.483V345.808H339.275V346.648H338.039ZM340.515 353.812H339.651L342.783 343.12H343.647L340.515 353.812ZM349.597 352H348.637V350.356H344.593V349.468L348.097 343.624H349.597V349.516H350.809V350.356H349.597V352ZM348.577 344.404L345.541 349.516H348.637V344.404H348.577Z" fill="#21272A"/>
<path d="M2.124 157H1.116V148.624H4.452C5.952 148.624 6.792 149.548 6.792 151.024C6.792 152.5 5.952 153.424 4.452 153.424H2.124V157ZM2.124 149.512V152.536H4.452C5.244 152.536 5.712 152.104 5.712 151.336V150.712C5.712 149.944 5.244 149.512 4.452 149.512H2.124ZM9.14016 157H8.18016V150.808H9.14016V151.948H9.20016C9.41616 151.36 9.98016 150.808 10.9882 150.808H11.3602V151.768H10.7962C9.76416 151.768 9.14016 152.212 9.14016 152.8V157ZM14.8678 157.144C13.2118 157.144 12.0718 155.872 12.0718 153.904C12.0718 151.936 13.2118 150.664 14.8678 150.664C16.5238 150.664 17.6638 151.936 17.6638 153.904C17.6638 155.872 16.5238 157.144 14.8678 157.144ZM14.8678 156.292C15.8998 156.292 16.6318 155.656 16.6318 154.348V153.46C16.6318 152.152 15.8998 151.516 14.8678 151.516C13.8358 151.516 13.1038 152.152 13.1038 153.46V154.348C13.1038 155.656 13.8358 156.292 14.8678 156.292ZM19.2427 157V148.12H20.2027V151.816H20.2507C20.5747 151.036 21.2107 150.664 22.0627 150.664C23.6107 150.664 24.5827 151.924 24.5827 153.904C24.5827 155.884 23.6107 157.144 22.0627 157.144C21.2107 157.144 20.6227 156.76 20.2507 155.992H20.2027V157H19.2427ZM21.7987 156.28C22.8787 156.28 23.5507 155.536 23.5507 154.432V153.376C23.5507 152.272 22.8787 151.528 21.7987 151.528C20.9227 151.528 20.2027 152.032 20.2027 152.716V155.02C20.2027 155.824 20.9227 156.28 21.7987 156.28ZM31.2436 157H30.7036C29.9956 157 29.7076 156.568 29.6356 155.992H29.5756C29.3116 156.748 28.6516 157.144 27.7876 157.144C26.4796 157.144 25.7116 156.424 25.7116 155.272C25.7116 154.108 26.5516 153.46 28.3516 153.46H29.5756V152.848C29.5756 151.972 29.0956 151.492 28.1116 151.492C27.3676 151.492 26.8756 151.852 26.5396 152.416L25.9636 151.876C26.2996 151.216 27.0436 150.664 28.1596 150.664C29.6476 150.664 30.5356 151.444 30.5356 152.752V156.16H31.2436V157ZM27.9436 156.328C28.8916 156.328 29.5756 155.836 29.5756 155.2V154.18H28.3036C27.2116 154.18 26.7196 154.516 26.7196 155.116V155.368C26.7196 155.98 27.1996 156.328 27.9436 156.328ZM32.6138 157V148.12H33.5738V151.816H33.6218C33.9458 151.036 34.5818 150.664 35.4338 150.664C36.9818 150.664 37.9538 151.924 37.9538 153.904C37.9538 155.884 36.9818 157.144 35.4338 157.144C34.5818 157.144 33.9938 156.76 33.6218 155.992H33.5738V157H32.6138ZM35.1698 156.28C36.2498 156.28 36.9218 155.536 36.9218 154.432V153.376C36.9218 152.272 36.2498 151.528 35.1698 151.528C34.2938 151.528 33.5738 152.032 33.5738 152.716V155.02C33.5738 155.824 34.2938 156.28 35.1698 156.28ZM40.0547 149.356C39.6467 149.356 39.4667 149.14 39.4667 148.816V148.66C39.4667 148.336 39.6467 148.12 40.0547 148.12C40.4627 148.12 40.6427 148.336 40.6427 148.66V148.816C40.6427 149.14 40.4627 149.356 40.0547 149.356ZM39.5747 157V150.808H40.5347V157H39.5747ZM44.4467 157H43.5947C42.9347 157 42.5747 156.58 42.5747 156.004V148.12H43.5347V156.16H44.4467V157ZM46.3242 149.356C45.9162 149.356 45.7362 149.14 45.7362 148.816V148.66C45.7362 148.336 45.9162 148.12 46.3242 148.12C46.7322 148.12 46.9122 148.336 46.9122 148.66V148.816C46.9122 149.14 46.7322 149.356 46.3242 149.356ZM45.8442 157V150.808H46.8042V157H45.8442ZM51.4122 157H50.2122C49.5522 157 49.1922 156.58 49.1922 155.98V151.648H48.1722V150.808H48.7482C49.1562 150.808 49.2882 150.664 49.2882 150.244V149.092H50.1522V150.808H51.5082V151.648H50.1522V156.16H51.4122V157ZM55.3673 155.02L56.8673 150.808H57.8153L55.0433 158.44C54.7673 159.184 54.5153 159.4 53.6033 159.4H53.1113V158.56H54.0833L54.5513 157.24L52.2353 150.808H53.1953L54.6833 155.02L54.9713 156.028H55.0312L55.3673 155.02ZM64.2155 157.144C62.5595 157.144 61.4195 155.872 61.4195 153.904C61.4195 151.936 62.5595 150.664 64.2155 150.664C65.8715 150.664 67.0115 151.936 67.0115 153.904C67.0115 155.872 65.8715 157.144 64.2155 157.144ZM64.2155 156.292C65.2475 156.292 65.9795 155.656 65.9795 154.348V153.46C65.9795 152.152 65.2475 151.516 64.2155 151.516C63.1835 151.516 62.4515 152.152 62.4515 153.46V154.348C62.4515 155.656 63.1835 156.292 64.2155 156.292ZM68.856 157V151.648H67.848V150.808H68.856V149.56C68.856 148.708 69.3 148.12 70.212 148.12H71.148V148.96H69.816V150.808H71.148V151.648H69.816V157H68.856ZM1.98 173H1.02V166.808H1.98V167.816H2.028C2.304 167.18 2.736 166.664 3.696 166.664C4.512 166.664 5.256 167.036 5.592 167.924H5.616C5.844 167.252 6.444 166.664 7.5 166.664C8.76 166.664 9.516 167.528 9.516 169.028V173H8.556V169.196C8.556 168.104 8.136 167.528 7.2 167.528C6.444 167.528 5.748 167.912 5.748 168.704V173H4.788V169.196C4.788 168.092 4.368 167.528 3.456 167.528C2.7 167.528 1.98 167.912 1.98 168.704V173ZM13.8246 173.144C12.1446 173.144 11.0406 171.872 11.0406 169.904C11.0406 167.936 12.1446 166.664 13.8246 166.664C15.4806 166.664 16.5006 167.936 16.5006 169.688V170.144H12.0486V170.432C12.0486 171.5 12.7326 172.304 13.8846 172.304C14.6646 172.304 15.2646 171.92 15.5886 171.236L16.2726 171.728C15.8766 172.568 14.9886 173.144 13.8246 173.144ZM13.8246 167.468C12.7806 167.468 12.0486 168.26 12.0486 169.34V169.424H15.4686V169.292C15.4686 168.2 14.8086 167.468 13.8246 167.468ZM23.1225 173H22.5825C21.8745 173 21.5865 172.568 21.5145 171.992H21.4545C21.1905 172.748 20.5305 173.144 19.6665 173.144C18.3585 173.144 17.5905 172.424 17.5905 171.272C17.5905 170.108 18.4305 169.46 20.2305 169.46H21.4545V168.848C21.4545 167.972 20.9745 167.492 19.9905 167.492C19.2465 167.492 18.7545 167.852 18.4185 168.416L17.8425 167.876C18.1785 167.216 18.9225 166.664 20.0385 166.664C21.5265 166.664 22.4145 167.444 22.4145 168.752V172.16H23.1225V173ZM19.8225 172.328C20.7705 172.328 21.4545 171.836 21.4545 171.2V170.18H20.1825C19.0905 170.18 18.5985 170.516 18.5985 171.116V171.368C18.5985 171.98 19.0785 172.328 19.8225 172.328ZM26.3527 173.144C25.2127 173.144 24.4567 172.664 23.9047 171.932L24.5887 171.38C25.0687 171.98 25.6447 172.328 26.4247 172.328C27.2407 172.328 27.7207 171.956 27.7207 171.32C27.7207 170.84 27.4567 170.468 26.6407 170.348L26.1487 170.276C25.0087 170.108 24.1567 169.64 24.1567 168.488C24.1567 167.264 25.1047 166.664 26.3647 166.664C27.3607 166.664 28.0207 167.036 28.5247 167.66L27.8887 168.236C27.6127 167.852 27.0847 167.48 26.2927 167.48C25.5007 167.48 25.0807 167.852 25.0807 168.44C25.0807 169.04 25.5007 169.28 26.2687 169.4L26.7487 169.472C28.1167 169.676 28.6447 170.276 28.6447 171.212C28.6447 172.412 27.7687 173.144 26.3527 173.144ZM34.1563 173V171.992H34.1083C33.8683 172.58 33.4003 173.144 32.3683 173.144C31.0963 173.144 30.2803 172.28 30.2803 170.78V166.808H31.2403V170.612C31.2403 171.716 31.7323 172.28 32.6563 172.28C33.4123 172.28 34.1563 171.908 34.1563 171.092V166.808H35.1163V173H34.1563ZM38.1206 173H37.1606V166.808H38.1206V167.948H38.1806C38.3966 167.36 38.9606 166.808 39.9686 166.808H40.3406V167.768H39.7766C38.7446 167.768 38.1206 168.212 38.1206 168.8V173ZM43.8363 173.144C42.1563 173.144 41.0523 171.872 41.0523 169.904C41.0523 167.936 42.1563 166.664 43.8363 166.664C45.4923 166.664 46.5123 167.936 46.5123 169.688V170.144H42.0603V170.432C42.0603 171.5 42.7443 172.304 43.8963 172.304C44.6763 172.304 45.2763 171.92 45.6003 171.236L46.2843 171.728C45.8883 172.568 45.0003 173.144 43.8363 173.144ZM43.8363 167.468C42.7923 167.468 42.0603 168.26 42.0603 169.34V169.424H45.4803V169.292C45.4803 168.2 44.8203 167.468 43.8363 167.468ZM49.0542 173H48.0942V166.808H49.0542V167.816H49.1022C49.3782 167.18 49.8102 166.664 50.7702 166.664C51.5862 166.664 52.3302 167.036 52.6662 167.924H52.6902C52.9182 167.252 53.5182 166.664 54.5742 166.664C55.8342 166.664 56.5902 167.528 56.5902 169.028V173H55.6302V169.196C55.6302 168.104 55.2102 167.528 54.2742 167.528C53.5182 167.528 52.8222 167.912 52.8222 168.704V173H51.8622V169.196C51.8622 168.092 51.4422 167.528 50.5302 167.528C49.7742 167.528 49.0542 167.912 49.0542 168.704V173ZM60.8988 173.144C59.2188 173.144 58.1148 171.872 58.1148 169.904C58.1148 167.936 59.2188 166.664 60.8988 166.664C62.5548 166.664 63.5748 167.936 63.5748 169.688V170.144H59.1228V170.432C59.1228 171.5 59.8068 172.304 60.9588 172.304C61.7388 172.304 62.3388 171.92 62.6628 171.236L63.3468 171.728C62.9508 172.568 62.0628 173.144 60.8988 173.144ZM60.8988 167.468C59.8548 167.468 59.1228 168.26 59.1228 169.34V169.424H62.5428V169.292C62.5428 168.2 61.8828 167.468 60.8988 167.468ZM66.1167 173H65.1567V166.808H66.1167V167.816H66.1647C66.4647 167.12 66.9927 166.664 67.9167 166.664C69.1887 166.664 69.9927 167.528 69.9927 169.028V173H69.0327V169.196C69.0327 168.092 68.5527 167.528 67.6287 167.528C66.8607 167.528 66.1167 167.912 66.1167 168.704V173ZM74.545 173H73.345C72.685 173 72.325 172.58 72.325 171.98V167.648H71.305V166.808H71.881C72.289 166.808 72.421 166.664 72.421 166.244V165.092H73.285V166.808H74.641V167.648H73.285V172.16H74.545V173ZM78.0441 173.144C76.9041 173.144 76.1481 172.664 75.5961 171.932L76.2801 171.38C76.7601 171.98 77.3361 172.328 78.1161 172.328C78.9321 172.328 79.4121 171.956 79.4121 171.32C79.4121 170.84 79.1481 170.468 78.3321 170.348L77.8401 170.276C76.7001 170.108 75.8481 169.64 75.8481 168.488C75.8481 167.264 76.7961 166.664 78.0561 166.664C79.0521 166.664 79.7121 167.036 80.2161 167.66L79.5801 168.236C79.3041 167.852 78.7761 167.48 77.9841 167.48C77.1921 167.48 76.7721 167.852 76.7721 168.44C76.7721 169.04 77.1921 169.28 77.9601 169.4L78.4401 169.472C79.8081 169.676 80.3361 170.276 80.3361 171.212C80.3361 172.412 79.4601 173.144 78.0441 173.144ZM1.98 189H1.02V182.808H1.98V183.816H2.028C2.304 183.18 2.736 182.664 3.696 182.664C4.512 182.664 5.256 183.036 5.592 183.924H5.616C5.844 183.252 6.444 182.664 7.5 182.664C8.76 182.664 9.516 183.528 9.516 185.028V189H8.556V185.196C8.556 184.104 8.136 183.528 7.2 183.528C6.444 183.528 5.748 183.912 5.748 184.704V189H4.788V185.196C4.788 184.092 4.368 183.528 3.456 183.528C2.7 183.528 1.98 183.912 1.98 184.704V189ZM16.5366 189H15.9966C15.2886 189 15.0006 188.568 14.9286 187.992H14.8686C14.6046 188.748 13.9446 189.144 13.0806 189.144C11.7726 189.144 11.0046 188.424 11.0046 187.272C11.0046 186.108 11.8446 185.46 13.6446 185.46H14.8686V184.848C14.8686 183.972 14.3886 183.492 13.4046 183.492C12.6606 183.492 12.1686 183.852 11.8326 184.416L11.2566 183.876C11.5926 183.216 12.3366 182.664 13.4526 182.664C14.9406 182.664 15.8286 183.444 15.8286 184.752V188.16H16.5366V189ZM13.2366 188.328C14.1846 188.328 14.8686 187.836 14.8686 187.2V186.18H13.5966C12.5046 186.18 12.0126 186.516 12.0126 187.116V187.368C12.0126 187.98 12.4926 188.328 13.2366 188.328ZM20.4747 189H19.2747C18.6147 189 18.2547 188.58 18.2547 187.98V183.648H17.2347V182.808H17.8107C18.2187 182.808 18.3507 182.664 18.3507 182.244V181.092H19.2147V182.808H20.5707V183.648H19.2147V188.16H20.4747V189ZM24.3709 189.144C22.6309 189.144 21.6109 187.884 21.6109 185.904C21.6109 183.924 22.6309 182.664 24.3709 182.664C25.5949 182.664 26.3269 183.264 26.6869 184.116L25.8829 184.524C25.6549 183.888 25.1269 183.516 24.3709 183.516C23.2309 183.516 22.6429 184.296 22.6429 185.376V186.432C22.6429 187.512 23.2309 188.292 24.3709 188.292C25.1509 188.292 25.7149 187.92 26.0509 187.212L26.7469 187.68C26.3509 188.568 25.5469 189.144 24.3709 189.144ZM28.102 189V180.12H29.062V183.816H29.11C29.41 183.12 29.938 182.664 30.862 182.664C32.134 182.664 32.938 183.528 32.938 185.028V189H31.978V185.196C31.978 184.092 31.498 183.528 30.574 183.528C29.806 183.528 29.062 183.912 29.062 184.704V189H28.102ZM35.4023 181.356C34.9943 181.356 34.8143 181.14 34.8143 180.816V180.66C34.8143 180.336 34.9943 180.12 35.4023 180.12C35.8103 180.12 35.9903 180.336 35.9903 180.66V180.816C35.9903 181.14 35.8103 181.356 35.4023 181.356ZM34.9223 189V182.808H35.8823V189H34.9223ZM38.8823 189H37.9223V182.808H38.8823V183.816H38.9303C39.2303 183.12 39.7583 182.664 40.6823 182.664C41.9543 182.664 42.7583 183.528 42.7583 185.028V189H41.7983V185.196C41.7983 184.092 41.3183 183.528 40.3943 183.528C39.6263 183.528 38.8823 183.912 38.8823 184.704V189ZM49.9627 189.684C49.9627 190.956 48.9547 191.544 46.9627 191.544C45.0307 191.544 44.2387 190.992 44.2387 190.02C44.2387 189.348 44.6107 188.988 45.2227 188.82V188.688C44.8747 188.52 44.6707 188.244 44.6707 187.824C44.6707 187.2 45.1147 186.9 45.7387 186.744V186.696C45.0067 186.348 44.5747 185.664 44.5747 184.8C44.5747 183.54 45.4987 182.664 46.9027 182.664C47.3467 182.664 47.7427 182.748 48.0787 182.904V182.796C48.0787 182.316 48.2827 181.968 48.7987 181.968H49.7227V182.808H48.5467V183.204C48.9907 183.588 49.2547 184.14 49.2547 184.8C49.2547 186.06 48.3307 186.936 46.9147 186.936C46.7107 186.936 46.4947 186.912 46.3147 186.876C45.9067 186.984 45.4987 187.188 45.4987 187.572C45.4987 187.944 45.8827 188.04 46.4467 188.04H47.7667C49.3027 188.04 49.9627 188.664 49.9627 189.684ZM49.0627 189.756C49.0627 189.264 48.7387 188.94 47.7787 188.94H45.7147C45.3187 189.12 45.1387 189.396 45.1387 189.78C45.1387 190.32 45.5107 190.764 46.4827 190.764H47.3707C48.4387 190.764 49.0627 190.428 49.0627 189.756ZM46.9147 186.168C47.7307 186.168 48.2467 185.784 48.2467 184.968V184.632C48.2467 183.816 47.7307 183.432 46.9147 183.432C46.0987 183.432 45.5827 183.816 45.5827 184.632V184.968C45.5827 185.784 46.0987 186.168 46.9147 186.168Z" fill="#21272A"/>
<line x1="107" y1="60.5" x2="102" y2="60.5" stroke="#262626"/>
<line x1="107" y1="284.5" x2="102" y2="284.5" stroke="#262626"/>
<line x1="184.5" y1="336" x2="184.5" y2="331" stroke="#262626"/>
<line x1="339.5" y1="336" x2="339.5" y2="331" stroke="#262626"/>
<defs>
<linearGradient id="paint0_linear_305_4" x1="50" y1="331" x2="475" y2="331" gradientUnits="userSpaceOnUse">
<stop stop-color="#1192E8" stop-opacity="0"/>
<stop offset="0.234375" stop-color="#1192E8"/>
<stop offset="0.73758" stop-color="#1192E8"/>
<stop offset="1" stop-color="#1192E8" stop-opacity="0"/>
</linearGradient>
</defs>
</svg>
