<svg width="560" height="443" viewBox="0 0 560 443" fill="none" xmlns="http://www.w3.org/2000/svg">
<rect width="560" height="443" fill="white"/>
<line x1="211.5" y1="81" x2="211.5" y2="352" stroke="#A8A8A8" stroke-dasharray="2 2"/>
<line x1="211" y1="81.5" x2="134" y2="81.5" stroke="#A8A8A8" stroke-dasharray="2 2"/>
<line x1="366" y1="306.5" x2="134" y2="306.5" stroke="#A8A8A8" stroke-dasharray="2 2"/>
<line x1="366.5" y1="306" x2="366.5" y2="352" stroke="#A8A8A8" stroke-dasharray="2 2"/>
<path d="M77 61.0002C95 45.5 110.006 34.5617 134.5 34C243.5 31.5 333.5 352 440.5 352C470 352 476.5 344 502.5 325" stroke="url(#paint0_linear_302_3)"/>
<path d="M134.354 21.6464C134.158 21.4512 133.842 21.4512 133.646 21.6464L130.464 24.8284C130.269 25.0237 130.269 25.3403 130.464 25.5355C130.66 25.7308 130.976 25.7308 131.172 25.5355L134 22.7071L136.828 25.5355C137.024 25.7308 137.34 25.7308 137.536 25.5355C137.731 25.3403 137.731 25.0237 137.536 24.8284L134.354 21.6464ZM134.5 357L134.5 22H133.5L133.5 357H134.5Z" fill="#21272A"/>
<path d="M472.354 352.354C472.549 352.158 472.549 351.842 472.354 351.646L469.172 348.464C468.976 348.269 468.66 348.269 468.464 348.464C468.269 348.66 468.269 348.976 468.464 349.172L471.293 352L468.464 354.828C468.269 355.024 468.269 355.34 468.464 355.536C468.66 355.731 468.976 355.731 469.172 355.536L472.354 352.354ZM129 352.5L472 352.5V351.5L129 351.5V352.5Z" fill="#21272A"/>
<path d="M244.416 411H243.36L242.52 408.528H239.136L238.296 411H237.276L240.204 402.624H241.488L244.416 411ZM242.268 407.64L240.852 403.56H240.792L239.376 407.64H242.268ZM246.668 411H245.708V404.808H246.668V405.816H246.716C247.016 405.12 247.544 404.664 248.468 404.664C249.74 404.664 250.544 405.528 250.544 407.028V411H249.584V407.196C249.584 406.092 249.104 405.528 248.18 405.528C247.412 405.528 246.668 405.912 246.668 406.704V411ZM257.748 411.684C257.748 412.956 256.74 413.544 254.748 413.544C252.816 413.544 252.024 412.992 252.024 412.02C252.024 411.348 252.396 410.988 253.008 410.82V410.688C252.66 410.52 252.456 410.244 252.456 409.824C252.456 409.2 252.9 408.9 253.524 408.744V408.696C252.792 408.348 252.36 407.664 252.36 406.8C252.36 405.54 253.284 404.664 254.688 404.664C255.132 404.664 255.528 404.748 255.864 404.904V404.796C255.864 404.316 256.068 403.968 256.584 403.968H257.508V404.808H256.332V405.204C256.776 405.588 257.04 406.14 257.04 406.8C257.04 408.06 256.116 408.936 254.7 408.936C254.496 408.936 254.28 408.912 254.1 408.876C253.692 408.984 253.284 409.188 253.284 409.572C253.284 409.944 253.668 410.04 254.232 410.04H255.552C257.088 410.04 257.748 410.664 257.748 411.684ZM256.848 411.756C256.848 411.264 256.524 410.94 255.564 410.94H253.5C253.104 411.12 252.924 411.396 252.924 411.78C252.924 412.32 253.296 412.764 254.268 412.764H255.156C256.224 412.764 256.848 412.428 256.848 411.756ZM254.7 408.168C255.516 408.168 256.032 407.784 256.032 406.968V406.632C256.032 405.816 255.516 405.432 254.7 405.432C253.884 405.432 253.368 405.816 253.368 406.632V406.968C253.368 407.784 253.884 408.168 254.7 408.168ZM260.74 411H259.888C259.228 411 258.868 410.58 258.868 410.004V402.12H259.828V410.16H260.74V411ZM264.465 411.144C262.785 411.144 261.681 409.872 261.681 407.904C261.681 405.936 262.785 404.664 264.465 404.664C266.121 404.664 267.141 405.936 267.141 407.688V408.144H262.689V408.432C262.689 409.5 263.373 410.304 264.525 410.304C265.305 410.304 265.905 409.92 266.229 409.236L266.913 409.728C266.517 410.568 265.629 411.144 264.465 411.144ZM264.465 405.468C263.421 405.468 262.689 406.26 262.689 407.34V407.424H266.109V407.292C266.109 406.2 265.449 405.468 264.465 405.468ZM271.559 411V402.12H272.519V405.816H272.567C272.891 405.036 273.527 404.664 274.379 404.664C275.927 404.664 276.899 405.924 276.899 407.904C276.899 409.884 275.927 411.144 274.379 411.144C273.527 411.144 272.939 410.76 272.567 409.992H272.519V411H271.559ZM274.115 410.28C275.195 410.28 275.867 409.536 275.867 408.432V407.376C275.867 406.272 275.195 405.528 274.115 405.528C273.239 405.528 272.519 406.032 272.519 406.716V409.02C272.519 409.824 273.239 410.28 274.115 410.28ZM280.848 411.144C279.168 411.144 278.064 409.872 278.064 407.904C278.064 405.936 279.168 404.664 280.848 404.664C282.504 404.664 283.524 405.936 283.524 407.688V408.144H279.072V408.432C279.072 409.5 279.756 410.304 280.908 410.304C281.688 410.304 282.288 409.92 282.612 409.236L283.296 409.728C282.9 410.568 282.012 411.144 280.848 411.144ZM280.848 405.468C279.804 405.468 279.072 406.26 279.072 407.34V407.424H282.492V407.292C282.492 406.2 281.832 405.468 280.848 405.468ZM287.674 411H286.474C285.814 411 285.454 410.58 285.454 409.98V405.648H284.434V404.808H285.01C285.418 404.808 285.55 404.664 285.55 404.244V403.092H286.414V404.808H287.77V405.648H286.414V410.16H287.674V411ZM290.321 411L288.665 404.808H289.601L290.261 407.484L290.921 410.196H290.945L291.701 407.484L292.481 404.808H293.333L294.137 407.484L294.905 410.196H294.929L295.565 407.484L296.237 404.808H297.137L295.493 411H294.305L293.441 408.024L292.901 406.14H292.877L292.349 408.024L291.485 411H290.321ZM300.793 411.144C299.113 411.144 298.009 409.872 298.009 407.904C298.009 405.936 299.113 404.664 300.793 404.664C302.449 404.664 303.469 405.936 303.469 407.688V408.144H299.017V408.432C299.017 409.5 299.701 410.304 300.853 410.304C301.633 410.304 302.233 409.92 302.557 409.236L303.241 409.728C302.845 410.568 301.957 411.144 300.793 411.144ZM300.793 405.468C299.749 405.468 299.017 406.26 299.017 407.34V407.424H302.437V407.292C302.437 406.2 301.777 405.468 300.793 405.468ZM307.379 411.144C305.699 411.144 304.595 409.872 304.595 407.904C304.595 405.936 305.699 404.664 307.379 404.664C309.035 404.664 310.055 405.936 310.055 407.688V408.144H305.603V408.432C305.603 409.5 306.287 410.304 307.439 410.304C308.219 410.304 308.819 409.92 309.143 409.236L309.827 409.728C309.431 410.568 308.543 411.144 307.379 411.144ZM307.379 405.468C306.335 405.468 305.603 406.26 305.603 407.34V407.424H309.023V407.292C309.023 406.2 308.363 405.468 307.379 405.468ZM312.597 411H311.637V404.808H312.597V405.816H312.645C312.945 405.12 313.473 404.664 314.397 404.664C315.669 404.664 316.473 405.528 316.473 407.028V411H315.513V407.196C315.513 406.092 315.033 405.528 314.109 405.528C313.341 405.528 312.597 405.912 312.597 406.704V411ZM321.293 411V402.12H322.253V405.816H322.301C322.625 405.036 323.261 404.664 324.113 404.664C325.661 404.664 326.633 405.924 326.633 407.904C326.633 409.884 325.661 411.144 324.113 411.144C323.261 411.144 322.673 410.76 322.301 409.992H322.253V411H321.293ZM323.849 410.28C324.929 410.28 325.601 409.536 325.601 408.432V407.376C325.601 406.272 324.929 405.528 323.849 405.528C322.973 405.528 322.253 406.032 322.253 406.716V409.02C322.253 409.824 322.973 410.28 323.849 410.28ZM333.294 411H332.754C332.046 411 331.758 410.568 331.686 409.992H331.626C331.362 410.748 330.702 411.144 329.838 411.144C328.53 411.144 327.762 410.424 327.762 409.272C327.762 408.108 328.602 407.46 330.402 407.46H331.626V406.848C331.626 405.972 331.146 405.492 330.162 405.492C329.418 405.492 328.926 405.852 328.59 406.416L328.014 405.876C328.35 405.216 329.094 404.664 330.21 404.664C331.698 404.664 332.586 405.444 332.586 406.752V410.16H333.294V411ZM329.994 410.328C330.942 410.328 331.626 409.836 331.626 409.2V408.18H330.354C329.262 408.18 328.77 408.516 328.77 409.116V409.368C328.77 409.98 329.25 410.328 329.994 410.328ZM336.525 411.144C335.385 411.144 334.629 410.664 334.077 409.932L334.761 409.38C335.241 409.98 335.817 410.328 336.597 410.328C337.413 410.328 337.893 409.956 337.893 409.32C337.893 408.84 337.629 408.468 336.813 408.348L336.321 408.276C335.181 408.108 334.329 407.64 334.329 406.488C334.329 405.264 335.277 404.664 336.537 404.664C337.533 404.664 338.193 405.036 338.697 405.66L338.061 406.236C337.785 405.852 337.257 405.48 336.465 405.48C335.673 405.48 335.253 405.852 335.253 406.44C335.253 407.04 335.673 407.28 336.441 407.4L336.921 407.472C338.289 407.676 338.817 408.276 338.817 409.212C338.817 410.412 337.941 411.144 336.525 411.144ZM342.84 411.144C341.16 411.144 340.056 409.872 340.056 407.904C340.056 405.936 341.16 404.664 342.84 404.664C344.496 404.664 345.516 405.936 345.516 407.688V408.144H341.064V408.432C341.064 409.5 341.748 410.304 342.9 410.304C343.68 410.304 344.28 409.92 344.604 409.236L345.288 409.728C344.892 410.568 344.004 411.144 342.84 411.144ZM342.84 405.468C341.796 405.468 341.064 406.26 341.064 407.34V407.424H344.484V407.292C344.484 406.2 343.824 405.468 342.84 405.468ZM348.958 411.144C347.818 411.144 347.062 410.664 346.51 409.932L347.194 409.38C347.674 409.98 348.25 410.328 349.03 410.328C349.846 410.328 350.326 409.956 350.326 409.32C350.326 408.84 350.062 408.468 349.246 408.348L348.754 408.276C347.614 408.108 346.762 407.64 346.762 406.488C346.762 405.264 347.71 404.664 348.97 404.664C349.966 404.664 350.626 405.036 351.13 405.66L350.494 406.236C350.218 405.852 349.69 405.48 348.898 405.48C348.106 405.48 347.686 405.852 347.686 406.44C347.686 407.04 348.106 407.28 348.874 407.4L349.354 407.472C350.722 407.676 351.25 408.276 351.25 409.212C351.25 410.412 350.374 411.144 348.958 411.144Z" fill="#21272A"/>
<path d="M133.6 373.144C131.596 373.144 130.72 371.548 130.72 368.812C130.72 366.076 131.596 364.48 133.6 364.48C135.604 364.48 136.48 366.076 136.48 368.812C136.48 371.548 135.604 373.144 133.6 373.144ZM133.6 372.268C134.908 372.268 135.424 371.116 135.424 369.496V368.128C135.424 366.508 134.908 365.356 133.6 365.356C132.292 365.356 131.776 366.508 131.776 368.128V369.496C131.776 371.116 132.292 372.268 133.6 372.268Z" fill="#21272A"/>
<path d="M117.6 357.144C115.596 357.144 114.72 355.548 114.72 352.812C114.72 350.076 115.596 348.48 117.6 348.48C119.604 348.48 120.48 350.076 120.48 352.812C120.48 355.548 119.604 357.144 117.6 357.144ZM117.6 356.268C118.908 356.268 119.424 355.116 119.424 353.496V352.128C119.424 350.508 118.908 349.356 117.6 349.356C116.292 349.356 115.776 350.508 115.776 352.128V353.496C115.776 355.116 116.292 356.268 117.6 356.268Z" fill="#21272A"/>
<path d="M208.844 367.648V372.16H209.612V373H208.904C208.244 373 207.884 372.568 207.884 372.016V367.648H205.388V373H204.428V367.648H203.288V366.808H210.08V367.648H208.844ZM211.32 374.812H210.456L213.588 364.12H214.452L211.32 374.812ZM218.541 373.144C216.633 373.144 215.637 372.1 215.637 370.72C215.637 369.58 216.321 368.92 217.329 368.644V368.548C216.453 368.248 215.889 367.54 215.889 366.58C215.889 365.308 216.873 364.48 218.541 364.48C220.209 364.48 221.193 365.308 221.193 366.58C221.193 367.54 220.629 368.248 219.753 368.548V368.644C220.761 368.92 221.445 369.58 221.445 370.72C221.445 372.1 220.449 373.144 218.541 373.144ZM218.541 372.268C219.705 372.268 220.377 371.716 220.377 370.768V370.516C220.377 369.568 219.705 369.016 218.541 369.016C217.377 369.016 216.705 369.568 216.705 370.516V370.768C216.705 371.716 217.377 372.268 218.541 372.268ZM218.541 368.176C219.585 368.176 220.149 367.708 220.149 366.856V366.676C220.149 365.824 219.585 365.356 218.541 365.356C217.497 365.356 216.933 365.824 216.933 366.676V366.856C216.933 367.708 217.497 368.176 218.541 368.176Z" fill="#21272A"/>
<path d="M94.028 83.168C93.44 83.168 93.032 82.988 92.48 82.724C92.036 82.508 91.616 82.316 91.124 82.316C90.728 82.316 90.488 82.436 90.128 82.7L89.732 82.172C90.056 81.776 90.452 81.512 91.172 81.512C91.76 81.512 92.168 81.692 92.72 81.956C93.164 82.172 93.584 82.364 94.076 82.364C94.472 82.364 94.712 82.244 95.072 81.98L95.468 82.508C95.144 82.904 94.748 83.168 94.028 83.168ZM99.7953 86.144C97.7913 86.144 96.9153 84.548 96.9153 81.812C96.9153 79.076 97.7913 77.48 99.7953 77.48C101.799 77.48 102.675 79.076 102.675 81.812C102.675 84.548 101.799 86.144 99.7953 86.144ZM99.7953 85.268C101.103 85.268 101.619 84.116 101.619 82.496V81.128C101.619 79.508 101.103 78.356 99.7953 78.356C98.4873 78.356 97.9713 79.508 97.9713 81.128V82.496C97.9713 84.116 98.4873 85.268 99.7953 85.268ZM105.023 86.144C104.519 86.144 104.291 85.856 104.291 85.448V85.292C104.291 84.884 104.519 84.596 105.023 84.596C105.527 84.596 105.755 84.884 105.755 85.292V85.448C105.755 85.856 105.527 86.144 105.023 86.144ZM110.26 86.144C108.352 86.144 107.356 85.1 107.356 83.72C107.356 82.58 108.04 81.92 109.048 81.644V81.548C108.172 81.248 107.608 80.54 107.608 79.58C107.608 78.308 108.592 77.48 110.26 77.48C111.928 77.48 112.912 78.308 112.912 79.58C112.912 80.54 112.348 81.248 111.472 81.548V81.644C112.48 81.92 113.164 82.58 113.164 83.72C113.164 85.1 112.168 86.144 110.26 86.144ZM110.26 85.268C111.424 85.268 112.096 84.716 112.096 83.768V83.516C112.096 82.568 111.424 82.016 110.26 82.016C109.096 82.016 108.424 82.568 108.424 83.516V83.768C108.424 84.716 109.096 85.268 110.26 85.268ZM110.26 81.176C111.304 81.176 111.868 80.708 111.868 79.856V79.676C111.868 78.824 111.304 78.356 110.26 78.356C109.216 78.356 108.652 78.824 108.652 79.676V79.856C108.652 80.708 109.216 81.176 110.26 81.176ZM119.831 77.624V78.512H116.159L115.919 81.704H116.003C116.399 81.14 116.843 80.78 117.719 80.78C119.159 80.78 120.215 81.752 120.215 83.372C120.215 85.004 119.159 86.144 117.395 86.144C116.003 86.144 115.283 85.436 114.779 84.716L115.535 84.14C115.967 84.8 116.387 85.244 117.395 85.244C118.535 85.244 119.147 84.608 119.147 83.504V83.384C119.147 82.28 118.535 81.644 117.395 81.644C116.627 81.644 116.243 81.968 115.895 82.352L115.043 82.232L115.343 77.624H119.831Z" fill="#21272A"/>
<path d="M94.028 307.168C93.44 307.168 93.032 306.988 92.48 306.724C92.036 306.508 91.616 306.316 91.124 306.316C90.728 306.316 90.488 306.436 90.128 306.7L89.732 306.172C90.056 305.776 90.452 305.512 91.172 305.512C91.76 305.512 92.168 305.692 92.72 305.956C93.164 306.172 93.584 306.364 94.076 306.364C94.472 306.364 94.712 306.244 95.072 305.98L95.468 306.508C95.144 306.904 94.748 307.168 94.028 307.168ZM99.7953 310.144C97.7913 310.144 96.9153 308.548 96.9153 305.812C96.9153 303.076 97.7913 301.48 99.7953 301.48C101.799 301.48 102.675 303.076 102.675 305.812C102.675 308.548 101.799 310.144 99.7953 310.144ZM99.7953 309.268C101.103 309.268 101.619 308.116 101.619 306.496V305.128C101.619 303.508 101.103 302.356 99.7953 302.356C98.4873 302.356 97.9713 303.508 97.9713 305.128V306.496C97.9713 308.116 98.4873 309.268 99.7953 309.268ZM105.023 310.144C104.519 310.144 104.291 309.856 104.291 309.448V309.292C104.291 308.884 104.519 308.596 105.023 308.596C105.527 308.596 105.755 308.884 105.755 309.292V309.448C105.755 309.856 105.527 310.144 105.023 310.144ZM113.224 310H107.716V309.112H110.056V302.368H109.972L107.86 304.336L107.272 303.7L109.492 301.624H111.064V309.112H113.224V310ZM119.831 301.624V302.512H116.159L115.919 305.704H116.003C116.399 305.14 116.843 304.78 117.719 304.78C119.159 304.78 120.215 305.752 120.215 307.372C120.215 309.004 119.159 310.144 117.395 310.144C116.003 310.144 115.283 309.436 114.779 308.716L115.535 308.14C115.967 308.8 116.387 309.244 117.395 309.244C118.535 309.244 119.147 308.608 119.147 307.504V307.384C119.147 306.28 118.535 305.644 117.395 305.644C116.627 305.644 116.243 305.968 115.895 306.352L115.043 306.232L115.343 301.624H119.831Z" fill="#21272A"/>
<path d="M354.22 368.176H355.132C356.26 368.176 356.836 367.588 356.836 366.784V366.7C356.836 365.824 356.224 365.38 355.336 365.38C354.472 365.38 353.956 365.788 353.608 366.424L352.864 365.848C353.284 365.176 354.016 364.48 355.36 364.48C356.776 364.48 357.904 365.236 357.904 366.592C357.904 367.672 357.184 368.32 356.296 368.548V368.596C357.196 368.776 358.06 369.448 358.06 370.708C358.06 372.148 356.92 373.144 355.216 373.144C353.764 373.144 353.02 372.436 352.504 371.716L353.26 371.14C353.692 371.8 354.184 372.244 355.204 372.244C356.38 372.244 357.004 371.68 357.004 370.696V370.6C357.004 369.616 356.38 369.052 355.204 369.052H354.22V368.176ZM365.039 367.648V372.16H365.807V373H365.099C364.439 373 364.079 372.568 364.079 372.016V367.648H361.583V373H360.623V367.648H359.483V366.808H366.275V367.648H365.039ZM367.515 374.812H366.651L369.783 364.12H370.647L367.515 374.812ZM374.737 373.144C372.829 373.144 371.833 372.1 371.833 370.72C371.833 369.58 372.517 368.92 373.525 368.644V368.548C372.649 368.248 372.085 367.54 372.085 366.58C372.085 365.308 373.069 364.48 374.737 364.48C376.405 364.48 377.389 365.308 377.389 366.58C377.389 367.54 376.825 368.248 375.949 368.548V368.644C376.957 368.92 377.641 369.58 377.641 370.72C377.641 372.1 376.645 373.144 374.737 373.144ZM374.737 372.268C375.901 372.268 376.573 371.716 376.573 370.768V370.516C376.573 369.568 375.901 369.016 374.737 369.016C373.573 369.016 372.901 369.568 372.901 370.516V370.768C372.901 371.716 373.573 372.268 374.737 372.268ZM374.737 368.176C375.781 368.176 376.345 367.708 376.345 366.856V366.676C376.345 365.824 375.781 365.356 374.737 365.356C373.693 365.356 373.129 365.824 373.129 366.676V366.856C373.129 367.708 373.693 368.176 374.737 368.176Z" fill="#21272A"/>
<path d="M28.124 161H27.116V152.624H30.452C31.952 152.624 32.792 153.548 32.792 155.024C32.792 156.5 31.952 157.424 30.452 157.424H28.124V161ZM28.124 153.512V156.536H30.452C31.244 156.536 31.712 156.104 31.712 155.336V154.712C31.712 153.944 31.244 153.512 30.452 153.512H28.124ZM35.1402 161H34.1802V154.808H35.1402V155.948H35.2002C35.4162 155.36 35.9802 154.808 36.9882 154.808H37.3602V155.768H36.7962C35.7642 155.768 35.1402 156.212 35.1402 156.8V161ZM40.8678 161.144C39.2118 161.144 38.0718 159.872 38.0718 157.904C38.0718 155.936 39.2118 154.664 40.8678 154.664C42.5238 154.664 43.6638 155.936 43.6638 157.904C43.6638 159.872 42.5238 161.144 40.8678 161.144ZM40.8678 160.292C41.8998 160.292 42.6318 159.656 42.6318 158.348V157.46C42.6318 156.152 41.8998 155.516 40.8678 155.516C39.8358 155.516 39.1038 156.152 39.1038 157.46V158.348C39.1038 159.656 39.8358 160.292 40.8678 160.292ZM45.2427 161V152.12H46.2027V155.816H46.2507C46.5747 155.036 47.2107 154.664 48.0627 154.664C49.6107 154.664 50.5827 155.924 50.5827 157.904C50.5827 159.884 49.6107 161.144 48.0627 161.144C47.2107 161.144 46.6227 160.76 46.2507 159.992H46.2027V161H45.2427ZM47.7987 160.28C48.8787 160.28 49.5507 159.536 49.5507 158.432V157.376C49.5507 156.272 48.8787 155.528 47.7987 155.528C46.9227 155.528 46.2027 156.032 46.2027 156.716V159.02C46.2027 159.824 46.9227 160.28 47.7987 160.28ZM57.2436 161H56.7036C55.9956 161 55.7076 160.568 55.6356 159.992H55.5756C55.3116 160.748 54.6516 161.144 53.7876 161.144C52.4796 161.144 51.7116 160.424 51.7116 159.272C51.7116 158.108 52.5516 157.46 54.3516 157.46H55.5756V156.848C55.5756 155.972 55.0956 155.492 54.1116 155.492C53.3676 155.492 52.8756 155.852 52.5396 156.416L51.9636 155.876C52.2996 155.216 53.0436 154.664 54.1596 154.664C55.6476 154.664 56.5356 155.444 56.5356 156.752V160.16H57.2436V161ZM53.9436 160.328C54.8916 160.328 55.5756 159.836 55.5756 159.2V158.18H54.3036C53.2116 158.18 52.7196 158.516 52.7196 159.116V159.368C52.7196 159.98 53.1996 160.328 53.9436 160.328ZM58.6138 161V152.12H59.5738V155.816H59.6218C59.9458 155.036 60.5818 154.664 61.4338 154.664C62.9818 154.664 63.9538 155.924 63.9538 157.904C63.9538 159.884 62.9818 161.144 61.4338 161.144C60.5818 161.144 59.9938 160.76 59.6218 159.992H59.5738V161H58.6138ZM61.1698 160.28C62.2498 160.28 62.9218 159.536 62.9218 158.432V157.376C62.9218 156.272 62.2498 155.528 61.1698 155.528C60.2938 155.528 59.5738 156.032 59.5738 156.716V159.02C59.5738 159.824 60.2938 160.28 61.1698 160.28ZM66.0547 153.356C65.6467 153.356 65.4667 153.14 65.4667 152.816V152.66C65.4667 152.336 65.6467 152.12 66.0547 152.12C66.4627 152.12 66.6427 152.336 66.6427 152.66V152.816C66.6427 153.14 66.4627 153.356 66.0547 153.356ZM65.5747 161V154.808H66.5347V161H65.5747ZM70.4467 161H69.5947C68.9347 161 68.5747 160.58 68.5747 160.004V152.12H69.5347V160.16H70.4467V161ZM72.3242 153.356C71.9162 153.356 71.7362 153.14 71.7362 152.816V152.66C71.7362 152.336 71.9162 152.12 72.3242 152.12C72.7322 152.12 72.9122 152.336 72.9122 152.66V152.816C72.9122 153.14 72.7322 153.356 72.3242 153.356ZM71.8442 161V154.808H72.8042V161H71.8442ZM77.4122 161H76.2122C75.5522 161 75.1922 160.58 75.1922 159.98V155.648H74.1722V154.808H74.7482C75.1562 154.808 75.2882 154.664 75.2882 154.244V153.092H76.1522V154.808H77.5082V155.648H76.1522V160.16H77.4122V161ZM81.3673 159.02L82.8673 154.808H83.8153L81.0433 162.44C80.7673 163.184 80.5153 163.4 79.6033 163.4H79.1113V162.56H80.0833L80.5513 161.24L78.2353 154.808H79.1953L80.6833 159.02L80.9713 160.028H81.0312L81.3673 159.02ZM90.2155 161.144C88.5595 161.144 87.4195 159.872 87.4195 157.904C87.4195 155.936 88.5595 154.664 90.2155 154.664C91.8715 154.664 93.0115 155.936 93.0115 157.904C93.0115 159.872 91.8715 161.144 90.2155 161.144ZM90.2155 160.292C91.2475 160.292 91.9795 159.656 91.9795 158.348V157.46C91.9795 156.152 91.2475 155.516 90.2155 155.516C89.1835 155.516 88.4515 156.152 88.4515 157.46V158.348C88.4515 159.656 89.1835 160.292 90.2155 160.292ZM94.856 161V155.648H93.848V154.808H94.856V153.56C94.856 152.708 95.3 152.12 96.212 152.12H97.148V152.96H95.816V154.808H97.148V155.648H95.816V161H94.856ZM27.98 177H27.02V170.808H27.98V171.816H28.028C28.304 171.18 28.736 170.664 29.696 170.664C30.512 170.664 31.256 171.036 31.592 171.924H31.616C31.844 171.252 32.444 170.664 33.5 170.664C34.76 170.664 35.516 171.528 35.516 173.028V177H34.556V173.196C34.556 172.104 34.136 171.528 33.2 171.528C32.444 171.528 31.748 171.912 31.748 172.704V177H30.788V173.196C30.788 172.092 30.368 171.528 29.456 171.528C28.7 171.528 27.98 171.912 27.98 172.704V177ZM39.8246 177.144C38.1446 177.144 37.0406 175.872 37.0406 173.904C37.0406 171.936 38.1446 170.664 39.8246 170.664C41.4806 170.664 42.5006 171.936 42.5006 173.688V174.144H38.0486V174.432C38.0486 175.5 38.7326 176.304 39.8846 176.304C40.6646 176.304 41.2646 175.92 41.5886 175.236L42.2726 175.728C41.8766 176.568 40.9886 177.144 39.8246 177.144ZM39.8246 171.468C38.7806 171.468 38.0486 172.26 38.0486 173.34V173.424H41.4686V173.292C41.4686 172.2 40.8086 171.468 39.8246 171.468ZM49.1225 177H48.5825C47.8745 177 47.5865 176.568 47.5145 175.992H47.4545C47.1905 176.748 46.5305 177.144 45.6665 177.144C44.3585 177.144 43.5905 176.424 43.5905 175.272C43.5905 174.108 44.4305 173.46 46.2305 173.46H47.4545V172.848C47.4545 171.972 46.9745 171.492 45.9905 171.492C45.2465 171.492 44.7545 171.852 44.4185 172.416L43.8425 171.876C44.1785 171.216 44.9225 170.664 46.0385 170.664C47.5265 170.664 48.4145 171.444 48.4145 172.752V176.16H49.1225V177ZM45.8225 176.328C46.7705 176.328 47.4545 175.836 47.4545 175.2V174.18H46.1825C45.0905 174.18 44.5985 174.516 44.5985 175.116V175.368C44.5985 175.98 45.0785 176.328 45.8225 176.328ZM52.3527 177.144C51.2127 177.144 50.4567 176.664 49.9047 175.932L50.5887 175.38C51.0687 175.98 51.6447 176.328 52.4247 176.328C53.2407 176.328 53.7207 175.956 53.7207 175.32C53.7207 174.84 53.4567 174.468 52.6407 174.348L52.1487 174.276C51.0087 174.108 50.1567 173.64 50.1567 172.488C50.1567 171.264 51.1047 170.664 52.3647 170.664C53.3607 170.664 54.0207 171.036 54.5247 171.66L53.8887 172.236C53.6127 171.852 53.0847 171.48 52.2927 171.48C51.5007 171.48 51.0807 171.852 51.0807 172.44C51.0807 173.04 51.5007 173.28 52.2687 173.4L52.7487 173.472C54.1167 173.676 54.6447 174.276 54.6447 175.212C54.6447 176.412 53.7687 177.144 52.3527 177.144ZM60.1563 177V175.992H60.1083C59.8683 176.58 59.4003 177.144 58.3683 177.144C57.0963 177.144 56.2803 176.28 56.2803 174.78V170.808H57.2403V174.612C57.2403 175.716 57.7323 176.28 58.6563 176.28C59.4123 176.28 60.1563 175.908 60.1563 175.092V170.808H61.1163V177H60.1563ZM64.1206 177H63.1606V170.808H64.1206V171.948H64.1806C64.3966 171.36 64.9606 170.808 65.9686 170.808H66.3406V171.768H65.7766C64.7446 171.768 64.1206 172.212 64.1206 172.8V177ZM69.8363 177.144C68.1563 177.144 67.0523 175.872 67.0523 173.904C67.0523 171.936 68.1563 170.664 69.8363 170.664C71.4923 170.664 72.5123 171.936 72.5123 173.688V174.144H68.0603V174.432C68.0603 175.5 68.7443 176.304 69.8963 176.304C70.6763 176.304 71.2763 175.92 71.6003 175.236L72.2843 175.728C71.8883 176.568 71.0003 177.144 69.8363 177.144ZM69.8363 171.468C68.7923 171.468 68.0603 172.26 68.0603 173.34V173.424H71.4803V173.292C71.4803 172.2 70.8203 171.468 69.8363 171.468ZM75.0542 177H74.0942V170.808H75.0542V171.816H75.1022C75.3782 171.18 75.8102 170.664 76.7702 170.664C77.5862 170.664 78.3302 171.036 78.6662 171.924H78.6902C78.9182 171.252 79.5182 170.664 80.5742 170.664C81.8342 170.664 82.5902 171.528 82.5902 173.028V177H81.6302V173.196C81.6302 172.104 81.2102 171.528 80.2742 171.528C79.5182 171.528 78.8222 171.912 78.8222 172.704V177H77.8622V173.196C77.8622 172.092 77.4422 171.528 76.5302 171.528C75.7742 171.528 75.0542 171.912 75.0542 172.704V177ZM86.8988 177.144C85.2188 177.144 84.1148 175.872 84.1148 173.904C84.1148 171.936 85.2188 170.664 86.8988 170.664C88.5548 170.664 89.5748 171.936 89.5748 173.688V174.144H85.1228V174.432C85.1228 175.5 85.8068 176.304 86.9588 176.304C87.7388 176.304 88.3388 175.92 88.6628 175.236L89.3468 175.728C88.9508 176.568 88.0628 177.144 86.8988 177.144ZM86.8988 171.468C85.8548 171.468 85.1228 172.26 85.1228 173.34V173.424H88.5428V173.292C88.5428 172.2 87.8828 171.468 86.8988 171.468ZM92.1167 177H91.1567V170.808H92.1167V171.816H92.1647C92.4647 171.12 92.9927 170.664 93.9167 170.664C95.1887 170.664 95.9927 171.528 95.9927 173.028V177H95.0327V173.196C95.0327 172.092 94.5527 171.528 93.6287 171.528C92.8607 171.528 92.1167 171.912 92.1167 172.704V177ZM100.545 177H99.345C98.685 177 98.325 176.58 98.325 175.98V171.648H97.305V170.808H97.881C98.289 170.808 98.421 170.664 98.421 170.244V169.092H99.285V170.808H100.641V171.648H99.285V176.16H100.545V177ZM104.044 177.144C102.904 177.144 102.148 176.664 101.596 175.932L102.28 175.38C102.76 175.98 103.336 176.328 104.116 176.328C104.932 176.328 105.412 175.956 105.412 175.32C105.412 174.84 105.148 174.468 104.332 174.348L103.84 174.276C102.7 174.108 101.848 173.64 101.848 172.488C101.848 171.264 102.796 170.664 104.056 170.664C105.052 170.664 105.712 171.036 106.216 171.66L105.58 172.236C105.304 171.852 104.776 171.48 103.984 171.48C103.192 171.48 102.772 171.852 102.772 172.44C102.772 173.04 103.192 173.28 103.96 173.4L104.44 173.472C105.808 173.676 106.336 174.276 106.336 175.212C106.336 176.412 105.46 177.144 104.044 177.144ZM27.98 193H27.02V186.808H27.98V187.816H28.028C28.304 187.18 28.736 186.664 29.696 186.664C30.512 186.664 31.256 187.036 31.592 187.924H31.616C31.844 187.252 32.444 186.664 33.5 186.664C34.76 186.664 35.516 187.528 35.516 189.028V193H34.556V189.196C34.556 188.104 34.136 187.528 33.2 187.528C32.444 187.528 31.748 187.912 31.748 188.704V193H30.788V189.196C30.788 188.092 30.368 187.528 29.456 187.528C28.7 187.528 27.98 187.912 27.98 188.704V193ZM42.5366 193H41.9966C41.2886 193 41.0006 192.568 40.9286 191.992H40.8686C40.6046 192.748 39.9446 193.144 39.0806 193.144C37.7726 193.144 37.0046 192.424 37.0046 191.272C37.0046 190.108 37.8446 189.46 39.6446 189.46H40.8686V188.848C40.8686 187.972 40.3886 187.492 39.4046 187.492C38.6606 187.492 38.1686 187.852 37.8326 188.416L37.2566 187.876C37.5926 187.216 38.3366 186.664 39.4526 186.664C40.9406 186.664 41.8286 187.444 41.8286 188.752V192.16H42.5366V193ZM39.2366 192.328C40.1846 192.328 40.8686 191.836 40.8686 191.2V190.18H39.5966C38.5046 190.18 38.0126 190.516 38.0126 191.116V191.368C38.0126 191.98 38.4926 192.328 39.2366 192.328ZM46.4747 193H45.2747C44.6147 193 44.2547 192.58 44.2547 191.98V187.648H43.2347V186.808H43.8107C44.2187 186.808 44.3507 186.664 44.3507 186.244V185.092H45.2147V186.808H46.5707V187.648H45.2147V192.16H46.4747V193ZM50.3709 193.144C48.6309 193.144 47.6109 191.884 47.6109 189.904C47.6109 187.924 48.6309 186.664 50.3709 186.664C51.5949 186.664 52.3269 187.264 52.6869 188.116L51.8829 188.524C51.6549 187.888 51.1269 187.516 50.3709 187.516C49.2309 187.516 48.6429 188.296 48.6429 189.376V190.432C48.6429 191.512 49.2309 192.292 50.3709 192.292C51.1509 192.292 51.7149 191.92 52.0509 191.212L52.7469 191.68C52.3509 192.568 51.5469 193.144 50.3709 193.144ZM54.102 193V184.12H55.062V187.816H55.11C55.41 187.12 55.938 186.664 56.862 186.664C58.134 186.664 58.938 187.528 58.938 189.028V193H57.978V189.196C57.978 188.092 57.498 187.528 56.574 187.528C55.806 187.528 55.062 187.912 55.062 188.704V193H54.102ZM61.4023 185.356C60.9943 185.356 60.8143 185.14 60.8143 184.816V184.66C60.8143 184.336 60.9943 184.12 61.4023 184.12C61.8103 184.12 61.9903 184.336 61.9903 184.66V184.816C61.9903 185.14 61.8103 185.356 61.4023 185.356ZM60.9223 193V186.808H61.8823V193H60.9223ZM64.8823 193H63.9223V186.808H64.8823V187.816H64.9303C65.2303 187.12 65.7583 186.664 66.6823 186.664C67.9543 186.664 68.7583 187.528 68.7583 189.028V193H67.7983V189.196C67.7983 188.092 67.3183 187.528 66.3943 187.528C65.6263 187.528 64.8823 187.912 64.8823 188.704V193ZM75.9627 193.684C75.9627 194.956 74.9547 195.544 72.9627 195.544C71.0307 195.544 70.2387 194.992 70.2387 194.02C70.2387 193.348 70.6107 192.988 71.2227 192.82V192.688C70.8747 192.52 70.6707 192.244 70.6707 191.824C70.6707 191.2 71.1147 190.9 71.7387 190.744V190.696C71.0067 190.348 70.5747 189.664 70.5747 188.8C70.5747 187.54 71.4987 186.664 72.9027 186.664C73.3467 186.664 73.7427 186.748 74.0787 186.904V186.796C74.0787 186.316 74.2827 185.968 74.7987 185.968H75.7227V186.808H74.5467V187.204C74.9907 187.588 75.2547 188.14 75.2547 188.8C75.2547 190.06 74.3307 190.936 72.9147 190.936C72.7107 190.936 72.4947 190.912 72.3147 190.876C71.9067 190.984 71.4987 191.188 71.4987 191.572C71.4987 191.944 71.8827 192.04 72.4467 192.04H73.7667C75.3027 192.04 75.9627 192.664 75.9627 193.684ZM75.0627 193.756C75.0627 193.264 74.7387 192.94 73.7787 192.94H71.7147C71.3187 193.12 71.1387 193.396 71.1387 193.78C71.1387 194.32 71.5107 194.764 72.4827 194.764H73.3707C74.4387 194.764 75.0627 194.428 75.0627 193.756ZM72.9147 190.168C73.7307 190.168 74.2467 189.784 74.2467 188.968V188.632C74.2467 187.816 73.7307 187.432 72.9147 187.432C72.0987 187.432 71.5827 187.816 71.5827 188.632V188.968C71.5827 189.784 72.0987 190.168 72.9147 190.168Z" fill="#21272A"/>
<line x1="134" y1="81.5" x2="129" y2="81.5" stroke="#262626"/>
<line x1="134" y1="305.5" x2="129" y2="305.5" stroke="#262626"/>
<line x1="211.5" y1="357" x2="211.5" y2="352" stroke="#262626"/>
<line x1="366.5" y1="357" x2="366.5" y2="352" stroke="#262626"/>
<defs>
<linearGradient id="paint0_linear_302_3" x1="77" y1="352" x2="502" y2="352" gradientUnits="userSpaceOnUse">
<stop stop-color="#1192E8" stop-opacity="0"/>
<stop offset="0.234375" stop-color="#1192E8"/>
<stop offset="0.73758" stop-color="#1192E8"/>
<stop offset="1" stop-color="#1192E8" stop-opacity="0"/>
</linearGradient>
</defs>
</svg>
