<svg xmlns="http://www.w3.org/2000/svg" width="430" height="411" fill="none" viewBox="0 0 430 411"><rect width="384" height="48" x="26" y="336" fill="#F2F4F8" opacity=".4"/><rect width="384" height="48" x="26" y="240" fill="#F2F4F8" opacity=".4"/><rect width="384" height="48" x="26" y="144" fill="#F2F4F8" opacity=".4"/><rect width="384" height="48" x="26" y="48" fill="#F2F4F8" opacity=".4"/><path fill="#000" d="M65.186 407.168C64.346 407.168 63.632 407.019 63.044 406.72C62.4653 406.421 61.966 406.029 61.546 405.544L62.792 404.34C63.128 404.732 63.5013 405.031 63.912 405.236C64.332 405.441 64.794 405.544 65.298 405.544C65.8673 405.544 66.2967 405.423 66.586 405.18C66.8753 404.928 67.02 404.592 67.02 404.172C67.02 403.845 66.9267 403.579 66.74 403.374C66.5533 403.169 66.2033 403.019 65.69 402.926L64.766 402.786C62.8153 402.478 61.84 401.531 61.84 399.944C61.84 399.505 61.9193 399.109 62.078 398.754C62.246 398.399 62.484 398.096 62.792 397.844C63.1 397.592 63.4687 397.401 63.898 397.27C64.3367 397.13 64.8313 397.06 65.382 397.06C66.1193 397.06 66.7633 397.181 67.314 397.424C67.8647 397.667 68.336 398.026 68.728 398.502L67.468 399.692C67.2253 399.393 66.9313 399.151 66.586 398.964C66.2407 398.777 65.8067 398.684 65.284 398.684C64.752 398.684 64.3507 398.787 64.08 398.992C63.8187 399.188 63.688 399.468 63.688 399.832C63.688 400.205 63.7953 400.481 64.01 400.658C64.2247 400.835 64.57 400.966 65.046 401.05L65.956 401.218C66.9453 401.395 67.6733 401.713 68.14 402.17C68.616 402.618 68.854 403.248 68.854 404.06C68.854 404.527 68.77 404.951 68.602 405.334C68.4433 405.707 68.2053 406.034 67.888 406.314C67.58 406.585 67.1973 406.795 66.74 406.944C66.292 407.093 65.774 407.168 65.186 407.168ZM71.6506 398.628C71.2773 398.628 71.0066 398.544 70.8386 398.376C70.6799 398.208 70.6006 397.993 70.6006 397.732V397.452C70.6006 397.191 70.6799 396.976 70.8386 396.808C71.0066 396.64 71.2773 396.556 71.6506 396.556C72.0146 396.556 72.2806 396.64 72.4486 396.808C72.6166 396.976 72.7006 397.191 72.7006 397.452V397.732C72.7006 397.993 72.6166 398.208 72.4486 398.376C72.2806 398.544 72.0146 398.628 71.6506 398.628ZM70.7546 399.692H72.5466V407H70.7546V399.692ZM74.2657 407V405.572L78.0597 401.106H74.3917V399.692H80.1597V401.078L76.3377 405.572H80.2577V407H74.2657ZM84.7747 407.168C84.2334 407.168 83.748 407.079 83.3187 406.902C82.8987 406.715 82.5394 406.459 82.2407 406.132C81.9514 405.796 81.7274 405.395 81.5687 404.928C81.41 404.452 81.3307 403.92 81.3307 403.332C81.3307 402.753 81.4054 402.231 81.5547 401.764C81.7134 401.297 81.9374 400.901 82.2267 400.574C82.516 400.238 82.8707 399.981 83.2907 399.804C83.7107 399.617 84.1867 399.524 84.7187 399.524C85.288 399.524 85.7827 399.622 86.2027 399.818C86.6227 400.014 86.968 400.28 87.2387 400.616C87.5094 400.952 87.71 401.344 87.8407 401.792C87.9807 402.231 88.0507 402.702 88.0507 403.206V403.794H83.1927V403.976C83.1927 404.508 83.342 404.937 83.6407 405.264C83.9394 405.581 84.3827 405.74 84.9707 405.74C85.4187 405.74 85.7827 405.647 86.0627 405.46C86.352 405.273 86.6087 405.035 86.8327 404.746L87.7987 405.824C87.5 406.244 87.0894 406.575 86.5667 406.818C86.0534 407.051 85.456 407.168 84.7747 407.168ZM84.7467 400.868C84.2707 400.868 83.8927 401.027 83.6127 401.344C83.3327 401.661 83.1927 402.072 83.1927 402.576V402.688H86.1887V402.562C86.1887 402.058 86.0627 401.652 85.8107 401.344C85.568 401.027 85.2134 400.868 84.7467 400.868ZM96.1539 407.168C95.6313 407.168 95.1599 407.079 94.7399 406.902C94.3293 406.725 93.9746 406.468 93.6759 406.132C93.3866 405.796 93.1626 405.395 93.0039 404.928C92.8453 404.452 92.7659 403.92 92.7659 403.332C92.7659 402.744 92.8453 402.217 93.0039 401.75C93.1626 401.283 93.3866 400.887 93.6759 400.56C93.9746 400.224 94.3293 399.967 94.7399 399.79C95.1599 399.613 95.6313 399.524 96.1539 399.524C96.6766 399.524 97.1479 399.613 97.5679 399.79C97.9879 399.967 98.3426 400.224 98.6319 400.56C98.9306 400.887 99.1593 401.283 99.3179 401.75C99.4766 402.217 99.5559 402.744 99.5559 403.332C99.5559 403.92 99.4766 404.452 99.3179 404.928C99.1593 405.395 98.9306 405.796 98.6319 406.132C98.3426 406.468 97.9879 406.725 97.5679 406.902C97.1479 407.079 96.6766 407.168 96.1539 407.168ZM96.1539 405.726C96.6299 405.726 97.0033 405.581 97.2739 405.292C97.5446 405.003 97.6799 404.578 97.6799 404.018V402.66C97.6799 402.109 97.5446 401.689 97.2739 401.4C97.0033 401.111 96.6299 400.966 96.1539 400.966C95.6873 400.966 95.3186 401.111 95.0479 401.4C94.7773 401.689 94.6419 402.109 94.6419 402.66V404.018C94.6419 404.578 94.7773 405.003 95.0479 405.292C95.3186 405.581 95.6873 405.726 96.1539 405.726ZM101.587 401.106H100.509V399.692H101.587V398.642C101.587 397.998 101.755 397.503 102.091 397.158C102.436 396.813 102.94 396.64 103.603 396.64H104.877V398.068H103.379V399.692H104.877V401.106H103.379V407H101.587V401.106ZM109.746 399.692H111.538V400.896H111.594C111.724 400.476 111.972 400.145 112.336 399.902C112.7 399.65 113.124 399.524 113.61 399.524C114.543 399.524 115.252 399.855 115.738 400.518C116.232 401.171 116.48 402.109 116.48 403.332C116.48 404.564 116.232 405.511 115.738 406.174C115.252 406.837 114.543 407.168 113.61 407.168C113.124 407.168 112.7 407.042 112.336 406.79C111.981 406.538 111.734 406.202 111.594 405.782H111.538V409.8H109.746V399.692ZM113.036 405.684C113.502 405.684 113.88 405.53 114.17 405.222C114.459 404.914 114.604 404.499 114.604 403.976V402.716C114.604 402.193 114.459 401.778 114.17 401.47C113.88 401.153 113.502 400.994 113.036 400.994C112.606 400.994 112.247 401.101 111.958 401.316C111.678 401.531 111.538 401.815 111.538 402.17V404.494C111.538 404.877 111.678 405.171 111.958 405.376C112.247 405.581 112.606 405.684 113.036 405.684ZM118.3 407V399.692H120.092V401.204H120.162C120.209 401.008 120.279 400.821 120.372 400.644C120.475 400.457 120.606 400.294 120.764 400.154C120.923 400.014 121.11 399.902 121.324 399.818C121.548 399.734 121.805 399.692 122.094 399.692H122.486V401.386H121.926C121.32 401.386 120.862 401.475 120.554 401.652C120.246 401.829 120.092 402.119 120.092 402.52V407H118.3ZM126.786 407.168C126.263 407.168 125.792 407.079 125.372 406.902C124.961 406.725 124.607 406.468 124.308 406.132C124.019 405.796 123.795 405.395 123.636 404.928C123.477 404.452 123.398 403.92 123.398 403.332C123.398 402.744 123.477 402.217 123.636 401.75C123.795 401.283 124.019 400.887 124.308 400.56C124.607 400.224 124.961 399.967 125.372 399.79C125.792 399.613 126.263 399.524 126.786 399.524C127.309 399.524 127.78 399.613 128.2 399.79C128.62 399.967 128.975 400.224 129.264 400.56C129.563 400.887 129.791 401.283 129.95 401.75C130.109 402.217 130.188 402.744 130.188 403.332C130.188 403.92 130.109 404.452 129.95 404.928C129.791 405.395 129.563 405.796 129.264 406.132C128.975 406.468 128.62 406.725 128.2 406.902C127.78 407.079 127.309 407.168 126.786 407.168ZM126.786 405.726C127.262 405.726 127.635 405.581 127.906 405.292C128.177 405.003 128.312 404.578 128.312 404.018V402.66C128.312 402.109 128.177 401.689 127.906 401.4C127.635 401.111 127.262 400.966 126.786 400.966C126.319 400.966 125.951 401.111 125.68 401.4C125.409 401.689 125.274 402.109 125.274 402.66V404.018C125.274 404.578 125.409 405.003 125.68 405.292C125.951 405.581 126.319 405.726 126.786 405.726ZM131.937 396.64H133.729V400.896H133.785C133.915 400.476 134.163 400.145 134.527 399.902C134.891 399.65 135.315 399.524 135.801 399.524C136.734 399.524 137.443 399.855 137.929 400.518C138.423 401.171 138.671 402.109 138.671 403.332C138.671 404.564 138.423 405.511 137.929 406.174C137.443 406.837 136.734 407.168 135.801 407.168C135.315 407.168 134.891 407.042 134.527 406.79C134.172 406.538 133.925 406.202 133.785 405.782H133.729V407H131.937V396.64ZM135.227 405.684C135.693 405.684 136.071 405.53 136.361 405.222C136.65 404.914 136.795 404.499 136.795 403.976V402.716C136.795 402.193 136.65 401.778 136.361 401.47C136.071 401.153 135.693 400.994 135.227 400.994C134.797 400.994 134.438 401.101 134.149 401.316C133.869 401.531 133.729 401.815 133.729 402.17V404.494C133.729 404.877 133.869 405.171 134.149 405.376C134.438 405.581 134.797 405.684 135.227 405.684ZM142.283 407C141.667 407 141.214 406.846 140.925 406.538C140.636 406.23 140.491 405.796 140.491 405.236V396.64H142.283V405.572H143.249V407H142.283ZM147.72 407.168C147.179 407.168 146.694 407.079 146.264 406.902C145.844 406.715 145.485 406.459 145.186 406.132C144.897 405.796 144.673 405.395 144.514 404.928C144.356 404.452 144.276 403.92 144.276 403.332C144.276 402.753 144.351 402.231 144.5 401.764C144.659 401.297 144.883 400.901 145.172 400.574C145.462 400.238 145.816 399.981 146.236 399.804C146.656 399.617 147.132 399.524 147.664 399.524C148.234 399.524 148.728 399.622 149.148 399.818C149.568 400.014 149.914 400.28 150.184 400.616C150.455 400.952 150.656 401.344 150.786 401.792C150.926 402.231 150.996 402.702 150.996 403.206V403.794H146.138V403.976C146.138 404.508 146.288 404.937 146.586 405.264C146.885 405.581 147.328 405.74 147.916 405.74C148.364 405.74 148.728 405.647 149.008 405.46C149.298 405.273 149.554 405.035 149.778 404.746L150.744 405.824C150.446 406.244 150.035 406.575 149.512 406.818C148.999 407.051 148.402 407.168 147.72 407.168ZM147.692 400.868C147.216 400.868 146.838 401.027 146.558 401.344C146.278 401.661 146.138 402.072 146.138 402.576V402.688H149.134V402.562C149.134 402.058 149.008 401.652 148.756 401.344C148.514 401.027 148.159 400.868 147.692 400.868ZM152.733 407V399.692H154.525V400.91H154.595C154.735 400.527 154.959 400.201 155.267 399.93C155.575 399.659 156.004 399.524 156.555 399.524C157.059 399.524 157.493 399.645 157.857 399.888C158.221 400.131 158.492 400.499 158.669 400.994H158.697C158.828 400.583 159.084 400.238 159.467 399.958C159.859 399.669 160.349 399.524 160.937 399.524C161.656 399.524 162.206 399.771 162.589 400.266C162.981 400.761 163.177 401.465 163.177 402.38V407H161.385V402.562C161.385 401.517 160.993 400.994 160.209 400.994C160.032 400.994 159.859 401.022 159.691 401.078C159.532 401.125 159.388 401.199 159.257 401.302C159.136 401.395 159.038 401.517 158.963 401.666C158.888 401.806 158.851 401.974 158.851 402.17V407H157.059V402.562C157.059 401.517 156.667 400.994 155.883 400.994C155.715 400.994 155.547 401.022 155.379 401.078C155.22 401.125 155.076 401.199 154.945 401.302C154.824 401.395 154.721 401.517 154.637 401.666C154.562 401.806 154.525 401.974 154.525 402.17V407H152.733Z"/><path fill="#000" d="M5.866 348.016L14 348.016L14 349.864L5.866 349.864L5.866 352.636L4.228 352.636L4.228 345.244L5.866 345.244L5.866 348.016ZM5.628 342.787C5.628 343.16 5.544 343.431 5.376 343.599C5.208 343.758 4.99333 343.837 4.732 343.837L4.452 343.837C4.19067 343.837 3.976 343.758 3.808 343.599C3.64 343.431 3.556 343.16 3.556 342.787C3.556 342.423 3.64 342.157 3.808 341.989C3.976 341.821 4.19067 341.737 4.452 341.737L4.732 341.737C4.99333 341.737 5.208 341.821 5.376 341.989C5.544 342.157 5.628 342.423 5.628 342.787ZM6.692 343.683L6.692 341.891L14 341.891L14 343.683L6.692 343.683ZM14 339.654L6.692 339.654L6.692 337.862L7.91 337.862L7.91 337.792C7.52733 337.652 7.20067 337.428 6.93 337.12C6.65933 336.812 6.524 336.382 6.524 335.832C6.524 335.328 6.64533 334.894 6.888 334.53C7.13067 334.166 7.49933 333.895 7.994 333.718L7.994 333.69C7.58333 333.559 7.238 333.302 6.958 332.92C6.66867 332.528 6.524 332.038 6.524 331.45C6.524 330.731 6.77133 330.18 7.266 329.798C7.76067 329.406 8.46533 329.21 9.38 329.21L14 329.21L14 331.002L9.562 331.002C8.51667 331.002 7.994 331.394 7.994 332.178C7.994 332.355 8.022 332.528 8.078 332.696C8.12467 332.854 8.19933 332.999 8.302 333.13C8.39533 333.251 8.51667 333.349 8.666 333.424C8.806 333.498 8.974 333.536 9.17 333.536L14 333.536L14 335.328L9.562 335.328C8.51667 335.328 7.994 335.72 7.994 336.504C7.994 336.672 8.022 336.84 8.078 337.008C8.12467 337.166 8.19933 337.311 8.302 337.442C8.39533 337.563 8.51667 337.666 8.666 337.75C8.806 337.824 8.974 337.862 9.17 337.862L14 337.862L14 339.654ZM14.168 324.112C14.168 324.653 14.0793 325.139 13.902 325.568C13.7153 325.988 13.4587 326.347 13.132 326.646C12.796 326.935 12.3947 327.159 11.928 327.318C11.452 327.477 10.92 327.556 10.332 327.556C9.75333 327.556 9.23067 327.481 8.764 327.332C8.29733 327.173 7.90067 326.949 7.574 326.66C7.238 326.371 6.98133 326.016 6.804 325.596C6.61733 325.176 6.524 324.7 6.524 324.168C6.524 323.599 6.622 323.104 6.818 322.684C7.014 322.264 7.28 321.919 7.616 321.648C7.952 321.377 8.344 321.177 8.792 321.046C9.23067 320.906 9.702 320.836 10.206 320.836L10.794 320.836L10.794 325.694L10.976 325.694C11.508 325.694 11.9373 325.545 12.264 325.246C12.5813 324.947 12.74 324.504 12.74 323.916C12.74 323.468 12.6467 323.104 12.46 322.824C12.2733 322.535 12.0353 322.278 11.746 322.054L12.824 321.088C13.244 321.387 13.5753 321.797 13.818 322.32C14.0513 322.833 14.168 323.431 14.168 324.112ZM7.868 324.14C7.868 324.616 8.02667 324.994 8.344 325.274C8.66133 325.554 9.072 325.694 9.576 325.694L9.688 325.694L9.688 322.698L9.562 322.698C9.058 322.698 8.652 322.824 8.344 323.076C8.02667 323.319 7.868 323.673 7.868 324.14ZM14 313.349C14 313.965 13.8413 314.436 13.524 314.763C13.1973 315.08 12.7353 315.239 12.138 315.239L8.12 315.239L8.12 316.317L6.692 316.317L6.692 315.757C6.692 315.486 6.63133 315.304 6.51 315.211C6.37933 315.108 6.188 315.057 5.936 315.057L4.69 315.057L4.69 313.447L6.692 313.447L6.692 311.949L8.12 311.949L8.12 313.447L12.572 313.447L12.572 312.061L14 312.061L14 313.349ZM14 304.858C14 305.25 13.888 305.563 13.664 305.796C13.4307 306.02 13.1227 306.16 12.74 306.216L12.74 306.3C13.216 306.422 13.5753 306.669 13.818 307.042C14.0513 307.416 14.168 307.878 14.168 308.428C14.168 309.175 13.972 309.749 13.58 310.15C13.188 310.552 12.6653 310.752 12.012 310.752C11.256 310.752 10.696 310.482 10.332 309.94C9.95866 309.399 9.772 308.629 9.772 307.63L9.772 306.384L9.24 306.384C8.82933 306.384 8.512 306.492 8.288 306.706C8.064 306.921 7.952 307.266 7.952 307.742C7.952 308.162 8.04533 308.503 8.232 308.764C8.40933 309.016 8.624 309.231 8.876 309.408L7.924 310.472C7.504 310.202 7.168 309.842 6.916 309.394C6.65466 308.946 6.524 308.354 6.524 307.616C6.524 306.627 6.748 305.876 7.196 305.362C7.644 304.849 8.288 304.592 9.128 304.592L12.572 304.592L12.572 303.864L14 303.864L14 304.858ZM12.866 307.826C12.866 307.425 12.7773 307.084 12.6 306.804C12.4227 306.524 12.1613 306.384 11.816 306.384L10.85 306.384L10.85 307.532C10.85 308.466 11.1487 308.932 11.746 308.932L11.984 308.932C12.2827 308.932 12.5067 308.839 12.656 308.652C12.796 308.456 12.866 308.181 12.866 307.826ZM3.64 302.254L3.64 300.462L9.884 300.462L9.884 300.392L8.568 299.426L6.692 297.788L6.692 295.758L9.52 298.278L14 295.492L14 297.62L10.724 299.496L11.774 300.462L14 300.462L14 302.254L3.64 302.254ZM14.168 291.621C14.168 292.162 14.0793 292.647 13.902 293.077C13.7153 293.497 13.4587 293.856 13.132 294.155C12.796 294.444 12.3947 294.668 11.928 294.827C11.452 294.985 10.92 295.065 10.332 295.065C9.75333 295.065 9.23066 294.99 8.764 294.841C8.29733 294.682 7.90066 294.458 7.574 294.169C7.238 293.879 6.98133 293.525 6.804 293.105C6.61733 292.685 6.524 292.209 6.524 291.677C6.524 291.107 6.622 290.613 6.818 290.193C7.014 289.773 7.28 289.427 7.616 289.157C7.952 288.886 8.344 288.685 8.792 288.555C9.23066 288.415 9.702 288.345 10.206 288.345L10.794 288.345L10.794 293.203L10.976 293.203C11.508 293.203 11.9373 293.053 12.264 292.755C12.5813 292.456 12.74 292.013 12.74 291.425C12.74 290.977 12.6467 290.613 12.46 290.333C12.2733 290.043 12.0353 289.787 11.746 289.563L12.824 288.597C13.244 288.895 13.5753 289.306 13.818 289.829C14.0513 290.342 14.168 290.939 14.168 291.621ZM7.868 291.649C7.868 292.125 8.02666 292.503 8.344 292.783C8.66133 293.063 9.072 293.203 9.576 293.203L9.688 293.203L9.688 290.207L9.562 290.207C9.058 290.207 8.652 290.333 8.344 290.585C8.02666 290.827 7.868 291.182 7.868 291.649ZM14 286.608L6.692 286.608L6.692 284.816L7.91 284.816L7.91 284.746C7.518 284.597 7.19133 284.363 6.93 284.046C6.65933 283.719 6.524 283.271 6.524 282.702C6.524 281.946 6.77133 281.367 7.266 280.966C7.76066 280.565 8.46533 280.364 9.38 280.364L14 280.364L14 282.156L9.562 282.156C9.03933 282.156 8.64733 282.249 8.386 282.436C8.12466 282.623 7.994 282.931 7.994 283.36C7.994 283.547 8.022 283.729 8.078 283.906C8.12466 284.074 8.19933 284.228 8.302 284.368C8.39533 284.499 8.51666 284.606 8.666 284.69C8.806 284.774 8.974 284.816 9.17 284.816L14 284.816L14 286.608ZM14 272.467C14 273.083 13.8413 273.554 13.524 273.881C13.1973 274.198 12.7353 274.357 12.138 274.357L8.12 274.357L8.12 275.435L6.692 275.435L6.692 274.875C6.692 274.604 6.63133 274.422 6.51 274.329C6.37933 274.226 6.188 274.175 5.936 274.175L4.69 274.175L4.69 272.565L6.692 272.565L6.692 271.067L8.12 271.067L8.12 272.565L12.572 272.565L12.572 271.179L14 271.179L14 272.467ZM14.168 266.509C14.168 267.032 14.0793 267.503 13.902 267.923C13.7247 268.334 13.468 268.689 13.132 268.987C12.796 269.277 12.3947 269.501 11.928 269.659C11.452 269.818 10.92 269.897 10.332 269.897C9.744 269.897 9.21666 269.818 8.75 269.659C8.28333 269.501 7.88666 269.277 7.56 268.987C7.224 268.689 6.96733 268.334 6.79 267.923C6.61266 267.503 6.524 267.032 6.524 266.509C6.524 265.987 6.61266 265.515 6.79 265.095C6.96733 264.675 7.224 264.321 7.56 264.031C7.88666 263.733 8.28333 263.504 8.75 263.345C9.21666 263.187 9.744 263.107 10.332 263.107C10.92 263.107 11.452 263.187 11.928 263.345C12.3947 263.504 12.796 263.733 13.132 264.031C13.468 264.321 13.7247 264.675 13.902 265.095C14.0793 265.515 14.168 265.987 14.168 266.509ZM12.726 266.509C12.726 266.033 12.5813 265.66 12.292 265.389C12.0027 265.119 11.578 264.983 11.018 264.983L9.66 264.983C9.10933 264.983 8.68933 265.119 8.4 265.389C8.11066 265.66 7.966 266.033 7.966 266.509C7.966 266.976 8.11066 267.345 8.4 267.615C8.68933 267.886 9.10933 268.021 9.66 268.021L11.018 268.021C11.578 268.021 12.0027 267.886 12.292 267.615C12.5813 267.345 12.726 266.976 12.726 266.509ZM14.168 255.006C14.168 255.547 14.0793 256.028 13.902 256.448C13.7247 256.868 13.468 257.223 13.132 257.512C12.796 257.792 12.3947 258.007 11.928 258.156C11.452 258.305 10.92 258.38 10.332 258.38C9.744 258.38 9.21666 258.305 8.75 258.156C8.28333 258.007 7.88666 257.792 7.56 257.512C7.224 257.223 6.96733 256.868 6.79 256.448C6.61266 256.028 6.524 255.547 6.524 255.006C6.524 254.269 6.68733 253.662 7.014 253.186C7.34066 252.701 7.79333 252.351 8.372 252.136L9.03 253.606C8.722 253.69 8.47 253.849 8.274 254.082C8.06866 254.306 7.966 254.614 7.966 255.006C7.966 255.51 8.12466 255.888 8.442 256.14C8.75933 256.383 9.17466 256.504 9.688 256.504L11.018 256.504C11.5313 256.504 11.9467 256.383 12.264 256.14C12.572 255.888 12.726 255.51 12.726 255.006C12.726 254.577 12.6187 254.245 12.404 254.012C12.18 253.779 11.9047 253.597 11.578 253.466L12.236 252.094C12.88 252.337 13.3653 252.705 13.692 253.2C14.0093 253.695 14.168 254.297 14.168 255.006ZM14.168 247.723C14.168 248.245 14.0793 248.717 13.902 249.137C13.7247 249.547 13.468 249.902 13.132 250.201C12.796 250.49 12.3947 250.714 11.928 250.873C11.452 251.031 10.92 251.111 10.332 251.111C9.744 251.111 9.21666 251.031 8.75 250.873C8.28333 250.714 7.88666 250.49 7.56 250.201C7.224 249.902 6.96733 249.547 6.78999 249.137C6.61266 248.717 6.52399 248.245 6.52399 247.723C6.52399 247.2 6.61266 246.729 6.78999 246.309C6.96733 245.889 7.224 245.534 7.56 245.245C7.88666 244.946 8.28333 244.717 8.74999 244.559C9.21666 244.4 9.74399 244.321 10.332 244.321C10.92 244.321 11.452 244.4 11.928 244.559C12.3947 244.717 12.796 244.946 13.132 245.245C13.468 245.534 13.7247 245.889 13.902 246.309C14.0793 246.729 14.168 247.2 14.168 247.723ZM12.726 247.723C12.726 247.247 12.5813 246.873 12.292 246.603C12.0027 246.332 11.578 246.197 11.018 246.197L9.66 246.197C9.10933 246.197 8.68933 246.332 8.4 246.603C8.11066 246.873 7.966 247.247 7.966 247.723C7.966 248.189 8.11066 248.558 8.4 248.829C8.68933 249.099 9.10933 249.235 9.66 249.235L11.018 249.235C11.578 249.235 12.0027 249.099 12.292 248.829C12.5813 248.558 12.726 248.189 12.726 247.723ZM14 242.572L6.69199 242.572L6.69199 240.78L7.90999 240.78L7.90999 240.71C7.52733 240.57 7.20066 240.346 6.93 240.038C6.65933 239.73 6.52399 239.301 6.52399 238.75C6.52399 238.246 6.64533 237.812 6.88799 237.448C7.13066 237.084 7.49933 236.813 7.99399 236.636L7.99399 236.608C7.58333 236.477 7.23799 236.221 6.95799 235.838C6.66866 235.446 6.52399 234.956 6.52399 234.368C6.52399 233.649 6.77133 233.099 7.26599 232.716C7.76066 232.324 8.46533 232.128 9.37999 232.128L14 232.128L14 233.92L9.56199 233.92C8.51666 233.92 7.99399 234.312 7.99399 235.096C7.99399 235.273 8.02199 235.446 8.07799 235.614C8.12466 235.773 8.19933 235.917 8.30199 236.048C8.39533 236.169 8.51666 236.267 8.66599 236.342C8.80599 236.417 8.97399 236.454 9.16999 236.454L14 236.454L14 238.246L9.56199 238.246C8.51666 238.246 7.99399 238.638 7.99399 239.422C7.99399 239.59 8.02199 239.758 8.07799 239.926C8.12466 240.085 8.19933 240.229 8.302 240.36C8.39533 240.481 8.51666 240.584 8.66599 240.668C8.80599 240.743 8.97399 240.78 9.16999 240.78L14 240.78L14 242.572ZM6.69199 229.984L6.69199 228.192L7.89599 228.192L7.89599 228.136C7.47599 228.006 7.14466 227.758 6.90199 227.394C6.64999 227.03 6.52399 226.606 6.52399 226.12C6.52399 225.187 6.85533 224.478 7.51799 223.992C8.17133 223.498 9.10933 223.25 10.332 223.25C11.564 223.25 12.5113 223.498 13.174 223.992C13.8367 224.478 14.168 225.187 14.168 226.12C14.168 226.606 14.042 227.03 13.79 227.394C13.538 227.749 13.202 227.996 12.782 228.136L12.782 228.192L16.8 228.192L16.8 229.984L6.69199 229.984ZM12.684 226.694C12.684 226.228 12.53 225.85 12.222 225.56C11.914 225.271 11.4987 225.126 10.976 225.126L9.71599 225.126C9.19333 225.126 8.77799 225.271 8.46999 225.56C8.15266 225.85 7.99399 226.228 7.99399 226.694C7.99399 227.124 8.10133 227.483 8.31599 227.772C8.53066 228.052 8.81533 228.192 9.16999 228.192L11.494 228.192C11.8767 228.192 12.1707 228.052 12.376 227.772C12.5813 227.483 12.684 227.124 12.684 226.694ZM12.782 217.062L12.782 217.132C12.9687 217.197 13.146 217.286 13.314 217.398C13.4727 217.5 13.6173 217.636 13.748 217.804C13.8787 217.962 13.9813 218.158 14.056 218.392C14.1307 218.616 14.168 218.877 14.168 219.176C14.168 219.932 13.9207 220.51 13.426 220.912C12.9313 221.313 12.2267 221.514 11.312 221.514L6.69199 221.514L6.69199 219.722L11.13 219.722C11.634 219.722 12.0213 219.624 12.292 219.428C12.5533 219.232 12.684 218.919 12.684 218.49C12.684 218.312 12.6607 218.14 12.614 217.972C12.5673 217.794 12.4973 217.64 12.404 217.51C12.3013 217.379 12.18 217.272 12.04 217.188C11.8907 217.104 11.718 217.062 11.522 217.062L6.69199 217.062L6.69199 215.27L14 215.27L14 217.062L12.782 217.062ZM14 210.757C14 211.373 13.8413 211.845 13.524 212.171C13.1973 212.489 12.7353 212.647 12.138 212.647L8.11999 212.647L8.11999 213.725L6.69199 213.725L6.69199 213.165C6.69199 212.895 6.63133 212.713 6.50999 212.619C6.37933 212.517 6.18799 212.465 5.93599 212.465L4.68999 212.465L4.68999 210.855L6.69199 210.855L6.69199 209.357L8.11999 209.357L8.11999 210.855L12.572 210.855L12.572 209.469L14 209.469L14 210.757ZM14.168 204.744C14.168 205.285 14.0793 205.77 13.902 206.2C13.7153 206.62 13.4587 206.979 13.132 207.278C12.796 207.567 12.3947 207.791 11.928 207.95C11.452 208.108 10.92 208.188 10.332 208.188C9.75333 208.188 9.23066 208.113 8.76399 207.964C8.29733 207.805 7.90066 207.581 7.57399 207.292C7.23799 207.002 6.98133 206.648 6.80399 206.228C6.61733 205.808 6.52399 205.332 6.52399 204.8C6.52399 204.23 6.62199 203.736 6.81799 203.316C7.01399 202.896 7.27999 202.55 7.61599 202.28C7.95199 202.009 8.34399 201.808 8.79199 201.678C9.23066 201.538 9.70199 201.468 10.206 201.468L10.794 201.468L10.794 206.326L10.976 206.326C11.508 206.326 11.9373 206.176 12.264 205.878C12.5813 205.579 12.74 205.136 12.74 204.548C12.74 204.1 12.6467 203.736 12.46 203.456C12.2733 203.166 12.0353 202.91 11.746 202.686L12.824 201.72C13.244 202.018 13.5753 202.429 13.818 202.952C14.0513 203.465 14.168 204.062 14.168 204.744ZM7.86799 204.772C7.86799 205.248 8.02666 205.626 8.34399 205.906C8.66133 206.186 9.07199 206.326 9.57599 206.326L9.68799 206.326L9.68799 203.33L9.56199 203.33C9.05799 203.33 8.65199 203.456 8.34399 203.708C8.02666 203.95 7.86799 204.305 7.86799 204.772Z"/><path fill="#6929C4" d="M299.116 33V24.624H300.124V32.112H303.688V33H299.116ZM305.832 25.356C305.624 25.356 305.472 25.308 305.376 25.212C305.288 25.108 305.244 24.976 305.244 24.816V24.66C305.244 24.5 305.288 24.372 305.376 24.276C305.472 24.172 305.624 24.12 305.832 24.12C306.04 24.12 306.188 24.172 306.276 24.276C306.372 24.372 306.42 24.5 306.42 24.66V24.816C306.42 24.976 306.372 25.108 306.276 25.212C306.188 25.308 306.04 25.356 305.832 25.356ZM305.352 26.808H306.312V33H305.352V26.808ZM308.672 33V26.808H309.632V27.816H309.68C309.832 27.464 310.044 27.184 310.316 26.976C310.596 26.768 310.968 26.664 311.432 26.664C312.072 26.664 312.576 26.872 312.944 27.288C313.32 27.696 313.508 28.276 313.508 29.028V33H312.548V29.196C312.548 28.084 312.08 27.528 311.144 27.528C310.952 27.528 310.764 27.552 310.58 27.6C310.404 27.648 310.244 27.72 310.1 27.816C309.956 27.912 309.84 28.036 309.752 28.188C309.672 28.332 309.632 28.504 309.632 28.704V33H308.672ZM318.14 33.144C317.716 33.144 317.332 33.068 316.988 32.916C316.652 32.764 316.36 32.548 316.112 32.268C315.872 31.98 315.684 31.64 315.548 31.248C315.42 30.848 315.356 30.4 315.356 29.904C315.356 29.416 315.42 28.972 315.548 28.572C315.684 28.172 315.872 27.832 316.112 27.552C316.36 27.264 316.652 27.044 316.988 26.892C317.332 26.74 317.716 26.664 318.14 26.664C318.556 26.664 318.928 26.74 319.256 26.892C319.584 27.044 319.864 27.256 320.096 27.528C320.328 27.792 320.504 28.108 320.624 28.476C320.752 28.844 320.816 29.248 320.816 29.688V30.144H316.364V30.432C316.364 30.696 316.404 30.944 316.484 31.176C316.572 31.4 316.692 31.596 316.844 31.764C317.004 31.932 317.196 32.064 317.42 32.16C317.652 32.256 317.912 32.304 318.2 32.304C318.592 32.304 318.932 32.212 319.22 32.028C319.516 31.844 319.744 31.58 319.904 31.236L320.588 31.728C320.388 32.152 320.076 32.496 319.652 32.76C319.228 33.016 318.724 33.144 318.14 33.144ZM318.14 27.468C317.876 27.468 317.636 27.516 317.42 27.612C317.204 27.7 317.016 27.828 316.856 27.996C316.704 28.164 316.584 28.364 316.496 28.596C316.408 28.82 316.364 29.068 316.364 29.34V29.424H319.784V29.292C319.784 28.74 319.632 28.3 319.328 27.972C319.032 27.636 318.636 27.468 318.14 27.468ZM327.218 33C326.858 33 326.598 32.904 326.438 32.712C326.286 32.52 326.19 32.28 326.15 31.992H326.09C325.954 32.376 325.73 32.664 325.418 32.856C325.106 33.048 324.734 33.144 324.302 33.144C323.646 33.144 323.134 32.976 322.766 32.64C322.406 32.304 322.226 31.848 322.226 31.272C322.226 30.688 322.438 30.24 322.862 29.928C323.294 29.616 323.962 29.46 324.866 29.46H326.09V28.848C326.09 28.408 325.97 28.072 325.73 27.84C325.49 27.608 325.122 27.492 324.626 27.492C324.25 27.492 323.934 27.576 323.678 27.744C323.43 27.912 323.222 28.136 323.054 28.416L322.478 27.876C322.646 27.54 322.914 27.256 323.282 27.024C323.65 26.784 324.114 26.664 324.674 26.664C325.426 26.664 326.01 26.848 326.426 27.216C326.842 27.584 327.05 28.096 327.05 28.752V32.16H327.758V33H327.218ZM324.458 32.328C324.698 32.328 324.918 32.3 325.118 32.244C325.318 32.188 325.49 32.108 325.634 32.004C325.778 31.9 325.89 31.78 325.97 31.644C326.05 31.508 326.09 31.36 326.09 31.2V30.18H324.818C324.266 30.18 323.862 30.26 323.606 30.42C323.358 30.58 323.234 30.812 323.234 31.116V31.368C323.234 31.672 323.342 31.908 323.558 32.076C323.782 32.244 324.082 32.328 324.458 32.328ZM329.448 33V26.808H330.408V27.948H330.468C330.58 27.652 330.78 27.388 331.068 27.156C331.356 26.924 331.752 26.808 332.256 26.808H332.628V27.768H332.064C331.544 27.768 331.136 27.868 330.84 28.068C330.552 28.26 330.408 28.504 330.408 28.8V33H329.448ZM338.698 33C338.362 33 338.106 32.908 337.93 32.724C337.762 32.532 337.678 32.284 337.678 31.98V27.648H336.658V26.808H337.234C337.442 26.808 337.582 26.768 337.654 26.688C337.734 26.6 337.774 26.452 337.774 26.244V25.092H338.638V26.808H339.994V27.648H338.638V32.16H339.898V33H338.698ZM342.337 25.356C342.129 25.356 341.977 25.308 341.881 25.212C341.793 25.108 341.749 24.976 341.749 24.816V24.66C341.749 24.5 341.793 24.372 341.881 24.276C341.977 24.172 342.129 24.12 342.337 24.12C342.545 24.12 342.693 24.172 342.781 24.276C342.877 24.372 342.925 24.5 342.925 24.66V24.816C342.925 24.976 342.877 25.108 342.781 25.212C342.693 25.308 342.545 25.356 342.337 25.356ZM341.857 26.808H342.817V33H341.857V26.808ZM345.177 33V26.808H346.137V27.816H346.185C346.257 27.656 346.337 27.508 346.425 27.372C346.521 27.228 346.633 27.104 346.761 27C346.897 26.896 347.053 26.816 347.229 26.76C347.405 26.696 347.613 26.664 347.853 26.664C348.261 26.664 348.637 26.764 348.981 26.964C349.325 27.156 349.581 27.476 349.749 27.924H349.773C349.885 27.588 350.093 27.296 350.397 27.048C350.709 26.792 351.129 26.664 351.657 26.664C352.289 26.664 352.781 26.872 353.133 27.288C353.493 27.696 353.673 28.276 353.673 29.028V33H352.713V29.196C352.713 28.644 352.605 28.228 352.389 27.948C352.173 27.668 351.829 27.528 351.357 27.528C351.165 27.528 350.981 27.552 350.805 27.6C350.637 27.648 350.485 27.72 350.349 27.816C350.213 27.912 350.105 28.036 350.025 28.188C349.945 28.332 349.905 28.504 349.905 28.704V33H348.945V29.196C348.945 28.644 348.837 28.228 348.621 27.948C348.405 27.668 348.069 27.528 347.613 27.528C347.421 27.528 347.237 27.552 347.061 27.6C346.885 27.648 346.729 27.72 346.593 27.816C346.457 27.912 346.345 28.036 346.257 28.188C346.177 28.332 346.137 28.504 346.137 28.704V33H345.177ZM358.302 33.144C357.878 33.144 357.494 33.068 357.15 32.916C356.814 32.764 356.522 32.548 356.274 32.268C356.034 31.98 355.846 31.64 355.71 31.248C355.582 30.848 355.518 30.4 355.518 29.904C355.518 29.416 355.582 28.972 355.71 28.572C355.846 28.172 356.034 27.832 356.274 27.552C356.522 27.264 356.814 27.044 357.15 26.892C357.494 26.74 357.878 26.664 358.302 26.664C358.718 26.664 359.09 26.74 359.418 26.892C359.746 27.044 360.026 27.256 360.258 27.528C360.49 27.792 360.666 28.108 360.786 28.476C360.914 28.844 360.978 29.248 360.978 29.688V30.144H356.526V30.432C356.526 30.696 356.566 30.944 356.646 31.176C356.734 31.4 356.854 31.596 357.006 31.764C357.166 31.932 357.358 32.064 357.582 32.16C357.814 32.256 358.074 32.304 358.362 32.304C358.754 32.304 359.094 32.212 359.382 32.028C359.678 31.844 359.906 31.58 360.066 31.236L360.75 31.728C360.55 32.152 360.238 32.496 359.814 32.76C359.39 33.016 358.886 33.144 358.302 33.144ZM358.302 27.468C358.038 27.468 357.798 27.516 357.582 27.612C357.366 27.7 357.178 27.828 357.018 27.996C356.866 28.164 356.746 28.364 356.658 28.596C356.57 28.82 356.526 29.068 356.526 29.34V29.424H359.946V29.292C359.946 28.74 359.794 28.3 359.49 27.972C359.194 27.636 358.798 27.468 358.302 27.468Z"/><line x1="122.5" x2="122.5" y2="384" stroke="#DDE1E6"/><line x1="218.5" x2="218.5" y2="384" stroke="#DDE1E6"/><line x1="314.5" x2="314.5" y2="384" stroke="#DDE1E6"/><rect width="383" height="383" x="26.5" y=".5" stroke="#DDE1E6"/><line x1="26.646" x2="386.646" y1="384.646" y2="24.646" stroke="#6929C4"/><line x1="26" x2="394" y1="343.5" y2="343.5" stroke="#1192E8"/><path fill="#6929C4" d="M387.121 25.9497L388.889 22.0607L385 23.8284L387.121 25.9497Z"/><g clip-path="url(#clip0)"><path fill="#1192E8" d="M394 345L398 343.5L394 342V345Z"/></g><path fill="#1192E8" d="M302.068 320.144C301.004 320.144 300.176 319.784 299.584 319.064C298.992 318.336 298.696 317.268 298.696 315.86C298.696 314.452 298.992 313.372 299.584 312.62C300.176 311.86 301.004 311.48 302.068 311.48C302.772 311.48 303.36 311.64 303.832 311.96C304.312 312.28 304.684 312.732 304.948 313.316L304.132 313.808C303.964 313.376 303.708 313.032 303.364 312.776C303.02 312.512 302.588 312.38 302.068 312.38C301.708 312.38 301.384 312.448 301.096 312.584C300.816 312.72 300.576 312.916 300.376 313.172C300.184 313.42 300.036 313.72 299.932 314.072C299.828 314.416 299.776 314.804 299.776 315.236V316.484C299.776 317.348 299.976 318.024 300.376 318.512C300.776 319 301.34 319.244 302.068 319.244C302.604 319.244 303.052 319.108 303.412 318.836C303.772 318.556 304.036 318.188 304.204 317.732L305.008 318.236C304.744 318.828 304.364 319.296 303.868 319.64C303.372 319.976 302.772 320.144 302.068 320.144ZM309.133 320.144C308.717 320.144 308.337 320.068 307.993 319.916C307.649 319.764 307.353 319.548 307.105 319.268C306.865 318.98 306.677 318.64 306.541 318.248C306.405 317.848 306.337 317.4 306.337 316.904C306.337 316.416 306.405 315.972 306.541 315.572C306.677 315.172 306.865 314.832 307.105 314.552C307.353 314.264 307.649 314.044 307.993 313.892C308.337 313.74 308.717 313.664 309.133 313.664C309.549 313.664 309.925 313.74 310.261 313.892C310.605 314.044 310.901 314.264 311.149 314.552C311.397 314.832 311.589 315.172 311.725 315.572C311.861 315.972 311.929 316.416 311.929 316.904C311.929 317.4 311.861 317.848 311.725 318.248C311.589 318.64 311.397 318.98 311.149 319.268C310.901 319.548 310.605 319.764 310.261 319.916C309.925 320.068 309.549 320.144 309.133 320.144ZM309.133 319.292C309.653 319.292 310.077 319.132 310.405 318.812C310.733 318.492 310.897 318.004 310.897 317.348V316.46C310.897 315.804 310.733 315.316 310.405 314.996C310.077 314.676 309.653 314.516 309.133 314.516C308.613 314.516 308.189 314.676 307.861 314.996C307.533 315.316 307.369 315.804 307.369 316.46V317.348C307.369 318.004 307.533 318.492 307.861 318.812C308.189 319.132 308.613 319.292 309.133 319.292ZM313.828 320V313.808H314.788V314.816H314.836C314.988 314.464 315.2 314.184 315.472 313.976C315.752 313.768 316.124 313.664 316.588 313.664C317.228 313.664 317.732 313.872 318.1 314.288C318.476 314.696 318.664 315.276 318.664 316.028V320H317.704V316.196C317.704 315.084 317.236 314.528 316.3 314.528C316.108 314.528 315.92 314.552 315.736 314.6C315.56 314.648 315.4 314.72 315.256 314.816C315.112 314.912 314.996 315.036 314.908 315.188C314.828 315.332 314.788 315.504 314.788 315.704V320H313.828ZM322.828 320.144C322.252 320.144 321.768 320.036 321.376 319.82C320.992 319.596 320.66 319.3 320.38 318.932L321.064 318.38C321.304 318.684 321.572 318.92 321.868 319.088C322.164 319.248 322.508 319.328 322.9 319.328C323.308 319.328 323.624 319.24 323.848 319.064C324.08 318.888 324.196 318.64 324.196 318.32C324.196 318.08 324.116 317.876 323.956 317.708C323.804 317.532 323.524 317.412 323.116 317.348L322.624 317.276C322.336 317.236 322.072 317.176 321.832 317.096C321.592 317.008 321.38 316.896 321.196 316.76C321.02 316.616 320.88 316.44 320.776 316.232C320.68 316.024 320.632 315.776 320.632 315.488C320.632 315.184 320.688 314.92 320.8 314.696C320.912 314.464 321.064 314.272 321.256 314.12C321.456 313.968 321.692 313.856 321.964 313.784C322.236 313.704 322.528 313.664 322.84 313.664C323.344 313.664 323.764 313.752 324.1 313.928C324.444 314.104 324.744 314.348 325 314.66L324.364 315.236C324.228 315.044 324.028 314.872 323.764 314.72C323.5 314.56 323.168 314.48 322.768 314.48C322.368 314.48 322.064 314.568 321.856 314.744C321.656 314.912 321.556 315.144 321.556 315.44C321.556 315.744 321.656 315.964 321.856 316.1C322.064 316.236 322.36 316.336 322.744 316.4L323.224 316.472C323.912 316.576 324.4 316.776 324.688 317.072C324.976 317.36 325.12 317.74 325.12 318.212C325.12 318.812 324.916 319.284 324.508 319.628C324.1 319.972 323.54 320.144 322.828 320.144ZM328.422 320C328.086 320 327.83 319.908 327.654 319.724C327.486 319.532 327.402 319.284 327.402 318.98V314.648H326.382V313.808H326.958C327.166 313.808 327.306 313.768 327.378 313.688C327.458 313.6 327.498 313.452 327.498 313.244V312.092H328.362V313.808H329.718V314.648H328.362V319.16H329.622V320H328.422ZM336.081 320C335.721 320 335.461 319.904 335.301 319.712C335.149 319.52 335.053 319.28 335.013 318.992H334.953C334.817 319.376 334.593 319.664 334.281 319.856C333.969 320.048 333.597 320.144 333.165 320.144C332.509 320.144 331.997 319.976 331.629 319.64C331.269 319.304 331.089 318.848 331.089 318.272C331.089 317.688 331.301 317.24 331.725 316.928C332.157 316.616 332.825 316.46 333.729 316.46H334.953V315.848C334.953 315.408 334.833 315.072 334.593 314.84C334.353 314.608 333.985 314.492 333.489 314.492C333.113 314.492 332.797 314.576 332.541 314.744C332.293 314.912 332.085 315.136 331.917 315.416L331.341 314.876C331.509 314.54 331.777 314.256 332.145 314.024C332.513 313.784 332.977 313.664 333.537 313.664C334.289 313.664 334.873 313.848 335.289 314.216C335.705 314.584 335.913 315.096 335.913 315.752V319.16H336.621V320H336.081ZM333.321 319.328C333.561 319.328 333.781 319.3 333.981 319.244C334.181 319.188 334.353 319.108 334.497 319.004C334.641 318.9 334.753 318.78 334.833 318.644C334.913 318.508 334.953 318.36 334.953 318.2V317.18H333.681C333.129 317.18 332.725 317.26 332.469 317.42C332.221 317.58 332.097 317.812 332.097 318.116V318.368C332.097 318.672 332.205 318.908 332.421 319.076C332.645 319.244 332.945 319.328 333.321 319.328ZM338.311 320V313.808H339.271V314.816H339.319C339.471 314.464 339.683 314.184 339.955 313.976C340.235 313.768 340.607 313.664 341.071 313.664C341.711 313.664 342.215 313.872 342.583 314.288C342.959 314.696 343.147 315.276 343.147 316.028V320H342.187V316.196C342.187 315.084 341.719 314.528 340.783 314.528C340.591 314.528 340.403 314.552 340.219 314.6C340.043 314.648 339.883 314.72 339.739 314.816C339.595 314.912 339.479 315.036 339.391 315.188C339.311 315.332 339.271 315.504 339.271 315.704V320H338.311ZM346.819 320C346.483 320 346.227 319.908 346.051 319.724C345.883 319.532 345.799 319.284 345.799 318.98V314.648H344.779V313.808H345.355C345.563 313.808 345.703 313.768 345.775 313.688C345.855 313.6 345.895 313.452 345.895 313.244V312.092H346.759V313.808H348.115V314.648H346.759V319.16H348.019V320H346.819ZM354.502 320C354.166 320 353.91 319.908 353.734 319.724C353.566 319.532 353.482 319.284 353.482 318.98V314.648H352.462V313.808H353.038C353.246 313.808 353.386 313.768 353.458 313.688C353.538 313.6 353.578 313.452 353.578 313.244V312.092H354.442V313.808H355.798V314.648H354.442V319.16H355.702V320H354.502ZM358.141 312.356C357.933 312.356 357.781 312.308 357.685 312.212C357.597 312.108 357.553 311.976 357.553 311.816V311.66C357.553 311.5 357.597 311.372 357.685 311.276C357.781 311.172 357.933 311.12 358.141 311.12C358.349 311.12 358.497 311.172 358.585 311.276C358.681 311.372 358.729 311.5 358.729 311.66V311.816C358.729 311.976 358.681 312.108 358.585 312.212C358.497 312.308 358.349 312.356 358.141 312.356ZM357.661 313.808H358.621V320H357.661V313.808ZM360.981 320V313.808H361.941V314.816H361.989C362.061 314.656 362.141 314.508 362.229 314.372C362.325 314.228 362.437 314.104 362.565 314C362.701 313.896 362.857 313.816 363.033 313.76C363.209 313.696 363.417 313.664 363.657 313.664C364.065 313.664 364.441 313.764 364.785 313.964C365.129 314.156 365.385 314.476 365.553 314.924H365.577C365.689 314.588 365.897 314.296 366.201 314.048C366.513 313.792 366.933 313.664 367.461 313.664C368.093 313.664 368.585 313.872 368.937 314.288C369.297 314.696 369.477 315.276 369.477 316.028V320H368.517V316.196C368.517 315.644 368.409 315.228 368.193 314.948C367.977 314.668 367.633 314.528 367.161 314.528C366.969 314.528 366.785 314.552 366.609 314.6C366.441 314.648 366.289 314.72 366.153 314.816C366.017 314.912 365.909 315.036 365.829 315.188C365.749 315.332 365.709 315.504 365.709 315.704V320H364.749V316.196C364.749 315.644 364.641 315.228 364.425 314.948C364.209 314.668 363.873 314.528 363.417 314.528C363.225 314.528 363.041 314.552 362.865 314.6C362.689 314.648 362.533 314.72 362.397 314.816C362.261 314.912 362.149 315.036 362.061 315.188C361.981 315.332 361.941 315.504 361.941 315.704V320H360.981ZM374.106 320.144C373.682 320.144 373.298 320.068 372.954 319.916C372.618 319.764 372.326 319.548 372.078 319.268C371.838 318.98 371.65 318.64 371.514 318.248C371.386 317.848 371.322 317.4 371.322 316.904C371.322 316.416 371.386 315.972 371.514 315.572C371.65 315.172 371.838 314.832 372.078 314.552C372.326 314.264 372.618 314.044 372.954 313.892C373.298 313.74 373.682 313.664 374.106 313.664C374.522 313.664 374.894 313.74 375.222 313.892C375.55 314.044 375.83 314.256 376.062 314.528C376.294 314.792 376.47 315.108 376.59 315.476C376.718 315.844 376.782 316.248 376.782 316.688V317.144H372.33V317.432C372.33 317.696 372.37 317.944 372.45 318.176C372.538 318.4 372.658 318.596 372.81 318.764C372.97 318.932 373.162 319.064 373.386 319.16C373.618 319.256 373.878 319.304 374.166 319.304C374.558 319.304 374.898 319.212 375.186 319.028C375.482 318.844 375.71 318.58 375.87 318.236L376.554 318.728C376.354 319.152 376.042 319.496 375.618 319.76C375.194 320.016 374.69 320.144 374.106 320.144ZM374.106 314.468C373.842 314.468 373.602 314.516 373.386 314.612C373.17 314.7 372.982 314.828 372.822 314.996C372.67 315.164 372.55 315.364 372.462 315.596C372.374 315.82 372.33 316.068 372.33 316.34V316.424H375.75V316.292C375.75 315.74 375.598 315.3 375.294 314.972C374.998 314.636 374.602 314.468 374.106 314.468Z"/><defs><clipPath id="clip0"><rect width="3" height="4" fill="#fff" transform="translate(398 342) rotate(90)"/></clipPath></defs></svg>