<svg xmlns="http://www.w3.org/2000/svg" width="576" height="172" fill="none" viewBox="0 0 576 172"><rect width="127" height="170" x="448" y="1" fill="#F2F4F8" opacity=".4"/><rect width="127" height="170" x="1" y="1" fill="#F2F4F8" opacity=".4"/><path fill="#343A3F" d="M18.02 63V62.124H20.42V55.368H20.336L18.224 57.336L17.636 56.7L19.856 54.624H21.428V62.124H23.636V63H18.02ZM27.7553 58.176C28.3393 58.176 28.7753 58.048 29.0633 57.792C29.3593 57.528 29.5073 57.192 29.5073 56.784V56.7C29.5073 56.252 29.3633 55.916 29.0753 55.692C28.7953 55.468 28.4273 55.356 27.9713 55.356C27.5233 55.356 27.1593 55.456 26.8793 55.656C26.6073 55.848 26.3833 56.104 26.2073 56.424L25.4513 55.848C25.5553 55.68 25.6833 55.516 25.8353 55.356C25.9873 55.188 26.1633 55.04 26.3633 54.912C26.5713 54.784 26.8073 54.68 27.0713 54.6C27.3433 54.52 27.6513 54.48 27.9953 54.48C28.3553 54.48 28.6913 54.528 29.0033 54.624C29.3153 54.712 29.5873 54.848 29.8193 55.032C30.0513 55.208 30.2313 55.428 30.3593 55.692C30.4953 55.956 30.5633 56.256 30.5633 56.592C30.5633 56.864 30.5193 57.108 30.4313 57.324C30.3513 57.54 30.2353 57.728 30.0833 57.888C29.9393 58.048 29.7673 58.184 29.5673 58.296C29.3673 58.408 29.1553 58.492 28.9313 58.548V58.596C29.1633 58.644 29.3873 58.724 29.6033 58.836C29.8193 58.94 30.0113 59.08 30.1793 59.256C30.3473 59.424 30.4793 59.632 30.5753 59.88C30.6793 60.12 30.7313 60.396 30.7313 60.708C30.7313 61.068 30.6593 61.4 30.5153 61.704C30.3793 62 30.1833 62.256 29.9273 62.472C29.6793 62.68 29.3753 62.844 29.0153 62.964C28.6633 63.084 28.2713 63.144 27.8393 63.144C27.4713 63.144 27.1433 63.104 26.8553 63.024C26.5753 62.944 26.3233 62.836 26.0993 62.7C25.8833 62.564 25.6913 62.412 25.5233 62.244C25.3633 62.076 25.2193 61.9 25.0913 61.716L25.8473 61.14C25.9593 61.308 26.0753 61.46 26.1953 61.596C26.3153 61.732 26.4513 61.852 26.6033 61.956C26.7633 62.052 26.9433 62.128 27.1433 62.184C27.3433 62.24 27.5753 62.268 27.8393 62.268C28.4313 62.268 28.8833 62.132 29.1953 61.86C29.5153 61.588 29.6753 61.2 29.6753 60.696V60.6C29.6753 60.104 29.5193 59.72 29.2073 59.448C28.9033 59.176 28.4433 59.04 27.8273 59.04H26.8313V58.176H27.7553Z"/><path fill="#343A3F" d="M467.6 63.144C467.088 63.144 466.648 63.048 466.28 62.856C465.912 62.656 465.608 62.372 465.368 62.004C465.128 61.636 464.952 61.184 464.84 60.648C464.728 60.112 464.672 59.5 464.672 58.812C464.672 58.132 464.728 57.524 464.84 56.988C464.952 56.444 465.128 55.988 465.368 55.62C465.608 55.252 465.912 54.972 466.28 54.78C466.648 54.58 467.088 54.48 467.6 54.48C468.112 54.48 468.552 54.58 468.92 54.78C469.288 54.972 469.592 55.252 469.832 55.62C470.072 55.988 470.248 56.444 470.36 56.988C470.472 57.524 470.528 58.132 470.528 58.812C470.528 59.5 470.472 60.112 470.36 60.648C470.248 61.184 470.072 61.636 469.832 62.004C469.592 62.372 469.288 62.656 468.92 62.856C468.552 63.048 468.112 63.144 467.6 63.144ZM467.6 62.268C467.936 62.268 468.22 62.204 468.452 62.076C468.684 61.94 468.876 61.752 469.028 61.512C469.18 61.272 469.288 60.984 469.352 60.648C469.424 60.304 469.46 59.92 469.46 59.496V58.128C469.46 57.712 469.424 57.332 469.352 56.988C469.288 56.644 469.18 56.352 469.028 56.112C468.876 55.872 468.684 55.688 468.452 55.56C468.22 55.424 467.936 55.356 467.6 55.356C467.264 55.356 466.98 55.424 466.748 55.56C466.516 55.688 466.324 55.872 466.172 56.112C466.02 56.352 465.908 56.644 465.836 56.988C465.772 57.332 465.74 57.712 465.74 58.128V59.496C465.74 59.92 465.772 60.304 465.836 60.648C465.908 60.984 466.02 61.272 466.172 61.512C466.324 61.752 466.516 61.94 466.748 62.076C466.98 62.204 467.264 62.268 467.6 62.268ZM476.615 61.992H476.567C476.167 62.76 475.531 63.144 474.659 63.144C473.899 63.144 473.303 62.86 472.871 62.292C472.447 61.724 472.235 60.928 472.235 59.904C472.235 58.88 472.447 58.084 472.871 57.516C473.303 56.948 473.899 56.664 474.659 56.664C475.531 56.664 476.167 57.048 476.567 57.816H476.615V54.12H477.575V63H476.615V61.992ZM475.031 62.292C475.247 62.292 475.451 62.264 475.643 62.208C475.835 62.152 476.003 62.072 476.147 61.968C476.291 61.856 476.403 61.724 476.483 61.572C476.571 61.412 476.615 61.228 476.615 61.02V58.788C476.615 58.58 476.571 58.4 476.483 58.248C476.403 58.088 476.291 57.956 476.147 57.852C476.003 57.74 475.835 57.656 475.643 57.6C475.451 57.544 475.247 57.516 475.031 57.516C474.471 57.516 474.035 57.688 473.723 58.032C473.419 58.368 473.267 58.816 473.267 59.376V60.432C473.267 60.992 473.419 61.444 473.723 61.788C474.035 62.124 474.471 62.292 475.031 62.292ZM484.131 61.992H484.083C483.683 62.76 483.047 63.144 482.175 63.144C481.415 63.144 480.819 62.86 480.387 62.292C479.963 61.724 479.751 60.928 479.751 59.904C479.751 58.88 479.963 58.084 480.387 57.516C480.819 56.948 481.415 56.664 482.175 56.664C483.047 56.664 483.683 57.048 484.083 57.816H484.131V54.12H485.091V63H484.131V61.992ZM482.547 62.292C482.763 62.292 482.967 62.264 483.159 62.208C483.351 62.152 483.519 62.072 483.663 61.968C483.807 61.856 483.919 61.724 483.999 61.572C484.087 61.412 484.131 61.228 484.131 61.02V58.788C484.131 58.58 484.087 58.4 483.999 58.248C483.919 58.088 483.807 57.956 483.663 57.852C483.519 57.74 483.351 57.656 483.159 57.6C482.967 57.544 482.763 57.516 482.547 57.516C481.987 57.516 481.551 57.688 481.239 58.032C480.935 58.368 480.783 58.816 480.783 59.376V60.432C480.783 60.992 480.935 61.444 481.239 61.788C481.551 62.124 481.987 62.292 482.547 62.292Z"/><path fill="#121619" d="M144.96 62.184H147.12V54.936H144.96V54.12H148.08V62.184H150.24V63H144.96V62.184ZM155.223 63.144C154.775 63.144 154.371 63.068 154.011 62.916C153.659 62.764 153.355 62.548 153.099 62.268C152.851 61.98 152.659 61.64 152.523 61.248C152.387 60.848 152.319 60.404 152.319 59.916C152.319 59.42 152.387 58.972 152.523 58.572C152.667 58.172 152.863 57.832 153.111 57.552C153.359 57.264 153.655 57.044 153.999 56.892C154.351 56.74 154.739 56.664 155.163 56.664C155.579 56.664 155.955 56.74 156.291 56.892C156.635 57.044 156.927 57.256 157.167 57.528C157.407 57.792 157.591 58.108 157.719 58.476C157.847 58.844 157.911 59.248 157.911 59.688V60.144H153.327V60.432C153.327 60.704 153.371 60.956 153.459 61.188C153.547 61.42 153.671 61.62 153.831 61.788C153.999 61.956 154.199 62.088 154.431 62.184C154.671 62.272 154.935 62.316 155.223 62.316C155.639 62.316 155.999 62.22 156.303 62.028C156.607 61.836 156.839 61.572 156.999 61.236L157.707 61.716C157.523 62.132 157.215 62.476 156.783 62.748C156.359 63.012 155.839 63.144 155.223 63.144ZM155.163 57.456C154.899 57.456 154.655 57.504 154.431 57.6C154.207 57.696 154.011 57.828 153.843 57.996C153.683 58.164 153.555 58.364 153.459 58.596C153.371 58.82 153.327 59.068 153.327 59.34V59.424H156.879V59.292C156.879 59.02 156.835 58.772 156.747 58.548C156.667 58.324 156.551 58.132 156.399 57.972C156.255 57.804 156.075 57.676 155.859 57.588C155.651 57.5 155.419 57.456 155.163 57.456ZM162.931 63C162.459 63 162.111 62.868 161.887 62.604C161.671 62.34 161.563 62 161.563 61.584V57.624H159.499V56.808H161.035C161.243 56.808 161.387 56.768 161.467 56.688C161.555 56.6 161.599 56.452 161.599 56.244V54.624H162.523V56.808H165.343V57.624H162.523V62.184H165.343V63H162.931ZM174.793 63L177.097 59.856L174.853 56.808H176.005L176.941 58.116L177.685 59.148H177.733L178.453 58.116L179.377 56.808H180.481L178.213 59.844L180.541 63H179.389L178.345 61.548L177.637 60.564H177.589L176.905 61.548L175.897 63H174.793ZM190.232 54.12H191.192V57.816H191.24C191.64 57.048 192.276 56.664 193.148 56.664C193.908 56.664 194.5 56.948 194.924 57.516C195.356 58.084 195.572 58.88 195.572 59.904C195.572 60.928 195.356 61.724 194.924 62.292C194.5 62.86 193.908 63.144 193.148 63.144C192.276 63.144 191.64 62.76 191.24 61.992H191.192V63H190.232V54.12ZM192.776 62.292C193.336 62.292 193.768 62.124 194.072 61.788C194.384 61.444 194.54 60.992 194.54 60.432V59.376C194.54 58.816 194.384 58.368 194.072 58.032C193.768 57.688 193.336 57.516 192.776 57.516C192.56 57.516 192.356 57.544 192.164 57.6C191.972 57.656 191.804 57.74 191.66 57.852C191.516 57.956 191.4 58.088 191.312 58.248C191.232 58.4 191.192 58.58 191.192 58.788V61.02C191.192 61.228 191.232 61.412 191.312 61.572C191.4 61.724 191.516 61.856 191.66 61.968C191.804 62.072 191.972 62.152 192.164 62.208C192.356 62.264 192.56 62.292 192.776 62.292ZM200.315 63.144C199.867 63.144 199.463 63.068 199.103 62.916C198.751 62.764 198.447 62.548 198.191 62.268C197.943 61.98 197.751 61.64 197.615 61.248C197.479 60.848 197.411 60.404 197.411 59.916C197.411 59.42 197.479 58.972 197.615 58.572C197.759 58.172 197.955 57.832 198.203 57.552C198.451 57.264 198.747 57.044 199.091 56.892C199.443 56.74 199.831 56.664 200.255 56.664C200.671 56.664 201.047 56.74 201.383 56.892C201.727 57.044 202.019 57.256 202.259 57.528C202.499 57.792 202.683 58.108 202.811 58.476C202.939 58.844 203.003 59.248 203.003 59.688V60.144H198.419V60.432C198.419 60.704 198.463 60.956 198.551 61.188C198.639 61.42 198.763 61.62 198.923 61.788C199.091 61.956 199.291 62.088 199.523 62.184C199.763 62.272 200.027 62.316 200.315 62.316C200.731 62.316 201.091 62.22 201.395 62.028C201.699 61.836 201.931 61.572 202.091 61.236L202.799 61.716C202.615 62.132 202.307 62.476 201.875 62.748C201.451 63.012 200.931 63.144 200.315 63.144ZM200.255 57.456C199.991 57.456 199.747 57.504 199.523 57.6C199.299 57.696 199.103 57.828 198.935 57.996C198.775 58.164 198.647 58.364 198.551 58.596C198.463 58.82 198.419 59.068 198.419 59.34V59.424H201.971V59.292C201.971 59.02 201.927 58.772 201.839 58.548C201.759 58.324 201.643 58.132 201.491 57.972C201.347 57.804 201.167 57.676 200.951 57.588C200.743 57.5 200.511 57.456 200.255 57.456ZM215.538 63C215.066 63 214.718 62.868 214.494 62.604C214.278 62.34 214.17 62 214.17 61.584V57.624H212.106V56.808H213.642C213.85 56.808 213.994 56.768 214.074 56.688C214.162 56.6 214.206 56.452 214.206 56.244V54.624H215.13V56.808H217.95V57.624H215.13V62.184H217.95V63H215.538ZM220.329 54.12H221.289V57.816H221.337C221.401 57.664 221.481 57.52 221.577 57.384C221.673 57.24 221.789 57.116 221.925 57.012C222.069 56.908 222.237 56.824 222.429 56.76C222.621 56.696 222.845 56.664 223.101 56.664C223.749 56.664 224.269 56.872 224.661 57.288C225.053 57.696 225.249 58.276 225.249 59.028V63H224.289V59.196C224.289 58.628 224.165 58.208 223.917 57.936C223.669 57.656 223.305 57.516 222.825 57.516C222.633 57.516 222.445 57.54 222.261 57.588C222.077 57.636 221.913 57.708 221.769 57.804C221.625 57.9 221.509 58.024 221.421 58.176C221.333 58.328 221.289 58.504 221.289 58.704V63H220.329V54.12ZM230.376 63.144C229.928 63.144 229.524 63.068 229.164 62.916C228.812 62.764 228.508 62.548 228.252 62.268C228.004 61.98 227.812 61.64 227.676 61.248C227.54 60.848 227.472 60.404 227.472 59.916C227.472 59.42 227.54 58.972 227.676 58.572C227.82 58.172 228.016 57.832 228.264 57.552C228.512 57.264 228.808 57.044 229.152 56.892C229.504 56.74 229.892 56.664 230.316 56.664C230.732 56.664 231.108 56.74 231.444 56.892C231.788 57.044 232.08 57.256 232.32 57.528C232.56 57.792 232.744 58.108 232.872 58.476C233 58.844 233.064 59.248 233.064 59.688V60.144H228.48V60.432C228.48 60.704 228.524 60.956 228.612 61.188C228.7 61.42 228.824 61.62 228.984 61.788C229.152 61.956 229.352 62.088 229.584 62.184C229.824 62.272 230.088 62.316 230.376 62.316C230.792 62.316 231.152 62.22 231.456 62.028C231.76 61.836 231.992 61.572 232.152 61.236L232.86 61.716C232.676 62.132 232.368 62.476 231.936 62.748C231.512 63.012 230.992 63.144 230.376 63.144ZM230.316 57.456C230.052 57.456 229.808 57.504 229.584 57.6C229.36 57.696 229.164 57.828 228.996 57.996C228.836 58.164 228.708 58.364 228.612 58.596C228.524 58.82 228.48 59.068 228.48 59.34V59.424H232.032V59.292C232.032 59.02 231.988 58.772 231.9 58.548C231.82 58.324 231.704 58.132 231.552 57.972C231.408 57.804 231.228 57.676 231.012 57.588C230.804 57.5 230.572 57.456 230.316 57.456ZM242.623 62.184H244.435V57.624H242.623V56.808H245.395V58.368H245.455C245.583 57.88 245.823 57.5 246.175 57.228C246.535 56.948 246.991 56.808 247.543 56.808H248.407V57.768H247.243C246.691 57.768 246.243 57.928 245.899 58.248C245.563 58.568 245.395 58.988 245.395 59.508V62.184H247.795V63H242.623V62.184ZM253.198 55.44C252.918 55.44 252.722 55.384 252.61 55.272C252.498 55.152 252.442 55.004 252.442 54.828V54.636C252.442 54.46 252.498 54.316 252.61 54.204C252.722 54.084 252.918 54.024 253.198 54.024C253.478 54.024 253.674 54.084 253.786 54.204C253.898 54.316 253.954 54.46 253.954 54.636V54.828C253.954 55.004 253.898 55.152 253.786 55.272C253.674 55.384 253.478 55.44 253.198 55.44ZM250.486 62.184H252.718V57.624H250.486V56.808H253.678V62.184H255.766V63H250.486V62.184ZM263.462 63.708C263.462 64.332 263.202 64.792 262.682 65.088C262.162 65.392 261.382 65.544 260.342 65.544C259.342 65.544 258.622 65.412 258.182 65.148C257.75 64.884 257.534 64.504 257.534 64.008C257.534 63.672 257.622 63.412 257.798 63.228C257.974 63.044 258.222 62.908 258.542 62.82V62.676C258.366 62.588 258.23 62.476 258.134 62.34C258.038 62.204 257.99 62.032 257.99 61.824C257.99 61.504 258.094 61.264 258.302 61.104C258.518 60.944 258.786 60.824 259.106 60.744V60.696C258.722 60.528 258.422 60.28 258.206 59.952C257.998 59.624 257.894 59.24 257.894 58.8C257.894 58.488 257.95 58.2 258.062 57.936C258.174 57.672 258.334 57.448 258.542 57.264C258.758 57.072 259.014 56.924 259.31 56.82C259.606 56.716 259.934 56.664 260.294 56.664C260.758 56.664 261.166 56.748 261.518 56.916V56.808C261.518 56.568 261.574 56.368 261.686 56.208C261.798 56.048 261.99 55.968 262.262 55.968H263.402V56.808H262.01V57.228C262.234 57.42 262.406 57.648 262.526 57.912C262.646 58.176 262.706 58.472 262.706 58.8C262.706 59.112 262.646 59.4 262.526 59.664C262.414 59.928 262.254 60.156 262.046 60.348C261.838 60.532 261.582 60.676 261.278 60.78C260.982 60.884 260.654 60.936 260.294 60.936C260.19 60.936 260.09 60.932 259.994 60.924C259.898 60.916 259.802 60.904 259.706 60.888C259.61 60.904 259.51 60.932 259.406 60.972C259.302 61.004 259.206 61.052 259.118 61.116C259.03 61.172 258.958 61.24 258.902 61.32C258.846 61.4 258.818 61.492 258.818 61.596C258.818 61.78 258.91 61.904 259.094 61.968C259.278 62.024 259.518 62.052 259.814 62.052H261.182C261.982 62.052 262.562 62.204 262.922 62.508C263.282 62.804 263.462 63.204 263.462 63.708ZM262.562 63.756C262.562 63.508 262.462 63.308 262.262 63.156C262.062 63.012 261.714 62.94 261.218 62.94H259.07C258.654 63.108 258.446 63.388 258.446 63.78C258.446 64.052 258.554 64.284 258.77 64.476C258.986 64.676 259.346 64.776 259.85 64.776H260.786C261.346 64.776 261.782 64.688 262.094 64.512C262.406 64.344 262.562 64.092 262.562 63.756ZM260.294 60.192C260.774 60.192 261.126 60.08 261.35 59.856C261.582 59.632 261.698 59.336 261.698 58.968V58.62C261.698 58.252 261.582 57.96 261.35 57.744C261.126 57.52 260.774 57.408 260.294 57.408C259.814 57.408 259.462 57.52 259.238 57.744C259.014 57.96 258.902 58.252 258.902 58.62V58.968C258.902 59.336 259.014 59.632 259.238 59.856C259.462 60.08 259.814 60.192 260.294 60.192ZM265.421 54.12H266.381V57.816H266.429C266.493 57.664 266.573 57.52 266.669 57.384C266.765 57.24 266.881 57.116 267.017 57.012C267.161 56.908 267.329 56.824 267.521 56.76C267.713 56.696 267.937 56.664 268.193 56.664C268.841 56.664 269.361 56.872 269.753 57.288C270.145 57.696 270.341 58.276 270.341 59.028V63H269.381V59.196C269.381 58.628 269.257 58.208 269.009 57.936C268.761 57.656 268.397 57.516 267.917 57.516C267.725 57.516 267.537 57.54 267.353 57.588C267.169 57.636 267.005 57.708 266.861 57.804C266.717 57.9 266.601 58.024 266.513 58.176C266.425 58.328 266.381 58.504 266.381 58.704V63H265.421V54.12ZM275.66 63C275.188 63 274.84 62.868 274.616 62.604C274.4 62.34 274.292 62 274.292 61.584V57.624H272.228V56.808H273.764C273.972 56.808 274.116 56.768 274.196 56.688C274.284 56.6 274.328 56.452 274.328 56.244V54.624H275.252V56.808H278.072V57.624H275.252V62.184H278.072V63H275.66ZM279.924 63V56.808H280.812V57.528H280.86C280.956 57.288 281.092 57.084 281.268 56.916C281.444 56.748 281.704 56.664 282.048 56.664C282.408 56.664 282.676 56.756 282.852 56.94C283.028 57.116 283.136 57.348 283.176 57.636H283.212C283.324 57.356 283.484 57.124 283.692 56.94C283.9 56.756 284.188 56.664 284.556 56.664C285.06 56.664 285.396 56.84 285.564 57.192C285.74 57.544 285.828 58.048 285.828 58.704V63H284.94V58.86C284.94 58.332 284.884 57.968 284.772 57.768C284.668 57.56 284.472 57.456 284.184 57.456C283.928 57.456 283.72 57.54 283.56 57.708C283.4 57.868 283.32 58.116 283.32 58.452V63H282.432V58.86C282.432 58.332 282.376 57.968 282.264 57.768C282.16 57.56 281.968 57.456 281.688 57.456C281.432 57.456 281.22 57.54 281.052 57.708C280.892 57.868 280.812 58.116 280.812 58.452V63H279.924ZM290.391 63.144C289.959 63.144 289.567 63.068 289.215 62.916C288.871 62.764 288.575 62.548 288.327 62.268C288.087 61.98 287.903 61.64 287.775 61.248C287.647 60.848 287.583 60.4 287.583 59.904C287.583 59.416 287.647 58.972 287.775 58.572C287.903 58.172 288.087 57.832 288.327 57.552C288.575 57.264 288.871 57.044 289.215 56.892C289.567 56.74 289.959 56.664 290.391 56.664C290.823 56.664 291.211 56.74 291.555 56.892C291.907 57.044 292.203 57.264 292.443 57.552C292.691 57.832 292.879 58.172 293.007 58.572C293.135 58.972 293.199 59.416 293.199 59.904C293.199 60.4 293.135 60.848 293.007 61.248C292.879 61.64 292.691 61.98 292.443 62.268C292.203 62.548 291.907 62.764 291.555 62.916C291.211 63.068 290.823 63.144 290.391 63.144ZM290.391 62.316C290.927 62.316 291.359 62.156 291.687 61.836C292.015 61.516 292.179 61.02 292.179 60.348V59.46C292.179 58.788 292.015 58.292 291.687 57.972C291.359 57.652 290.927 57.492 290.391 57.492C289.855 57.492 289.423 57.652 289.095 57.972C288.767 58.292 288.603 58.788 288.603 59.46V60.348C288.603 61.02 288.767 61.516 289.095 61.836C289.423 62.156 289.855 62.316 290.391 62.316ZM297.978 63.144C297.33 63.144 296.77 63.036 296.298 62.82C295.834 62.596 295.438 62.3 295.11 61.932L295.758 61.368C296.054 61.68 296.378 61.92 296.73 62.088C297.082 62.256 297.506 62.34 298.002 62.34C298.482 62.34 298.874 62.256 299.178 62.088C299.49 61.912 299.646 61.64 299.646 61.272C299.646 61.112 299.614 60.98 299.55 60.876C299.494 60.764 299.414 60.676 299.31 60.612C299.206 60.548 299.09 60.5 298.962 60.468C298.834 60.428 298.698 60.396 298.554 60.372L297.582 60.228C297.366 60.196 297.13 60.152 296.874 60.096C296.626 60.04 296.398 59.952 296.19 59.832C295.982 59.704 295.806 59.536 295.662 59.328C295.526 59.12 295.458 58.848 295.458 58.512C295.458 58.2 295.518 57.932 295.638 57.708C295.766 57.476 295.942 57.284 296.166 57.132C296.39 56.972 296.654 56.856 296.958 56.784C297.262 56.704 297.594 56.664 297.954 56.664C298.514 56.664 298.998 56.752 299.406 56.928C299.822 57.104 300.178 57.348 300.474 57.66L299.85 58.248C299.778 58.16 299.686 58.072 299.574 57.984C299.47 57.888 299.338 57.804 299.178 57.732C299.026 57.652 298.846 57.588 298.638 57.54C298.43 57.492 298.19 57.468 297.918 57.468C297.43 57.468 297.054 57.552 296.79 57.72C296.534 57.888 296.406 58.132 296.406 58.452C296.406 58.612 296.434 58.748 296.49 58.86C296.554 58.964 296.638 59.048 296.742 59.112C296.846 59.176 296.962 59.228 297.09 59.268C297.226 59.3 297.362 59.328 297.498 59.352L298.47 59.496C298.694 59.528 298.93 59.572 299.178 59.628C299.426 59.684 299.654 59.776 299.862 59.904C300.07 60.024 300.242 60.188 300.378 60.396C300.522 60.604 300.594 60.876 300.594 61.212C300.594 61.828 300.354 62.304 299.874 62.64C299.402 62.976 298.77 63.144 297.978 63.144ZM305.722 63C305.25 63 304.902 62.868 304.678 62.604C304.462 62.34 304.354 62 304.354 61.584V57.624H302.29V56.808H303.826C304.034 56.808 304.178 56.768 304.258 56.688C304.346 56.6 304.39 56.452 304.39 56.244V54.624H305.314V56.808H308.134V57.624H305.314V62.184H308.134V63H305.722ZM321.952 61.992H321.904C321.504 62.76 320.868 63.144 319.996 63.144C319.236 63.144 318.64 62.86 318.208 62.292C317.784 61.724 317.572 60.928 317.572 59.904C317.572 58.88 317.784 58.084 318.208 57.516C318.64 56.948 319.236 56.664 319.996 56.664C320.868 56.664 321.504 57.048 321.904 57.816H321.952V54.12H322.912V63H321.952V61.992ZM320.368 62.292C320.584 62.292 320.788 62.264 320.98 62.208C321.172 62.152 321.34 62.072 321.484 61.968C321.628 61.856 321.74 61.724 321.82 61.572C321.908 61.412 321.952 61.228 321.952 61.02V58.788C321.952 58.58 321.908 58.4 321.82 58.248C321.74 58.088 321.628 57.956 321.484 57.852C321.34 57.74 321.172 57.656 320.98 57.6C320.788 57.544 320.584 57.516 320.368 57.516C319.808 57.516 319.372 57.688 319.06 58.032C318.756 58.368 318.604 58.816 318.604 59.376V60.432C318.604 60.992 318.756 61.444 319.06 61.788C319.372 62.124 319.808 62.292 320.368 62.292ZM328.351 55.44C328.071 55.44 327.875 55.384 327.763 55.272C327.651 55.152 327.595 55.004 327.595 54.828V54.636C327.595 54.46 327.651 54.316 327.763 54.204C327.875 54.084 328.071 54.024 328.351 54.024C328.631 54.024 328.827 54.084 328.939 54.204C329.051 54.316 329.107 54.46 329.107 54.636V54.828C329.107 55.004 329.051 55.152 328.939 55.272C328.827 55.384 328.631 55.44 328.351 55.44ZM325.639 62.184H327.871V57.624H325.639V56.808H328.831V62.184H330.919V63H325.639V62.184ZM338.615 63.708C338.615 64.332 338.355 64.792 337.835 65.088C337.315 65.392 336.535 65.544 335.495 65.544C334.495 65.544 333.775 65.412 333.335 65.148C332.903 64.884 332.687 64.504 332.687 64.008C332.687 63.672 332.775 63.412 332.951 63.228C333.127 63.044 333.375 62.908 333.695 62.82V62.676C333.519 62.588 333.383 62.476 333.287 62.34C333.191 62.204 333.143 62.032 333.143 61.824C333.143 61.504 333.247 61.264 333.455 61.104C333.671 60.944 333.939 60.824 334.259 60.744V60.696C333.875 60.528 333.575 60.28 333.359 59.952C333.151 59.624 333.047 59.24 333.047 58.8C333.047 58.488 333.103 58.2 333.215 57.936C333.327 57.672 333.487 57.448 333.695 57.264C333.911 57.072 334.167 56.924 334.463 56.82C334.759 56.716 335.087 56.664 335.447 56.664C335.911 56.664 336.319 56.748 336.671 56.916V56.808C336.671 56.568 336.727 56.368 336.839 56.208C336.951 56.048 337.143 55.968 337.415 55.968H338.555V56.808H337.163V57.228C337.387 57.42 337.559 57.648 337.679 57.912C337.799 58.176 337.859 58.472 337.859 58.8C337.859 59.112 337.799 59.4 337.679 59.664C337.567 59.928 337.407 60.156 337.199 60.348C336.991 60.532 336.735 60.676 336.431 60.78C336.135 60.884 335.807 60.936 335.447 60.936C335.343 60.936 335.243 60.932 335.147 60.924C335.051 60.916 334.955 60.904 334.859 60.888C334.763 60.904 334.663 60.932 334.559 60.972C334.455 61.004 334.359 61.052 334.271 61.116C334.183 61.172 334.111 61.24 334.055 61.32C333.999 61.4 333.971 61.492 333.971 61.596C333.971 61.78 334.063 61.904 334.247 61.968C334.431 62.024 334.671 62.052 334.967 62.052H336.335C337.135 62.052 337.715 62.204 338.075 62.508C338.435 62.804 338.615 63.204 338.615 63.708ZM337.715 63.756C337.715 63.508 337.615 63.308 337.415 63.156C337.215 63.012 336.867 62.94 336.371 62.94H334.223C333.807 63.108 333.599 63.388 333.599 63.78C333.599 64.052 333.707 64.284 333.923 64.476C334.139 64.676 334.499 64.776 335.003 64.776H335.939C336.499 64.776 336.935 64.688 337.247 64.512C337.559 64.344 337.715 64.092 337.715 63.756ZM335.447 60.192C335.927 60.192 336.279 60.08 336.503 59.856C336.735 59.632 336.851 59.336 336.851 58.968V58.62C336.851 58.252 336.735 57.96 336.503 57.744C336.279 57.52 335.927 57.408 335.447 57.408C334.967 57.408 334.615 57.52 334.391 57.744C334.167 57.96 334.055 58.252 334.055 58.62V58.968C334.055 59.336 334.167 59.632 334.391 59.856C334.615 60.08 334.967 60.192 335.447 60.192ZM343.382 55.44C343.102 55.44 342.906 55.384 342.794 55.272C342.682 55.152 342.626 55.004 342.626 54.828V54.636C342.626 54.46 342.682 54.316 342.794 54.204C342.906 54.084 343.102 54.024 343.382 54.024C343.662 54.024 343.858 54.084 343.97 54.204C344.082 54.316 344.138 54.46 344.138 54.636V54.828C344.138 55.004 344.082 55.152 343.97 55.272C343.858 55.384 343.662 55.44 343.382 55.44ZM340.67 62.184H342.902V57.624H340.67V56.808H343.862V62.184H345.95V63H340.67V62.184ZM350.813 63C350.341 63 349.993 62.868 349.769 62.604C349.553 62.34 349.445 62 349.445 61.584V57.624H347.381V56.808H348.917C349.125 56.808 349.269 56.768 349.349 56.688C349.437 56.6 349.481 56.452 349.481 56.244V54.624H350.405V56.808H353.225V57.624H350.405V62.184H353.225V63H350.813ZM147.984 71.44C147.704 71.44 147.508 71.384 147.396 71.272C147.284 71.152 147.228 71.004 147.228 70.828V70.636C147.228 70.46 147.284 70.316 147.396 70.204C147.508 70.084 147.704 70.024 147.984 70.024C148.264 70.024 148.46 70.084 148.572 70.204C148.684 70.316 148.74 70.46 148.74 70.636V70.828C148.74 71.004 148.684 71.152 148.572 71.272C148.46 71.384 148.264 71.44 147.984 71.44ZM145.272 78.184H147.504V73.624H145.272V72.808H148.464V78.184H150.552V79H145.272V78.184ZM152.511 78.184H154.599V73.624H152.391V72.808H154.599V71.536C154.599 71.12 154.707 70.78 154.923 70.516C155.147 70.252 155.495 70.12 155.967 70.12H158.043V70.936H155.559V72.808H158.043V73.624H155.559V78.184H157.767V79H152.511V78.184ZM167.278 79L169.582 75.856L167.338 72.808H168.49L169.426 74.116L170.17 75.148H170.218L170.938 74.116L171.862 72.808H172.966L170.698 75.844L173.026 79H171.874L170.83 77.548L170.122 76.564H170.074L169.39 77.548L168.382 79H167.278ZM185.561 71.44C185.281 71.44 185.085 71.384 184.973 71.272C184.861 71.152 184.805 71.004 184.805 70.828V70.636C184.805 70.46 184.861 70.316 184.973 70.204C185.085 70.084 185.281 70.024 185.561 70.024C185.841 70.024 186.037 70.084 186.149 70.204C186.261 70.316 186.317 70.46 186.317 70.636V70.828C186.317 71.004 186.261 71.152 186.149 71.272C186.037 71.384 185.841 71.44 185.561 71.44ZM182.849 78.184H185.081V73.624H182.849V72.808H186.041V78.184H188.129V79H182.849V78.184ZM192.764 79.144C192.116 79.144 191.556 79.036 191.084 78.82C190.62 78.596 190.224 78.3 189.896 77.932L190.544 77.368C190.84 77.68 191.164 77.92 191.516 78.088C191.868 78.256 192.292 78.34 192.788 78.34C193.268 78.34 193.66 78.256 193.964 78.088C194.276 77.912 194.432 77.64 194.432 77.272C194.432 77.112 194.4 76.98 194.336 76.876C194.28 76.764 194.2 76.676 194.096 76.612C193.992 76.548 193.876 76.5 193.748 76.468C193.62 76.428 193.484 76.396 193.34 76.372L192.368 76.228C192.152 76.196 191.916 76.152 191.66 76.096C191.412 76.04 191.184 75.952 190.976 75.832C190.768 75.704 190.592 75.536 190.448 75.328C190.312 75.12 190.244 74.848 190.244 74.512C190.244 74.2 190.304 73.932 190.424 73.708C190.552 73.476 190.728 73.284 190.952 73.132C191.176 72.972 191.44 72.856 191.744 72.784C192.048 72.704 192.38 72.664 192.74 72.664C193.3 72.664 193.784 72.752 194.192 72.928C194.608 73.104 194.964 73.348 195.26 73.66L194.636 74.248C194.564 74.16 194.472 74.072 194.36 73.984C194.256 73.888 194.124 73.804 193.964 73.732C193.812 73.652 193.632 73.588 193.424 73.54C193.216 73.492 192.976 73.468 192.704 73.468C192.216 73.468 191.84 73.552 191.576 73.72C191.32 73.888 191.192 74.132 191.192 74.452C191.192 74.612 191.22 74.748 191.276 74.86C191.34 74.964 191.424 75.048 191.528 75.112C191.632 75.176 191.748 75.228 191.876 75.268C192.012 75.3 192.148 75.328 192.284 75.352L193.256 75.496C193.48 75.528 193.716 75.572 193.964 75.628C194.212 75.684 194.44 75.776 194.648 75.904C194.856 76.024 195.028 76.188 195.164 76.396C195.308 76.604 195.38 76.876 195.38 77.212C195.38 77.828 195.14 78.304 194.66 78.64C194.188 78.976 193.556 79.144 192.764 79.144ZM207.723 79.144C207.211 79.144 206.771 79.048 206.403 78.856C206.035 78.656 205.731 78.372 205.491 78.004C205.251 77.636 205.075 77.184 204.963 76.648C204.851 76.112 204.795 75.5 204.795 74.812C204.795 74.132 204.851 73.524 204.963 72.988C205.075 72.444 205.251 71.988 205.491 71.62C205.731 71.252 206.035 70.972 206.403 70.78C206.771 70.58 207.211 70.48 207.723 70.48C208.235 70.48 208.675 70.58 209.043 70.78C209.411 70.972 209.715 71.252 209.955 71.62C210.195 71.988 210.371 72.444 210.483 72.988C210.595 73.524 210.651 74.132 210.651 74.812C210.651 75.5 210.595 76.112 210.483 76.648C210.371 77.184 210.195 77.636 209.955 78.004C209.715 78.372 209.411 78.656 209.043 78.856C208.675 79.048 208.235 79.144 207.723 79.144ZM207.723 78.268C208.059 78.268 208.347 78.204 208.587 78.076C208.827 77.94 209.019 77.752 209.163 77.512C209.315 77.272 209.427 76.984 209.499 76.648C209.571 76.304 209.607 75.92 209.607 75.496V74.128C209.607 73.712 209.571 73.332 209.499 72.988C209.427 72.644 209.315 72.352 209.163 72.112C209.019 71.872 208.827 71.688 208.587 71.56C208.347 71.424 208.059 71.356 207.723 71.356C207.387 71.356 207.099 71.424 206.859 71.56C206.619 71.688 206.423 71.872 206.271 72.112C206.127 72.352 206.019 72.644 205.947 72.988C205.875 73.332 205.839 73.712 205.839 74.128V75.496C205.839 75.92 205.875 76.304 205.947 76.648C206.019 76.984 206.127 77.272 206.271 77.512C206.423 77.752 206.619 77.94 206.859 78.076C207.099 78.204 207.387 78.268 207.723 78.268ZM207.723 75.52C207.443 75.52 207.247 75.464 207.135 75.352C207.031 75.24 206.979 75.104 206.979 74.944V74.68C206.979 74.52 207.031 74.384 207.135 74.272C207.247 74.16 207.443 74.104 207.723 74.104C208.003 74.104 208.195 74.16 208.299 74.272C208.411 74.384 208.467 74.52 208.467 74.68V74.944C208.467 75.104 208.411 75.24 208.299 75.352C208.195 75.464 208.003 75.52 207.723 75.52ZM214.722 77.368H216.27L214.89 80.692H214.086L214.722 77.368ZM233.112 79H227.52V77.968L230.316 75.448C230.724 75.08 231.06 74.704 231.324 74.32C231.588 73.928 231.72 73.516 231.72 73.084V72.94C231.72 72.436 231.588 72.048 231.324 71.776C231.06 71.496 230.668 71.356 230.148 71.356C229.636 71.356 229.24 71.488 228.96 71.752C228.688 72.008 228.484 72.352 228.348 72.784L227.448 72.448C227.528 72.2 227.636 71.96 227.772 71.728C227.916 71.488 228.096 71.276 228.312 71.092C228.528 70.908 228.788 70.76 229.092 70.648C229.404 70.536 229.764 70.48 230.172 70.48C230.588 70.48 230.956 70.54 231.276 70.66C231.604 70.78 231.876 70.948 232.092 71.164C232.316 71.38 232.484 71.636 232.596 71.932C232.716 72.228 232.776 72.552 232.776 72.904C232.776 73.224 232.728 73.524 232.632 73.804C232.544 74.084 232.416 74.352 232.248 74.608C232.088 74.864 231.892 75.116 231.66 75.364C231.436 75.604 231.184 75.844 230.904 76.084L228.564 78.124H233.112V79ZM237.268 77.368H238.816L237.436 80.692H236.632L237.268 77.368ZM253.75 79V77.356H249.622V76.468L253.246 70.624H254.71V76.528H255.958V77.356H254.71V79H253.75ZM250.522 76.528H253.75V71.404H253.702L250.522 76.528ZM259.814 77.368H261.362L259.982 80.692H259.178L259.814 77.368ZM275.372 79.144C274.932 79.144 274.536 79.072 274.184 78.928C273.832 78.776 273.532 78.564 273.284 78.292C273.044 78.012 272.856 77.672 272.72 77.272C272.592 76.872 272.528 76.424 272.528 75.928C272.528 75.304 272.62 74.72 272.804 74.176C272.996 73.624 273.236 73.124 273.524 72.676C273.82 72.22 274.148 71.82 274.508 71.476C274.868 71.124 275.22 70.84 275.564 70.624H276.86C276.404 70.952 275.996 71.272 275.636 71.584C275.284 71.896 274.972 72.224 274.7 72.568C274.428 72.904 274.2 73.268 274.016 73.66C273.832 74.044 273.68 74.48 273.56 74.968L273.62 74.992C273.82 74.648 274.084 74.364 274.412 74.14C274.74 73.908 275.164 73.792 275.684 73.792C276.052 73.792 276.388 73.852 276.692 73.972C276.996 74.092 277.26 74.264 277.484 74.488C277.708 74.712 277.88 74.984 278 75.304C278.128 75.624 278.192 75.98 278.192 76.372C278.192 76.78 278.124 77.156 277.988 77.5C277.852 77.836 277.66 78.128 277.412 78.376C277.172 78.616 276.876 78.804 276.524 78.94C276.18 79.076 275.796 79.144 275.372 79.144ZM275.36 78.292C275.936 78.292 276.38 78.136 276.692 77.824C277.012 77.512 277.172 77.072 277.172 76.504V76.408C277.172 75.84 277.012 75.4 276.692 75.088C276.38 74.776 275.936 74.62 275.36 74.62C274.784 74.62 274.336 74.776 274.016 75.088C273.704 75.4 273.548 75.84 273.548 76.408V76.504C273.548 77.072 273.704 77.512 274.016 77.824C274.336 78.136 274.784 78.292 275.36 78.292ZM290.391 79.144C289.959 79.144 289.567 79.068 289.215 78.916C288.871 78.764 288.575 78.548 288.327 78.268C288.087 77.98 287.903 77.64 287.775 77.248C287.647 76.848 287.583 76.4 287.583 75.904C287.583 75.416 287.647 74.972 287.775 74.572C287.903 74.172 288.087 73.832 288.327 73.552C288.575 73.264 288.871 73.044 289.215 72.892C289.567 72.74 289.959 72.664 290.391 72.664C290.823 72.664 291.211 72.74 291.555 72.892C291.907 73.044 292.203 73.264 292.443 73.552C292.691 73.832 292.879 74.172 293.007 74.572C293.135 74.972 293.199 75.416 293.199 75.904C293.199 76.4 293.135 76.848 293.007 77.248C292.879 77.64 292.691 77.98 292.443 78.268C292.203 78.548 291.907 78.764 291.555 78.916C291.211 79.068 290.823 79.144 290.391 79.144ZM290.391 78.316C290.927 78.316 291.359 78.156 291.687 77.836C292.015 77.516 292.179 77.02 292.179 76.348V75.46C292.179 74.788 292.015 74.292 291.687 73.972C291.359 73.652 290.927 73.492 290.391 73.492C289.855 73.492 289.423 73.652 289.095 73.972C288.767 74.292 288.603 74.788 288.603 75.46V76.348C288.603 77.02 288.767 77.516 289.095 77.836C289.423 78.156 289.855 78.316 290.391 78.316ZM295.23 78.184H297.042V73.624H295.23V72.808H298.002V74.368H298.062C298.19 73.88 298.43 73.5 298.782 73.228C299.142 72.948 299.598 72.808 300.15 72.808H301.014V73.768H299.85C299.298 73.768 298.85 73.928 298.506 74.248C298.17 74.568 298.002 74.988 298.002 75.508V78.184H300.402V79H295.23V78.184ZM312.937 79.144C312.449 79.144 312.021 79.084 311.653 78.964C311.285 78.836 310.977 78.664 310.729 78.448C310.489 78.232 310.305 77.976 310.177 77.68C310.057 77.384 309.997 77.064 309.997 76.72C309.997 76.144 310.153 75.688 310.465 75.352C310.777 75.016 311.189 74.78 311.701 74.644V74.548C311.253 74.396 310.897 74.152 310.633 73.816C310.377 73.472 310.249 73.06 310.249 72.58C310.249 71.94 310.485 71.432 310.957 71.056C311.429 70.672 312.089 70.48 312.937 70.48C313.785 70.48 314.445 70.672 314.917 71.056C315.389 71.432 315.625 71.94 315.625 72.58C315.625 73.06 315.493 73.472 315.229 73.816C314.973 74.152 314.621 74.396 314.173 74.548V74.644C314.685 74.78 315.097 75.016 315.409 75.352C315.721 75.688 315.877 76.144 315.877 76.72C315.877 77.064 315.813 77.384 315.685 77.68C315.565 77.976 315.381 78.232 315.133 78.448C314.885 78.664 314.577 78.836 314.209 78.964C313.849 79.084 313.425 79.144 312.937 79.144ZM312.937 78.292C313.529 78.292 313.993 78.16 314.329 77.896C314.665 77.632 314.833 77.26 314.833 76.78V76.516C314.833 76.036 314.665 75.664 314.329 75.4C314.001 75.136 313.537 75.004 312.937 75.004C312.337 75.004 311.869 75.136 311.533 75.4C311.205 75.664 311.041 76.036 311.041 76.516V76.78C311.041 77.26 311.209 77.632 311.545 77.896C311.881 78.16 312.345 78.292 312.937 78.292ZM312.937 74.188C313.481 74.188 313.893 74.072 314.173 73.84C314.461 73.608 314.605 73.276 314.605 72.844V72.676C314.605 72.244 314.457 71.912 314.161 71.68C313.873 71.448 313.465 71.332 312.937 71.332C312.409 71.332 311.997 71.448 311.701 71.68C311.413 71.912 311.269 72.244 311.269 72.676V72.844C311.269 73.276 311.409 73.608 311.689 73.84C311.977 74.072 312.393 74.188 312.937 74.188ZM320.452 79.108C320.124 79.108 319.892 79.04 319.756 78.904C319.628 78.768 319.564 78.596 319.564 78.388V78.172C319.564 77.964 319.628 77.792 319.756 77.656C319.892 77.52 320.124 77.452 320.452 77.452C320.78 77.452 321.008 77.52 321.136 77.656C321.272 77.792 321.34 77.964 321.34 78.172V78.388C321.34 78.596 321.272 78.768 321.136 78.904C321.008 79.04 320.78 79.108 320.452 79.108ZM320.452 74.356C320.124 74.356 319.892 74.288 319.756 74.152C319.628 74.016 319.564 73.844 319.564 73.636V73.42C319.564 73.212 319.628 73.04 319.756 72.904C319.892 72.768 320.124 72.7 320.452 72.7C320.78 72.7 321.008 72.768 321.136 72.904C321.272 73.04 321.34 73.212 321.34 73.42V73.636C321.34 73.844 321.272 74.016 321.136 74.152C321.008 74.288 320.78 74.356 320.452 74.356ZM177.661 95.144C177.229 95.144 176.837 95.068 176.485 94.916C176.141 94.764 175.845 94.548 175.597 94.268C175.357 93.98 175.173 93.64 175.045 93.248C174.917 92.848 174.853 92.4 174.853 91.904C174.853 91.416 174.917 90.972 175.045 90.572C175.173 90.172 175.357 89.832 175.597 89.552C175.845 89.264 176.141 89.044 176.485 88.892C176.837 88.74 177.229 88.664 177.661 88.664C178.093 88.664 178.481 88.74 178.825 88.892C179.177 89.044 179.473 89.264 179.713 89.552C179.961 89.832 180.149 90.172 180.277 90.572C180.405 90.972 180.469 91.416 180.469 91.904C180.469 92.4 180.405 92.848 180.277 93.248C180.149 93.64 179.961 93.98 179.713 94.268C179.473 94.548 179.177 94.764 178.825 94.916C178.481 95.068 178.093 95.144 177.661 95.144ZM177.661 94.316C178.197 94.316 178.629 94.156 178.957 93.836C179.285 93.516 179.449 93.02 179.449 92.348V91.46C179.449 90.788 179.285 90.292 178.957 89.972C178.629 89.652 178.197 89.492 177.661 89.492C177.125 89.492 176.693 89.652 176.365 89.972C176.037 90.292 175.873 90.788 175.873 91.46V92.348C175.873 93.02 176.037 93.516 176.365 93.836C176.693 94.156 177.125 94.316 177.661 94.316ZM186.641 93.992H186.593C186.529 94.144 186.449 94.292 186.353 94.436C186.257 94.572 186.137 94.692 185.993 94.796C185.857 94.9 185.693 94.984 185.501 95.048C185.309 95.112 185.085 95.144 184.829 95.144C184.181 95.144 183.661 94.94 183.269 94.532C182.877 94.116 182.681 93.532 182.681 92.78V88.808H183.641V92.612C183.641 93.18 183.765 93.604 184.013 93.884C184.261 94.156 184.625 94.292 185.105 94.292C185.297 94.292 185.485 94.268 185.669 94.22C185.853 94.172 186.017 94.1 186.161 94.004C186.305 93.908 186.421 93.788 186.509 93.644C186.597 93.492 186.641 93.312 186.641 93.104V88.808H187.601V95H186.641V93.992ZM192.992 95C192.52 95 192.172 94.868 191.948 94.604C191.732 94.34 191.624 94 191.624 93.584V89.624H189.56V88.808H191.096C191.304 88.808 191.448 88.768 191.528 88.688C191.616 88.6 191.66 88.452 191.66 88.244V86.624H192.584V88.808H195.404V89.624H192.584V94.184H195.404V95H192.992ZM197.747 88.808H198.707V89.816H198.755C199.155 89.048 199.791 88.664 200.663 88.664C201.423 88.664 202.015 88.948 202.439 89.516C202.871 90.084 203.087 90.88 203.087 91.904C203.087 92.928 202.871 93.724 202.439 94.292C202.015 94.86 201.423 95.144 200.663 95.144C199.791 95.144 199.155 94.76 198.755 93.992H198.707V97.4H197.747V88.808ZM200.291 94.292C200.851 94.292 201.283 94.124 201.587 93.788C201.899 93.444 202.055 92.992 202.055 92.432V91.376C202.055 90.816 201.899 90.368 201.587 90.032C201.283 89.688 200.851 89.516 200.291 89.516C200.075 89.516 199.871 89.544 199.679 89.6C199.487 89.656 199.319 89.74 199.175 89.852C199.031 89.956 198.915 90.088 198.827 90.248C198.747 90.4 198.707 90.58 198.707 90.788V93.02C198.707 93.228 198.747 93.412 198.827 93.572C198.915 93.724 199.031 93.856 199.175 93.968C199.319 94.072 199.487 94.152 199.679 94.208C199.871 94.264 200.075 94.292 200.291 94.292ZM209.187 93.992H209.139C209.075 94.144 208.995 94.292 208.899 94.436C208.803 94.572 208.683 94.692 208.539 94.796C208.403 94.9 208.239 94.984 208.047 95.048C207.855 95.112 207.631 95.144 207.375 95.144C206.727 95.144 206.207 94.94 205.815 94.532C205.423 94.116 205.227 93.532 205.227 92.78V88.808H206.187V92.612C206.187 93.18 206.311 93.604 206.559 93.884C206.807 94.156 207.171 94.292 207.651 94.292C207.843 94.292 208.031 94.268 208.215 94.22C208.399 94.172 208.563 94.1 208.707 94.004C208.851 93.908 208.967 93.788 209.055 93.644C209.143 93.492 209.187 93.312 209.187 93.104V88.808H210.147V95H209.187V93.992ZM215.538 95C215.066 95 214.718 94.868 214.494 94.604C214.278 94.34 214.17 94 214.17 93.584V89.624H212.106V88.808H213.642C213.85 88.808 213.994 88.768 214.074 88.688C214.162 88.6 214.206 88.452 214.206 88.244V86.624H215.13V88.808H217.95V89.624H215.13V94.184H217.95V95H215.538ZM227.748 95V86.624H232.908V87.5H228.756V90.32H232.764V91.196H228.756V94.124H232.908V95H227.748ZM237.172 95L234.952 88.808H235.924L236.812 91.4L237.772 94.196H237.82L238.78 91.4L239.668 88.808H240.616L238.396 95H237.172ZM245.407 95.144C244.959 95.144 244.555 95.068 244.195 94.916C243.843 94.764 243.539 94.548 243.283 94.268C243.035 93.98 242.843 93.64 242.707 93.248C242.571 92.848 242.503 92.404 242.503 91.916C242.503 91.42 242.571 90.972 242.707 90.572C242.851 90.172 243.047 89.832 243.295 89.552C243.543 89.264 243.839 89.044 244.183 88.892C244.535 88.74 244.923 88.664 245.347 88.664C245.763 88.664 246.139 88.74 246.475 88.892C246.819 89.044 247.111 89.256 247.351 89.528C247.591 89.792 247.775 90.108 247.903 90.476C248.031 90.844 248.095 91.248 248.095 91.688V92.144H243.511V92.432C243.511 92.704 243.555 92.956 243.643 93.188C243.731 93.42 243.855 93.62 244.015 93.788C244.183 93.956 244.383 94.088 244.615 94.184C244.855 94.272 245.119 94.316 245.407 94.316C245.823 94.316 246.183 94.22 246.487 94.028C246.791 93.836 247.023 93.572 247.183 93.236L247.891 93.716C247.707 94.132 247.399 94.476 246.967 94.748C246.543 95.012 246.023 95.144 245.407 95.144ZM245.347 89.456C245.083 89.456 244.839 89.504 244.615 89.6C244.391 89.696 244.195 89.828 244.027 89.996C243.867 90.164 243.739 90.364 243.643 90.596C243.555 90.82 243.511 91.068 243.511 91.34V91.424H247.063V91.292C247.063 91.02 247.019 90.772 246.931 90.548C246.851 90.324 246.735 90.132 246.583 89.972C246.439 89.804 246.259 89.676 246.043 89.588C245.835 89.5 245.603 89.456 245.347 89.456ZM250.39 95V88.808H251.35V89.816H251.398C251.462 89.664 251.542 89.52 251.638 89.384C251.734 89.24 251.85 89.116 251.986 89.012C252.13 88.908 252.298 88.824 252.49 88.76C252.682 88.696 252.906 88.664 253.162 88.664C253.81 88.664 254.33 88.872 254.722 89.288C255.114 89.696 255.31 90.276 255.31 91.028V95H254.35V91.196C254.35 90.628 254.226 90.208 253.978 89.936C253.73 89.656 253.366 89.516 252.886 89.516C252.694 89.516 252.506 89.54 252.322 89.588C252.138 89.636 251.974 89.708 251.83 89.804C251.686 89.9 251.57 90.024 251.482 90.176C251.394 90.328 251.35 90.504 251.35 90.704V95H250.39ZM147.708 111.144C147.26 111.144 146.856 111.068 146.496 110.916C146.144 110.764 145.84 110.548 145.584 110.268C145.336 109.98 145.144 109.64 145.008 109.248C144.872 108.848 144.804 108.404 144.804 107.916C144.804 107.42 144.872 106.972 145.008 106.572C145.152 106.172 145.348 105.832 145.596 105.552C145.844 105.264 146.14 105.044 146.484 104.892C146.836 104.74 147.224 104.664 147.648 104.664C148.064 104.664 148.44 104.74 148.776 104.892C149.12 105.044 149.412 105.256 149.652 105.528C149.892 105.792 150.076 106.108 150.204 106.476C150.332 106.844 150.396 107.248 150.396 107.688V108.144H145.812V108.432C145.812 108.704 145.856 108.956 145.944 109.188C146.032 109.42 146.156 109.62 146.316 109.788C146.484 109.956 146.684 110.088 146.916 110.184C147.156 110.272 147.42 110.316 147.708 110.316C148.124 110.316 148.484 110.22 148.788 110.028C149.092 109.836 149.324 109.572 149.484 109.236L150.192 109.716C150.008 110.132 149.7 110.476 149.268 110.748C148.844 111.012 148.324 111.144 147.708 111.144ZM147.648 105.456C147.384 105.456 147.14 105.504 146.916 105.6C146.692 105.696 146.496 105.828 146.328 105.996C146.168 106.164 146.04 106.364 145.944 106.596C145.856 106.82 145.812 107.068 145.812 107.34V107.424H149.364V107.292C149.364 107.02 149.32 106.772 149.232 106.548C149.152 106.324 149.036 106.132 148.884 105.972C148.74 105.804 148.56 105.676 148.344 105.588C148.136 105.5 147.904 105.456 147.648 105.456ZM152.475 110.184H154.635V102.936H152.475V102.12H155.595V110.184H157.755V111H152.475V110.184ZM162.703 111.144C162.055 111.144 161.495 111.036 161.023 110.82C160.559 110.596 160.163 110.3 159.835 109.932L160.483 109.368C160.779 109.68 161.103 109.92 161.455 110.088C161.807 110.256 162.231 110.34 162.727 110.34C163.207 110.34 163.599 110.256 163.903 110.088C164.215 109.912 164.371 109.64 164.371 109.272C164.371 109.112 164.339 108.98 164.275 108.876C164.219 108.764 164.139 108.676 164.035 108.612C163.931 108.548 163.815 108.5 163.687 108.468C163.559 108.428 163.423 108.396 163.279 108.372L162.307 108.228C162.091 108.196 161.855 108.152 161.599 108.096C161.351 108.04 161.123 107.952 160.915 107.832C160.707 107.704 160.531 107.536 160.387 107.328C160.251 107.12 160.183 106.848 160.183 106.512C160.183 106.2 160.243 105.932 160.363 105.708C160.491 105.476 160.667 105.284 160.891 105.132C161.115 104.972 161.379 104.856 161.683 104.784C161.987 104.704 162.319 104.664 162.679 104.664C163.239 104.664 163.723 104.752 164.131 104.928C164.547 105.104 164.903 105.348 165.199 105.66L164.575 106.248C164.503 106.16 164.411 106.072 164.299 105.984C164.195 105.888 164.063 105.804 163.903 105.732C163.751 105.652 163.571 105.588 163.363 105.54C163.155 105.492 162.915 105.468 162.643 105.468C162.155 105.468 161.779 105.552 161.515 105.72C161.259 105.888 161.131 106.132 161.131 106.452C161.131 106.612 161.159 106.748 161.215 106.86C161.279 106.964 161.363 107.048 161.467 107.112C161.571 107.176 161.687 107.228 161.815 107.268C161.951 107.3 162.087 107.328 162.223 107.352L163.195 107.496C163.419 107.528 163.655 107.572 163.903 107.628C164.151 107.684 164.379 107.776 164.587 107.904C164.795 108.024 164.967 108.188 165.103 108.396C165.247 108.604 165.319 108.876 165.319 109.212C165.319 109.828 165.079 110.304 164.599 110.64C164.127 110.976 163.495 111.144 162.703 111.144ZM170.254 111.144C169.806 111.144 169.402 111.068 169.042 110.916C168.69 110.764 168.386 110.548 168.13 110.268C167.882 109.98 167.69 109.64 167.554 109.248C167.418 108.848 167.35 108.404 167.35 107.916C167.35 107.42 167.418 106.972 167.554 106.572C167.698 106.172 167.894 105.832 168.142 105.552C168.39 105.264 168.686 105.044 169.03 104.892C169.382 104.74 169.77 104.664 170.194 104.664C170.61 104.664 170.986 104.74 171.322 104.892C171.666 105.044 171.958 105.256 172.198 105.528C172.438 105.792 172.622 106.108 172.75 106.476C172.878 106.844 172.942 107.248 172.942 107.688V108.144H168.358V108.432C168.358 108.704 168.402 108.956 168.49 109.188C168.578 109.42 168.702 109.62 168.862 109.788C169.03 109.956 169.23 110.088 169.462 110.184C169.702 110.272 169.966 110.316 170.254 110.316C170.67 110.316 171.03 110.22 171.334 110.028C171.638 109.836 171.87 109.572 172.03 109.236L172.738 109.716C172.554 110.132 172.246 110.476 171.814 110.748C171.39 111.012 170.87 111.144 170.254 111.144ZM170.194 105.456C169.93 105.456 169.686 105.504 169.462 105.6C169.238 105.696 169.042 105.828 168.874 105.996C168.714 106.164 168.586 106.364 168.49 106.596C168.402 106.82 168.358 107.068 168.358 107.34V107.424H171.91V107.292C171.91 107.02 171.866 106.772 171.778 106.548C171.698 106.324 171.582 106.132 171.43 105.972C171.286 105.804 171.106 105.676 170.89 105.588C170.682 105.5 170.45 105.456 170.194 105.456ZM177.661 111.108C177.333 111.108 177.101 111.04 176.965 110.904C176.837 110.768 176.773 110.596 176.773 110.388V110.172C176.773 109.964 176.837 109.792 176.965 109.656C177.101 109.52 177.333 109.452 177.661 109.452C177.989 109.452 178.217 109.52 178.345 109.656C178.481 109.792 178.549 109.964 178.549 110.172V110.388C178.549 110.596 178.481 110.768 178.345 110.904C178.217 111.04 177.989 111.108 177.661 111.108ZM177.661 106.356C177.333 106.356 177.101 106.288 176.965 106.152C176.837 106.016 176.773 105.844 176.773 105.636V105.42C176.773 105.212 176.837 105.04 176.965 104.904C177.101 104.768 177.333 104.7 177.661 104.7C177.989 104.7 178.217 104.768 178.345 104.904C178.481 105.04 178.549 105.212 178.549 105.42V105.636C178.549 105.844 178.481 106.016 178.345 106.152C178.217 106.288 177.989 106.356 177.661 106.356ZM177.661 127.144C177.229 127.144 176.837 127.068 176.485 126.916C176.141 126.764 175.845 126.548 175.597 126.268C175.357 125.98 175.173 125.64 175.045 125.248C174.917 124.848 174.853 124.4 174.853 123.904C174.853 123.416 174.917 122.972 175.045 122.572C175.173 122.172 175.357 121.832 175.597 121.552C175.845 121.264 176.141 121.044 176.485 120.892C176.837 120.74 177.229 120.664 177.661 120.664C178.093 120.664 178.481 120.74 178.825 120.892C179.177 121.044 179.473 121.264 179.713 121.552C179.961 121.832 180.149 122.172 180.277 122.572C180.405 122.972 180.469 123.416 180.469 123.904C180.469 124.4 180.405 124.848 180.277 125.248C180.149 125.64 179.961 125.98 179.713 126.268C179.473 126.548 179.177 126.764 178.825 126.916C178.481 127.068 178.093 127.144 177.661 127.144ZM177.661 126.316C178.197 126.316 178.629 126.156 178.957 125.836C179.285 125.516 179.449 125.02 179.449 124.348V123.46C179.449 122.788 179.285 122.292 178.957 121.972C178.629 121.652 178.197 121.492 177.661 121.492C177.125 121.492 176.693 121.652 176.365 121.972C176.037 122.292 175.873 122.788 175.873 123.46V124.348C175.873 125.02 176.037 125.516 176.365 125.836C176.693 126.156 177.125 126.316 177.661 126.316ZM186.641 125.992H186.593C186.529 126.144 186.449 126.292 186.353 126.436C186.257 126.572 186.137 126.692 185.993 126.796C185.857 126.9 185.693 126.984 185.501 127.048C185.309 127.112 185.085 127.144 184.829 127.144C184.181 127.144 183.661 126.94 183.269 126.532C182.877 126.116 182.681 125.532 182.681 124.78V120.808H183.641V124.612C183.641 125.18 183.765 125.604 184.013 125.884C184.261 126.156 184.625 126.292 185.105 126.292C185.297 126.292 185.485 126.268 185.669 126.22C185.853 126.172 186.017 126.1 186.161 126.004C186.305 125.908 186.421 125.788 186.509 125.644C186.597 125.492 186.641 125.312 186.641 125.104V120.808H187.601V127H186.641V125.992ZM192.992 127C192.52 127 192.172 126.868 191.948 126.604C191.732 126.34 191.624 126 191.624 125.584V121.624H189.56V120.808H191.096C191.304 120.808 191.448 120.768 191.528 120.688C191.616 120.6 191.66 120.452 191.66 120.244V118.624H192.584V120.808H195.404V121.624H192.584V126.184H195.404V127H192.992ZM197.747 120.808H198.707V121.816H198.755C199.155 121.048 199.791 120.664 200.663 120.664C201.423 120.664 202.015 120.948 202.439 121.516C202.871 122.084 203.087 122.88 203.087 123.904C203.087 124.928 202.871 125.724 202.439 126.292C202.015 126.86 201.423 127.144 200.663 127.144C199.791 127.144 199.155 126.76 198.755 125.992H198.707V129.4H197.747V120.808ZM200.291 126.292C200.851 126.292 201.283 126.124 201.587 125.788C201.899 125.444 202.055 124.992 202.055 124.432V123.376C202.055 122.816 201.899 122.368 201.587 122.032C201.283 121.688 200.851 121.516 200.291 121.516C200.075 121.516 199.871 121.544 199.679 121.6C199.487 121.656 199.319 121.74 199.175 121.852C199.031 121.956 198.915 122.088 198.827 122.248C198.747 122.4 198.707 122.58 198.707 122.788V125.02C198.707 125.228 198.747 125.412 198.827 125.572C198.915 125.724 199.031 125.856 199.175 125.968C199.319 126.072 199.487 126.152 199.679 126.208C199.871 126.264 200.075 126.292 200.291 126.292ZM209.187 125.992H209.139C209.075 126.144 208.995 126.292 208.899 126.436C208.803 126.572 208.683 126.692 208.539 126.796C208.403 126.9 208.239 126.984 208.047 127.048C207.855 127.112 207.631 127.144 207.375 127.144C206.727 127.144 206.207 126.94 205.815 126.532C205.423 126.116 205.227 125.532 205.227 124.78V120.808H206.187V124.612C206.187 125.18 206.311 125.604 206.559 125.884C206.807 126.156 207.171 126.292 207.651 126.292C207.843 126.292 208.031 126.268 208.215 126.22C208.399 126.172 208.563 126.1 208.707 126.004C208.851 125.908 208.967 125.788 209.055 125.644C209.143 125.492 209.187 125.312 209.187 125.104V120.808H210.147V127H209.187V125.992ZM215.538 127C215.066 127 214.718 126.868 214.494 126.604C214.278 126.34 214.17 126 214.17 125.584V121.624H212.106V120.808H213.642C213.85 120.808 213.994 120.768 214.074 120.688C214.162 120.6 214.206 120.452 214.206 120.244V118.624H215.13V120.808H217.95V121.624H215.13V126.184H217.95V127H215.538ZM230.268 127.144C229.756 127.144 229.316 127.048 228.948 126.856C228.58 126.656 228.276 126.372 228.036 126.004C227.796 125.636 227.62 125.184 227.508 124.648C227.396 124.112 227.34 123.5 227.34 122.812C227.34 122.132 227.396 121.524 227.508 120.988C227.62 120.444 227.796 119.988 228.036 119.62C228.276 119.252 228.58 118.972 228.948 118.78C229.316 118.58 229.756 118.48 230.268 118.48C230.78 118.48 231.22 118.58 231.588 118.78C231.956 118.972 232.26 119.252 232.5 119.62C232.74 119.988 232.916 120.444 233.028 120.988C233.14 121.524 233.196 122.132 233.196 122.812C233.196 123.5 233.14 124.112 233.028 124.648C232.916 125.184 232.74 125.636 232.5 126.004C232.26 126.372 231.956 126.656 231.588 126.856C231.22 127.048 230.78 127.144 230.268 127.144ZM230.268 126.268C230.604 126.268 230.888 126.204 231.12 126.076C231.352 125.94 231.544 125.752 231.696 125.512C231.848 125.272 231.956 124.984 232.02 124.648C232.092 124.304 232.128 123.92 232.128 123.496V122.128C232.128 121.712 232.092 121.332 232.02 120.988C231.956 120.644 231.848 120.352 231.696 120.112C231.544 119.872 231.352 119.688 231.12 119.56C230.888 119.424 230.604 119.356 230.268 119.356C229.932 119.356 229.648 119.424 229.416 119.56C229.184 119.688 228.992 119.872 228.84 120.112C228.688 120.352 228.576 120.644 228.504 120.988C228.44 121.332 228.408 121.712 228.408 122.128V123.496C228.408 123.92 228.44 124.304 228.504 124.648C228.576 124.984 228.688 125.272 228.84 125.512C228.992 125.752 229.184 125.94 229.416 126.076C229.648 126.204 229.932 126.268 230.268 126.268ZM239.284 125.992H239.236C238.836 126.76 238.2 127.144 237.328 127.144C236.568 127.144 235.972 126.86 235.54 126.292C235.116 125.724 234.904 124.928 234.904 123.904C234.904 122.88 235.116 122.084 235.54 121.516C235.972 120.948 236.568 120.664 237.328 120.664C238.2 120.664 238.836 121.048 239.236 121.816H239.284V118.12H240.244V127H239.284V125.992ZM237.7 126.292C237.916 126.292 238.12 126.264 238.312 126.208C238.504 126.152 238.672 126.072 238.816 125.968C238.96 125.856 239.072 125.724 239.152 125.572C239.24 125.412 239.284 125.228 239.284 125.02V122.788C239.284 122.58 239.24 122.4 239.152 122.248C239.072 122.088 238.96 121.956 238.816 121.852C238.672 121.74 238.504 121.656 238.312 121.6C238.12 121.544 237.916 121.516 237.7 121.516C237.14 121.516 236.704 121.688 236.392 122.032C236.088 122.368 235.936 122.816 235.936 123.376V124.432C235.936 124.992 236.088 125.444 236.392 125.788C236.704 126.124 237.14 126.292 237.7 126.292ZM246.799 125.992H246.751C246.351 126.76 245.715 127.144 244.843 127.144C244.083 127.144 243.487 126.86 243.055 126.292C242.631 125.724 242.419 124.928 242.419 123.904C242.419 122.88 242.631 122.084 243.055 121.516C243.487 120.948 244.083 120.664 244.843 120.664C245.715 120.664 246.351 121.048 246.751 121.816H246.799V118.12H247.759V127H246.799V125.992ZM245.215 126.292C245.431 126.292 245.635 126.264 245.827 126.208C246.019 126.152 246.187 126.072 246.331 125.968C246.475 125.856 246.587 125.724 246.667 125.572C246.755 125.412 246.799 125.228 246.799 125.02V122.788C246.799 122.58 246.755 122.4 246.667 122.248C246.587 122.088 246.475 121.956 246.331 121.852C246.187 121.74 246.019 121.656 245.827 121.6C245.635 121.544 245.431 121.516 245.215 121.516C244.655 121.516 244.219 121.688 243.907 122.032C243.603 122.368 243.451 122.816 243.451 123.376V124.432C243.451 124.992 243.603 125.444 243.907 125.788C244.219 126.124 244.655 126.292 245.215 126.292Z"/><rect width="575" height="170" x=".5" y="1.5" stroke="#DDE1E6"/><path fill="#343A3F" d="M148.942 23.168C148.298 23.168 147.715 23.0653 147.192 22.86C146.679 22.6453 146.235 22.328 145.862 21.908C145.498 21.488 145.218 20.97 145.022 20.354C144.826 19.7287 144.728 19.0053 144.728 18.184C144.728 17.3627 144.826 16.6347 145.022 16C145.218 15.356 145.498 14.8193 145.862 14.39C146.235 13.9513 146.679 13.62 147.192 13.396C147.715 13.172 148.298 13.06 148.942 13.06C149.819 13.06 150.547 13.2467 151.126 13.62C151.705 13.9933 152.167 14.558 152.512 15.314L150.93 16.154C150.79 15.7153 150.561 15.3653 150.244 15.104C149.927 14.8333 149.493 14.698 148.942 14.698C148.251 14.698 147.701 14.9313 147.29 15.398C146.889 15.8647 146.688 16.518 146.688 17.358V18.898C146.688 19.7473 146.889 20.4007 147.29 20.858C147.701 21.306 148.251 21.53 148.942 21.53C149.493 21.53 149.941 21.3807 150.286 21.082C150.641 20.7833 150.897 20.4147 151.056 19.976L152.554 20.858C152.199 21.586 151.728 22.1553 151.14 22.566C150.552 22.9673 149.819 23.168 148.942 23.168ZM157.076 23.168C156.554 23.168 156.082 23.0793 155.662 22.902C155.252 22.7247 154.897 22.468 154.598 22.132C154.309 21.796 154.085 21.3947 153.926 20.928C153.768 20.452 153.688 19.92 153.688 19.332C153.688 18.744 153.768 18.2167 153.926 17.75C154.085 17.2833 154.309 16.8867 154.598 16.56C154.897 16.224 155.252 15.9673 155.662 15.79C156.082 15.6127 156.554 15.524 157.076 15.524C157.599 15.524 158.07 15.6127 158.49 15.79C158.91 15.9673 159.265 16.224 159.554 16.56C159.853 16.8867 160.082 17.2833 160.24 17.75C160.399 18.2167 160.478 18.744 160.478 19.332C160.478 19.92 160.399 20.452 160.24 20.928C160.082 21.3947 159.853 21.796 159.554 22.132C159.265 22.468 158.91 22.7247 158.49 22.902C158.07 23.0793 157.599 23.168 157.076 23.168ZM157.076 21.726C157.552 21.726 157.926 21.5813 158.196 21.292C158.467 21.0027 158.602 20.578 158.602 20.018V18.66C158.602 18.1093 158.467 17.6893 158.196 17.4C157.926 17.1107 157.552 16.966 157.076 16.966C156.61 16.966 156.241 17.1107 155.97 17.4C155.7 17.6893 155.564 18.1093 155.564 18.66V20.018C155.564 20.578 155.7 21.0027 155.97 21.292C156.241 21.5813 156.61 21.726 157.076 21.726ZM162.227 23V15.692H164.019V16.91H164.089C164.229 16.5273 164.453 16.2007 164.761 15.93C165.069 15.6593 165.498 15.524 166.049 15.524C166.553 15.524 166.987 15.6453 167.351 15.888C167.715 16.1307 167.986 16.4993 168.163 16.994H168.191C168.322 16.5833 168.578 16.238 168.961 15.958C169.353 15.6687 169.843 15.524 170.431 15.524C171.15 15.524 171.7 15.7713 172.083 16.266C172.475 16.7607 172.671 17.4653 172.671 18.38V23H170.879V18.562C170.879 17.5167 170.487 16.994 169.703 16.994C169.526 16.994 169.353 17.022 169.185 17.078C169.026 17.1247 168.882 17.1993 168.751 17.302C168.63 17.3953 168.532 17.5167 168.457 17.666C168.382 17.806 168.345 17.974 168.345 18.17V23H166.553V18.562C166.553 17.5167 166.161 16.994 165.377 16.994C165.209 16.994 165.041 17.022 164.873 17.078C164.714 17.1247 164.57 17.1993 164.439 17.302C164.318 17.3953 164.215 17.5167 164.131 17.666C164.056 17.806 164.019 17.974 164.019 18.17V23H162.227ZM174.815 15.692H176.607V16.896H176.663C176.793 16.476 177.041 16.1447 177.405 15.902C177.769 15.65 178.193 15.524 178.679 15.524C179.612 15.524 180.321 15.8553 180.807 16.518C181.301 17.1713 181.549 18.1093 181.549 19.332C181.549 20.564 181.301 21.5113 180.807 22.174C180.321 22.8367 179.612 23.168 178.679 23.168C178.193 23.168 177.769 23.042 177.405 22.79C177.05 22.538 176.803 22.202 176.663 21.782H176.607V25.8H174.815V15.692ZM178.105 21.684C178.571 21.684 178.949 21.53 179.239 21.222C179.528 20.914 179.673 20.4987 179.673 19.976V18.716C179.673 18.1933 179.528 17.778 179.239 17.47C178.949 17.1527 178.571 16.994 178.105 16.994C177.675 16.994 177.316 17.1013 177.027 17.316C176.747 17.5307 176.607 17.8153 176.607 18.17V20.494C176.607 20.8767 176.747 21.1707 177.027 21.376C177.316 21.5813 177.675 21.684 178.105 21.684ZM187.737 21.782H187.667C187.602 21.9687 187.513 22.146 187.401 22.314C187.299 22.4727 187.163 22.6173 186.995 22.748C186.837 22.8787 186.641 22.9813 186.407 23.056C186.183 23.1307 185.922 23.168 185.623 23.168C184.867 23.168 184.289 22.9207 183.887 22.426C183.486 21.9313 183.285 21.2267 183.285 20.312V15.692H185.077V20.13C185.077 20.634 185.175 21.0213 185.371 21.292C185.567 21.5533 185.88 21.684 186.309 21.684C186.487 21.684 186.659 21.6607 186.827 21.614C187.005 21.5673 187.159 21.4973 187.289 21.404C187.42 21.3013 187.527 21.18 187.611 21.04C187.695 20.8907 187.737 20.718 187.737 20.522V15.692H189.529V23H187.737V21.782ZM194.042 23C193.426 23 192.954 22.8413 192.628 22.524C192.31 22.1973 192.152 21.7353 192.152 21.138V17.12H191.074V15.692H191.634C191.904 15.692 192.086 15.6313 192.18 15.51C192.282 15.3793 192.334 15.188 192.334 14.936V13.69H193.944V15.692H195.442V17.12H193.944V21.572H195.33V23H194.042ZM200.055 23.168C199.514 23.168 199.029 23.0793 198.599 22.902C198.179 22.7153 197.82 22.4587 197.521 22.132C197.232 21.796 197.008 21.3947 196.849 20.928C196.691 20.452 196.611 19.92 196.611 19.332C196.611 18.7533 196.686 18.2307 196.835 17.764C196.994 17.2973 197.218 16.9007 197.507 16.574C197.797 16.238 198.151 15.9813 198.571 15.804C198.991 15.6173 199.467 15.524 199.999 15.524C200.569 15.524 201.063 15.622 201.483 15.818C201.903 16.014 202.249 16.28 202.519 16.616C202.79 16.952 202.991 17.344 203.121 17.792C203.261 18.2307 203.331 18.702 203.331 19.206V19.794H198.473V19.976C198.473 20.508 198.623 20.9373 198.921 21.264C199.22 21.5813 199.663 21.74 200.251 21.74C200.699 21.74 201.063 21.6467 201.343 21.46C201.633 21.2733 201.889 21.0353 202.113 20.746L203.079 21.824C202.781 22.244 202.37 22.5753 201.847 22.818C201.334 23.0513 200.737 23.168 200.055 23.168ZM200.027 16.868C199.551 16.868 199.173 17.0267 198.893 17.344C198.613 17.6613 198.473 18.072 198.473 18.576V18.688H201.469V18.562C201.469 18.058 201.343 17.652 201.091 17.344C200.849 17.0267 200.494 16.868 200.027 16.868ZM205.068 23V15.692H206.86V17.204H206.93C206.977 17.008 207.047 16.8213 207.14 16.644C207.243 16.4573 207.373 16.294 207.532 16.154C207.691 16.014 207.877 15.902 208.092 15.818C208.316 15.734 208.573 15.692 208.862 15.692H209.254V17.386H208.694C208.087 17.386 207.63 17.4747 207.322 17.652C207.014 17.8293 206.86 18.1187 206.86 18.52V23H205.068ZM214.557 17.106H213.479V15.692H214.557V14.642C214.557 13.998 214.725 13.5033 215.061 13.158C215.406 12.8127 215.91 12.64 216.573 12.64H217.847V14.068H216.349V15.692H217.847V17.106H216.349V23H214.557V17.106ZM222.091 23.168C221.568 23.168 221.097 23.0793 220.677 22.902C220.266 22.7247 219.911 22.468 219.613 22.132C219.323 21.796 219.099 21.3947 218.941 20.928C218.782 20.452 218.703 19.92 218.703 19.332C218.703 18.744 218.782 18.2167 218.941 17.75C219.099 17.2833 219.323 16.8867 219.613 16.56C219.911 16.224 220.266 15.9673 220.677 15.79C221.097 15.6127 221.568 15.524 222.091 15.524C222.613 15.524 223.085 15.6127 223.505 15.79C223.925 15.9673 224.279 16.224 224.569 16.56C224.867 16.8867 225.096 17.2833 225.255 17.75C225.413 18.2167 225.493 18.744 225.493 19.332C225.493 19.92 225.413 20.452 225.255 20.928C225.096 21.3947 224.867 21.796 224.569 22.132C224.279 22.468 223.925 22.7247 223.505 22.902C223.085 23.0793 222.613 23.168 222.091 23.168ZM222.091 21.726C222.567 21.726 222.94 21.5813 223.211 21.292C223.481 21.0027 223.617 20.578 223.617 20.018V18.66C223.617 18.1093 223.481 17.6893 223.211 17.4C222.94 17.1107 222.567 16.966 222.091 16.966C221.624 16.966 221.255 17.1107 220.985 17.4C220.714 17.6893 220.579 18.1093 220.579 18.66V20.018C220.579 20.578 220.714 21.0027 220.985 21.292C221.255 21.5813 221.624 21.726 222.091 21.726ZM229.033 23C228.417 23 227.965 22.846 227.675 22.538C227.386 22.23 227.241 21.796 227.241 21.236V12.64H229.033V21.572H229.999V23H229.033ZM233.213 23C232.597 23 232.144 22.846 231.855 22.538C231.566 22.23 231.421 21.796 231.421 21.236V12.64H233.213V21.572H234.179V23H233.213ZM238.594 23.168C238.071 23.168 237.6 23.0793 237.18 22.902C236.769 22.7247 236.415 22.468 236.116 22.132C235.827 21.796 235.603 21.3947 235.444 20.928C235.285 20.452 235.206 19.92 235.206 19.332C235.206 18.744 235.285 18.2167 235.444 17.75C235.603 17.2833 235.827 16.8867 236.116 16.56C236.415 16.224 236.769 15.9673 237.18 15.79C237.6 15.6127 238.071 15.524 238.594 15.524C239.117 15.524 239.588 15.6127 240.008 15.79C240.428 15.9673 240.783 16.224 241.072 16.56C241.371 16.8867 241.599 17.2833 241.758 17.75C241.917 18.2167 241.996 18.744 241.996 19.332C241.996 19.92 241.917 20.452 241.758 20.928C241.599 21.3947 241.371 21.796 241.072 22.132C240.783 22.468 240.428 22.7247 240.008 22.902C239.588 23.0793 239.117 23.168 238.594 23.168ZM238.594 21.726C239.07 21.726 239.443 21.5813 239.714 21.292C239.985 21.0027 240.12 20.578 240.12 20.018V18.66C240.12 18.1093 239.985 17.6893 239.714 17.4C239.443 17.1107 239.07 16.966 238.594 16.966C238.127 16.966 237.759 17.1107 237.488 17.4C237.217 17.6893 237.082 18.1093 237.082 18.66V20.018C237.082 20.578 237.217 21.0027 237.488 21.292C237.759 21.5813 238.127 21.726 238.594 21.726ZM242.908 15.692H244.63L245.372 18.702L245.946 21.208H246.002L246.674 18.702L247.528 15.692H249.152L250.034 18.702L250.72 21.208H250.776L251.35 18.702L252.078 15.692H253.744L251.742 23H249.81L248.872 19.78L248.326 17.792H248.284L247.752 19.78L246.828 23H244.924L242.908 15.692ZM257.605 23.168C256.905 23.168 256.317 23.0513 255.841 22.818C255.365 22.5753 254.945 22.244 254.581 21.824L255.673 20.76C255.944 21.068 256.238 21.3107 256.555 21.488C256.882 21.6653 257.255 21.754 257.675 21.754C258.105 21.754 258.413 21.6793 258.599 21.53C258.795 21.3807 258.893 21.1753 258.893 20.914C258.893 20.6993 258.823 20.5313 258.683 20.41C258.553 20.2793 258.324 20.1907 257.997 20.144L257.269 20.046C256.476 19.9433 255.869 19.7193 255.449 19.374C255.039 19.0193 254.833 18.506 254.833 17.834C254.833 17.4793 254.899 17.162 255.029 16.882C255.16 16.5927 255.347 16.35 255.589 16.154C255.832 15.9487 256.121 15.7947 256.457 15.692C256.803 15.58 257.185 15.524 257.605 15.524C257.96 15.524 258.273 15.552 258.543 15.608C258.823 15.6547 259.075 15.7293 259.299 15.832C259.523 15.9253 259.729 16.0467 259.915 16.196C260.102 16.336 260.284 16.4947 260.461 16.672L259.411 17.722C259.197 17.498 258.94 17.3113 258.641 17.162C258.343 17.0127 258.016 16.938 257.661 16.938C257.269 16.938 256.985 17.008 256.807 17.148C256.639 17.288 256.555 17.47 256.555 17.694C256.555 17.9367 256.625 18.1233 256.765 18.254C256.915 18.3753 257.162 18.464 257.507 18.52L258.249 18.618C259.827 18.842 260.615 19.5607 260.615 20.774C260.615 21.1287 260.541 21.4553 260.391 21.754C260.251 22.0433 260.051 22.2953 259.789 22.51C259.528 22.7153 259.211 22.8787 258.837 23C258.473 23.112 258.063 23.168 257.605 23.168ZM271.202 23C270.81 23 270.498 22.888 270.264 22.664C270.04 22.4307 269.9 22.1227 269.844 21.74H269.76C269.639 22.216 269.392 22.5753 269.018 22.818C268.645 23.0513 268.183 23.168 267.632 23.168C266.886 23.168 266.312 22.972 265.91 22.58C265.509 22.188 265.308 21.6653 265.308 21.012C265.308 20.256 265.579 19.696 266.12 19.332C266.662 18.9587 267.432 18.772 268.43 18.772H269.676V18.24C269.676 17.8293 269.569 17.512 269.354 17.288C269.14 17.064 268.794 16.952 268.318 16.952C267.898 16.952 267.558 17.0453 267.296 17.232C267.044 17.4093 266.83 17.624 266.652 17.876L265.588 16.924C265.859 16.504 266.218 16.168 266.666 15.916C267.114 15.6547 267.707 15.524 268.444 15.524C269.434 15.524 270.185 15.748 270.698 16.196C271.212 16.644 271.468 17.288 271.468 18.128V21.572H272.196V23H271.202ZM268.234 21.866C268.636 21.866 268.976 21.7773 269.256 21.6C269.536 21.4227 269.676 21.1613 269.676 20.816V19.85H268.528C267.595 19.85 267.128 20.1487 267.128 20.746V20.984C267.128 21.2827 267.222 21.5067 267.408 21.656C267.604 21.796 267.88 21.866 268.234 21.866ZM275.599 23C274.983 23 274.53 22.846 274.241 22.538C273.951 22.23 273.807 21.796 273.807 21.236V12.64H275.599V21.572H276.565V23H275.599ZM284.676 23.616C284.676 23.9987 284.606 24.3347 284.466 24.624C284.335 24.9227 284.116 25.17 283.808 25.366C283.5 25.562 283.103 25.7113 282.618 25.814C282.133 25.9167 281.54 25.968 280.84 25.968C280.224 25.968 279.701 25.926 279.272 25.842C278.843 25.7673 278.488 25.6553 278.208 25.506C277.937 25.366 277.741 25.1887 277.62 24.974C277.499 24.7593 277.438 24.5167 277.438 24.246C277.438 23.8353 277.55 23.5133 277.774 23.28C278.007 23.056 278.329 22.9113 278.74 22.846V22.692C278.441 22.6173 278.208 22.4727 278.04 22.258C277.881 22.034 277.802 21.7727 277.802 21.474C277.802 21.2873 277.839 21.124 277.914 20.984C277.989 20.8347 278.087 20.7087 278.208 20.606C278.339 20.5033 278.483 20.4193 278.642 20.354C278.801 20.2793 278.969 20.2233 279.146 20.186V20.13C278.698 19.9247 278.362 19.64 278.138 19.276C277.923 18.912 277.816 18.4873 277.816 18.002C277.816 17.2553 278.073 16.658 278.586 16.21C279.099 15.7527 279.851 15.524 280.84 15.524C281.064 15.524 281.283 15.538 281.498 15.566C281.722 15.594 281.927 15.6407 282.114 15.706V15.468C282.114 14.7587 282.459 14.404 283.15 14.404H284.284V15.776H282.73V15.972C283.113 16.1867 283.397 16.4667 283.584 16.812C283.771 17.1573 283.864 17.554 283.864 18.002C283.864 18.7393 283.607 19.332 283.094 19.78C282.59 20.228 281.839 20.452 280.84 20.452C280.411 20.452 280.037 20.41 279.72 20.326C279.58 20.3913 279.459 20.48 279.356 20.592C279.253 20.6947 279.202 20.8253 279.202 20.984C279.202 21.348 279.519 21.53 280.154 21.53H282.114C283.01 21.53 283.659 21.7167 284.06 22.09C284.471 22.454 284.676 22.9627 284.676 23.616ZM282.996 23.826C282.996 23.5927 282.903 23.4107 282.716 23.28C282.529 23.1493 282.207 23.084 281.75 23.084H279.258C279.006 23.2707 278.88 23.5227 278.88 23.84C278.88 24.12 278.997 24.3393 279.23 24.498C279.463 24.6567 279.86 24.736 280.42 24.736H281.316C281.904 24.736 282.329 24.6613 282.59 24.512C282.861 24.3627 282.996 24.134 282.996 23.826ZM280.84 19.234C281.717 19.234 282.156 18.8607 282.156 18.114V17.876C282.156 17.1293 281.717 16.756 280.84 16.756C279.963 16.756 279.524 17.1293 279.524 17.876V18.114C279.524 18.8607 279.963 19.234 280.84 19.234ZM288.687 23.168C288.164 23.168 287.693 23.0793 287.273 22.902C286.862 22.7247 286.507 22.468 286.209 22.132C285.919 21.796 285.695 21.3947 285.537 20.928C285.378 20.452 285.299 19.92 285.299 19.332C285.299 18.744 285.378 18.2167 285.537 17.75C285.695 17.2833 285.919 16.8867 286.209 16.56C286.507 16.224 286.862 15.9673 287.273 15.79C287.693 15.6127 288.164 15.524 288.687 15.524C289.209 15.524 289.681 15.6127 290.101 15.79C290.521 15.9673 290.875 16.224 291.165 16.56C291.463 16.8867 291.692 17.2833 291.851 17.75C292.009 18.2167 292.089 18.744 292.089 19.332C292.089 19.92 292.009 20.452 291.851 20.928C291.692 21.3947 291.463 21.796 291.165 22.132C290.875 22.468 290.521 22.7247 290.101 22.902C289.681 23.0793 289.209 23.168 288.687 23.168ZM288.687 21.726C289.163 21.726 289.536 21.5813 289.807 21.292C290.077 21.0027 290.213 20.578 290.213 20.018V18.66C290.213 18.1093 290.077 17.6893 289.807 17.4C289.536 17.1107 289.163 16.966 288.687 16.966C288.22 16.966 287.851 17.1107 287.581 17.4C287.31 17.6893 287.175 18.1093 287.175 18.66V20.018C287.175 20.578 287.31 21.0027 287.581 21.292C287.851 21.5813 288.22 21.726 288.687 21.726ZM293.837 23V15.692H295.629V17.204H295.699C295.746 17.008 295.816 16.8213 295.909 16.644C296.012 16.4573 296.143 16.294 296.301 16.154C296.46 16.014 296.647 15.902 296.861 15.818C297.085 15.734 297.342 15.692 297.631 15.692H298.023V17.386H297.463C296.857 17.386 296.399 17.4747 296.091 17.652C295.783 17.8293 295.629 18.1187 295.629 18.52V23H293.837ZM300.39 14.628C300.016 14.628 299.746 14.544 299.578 14.376C299.419 14.208 299.34 13.9933 299.34 13.732V13.452C299.34 13.1907 299.419 12.976 299.578 12.808C299.746 12.64 300.016 12.556 300.39 12.556C300.754 12.556 301.02 12.64 301.188 12.808C301.356 12.976 301.44 13.1907 301.44 13.452V13.732C301.44 13.9933 301.356 14.208 301.188 14.376C301.02 14.544 300.754 14.628 300.39 14.628ZM299.494 15.692H301.286V23H299.494V15.692ZM305.805 23C305.189 23 304.717 22.8413 304.391 22.524C304.073 22.1973 303.915 21.7353 303.915 21.138V17.12H302.837V15.692H303.397C303.667 15.692 303.849 15.6313 303.943 15.51C304.045 15.3793 304.097 15.188 304.097 14.936V13.69H305.707V15.692H307.205V17.12H305.707V21.572H307.093V23H305.805ZM308.919 12.64H310.711V16.91H310.781C310.93 16.518 311.164 16.1913 311.481 15.93C311.808 15.6593 312.256 15.524 312.825 15.524C313.581 15.524 314.16 15.7713 314.561 16.266C314.962 16.7607 315.163 17.4653 315.163 18.38V23H313.371V18.562C313.371 18.0393 313.278 17.6473 313.091 17.386C312.904 17.1247 312.596 16.994 312.167 16.994C311.98 16.994 311.798 17.022 311.621 17.078C311.453 17.1247 311.299 17.1993 311.159 17.302C311.028 17.3953 310.921 17.5167 310.837 17.666C310.753 17.806 310.711 17.974 310.711 18.17V23H308.919V12.64ZM317.309 23V15.692H319.101V16.91H319.171C319.311 16.5273 319.535 16.2007 319.843 15.93C320.151 15.6593 320.581 15.524 321.131 15.524C321.635 15.524 322.069 15.6453 322.433 15.888C322.797 16.1307 323.068 16.4993 323.245 16.994H323.273C323.404 16.5833 323.661 16.238 324.043 15.958C324.435 15.6687 324.925 15.524 325.513 15.524C326.232 15.524 326.783 15.7713 327.165 16.266C327.557 16.7607 327.753 17.4653 327.753 18.38V23H325.961V18.562C325.961 17.5167 325.569 16.994 324.785 16.994C324.608 16.994 324.435 17.022 324.267 17.078C324.109 17.1247 323.964 17.1993 323.833 17.302C323.712 17.3953 323.614 17.5167 323.539 17.666C323.465 17.806 323.427 17.974 323.427 18.17V23H321.635V18.562C321.635 17.5167 321.243 16.994 320.459 16.994C320.291 16.994 320.123 17.022 319.955 17.078C319.797 17.1247 319.652 17.1993 319.521 17.302C319.4 17.3953 319.297 17.5167 319.213 17.666C319.139 17.806 319.101 17.974 319.101 18.17V23H317.309Z"/><path fill="#121619" d="M468.984 23.168C468.34 23.168 467.757 23.0607 467.234 22.846C466.711 22.6313 466.263 22.3093 465.89 21.88C465.526 21.4507 465.241 20.9233 465.036 20.298C464.831 19.6727 464.728 18.9447 464.728 18.114C464.728 17.2927 464.831 16.5693 465.036 15.944C465.241 15.3093 465.526 14.7773 465.89 14.348C466.263 13.9187 466.711 13.5967 467.234 13.382C467.757 13.1673 468.34 13.06 468.984 13.06C469.628 13.06 470.211 13.1673 470.734 13.382C471.257 13.5967 471.705 13.9187 472.078 14.348C472.451 14.7773 472.736 15.3093 472.932 15.944C473.137 16.5693 473.24 17.2927 473.24 18.114C473.24 18.9447 473.137 19.6727 472.932 20.298C472.736 20.9233 472.451 21.4507 472.078 21.88C471.705 22.3093 471.257 22.6313 470.734 22.846C470.211 23.0607 469.628 23.168 468.984 23.168ZM468.984 21.53C469.684 21.53 470.239 21.2967 470.65 20.83C471.07 20.3633 471.28 19.71 471.28 18.87V17.358C471.28 16.518 471.07 15.8647 470.65 15.398C470.239 14.9313 469.684 14.698 468.984 14.698C468.284 14.698 467.724 14.9313 467.304 15.398C466.893 15.8647 466.688 16.518 466.688 17.358V18.87C466.688 19.71 466.893 20.3633 467.304 20.83C467.724 21.2967 468.284 21.53 468.984 21.53ZM479.531 21.782H479.461C479.395 21.9687 479.307 22.146 479.195 22.314C479.092 22.4727 478.957 22.6173 478.789 22.748C478.63 22.8787 478.434 22.9813 478.201 23.056C477.977 23.1307 477.715 23.168 477.417 23.168C476.661 23.168 476.082 22.9207 475.681 22.426C475.279 21.9313 475.079 21.2267 475.079 20.312V15.692H476.871V20.13C476.871 20.634 476.969 21.0213 477.165 21.292C477.361 21.5533 477.673 21.684 478.103 21.684C478.28 21.684 478.453 21.6607 478.621 21.614C478.798 21.5673 478.952 21.4973 479.083 21.404C479.213 21.3013 479.321 21.18 479.405 21.04C479.489 20.8907 479.531 20.718 479.531 20.522V15.692H481.323V23H479.531V21.782ZM485.835 23C485.219 23 484.748 22.8413 484.421 22.524C484.104 22.1973 483.945 21.7353 483.945 21.138V17.12H482.867V15.692H483.427C483.698 15.692 483.88 15.6313 483.973 15.51C484.076 15.3793 484.127 15.188 484.127 14.936V13.69H485.737V15.692H487.235V17.12H485.737V21.572H487.123V23H485.835ZM488.95 15.692H490.742V16.896H490.798C490.928 16.476 491.176 16.1447 491.54 15.902C491.904 15.65 492.328 15.524 492.814 15.524C493.747 15.524 494.456 15.8553 494.942 16.518C495.436 17.1713 495.684 18.1093 495.684 19.332C495.684 20.564 495.436 21.5113 494.942 22.174C494.456 22.8367 493.747 23.168 492.814 23.168C492.328 23.168 491.904 23.042 491.54 22.79C491.185 22.538 490.938 22.202 490.798 21.782H490.742V25.8H488.95V15.692ZM492.24 21.684C492.706 21.684 493.084 21.53 493.374 21.222C493.663 20.914 493.808 20.4987 493.808 19.976V18.716C493.808 18.1933 493.663 17.778 493.374 17.47C493.084 17.1527 492.706 16.994 492.24 16.994C491.81 16.994 491.451 17.1013 491.162 17.316C490.882 17.5307 490.742 17.8153 490.742 18.17V20.494C490.742 20.8767 490.882 21.1707 491.162 21.376C491.451 21.5813 491.81 21.684 492.24 21.684ZM501.872 21.782H501.802C501.737 21.9687 501.648 22.146 501.536 22.314C501.433 22.4727 501.298 22.6173 501.13 22.748C500.971 22.8787 500.775 22.9813 500.542 23.056C500.318 23.1307 500.057 23.168 499.758 23.168C499.002 23.168 498.423 22.9207 498.022 22.426C497.621 21.9313 497.42 21.2267 497.42 20.312V15.692H499.212V20.13C499.212 20.634 499.31 21.0213 499.506 21.292C499.702 21.5533 500.015 21.684 500.444 21.684C500.621 21.684 500.794 21.6607 500.962 21.614C501.139 21.5673 501.293 21.4973 501.424 21.404C501.555 21.3013 501.662 21.18 501.746 21.04C501.83 20.8907 501.872 20.718 501.872 20.522V15.692H503.664V23H501.872V21.782ZM508.177 23C507.561 23 507.089 22.8413 506.763 22.524C506.445 22.1973 506.287 21.7353 506.287 21.138V17.12H505.209V15.692H505.769C506.039 15.692 506.221 15.6313 506.315 15.51C506.417 15.3793 506.469 15.188 506.469 14.936V13.69H508.079V15.692H509.577V17.12H508.079V21.572H509.465V23H508.177Z"/><path fill="#121619" d="M17.742 23V21.516H19.03V14.712H17.742V13.228H22.18V14.712H20.878V21.516H22.18V23H17.742ZM24.1159 23V15.692H25.9079V16.91H25.9779C26.1273 16.518 26.3606 16.1913 26.6779 15.93C27.0046 15.6593 27.4526 15.524 28.0219 15.524C28.7779 15.524 29.3566 15.7713 29.7579 16.266C30.1593 16.7607 30.3599 17.4653 30.3599 18.38V23H28.5679V18.562C28.5679 18.0393 28.4746 17.6473 28.2879 17.386C28.1013 17.1247 27.7933 16.994 27.3639 16.994C27.1773 16.994 26.9953 17.022 26.8179 17.078C26.6499 17.1247 26.4959 17.1993 26.3559 17.302C26.2253 17.3953 26.1179 17.5167 26.0339 17.666C25.9499 17.806 25.9079 17.974 25.9079 18.17V23H24.1159ZM32.5064 15.692H34.2984V16.896H34.3544C34.4851 16.476 34.7324 16.1447 35.0964 15.902C35.4604 15.65 35.8851 15.524 36.3704 15.524C37.3037 15.524 38.0131 15.8553 38.4984 16.518C38.9931 17.1713 39.2404 18.1093 39.2404 19.332C39.2404 20.564 38.9931 21.5113 38.4984 22.174C38.0131 22.8367 37.3037 23.168 36.3704 23.168C35.8851 23.168 35.4604 23.042 35.0964 22.79C34.7417 22.538 34.4944 22.202 34.3544 21.782H34.2984V25.8H32.5064V15.692ZM35.7964 21.684C36.2631 21.684 36.6411 21.53 36.9304 21.222C37.2197 20.914 37.3644 20.4987 37.3644 19.976V18.716C37.3644 18.1933 37.2197 17.778 36.9304 17.47C36.6411 17.1527 36.2631 16.994 35.7964 16.994C35.3671 16.994 35.0077 17.1013 34.7184 17.316C34.4384 17.5307 34.2984 17.8153 34.2984 18.17V20.494C34.2984 20.8767 34.4384 21.1707 34.7184 21.376C35.0077 21.5813 35.3671 21.684 35.7964 21.684ZM45.4289 21.782H45.3589C45.2936 21.9687 45.2049 22.146 45.0929 22.314C44.9903 22.4727 44.8549 22.6173 44.6869 22.748C44.5283 22.8787 44.3323 22.9813 44.0989 23.056C43.8749 23.1307 43.6136 23.168 43.3149 23.168C42.5589 23.168 41.9803 22.9207 41.5789 22.426C41.1776 21.9313 40.9769 21.2267 40.9769 20.312V15.692H42.7689V20.13C42.7689 20.634 42.8669 21.0213 43.0629 21.292C43.2589 21.5533 43.5716 21.684 44.0009 21.684C44.1783 21.684 44.3509 21.6607 44.5189 21.614C44.6963 21.5673 44.8503 21.4973 44.9809 21.404C45.1116 21.3013 45.2189 21.18 45.3029 21.04C45.3869 20.8907 45.4289 20.718 45.4289 20.522V15.692H47.2209V23H45.4289V21.782ZM51.7334 23C51.1174 23 50.6461 22.8413 50.3194 22.524C50.0021 22.1973 49.8434 21.7353 49.8434 21.138V17.12H48.7654V15.692H49.3254C49.5961 15.692 49.7781 15.6313 49.8714 15.51C49.9741 15.3793 50.0254 15.188 50.0254 14.936V13.69H51.6354V15.692H53.1334V17.12H51.6354V21.572H53.0214V23H51.7334Z"/><line x1="128.5" x2="128.5" y2="171" stroke="#DDE1E6"/><line x1="448.5" x2="448.5" y1="1" y2="172" stroke="#DDE1E6"/></svg>