<svg xmlns="http://www.w3.org/2000/svg" width="576" height="171" fill="none" viewBox="0 0 576 171"><rect width="127" height="170" x="448" fill="#F2F4F8" opacity=".4"/><rect width="127" height="170" x="1" fill="#F2F4F8" opacity=".4"/><path fill="#343A3F" d="M23.012 54.5H19.268L19.028 57.704H19.112C19.32 57.424 19.552 57.204 19.808 57.044C20.064 56.876 20.416 56.792 20.864 56.792C21.232 56.792 21.568 56.852 21.872 56.972C22.184 57.084 22.452 57.252 22.676 57.476C22.9 57.7 23.076 57.972 23.204 58.292C23.332 58.604 23.396 58.964 23.396 59.372C23.396 59.78 23.332 60.156 23.204 60.5C23.076 60.836 22.888 61.128 22.64 61.376C22.392 61.616 22.092 61.804 21.74 61.94C21.388 62.076 20.988 62.144 20.54 62.144C20.188 62.144 19.872 62.104 19.592 62.024C19.32 61.944 19.076 61.836 18.86 61.7C18.652 61.564 18.468 61.412 18.308 61.244C18.148 61.076 18.004 60.9 17.876 60.716L18.632 60.14C18.744 60.308 18.856 60.46 18.968 60.596C19.088 60.732 19.224 60.852 19.376 60.956C19.528 61.052 19.7 61.128 19.892 61.184C20.084 61.24 20.308 61.268 20.564 61.268C21.14 61.268 21.58 61.112 21.884 60.8C22.196 60.488 22.352 60.056 22.352 59.504V59.408C22.352 58.856 22.196 58.424 21.884 58.112C21.572 57.8 21.124 57.644 20.54 57.644C20.14 57.644 19.828 57.712 19.604 57.848C19.388 57.984 19.188 58.152 19.004 58.352L18.152 58.232L18.452 53.624H23.012V54.5ZM28.1273 62.144C27.6873 62.144 27.2913 62.072 26.9393 61.928C26.5873 61.776 26.2873 61.564 26.0393 61.292C25.7993 61.012 25.6113 60.672 25.4753 60.272C25.3473 59.872 25.2833 59.424 25.2833 58.928C25.2833 58.304 25.3753 57.72 25.5593 57.176C25.7513 56.624 25.9913 56.124 26.2793 55.676C26.5753 55.22 26.9033 54.82 27.2633 54.476C27.6233 54.124 27.9753 53.84 28.3193 53.624H29.6153C29.1593 53.952 28.7513 54.272 28.3913 54.584C28.0393 54.896 27.7273 55.224 27.4553 55.568C27.1833 55.904 26.9553 56.268 26.7713 56.66C26.5873 57.044 26.4353 57.48 26.3153 57.968L26.3753 57.992C26.5753 57.648 26.8393 57.364 27.1673 57.14C27.4953 56.908 27.9193 56.792 28.4393 56.792C28.8073 56.792 29.1433 56.852 29.4473 56.972C29.7513 57.092 30.0153 57.264 30.2393 57.488C30.4633 57.712 30.6353 57.984 30.7553 58.304C30.8833 58.624 30.9473 58.98 30.9473 59.372C30.9473 59.78 30.8793 60.156 30.7433 60.5C30.6073 60.836 30.4153 61.128 30.1673 61.376C29.9273 61.616 29.6313 61.804 29.2793 61.94C28.9353 62.076 28.5513 62.144 28.1273 62.144ZM28.1153 61.292C28.6913 61.292 29.1353 61.136 29.4473 60.824C29.7673 60.512 29.9273 60.072 29.9273 59.504V59.408C29.9273 58.84 29.7673 58.4 29.4473 58.088C29.1353 57.776 28.6913 57.62 28.1153 57.62C27.5393 57.62 27.0913 57.776 26.7713 58.088C26.4593 58.4 26.3033 58.84 26.3033 59.408V59.504C26.3033 60.072 26.4593 60.512 26.7713 60.824C27.0913 61.136 27.5393 61.292 28.1153 61.292ZM34.1066 62L37.3826 54.488H33.7106V56.048H32.8106V53.624H38.4026V54.512L35.1866 62H34.1066ZM45.9899 62H40.3979V60.968L43.1939 58.448C43.6019 58.08 43.9379 57.704 44.2019 57.32C44.4659 56.928 44.5979 56.516 44.5979 56.084V55.94C44.5979 55.436 44.4659 55.048 44.2019 54.776C43.9379 54.496 43.5459 54.356 43.0259 54.356C42.5139 54.356 42.1179 54.488 41.8379 54.752C41.5659 55.008 41.3619 55.352 41.2259 55.784L40.3259 55.448C40.4059 55.2 40.5139 54.96 40.6499 54.728C40.7939 54.488 40.9739 54.276 41.1899 54.092C41.4059 53.908 41.6659 53.76 41.9699 53.648C42.2819 53.536 42.6419 53.48 43.0499 53.48C43.4659 53.48 43.8339 53.54 44.1539 53.66C44.4819 53.78 44.7539 53.948 44.9699 54.164C45.1939 54.38 45.3619 54.636 45.4739 54.932C45.5939 55.228 45.6539 55.552 45.6539 55.904C45.6539 56.224 45.6059 56.524 45.5099 56.804C45.4219 57.084 45.2939 57.352 45.1259 57.608C44.9659 57.864 44.7699 58.116 44.5379 58.364C44.3139 58.604 44.0619 58.844 43.7819 59.084L41.4419 61.124H45.9899V62Z"/><path fill="#343A3F" d="M470.012 54.5H466.268L466.028 57.704H466.112C466.32 57.424 466.552 57.204 466.808 57.044C467.064 56.876 467.416 56.792 467.864 56.792C468.232 56.792 468.568 56.852 468.872 56.972C469.184 57.084 469.452 57.252 469.676 57.476C469.9 57.7 470.076 57.972 470.204 58.292C470.332 58.604 470.396 58.964 470.396 59.372C470.396 59.78 470.332 60.156 470.204 60.5C470.076 60.836 469.888 61.128 469.64 61.376C469.392 61.616 469.092 61.804 468.74 61.94C468.388 62.076 467.988 62.144 467.54 62.144C467.188 62.144 466.872 62.104 466.592 62.024C466.32 61.944 466.076 61.836 465.86 61.7C465.652 61.564 465.468 61.412 465.308 61.244C465.148 61.076 465.004 60.9 464.876 60.716L465.632 60.14C465.744 60.308 465.856 60.46 465.968 60.596C466.088 60.732 466.224 60.852 466.376 60.956C466.528 61.052 466.7 61.128 466.892 61.184C467.084 61.24 467.308 61.268 467.564 61.268C468.14 61.268 468.58 61.112 468.884 60.8C469.196 60.488 469.352 60.056 469.352 59.504V59.408C469.352 58.856 469.196 58.424 468.884 58.112C468.572 57.8 468.124 57.644 467.54 57.644C467.14 57.644 466.828 57.712 466.604 57.848C466.388 57.984 466.188 58.152 466.004 58.352L465.152 58.232L465.452 53.624H470.012V54.5ZM475.127 62.144C474.687 62.144 474.291 62.072 473.939 61.928C473.587 61.776 473.287 61.564 473.039 61.292C472.799 61.012 472.611 60.672 472.475 60.272C472.347 59.872 472.283 59.424 472.283 58.928C472.283 58.304 472.375 57.72 472.559 57.176C472.751 56.624 472.991 56.124 473.279 55.676C473.575 55.22 473.903 54.82 474.263 54.476C474.623 54.124 474.975 53.84 475.319 53.624H476.615C476.159 53.952 475.751 54.272 475.391 54.584C475.039 54.896 474.727 55.224 474.455 55.568C474.183 55.904 473.955 56.268 473.771 56.66C473.587 57.044 473.435 57.48 473.315 57.968L473.375 57.992C473.575 57.648 473.839 57.364 474.167 57.14C474.495 56.908 474.919 56.792 475.439 56.792C475.807 56.792 476.143 56.852 476.447 56.972C476.751 57.092 477.015 57.264 477.239 57.488C477.463 57.712 477.635 57.984 477.755 58.304C477.883 58.624 477.947 58.98 477.947 59.372C477.947 59.78 477.879 60.156 477.743 60.5C477.607 60.836 477.415 61.128 477.167 61.376C476.927 61.616 476.631 61.804 476.279 61.94C475.935 62.076 475.551 62.144 475.127 62.144ZM475.115 61.292C475.691 61.292 476.135 61.136 476.447 60.824C476.767 60.512 476.927 60.072 476.927 59.504V59.408C476.927 58.84 476.767 58.4 476.447 58.088C476.135 57.776 475.691 57.62 475.115 57.62C474.539 57.62 474.091 57.776 473.771 58.088C473.459 58.4 473.303 58.84 473.303 59.408V59.504C473.303 60.072 473.459 60.512 473.771 60.824C474.091 61.136 474.539 61.292 475.115 61.292ZM481.107 62L484.383 54.488H480.711V56.048H479.811V53.624H485.403V54.512L482.187 62H481.107ZM492.99 62H487.398V60.968L490.194 58.448C490.602 58.08 490.938 57.704 491.202 57.32C491.466 56.928 491.598 56.516 491.598 56.084V55.94C491.598 55.436 491.466 55.048 491.202 54.776C490.938 54.496 490.546 54.356 490.026 54.356C489.514 54.356 489.118 54.488 488.838 54.752C488.566 55.008 488.362 55.352 488.226 55.784L487.326 55.448C487.406 55.2 487.514 54.96 487.65 54.728C487.794 54.488 487.974 54.276 488.19 54.092C488.406 53.908 488.666 53.76 488.97 53.648C489.282 53.536 489.642 53.48 490.05 53.48C490.466 53.48 490.834 53.54 491.154 53.66C491.482 53.78 491.754 53.948 491.97 54.164C492.194 54.38 492.362 54.636 492.474 54.932C492.594 55.228 492.654 55.552 492.654 55.904C492.654 56.224 492.606 56.524 492.51 56.804C492.422 57.084 492.294 57.352 492.126 57.608C491.966 57.864 491.77 58.116 491.538 58.364C491.314 58.604 491.062 58.844 490.782 59.084L488.442 61.124H492.99V62Z"/><path fill="#121619" d="M147.816 62.144C147.368 62.144 146.968 62.068 146.616 61.916C146.272 61.756 145.98 61.536 145.74 61.256C145.5 60.976 145.316 60.636 145.188 60.236C145.068 59.836 145.008 59.392 145.008 58.904C145.008 58.416 145.072 57.972 145.2 57.572C145.328 57.172 145.512 56.832 145.752 56.552C145.992 56.264 146.284 56.044 146.628 55.892C146.972 55.74 147.364 55.664 147.804 55.664C148.404 55.664 148.892 55.796 149.268 56.06C149.644 56.324 149.92 56.668 150.096 57.092L149.328 57.5C149.216 57.18 149.028 56.932 148.764 56.756C148.508 56.58 148.188 56.492 147.804 56.492C147.524 56.492 147.272 56.54 147.048 56.636C146.832 56.724 146.648 56.852 146.496 57.02C146.344 57.188 146.228 57.388 146.148 57.62C146.076 57.852 146.04 58.104 146.04 58.376V59.432C146.04 59.704 146.076 59.956 146.148 60.188C146.228 60.42 146.344 60.62 146.496 60.788C146.648 60.956 146.836 61.088 147.06 61.184C147.284 61.272 147.54 61.316 147.828 61.316C148.244 61.316 148.588 61.22 148.86 61.028C149.132 60.836 149.348 60.572 149.508 60.236L150.192 60.704C150.008 61.12 149.72 61.464 149.328 61.736C148.944 62.008 148.44 62.144 147.816 62.144ZM152.691 53.12H153.651V56.816H153.699C153.763 56.664 153.843 56.52 153.939 56.384C154.035 56.24 154.151 56.116 154.287 56.012C154.431 55.908 154.599 55.824 154.791 55.76C154.983 55.696 155.207 55.664 155.463 55.664C156.111 55.664 156.631 55.872 157.023 56.288C157.415 56.696 157.611 57.276 157.611 58.028V62H156.651V58.196C156.651 57.628 156.527 57.208 156.279 56.936C156.031 56.656 155.667 56.516 155.187 56.516C154.995 56.516 154.807 56.54 154.623 56.588C154.439 56.636 154.275 56.708 154.131 56.804C153.987 56.9 153.871 57.024 153.783 57.176C153.695 57.328 153.651 57.504 153.651 57.704V62H152.691V53.12ZM162.631 62.144C162.199 62.144 161.807 62.068 161.455 61.916C161.111 61.764 160.815 61.548 160.567 61.268C160.327 60.98 160.143 60.64 160.015 60.248C159.887 59.848 159.823 59.4 159.823 58.904C159.823 58.416 159.887 57.972 160.015 57.572C160.143 57.172 160.327 56.832 160.567 56.552C160.815 56.264 161.111 56.044 161.455 55.892C161.807 55.74 162.199 55.664 162.631 55.664C163.063 55.664 163.451 55.74 163.795 55.892C164.147 56.044 164.443 56.264 164.683 56.552C164.931 56.832 165.119 57.172 165.247 57.572C165.375 57.972 165.439 58.416 165.439 58.904C165.439 59.4 165.375 59.848 165.247 60.248C165.119 60.64 164.931 60.98 164.683 61.268C164.443 61.548 164.147 61.764 163.795 61.916C163.451 62.068 163.063 62.144 162.631 62.144ZM162.631 61.316C163.167 61.316 163.599 61.156 163.927 60.836C164.255 60.516 164.419 60.02 164.419 59.348V58.46C164.419 57.788 164.255 57.292 163.927 56.972C163.599 56.652 163.167 56.492 162.631 56.492C162.095 56.492 161.663 56.652 161.335 56.972C161.007 57.292 160.843 57.788 160.843 58.46V59.348C160.843 60.02 161.007 60.516 161.335 60.836C161.663 61.156 162.095 61.316 162.631 61.316ZM170.146 62.144C169.714 62.144 169.322 62.068 168.97 61.916C168.626 61.764 168.33 61.548 168.082 61.268C167.842 60.98 167.658 60.64 167.53 60.248C167.402 59.848 167.338 59.4 167.338 58.904C167.338 58.416 167.402 57.972 167.53 57.572C167.658 57.172 167.842 56.832 168.082 56.552C168.33 56.264 168.626 56.044 168.97 55.892C169.322 55.74 169.714 55.664 170.146 55.664C170.578 55.664 170.966 55.74 171.31 55.892C171.662 56.044 171.958 56.264 172.198 56.552C172.446 56.832 172.634 57.172 172.762 57.572C172.89 57.972 172.954 58.416 172.954 58.904C172.954 59.4 172.89 59.848 172.762 60.248C172.634 60.64 172.446 60.98 172.198 61.268C171.958 61.548 171.662 61.764 171.31 61.916C170.966 62.068 170.578 62.144 170.146 62.144ZM170.146 61.316C170.682 61.316 171.114 61.156 171.442 60.836C171.77 60.516 171.934 60.02 171.934 59.348V58.46C171.934 57.788 171.77 57.292 171.442 56.972C171.114 56.652 170.682 56.492 170.146 56.492C169.61 56.492 169.178 56.652 168.85 56.972C168.522 57.292 168.358 57.788 168.358 58.46V59.348C168.358 60.02 168.522 60.516 168.85 60.836C169.178 61.156 169.61 61.316 170.146 61.316ZM177.733 62.144C177.085 62.144 176.525 62.036 176.053 61.82C175.589 61.596 175.193 61.3 174.865 60.932L175.513 60.368C175.809 60.68 176.133 60.92 176.485 61.088C176.837 61.256 177.261 61.34 177.757 61.34C178.237 61.34 178.629 61.256 178.933 61.088C179.245 60.912 179.401 60.64 179.401 60.272C179.401 60.112 179.369 59.98 179.305 59.876C179.249 59.764 179.169 59.676 179.065 59.612C178.961 59.548 178.845 59.5 178.717 59.468C178.589 59.428 178.453 59.396 178.309 59.372L177.337 59.228C177.121 59.196 176.885 59.152 176.629 59.096C176.381 59.04 176.153 58.952 175.945 58.832C175.737 58.704 175.561 58.536 175.417 58.328C175.281 58.12 175.213 57.848 175.213 57.512C175.213 57.2 175.273 56.932 175.393 56.708C175.521 56.476 175.697 56.284 175.921 56.132C176.145 55.972 176.409 55.856 176.713 55.784C177.017 55.704 177.349 55.664 177.709 55.664C178.269 55.664 178.753 55.752 179.161 55.928C179.577 56.104 179.933 56.348 180.229 56.66L179.605 57.248C179.533 57.16 179.441 57.072 179.329 56.984C179.225 56.888 179.093 56.804 178.933 56.732C178.781 56.652 178.601 56.588 178.393 56.54C178.185 56.492 177.945 56.468 177.673 56.468C177.185 56.468 176.809 56.552 176.545 56.72C176.289 56.888 176.161 57.132 176.161 57.452C176.161 57.612 176.189 57.748 176.245 57.86C176.309 57.964 176.393 58.048 176.497 58.112C176.601 58.176 176.717 58.228 176.845 58.268C176.981 58.3 177.117 58.328 177.253 58.352L178.225 58.496C178.449 58.528 178.685 58.572 178.933 58.628C179.181 58.684 179.409 58.776 179.617 58.904C179.825 59.024 179.997 59.188 180.133 59.396C180.277 59.604 180.349 59.876 180.349 60.212C180.349 60.828 180.109 61.304 179.629 61.64C179.157 61.976 178.525 62.144 177.733 62.144ZM185.285 62.144C184.837 62.144 184.433 62.068 184.073 61.916C183.721 61.764 183.417 61.548 183.161 61.268C182.913 60.98 182.721 60.64 182.585 60.248C182.449 59.848 182.381 59.404 182.381 58.916C182.381 58.42 182.449 57.972 182.585 57.572C182.729 57.172 182.925 56.832 183.173 56.552C183.421 56.264 183.717 56.044 184.061 55.892C184.413 55.74 184.801 55.664 185.225 55.664C185.641 55.664 186.017 55.74 186.353 55.892C186.697 56.044 186.989 56.256 187.229 56.528C187.469 56.792 187.653 57.108 187.781 57.476C187.909 57.844 187.973 58.248 187.973 58.688V59.144H183.389V59.432C183.389 59.704 183.433 59.956 183.521 60.188C183.609 60.42 183.733 60.62 183.893 60.788C184.061 60.956 184.261 61.088 184.493 61.184C184.733 61.272 184.997 61.316 185.285 61.316C185.701 61.316 186.061 61.22 186.365 61.028C186.669 60.836 186.901 60.572 187.061 60.236L187.769 60.716C187.585 61.132 187.277 61.476 186.845 61.748C186.421 62.012 185.901 62.144 185.285 62.144ZM185.225 56.456C184.961 56.456 184.717 56.504 184.493 56.6C184.269 56.696 184.073 56.828 183.905 56.996C183.745 57.164 183.617 57.364 183.521 57.596C183.433 57.82 183.389 58.068 183.389 58.34V58.424H186.941V58.292C186.941 58.02 186.897 57.772 186.809 57.548C186.729 57.324 186.613 57.132 186.461 56.972C186.317 56.804 186.137 56.676 185.921 56.588C185.713 56.5 185.481 56.456 185.225 56.456ZM197.531 61.184H199.343V56.624H197.531V55.808H200.303V57.368H200.363C200.491 56.88 200.731 56.5 201.083 56.228C201.443 55.948 201.899 55.808 202.451 55.808H203.315V56.768H202.151C201.599 56.768 201.151 56.928 200.807 57.248C200.471 57.568 200.303 57.988 200.303 58.508V61.184H202.703V62H197.531V61.184ZM210.063 62C209.687 62 209.419 61.904 209.259 61.712C209.099 61.52 208.999 61.28 208.959 60.992H208.899C208.763 61.352 208.543 61.636 208.239 61.844C207.943 62.044 207.543 62.144 207.039 62.144C206.391 62.144 205.875 61.976 205.491 61.64C205.107 61.304 204.915 60.844 204.915 60.26C204.915 59.684 205.123 59.24 205.539 58.928C205.963 58.616 206.643 58.46 207.579 58.46H208.899V57.848C208.899 57.392 208.771 57.052 208.515 56.828C208.259 56.596 207.895 56.48 207.423 56.48C207.007 56.48 206.667 56.564 206.403 56.732C206.139 56.892 205.927 57.112 205.767 57.392L205.119 56.912C205.199 56.752 205.307 56.596 205.443 56.444C205.579 56.292 205.747 56.16 205.947 56.048C206.147 55.928 206.375 55.836 206.631 55.772C206.887 55.7 207.171 55.664 207.483 55.664C208.211 55.664 208.787 55.848 209.211 56.216C209.643 56.584 209.859 57.096 209.859 57.752V61.16H210.723V62H210.063ZM207.207 61.34C207.455 61.34 207.679 61.312 207.879 61.256C208.087 61.192 208.267 61.112 208.419 61.016C208.571 60.912 208.687 60.792 208.767 60.656C208.855 60.512 208.899 60.36 208.899 60.2V59.18H207.579C207.003 59.18 206.583 59.26 206.319 59.42C206.055 59.58 205.923 59.812 205.923 60.116V60.368C205.923 60.688 206.035 60.932 206.259 61.1C206.491 61.26 206.807 61.34 207.207 61.34ZM212.814 62V55.808H213.774V56.816H213.822C213.886 56.664 213.966 56.52 214.062 56.384C214.158 56.24 214.274 56.116 214.41 56.012C214.554 55.908 214.722 55.824 214.914 55.76C215.106 55.696 215.33 55.664 215.586 55.664C216.234 55.664 216.754 55.872 217.146 56.288C217.538 56.696 217.734 57.276 217.734 58.028V62H216.774V58.196C216.774 57.628 216.65 57.208 216.402 56.936C216.154 56.656 215.79 56.516 215.31 56.516C215.118 56.516 214.93 56.54 214.746 56.588C214.562 56.636 214.398 56.708 214.254 56.804C214.11 56.9 213.994 57.024 213.906 57.176C213.818 57.328 213.774 57.504 213.774 57.704V62H212.814ZM224.253 60.992H224.205C223.805 61.76 223.169 62.144 222.297 62.144C221.537 62.144 220.941 61.86 220.509 61.292C220.085 60.724 219.873 59.928 219.873 58.904C219.873 57.88 220.085 57.084 220.509 56.516C220.941 55.948 221.537 55.664 222.297 55.664C223.169 55.664 223.805 56.048 224.205 56.816H224.253V53.12H225.213V62H224.253V60.992ZM222.669 61.292C222.885 61.292 223.089 61.264 223.281 61.208C223.473 61.152 223.641 61.072 223.785 60.968C223.929 60.856 224.041 60.724 224.121 60.572C224.209 60.412 224.253 60.228 224.253 60.02V57.788C224.253 57.58 224.209 57.4 224.121 57.248C224.041 57.088 223.929 56.956 223.785 56.852C223.641 56.74 223.473 56.656 223.281 56.6C223.089 56.544 222.885 56.516 222.669 56.516C222.109 56.516 221.673 56.688 221.361 57.032C221.057 57.368 220.905 57.816 220.905 58.376V59.432C220.905 59.992 221.057 60.444 221.361 60.788C221.673 61.124 222.109 61.292 222.669 61.292ZM230.268 62.144C229.836 62.144 229.444 62.068 229.092 61.916C228.748 61.764 228.452 61.548 228.204 61.268C227.964 60.98 227.78 60.64 227.652 60.248C227.524 59.848 227.46 59.4 227.46 58.904C227.46 58.416 227.524 57.972 227.652 57.572C227.78 57.172 227.964 56.832 228.204 56.552C228.452 56.264 228.748 56.044 229.092 55.892C229.444 55.74 229.836 55.664 230.268 55.664C230.7 55.664 231.088 55.74 231.432 55.892C231.784 56.044 232.08 56.264 232.32 56.552C232.568 56.832 232.756 57.172 232.884 57.572C233.012 57.972 233.076 58.416 233.076 58.904C233.076 59.4 233.012 59.848 232.884 60.248C232.756 60.64 232.568 60.98 232.32 61.268C232.08 61.548 231.784 61.764 231.432 61.916C231.088 62.068 230.7 62.144 230.268 62.144ZM230.268 61.316C230.804 61.316 231.236 61.156 231.564 60.836C231.892 60.516 232.056 60.02 232.056 59.348V58.46C232.056 57.788 231.892 57.292 231.564 56.972C231.236 56.652 230.804 56.492 230.268 56.492C229.732 56.492 229.3 56.652 228.972 56.972C228.644 57.292 228.48 57.788 228.48 58.46V59.348C228.48 60.02 228.644 60.516 228.972 60.836C229.3 61.156 229.732 61.316 230.268 61.316ZM234.832 62V55.808H235.72V56.528H235.768C235.864 56.288 236 56.084 236.176 55.916C236.352 55.748 236.612 55.664 236.956 55.664C237.316 55.664 237.584 55.756 237.76 55.94C237.936 56.116 238.044 56.348 238.084 56.636H238.12C238.232 56.356 238.392 56.124 238.6 55.94C238.808 55.756 239.096 55.664 239.464 55.664C239.968 55.664 240.304 55.84 240.472 56.192C240.648 56.544 240.736 57.048 240.736 57.704V62H239.848V57.86C239.848 57.332 239.792 56.968 239.68 56.768C239.576 56.56 239.38 56.456 239.092 56.456C238.836 56.456 238.628 56.54 238.468 56.708C238.308 56.868 238.228 57.116 238.228 57.452V62H237.34V57.86C237.34 57.332 237.284 56.968 237.172 56.768C237.068 56.56 236.876 56.456 236.596 56.456C236.34 56.456 236.128 56.54 235.96 56.708C235.8 56.868 235.72 57.116 235.72 57.452V62H234.832ZM249.946 62L252.25 58.856L250.006 55.808H251.158L252.094 57.116L252.838 58.148H252.886L253.606 57.116L254.53 55.808H255.634L253.366 58.844L255.694 62H254.542L253.498 60.548L252.79 59.564H252.742L252.058 60.548L251.05 62H249.946ZM265.385 53.12H266.345V56.816H266.393C266.793 56.048 267.429 55.664 268.301 55.664C269.061 55.664 269.653 55.948 270.077 56.516C270.509 57.084 270.725 57.88 270.725 58.904C270.725 59.928 270.509 60.724 270.077 61.292C269.653 61.86 269.061 62.144 268.301 62.144C267.429 62.144 266.793 61.76 266.393 60.992H266.345V62H265.385V53.12ZM267.929 61.292C268.489 61.292 268.921 61.124 269.225 60.788C269.537 60.444 269.693 59.992 269.693 59.432V58.376C269.693 57.816 269.537 57.368 269.225 57.032C268.921 56.688 268.489 56.516 267.929 56.516C267.713 56.516 267.509 56.544 267.317 56.6C267.125 56.656 266.957 56.74 266.813 56.852C266.669 56.956 266.553 57.088 266.465 57.248C266.385 57.4 266.345 57.58 266.345 57.788V60.02C266.345 60.228 266.385 60.412 266.465 60.572C266.553 60.724 266.669 60.856 266.813 60.968C266.957 61.072 267.125 61.152 267.317 61.208C267.509 61.264 267.713 61.292 267.929 61.292ZM275.468 62.144C275.02 62.144 274.616 62.068 274.256 61.916C273.904 61.764 273.6 61.548 273.344 61.268C273.096 60.98 272.904 60.64 272.768 60.248C272.632 59.848 272.564 59.404 272.564 58.916C272.564 58.42 272.632 57.972 272.768 57.572C272.912 57.172 273.108 56.832 273.356 56.552C273.604 56.264 273.9 56.044 274.244 55.892C274.596 55.74 274.984 55.664 275.408 55.664C275.824 55.664 276.2 55.74 276.536 55.892C276.88 56.044 277.172 56.256 277.412 56.528C277.652 56.792 277.836 57.108 277.964 57.476C278.092 57.844 278.156 58.248 278.156 58.688V59.144H273.572V59.432C273.572 59.704 273.616 59.956 273.704 60.188C273.792 60.42 273.916 60.62 274.076 60.788C274.244 60.956 274.444 61.088 274.676 61.184C274.916 61.272 275.18 61.316 275.468 61.316C275.884 61.316 276.244 61.22 276.548 61.028C276.852 60.836 277.084 60.572 277.244 60.236L277.952 60.716C277.768 61.132 277.46 61.476 277.028 61.748C276.604 62.012 276.084 62.144 275.468 62.144ZM275.408 56.456C275.144 56.456 274.9 56.504 274.676 56.6C274.452 56.696 274.256 56.828 274.088 56.996C273.928 57.164 273.8 57.364 273.704 57.596C273.616 57.82 273.572 58.068 273.572 58.34V58.424H277.124V58.292C277.124 58.02 277.08 57.772 276.992 57.548C276.912 57.324 276.796 57.132 276.644 56.972C276.5 56.804 276.32 56.676 276.104 56.588C275.896 56.5 275.664 56.456 275.408 56.456ZM283.176 62C282.704 62 282.356 61.868 282.132 61.604C281.916 61.34 281.808 61 281.808 60.584V56.624H279.744V55.808H281.28C281.488 55.808 281.632 55.768 281.712 55.688C281.8 55.6 281.844 55.452 281.844 55.244V53.624H282.768V55.808H285.588V56.624H282.768V61.184H285.588V62H283.176ZM287.151 55.808H288.003L288.711 61.16H288.819L289.875 55.808H290.931L291.987 61.16H292.095L292.803 55.808H293.631L292.683 62H291.435L290.451 56.816H290.355L289.347 62H288.099L287.151 55.808ZM298.014 62.144C297.566 62.144 297.162 62.068 296.802 61.916C296.45 61.764 296.146 61.548 295.89 61.268C295.642 60.98 295.45 60.64 295.314 60.248C295.178 59.848 295.11 59.404 295.11 58.916C295.11 58.42 295.178 57.972 295.314 57.572C295.458 57.172 295.654 56.832 295.902 56.552C296.15 56.264 296.446 56.044 296.79 55.892C297.142 55.74 297.53 55.664 297.954 55.664C298.37 55.664 298.746 55.74 299.082 55.892C299.426 56.044 299.718 56.256 299.958 56.528C300.198 56.792 300.382 57.108 300.51 57.476C300.638 57.844 300.702 58.248 300.702 58.688V59.144H296.118V59.432C296.118 59.704 296.162 59.956 296.25 60.188C296.338 60.42 296.462 60.62 296.622 60.788C296.79 60.956 296.99 61.088 297.222 61.184C297.462 61.272 297.726 61.316 298.014 61.316C298.43 61.316 298.79 61.22 299.094 61.028C299.398 60.836 299.63 60.572 299.79 60.236L300.498 60.716C300.314 61.132 300.006 61.476 299.574 61.748C299.15 62.012 298.63 62.144 298.014 62.144ZM297.954 56.456C297.69 56.456 297.446 56.504 297.222 56.6C296.998 56.696 296.802 56.828 296.634 56.996C296.474 57.164 296.346 57.364 296.25 57.596C296.162 57.82 296.118 58.068 296.118 58.34V58.424H299.67V58.292C299.67 58.02 299.626 57.772 299.538 57.548C299.458 57.324 299.342 57.132 299.19 56.972C299.046 56.804 298.866 56.676 298.65 56.588C298.442 56.5 298.21 56.456 297.954 56.456ZM305.53 62.144C305.082 62.144 304.678 62.068 304.318 61.916C303.966 61.764 303.662 61.548 303.406 61.268C303.158 60.98 302.966 60.64 302.83 60.248C302.694 59.848 302.626 59.404 302.626 58.916C302.626 58.42 302.694 57.972 302.83 57.572C302.974 57.172 303.17 56.832 303.418 56.552C303.666 56.264 303.962 56.044 304.306 55.892C304.658 55.74 305.046 55.664 305.47 55.664C305.886 55.664 306.262 55.74 306.598 55.892C306.942 56.044 307.234 56.256 307.474 56.528C307.714 56.792 307.898 57.108 308.026 57.476C308.154 57.844 308.218 58.248 308.218 58.688V59.144H303.634V59.432C303.634 59.704 303.678 59.956 303.766 60.188C303.854 60.42 303.978 60.62 304.138 60.788C304.306 60.956 304.506 61.088 304.738 61.184C304.978 61.272 305.242 61.316 305.53 61.316C305.946 61.316 306.306 61.22 306.61 61.028C306.914 60.836 307.146 60.572 307.306 60.236L308.014 60.716C307.83 61.132 307.522 61.476 307.09 61.748C306.666 62.012 306.146 62.144 305.53 62.144ZM305.47 56.456C305.206 56.456 304.962 56.504 304.738 56.6C304.514 56.696 304.318 56.828 304.15 56.996C303.99 57.164 303.862 57.364 303.766 57.596C303.678 57.82 303.634 58.068 303.634 58.34V58.424H307.186V58.292C307.186 58.02 307.142 57.772 307.054 57.548C306.974 57.324 306.858 57.132 306.706 56.972C306.562 56.804 306.382 56.676 306.166 56.588C305.958 56.5 305.726 56.456 305.47 56.456ZM310.513 62V55.808H311.473V56.816H311.521C311.585 56.664 311.665 56.52 311.761 56.384C311.857 56.24 311.973 56.116 312.109 56.012C312.253 55.908 312.421 55.824 312.613 55.76C312.805 55.696 313.029 55.664 313.285 55.664C313.933 55.664 314.453 55.872 314.845 56.288C315.237 56.696 315.433 57.276 315.433 58.028V62H314.473V58.196C314.473 57.628 314.349 57.208 314.101 56.936C313.853 56.656 313.489 56.516 313.009 56.516C312.817 56.516 312.629 56.54 312.445 56.588C312.261 56.636 312.097 56.708 311.953 56.804C311.809 56.9 311.693 57.024 311.605 57.176C311.517 57.328 311.473 57.504 311.473 57.704V62H310.513ZM327.967 62.144C327.455 62.144 327.015 62.048 326.647 61.856C326.279 61.656 325.975 61.372 325.735 61.004C325.495 60.636 325.319 60.184 325.207 59.648C325.095 59.112 325.039 58.5 325.039 57.812C325.039 57.132 325.095 56.524 325.207 55.988C325.319 55.444 325.495 54.988 325.735 54.62C325.975 54.252 326.279 53.972 326.647 53.78C327.015 53.58 327.455 53.48 327.967 53.48C328.479 53.48 328.919 53.58 329.287 53.78C329.655 53.972 329.959 54.252 330.199 54.62C330.439 54.988 330.615 55.444 330.727 55.988C330.839 56.524 330.895 57.132 330.895 57.812C330.895 58.5 330.839 59.112 330.727 59.648C330.615 60.184 330.439 60.636 330.199 61.004C329.959 61.372 329.655 61.656 329.287 61.856C328.919 62.048 328.479 62.144 327.967 62.144ZM327.967 61.268C328.303 61.268 328.591 61.204 328.831 61.076C329.071 60.94 329.263 60.752 329.407 60.512C329.559 60.272 329.671 59.984 329.743 59.648C329.815 59.304 329.851 58.92 329.851 58.496V57.128C329.851 56.712 329.815 56.332 329.743 55.988C329.671 55.644 329.559 55.352 329.407 55.112C329.263 54.872 329.071 54.688 328.831 54.56C328.591 54.424 328.303 54.356 327.967 54.356C327.631 54.356 327.343 54.424 327.103 54.56C326.863 54.688 326.667 54.872 326.515 55.112C326.371 55.352 326.263 55.644 326.191 55.988C326.119 56.332 326.083 56.712 326.083 57.128V58.496C326.083 58.92 326.119 59.304 326.191 59.648C326.263 59.984 326.371 60.272 326.515 60.512C326.667 60.752 326.863 60.94 327.103 61.076C327.343 61.204 327.631 61.268 327.967 61.268ZM327.967 58.52C327.687 58.52 327.491 58.464 327.379 58.352C327.275 58.24 327.223 58.104 327.223 57.944V57.68C327.223 57.52 327.275 57.384 327.379 57.272C327.491 57.16 327.687 57.104 327.967 57.104C328.247 57.104 328.439 57.16 328.543 57.272C328.655 57.384 328.711 57.52 328.711 57.68V57.944C328.711 58.104 328.655 58.24 328.543 58.352C328.439 58.464 328.247 58.52 327.967 58.52ZM342.002 62.144C341.634 62.144 341.306 62.084 341.018 61.964C340.738 61.844 340.498 61.68 340.298 61.472C340.106 61.256 339.958 61.008 339.854 60.728C339.75 60.448 339.698 60.148 339.698 59.828C339.698 59.62 339.722 59.404 339.77 59.18C339.818 58.956 339.902 58.74 340.022 58.532C340.142 58.316 340.298 58.112 340.49 57.92C340.69 57.72 340.942 57.544 341.246 57.392C341.022 57.104 340.834 56.808 340.682 56.504C340.538 56.2 340.466 55.868 340.466 55.508C340.466 55.204 340.522 54.928 340.634 54.68C340.754 54.432 340.91 54.22 341.102 54.044C341.302 53.86 341.534 53.72 341.798 53.624C342.062 53.528 342.342 53.48 342.638 53.48C342.902 53.48 343.142 53.52 343.358 53.6C343.582 53.672 343.778 53.768 343.946 53.888C344.114 54.008 344.254 54.144 344.366 54.296C344.486 54.448 344.574 54.6 344.63 54.752L343.838 55.16C343.734 54.912 343.578 54.708 343.37 54.548C343.162 54.38 342.902 54.296 342.59 54.296C342.23 54.296 341.942 54.408 341.726 54.632C341.518 54.848 341.414 55.128 341.414 55.472V55.568C341.414 55.696 341.43 55.82 341.462 55.94C341.494 56.06 341.542 56.188 341.606 56.324C341.678 56.452 341.766 56.592 341.87 56.744C341.982 56.896 342.114 57.068 342.266 57.26L343.346 58.592L344.222 59.672H344.282C344.338 59.36 344.374 59.004 344.39 58.604C344.406 58.204 344.422 57.812 344.438 57.428H346.13V58.232H345.23C345.206 58.424 345.182 58.604 345.158 58.772C345.134 58.94 345.106 59.104 345.074 59.264C345.042 59.424 345.006 59.588 344.966 59.756C344.926 59.916 344.87 60.088 344.798 60.272L346.262 62H345.122L344.078 60.764H344.018C343.906 61.18 343.678 61.516 343.334 61.772C342.99 62.02 342.546 62.144 342.002 62.144ZM342.254 61.292C342.598 61.292 342.902 61.22 343.166 61.076C343.43 60.932 343.638 60.732 343.79 60.476L341.702 57.956C341.334 58.188 341.074 58.452 340.922 58.748C340.77 59.036 340.694 59.352 340.694 59.696V59.876C340.694 60.308 340.838 60.652 341.126 60.908C341.414 61.164 341.79 61.292 342.254 61.292ZM360.861 56.696C360.861 57.32 360.765 57.908 360.573 58.46C360.389 59.004 360.149 59.504 359.853 59.96C359.557 60.408 359.229 60.808 358.869 61.16C358.517 61.504 358.169 61.784 357.825 62H356.529C356.985 61.672 357.389 61.352 357.741 61.04C358.101 60.728 358.417 60.404 358.689 60.068C358.961 59.724 359.189 59.36 359.373 58.976C359.557 58.584 359.709 58.144 359.829 57.656L359.769 57.632C359.561 57.976 359.293 58.264 358.965 58.496C358.645 58.72 358.225 58.832 357.705 58.832C357.337 58.832 356.997 58.772 356.685 58.652C356.381 58.532 356.117 58.36 355.893 58.136C355.677 57.912 355.505 57.644 355.377 57.332C355.257 57.012 355.197 56.652 355.197 56.252C355.197 55.844 355.261 55.472 355.389 55.136C355.525 54.792 355.717 54.5 355.965 54.26C356.213 54.012 356.509 53.82 356.853 53.684C357.205 53.548 357.593 53.48 358.017 53.48C358.457 53.48 358.853 53.556 359.205 53.708C359.557 53.852 359.853 54.064 360.093 54.344C360.341 54.616 360.529 54.952 360.657 55.352C360.793 55.752 360.861 56.2 360.861 56.696ZM358.029 58.004C358.605 58.004 359.049 57.848 359.361 57.536C359.681 57.224 359.841 56.784 359.841 56.216V56.12C359.841 55.552 359.681 55.112 359.361 54.8C359.049 54.488 358.605 54.332 358.029 54.332C357.453 54.332 357.005 54.488 356.685 54.8C356.373 55.112 356.217 55.552 356.217 56.12V56.216C356.217 56.784 356.373 57.224 356.685 57.536C357.005 57.848 357.453 58.004 358.029 58.004ZM368.376 56.696C368.376 57.32 368.28 57.908 368.088 58.46C367.904 59.004 367.664 59.504 367.368 59.96C367.072 60.408 366.744 60.808 366.384 61.16C366.032 61.504 365.684 61.784 365.34 62H364.044C364.5 61.672 364.904 61.352 365.256 61.04C365.616 60.728 365.932 60.404 366.204 60.068C366.476 59.724 366.704 59.36 366.888 58.976C367.072 58.584 367.224 58.144 367.344 57.656L367.284 57.632C367.076 57.976 366.808 58.264 366.48 58.496C366.16 58.72 365.74 58.832 365.22 58.832C364.852 58.832 364.512 58.772 364.2 58.652C363.896 58.532 363.632 58.36 363.408 58.136C363.192 57.912 363.02 57.644 362.892 57.332C362.772 57.012 362.712 56.652 362.712 56.252C362.712 55.844 362.776 55.472 362.904 55.136C363.04 54.792 363.232 54.5 363.48 54.26C363.728 54.012 364.024 53.82 364.368 53.684C364.72 53.548 365.108 53.48 365.532 53.48C365.972 53.48 366.368 53.556 366.72 53.708C367.072 53.852 367.368 54.064 367.608 54.344C367.856 54.616 368.044 54.952 368.172 55.352C368.308 55.752 368.376 56.2 368.376 56.696ZM365.544 58.004C366.12 58.004 366.564 57.848 366.876 57.536C367.196 57.224 367.356 56.784 367.356 56.216V56.12C367.356 55.552 367.196 55.112 366.876 54.8C366.564 54.488 366.12 54.332 365.544 54.332C364.968 54.332 364.52 54.488 364.2 54.8C363.888 55.112 363.732 55.552 363.732 56.12V56.216C363.732 56.784 363.888 57.224 364.2 57.536C364.52 57.848 364.968 58.004 365.544 58.004ZM375.891 56.696C375.891 57.32 375.795 57.908 375.603 58.46C375.419 59.004 375.179 59.504 374.883 59.96C374.587 60.408 374.259 60.808 373.899 61.16C373.547 61.504 373.199 61.784 372.855 62H371.559C372.015 61.672 372.419 61.352 372.771 61.04C373.131 60.728 373.447 60.404 373.719 60.068C373.991 59.724 374.219 59.36 374.403 58.976C374.587 58.584 374.739 58.144 374.859 57.656L374.799 57.632C374.591 57.976 374.323 58.264 373.995 58.496C373.675 58.72 373.255 58.832 372.735 58.832C372.367 58.832 372.027 58.772 371.715 58.652C371.411 58.532 371.147 58.36 370.923 58.136C370.707 57.912 370.535 57.644 370.407 57.332C370.287 57.012 370.227 56.652 370.227 56.252C370.227 55.844 370.291 55.472 370.419 55.136C370.555 54.792 370.747 54.5 370.995 54.26C371.243 54.012 371.539 53.82 371.883 53.684C372.235 53.548 372.623 53.48 373.047 53.48C373.487 53.48 373.883 53.556 374.235 53.708C374.587 53.852 374.883 54.064 375.123 54.344C375.371 54.616 375.559 54.952 375.687 55.352C375.823 55.752 375.891 56.2 375.891 56.696ZM373.059 58.004C373.635 58.004 374.079 57.848 374.391 57.536C374.711 57.224 374.871 56.784 374.871 56.216V56.12C374.871 55.552 374.711 55.112 374.391 54.8C374.079 54.488 373.635 54.332 373.059 54.332C372.483 54.332 372.035 54.488 371.715 54.8C371.403 55.112 371.247 55.552 371.247 56.12V56.216C371.247 56.784 371.403 57.224 371.715 57.536C372.035 57.848 372.483 58.004 373.059 58.004ZM383.407 56.696C383.407 57.32 383.311 57.908 383.119 58.46C382.935 59.004 382.695 59.504 382.399 59.96C382.103 60.408 381.775 60.808 381.415 61.16C381.063 61.504 380.715 61.784 380.371 62H379.075C379.531 61.672 379.935 61.352 380.287 61.04C380.647 60.728 380.963 60.404 381.235 60.068C381.507 59.724 381.735 59.36 381.919 58.976C382.103 58.584 382.255 58.144 382.375 57.656L382.315 57.632C382.107 57.976 381.839 58.264 381.511 58.496C381.191 58.72 380.771 58.832 380.251 58.832C379.883 58.832 379.543 58.772 379.231 58.652C378.927 58.532 378.663 58.36 378.439 58.136C378.223 57.912 378.051 57.644 377.923 57.332C377.803 57.012 377.743 56.652 377.743 56.252C377.743 55.844 377.807 55.472 377.935 55.136C378.071 54.792 378.263 54.5 378.511 54.26C378.759 54.012 379.055 53.82 379.399 53.684C379.751 53.548 380.139 53.48 380.563 53.48C381.003 53.48 381.399 53.556 381.751 53.708C382.103 53.852 382.399 54.064 382.639 54.344C382.887 54.616 383.075 54.952 383.203 55.352C383.339 55.752 383.407 56.2 383.407 56.696ZM380.575 58.004C381.151 58.004 381.595 57.848 381.907 57.536C382.227 57.224 382.387 56.784 382.387 56.216V56.12C382.387 55.552 382.227 55.112 381.907 54.8C381.595 54.488 381.151 54.332 380.575 54.332C379.999 54.332 379.551 54.488 379.231 54.8C378.919 55.112 378.763 55.552 378.763 56.12V56.216C378.763 56.784 378.919 57.224 379.231 57.536C379.551 57.848 379.999 58.004 380.575 58.004ZM147.984 70.44C147.704 70.44 147.508 70.384 147.396 70.272C147.284 70.152 147.228 70.004 147.228 69.828V69.636C147.228 69.46 147.284 69.316 147.396 69.204C147.508 69.084 147.704 69.024 147.984 69.024C148.264 69.024 148.46 69.084 148.572 69.204C148.684 69.316 148.74 69.46 148.74 69.636V69.828C148.74 70.004 148.684 70.152 148.572 70.272C148.46 70.384 148.264 70.44 147.984 70.44ZM145.272 77.184H147.504V72.624H145.272V71.808H148.464V77.184H150.552V78H145.272V77.184ZM152.511 77.184H154.599V72.624H152.391V71.808H154.599V70.536C154.599 70.12 154.707 69.78 154.923 69.516C155.147 69.252 155.495 69.12 155.967 69.12H158.043V69.936H155.559V71.808H158.043V72.624H155.559V77.184H157.767V78H152.511V77.184ZM167.278 78L169.582 74.856L167.338 71.808H168.49L169.426 73.116L170.17 74.148H170.218L170.938 73.116L171.862 71.808H172.966L170.698 74.844L173.026 78H171.874L170.83 76.548L170.122 75.564H170.074L169.39 76.548L168.382 78H167.278ZM182.225 78V71.808H183.113V72.528H183.161C183.257 72.288 183.393 72.084 183.569 71.916C183.745 71.748 184.005 71.664 184.349 71.664C184.709 71.664 184.977 71.756 185.153 71.94C185.329 72.116 185.437 72.348 185.477 72.636H185.513C185.625 72.356 185.785 72.124 185.993 71.94C186.201 71.756 186.489 71.664 186.857 71.664C187.361 71.664 187.697 71.84 187.865 72.192C188.041 72.544 188.129 73.048 188.129 73.704V78H187.241V73.86C187.241 73.332 187.185 72.968 187.073 72.768C186.969 72.56 186.773 72.456 186.485 72.456C186.229 72.456 186.021 72.54 185.861 72.708C185.701 72.868 185.621 73.116 185.621 73.452V78H184.733V73.86C184.733 73.332 184.677 72.968 184.565 72.768C184.461 72.56 184.269 72.456 183.989 72.456C183.733 72.456 183.521 72.54 183.353 72.708C183.193 72.868 183.113 73.116 183.113 73.452V78H182.225ZM195.032 78C194.656 78 194.388 77.904 194.228 77.712C194.068 77.52 193.968 77.28 193.928 76.992H193.868C193.732 77.352 193.512 77.636 193.208 77.844C192.912 78.044 192.512 78.144 192.008 78.144C191.36 78.144 190.844 77.976 190.46 77.64C190.076 77.304 189.884 76.844 189.884 76.26C189.884 75.684 190.092 75.24 190.508 74.928C190.932 74.616 191.612 74.46 192.548 74.46H193.868V73.848C193.868 73.392 193.74 73.052 193.484 72.828C193.228 72.596 192.864 72.48 192.392 72.48C191.976 72.48 191.636 72.564 191.372 72.732C191.108 72.892 190.896 73.112 190.736 73.392L190.088 72.912C190.168 72.752 190.276 72.596 190.412 72.444C190.548 72.292 190.716 72.16 190.916 72.048C191.116 71.928 191.344 71.836 191.6 71.772C191.856 71.7 192.14 71.664 192.452 71.664C193.18 71.664 193.756 71.848 194.18 72.216C194.612 72.584 194.828 73.096 194.828 73.752V77.16H195.692V78H195.032ZM192.176 77.34C192.424 77.34 192.648 77.312 192.848 77.256C193.056 77.192 193.236 77.112 193.388 77.016C193.54 76.912 193.656 76.792 193.736 76.656C193.824 76.512 193.868 76.36 193.868 76.2V75.18H192.548C191.972 75.18 191.552 75.26 191.288 75.42C191.024 75.58 190.892 75.812 190.892 76.116V76.368C190.892 76.688 191.004 76.932 191.228 77.1C191.46 77.26 191.776 77.34 192.176 77.34ZM200.507 78C200.035 78 199.687 77.868 199.463 77.604C199.247 77.34 199.139 77 199.139 76.584V72.624H197.075V71.808H198.611C198.819 71.808 198.963 71.768 199.043 71.688C199.131 71.6 199.175 71.452 199.175 71.244V69.624H200.099V71.808H202.919V72.624H200.099V77.184H202.919V78H200.507ZM207.939 78.144C207.491 78.144 207.091 78.068 206.739 77.916C206.395 77.756 206.103 77.536 205.863 77.256C205.623 76.976 205.439 76.636 205.311 76.236C205.191 75.836 205.131 75.392 205.131 74.904C205.131 74.416 205.195 73.972 205.323 73.572C205.451 73.172 205.635 72.832 205.875 72.552C206.115 72.264 206.407 72.044 206.751 71.892C207.095 71.74 207.487 71.664 207.927 71.664C208.527 71.664 209.015 71.796 209.391 72.06C209.767 72.324 210.043 72.668 210.219 73.092L209.451 73.5C209.339 73.18 209.151 72.932 208.887 72.756C208.631 72.58 208.311 72.492 207.927 72.492C207.647 72.492 207.395 72.54 207.171 72.636C206.955 72.724 206.771 72.852 206.619 73.02C206.467 73.188 206.351 73.388 206.271 73.62C206.199 73.852 206.163 74.104 206.163 74.376V75.432C206.163 75.704 206.199 75.956 206.271 76.188C206.351 76.42 206.467 76.62 206.619 76.788C206.771 76.956 206.959 77.088 207.183 77.184C207.407 77.272 207.663 77.316 207.951 77.316C208.367 77.316 208.711 77.22 208.983 77.028C209.255 76.836 209.471 76.572 209.631 76.236L210.315 76.704C210.131 77.12 209.843 77.464 209.451 77.736C209.067 78.008 208.563 78.144 207.939 78.144ZM212.814 69.12H213.774V72.816H213.822C213.886 72.664 213.966 72.52 214.062 72.384C214.158 72.24 214.274 72.116 214.41 72.012C214.554 71.908 214.722 71.824 214.914 71.76C215.106 71.696 215.33 71.664 215.586 71.664C216.234 71.664 216.754 71.872 217.146 72.288C217.538 72.696 217.734 73.276 217.734 74.028V78H216.774V74.196C216.774 73.628 216.65 73.208 216.402 72.936C216.154 72.656 215.79 72.516 215.31 72.516C215.118 72.516 214.93 72.54 214.746 72.588C214.562 72.636 214.398 72.708 214.254 72.804C214.11 72.9 213.994 73.024 213.906 73.176C213.818 73.328 213.774 73.504 213.774 73.704V78H212.814V69.12ZM222.861 78.144C222.413 78.144 222.009 78.068 221.649 77.916C221.297 77.764 220.993 77.548 220.737 77.268C220.489 76.98 220.297 76.64 220.161 76.248C220.025 75.848 219.957 75.404 219.957 74.916C219.957 74.42 220.025 73.972 220.161 73.572C220.305 73.172 220.501 72.832 220.749 72.552C220.997 72.264 221.293 72.044 221.637 71.892C221.989 71.74 222.377 71.664 222.801 71.664C223.217 71.664 223.593 71.74 223.929 71.892C224.273 72.044 224.565 72.256 224.805 72.528C225.045 72.792 225.229 73.108 225.357 73.476C225.485 73.844 225.549 74.248 225.549 74.688V75.144H220.965V75.432C220.965 75.704 221.009 75.956 221.097 76.188C221.185 76.42 221.309 76.62 221.469 76.788C221.637 76.956 221.837 77.088 222.069 77.184C222.309 77.272 222.573 77.316 222.861 77.316C223.277 77.316 223.637 77.22 223.941 77.028C224.245 76.836 224.477 76.572 224.637 76.236L225.345 76.716C225.161 77.132 224.853 77.476 224.421 77.748C223.997 78.012 223.477 78.144 222.861 78.144ZM222.801 72.456C222.537 72.456 222.293 72.504 222.069 72.6C221.845 72.696 221.649 72.828 221.481 72.996C221.321 73.164 221.193 73.364 221.097 73.596C221.009 73.82 220.965 74.068 220.965 74.34V74.424H224.517V74.292C224.517 74.02 224.473 73.772 224.385 73.548C224.305 73.324 224.189 73.132 224.037 72.972C223.893 72.804 223.713 72.676 223.497 72.588C223.289 72.5 223.057 72.456 222.801 72.456ZM230.34 78.144C229.692 78.144 229.132 78.036 228.66 77.82C228.196 77.596 227.8 77.3 227.472 76.932L228.12 76.368C228.416 76.68 228.74 76.92 229.092 77.088C229.444 77.256 229.868 77.34 230.364 77.34C230.844 77.34 231.236 77.256 231.54 77.088C231.852 76.912 232.008 76.64 232.008 76.272C232.008 76.112 231.976 75.98 231.912 75.876C231.856 75.764 231.776 75.676 231.672 75.612C231.568 75.548 231.452 75.5 231.324 75.468C231.196 75.428 231.06 75.396 230.916 75.372L229.944 75.228C229.728 75.196 229.492 75.152 229.236 75.096C228.988 75.04 228.76 74.952 228.552 74.832C228.344 74.704 228.168 74.536 228.024 74.328C227.888 74.12 227.82 73.848 227.82 73.512C227.82 73.2 227.88 72.932 228 72.708C228.128 72.476 228.304 72.284 228.528 72.132C228.752 71.972 229.016 71.856 229.32 71.784C229.624 71.704 229.956 71.664 230.316 71.664C230.876 71.664 231.36 71.752 231.768 71.928C232.184 72.104 232.54 72.348 232.836 72.66L232.212 73.248C232.14 73.16 232.048 73.072 231.936 72.984C231.832 72.888 231.7 72.804 231.54 72.732C231.388 72.652 231.208 72.588 231 72.54C230.792 72.492 230.552 72.468 230.28 72.468C229.792 72.468 229.416 72.552 229.152 72.72C228.896 72.888 228.768 73.132 228.768 73.452C228.768 73.612 228.796 73.748 228.852 73.86C228.916 73.964 229 74.048 229.104 74.112C229.208 74.176 229.324 74.228 229.452 74.268C229.588 74.3 229.724 74.328 229.86 74.352L230.832 74.496C231.056 74.528 231.292 74.572 231.54 74.628C231.788 74.684 232.016 74.776 232.224 74.904C232.432 75.024 232.604 75.188 232.74 75.396C232.884 75.604 232.956 75.876 232.956 76.212C232.956 76.828 232.716 77.304 232.236 77.64C231.764 77.976 231.132 78.144 230.34 78.144ZM245.371 78.144C244.723 78.144 244.163 78.036 243.691 77.82C243.227 77.596 242.831 77.3 242.503 76.932L243.151 76.368C243.447 76.68 243.771 76.92 244.123 77.088C244.475 77.256 244.899 77.34 245.395 77.34C245.875 77.34 246.267 77.256 246.571 77.088C246.883 76.912 247.039 76.64 247.039 76.272C247.039 76.112 247.007 75.98 246.943 75.876C246.887 75.764 246.807 75.676 246.703 75.612C246.599 75.548 246.483 75.5 246.355 75.468C246.227 75.428 246.091 75.396 245.947 75.372L244.975 75.228C244.759 75.196 244.523 75.152 244.267 75.096C244.019 75.04 243.791 74.952 243.583 74.832C243.375 74.704 243.199 74.536 243.055 74.328C242.919 74.12 242.851 73.848 242.851 73.512C242.851 73.2 242.911 72.932 243.031 72.708C243.159 72.476 243.335 72.284 243.559 72.132C243.783 71.972 244.047 71.856 244.351 71.784C244.655 71.704 244.987 71.664 245.347 71.664C245.907 71.664 246.391 71.752 246.799 71.928C247.215 72.104 247.571 72.348 247.867 72.66L247.243 73.248C247.171 73.16 247.079 73.072 246.967 72.984C246.863 72.888 246.731 72.804 246.571 72.732C246.419 72.652 246.239 72.588 246.031 72.54C245.823 72.492 245.583 72.468 245.311 72.468C244.823 72.468 244.447 72.552 244.183 72.72C243.927 72.888 243.799 73.132 243.799 73.452C243.799 73.612 243.827 73.748 243.883 73.86C243.947 73.964 244.031 74.048 244.135 74.112C244.239 74.176 244.355 74.228 244.483 74.268C244.619 74.3 244.755 74.328 244.891 74.352L245.863 74.496C246.087 74.528 246.323 74.572 246.571 74.628C246.819 74.684 247.047 74.776 247.255 74.904C247.463 75.024 247.635 75.188 247.771 75.396C247.915 75.604 247.987 75.876 247.987 76.212C247.987 76.828 247.747 77.304 247.267 77.64C246.795 77.976 246.163 78.144 245.371 78.144ZM252.922 78.144C252.474 78.144 252.07 78.068 251.71 77.916C251.358 77.764 251.054 77.548 250.798 77.268C250.55 76.98 250.358 76.64 250.222 76.248C250.086 75.848 250.018 75.404 250.018 74.916C250.018 74.42 250.086 73.972 250.222 73.572C250.366 73.172 250.562 72.832 250.81 72.552C251.058 72.264 251.354 72.044 251.698 71.892C252.05 71.74 252.438 71.664 252.862 71.664C253.278 71.664 253.654 71.74 253.99 71.892C254.334 72.044 254.626 72.256 254.866 72.528C255.106 72.792 255.29 73.108 255.418 73.476C255.546 73.844 255.61 74.248 255.61 74.688V75.144H251.026V75.432C251.026 75.704 251.07 75.956 251.158 76.188C251.246 76.42 251.37 76.62 251.53 76.788C251.698 76.956 251.898 77.088 252.13 77.184C252.37 77.272 252.634 77.316 252.922 77.316C253.338 77.316 253.698 77.22 254.002 77.028C254.306 76.836 254.538 76.572 254.698 76.236L255.406 76.716C255.222 77.132 254.914 77.476 254.482 77.748C254.058 78.012 253.538 78.144 252.922 78.144ZM252.862 72.456C252.598 72.456 252.354 72.504 252.13 72.6C251.906 72.696 251.71 72.828 251.542 72.996C251.382 73.164 251.254 73.364 251.158 73.596C251.07 73.82 251.026 74.068 251.026 74.34V74.424H254.578V74.292C254.578 74.02 254.534 73.772 254.446 73.548C254.366 73.324 254.25 73.132 254.098 72.972C253.954 72.804 253.774 72.676 253.558 72.588C253.35 72.5 253.118 72.456 252.862 72.456ZM260.546 78.144C260.098 78.144 259.698 78.068 259.346 77.916C259.002 77.756 258.71 77.536 258.47 77.256C258.23 76.976 258.046 76.636 257.918 76.236C257.798 75.836 257.738 75.392 257.738 74.904C257.738 74.416 257.802 73.972 257.93 73.572C258.058 73.172 258.242 72.832 258.482 72.552C258.722 72.264 259.014 72.044 259.358 71.892C259.702 71.74 260.094 71.664 260.534 71.664C261.134 71.664 261.622 71.796 261.998 72.06C262.374 72.324 262.65 72.668 262.826 73.092L262.058 73.5C261.946 73.18 261.758 72.932 261.494 72.756C261.238 72.58 260.918 72.492 260.534 72.492C260.254 72.492 260.002 72.54 259.778 72.636C259.562 72.724 259.378 72.852 259.226 73.02C259.074 73.188 258.958 73.388 258.878 73.62C258.806 73.852 258.77 74.104 258.77 74.376V75.432C258.77 75.704 258.806 75.956 258.878 76.188C258.958 76.42 259.074 76.62 259.226 76.788C259.378 76.956 259.566 77.088 259.79 77.184C260.014 77.272 260.27 77.316 260.558 77.316C260.974 77.316 261.318 77.22 261.59 77.028C261.862 76.836 262.078 76.572 262.238 76.236L262.922 76.704C262.738 77.12 262.45 77.464 262.058 77.736C261.674 78.008 261.17 78.144 260.546 78.144ZM265.169 77.184H266.981V72.624H265.169V71.808H267.941V73.368H268.001C268.129 72.88 268.369 72.5 268.721 72.228C269.081 71.948 269.537 71.808 270.089 71.808H270.953V72.768H269.789C269.237 72.768 268.789 72.928 268.445 73.248C268.109 73.568 267.941 73.988 267.941 74.508V77.184H270.341V78H265.169V77.184ZM275.468 78.144C275.02 78.144 274.616 78.068 274.256 77.916C273.904 77.764 273.6 77.548 273.344 77.268C273.096 76.98 272.904 76.64 272.768 76.248C272.632 75.848 272.564 75.404 272.564 74.916C272.564 74.42 272.632 73.972 272.768 73.572C272.912 73.172 273.108 72.832 273.356 72.552C273.604 72.264 273.9 72.044 274.244 71.892C274.596 71.74 274.984 71.664 275.408 71.664C275.824 71.664 276.2 71.74 276.536 71.892C276.88 72.044 277.172 72.256 277.412 72.528C277.652 72.792 277.836 73.108 277.964 73.476C278.092 73.844 278.156 74.248 278.156 74.688V75.144H273.572V75.432C273.572 75.704 273.616 75.956 273.704 76.188C273.792 76.42 273.916 76.62 274.076 76.788C274.244 76.956 274.444 77.088 274.676 77.184C274.916 77.272 275.18 77.316 275.468 77.316C275.884 77.316 276.244 77.22 276.548 77.028C276.852 76.836 277.084 76.572 277.244 76.236L277.952 76.716C277.768 77.132 277.46 77.476 277.028 77.748C276.604 78.012 276.084 78.144 275.468 78.144ZM275.408 72.456C275.144 72.456 274.9 72.504 274.676 72.6C274.452 72.696 274.256 72.828 274.088 72.996C273.928 73.164 273.8 73.364 273.704 73.596C273.616 73.82 273.572 74.068 273.572 74.34V74.424H277.124V74.292C277.124 74.02 277.08 73.772 276.992 73.548C276.912 73.324 276.796 73.132 276.644 72.972C276.5 72.804 276.32 72.676 276.104 72.588C275.896 72.5 275.664 72.456 275.408 72.456ZM283.176 78C282.704 78 282.356 77.868 282.132 77.604C281.916 77.34 281.808 77 281.808 76.584V72.624H279.744V71.808H281.28C281.488 71.808 281.632 71.768 281.712 71.688C281.8 71.6 281.844 71.452 281.844 71.244V69.624H282.768V71.808H285.588V72.624H282.768V77.184H285.588V78H283.176ZM295.482 78V71.808H296.442V72.816H296.49C296.554 72.664 296.634 72.52 296.73 72.384C296.826 72.24 296.942 72.116 297.078 72.012C297.222 71.908 297.39 71.824 297.582 71.76C297.774 71.696 297.998 71.664 298.254 71.664C298.902 71.664 299.422 71.872 299.814 72.288C300.206 72.696 300.402 73.276 300.402 74.028V78H299.442V74.196C299.442 73.628 299.318 73.208 299.07 72.936C298.822 72.656 298.458 72.516 297.978 72.516C297.786 72.516 297.598 72.54 297.414 72.588C297.23 72.636 297.066 72.708 296.922 72.804C296.778 72.9 296.662 73.024 296.574 73.176C296.486 73.328 296.442 73.504 296.442 73.704V78H295.482ZM306.886 76.992H306.838C306.774 77.144 306.694 77.292 306.598 77.436C306.502 77.572 306.382 77.692 306.238 77.796C306.102 77.9 305.938 77.984 305.746 78.048C305.554 78.112 305.33 78.144 305.074 78.144C304.426 78.144 303.906 77.94 303.514 77.532C303.122 77.116 302.926 76.532 302.926 75.78V71.808H303.886V75.612C303.886 76.18 304.01 76.604 304.258 76.884C304.506 77.156 304.87 77.292 305.35 77.292C305.542 77.292 305.73 77.268 305.914 77.22C306.098 77.172 306.262 77.1 306.406 77.004C306.55 76.908 306.666 76.788 306.754 76.644C306.842 76.492 306.886 76.312 306.886 76.104V71.808H307.846V78H306.886V76.992ZM309.985 78V71.808H310.873V72.528H310.921C311.017 72.288 311.153 72.084 311.329 71.916C311.505 71.748 311.765 71.664 312.109 71.664C312.469 71.664 312.737 71.756 312.913 71.94C313.089 72.116 313.197 72.348 313.237 72.636H313.273C313.385 72.356 313.545 72.124 313.753 71.94C313.961 71.756 314.249 71.664 314.617 71.664C315.121 71.664 315.457 71.84 315.625 72.192C315.801 72.544 315.889 73.048 315.889 73.704V78H315.001V73.86C315.001 73.332 314.945 72.968 314.833 72.768C314.729 72.56 314.533 72.456 314.245 72.456C313.989 72.456 313.781 72.54 313.621 72.708C313.461 72.868 313.381 73.116 313.381 73.452V78H312.493V73.86C312.493 73.332 312.437 72.968 312.325 72.768C312.221 72.56 312.029 72.456 311.749 72.456C311.493 72.456 311.281 72.54 311.113 72.708C310.953 72.868 310.873 73.116 310.873 73.452V78H309.985ZM317.992 69.12H318.952V72.816H319C319.4 72.048 320.036 71.664 320.908 71.664C321.668 71.664 322.26 71.948 322.684 72.516C323.116 73.084 323.332 73.88 323.332 74.904C323.332 75.928 323.116 76.724 322.684 77.292C322.26 77.86 321.668 78.144 320.908 78.144C320.036 78.144 319.4 77.76 319 76.992H318.952V78H317.992V69.12ZM320.536 77.292C321.096 77.292 321.528 77.124 321.832 76.788C322.144 76.444 322.3 75.992 322.3 75.432V74.376C322.3 73.816 322.144 73.368 321.832 73.032C321.528 72.688 321.096 72.516 320.536 72.516C320.32 72.516 320.116 72.544 319.924 72.6C319.732 72.656 319.564 72.74 319.42 72.852C319.276 72.956 319.16 73.088 319.072 73.248C318.992 73.4 318.952 73.58 318.952 73.788V76.02C318.952 76.228 318.992 76.412 319.072 76.572C319.16 76.724 319.276 76.856 319.42 76.968C319.564 77.072 319.732 77.152 319.924 77.208C320.116 77.264 320.32 77.292 320.536 77.292ZM328.075 78.144C327.627 78.144 327.223 78.068 326.863 77.916C326.511 77.764 326.207 77.548 325.951 77.268C325.703 76.98 325.511 76.64 325.375 76.248C325.239 75.848 325.171 75.404 325.171 74.916C325.171 74.42 325.239 73.972 325.375 73.572C325.519 73.172 325.715 72.832 325.963 72.552C326.211 72.264 326.507 72.044 326.851 71.892C327.203 71.74 327.591 71.664 328.015 71.664C328.431 71.664 328.807 71.74 329.143 71.892C329.487 72.044 329.779 72.256 330.019 72.528C330.259 72.792 330.443 73.108 330.571 73.476C330.699 73.844 330.763 74.248 330.763 74.688V75.144H326.179V75.432C326.179 75.704 326.223 75.956 326.311 76.188C326.399 76.42 326.523 76.62 326.683 76.788C326.851 76.956 327.051 77.088 327.283 77.184C327.523 77.272 327.787 77.316 328.075 77.316C328.491 77.316 328.851 77.22 329.155 77.028C329.459 76.836 329.691 76.572 329.851 76.236L330.559 76.716C330.375 77.132 330.067 77.476 329.635 77.748C329.211 78.012 328.691 78.144 328.075 78.144ZM328.015 72.456C327.751 72.456 327.507 72.504 327.283 72.6C327.059 72.696 326.863 72.828 326.695 72.996C326.535 73.164 326.407 73.364 326.311 73.596C326.223 73.82 326.179 74.068 326.179 74.34V74.424H329.731V74.292C329.731 74.02 329.687 73.772 329.599 73.548C329.519 73.324 329.403 73.132 329.251 72.972C329.107 72.804 328.927 72.676 328.711 72.588C328.503 72.5 328.271 72.456 328.015 72.456ZM332.807 77.184H334.619V72.624H332.807V71.808H335.579V73.368H335.639C335.767 72.88 336.007 72.5 336.359 72.228C336.719 71.948 337.175 71.808 337.727 71.808H338.591V72.768H337.427C336.875 72.768 336.427 72.928 336.083 73.248C335.747 73.568 335.579 73.988 335.579 74.508V77.184H337.979V78H332.807V77.184ZM162.631 94.144C162.199 94.144 161.807 94.068 161.455 93.916C161.111 93.764 160.815 93.548 160.567 93.268C160.327 92.98 160.143 92.64 160.015 92.248C159.887 91.848 159.823 91.4 159.823 90.904C159.823 90.416 159.887 89.972 160.015 89.572C160.143 89.172 160.327 88.832 160.567 88.552C160.815 88.264 161.111 88.044 161.455 87.892C161.807 87.74 162.199 87.664 162.631 87.664C163.063 87.664 163.451 87.74 163.795 87.892C164.147 88.044 164.443 88.264 164.683 88.552C164.931 88.832 165.119 89.172 165.247 89.572C165.375 89.972 165.439 90.416 165.439 90.904C165.439 91.4 165.375 91.848 165.247 92.248C165.119 92.64 164.931 92.98 164.683 93.268C164.443 93.548 164.147 93.764 163.795 93.916C163.451 94.068 163.063 94.144 162.631 94.144ZM162.631 93.316C163.167 93.316 163.599 93.156 163.927 92.836C164.255 92.516 164.419 92.02 164.419 91.348V90.46C164.419 89.788 164.255 89.292 163.927 88.972C163.599 88.652 163.167 88.492 162.631 88.492C162.095 88.492 161.663 88.652 161.335 88.972C161.007 89.292 160.843 89.788 160.843 90.46V91.348C160.843 92.02 161.007 92.516 161.335 92.836C161.663 93.156 162.095 93.316 162.631 93.316ZM171.61 92.992H171.562C171.498 93.144 171.418 93.292 171.322 93.436C171.226 93.572 171.106 93.692 170.962 93.796C170.826 93.9 170.662 93.984 170.47 94.048C170.278 94.112 170.054 94.144 169.798 94.144C169.15 94.144 168.63 93.94 168.238 93.532C167.846 93.116 167.65 92.532 167.65 91.78V87.808H168.61V91.612C168.61 92.18 168.734 92.604 168.982 92.884C169.23 93.156 169.594 93.292 170.074 93.292C170.266 93.292 170.454 93.268 170.638 93.22C170.822 93.172 170.986 93.1 171.13 93.004C171.274 92.908 171.39 92.788 171.478 92.644C171.566 92.492 171.61 92.312 171.61 92.104V87.808H172.57V94H171.61V92.992ZM177.961 94C177.489 94 177.141 93.868 176.917 93.604C176.701 93.34 176.593 93 176.593 92.584V88.624H174.529V87.808H176.065C176.273 87.808 176.417 87.768 176.497 87.688C176.585 87.6 176.629 87.452 176.629 87.244V85.624H177.553V87.808H180.373V88.624H177.553V93.184H180.373V94H177.961ZM182.717 87.808H183.677V88.816H183.725C184.125 88.048 184.761 87.664 185.633 87.664C186.393 87.664 186.985 87.948 187.409 88.516C187.841 89.084 188.057 89.88 188.057 90.904C188.057 91.928 187.841 92.724 187.409 93.292C186.985 93.86 186.393 94.144 185.633 94.144C184.761 94.144 184.125 93.76 183.725 92.992H183.677V96.4H182.717V87.808ZM185.261 93.292C185.821 93.292 186.253 93.124 186.557 92.788C186.869 92.444 187.025 91.992 187.025 91.432V90.376C187.025 89.816 186.869 89.368 186.557 89.032C186.253 88.688 185.821 88.516 185.261 88.516C185.045 88.516 184.841 88.544 184.649 88.6C184.457 88.656 184.289 88.74 184.145 88.852C184.001 88.956 183.885 89.088 183.797 89.248C183.717 89.4 183.677 89.58 183.677 89.788V92.02C183.677 92.228 183.717 92.412 183.797 92.572C183.885 92.724 184.001 92.856 184.145 92.968C184.289 93.072 184.457 93.152 184.649 93.208C184.841 93.264 185.045 93.292 185.261 93.292ZM194.156 92.992H194.108C194.044 93.144 193.964 93.292 193.868 93.436C193.772 93.572 193.652 93.692 193.508 93.796C193.372 93.9 193.208 93.984 193.016 94.048C192.824 94.112 192.6 94.144 192.344 94.144C191.696 94.144 191.176 93.94 190.784 93.532C190.392 93.116 190.196 92.532 190.196 91.78V87.808H191.156V91.612C191.156 92.18 191.28 92.604 191.528 92.884C191.776 93.156 192.14 93.292 192.62 93.292C192.812 93.292 193 93.268 193.184 93.22C193.368 93.172 193.532 93.1 193.676 93.004C193.82 92.908 193.936 92.788 194.024 92.644C194.112 92.492 194.156 92.312 194.156 92.104V87.808H195.116V94H194.156V92.992ZM200.507 94C200.035 94 199.687 93.868 199.463 93.604C199.247 93.34 199.139 93 199.139 92.584V88.624H197.075V87.808H198.611C198.819 87.808 198.963 87.768 199.043 87.688C199.131 87.6 199.175 87.452 199.175 87.244V85.624H200.099V87.808H202.919V88.624H200.099V93.184H202.919V94H200.507ZM212.37 94L214.674 90.856L212.43 87.808H213.582L214.518 89.116L215.262 90.148H215.31L216.03 89.116L216.954 87.808H218.058L215.79 90.844L218.118 94H216.966L215.922 92.548L215.214 91.564H215.166L214.482 92.548L213.474 94H212.37ZM147.708 110.144C147.26 110.144 146.856 110.068 146.496 109.916C146.144 109.764 145.84 109.548 145.584 109.268C145.336 108.98 145.144 108.64 145.008 108.248C144.872 107.848 144.804 107.404 144.804 106.916C144.804 106.42 144.872 105.972 145.008 105.572C145.152 105.172 145.348 104.832 145.596 104.552C145.844 104.264 146.14 104.044 146.484 103.892C146.836 103.74 147.224 103.664 147.648 103.664C148.064 103.664 148.44 103.74 148.776 103.892C149.12 104.044 149.412 104.256 149.652 104.528C149.892 104.792 150.076 105.108 150.204 105.476C150.332 105.844 150.396 106.248 150.396 106.688V107.144H145.812V107.432C145.812 107.704 145.856 107.956 145.944 108.188C146.032 108.42 146.156 108.62 146.316 108.788C146.484 108.956 146.684 109.088 146.916 109.184C147.156 109.272 147.42 109.316 147.708 109.316C148.124 109.316 148.484 109.22 148.788 109.028C149.092 108.836 149.324 108.572 149.484 108.236L150.192 108.716C150.008 109.132 149.7 109.476 149.268 109.748C148.844 110.012 148.324 110.144 147.708 110.144ZM147.648 104.456C147.384 104.456 147.14 104.504 146.916 104.6C146.692 104.696 146.496 104.828 146.328 104.996C146.168 105.164 146.04 105.364 145.944 105.596C145.856 105.82 145.812 106.068 145.812 106.34V106.424H149.364V106.292C149.364 106.02 149.32 105.772 149.232 105.548C149.152 105.324 149.036 105.132 148.884 104.972C148.74 104.804 148.56 104.676 148.344 104.588C148.136 104.5 147.904 104.456 147.648 104.456ZM152.475 109.184H154.635V101.936H152.475V101.12H155.595V109.184H157.755V110H152.475V109.184ZM162.703 110.144C162.055 110.144 161.495 110.036 161.023 109.82C160.559 109.596 160.163 109.3 159.835 108.932L160.483 108.368C160.779 108.68 161.103 108.92 161.455 109.088C161.807 109.256 162.231 109.34 162.727 109.34C163.207 109.34 163.599 109.256 163.903 109.088C164.215 108.912 164.371 108.64 164.371 108.272C164.371 108.112 164.339 107.98 164.275 107.876C164.219 107.764 164.139 107.676 164.035 107.612C163.931 107.548 163.815 107.5 163.687 107.468C163.559 107.428 163.423 107.396 163.279 107.372L162.307 107.228C162.091 107.196 161.855 107.152 161.599 107.096C161.351 107.04 161.123 106.952 160.915 106.832C160.707 106.704 160.531 106.536 160.387 106.328C160.251 106.12 160.183 105.848 160.183 105.512C160.183 105.2 160.243 104.932 160.363 104.708C160.491 104.476 160.667 104.284 160.891 104.132C161.115 103.972 161.379 103.856 161.683 103.784C161.987 103.704 162.319 103.664 162.679 103.664C163.239 103.664 163.723 103.752 164.131 103.928C164.547 104.104 164.903 104.348 165.199 104.66L164.575 105.248C164.503 105.16 164.411 105.072 164.299 104.984C164.195 104.888 164.063 104.804 163.903 104.732C163.751 104.652 163.571 104.588 163.363 104.54C163.155 104.492 162.915 104.468 162.643 104.468C162.155 104.468 161.779 104.552 161.515 104.72C161.259 104.888 161.131 105.132 161.131 105.452C161.131 105.612 161.159 105.748 161.215 105.86C161.279 105.964 161.363 106.048 161.467 106.112C161.571 106.176 161.687 106.228 161.815 106.268C161.951 106.3 162.087 106.328 162.223 106.352L163.195 106.496C163.419 106.528 163.655 106.572 163.903 106.628C164.151 106.684 164.379 106.776 164.587 106.904C164.795 107.024 164.967 107.188 165.103 107.396C165.247 107.604 165.319 107.876 165.319 108.212C165.319 108.828 165.079 109.304 164.599 109.64C164.127 109.976 163.495 110.144 162.703 110.144ZM170.254 110.144C169.806 110.144 169.402 110.068 169.042 109.916C168.69 109.764 168.386 109.548 168.13 109.268C167.882 108.98 167.69 108.64 167.554 108.248C167.418 107.848 167.35 107.404 167.35 106.916C167.35 106.42 167.418 105.972 167.554 105.572C167.698 105.172 167.894 104.832 168.142 104.552C168.39 104.264 168.686 104.044 169.03 103.892C169.382 103.74 169.77 103.664 170.194 103.664C170.61 103.664 170.986 103.74 171.322 103.892C171.666 104.044 171.958 104.256 172.198 104.528C172.438 104.792 172.622 105.108 172.75 105.476C172.878 105.844 172.942 106.248 172.942 106.688V107.144H168.358V107.432C168.358 107.704 168.402 107.956 168.49 108.188C168.578 108.42 168.702 108.62 168.862 108.788C169.03 108.956 169.23 109.088 169.462 109.184C169.702 109.272 169.966 109.316 170.254 109.316C170.67 109.316 171.03 109.22 171.334 109.028C171.638 108.836 171.87 108.572 172.03 108.236L172.738 108.716C172.554 109.132 172.246 109.476 171.814 109.748C171.39 110.012 170.87 110.144 170.254 110.144ZM170.194 104.456C169.93 104.456 169.686 104.504 169.462 104.6C169.238 104.696 169.042 104.828 168.874 104.996C168.714 105.164 168.586 105.364 168.49 105.596C168.402 105.82 168.358 106.068 168.358 106.34V106.424H171.91V106.292C171.91 106.02 171.866 105.772 171.778 105.548C171.698 105.324 171.582 105.132 171.43 104.972C171.286 104.804 171.106 104.676 170.89 104.588C170.682 104.5 170.45 104.456 170.194 104.456ZM177.661 110.108C177.333 110.108 177.101 110.04 176.965 109.904C176.837 109.768 176.773 109.596 176.773 109.388V109.172C176.773 108.964 176.837 108.792 176.965 108.656C177.101 108.52 177.333 108.452 177.661 108.452C177.989 108.452 178.217 108.52 178.345 108.656C178.481 108.792 178.549 108.964 178.549 109.172V109.388C178.549 109.596 178.481 109.768 178.345 109.904C178.217 110.04 177.989 110.108 177.661 110.108ZM177.661 105.356C177.333 105.356 177.101 105.288 176.965 105.152C176.837 105.016 176.773 104.844 176.773 104.636V104.42C176.773 104.212 176.837 104.04 176.965 103.904C177.101 103.768 177.333 103.7 177.661 103.7C177.989 103.7 178.217 103.768 178.345 103.904C178.481 104.04 178.549 104.212 178.549 104.42V104.636C178.549 104.844 178.481 105.016 178.345 105.152C178.217 105.288 177.989 105.356 177.661 105.356ZM165.763 126.708C165.763 127.332 165.503 127.792 164.983 128.088C164.463 128.392 163.683 128.544 162.643 128.544C161.643 128.544 160.923 128.412 160.483 128.148C160.051 127.884 159.835 127.504 159.835 127.008C159.835 126.672 159.923 126.412 160.099 126.228C160.275 126.044 160.523 125.908 160.843 125.82V125.676C160.667 125.588 160.531 125.476 160.435 125.34C160.339 125.204 160.291 125.032 160.291 124.824C160.291 124.504 160.395 124.264 160.603 124.104C160.819 123.944 161.087 123.824 161.407 123.744V123.696C161.023 123.528 160.723 123.28 160.507 122.952C160.299 122.624 160.195 122.24 160.195 121.8C160.195 121.488 160.251 121.2 160.363 120.936C160.475 120.672 160.635 120.448 160.843 120.264C161.059 120.072 161.315 119.924 161.611 119.82C161.907 119.716 162.235 119.664 162.595 119.664C163.059 119.664 163.467 119.748 163.819 119.916V119.808C163.819 119.568 163.875 119.368 163.987 119.208C164.099 119.048 164.291 118.968 164.563 118.968H165.703V119.808H164.311V120.228C164.535 120.42 164.707 120.648 164.827 120.912C164.947 121.176 165.007 121.472 165.007 121.8C165.007 122.112 164.947 122.4 164.827 122.664C164.715 122.928 164.555 123.156 164.347 123.348C164.139 123.532 163.883 123.676 163.579 123.78C163.283 123.884 162.955 123.936 162.595 123.936C162.491 123.936 162.391 123.932 162.295 123.924C162.199 123.916 162.103 123.904 162.007 123.888C161.911 123.904 161.811 123.932 161.707 123.972C161.603 124.004 161.507 124.052 161.419 124.116C161.331 124.172 161.259 124.24 161.203 124.32C161.147 124.4 161.119 124.492 161.119 124.596C161.119 124.78 161.211 124.904 161.395 124.968C161.579 125.024 161.819 125.052 162.115 125.052H163.483C164.283 125.052 164.863 125.204 165.223 125.508C165.583 125.804 165.763 126.204 165.763 126.708ZM164.863 126.756C164.863 126.508 164.763 126.308 164.563 126.156C164.363 126.012 164.015 125.94 163.519 125.94H161.371C160.955 126.108 160.747 126.388 160.747 126.78C160.747 127.052 160.855 127.284 161.071 127.476C161.287 127.676 161.647 127.776 162.151 127.776H163.087C163.647 127.776 164.083 127.688 164.395 127.512C164.707 127.344 164.863 127.092 164.863 126.756ZM162.595 123.192C163.075 123.192 163.427 123.08 163.651 122.856C163.883 122.632 163.999 122.336 163.999 121.968V121.62C163.999 121.252 163.883 120.96 163.651 120.744C163.427 120.52 163.075 120.408 162.595 120.408C162.115 120.408 161.763 120.52 161.539 120.744C161.315 120.96 161.203 121.252 161.203 121.62V121.968C161.203 122.336 161.315 122.632 161.539 122.856C161.763 123.08 162.115 123.192 162.595 123.192ZM170.146 126.144C169.714 126.144 169.322 126.068 168.97 125.916C168.626 125.764 168.33 125.548 168.082 125.268C167.842 124.98 167.658 124.64 167.53 124.248C167.402 123.848 167.338 123.4 167.338 122.904C167.338 122.416 167.402 121.972 167.53 121.572C167.658 121.172 167.842 120.832 168.082 120.552C168.33 120.264 168.626 120.044 168.97 119.892C169.322 119.74 169.714 119.664 170.146 119.664C170.578 119.664 170.966 119.74 171.31 119.892C171.662 120.044 171.958 120.264 172.198 120.552C172.446 120.832 172.634 121.172 172.762 121.572C172.89 121.972 172.954 122.416 172.954 122.904C172.954 123.4 172.89 123.848 172.762 124.248C172.634 124.64 172.446 124.98 172.198 125.268C171.958 125.548 171.662 125.764 171.31 125.916C170.966 126.068 170.578 126.144 170.146 126.144ZM170.146 125.316C170.682 125.316 171.114 125.156 171.442 124.836C171.77 124.516 171.934 124.02 171.934 123.348V122.46C171.934 121.788 171.77 121.292 171.442 120.972C171.114 120.652 170.682 120.492 170.146 120.492C169.61 120.492 169.178 120.652 168.85 120.972C168.522 121.292 168.358 121.788 168.358 122.46V123.348C168.358 124.02 168.522 124.516 168.85 124.836C169.178 125.156 169.61 125.316 170.146 125.316ZM185.477 126C185.005 126 184.657 125.868 184.433 125.604C184.217 125.34 184.109 125 184.109 124.584V120.624H182.045V119.808H183.581C183.789 119.808 183.933 119.768 184.013 119.688C184.101 119.6 184.145 119.452 184.145 119.244V117.624H185.069V119.808H187.889V120.624H185.069V125.184H187.889V126H185.477ZM192.692 126.144C192.26 126.144 191.868 126.068 191.516 125.916C191.172 125.764 190.876 125.548 190.628 125.268C190.388 124.98 190.204 124.64 190.076 124.248C189.948 123.848 189.884 123.4 189.884 122.904C189.884 122.416 189.948 121.972 190.076 121.572C190.204 121.172 190.388 120.832 190.628 120.552C190.876 120.264 191.172 120.044 191.516 119.892C191.868 119.74 192.26 119.664 192.692 119.664C193.124 119.664 193.512 119.74 193.856 119.892C194.208 120.044 194.504 120.264 194.744 120.552C194.992 120.832 195.18 121.172 195.308 121.572C195.436 121.972 195.5 122.416 195.5 122.904C195.5 123.4 195.436 123.848 195.308 124.248C195.18 124.64 194.992 124.98 194.744 125.268C194.504 125.548 194.208 125.764 193.856 125.916C193.512 126.068 193.124 126.144 192.692 126.144ZM192.692 125.316C193.228 125.316 193.66 125.156 193.988 124.836C194.316 124.516 194.48 124.02 194.48 123.348V122.46C194.48 121.788 194.316 121.292 193.988 120.972C193.66 120.652 193.228 120.492 192.692 120.492C192.156 120.492 191.724 120.652 191.396 120.972C191.068 121.292 190.904 121.788 190.904 122.46V123.348C190.904 124.02 191.068 124.516 191.396 124.836C191.724 125.156 192.156 125.316 192.692 125.316ZM207.795 126.144C207.147 126.144 206.587 126.036 206.115 125.82C205.651 125.596 205.255 125.3 204.927 124.932L205.575 124.368C205.871 124.68 206.195 124.92 206.547 125.088C206.899 125.256 207.323 125.34 207.819 125.34C208.299 125.34 208.691 125.256 208.995 125.088C209.307 124.912 209.463 124.64 209.463 124.272C209.463 124.112 209.431 123.98 209.367 123.876C209.311 123.764 209.231 123.676 209.127 123.612C209.023 123.548 208.907 123.5 208.779 123.468C208.651 123.428 208.515 123.396 208.371 123.372L207.399 123.228C207.183 123.196 206.947 123.152 206.691 123.096C206.443 123.04 206.215 122.952 206.007 122.832C205.799 122.704 205.623 122.536 205.479 122.328C205.343 122.12 205.275 121.848 205.275 121.512C205.275 121.2 205.335 120.932 205.455 120.708C205.583 120.476 205.759 120.284 205.983 120.132C206.207 119.972 206.471 119.856 206.775 119.784C207.079 119.704 207.411 119.664 207.771 119.664C208.331 119.664 208.815 119.752 209.223 119.928C209.639 120.104 209.995 120.348 210.291 120.66L209.667 121.248C209.595 121.16 209.503 121.072 209.391 120.984C209.287 120.888 209.155 120.804 208.995 120.732C208.843 120.652 208.663 120.588 208.455 120.54C208.247 120.492 208.007 120.468 207.735 120.468C207.247 120.468 206.871 120.552 206.607 120.72C206.351 120.888 206.223 121.132 206.223 121.452C206.223 121.612 206.251 121.748 206.307 121.86C206.371 121.964 206.455 122.048 206.559 122.112C206.663 122.176 206.779 122.228 206.907 122.268C207.043 122.3 207.179 122.328 207.315 122.352L208.287 122.496C208.511 122.528 208.747 122.572 208.995 122.628C209.243 122.684 209.471 122.776 209.679 122.904C209.887 123.024 210.059 123.188 210.195 123.396C210.339 123.604 210.411 123.876 210.411 124.212C210.411 124.828 210.171 125.304 209.691 125.64C209.219 125.976 208.587 126.144 207.795 126.144ZM215.538 126C215.066 126 214.718 125.868 214.494 125.604C214.278 125.34 214.17 125 214.17 124.584V120.624H212.106V119.808H213.642C213.85 119.808 213.994 119.768 214.074 119.688C214.162 119.6 214.206 119.452 214.206 119.244V117.624H215.13V119.808H217.95V120.624H215.13V125.184H217.95V126H215.538ZM225.093 126C224.717 126 224.449 125.904 224.289 125.712C224.129 125.52 224.029 125.28 223.989 124.992H223.929C223.793 125.352 223.573 125.636 223.269 125.844C222.973 126.044 222.573 126.144 222.069 126.144C221.421 126.144 220.905 125.976 220.521 125.64C220.137 125.304 219.945 124.844 219.945 124.26C219.945 123.684 220.153 123.24 220.569 122.928C220.993 122.616 221.673 122.46 222.609 122.46H223.929V121.848C223.929 121.392 223.801 121.052 223.545 120.828C223.289 120.596 222.925 120.48 222.453 120.48C222.037 120.48 221.697 120.564 221.433 120.732C221.169 120.892 220.957 121.112 220.797 121.392L220.149 120.912C220.229 120.752 220.337 120.596 220.473 120.444C220.609 120.292 220.777 120.16 220.977 120.048C221.177 119.928 221.405 119.836 221.661 119.772C221.917 119.7 222.201 119.664 222.513 119.664C223.241 119.664 223.817 119.848 224.241 120.216C224.673 120.584 224.889 121.096 224.889 121.752V125.16H225.753V126H225.093ZM222.237 125.34C222.485 125.34 222.709 125.312 222.909 125.256C223.117 125.192 223.297 125.112 223.449 125.016C223.601 124.912 223.717 124.792 223.797 124.656C223.885 124.512 223.929 124.36 223.929 124.2V123.18H222.609C222.033 123.18 221.613 123.26 221.349 123.42C221.085 123.58 220.953 123.812 220.953 124.116V124.368C220.953 124.688 221.065 124.932 221.289 125.1C221.521 125.26 221.837 125.34 222.237 125.34ZM227.592 125.184H229.404V120.624H227.592V119.808H230.364V121.368H230.424C230.552 120.88 230.792 120.5 231.144 120.228C231.504 119.948 231.96 119.808 232.512 119.808H233.376V120.768H232.212C231.66 120.768 231.212 120.928 230.868 121.248C230.532 121.568 230.364 121.988 230.364 122.508V125.184H232.764V126H227.592V125.184ZM238.084 126C237.612 126 237.264 125.868 237.04 125.604C236.824 125.34 236.716 125 236.716 124.584V120.624H234.652V119.808H236.188C236.396 119.808 236.54 119.768 236.62 119.688C236.708 119.6 236.752 119.452 236.752 119.244V117.624H237.676V119.808H240.496V120.624H237.676V125.184H240.496V126H238.084Z"/><rect width="575" height="170" x=".5" y=".5" stroke="#DDE1E6"/><path fill="#343A3F" d="M148.942 22.168C148.298 22.168 147.715 22.0653 147.192 21.86C146.679 21.6453 146.235 21.328 145.862 20.908C145.498 20.488 145.218 19.97 145.022 19.354C144.826 18.7287 144.728 18.0053 144.728 17.184C144.728 16.3627 144.826 15.6347 145.022 15C145.218 14.356 145.498 13.8193 145.862 13.39C146.235 12.9513 146.679 12.62 147.192 12.396C147.715 12.172 148.298 12.06 148.942 12.06C149.819 12.06 150.547 12.2467 151.126 12.62C151.705 12.9933 152.167 13.558 152.512 14.314L150.93 15.154C150.79 14.7153 150.561 14.3653 150.244 14.104C149.927 13.8333 149.493 13.698 148.942 13.698C148.251 13.698 147.701 13.9313 147.29 14.398C146.889 14.8647 146.688 15.518 146.688 16.358V17.898C146.688 18.7473 146.889 19.4007 147.29 19.858C147.701 20.306 148.251 20.53 148.942 20.53C149.493 20.53 149.941 20.3807 150.286 20.082C150.641 19.7833 150.897 19.4147 151.056 18.976L152.554 19.858C152.199 20.586 151.728 21.1553 151.14 21.566C150.552 21.9673 149.819 22.168 148.942 22.168ZM157.076 22.168C156.554 22.168 156.082 22.0793 155.662 21.902C155.252 21.7247 154.897 21.468 154.598 21.132C154.309 20.796 154.085 20.3947 153.926 19.928C153.768 19.452 153.688 18.92 153.688 18.332C153.688 17.744 153.768 17.2167 153.926 16.75C154.085 16.2833 154.309 15.8867 154.598 15.56C154.897 15.224 155.252 14.9673 155.662 14.79C156.082 14.6127 156.554 14.524 157.076 14.524C157.599 14.524 158.07 14.6127 158.49 14.79C158.91 14.9673 159.265 15.224 159.554 15.56C159.853 15.8867 160.082 16.2833 160.24 16.75C160.399 17.2167 160.478 17.744 160.478 18.332C160.478 18.92 160.399 19.452 160.24 19.928C160.082 20.3947 159.853 20.796 159.554 21.132C159.265 21.468 158.91 21.7247 158.49 21.902C158.07 22.0793 157.599 22.168 157.076 22.168ZM157.076 20.726C157.552 20.726 157.926 20.5813 158.196 20.292C158.467 20.0027 158.602 19.578 158.602 19.018V17.66C158.602 17.1093 158.467 16.6893 158.196 16.4C157.926 16.1107 157.552 15.966 157.076 15.966C156.61 15.966 156.241 16.1107 155.97 16.4C155.7 16.6893 155.564 17.1093 155.564 17.66V19.018C155.564 19.578 155.7 20.0027 155.97 20.292C156.241 20.5813 156.61 20.726 157.076 20.726ZM162.227 22V14.692H164.019V15.91H164.089C164.229 15.5273 164.453 15.2007 164.761 14.93C165.069 14.6593 165.498 14.524 166.049 14.524C166.553 14.524 166.987 14.6453 167.351 14.888C167.715 15.1307 167.986 15.4993 168.163 15.994H168.191C168.322 15.5833 168.578 15.238 168.961 14.958C169.353 14.6687 169.843 14.524 170.431 14.524C171.15 14.524 171.7 14.7713 172.083 15.266C172.475 15.7607 172.671 16.4653 172.671 17.38V22H170.879V17.562C170.879 16.5167 170.487 15.994 169.703 15.994C169.526 15.994 169.353 16.022 169.185 16.078C169.026 16.1247 168.882 16.1993 168.751 16.302C168.63 16.3953 168.532 16.5167 168.457 16.666C168.382 16.806 168.345 16.974 168.345 17.17V22H166.553V17.562C166.553 16.5167 166.161 15.994 165.377 15.994C165.209 15.994 165.041 16.022 164.873 16.078C164.714 16.1247 164.57 16.1993 164.439 16.302C164.318 16.3953 164.215 16.5167 164.131 16.666C164.056 16.806 164.019 16.974 164.019 17.17V22H162.227ZM174.815 14.692H176.607V15.896H176.663C176.793 15.476 177.041 15.1447 177.405 14.902C177.769 14.65 178.193 14.524 178.679 14.524C179.612 14.524 180.321 14.8553 180.807 15.518C181.301 16.1713 181.549 17.1093 181.549 18.332C181.549 19.564 181.301 20.5113 180.807 21.174C180.321 21.8367 179.612 22.168 178.679 22.168C178.193 22.168 177.769 22.042 177.405 21.79C177.05 21.538 176.803 21.202 176.663 20.782H176.607V24.8H174.815V14.692ZM178.105 20.684C178.571 20.684 178.949 20.53 179.239 20.222C179.528 19.914 179.673 19.4987 179.673 18.976V17.716C179.673 17.1933 179.528 16.778 179.239 16.47C178.949 16.1527 178.571 15.994 178.105 15.994C177.675 15.994 177.316 16.1013 177.027 16.316C176.747 16.5307 176.607 16.8153 176.607 17.17V19.494C176.607 19.8767 176.747 20.1707 177.027 20.376C177.316 20.5813 177.675 20.684 178.105 20.684ZM187.737 20.782H187.667C187.602 20.9687 187.513 21.146 187.401 21.314C187.299 21.4727 187.163 21.6173 186.995 21.748C186.837 21.8787 186.641 21.9813 186.407 22.056C186.183 22.1307 185.922 22.168 185.623 22.168C184.867 22.168 184.289 21.9207 183.887 21.426C183.486 20.9313 183.285 20.2267 183.285 19.312V14.692H185.077V19.13C185.077 19.634 185.175 20.0213 185.371 20.292C185.567 20.5533 185.88 20.684 186.309 20.684C186.487 20.684 186.659 20.6607 186.827 20.614C187.005 20.5673 187.159 20.4973 187.289 20.404C187.42 20.3013 187.527 20.18 187.611 20.04C187.695 19.8907 187.737 19.718 187.737 19.522V14.692H189.529V22H187.737V20.782ZM194.042 22C193.426 22 192.954 21.8413 192.628 21.524C192.31 21.1973 192.152 20.7353 192.152 20.138V16.12H191.074V14.692H191.634C191.904 14.692 192.086 14.6313 192.18 14.51C192.282 14.3793 192.334 14.188 192.334 13.936V12.69H193.944V14.692H195.442V16.12H193.944V20.572H195.33V22H194.042ZM200.055 22.168C199.514 22.168 199.029 22.0793 198.599 21.902C198.179 21.7153 197.82 21.4587 197.521 21.132C197.232 20.796 197.008 20.3947 196.849 19.928C196.691 19.452 196.611 18.92 196.611 18.332C196.611 17.7533 196.686 17.2307 196.835 16.764C196.994 16.2973 197.218 15.9007 197.507 15.574C197.797 15.238 198.151 14.9813 198.571 14.804C198.991 14.6173 199.467 14.524 199.999 14.524C200.569 14.524 201.063 14.622 201.483 14.818C201.903 15.014 202.249 15.28 202.519 15.616C202.79 15.952 202.991 16.344 203.121 16.792C203.261 17.2307 203.331 17.702 203.331 18.206V18.794H198.473V18.976C198.473 19.508 198.623 19.9373 198.921 20.264C199.22 20.5813 199.663 20.74 200.251 20.74C200.699 20.74 201.063 20.6467 201.343 20.46C201.633 20.2733 201.889 20.0353 202.113 19.746L203.079 20.824C202.781 21.244 202.37 21.5753 201.847 21.818C201.334 22.0513 200.737 22.168 200.055 22.168ZM200.027 15.868C199.551 15.868 199.173 16.0267 198.893 16.344C198.613 16.6613 198.473 17.072 198.473 17.576V17.688H201.469V17.562C201.469 17.058 201.343 16.652 201.091 16.344C200.849 16.0267 200.494 15.868 200.027 15.868ZM205.068 22V14.692H206.86V16.204H206.93C206.977 16.008 207.047 15.8213 207.14 15.644C207.243 15.4573 207.373 15.294 207.532 15.154C207.691 15.014 207.877 14.902 208.092 14.818C208.316 14.734 208.573 14.692 208.862 14.692H209.254V16.386H208.694C208.087 16.386 207.63 16.4747 207.322 16.652C207.014 16.8293 206.86 17.1187 206.86 17.52V22H205.068ZM214.557 16.106H213.479V14.692H214.557V13.642C214.557 12.998 214.725 12.5033 215.061 12.158C215.406 11.8127 215.91 11.64 216.573 11.64H217.847V13.068H216.349V14.692H217.847V16.106H216.349V22H214.557V16.106ZM222.091 22.168C221.568 22.168 221.097 22.0793 220.677 21.902C220.266 21.7247 219.911 21.468 219.613 21.132C219.323 20.796 219.099 20.3947 218.941 19.928C218.782 19.452 218.703 18.92 218.703 18.332C218.703 17.744 218.782 17.2167 218.941 16.75C219.099 16.2833 219.323 15.8867 219.613 15.56C219.911 15.224 220.266 14.9673 220.677 14.79C221.097 14.6127 221.568 14.524 222.091 14.524C222.613 14.524 223.085 14.6127 223.505 14.79C223.925 14.9673 224.279 15.224 224.569 15.56C224.867 15.8867 225.096 16.2833 225.255 16.75C225.413 17.2167 225.493 17.744 225.493 18.332C225.493 18.92 225.413 19.452 225.255 19.928C225.096 20.3947 224.867 20.796 224.569 21.132C224.279 21.468 223.925 21.7247 223.505 21.902C223.085 22.0793 222.613 22.168 222.091 22.168ZM222.091 20.726C222.567 20.726 222.94 20.5813 223.211 20.292C223.481 20.0027 223.617 19.578 223.617 19.018V17.66C223.617 17.1093 223.481 16.6893 223.211 16.4C222.94 16.1107 222.567 15.966 222.091 15.966C221.624 15.966 221.255 16.1107 220.985 16.4C220.714 16.6893 220.579 17.1093 220.579 17.66V19.018C220.579 19.578 220.714 20.0027 220.985 20.292C221.255 20.5813 221.624 20.726 222.091 20.726ZM229.033 22C228.417 22 227.965 21.846 227.675 21.538C227.386 21.23 227.241 20.796 227.241 20.236V11.64H229.033V20.572H229.999V22H229.033ZM233.213 22C232.597 22 232.144 21.846 231.855 21.538C231.566 21.23 231.421 20.796 231.421 20.236V11.64H233.213V20.572H234.179V22H233.213ZM238.594 22.168C238.071 22.168 237.6 22.0793 237.18 21.902C236.769 21.7247 236.415 21.468 236.116 21.132C235.827 20.796 235.603 20.3947 235.444 19.928C235.285 19.452 235.206 18.92 235.206 18.332C235.206 17.744 235.285 17.2167 235.444 16.75C235.603 16.2833 235.827 15.8867 236.116 15.56C236.415 15.224 236.769 14.9673 237.18 14.79C237.6 14.6127 238.071 14.524 238.594 14.524C239.117 14.524 239.588 14.6127 240.008 14.79C240.428 14.9673 240.783 15.224 241.072 15.56C241.371 15.8867 241.599 16.2833 241.758 16.75C241.917 17.2167 241.996 17.744 241.996 18.332C241.996 18.92 241.917 19.452 241.758 19.928C241.599 20.3947 241.371 20.796 241.072 21.132C240.783 21.468 240.428 21.7247 240.008 21.902C239.588 22.0793 239.117 22.168 238.594 22.168ZM238.594 20.726C239.07 20.726 239.443 20.5813 239.714 20.292C239.985 20.0027 240.12 19.578 240.12 19.018V17.66C240.12 17.1093 239.985 16.6893 239.714 16.4C239.443 16.1107 239.07 15.966 238.594 15.966C238.127 15.966 237.759 16.1107 237.488 16.4C237.217 16.6893 237.082 17.1093 237.082 17.66V19.018C237.082 19.578 237.217 20.0027 237.488 20.292C237.759 20.5813 238.127 20.726 238.594 20.726ZM242.908 14.692H244.63L245.372 17.702L245.946 20.208H246.002L246.674 17.702L247.528 14.692H249.152L250.034 17.702L250.72 20.208H250.776L251.35 17.702L252.078 14.692H253.744L251.742 22H249.81L248.872 18.78L248.326 16.792H248.284L247.752 18.78L246.828 22H244.924L242.908 14.692ZM257.605 22.168C256.905 22.168 256.317 22.0513 255.841 21.818C255.365 21.5753 254.945 21.244 254.581 20.824L255.673 19.76C255.944 20.068 256.238 20.3107 256.555 20.488C256.882 20.6653 257.255 20.754 257.675 20.754C258.105 20.754 258.413 20.6793 258.599 20.53C258.795 20.3807 258.893 20.1753 258.893 19.914C258.893 19.6993 258.823 19.5313 258.683 19.41C258.553 19.2793 258.324 19.1907 257.997 19.144L257.269 19.046C256.476 18.9433 255.869 18.7193 255.449 18.374C255.039 18.0193 254.833 17.506 254.833 16.834C254.833 16.4793 254.899 16.162 255.029 15.882C255.16 15.5927 255.347 15.35 255.589 15.154C255.832 14.9487 256.121 14.7947 256.457 14.692C256.803 14.58 257.185 14.524 257.605 14.524C257.96 14.524 258.273 14.552 258.543 14.608C258.823 14.6547 259.075 14.7293 259.299 14.832C259.523 14.9253 259.729 15.0467 259.915 15.196C260.102 15.336 260.284 15.4947 260.461 15.672L259.411 16.722C259.197 16.498 258.94 16.3113 258.641 16.162C258.343 16.0127 258.016 15.938 257.661 15.938C257.269 15.938 256.985 16.008 256.807 16.148C256.639 16.288 256.555 16.47 256.555 16.694C256.555 16.9367 256.625 17.1233 256.765 17.254C256.915 17.3753 257.162 17.464 257.507 17.52L258.249 17.618C259.827 17.842 260.615 18.5607 260.615 19.774C260.615 20.1287 260.541 20.4553 260.391 20.754C260.251 21.0433 260.051 21.2953 259.789 21.51C259.528 21.7153 259.211 21.8787 258.837 22C258.473 22.112 258.063 22.168 257.605 22.168ZM271.202 22C270.81 22 270.498 21.888 270.264 21.664C270.04 21.4307 269.9 21.1227 269.844 20.74H269.76C269.639 21.216 269.392 21.5753 269.018 21.818C268.645 22.0513 268.183 22.168 267.632 22.168C266.886 22.168 266.312 21.972 265.91 21.58C265.509 21.188 265.308 20.6653 265.308 20.012C265.308 19.256 265.579 18.696 266.12 18.332C266.662 17.9587 267.432 17.772 268.43 17.772H269.676V17.24C269.676 16.8293 269.569 16.512 269.354 16.288C269.14 16.064 268.794 15.952 268.318 15.952C267.898 15.952 267.558 16.0453 267.296 16.232C267.044 16.4093 266.83 16.624 266.652 16.876L265.588 15.924C265.859 15.504 266.218 15.168 266.666 14.916C267.114 14.6547 267.707 14.524 268.444 14.524C269.434 14.524 270.185 14.748 270.698 15.196C271.212 15.644 271.468 16.288 271.468 17.128V20.572H272.196V22H271.202ZM268.234 20.866C268.636 20.866 268.976 20.7773 269.256 20.6C269.536 20.4227 269.676 20.1613 269.676 19.816V18.85H268.528C267.595 18.85 267.128 19.1487 267.128 19.746V19.984C267.128 20.2827 267.222 20.5067 267.408 20.656C267.604 20.796 267.88 20.866 268.234 20.866ZM275.599 22C274.983 22 274.53 21.846 274.241 21.538C273.951 21.23 273.807 20.796 273.807 20.236V11.64H275.599V20.572H276.565V22H275.599ZM284.676 22.616C284.676 22.9987 284.606 23.3347 284.466 23.624C284.335 23.9227 284.116 24.17 283.808 24.366C283.5 24.562 283.103 24.7113 282.618 24.814C282.133 24.9167 281.54 24.968 280.84 24.968C280.224 24.968 279.701 24.926 279.272 24.842C278.843 24.7673 278.488 24.6553 278.208 24.506C277.937 24.366 277.741 24.1887 277.62 23.974C277.499 23.7593 277.438 23.5167 277.438 23.246C277.438 22.8353 277.55 22.5133 277.774 22.28C278.007 22.056 278.329 21.9113 278.74 21.846V21.692C278.441 21.6173 278.208 21.4727 278.04 21.258C277.881 21.034 277.802 20.7727 277.802 20.474C277.802 20.2873 277.839 20.124 277.914 19.984C277.989 19.8347 278.087 19.7087 278.208 19.606C278.339 19.5033 278.483 19.4193 278.642 19.354C278.801 19.2793 278.969 19.2233 279.146 19.186V19.13C278.698 18.9247 278.362 18.64 278.138 18.276C277.923 17.912 277.816 17.4873 277.816 17.002C277.816 16.2553 278.073 15.658 278.586 15.21C279.099 14.7527 279.851 14.524 280.84 14.524C281.064 14.524 281.283 14.538 281.498 14.566C281.722 14.594 281.927 14.6407 282.114 14.706V14.468C282.114 13.7587 282.459 13.404 283.15 13.404H284.284V14.776H282.73V14.972C283.113 15.1867 283.397 15.4667 283.584 15.812C283.771 16.1573 283.864 16.554 283.864 17.002C283.864 17.7393 283.607 18.332 283.094 18.78C282.59 19.228 281.839 19.452 280.84 19.452C280.411 19.452 280.037 19.41 279.72 19.326C279.58 19.3913 279.459 19.48 279.356 19.592C279.253 19.6947 279.202 19.8253 279.202 19.984C279.202 20.348 279.519 20.53 280.154 20.53H282.114C283.01 20.53 283.659 20.7167 284.06 21.09C284.471 21.454 284.676 21.9627 284.676 22.616ZM282.996 22.826C282.996 22.5927 282.903 22.4107 282.716 22.28C282.529 22.1493 282.207 22.084 281.75 22.084H279.258C279.006 22.2707 278.88 22.5227 278.88 22.84C278.88 23.12 278.997 23.3393 279.23 23.498C279.463 23.6567 279.86 23.736 280.42 23.736H281.316C281.904 23.736 282.329 23.6613 282.59 23.512C282.861 23.3627 282.996 23.134 282.996 22.826ZM280.84 18.234C281.717 18.234 282.156 17.8607 282.156 17.114V16.876C282.156 16.1293 281.717 15.756 280.84 15.756C279.963 15.756 279.524 16.1293 279.524 16.876V17.114C279.524 17.8607 279.963 18.234 280.84 18.234ZM288.687 22.168C288.164 22.168 287.693 22.0793 287.273 21.902C286.862 21.7247 286.507 21.468 286.209 21.132C285.919 20.796 285.695 20.3947 285.537 19.928C285.378 19.452 285.299 18.92 285.299 18.332C285.299 17.744 285.378 17.2167 285.537 16.75C285.695 16.2833 285.919 15.8867 286.209 15.56C286.507 15.224 286.862 14.9673 287.273 14.79C287.693 14.6127 288.164 14.524 288.687 14.524C289.209 14.524 289.681 14.6127 290.101 14.79C290.521 14.9673 290.875 15.224 291.165 15.56C291.463 15.8867 291.692 16.2833 291.851 16.75C292.009 17.2167 292.089 17.744 292.089 18.332C292.089 18.92 292.009 19.452 291.851 19.928C291.692 20.3947 291.463 20.796 291.165 21.132C290.875 21.468 290.521 21.7247 290.101 21.902C289.681 22.0793 289.209 22.168 288.687 22.168ZM288.687 20.726C289.163 20.726 289.536 20.5813 289.807 20.292C290.077 20.0027 290.213 19.578 290.213 19.018V17.66C290.213 17.1093 290.077 16.6893 289.807 16.4C289.536 16.1107 289.163 15.966 288.687 15.966C288.22 15.966 287.851 16.1107 287.581 16.4C287.31 16.6893 287.175 17.1093 287.175 17.66V19.018C287.175 19.578 287.31 20.0027 287.581 20.292C287.851 20.5813 288.22 20.726 288.687 20.726ZM293.837 22V14.692H295.629V16.204H295.699C295.746 16.008 295.816 15.8213 295.909 15.644C296.012 15.4573 296.143 15.294 296.301 15.154C296.46 15.014 296.647 14.902 296.861 14.818C297.085 14.734 297.342 14.692 297.631 14.692H298.023V16.386H297.463C296.857 16.386 296.399 16.4747 296.091 16.652C295.783 16.8293 295.629 17.1187 295.629 17.52V22H293.837ZM300.39 13.628C300.016 13.628 299.746 13.544 299.578 13.376C299.419 13.208 299.34 12.9933 299.34 12.732V12.452C299.34 12.1907 299.419 11.976 299.578 11.808C299.746 11.64 300.016 11.556 300.39 11.556C300.754 11.556 301.02 11.64 301.188 11.808C301.356 11.976 301.44 12.1907 301.44 12.452V12.732C301.44 12.9933 301.356 13.208 301.188 13.376C301.02 13.544 300.754 13.628 300.39 13.628ZM299.494 14.692H301.286V22H299.494V14.692ZM305.805 22C305.189 22 304.717 21.8413 304.391 21.524C304.073 21.1973 303.915 20.7353 303.915 20.138V16.12H302.837V14.692H303.397C303.667 14.692 303.849 14.6313 303.943 14.51C304.045 14.3793 304.097 14.188 304.097 13.936V12.69H305.707V14.692H307.205V16.12H305.707V20.572H307.093V22H305.805ZM308.919 11.64H310.711V15.91H310.781C310.93 15.518 311.164 15.1913 311.481 14.93C311.808 14.6593 312.256 14.524 312.825 14.524C313.581 14.524 314.16 14.7713 314.561 15.266C314.962 15.7607 315.163 16.4653 315.163 17.38V22H313.371V17.562C313.371 17.0393 313.278 16.6473 313.091 16.386C312.904 16.1247 312.596 15.994 312.167 15.994C311.98 15.994 311.798 16.022 311.621 16.078C311.453 16.1247 311.299 16.1993 311.159 16.302C311.028 16.3953 310.921 16.5167 310.837 16.666C310.753 16.806 310.711 16.974 310.711 17.17V22H308.919V11.64ZM317.309 22V14.692H319.101V15.91H319.171C319.311 15.5273 319.535 15.2007 319.843 14.93C320.151 14.6593 320.581 14.524 321.131 14.524C321.635 14.524 322.069 14.6453 322.433 14.888C322.797 15.1307 323.068 15.4993 323.245 15.994H323.273C323.404 15.5833 323.661 15.238 324.043 14.958C324.435 14.6687 324.925 14.524 325.513 14.524C326.232 14.524 326.783 14.7713 327.165 15.266C327.557 15.7607 327.753 16.4653 327.753 17.38V22H325.961V17.562C325.961 16.5167 325.569 15.994 324.785 15.994C324.608 15.994 324.435 16.022 324.267 16.078C324.109 16.1247 323.964 16.1993 323.833 16.302C323.712 16.3953 323.614 16.5167 323.539 16.666C323.465 16.806 323.427 16.974 323.427 17.17V22H321.635V17.562C321.635 16.5167 321.243 15.994 320.459 15.994C320.291 15.994 320.123 16.022 319.955 16.078C319.797 16.1247 319.652 16.1993 319.521 16.302C319.4 16.3953 319.297 16.5167 319.213 16.666C319.139 16.806 319.101 16.974 319.101 17.17V22H317.309Z"/><path fill="#121619" d="M468.984 22.168C468.34 22.168 467.757 22.0607 467.234 21.846C466.711 21.6313 466.263 21.3093 465.89 20.88C465.526 20.4507 465.241 19.9233 465.036 19.298C464.831 18.6727 464.728 17.9447 464.728 17.114C464.728 16.2927 464.831 15.5693 465.036 14.944C465.241 14.3093 465.526 13.7773 465.89 13.348C466.263 12.9187 466.711 12.5967 467.234 12.382C467.757 12.1673 468.34 12.06 468.984 12.06C469.628 12.06 470.211 12.1673 470.734 12.382C471.257 12.5967 471.705 12.9187 472.078 13.348C472.451 13.7773 472.736 14.3093 472.932 14.944C473.137 15.5693 473.24 16.2927 473.24 17.114C473.24 17.9447 473.137 18.6727 472.932 19.298C472.736 19.9233 472.451 20.4507 472.078 20.88C471.705 21.3093 471.257 21.6313 470.734 21.846C470.211 22.0607 469.628 22.168 468.984 22.168ZM468.984 20.53C469.684 20.53 470.239 20.2967 470.65 19.83C471.07 19.3633 471.28 18.71 471.28 17.87V16.358C471.28 15.518 471.07 14.8647 470.65 14.398C470.239 13.9313 469.684 13.698 468.984 13.698C468.284 13.698 467.724 13.9313 467.304 14.398C466.893 14.8647 466.688 15.518 466.688 16.358V17.87C466.688 18.71 466.893 19.3633 467.304 19.83C467.724 20.2967 468.284 20.53 468.984 20.53ZM479.531 20.782H479.461C479.395 20.9687 479.307 21.146 479.195 21.314C479.092 21.4727 478.957 21.6173 478.789 21.748C478.63 21.8787 478.434 21.9813 478.201 22.056C477.977 22.1307 477.715 22.168 477.417 22.168C476.661 22.168 476.082 21.9207 475.681 21.426C475.279 20.9313 475.079 20.2267 475.079 19.312V14.692H476.871V19.13C476.871 19.634 476.969 20.0213 477.165 20.292C477.361 20.5533 477.673 20.684 478.103 20.684C478.28 20.684 478.453 20.6607 478.621 20.614C478.798 20.5673 478.952 20.4973 479.083 20.404C479.213 20.3013 479.321 20.18 479.405 20.04C479.489 19.8907 479.531 19.718 479.531 19.522V14.692H481.323V22H479.531V20.782ZM485.835 22C485.219 22 484.748 21.8413 484.421 21.524C484.104 21.1973 483.945 20.7353 483.945 20.138V16.12H482.867V14.692H483.427C483.698 14.692 483.88 14.6313 483.973 14.51C484.076 14.3793 484.127 14.188 484.127 13.936V12.69H485.737V14.692H487.235V16.12H485.737V20.572H487.123V22H485.835ZM488.95 14.692H490.742V15.896H490.798C490.928 15.476 491.176 15.1447 491.54 14.902C491.904 14.65 492.328 14.524 492.814 14.524C493.747 14.524 494.456 14.8553 494.942 15.518C495.436 16.1713 495.684 17.1093 495.684 18.332C495.684 19.564 495.436 20.5113 494.942 21.174C494.456 21.8367 493.747 22.168 492.814 22.168C492.328 22.168 491.904 22.042 491.54 21.79C491.185 21.538 490.938 21.202 490.798 20.782H490.742V24.8H488.95V14.692ZM492.24 20.684C492.706 20.684 493.084 20.53 493.374 20.222C493.663 19.914 493.808 19.4987 493.808 18.976V17.716C493.808 17.1933 493.663 16.778 493.374 16.47C493.084 16.1527 492.706 15.994 492.24 15.994C491.81 15.994 491.451 16.1013 491.162 16.316C490.882 16.5307 490.742 16.8153 490.742 17.17V19.494C490.742 19.8767 490.882 20.1707 491.162 20.376C491.451 20.5813 491.81 20.684 492.24 20.684ZM501.872 20.782H501.802C501.737 20.9687 501.648 21.146 501.536 21.314C501.433 21.4727 501.298 21.6173 501.13 21.748C500.971 21.8787 500.775 21.9813 500.542 22.056C500.318 22.1307 500.057 22.168 499.758 22.168C499.002 22.168 498.423 21.9207 498.022 21.426C497.621 20.9313 497.42 20.2267 497.42 19.312V14.692H499.212V19.13C499.212 19.634 499.31 20.0213 499.506 20.292C499.702 20.5533 500.015 20.684 500.444 20.684C500.621 20.684 500.794 20.6607 500.962 20.614C501.139 20.5673 501.293 20.4973 501.424 20.404C501.555 20.3013 501.662 20.18 501.746 20.04C501.83 19.8907 501.872 19.718 501.872 19.522V14.692H503.664V22H501.872V20.782ZM508.177 22C507.561 22 507.089 21.8413 506.763 21.524C506.445 21.1973 506.287 20.7353 506.287 20.138V16.12H505.209V14.692H505.769C506.039 14.692 506.221 14.6313 506.315 14.51C506.417 14.3793 506.469 14.188 506.469 13.936V12.69H508.079V14.692H509.577V16.12H508.079V20.572H509.465V22H508.177Z"/><path fill="#121619" d="M17.742 22V20.516H19.03V13.712H17.742V12.228H22.18V13.712H20.878V20.516H22.18V22H17.742ZM24.1159 22V14.692H25.9079V15.91H25.9779C26.1273 15.518 26.3606 15.1913 26.6779 14.93C27.0046 14.6593 27.4526 14.524 28.0219 14.524C28.7779 14.524 29.3566 14.7713 29.7579 15.266C30.1593 15.7607 30.3599 16.4653 30.3599 17.38V22H28.5679V17.562C28.5679 17.0393 28.4746 16.6473 28.2879 16.386C28.1013 16.1247 27.7933 15.994 27.3639 15.994C27.1773 15.994 26.9953 16.022 26.8179 16.078C26.6499 16.1247 26.4959 16.1993 26.3559 16.302C26.2253 16.3953 26.1179 16.5167 26.0339 16.666C25.9499 16.806 25.9079 16.974 25.9079 17.17V22H24.1159ZM32.5064 14.692H34.2984V15.896H34.3544C34.4851 15.476 34.7324 15.1447 35.0964 14.902C35.4604 14.65 35.8851 14.524 36.3704 14.524C37.3037 14.524 38.0131 14.8553 38.4984 15.518C38.9931 16.1713 39.2404 17.1093 39.2404 18.332C39.2404 19.564 38.9931 20.5113 38.4984 21.174C38.0131 21.8367 37.3037 22.168 36.3704 22.168C35.8851 22.168 35.4604 22.042 35.0964 21.79C34.7417 21.538 34.4944 21.202 34.3544 20.782H34.2984V24.8H32.5064V14.692ZM35.7964 20.684C36.2631 20.684 36.6411 20.53 36.9304 20.222C37.2197 19.914 37.3644 19.4987 37.3644 18.976V17.716C37.3644 17.1933 37.2197 16.778 36.9304 16.47C36.6411 16.1527 36.2631 15.994 35.7964 15.994C35.3671 15.994 35.0077 16.1013 34.7184 16.316C34.4384 16.5307 34.2984 16.8153 34.2984 17.17V19.494C34.2984 19.8767 34.4384 20.1707 34.7184 20.376C35.0077 20.5813 35.3671 20.684 35.7964 20.684ZM45.4289 20.782H45.3589C45.2936 20.9687 45.2049 21.146 45.0929 21.314C44.9903 21.4727 44.8549 21.6173 44.6869 21.748C44.5283 21.8787 44.3323 21.9813 44.0989 22.056C43.8749 22.1307 43.6136 22.168 43.3149 22.168C42.5589 22.168 41.9803 21.9207 41.5789 21.426C41.1776 20.9313 40.9769 20.2267 40.9769 19.312V14.692H42.7689V19.13C42.7689 19.634 42.8669 20.0213 43.0629 20.292C43.2589 20.5533 43.5716 20.684 44.0009 20.684C44.1783 20.684 44.3509 20.6607 44.5189 20.614C44.6963 20.5673 44.8503 20.4973 44.9809 20.404C45.1116 20.3013 45.2189 20.18 45.3029 20.04C45.3869 19.8907 45.4289 19.718 45.4289 19.522V14.692H47.2209V22H45.4289V20.782ZM51.7334 22C51.1174 22 50.6461 21.8413 50.3194 21.524C50.0021 21.1973 49.8434 20.7353 49.8434 20.138V16.12H48.7654V14.692H49.3254C49.5961 14.692 49.7781 14.6313 49.8714 14.51C49.9741 14.3793 50.0254 14.188 50.0254 13.936V12.69H51.6354V14.692H53.1334V16.12H51.6354V20.572H53.0214V22H51.7334Z"/><line x1="128.5" x2="128.5" y2="171" stroke="#DDE1E6"/><line x1="448.5" x2="448.5" y2="171" stroke="#DDE1E6"/></svg>