<svg xmlns="http://www.w3.org/2000/svg" width="441" height="603" fill="none" viewBox="0 0 441 603"><line x1="220.121" x2="221.121" y1="212.938" y2="224.938" stroke="#000" stroke-width="1.5"/><line x1="220.497" x2="232.497" y1="212.26" y2="214.26" stroke="#000" stroke-width="1.5"/><path fill="#000" d="M295.553 131.656V120.88H296.393V131.656H295.553ZM305 129.22C305.68 129.156 306.224 128.924 306.632 128.524C307.048 128.116 307.256 127.488 307.256 126.64C307.256 126.088 307.224 125.58 307.16 125.116C307.096 124.644 307 124.128 306.872 123.568H307.916C308.044 124.104 308.136 124.612 308.192 125.092C308.256 125.572 308.288 126.076 308.288 126.604C308.288 127.428 308.14 128.092 307.844 128.596C307.548 129.092 307.152 129.46 306.656 129.7C306.16 129.932 305.608 130.068 305 130.108V132.88H303.968V130.108C303.36 130.084 302.82 129.96 302.348 129.736C301.876 129.512 301.504 129.16 301.232 128.68C300.968 128.192 300.836 127.552 300.836 126.76V123.568H301.88V126.796C301.88 127.396 301.976 127.868 302.168 128.212C302.36 128.556 302.616 128.804 302.936 128.956C303.256 129.108 303.6 129.2 303.968 129.232V120.892H305V129.22ZM312.649 121.12H314.197L312.817 124.444H312.013L312.649 121.12ZM320.165 121.12H321.713L320.333 124.444H319.529L320.165 121.12Z"/><path fill="#EDF5FF" d="M208.38 426C208.38 414.358 207.363 402.737 205.342 391.271L8.37988 426H208.38Z"/><path fill="#EDF5FF" d="M208.38 426.001C208.38 437.643 207.363 449.264 205.342 460.729L8.37988 426.001H208.38Z"/><path fill="#F6F2FF" d="M205.341 460.73C202.307 477.94 197.03 494.678 189.645 510.517L8.37988 426.001L205.341 460.73Z"/><path fill="#A6C8FF" d="M171.749 310.83C165.071 301.293 157.574 292.358 149.341 284.125L7.91895 425.546L171.749 310.83Z"/><path fill="#A6C8FF" d="M171.75 310.831C178.428 320.368 184.26 330.47 189.18 341.022L7.91932 425.546L171.75 310.831Z"/><path fill="#D4BBFF" d="M189.181 341.022C196.566 356.86 201.844 373.598 204.879 390.808L7.91912 425.546L189.181 341.022Z"/><path fill="#DDE1E6" d="M389.56 601.656V590.88H390.4V601.656H389.56ZM399.007 599.22C399.687 599.156 400.231 598.924 400.639 598.524C401.055 598.116 401.263 597.488 401.263 596.64C401.263 596.088 401.231 595.58 401.167 595.116C401.103 594.644 401.007 594.128 400.879 593.568H401.923C402.051 594.104 402.143 594.612 402.199 595.092C402.263 595.572 402.295 596.076 402.295 596.604C402.295 597.428 402.147 598.092 401.851 598.596C401.555 599.092 401.159 599.46 400.663 599.7C400.167 599.932 399.615 600.068 399.007 600.108V602.88H397.975V600.108C397.367 600.084 396.827 599.96 396.355 599.736C395.883 599.512 395.511 599.16 395.239 598.68C394.975 598.192 394.843 597.552 394.843 596.76V593.568H395.887V596.796C395.887 597.396 395.983 597.868 396.175 598.212C396.367 598.556 396.623 598.804 396.943 598.956C397.263 599.108 397.607 599.2 397.975 599.232V590.892H399.007V599.22ZM406.656 591.12H408.204L406.824 594.444H406.02L406.656 591.12Z"/><path fill="#DDE1E6" d="M408.733 426.354C408.929 426.158 408.929 425.842 408.733 425.646L405.551 422.464C405.356 422.269 405.04 422.269 404.844 422.464C404.649 422.66 404.649 422.976 404.844 423.172L407.673 426L404.844 428.828C404.649 429.024 404.649 429.34 404.844 429.536C405.04 429.731 405.356 429.731 405.551 429.536L408.733 426.354ZM208.38 426.5L408.38 426.5V425.5L208.38 425.5V426.5Z"/><path fill="#000" d="M8.91021 25.4697C8.61732 25.1768 8.14245 25.1768 7.84955 25.4697L3.07658 30.2426C2.78369 30.5355 2.78369 31.0104 3.07658 31.3033C3.36948 31.5962 3.84435 31.5962 4.13724 31.3033L8.37988 27.0607L12.6225 31.3033C12.9154 31.5962 13.3903 31.5962 13.6832 31.3033C13.9761 31.0104 13.9761 30.5355 13.6832 30.2426L8.91021 25.4697ZM9.12988 426L9.12988 26H7.62988L7.62988 426H9.12988Z"/><path fill="#000" d="M402.61 356.215C402.729 356.045 402.688 355.811 402.518 355.693L399.753 353.757C399.584 353.638 399.35 353.679 399.231 353.849C399.112 354.018 399.154 354.252 399.323 354.371L401.781 356.092L400.06 358.549C399.941 358.719 399.982 358.953 400.152 359.072C400.322 359.19 400.556 359.149 400.674 358.979L402.61 356.215ZM8.445 425.828L10.907 425.394L10.7768 424.656L8.31476 425.09L8.445 425.828ZM13.8614 424.873L18.7855 424.005L18.6552 423.266L13.7312 424.135L13.8614 424.873ZM21.7399 423.484L26.6639 422.616L26.5337 421.877L21.6097 422.745L21.7399 423.484ZM29.6184 422.095L34.5424 421.227L34.4122 420.488L29.4881 421.356L29.6184 422.095ZM37.4968 420.706L42.4209 419.837L42.2906 419.099L37.3666 419.967L37.4968 420.706ZM45.3753 419.316L50.2993 418.448L50.1691 417.71L45.2451 418.578L45.3753 419.316ZM53.2538 417.927L58.1778 417.059L58.0476 416.32L53.1235 417.189L53.2538 417.927ZM61.1322 416.538L66.0562 415.67L65.926 414.931L61.002 415.8L61.1322 416.538ZM69.0107 415.149L73.9347 414.281L73.8045 413.542L68.8804 414.41L69.0107 415.149ZM76.8891 413.76L81.8132 412.891L81.6829 412.153L76.7589 413.021L76.8891 413.76ZM84.7676 412.371L89.6916 411.502L89.5614 410.764L84.6374 411.632L84.7676 412.371ZM92.6461 410.981L97.5701 410.113L97.4399 409.375L92.5158 410.243L92.6461 410.981ZM100.525 409.592L105.449 408.724L105.318 407.985L100.394 408.854L100.525 409.592ZM108.403 408.203L113.327 407.335L113.197 406.596L108.273 407.464L108.403 408.203ZM116.281 406.814L121.205 405.946L121.075 405.207L116.151 406.075L116.281 406.814ZM124.16 405.425L129.084 404.556L128.954 403.818L124.03 404.686L124.16 405.425ZM132.038 404.035L136.962 403.167L136.832 402.429L131.908 403.297L132.038 404.035ZM139.917 402.646L144.841 401.778L144.711 401.039L139.787 401.908L139.917 402.646ZM147.795 401.257L152.719 400.389L152.589 399.65L147.665 400.518L147.795 401.257ZM155.674 399.868L160.598 399L160.468 398.261L155.544 399.129L155.674 399.868ZM163.552 398.479L168.476 397.61L168.346 396.872L163.422 397.74L163.552 398.479ZM171.431 397.09L176.355 396.221L176.224 395.483L171.3 396.351L171.431 397.09ZM179.309 395.7L184.233 394.832L184.103 394.093L179.179 394.962L179.309 395.7ZM187.188 394.311L192.112 393.443L191.981 392.704L187.057 393.573L187.188 394.311ZM195.066 392.922L199.99 392.054L199.86 391.315L194.936 392.183L195.066 392.922ZM202.945 391.533L207.869 390.665L207.738 389.926L202.814 390.794L202.945 391.533ZM210.823 390.144L215.747 389.275L215.617 388.537L210.693 389.405L210.823 390.144ZM218.701 388.754L223.625 387.886L223.495 387.148L218.571 388.016L218.701 388.754ZM226.58 387.365L231.504 386.497L231.374 385.758L226.45 386.627L226.58 387.365ZM234.458 385.976L239.382 385.108L239.252 384.369L234.328 385.237L234.458 385.976ZM242.337 384.587L247.261 383.719L247.131 382.98L242.207 383.848L242.337 384.587ZM250.215 383.198L255.139 382.329L255.009 381.591L250.085 382.459L250.215 383.198ZM258.094 381.808L263.018 380.94L262.888 380.202L257.964 381.07L258.094 381.808ZM265.972 380.419L270.896 379.551L270.766 378.812L265.842 379.681L265.972 380.419ZM273.851 379.03L278.775 378.162L278.644 377.423L273.72 378.291L273.851 379.03ZM281.729 377.641L286.653 376.773L286.523 376.034L281.599 376.902L281.729 377.641ZM289.608 376.252L294.532 375.383L294.401 374.645L289.477 375.513L289.608 376.252ZM297.486 374.863L302.41 373.994L302.28 373.256L297.356 374.124L297.486 374.863ZM305.365 373.473L310.289 372.605L310.158 371.867L305.234 372.735L305.365 373.473ZM313.243 372.084L318.167 371.216L318.037 370.477L313.113 371.346L313.243 372.084ZM321.121 370.695L326.045 369.827L325.915 369.088L320.991 369.956L321.121 370.695ZM329 369.306L333.924 368.438L333.794 367.699L328.87 368.567L329 369.306ZM336.878 367.917L341.802 367.048L341.672 366.31L336.748 367.178L336.878 367.917ZM344.757 366.527L349.681 365.659L349.551 364.921L344.627 365.789L344.757 366.527ZM352.635 365.138L357.559 364.27L357.429 363.531L352.505 364.4L352.635 365.138ZM360.514 363.749L365.438 362.881L365.308 362.142L360.384 363.01L360.514 363.749ZM368.392 362.36L373.316 361.492L373.186 360.753L368.262 361.621L368.392 362.36ZM376.271 360.971L381.195 360.102L381.064 359.364L376.14 360.232L376.271 360.971ZM384.149 359.582L389.073 358.713L388.943 357.975L384.019 358.843L384.149 359.582ZM392.028 358.192L396.952 357.324L396.821 356.585L391.897 357.454L392.028 358.192ZM399.906 356.803L402.368 356.369L402.238 355.63L399.776 356.065L399.906 356.803ZM402.917 356.43C403.155 356.091 403.072 355.623 402.733 355.385L397.204 351.514C396.865 351.276 396.397 351.359 396.159 351.698C395.922 352.037 396.004 352.505 396.344 352.742L401.258 356.184L397.817 361.099C397.579 361.438 397.662 361.906 398.001 362.143C398.34 362.381 398.808 362.298 399.046 361.959L402.917 356.43ZM8.51012 426.198L10.9721 425.763L10.7117 424.286L8.24965 424.72L8.51012 426.198ZM13.9266 425.243L18.8506 424.374L18.5901 422.897L13.6661 423.765L13.9266 425.243ZM21.805 423.853L26.7291 422.985L26.4686 421.508L21.5446 422.376L21.805 423.853ZM29.6835 422.464L34.6075 421.596L34.347 420.119L29.423 420.987L29.6835 422.464ZM37.5619 421.075L42.486 420.207L42.2255 418.73L37.3015 419.598L37.5619 421.075ZM45.4404 419.686L50.3644 418.818L50.104 417.34L45.1799 418.209L45.4404 419.686ZM53.3189 418.297L58.2429 417.428L57.9824 415.951L53.0584 416.819L53.3189 418.297ZM61.1973 416.907L66.1214 416.039L65.8609 414.562L60.9369 415.43L61.1973 416.907ZM69.0758 415.518L73.9998 414.65L73.7394 413.173L68.8153 414.041L69.0758 415.518ZM76.9543 414.129L81.8783 413.261L81.6178 411.784L76.6938 412.652L76.9543 414.129ZM84.8327 412.74L89.7568 411.872L89.4963 410.394L84.5722 411.263L84.8327 412.74ZM92.7112 411.351L97.6352 410.482L97.3747 409.005L92.4507 409.873L92.7112 411.351ZM100.59 409.961L105.514 409.093L105.253 407.616L100.329 408.484L100.59 409.961ZM108.468 408.572L113.392 407.704L113.132 406.227L108.208 407.095L108.468 408.572ZM116.347 407.183L121.271 406.315L121.01 404.838L116.086 405.706L116.347 407.183ZM124.225 405.794L129.149 404.926L128.889 403.448L123.965 404.317L124.225 405.794ZM132.103 404.405L137.028 403.537L136.767 402.059L131.843 402.928L132.103 404.405ZM139.982 403.016L144.906 402.147L144.646 400.67L139.721 401.538L139.982 403.016ZM147.86 401.626L152.784 400.758L152.524 399.281L147.6 400.149L147.86 401.626ZM155.739 400.237L160.663 399.369L160.402 397.892L155.478 398.76L155.739 400.237ZM163.617 398.848L168.541 397.98L168.281 396.503L163.357 397.371L163.617 398.848ZM171.496 397.459L176.42 396.591L176.159 395.113L171.235 395.982L171.496 397.459ZM179.374 396.07L184.298 395.201L184.038 393.724L179.114 394.592L179.374 396.07ZM187.253 394.68L192.177 393.812L191.916 392.335L186.992 393.203L187.253 394.68ZM195.131 393.291L200.055 392.423L199.795 390.946L194.871 391.814L195.131 393.291ZM203.01 391.902L207.934 391.034L207.673 389.557L202.749 390.425L203.01 391.902ZM210.888 390.513L215.812 389.645L215.552 388.167L210.628 389.036L210.888 390.513ZM218.767 389.124L223.691 388.255L223.43 386.778L218.506 387.646L218.767 389.124ZM226.645 387.735L231.569 386.866L231.309 385.389L226.385 386.257L226.645 387.735ZM234.523 386.345L239.448 385.477L239.187 384L234.263 384.868L234.523 386.345ZM242.402 384.956L247.326 384.088L247.066 382.611L242.141 383.479L242.402 384.956ZM250.28 383.567L255.204 382.699L254.944 381.222L250.02 382.09L250.28 383.567ZM258.159 382.178L263.083 381.31L262.822 379.832L257.898 380.701L258.159 382.178ZM266.037 380.789L270.961 379.92L270.701 378.443L265.777 379.311L266.037 380.789ZM273.916 379.399L278.84 378.531L278.579 377.054L273.655 377.922L273.916 379.399ZM281.794 378.01L286.718 377.142L286.458 375.665L281.534 376.533L281.794 378.01ZM289.673 376.621L294.597 375.753L294.336 374.276L289.412 375.144L289.673 376.621ZM297.551 375.232L302.475 374.364L302.215 372.886L297.291 373.755L297.551 375.232ZM305.43 373.843L310.354 372.974L310.093 371.497L305.169 372.365L305.43 373.843ZM313.308 372.453L318.232 371.585L317.972 370.108L313.048 370.976L313.308 372.453ZM321.187 371.064L326.111 370.196L325.85 368.719L320.926 369.587L321.187 371.064ZM329.065 369.675L333.989 368.807L333.729 367.33L328.805 368.198L329.065 369.675ZM336.943 368.286L341.868 367.418L341.607 365.94L336.683 366.809L336.943 368.286ZM344.822 366.897L349.746 366.028L349.486 364.551L344.561 365.42L344.822 366.897ZM352.7 365.508L357.624 364.639L357.364 363.162L352.44 364.03L352.7 365.508ZM360.579 364.118L365.503 363.25L365.242 361.773L360.318 362.641L360.579 364.118ZM368.457 362.729L373.381 361.861L373.121 360.384L368.197 361.252L368.457 362.729ZM376.336 361.34L381.26 360.472L380.999 358.995L376.075 359.863L376.336 361.34ZM384.214 359.951L389.138 359.083L388.878 357.605L383.954 358.474L384.214 359.951ZM392.093 358.562L397.017 357.693L396.756 356.216L391.832 357.084L392.093 358.562ZM399.971 357.172L402.433 356.738L402.173 355.261L399.711 355.695L399.971 357.172Z"/><path fill="#DDE1E6" d="M371.373 256.17C371.467 255.91 371.333 255.623 371.073 255.529L366.842 253.997C366.583 253.903 366.296 254.037 366.202 254.297C366.108 254.557 366.242 254.843 366.502 254.937L370.263 256.299L368.901 260.06C368.806 260.32 368.941 260.607 369.2 260.701C369.46 260.795 369.747 260.661 369.841 260.401L371.373 256.17ZM189.586 341.453L371.115 256.452L370.691 255.547L189.162 340.547L189.586 341.453Z"/><path fill="#DDE1E6" d="M371.16 595.752C371.549 595.61 371.749 595.18 371.608 594.791L369.299 588.448C369.157 588.059 368.727 587.858 368.338 588C367.949 588.141 367.748 588.572 367.89 588.961L369.942 594.599L364.304 596.651C363.914 596.793 363.714 597.223 363.855 597.612C363.997 598.002 364.427 598.202 364.817 598.061L371.16 595.752ZM8.06292 426.68L370.586 595.727L371.22 594.368L8.69685 425.32L8.06292 426.68Z"/><path fill="#000" d="M290.973 143C290.973 142.586 290.637 142.25 290.223 142.25L283.473 142.25C283.058 142.25 282.723 142.586 282.723 143C282.723 143.414 283.058 143.75 283.473 143.75L289.473 143.75L289.473 149.75C289.473 150.164 289.808 150.5 290.223 150.5C290.637 150.5 290.973 150.164 290.973 149.75L290.973 143ZM7.91021 426.373L290.753 143.53L289.692 142.47L6.84955 425.312L7.91021 426.373Z"/><path fill="#000" d="M3.55988 14.656V3.88H4.39988V14.656H3.55988Z"/><path fill="#DDE1E6" d="M422.56 432.656V421.88H423.4V432.656H422.56ZM427.627 431L429.931 427.856L427.687 424.808H428.839L429.775 426.116L430.519 427.148H430.567L431.287 426.116L432.211 424.808H433.315L431.047 427.844L433.375 431H432.223L431.179 429.548L430.471 428.564H430.423L429.739 429.548L428.731 431H427.627Z"/><path fill="#000" d="M412.56 362.656V351.88H413.4V362.656H412.56ZM420.567 361.144C419.919 361.144 419.359 361.036 418.887 360.82C418.423 360.596 418.027 360.3 417.699 359.932L418.347 359.368C418.643 359.68 418.967 359.92 419.319 360.088C419.671 360.256 420.095 360.34 420.591 360.34C421.071 360.34 421.463 360.256 421.767 360.088C422.079 359.912 422.235 359.64 422.235 359.272C422.235 359.112 422.203 358.98 422.139 358.876C422.083 358.764 422.003 358.676 421.899 358.612C421.795 358.548 421.679 358.5 421.551 358.468C421.423 358.428 421.287 358.396 421.143 358.372L420.171 358.228C419.955 358.196 419.719 358.152 419.463 358.096C419.215 358.04 418.987 357.952 418.779 357.832C418.571 357.704 418.395 357.536 418.251 357.328C418.115 357.12 418.047 356.848 418.047 356.512C418.047 356.2 418.107 355.932 418.227 355.708C418.355 355.476 418.531 355.284 418.755 355.132C418.979 354.972 419.243 354.856 419.547 354.784C419.851 354.704 420.183 354.664 420.543 354.664C421.103 354.664 421.587 354.752 421.995 354.928C422.411 355.104 422.767 355.348 423.063 355.66L422.439 356.248C422.367 356.16 422.275 356.072 422.163 355.984C422.059 355.888 421.927 355.804 421.767 355.732C421.615 355.652 421.435 355.588 421.227 355.54C421.019 355.492 420.779 355.468 420.507 355.468C420.019 355.468 419.643 355.552 419.379 355.72C419.123 355.888 418.995 356.132 418.995 356.452C418.995 356.612 419.023 356.748 419.079 356.86C419.143 356.964 419.227 357.048 419.331 357.112C419.435 357.176 419.551 357.228 419.679 357.268C419.815 357.3 419.951 357.328 420.087 357.352L421.059 357.496C421.283 357.528 421.519 357.572 421.767 357.628C422.015 357.684 422.243 357.776 422.451 357.904C422.659 358.024 422.831 358.188 422.967 358.396C423.111 358.604 423.183 358.876 423.183 359.212C423.183 359.828 422.943 360.304 422.463 360.64C421.991 360.976 421.359 361.144 420.567 361.144Z"/><path fill="#E0E0E0" d="M380.56 257.656V246.88H381.4V257.656H380.56ZM390.007 255.22C390.687 255.156 391.231 254.924 391.639 254.524C392.055 254.116 392.263 253.488 392.263 252.64C392.263 252.088 392.231 251.58 392.167 251.116C392.103 250.644 392.007 250.128 391.879 249.568H392.923C393.051 250.104 393.143 250.612 393.199 251.092C393.263 251.572 393.295 252.076 393.295 252.604C393.295 253.428 393.147 254.092 392.851 254.596C392.555 255.092 392.159 255.46 391.663 255.7C391.167 255.932 390.615 256.068 390.007 256.108V258.88H388.975V256.108C388.367 256.084 387.827 255.96 387.355 255.736C386.883 255.512 386.511 255.16 386.239 254.68C385.975 254.192 385.843 253.552 385.843 252.76V249.568H386.887V252.796C386.887 253.396 386.983 253.868 387.175 254.212C387.367 254.556 387.623 254.804 387.943 254.956C388.263 255.108 388.607 255.2 388.975 255.232V246.892H390.007V255.22Z"/><path stroke="url(#paint0_linear)" stroke-dasharray="5 5" stroke-width=".75" d="M279.266 551.785C305.292 495.972 313.511 433.5 302.807 372.854C292.102 312.208 262.993 256.325 219.432 212.794"/><path fill="#000" d="M326.474 406.992H326.426C326.026 407.76 325.39 408.144 324.518 408.144C323.758 408.144 323.162 407.86 322.73 407.292C322.306 406.724 322.094 405.928 322.094 404.904C322.094 403.88 322.306 403.084 322.73 402.516C323.162 401.948 323.758 401.664 324.518 401.664C325.39 401.664 326.026 402.048 326.426 402.816H326.474V399.12H327.434V408H326.474V406.992ZM324.89 407.292C325.106 407.292 325.31 407.264 325.502 407.208C325.694 407.152 325.862 407.072 326.006 406.968C326.15 406.856 326.262 406.724 326.342 406.572C326.43 406.412 326.474 406.228 326.474 406.02V403.788C326.474 403.58 326.43 403.4 326.342 403.248C326.262 403.088 326.15 402.956 326.006 402.852C325.862 402.74 325.694 402.656 325.502 402.6C325.31 402.544 325.106 402.516 324.89 402.516C324.33 402.516 323.894 402.688 323.582 403.032C323.278 403.368 323.126 403.816 323.126 404.376V405.432C323.126 405.992 323.278 406.444 323.582 406.788C323.894 407.124 324.33 407.292 324.89 407.292ZM332.873 400.44C332.593 400.44 332.397 400.384 332.285 400.272C332.173 400.152 332.117 400.004 332.117 399.828V399.636C332.117 399.46 332.173 399.316 332.285 399.204C332.397 399.084 332.593 399.024 332.873 399.024C333.153 399.024 333.349 399.084 333.461 399.204C333.573 399.316 333.629 399.46 333.629 399.636V399.828C333.629 400.004 333.573 400.152 333.461 400.272C333.349 400.384 333.153 400.44 332.873 400.44ZM330.161 407.184H332.393V402.624H330.161V401.808H333.353V407.184H335.441V408H330.161V407.184ZM337.401 407.184H339.489V402.624H337.281V401.808H339.489V400.536C339.489 400.12 339.597 399.78 339.813 399.516C340.037 399.252 340.385 399.12 340.857 399.12H342.933V399.936H340.449V401.808H342.933V402.624H340.449V407.184H342.657V408H337.401V407.184ZM344.916 407.184H347.004V402.624H344.796V401.808H347.004V400.536C347.004 400.12 347.112 399.78 347.328 399.516C347.552 399.252 347.9 399.12 348.372 399.12H350.448V399.936H347.964V401.808H350.448V402.624H347.964V407.184H350.172V408H344.916V407.184ZM356.499 406.992H356.451C356.387 407.144 356.307 407.292 356.211 407.436C356.115 407.572 355.995 407.692 355.851 407.796C355.715 407.9 355.551 407.984 355.359 408.048C355.167 408.112 354.943 408.144 354.687 408.144C354.039 408.144 353.519 407.94 353.127 407.532C352.735 407.116 352.539 406.532 352.539 405.78V401.808H353.499V405.612C353.499 406.18 353.623 406.604 353.871 406.884C354.119 407.156 354.483 407.292 354.963 407.292C355.155 407.292 355.343 407.268 355.527 407.22C355.711 407.172 355.875 407.1 356.019 407.004C356.163 406.908 356.279 406.788 356.367 406.644C356.455 406.492 356.499 406.312 356.499 406.104V401.808H357.459V408H356.499V406.992ZM362.623 408.144C361.975 408.144 361.415 408.036 360.943 407.82C360.479 407.596 360.083 407.3 359.755 406.932L360.403 406.368C360.699 406.68 361.023 406.92 361.375 407.088C361.727 407.256 362.151 407.34 362.647 407.34C363.127 407.34 363.519 407.256 363.823 407.088C364.135 406.912 364.291 406.64 364.291 406.272C364.291 406.112 364.259 405.98 364.195 405.876C364.139 405.764 364.059 405.676 363.955 405.612C363.851 405.548 363.735 405.5 363.607 405.468C363.479 405.428 363.343 405.396 363.199 405.372L362.227 405.228C362.011 405.196 361.775 405.152 361.519 405.096C361.271 405.04 361.043 404.952 360.835 404.832C360.627 404.704 360.451 404.536 360.307 404.328C360.171 404.12 360.103 403.848 360.103 403.512C360.103 403.2 360.163 402.932 360.283 402.708C360.411 402.476 360.587 402.284 360.811 402.132C361.035 401.972 361.299 401.856 361.603 401.784C361.907 401.704 362.239 401.664 362.599 401.664C363.159 401.664 363.643 401.752 364.051 401.928C364.467 402.104 364.823 402.348 365.119 402.66L364.495 403.248C364.423 403.16 364.331 403.072 364.219 402.984C364.115 402.888 363.983 402.804 363.823 402.732C363.671 402.652 363.491 402.588 363.283 402.54C363.075 402.492 362.835 402.468 362.563 402.468C362.075 402.468 361.699 402.552 361.435 402.72C361.179 402.888 361.051 403.132 361.051 403.452C361.051 403.612 361.079 403.748 361.135 403.86C361.199 403.964 361.283 404.048 361.387 404.112C361.491 404.176 361.607 404.228 361.735 404.268C361.871 404.3 362.007 404.328 362.143 404.352L363.115 404.496C363.339 404.528 363.575 404.572 363.823 404.628C364.071 404.684 364.299 404.776 364.507 404.904C364.715 405.024 364.887 405.188 365.023 405.396C365.167 405.604 365.239 405.876 365.239 406.212C365.239 406.828 364.999 407.304 364.519 407.64C364.047 407.976 363.415 408.144 362.623 408.144ZM370.174 408.144C369.726 408.144 369.322 408.068 368.962 407.916C368.61 407.764 368.306 407.548 368.05 407.268C367.802 406.98 367.61 406.64 367.474 406.248C367.338 405.848 367.27 405.404 367.27 404.916C367.27 404.42 367.338 403.972 367.474 403.572C367.618 403.172 367.814 402.832 368.062 402.552C368.31 402.264 368.606 402.044 368.95 401.892C369.302 401.74 369.69 401.664 370.114 401.664C370.53 401.664 370.906 401.74 371.242 401.892C371.586 402.044 371.878 402.256 372.118 402.528C372.358 402.792 372.542 403.108 372.67 403.476C372.798 403.844 372.862 404.248 372.862 404.688V405.144H368.278V405.432C368.278 405.704 368.322 405.956 368.41 406.188C368.498 406.42 368.622 406.62 368.782 406.788C368.95 406.956 369.15 407.088 369.382 407.184C369.622 407.272 369.886 407.316 370.174 407.316C370.59 407.316 370.95 407.22 371.254 407.028C371.558 406.836 371.79 406.572 371.95 406.236L372.658 406.716C372.474 407.132 372.166 407.476 371.734 407.748C371.31 408.012 370.79 408.144 370.174 408.144ZM370.114 402.456C369.85 402.456 369.606 402.504 369.382 402.6C369.158 402.696 368.962 402.828 368.794 402.996C368.634 403.164 368.506 403.364 368.41 403.596C368.322 403.82 368.278 404.068 368.278 404.34V404.424H371.83V404.292C371.83 404.02 371.786 403.772 371.698 403.548C371.618 403.324 371.502 403.132 371.35 402.972C371.206 402.804 371.026 402.676 370.81 402.588C370.602 402.5 370.37 402.456 370.114 402.456ZM374.905 407.184H376.717V402.624H374.905V401.808H377.677V403.368H377.737C377.865 402.88 378.105 402.5 378.457 402.228C378.817 401.948 379.273 401.808 379.825 401.808H380.689V402.768H379.525C378.973 402.768 378.525 402.928 378.181 403.248C377.845 403.568 377.677 403.988 377.677 404.508V407.184H380.077V408H374.905V407.184Z"/><path stroke="#DDE1E6" stroke-width=".85" d="M437.374 422L440.374 427.5L437.374 433"/><path stroke="#000" d="M17.6611 4L20.6611 9.5L17.6611 15"/><path stroke="#000" d="M6.37402 10.5908L9.16064 14L15.1606 5"/><path stroke="#DDE1E6" stroke-width=".85" d="M397.374 247L400.374 252.5L397.374 258"/><path stroke="#000" stroke-width=".85" d="M427.374 352L430.374 357.5L427.374 363"/><path stroke="#DDE1E6" stroke-width=".85" d="M414.374 591L417.374 596.5L414.374 602"/><path stroke="#000" stroke-width=".85" d="M327.374 121L330.374 126.5L327.374 132"/><path fill="#000" d="M155.444 354H149.852V352.968L152.648 350.448C153.056 350.08 153.392 349.704 153.656 349.32C153.92 348.928 154.052 348.516 154.052 348.084V347.94C154.052 347.436 153.92 347.048 153.656 346.776C153.392 346.496 153 346.356 152.48 346.356C151.968 346.356 151.572 346.488 151.292 346.752C151.02 347.008 150.816 347.352 150.68 347.784L149.78 347.448C149.86 347.2 149.968 346.96 150.104 346.728C150.248 346.488 150.428 346.276 150.644 346.092C150.86 345.908 151.12 345.76 151.424 345.648C151.736 345.536 152.096 345.48 152.504 345.48C152.92 345.48 153.288 345.54 153.608 345.66C153.936 345.78 154.208 345.948 154.424 346.164C154.648 346.38 154.816 346.636 154.928 346.932C155.048 347.228 155.108 347.552 155.108 347.904C155.108 348.224 155.06 348.524 154.964 348.804C154.876 349.084 154.748 349.352 154.58 349.608C154.42 349.864 154.224 350.116 153.992 350.364C153.768 350.604 153.516 350.844 153.236 351.084L150.896 353.124H155.444V354ZM162.995 349.476C162.995 350.444 162.895 351.276 162.695 351.972C162.503 352.66 162.191 353.192 161.759 353.568C161.335 353.936 160.771 354.12 160.067 354.12C159.075 354.12 158.343 353.708 157.871 352.884C157.407 352.06 157.175 350.924 157.175 349.476C157.175 348.5 157.271 347.664 157.463 346.968C157.655 346.272 157.963 345.74 158.387 345.372C158.819 345.004 159.379 344.82 160.067 344.82C161.067 344.82 161.803 345.228 162.275 346.044C162.755 346.852 162.995 347.996 162.995 349.476ZM160.067 345.684C159.459 345.684 159.011 345.956 158.723 346.5C158.443 347.036 158.283 347.84 158.243 348.912H161.915C161.875 347.84 161.711 347.036 161.423 346.5C161.135 345.956 160.683 345.684 160.067 345.684ZM160.067 353.256C160.691 353.256 161.151 352.968 161.447 352.392C161.743 351.816 161.903 350.948 161.927 349.788H158.243C158.259 350.932 158.407 351.796 158.687 352.38C158.975 352.964 159.435 353.256 160.067 353.256ZM167.116 353.256V350.748H164.716V349.932H167.116V347.424H168.028V349.932H170.428V350.748H168.028V353.256H167.116ZM174.187 348.072C173.891 348.464 173.651 348.876 173.467 349.308C173.291 349.732 173.203 350.224 173.203 350.784C173.203 351.368 173.295 351.836 173.479 352.188C173.671 352.532 173.923 352.784 174.235 352.944C174.547 353.104 174.887 353.204 175.255 353.244V349.668C175.255 348.94 175.423 348.388 175.759 348.012C176.103 347.636 176.567 347.448 177.151 347.448C177.647 347.448 178.071 347.584 178.423 347.856C178.775 348.12 179.047 348.492 179.239 348.972C179.431 349.444 179.527 349.996 179.527 350.628C179.527 351.404 179.375 352.044 179.071 352.548C178.775 353.044 178.379 353.42 177.883 353.676C177.395 353.932 176.863 354.076 176.287 354.108V356.88H175.255V354.108C174.663 354.076 174.131 353.944 173.659 353.712C173.195 353.48 172.827 353.124 172.555 352.644C172.283 352.164 172.147 351.532 172.147 350.748C172.147 350.1 172.263 349.508 172.495 348.972C172.727 348.428 173.019 347.94 173.371 347.508L174.187 348.072ZM177.163 348.324C176.931 348.324 176.727 348.42 176.551 348.612C176.375 348.804 176.287 349.152 176.287 349.656V353.244C176.695 353.204 177.063 353.088 177.391 352.896C177.719 352.696 177.979 352.412 178.171 352.044C178.363 351.668 178.459 351.2 178.459 350.64C178.459 349.888 178.335 349.316 178.087 348.924C177.847 348.524 177.539 348.324 177.163 348.324Z"/><defs><linearGradient id="paint0_linear" x1="263.403" x2="263.403" y1="212.794" y2="551.785" gradientUnits="userSpaceOnUse"><stop/><stop offset=".911" stop-color="#DDE1E6" stop-opacity=".85"/></linearGradient></defs></svg>