<svg xmlns="http://www.w3.org/2000/svg" width="464" height="434" fill="none" viewBox="0 0 464 434"><path stroke="#000" stroke-dasharray="5 5" stroke-width=".75" d="M361.545 234.5C357.545 202 341.545 175 318.045 158"/><path fill="#000" d="M295.225 131.656V120.88H296.065V131.656H295.225ZM304.672 129.22C305.352 129.156 305.896 128.924 306.304 128.524C306.72 128.116 306.928 127.488 306.928 126.64C306.928 126.088 306.896 125.58 306.832 125.116C306.768 124.644 306.672 124.128 306.544 123.568H307.588C307.716 124.104 307.808 124.612 307.864 125.092C307.928 125.572 307.96 126.076 307.96 126.604C307.96 127.428 307.812 128.092 307.516 128.596C307.22 129.092 306.824 129.46 306.328 129.7C305.832 129.932 305.28 130.068 304.672 130.108V132.88H303.64V130.108C303.032 130.084 302.492 129.96 302.02 129.736C301.548 129.512 301.176 129.16 300.904 128.68C300.64 128.192 300.508 127.552 300.508 126.76V123.568H301.552V126.796C301.552 127.396 301.648 127.868 301.84 128.212C302.032 128.556 302.288 128.804 302.608 128.956C302.928 129.108 303.272 129.2 303.64 129.232V120.892H304.672V129.22ZM312.321 121.12H313.869L312.489 124.444H311.685L312.321 121.12ZM319.836 121.12H321.384L320.004 124.444H319.2L319.836 121.12Z"/><path fill="#A6C8FF" d="M171.42 310.83C164.742 301.293 157.244 292.358 149.012 284.125L7.58988 425.546L171.42 310.83Z"/><path fill="#A6C8FF" d="M206.591 425.546C206.591 413.903 205.574 402.283 203.553 390.817L6.59082 425.546H206.591Z"/><path fill="#A6C8FF" d="M171.42 310.83C178.098 320.367 183.931 330.469 188.851 341.021L7.58988 425.546L171.42 310.83Z"/><path fill="#000" d="M408.398 426.354C408.594 426.158 408.594 425.842 408.398 425.646L405.216 422.464C405.021 422.269 404.705 422.269 404.509 422.464C404.314 422.66 404.314 422.976 404.509 423.172L407.338 426L404.509 428.828C404.314 429.024 404.314 429.34 404.509 429.536C404.705 429.731 405.021 429.731 405.216 429.536L408.398 426.354ZM8.04492 426.5L408.045 426.5V425.5L8.04492 425.5V426.5Z"/><path fill="#000" d="M8.58111 25.4697C8.28822 25.1768 7.81334 25.1768 7.52045 25.4697L2.74748 30.2426C2.45459 30.5355 2.45459 31.0104 2.74748 31.3033C3.04037 31.5962 3.51525 31.5962 3.80814 31.3033L8.05078 27.0607L12.2934 31.3033C12.5863 31.5962 13.0612 31.5962 13.3541 31.3033C13.647 31.0104 13.647 30.5355 13.3541 30.2426L8.58111 25.4697ZM8.80078 426L8.80078 26H7.30078L7.30078 426H8.80078Z"/><path fill="#000" d="M402.281 356.215C402.4 356.045 402.359 355.811 402.189 355.693L399.424 353.757C399.255 353.638 399.021 353.679 398.902 353.849C398.783 354.018 398.824 354.252 398.994 354.371L401.452 356.092L399.731 358.549C399.612 358.719 399.653 358.953 399.823 359.072C399.993 359.19 400.226 359.149 400.345 358.979L402.281 356.215ZM8.1159 425.828L10.5779 425.394L10.4477 424.656L7.98566 425.09L8.1159 425.828ZM13.5323 424.873L18.4564 424.005L18.3261 423.266L13.4021 424.135L13.5323 424.873ZM21.4108 423.484L26.3348 422.616L26.2046 421.877L21.2806 422.745L21.4108 423.484ZM29.2893 422.095L34.2133 421.227L34.0831 420.488L29.159 421.356L29.2893 422.095ZM37.1677 420.706L42.0918 419.837L41.9615 419.099L37.0375 419.967L37.1677 420.706ZM45.0462 419.316L49.9702 418.448L49.84 417.71L44.916 418.578L45.0462 419.316ZM52.9247 417.927L57.8487 417.059L57.7185 416.32L52.7944 417.189L52.9247 417.927ZM60.8031 416.538L65.7271 415.67L65.5969 414.931L60.6729 415.8L60.8031 416.538ZM68.6816 415.149L73.6056 414.281L73.4754 413.542L68.5513 414.41L68.6816 415.149ZM76.56 413.76L81.4841 412.891L81.3538 412.153L76.4298 413.021L76.56 413.76ZM84.4385 412.371L89.3625 411.502L89.2323 410.764L84.3083 411.632L84.4385 412.371ZM92.317 410.981L97.241 410.113L97.1108 409.375L92.1867 410.243L92.317 410.981ZM100.195 409.592L105.119 408.724L104.989 407.985L100.065 408.854L100.195 409.592ZM108.074 408.203L112.998 407.335L112.868 406.596L107.944 407.464L108.074 408.203ZM115.952 406.814L120.876 405.946L120.746 405.207L115.822 406.075L115.952 406.814ZM123.831 405.425L128.755 404.556L128.625 403.818L123.701 404.686L123.831 405.425ZM131.709 404.035L136.633 403.167L136.503 402.429L131.579 403.297L131.709 404.035ZM139.588 402.646L144.512 401.778L144.382 401.039L139.457 401.908L139.588 402.646ZM147.466 401.257L152.39 400.389L152.26 399.65L147.336 400.518L147.466 401.257ZM155.345 399.868L160.269 399L160.138 398.261L155.214 399.129L155.345 399.868ZM163.223 398.479L168.147 397.61L168.017 396.872L163.093 397.74L163.223 398.479ZM171.102 397.09L176.026 396.221L175.895 395.483L170.971 396.351L171.102 397.09ZM178.98 395.7L183.904 394.832L183.774 394.093L178.85 394.962L178.98 395.7ZM186.859 394.311L191.783 393.443L191.652 392.704L186.728 393.573L186.859 394.311ZM194.737 392.922L199.661 392.054L199.531 391.315L194.607 392.183L194.737 392.922ZM202.615 391.533L207.539 390.665L207.409 389.926L202.485 390.794L202.615 391.533ZM210.494 390.144L215.418 389.275L215.288 388.537L210.364 389.405L210.494 390.144ZM218.372 388.754L223.296 387.886L223.166 387.148L218.242 388.016L218.372 388.754ZM226.251 387.365L231.175 386.497L231.045 385.758L226.121 386.627L226.251 387.365ZM234.129 385.976L239.053 385.108L238.923 384.369L233.999 385.237L234.129 385.976ZM242.008 384.587L246.932 383.719L246.802 382.98L241.877 383.848L242.008 384.587ZM249.886 383.198L254.81 382.329L254.68 381.591L249.756 382.459L249.886 383.198ZM257.765 381.808L262.689 380.94L262.558 380.202L257.634 381.07L257.765 381.808ZM265.643 380.419L270.567 379.551L270.437 378.812L265.513 379.681L265.643 380.419ZM273.522 379.03L278.446 378.162L278.315 377.423L273.391 378.291L273.522 379.03ZM281.4 377.641L286.324 376.773L286.194 376.034L281.27 376.902L281.4 377.641ZM289.279 376.252L294.203 375.383L294.072 374.645L289.148 375.513L289.279 376.252ZM297.157 374.863L302.081 373.994L301.951 373.256L297.027 374.124L297.157 374.863ZM305.035 373.473L309.959 372.605L309.829 371.867L304.905 372.735L305.035 373.473ZM312.914 372.084L317.838 371.216L317.708 370.477L312.784 371.346L312.914 372.084ZM320.792 370.695L325.716 369.827L325.586 369.088L320.662 369.956L320.792 370.695ZM328.671 369.306L333.595 368.438L333.465 367.699L328.541 368.567L328.671 369.306ZM336.549 367.917L341.473 367.048L341.343 366.31L336.419 367.178L336.549 367.917ZM344.428 366.527L349.352 365.659L349.222 364.921L344.298 365.789L344.428 366.527ZM352.306 365.138L357.23 364.27L357.1 363.531L352.176 364.4L352.306 365.138ZM360.185 363.749L365.109 362.881L364.978 362.142L360.054 363.01L360.185 363.749ZM368.063 362.36L372.987 361.492L372.857 360.753L367.933 361.621L368.063 362.36ZM375.942 360.971L380.866 360.102L380.735 359.364L375.811 360.232L375.942 360.971ZM383.82 359.582L388.744 358.713L388.614 357.975L383.69 358.843L383.82 359.582ZM391.699 358.192L396.623 357.324L396.492 356.585L391.568 357.454L391.699 358.192ZM399.577 356.803L402.039 356.369L401.909 355.63L399.447 356.065L399.577 356.803ZM402.588 356.43C402.826 356.091 402.743 355.623 402.404 355.385L396.875 351.514C396.535 351.276 396.068 351.359 395.83 351.698C395.593 352.037 395.675 352.505 396.014 352.742L400.929 356.184L397.488 361.099C397.25 361.438 397.333 361.906 397.672 362.143C398.011 362.381 398.479 362.298 398.717 361.959L402.588 356.43ZM8.18102 426.198L10.643 425.763L10.3826 424.286L7.92055 424.72L8.18102 426.198ZM13.5975 425.243L18.5215 424.374L18.261 422.897L13.337 423.765L13.5975 425.243ZM21.4759 423.853L26.4 422.985L26.1395 421.508L21.2155 422.376L21.4759 423.853ZM29.3544 422.464L34.2784 421.596L34.0179 420.119L29.0939 420.987L29.3544 422.464ZM37.2328 421.075L42.1569 420.207L41.8964 418.73L36.9724 419.598L37.2328 421.075ZM45.1113 419.686L50.0353 418.818L49.7749 417.34L44.8508 418.209L45.1113 419.686ZM52.9898 418.297L57.9138 417.428L57.6533 415.951L52.7293 416.819L52.9898 418.297ZM60.8682 416.907L65.7923 416.039L65.5318 414.562L60.6078 415.43L60.8682 416.907ZM68.7467 415.518L73.6707 414.65L73.4103 413.173L68.4862 414.041L68.7467 415.518ZM76.6252 414.129L81.5492 413.261L81.2887 411.784L76.3647 412.652L76.6252 414.129ZM84.5036 412.74L89.4277 411.872L89.1672 410.394L84.2431 411.263L84.5036 412.74ZM92.3821 411.351L97.3061 410.482L97.0456 409.005L92.1216 409.873L92.3821 411.351ZM100.261 409.961L105.185 409.093L104.924 407.616L100 408.484L100.261 409.961ZM108.139 408.572L113.063 407.704L112.803 406.227L107.879 407.095L108.139 408.572ZM116.017 407.183L120.942 406.315L120.681 404.838L115.757 405.706L116.017 407.183ZM123.896 405.794L128.82 404.926L128.559 403.448L123.635 404.317L123.896 405.794ZM131.774 404.405L136.698 403.537L136.438 402.059L131.514 402.928L131.774 404.405ZM139.653 403.016L144.577 402.147L144.316 400.67L139.392 401.538L139.653 403.016ZM147.531 401.626L152.455 400.758L152.195 399.281L147.271 400.149L147.531 401.626ZM155.41 400.237L160.334 399.369L160.073 397.892L155.149 398.76L155.41 400.237ZM163.288 398.848L168.212 397.98L167.952 396.503L163.028 397.371L163.288 398.848ZM171.167 397.459L176.091 396.591L175.83 395.113L170.906 395.982L171.167 397.459ZM179.045 396.07L183.969 395.201L183.709 393.724L178.785 394.592L179.045 396.07ZM186.924 394.68L191.848 393.812L191.587 392.335L186.663 393.203L186.924 394.68ZM194.802 393.291L199.726 392.423L199.466 390.946L194.542 391.814L194.802 393.291ZM202.681 391.902L207.605 391.034L207.344 389.557L202.42 390.425L202.681 391.902ZM210.559 390.513L215.483 389.645L215.223 388.167L210.299 389.036L210.559 390.513ZM218.437 389.124L223.362 388.255L223.101 386.778L218.177 387.646L218.437 389.124ZM226.316 387.735L231.24 386.866L230.98 385.389L226.055 386.257L226.316 387.735ZM234.194 386.345L239.118 385.477L238.858 384L233.934 384.868L234.194 386.345ZM242.073 384.956L246.997 384.088L246.736 382.611L241.812 383.479L242.073 384.956ZM249.951 383.567L254.875 382.699L254.615 381.222L249.691 382.09L249.951 383.567ZM257.83 382.178L262.754 381.31L262.493 379.832L257.569 380.701L257.83 382.178ZM265.708 380.789L270.632 379.92L270.372 378.443L265.448 379.311L265.708 380.789ZM273.587 379.399L278.511 378.531L278.25 377.054L273.326 377.922L273.587 379.399ZM281.465 378.01L286.389 377.142L286.129 375.665L281.205 376.533L281.465 378.01ZM289.344 376.621L294.268 375.753L294.007 374.276L289.083 375.144L289.344 376.621ZM297.222 375.232L302.146 374.364L301.886 372.886L296.962 373.755L297.222 375.232ZM305.101 373.843L310.025 372.974L309.764 371.497L304.84 372.365L305.101 373.843ZM312.979 372.453L317.903 371.585L317.643 370.108L312.719 370.976L312.979 372.453ZM320.857 371.064L325.782 370.196L325.521 368.719L320.597 369.587L320.857 371.064ZM328.736 369.675L333.66 368.807L333.399 367.33L328.475 368.198L328.736 369.675ZM336.614 368.286L341.538 367.418L341.278 365.94L336.354 366.809L336.614 368.286ZM344.493 366.897L349.417 366.028L349.156 364.551L344.232 365.42L344.493 366.897ZM352.371 365.508L357.295 364.639L357.035 363.162L352.111 364.03L352.371 365.508ZM360.25 364.118L365.174 363.25L364.913 361.773L359.989 362.641L360.25 364.118ZM368.128 362.729L373.052 361.861L372.792 360.384L367.868 361.252L368.128 362.729ZM376.007 361.34L380.931 360.472L380.67 358.995L375.746 359.863L376.007 361.34ZM383.885 359.951L388.809 359.083L388.549 357.605L383.625 358.474L383.885 359.951ZM391.764 358.562L396.688 357.693L396.427 356.216L391.503 357.084L391.764 358.562ZM399.642 357.172L402.104 356.738L401.844 355.261L399.382 355.695L399.642 357.172Z"/><path fill="#000" d="M371.279 256.255C371.42 255.865 371.218 255.435 370.829 255.294L364.481 252.999C364.092 252.858 363.662 253.06 363.521 253.45C363.38 253.839 363.582 254.269 363.971 254.41L369.614 256.45L367.574 262.092C367.433 262.482 367.634 262.912 368.024 263.053C368.413 263.194 368.843 262.992 368.984 262.602L371.279 256.255ZM8.36335 426.679L370.892 256.679L370.256 255.321L7.7265 425.321L8.36335 426.679Z"/><path fill="#000" d="M290.643 143C290.643 142.586 290.308 142.25 289.893 142.25L283.143 142.25C282.729 142.25 282.393 142.586 282.393 143C282.393 143.414 282.729 143.75 283.143 143.75L289.143 143.75L289.143 149.75C289.143 150.164 289.479 150.5 289.893 150.5C290.308 150.5 290.643 150.164 290.643 149.75L290.643 143ZM7.58111 426.373L290.424 143.53L289.363 142.47L6.52045 425.312L7.58111 426.373Z"/><path fill="#000" d="M3.23078 14.656V3.88H4.07078V14.656H3.23078Z"/><path fill="#000" d="M422.231 432.656V421.88H423.071V432.656H422.231ZM427.298 431L429.602 427.856L427.358 424.808H428.51L429.446 426.116L430.19 427.148H430.238L430.958 426.116L431.882 424.808H432.986L430.718 427.844L433.046 431H431.894L430.85 429.548L430.142 428.564H430.094L429.41 429.548L428.402 431H427.298Z"/><path fill="#000" d="M412.231 362.656V351.88H413.071V362.656H412.231ZM420.238 361.144C419.59 361.144 419.03 361.036 418.558 360.82C418.094 360.596 417.698 360.3 417.37 359.932L418.018 359.368C418.314 359.68 418.638 359.92 418.99 360.088C419.342 360.256 419.766 360.34 420.262 360.34C420.742 360.34 421.134 360.256 421.438 360.088C421.75 359.912 421.906 359.64 421.906 359.272C421.906 359.112 421.874 358.98 421.81 358.876C421.754 358.764 421.674 358.676 421.57 358.612C421.466 358.548 421.35 358.5 421.222 358.468C421.094 358.428 420.958 358.396 420.814 358.372L419.842 358.228C419.626 358.196 419.39 358.152 419.134 358.096C418.886 358.04 418.658 357.952 418.45 357.832C418.242 357.704 418.066 357.536 417.922 357.328C417.786 357.12 417.718 356.848 417.718 356.512C417.718 356.2 417.778 355.932 417.898 355.708C418.026 355.476 418.202 355.284 418.426 355.132C418.65 354.972 418.914 354.856 419.218 354.784C419.522 354.704 419.854 354.664 420.214 354.664C420.774 354.664 421.258 354.752 421.666 354.928C422.082 355.104 422.438 355.348 422.734 355.66L422.11 356.248C422.038 356.16 421.946 356.072 421.834 355.984C421.73 355.888 421.598 355.804 421.438 355.732C421.286 355.652 421.106 355.588 420.898 355.54C420.69 355.492 420.45 355.468 420.178 355.468C419.69 355.468 419.314 355.552 419.05 355.72C418.794 355.888 418.666 356.132 418.666 356.452C418.666 356.612 418.694 356.748 418.75 356.86C418.814 356.964 418.898 357.048 419.002 357.112C419.106 357.176 419.222 357.228 419.35 357.268C419.486 357.3 419.622 357.328 419.758 357.352L420.73 357.496C420.954 357.528 421.19 357.572 421.438 357.628C421.686 357.684 421.914 357.776 422.122 357.904C422.33 358.024 422.502 358.188 422.638 358.396C422.782 358.604 422.854 358.876 422.854 359.212C422.854 359.828 422.614 360.304 422.134 360.64C421.662 360.976 421.03 361.144 420.238 361.144Z"/><path fill="#000" d="M151.489 332H145.897V330.968L148.693 328.448C149.101 328.08 149.437 327.704 149.701 327.32C149.965 326.928 150.097 326.516 150.097 326.084V325.94C150.097 325.436 149.965 325.048 149.701 324.776C149.437 324.496 149.045 324.356 148.525 324.356C148.013 324.356 147.617 324.488 147.337 324.752C147.065 325.008 146.861 325.352 146.725 325.784L145.825 325.448C145.905 325.2 146.013 324.96 146.149 324.728C146.293 324.488 146.473 324.276 146.689 324.092C146.905 323.908 147.165 323.76 147.469 323.648C147.781 323.536 148.141 323.48 148.549 323.48C148.965 323.48 149.333 323.54 149.653 323.66C149.981 323.78 150.253 323.948 150.469 324.164C150.693 324.38 150.861 324.636 150.973 324.932C151.093 325.228 151.153 325.552 151.153 325.904C151.153 326.224 151.105 326.524 151.009 326.804C150.921 327.084 150.793 327.352 150.625 327.608C150.465 327.864 150.269 328.116 150.037 328.364C149.813 328.604 149.561 328.844 149.281 329.084L146.941 331.124H151.489V332ZM159.04 327.476C159.04 328.444 158.94 329.276 158.74 329.972C158.548 330.66 158.236 331.192 157.804 331.568C157.38 331.936 156.816 332.12 156.112 332.12C155.12 332.12 154.388 331.708 153.916 330.884C153.452 330.06 153.22 328.924 153.22 327.476C153.22 326.5 153.316 325.664 153.508 324.968C153.7 324.272 154.008 323.74 154.432 323.372C154.864 323.004 155.424 322.82 156.112 322.82C157.112 322.82 157.848 323.228 158.32 324.044C158.8 324.852 159.04 325.996 159.04 327.476ZM156.112 323.684C155.504 323.684 155.056 323.956 154.768 324.5C154.488 325.036 154.328 325.84 154.288 326.912H157.96C157.92 325.84 157.756 325.036 157.468 324.5C157.18 323.956 156.728 323.684 156.112 323.684ZM156.112 331.256C156.736 331.256 157.196 330.968 157.492 330.392C157.788 329.816 157.948 328.948 157.972 327.788H154.288C154.304 328.932 154.452 329.796 154.732 330.38C155.02 330.964 155.48 331.256 156.112 331.256Z"/><path fill="#000" d="M182.525 411.476C182.525 412.444 182.425 413.276 182.225 413.972C182.033 414.66 181.721 415.192 181.289 415.568C180.865 415.936 180.301 416.12 179.597 416.12C178.605 416.12 177.873 415.708 177.401 414.884C176.937 414.06 176.705 412.924 176.705 411.476C176.705 410.5 176.801 409.664 176.993 408.968C177.185 408.272 177.493 407.74 177.917 407.372C178.349 407.004 178.909 406.82 179.597 406.82C180.597 406.82 181.333 407.228 181.805 408.044C182.285 408.852 182.525 409.996 182.525 411.476ZM179.597 407.684C178.989 407.684 178.541 407.956 178.253 408.5C177.973 409.036 177.813 409.84 177.773 410.912H181.445C181.405 409.84 181.241 409.036 180.953 408.5C180.665 407.956 180.213 407.684 179.597 407.684ZM179.597 415.256C180.221 415.256 180.681 414.968 180.977 414.392C181.273 413.816 181.433 412.948 181.457 411.788H177.773C177.789 412.932 177.937 413.796 178.217 414.38C178.505 414.964 178.965 415.256 179.597 415.256Z"/><path fill="#000" d="M380.231 257.656V246.88H381.071V257.656H380.231ZM389.678 255.22C390.358 255.156 390.902 254.924 391.31 254.524C391.726 254.116 391.934 253.488 391.934 252.64C391.934 252.088 391.902 251.58 391.838 251.116C391.774 250.644 391.678 250.128 391.55 249.568H392.594C392.722 250.104 392.814 250.612 392.87 251.092C392.934 251.572 392.966 252.076 392.966 252.604C392.966 253.428 392.818 254.092 392.522 254.596C392.226 255.092 391.83 255.46 391.334 255.7C390.838 255.932 390.286 256.068 389.678 256.108V258.88H388.646V256.108C388.038 256.084 387.498 255.96 387.026 255.736C386.554 255.512 386.182 255.16 385.91 254.68C385.646 254.192 385.514 253.552 385.514 252.76V249.568H386.558V252.796C386.558 253.396 386.654 253.868 386.846 254.212C387.038 254.556 387.294 254.804 387.614 254.956C387.934 255.108 388.278 255.2 388.646 255.232V246.892H389.678V255.22Z"/><line x1="317.756" x2="320.756" y1="157.763" y2="166.763" stroke="#000" stroke-width="1.5"/><line x1="317.045" x2="327.045" y1="157.25" y2="157.25" stroke="#000" stroke-width="1.5"/><path fill="#000" d="M368.645 187.144C368.213 187.144 367.821 187.068 367.469 186.916C367.125 186.764 366.829 186.548 366.581 186.268C366.341 185.98 366.157 185.64 366.029 185.248C365.901 184.848 365.837 184.4 365.837 183.904C365.837 183.416 365.901 182.972 366.029 182.572C366.157 182.172 366.341 181.832 366.581 181.552C366.829 181.264 367.125 181.044 367.469 180.892C367.821 180.74 368.213 180.664 368.645 180.664C369.077 180.664 369.465 180.74 369.809 180.892C370.161 181.044 370.457 181.264 370.697 181.552C370.945 181.832 371.133 182.172 371.261 182.572C371.389 182.972 371.453 183.416 371.453 183.904C371.453 184.4 371.389 184.848 371.261 185.248C371.133 185.64 370.945 185.98 370.697 186.268C370.457 186.548 370.161 186.764 369.809 186.916C369.465 187.068 369.077 187.144 368.645 187.144ZM368.645 186.316C369.181 186.316 369.613 186.156 369.941 185.836C370.269 185.516 370.433 185.02 370.433 184.348V183.46C370.433 182.788 370.269 182.292 369.941 181.972C369.613 181.652 369.181 181.492 368.645 181.492C368.109 181.492 367.677 181.652 367.349 181.972C367.021 182.292 366.857 182.788 366.857 183.46V184.348C366.857 185.02 367.021 185.516 367.349 185.836C367.677 186.156 368.109 186.316 368.645 186.316ZM373.736 187V180.808H374.696V181.816H374.744C374.808 181.664 374.888 181.52 374.984 181.384C375.08 181.24 375.196 181.116 375.332 181.012C375.476 180.908 375.644 180.824 375.836 180.76C376.028 180.696 376.252 180.664 376.508 180.664C377.156 180.664 377.676 180.872 378.068 181.288C378.46 181.696 378.656 182.276 378.656 183.028V187H377.696V183.196C377.696 182.628 377.572 182.208 377.324 181.936C377.076 181.656 376.712 181.516 376.232 181.516C376.04 181.516 375.852 181.54 375.668 181.588C375.484 181.636 375.32 181.708 375.176 181.804C375.032 181.9 374.916 182.024 374.828 182.176C374.74 182.328 374.696 182.504 374.696 182.704V187H373.736ZM383.784 187.144C383.336 187.144 382.932 187.068 382.572 186.916C382.22 186.764 381.916 186.548 381.66 186.268C381.412 185.98 381.22 185.64 381.084 185.248C380.948 184.848 380.88 184.404 380.88 183.916C380.88 183.42 380.948 182.972 381.084 182.572C381.228 182.172 381.424 181.832 381.672 181.552C381.92 181.264 382.216 181.044 382.56 180.892C382.912 180.74 383.3 180.664 383.724 180.664C384.14 180.664 384.516 180.74 384.852 180.892C385.196 181.044 385.488 181.256 385.728 181.528C385.968 181.792 386.152 182.108 386.28 182.476C386.408 182.844 386.472 183.248 386.472 183.688V184.144H381.888V184.432C381.888 184.704 381.932 184.956 382.02 185.188C382.108 185.42 382.232 185.62 382.392 185.788C382.56 185.956 382.76 186.088 382.992 186.184C383.232 186.272 383.496 186.316 383.784 186.316C384.2 186.316 384.56 186.22 384.864 186.028C385.168 185.836 385.4 185.572 385.56 185.236L386.268 185.716C386.084 186.132 385.776 186.476 385.344 186.748C384.92 187.012 384.4 187.144 383.784 187.144ZM383.724 181.456C383.46 181.456 383.216 181.504 382.992 181.6C382.768 181.696 382.572 181.828 382.404 181.996C382.244 182.164 382.116 182.364 382.02 182.596C381.932 182.82 381.888 183.068 381.888 183.34V183.424H385.44V183.292C385.44 183.02 385.396 182.772 385.308 182.548C385.228 182.324 385.112 182.132 384.96 181.972C384.816 181.804 384.636 181.676 384.42 181.588C384.212 181.5 383.98 181.456 383.724 181.456ZM399.09 179.44C398.81 179.44 398.614 179.384 398.502 179.272C398.39 179.152 398.334 179.004 398.334 178.828V178.636C398.334 178.46 398.39 178.316 398.502 178.204C398.614 178.084 398.81 178.024 399.09 178.024C399.37 178.024 399.566 178.084 399.678 178.204C399.79 178.316 399.846 178.46 399.846 178.636V178.828C399.846 179.004 399.79 179.152 399.678 179.272C399.566 179.384 399.37 179.44 399.09 179.44ZM396.378 186.184H398.61V181.624H396.378V180.808H399.57V186.184H401.658V187H396.378V186.184ZM406.521 187C406.049 187 405.701 186.868 405.477 186.604C405.261 186.34 405.153 186 405.153 185.584V181.624H403.089V180.808H404.625C404.833 180.808 404.977 180.768 405.057 180.688C405.145 180.6 405.189 180.452 405.189 180.244V178.624H406.113V180.808H408.933V181.624H406.113V186.184H408.933V187H406.521ZM413.845 187.144C413.397 187.144 412.993 187.068 412.633 186.916C412.281 186.764 411.977 186.548 411.721 186.268C411.473 185.98 411.281 185.64 411.145 185.248C411.009 184.848 410.941 184.404 410.941 183.916C410.941 183.42 411.009 182.972 411.145 182.572C411.289 182.172 411.485 181.832 411.733 181.552C411.981 181.264 412.277 181.044 412.621 180.892C412.973 180.74 413.361 180.664 413.785 180.664C414.201 180.664 414.577 180.74 414.913 180.892C415.257 181.044 415.549 181.256 415.789 181.528C416.029 181.792 416.213 182.108 416.341 182.476C416.469 182.844 416.533 183.248 416.533 183.688V184.144H411.949V184.432C411.949 184.704 411.993 184.956 412.081 185.188C412.169 185.42 412.293 185.62 412.453 185.788C412.621 185.956 412.821 186.088 413.053 186.184C413.293 186.272 413.557 186.316 413.845 186.316C414.261 186.316 414.621 186.22 414.925 186.028C415.229 185.836 415.461 185.572 415.621 185.236L416.329 185.716C416.145 186.132 415.837 186.476 415.405 186.748C414.981 187.012 414.461 187.144 413.845 187.144ZM413.785 181.456C413.521 181.456 413.277 181.504 413.053 181.6C412.829 181.696 412.633 181.828 412.465 181.996C412.305 182.164 412.177 182.364 412.081 182.596C411.993 182.82 411.949 183.068 411.949 183.34V183.424H415.501V183.292C415.501 183.02 415.457 182.772 415.369 182.548C415.289 182.324 415.173 182.132 415.021 181.972C414.877 181.804 414.697 181.676 414.481 181.588C414.273 181.5 414.041 181.456 413.785 181.456ZM418.576 186.184H420.388V181.624H418.576V180.808H421.348V182.368H421.408C421.536 181.88 421.776 181.5 422.128 181.228C422.488 180.948 422.944 180.808 423.496 180.808H424.36V181.768H423.196C422.644 181.768 422.196 181.928 421.852 182.248C421.516 182.568 421.348 182.988 421.348 183.508V186.184H423.748V187H418.576V186.184ZM431.107 187C430.731 187 430.463 186.904 430.303 186.712C430.143 186.52 430.043 186.28 430.003 185.992H429.943C429.807 186.352 429.587 186.636 429.283 186.844C428.987 187.044 428.587 187.144 428.083 187.144C427.435 187.144 426.919 186.976 426.535 186.64C426.151 186.304 425.959 185.844 425.959 185.26C425.959 184.684 426.167 184.24 426.583 183.928C427.007 183.616 427.687 183.46 428.623 183.46H429.943V182.848C429.943 182.392 429.815 182.052 429.559 181.828C429.303 181.596 428.939 181.48 428.467 181.48C428.051 181.48 427.711 181.564 427.447 181.732C427.183 181.892 426.971 182.112 426.811 182.392L426.163 181.912C426.243 181.752 426.351 181.596 426.487 181.444C426.623 181.292 426.791 181.16 426.991 181.048C427.191 180.928 427.419 180.836 427.675 180.772C427.931 180.7 428.215 180.664 428.527 180.664C429.255 180.664 429.831 180.848 430.255 181.216C430.687 181.584 430.903 182.096 430.903 182.752V186.16H431.767V187H431.107ZM428.251 186.34C428.499 186.34 428.723 186.312 428.923 186.256C429.131 186.192 429.311 186.112 429.463 186.016C429.615 185.912 429.731 185.792 429.811 185.656C429.899 185.512 429.943 185.36 429.943 185.2V184.18H428.623C428.047 184.18 427.627 184.26 427.363 184.42C427.099 184.58 426.967 184.812 426.967 185.116V185.368C426.967 185.688 427.079 185.932 427.303 186.1C427.535 186.26 427.851 186.34 428.251 186.34ZM436.583 187C436.111 187 435.763 186.868 435.539 186.604C435.323 186.34 435.215 186 435.215 185.584V181.624H433.151V180.808H434.687C434.895 180.808 435.039 180.768 435.119 180.688C435.207 180.6 435.251 180.452 435.251 180.244V178.624H436.175V180.808H438.995V181.624H436.175V186.184H438.995V187H436.583ZM444.182 179.44C443.902 179.44 443.706 179.384 443.594 179.272C443.482 179.152 443.426 179.004 443.426 178.828V178.636C443.426 178.46 443.482 178.316 443.594 178.204C443.706 178.084 443.902 178.024 444.182 178.024C444.462 178.024 444.658 178.084 444.77 178.204C444.882 178.316 444.938 178.46 444.938 178.636V178.828C444.938 179.004 444.882 179.152 444.77 179.272C444.658 179.384 444.462 179.44 444.182 179.44ZM441.47 186.184H443.702V181.624H441.47V180.808H444.662V186.184H446.75V187H441.47V186.184ZM451.313 187.144C450.881 187.144 450.489 187.068 450.137 186.916C449.793 186.764 449.497 186.548 449.249 186.268C449.009 185.98 448.825 185.64 448.697 185.248C448.569 184.848 448.505 184.4 448.505 183.904C448.505 183.416 448.569 182.972 448.697 182.572C448.825 182.172 449.009 181.832 449.249 181.552C449.497 181.264 449.793 181.044 450.137 180.892C450.489 180.74 450.881 180.664 451.313 180.664C451.745 180.664 452.133 180.74 452.477 180.892C452.829 181.044 453.125 181.264 453.365 181.552C453.613 181.832 453.801 182.172 453.929 182.572C454.057 182.972 454.121 183.416 454.121 183.904C454.121 184.4 454.057 184.848 453.929 185.248C453.801 185.64 453.613 185.98 453.365 186.268C453.125 186.548 452.829 186.764 452.477 186.916C452.133 187.068 451.745 187.144 451.313 187.144ZM451.313 186.316C451.849 186.316 452.281 186.156 452.609 185.836C452.937 185.516 453.101 185.02 453.101 184.348V183.46C453.101 182.788 452.937 182.292 452.609 181.972C452.281 181.652 451.849 181.492 451.313 181.492C450.777 181.492 450.345 181.652 450.017 181.972C449.689 182.292 449.525 182.788 449.525 183.46V184.348C449.525 185.02 449.689 185.516 450.017 185.836C450.345 186.156 450.777 186.316 451.313 186.316ZM456.405 187V180.808H457.365V181.816H457.413C457.477 181.664 457.557 181.52 457.653 181.384C457.749 181.24 457.865 181.116 458.001 181.012C458.145 180.908 458.313 180.824 458.505 180.76C458.697 180.696 458.921 180.664 459.177 180.664C459.825 180.664 460.345 180.872 460.737 181.288C461.129 181.696 461.325 182.276 461.325 183.028V187H460.365V183.196C460.365 182.628 460.241 182.208 459.993 181.936C459.745 181.656 459.381 181.516 458.901 181.516C458.709 181.516 458.521 181.54 458.337 181.588C458.153 181.636 457.989 181.708 457.845 181.804C457.701 181.9 457.585 182.024 457.497 182.176C457.409 182.328 457.365 182.504 457.365 182.704V187H456.405Z"/><path stroke="#000" d="M17.2871 4L20.2871 9.5L17.2871 15"/><path stroke="#000" d="M6 10.5908L8.78662 14L14.7866 5"/><path stroke="#000" stroke-width=".85" d="M397 247L400 252.5L397 258"/><path stroke="#000" stroke-width=".85" d="M437 422L440 427.5L437 433"/><path stroke="#000" stroke-width=".85" d="M427 352L430 357.5L427 363"/><path stroke="#000" stroke-width=".85" d="M327 121L330 126.5L327 132"/></svg>