<svg width="400" height="192" viewBox="0 0 400 192" fill="none" xmlns="http://www.w3.org/2000/svg">
<rect width="400" height="192" fill="white"/>
<rect opacity="0.4" y="120" width="400" height="40" fill="#F2F4F8"/>
<rect opacity="0.4" y="40" width="400" height="40" fill="#F2F4F8"/>
<rect x="0.5" y="0.5" width="399" height="191" stroke="#DDE1E6"/>
<line x1="98" y1="72.5" x2="299" y2="72.5" stroke="black"/>
<line x1="98" y1="120.5" x2="299" y2="120.5" stroke="black"/>
<line x1="193" y1="108" x2="193" y2="73" stroke="#005D5D" stroke-width="2"/>
<circle cx="193" cy="73" r="5.5" fill="#005D5D" stroke="#005D5D"/>
<path d="M177 105H209V137H177V105Z" fill="#005D5D"/>
<path d="M197.571 126.668H190.047L197.319 116.804V115.436H188.805V116.768H195.681L188.427 126.632V128H197.571V126.668Z" fill="white"/>
<path d="M71.0545 102L70 101.46L72.6804 96L70 90.54L71.0545 90L74 96L71.0545 102V102Z" fill="#161616"/>
<rect x="51" y="90" width="1" height="12" fill="#161616"/>
<path d="M60.9407 100V99.124H58.7327V91.624H57.1607L54.9407 93.7L55.5287 94.336L57.6407 92.368H57.7247V99.124H55.3247V100H60.9407ZM68.136 100V99.124H65.928V91.624H64.356L62.136 93.7L62.724 94.336L64.836 92.368H64.92V99.124H62.52V100H68.136Z" fill="black"/>
<path d="M348.054 102L347 101.46L349.68 96L347 90.54L348.054 90L351 96L348.054 102V102Z" fill="#161616"/>
<rect x="328" y="90" width="1" height="12" fill="#161616"/>
<path d="M324.699 96.856V95.848H321.219V96.856H324.699ZM337.886 100V99.124H335.678V91.624H334.106L331.886 93.7L332.474 94.336L334.586 92.368H334.67V99.124H332.27V100H337.886ZM345.081 100V99.124H342.873V91.624H341.301L339.081 93.7L339.669 94.336L341.781 92.368H341.865V99.124H339.465V100H345.081Z" fill="black"/>
<path d="M89 69C89 69 86 68.8284 86 70C86 75.9998 86 86.5 86 94C86 95.2503 83.5 96 83.5 96C83.5 96 86 96.7498 86 98C86 106 86 111 86 123C86 124.171 89 124 89 124" stroke="black"/>
<path d="M309 69.0088C309 69.0088 312 68.8373 312 70.0085C312 76.0064 312 86.5032 312 94.0008C312 95.2507 314.5 96.0002 314.5 96.0002C314.5 96.0002 312 96.7497 312 97.9995C312 105.997 312 110.995 312 122.991C312 124.163 309 123.991 309 123.991" stroke="black"/>
</svg>
