<svg width="342" height="192" viewBox="0 0 342 192" fill="none" xmlns="http://www.w3.org/2000/svg">
<rect width="342" height="192" fill="white"/>
<rect opacity="0.4" y="120" width="342" height="40" fill="#F2F4F8"/>
<rect opacity="0.4" y="40" width="342" height="40" fill="#F2F4F8"/>
<rect x="0.5" y="0.5" width="341" height="191" stroke="#DDE1E6"/>
<path fill-rule="evenodd" clip-rule="evenodd" d="M52.3996 77.2H53.5996C54.5937 77.2 55.3996 76.3942 55.3996 75.4V70.6C55.3996 69.6059 54.5937 68.8 53.5996 68.8H52.3996C51.4055 68.8 50.5996 69.6059 50.5996 70.6V75.4C50.5996 76.3942 51.4055 77.2 52.3996 77.2ZM51.7996 70.6C51.7996 70.2687 52.0682 70 52.3996 70H53.5996C53.931 70 54.1996 70.2687 54.1996 70.6V75.4C54.1996 75.7314 53.931 76 53.5996 76H52.3996C52.0682 76 51.7996 75.7314 51.7996 75.4V70.6Z" fill="#161616"/>
<path d="M58.0545 79L57 78.46L59.6804 73L57 67.54L58.0545 67L61 73L58.0545 79Z" fill="#161616"/>
<rect x="47" y="67" width="1" height="12" fill="#161616"/>
<line x1="69" y1="72.5" x2="291" y2="72.5" stroke="black"/>
<path fill-rule="evenodd" clip-rule="evenodd" d="M52.3996 125.2H53.5996C54.5937 125.2 55.3996 124.394 55.3996 123.4V118.6C55.3996 117.606 54.5937 116.8 53.5996 116.8H52.3996C51.4055 116.8 50.5996 117.606 50.5996 118.6V123.4C50.5996 124.394 51.4055 125.2 52.3996 125.2ZM51.7996 118.6C51.7996 118.269 52.0682 118 52.3996 118H53.5996C53.931 118 54.1996 118.269 54.1996 118.6V123.4C54.1996 123.731 53.931 124 53.5996 124H52.3996C52.0682 124 51.7996 123.731 51.7996 123.4V118.6Z" fill="#161616"/>
<path d="M58.0545 127L57 126.46L59.6804 121L57 115.54L58.0545 115L61 121L58.0545 127Z" fill="#161616"/>
<rect x="47" y="115" width="1" height="12" fill="#161616"/>
<line x1="69" y1="120.5" x2="291" y2="120.5" stroke="black"/>
<line x1="218" y1="107" x2="218" y2="72" stroke="#6929C4" stroke-width="2"/>
<circle cx="218" cy="72" r="6" fill="#6929C4"/>
<rect x="117" y="56" width="32" height="32" fill="#6929C4"/>
<path d="M126.254 67.6H129.188L131.906 73H133.616L130.736 67.456C132.374 67.078 133.256 65.836 133.256 64C133.256 61.714 131.942 60.436 129.746 60.436H124.742V73H126.254V67.6ZM126.254 66.304V61.768H129.746C130.934 61.768 131.636 62.416 131.636 63.568V64.504C131.636 65.656 130.934 66.304 129.746 66.304H126.254ZM142.34 73V71.74H136.814L142.196 64.792V63.712H135.338V64.972H140.45L135.176 71.794V73H142.34Z" fill="white"/>
<path d="M127.173 80.88C127.173 82.83 127.993 84.53 128.983 85.37H129.743C128.663 84.41 127.923 82.72 127.923 81.32V80.46C127.923 79.06 128.633 77.4 129.743 76.4H128.983C127.963 77.27 127.173 78.95 127.173 80.88ZM132.502 76.48C131.082 76.48 130.252 77.42 130.252 80.3C130.252 83.18 131.082 84.12 132.502 84.12C133.922 84.12 134.752 83.18 134.752 80.3C134.752 77.42 133.922 76.48 132.502 76.48ZM131.112 79.32C131.112 77.75 131.622 77.17 132.502 77.17C133.382 77.17 133.892 77.75 133.892 79.32V79.95H131.112V79.32ZM132.502 83.43C131.622 83.43 131.112 82.85 131.112 81.28V80.65H133.892V81.28C133.892 82.85 133.382 83.43 132.502 83.43ZM137.828 80.88C137.828 78.95 137.038 77.27 136.018 76.4H135.258C136.368 77.4 137.078 79.06 137.078 80.46V81.32C137.078 82.72 136.338 84.41 135.258 85.37H136.018C137.008 84.53 137.828 82.83 137.828 80.88Z" fill="white"/>
<rect x="202" y="102" width="32" height="32" fill="#6929C4"/>
<path d="M211.254 113.6H214.188L216.906 119H218.616L215.736 113.456C217.374 113.078 218.256 111.836 218.256 110C218.256 107.714 216.942 106.436 214.746 106.436H209.742V119H211.254V113.6ZM211.254 112.304V107.768H214.746C215.934 107.768 216.636 108.416 216.636 109.568V110.504C216.636 111.656 215.934 112.304 214.746 112.304H211.254ZM227.34 119V117.74H221.814L227.196 110.792V109.712H220.338V110.972H225.45L220.176 117.794V119H227.34Z" fill="white"/>
<path d="M212.173 126.88C212.173 128.83 212.993 130.53 213.983 131.37H214.743C213.663 130.41 212.923 128.72 212.923 127.32V126.46C212.923 125.06 213.633 123.4 214.743 122.4H213.983C212.963 123.27 212.173 124.95 212.173 126.88ZM217.502 122.48C216.082 122.48 215.252 123.42 215.252 126.3C215.252 129.18 216.082 130.12 217.502 130.12C218.922 130.12 219.752 129.18 219.752 126.3C219.752 123.42 218.922 122.48 217.502 122.48ZM216.112 125.32C216.112 123.75 216.622 123.17 217.502 123.17C218.382 123.17 218.892 123.75 218.892 125.32V125.95H216.112V125.32ZM217.502 129.43C216.622 129.43 216.112 128.85 216.112 127.28V126.65H218.892V127.28C218.892 128.85 218.382 129.43 217.502 129.43ZM222.828 126.88C222.828 124.95 222.038 123.27 221.018 122.4H220.258C221.368 123.4 222.078 125.06 222.078 126.46V127.32C222.078 128.72 221.338 130.41 220.258 131.37H221.018C222.008 130.53 222.828 128.83 222.828 126.88Z" fill="white"/>
</svg>
