<svg width="546" height="144" viewBox="0 0 546 144" fill="none" xmlns="http://www.w3.org/2000/svg">
<g clip-path="url(#clip0_1125_19030)">
<rect width="546" height="144" fill="white"/>
<rect opacity="0.4" y="80" width="629" height="40" fill="#F2F4F8"/>
<rect opacity="0.4" width="629" height="40" fill="#F2F4F8"/>
<rect x="0.5" y="0.5" width="545" height="143" stroke="#DDE1E6"/>
<path fill-rule="evenodd" clip-rule="evenodd" d="M38.3996 80.2H39.5996C40.5937 80.2 41.3996 79.3942 41.3996 78.4V73.6C41.3996 72.6059 40.5937 71.8 39.5996 71.8H38.3996C37.4055 71.8 36.5996 72.6059 36.5996 73.6V78.4C36.5996 79.3942 37.4055 80.2 38.3996 80.2ZM37.7996 73.6C37.7996 73.2687 38.0682 73 38.3996 73H39.5996C39.931 73 40.1996 73.2687 40.1996 73.6V78.4C40.1996 78.7314 39.931 79 39.5996 79H38.3996C38.0682 79 37.7996 78.7314 37.7996 78.4V73.6Z" fill="#161616"/>
<path d="M44.0545 82L43 81.46L45.6804 76L43 70.54L44.0545 70L47 76L44.0545 82Z" fill="#161616"/>
<rect x="33" y="70" width="1" height="12" fill="#161616"/>
<line x1="55" y1="75.5" x2="221" y2="75.5" stroke="black"/>
<path fill-rule="evenodd" clip-rule="evenodd" d="M274.4 80.2H275.6C276.594 80.2 277.4 79.3942 277.4 78.4V73.6C277.4 72.6059 276.594 71.8 275.6 71.8H274.4C273.405 71.8 272.6 72.6059 272.6 73.6V78.4C272.6 79.3942 273.405 80.2 274.4 80.2ZM273.8 73.6C273.8 73.2687 274.068 73 274.4 73H275.6C275.931 73 276.2 73.2687 276.2 73.6V78.4C276.2 78.7314 275.931 79 275.6 79H274.4C274.068 79 273.8 78.7314 273.8 78.4V73.6Z" fill="#161616"/>
<path d="M280.054 82L279 81.46L281.68 76L279 70.54L280.054 70L283 76L280.054 82Z" fill="#161616"/>
<rect x="269" y="70" width="1" height="12" fill="#161616"/>
<line x1="291" y1="75.5" x2="513" y2="75.5" stroke="black"/>
<rect x="144" y="60" width="32" height="32" fill="#6929C4"/>
<path d="M153.254 71.6H156.188L158.906 77H160.616L157.736 71.456C159.374 71.078 160.256 69.836 160.256 68C160.256 65.714 158.942 64.436 156.746 64.436H151.742V77H153.254V71.6ZM153.254 70.304V65.768H156.746C157.934 65.768 158.636 66.416 158.636 67.568V68.504C158.636 69.656 157.934 70.304 156.746 70.304H153.254ZM169.34 77V75.74H163.814L169.196 68.792V67.712H162.338V68.972H167.45L162.176 75.794V77H169.34Z" fill="white"/>
<path d="M154.173 84.88C154.173 86.83 154.993 88.53 155.983 89.37H156.743C155.663 88.41 154.923 86.72 154.923 85.32V84.46C154.923 83.06 155.633 81.4 156.743 80.4H155.983C154.963 81.27 154.173 82.95 154.173 84.88ZM159.502 80.48C158.082 80.48 157.252 81.42 157.252 84.3C157.252 87.18 158.082 88.12 159.502 88.12C160.922 88.12 161.752 87.18 161.752 84.3C161.752 81.42 160.922 80.48 159.502 80.48ZM158.112 83.32C158.112 81.75 158.622 81.17 159.502 81.17C160.382 81.17 160.892 81.75 160.892 83.32V83.95H158.112V83.32ZM159.502 87.43C158.622 87.43 158.112 86.85 158.112 85.28V84.65H160.892V85.28C160.892 86.85 160.382 87.43 159.502 87.43ZM164.828 84.88C164.828 82.95 164.038 81.27 163.018 80.4H162.258C163.368 81.4 164.078 83.06 164.078 84.46V85.32C164.078 86.72 163.338 88.41 162.258 89.37H163.018C164.008 88.53 164.828 86.83 164.828 84.88Z" fill="white"/>
<rect x="377" y="60" width="32" height="32" fill="#6929C4"/>
<path d="M386.254 71.6H389.188L391.906 77H393.616L390.736 71.456C392.374 71.078 393.256 69.836 393.256 68C393.256 65.714 391.942 64.436 389.746 64.436H384.742V77H386.254V71.6ZM386.254 70.304V65.768H389.746C390.934 65.768 391.636 66.416 391.636 67.568V68.504C391.636 69.656 390.934 70.304 389.746 70.304H386.254ZM402.34 77V75.74H396.814L402.196 68.792V67.712H395.338V68.972H400.45L395.176 75.794V77H402.34Z" fill="white"/>
<path d="M387.173 84.88C387.173 86.83 387.993 88.53 388.983 89.37H389.743C388.663 88.41 387.923 86.72 387.923 85.32V84.46C387.923 83.06 388.633 81.4 389.743 80.4H388.983C387.963 81.27 387.173 82.95 387.173 84.88ZM392.502 80.48C391.082 80.48 390.252 81.42 390.252 84.3C390.252 87.18 391.082 88.12 392.502 88.12C393.922 88.12 394.752 87.18 394.752 84.3C394.752 81.42 393.922 80.48 392.502 80.48ZM391.112 83.32C391.112 81.75 391.622 81.17 392.502 81.17C393.382 81.17 393.892 81.75 393.892 83.32V83.95H391.112V83.32ZM392.502 87.43C391.622 87.43 391.112 86.85 391.112 85.28V84.65H393.892V85.28C393.892 86.85 393.382 87.43 392.502 87.43ZM397.828 84.88C397.828 82.95 397.038 81.27 396.018 80.4H395.258C396.368 81.4 397.078 83.06 397.078 84.46V85.32C397.078 86.72 396.338 88.41 395.258 89.37H396.018C397.008 88.53 397.828 86.83 397.828 84.88Z" fill="white"/>
<rect x="439" y="60" width="32" height="32" fill="#6929C4"/>
<path d="M447.368 71.6H450.302L453.02 77H454.73L451.85 71.456C453.488 71.078 454.37 69.836 454.37 68C454.37 65.714 453.056 64.436 450.86 64.436H445.856V77H447.368V71.6ZM447.368 70.304V65.768H450.86C452.048 65.768 452.75 66.416 452.75 67.568V68.504C452.75 69.656 452.048 70.304 450.86 70.304H447.368ZM456.073 77H457.675L460.285 73.364H460.339L462.751 77H464.443L461.095 72.212L464.371 67.712H462.769L460.321 71.168H460.267L457.909 67.712H456.217L459.511 72.32L456.073 77Z" fill="white"/>
<path d="M449.406 83.88C449.406 85.83 450.226 87.53 451.216 88.37H451.976C450.896 87.41 450.156 85.72 450.156 84.32V83.46C450.156 82.06 450.866 80.4 451.976 79.4H451.216C450.196 80.27 449.406 81.95 449.406 83.88ZM454.996 89H455.796V87.12C457.516 87.12 458.556 86.12 458.556 84.26C458.556 82.47 457.926 81.72 456.746 81.72C455.626 81.72 454.996 82.47 454.996 84.26V86.41C454.056 86.41 453.286 85.89 453.286 84.7V84.31C453.286 83.23 453.606 82.64 454.326 82.28L453.876 81.72C452.956 82.16 452.426 83.08 452.426 84.5C452.426 86.08 453.516 87.12 454.996 87.12V89ZM455.796 84.01C455.796 82.82 456.156 82.43 456.746 82.43C457.336 82.43 457.696 82.82 457.696 84.01V84.7C457.696 85.94 456.936 86.41 455.796 86.41V84.01ZM461.594 83.88C461.594 81.95 460.804 80.27 459.784 79.4H459.024C460.134 80.4 460.844 82.06 460.844 83.46V84.32C460.844 85.72 460.104 87.41 459.024 88.37H459.784C460.774 87.53 461.594 85.83 461.594 83.88Z" fill="white"/>
<rect x="82" y="60" width="32" height="32" fill="#1192E8"/>
<path d="M101.177 83H102.689V70.436H101.177V75.98H94.8227V70.436H93.3107V83H94.8227V77.312H101.177V83Z" fill="white"/>
<rect x="315" y="60" width="32" height="32" fill="#1192E8"/>
<path d="M334.177 83H335.689V70.436H334.177V75.98H327.823V70.436H326.311V83H327.823V77.312H334.177V83Z" fill="white"/>
<path d="M273.942 36.168C275.692 36.168 276.854 35.314 277.554 33.858L276.056 32.976C275.734 33.858 275.048 34.53 273.942 34.53C272.57 34.53 271.688 33.578 271.688 31.898V30.358C271.688 28.692 272.57 27.698 273.942 27.698C275.034 27.698 275.65 28.286 275.93 29.154L277.512 28.314C276.826 26.802 275.692 26.06 273.942 26.06C271.366 26.06 269.728 27.894 269.728 31.184C269.728 34.474 271.366 36.168 273.942 36.168ZM280.074 27.628C280.802 27.628 281.124 27.25 281.124 26.732V26.452C281.124 25.934 280.802 25.556 280.074 25.556C279.332 25.556 279.024 25.934 279.024 26.452V26.732C279.024 27.25 279.332 27.628 280.074 27.628ZM279.178 36H280.97V28.692H279.178V36ZM285 36V31.52C285 30.722 285.63 30.386 286.834 30.386H287.394V28.692H287.002C285.84 28.692 285.252 29.434 285.07 30.204H285V28.692H283.208V36H285ZM291.679 36.168C293.093 36.168 294.115 35.524 294.591 34.236L293.219 33.578C292.953 34.236 292.533 34.726 291.679 34.726C290.685 34.726 290.181 34.04 290.181 33.018V31.688C290.181 30.666 290.685 29.966 291.679 29.966C292.449 29.966 292.911 30.414 293.079 31.03L294.549 30.372C294.115 29.224 293.149 28.524 291.679 28.524C289.523 28.524 288.305 29.994 288.305 32.332C288.305 34.684 289.523 36.168 291.679 36.168ZM300.501 36H302.293V28.692H300.501V33.522C300.501 34.306 299.787 34.684 299.073 34.684C298.219 34.684 297.841 34.138 297.841 33.13V28.692H296.049V33.312C296.049 35.132 296.889 36.168 298.387 36.168C299.591 36.168 300.179 35.51 300.431 34.782H300.501V36ZM305.419 27.628C306.147 27.628 306.469 27.25 306.469 26.732V26.452C306.469 25.934 306.147 25.556 305.419 25.556C304.677 25.556 304.369 25.934 304.369 26.452V26.732C304.369 27.25 304.677 27.628 305.419 27.628ZM304.523 36H306.315V28.692H304.523V36ZM310.835 36H312.123V34.572H310.737V30.12H312.235V28.692H310.737V26.69H309.127V27.936C309.127 28.44 308.959 28.692 308.427 28.692H307.867V30.12H308.945V34.138C308.945 35.328 309.603 36 310.835 36ZM317.53 36H322.486C323.928 36 325.006 34.768 325.006 33.2C325.006 31.534 323.746 30.932 322.892 30.918V30.834C323.788 30.778 324.642 30.218 324.642 28.734C324.642 27.222 323.662 26.228 322.052 26.228H317.53V36ZM319.378 31.814H321.954C322.654 31.814 323.074 32.206 323.074 32.892V33.368C323.074 34.054 322.654 34.432 321.954 34.432H319.378V31.814ZM319.378 27.796H321.66C322.332 27.796 322.724 28.174 322.724 28.832V29.266C322.724 29.91 322.332 30.302 321.66 30.302H319.378V27.796Z" fill="black"/>
<path d="M37.942 36.168C39.692 36.168 40.854 35.314 41.554 33.858L40.056 32.976C39.734 33.858 39.048 34.53 37.942 34.53C36.57 34.53 35.688 33.578 35.688 31.898V30.358C35.688 28.692 36.57 27.698 37.942 27.698C39.034 27.698 39.65 28.286 39.93 29.154L41.512 28.314C40.826 26.802 39.692 26.06 37.942 26.06C35.366 26.06 33.728 27.894 33.728 31.184C33.728 34.474 35.366 36.168 37.942 36.168ZM44.0744 27.628C44.8024 27.628 45.1244 27.25 45.1244 26.732V26.452C45.1244 25.934 44.8024 25.556 44.0744 25.556C43.3324 25.556 43.0244 25.934 43.0244 26.452V26.732C43.0244 27.25 43.3324 27.628 44.0744 27.628ZM43.1784 36H44.9704V28.692H43.1784V36ZM48.9996 36V31.52C48.9996 30.722 49.6296 30.386 50.8336 30.386H51.3936V28.692H51.0016C49.8396 28.692 49.2516 29.434 49.0696 30.204H48.9996V28.692H47.2076V36H48.9996ZM55.6793 36.168C57.0933 36.168 58.1153 35.524 58.5913 34.236L57.2193 33.578C56.9533 34.236 56.5333 34.726 55.6793 34.726C54.6853 34.726 54.1813 34.04 54.1813 33.018V31.688C54.1813 30.666 54.6853 29.966 55.6793 29.966C56.4493 29.966 56.9113 30.414 57.0793 31.03L58.5493 30.372C58.1153 29.224 57.1493 28.524 55.6793 28.524C53.5233 28.524 52.3053 29.994 52.3053 32.332C52.3053 34.684 53.5233 36.168 55.6793 36.168ZM64.501 36H66.293V28.692H64.501V33.522C64.501 34.306 63.787 34.684 63.073 34.684C62.219 34.684 61.841 34.138 61.841 33.13V28.692H60.049V33.312C60.049 35.132 60.889 36.168 62.387 36.168C63.591 36.168 64.179 35.51 64.431 34.782H64.501V36ZM69.4195 27.628C70.1475 27.628 70.4695 27.25 70.4695 26.732V26.452C70.4695 25.934 70.1475 25.556 69.4195 25.556C68.6775 25.556 68.3695 25.934 68.3695 26.452V26.732C68.3695 27.25 68.6775 27.628 69.4195 27.628ZM68.5235 36H70.3155V28.692H68.5235V36ZM74.8346 36H76.1226V34.572H74.7366V30.12H76.2346V28.692H74.7366V26.69H73.1266V27.936C73.1266 28.44 72.9586 28.692 72.4266 28.692H71.8666V30.12H72.9446V34.138C72.9446 35.328 73.6026 36 74.8346 36ZM89.4956 36L86.2476 26.228H83.9516L80.6756 36H82.5516L83.3216 33.508H86.7936L87.5776 36H89.4956ZM86.3456 31.926H83.7696L85.0156 27.908H85.0856L86.3456 31.926Z" fill="black"/>
<line x1="244.5" x2="244.5" y2="144" stroke="#DDE1E6"/>
</g>
<defs>
<clipPath id="clip0_1125_19030">
<rect width="546" height="144" fill="white"/>
</clipPath>
</defs>
</svg>
