<svg width="468" height="272" viewBox="0 0 468 272" fill="none" xmlns="http://www.w3.org/2000/svg">
<rect width="468" height="272" fill="white"/>
<rect opacity="0.4" y="200" width="468" height="40" fill="#F2F4F8"/>
<rect opacity="0.4" y="120" width="468" height="40" fill="#F2F4F8"/>
<rect opacity="0.4" y="40" width="468" height="40" fill="#F2F4F8"/>
<rect x="0.5" y="0.5" width="467" height="271" stroke="#DDE1E6"/>
<path fill-rule="evenodd" clip-rule="evenodd" d="M36.3996 77.1998H37.5996C38.5937 77.1998 39.3996 76.3939 39.3996 75.3998V70.5998C39.3996 69.6057 38.5937 68.7998 37.5996 68.7998H36.3996C35.4055 68.7998 34.5996 69.6057 34.5996 70.5998V75.3998C34.5996 76.3939 35.4055 77.1998 36.3996 77.1998ZM35.7996 70.5998C35.7996 70.2684 36.0682 69.9998 36.3996 69.9998H37.5996C37.931 69.9998 38.1996 70.2684 38.1996 70.5998V75.3998C38.1996 75.7312 37.931 75.9998 37.5996 75.9998H36.3996C36.0682 75.9998 35.7996 75.7312 35.7996 75.3998V70.5998Z" fill="#161616"/>
<path d="M42.0545 79L41 78.46L43.6804 73L41 67.54L42.0545 67L45 73L42.0545 79Z" fill="#161616"/>
<rect x="31" y="67" width="1" height="12" fill="#161616"/>
<line x1="53" y1="72.5" x2="170" y2="72.5" stroke="black"/>
<path fill-rule="evenodd" clip-rule="evenodd" d="M36.3996 125.2H37.5996C38.5937 125.2 39.3996 124.394 39.3996 123.4V118.6C39.3996 117.606 38.5937 116.8 37.5996 116.8H36.3996C35.4055 116.8 34.5996 117.606 34.5996 118.6V123.4C34.5996 124.394 35.4055 125.2 36.3996 125.2ZM35.7996 118.6C35.7996 118.268 36.0682 118 36.3996 118H37.5996C37.931 118 38.1996 118.268 38.1996 118.6V123.4C38.1996 123.731 37.931 124 37.5996 124H36.3996C36.0682 124 35.7996 123.731 35.7996 123.4V118.6Z" fill="#161616"/>
<path d="M42.0545 127L41 126.46L43.6804 121L41 115.54L42.0545 115L45 121L42.0545 127Z" fill="#161616"/>
<rect x="31" y="115" width="1" height="12" fill="#161616"/>
<line x1="53" y1="120.5" x2="170" y2="120.5" stroke="black"/>
<path fill-rule="evenodd" clip-rule="evenodd" d="M36.3996 173.2H37.5996C38.5937 173.2 39.3996 172.394 39.3996 171.4V166.6C39.3996 165.606 38.5937 164.8 37.5996 164.8H36.3996C35.4055 164.8 34.5996 165.606 34.5996 166.6V171.4C34.5996 172.394 35.4055 173.2 36.3996 173.2ZM35.7996 166.6C35.7996 166.268 36.0682 166 36.3996 166H37.5996C37.931 166 38.1996 166.268 38.1996 166.6V171.4C38.1996 171.731 37.931 172 37.5996 172H36.3996C36.0682 172 35.7996 171.731 35.7996 171.4V166.6Z" fill="#161616"/>
<path d="M42.0545 175L41 174.46L43.6804 169L41 163.54L42.0545 163L45 169L42.0545 175Z" fill="#161616"/>
<rect x="31" y="163" width="1" height="12" fill="#161616"/>
<line x1="53" y1="168.5" x2="170" y2="168.5" stroke="black"/>
<path fill-rule="evenodd" clip-rule="evenodd" d="M36.3996 221.2H37.5996C38.5937 221.2 39.3996 220.394 39.3996 219.4V214.6C39.3996 213.606 38.5937 212.8 37.5996 212.8H36.3996C35.4055 212.8 34.5996 213.606 34.5996 214.6V219.4C34.5996 220.394 35.4055 221.2 36.3996 221.2ZM35.7996 214.6C35.7996 214.268 36.0682 214 36.3996 214H37.5996C37.931 214 38.1996 214.268 38.1996 214.6V219.4C38.1996 219.731 37.931 220 37.5996 220H36.3996C36.0682 220 35.7996 219.731 35.7996 219.4V214.6Z" fill="#161616"/>
<path d="M42.0545 223L41 222.46L43.6804 217L41 211.54L42.0545 211L45 217L42.0545 223Z" fill="#161616"/>
<rect x="31" y="211" width="1" height="12" fill="#161616"/>
<line x1="53" y1="216.5" x2="170" y2="216.5" stroke="black"/>
<rect x="70" y="57" width="32" height="32" fill="#6929C4"/>
<path d="M78.2544 74.6H81.1884L83.9064 80H85.6164L82.7364 74.456C84.3744 74.078 85.2564 72.836 85.2564 71C85.2564 68.714 83.9424 67.436 81.7464 67.436H76.7424V80H78.2544V74.6ZM78.2544 73.304V68.768H81.7464C82.9344 68.768 83.6364 69.416 83.6364 70.568V71.504C83.6364 72.656 82.9344 73.304 81.7464 73.304H78.2544ZM94.34 80V78.74H88.814L94.196 71.792V70.712H87.338V71.972H92.45L87.176 78.794V80H94.34Z" fill="white"/>
<rect x="70" y="105" width="32" height="32" fill="#6929C4"/>
<path d="M78.2544 122.6H81.1884L83.9064 128H85.6164L82.7364 122.456C84.3744 122.078 85.2564 120.836 85.2564 119C85.2564 116.714 83.9424 115.436 81.7464 115.436H76.7424V128H78.2544V122.6ZM78.2544 121.304V116.768H81.7464C82.9344 116.768 83.6364 117.416 83.6364 118.568V119.504C83.6364 120.656 82.9344 121.304 81.7464 121.304H78.2544ZM94.34 128V126.74H88.814L94.196 119.792V118.712H87.338V119.972H92.45L87.176 126.794V128H94.34Z" fill="white"/>
<rect x="70" y="153" width="32" height="32" fill="#6929C4"/>
<path d="M78.2544 170.6H81.1884L83.9064 176H85.6164L82.7364 170.456C84.3744 170.078 85.2564 168.836 85.2564 167C85.2564 164.714 83.9424 163.436 81.7464 163.436H76.7424V176H78.2544V170.6ZM78.2544 169.304V164.768H81.7464C82.9344 164.768 83.6364 165.416 83.6364 166.568V167.504C83.6364 168.656 82.9344 169.304 81.7464 169.304H78.2544ZM94.34 176V174.74H88.814L94.196 167.792V166.712H87.338V167.972H92.45L87.176 174.794V176H94.34Z" fill="white"/>
<rect x="70" y="201" width="32" height="32" fill="#6929C4"/>
<path d="M78.2544 218.6H81.1884L83.9064 224H85.6164L82.7364 218.456C84.3744 218.078 85.2564 216.836 85.2564 215C85.2564 212.714 83.9424 211.436 81.7464 211.436H76.7424V224H78.2544V218.6ZM78.2544 217.304V212.768H81.7464C82.9344 212.768 83.6364 213.416 83.6364 214.568V215.504C83.6364 216.656 82.9344 217.304 81.7464 217.304H78.2544ZM94.34 224V222.74H88.814L94.196 215.792V214.712H87.338V215.972H92.45L87.176 222.794V224H94.34Z" fill="white"/>
<rect x="119" y="57" width="32" height="32" fill="#6929C4"/>
<path d="M127.368 74.6H130.302L133.02 80H134.73L131.85 74.456C133.488 74.078 134.37 72.836 134.37 71C134.37 68.714 133.056 67.436 130.86 67.436H125.856V80H127.368V74.6ZM127.368 73.304V68.768H130.86C132.048 68.768 132.75 69.416 132.75 70.568V71.504C132.75 72.656 132.048 73.304 130.86 73.304H127.368ZM136.073 80H137.675L140.285 76.364H140.339L142.751 80H144.443L141.095 75.212L144.371 70.712H142.769L140.321 74.168H140.267L137.909 70.712H136.217L139.511 75.32L136.073 80Z" fill="white"/>
<rect x="119" y="105" width="32" height="32" fill="#6929C4"/>
<path d="M127.368 122.6H130.302L133.02 128H134.73L131.85 122.456C133.488 122.078 134.37 120.836 134.37 119C134.37 116.714 133.056 115.436 130.86 115.436H125.856V128H127.368V122.6ZM127.368 121.304V116.768H130.86C132.048 116.768 132.75 117.416 132.75 118.568V119.504C132.75 120.656 132.048 121.304 130.86 121.304H127.368ZM136.073 128H137.675L140.285 124.364H140.339L142.751 128H144.443L141.095 123.212L144.371 118.712H142.769L140.321 122.168H140.267L137.909 118.712H136.217L139.511 123.32L136.073 128Z" fill="white"/>
<rect x="119" y="153" width="32" height="32" fill="#6929C4"/>
<path d="M127.368 170.6H130.302L133.02 176H134.73L131.85 170.456C133.488 170.078 134.37 168.836 134.37 167C134.37 164.714 133.056 163.436 130.86 163.436H125.856V176H127.368V170.6ZM127.368 169.304V164.768H130.86C132.048 164.768 132.75 165.416 132.75 166.568V167.504C132.75 168.656 132.048 169.304 130.86 169.304H127.368ZM136.073 176H137.675L140.285 172.364H140.339L142.751 176H144.443L141.095 171.212L144.371 166.712H142.769L140.321 170.168H140.267L137.909 166.712H136.217L139.511 171.32L136.073 176Z" fill="white"/>
<rect x="119" y="201" width="32" height="32" fill="#6929C4"/>
<path d="M127.368 218.6H130.302L133.02 224H134.73L131.85 218.456C133.488 218.078 134.37 216.836 134.37 215C134.37 212.714 133.056 211.436 130.86 211.436H125.856V224H127.368V218.6ZM127.368 217.304V212.768H130.86C132.048 212.768 132.75 213.416 132.75 214.568V215.504C132.75 216.656 132.048 217.304 130.86 217.304H127.368ZM136.073 224H137.675L140.285 220.364H140.339L142.751 224H144.443L141.095 219.212L144.371 214.712H142.769L140.321 218.168H140.267L137.909 214.712H136.217L139.511 219.32L136.073 224Z" fill="white"/>
<path fill-rule="evenodd" clip-rule="evenodd" d="M207.4 77.1998H208.6C209.594 77.1998 210.4 76.3939 210.4 75.3998V70.5998C210.4 69.6057 209.594 68.7998 208.6 68.7998H207.4C206.405 68.7998 205.6 69.6057 205.6 70.5998V75.3998C205.6 76.3939 206.405 77.1998 207.4 77.1998ZM206.8 70.5998C206.8 70.2684 207.068 69.9998 207.4 69.9998H208.6C208.931 69.9998 209.2 70.2684 209.2 70.5998V75.3998C209.2 75.7312 208.931 75.9998 208.6 75.9998H207.4C207.068 75.9998 206.8 75.7312 206.8 75.3998V70.5998Z" fill="#161616"/>
<path d="M213.054 79L212 78.46L214.68 73L212 67.54L213.054 67L216 73L213.054 79Z" fill="#161616"/>
<rect x="202" y="67" width="1" height="12" fill="#161616"/>
<line x1="224" y1="72.5" x2="432" y2="72.5" stroke="black"/>
<path fill-rule="evenodd" clip-rule="evenodd" d="M207.4 125.2H208.6C209.594 125.2 210.4 124.394 210.4 123.4V118.6C210.4 117.606 209.594 116.8 208.6 116.8H207.4C206.405 116.8 205.6 117.606 205.6 118.6V123.4C205.6 124.394 206.405 125.2 207.4 125.2ZM206.8 118.6C206.8 118.268 207.068 118 207.4 118H208.6C208.931 118 209.2 118.268 209.2 118.6V123.4C209.2 123.731 208.931 124 208.6 124H207.4C207.068 124 206.8 123.731 206.8 123.4V118.6Z" fill="#161616"/>
<path d="M213.054 127L212 126.46L214.68 121L212 115.54L213.054 115L216 121L213.054 127Z" fill="#161616"/>
<rect x="202" y="115" width="1" height="12" fill="#161616"/>
<line x1="224" y1="120.5" x2="432" y2="120.5" stroke="black"/>
<path fill-rule="evenodd" clip-rule="evenodd" d="M207.4 173.2H208.6C209.594 173.2 210.4 172.394 210.4 171.4V166.6C210.4 165.606 209.594 164.8 208.6 164.8H207.4C206.405 164.8 205.6 165.606 205.6 166.6V171.4C205.6 172.394 206.405 173.2 207.4 173.2ZM206.8 166.6C206.8 166.268 207.068 166 207.4 166H208.6C208.931 166 209.2 166.268 209.2 166.6V171.4C209.2 171.731 208.931 172 208.6 172H207.4C207.068 172 206.8 171.731 206.8 171.4V166.6Z" fill="#161616"/>
<path d="M213.054 175L212 174.46L214.68 169L212 163.54L213.054 163L216 169L213.054 175Z" fill="#161616"/>
<rect x="202" y="163" width="1" height="12" fill="#161616"/>
<line x1="224" y1="168.5" x2="432" y2="168.5" stroke="black"/>
<path fill-rule="evenodd" clip-rule="evenodd" d="M207.4 221.2H208.6C209.594 221.2 210.4 220.394 210.4 219.4V214.6C210.4 213.606 209.594 212.8 208.6 212.8H207.4C206.405 212.8 205.6 213.606 205.6 214.6V219.4C205.6 220.394 206.405 221.2 207.4 221.2ZM206.8 214.6C206.8 214.268 207.068 214 207.4 214H208.6C208.931 214 209.2 214.268 209.2 214.6V219.4C209.2 219.731 208.931 220 208.6 220H207.4C207.068 220 206.8 219.731 206.8 219.4V214.6Z" fill="#161616"/>
<path d="M213.054 223L212 222.46L214.68 217L212 211.54L213.054 211L216 217L213.054 223Z" fill="#161616"/>
<rect x="202" y="211" width="1" height="12" fill="#161616"/>
<line x1="224" y1="216.5" x2="432" y2="216.5" stroke="black"/>
<rect x="241" y="57" width="32" height="32" fill="#6929C4"/>
<path d="M249.254 74.6H252.188L254.906 80H256.616L253.736 74.456C255.374 74.078 256.256 72.836 256.256 71C256.256 68.714 254.942 67.436 252.746 67.436H247.742V80H249.254V74.6ZM249.254 73.304V68.768H252.746C253.934 68.768 254.636 69.416 254.636 70.568V71.504C254.636 72.656 253.934 73.304 252.746 73.304H249.254ZM265.34 80V78.74H259.814L265.196 71.792V70.712H258.338V71.972H263.45L258.176 78.794V80H265.34Z" fill="white"/>
<rect x="241" y="105" width="32" height="32" fill="#6929C4"/>
<path d="M249.254 122.6H252.188L254.906 128H256.616L253.736 122.456C255.374 122.078 256.256 120.836 256.256 119C256.256 116.714 254.942 115.436 252.746 115.436H247.742V128H249.254V122.6ZM249.254 121.304V116.768H252.746C253.934 116.768 254.636 117.416 254.636 118.568V119.504C254.636 120.656 253.934 121.304 252.746 121.304H249.254ZM265.34 128V126.74H259.814L265.196 119.792V118.712H258.338V119.972H263.45L258.176 126.794V128H265.34Z" fill="white"/>
<rect x="241" y="153" width="32" height="32" fill="#6929C4"/>
<path d="M249.254 170.6H252.188L254.906 176H256.616L253.736 170.456C255.374 170.078 256.256 168.836 256.256 167C256.256 164.714 254.942 163.436 252.746 163.436H247.742V176H249.254V170.6ZM249.254 169.304V164.768H252.746C253.934 164.768 254.636 165.416 254.636 166.568V167.504C254.636 168.656 253.934 169.304 252.746 169.304H249.254ZM265.34 176V174.74H259.814L265.196 167.792V166.712H258.338V167.972H263.45L258.176 174.794V176H265.34Z" fill="white"/>
<rect x="241" y="201" width="32" height="32" fill="#6929C4"/>
<path d="M249.254 218.6H252.188L254.906 224H256.616L253.736 218.456C255.374 218.078 256.256 216.836 256.256 215C256.256 212.714 254.942 211.436 252.746 211.436H247.742V224H249.254V218.6ZM249.254 217.304V212.768H252.746C253.934 212.768 254.636 213.416 254.636 214.568V215.504C254.636 216.656 253.934 217.304 252.746 217.304H249.254ZM265.34 224V222.74H259.814L265.196 215.792V214.712H258.338V215.972H263.45L258.176 222.794V224H265.34Z" fill="white"/>
<rect x="290" y="57" width="32" height="32" fill="#6929C4"/>
<path d="M298.368 74.6H301.302L304.02 80H305.73L302.85 74.456C304.488 74.078 305.37 72.836 305.37 71C305.37 68.714 304.056 67.436 301.86 67.436H296.856V80H298.368V74.6ZM298.368 73.304V68.768H301.86C303.048 68.768 303.75 69.416 303.75 70.568V71.504C303.75 72.656 303.048 73.304 301.86 73.304H298.368ZM307.073 80H308.675L311.285 76.364H311.339L313.751 80H315.443L312.095 75.212L315.371 70.712H313.769L311.321 74.168H311.267L308.909 70.712H307.217L310.511 75.32L307.073 80Z" fill="white"/>
<rect x="290" y="105" width="32" height="32" fill="#6929C4"/>
<path d="M298.368 122.6H301.302L304.02 128H305.73L302.85 122.456C304.488 122.078 305.37 120.836 305.37 119C305.37 116.714 304.056 115.436 301.86 115.436H296.856V128H298.368V122.6ZM298.368 121.304V116.768H301.86C303.048 116.768 303.75 117.416 303.75 118.568V119.504C303.75 120.656 303.048 121.304 301.86 121.304H298.368ZM307.073 128H308.675L311.285 124.364H311.339L313.751 128H315.443L312.095 123.212L315.371 118.712H313.769L311.321 122.168H311.267L308.909 118.712H307.217L310.511 123.32L307.073 128Z" fill="white"/>
<rect x="290" y="153" width="32" height="32" fill="#6929C4"/>
<path d="M298.368 170.6H301.302L304.02 176H305.73L302.85 170.456C304.488 170.078 305.37 168.836 305.37 167C305.37 164.714 304.056 163.436 301.86 163.436H296.856V176H298.368V170.6ZM298.368 169.304V164.768H301.86C303.048 164.768 303.75 165.416 303.75 166.568V167.504C303.75 168.656 303.048 169.304 301.86 169.304H298.368ZM307.073 176H308.675L311.285 172.364H311.339L313.751 176H315.443L312.095 171.212L315.371 166.712H313.769L311.321 170.168H311.267L308.909 166.712H307.217L310.511 171.32L307.073 176Z" fill="white"/>
<rect x="290" y="201" width="32" height="32" fill="#6929C4"/>
<path d="M298.368 218.6H301.302L304.02 224H305.73L302.85 218.456C304.488 218.078 305.37 216.836 305.37 215C305.37 212.714 304.056 211.436 301.86 211.436H296.856V224H298.368V218.6ZM298.368 217.304V212.768H301.86C303.048 212.768 303.75 213.416 303.75 214.568V215.504C303.75 216.656 303.048 217.304 301.86 217.304H298.368ZM307.073 224H308.675L311.285 220.364H311.339L313.751 224H315.443L312.095 219.212L315.371 214.712H313.769L311.321 218.168H311.267L308.909 214.712H307.217L310.511 219.32L307.073 224Z" fill="white"/>
<rect x="339" y="105" width="32" height="32" rx="16" fill="#1192E8"/>
<path d="M356 120V112H354V120H346V122H354V130H356V122H364V120H356Z" fill="white"/>
<rect x="349" y="67" width="12" height="12" rx="6" fill="#1192E8"/>
<line x1="355" y1="107" x2="355" y2="78" stroke="#1192E8" stroke-width="2"/>
<rect x="380" y="153" width="32" height="32" rx="16" fill="#1192E8"/>
<path d="M397 168V160H395V168H387V170H395V178H397V170H405V168H397Z" fill="white"/>
<rect x="390" y="115" width="12" height="12" rx="6" fill="#1192E8"/>
<line x1="396" y1="155" x2="396" y2="126" stroke="#1192E8" stroke-width="2"/>
<rect x="339" y="201" width="32" height="32" rx="16" fill="#1192E8"/>
<path d="M356 216V208H354V216H346V218H354V226H356V218H364V216H356Z" fill="white"/>
<rect x="349" y="163" width="12" height="12" rx="6" fill="#1192E8"/>
<line x1="355" y1="203" x2="355" y2="174" stroke="#1192E8" stroke-width="2"/>
<path d="M206.942 32.168C208.692 32.168 209.854 31.314 210.554 29.858L209.056 28.976C208.734 29.858 208.048 30.53 206.942 30.53C205.57 30.53 204.688 29.578 204.688 27.898V26.358C204.688 24.692 205.57 23.698 206.942 23.698C208.034 23.698 208.65 24.286 208.93 25.154L210.512 24.314C209.826 22.802 208.692 22.06 206.942 22.06C204.366 22.06 202.728 23.894 202.728 27.184C202.728 30.474 204.366 32.168 206.942 32.168ZM213.074 23.628C213.802 23.628 214.124 23.25 214.124 22.732V22.452C214.124 21.934 213.802 21.556 213.074 21.556C212.332 21.556 212.024 21.934 212.024 22.452V22.732C212.024 23.25 212.332 23.628 213.074 23.628ZM212.178 32H213.97V24.692H212.178V32ZM218 32V27.52C218 26.722 218.63 26.386 219.834 26.386H220.394V24.692H220.002C218.84 24.692 218.252 25.434 218.07 26.204H218V24.692H216.208V32H218ZM224.679 32.168C226.093 32.168 227.115 31.524 227.591 30.236L226.219 29.578C225.953 30.236 225.533 30.726 224.679 30.726C223.685 30.726 223.181 30.04 223.181 29.018V27.688C223.181 26.666 223.685 25.966 224.679 25.966C225.449 25.966 225.911 26.414 226.079 27.03L227.549 26.372C227.115 25.224 226.149 24.524 224.679 24.524C222.523 24.524 221.305 25.994 221.305 28.332C221.305 30.684 222.523 32.168 224.679 32.168ZM233.501 32H235.293V24.692H233.501V29.522C233.501 30.306 232.787 30.684 232.073 30.684C231.219 30.684 230.841 30.138 230.841 29.13V24.692H229.049V29.312C229.049 31.132 229.889 32.168 231.387 32.168C232.591 32.168 233.179 31.51 233.431 30.782H233.501V32ZM238.419 23.628C239.147 23.628 239.469 23.25 239.469 22.732V22.452C239.469 21.934 239.147 21.556 238.419 21.556C237.677 21.556 237.369 21.934 237.369 22.452V22.732C237.369 23.25 237.677 23.628 238.419 23.628ZM237.523 32H239.315V24.692H237.523V32ZM243.835 32H245.123V30.572H243.737V26.12H245.235V24.692H243.737V22.69H242.127V23.936C242.127 24.44 241.959 24.692 241.427 24.692H240.867V26.12H241.945V30.138C241.945 31.328 242.603 32 243.835 32ZM250.53 32H255.486C256.928 32 258.006 30.768 258.006 29.2C258.006 27.534 256.746 26.932 255.892 26.918V26.834C256.788 26.778 257.642 26.218 257.642 24.734C257.642 23.222 256.662 22.228 255.052 22.228H250.53V32ZM252.378 27.814H254.954C255.654 27.814 256.074 28.206 256.074 28.892V29.368C256.074 30.054 255.654 30.432 254.954 30.432H252.378V27.814ZM252.378 23.796H254.66C255.332 23.796 255.724 24.174 255.724 24.832V25.266C255.724 25.91 255.332 26.302 254.66 26.302H252.378V23.796Z" fill="black"/>
<path d="M35.942 32.168C37.692 32.168 38.854 31.314 39.554 29.858L38.056 28.976C37.734 29.858 37.048 30.53 35.942 30.53C34.57 30.53 33.688 29.578 33.688 27.898V26.358C33.688 24.692 34.57 23.698 35.942 23.698C37.034 23.698 37.65 24.286 37.93 25.154L39.512 24.314C38.826 22.802 37.692 22.06 35.942 22.06C33.366 22.06 31.728 23.894 31.728 27.184C31.728 30.474 33.366 32.168 35.942 32.168ZM42.0744 23.628C42.8024 23.628 43.1244 23.25 43.1244 22.732V22.452C43.1244 21.934 42.8024 21.556 42.0744 21.556C41.3324 21.556 41.0244 21.934 41.0244 22.452V22.732C41.0244 23.25 41.3324 23.628 42.0744 23.628ZM41.1784 32H42.9704V24.692H41.1784V32ZM46.9996 32V27.52C46.9996 26.722 47.6296 26.386 48.8336 26.386H49.3936V24.692H49.0016C47.8396 24.692 47.2516 25.434 47.0696 26.204H46.9996V24.692H45.2076V32H46.9996ZM53.6793 32.168C55.0933 32.168 56.1153 31.524 56.5913 30.236L55.2193 29.578C54.9533 30.236 54.5333 30.726 53.6793 30.726C52.6853 30.726 52.1813 30.04 52.1813 29.018V27.688C52.1813 26.666 52.6853 25.966 53.6793 25.966C54.4493 25.966 54.9113 26.414 55.0793 27.03L56.5493 26.372C56.1153 25.224 55.1493 24.524 53.6793 24.524C51.5233 24.524 50.3053 25.994 50.3053 28.332C50.3053 30.684 51.5233 32.168 53.6793 32.168ZM62.501 32H64.293V24.692H62.501V29.522C62.501 30.306 61.787 30.684 61.073 30.684C60.219 30.684 59.841 30.138 59.841 29.13V24.692H58.049V29.312C58.049 31.132 58.889 32.168 60.387 32.168C61.591 32.168 62.179 31.51 62.431 30.782H62.501V32ZM67.4195 23.628C68.1475 23.628 68.4695 23.25 68.4695 22.732V22.452C68.4695 21.934 68.1475 21.556 67.4195 21.556C66.6775 21.556 66.3695 21.934 66.3695 22.452V22.732C66.3695 23.25 66.6775 23.628 67.4195 23.628ZM66.5235 32H68.3155V24.692H66.5235V32ZM72.8346 32H74.1226V30.572H72.7366V26.12H74.2346V24.692H72.7366V22.69H71.1266V23.936C71.1266 24.44 70.9586 24.692 70.4266 24.692H69.8666V26.12H70.9446V30.138C70.9446 31.328 71.6026 32 72.8346 32ZM87.4956 32L84.2476 22.228H81.9516L78.6756 32H80.5516L81.3216 29.508H84.7936L85.5776 32H87.4956ZM84.3456 27.926H81.7696L83.0156 23.908H83.0856L84.3456 27.926Z" fill="black"/>
<line x1="185.5" y1="1" x2="185.5" y2="272" stroke="#DDE1E6"/>
</svg>
