<svg width="636" height="636" viewBox="0 0 636 636" fill="none" xmlns="http://www.w3.org/2000/svg">
<g clip-path="url(#clip0_1066_18753)">
<rect width="636" height="636" fill="white"/>
<rect opacity="0.4" y="556.5" width="636" height="79.5" fill="#F2F4F8"/>
<rect opacity="0.4" y="397.5" width="636" height="79.5" fill="#F2F4F8"/>
<rect opacity="0.4" y="238.5" width="636" height="79.5" fill="#F2F4F8"/>
<rect opacity="0.4" y="79.5" width="636" height="79.5" fill="#F2F4F8"/>
<rect x="0.5" y="0.5" width="635" height="635" stroke="#DDE1E6"/>
<rect x="56.5" y="56.5" width="47" height="47" fill="#F2F4F8" stroke="#262626"/>
<rect x="103.5" y="56.5" width="47" height="47" fill="#F2F4F8" stroke="#262626"/>
<rect x="103.5" y="103.5" width="47" height="47" fill="#F2F4F8" stroke="#262626"/>
<rect x="56.5" y="103.5" width="47" height="47" fill="#F2F4F8" stroke="#262626"/>
<rect x="56.5" y="485.5" width="47" height="47" fill="#F2F4F8" stroke="#262626"/>
<rect x="103.5" y="485.5" width="47" height="47" fill="#F2F4F8" stroke="#262626"/>
<rect x="103.5" y="532.5" width="47" height="47" fill="#6929C4" stroke="#262626"/>
<rect x="56.5" y="532.5" width="47" height="47" fill="#6929C4" stroke="#262626"/>
<rect x="199.5" y="199.5" width="47" height="47" fill="#6929C4" stroke="#262626"/>
<rect x="246.5" y="199.5" width="47" height="47" fill="#F2F4F8" stroke="#262626"/>
<rect x="246.5" y="246.5" width="47" height="47" fill="#F2F4F8" stroke="#262626"/>
<rect x="199.5" y="246.5" width="47" height="47" fill="#6929C4" stroke="#262626"/>
<rect x="342.5" y="342.5" width="47" height="47" fill="#F2F4F8" stroke="#262626"/>
<rect x="389.5" y="342.5" width="47" height="47" fill="#6929C4" stroke="#262626"/>
<rect x="389.5" y="389.5" width="47" height="47" fill="#6929C4" stroke="#262626"/>
<rect x="342.5" y="389.5" width="47" height="47" fill="#F2F4F8" stroke="#262626"/>
<rect x="485.5" y="56.5" width="47" height="47" fill="#6929C4" stroke="#262626"/>
<rect x="532.5" y="56.5" width="47" height="47" fill="#6929C4" stroke="#262626"/>
<rect x="532.5" y="103.5" width="47" height="47" fill="#F2F4F8" stroke="#262626"/>
<rect x="485.5" y="103.5" width="47" height="47" fill="#F2F4F8" stroke="#262626"/>
<rect x="485.5" y="485.5" width="47" height="47" fill="#6929C4" stroke="#262626"/>
<rect x="532.5" y="485.5" width="47" height="47" fill="#6929C4" stroke="#262626"/>
<rect x="532.5" y="532.5" width="47" height="47" fill="#6929C4" stroke="#262626"/>
<rect x="485.5" y="532.5" width="47" height="47" fill="#6929C4" stroke="#262626"/>
<path d="M87.9722 98.8H89.0922V88.776H87.9722V89.952H87.9162C87.5382 89.042 86.7962 88.608 85.8022 88.608C83.9962 88.608 82.8622 90.078 82.8622 92.388C82.8622 94.698 83.9962 96.168 85.8022 96.168C86.7962 96.168 87.4822 95.72 87.9162 94.824H87.9722V98.8ZM86.1102 95.16C84.8502 95.16 84.0662 94.292 84.0662 93.004V91.772C84.0662 90.484 84.8502 89.616 86.1102 89.616C87.1322 89.616 87.9722 90.204 87.9722 91.002V93.69C87.9722 94.628 87.1322 95.16 86.1102 95.16ZM94.6433 96.168C96.9813 96.168 98.0033 94.306 98.0033 91.114C98.0033 87.922 96.9813 86.06 94.6433 86.06C92.3053 86.06 91.2833 87.922 91.2833 91.114C91.2833 94.306 92.3053 96.168 94.6433 96.168ZM94.6433 95.146C93.1173 95.146 92.5153 93.802 92.5153 91.912V90.316C92.5153 88.426 93.1173 87.082 94.6433 87.082C96.1693 87.082 96.7713 88.426 96.7713 90.316V91.912C96.7713 93.802 96.1693 95.146 94.6433 95.146Z" fill="black"/>
<path d="M134.972 99.8H136.092V89.776H134.972V90.952H134.916C134.538 90.042 133.796 89.608 132.802 89.608C130.996 89.608 129.862 91.078 129.862 93.388C129.862 95.698 130.996 97.168 132.802 97.168C133.796 97.168 134.482 96.72 134.916 95.824H134.972V99.8ZM133.11 96.16C131.85 96.16 131.066 95.292 131.066 94.004V92.772C131.066 91.484 131.85 90.616 133.11 90.616C134.132 90.616 134.972 91.204 134.972 92.002V94.69C134.972 95.628 134.132 96.16 133.11 96.16ZM145.101 97V95.964H142.581V87.228H140.747L138.157 89.65L138.843 90.392L141.307 88.096H141.405V95.964H138.675V97H145.101Z" fill="black"/>
<path d="M87.9722 146.8H89.0922V136.776H87.9722V137.952H87.9162C87.5382 137.042 86.7962 136.608 85.8022 136.608C83.9962 136.608 82.8622 138.078 82.8622 140.388C82.8622 142.698 83.9962 144.168 85.8022 144.168C86.7962 144.168 87.4822 143.72 87.9162 142.824H87.9722V146.8ZM86.1102 143.16C84.8502 143.16 84.0662 142.292 84.0662 141.004V139.772C84.0662 138.484 84.8502 137.616 86.1102 137.616C87.1322 137.616 87.9722 138.204 87.9722 139.002V141.69C87.9722 142.628 87.1322 143.16 86.1102 143.16ZM97.9053 142.964H92.7673L95.3993 140.598C96.6453 139.478 97.5413 138.414 97.5413 136.902C97.5413 135.236 96.4493 134.06 94.5453 134.06C92.6553 134.06 91.7873 135.208 91.4093 136.356L92.4593 136.762C92.7253 135.838 93.2853 135.11 94.4893 135.11C95.6933 135.11 96.2953 135.852 96.2953 136.93V137.098C96.2953 138.036 95.5953 139.016 94.6853 139.856L91.4933 142.796V144H97.9053V142.964Z" fill="black"/>
<path d="M134.972 146.8H136.092V136.776H134.972V137.952H134.916C134.538 137.042 133.796 136.608 132.802 136.608C130.996 136.608 129.862 138.078 129.862 140.388C129.862 142.698 130.996 144.168 132.802 144.168C133.796 144.168 134.482 143.72 134.916 142.824H134.972V146.8ZM133.11 143.16C131.85 143.16 131.066 142.292 131.066 141.004V139.772C131.066 138.484 131.85 137.616 133.11 137.616C134.132 137.616 134.972 138.204 134.972 139.002V141.69C134.972 142.628 134.132 143.16 133.11 143.16ZM140.033 138.372V139.394H141.181C142.553 139.394 143.281 140.052 143.281 141.2V141.312C143.281 142.46 142.553 143.118 141.181 143.118C139.991 143.118 139.417 142.6 138.913 141.83L138.031 142.502C138.633 143.342 139.501 144.168 141.195 144.168C143.183 144.168 144.513 143.006 144.513 141.326C144.513 139.856 143.505 139.072 142.455 138.862V138.806C143.491 138.54 144.331 137.784 144.331 136.524C144.331 134.942 143.015 134.06 141.363 134.06C139.795 134.06 138.941 134.872 138.451 135.656L139.319 136.328C139.725 135.586 140.327 135.11 141.335 135.11C142.371 135.11 143.085 135.628 143.085 136.65V136.748C143.085 137.686 142.413 138.372 141.097 138.372H140.033Z" fill="black"/>
<g opacity="0.5">
<rect x="199.5" y="56.5" width="47" height="47" fill="#6929C4" stroke="#262626"/>
<rect x="246.5" y="56.5" width="47" height="47" fill="#F2F4F8" stroke="#262626"/>
<rect x="246.5" y="103.5" width="47" height="47" fill="#F2F4F8" stroke="#262626"/>
<rect x="199.5" y="103.5" width="47" height="47" fill="#F2F4F8" stroke="#262626"/>
<path d="M230.972 98.8H232.092V88.776H230.972V89.952H230.916C230.538 89.042 229.796 88.608 228.802 88.608C226.996 88.608 225.862 90.078 225.862 92.388C225.862 94.698 226.996 96.168 228.802 96.168C229.796 96.168 230.482 95.72 230.916 94.824H230.972V98.8ZM229.11 95.16C227.85 95.16 227.066 94.292 227.066 93.004V91.772C227.066 90.484 227.85 89.616 229.11 89.616C230.132 89.616 230.972 90.204 230.972 91.002V93.69C230.972 94.628 230.132 95.16 229.11 95.16ZM237.643 96.168C239.981 96.168 241.003 94.306 241.003 91.114C241.003 87.922 239.981 86.06 237.643 86.06C235.305 86.06 234.283 87.922 234.283 91.114C234.283 94.306 235.305 96.168 237.643 96.168ZM237.643 95.146C236.117 95.146 235.515 93.802 235.515 91.912V90.316C235.515 88.426 236.117 87.082 237.643 87.082C239.169 87.082 239.771 88.426 239.771 90.316V91.912C239.771 93.802 239.169 95.146 237.643 95.146Z" fill="white"/>
<path d="M277.972 99.8H279.092V89.776H277.972V90.952H277.916C277.538 90.042 276.796 89.608 275.802 89.608C273.996 89.608 272.862 91.078 272.862 93.388C272.862 95.698 273.996 97.168 275.802 97.168C276.796 97.168 277.482 96.72 277.916 95.824H277.972V99.8ZM276.11 96.16C274.85 96.16 274.066 95.292 274.066 94.004V92.772C274.066 91.484 274.85 90.616 276.11 90.616C277.132 90.616 277.972 91.204 277.972 92.002V94.69C277.972 95.628 277.132 96.16 276.11 96.16ZM288.101 97V95.964H285.581V87.228H283.747L281.157 89.65L281.843 90.392L284.307 88.096H284.405V95.964H281.675V97H288.101Z" fill="black"/>
<path d="M230.972 146.8H232.092V136.776H230.972V137.952H230.916C230.538 137.042 229.796 136.608 228.802 136.608C226.996 136.608 225.862 138.078 225.862 140.388C225.862 142.698 226.996 144.168 228.802 144.168C229.796 144.168 230.482 143.72 230.916 142.824H230.972V146.8ZM229.11 143.16C227.85 143.16 227.066 142.292 227.066 141.004V139.772C227.066 138.484 227.85 137.616 229.11 137.616C230.132 137.616 230.972 138.204 230.972 139.002V141.69C230.972 142.628 230.132 143.16 229.11 143.16ZM240.905 142.964H235.767L238.399 140.598C239.645 139.478 240.541 138.414 240.541 136.902C240.541 135.236 239.449 134.06 237.545 134.06C235.655 134.06 234.787 135.208 234.409 136.356L235.459 136.762C235.725 135.838 236.285 135.11 237.489 135.11C238.693 135.11 239.295 135.852 239.295 136.93V137.098C239.295 138.036 238.595 139.016 237.685 139.856L234.493 142.796V144H240.905V142.964Z" fill="black"/>
<path d="M277.972 146.8H279.092V136.776H277.972V137.952H277.916C277.538 137.042 276.796 136.608 275.802 136.608C273.996 136.608 272.862 138.078 272.862 140.388C272.862 142.698 273.996 144.168 275.802 144.168C276.796 144.168 277.482 143.72 277.916 142.824H277.972V146.8ZM276.11 143.16C274.85 143.16 274.066 142.292 274.066 141.004V139.772C274.066 138.484 274.85 137.616 276.11 137.616C277.132 137.616 277.972 138.204 277.972 139.002V141.69C277.972 142.628 277.132 143.16 276.11 143.16ZM283.033 138.372V139.394H284.181C285.553 139.394 286.281 140.052 286.281 141.2V141.312C286.281 142.46 285.553 143.118 284.181 143.118C282.991 143.118 282.417 142.6 281.913 141.83L281.031 142.502C281.633 143.342 282.501 144.168 284.195 144.168C286.183 144.168 287.513 143.006 287.513 141.326C287.513 139.856 286.505 139.072 285.455 138.862V138.806C286.491 138.54 287.331 137.784 287.331 136.524C287.331 134.942 286.015 134.06 284.363 134.06C282.795 134.06 281.941 134.872 281.451 135.656L282.319 136.328C282.725 135.586 283.327 135.11 284.335 135.11C285.371 135.11 286.085 135.628 286.085 136.65V136.748C286.085 137.686 285.413 138.372 284.097 138.372H283.033Z" fill="black"/>
</g>
<g opacity="0.5">
<rect x="342.5" y="56.5" width="47" height="47" fill="#F2F4F8" stroke="#262626"/>
<rect x="389.5" y="56.5" width="47" height="47" fill="#6929C4" stroke="#262626"/>
<rect x="389.5" y="103.5" width="47" height="47" fill="#F2F4F8" stroke="#262626"/>
<rect x="342.5" y="103.5" width="47" height="47" fill="#F2F4F8" stroke="#262626"/>
<path d="M373.972 98.8H375.092V88.776H373.972V89.952H373.916C373.538 89.042 372.796 88.608 371.802 88.608C369.996 88.608 368.862 90.078 368.862 92.388C368.862 94.698 369.996 96.168 371.802 96.168C372.796 96.168 373.482 95.72 373.916 94.824H373.972V98.8ZM372.11 95.16C370.85 95.16 370.066 94.292 370.066 93.004V91.772C370.066 90.484 370.85 89.616 372.11 89.616C373.132 89.616 373.972 90.204 373.972 91.002V93.69C373.972 94.628 373.132 95.16 372.11 95.16ZM380.643 96.168C382.981 96.168 384.003 94.306 384.003 91.114C384.003 87.922 382.981 86.06 380.643 86.06C378.305 86.06 377.283 87.922 377.283 91.114C377.283 94.306 378.305 96.168 380.643 96.168ZM380.643 95.146C379.117 95.146 378.515 93.802 378.515 91.912V90.316C378.515 88.426 379.117 87.082 380.643 87.082C382.169 87.082 382.771 88.426 382.771 90.316V91.912C382.771 93.802 382.169 95.146 380.643 95.146Z" fill="black"/>
<path d="M420.972 99.8H422.092V89.776H420.972V90.952H420.916C420.538 90.042 419.796 89.608 418.802 89.608C416.996 89.608 415.862 91.078 415.862 93.388C415.862 95.698 416.996 97.168 418.802 97.168C419.796 97.168 420.482 96.72 420.916 95.824H420.972V99.8ZM419.11 96.16C417.85 96.16 417.066 95.292 417.066 94.004V92.772C417.066 91.484 417.85 90.616 419.11 90.616C420.132 90.616 420.972 91.204 420.972 92.002V94.69C420.972 95.628 420.132 96.16 419.11 96.16ZM431.101 97V95.964H428.581V87.228H426.747L424.157 89.65L424.843 90.392L427.307 88.096H427.405V95.964H424.675V97H431.101Z" fill="white"/>
<path d="M373.972 146.8H375.092V136.776H373.972V137.952H373.916C373.538 137.042 372.796 136.608 371.802 136.608C369.996 136.608 368.862 138.078 368.862 140.388C368.862 142.698 369.996 144.168 371.802 144.168C372.796 144.168 373.482 143.72 373.916 142.824H373.972V146.8ZM372.11 143.16C370.85 143.16 370.066 142.292 370.066 141.004V139.772C370.066 138.484 370.85 137.616 372.11 137.616C373.132 137.616 373.972 138.204 373.972 139.002V141.69C373.972 142.628 373.132 143.16 372.11 143.16ZM383.905 142.964H378.767L381.399 140.598C382.645 139.478 383.541 138.414 383.541 136.902C383.541 135.236 382.449 134.06 380.545 134.06C378.655 134.06 377.787 135.208 377.409 136.356L378.459 136.762C378.725 135.838 379.285 135.11 380.489 135.11C381.693 135.11 382.295 135.852 382.295 136.93V137.098C382.295 138.036 381.595 139.016 380.685 139.856L377.493 142.796V144H383.905V142.964Z" fill="black"/>
<path d="M420.972 146.8H422.092V136.776H420.972V137.952H420.916C420.538 137.042 419.796 136.608 418.802 136.608C416.996 136.608 415.862 138.078 415.862 140.388C415.862 142.698 416.996 144.168 418.802 144.168C419.796 144.168 420.482 143.72 420.916 142.824H420.972V146.8ZM419.11 143.16C417.85 143.16 417.066 142.292 417.066 141.004V139.772C417.066 138.484 417.85 137.616 419.11 137.616C420.132 137.616 420.972 138.204 420.972 139.002V141.69C420.972 142.628 420.132 143.16 419.11 143.16ZM426.033 138.372V139.394H427.181C428.553 139.394 429.281 140.052 429.281 141.2V141.312C429.281 142.46 428.553 143.118 427.181 143.118C425.991 143.118 425.417 142.6 424.913 141.83L424.031 142.502C424.633 143.342 425.501 144.168 427.195 144.168C429.183 144.168 430.513 143.006 430.513 141.326C430.513 139.856 429.505 139.072 428.455 138.862V138.806C429.491 138.54 430.331 137.784 430.331 136.524C430.331 134.942 429.015 134.06 427.363 134.06C425.795 134.06 424.941 134.872 424.451 135.656L425.319 136.328C425.725 135.586 426.327 135.11 427.335 135.11C428.371 135.11 429.085 135.628 429.085 136.65V136.748C429.085 137.686 428.413 138.372 427.097 138.372H426.033Z" fill="black"/>
</g>
<path d="M516.972 98.8H518.092V88.776H516.972V89.952H516.916C516.538 89.042 515.796 88.608 514.802 88.608C512.996 88.608 511.862 90.078 511.862 92.388C511.862 94.698 512.996 96.168 514.802 96.168C515.796 96.168 516.482 95.72 516.916 94.824H516.972V98.8ZM515.11 95.16C513.85 95.16 513.066 94.292 513.066 93.004V91.772C513.066 90.484 513.85 89.616 515.11 89.616C516.132 89.616 516.972 90.204 516.972 91.002V93.69C516.972 94.628 516.132 95.16 515.11 95.16ZM523.643 96.168C525.981 96.168 527.003 94.306 527.003 91.114C527.003 87.922 525.981 86.06 523.643 86.06C521.305 86.06 520.283 87.922 520.283 91.114C520.283 94.306 521.305 96.168 523.643 96.168ZM523.643 95.146C522.117 95.146 521.515 93.802 521.515 91.912V90.316C521.515 88.426 522.117 87.082 523.643 87.082C525.169 87.082 525.771 88.426 525.771 90.316V91.912C525.771 93.802 525.169 95.146 523.643 95.146Z" fill="white"/>
<path d="M563.972 99.8H565.092V89.776H563.972V90.952H563.916C563.538 90.042 562.796 89.608 561.802 89.608C559.996 89.608 558.862 91.078 558.862 93.388C558.862 95.698 559.996 97.168 561.802 97.168C562.796 97.168 563.482 96.72 563.916 95.824H563.972V99.8ZM562.11 96.16C560.85 96.16 560.066 95.292 560.066 94.004V92.772C560.066 91.484 560.85 90.616 562.11 90.616C563.132 90.616 563.972 91.204 563.972 92.002V94.69C563.972 95.628 563.132 96.16 562.11 96.16ZM574.101 97V95.964H571.581V87.228H569.747L567.157 89.65L567.843 90.392L570.307 88.096H570.405V95.964H567.675V97H574.101Z" fill="white"/>
<path d="M516.972 146.8H518.092V136.776H516.972V137.952H516.916C516.538 137.042 515.796 136.608 514.802 136.608C512.996 136.608 511.862 138.078 511.862 140.388C511.862 142.698 512.996 144.168 514.802 144.168C515.796 144.168 516.482 143.72 516.916 142.824H516.972V146.8ZM515.11 143.16C513.85 143.16 513.066 142.292 513.066 141.004V139.772C513.066 138.484 513.85 137.616 515.11 137.616C516.132 137.616 516.972 138.204 516.972 139.002V141.69C516.972 142.628 516.132 143.16 515.11 143.16ZM526.905 142.964H521.767L524.399 140.598C525.645 139.478 526.541 138.414 526.541 136.902C526.541 135.236 525.449 134.06 523.545 134.06C521.655 134.06 520.787 135.208 520.409 136.356L521.459 136.762C521.725 135.838 522.285 135.11 523.489 135.11C524.693 135.11 525.295 135.852 525.295 136.93V137.098C525.295 138.036 524.595 139.016 523.685 139.856L520.493 142.796V144H526.905V142.964Z" fill="black"/>
<path d="M563.972 146.8H565.092V136.776H563.972V137.952H563.916C563.538 137.042 562.796 136.608 561.802 136.608C559.996 136.608 558.862 138.078 558.862 140.388C558.862 142.698 559.996 144.168 561.802 144.168C562.796 144.168 563.482 143.72 563.916 142.824H563.972V146.8ZM562.11 143.16C560.85 143.16 560.066 142.292 560.066 141.004V139.772C560.066 138.484 560.85 137.616 562.11 137.616C563.132 137.616 563.972 138.204 563.972 139.002V141.69C563.972 142.628 563.132 143.16 562.11 143.16ZM569.033 138.372V139.394H570.181C571.553 139.394 572.281 140.052 572.281 141.2V141.312C572.281 142.46 571.553 143.118 570.181 143.118C568.991 143.118 568.417 142.6 567.913 141.83L567.031 142.502C567.633 143.342 568.501 144.168 570.195 144.168C572.183 144.168 573.513 143.006 573.513 141.326C573.513 139.856 572.505 139.072 571.455 138.862V138.806C572.491 138.54 573.331 137.784 573.331 136.524C573.331 134.942 572.015 134.06 570.363 134.06C568.795 134.06 567.941 134.872 567.451 135.656L568.319 136.328C568.725 135.586 569.327 135.11 570.335 135.11C571.371 135.11 572.085 135.628 572.085 136.65V136.748C572.085 137.686 571.413 138.372 570.097 138.372H569.033Z" fill="black"/>
<g opacity="0.5">
<rect x="485.5" y="199.5" width="47" height="47" fill="#6929C4" stroke="#262626"/>
<rect x="532.5" y="199.5" width="47" height="47" fill="#6929C4" stroke="#262626"/>
<rect x="532.5" y="246.5" width="47" height="47" fill="#F2F4F8" stroke="#262626"/>
<rect x="485.5" y="246.5" width="47" height="47" fill="#6929C4" stroke="#262626"/>
<path d="M516.972 241.8H518.092V231.776H516.972V232.952H516.916C516.538 232.042 515.796 231.608 514.802 231.608C512.996 231.608 511.862 233.078 511.862 235.388C511.862 237.698 512.996 239.168 514.802 239.168C515.796 239.168 516.482 238.72 516.916 237.824H516.972V241.8ZM515.11 238.16C513.85 238.16 513.066 237.292 513.066 236.004V234.772C513.066 233.484 513.85 232.616 515.11 232.616C516.132 232.616 516.972 233.204 516.972 234.002V236.69C516.972 237.628 516.132 238.16 515.11 238.16ZM523.643 239.168C525.981 239.168 527.003 237.306 527.003 234.114C527.003 230.922 525.981 229.06 523.643 229.06C521.305 229.06 520.283 230.922 520.283 234.114C520.283 237.306 521.305 239.168 523.643 239.168ZM523.643 238.146C522.117 238.146 521.515 236.802 521.515 234.912V233.316C521.515 231.426 522.117 230.082 523.643 230.082C525.169 230.082 525.771 231.426 525.771 233.316V234.912C525.771 236.802 525.169 238.146 523.643 238.146Z" fill="white"/>
<path d="M563.972 242.8H565.092V232.776H563.972V233.952H563.916C563.538 233.042 562.796 232.608 561.802 232.608C559.996 232.608 558.862 234.078 558.862 236.388C558.862 238.698 559.996 240.168 561.802 240.168C562.796 240.168 563.482 239.72 563.916 238.824H563.972V242.8ZM562.11 239.16C560.85 239.16 560.066 238.292 560.066 237.004V235.772C560.066 234.484 560.85 233.616 562.11 233.616C563.132 233.616 563.972 234.204 563.972 235.002V237.69C563.972 238.628 563.132 239.16 562.11 239.16ZM574.101 240V238.964H571.581V230.228H569.747L567.157 232.65L567.843 233.392L570.307 231.096H570.405V238.964H567.675V240H574.101Z" fill="white"/>
<path d="M516.972 289.8H518.092V279.776H516.972V280.952H516.916C516.538 280.042 515.796 279.608 514.802 279.608C512.996 279.608 511.862 281.078 511.862 283.388C511.862 285.698 512.996 287.168 514.802 287.168C515.796 287.168 516.482 286.72 516.916 285.824H516.972V289.8ZM515.11 286.16C513.85 286.16 513.066 285.292 513.066 284.004V282.772C513.066 281.484 513.85 280.616 515.11 280.616C516.132 280.616 516.972 281.204 516.972 282.002V284.69C516.972 285.628 516.132 286.16 515.11 286.16ZM526.905 285.964H521.767L524.399 283.598C525.645 282.478 526.541 281.414 526.541 279.902C526.541 278.236 525.449 277.06 523.545 277.06C521.655 277.06 520.787 278.208 520.409 279.356L521.459 279.762C521.725 278.838 522.285 278.11 523.489 278.11C524.693 278.11 525.295 278.852 525.295 279.93V280.098C525.295 281.036 524.595 282.016 523.685 282.856L520.493 285.796V287H526.905V285.964Z" fill="white"/>
<path d="M563.972 289.8H565.092V279.776H563.972V280.952H563.916C563.538 280.042 562.796 279.608 561.802 279.608C559.996 279.608 558.862 281.078 558.862 283.388C558.862 285.698 559.996 287.168 561.802 287.168C562.796 287.168 563.482 286.72 563.916 285.824H563.972V289.8ZM562.11 286.16C560.85 286.16 560.066 285.292 560.066 284.004V282.772C560.066 281.484 560.85 280.616 562.11 280.616C563.132 280.616 563.972 281.204 563.972 282.002V284.69C563.972 285.628 563.132 286.16 562.11 286.16ZM569.033 281.372V282.394H570.181C571.553 282.394 572.281 283.052 572.281 284.2V284.312C572.281 285.46 571.553 286.118 570.181 286.118C568.991 286.118 568.417 285.6 567.913 284.83L567.031 285.502C567.633 286.342 568.501 287.168 570.195 287.168C572.183 287.168 573.513 286.006 573.513 284.326C573.513 282.856 572.505 282.072 571.455 281.862V281.806C572.491 281.54 573.331 280.784 573.331 279.524C573.331 277.942 572.015 277.06 570.363 277.06C568.795 277.06 567.941 277.872 567.451 278.656L568.319 279.328C568.725 278.586 569.327 278.11 570.335 278.11C571.371 278.11 572.085 278.628 572.085 279.65V279.748C572.085 280.686 571.413 281.372 570.097 281.372H569.033Z" fill="black"/>
</g>
<g opacity="0.5">
<rect x="342.5" y="199.5" width="47" height="47" fill="#F2F4F8" stroke="#262626"/>
<rect x="389.5" y="199.5" width="47" height="47" fill="#6929C4" stroke="#262626"/>
<rect x="389.5" y="246.5" width="47" height="47" fill="#F2F4F8" stroke="#262626"/>
<rect x="342.5" y="246.5" width="47" height="47" fill="#6929C4" stroke="#262626"/>
<path d="M373.972 241.8H375.092V231.776H373.972V232.952H373.916C373.538 232.042 372.796 231.608 371.802 231.608C369.996 231.608 368.862 233.078 368.862 235.388C368.862 237.698 369.996 239.168 371.802 239.168C372.796 239.168 373.482 238.72 373.916 237.824H373.972V241.8ZM372.11 238.16C370.85 238.16 370.066 237.292 370.066 236.004V234.772C370.066 233.484 370.85 232.616 372.11 232.616C373.132 232.616 373.972 233.204 373.972 234.002V236.69C373.972 237.628 373.132 238.16 372.11 238.16ZM380.643 239.168C382.981 239.168 384.003 237.306 384.003 234.114C384.003 230.922 382.981 229.06 380.643 229.06C378.305 229.06 377.283 230.922 377.283 234.114C377.283 237.306 378.305 239.168 380.643 239.168ZM380.643 238.146C379.117 238.146 378.515 236.802 378.515 234.912V233.316C378.515 231.426 379.117 230.082 380.643 230.082C382.169 230.082 382.771 231.426 382.771 233.316V234.912C382.771 236.802 382.169 238.146 380.643 238.146Z" fill="black"/>
<path d="M420.972 242.8H422.092V232.776H420.972V233.952H420.916C420.538 233.042 419.796 232.608 418.802 232.608C416.996 232.608 415.862 234.078 415.862 236.388C415.862 238.698 416.996 240.168 418.802 240.168C419.796 240.168 420.482 239.72 420.916 238.824H420.972V242.8ZM419.11 239.16C417.85 239.16 417.066 238.292 417.066 237.004V235.772C417.066 234.484 417.85 233.616 419.11 233.616C420.132 233.616 420.972 234.204 420.972 235.002V237.69C420.972 238.628 420.132 239.16 419.11 239.16ZM431.101 240V238.964H428.581V230.228H426.747L424.157 232.65L424.843 233.392L427.307 231.096H427.405V238.964H424.675V240H431.101Z" fill="white"/>
<path d="M373.972 289.8H375.092V279.776H373.972V280.952H373.916C373.538 280.042 372.796 279.608 371.802 279.608C369.996 279.608 368.862 281.078 368.862 283.388C368.862 285.698 369.996 287.168 371.802 287.168C372.796 287.168 373.482 286.72 373.916 285.824H373.972V289.8ZM372.11 286.16C370.85 286.16 370.066 285.292 370.066 284.004V282.772C370.066 281.484 370.85 280.616 372.11 280.616C373.132 280.616 373.972 281.204 373.972 282.002V284.69C373.972 285.628 373.132 286.16 372.11 286.16ZM383.905 285.964H378.767L381.399 283.598C382.645 282.478 383.541 281.414 383.541 279.902C383.541 278.236 382.449 277.06 380.545 277.06C378.655 277.06 377.787 278.208 377.409 279.356L378.459 279.762C378.725 278.838 379.285 278.11 380.489 278.11C381.693 278.11 382.295 278.852 382.295 279.93V280.098C382.295 281.036 381.595 282.016 380.685 282.856L377.493 285.796V287H383.905V285.964Z" fill="white"/>
<path d="M420.972 289.8H422.092V279.776H420.972V280.952H420.916C420.538 280.042 419.796 279.608 418.802 279.608C416.996 279.608 415.862 281.078 415.862 283.388C415.862 285.698 416.996 287.168 418.802 287.168C419.796 287.168 420.482 286.72 420.916 285.824H420.972V289.8ZM419.11 286.16C417.85 286.16 417.066 285.292 417.066 284.004V282.772C417.066 281.484 417.85 280.616 419.11 280.616C420.132 280.616 420.972 281.204 420.972 282.002V284.69C420.972 285.628 420.132 286.16 419.11 286.16ZM426.033 281.372V282.394H427.181C428.553 282.394 429.281 283.052 429.281 284.2V284.312C429.281 285.46 428.553 286.118 427.181 286.118C425.991 286.118 425.417 285.6 424.913 284.83L424.031 285.502C424.633 286.342 425.501 287.168 427.195 287.168C429.183 287.168 430.513 286.006 430.513 284.326C430.513 282.856 429.505 282.072 428.455 281.862V281.806C429.491 281.54 430.331 280.784 430.331 279.524C430.331 277.942 429.015 277.06 427.363 277.06C425.795 277.06 424.941 277.872 424.451 278.656L425.319 279.328C425.725 278.586 426.327 278.11 427.335 278.11C428.371 278.11 429.085 278.628 429.085 279.65V279.748C429.085 280.686 428.413 281.372 427.097 281.372H426.033Z" fill="black"/>
</g>
<path d="M230.972 241.8H232.092V231.776H230.972V232.952H230.916C230.538 232.042 229.796 231.608 228.802 231.608C226.996 231.608 225.862 233.078 225.862 235.388C225.862 237.698 226.996 239.168 228.802 239.168C229.796 239.168 230.482 238.72 230.916 237.824H230.972V241.8ZM229.11 238.16C227.85 238.16 227.066 237.292 227.066 236.004V234.772C227.066 233.484 227.85 232.616 229.11 232.616C230.132 232.616 230.972 233.204 230.972 234.002V236.69C230.972 237.628 230.132 238.16 229.11 238.16ZM237.643 239.168C239.981 239.168 241.003 237.306 241.003 234.114C241.003 230.922 239.981 229.06 237.643 229.06C235.305 229.06 234.283 230.922 234.283 234.114C234.283 237.306 235.305 239.168 237.643 239.168ZM237.643 238.146C236.117 238.146 235.515 236.802 235.515 234.912V233.316C235.515 231.426 236.117 230.082 237.643 230.082C239.169 230.082 239.771 231.426 239.771 233.316V234.912C239.771 236.802 239.169 238.146 237.643 238.146Z" fill="white"/>
<path d="M277.972 242.8H279.092V232.776H277.972V233.952H277.916C277.538 233.042 276.796 232.608 275.802 232.608C273.996 232.608 272.862 234.078 272.862 236.388C272.862 238.698 273.996 240.168 275.802 240.168C276.796 240.168 277.482 239.72 277.916 238.824H277.972V242.8ZM276.11 239.16C274.85 239.16 274.066 238.292 274.066 237.004V235.772C274.066 234.484 274.85 233.616 276.11 233.616C277.132 233.616 277.972 234.204 277.972 235.002V237.69C277.972 238.628 277.132 239.16 276.11 239.16ZM288.101 240V238.964H285.581V230.228H283.747L281.157 232.65L281.843 233.392L284.307 231.096H284.405V238.964H281.675V240H288.101Z" fill="black"/>
<path d="M230.972 289.8H232.092V279.776H230.972V280.952H230.916C230.538 280.042 229.796 279.608 228.802 279.608C226.996 279.608 225.862 281.078 225.862 283.388C225.862 285.698 226.996 287.168 228.802 287.168C229.796 287.168 230.482 286.72 230.916 285.824H230.972V289.8ZM229.11 286.16C227.85 286.16 227.066 285.292 227.066 284.004V282.772C227.066 281.484 227.85 280.616 229.11 280.616C230.132 280.616 230.972 281.204 230.972 282.002V284.69C230.972 285.628 230.132 286.16 229.11 286.16ZM240.905 285.964H235.767L238.399 283.598C239.645 282.478 240.541 281.414 240.541 279.902C240.541 278.236 239.449 277.06 237.545 277.06C235.655 277.06 234.787 278.208 234.409 279.356L235.459 279.762C235.725 278.838 236.285 278.11 237.489 278.11C238.693 278.11 239.295 278.852 239.295 279.93V280.098C239.295 281.036 238.595 282.016 237.685 282.856L234.493 285.796V287H240.905V285.964Z" fill="white"/>
<path d="M277.972 289.8H279.092V279.776H277.972V280.952H277.916C277.538 280.042 276.796 279.608 275.802 279.608C273.996 279.608 272.862 281.078 272.862 283.388C272.862 285.698 273.996 287.168 275.802 287.168C276.796 287.168 277.482 286.72 277.916 285.824H277.972V289.8ZM276.11 286.16C274.85 286.16 274.066 285.292 274.066 284.004V282.772C274.066 281.484 274.85 280.616 276.11 280.616C277.132 280.616 277.972 281.204 277.972 282.002V284.69C277.972 285.628 277.132 286.16 276.11 286.16ZM283.033 281.372V282.394H284.181C285.553 282.394 286.281 283.052 286.281 284.2V284.312C286.281 285.46 285.553 286.118 284.181 286.118C282.991 286.118 282.417 285.6 281.913 284.83L281.031 285.502C281.633 286.342 282.501 287.168 284.195 287.168C286.183 287.168 287.513 286.006 287.513 284.326C287.513 282.856 286.505 282.072 285.455 281.862V281.806C286.491 281.54 287.331 280.784 287.331 279.524C287.331 277.942 286.015 277.06 284.363 277.06C282.795 277.06 281.941 277.872 281.451 278.656L282.319 279.328C282.725 278.586 283.327 278.11 284.335 278.11C285.371 278.11 286.085 278.628 286.085 279.65V279.748C286.085 280.686 285.413 281.372 284.097 281.372H283.033Z" fill="black"/>
<g opacity="0.5">
<rect x="56.5" y="199.5" width="47" height="47" fill="#F2F4F8" stroke="#262626"/>
<rect x="103.5" y="199.5" width="47" height="47" fill="#F2F4F8" stroke="#262626"/>
<rect x="103.5" y="246.5" width="47" height="47" fill="#F2F4F8" stroke="#262626"/>
<rect x="56.5" y="246.5" width="47" height="47" fill="#6929C4" stroke="#262626"/>
<path d="M87.9722 241.8H89.0922V231.776H87.9722V232.952H87.9162C87.5382 232.042 86.7962 231.608 85.8022 231.608C83.9962 231.608 82.8622 233.078 82.8622 235.388C82.8622 237.698 83.9962 239.168 85.8022 239.168C86.7962 239.168 87.4822 238.72 87.9162 237.824H87.9722V241.8ZM86.1102 238.16C84.8502 238.16 84.0662 237.292 84.0662 236.004V234.772C84.0662 233.484 84.8502 232.616 86.1102 232.616C87.1322 232.616 87.9722 233.204 87.9722 234.002V236.69C87.9722 237.628 87.1322 238.16 86.1102 238.16ZM94.6433 239.168C96.9813 239.168 98.0033 237.306 98.0033 234.114C98.0033 230.922 96.9813 229.06 94.6433 229.06C92.3053 229.06 91.2833 230.922 91.2833 234.114C91.2833 237.306 92.3053 239.168 94.6433 239.168ZM94.6433 238.146C93.1173 238.146 92.5153 236.802 92.5153 234.912V233.316C92.5153 231.426 93.1173 230.082 94.6433 230.082C96.1693 230.082 96.7713 231.426 96.7713 233.316V234.912C96.7713 236.802 96.1693 238.146 94.6433 238.146Z" fill="black"/>
<path d="M134.972 242.8H136.092V232.776H134.972V233.952H134.916C134.538 233.042 133.796 232.608 132.802 232.608C130.996 232.608 129.862 234.078 129.862 236.388C129.862 238.698 130.996 240.168 132.802 240.168C133.796 240.168 134.482 239.72 134.916 238.824H134.972V242.8ZM133.11 239.16C131.85 239.16 131.066 238.292 131.066 237.004V235.772C131.066 234.484 131.85 233.616 133.11 233.616C134.132 233.616 134.972 234.204 134.972 235.002V237.69C134.972 238.628 134.132 239.16 133.11 239.16ZM145.101 240V238.964H142.581V230.228H140.747L138.157 232.65L138.843 233.392L141.307 231.096H141.405V238.964H138.675V240H145.101Z" fill="black"/>
<path d="M87.9722 289.8H89.0922V279.776H87.9722V280.952H87.9162C87.5382 280.042 86.7962 279.608 85.8022 279.608C83.9962 279.608 82.8622 281.078 82.8622 283.388C82.8622 285.698 83.9962 287.168 85.8022 287.168C86.7962 287.168 87.4822 286.72 87.9162 285.824H87.9722V289.8ZM86.1102 286.16C84.8502 286.16 84.0662 285.292 84.0662 284.004V282.772C84.0662 281.484 84.8502 280.616 86.1102 280.616C87.1322 280.616 87.9722 281.204 87.9722 282.002V284.69C87.9722 285.628 87.1322 286.16 86.1102 286.16ZM97.9053 285.964H92.7673L95.3993 283.598C96.6453 282.478 97.5413 281.414 97.5413 279.902C97.5413 278.236 96.4493 277.06 94.5453 277.06C92.6553 277.06 91.7873 278.208 91.4093 279.356L92.4593 279.762C92.7253 278.838 93.2853 278.11 94.4893 278.11C95.6933 278.11 96.2953 278.852 96.2953 279.93V280.098C96.2953 281.036 95.5953 282.016 94.6853 282.856L91.4933 285.796V287H97.9053V285.964Z" fill="white"/>
<path d="M134.972 289.8H136.092V279.776H134.972V280.952H134.916C134.538 280.042 133.796 279.608 132.802 279.608C130.996 279.608 129.862 281.078 129.862 283.388C129.862 285.698 130.996 287.168 132.802 287.168C133.796 287.168 134.482 286.72 134.916 285.824H134.972V289.8ZM133.11 286.16C131.85 286.16 131.066 285.292 131.066 284.004V282.772C131.066 281.484 131.85 280.616 133.11 280.616C134.132 280.616 134.972 281.204 134.972 282.002V284.69C134.972 285.628 134.132 286.16 133.11 286.16ZM140.033 281.372V282.394H141.181C142.553 282.394 143.281 283.052 143.281 284.2V284.312C143.281 285.46 142.553 286.118 141.181 286.118C139.991 286.118 139.417 285.6 138.913 284.83L138.031 285.502C138.633 286.342 139.501 287.168 141.195 287.168C143.183 287.168 144.513 286.006 144.513 284.326C144.513 282.856 143.505 282.072 142.455 281.862V281.806C143.491 281.54 144.331 280.784 144.331 279.524C144.331 277.942 143.015 277.06 141.363 277.06C139.795 277.06 138.941 277.872 138.451 278.656L139.319 279.328C139.725 278.586 140.327 278.11 141.335 278.11C142.371 278.11 143.085 278.628 143.085 279.65V279.748C143.085 280.686 142.413 281.372 141.097 281.372H140.033Z" fill="black"/>
</g>
<g opacity="0.5">
<rect x="56.5" y="342.5" width="47" height="47" fill="#F2F4F8" stroke="#262626"/>
<rect x="103.5" y="342.5" width="47" height="47" fill="#F2F4F8" stroke="#262626"/>
<rect x="103.5" y="389.5" width="47" height="47" fill="#6929C4" stroke="#262626"/>
<rect x="56.5" y="389.5" width="47" height="47" fill="#F2F4F8" stroke="#262626"/>
<path d="M87.9722 384.8H89.0922V374.776H87.9722V375.952H87.9162C87.5382 375.042 86.7962 374.608 85.8022 374.608C83.9962 374.608 82.8622 376.078 82.8622 378.388C82.8622 380.698 83.9962 382.168 85.8022 382.168C86.7962 382.168 87.4822 381.72 87.9162 380.824H87.9722V384.8ZM86.1102 381.16C84.8502 381.16 84.0662 380.292 84.0662 379.004V377.772C84.0662 376.484 84.8502 375.616 86.1102 375.616C87.1322 375.616 87.9722 376.204 87.9722 377.002V379.69C87.9722 380.628 87.1322 381.16 86.1102 381.16ZM94.6433 382.168C96.9813 382.168 98.0033 380.306 98.0033 377.114C98.0033 373.922 96.9813 372.06 94.6433 372.06C92.3053 372.06 91.2833 373.922 91.2833 377.114C91.2833 380.306 92.3053 382.168 94.6433 382.168ZM94.6433 381.146C93.1173 381.146 92.5153 379.802 92.5153 377.912V376.316C92.5153 374.426 93.1173 373.082 94.6433 373.082C96.1693 373.082 96.7713 374.426 96.7713 376.316V377.912C96.7713 379.802 96.1693 381.146 94.6433 381.146Z" fill="black"/>
<path d="M134.972 385.8H136.092V375.776H134.972V376.952H134.916C134.538 376.042 133.796 375.608 132.802 375.608C130.996 375.608 129.862 377.078 129.862 379.388C129.862 381.698 130.996 383.168 132.802 383.168C133.796 383.168 134.482 382.72 134.916 381.824H134.972V385.8ZM133.11 382.16C131.85 382.16 131.066 381.292 131.066 380.004V378.772C131.066 377.484 131.85 376.616 133.11 376.616C134.132 376.616 134.972 377.204 134.972 378.002V380.69C134.972 381.628 134.132 382.16 133.11 382.16ZM145.101 383V381.964H142.581V373.228H140.747L138.157 375.65L138.843 376.392L141.307 374.096H141.405V381.964H138.675V383H145.101Z" fill="black"/>
<path d="M87.9722 432.8H89.0922V422.776H87.9722V423.952H87.9162C87.5382 423.042 86.7962 422.608 85.8022 422.608C83.9962 422.608 82.8622 424.078 82.8622 426.388C82.8622 428.698 83.9962 430.168 85.8022 430.168C86.7962 430.168 87.4822 429.72 87.9162 428.824H87.9722V432.8ZM86.1102 429.16C84.8502 429.16 84.0662 428.292 84.0662 427.004V425.772C84.0662 424.484 84.8502 423.616 86.1102 423.616C87.1322 423.616 87.9722 424.204 87.9722 425.002V427.69C87.9722 428.628 87.1322 429.16 86.1102 429.16ZM97.9053 428.964H92.7673L95.3993 426.598C96.6453 425.478 97.5413 424.414 97.5413 422.902C97.5413 421.236 96.4493 420.06 94.5453 420.06C92.6553 420.06 91.7873 421.208 91.4093 422.356L92.4593 422.762C92.7253 421.838 93.2853 421.11 94.4893 421.11C95.6933 421.11 96.2953 421.852 96.2953 422.93V423.098C96.2953 424.036 95.5953 425.016 94.6853 425.856L91.4933 428.796V430H97.9053V428.964Z" fill="black"/>
<path d="M134.972 432.8H136.092V422.776H134.972V423.952H134.916C134.538 423.042 133.796 422.608 132.802 422.608C130.996 422.608 129.862 424.078 129.862 426.388C129.862 428.698 130.996 430.168 132.802 430.168C133.796 430.168 134.482 429.72 134.916 428.824H134.972V432.8ZM133.11 429.16C131.85 429.16 131.066 428.292 131.066 427.004V425.772C131.066 424.484 131.85 423.616 133.11 423.616C134.132 423.616 134.972 424.204 134.972 425.002V427.69C134.972 428.628 134.132 429.16 133.11 429.16ZM140.033 424.372V425.394H141.181C142.553 425.394 143.281 426.052 143.281 427.2V427.312C143.281 428.46 142.553 429.118 141.181 429.118C139.991 429.118 139.417 428.6 138.913 427.83L138.031 428.502C138.633 429.342 139.501 430.168 141.195 430.168C143.183 430.168 144.513 429.006 144.513 427.326C144.513 425.856 143.505 425.072 142.455 424.862V424.806C143.491 424.54 144.331 423.784 144.331 422.524C144.331 420.942 143.015 420.06 141.363 420.06C139.795 420.06 138.941 420.872 138.451 421.656L139.319 422.328C139.725 421.586 140.327 421.11 141.335 421.11C142.371 421.11 143.085 421.628 143.085 422.65V422.748C143.085 423.686 142.413 424.372 141.097 424.372H140.033Z" fill="white"/>
</g>
<path d="M373.972 384.8H375.092V374.776H373.972V375.952H373.916C373.538 375.042 372.796 374.608 371.802 374.608C369.996 374.608 368.862 376.078 368.862 378.388C368.862 380.698 369.996 382.168 371.802 382.168C372.796 382.168 373.482 381.72 373.916 380.824H373.972V384.8ZM372.11 381.16C370.85 381.16 370.066 380.292 370.066 379.004V377.772C370.066 376.484 370.85 375.616 372.11 375.616C373.132 375.616 373.972 376.204 373.972 377.002V379.69C373.972 380.628 373.132 381.16 372.11 381.16ZM380.643 382.168C382.981 382.168 384.003 380.306 384.003 377.114C384.003 373.922 382.981 372.06 380.643 372.06C378.305 372.06 377.283 373.922 377.283 377.114C377.283 380.306 378.305 382.168 380.643 382.168ZM380.643 381.146C379.117 381.146 378.515 379.802 378.515 377.912V376.316C378.515 374.426 379.117 373.082 380.643 373.082C382.169 373.082 382.771 374.426 382.771 376.316V377.912C382.771 379.802 382.169 381.146 380.643 381.146Z" fill="black"/>
<path d="M420.972 385.8H422.092V375.776H420.972V376.952H420.916C420.538 376.042 419.796 375.608 418.802 375.608C416.996 375.608 415.862 377.078 415.862 379.388C415.862 381.698 416.996 383.168 418.802 383.168C419.796 383.168 420.482 382.72 420.916 381.824H420.972V385.8ZM419.11 382.16C417.85 382.16 417.066 381.292 417.066 380.004V378.772C417.066 377.484 417.85 376.616 419.11 376.616C420.132 376.616 420.972 377.204 420.972 378.002V380.69C420.972 381.628 420.132 382.16 419.11 382.16ZM431.101 383V381.964H428.581V373.228H426.747L424.157 375.65L424.843 376.392L427.307 374.096H427.405V381.964H424.675V383H431.101Z" fill="white"/>
<path d="M373.972 432.8H375.092V422.776H373.972V423.952H373.916C373.538 423.042 372.796 422.608 371.802 422.608C369.996 422.608 368.862 424.078 368.862 426.388C368.862 428.698 369.996 430.168 371.802 430.168C372.796 430.168 373.482 429.72 373.916 428.824H373.972V432.8ZM372.11 429.16C370.85 429.16 370.066 428.292 370.066 427.004V425.772C370.066 424.484 370.85 423.616 372.11 423.616C373.132 423.616 373.972 424.204 373.972 425.002V427.69C373.972 428.628 373.132 429.16 372.11 429.16ZM383.905 428.964H378.767L381.399 426.598C382.645 425.478 383.541 424.414 383.541 422.902C383.541 421.236 382.449 420.06 380.545 420.06C378.655 420.06 377.787 421.208 377.409 422.356L378.459 422.762C378.725 421.838 379.285 421.11 380.489 421.11C381.693 421.11 382.295 421.852 382.295 422.93V423.098C382.295 424.036 381.595 425.016 380.685 425.856L377.493 428.796V430H383.905V428.964Z" fill="black"/>
<path d="M420.972 432.8H422.092V422.776H420.972V423.952H420.916C420.538 423.042 419.796 422.608 418.802 422.608C416.996 422.608 415.862 424.078 415.862 426.388C415.862 428.698 416.996 430.168 418.802 430.168C419.796 430.168 420.482 429.72 420.916 428.824H420.972V432.8ZM419.11 429.16C417.85 429.16 417.066 428.292 417.066 427.004V425.772C417.066 424.484 417.85 423.616 419.11 423.616C420.132 423.616 420.972 424.204 420.972 425.002V427.69C420.972 428.628 420.132 429.16 419.11 429.16ZM426.033 424.372V425.394H427.181C428.553 425.394 429.281 426.052 429.281 427.2V427.312C429.281 428.46 428.553 429.118 427.181 429.118C425.991 429.118 425.417 428.6 424.913 427.83L424.031 428.502C424.633 429.342 425.501 430.168 427.195 430.168C429.183 430.168 430.513 429.006 430.513 427.326C430.513 425.856 429.505 425.072 428.455 424.862V424.806C429.491 424.54 430.331 423.784 430.331 422.524C430.331 420.942 429.015 420.06 427.363 420.06C425.795 420.06 424.941 420.872 424.451 421.656L425.319 422.328C425.725 421.586 426.327 421.11 427.335 421.11C428.371 421.11 429.085 421.628 429.085 422.65V422.748C429.085 423.686 428.413 424.372 427.097 424.372H426.033Z" fill="white"/>
<g opacity="0.5">
<rect x="485.5" y="342.5" width="47" height="47" fill="#6929C4" stroke="#262626"/>
<rect x="532.5" y="342.5" width="47" height="47" fill="#6929C4" stroke="#262626"/>
<rect x="532.5" y="389.5" width="47" height="47" fill="#6929C4" stroke="#262626"/>
<rect x="485.5" y="389.5" width="47" height="47" fill="#F2F4F8" stroke="#262626"/>
<path d="M516.972 384.8H518.092V374.776H516.972V375.952H516.916C516.538 375.042 515.796 374.608 514.802 374.608C512.996 374.608 511.862 376.078 511.862 378.388C511.862 380.698 512.996 382.168 514.802 382.168C515.796 382.168 516.482 381.72 516.916 380.824H516.972V384.8ZM515.11 381.16C513.85 381.16 513.066 380.292 513.066 379.004V377.772C513.066 376.484 513.85 375.616 515.11 375.616C516.132 375.616 516.972 376.204 516.972 377.002V379.69C516.972 380.628 516.132 381.16 515.11 381.16ZM523.643 382.168C525.981 382.168 527.003 380.306 527.003 377.114C527.003 373.922 525.981 372.06 523.643 372.06C521.305 372.06 520.283 373.922 520.283 377.114C520.283 380.306 521.305 382.168 523.643 382.168ZM523.643 381.146C522.117 381.146 521.515 379.802 521.515 377.912V376.316C521.515 374.426 522.117 373.082 523.643 373.082C525.169 373.082 525.771 374.426 525.771 376.316V377.912C525.771 379.802 525.169 381.146 523.643 381.146Z" fill="white"/>
<path d="M563.972 385.8H565.092V375.776H563.972V376.952H563.916C563.538 376.042 562.796 375.608 561.802 375.608C559.996 375.608 558.862 377.078 558.862 379.388C558.862 381.698 559.996 383.168 561.802 383.168C562.796 383.168 563.482 382.72 563.916 381.824H563.972V385.8ZM562.11 382.16C560.85 382.16 560.066 381.292 560.066 380.004V378.772C560.066 377.484 560.85 376.616 562.11 376.616C563.132 376.616 563.972 377.204 563.972 378.002V380.69C563.972 381.628 563.132 382.16 562.11 382.16ZM574.101 383V381.964H571.581V373.228H569.747L567.157 375.65L567.843 376.392L570.307 374.096H570.405V381.964H567.675V383H574.101Z" fill="white"/>
<path d="M516.972 432.8H518.092V422.776H516.972V423.952H516.916C516.538 423.042 515.796 422.608 514.802 422.608C512.996 422.608 511.862 424.078 511.862 426.388C511.862 428.698 512.996 430.168 514.802 430.168C515.796 430.168 516.482 429.72 516.916 428.824H516.972V432.8ZM515.11 429.16C513.85 429.16 513.066 428.292 513.066 427.004V425.772C513.066 424.484 513.85 423.616 515.11 423.616C516.132 423.616 516.972 424.204 516.972 425.002V427.69C516.972 428.628 516.132 429.16 515.11 429.16ZM526.905 428.964H521.767L524.399 426.598C525.645 425.478 526.541 424.414 526.541 422.902C526.541 421.236 525.449 420.06 523.545 420.06C521.655 420.06 520.787 421.208 520.409 422.356L521.459 422.762C521.725 421.838 522.285 421.11 523.489 421.11C524.693 421.11 525.295 421.852 525.295 422.93V423.098C525.295 424.036 524.595 425.016 523.685 425.856L520.493 428.796V430H526.905V428.964Z" fill="black"/>
<path d="M563.972 432.8H565.092V422.776H563.972V423.952H563.916C563.538 423.042 562.796 422.608 561.802 422.608C559.996 422.608 558.862 424.078 558.862 426.388C558.862 428.698 559.996 430.168 561.802 430.168C562.796 430.168 563.482 429.72 563.916 428.824H563.972V432.8ZM562.11 429.16C560.85 429.16 560.066 428.292 560.066 427.004V425.772C560.066 424.484 560.85 423.616 562.11 423.616C563.132 423.616 563.972 424.204 563.972 425.002V427.69C563.972 428.628 563.132 429.16 562.11 429.16ZM569.033 424.372V425.394H570.181C571.553 425.394 572.281 426.052 572.281 427.2V427.312C572.281 428.46 571.553 429.118 570.181 429.118C568.991 429.118 568.417 428.6 567.913 427.83L567.031 428.502C567.633 429.342 568.501 430.168 570.195 430.168C572.183 430.168 573.513 429.006 573.513 427.326C573.513 425.856 572.505 425.072 571.455 424.862V424.806C572.491 424.54 573.331 423.784 573.331 422.524C573.331 420.942 572.015 420.06 570.363 420.06C568.795 420.06 567.941 420.872 567.451 421.656L568.319 422.328C568.725 421.586 569.327 421.11 570.335 421.11C571.371 421.11 572.085 421.628 572.085 422.65V422.748C572.085 423.686 571.413 424.372 570.097 424.372H569.033Z" fill="white"/>
</g>
<path d="M516.972 527.8H518.092V517.776H516.972V518.952H516.916C516.538 518.042 515.796 517.608 514.802 517.608C512.996 517.608 511.862 519.078 511.862 521.388C511.862 523.698 512.996 525.168 514.802 525.168C515.796 525.168 516.482 524.72 516.916 523.824H516.972V527.8ZM515.11 524.16C513.85 524.16 513.066 523.292 513.066 522.004V520.772C513.066 519.484 513.85 518.616 515.11 518.616C516.132 518.616 516.972 519.204 516.972 520.002V522.69C516.972 523.628 516.132 524.16 515.11 524.16ZM523.643 525.168C525.981 525.168 527.003 523.306 527.003 520.114C527.003 516.922 525.981 515.06 523.643 515.06C521.305 515.06 520.283 516.922 520.283 520.114C520.283 523.306 521.305 525.168 523.643 525.168ZM523.643 524.146C522.117 524.146 521.515 522.802 521.515 520.912V519.316C521.515 517.426 522.117 516.082 523.643 516.082C525.169 516.082 525.771 517.426 525.771 519.316V520.912C525.771 522.802 525.169 524.146 523.643 524.146Z" fill="white"/>
<path d="M563.972 528.8H565.092V518.776H563.972V519.952H563.916C563.538 519.042 562.796 518.608 561.802 518.608C559.996 518.608 558.862 520.078 558.862 522.388C558.862 524.698 559.996 526.168 561.802 526.168C562.796 526.168 563.482 525.72 563.916 524.824H563.972V528.8ZM562.11 525.16C560.85 525.16 560.066 524.292 560.066 523.004V521.772C560.066 520.484 560.85 519.616 562.11 519.616C563.132 519.616 563.972 520.204 563.972 521.002V523.69C563.972 524.628 563.132 525.16 562.11 525.16ZM574.101 526V524.964H571.581V516.228H569.747L567.157 518.65L567.843 519.392L570.307 517.096H570.405V524.964H567.675V526H574.101Z" fill="white"/>
<path d="M516.972 575.8H518.092V565.776H516.972V566.952H516.916C516.538 566.042 515.796 565.608 514.802 565.608C512.996 565.608 511.862 567.078 511.862 569.388C511.862 571.698 512.996 573.168 514.802 573.168C515.796 573.168 516.482 572.72 516.916 571.824H516.972V575.8ZM515.11 572.16C513.85 572.16 513.066 571.292 513.066 570.004V568.772C513.066 567.484 513.85 566.616 515.11 566.616C516.132 566.616 516.972 567.204 516.972 568.002V570.69C516.972 571.628 516.132 572.16 515.11 572.16ZM526.905 571.964H521.767L524.399 569.598C525.645 568.478 526.541 567.414 526.541 565.902C526.541 564.236 525.449 563.06 523.545 563.06C521.655 563.06 520.787 564.208 520.409 565.356L521.459 565.762C521.725 564.838 522.285 564.11 523.489 564.11C524.693 564.11 525.295 564.852 525.295 565.93V566.098C525.295 567.036 524.595 568.016 523.685 568.856L520.493 571.796V573H526.905V571.964Z" fill="white"/>
<path d="M563.972 575.8H565.092V565.776H563.972V566.952H563.916C563.538 566.042 562.796 565.608 561.802 565.608C559.996 565.608 558.862 567.078 558.862 569.388C558.862 571.698 559.996 573.168 561.802 573.168C562.796 573.168 563.482 572.72 563.916 571.824H563.972V575.8ZM562.11 572.16C560.85 572.16 560.066 571.292 560.066 570.004V568.772C560.066 567.484 560.85 566.616 562.11 566.616C563.132 566.616 563.972 567.204 563.972 568.002V570.69C563.972 571.628 563.132 572.16 562.11 572.16ZM569.033 567.372V568.394H570.181C571.553 568.394 572.281 569.052 572.281 570.2V570.312C572.281 571.46 571.553 572.118 570.181 572.118C568.991 572.118 568.417 571.6 567.913 570.83L567.031 571.502C567.633 572.342 568.501 573.168 570.195 573.168C572.183 573.168 573.513 572.006 573.513 570.326C573.513 568.856 572.505 568.072 571.455 567.862V567.806C572.491 567.54 573.331 566.784 573.331 565.524C573.331 563.942 572.015 563.06 570.363 563.06C568.795 563.06 567.941 563.872 567.451 564.656L568.319 565.328C568.725 564.586 569.327 564.11 570.335 564.11C571.371 564.11 572.085 564.628 572.085 565.65V565.748C572.085 566.686 571.413 567.372 570.097 567.372H569.033Z" fill="white"/>
<g opacity="0.5">
<rect x="342.5" y="485.5" width="47" height="47" fill="#6929C4" stroke="#262626"/>
<rect x="389.5" y="485.5" width="47" height="47" fill="#6929C4" stroke="#262626"/>
<rect x="389.5" y="532.5" width="47" height="47" fill="#6929C4" stroke="#262626"/>
<rect x="342.5" y="532.5" width="47" height="47" fill="#F2F4F8" stroke="#262626"/>
<path d="M373.972 527.8H375.092V517.776H373.972V518.952H373.916C373.538 518.042 372.796 517.608 371.802 517.608C369.996 517.608 368.862 519.078 368.862 521.388C368.862 523.698 369.996 525.168 371.802 525.168C372.796 525.168 373.482 524.72 373.916 523.824H373.972V527.8ZM372.11 524.16C370.85 524.16 370.066 523.292 370.066 522.004V520.772C370.066 519.484 370.85 518.616 372.11 518.616C373.132 518.616 373.972 519.204 373.972 520.002V522.69C373.972 523.628 373.132 524.16 372.11 524.16ZM380.643 525.168C382.981 525.168 384.003 523.306 384.003 520.114C384.003 516.922 382.981 515.06 380.643 515.06C378.305 515.06 377.283 516.922 377.283 520.114C377.283 523.306 378.305 525.168 380.643 525.168ZM380.643 524.146C379.117 524.146 378.515 522.802 378.515 520.912V519.316C378.515 517.426 379.117 516.082 380.643 516.082C382.169 516.082 382.771 517.426 382.771 519.316V520.912C382.771 522.802 382.169 524.146 380.643 524.146Z" fill="white"/>
<path d="M420.972 528.8H422.092V518.776H420.972V519.952H420.916C420.538 519.042 419.796 518.608 418.802 518.608C416.996 518.608 415.862 520.078 415.862 522.388C415.862 524.698 416.996 526.168 418.802 526.168C419.796 526.168 420.482 525.72 420.916 524.824H420.972V528.8ZM419.11 525.16C417.85 525.16 417.066 524.292 417.066 523.004V521.772C417.066 520.484 417.85 519.616 419.11 519.616C420.132 519.616 420.972 520.204 420.972 521.002V523.69C420.972 524.628 420.132 525.16 419.11 525.16ZM431.101 526V524.964H428.581V516.228H426.747L424.157 518.65L424.843 519.392L427.307 517.096H427.405V524.964H424.675V526H431.101Z" fill="white"/>
<path d="M373.972 575.8H375.092V565.776H373.972V566.952H373.916C373.538 566.042 372.796 565.608 371.802 565.608C369.996 565.608 368.862 567.078 368.862 569.388C368.862 571.698 369.996 573.168 371.802 573.168C372.796 573.168 373.482 572.72 373.916 571.824H373.972V575.8ZM372.11 572.16C370.85 572.16 370.066 571.292 370.066 570.004V568.772C370.066 567.484 370.85 566.616 372.11 566.616C373.132 566.616 373.972 567.204 373.972 568.002V570.69C373.972 571.628 373.132 572.16 372.11 572.16ZM383.905 571.964H378.767L381.399 569.598C382.645 568.478 383.541 567.414 383.541 565.902C383.541 564.236 382.449 563.06 380.545 563.06C378.655 563.06 377.787 564.208 377.409 565.356L378.459 565.762C378.725 564.838 379.285 564.11 380.489 564.11C381.693 564.11 382.295 564.852 382.295 565.93V566.098C382.295 567.036 381.595 568.016 380.685 568.856L377.493 571.796V573H383.905V571.964Z" fill="black"/>
<path d="M420.972 575.8H422.092V565.776H420.972V566.952H420.916C420.538 566.042 419.796 565.608 418.802 565.608C416.996 565.608 415.862 567.078 415.862 569.388C415.862 571.698 416.996 573.168 418.802 573.168C419.796 573.168 420.482 572.72 420.916 571.824H420.972V575.8ZM419.11 572.16C417.85 572.16 417.066 571.292 417.066 570.004V568.772C417.066 567.484 417.85 566.616 419.11 566.616C420.132 566.616 420.972 567.204 420.972 568.002V570.69C420.972 571.628 420.132 572.16 419.11 572.16ZM426.033 567.372V568.394H427.181C428.553 568.394 429.281 569.052 429.281 570.2V570.312C429.281 571.46 428.553 572.118 427.181 572.118C425.991 572.118 425.417 571.6 424.913 570.83L424.031 571.502C424.633 572.342 425.501 573.168 427.195 573.168C429.183 573.168 430.513 572.006 430.513 570.326C430.513 568.856 429.505 568.072 428.455 567.862V567.806C429.491 567.54 430.331 566.784 430.331 565.524C430.331 563.942 429.015 563.06 427.363 563.06C425.795 563.06 424.941 563.872 424.451 564.656L425.319 565.328C425.725 564.586 426.327 564.11 427.335 564.11C428.371 564.11 429.085 564.628 429.085 565.65V565.748C429.085 566.686 428.413 567.372 427.097 567.372H426.033Z" fill="white"/>
</g>
<g opacity="0.5">
<rect x="199.5" y="485.5" width="47" height="47" fill="#6929C4" stroke="#262626"/>
<rect x="246.5" y="485.5" width="47" height="47" fill="#F2F4F8" stroke="#262626"/>
<rect x="246.5" y="532.5" width="47" height="47" fill="#6929C4" stroke="#262626"/>
<rect x="199.5" y="532.5" width="47" height="47" fill="#6929C4" stroke="#262626"/>
<path d="M230.972 527.8H232.092V517.776H230.972V518.952H230.916C230.538 518.042 229.796 517.608 228.802 517.608C226.996 517.608 225.862 519.078 225.862 521.388C225.862 523.698 226.996 525.168 228.802 525.168C229.796 525.168 230.482 524.72 230.916 523.824H230.972V527.8ZM229.11 524.16C227.85 524.16 227.066 523.292 227.066 522.004V520.772C227.066 519.484 227.85 518.616 229.11 518.616C230.132 518.616 230.972 519.204 230.972 520.002V522.69C230.972 523.628 230.132 524.16 229.11 524.16ZM237.643 525.168C239.981 525.168 241.003 523.306 241.003 520.114C241.003 516.922 239.981 515.06 237.643 515.06C235.305 515.06 234.283 516.922 234.283 520.114C234.283 523.306 235.305 525.168 237.643 525.168ZM237.643 524.146C236.117 524.146 235.515 522.802 235.515 520.912V519.316C235.515 517.426 236.117 516.082 237.643 516.082C239.169 516.082 239.771 517.426 239.771 519.316V520.912C239.771 522.802 239.169 524.146 237.643 524.146Z" fill="white"/>
<path d="M277.972 528.8H279.092V518.776H277.972V519.952H277.916C277.538 519.042 276.796 518.608 275.802 518.608C273.996 518.608 272.862 520.078 272.862 522.388C272.862 524.698 273.996 526.168 275.802 526.168C276.796 526.168 277.482 525.72 277.916 524.824H277.972V528.8ZM276.11 525.16C274.85 525.16 274.066 524.292 274.066 523.004V521.772C274.066 520.484 274.85 519.616 276.11 519.616C277.132 519.616 277.972 520.204 277.972 521.002V523.69C277.972 524.628 277.132 525.16 276.11 525.16ZM288.101 526V524.964H285.581V516.228H283.747L281.157 518.65L281.843 519.392L284.307 517.096H284.405V524.964H281.675V526H288.101Z" fill="black"/>
<path d="M230.972 575.8H232.092V565.776H230.972V566.952H230.916C230.538 566.042 229.796 565.608 228.802 565.608C226.996 565.608 225.862 567.078 225.862 569.388C225.862 571.698 226.996 573.168 228.802 573.168C229.796 573.168 230.482 572.72 230.916 571.824H230.972V575.8ZM229.11 572.16C227.85 572.16 227.066 571.292 227.066 570.004V568.772C227.066 567.484 227.85 566.616 229.11 566.616C230.132 566.616 230.972 567.204 230.972 568.002V570.69C230.972 571.628 230.132 572.16 229.11 572.16ZM240.905 571.964H235.767L238.399 569.598C239.645 568.478 240.541 567.414 240.541 565.902C240.541 564.236 239.449 563.06 237.545 563.06C235.655 563.06 234.787 564.208 234.409 565.356L235.459 565.762C235.725 564.838 236.285 564.11 237.489 564.11C238.693 564.11 239.295 564.852 239.295 565.93V566.098C239.295 567.036 238.595 568.016 237.685 568.856L234.493 571.796V573H240.905V571.964Z" fill="white"/>
<path d="M277.972 575.8H279.092V565.776H277.972V566.952H277.916C277.538 566.042 276.796 565.608 275.802 565.608C273.996 565.608 272.862 567.078 272.862 569.388C272.862 571.698 273.996 573.168 275.802 573.168C276.796 573.168 277.482 572.72 277.916 571.824H277.972V575.8ZM276.11 572.16C274.85 572.16 274.066 571.292 274.066 570.004V568.772C274.066 567.484 274.85 566.616 276.11 566.616C277.132 566.616 277.972 567.204 277.972 568.002V570.69C277.972 571.628 277.132 572.16 276.11 572.16ZM283.033 567.372V568.394H284.181C285.553 568.394 286.281 569.052 286.281 570.2V570.312C286.281 571.46 285.553 572.118 284.181 572.118C282.991 572.118 282.417 571.6 281.913 570.83L281.031 571.502C281.633 572.342 282.501 573.168 284.195 573.168C286.183 573.168 287.513 572.006 287.513 570.326C287.513 568.856 286.505 568.072 285.455 567.862V567.806C286.491 567.54 287.331 566.784 287.331 565.524C287.331 563.942 286.015 563.06 284.363 563.06C282.795 563.06 281.941 563.872 281.451 564.656L282.319 565.328C282.725 564.586 283.327 564.11 284.335 564.11C285.371 564.11 286.085 564.628 286.085 565.65V565.748C286.085 566.686 285.413 567.372 284.097 567.372H283.033Z" fill="white"/>
</g>
<g opacity="0.5">
<rect x="199.5" y="342.5" width="47" height="47" fill="#6929C4" stroke="#262626"/>
<rect x="246.5" y="342.5" width="47" height="47" fill="#F2F4F8" stroke="#262626"/>
<rect x="246.5" y="389.5" width="47" height="47" fill="#6929C4" stroke="#262626"/>
<rect x="199.5" y="389.5" width="47" height="47" fill="#F2F4F8" stroke="#262626"/>
<path d="M230.972 384.8H232.092V374.776H230.972V375.952H230.916C230.538 375.042 229.796 374.608 228.802 374.608C226.996 374.608 225.862 376.078 225.862 378.388C225.862 380.698 226.996 382.168 228.802 382.168C229.796 382.168 230.482 381.72 230.916 380.824H230.972V384.8ZM229.11 381.16C227.85 381.16 227.066 380.292 227.066 379.004V377.772C227.066 376.484 227.85 375.616 229.11 375.616C230.132 375.616 230.972 376.204 230.972 377.002V379.69C230.972 380.628 230.132 381.16 229.11 381.16ZM237.643 382.168C239.981 382.168 241.003 380.306 241.003 377.114C241.003 373.922 239.981 372.06 237.643 372.06C235.305 372.06 234.283 373.922 234.283 377.114C234.283 380.306 235.305 382.168 237.643 382.168ZM237.643 381.146C236.117 381.146 235.515 379.802 235.515 377.912V376.316C235.515 374.426 236.117 373.082 237.643 373.082C239.169 373.082 239.771 374.426 239.771 376.316V377.912C239.771 379.802 239.169 381.146 237.643 381.146Z" fill="white"/>
<path d="M277.972 385.8H279.092V375.776H277.972V376.952H277.916C277.538 376.042 276.796 375.608 275.802 375.608C273.996 375.608 272.862 377.078 272.862 379.388C272.862 381.698 273.996 383.168 275.802 383.168C276.796 383.168 277.482 382.72 277.916 381.824H277.972V385.8ZM276.11 382.16C274.85 382.16 274.066 381.292 274.066 380.004V378.772C274.066 377.484 274.85 376.616 276.11 376.616C277.132 376.616 277.972 377.204 277.972 378.002V380.69C277.972 381.628 277.132 382.16 276.11 382.16ZM288.101 383V381.964H285.581V373.228H283.747L281.157 375.65L281.843 376.392L284.307 374.096H284.405V381.964H281.675V383H288.101Z" fill="black"/>
<path d="M230.972 432.8H232.092V422.776H230.972V423.952H230.916C230.538 423.042 229.796 422.608 228.802 422.608C226.996 422.608 225.862 424.078 225.862 426.388C225.862 428.698 226.996 430.168 228.802 430.168C229.796 430.168 230.482 429.72 230.916 428.824H230.972V432.8ZM229.11 429.16C227.85 429.16 227.066 428.292 227.066 427.004V425.772C227.066 424.484 227.85 423.616 229.11 423.616C230.132 423.616 230.972 424.204 230.972 425.002V427.69C230.972 428.628 230.132 429.16 229.11 429.16ZM240.905 428.964H235.767L238.399 426.598C239.645 425.478 240.541 424.414 240.541 422.902C240.541 421.236 239.449 420.06 237.545 420.06C235.655 420.06 234.787 421.208 234.409 422.356L235.459 422.762C235.725 421.838 236.285 421.11 237.489 421.11C238.693 421.11 239.295 421.852 239.295 422.93V423.098C239.295 424.036 238.595 425.016 237.685 425.856L234.493 428.796V430H240.905V428.964Z" fill="black"/>
<path d="M277.972 432.8H279.092V422.776H277.972V423.952H277.916C277.538 423.042 276.796 422.608 275.802 422.608C273.996 422.608 272.862 424.078 272.862 426.388C272.862 428.698 273.996 430.168 275.802 430.168C276.796 430.168 277.482 429.72 277.916 428.824H277.972V432.8ZM276.11 429.16C274.85 429.16 274.066 428.292 274.066 427.004V425.772C274.066 424.484 274.85 423.616 276.11 423.616C277.132 423.616 277.972 424.204 277.972 425.002V427.69C277.972 428.628 277.132 429.16 276.11 429.16ZM283.033 424.372V425.394H284.181C285.553 425.394 286.281 426.052 286.281 427.2V427.312C286.281 428.46 285.553 429.118 284.181 429.118C282.991 429.118 282.417 428.6 281.913 427.83L281.031 428.502C281.633 429.342 282.501 430.168 284.195 430.168C286.183 430.168 287.513 429.006 287.513 427.326C287.513 425.856 286.505 425.072 285.455 424.862V424.806C286.491 424.54 287.331 423.784 287.331 422.524C287.331 420.942 286.015 420.06 284.363 420.06C282.795 420.06 281.941 420.872 281.451 421.656L282.319 422.328C282.725 421.586 283.327 421.11 284.335 421.11C285.371 421.11 286.085 421.628 286.085 422.65V422.748C286.085 423.686 285.413 424.372 284.097 424.372H283.033Z" fill="white"/>
</g>
<path d="M87.9722 527.8H89.0922V517.776H87.9722V518.952H87.9162C87.5382 518.042 86.7962 517.608 85.8022 517.608C83.9962 517.608 82.8622 519.078 82.8622 521.388C82.8622 523.698 83.9962 525.168 85.8022 525.168C86.7962 525.168 87.4822 524.72 87.9162 523.824H87.9722V527.8ZM86.1102 524.16C84.8502 524.16 84.0662 523.292 84.0662 522.004V520.772C84.0662 519.484 84.8502 518.616 86.1102 518.616C87.1322 518.616 87.9722 519.204 87.9722 520.002V522.69C87.9722 523.628 87.1322 524.16 86.1102 524.16ZM94.6433 525.168C96.9813 525.168 98.0033 523.306 98.0033 520.114C98.0033 516.922 96.9813 515.06 94.6433 515.06C92.3053 515.06 91.2833 516.922 91.2833 520.114C91.2833 523.306 92.3053 525.168 94.6433 525.168ZM94.6433 524.146C93.1173 524.146 92.5153 522.802 92.5153 520.912V519.316C92.5153 517.426 93.1173 516.082 94.6433 516.082C96.1693 516.082 96.7713 517.426 96.7713 519.316V520.912C96.7713 522.802 96.1693 524.146 94.6433 524.146Z" fill="black"/>
<path d="M134.972 528.8H136.092V518.776H134.972V519.952H134.916C134.538 519.042 133.796 518.608 132.802 518.608C130.996 518.608 129.862 520.078 129.862 522.388C129.862 524.698 130.996 526.168 132.802 526.168C133.796 526.168 134.482 525.72 134.916 524.824H134.972V528.8ZM133.11 525.16C131.85 525.16 131.066 524.292 131.066 523.004V521.772C131.066 520.484 131.85 519.616 133.11 519.616C134.132 519.616 134.972 520.204 134.972 521.002V523.69C134.972 524.628 134.132 525.16 133.11 525.16ZM145.101 526V524.964H142.581V516.228H140.747L138.157 518.65L138.843 519.392L141.307 517.096H141.405V524.964H138.675V526H145.101Z" fill="black"/>
<path d="M87.9722 575.8H89.0922V565.776H87.9722V566.952H87.9162C87.5382 566.042 86.7962 565.608 85.8022 565.608C83.9962 565.608 82.8622 567.078 82.8622 569.388C82.8622 571.698 83.9962 573.168 85.8022 573.168C86.7962 573.168 87.4822 572.72 87.9162 571.824H87.9722V575.8ZM86.1102 572.16C84.8502 572.16 84.0662 571.292 84.0662 570.004V568.772C84.0662 567.484 84.8502 566.616 86.1102 566.616C87.1322 566.616 87.9722 567.204 87.9722 568.002V570.69C87.9722 571.628 87.1322 572.16 86.1102 572.16ZM97.9053 571.964H92.7673L95.3993 569.598C96.6453 568.478 97.5413 567.414 97.5413 565.902C97.5413 564.236 96.4493 563.06 94.5453 563.06C92.6553 563.06 91.7873 564.208 91.4093 565.356L92.4593 565.762C92.7253 564.838 93.2853 564.11 94.4893 564.11C95.6933 564.11 96.2953 564.852 96.2953 565.93V566.098C96.2953 567.036 95.5953 568.016 94.6853 568.856L91.4933 571.796V573H97.9053V571.964Z" fill="white"/>
<path d="M134.972 575.8H136.092V565.776H134.972V566.952H134.916C134.538 566.042 133.796 565.608 132.802 565.608C130.996 565.608 129.862 567.078 129.862 569.388C129.862 571.698 130.996 573.168 132.802 573.168C133.796 573.168 134.482 572.72 134.916 571.824H134.972V575.8ZM133.11 572.16C131.85 572.16 131.066 571.292 131.066 570.004V568.772C131.066 567.484 131.85 566.616 133.11 566.616C134.132 566.616 134.972 567.204 134.972 568.002V570.69C134.972 571.628 134.132 572.16 133.11 572.16ZM140.033 567.372V568.394H141.181C142.553 568.394 143.281 569.052 143.281 570.2V570.312C143.281 571.46 142.553 572.118 141.181 572.118C139.991 572.118 139.417 571.6 138.913 570.83L138.031 571.502C138.633 572.342 139.501 573.168 141.195 573.168C143.183 573.168 144.513 572.006 144.513 570.326C144.513 568.856 143.505 568.072 142.455 567.862V567.806C143.491 567.54 144.331 566.784 144.331 565.524C144.331 563.942 143.015 563.06 141.363 563.06C139.795 563.06 138.941 563.872 138.451 564.656L139.319 565.328C139.725 564.586 140.327 564.11 141.335 564.11C142.371 564.11 143.085 564.628 143.085 565.65V565.748C143.085 566.686 142.413 567.372 141.097 567.372H140.033Z" fill="white"/>
<rect x="33.5" y="34.5" width="139" height="139" rx="4.5" stroke="black" stroke-dasharray="6 6"/>
<rect x="177.5" y="177.5" width="139" height="139" rx="4.5" stroke="black" stroke-dasharray="6 6"/>
<rect x="320.5" y="320.5" width="139" height="139" rx="4.5" stroke="black" stroke-dasharray="6 6"/>
<rect x="462.5" y="463.5" width="139" height="139" rx="4.5" stroke="black" stroke-dasharray="6 6"/>
<rect x="462.5" y="34.5" width="139" height="139" rx="4.5" stroke="black" stroke-dasharray="6 6"/>
<rect x="33.5" y="463.5" width="139" height="139" rx="4.5" stroke="black" stroke-dasharray="6 6"/>
</g>
<defs>
<clipPath id="clip0_1066_18753">
<rect width="636" height="636" fill="white"/>
</clipPath>
</defs>
</svg>
