<svg width="521" height="345" viewBox="0 0 521 345" fill="none" xmlns="http://www.w3.org/2000/svg">
<rect x="0.5" y="0.5" width="47" height="47" fill="#F2F4F8" stroke="#262626"/>
<rect x="47.5" y="0.5" width="47" height="47" fill="#F2F4F8" stroke="#262626"/>
<rect x="47.5" y="47.5" width="47" height="47" fill="#F2F4F8" stroke="#262626"/>
<rect x="0.5" y="47.5" width="47" height="47" fill="#F2F4F8" stroke="#262626"/>
<path d="M31.9722 42.8H33.0922V32.776H31.9722V33.952H31.9162C31.5382 33.042 30.7962 32.608 29.8022 32.608C27.9962 32.608 26.8622 34.078 26.8622 36.388C26.8622 38.698 27.9962 40.168 29.8022 40.168C30.7962 40.168 31.4822 39.72 31.9162 38.824H31.9722V42.8ZM30.1102 39.16C28.8502 39.16 28.0662 38.292 28.0662 37.004V35.772C28.0662 34.484 28.8502 33.616 30.1102 33.616C31.1322 33.616 31.9722 34.204 31.9722 35.002V37.69C31.9722 38.628 31.1322 39.16 30.1102 39.16ZM38.6433 40.168C40.9813 40.168 42.0033 38.306 42.0033 35.114C42.0033 31.922 40.9813 30.06 38.6433 30.06C36.3053 30.06 35.2833 31.922 35.2833 35.114C35.2833 38.306 36.3053 40.168 38.6433 40.168ZM38.6433 39.146C37.1173 39.146 36.5153 37.802 36.5153 35.912V34.316C36.5153 32.426 37.1173 31.082 38.6433 31.082C40.1693 31.082 40.7713 32.426 40.7713 34.316V35.912C40.7713 37.802 40.1693 39.146 38.6433 39.146Z" fill="black"/>
<path d="M78.9722 43.8H80.0922V33.776H78.9722V34.952H78.9162C78.5382 34.042 77.7962 33.608 76.8022 33.608C74.9962 33.608 73.8622 35.078 73.8622 37.388C73.8622 39.698 74.9962 41.168 76.8022 41.168C77.7962 41.168 78.4822 40.72 78.9162 39.824H78.9722V43.8ZM77.1102 40.16C75.8502 40.16 75.0662 39.292 75.0662 38.004V36.772C75.0662 35.484 75.8502 34.616 77.1102 34.616C78.1322 34.616 78.9722 35.204 78.9722 36.002V38.69C78.9722 39.628 78.1322 40.16 77.1102 40.16ZM89.1013 41V39.964H86.5813V31.228H84.7473L82.1573 33.65L82.8433 34.392L85.3073 32.096H85.4053V39.964H82.6753V41H89.1013Z" fill="black"/>
<path d="M31.9722 90.8H33.0922V80.776H31.9722V81.952H31.9162C31.5382 81.042 30.7962 80.608 29.8022 80.608C27.9962 80.608 26.8622 82.078 26.8622 84.388C26.8622 86.698 27.9962 88.168 29.8022 88.168C30.7962 88.168 31.4822 87.72 31.9162 86.824H31.9722V90.8ZM30.1102 87.16C28.8502 87.16 28.0662 86.292 28.0662 85.004V83.772C28.0662 82.484 28.8502 81.616 30.1102 81.616C31.1322 81.616 31.9722 82.204 31.9722 83.002V85.69C31.9722 86.628 31.1322 87.16 30.1102 87.16ZM41.9053 86.964H36.7673L39.3993 84.598C40.6453 83.478 41.5413 82.414 41.5413 80.902C41.5413 79.236 40.4493 78.06 38.5453 78.06C36.6553 78.06 35.7873 79.208 35.4093 80.356L36.4593 80.762C36.7253 79.838 37.2853 79.11 38.4893 79.11C39.6933 79.11 40.2953 79.852 40.2953 80.93V81.098C40.2953 82.036 39.5953 83.016 38.6853 83.856L35.4933 86.796V88H41.9053V86.964Z" fill="black"/>
<path d="M78.9722 90.8H80.0922V80.776H78.9722V81.952H78.9162C78.5382 81.042 77.7962 80.608 76.8022 80.608C74.9962 80.608 73.8622 82.078 73.8622 84.388C73.8622 86.698 74.9962 88.168 76.8022 88.168C77.7962 88.168 78.4822 87.72 78.9162 86.824H78.9722V90.8ZM77.1102 87.16C75.8502 87.16 75.0662 86.292 75.0662 85.004V83.772C75.0662 82.484 75.8502 81.616 77.1102 81.616C78.1322 81.616 78.9722 82.204 78.9722 83.002V85.69C78.9722 86.628 78.1322 87.16 77.1102 87.16ZM84.0333 82.372V83.394H85.1813C86.5533 83.394 87.2813 84.052 87.2813 85.2V85.312C87.2813 86.46 86.5533 87.118 85.1813 87.118C83.9913 87.118 83.4173 86.6 82.9133 85.83L82.0313 86.502C82.6333 87.342 83.5013 88.168 85.1953 88.168C87.1833 88.168 88.5133 87.006 88.5133 85.326C88.5133 83.856 87.5053 83.072 86.4553 82.862V82.806C87.4913 82.54 88.3313 81.784 88.3313 80.524C88.3313 78.942 87.0153 78.06 85.3633 78.06C83.7953 78.06 82.9413 78.872 82.4513 79.656L83.3193 80.328C83.7253 79.586 84.3273 79.11 85.3353 79.11C86.3713 79.11 87.0853 79.628 87.0853 80.65V80.748C87.0853 81.686 86.4133 82.372 85.0973 82.372H84.0333Z" fill="black"/>
<path d="M111 48.2402C111 47.977 111.142 47.7745 111.425 47.6328H130.773C131.076 47.7947 131.228 47.9972 131.228 48.2402C131.228 48.4629 131.086 48.6553 130.803 48.8173L121.144 48.8477H111.486C111.162 48.7464 111 48.5439 111 48.2402ZM111 54.1325C111 53.8288 111.162 53.6263 111.486 53.5251H130.803C131.086 53.7275 131.228 53.93 131.228 54.1325C131.228 54.3957 131.076 54.5982 130.773 54.74H111.425C111.142 54.5982 111 54.3957 111 54.1325Z" fill="black"/>
<path d="M145.588 66.3423H145.527C145.284 66.3423 145.102 66.2005 144.98 65.9171V51.1559L145.011 36.3948C145.213 36.1316 145.406 36 145.588 36C145.851 36 146.054 36.1518 146.195 36.4556V65.9171C146.033 66.2005 145.851 66.3423 145.649 66.3423H145.588Z" fill="black"/>
<path d="M152.727 41.0114C153.861 39.3713 155.41 38.5513 157.374 38.5513C158.346 38.5513 159.318 38.8145 160.29 39.341C161.262 39.8674 162.052 40.7988 162.659 42.1352C163.408 43.8159 163.783 46.1242 163.783 49.0602C163.783 52.1987 163.348 54.5982 162.477 56.2585C162.072 57.109 161.515 57.7873 160.806 58.2935C160.098 58.7997 159.48 59.1136 158.954 59.2351C158.427 59.3565 157.911 59.4274 157.405 59.4477C156.878 59.4477 156.352 59.3869 155.825 59.2654C155.299 59.1439 154.681 58.82 153.973 58.2935C153.264 57.767 152.707 57.0887 152.302 56.2585C151.431 54.5982 150.996 52.1987 150.996 49.0602C150.996 45.537 151.573 42.8541 152.727 41.0114ZM159.561 40.647C158.954 39.999 158.235 39.6751 157.405 39.6751C156.554 39.6751 155.825 39.999 155.218 40.647C154.712 41.1734 154.378 41.9024 154.216 42.8338C154.054 43.7652 153.973 45.7091 153.973 48.6654C153.973 51.8646 154.054 53.9705 154.216 54.9829C154.378 55.9953 154.742 56.7951 155.309 57.3823C155.876 57.9898 156.575 58.2935 157.405 58.2935C158.215 58.2935 158.903 57.9898 159.47 57.3823C160.057 56.7749 160.422 55.9244 160.563 54.831C160.705 53.7376 160.786 51.6824 160.806 48.6654C160.806 45.7293 160.725 43.7956 160.563 42.8642C160.401 41.9328 160.067 41.1937 159.561 40.647Z" fill="black"/>
<path d="M167.913 41.0114C169.047 39.3713 170.596 38.5512 172.56 38.5512C173.532 38.5512 174.504 38.8145 175.476 39.3409C176.448 39.8674 177.237 40.7988 177.845 42.1352C178.594 43.8158 178.969 46.1242 178.969 49.0602C178.969 52.1987 178.533 54.5981 177.663 56.2585C177.258 57.1089 176.701 57.7873 175.992 58.2935C175.283 58.7997 174.666 59.1135 174.139 59.235C173.613 59.3565 173.096 59.4274 172.59 59.4476C172.064 59.4476 171.537 59.3869 171.011 59.2654C170.484 59.1439 169.867 58.8199 169.158 58.2935C168.449 57.767 167.893 57.0887 167.488 56.2585C166.617 54.5981 166.182 52.1987 166.182 49.0602C166.182 45.5369 166.759 42.854 167.913 41.0114ZM174.747 40.6469C174.139 39.999 173.42 39.675 172.59 39.675C171.74 39.675 171.011 39.999 170.403 40.6469C169.897 41.1734 169.563 41.9023 169.401 42.8338C169.239 43.7652 169.158 45.7091 169.158 48.6653C169.158 51.8646 169.239 53.9704 169.401 54.9828C169.563 55.9953 169.928 56.7951 170.495 57.3823C171.062 57.9897 171.76 58.2935 172.59 58.2935C173.4 58.2935 174.089 57.9897 174.656 57.3823C175.243 56.7748 175.607 55.9244 175.749 54.831C175.891 53.7376 175.972 51.6824 175.992 48.6653C175.992 45.7293 175.911 43.7956 175.749 42.8642C175.587 41.9327 175.253 41.1937 174.747 40.6469Z" fill="black"/>
<path d="M183.098 41.0114C184.232 39.3713 185.781 38.5512 187.745 38.5512C188.717 38.5512 189.689 38.8145 190.661 39.3409C191.633 39.8674 192.423 40.7988 193.03 42.1352C193.779 43.8158 194.154 46.1242 194.154 49.0602C194.154 52.1987 193.719 54.5981 192.848 56.2585C192.443 57.1089 191.886 57.7873 191.178 58.2935C190.469 58.7997 189.851 59.1135 189.325 59.235C188.798 59.3565 188.282 59.4274 187.776 59.4476C187.249 59.4476 186.723 59.3869 186.196 59.2654C185.67 59.1439 185.052 58.8199 184.344 58.2935C183.635 57.767 183.078 57.0887 182.673 56.2585C181.803 54.5981 181.367 52.1987 181.367 49.0602C181.367 45.5369 181.944 42.854 183.098 41.0114ZM189.932 40.6469C189.325 39.999 188.606 39.675 187.776 39.675C186.925 39.675 186.196 39.999 185.589 40.6469C185.083 41.1734 184.749 41.9023 184.587 42.8338C184.425 43.7652 184.344 45.7091 184.344 48.6653C184.344 51.8646 184.425 53.9704 184.587 54.9828C184.749 55.9953 185.113 56.7951 185.68 57.3823C186.247 57.9897 186.946 58.2935 187.776 58.2935C188.586 58.2935 189.274 57.9897 189.841 57.3823C190.428 56.7748 190.793 55.9244 190.935 54.831C191.076 53.7376 191.157 51.6824 191.178 48.6653C191.178 45.7293 191.097 43.7956 190.935 42.8642C190.773 41.9327 190.438 41.1937 189.932 40.6469Z" fill="black"/>
<path d="M198.286 41.0114C199.42 39.3713 200.969 38.5512 202.933 38.5512C203.905 38.5512 204.877 38.8145 205.849 39.3409C206.821 39.8674 207.61 40.7988 208.218 42.1352C208.967 43.8158 209.342 46.1242 209.342 49.0602C209.342 52.1987 208.906 54.5981 208.036 56.2585C207.631 57.1089 207.074 57.7873 206.365 58.2935C205.656 58.7997 205.039 59.1135 204.512 59.235C203.986 59.3565 203.47 59.4274 202.963 59.4476C202.437 59.4476 201.91 59.3869 201.384 59.2654C200.857 59.1439 200.24 58.8199 199.531 58.2935C198.823 57.767 198.266 57.0887 197.861 56.2585C196.99 54.5981 196.555 52.1987 196.555 49.0602C196.555 45.5369 197.132 42.854 198.286 41.0114ZM205.12 40.6469C204.512 39.999 203.794 39.675 202.963 39.675C202.113 39.675 201.384 39.999 200.776 40.6469C200.27 41.1734 199.936 41.9023 199.774 42.8338C199.612 43.7652 199.531 45.7091 199.531 48.6653C199.531 51.8646 199.612 53.9704 199.774 54.9828C199.936 55.9953 200.301 56.7951 200.868 57.3823C201.435 57.9897 202.133 58.2935 202.963 58.2935C203.773 58.2935 204.462 57.9897 205.029 57.3823C205.616 56.7748 205.98 55.9244 206.122 54.831C206.264 53.7376 206.345 51.6824 206.365 48.6653C206.365 45.7293 206.284 43.7956 206.122 42.8642C205.96 41.9327 205.626 41.1937 205.12 40.6469Z" fill="black"/>
<path d="M212.227 36.5467C212.247 36.405 212.308 36.2835 212.409 36.1822C212.51 36.081 212.652 36.0203 212.834 36C213.037 36 213.209 36.1012 213.35 36.3037C213.411 36.4455 214.363 38.936 216.205 43.7754C218.048 48.6148 218.979 51.0851 219 51.1863C219.02 51.2876 218.099 53.7579 216.236 58.5973C214.373 63.4367 213.411 65.9272 213.35 66.069C213.209 66.2714 213.037 66.3727 212.834 66.3727C212.672 66.3727 212.54 66.3221 212.439 66.2208C212.338 66.1196 212.267 65.988 212.227 65.826C212.227 65.7247 213.138 63.2645 214.96 58.4454C216.803 53.6465 217.724 51.2268 217.724 51.1863C217.724 51.1458 216.803 48.7262 214.96 43.9273C213.138 39.1081 212.227 36.648 212.227 36.5467Z" fill="black"/>
<rect x="0.5" y="125.5" width="47" height="47" fill="#6929C4" stroke="#262626"/>
<rect x="47.5" y="125.5" width="47" height="47" fill="#6929C4" stroke="#262626"/>
<rect x="47.5" y="172.5" width="47" height="47" fill="#F2F4F8" stroke="#262626"/>
<rect x="0.5" y="172.5" width="47" height="47" fill="#F2F4F8" stroke="#262626"/>
<path d="M31.9722 167.8H33.0922V157.776H31.9722V158.952H31.9162C31.5382 158.042 30.7962 157.608 29.8022 157.608C27.9962 157.608 26.8622 159.078 26.8622 161.388C26.8622 163.698 27.9962 165.168 29.8022 165.168C30.7962 165.168 31.4822 164.72 31.9162 163.824H31.9722V167.8ZM30.1102 164.16C28.8502 164.16 28.0662 163.292 28.0662 162.004V160.772C28.0662 159.484 28.8502 158.616 30.1102 158.616C31.1322 158.616 31.9722 159.204 31.9722 160.002V162.69C31.9722 163.628 31.1322 164.16 30.1102 164.16ZM38.6433 165.168C40.9813 165.168 42.0033 163.306 42.0033 160.114C42.0033 156.922 40.9813 155.06 38.6433 155.06C36.3053 155.06 35.2833 156.922 35.2833 160.114C35.2833 163.306 36.3053 165.168 38.6433 165.168ZM38.6433 164.146C37.1173 164.146 36.5153 162.802 36.5153 160.912V159.316C36.5153 157.426 37.1173 156.082 38.6433 156.082C40.1693 156.082 40.7713 157.426 40.7713 159.316V160.912C40.7713 162.802 40.1693 164.146 38.6433 164.146Z" fill="white"/>
<path d="M78.9722 168.8H80.0922V158.776H78.9722V159.952H78.9162C78.5382 159.042 77.7962 158.608 76.8022 158.608C74.9962 158.608 73.8622 160.078 73.8622 162.388C73.8622 164.698 74.9962 166.168 76.8022 166.168C77.7962 166.168 78.4822 165.72 78.9162 164.824H78.9722V168.8ZM77.1102 165.16C75.8502 165.16 75.0662 164.292 75.0662 163.004V161.772C75.0662 160.484 75.8502 159.616 77.1102 159.616C78.1322 159.616 78.9722 160.204 78.9722 161.002V163.69C78.9722 164.628 78.1322 165.16 77.1102 165.16ZM89.1013 166V164.964H86.5813V156.228H84.7473L82.1573 158.65L82.8433 159.392L85.3073 157.096H85.4053V164.964H82.6753V166H89.1013Z" fill="white"/>
<path d="M31.9722 215.8H33.0922V205.776H31.9722V206.952H31.9162C31.5382 206.042 30.7962 205.608 29.8022 205.608C27.9962 205.608 26.8622 207.078 26.8622 209.388C26.8622 211.698 27.9962 213.168 29.8022 213.168C30.7962 213.168 31.4822 212.72 31.9162 211.824H31.9722V215.8ZM30.1102 212.16C28.8502 212.16 28.0662 211.292 28.0662 210.004V208.772C28.0662 207.484 28.8502 206.616 30.1102 206.616C31.1322 206.616 31.9722 207.204 31.9722 208.002V210.69C31.9722 211.628 31.1322 212.16 30.1102 212.16ZM41.9053 211.964H36.7673L39.3993 209.598C40.6453 208.478 41.5413 207.414 41.5413 205.902C41.5413 204.236 40.4493 203.06 38.5453 203.06C36.6553 203.06 35.7873 204.208 35.4093 205.356L36.4593 205.762C36.7253 204.838 37.2853 204.11 38.4893 204.11C39.6933 204.11 40.2953 204.852 40.2953 205.93V206.098C40.2953 207.036 39.5953 208.016 38.6853 208.856L35.4933 211.796V213H41.9053V211.964Z" fill="black"/>
<path d="M78.9722 215.8H80.0922V205.776H78.9722V206.952H78.9162C78.5382 206.042 77.7962 205.608 76.8022 205.608C74.9962 205.608 73.8622 207.078 73.8622 209.388C73.8622 211.698 74.9962 213.168 76.8022 213.168C77.7962 213.168 78.4822 212.72 78.9162 211.824H78.9722V215.8ZM77.1102 212.16C75.8502 212.16 75.0662 211.292 75.0662 210.004V208.772C75.0662 207.484 75.8502 206.616 77.1102 206.616C78.1322 206.616 78.9722 207.204 78.9722 208.002V210.69C78.9722 211.628 78.1322 212.16 77.1102 212.16ZM84.0333 207.372V208.394H85.1813C86.5533 208.394 87.2813 209.052 87.2813 210.2V210.312C87.2813 211.46 86.5533 212.118 85.1813 212.118C83.9913 212.118 83.4173 211.6 82.9133 210.83L82.0313 211.502C82.6333 212.342 83.5013 213.168 85.1953 213.168C87.1833 213.168 88.5133 212.006 88.5133 210.326C88.5133 208.856 87.5053 208.072 86.4553 207.862V207.806C87.4913 207.54 88.3313 206.784 88.3313 205.524C88.3313 203.942 87.0153 203.06 85.3633 203.06C83.7953 203.06 82.9413 203.872 82.4513 204.656L83.3193 205.328C83.7253 204.586 84.3273 204.11 85.3353 204.11C86.3713 204.11 87.0853 204.628 87.0853 205.65V205.748C87.0853 206.686 86.4133 207.372 85.0973 207.372H84.0333Z" fill="black"/>
<path d="M110 173.24C110 172.977 110.142 172.775 110.425 172.633H129.773C130.076 172.795 130.228 172.997 130.228 173.24C130.228 173.463 130.087 173.655 129.803 173.817L120.145 173.848H110.486C110.162 173.747 110 173.544 110 173.24ZM110 179.133C110 178.829 110.162 178.626 110.486 178.525H129.803C130.087 178.728 130.228 178.93 130.228 179.133C130.228 179.396 130.076 179.598 129.773 179.74H110.425C110.142 179.598 110 179.396 110 179.133Z" fill="black"/>
<path d="M144.588 191.342H144.527C144.284 191.342 144.102 191.201 143.98 190.917V176.156L144.011 161.395C144.213 161.132 144.406 161 144.588 161C144.851 161 145.054 161.152 145.195 161.456V190.917C145.033 191.201 144.851 191.342 144.649 191.342H144.588Z" fill="black"/>
<path d="M151.725 166.012C152.859 164.371 154.408 163.551 156.372 163.551C157.344 163.551 158.316 163.815 159.288 164.341C160.26 164.868 161.05 165.799 161.657 167.135C162.406 168.816 162.781 171.124 162.781 174.06C162.781 177.199 162.346 179.598 161.475 181.259C161.07 182.109 160.513 182.787 159.805 183.294C159.096 183.8 158.478 184.114 157.952 184.235C157.425 184.357 156.909 184.428 156.403 184.448C155.876 184.448 155.35 184.387 154.823 184.266C154.297 184.144 153.679 183.82 152.971 183.294C152.262 182.767 151.705 182.089 151.3 181.259C150.429 179.598 149.994 177.199 149.994 174.06C149.994 170.537 150.571 167.854 151.725 166.012ZM158.559 165.647C157.952 164.999 157.233 164.675 156.403 164.675C155.552 164.675 154.823 164.999 154.216 165.647C153.71 166.174 153.376 166.902 153.214 167.834C153.052 168.765 152.971 170.709 152.971 173.665C152.971 176.865 153.052 178.971 153.214 179.983C153.376 180.995 153.74 181.795 154.307 182.382C154.874 182.99 155.573 183.294 156.403 183.294C157.213 183.294 157.901 182.99 158.468 182.382C159.055 181.775 159.42 180.925 159.562 179.831C159.703 178.738 159.784 176.683 159.805 173.665C159.805 170.729 159.724 168.796 159.562 167.864C159.4 166.933 159.065 166.194 158.559 165.647Z" fill="black"/>
<path d="M166.913 166.012C168.047 164.371 169.596 163.551 171.56 163.551C172.532 163.551 173.504 163.815 174.476 164.341C175.448 164.867 176.237 165.799 176.845 167.135C177.594 168.816 177.969 171.124 177.969 174.06C177.969 177.199 177.533 179.598 176.663 181.259C176.258 182.109 175.701 182.787 174.992 183.294C174.283 183.8 173.666 184.114 173.139 184.235C172.613 184.357 172.097 184.428 171.59 184.448C171.064 184.448 170.537 184.387 170.011 184.266C169.484 184.144 168.867 183.82 168.158 183.294C167.449 182.767 166.893 182.089 166.488 181.259C165.617 179.598 165.182 177.199 165.182 174.06C165.182 170.537 165.759 167.854 166.913 166.012ZM173.747 165.647C173.139 164.999 172.42 164.675 171.59 164.675C170.74 164.675 170.011 164.999 169.403 165.647C168.897 166.174 168.563 166.902 168.401 167.834C168.239 168.765 168.158 170.709 168.158 173.665C168.158 176.865 168.239 178.971 168.401 179.983C168.563 180.995 168.928 181.795 169.495 182.382C170.062 182.99 170.76 183.294 171.59 183.294C172.4 183.294 173.089 182.99 173.656 182.382C174.243 181.775 174.607 180.925 174.749 179.831C174.891 178.738 174.972 176.682 174.992 173.665C174.992 170.729 174.911 168.796 174.749 167.864C174.587 166.933 174.253 166.194 173.747 165.647Z" fill="black"/>
<path d="M185.652 166.224L185.257 166.376C184.973 166.477 184.568 166.578 184.042 166.68C183.515 166.781 182.928 166.852 182.28 166.892H181.703V165.495H182.28C183.232 165.455 184.113 165.303 184.923 165.04C185.733 164.776 186.3 164.533 186.624 164.311C186.947 164.088 187.231 163.865 187.474 163.642C187.514 163.582 187.636 163.551 187.838 163.551C188.021 163.551 188.193 163.612 188.355 163.734V172.815L188.385 181.927C188.527 182.069 188.648 182.16 188.75 182.2C188.851 182.241 189.094 182.281 189.479 182.322C189.863 182.362 190.491 182.382 191.362 182.382H192.151V183.78H191.817C191.392 183.719 189.782 183.688 186.988 183.688C184.234 183.688 182.645 183.719 182.219 183.78H181.855V182.382H182.645C183.09 182.382 183.475 182.382 183.799 182.382C184.123 182.382 184.376 182.372 184.558 182.352C184.74 182.332 184.902 182.301 185.044 182.261C185.186 182.22 185.267 182.2 185.287 182.2C185.307 182.2 185.368 182.15 185.469 182.048C185.571 181.947 185.631 181.907 185.652 181.927V166.224Z" fill="black"/>
<path d="M200.839 166.224L200.444 166.376C200.161 166.477 199.756 166.578 199.229 166.68C198.703 166.781 198.116 166.852 197.468 166.892H196.891V165.495H197.468C198.419 165.455 199.3 165.303 200.11 165.04C200.92 164.776 201.487 164.533 201.811 164.311C202.135 164.088 202.418 163.865 202.661 163.642C202.702 163.582 202.823 163.551 203.026 163.551C203.208 163.551 203.38 163.612 203.542 163.734V172.815L203.573 181.927C203.714 182.069 203.836 182.16 203.937 182.2C204.038 182.241 204.281 182.281 204.666 182.322C205.051 182.362 205.678 182.382 206.549 182.382H207.339V183.78H207.005C206.58 183.719 204.97 183.688 202.175 183.688C199.422 183.688 197.832 183.719 197.407 183.78H197.042V182.382H197.832C198.278 182.382 198.662 182.382 198.986 182.382C199.31 182.382 199.563 182.372 199.746 182.352C199.928 182.332 200.09 182.301 200.232 182.261C200.373 182.22 200.454 182.2 200.475 182.2C200.495 182.2 200.556 182.15 200.657 182.048C200.758 181.947 200.819 181.907 200.839 181.927V166.224Z" fill="black"/>
<path d="M211.227 161.547C211.247 161.405 211.308 161.284 211.409 161.182C211.51 161.081 211.652 161.02 211.834 161C212.037 161 212.209 161.101 212.35 161.304C212.411 161.446 213.363 163.936 215.205 168.775C217.048 173.615 217.979 176.085 218 176.186C218.02 176.288 217.099 178.758 215.236 183.597C213.373 188.437 212.411 190.927 212.35 191.069C212.209 191.272 212.037 191.373 211.834 191.373C211.672 191.373 211.54 191.322 211.439 191.221C211.338 191.12 211.267 190.988 211.227 190.826C211.227 190.725 212.138 188.265 213.96 183.446C215.803 178.647 216.724 176.227 216.724 176.186C216.724 176.146 215.803 173.726 213.96 168.927C212.138 164.108 211.227 161.648 211.227 161.547Z" fill="black"/>
<rect x="0.5" y="250.5" width="47" height="47" fill="#6929C4" stroke="#262626"/>
<rect x="47.5" y="250.5" width="47" height="47" fill="#F2F4F8" stroke="#262626"/>
<rect x="47.5" y="297.5" width="47" height="47" fill="#F2F4F8" stroke="#262626"/>
<rect x="0.5" y="297.5" width="47" height="47" fill="#6929C4" stroke="#262626"/>
<path d="M31.9722 292.8H33.0922V282.776H31.9722V283.952H31.9162C31.5382 283.042 30.7962 282.608 29.8022 282.608C27.9962 282.608 26.8622 284.078 26.8622 286.388C26.8622 288.698 27.9962 290.168 29.8022 290.168C30.7962 290.168 31.4822 289.72 31.9162 288.824H31.9722V292.8ZM30.1102 289.16C28.8502 289.16 28.0662 288.292 28.0662 287.004V285.772C28.0662 284.484 28.8502 283.616 30.1102 283.616C31.1322 283.616 31.9722 284.204 31.9722 285.002V287.69C31.9722 288.628 31.1322 289.16 30.1102 289.16ZM38.6433 290.168C40.9813 290.168 42.0033 288.306 42.0033 285.114C42.0033 281.922 40.9813 280.06 38.6433 280.06C36.3053 280.06 35.2833 281.922 35.2833 285.114C35.2833 288.306 36.3053 290.168 38.6433 290.168ZM38.6433 289.146C37.1173 289.146 36.5153 287.802 36.5153 285.912V284.316C36.5153 282.426 37.1173 281.082 38.6433 281.082C40.1693 281.082 40.7713 282.426 40.7713 284.316V285.912C40.7713 287.802 40.1693 289.146 38.6433 289.146Z" fill="white"/>
<path d="M78.9722 293.8H80.0922V283.776H78.9722V284.952H78.9162C78.5382 284.042 77.7962 283.608 76.8022 283.608C74.9962 283.608 73.8622 285.078 73.8622 287.388C73.8622 289.698 74.9962 291.168 76.8022 291.168C77.7962 291.168 78.4822 290.72 78.9162 289.824H78.9722V293.8ZM77.1102 290.16C75.8502 290.16 75.0662 289.292 75.0662 288.004V286.772C75.0662 285.484 75.8502 284.616 77.1102 284.616C78.1322 284.616 78.9722 285.204 78.9722 286.002V288.69C78.9722 289.628 78.1322 290.16 77.1102 290.16ZM89.1013 291V289.964H86.5813V281.228H84.7473L82.1573 283.65L82.8433 284.392L85.3073 282.096H85.4053V289.964H82.6753V291H89.1013Z" fill="black"/>
<path d="M31.9722 340.8H33.0922V330.776H31.9722V331.952H31.9162C31.5382 331.042 30.7962 330.608 29.8022 330.608C27.9962 330.608 26.8622 332.078 26.8622 334.388C26.8622 336.698 27.9962 338.168 29.8022 338.168C30.7962 338.168 31.4822 337.72 31.9162 336.824H31.9722V340.8ZM30.1102 337.16C28.8502 337.16 28.0662 336.292 28.0662 335.004V333.772C28.0662 332.484 28.8502 331.616 30.1102 331.616C31.1322 331.616 31.9722 332.204 31.9722 333.002V335.69C31.9722 336.628 31.1322 337.16 30.1102 337.16ZM41.9053 336.964H36.7673L39.3993 334.598C40.6453 333.478 41.5413 332.414 41.5413 330.902C41.5413 329.236 40.4493 328.06 38.5453 328.06C36.6553 328.06 35.7873 329.208 35.4093 330.356L36.4593 330.762C36.7253 329.838 37.2853 329.11 38.4893 329.11C39.6933 329.11 40.2953 329.852 40.2953 330.93V331.098C40.2953 332.036 39.5953 333.016 38.6853 333.856L35.4933 336.796V338H41.9053V336.964Z" fill="white"/>
<path d="M78.9722 340.8H80.0922V330.776H78.9722V331.952H78.9162C78.5382 331.042 77.7962 330.608 76.8022 330.608C74.9962 330.608 73.8622 332.078 73.8622 334.388C73.8622 336.698 74.9962 338.168 76.8022 338.168C77.7962 338.168 78.4822 337.72 78.9162 336.824H78.9722V340.8ZM77.1102 337.16C75.8502 337.16 75.0662 336.292 75.0662 335.004V333.772C75.0662 332.484 75.8502 331.616 77.1102 331.616C78.1322 331.616 78.9722 332.204 78.9722 333.002V335.69C78.9722 336.628 78.1322 337.16 77.1102 337.16ZM84.0333 332.372V333.394H85.1813C86.5533 333.394 87.2813 334.052 87.2813 335.2V335.312C87.2813 336.46 86.5533 337.118 85.1813 337.118C83.9913 337.118 83.4173 336.6 82.9133 335.83L82.0313 336.502C82.6333 337.342 83.5013 338.168 85.1953 338.168C87.1833 338.168 88.5133 337.006 88.5133 335.326C88.5133 333.856 87.5053 333.072 86.4553 332.862V332.806C87.4913 332.54 88.3313 331.784 88.3313 330.524C88.3313 328.942 87.0153 328.06 85.3633 328.06C83.7953 328.06 82.9413 328.872 82.4513 329.656L83.3193 330.328C83.7253 329.586 84.3273 329.11 85.3353 329.11C86.3713 329.11 87.0853 329.628 87.0853 330.65V330.748C87.0853 331.686 86.4133 332.372 85.0973 332.372H84.0333Z" fill="black"/>
<path d="M111 298.24C111 297.977 111.142 297.774 111.425 297.633H130.773C131.076 297.795 131.228 297.997 131.228 298.24C131.228 298.463 131.087 298.655 130.803 298.817L121.145 298.848H111.486C111.162 298.746 111 298.544 111 298.24ZM111 304.133C111 303.829 111.162 303.626 111.486 303.525H130.803C131.087 303.728 131.228 303.93 131.228 304.133C131.228 304.396 131.076 304.598 130.773 304.74H111.425C111.142 304.598 111 304.396 111 304.133Z" fill="black"/>
<path d="M145.588 316.342H145.527C145.284 316.342 145.102 316.201 144.98 315.917V301.156L145.011 286.395C145.213 286.132 145.406 286 145.588 286C145.851 286 146.054 286.152 146.195 286.456V315.917C146.033 316.201 145.851 316.342 145.649 316.342H145.588Z" fill="black"/>
<path d="M152.725 291.011C153.859 289.371 155.408 288.551 157.372 288.551C158.344 288.551 159.316 288.815 160.288 289.341C161.26 289.867 162.05 290.799 162.657 292.135C163.406 293.816 163.781 296.124 163.781 299.06C163.781 302.199 163.346 304.598 162.475 306.259C162.07 307.109 161.513 307.787 160.805 308.294C160.096 308.8 159.478 309.114 158.952 309.235C158.425 309.357 157.909 309.428 157.403 309.448C156.876 309.448 156.35 309.387 155.823 309.266C155.297 309.144 154.679 308.82 153.971 308.294C153.262 307.767 152.705 307.089 152.3 306.259C151.429 304.598 150.994 302.199 150.994 299.06C150.994 295.537 151.571 292.854 152.725 291.011ZM159.559 290.647C158.952 289.999 158.233 289.675 157.403 289.675C156.552 289.675 155.823 289.999 155.216 290.647C154.71 291.173 154.376 291.902 154.214 292.834C154.052 293.765 153.971 295.709 153.971 298.665C153.971 301.865 154.052 303.971 154.214 304.983C154.376 305.995 154.74 306.795 155.307 307.382C155.874 307.99 156.573 308.294 157.403 308.294C158.213 308.294 158.901 307.99 159.468 307.382C160.055 306.775 160.42 305.925 160.562 304.831C160.703 303.738 160.784 301.682 160.805 298.665C160.805 295.729 160.724 293.796 160.562 292.864C160.4 291.933 160.065 291.194 159.559 290.647Z" fill="black"/>
<path d="M171.466 291.224L171.071 291.376C170.788 291.477 170.383 291.578 169.856 291.68C169.33 291.781 168.743 291.852 168.095 291.892H167.518V290.495H168.095C169.046 290.455 169.927 290.303 170.737 290.04C171.547 289.776 172.114 289.533 172.438 289.311C172.762 289.088 173.045 288.865 173.288 288.642C173.329 288.582 173.45 288.551 173.653 288.551C173.835 288.551 174.007 288.612 174.169 288.733V297.815L174.2 306.927C174.341 307.069 174.463 307.16 174.564 307.2C174.665 307.241 174.908 307.281 175.293 307.322C175.678 307.362 176.305 307.382 177.176 307.382H177.966V308.78H177.632C177.207 308.719 175.597 308.688 172.802 308.688C170.049 308.688 168.459 308.719 168.034 308.78H167.669V307.382H168.459C168.905 307.382 169.289 307.382 169.613 307.382C169.937 307.382 170.19 307.372 170.373 307.352C170.555 307.332 170.717 307.301 170.859 307.261C171 307.22 171.081 307.2 171.102 307.2C171.122 307.2 171.183 307.15 171.284 307.048C171.385 306.947 171.446 306.907 171.466 306.927V291.224Z" fill="black"/>
<path d="M183.098 291.011C184.232 289.371 185.781 288.551 187.745 288.551C188.717 288.551 189.689 288.814 190.661 289.341C191.633 289.867 192.423 290.799 193.03 292.135C193.78 293.816 194.154 296.124 194.154 299.06C194.154 302.199 193.719 304.598 192.848 306.259C192.443 307.109 191.886 307.787 191.178 308.294C190.469 308.8 189.851 309.114 189.325 309.235C188.798 309.357 188.282 309.428 187.776 309.448C187.249 309.448 186.723 309.387 186.196 309.266C185.67 309.144 185.052 308.82 184.344 308.294C183.635 307.767 183.078 307.089 182.673 306.259C181.803 304.598 181.367 302.199 181.367 299.06C181.367 295.537 181.944 292.854 183.098 291.011ZM189.932 290.647C189.325 289.999 188.606 289.675 187.776 289.675C186.925 289.675 186.196 289.999 185.589 290.647C185.083 291.173 184.749 291.902 184.587 292.834C184.425 293.765 184.344 295.709 184.344 298.665C184.344 301.865 184.425 303.971 184.587 304.983C184.749 305.995 185.113 306.795 185.68 307.382C186.247 307.99 186.946 308.294 187.776 308.294C188.586 308.294 189.274 307.99 189.841 307.382C190.428 306.775 190.793 305.925 190.935 304.831C191.076 303.738 191.157 301.682 191.178 298.665C191.178 295.729 191.097 293.796 190.935 292.864C190.773 291.933 190.439 291.194 189.932 290.647Z" fill="black"/>
<path d="M201.839 291.224L201.444 291.376C201.161 291.477 200.756 291.578 200.229 291.68C199.703 291.781 199.116 291.852 198.468 291.892H197.891V290.495H198.468C199.419 290.455 200.3 290.303 201.11 290.04C201.92 289.776 202.487 289.533 202.811 289.311C203.135 289.088 203.418 288.865 203.661 288.642C203.702 288.582 203.823 288.551 204.026 288.551C204.208 288.551 204.38 288.612 204.542 288.733V297.815L204.573 306.927C204.714 307.069 204.836 307.16 204.937 307.2C205.038 307.241 205.281 307.281 205.666 307.322C206.051 307.362 206.678 307.382 207.549 307.382H208.339V308.78H208.005C207.58 308.719 205.97 308.688 203.175 308.688C200.422 308.688 198.832 308.719 198.407 308.78H198.042V307.382H198.832C199.278 307.382 199.662 307.382 199.986 307.382C200.31 307.382 200.563 307.372 200.746 307.352C200.928 307.332 201.09 307.301 201.232 307.261C201.373 307.22 201.454 307.2 201.475 307.2C201.495 307.2 201.556 307.15 201.657 307.048C201.758 306.947 201.819 306.907 201.839 306.927V291.224Z" fill="black"/>
<path d="M212.227 286.547C212.247 286.405 212.308 286.283 212.409 286.182C212.51 286.081 212.652 286.02 212.834 286C213.037 286 213.209 286.101 213.35 286.304C213.411 286.445 214.363 288.936 216.205 293.775C218.048 298.615 218.979 301.085 219 301.186C219.02 301.288 218.099 303.758 216.236 308.597C214.373 313.437 213.411 315.927 213.35 316.069C213.209 316.272 213.037 316.373 212.834 316.373C212.672 316.373 212.54 316.322 212.439 316.221C212.338 316.12 212.267 315.988 212.227 315.826C212.227 315.725 213.138 313.265 214.96 308.445C216.803 303.647 217.724 301.227 217.724 301.186C217.724 301.146 216.803 298.726 214.96 293.927C213.138 289.108 212.227 286.648 212.227 286.547Z" fill="black"/>
<rect x="302.5" y="0.5" width="47" height="47" fill="#F2F4F8" stroke="#262626"/>
<rect x="349.5" y="0.5" width="47" height="47" fill="#6929C4" stroke="#262626"/>
<rect x="349.5" y="47.5" width="47" height="47" fill="#6929C4" stroke="#262626"/>
<rect x="302.5" y="47.5" width="47" height="47" fill="#F2F4F8" stroke="#262626"/>
<path d="M333.972 42.8H335.092V32.776H333.972V33.952H333.916C333.538 33.042 332.796 32.608 331.802 32.608C329.996 32.608 328.862 34.078 328.862 36.388C328.862 38.698 329.996 40.168 331.802 40.168C332.796 40.168 333.482 39.72 333.916 38.824H333.972V42.8ZM332.11 39.16C330.85 39.16 330.066 38.292 330.066 37.004V35.772C330.066 34.484 330.85 33.616 332.11 33.616C333.132 33.616 333.972 34.204 333.972 35.002V37.69C333.972 38.628 333.132 39.16 332.11 39.16ZM340.643 40.168C342.981 40.168 344.003 38.306 344.003 35.114C344.003 31.922 342.981 30.06 340.643 30.06C338.305 30.06 337.283 31.922 337.283 35.114C337.283 38.306 338.305 40.168 340.643 40.168ZM340.643 39.146C339.117 39.146 338.515 37.802 338.515 35.912V34.316C338.515 32.426 339.117 31.082 340.643 31.082C342.169 31.082 342.771 32.426 342.771 34.316V35.912C342.771 37.802 342.169 39.146 340.643 39.146Z" fill="black"/>
<path d="M380.972 43.8H382.092V33.776H380.972V34.952H380.916C380.538 34.042 379.796 33.608 378.802 33.608C376.996 33.608 375.862 35.078 375.862 37.388C375.862 39.698 376.996 41.168 378.802 41.168C379.796 41.168 380.482 40.72 380.916 39.824H380.972V43.8ZM379.11 40.16C377.85 40.16 377.066 39.292 377.066 38.004V36.772C377.066 35.484 377.85 34.616 379.11 34.616C380.132 34.616 380.972 35.204 380.972 36.002V38.69C380.972 39.628 380.132 40.16 379.11 40.16ZM391.101 41V39.964H388.581V31.228H386.747L384.157 33.65L384.843 34.392L387.307 32.096H387.405V39.964H384.675V41H391.101Z" fill="white"/>
<path d="M333.972 90.8H335.092V80.776H333.972V81.952H333.916C333.538 81.042 332.796 80.608 331.802 80.608C329.996 80.608 328.862 82.078 328.862 84.388C328.862 86.698 329.996 88.168 331.802 88.168C332.796 88.168 333.482 87.72 333.916 86.824H333.972V90.8ZM332.11 87.16C330.85 87.16 330.066 86.292 330.066 85.004V83.772C330.066 82.484 330.85 81.616 332.11 81.616C333.132 81.616 333.972 82.204 333.972 83.002V85.69C333.972 86.628 333.132 87.16 332.11 87.16ZM343.905 86.964H338.767L341.399 84.598C342.645 83.478 343.541 82.414 343.541 80.902C343.541 79.236 342.449 78.06 340.545 78.06C338.655 78.06 337.787 79.208 337.409 80.356L338.459 80.762C338.725 79.838 339.285 79.11 340.489 79.11C341.693 79.11 342.295 79.852 342.295 80.93V81.098C342.295 82.036 341.595 83.016 340.685 83.856L337.493 86.796V88H343.905V86.964Z" fill="black"/>
<path d="M380.972 90.8H382.092V80.776H380.972V81.952H380.916C380.538 81.042 379.796 80.608 378.802 80.608C376.996 80.608 375.862 82.078 375.862 84.388C375.862 86.698 376.996 88.168 378.802 88.168C379.796 88.168 380.482 87.72 380.916 86.824H380.972V90.8ZM379.11 87.16C377.85 87.16 377.066 86.292 377.066 85.004V83.772C377.066 82.484 377.85 81.616 379.11 81.616C380.132 81.616 380.972 82.204 380.972 83.002V85.69C380.972 86.628 380.132 87.16 379.11 87.16ZM386.033 82.372V83.394H387.181C388.553 83.394 389.281 84.052 389.281 85.2V85.312C389.281 86.46 388.553 87.118 387.181 87.118C385.991 87.118 385.417 86.6 384.913 85.83L384.031 86.502C384.633 87.342 385.501 88.168 387.195 88.168C389.183 88.168 390.513 87.006 390.513 85.326C390.513 83.856 389.505 83.072 388.455 82.862V82.806C389.491 82.54 390.331 81.784 390.331 80.524C390.331 78.942 389.015 78.06 387.363 78.06C385.795 78.06 384.941 78.872 384.451 79.656L385.319 80.328C385.725 79.586 386.327 79.11 387.335 79.11C388.371 79.11 389.085 79.628 389.085 80.65V80.748C389.085 81.686 388.413 82.372 387.097 82.372H386.033Z" fill="white"/>
<path d="M413 48.2403C413 47.9771 413.142 47.7746 413.425 47.6328H432.773C433.076 47.7948 433.228 47.9973 433.228 48.2403C433.228 48.463 433.087 48.6554 432.803 48.8174L423.145 48.8478H413.486C413.162 48.7465 413 48.544 413 48.2403ZM413 54.1326C413 53.8289 413.162 53.6264 413.486 53.5252H432.803C433.087 53.7277 433.228 53.9301 433.228 54.1326C433.228 54.3959 433.076 54.5983 432.773 54.7401H413.425C413.142 54.5983 413 54.3959 413 54.1326Z" fill="black"/>
<path d="M447.588 66.3425H447.527C447.284 66.3425 447.102 66.2007 446.98 65.9172V51.1561L447.011 36.3949C447.213 36.1316 447.406 36 447.588 36C447.851 36 448.054 36.1519 448.195 36.4556V65.9172C448.033 66.2007 447.851 66.3425 447.649 66.3425H447.588Z" fill="black"/>
<path d="M458.279 41.2241L457.884 41.376C457.6 41.4772 457.195 41.5785 456.669 41.6797C456.142 41.7809 455.555 41.8518 454.907 41.8923H454.33V40.4952H454.907C455.859 40.4547 456.74 40.3028 457.55 40.0396C458.36 39.7763 458.926 39.5334 459.25 39.3106C459.574 39.0879 459.858 38.8652 460.101 38.6424C460.141 38.5817 460.263 38.5513 460.465 38.5513C460.648 38.5513 460.82 38.6121 460.982 38.7335V47.815L461.012 56.9269C461.154 57.0686 461.275 57.1597 461.377 57.2002C461.478 57.2407 461.721 57.2812 462.106 57.3217C462.49 57.3622 463.118 57.3825 463.989 57.3825H464.778V58.7796H464.444C464.019 58.7189 462.409 58.6885 459.615 58.6885C456.861 58.6885 455.272 58.7189 454.846 58.7796H454.482V57.3825H455.272C455.717 57.3825 456.102 57.3825 456.426 57.3825C456.75 57.3825 457.003 57.3723 457.185 57.3521C457.367 57.3318 457.529 57.3015 457.671 57.261C457.813 57.2205 457.894 57.2002 457.914 57.2002C457.934 57.2002 457.995 57.1496 458.096 57.0484C458.198 56.9471 458.258 56.9066 458.279 56.9269V41.2241Z" fill="black"/>
<path d="M469.911 41.0115C471.045 39.3714 472.594 38.5513 474.558 38.5513C475.53 38.5513 476.502 38.8145 477.474 39.341C478.446 39.8675 479.235 40.7989 479.843 42.1353C480.592 43.8159 480.967 46.1243 480.967 49.0603C480.967 52.1988 480.531 54.5983 479.661 56.2587C479.256 57.1091 478.699 57.7874 477.99 58.2936C477.281 58.7999 476.664 59.1137 476.137 59.2352C475.611 59.3567 475.095 59.4276 474.588 59.4478C474.062 59.4478 473.535 59.3871 473.009 59.2656C472.483 59.1441 471.865 58.8201 471.156 58.2936C470.448 57.7672 469.891 57.0889 469.486 56.2587C468.615 54.5983 468.18 52.1988 468.18 49.0603C468.18 45.5371 468.757 42.8541 469.911 41.0115ZM476.745 40.647C476.137 39.9991 475.419 39.6751 474.588 39.6751C473.738 39.6751 473.009 39.9991 472.402 40.647C471.895 41.1735 471.561 41.9024 471.399 42.8339C471.237 43.7653 471.156 45.7092 471.156 48.6655C471.156 51.8647 471.237 53.9706 471.399 54.983C471.561 55.9954 471.926 56.7953 472.493 57.3825C473.06 57.9899 473.758 58.2936 474.588 58.2936C475.398 58.2936 476.087 57.9899 476.654 57.3825C477.241 56.775 477.605 55.9246 477.747 54.8311C477.889 53.7377 477.97 51.6825 477.99 48.6655C477.99 45.7294 477.909 43.7957 477.747 42.8643C477.585 41.9328 477.251 41.1938 476.745 40.647Z" fill="black"/>
<path d="M488.652 41.2241L488.257 41.376C487.973 41.4772 487.568 41.5785 487.042 41.6797C486.515 41.7809 485.928 41.8518 485.28 41.8923H484.703V40.4952H485.28C486.232 40.4547 487.113 40.3028 487.923 40.0396C488.733 39.7763 489.3 39.5334 489.624 39.3106C489.947 39.0879 490.231 38.8652 490.474 38.6424C490.514 38.5817 490.636 38.5513 490.838 38.5513C491.021 38.5513 491.193 38.6121 491.355 38.7335V47.815L491.385 56.9269C491.527 57.0686 491.648 57.1597 491.75 57.2002C491.851 57.2407 492.094 57.2812 492.479 57.3217C492.863 57.3622 493.491 57.3825 494.362 57.3825H495.151V58.7796H494.817C494.392 58.7189 492.782 58.6885 489.988 58.6885C487.234 58.6885 485.645 58.7189 485.219 58.7796H484.855V57.3825H485.645C486.09 57.3825 486.475 57.3825 486.799 57.3825C487.123 57.3825 487.376 57.3723 487.558 57.3521C487.74 57.3318 487.902 57.3015 488.044 57.261C488.186 57.2205 488.267 57.2002 488.287 57.2002C488.307 57.2002 488.368 57.1496 488.469 57.0484C488.571 56.9471 488.631 56.9066 488.652 56.9269V41.2241Z" fill="black"/>
<path d="M500.284 41.0115C501.418 39.3714 502.967 38.5513 504.931 38.5513C505.903 38.5513 506.875 38.8145 507.847 39.341C508.819 39.8675 509.608 40.7989 510.216 42.1353C510.965 43.8159 511.34 46.1243 511.34 49.0603C511.34 52.1988 510.904 54.5983 510.034 56.2587C509.629 57.1091 509.072 57.7874 508.363 58.2936C507.654 58.7999 507.037 59.1137 506.51 59.2352C505.984 59.3567 505.468 59.4276 504.961 59.4478C504.435 59.4478 503.908 59.3871 503.382 59.2656C502.856 59.1441 502.238 58.8201 501.529 58.2936C500.821 57.7672 500.264 57.0889 499.859 56.2587C498.988 54.5983 498.553 52.1988 498.553 49.0603C498.553 45.5371 499.13 42.8541 500.284 41.0115ZM507.118 40.647C506.51 39.9991 505.792 39.6751 504.961 39.6751C504.111 39.6751 503.382 39.9991 502.775 40.647C502.268 41.1735 501.934 41.9024 501.772 42.8339C501.61 43.7653 501.529 45.7092 501.529 48.6655C501.529 51.8647 501.61 53.9706 501.772 54.983C501.934 55.9954 502.299 56.7953 502.866 57.3825C503.433 57.9899 504.131 58.2936 504.961 58.2936C505.771 58.2936 506.46 57.9899 507.027 57.3825C507.614 56.775 507.978 55.9246 508.12 54.8311C508.262 53.7377 508.343 51.6825 508.363 48.6655C508.363 45.7294 508.282 43.7957 508.12 42.8643C507.958 41.9328 507.624 41.1938 507.118 40.647Z" fill="black"/>
<path d="M514.227 36.5468C514.247 36.405 514.308 36.2835 514.409 36.1823C514.51 36.081 514.652 36.0203 514.834 36C515.037 36 515.209 36.1013 515.35 36.3038C515.411 36.4455 516.363 38.9361 518.205 43.7755C520.048 48.6149 520.979 51.0852 521 51.1865C521.02 51.2877 520.099 53.758 518.236 58.5974C516.373 63.4368 515.411 65.9274 515.35 66.0691C515.209 66.2716 515.037 66.3729 514.834 66.3729C514.672 66.3729 514.54 66.3222 514.439 66.221C514.338 66.1198 514.267 65.9881 514.227 65.8262C514.227 65.7249 515.138 63.2647 516.96 58.4456C518.803 53.6467 519.724 51.227 519.724 51.1865C519.724 51.146 518.803 48.7263 516.96 43.9274C515.138 39.1082 514.227 36.648 514.227 36.5468Z" fill="black"/>
<rect x="302.5" y="125.5" width="47" height="47" fill="#F2F4F8" stroke="#262626"/>
<rect x="349.5" y="125.5" width="47" height="47" fill="#F2F4F8" stroke="#262626"/>
<rect x="349.5" y="172.5" width="47" height="47" fill="#6929C4" stroke="#262626"/>
<rect x="302.5" y="172.5" width="47" height="47" fill="#6929C4" stroke="#262626"/>
<path d="M333.972 167.8H335.092V157.776H333.972V158.952H333.916C333.538 158.042 332.796 157.608 331.802 157.608C329.996 157.608 328.862 159.078 328.862 161.388C328.862 163.698 329.996 165.168 331.802 165.168C332.796 165.168 333.482 164.72 333.916 163.824H333.972V167.8ZM332.11 164.16C330.85 164.16 330.066 163.292 330.066 162.004V160.772C330.066 159.484 330.85 158.616 332.11 158.616C333.132 158.616 333.972 159.204 333.972 160.002V162.69C333.972 163.628 333.132 164.16 332.11 164.16ZM340.643 165.168C342.981 165.168 344.003 163.306 344.003 160.114C344.003 156.922 342.981 155.06 340.643 155.06C338.305 155.06 337.283 156.922 337.283 160.114C337.283 163.306 338.305 165.168 340.643 165.168ZM340.643 164.146C339.117 164.146 338.515 162.802 338.515 160.912V159.316C338.515 157.426 339.117 156.082 340.643 156.082C342.169 156.082 342.771 157.426 342.771 159.316V160.912C342.771 162.802 342.169 164.146 340.643 164.146Z" fill="black"/>
<path d="M380.972 168.8H382.092V158.776H380.972V159.952H380.916C380.538 159.042 379.796 158.608 378.802 158.608C376.996 158.608 375.862 160.078 375.862 162.388C375.862 164.698 376.996 166.168 378.802 166.168C379.796 166.168 380.482 165.72 380.916 164.824H380.972V168.8ZM379.11 165.16C377.85 165.16 377.066 164.292 377.066 163.004V161.772C377.066 160.484 377.85 159.616 379.11 159.616C380.132 159.616 380.972 160.204 380.972 161.002V163.69C380.972 164.628 380.132 165.16 379.11 165.16ZM391.101 166V164.964H388.581V156.228H386.747L384.157 158.65L384.843 159.392L387.307 157.096H387.405V164.964H384.675V166H391.101Z" fill="black"/>
<path d="M333.972 215.8H335.092V205.776H333.972V206.952H333.916C333.538 206.042 332.796 205.608 331.802 205.608C329.996 205.608 328.862 207.078 328.862 209.388C328.862 211.698 329.996 213.168 331.802 213.168C332.796 213.168 333.482 212.72 333.916 211.824H333.972V215.8ZM332.11 212.16C330.85 212.16 330.066 211.292 330.066 210.004V208.772C330.066 207.484 330.85 206.616 332.11 206.616C333.132 206.616 333.972 207.204 333.972 208.002V210.69C333.972 211.628 333.132 212.16 332.11 212.16ZM343.905 211.964H338.767L341.399 209.598C342.645 208.478 343.541 207.414 343.541 205.902C343.541 204.236 342.449 203.06 340.545 203.06C338.655 203.06 337.787 204.208 337.409 205.356L338.459 205.762C338.725 204.838 339.285 204.11 340.489 204.11C341.693 204.11 342.295 204.852 342.295 205.93V206.098C342.295 207.036 341.595 208.016 340.685 208.856L337.493 211.796V213H343.905V211.964Z" fill="white"/>
<path d="M380.972 215.8H382.092V205.776H380.972V206.952H380.916C380.538 206.042 379.796 205.608 378.802 205.608C376.996 205.608 375.862 207.078 375.862 209.388C375.862 211.698 376.996 213.168 378.802 213.168C379.796 213.168 380.482 212.72 380.916 211.824H380.972V215.8ZM379.11 212.16C377.85 212.16 377.066 211.292 377.066 210.004V208.772C377.066 207.484 377.85 206.616 379.11 206.616C380.132 206.616 380.972 207.204 380.972 208.002V210.69C380.972 211.628 380.132 212.16 379.11 212.16ZM386.033 207.372V208.394H387.181C388.553 208.394 389.281 209.052 389.281 210.2V210.312C389.281 211.46 388.553 212.118 387.181 212.118C385.991 212.118 385.417 211.6 384.913 210.83L384.031 211.502C384.633 212.342 385.501 213.168 387.195 213.168C389.183 213.168 390.513 212.006 390.513 210.326C390.513 208.856 389.505 208.072 388.455 207.862V207.806C389.491 207.54 390.331 206.784 390.331 205.524C390.331 203.942 389.015 203.06 387.363 203.06C385.795 203.06 384.941 203.872 384.451 204.656L385.319 205.328C385.725 204.586 386.327 204.11 387.335 204.11C388.371 204.11 389.085 204.628 389.085 205.65V205.748C389.085 206.686 388.413 207.372 387.097 207.372H386.033Z" fill="white"/>
<path d="M413 173.24C413 172.977 413.142 172.774 413.425 172.633H432.773C433.076 172.795 433.228 172.997 433.228 173.24C433.228 173.463 433.087 173.655 432.803 173.817L423.145 173.848H413.486C413.162 173.746 413 173.544 413 173.24ZM413 179.133C413 178.829 413.162 178.626 413.486 178.525H432.803C433.087 178.728 433.228 178.93 433.228 179.133C433.228 179.396 433.076 179.598 432.773 179.74H413.425C413.142 179.598 413 179.396 413 179.133Z" fill="black"/>
<path d="M447.588 191.342H447.527C447.284 191.342 447.102 191.201 446.98 190.917V176.156L447.011 161.395C447.213 161.132 447.406 161 447.588 161C447.851 161 448.054 161.152 448.195 161.456V190.917C448.033 191.201 447.851 191.342 447.649 191.342H447.588Z" fill="black"/>
<path d="M458.279 166.224L457.884 166.376C457.6 166.477 457.195 166.578 456.669 166.68C456.142 166.781 455.555 166.852 454.907 166.892H454.33V165.495H454.907C455.859 165.455 456.74 165.303 457.55 165.04C458.36 164.776 458.926 164.533 459.25 164.311C459.574 164.088 459.858 163.865 460.101 163.642C460.141 163.582 460.263 163.551 460.465 163.551C460.648 163.551 460.82 163.612 460.982 163.734V172.815L461.012 181.927C461.154 182.069 461.275 182.16 461.377 182.2C461.478 182.241 461.721 182.281 462.106 182.322C462.49 182.362 463.118 182.382 463.989 182.382H464.778V183.78H464.444C464.019 183.719 462.409 183.688 459.615 183.688C456.861 183.688 455.272 183.719 454.846 183.78H454.482V182.382H455.272C455.717 182.382 456.102 182.382 456.426 182.382C456.75 182.382 457.003 182.372 457.185 182.352C457.367 182.332 457.529 182.301 457.671 182.261C457.813 182.22 457.894 182.2 457.914 182.2C457.934 182.2 457.995 182.15 458.096 182.048C458.198 181.947 458.258 181.907 458.279 181.927V166.224Z" fill="black"/>
<path d="M473.464 166.224L473.069 166.376C472.786 166.477 472.381 166.578 471.854 166.68C471.328 166.781 470.741 166.852 470.093 166.892H469.516V165.495H470.093C471.044 165.455 471.925 165.303 472.735 165.04C473.545 164.776 474.112 164.533 474.436 164.311C474.76 164.088 475.043 163.865 475.286 163.642C475.327 163.582 475.448 163.551 475.651 163.551C475.833 163.551 476.005 163.612 476.167 163.734V172.815L476.198 181.927C476.339 182.069 476.461 182.16 476.562 182.2C476.663 182.241 476.906 182.281 477.291 182.322C477.676 182.362 478.303 182.382 479.174 182.382H479.964V183.78H479.63C479.205 183.719 477.595 183.688 474.8 183.688C472.047 183.688 470.457 183.719 470.032 183.78H469.667V182.382H470.457C470.903 182.382 471.287 182.382 471.611 182.382C471.935 182.382 472.188 182.372 472.371 182.352C472.553 182.332 472.715 182.301 472.857 182.261C472.998 182.22 473.079 182.2 473.1 182.2C473.12 182.2 473.181 182.15 473.282 182.048C473.383 181.947 473.444 181.907 473.464 181.927V166.224Z" fill="black"/>
<path d="M485.098 166.011C486.232 164.371 487.781 163.551 489.745 163.551C490.717 163.551 491.689 163.815 492.661 164.341C493.633 164.867 494.423 165.799 495.03 167.135C495.78 168.816 496.154 171.124 496.154 174.06C496.154 177.199 495.719 179.598 494.848 181.259C494.443 182.109 493.886 182.787 493.178 183.294C492.469 183.8 491.851 184.114 491.325 184.235C490.798 184.357 490.282 184.428 489.776 184.448C489.249 184.448 488.723 184.387 488.196 184.266C487.67 184.144 487.052 183.82 486.344 183.294C485.635 182.767 485.078 182.089 484.673 181.259C483.803 179.598 483.367 177.199 483.367 174.06C483.367 170.537 483.944 167.854 485.098 166.011ZM491.932 165.647C491.325 164.999 490.606 164.675 489.776 164.675C488.925 164.675 488.196 164.999 487.589 165.647C487.083 166.173 486.749 166.902 486.587 167.834C486.425 168.765 486.344 170.709 486.344 173.665C486.344 176.865 486.425 178.971 486.587 179.983C486.749 180.995 487.113 181.795 487.68 182.382C488.247 182.99 488.946 183.294 489.776 183.294C490.586 183.294 491.274 182.99 491.841 182.382C492.428 181.775 492.793 180.925 492.935 179.831C493.076 178.738 493.157 176.682 493.178 173.665C493.178 170.729 493.097 168.796 492.935 167.864C492.773 166.933 492.439 166.194 491.932 165.647Z" fill="black"/>
<path d="M500.284 166.011C501.418 164.371 502.967 163.551 504.931 163.551C505.903 163.551 506.875 163.815 507.847 164.341C508.819 164.867 509.608 165.799 510.216 167.135C510.965 168.816 511.34 171.124 511.34 174.06C511.34 177.199 510.904 179.598 510.034 181.259C509.629 182.109 509.072 182.787 508.363 183.294C507.654 183.8 507.037 184.114 506.51 184.235C505.984 184.357 505.468 184.428 504.961 184.448C504.435 184.448 503.908 184.387 503.382 184.266C502.856 184.144 502.238 183.82 501.529 183.294C500.821 182.767 500.264 182.089 499.859 181.259C498.988 179.598 498.553 177.199 498.553 174.06C498.553 170.537 499.13 167.854 500.284 166.011ZM507.118 165.647C506.51 164.999 505.792 164.675 504.961 164.675C504.111 164.675 503.382 164.999 502.775 165.647C502.268 166.173 501.934 166.902 501.772 167.834C501.61 168.765 501.529 170.709 501.529 173.665C501.529 176.865 501.61 178.971 501.772 179.983C501.934 180.995 502.299 181.795 502.866 182.382C503.433 182.99 504.131 183.294 504.961 183.294C505.771 183.294 506.46 182.99 507.027 182.382C507.614 181.775 507.978 180.925 508.12 179.831C508.262 178.738 508.343 176.682 508.363 173.665C508.363 170.729 508.282 168.796 508.12 167.864C507.958 166.933 507.624 166.194 507.118 165.647Z" fill="black"/>
<path d="M514.227 161.547C514.247 161.405 514.308 161.283 514.409 161.182C514.51 161.081 514.652 161.02 514.834 161C515.037 161 515.209 161.101 515.35 161.304C515.411 161.445 516.363 163.936 518.205 168.775C520.048 173.615 520.979 176.085 521 176.186C521.02 176.288 520.099 178.758 518.236 183.597C516.373 188.437 515.411 190.927 515.35 191.069C515.209 191.272 515.037 191.373 514.834 191.373C514.672 191.373 514.54 191.322 514.439 191.221C514.338 191.12 514.267 190.988 514.227 190.826C514.227 190.725 515.138 188.265 516.96 183.445C518.803 178.647 519.724 176.227 519.724 176.186C519.724 176.146 518.803 173.726 516.96 168.927C515.138 164.108 514.227 161.648 514.227 161.547Z" fill="black"/>
<rect x="302.5" y="250.5" width="47" height="47" fill="#6929C4" stroke="#262626"/>
<rect x="349.5" y="250.5" width="47" height="47" fill="#6929C4" stroke="#262626"/>
<rect x="349.5" y="297.5" width="47" height="47" fill="#6929C4" stroke="#262626"/>
<rect x="302.5" y="297.5" width="47" height="47" fill="#6929C4" stroke="#262626"/>
<path d="M333.972 292.8H335.092V282.776H333.972V283.952H333.916C333.538 283.042 332.796 282.608 331.802 282.608C329.996 282.608 328.862 284.078 328.862 286.388C328.862 288.698 329.996 290.168 331.802 290.168C332.796 290.168 333.482 289.72 333.916 288.824H333.972V292.8ZM332.11 289.16C330.85 289.16 330.066 288.292 330.066 287.004V285.772C330.066 284.484 330.85 283.616 332.11 283.616C333.132 283.616 333.972 284.204 333.972 285.002V287.69C333.972 288.628 333.132 289.16 332.11 289.16ZM340.643 290.168C342.981 290.168 344.003 288.306 344.003 285.114C344.003 281.922 342.981 280.06 340.643 280.06C338.305 280.06 337.283 281.922 337.283 285.114C337.283 288.306 338.305 290.168 340.643 290.168ZM340.643 289.146C339.117 289.146 338.515 287.802 338.515 285.912V284.316C338.515 282.426 339.117 281.082 340.643 281.082C342.169 281.082 342.771 282.426 342.771 284.316V285.912C342.771 287.802 342.169 289.146 340.643 289.146Z" fill="white"/>
<path d="M380.972 293.8H382.092V283.776H380.972V284.952H380.916C380.538 284.042 379.796 283.608 378.802 283.608C376.996 283.608 375.862 285.078 375.862 287.388C375.862 289.698 376.996 291.168 378.802 291.168C379.796 291.168 380.482 290.72 380.916 289.824H380.972V293.8ZM379.11 290.16C377.85 290.16 377.066 289.292 377.066 288.004V286.772C377.066 285.484 377.85 284.616 379.11 284.616C380.132 284.616 380.972 285.204 380.972 286.002V288.69C380.972 289.628 380.132 290.16 379.11 290.16ZM391.101 291V289.964H388.581V281.228H386.747L384.157 283.65L384.843 284.392L387.307 282.096H387.405V289.964H384.675V291H391.101Z" fill="white"/>
<path d="M333.972 340.8H335.092V330.776H333.972V331.952H333.916C333.538 331.042 332.796 330.608 331.802 330.608C329.996 330.608 328.862 332.078 328.862 334.388C328.862 336.698 329.996 338.168 331.802 338.168C332.796 338.168 333.482 337.72 333.916 336.824H333.972V340.8ZM332.11 337.16C330.85 337.16 330.066 336.292 330.066 335.004V333.772C330.066 332.484 330.85 331.616 332.11 331.616C333.132 331.616 333.972 332.204 333.972 333.002V335.69C333.972 336.628 333.132 337.16 332.11 337.16ZM343.905 336.964H338.767L341.399 334.598C342.645 333.478 343.541 332.414 343.541 330.902C343.541 329.236 342.449 328.06 340.545 328.06C338.655 328.06 337.787 329.208 337.409 330.356L338.459 330.762C338.725 329.838 339.285 329.11 340.489 329.11C341.693 329.11 342.295 329.852 342.295 330.93V331.098C342.295 332.036 341.595 333.016 340.685 333.856L337.493 336.796V338H343.905V336.964Z" fill="white"/>
<path d="M380.972 340.8H382.092V330.776H380.972V331.952H380.916C380.538 331.042 379.796 330.608 378.802 330.608C376.996 330.608 375.862 332.078 375.862 334.388C375.862 336.698 376.996 338.168 378.802 338.168C379.796 338.168 380.482 337.72 380.916 336.824H380.972V340.8ZM379.11 337.16C377.85 337.16 377.066 336.292 377.066 335.004V333.772C377.066 332.484 377.85 331.616 379.11 331.616C380.132 331.616 380.972 332.204 380.972 333.002V335.69C380.972 336.628 380.132 337.16 379.11 337.16ZM386.033 332.372V333.394H387.181C388.553 333.394 389.281 334.052 389.281 335.2V335.312C389.281 336.46 388.553 337.118 387.181 337.118C385.991 337.118 385.417 336.6 384.913 335.83L384.031 336.502C384.633 337.342 385.501 338.168 387.195 338.168C389.183 338.168 390.513 337.006 390.513 335.326C390.513 333.856 389.505 333.072 388.455 332.862V332.806C389.491 332.54 390.331 331.784 390.331 330.524C390.331 328.942 389.015 328.06 387.363 328.06C385.795 328.06 384.941 328.872 384.451 329.656L385.319 330.328C385.725 329.586 386.327 329.11 387.335 329.11C388.371 329.11 389.085 329.628 389.085 330.65V330.748C389.085 331.686 388.413 332.372 387.097 332.372H386.033Z" fill="white"/>
<path d="M413 298.24C413 297.977 413.142 297.775 413.425 297.633H432.773C433.076 297.795 433.228 297.997 433.228 298.24C433.228 298.463 433.087 298.655 432.803 298.817L423.145 298.848H413.486C413.162 298.746 413 298.544 413 298.24ZM413 304.133C413 303.829 413.162 303.626 413.486 303.525H432.803C433.087 303.728 433.228 303.93 433.228 304.133C433.228 304.396 433.076 304.598 432.773 304.74H413.425C413.142 304.598 413 304.396 413 304.133Z" fill="black"/>
<path d="M447.588 316.342H447.527C447.284 316.342 447.102 316.201 446.98 315.917V301.156L447.011 286.395C447.213 286.132 447.406 286 447.588 286C447.851 286 448.054 286.152 448.195 286.456V315.917C448.033 316.201 447.851 316.342 447.649 316.342H447.588Z" fill="black"/>
<path d="M458.28 291.224L457.886 291.376C457.602 291.477 457.197 291.578 456.671 291.68C456.144 291.781 455.557 291.852 454.909 291.892H454.332V290.495H454.909C455.861 290.455 456.742 290.303 457.552 290.04C458.361 289.776 458.928 289.533 459.252 289.311C459.576 289.088 459.86 288.865 460.103 288.642C460.143 288.582 460.265 288.551 460.467 288.551C460.65 288.551 460.822 288.612 460.984 288.734V297.815L461.014 306.927C461.156 307.069 461.277 307.16 461.379 307.2C461.48 307.241 461.723 307.281 462.107 307.322C462.492 307.362 463.12 307.382 463.991 307.382H464.78V308.78H464.446C464.021 308.719 462.411 308.688 459.617 308.688C456.863 308.688 455.274 308.719 454.848 308.78H454.484V307.382H455.274C455.719 307.382 456.104 307.382 456.428 307.382C456.752 307.382 457.005 307.372 457.187 307.352C457.369 307.332 457.531 307.301 457.673 307.261C457.815 307.22 457.896 307.2 457.916 307.2C457.936 307.2 457.997 307.15 458.098 307.048C458.2 306.947 458.26 306.907 458.28 306.927V291.224Z" fill="black"/>
<path d="M473.466 291.224L473.071 291.376C472.788 291.477 472.383 291.578 471.856 291.68C471.33 291.781 470.743 291.852 470.095 291.892H469.518V290.495H470.095C471.046 290.455 471.927 290.303 472.737 290.04C473.547 289.776 474.114 289.533 474.438 289.311C474.762 289.088 475.045 288.865 475.288 288.642C475.329 288.582 475.45 288.551 475.653 288.551C475.835 288.551 476.007 288.612 476.169 288.734V297.815L476.2 306.927C476.341 307.069 476.463 307.16 476.564 307.2C476.665 307.241 476.908 307.281 477.293 307.322C477.678 307.362 478.305 307.382 479.176 307.382H479.966V308.78H479.632C479.207 308.719 477.597 308.688 474.802 308.688C472.049 308.688 470.459 308.719 470.034 308.78H469.669V307.382H470.459C470.905 307.382 471.289 307.382 471.613 307.382C471.937 307.382 472.19 307.372 472.373 307.352C472.555 307.332 472.717 307.301 472.859 307.261C473 307.22 473.081 307.2 473.102 307.2C473.122 307.2 473.183 307.15 473.284 307.048C473.385 306.947 473.446 306.907 473.466 306.927V291.224Z" fill="black"/>
<path d="M488.652 291.224L488.257 291.376C487.973 291.477 487.568 291.578 487.042 291.68C486.515 291.781 485.928 291.852 485.28 291.892H484.703V290.495H485.28C486.232 290.455 487.113 290.303 487.923 290.04C488.733 289.776 489.3 289.533 489.624 289.311C489.947 289.088 490.231 288.865 490.474 288.642C490.514 288.582 490.636 288.551 490.838 288.551C491.021 288.551 491.193 288.612 491.355 288.734V297.815L491.385 306.927C491.527 307.069 491.648 307.16 491.75 307.2C491.851 307.241 492.094 307.281 492.479 307.322C492.863 307.362 493.491 307.382 494.362 307.382H495.151V308.78H494.817C494.392 308.719 492.782 308.688 489.988 308.688C487.234 308.688 485.645 308.719 485.219 308.78H484.855V307.382H485.645C486.09 307.382 486.475 307.382 486.799 307.382C487.123 307.382 487.376 307.372 487.558 307.352C487.74 307.332 487.902 307.301 488.044 307.261C488.186 307.22 488.267 307.2 488.287 307.2C488.307 307.2 488.368 307.15 488.469 307.048C488.571 306.947 488.631 306.907 488.652 306.927V291.224Z" fill="black"/>
<path d="M503.839 291.224L503.444 291.376C503.161 291.477 502.756 291.578 502.229 291.68C501.703 291.781 501.116 291.852 500.468 291.892H499.891V290.495H500.468C501.419 290.455 502.3 290.303 503.11 290.04C503.92 289.776 504.487 289.533 504.811 289.311C505.135 289.088 505.418 288.865 505.661 288.642C505.702 288.582 505.823 288.551 506.026 288.551C506.208 288.551 506.38 288.612 506.542 288.734V297.815L506.573 306.927C506.714 307.069 506.836 307.16 506.937 307.2C507.038 307.241 507.281 307.281 507.666 307.322C508.051 307.362 508.678 307.382 509.549 307.382H510.339V308.78H510.005C509.58 308.719 507.97 308.688 505.175 308.688C502.422 308.688 500.832 308.719 500.407 308.78H500.042V307.382H500.832C501.278 307.382 501.662 307.382 501.986 307.382C502.31 307.382 502.563 307.372 502.746 307.352C502.928 307.332 503.09 307.301 503.232 307.261C503.373 307.22 503.454 307.2 503.475 307.2C503.495 307.2 503.556 307.15 503.657 307.048C503.758 306.947 503.819 306.907 503.839 306.927V291.224Z" fill="black"/>
<path d="M514.227 286.547C514.247 286.405 514.308 286.283 514.409 286.182C514.51 286.081 514.652 286.02 514.834 286C515.037 286 515.209 286.101 515.35 286.304C515.411 286.445 516.363 288.936 518.205 293.775C520.048 298.615 520.979 301.085 521 301.186C521.02 301.288 520.099 303.758 518.236 308.597C516.373 313.437 515.411 315.927 515.35 316.069C515.209 316.272 515.037 316.373 514.834 316.373C514.672 316.373 514.54 316.322 514.439 316.221C514.338 316.12 514.267 315.988 514.227 315.826C514.227 315.725 515.138 313.265 516.96 308.445C518.803 303.647 519.724 301.227 519.724 301.186C519.724 301.146 518.803 298.726 516.96 293.927C515.138 289.108 514.227 286.648 514.227 286.547Z" fill="black"/>
</svg>
