<svg width="200" height="269" viewBox="0 0 200 269" fill="none" xmlns="http://www.w3.org/2000/svg">
<rect x="1.5" y="0.5" width="19.2105" height="19.2105" fill="#6929C4" stroke="#262626"/>
<rect x="1.5" y="19.5" width="19.2105" height="19.2105" fill="#6929C4" stroke="#262626"/>
<rect x="1.5" y="38.5" width="19.2105" height="19.2105" fill="#6929C4" stroke="#262626"/>
<rect x="20.5" y="0.5" width="19.2105" height="19.2105" fill="#F2F4F8" stroke="#262626"/>
<rect x="20.5" y="19.5" width="19.2105" height="19.2105" fill="#F2F4F8" stroke="#262626"/>
<rect x="20.5" y="38.5" width="19.2105" height="19.2105" fill="#F2F4F8" stroke="#262626"/>
<rect x="39.5" y="0.5" width="19.2105" height="19.2105" fill="#F2F4F8" stroke="#262626"/>
<rect x="39.5" y="19.5" width="19.2105" height="19.2105" fill="#F2F4F8" stroke="#262626"/>
<rect x="39.5" y="38.5" width="19.2105" height="19.2105" fill="#F2F4F8" stroke="#262626"/>
<rect x="71.5" y="0.5" width="19.2105" height="19.2105" fill="#F2F4F8" stroke="#262626"/>
<rect x="71.5" y="19.5" width="19.2105" height="19.2105" fill="#F2F4F8" stroke="#262626"/>
<rect x="71.5" y="38.5" width="19.2105" height="19.2105" fill="#F2F4F8" stroke="#262626"/>
<rect x="90.5" y="0.5" width="19.2105" height="19.2105" fill="#6929C4" stroke="#262626"/>
<rect x="90.5" y="19.5" width="19.2105" height="19.2105" fill="#6929C4" stroke="#262626"/>
<rect x="90.5" y="38.5" width="19.2105" height="19.2105" fill="#6929C4" stroke="#262626"/>
<rect x="109.5" y="0.5" width="19.2105" height="19.2105" fill="#F2F4F8" stroke="#262626"/>
<rect x="109.5" y="19.5" width="19.2105" height="19.2105" fill="#F2F4F8" stroke="#262626"/>
<rect x="109.5" y="38.5" width="19.2105" height="19.2105" fill="#F2F4F8" stroke="#262626"/>
<rect x="141.5" y="0.5" width="19.2105" height="19.2105" fill="#F2F4F8" stroke="#262626"/>
<rect x="141.5" y="19.5" width="19.2105" height="19.2105" fill="#F2F4F8" stroke="#262626"/>
<rect x="141.5" y="38.5" width="19.2105" height="19.2105" fill="#F2F4F8" stroke="#262626"/>
<rect x="160.5" y="0.5" width="19.2105" height="19.2105" fill="#F2F4F8" stroke="#262626"/>
<rect x="160.5" y="19.5" width="19.2105" height="19.2105" fill="#F2F4F8" stroke="#262626"/>
<rect x="160.5" y="38.5" width="19.2105" height="19.2105" fill="#F2F4F8" stroke="#262626"/>
<rect x="179.5" y="0.5" width="19.2105" height="19.2105" fill="#6929C4" stroke="#262626"/>
<rect x="179.5" y="19.5" width="19.2105" height="19.2105" fill="#6929C4" stroke="#262626"/>
<rect x="179.5" y="38.5" width="19.2105" height="19.2105" fill="#6929C4" stroke="#262626"/>
<rect x="0.5" y="70.5" width="19.2105" height="19.2105" fill="#6929C4" stroke="#262626"/>
<rect x="0.5" y="89.5" width="19.2105" height="19.2105" fill="#6929C4" stroke="#262626"/>
<rect x="0.5" y="108.5" width="19.2105" height="19.2105" fill="#6929C4" stroke="#262626"/>
<rect x="19.5" y="70.5" width="19.2105" height="19.2105" fill="#F2F4F8" stroke="#262626"/>
<rect x="19.5" y="89.5" width="19.2105" height="19.2105" fill="#F2F4F8" stroke="#262626"/>
<rect x="19.5" y="108.5" width="19.2105" height="19.2105" fill="#F2F4F8" stroke="#262626"/>
<rect x="38.5" y="70.5" width="19.2105" height="19.2105" fill="#6929C4" stroke="#262626"/>
<rect x="38.5" y="89.5" width="19.2105" height="19.2105" fill="#6929C4" stroke="#262626"/>
<rect x="38.5" y="108.5" width="19.2105" height="19.2105" fill="#6929C4" stroke="#262626"/>
<rect x="71.5" y="70.5" width="19.2105" height="19.2105" fill="#6929C4" stroke="#262626"/>
<rect x="71.5" y="89.5" width="19.2105" height="19.2105" fill="#6929C4" stroke="#262626"/>
<rect x="71.5" y="108.5" width="19.2105" height="19.2105" fill="#6929C4" stroke="#262626"/>
<rect x="90.5" y="70.5" width="19.2105" height="19.2105" fill="#6929C4" stroke="#262626"/>
<rect x="90.5" y="89.5" width="19.2105" height="19.2105" fill="#6929C4" stroke="#262626"/>
<rect x="90.5" y="108.5" width="19.2105" height="19.2105" fill="#6929C4" stroke="#262626"/>
<rect x="109.5" y="70.5" width="19.2105" height="19.2105" fill="#F2F4F8" stroke="#262626"/>
<rect x="109.5" y="89.5" width="19.2105" height="19.2105" fill="#F2F4F8" stroke="#262626"/>
<rect x="109.5" y="108.5" width="19.2105" height="19.2105" fill="#F2F4F8" stroke="#262626"/>
<rect x="141.5" y="70.5" width="19.2105" height="19.2105" fill="#F2F4F8" stroke="#262626"/>
<rect x="141.5" y="89.5" width="19.2105" height="19.2105" fill="#F2F4F8" stroke="#262626"/>
<rect x="141.5" y="108.5" width="19.2105" height="19.2105" fill="#F2F4F8" stroke="#262626"/>
<rect x="160.5" y="70.5" width="19.2105" height="19.2105" fill="#6929C4" stroke="#262626"/>
<rect x="160.5" y="89.5" width="19.2105" height="19.2105" fill="#6929C4" stroke="#262626"/>
<rect x="160.5" y="108.5" width="19.2105" height="19.2105" fill="#6929C4" stroke="#262626"/>
<rect x="179.5" y="70.5" width="19.2105" height="19.2105" fill="#6929C4" stroke="#262626"/>
<rect x="179.5" y="89.5" width="19.2105" height="19.2105" fill="#6929C4" stroke="#262626"/>
<rect x="179.5" y="108.5" width="19.2105" height="19.2105" fill="#6929C4" stroke="#262626"/>
<rect x="0.5" y="140.5" width="19.2105" height="19.2105" fill="#6929C4" stroke="#262626"/>
<rect x="0.5" y="159.5" width="19.2105" height="19.2105" fill="#F2F4F8" stroke="#262626"/>
<rect x="0.5" y="178.5" width="19.2105" height="19.2105" fill="#F2F4F8" stroke="#262626"/>
<rect x="19.5" y="140.5" width="19.2105" height="19.2105" fill="#6929C4" stroke="#262626"/>
<rect x="19.5" y="159.5" width="19.2105" height="19.2105" fill="#F2F4F8" stroke="#262626"/>
<rect x="19.5" y="178.5" width="19.2105" height="19.2105" fill="#F2F4F8" stroke="#262626"/>
<rect x="38.5" y="140.5" width="19.2105" height="19.2105" fill="#6929C4" stroke="#262626"/>
<rect x="38.5" y="159.5" width="19.2105" height="19.2105" fill="#F2F4F8" stroke="#262626"/>
<rect x="38.5" y="178.5" width="19.2105" height="19.2105" fill="#F2F4F8" stroke="#262626"/>
<rect x="0.5" y="210.5" width="19.2105" height="19.2105" fill="#6929C4" stroke="#262626"/>
<rect x="0.5" y="229.5" width="19.2105" height="19.2105" fill="#F2F4F8" stroke="#262626"/>
<rect x="0.5" y="248.5" width="19.2105" height="19.2105" fill="#6929C4" stroke="#262626"/>
<rect x="19.5" y="210.5" width="19.2105" height="19.2105" fill="#6929C4" stroke="#262626"/>
<rect x="19.5" y="229.5" width="19.2105" height="19.2105" fill="#F2F4F8" stroke="#262626"/>
<rect x="19.5" y="248.5" width="19.2105" height="19.2105" fill="#6929C4" stroke="#262626"/>
<rect x="38.5" y="210.5" width="19.2105" height="19.2105" fill="#6929C4" stroke="#262626"/>
<rect x="38.5" y="229.5" width="19.2105" height="19.2105" fill="#F2F4F8" stroke="#262626"/>
<rect x="38.5" y="248.5" width="19.2105" height="19.2105" fill="#6929C4" stroke="#262626"/>
<rect x="71.5" y="140.5" width="19.2105" height="19.2105" fill="#F2F4F8" stroke="#262626"/>
<rect x="71.5" y="159.5" width="19.2105" height="19.2105" fill="#6929C4" stroke="#262626"/>
<rect x="71.5" y="178.5" width="19.2105" height="19.2105" fill="#F2F4F8" stroke="#262626"/>
<rect x="90.5" y="140.5" width="19.2105" height="19.2105" fill="#F2F4F8" stroke="#262626"/>
<rect x="90.5" y="159.5" width="19.2105" height="19.2105" fill="#6929C4" stroke="#262626"/>
<rect x="90.5" y="178.5" width="19.2105" height="19.2105" fill="#F2F4F8" stroke="#262626"/>
<rect x="109.5" y="140.5" width="19.2105" height="19.2105" fill="#F2F4F8" stroke="#262626"/>
<rect x="109.5" y="159.5" width="19.2105" height="19.2105" fill="#6929C4" stroke="#262626"/>
<rect x="109.5" y="178.5" width="19.2105" height="19.2105" fill="#F2F4F8" stroke="#262626"/>
<rect x="71.5" y="210.5" width="19.2105" height="19.2105" fill="#6929C4" stroke="#262626"/>
<rect x="71.5" y="229.5" width="19.2105" height="19.2105" fill="#6929C4" stroke="#262626"/>
<rect x="71.5" y="248.5" width="19.2105" height="19.2105" fill="#F2F4F8" stroke="#262626"/>
<rect x="90.5" y="210.5" width="19.2105" height="19.2105" fill="#6929C4" stroke="#262626"/>
<rect x="90.5" y="229.5" width="19.2105" height="19.2105" fill="#6929C4" stroke="#262626"/>
<rect x="90.5" y="248.5" width="19.2105" height="19.2105" fill="#F2F4F8" stroke="#262626"/>
<rect x="109.5" y="210.5" width="19.2105" height="19.2105" fill="#6929C4" stroke="#262626"/>
<rect x="109.5" y="229.5" width="19.2105" height="19.2105" fill="#6929C4" stroke="#262626"/>
<rect x="109.5" y="248.5" width="19.2105" height="19.2105" fill="#F2F4F8" stroke="#262626"/>
<rect x="141.5" y="140.5" width="19.2105" height="19.2105" fill="#F2F4F8" stroke="#262626"/>
<rect x="141.5" y="159.5" width="19.2105" height="19.2105" fill="#F2F4F8" stroke="#262626"/>
<rect x="141.5" y="178.5" width="19.2105" height="19.2105" fill="#6929C4" stroke="#262626"/>
<rect x="160.5" y="140.5" width="19.2105" height="19.2105" fill="#F2F4F8" stroke="#262626"/>
<rect x="160.5" y="159.5" width="19.2105" height="19.2105" fill="#F2F4F8" stroke="#262626"/>
<rect x="160.5" y="178.5" width="19.2105" height="19.2105" fill="#6929C4" stroke="#262626"/>
<rect x="179.5" y="140.5" width="19.2105" height="19.2105" fill="#F2F4F8" stroke="#262626"/>
<rect x="179.5" y="159.5" width="19.2105" height="19.2105" fill="#F2F4F8" stroke="#262626"/>
<rect x="179.5" y="178.5" width="19.2105" height="19.2105" fill="#6929C4" stroke="#262626"/>
<rect x="141.5" y="210.5" width="19.2105" height="19.2105" fill="#F2F4F8" stroke="#262626"/>
<rect x="141.5" y="229.5" width="19.2105" height="19.2105" fill="#6929C4" stroke="#262626"/>
<rect x="141.5" y="248.5" width="19.2105" height="19.2105" fill="#6929C4" stroke="#262626"/>
<rect x="160.5" y="210.5" width="19.2105" height="19.2105" fill="#F2F4F8" stroke="#262626"/>
<rect x="160.5" y="229.5" width="19.2105" height="19.2105" fill="#6929C4" stroke="#262626"/>
<rect x="160.5" y="248.5" width="19.2105" height="19.2105" fill="#6929C4" stroke="#262626"/>
<rect x="179.5" y="210.5" width="19.2105" height="19.2105" fill="#F2F4F8" stroke="#262626"/>
<rect x="179.5" y="229.5" width="19.2105" height="19.2105" fill="#6929C4" stroke="#262626"/>
<rect x="179.5" y="248.5" width="19.2105" height="19.2105" fill="#6929C4" stroke="#262626"/>
</svg>
