<svg width="504" height="183" viewBox="0 0 504 183" fill="none" xmlns="http://www.w3.org/2000/svg">
<g clip-path="url(#clip0_1125_21015)">
<rect width="504" height="183" fill="white"/>
<rect opacity="0.4" y="120" width="504" height="40" fill="#F2F4F8"/>
<rect opacity="0.4" y="40" width="504" height="40" fill="#F2F4F8"/>
<rect x="0.5" y="0.5" width="503" height="182" stroke="#DDE1E6"/>
<rect width="150" height="88.2353" transform="translate(24 24)" fill="#1192E8"/>
<rect width="150" height="88.2353" transform="translate(330 24)" fill="#6929C4"/>
<path d="M238.703 81H240.303V72.08H242.523V70.68H240.303V67.6H242.523V66.2H240.963C239.443 66.2 238.703 67.18 238.703 68.6V70.68H237.023V72.08H238.703V81ZM244.588 74.76C244.588 78.66 246.228 82.06 248.208 83.74H249.728C247.568 81.82 246.088 78.44 246.088 75.64V73.92C246.088 71.12 247.508 67.8 249.728 65.8H248.208C246.168 67.54 244.588 70.9 244.588 74.76ZM255.247 65.96C252.407 65.96 250.747 67.84 250.747 73.6C250.747 79.36 252.407 81.24 255.247 81.24C258.087 81.24 259.747 79.36 259.747 73.6C259.747 67.84 258.087 65.96 255.247 65.96ZM252.467 71.64C252.467 68.5 253.487 67.34 255.247 67.34C257.007 67.34 258.027 68.5 258.027 71.64V72.9H252.467V71.64ZM255.247 79.86C253.487 79.86 252.467 78.7 252.467 75.56V74.3H258.027V75.56C258.027 78.7 257.007 79.86 255.247 79.86ZM265.897 74.76C265.897 70.9 264.317 67.54 262.277 65.8H260.757C262.977 67.8 264.397 71.12 264.397 73.92V75.64C264.397 78.44 262.917 81.82 260.757 83.74H262.277C264.257 82.06 265.897 78.66 265.897 74.76Z" fill="#121619"/>
<path d="M368.449 73.168C370.969 73.168 372.593 71.39 372.593 68.114C372.593 64.838 370.969 63.06 368.449 63.06C365.929 63.06 364.305 64.838 364.305 68.114C364.305 71.39 365.929 73.168 368.449 73.168ZM368.449 72.118C366.755 72.118 365.565 70.858 365.565 68.926V67.302C365.565 65.37 366.755 64.11 368.449 64.11C370.143 64.11 371.333 65.37 371.333 67.302V68.926C371.333 70.858 370.143 72.118 368.449 72.118ZM374.755 75.8H375.875V71.824H375.931C376.365 72.72 377.051 73.168 378.045 73.168C379.851 73.168 380.985 71.698 380.985 69.388C380.985 67.078 379.851 65.608 378.045 65.608C377.051 65.608 376.309 66.042 375.931 66.952H375.875V65.776H374.755V75.8ZM377.737 72.16C376.715 72.16 375.875 71.628 375.875 70.69V68.002C375.875 67.204 376.715 66.616 377.737 66.616C378.997 66.616 379.781 67.484 379.781 68.772V70.004C379.781 71.292 378.997 72.16 377.737 72.16ZM385.95 73V72.02H384.48V66.756H386.062V65.776H384.48V63.774H383.472V65.118C383.472 65.608 383.318 65.776 382.842 65.776H382.17V66.756H383.36V71.81C383.36 72.51 383.78 73 384.55 73H385.95ZM388.582 64.082C389.058 64.082 389.268 63.83 389.268 63.452V63.27C389.268 62.892 389.058 62.64 388.582 62.64C388.106 62.64 387.896 62.892 387.896 63.27V63.452C387.896 63.83 388.106 64.082 388.582 64.082ZM388.022 73H389.142V65.776H388.022V73ZM392.802 73V67.988C392.802 67.064 393.642 66.616 394.524 66.616C395.588 66.616 396.078 67.274 396.078 68.562V73H397.198V67.988C397.198 67.064 398.01 66.616 398.892 66.616C399.984 66.616 400.474 67.288 400.474 68.562V73H401.594V68.366C401.594 66.616 400.712 65.608 399.242 65.608C398.01 65.608 397.31 66.294 397.044 67.078H397.016C396.624 66.042 395.756 65.608 394.804 65.608C393.684 65.608 393.18 66.21 392.858 66.952H392.802V65.776H391.682V73H392.802ZM404.625 64.082C405.101 64.082 405.311 63.83 405.311 63.452V63.27C405.311 62.892 405.101 62.64 404.625 62.64C404.149 62.64 403.939 62.892 403.939 63.27V63.452C403.939 63.83 404.149 64.082 404.625 64.082ZM404.065 73H405.185V65.776H404.065V73ZM412.569 73V72.02H408.271L412.457 66.616V65.776H407.123V66.756H411.099L406.997 72.062V73H412.569ZM420.259 73V72.02H419.433V68.044C419.433 66.518 418.397 65.608 416.661 65.608C415.359 65.608 414.491 66.252 414.099 67.022L414.771 67.652C415.163 66.994 415.737 66.574 416.605 66.574C417.753 66.574 418.313 67.134 418.313 68.156V68.87H416.885C414.785 68.87 413.805 69.626 413.805 70.984C413.805 72.328 414.701 73.168 416.227 73.168C417.235 73.168 418.005 72.706 418.313 71.824H418.383C418.467 72.496 418.803 73 419.629 73H420.259ZM416.409 72.216C415.541 72.216 414.981 71.81 414.981 71.096V70.802C414.981 70.102 415.555 69.71 416.829 69.71H418.313V70.9C418.313 71.642 417.515 72.216 416.409 72.216ZM425.014 73V72.02H423.544V66.756H425.126V65.776H423.544V63.774H422.536V65.118C422.536 65.608 422.382 65.776 421.906 65.776H421.234V66.756H422.424V71.81C422.424 72.51 422.844 73 423.614 73H425.014ZM427.646 64.082C428.122 64.082 428.332 63.83 428.332 63.452V63.27C428.332 62.892 428.122 62.64 427.646 62.64C427.17 62.64 426.96 62.892 426.96 63.27V63.452C426.96 63.83 427.17 64.082 427.646 64.082ZM427.086 73H428.206V65.776H427.086V73ZM433.476 73.168C435.408 73.168 436.738 71.684 436.738 69.388C436.738 67.092 435.408 65.608 433.476 65.608C431.544 65.608 430.214 67.092 430.214 69.388C430.214 71.684 431.544 73.168 433.476 73.168ZM433.476 72.174C432.272 72.174 431.418 71.432 431.418 69.906V68.87C431.418 67.344 432.272 66.602 433.476 66.602C434.68 66.602 435.534 67.344 435.534 68.87V69.906C435.534 71.432 434.68 72.174 433.476 72.174ZM439.86 73V67.988C439.86 67.064 440.728 66.616 441.624 66.616C442.702 66.616 443.262 67.274 443.262 68.562V73H444.382V68.366C444.382 66.616 443.444 65.608 441.96 65.608C440.882 65.608 440.266 66.14 439.916 66.952H439.86V65.776H438.74V73H439.86Z" fill="white"/>
<path d="M68.9774 63L72.2674 53.228H71.0494L69.4254 58.156L68.3194 61.824H68.2494L67.1714 58.156L65.5614 53.228H64.3014L67.5494 63H68.9774ZM79.3588 63V62.02H78.5328V58.044C78.5328 56.518 77.4968 55.608 75.7608 55.608C74.4588 55.608 73.5908 56.252 73.1988 57.022L73.8708 57.652C74.2628 56.994 74.8368 56.574 75.7048 56.574C76.8528 56.574 77.4128 57.134 77.4128 58.156V58.87H75.9848C73.8848 58.87 72.9048 59.626 72.9048 60.984C72.9048 62.328 73.8008 63.168 75.3268 63.168C76.3348 63.168 77.1048 62.706 77.4128 61.824H77.4828C77.5668 62.496 77.9028 63 78.7288 63H79.3588ZM75.5088 62.216C74.6408 62.216 74.0808 61.81 74.0808 61.096V60.802C74.0808 60.102 74.6548 59.71 75.9288 59.71H77.4128V60.9C77.4128 61.642 76.6148 62.216 75.5088 62.216ZM82.2373 63V58.1C82.2373 57.414 82.9653 56.896 84.1693 56.896H84.8273V55.776H84.3933C83.2173 55.776 82.5593 56.42 82.3073 57.106H82.2373V55.776H81.1173V63H82.2373ZM86.9779 54.082C87.4539 54.082 87.6639 53.83 87.6639 53.452V53.27C87.6639 52.892 87.4539 52.64 86.9779 52.64C86.5019 52.64 86.2919 52.892 86.2919 53.27V53.452C86.2919 53.83 86.5019 54.082 86.9779 54.082ZM86.4179 63H87.5379V55.776H86.4179V63ZM95.9579 63V62.02H95.1319V58.044C95.1319 56.518 94.0959 55.608 92.3599 55.608C91.0579 55.608 90.1899 56.252 89.7979 57.022L90.4699 57.652C90.8619 56.994 91.4359 56.574 92.3039 56.574C93.4519 56.574 94.0119 57.134 94.0119 58.156V58.87H92.5839C90.4839 58.87 89.5039 59.626 89.5039 60.984C89.5039 62.328 90.3999 63.168 91.9259 63.168C92.9339 63.168 93.7039 62.706 94.0119 61.824H94.0819C94.1659 62.496 94.5019 63 95.3279 63H95.9579ZM92.1079 62.216C91.2399 62.216 90.6799 61.81 90.6799 61.096V60.802C90.6799 60.102 91.2539 59.71 92.5279 59.71H94.0119V60.9C94.0119 61.642 93.2139 62.216 92.1079 62.216ZM100.712 63V62.02H99.2424V56.756H100.824V55.776H99.2424V53.774H98.2344V55.118C98.2344 55.608 98.0804 55.776 97.6044 55.776H96.9324V56.756H98.1224V61.81C98.1224 62.51 98.5424 63 99.3124 63H100.712ZM103.345 54.082C103.821 54.082 104.031 53.83 104.031 53.452V53.27C104.031 52.892 103.821 52.64 103.345 52.64C102.869 52.64 102.659 52.892 102.659 53.27V53.452C102.659 53.83 102.869 54.082 103.345 54.082ZM102.785 63H103.905V55.776H102.785V63ZM109.175 63.168C111.107 63.168 112.437 61.684 112.437 59.388C112.437 57.092 111.107 55.608 109.175 55.608C107.243 55.608 105.913 57.092 105.913 59.388C105.913 61.684 107.243 63.168 109.175 63.168ZM109.175 62.174C107.971 62.174 107.117 61.432 107.117 59.906V58.87C107.117 57.344 107.971 56.602 109.175 56.602C110.379 56.602 111.233 57.344 111.233 58.87V59.906C111.233 61.432 110.379 62.174 109.175 62.174ZM115.559 63V57.988C115.559 57.064 116.427 56.616 117.323 56.616C118.401 56.616 118.961 57.274 118.961 58.562V63H120.081V58.366C120.081 56.616 119.143 55.608 117.659 55.608C116.581 55.608 115.965 56.14 115.615 56.952H115.559V55.776H114.439V63H115.559ZM128.436 63V62.02H127.61V58.044C127.61 56.518 126.574 55.608 124.838 55.608C123.536 55.608 122.668 56.252 122.276 57.022L122.948 57.652C123.34 56.994 123.914 56.574 124.782 56.574C125.93 56.574 126.49 57.134 126.49 58.156V58.87H125.062C122.962 58.87 121.982 59.626 121.982 60.984C121.982 62.328 122.878 63.168 124.404 63.168C125.412 63.168 126.182 62.706 126.49 61.824H126.56C126.644 62.496 126.98 63 127.806 63H128.436ZM124.586 62.216C123.718 62.216 123.158 61.81 123.158 61.096V60.802C123.158 60.102 123.732 59.71 125.006 59.71H126.49V60.9C126.49 61.642 125.692 62.216 124.586 62.216ZM132.378 63V62.02H131.314V52.64H130.194V61.838C130.194 62.51 130.614 63 131.384 63H132.378ZM53.3045 84.316H51.8065V83.126C53.9485 82.832 55.2925 81.096 55.2925 78.114C55.2925 74.838 53.6685 73.06 51.1485 73.06C48.6285 73.06 47.0045 74.838 47.0045 78.114C47.0045 81.18 48.4325 82.944 50.6865 83.154V84.148C50.6865 84.806 51.0925 85.296 51.8625 85.296H53.3045V84.316ZM51.1485 82.118C49.4545 82.118 48.2645 80.858 48.2645 78.926V77.302C48.2645 75.37 49.4545 74.11 51.1485 74.11C52.8425 74.11 54.0325 75.37 54.0325 77.302V78.926C54.0325 80.858 52.8425 82.118 51.1485 82.118ZM61.9066 83H63.0266V75.776H61.9066V80.774C61.9066 81.726 61.0386 82.16 60.1566 82.16C59.0786 82.16 58.5046 81.502 58.5046 80.214V75.776H57.3846V80.41C57.3846 82.16 58.3366 83.168 59.8206 83.168C61.0246 83.168 61.5706 82.51 61.8506 81.824H61.9066V83ZM71.4516 83V82.02H70.6256V78.044C70.6256 76.518 69.5896 75.608 67.8536 75.608C66.5516 75.608 65.6836 76.252 65.2916 77.022L65.9636 77.652C66.3556 76.994 66.9296 76.574 67.7976 76.574C68.9456 76.574 69.5056 77.134 69.5056 78.156V78.87H68.0776C65.9776 78.87 64.9976 79.626 64.9976 80.984C64.9976 82.328 65.8936 83.168 67.4196 83.168C68.4276 83.168 69.1976 82.706 69.5056 81.824H69.5756C69.6596 82.496 69.9956 83 70.8216 83H71.4516ZM67.6016 82.216C66.7336 82.216 66.1736 81.81 66.1736 81.096V80.802C66.1736 80.102 66.7476 79.71 68.0216 79.71H69.5056V80.9C69.5056 81.642 68.7076 82.216 67.6016 82.216ZM74.3302 83V77.988C74.3302 77.064 75.1982 76.616 76.0942 76.616C77.1722 76.616 77.7322 77.274 77.7322 78.562V83H78.8522V78.366C78.8522 76.616 77.9142 75.608 76.4302 75.608C75.3522 75.608 74.7362 76.14 74.3862 76.952H74.3302V75.776H73.2102V83H74.3302ZM84.3232 83V82.02H82.8532V76.756H84.4352V75.776H82.8532V73.774H81.8452V75.118C81.8452 75.608 81.6912 75.776 81.2152 75.776H80.5432V76.756H81.7332V81.81C81.7332 82.51 82.1532 83 82.9232 83H84.3232ZM90.8474 83H91.9674V75.776H90.8474V80.774C90.8474 81.726 89.9794 82.16 89.0974 82.16C88.0194 82.16 87.4454 81.502 87.4454 80.214V75.776H86.3254V80.41C86.3254 82.16 87.2774 83.168 88.7614 83.168C89.9654 83.168 90.5114 82.51 90.7914 81.824H90.8474V83ZM95.6324 83V77.988C95.6324 77.064 96.4724 76.616 97.3544 76.616C98.4184 76.616 98.9084 77.274 98.9084 78.562V83H100.028V77.988C100.028 77.064 100.84 76.616 101.722 76.616C102.814 76.616 103.304 77.288 103.304 78.562V83H104.424V78.366C104.424 76.616 103.542 75.608 102.072 75.608C100.84 75.608 100.14 76.294 99.8744 77.078H99.8464C99.4544 76.042 98.5864 75.608 97.6344 75.608C96.5144 75.608 96.0104 76.21 95.6884 76.952H95.6324V75.776H94.5124V83H95.6324ZM113.92 83.168C115.544 83.168 116.734 82.314 117.35 80.942L116.412 80.354C116.02 81.418 115.166 82.118 113.92 82.118C112.24 82.118 111.246 80.9 111.246 78.898V77.442C111.246 75.44 112.24 74.11 113.92 74.11C115.124 74.11 115.936 74.768 116.328 75.776L117.28 75.202C116.664 73.844 115.544 73.06 113.92 73.06C111.456 73.06 109.986 74.908 109.986 78.17C109.986 81.432 111.456 83.168 113.92 83.168ZM119.779 74.082C120.255 74.082 120.465 73.83 120.465 73.452V73.27C120.465 72.892 120.255 72.64 119.779 72.64C119.303 72.64 119.093 72.892 119.093 73.27V73.452C119.093 73.83 119.303 74.082 119.779 74.082ZM119.219 83H120.339V75.776H119.219V83ZM123.999 83V78.1C123.999 77.414 124.727 76.896 125.931 76.896H126.589V75.776H126.155C124.979 75.776 124.321 76.42 124.069 77.106H123.999V75.776H122.879V83H123.999ZM130.799 83.168C132.171 83.168 133.109 82.496 133.571 81.46L132.759 80.914C132.367 81.74 131.709 82.174 130.799 82.174C129.469 82.174 128.783 81.264 128.783 80.004V78.772C128.783 77.512 129.469 76.602 130.799 76.602C131.681 76.602 132.297 77.036 132.563 77.778L133.501 77.302C133.081 76.308 132.227 75.608 130.799 75.608C128.769 75.608 127.579 77.078 127.579 79.388C127.579 81.698 128.769 83.168 130.799 83.168ZM139.764 83H140.884V75.776H139.764V80.774C139.764 81.726 138.896 82.16 138.014 82.16C136.936 82.16 136.362 81.502 136.362 80.214V75.776H135.242V80.41C135.242 82.16 136.194 83.168 137.678 83.168C138.882 83.168 139.428 82.51 139.708 81.824H139.764V83ZM143.989 74.082C144.465 74.082 144.675 73.83 144.675 73.452V73.27C144.675 72.892 144.465 72.64 143.989 72.64C143.513 72.64 143.303 72.892 143.303 73.27V73.452C143.303 73.83 143.513 74.082 143.989 74.082ZM143.429 83H144.549V75.776H143.429V83ZM150.085 83V82.02H148.615V76.756H150.197V75.776H148.615V73.774H147.607V75.118C147.607 75.608 147.453 75.776 146.977 75.776H146.305V76.756H147.495V81.81C147.495 82.51 147.915 83 148.685 83H150.085Z" fill="white"/>
<path d="M216 76L220 74.5L216 73V76Z" fill="#343A3F"/>
<line x1="216" y1="74.5" x2="190" y2="74.5" stroke="#343A3F"/>
<path d="M310 75L314 73.5L310 72V75Z" fill="#343A3F"/>
<line x1="310" y1="73.5" x2="284" y2="73.5" stroke="#343A3F"/>
<path d="M107.5 137L106 133L104.5 137H107.5Z" fill="#343A3F"/>
<line x1="106" y1="137" x2="106" y2="148" stroke="#343A3F"/>
<path d="M408 137V154C408 156.761 405.761 159 403 159H111C108.239 159 106 156.761 106 154V137" stroke="#343A3F"/>
</g>
<defs>
<clipPath id="clip0_1125_21015">
<rect width="504" height="183" fill="white"/>
</clipPath>
</defs>
</svg>
