<svg width="704" height="387" viewBox="0 0 704 387" fill="none" xmlns="http://www.w3.org/2000/svg">
<rect width="704" height="387" fill="white"/>
<path d="M603.5 315L391.635 315C389.877 315 388.248 314.076 387.345 312.567L342.381 237.432C341.478 235.924 339.849 235 338.091 235L91.0005 235" stroke="#343A3F"/>
<path d="M604.5 235L392.342 235C390.562 235 388.916 235.947 388.02 237.486L344.367 312.514C343.472 314.053 341.826 315 340.046 315L91.0005 315" stroke="#343A3F"/>
<path d="M604.37 236.5L608.37 235L604.37 233.5V236.5Z" fill="#343A3F"/>
<line x1="604.37" y1="235" x2="584.37" y2="235" stroke="#343A3F"/>
<path d="M604.37 316.5L608.37 315L604.37 313.5V316.5Z" fill="#343A3F"/>
<line x1="604.37" y1="315" x2="584.37" y2="315" stroke="#343A3F"/>
<circle cx="48" cy="76" r="24" fill="#DDE1E6"/>
<circle cx="47.7522" cy="76.6825" r="13.5" transform="rotate(-67.831 47.7522 76.6825)" fill="#BE95FF" stroke="#491D8B"/>
<path d="M56.5885 81.4974L60.8588 81.6176L57.7205 78.7192L56.5885 81.4974Z" fill="#491D8B"/>
<line x1="57.1546" y1="80.1085" x2="46.0417" y2="75.5805" stroke="#491D8B"/>
<circle cx="655.641" cy="76" r="24" fill="#DDE1E6"/>
<circle cx="655.393" cy="76.6825" r="13.5" transform="rotate(-67.831 655.393 76.6825)" fill="#BE95FF" stroke="#491D8B"/>
<path d="M664.23 81.4974L668.5 81.6176L665.362 78.7192L664.23 81.4974Z" fill="#491D8B"/>
<line x1="664.796" y1="80.1085" x2="653.683" y2="75.5805" stroke="#491D8B"/>
<path d="M43.2255 117.168C45.5635 117.168 46.5855 115.306 46.5855 112.114C46.5855 108.922 45.5635 107.06 43.2255 107.06C40.8875 107.06 39.8655 108.922 39.8655 112.114C39.8655 115.306 40.8875 117.168 43.2255 117.168ZM43.2255 116.146C41.6995 116.146 41.0975 114.802 41.0975 112.912V111.316C41.0975 109.426 41.6995 108.082 43.2255 108.082C44.7515 108.082 45.3535 109.426 45.3535 111.316V112.912C45.3535 114.802 44.7515 116.146 43.2255 116.146ZM51.78 117.168C54.118 117.168 55.14 115.306 55.14 112.114C55.14 108.922 54.118 107.06 51.78 107.06C49.442 107.06 48.42 108.922 48.42 112.114C48.42 115.306 49.442 117.168 51.78 117.168ZM51.78 116.146C50.254 116.146 49.652 114.802 49.652 112.912V111.316C49.652 109.426 50.254 108.082 51.78 108.082C53.306 108.082 53.908 109.426 53.908 111.316V112.912C53.908 114.802 53.306 116.146 51.78 116.146Z" fill="black"/>
<path d="M651.225 117.168C653.563 117.168 654.585 115.306 654.585 112.114C654.585 108.922 653.563 107.06 651.225 107.06C648.887 107.06 647.865 108.922 647.865 112.114C647.865 115.306 648.887 117.168 651.225 117.168ZM651.225 116.146C649.699 116.146 649.097 114.802 649.097 112.912V111.316C649.097 109.426 649.699 108.082 651.225 108.082C652.751 108.082 653.353 109.426 653.353 111.316V112.912C653.353 114.802 652.751 116.146 651.225 116.146ZM659.78 117.168C662.118 117.168 663.14 115.306 663.14 112.114C663.14 108.922 662.118 107.06 659.78 107.06C657.442 107.06 656.42 108.922 656.42 112.114C656.42 115.306 657.442 117.168 659.78 117.168ZM659.78 116.146C658.254 116.146 657.652 114.802 657.652 112.912V111.316C657.652 109.426 658.254 108.082 659.78 108.082C661.306 108.082 661.908 109.426 661.908 111.316V112.912C661.908 114.802 661.306 116.146 659.78 116.146Z" fill="black"/>
<path d="M43.2255 199.168C45.5635 199.168 46.5855 197.306 46.5855 194.114C46.5855 190.922 45.5635 189.06 43.2255 189.06C40.8875 189.06 39.8655 190.922 39.8655 194.114C39.8655 197.306 40.8875 199.168 43.2255 199.168ZM43.2255 198.146C41.6995 198.146 41.0975 196.802 41.0975 194.912V193.316C41.0975 191.426 41.6995 190.082 43.2255 190.082C44.7515 190.082 45.3535 191.426 45.3535 193.316V194.912C45.3535 196.802 44.7515 198.146 43.2255 198.146ZM55.238 199V197.964H52.718V189.228H50.884L48.294 191.65L48.98 192.392L51.444 190.096H51.542V197.964H48.812V199H55.238Z" fill="black"/>
<path d="M651.225 199.168C653.563 199.168 654.585 197.306 654.585 194.114C654.585 190.922 653.563 189.06 651.225 189.06C648.887 189.06 647.865 190.922 647.865 194.114C647.865 197.306 648.887 199.168 651.225 199.168ZM651.225 198.146C649.699 198.146 649.097 196.802 649.097 194.912V193.316C649.097 191.426 649.699 190.082 651.225 190.082C652.751 190.082 653.353 191.426 653.353 193.316V194.912C653.353 196.802 652.751 198.146 651.225 198.146ZM663.238 199V197.964H660.718V189.228H658.884L656.294 191.65L656.98 192.392L659.444 190.096H659.542V197.964H656.812V199H663.238Z" fill="black"/>
<path d="M46.6835 277V275.964H44.1635V267.228H42.3295L39.7395 269.65L40.4255 270.392L42.8895 268.096H42.9875V275.964H40.2575V277H46.6835ZM51.78 277.168C54.118 277.168 55.14 275.306 55.14 272.114C55.14 268.922 54.118 267.06 51.78 267.06C49.442 267.06 48.42 268.922 48.42 272.114C48.42 275.306 49.442 277.168 51.78 277.168ZM51.78 276.146C50.254 276.146 49.652 274.802 49.652 272.912V271.316C49.652 269.426 50.254 268.082 51.78 268.082C53.306 268.082 53.908 269.426 53.908 271.316V272.912C53.908 274.802 53.306 276.146 51.78 276.146Z" fill="black"/>
<path d="M654.683 277V275.964H652.163V267.228H650.329L647.739 269.65L648.425 270.392L650.889 268.096H650.987V275.964H648.257V277H654.683ZM659.78 277.168C662.118 277.168 663.14 275.306 663.14 272.114C663.14 268.922 662.118 267.06 659.78 267.06C657.442 267.06 656.42 268.922 656.42 272.114C656.42 275.306 657.442 277.168 659.78 277.168ZM659.78 276.146C658.254 276.146 657.652 274.802 657.652 272.912V271.316C657.652 269.426 658.254 268.082 659.78 268.082C661.306 268.082 661.908 269.426 661.908 271.316V272.912C661.908 274.802 661.306 276.146 659.78 276.146Z" fill="black"/>
<path d="M46.6835 355V353.964H44.1635V345.228H42.3295L39.7395 347.65L40.4255 348.392L42.8895 346.096H42.9875V353.964H40.2575V355H46.6835ZM55.238 355V353.964H52.718V345.228H50.884L48.294 347.65L48.98 348.392L51.444 346.096H51.542V353.964H48.812V355H55.238Z" fill="black"/>
<path d="M654.683 355V353.964H652.163V345.228H650.329L647.739 347.65L648.425 348.392L650.889 346.096H650.987V353.964H648.257V355H654.683ZM663.238 355V353.964H660.718V345.228H658.884L656.294 347.65L656.98 348.392L659.444 346.096H659.542V353.964H656.812V355H663.238Z" fill="black"/>
<circle cx="48" cy="236" r="24" fill="#DDE1E6"/>
<path d="M58.2813 235.256C58.4163 240.658 54.1465 245.147 48.7444 245.282C43.3424 245.417 38.8537 241.147 38.7187 235.745C38.5837 230.343 42.8535 225.854 48.2556 225.719C53.6577 225.584 58.1463 229.854 58.2813 235.256Z" fill="#BE95FF" stroke="#491D8B"/>
<path d="M47.2999 241.816L48.8994 245.778L50.299 241.741L47.2999 241.816Z" fill="#491D8B"/>
<line x1="48.7995" y1="241.779" x2="48.5996" y2="233.782" stroke="#491D8B"/>
<circle cx="655.641" cy="314" r="24" fill="#DDE1E6"/>
<path d="M665.922 313.256C666.057 318.658 661.788 323.147 656.386 323.282C650.983 323.417 646.495 319.147 646.36 313.745C646.225 308.343 650.495 303.854 655.897 303.719C661.299 303.584 665.787 307.854 665.922 313.256Z" fill="#BE95FF" stroke="#491D8B"/>
<path d="M654.941 319.816L656.541 323.778L657.94 319.741L654.941 319.816Z" fill="#491D8B"/>
<line x1="656.441" y1="319.779" x2="656.241" y2="311.782" stroke="#491D8B"/>
<circle cx="48" cy="158" r="24" fill="#DDE1E6"/>
<circle cx="48.2265" cy="157.44" r="17.5" transform="rotate(147.34 48.2265 157.44)" fill="#BE95FF" stroke="#491D8B"/>
<path d="M42.2502 144.642L38.8287 142.084L39.7245 146.261L42.2502 144.642Z" fill="#491D8B"/>
<line x1="40.9873" y1="145.451" x2="49.6218" y2="158.922" stroke="#491D8B"/>
<circle cx="655.641" cy="158" r="24" fill="#DDE1E6"/>
<circle cx="655.868" cy="157.44" r="17.5" transform="rotate(147.34 655.868 157.44)" fill="#BE95FF" stroke="#491D8B"/>
<path d="M649.891 144.642L646.47 142.084L647.366 146.261L649.891 144.642Z" fill="#491D8B"/>
<line x1="648.628" y1="145.451" x2="657.263" y2="158.922" stroke="#491D8B"/>
<circle cx="48" cy="314" r="24" fill="#DDE1E6"/>
<path d="M42.0311 321.231C37.7613 317.659 37.196 311.301 40.7686 307.031C44.3411 302.762 50.6985 302.196 54.9683 305.769C59.2381 309.341 59.8034 315.699 56.2309 319.969C52.6584 324.238 46.3009 324.804 42.0311 321.231Z" fill="#BE95FF" stroke="#491D8B"/>
<path d="M44.3123 308.251L40.2819 306.834L42.3871 310.552L44.3123 308.251Z" fill="#491D8B"/>
<line x1="43.3497" y1="309.401" x2="49.4853" y2="314.535" stroke="#491D8B"/>
<circle cx="655.641" cy="236" r="24" fill="#DDE1E6"/>
<path d="M649.672 243.231C645.402 239.659 644.837 233.301 648.41 229.031C651.982 224.762 658.34 224.196 662.609 227.769C666.879 231.341 667.445 237.699 663.872 241.969C660.299 246.238 653.942 246.804 649.672 243.231Z" fill="#BE95FF" stroke="#491D8B"/>
<path d="M651.953 230.251L647.923 228.834L650.028 232.552L651.953 230.251Z" fill="#491D8B"/>
<line x1="650.991" y1="231.401" x2="657.126" y2="236.535" stroke="#491D8B"/>
<path d="M64 49H77C78.6569 49 80 50.3431 80 52V368C80 369.657 78.6569 371 77 371H66.5" stroke="#343A3F"/>
<path d="M32 49H19C17.3431 49 16 50.3431 16 52V368C16 369.657 17.3431 371 19 371H29.5" stroke="#343A3F"/>
<path d="M672 49H685C686.657 49 688 50.3431 688 52V368C688 369.657 686.657 371 685 371H674.5" stroke="#343A3F"/>
<path d="M640 49H627C625.343 49 624 50.3431 624 52V368C624 369.657 625.343 371 627 371H637.5" stroke="#343A3F"/>
<path d="M604.37 77L608.37 75.5L604.37 74V77Z" fill="#343A3F"/>
<line x1="604.37" y1="75.5" x2="584.37" y2="75.5" stroke="#343A3F"/>
<line x1="585" y1="75.5" x2="91" y2="75.5" stroke="black"/>
<path d="M604.37 159L608.37 157.5L604.37 156V159Z" fill="#343A3F"/>
<line x1="604.37" y1="157.5" x2="584.37" y2="157.5" stroke="#343A3F"/>
<line x1="585" y1="157.5" x2="91" y2="157.5" stroke="black"/>
<path d="M37.5 35.9751H37.45C37.25 35.9751 37.1 35.8584 37 35.6251V23.4751L37.025 11.3251C37.1917 11.1084 37.35 11.0001 37.5 11.0001C37.7167 11.0001 37.8833 11.1251 38 11.3751V35.6251C37.8667 35.8584 37.7167 35.9751 37.55 35.9751H37.5Z" fill="black"/>
<path d="M45 18.725C45.6833 18.725 46.225 18.925 46.625 19.325C47.025 19.725 47.225 20.2167 47.225 20.8C47.225 21.1333 46.9583 22.0167 46.425 23.45C45.8917 24.8833 45.6333 25.925 45.65 26.575C45.7 27.275 45.925 27.825 46.325 28.225C46.675 28.525 47.0333 28.725 47.4 28.825C47.7 28.9583 47.9583 29.025 48.175 29.025H48.2L50.25 20.75C51.65 15.2333 52.3583 12.4667 52.375 12.45C52.425 12.4167 52.5583 12.4 52.775 12.4C53.1083 12.4 53.275 12.4583 53.275 12.575C53.275 12.725 52.6 15.4833 51.25 20.85C49.8833 26.3167 49.2 29.0583 49.2 29.075C49.2 29.0917 49.25 29.1 49.35 29.1C50.7833 29.1 52.1417 28.3667 53.425 26.9C54.7083 25.4333 55.3583 24.0667 55.375 22.8C55.375 22.4 55.3083 22.0583 55.175 21.775C55.0417 21.4917 54.8917 21.2917 54.725 21.175C54.5583 21.0583 54.4083 20.9083 54.275 20.725C54.1417 20.5417 54.075 20.35 54.075 20.15C54.075 19.8 54.2167 19.4667 54.5 19.15C54.7833 18.8333 55.1333 18.675 55.55 18.675C55.8667 18.675 56.1583 18.825 56.425 19.125C56.6917 19.425 56.825 19.9167 56.825 20.6C56.825 21.0833 56.7333 21.7333 56.55 22.55C56.3667 23.3667 56.2167 23.9333 56.1 24.25C55.5667 25.8333 54.625 27.1917 53.275 28.325C51.925 29.4583 50.5667 30.025 49.2 30.025H48.95L48.375 32.35C47.975 33.9167 47.775 34.7083 47.775 34.725C47.7417 34.825 47.575 34.875 47.275 34.875H46.95C46.85 34.775 46.8 34.7083 46.8 34.675C46.8 34.5917 46.9917 33.8 47.375 32.3C47.7583 30.8 47.95 30.025 47.95 29.975C47.8333 29.9583 47.7167 29.95 47.6 29.95C44.95 29.5833 43.625 28.3583 43.625 26.275C43.625 25.6917 43.9 24.65 44.45 23.15C45 21.65 45.2833 20.6917 45.3 20.275C45.3 20.2583 45.3 20.2417 45.3 20.225C45.3 20.075 45.3 19.975 45.3 19.925C45.3 19.875 45.2667 19.8167 45.2 19.75C45.1333 19.6833 45.0417 19.65 44.925 19.65H44.825C44.4417 19.65 44.0917 19.8083 43.775 20.125C43.4583 20.4417 43.2083 20.7833 43.025 21.15C42.8417 21.5167 42.7 21.8667 42.6 22.2C42.5 22.5333 42.4333 22.7167 42.4 22.75C42.3667 22.7833 42.2333 22.8 42 22.8H41.65C41.55 22.7 41.5 22.625 41.5 22.575C41.5 22.375 41.6083 21.9917 41.825 21.425C42.0417 20.8583 42.4417 20.2667 43.025 19.65C43.6083 19.0333 44.2667 18.725 45 18.725Z" fill="black"/>
<path d="M58.625 11.45C58.6417 11.3333 58.6917 11.2333 58.775 11.15C58.8583 11.0667 58.975 11.0167 59.125 11C59.2917 11 59.4333 11.0833 59.55 11.25C59.6 11.3667 60.3833 13.4167 61.9 17.4C63.4167 21.3833 64.1833 23.4167 64.2 23.5C64.2167 23.5833 63.4583 25.6167 61.925 29.6C60.3917 33.5833 59.6 35.6333 59.55 35.75C59.4333 35.9167 59.2917 36 59.125 36C58.9917 36 58.8833 35.9583 58.8 35.875C58.7167 35.7917 58.6583 35.6833 58.625 35.55C58.625 35.4667 59.375 33.4417 60.875 29.475C62.3917 25.525 63.15 23.5333 63.15 23.5C63.15 23.4667 62.3917 21.475 60.875 17.525C59.375 13.5583 58.625 11.5333 58.625 11.45Z" fill="black"/>
<path d="M330 26.1524C330 24.7068 330.277 23.3789 330.832 22.1687C331.387 20.9585 332.101 19.992 332.975 19.2692C333.849 18.5464 334.765 17.9918 335.723 17.6052C336.681 17.2186 337.589 17.0169 338.446 17C338.497 17 338.572 17 338.673 17C338.774 17 338.841 17.0085 338.875 17.0253C340.405 17.0253 341.758 17.5968 342.934 18.7397L343.262 19.0423L344.018 18.059C344.472 17.4371 344.733 17.0925 344.8 17.0253C344.817 17.0253 344.85 17.0253 344.901 17.0253C344.951 17.0253 345.002 17.0169 345.052 17H345.153C345.203 17 345.279 17.0505 345.38 17.1513V24.211L345.229 24.3622H344.371C344.271 24.2614 344.212 24.1185 344.195 23.9336C344.044 22.5553 343.64 21.3619 342.985 20.3534C342.329 19.3449 341.531 18.6809 340.589 18.3615C340.27 18.2439 339.85 18.1851 339.329 18.1851C337.581 18.1851 336.118 18.7734 334.942 19.95C333.614 21.2779 332.95 23.3453 332.95 26.1524C332.95 28.1862 333.269 29.7914 333.908 30.9681C334.261 31.6404 334.698 32.2035 335.219 32.6573C335.74 33.1112 336.286 33.4389 336.858 33.6406C337.429 33.8423 337.9 33.9768 338.27 34.044C338.64 34.1113 339.009 34.1533 339.379 34.1701C340.875 34.1701 342.077 33.5902 342.985 32.4304C343.892 31.2706 344.355 30.0016 344.371 28.6232C344.371 28.5056 344.422 28.3963 344.523 28.2955H345.229L345.38 28.4468V28.8249C345.296 30.5562 344.657 32.069 343.464 33.3633C342.27 34.6576 340.699 35.3047 338.749 35.3047C336.379 35.3047 334.328 34.4306 332.597 32.6825C330.866 30.9344 330 28.7577 330 26.1524Z" fill="black"/>
<path d="M347.851 33.6156C348.389 33.582 348.826 33.4979 349.162 33.3635C349.498 33.229 349.7 33.1197 349.767 33.0357C349.834 32.9516 349.918 32.8088 350.019 32.6071V18.7903H349.918C349.75 18.7399 349.145 18.7147 348.103 18.7147H347.422V17.5549H352.641L352.717 17.6305C352.751 17.6474 353.482 18.7063 354.911 20.8074C356.339 22.9085 357.777 25.018 359.222 27.1358L361.365 30.2875V19.698C361.264 19.5299 361.18 19.4039 361.113 19.3198C361.046 19.2358 360.844 19.1181 360.508 18.9668C360.172 18.8156 359.735 18.7315 359.197 18.7147H358.768V17.5549H358.97C359.222 17.6053 360.205 17.6305 361.92 17.6305C363.702 17.6305 364.668 17.6053 364.819 17.5549H365.046V18.7147H364.618C363.391 18.7819 362.676 19.1097 362.475 19.698L362.449 27.1611V34.6241L362.273 34.7754H361.92C361.668 34.7754 361.516 34.7502 361.466 34.6998C361.416 34.6493 360.567 33.4139 358.919 30.9934C357.272 28.573 355.6 26.1105 353.902 23.606C352.204 21.1015 351.272 19.74 351.103 19.5215V26.0769L351.129 32.6071C351.314 33.2122 352.028 33.5484 353.272 33.6156H353.7V34.7754H353.473C353.221 34.725 352.255 34.6998 350.574 34.6998C348.86 34.6998 347.876 34.725 347.624 34.7754H347.422V33.6156H347.851Z" fill="black"/>
<path d="M367.114 26.2029C367.114 24.8078 367.366 23.5135 367.87 22.3201C368.374 21.1267 369.03 20.1518 369.837 19.3954C370.644 18.639 371.534 18.0507 372.509 17.6305C373.484 17.2103 374.476 17.0002 375.484 17.0002C377.72 17.0002 379.678 17.8742 381.359 19.6223C383.04 21.3704 383.889 23.5555 383.906 26.1777C383.906 27.5392 383.662 28.7998 383.174 29.9596C382.687 31.1194 382.048 32.0943 381.258 32.8844C380.468 33.6744 379.569 34.2711 378.56 34.6745C377.552 35.0779 376.527 35.2964 375.484 35.33C374.442 35.3636 373.425 35.1535 372.434 34.6997C371.442 34.2459 370.543 33.6492 369.736 32.9096C368.929 32.17 368.299 31.2035 367.845 30.0101C367.391 28.8167 367.147 27.5476 367.114 26.2029ZM377.476 18.4625C376.787 18.16 376.123 18.0087 375.484 18.0087C375.014 18.0087 374.535 18.1011 374.047 18.286C373.56 18.4709 373.039 18.7567 372.484 19.1433C371.929 19.5299 371.459 20.1266 371.072 20.9334C370.686 21.7402 370.4 22.6647 370.215 23.7068C370.131 24.1775 370.089 24.8918 370.089 25.8499C370.089 29.3797 370.955 31.8422 372.686 33.2373C373.526 33.9265 374.434 34.2711 375.409 34.2711H375.51H375.56C376.955 34.2711 378.182 33.6071 379.241 32.2792C380.351 30.7833 380.905 28.6402 380.905 25.8499C380.905 24.8918 380.863 24.1775 380.779 23.7068C380.426 21.1351 379.325 19.387 377.476 18.4625Z" fill="black"/>
<path d="M386.225 23.606C386.242 23.522 386.326 22.5555 386.477 20.7065C386.629 18.8576 386.704 17.9079 386.704 17.8575V17.7062H402.109V17.8575C402.126 17.9415 402.21 18.908 402.361 20.757C402.513 22.6059 402.588 23.5556 402.588 23.606V23.7573H401.58V23.606C401.58 23.5724 401.555 23.2783 401.504 22.7236C401.454 22.1689 401.361 21.6142 401.227 21.0595C401.092 20.5048 400.916 20.093 400.697 19.8241C400.412 19.4711 399.949 19.2022 399.311 19.0173C398.958 18.9332 398.311 18.8912 397.369 18.8912H396.688H396.487C396.05 18.8912 395.806 18.992 395.756 19.1938C395.739 19.2274 395.73 21.5722 395.73 26.2282V33.187C395.848 33.3551 396.067 33.4643 396.386 33.5147C396.705 33.5652 397.453 33.5988 398.63 33.6156H399.386V34.7754H399.059L394.419 34.6998C391.478 34.7334 389.931 34.7586 389.78 34.7754H389.452V33.6156H390.209C391.385 33.6156 392.133 33.5904 392.453 33.54C392.772 33.4895 392.991 33.3719 393.108 33.187V26.2282V20.9082C393.108 19.7316 393.066 19.1013 392.982 19.0173C392.898 18.9332 392.621 18.8912 392.15 18.8912H391.469H390.965C389.789 18.8912 388.906 19.1349 388.318 19.6224C388.015 19.8913 387.797 20.2863 387.662 20.8074C387.528 21.3285 387.427 21.8999 387.36 22.5219C387.292 23.1438 387.25 23.5052 387.234 23.606V23.7573H386.225V23.606Z" fill="black"/>
<path d="M597 21.2004C597 19.7671 597.275 18.4504 597.825 17.2504C598.375 16.0504 599.083 15.0921 599.95 14.3754C600.817 13.6587 601.725 13.1087 602.675 12.7254C603.625 12.3421 604.525 12.1421 605.375 12.1254C605.425 12.1254 605.5 12.1254 605.6 12.1254C605.7 12.1254 605.767 12.1337 605.8 12.1504C607.317 12.1504 608.658 12.7171 609.825 13.8504L610.15 14.1504L610.9 13.1754C611.35 12.5587 611.608 12.2171 611.675 12.1504C611.692 12.1504 611.725 12.1504 611.775 12.1504C611.825 12.1504 611.875 12.1421 611.925 12.1254H612.025C612.075 12.1254 612.15 12.1754 612.25 12.2754V19.2754L612.1 19.4254H611.25C611.15 19.3254 611.092 19.1837 611.075 19.0004C610.925 17.6337 610.525 16.4504 609.875 15.4504C609.225 14.4504 608.433 13.7921 607.5 13.4754C607.183 13.3587 606.767 13.3004 606.25 13.3004C604.517 13.3004 603.067 13.8837 601.9 15.0504C600.583 16.3671 599.925 18.4171 599.925 21.2004C599.925 23.2171 600.242 24.8087 600.875 25.9754C601.225 26.6421 601.658 27.2004 602.175 27.6504C602.692 28.1004 603.233 28.4254 603.8 28.6254C604.367 28.8254 604.833 28.9587 605.2 29.0254C605.567 29.0921 605.933 29.1337 606.3 29.1504C607.783 29.1504 608.975 28.5754 609.875 27.4254C610.775 26.2754 611.233 25.0171 611.25 23.6504C611.25 23.5337 611.3 23.4254 611.4 23.3254H612.1L612.25 23.4754V23.8504C612.167 25.5671 611.533 27.0671 610.35 28.3504C609.167 29.6337 607.608 30.2754 605.675 30.2754C603.325 30.2754 601.292 29.4087 599.575 27.6754C597.858 25.9421 597 23.7837 597 21.2004Z" fill="black"/>
<path d="M614.7 28.6C615.233 28.5667 615.667 28.4833 616 28.35C616.333 28.2167 616.533 28.1083 616.6 28.025C616.667 27.9417 616.75 27.8 616.85 27.6V13.9H616.75C616.583 13.85 615.983 13.825 614.95 13.825H614.275V12.675H619.45L619.525 12.75C619.558 12.7667 620.283 13.8167 621.7 15.9C623.117 17.9833 624.542 20.075 625.975 22.175L628.1 25.3V14.8C628 14.6333 627.917 14.5083 627.85 14.425C627.783 14.3417 627.583 14.225 627.25 14.075C626.917 13.925 626.483 13.8417 625.95 13.825H625.525V12.675H625.725C625.975 12.725 626.95 12.75 628.65 12.75C630.417 12.75 631.375 12.725 631.525 12.675H631.75V13.825H631.325C630.108 13.8917 629.4 14.2167 629.2 14.8L629.175 22.2V29.6L629 29.75H628.65C628.4 29.75 628.25 29.725 628.2 29.675C628.15 29.625 627.308 28.4 625.675 26C624.042 23.6 622.383 21.1583 620.7 18.675C619.017 16.1917 618.092 14.8417 617.925 14.625V21.125L617.95 27.6C618.133 28.2 618.842 28.5333 620.075 28.6H620.5V29.75H620.275C620.025 29.7 619.067 29.675 617.4 29.675C615.7 29.675 614.725 29.7 614.475 29.75H614.275V28.6H614.7Z" fill="black"/>
<path d="M633.8 21.2503C633.8 19.8669 634.05 18.5836 634.55 17.4003C635.05 16.2169 635.7 15.2503 636.5 14.5003C637.3 13.7503 638.183 13.1669 639.15 12.7503C640.116 12.3336 641.1 12.1253 642.1 12.1253C644.316 12.1253 646.258 12.9919 647.925 14.7253C649.591 16.4586 650.433 18.6253 650.45 21.2253C650.45 22.5753 650.208 23.8253 649.725 24.9753C649.241 26.1253 648.608 27.0919 647.825 27.8753C647.041 28.6586 646.15 29.2503 645.15 29.6503C644.15 30.0503 643.133 30.2669 642.1 30.3003C641.066 30.3336 640.058 30.1253 639.075 29.6753C638.091 29.2253 637.2 28.6336 636.4 27.9003C635.6 27.1669 634.975 26.2086 634.525 25.0253C634.075 23.8419 633.833 22.5836 633.8 21.2503ZM644.075 13.5753C643.391 13.2753 642.733 13.1253 642.1 13.1253C641.633 13.1253 641.158 13.2169 640.675 13.4003C640.191 13.5836 639.675 13.8669 639.125 14.2503C638.575 14.6336 638.108 15.2253 637.725 16.0253C637.341 16.8253 637.058 17.7419 636.875 18.7753C636.791 19.2419 636.75 19.9503 636.75 20.9003C636.75 24.4003 637.608 26.8419 639.325 28.2253C640.158 28.9086 641.058 29.2503 642.025 29.2503H642.125H642.175C643.558 29.2503 644.775 28.5919 645.825 27.2753C646.925 25.7919 647.475 23.6669 647.475 20.9003C647.475 19.9503 647.433 19.2419 647.35 18.7753C647 16.2253 645.908 14.4919 644.075 13.5753Z" fill="black"/>
<path d="M652.75 18.675C652.767 18.5917 652.85 17.6333 653 15.8C653.15 13.9667 653.225 13.025 653.225 12.975V12.825H668.5V12.975C668.517 13.0583 668.6 14.0167 668.75 15.85C668.9 17.6833 668.975 18.625 668.975 18.675V18.825H667.975V18.675C667.975 18.6417 667.95 18.35 667.9 17.8C667.85 17.25 667.758 16.7 667.625 16.15C667.492 15.6 667.317 15.1917 667.1 14.925C666.817 14.575 666.358 14.3083 665.725 14.125C665.375 14.0417 664.733 14 663.8 14H663.125H662.925C662.492 14 662.25 14.1 662.2 14.3C662.183 14.3333 662.175 16.6583 662.175 21.275V28.175C662.292 28.3417 662.508 28.45 662.825 28.5C663.142 28.55 663.883 28.5833 665.05 28.6H665.8V29.75H665.475L660.875 29.675C657.958 29.7083 656.425 29.7333 656.275 29.75H655.95V28.6H656.7C657.867 28.6 658.608 28.575 658.925 28.525C659.242 28.475 659.458 28.3583 659.575 28.175V21.275V16C659.575 14.8333 659.533 14.2083 659.45 14.125C659.367 14.0417 659.092 14 658.625 14H657.95H657.45C656.283 14 655.408 14.2417 654.825 14.725C654.525 14.9917 654.308 15.3833 654.175 15.9C654.042 16.4167 653.942 16.9833 653.875 17.6C653.808 18.2167 653.767 18.575 653.75 18.675V18.825H652.75V18.675Z" fill="black"/>
<path d="M673.375 35.9751H673.325C673.125 35.9751 672.975 35.8584 672.875 35.6251V23.4751L672.9 11.3251C673.067 11.1084 673.225 11.0001 673.375 11.0001C673.592 11.0001 673.758 11.1251 673.875 11.3751V35.6251C673.742 35.8584 673.592 35.9751 673.425 35.9751H673.375Z" fill="black"/>
<path d="M680.875 18.725C681.558 18.725 682.1 18.925 682.5 19.325C682.9 19.725 683.1 20.2167 683.1 20.8C683.1 21.1333 682.833 22.0167 682.3 23.45C681.767 24.8833 681.508 25.925 681.525 26.575C681.575 27.275 681.8 27.825 682.2 28.225C682.55 28.525 682.908 28.725 683.275 28.825C683.575 28.9583 683.833 29.025 684.05 29.025H684.075L686.125 20.75C687.525 15.2333 688.233 12.4667 688.25 12.45C688.3 12.4167 688.433 12.4 688.65 12.4C688.983 12.4 689.15 12.4583 689.15 12.575C689.15 12.725 688.475 15.4833 687.125 20.85C685.758 26.3167 685.075 29.0583 685.075 29.075C685.075 29.0917 685.125 29.1 685.225 29.1C686.658 29.1 688.017 28.3667 689.3 26.9C690.583 25.4333 691.233 24.0667 691.25 22.8C691.25 22.4 691.183 22.0583 691.05 21.775C690.917 21.4917 690.767 21.2917 690.6 21.175C690.433 21.0583 690.283 20.9083 690.15 20.725C690.017 20.5417 689.95 20.35 689.95 20.15C689.95 19.8 690.092 19.4667 690.375 19.15C690.658 18.8333 691.008 18.675 691.425 18.675C691.742 18.675 692.033 18.825 692.3 19.125C692.567 19.425 692.7 19.9167 692.7 20.6C692.7 21.0833 692.608 21.7333 692.425 22.55C692.242 23.3667 692.092 23.9333 691.975 24.25C691.442 25.8333 690.5 27.1917 689.15 28.325C687.8 29.4583 686.442 30.025 685.075 30.025H684.825L684.25 32.35C683.85 33.9167 683.65 34.7083 683.65 34.725C683.617 34.825 683.45 34.875 683.15 34.875H682.825C682.725 34.775 682.675 34.7083 682.675 34.675C682.675 34.5917 682.867 33.8 683.25 32.3C683.633 30.8 683.825 30.025 683.825 29.975C683.708 29.9583 683.592 29.95 683.475 29.95C680.825 29.5833 679.5 28.3583 679.5 26.275C679.5 25.6917 679.775 24.65 680.325 23.15C680.875 21.65 681.158 20.6917 681.175 20.275C681.175 20.2583 681.175 20.2417 681.175 20.225C681.175 20.075 681.175 19.975 681.175 19.925C681.175 19.875 681.142 19.8167 681.075 19.75C681.008 19.6833 680.917 19.65 680.8 19.65H680.7C680.317 19.65 679.967 19.8083 679.65 20.125C679.333 20.4417 679.083 20.7833 678.9 21.15C678.717 21.5167 678.575 21.8667 678.475 22.2C678.375 22.5333 678.308 22.7167 678.275 22.75C678.242 22.7833 678.108 22.8 677.875 22.8H677.525C677.425 22.7 677.375 22.625 677.375 22.575C677.375 22.375 677.483 21.9917 677.7 21.425C677.917 20.8583 678.317 20.2667 678.9 19.65C679.483 19.0333 680.142 18.725 680.875 18.725Z" fill="black"/>
<path d="M694.5 11.45C694.517 11.3333 694.567 11.2333 694.65 11.15C694.733 11.0667 694.85 11.0167 695 11C695.167 11 695.308 11.0833 695.425 11.25C695.475 11.3667 696.258 13.4167 697.775 17.4C699.292 21.3833 700.058 23.4167 700.075 23.5C700.092 23.5833 699.333 25.6167 697.8 29.6C696.267 33.5833 695.475 35.6333 695.425 35.75C695.308 35.9167 695.167 36 695 36C694.867 36 694.758 35.9583 694.675 35.875C694.592 35.7917 694.533 35.6833 694.5 35.55C694.5 35.4667 695.25 33.4417 696.75 29.475C698.267 25.525 699.025 23.5333 699.025 23.5C699.025 23.4667 698.267 21.475 696.75 17.525C695.25 13.5583 694.5 11.5333 694.5 11.45Z" fill="black"/>
</svg>
