<svg width="704" height="387" viewBox="0 0 704 387" fill="none" xmlns="http://www.w3.org/2000/svg">
<rect width="704" height="387" fill="white"/>
<path d="M603.5 315L391.635 315C389.877 315 388.247 314.076 387.345 312.567L342.381 237.432C341.478 235.924 339.849 235 338.09 235L91 235" stroke="#343A3F"/>
<path d="M604.501 235L392.342 235C390.562 235 388.916 235.947 388.021 237.486L344.368 312.514C343.472 314.053 341.826 315 340.046 315L91.001 315" stroke="#343A3F"/>
<path d="M604.37 236.5L608.37 235L604.37 233.5V236.5Z" fill="#343A3F"/>
<line x1="604.37" y1="235" x2="584.37" y2="235" stroke="#343A3F"/>
<path d="M604.37 316.5L608.37 315L604.37 313.5V316.5Z" fill="#343A3F"/>
<line x1="604.37" y1="315" x2="584.37" y2="315" stroke="#343A3F"/>
<circle cx="48" cy="76" r="24" fill="#DDE1E6"/>
<circle cx="48.5" cy="75.5" r="13" transform="rotate(-90 48.5 75.5)" fill="#BE95FF" stroke="#491D8B"/>
<path d="M58 76.6562L62 75.1562L58 73.6562L58 76.6562Z" fill="#491D8B"/>
<line x1="58" y1="75.1562" x2="47" y2="75.1562" stroke="#491D8B"/>
<circle cx="656" cy="76" r="24" fill="#DDE1E6"/>
<circle cx="656.5" cy="75.5" r="13" transform="rotate(-90 656.5 75.5)" fill="#BE95FF" stroke="#491D8B"/>
<path d="M666 76.6562L670 75.1562L666 73.6562V76.6562Z" fill="#491D8B"/>
<line x1="666" y1="75.1562" x2="655" y2="75.1562" stroke="#491D8B"/>
<path d="M43.2255 117.168C45.5635 117.168 46.5855 115.306 46.5855 112.114C46.5855 108.922 45.5635 107.06 43.2255 107.06C40.8875 107.06 39.8655 108.922 39.8655 112.114C39.8655 115.306 40.8875 117.168 43.2255 117.168ZM43.2255 116.146C41.6995 116.146 41.0975 114.802 41.0975 112.912V111.316C41.0975 109.426 41.6995 108.082 43.2255 108.082C44.7515 108.082 45.3535 109.426 45.3535 111.316V112.912C45.3535 114.802 44.7515 116.146 43.2255 116.146ZM51.78 117.168C54.118 117.168 55.14 115.306 55.14 112.114C55.14 108.922 54.118 107.06 51.78 107.06C49.442 107.06 48.42 108.922 48.42 112.114C48.42 115.306 49.442 117.168 51.78 117.168ZM51.78 116.146C50.254 116.146 49.652 114.802 49.652 112.912V111.316C49.652 109.426 50.254 108.082 51.78 108.082C53.306 108.082 53.908 109.426 53.908 111.316V112.912C53.908 114.802 53.306 116.146 51.78 116.146Z" fill="black"/>
<path d="M651.225 117.168C653.563 117.168 654.585 115.306 654.585 112.114C654.585 108.922 653.563 107.06 651.225 107.06C648.887 107.06 647.865 108.922 647.865 112.114C647.865 115.306 648.887 117.168 651.225 117.168ZM651.225 116.146C649.699 116.146 649.097 114.802 649.097 112.912V111.316C649.097 109.426 649.699 108.082 651.225 108.082C652.751 108.082 653.353 109.426 653.353 111.316V112.912C653.353 114.802 652.751 116.146 651.225 116.146ZM659.78 117.168C662.118 117.168 663.14 115.306 663.14 112.114C663.14 108.922 662.118 107.06 659.78 107.06C657.442 107.06 656.42 108.922 656.42 112.114C656.42 115.306 657.442 117.168 659.78 117.168ZM659.78 116.146C658.254 116.146 657.652 114.802 657.652 112.912V111.316C657.652 109.426 658.254 108.082 659.78 108.082C661.306 108.082 661.908 109.426 661.908 111.316V112.912C661.908 114.802 661.306 116.146 659.78 116.146Z" fill="black"/>
<path d="M43.2255 199.168C45.5635 199.168 46.5855 197.306 46.5855 194.114C46.5855 190.922 45.5635 189.06 43.2255 189.06C40.8875 189.06 39.8655 190.922 39.8655 194.114C39.8655 197.306 40.8875 199.168 43.2255 199.168ZM43.2255 198.146C41.6995 198.146 41.0975 196.802 41.0975 194.912V193.316C41.0975 191.426 41.6995 190.082 43.2255 190.082C44.7515 190.082 45.3535 191.426 45.3535 193.316V194.912C45.3535 196.802 44.7515 198.146 43.2255 198.146ZM55.238 199V197.964H52.718V189.228H50.884L48.294 191.65L48.98 192.392L51.444 190.096H51.542V197.964H48.812V199H55.238Z" fill="black"/>
<path d="M651.225 199.168C653.563 199.168 654.585 197.306 654.585 194.114C654.585 190.922 653.563 189.06 651.225 189.06C648.887 189.06 647.865 190.922 647.865 194.114C647.865 197.306 648.887 199.168 651.225 199.168ZM651.225 198.146C649.699 198.146 649.097 196.802 649.097 194.912V193.316C649.097 191.426 649.699 190.082 651.225 190.082C652.751 190.082 653.353 191.426 653.353 193.316V194.912C653.353 196.802 652.751 198.146 651.225 198.146ZM663.238 199V197.964H660.718V189.228H658.884L656.294 191.65L656.98 192.392L659.444 190.096H659.542V197.964H656.812V199H663.238Z" fill="black"/>
<path d="M46.6835 277V275.964H44.1635V267.228H42.3295L39.7395 269.65L40.4255 270.392L42.8895 268.096H42.9875V275.964H40.2575V277H46.6835ZM51.78 277.168C54.118 277.168 55.14 275.306 55.14 272.114C55.14 268.922 54.118 267.06 51.78 267.06C49.442 267.06 48.42 268.922 48.42 272.114C48.42 275.306 49.442 277.168 51.78 277.168ZM51.78 276.146C50.254 276.146 49.652 274.802 49.652 272.912V271.316C49.652 269.426 50.254 268.082 51.78 268.082C53.306 268.082 53.908 269.426 53.908 271.316V272.912C53.908 274.802 53.306 276.146 51.78 276.146Z" fill="black"/>
<path d="M654.683 277V275.964H652.163V267.228H650.329L647.739 269.65L648.425 270.392L650.889 268.096H650.987V275.964H648.257V277H654.683ZM659.78 277.168C662.118 277.168 663.14 275.306 663.14 272.114C663.14 268.922 662.118 267.06 659.78 267.06C657.442 267.06 656.42 268.922 656.42 272.114C656.42 275.306 657.442 277.168 659.78 277.168ZM659.78 276.146C658.254 276.146 657.652 274.802 657.652 272.912V271.316C657.652 269.426 658.254 268.082 659.78 268.082C661.306 268.082 661.908 269.426 661.908 271.316V272.912C661.908 274.802 661.306 276.146 659.78 276.146Z" fill="black"/>
<path d="M46.6835 355V353.964H44.1635V345.228H42.3295L39.7395 347.65L40.4255 348.392L42.8895 346.096H42.9875V353.964H40.2575V355H46.6835ZM55.238 355V353.964H52.718V345.228H50.884L48.294 347.65L48.98 348.392L51.444 346.096H51.542V353.964H48.812V355H55.238Z" fill="black"/>
<path d="M654.683 355V353.964H652.163V345.228H650.329L647.739 347.65L648.425 348.392L650.889 346.096H650.987V353.964H648.257V355H654.683ZM663.238 355V353.964H660.718V345.228H658.884L656.294 347.65L656.98 348.392L659.444 346.096H659.542V353.964H656.812V355H663.238Z" fill="black"/>
<circle cx="48" cy="236" r="24" fill="#DDE1E6"/>
<circle cx="48.5" cy="235.5" r="13" transform="rotate(-90 48.5 235.5)" fill="#BE95FF" stroke="#491D8B"/>
<path d="M58 236.656L62 235.156L58 233.656L58 236.656Z" fill="#491D8B"/>
<line x1="58" y1="235.156" x2="47" y2="235.156" stroke="#491D8B"/>
<circle cx="656" cy="236" r="24" fill="#DDE1E6"/>
<circle cx="656.5" cy="235.5" r="13" transform="rotate(90 656.5 235.5)" fill="#BE95FF" stroke="#491D8B"/>
<path d="M647 234.344L643 235.844L647 237.344V234.344Z" fill="#491D8B"/>
<line x1="647" y1="235.844" x2="658" y2="235.844" stroke="#491D8B"/>
<circle cx="48" cy="158" r="24" fill="#DDE1E6"/>
<circle cx="48.5" cy="157.5" r="13" transform="rotate(90 48.5 157.5)" fill="#BE95FF" stroke="#491D8B"/>
<path d="M39 156.344L35 157.844L39 159.344L39 156.344Z" fill="#491D8B"/>
<line x1="39" y1="157.844" x2="50" y2="157.844" stroke="#491D8B"/>
<circle cx="656" cy="158" r="24" fill="#DDE1E6"/>
<circle cx="656.5" cy="157.5" r="13" transform="rotate(90 656.5 157.5)" fill="#BE95FF" stroke="#491D8B"/>
<path d="M647 156.344L643 157.844L647 159.344V156.344Z" fill="#491D8B"/>
<line x1="647" y1="157.844" x2="658" y2="157.844" stroke="#491D8B"/>
<circle cx="48" cy="314" r="24" fill="#DDE1E6"/>
<circle cx="48.5" cy="313.5" r="13" transform="rotate(90 48.5 313.5)" fill="#BE95FF" stroke="#491D8B"/>
<path d="M39 312.344L35 313.844L39 315.344L39 312.344Z" fill="#491D8B"/>
<line x1="39" y1="313.844" x2="50" y2="313.844" stroke="#491D8B"/>
<circle cx="656" cy="314" r="24" fill="#DDE1E6"/>
<circle cx="656.5" cy="313.5" r="13" transform="rotate(-90 656.5 313.5)" fill="#BE95FF" stroke="#491D8B"/>
<path d="M666 314.656L670 313.156L666 311.656V314.656Z" fill="#491D8B"/>
<line x1="666" y1="313.156" x2="655" y2="313.156" stroke="#491D8B"/>
<path d="M64 49H77C78.6569 49 80 50.3431 80 52V368C80 369.657 78.6569 371 77 371H66.5" stroke="#343A3F"/>
<path d="M32 49H19C17.3431 49 16 50.3431 16 52V368C16 369.657 17.3431 371 19 371H29.5" stroke="#343A3F"/>
<path d="M672 49H685C686.657 49 688 50.3431 688 52V368C688 369.657 686.657 371 685 371H674.5" stroke="#343A3F"/>
<path d="M640 49H627C625.343 49 624 50.3431 624 52V368C624 369.657 625.343 371 627 371H637.5" stroke="#343A3F"/>
<path d="M604.37 77L608.37 75.5L604.37 74V77Z" fill="#343A3F"/>
<line x1="604.37" y1="75.5" x2="584.37" y2="75.5" stroke="#343A3F"/>
<line x1="585" y1="75.5" x2="91" y2="75.5" stroke="black"/>
<path d="M604.37 159L608.37 157.5L604.37 156V159Z" fill="#343A3F"/>
<line x1="604.37" y1="157.5" x2="584.37" y2="157.5" stroke="#343A3F"/>
<line x1="585" y1="157.5" x2="91" y2="157.5" stroke="black"/>
<path d="M27.5 37.9751H27.45C27.25 37.9751 27.1 37.8584 27 37.6251V25.4751L27.025 13.3251C27.1917 13.1084 27.35 13.0001 27.5 13.0001C27.7167 13.0001 27.8833 13.1251 28 13.3751V37.6251C27.8667 37.8584 27.7167 37.9751 27.55 37.9751H27.5Z" fill="black"/>
<path d="M32.375 25.8248C32.375 25.8248 32.375 25.7165 32.375 25.4998C32.375 25.2831 32.4917 25.1165 32.725 24.9998H40.2V21.2498L40.225 17.4998C40.3917 17.2831 40.55 17.1748 40.7 17.1748C40.9167 17.1748 41.0833 17.2998 41.2 17.5498V24.9998H48.65C48.9 25.1331 49.025 25.2998 49.025 25.4998C49.025 25.6998 48.9 25.8665 48.65 25.9998H41.2V33.4498C41.0667 33.6831 40.9167 33.7998 40.75 33.7998H40.7H40.65C40.45 33.7998 40.3 33.6831 40.2 33.4498V25.9998H32.725C32.4917 25.8831 32.375 25.7165 32.375 25.4998V25.8248Z" fill="black"/>
<path d="M52.5254 25.825C52.5254 25.825 52.5254 25.7167 52.5254 25.5C52.5254 25.2833 52.6421 25.1167 52.8754 25H67.4004C67.6504 25.1333 67.7754 25.3 67.7754 25.5C67.7754 25.7 67.6504 25.8667 67.4004 26H52.8754C52.6421 25.8833 52.5254 25.7167 52.5254 25.5V25.825Z" fill="black"/>
<path d="M71.25 13.45C71.2667 13.3333 71.3167 13.2333 71.4 13.15C71.4833 13.0667 71.6 13.0167 71.75 13C71.9167 13 72.0583 13.0833 72.175 13.25C72.225 13.3667 73.0083 15.4167 74.525 19.4C76.0417 23.3833 76.8083 25.4167 76.825 25.5C76.8417 25.5833 76.0833 27.6167 74.55 31.6C73.0167 35.5833 72.225 37.6333 72.175 37.75C72.0583 37.9167 71.9167 38 71.75 38C71.6167 38 71.5083 37.9583 71.425 37.875C71.3417 37.7917 71.2833 37.6833 71.25 37.55C71.25 37.4667 72 35.4417 73.5 31.475C75.0167 27.525 75.775 25.5333 75.775 25.5C75.775 25.4667 75.0167 23.475 73.5 19.525C72 15.5583 71.25 13.5333 71.25 13.45Z" fill="black"/>
<path d="M330 28.1489C330 26.7034 330.277 25.3755 330.832 24.1653C331.387 22.9551 332.101 21.9886 332.975 21.2658C333.849 20.543 334.765 19.9883 335.723 19.6017C336.681 19.2151 337.589 19.0134 338.446 18.9966C338.497 18.9966 338.572 18.9966 338.673 18.9966C338.774 18.9966 338.841 19.005 338.875 19.0218C340.405 19.0218 341.758 19.5933 342.934 20.7363L343.262 21.0389L344.018 20.0556C344.472 19.4337 344.733 19.0891 344.8 19.0218C344.817 19.0218 344.85 19.0218 344.901 19.0218C344.951 19.0218 345.002 19.0134 345.052 18.9966H345.153C345.203 18.9966 345.279 19.0471 345.38 19.1479V26.2075L345.229 26.3588H344.371C344.271 26.258 344.212 26.1151 344.195 25.9302C344.044 24.5519 343.64 23.3585 342.985 22.35C342.329 21.3414 341.531 20.6775 340.589 20.3581C340.27 20.2405 339.85 20.1816 339.329 20.1816C337.581 20.1816 336.118 20.7699 334.942 21.9465C333.614 23.2744 332.95 25.3419 332.95 28.1489C332.95 30.1828 333.269 31.788 333.908 32.9646C334.261 33.637 334.698 34.2001 335.219 34.6539C335.74 35.1077 336.286 35.4355 336.858 35.6372C337.429 35.8389 337.9 35.9734 338.27 36.0406C338.64 36.1079 339.009 36.1499 339.379 36.1667C340.875 36.1667 342.077 35.5868 342.985 34.427C343.892 33.2672 344.355 31.9981 344.371 30.6198C344.371 30.5022 344.422 30.3929 344.523 30.2921H345.229L345.38 30.4433V30.8215C345.296 32.5528 344.657 34.0656 343.464 35.3599C342.27 36.6541 340.699 37.3013 338.749 37.3013C336.379 37.3013 334.328 36.4272 332.597 34.6791C330.866 32.931 330 30.7543 330 28.1489Z" fill="black"/>
<path d="M347.85 35.6122C348.388 35.5786 348.825 35.4945 349.162 35.36C349.498 35.2256 349.699 35.1163 349.767 35.0323C349.834 34.9482 349.918 34.8054 350.019 34.6037V20.7869H349.918C349.75 20.7365 349.145 20.7113 348.103 20.7113H347.422V19.5515H352.641L352.717 19.6271C352.75 19.6439 353.481 20.7029 354.91 22.804C356.339 24.9051 357.776 27.0145 359.222 29.1324L361.365 32.2841V21.6946C361.264 21.5265 361.18 21.4004 361.113 21.3164C361.045 21.2324 360.844 21.1147 360.507 20.9634C360.171 20.8121 359.734 20.7281 359.196 20.7113H358.768V19.5515H358.969C359.222 19.6019 360.205 19.6271 361.919 19.6271C363.701 19.6271 364.668 19.6019 364.819 19.5515H365.046V20.7113H364.617C363.39 20.7785 362.676 21.1063 362.474 21.6946L362.449 29.1576V36.6207L362.272 36.772H361.919C361.667 36.772 361.516 36.7468 361.466 36.6963C361.415 36.6459 360.566 35.4105 358.919 32.99C357.272 30.5696 355.599 28.1071 353.902 25.6026C352.204 23.0981 351.271 21.7366 351.103 21.5181V28.0735L351.128 34.6037C351.313 35.2088 352.027 35.5449 353.271 35.6122H353.7V36.772H353.473C353.221 36.7215 352.254 36.6963 350.574 36.6963C348.859 36.6963 347.876 36.7215 347.624 36.772H347.422V35.6122H347.85Z" fill="black"/>
<path d="M367.113 28.1995C367.113 26.8044 367.365 25.5101 367.87 24.3167C368.374 23.1233 369.029 22.1484 369.836 21.392C370.643 20.6356 371.534 20.0473 372.509 19.6271C373.484 19.2069 374.475 18.9967 375.484 18.9967C377.72 18.9967 379.678 19.8708 381.359 21.6189C383.039 23.367 383.888 25.5521 383.905 28.1743C383.905 29.5358 383.661 30.7964 383.174 31.9562C382.687 33.116 382.048 34.0909 381.258 34.8809C380.468 35.6709 379.569 36.2677 378.56 36.6711C377.551 37.0745 376.526 37.293 375.484 37.3266C374.442 37.3602 373.425 37.1501 372.433 36.6963C371.442 36.2424 370.542 35.6457 369.735 34.9062C368.929 34.1666 368.298 33.2001 367.844 32.0067C367.391 30.8132 367.147 29.5442 367.113 28.1995ZM377.476 20.4591C376.787 20.1565 376.123 20.0053 375.484 20.0053C375.013 20.0053 374.534 20.0977 374.047 20.2826C373.559 20.4675 373.038 20.7533 372.484 21.1398C371.929 21.5264 371.458 22.1232 371.072 22.93C370.685 23.7368 370.399 24.6613 370.214 25.7034C370.13 26.174 370.088 26.8884 370.088 27.8465C370.088 31.3763 370.954 33.8388 372.685 35.2339C373.526 35.9231 374.433 36.2677 375.408 36.2677H375.509H375.56C376.955 36.2677 378.182 35.6037 379.241 34.2758C380.35 32.7799 380.905 30.6367 380.905 27.8465C380.905 26.8884 380.863 26.174 380.779 25.7034C380.426 23.1317 379.325 21.3836 377.476 20.4591Z" fill="black"/>
<path d="M386.225 25.6026C386.241 25.5186 386.325 24.5521 386.477 22.7031C386.628 20.8542 386.704 19.9045 386.704 19.854V19.7028H402.109V19.854C402.126 19.9381 402.21 20.9046 402.361 22.7535C402.512 24.6025 402.588 25.5522 402.588 25.6026V25.7539H401.579V25.6026C401.579 25.569 401.554 25.2748 401.504 24.7202C401.453 24.1655 401.361 23.6108 401.226 23.0561C401.092 22.5014 400.915 22.0896 400.697 21.8207C400.411 21.4677 399.949 21.1987 399.31 21.0138C398.957 20.9298 398.31 20.8878 397.369 20.8878H396.688H396.486C396.049 20.8878 395.806 20.9886 395.755 21.1903C395.738 21.224 395.73 23.5688 395.73 28.2248V35.1836C395.848 35.3516 396.066 35.4609 396.385 35.5113C396.705 35.5617 397.453 35.5954 398.629 35.6122H399.386V36.772H399.058L394.419 36.6963C391.477 36.73 389.931 36.7552 389.78 36.772H389.452V35.6122H390.208C391.385 35.6122 392.133 35.587 392.452 35.5365C392.772 35.4861 392.99 35.3684 393.108 35.1836V28.2248V22.9048C393.108 21.7282 393.066 21.0979 392.982 21.0138C392.898 20.9298 392.62 20.8878 392.15 20.8878H391.469H390.965C389.788 20.8878 388.906 21.1315 388.317 21.619C388.015 21.8879 387.796 22.2829 387.662 22.804C387.527 23.325 387.426 23.8965 387.359 24.5185C387.292 25.1404 387.25 25.5018 387.233 25.6026V25.7539H386.225V25.6026Z" fill="black"/>
<path d="M632.5 37.9751H632.45C632.25 37.9751 632.1 37.8584 632 37.6251V25.4751L632.025 13.3251C632.192 13.1084 632.35 13.0001 632.5 13.0001C632.717 13.0001 632.883 13.1251 633 13.3751V37.6251C632.867 37.8584 632.717 37.9751 632.55 37.9751H632.5Z" fill="black"/>
<path d="M638.074 25.825C638.074 25.825 638.074 25.7167 638.074 25.5C638.074 25.2833 638.191 25.1167 638.424 25H652.949C653.199 25.1333 653.324 25.3 653.324 25.5C653.324 25.7 653.199 25.8667 652.949 26H638.424C638.191 25.8833 638.074 25.7167 638.074 25.5V25.825Z" fill="black"/>
<path d="M657.525 25.825C657.525 25.825 657.525 25.7167 657.525 25.5C657.525 25.2833 657.642 25.1167 657.875 25H672.4C672.65 25.1333 672.775 25.3 672.775 25.5C672.775 25.7 672.65 25.8667 672.4 26H657.875C657.642 25.8833 657.525 25.7167 657.525 25.5V25.825Z" fill="black"/>
<path d="M676.25 13.45C676.267 13.3333 676.317 13.2333 676.4 13.15C676.483 13.0667 676.6 13.0167 676.75 13C676.917 13 677.058 13.0833 677.175 13.25C677.225 13.3667 678.008 15.4167 679.525 19.4C681.042 23.3833 681.808 25.4167 681.825 25.5C681.842 25.5833 681.083 27.6167 679.55 31.6C678.017 35.5833 677.225 37.6333 677.175 37.75C677.058 37.9167 676.917 38 676.75 38C676.617 38 676.508 37.9583 676.425 37.875C676.342 37.7917 676.283 37.6833 676.25 37.55C676.25 37.4667 677 35.4417 678.5 31.475C680.017 27.525 680.775 25.5333 680.775 25.5C680.775 25.4667 680.017 23.475 678.5 19.525C677 15.5583 676.25 13.5333 676.25 13.45Z" fill="black"/>
</svg>
