<svg width="704" height="387" viewBox="0 0 704 387" fill="none" xmlns="http://www.w3.org/2000/svg">
<rect width="704" height="387" fill="white"/>
<circle cx="48" cy="76" r="24" fill="#DDE1E6"/>
<circle cx="48.5" cy="75.5" r="13" transform="rotate(-90 48.5 75.5)" fill="#BE95FF" stroke="#491D8B"/>
<path d="M58 76.6562L62 75.1562L58 73.6562L58 76.6562Z" fill="#491D8B"/>
<line x1="58" y1="75.1562" x2="47" y2="75.1562" stroke="#491D8B"/>
<path d="M43.2255 117.168C45.5635 117.168 46.5855 115.306 46.5855 112.114C46.5855 108.922 45.5635 107.06 43.2255 107.06C40.8875 107.06 39.8655 108.922 39.8655 112.114C39.8655 115.306 40.8875 117.168 43.2255 117.168ZM43.2255 116.146C41.6995 116.146 41.0975 114.802 41.0975 112.912V111.316C41.0975 109.426 41.6995 108.082 43.2255 108.082C44.7515 108.082 45.3535 109.426 45.3535 111.316V112.912C45.3535 114.802 44.7515 116.146 43.2255 116.146ZM51.78 117.168C54.118 117.168 55.14 115.306 55.14 112.114C55.14 108.922 54.118 107.06 51.78 107.06C49.442 107.06 48.42 108.922 48.42 112.114C48.42 115.306 49.442 117.168 51.78 117.168ZM51.78 116.146C50.254 116.146 49.652 114.802 49.652 112.912V111.316C49.652 109.426 50.254 108.082 51.78 108.082C53.306 108.082 53.908 109.426 53.908 111.316V112.912C53.908 114.802 53.306 116.146 51.78 116.146Z" fill="black"/>
<path d="M43.2255 199.168C45.5635 199.168 46.5855 197.306 46.5855 194.114C46.5855 190.922 45.5635 189.06 43.2255 189.06C40.8875 189.06 39.8655 190.922 39.8655 194.114C39.8655 197.306 40.8875 199.168 43.2255 199.168ZM43.2255 198.146C41.6995 198.146 41.0975 196.802 41.0975 194.912V193.316C41.0975 191.426 41.6995 190.082 43.2255 190.082C44.7515 190.082 45.3535 191.426 45.3535 193.316V194.912C45.3535 196.802 44.7515 198.146 43.2255 198.146ZM55.238 199V197.964H52.718V189.228H50.884L48.294 191.65L48.98 192.392L51.444 190.096H51.542V197.964H48.812V199H55.238Z" fill="black"/>
<path d="M46.6835 277V275.964H44.1635V267.228H42.3295L39.7395 269.65L40.4255 270.392L42.8895 268.096H42.9875V275.964H40.2575V277H46.6835ZM51.78 277.168C54.118 277.168 55.14 275.306 55.14 272.114C55.14 268.922 54.118 267.06 51.78 267.06C49.442 267.06 48.42 268.922 48.42 272.114C48.42 275.306 49.442 277.168 51.78 277.168ZM51.78 276.146C50.254 276.146 49.652 274.802 49.652 272.912V271.316C49.652 269.426 50.254 268.082 51.78 268.082C53.306 268.082 53.908 269.426 53.908 271.316V272.912C53.908 274.802 53.306 276.146 51.78 276.146Z" fill="black"/>
<path d="M46.6835 355V353.964H44.1635V345.228H42.3295L39.7395 347.65L40.4255 348.392L42.8895 346.096H42.9875V353.964H40.2575V355H46.6835ZM55.238 355V353.964H52.718V345.228H50.884L48.294 347.65L48.98 348.392L51.444 346.096H51.542V353.964H48.812V355H55.238Z" fill="black"/>
<circle cx="48" cy="236" r="24" fill="#DDE1E6"/>
<circle cx="48.5" cy="235.5" r="13" transform="rotate(-90 48.5 235.5)" fill="#BE95FF" stroke="#491D8B"/>
<path d="M58 236.656L62 235.156L58 233.656L58 236.656Z" fill="#491D8B"/>
<line x1="58" y1="235.156" x2="47" y2="235.156" stroke="#491D8B"/>
<circle cx="48" cy="158" r="24" fill="#DDE1E6"/>
<circle cx="48.5" cy="157.5" r="13" transform="rotate(90 48.5 157.5)" fill="#BE95FF" stroke="#491D8B"/>
<path d="M39 156.344L35 157.844L39 159.344L39 156.344Z" fill="#491D8B"/>
<line x1="39" y1="157.844" x2="50" y2="157.844" stroke="#491D8B"/>
<circle cx="48" cy="314" r="24" fill="#DDE1E6"/>
<circle cx="48.5" cy="313.5" r="13" transform="rotate(90 48.5 313.5)" fill="#BE95FF" stroke="#491D8B"/>
<path d="M39 312.344L35 313.844L39 315.344L39 312.344Z" fill="#491D8B"/>
<line x1="39" y1="313.844" x2="50" y2="313.844" stroke="#491D8B"/>
<path d="M64 49H77C78.6569 49 80 50.3431 80 52V368C80 369.657 78.6569 371 77 371H66.5" stroke="#343A3F"/>
<path d="M32 49H19C17.3431 49 16 50.3431 16 52V368C16 369.657 17.3431 371 19 371H29.5" stroke="#343A3F"/>
<path d="M27.5 37.9751H27.45C27.25 37.9751 27.1 37.8584 27 37.6251V25.4751L27.025 13.3251C27.1917 13.1084 27.35 13.0001 27.5 13.0001C27.7167 13.0001 27.8833 13.1251 28 13.3751V37.6251C27.8667 37.8584 27.7167 37.9751 27.55 37.9751H27.5Z" fill="black"/>
<path d="M32.375 25.8248C32.375 25.8248 32.375 25.7165 32.375 25.4998C32.375 25.2831 32.4917 25.1165 32.725 24.9998H40.2V21.2498L40.225 17.4998C40.3917 17.2831 40.55 17.1748 40.7 17.1748C40.9167 17.1748 41.0833 17.2998 41.2 17.5498V24.9998H48.65C48.9 25.1331 49.025 25.2998 49.025 25.4998C49.025 25.6998 48.9 25.8665 48.65 25.9998H41.2V33.4498C41.0667 33.6831 40.9167 33.7998 40.75 33.7998H40.7H40.65C40.45 33.7998 40.3 33.6831 40.2 33.4498V25.9998H32.725C32.4917 25.8831 32.375 25.7165 32.375 25.4998V25.8248Z" fill="black"/>
<path d="M52.5254 25.825C52.5254 25.825 52.5254 25.7167 52.5254 25.5C52.5254 25.2833 52.6421 25.1167 52.8754 25H67.4004C67.6504 25.1333 67.7754 25.3 67.7754 25.5C67.7754 25.7 67.6504 25.8667 67.4004 26H52.8754C52.6421 25.8833 52.5254 25.7167 52.5254 25.5V25.825Z" fill="black"/>
<path d="M71.25 13.45C71.2667 13.3333 71.3167 13.2333 71.4 13.15C71.4833 13.0667 71.6 13.0167 71.75 13C71.9167 13 72.0583 13.0833 72.175 13.25C72.225 13.3667 73.0083 15.4167 74.525 19.4C76.0417 23.3833 76.8083 25.4167 76.825 25.5C76.8417 25.5833 76.0833 27.6167 74.55 31.6C73.0167 35.5833 72.225 37.6333 72.175 37.75C72.0583 37.9167 71.9167 38 71.75 38C71.6167 38 71.5083 37.9583 71.425 37.875C71.3417 37.7917 71.2833 37.6833 71.25 37.55C71.25 37.4667 72 35.4417 73.5 31.475C75.0167 27.525 75.775 25.5333 75.775 25.5C75.775 25.4667 75.0167 23.475 73.5 19.525C72 15.5583 71.25 13.5333 71.25 13.45Z" fill="black"/>
<path d="M123 189.855C123 189.484 123.196 189.199 123.589 189H150.369C150.79 189.228 151 189.513 151 189.855C151 190.168 150.804 190.439 150.411 190.667L137.042 190.709H123.673C123.224 190.567 123 190.282 123 189.855ZM123 198.145C123 197.718 123.224 197.433 123.673 197.291H150.411C150.804 197.575 151 197.86 151 198.145C151 198.516 150.79 198.801 150.369 199H123.589C123.196 198.801 123 198.516 123 198.145Z" fill="black"/>
<circle cx="226" cy="76" r="24" fill="#DDE1E6"/>
<circle cx="226.5" cy="75.5" r="13" transform="rotate(-90 226.5 75.5)" fill="#BE95FF" stroke="#491D8B"/>
<path d="M236 76.6562L240 75.1562L236 73.6562V76.6562Z" fill="#491D8B"/>
<line x1="236" y1="75.1562" x2="225" y2="75.1562" stroke="#491D8B"/>
<path d="M221.225 117.168C223.563 117.168 224.585 115.306 224.585 112.114C224.585 108.922 223.563 107.06 221.225 107.06C218.887 107.06 217.865 108.922 217.865 112.114C217.865 115.306 218.887 117.168 221.225 117.168ZM221.225 116.146C219.699 116.146 219.097 114.802 219.097 112.912V111.316C219.097 109.426 219.699 108.082 221.225 108.082C222.751 108.082 223.353 109.426 223.353 111.316V112.912C223.353 114.802 222.751 116.146 221.225 116.146ZM229.78 117.168C232.118 117.168 233.14 115.306 233.14 112.114C233.14 108.922 232.118 107.06 229.78 107.06C227.442 107.06 226.42 108.922 226.42 112.114C226.42 115.306 227.442 117.168 229.78 117.168ZM229.78 116.146C228.254 116.146 227.652 114.802 227.652 112.912V111.316C227.652 109.426 228.254 108.082 229.78 108.082C231.306 108.082 231.908 109.426 231.908 111.316V112.912C231.908 114.802 231.306 116.146 229.78 116.146Z" fill="black"/>
<path d="M221.225 199.168C223.563 199.168 224.585 197.306 224.585 194.114C224.585 190.922 223.563 189.06 221.225 189.06C218.887 189.06 217.865 190.922 217.865 194.114C217.865 197.306 218.887 199.168 221.225 199.168ZM221.225 198.146C219.699 198.146 219.097 196.802 219.097 194.912V193.316C219.097 191.426 219.699 190.082 221.225 190.082C222.751 190.082 223.353 191.426 223.353 193.316V194.912C223.353 196.802 222.751 198.146 221.225 198.146ZM233.238 199V197.964H230.718V189.228H228.884L226.294 191.65L226.98 192.392L229.444 190.096H229.542V197.964H226.812V199H233.238Z" fill="black"/>
<path d="M224.683 277V275.964H222.163V267.228H220.329L217.739 269.65L218.425 270.392L220.889 268.096H220.987V275.964H218.257V277H224.683ZM229.78 277.168C232.118 277.168 233.14 275.306 233.14 272.114C233.14 268.922 232.118 267.06 229.78 267.06C227.442 267.06 226.42 268.922 226.42 272.114C226.42 275.306 227.442 277.168 229.78 277.168ZM229.78 276.146C228.254 276.146 227.652 274.802 227.652 272.912V271.316C227.652 269.426 228.254 268.082 229.78 268.082C231.306 268.082 231.908 269.426 231.908 271.316V272.912C231.908 274.802 231.306 276.146 229.78 276.146Z" fill="black"/>
<path d="M224.683 355V353.964H222.163V345.228H220.329L217.739 347.65L218.425 348.392L220.889 346.096H220.987V353.964H218.257V355H224.683ZM233.238 355V353.964H230.718V345.228H228.884L226.294 347.65L226.98 348.392L229.444 346.096H229.542V353.964H226.812V355H233.238Z" fill="black"/>
<circle cx="226" cy="236" r="24" fill="#DDE1E6"/>
<circle cx="226" cy="158" r="24" fill="#DDE1E6"/>
<circle cx="226.5" cy="157.5" r="13" transform="rotate(90 226.5 157.5)" fill="#BE95FF" stroke="#491D8B"/>
<path d="M217 156.344L213 157.844L217 159.344V156.344Z" fill="#491D8B"/>
<line x1="217" y1="157.844" x2="228" y2="157.844" stroke="#491D8B"/>
<circle cx="226" cy="314" r="24" fill="#DDE1E6"/>
<path d="M242 49H255C256.657 49 258 50.3431 258 52V368C258 369.657 256.657 371 255 371H244.5" stroke="#343A3F"/>
<path d="M210 49H197C195.343 49 194 50.3431 194 52V368C194 369.657 195.343 371 197 371H207.5" stroke="#343A3F"/>
<circle cx="404" cy="76" r="24" fill="#DDE1E6"/>
<path d="M399.225 117.168C401.563 117.168 402.585 115.306 402.585 112.114C402.585 108.922 401.563 107.06 399.225 107.06C396.887 107.06 395.865 108.922 395.865 112.114C395.865 115.306 396.887 117.168 399.225 117.168ZM399.225 116.146C397.699 116.146 397.097 114.802 397.097 112.912V111.316C397.097 109.426 397.699 108.082 399.225 108.082C400.751 108.082 401.353 109.426 401.353 111.316V112.912C401.353 114.802 400.751 116.146 399.225 116.146ZM407.78 117.168C410.118 117.168 411.14 115.306 411.14 112.114C411.14 108.922 410.118 107.06 407.78 107.06C405.442 107.06 404.42 108.922 404.42 112.114C404.42 115.306 405.442 117.168 407.78 117.168ZM407.78 116.146C406.254 116.146 405.652 114.802 405.652 112.912V111.316C405.652 109.426 406.254 108.082 407.78 108.082C409.306 108.082 409.908 109.426 409.908 111.316V112.912C409.908 114.802 409.306 116.146 407.78 116.146Z" fill="black"/>
<path d="M399.225 199.168C401.563 199.168 402.585 197.306 402.585 194.114C402.585 190.922 401.563 189.06 399.225 189.06C396.887 189.06 395.865 190.922 395.865 194.114C395.865 197.306 396.887 199.168 399.225 199.168ZM399.225 198.146C397.699 198.146 397.097 196.802 397.097 194.912V193.316C397.097 191.426 397.699 190.082 399.225 190.082C400.751 190.082 401.353 191.426 401.353 193.316V194.912C401.353 196.802 400.751 198.146 399.225 198.146ZM411.238 199V197.964H408.718V189.228H406.884L404.294 191.65L404.98 192.392L407.444 190.096H407.542V197.964H404.812V199H411.238Z" fill="black"/>
<path d="M402.683 277V275.964H400.163V267.228H398.329L395.739 269.65L396.425 270.392L398.889 268.096H398.987V275.964H396.257V277H402.683ZM407.78 277.168C410.118 277.168 411.14 275.306 411.14 272.114C411.14 268.922 410.118 267.06 407.78 267.06C405.442 267.06 404.42 268.922 404.42 272.114C404.42 275.306 405.442 277.168 407.78 277.168ZM407.78 276.146C406.254 276.146 405.652 274.802 405.652 272.912V271.316C405.652 269.426 406.254 268.082 407.78 268.082C409.306 268.082 409.908 269.426 409.908 271.316V272.912C409.908 274.802 409.306 276.146 407.78 276.146Z" fill="black"/>
<path d="M402.683 355V353.964H400.163V345.228H398.329L395.739 347.65L396.425 348.392L398.889 346.096H398.987V353.964H396.257V355H402.683ZM411.238 355V353.964H408.718V345.228H406.884L404.294 347.65L404.98 348.392L407.444 346.096H407.542V353.964H404.812V355H411.238Z" fill="black"/>
<circle cx="404" cy="236" r="24" fill="#DDE1E6"/>
<circle cx="404.5" cy="235.5" r="13" transform="rotate(-90 404.5 235.5)" fill="#BE95FF" stroke="#491D8B"/>
<path d="M414 236.656L418 235.156L414 233.656V236.656Z" fill="#491D8B"/>
<line x1="414" y1="235.156" x2="403" y2="235.156" stroke="#491D8B"/>
<circle cx="404" cy="158" r="24" fill="#DDE1E6"/>
<circle cx="404" cy="314" r="24" fill="#DDE1E6"/>
<circle cx="404.5" cy="313.5" r="13" transform="rotate(90 404.5 313.5)" fill="#BE95FF" stroke="#491D8B"/>
<path d="M395 312.344L391 313.844L395 315.344V312.344Z" fill="#491D8B"/>
<line x1="395" y1="313.844" x2="406" y2="313.844" stroke="#491D8B"/>
<path d="M420 49H433C434.657 49 436 50.3431 436 52V368C436 369.657 434.657 371 433 371H422.5" stroke="#343A3F"/>
<path d="M388 49H375C373.343 49 372 50.3431 372 52V368C372 369.657 373.343 371 375 371H385.5" stroke="#343A3F"/>
<path d="M301 190.547C301 190.547 301 190.364 301 190C301 189.636 301.196 189.355 301.589 189.159H314.159V182.853L314.201 176.547C314.481 176.182 314.748 176 315 176C315.364 176 315.645 176.21 315.841 176.631V189.159H328.369C328.79 189.383 329 189.664 329 190C329 190.336 328.79 190.617 328.369 190.841H315.841V203.369C315.617 203.762 315.364 203.958 315.084 203.958H315H314.916C314.58 203.958 314.327 203.762 314.159 203.369V190.841H301.589C301.196 190.645 301 190.364 301 190V190.547Z" fill="black"/>
<path d="M200.786 9.55314L200.556 9.6414C200.392 9.70024 200.156 9.75907 199.85 9.81791C199.544 9.87674 199.203 9.91793 198.827 9.94146H198.491V9.12952H198.827C199.38 9.10599 199.892 9.01773 200.362 8.86476C200.833 8.71178 201.162 8.57058 201.351 8.44114C201.539 8.3117 201.704 8.18226 201.845 8.05282C201.868 8.01751 201.939 7.99986 202.057 7.99986C202.163 7.99986 202.263 8.03517 202.357 8.10577V13.3834L202.374 18.6787C202.457 18.761 202.527 18.814 202.586 18.8375C202.645 18.8611 202.786 18.8846 203.01 18.9081C203.233 18.9317 203.598 18.9434 204.104 18.9434H204.563V19.7554H204.369C204.122 19.7201 203.186 19.7024 201.562 19.7024C199.962 19.7024 199.038 19.7201 198.791 19.7554H198.579V18.9434H199.038C199.297 18.9434 199.521 18.9434 199.709 18.9434C199.897 18.9434 200.044 18.9375 200.15 18.9258C200.256 18.914 200.35 18.8964 200.433 18.8728C200.515 18.8493 200.562 18.8375 200.574 18.8375C200.586 18.8375 200.621 18.8081 200.68 18.7493C200.739 18.6904 200.774 18.6669 200.786 18.6787V9.55314Z" fill="black"/>
<path d="M206.476 34.982C206.158 34.982 205.905 34.8761 205.717 34.6642C205.529 34.4524 205.435 34.1936 205.435 33.8876C205.435 33.0521 205.746 32.3284 206.37 31.7165C206.994 31.1046 207.77 30.7987 208.7 30.7987C209.771 30.7987 210.665 31.1282 211.383 31.7871C212.101 32.4461 212.466 33.2992 212.477 34.3465C212.477 34.8525 212.36 35.335 212.124 35.7939C211.889 36.2528 211.607 36.6529 211.277 36.9942C210.948 37.3354 210.477 37.7708 209.865 38.3003C209.441 38.6651 208.853 39.2064 208.1 39.9242L207.058 40.9127L208.4 40.9303C210.247 40.9303 211.23 40.9009 211.348 40.8421C211.43 40.8185 211.571 40.2949 211.771 39.2711V39.2182H212.477V39.2711C212.466 39.3064 212.389 39.8418 212.248 40.8774C212.107 41.9129 212.018 42.4542 211.983 42.5012V42.5542H205.435V42.2188V42.007C205.435 41.9247 205.47 41.8364 205.54 41.7423C205.611 41.6481 205.788 41.4422 206.07 41.1245C206.411 40.7479 206.705 40.4184 206.953 40.136C207.058 40.0184 207.258 39.8007 207.553 39.4829C207.847 39.1652 208.047 38.9475 208.153 38.8299C208.259 38.7122 208.429 38.518 208.665 38.2474C208.9 37.9767 209.065 37.7767 209.159 37.6472C209.253 37.5178 209.388 37.3413 209.565 37.1177C209.741 36.8941 209.865 36.7059 209.936 36.5529C210.006 36.3999 210.094 36.2293 210.2 36.041C210.306 35.8527 210.383 35.6645 210.43 35.4762C210.477 35.2879 210.518 35.1114 210.553 34.9467C210.589 34.7819 210.606 34.5878 210.606 34.3642C210.606 33.6228 210.406 32.9815 210.006 32.4402C209.606 31.8989 209.035 31.6283 208.294 31.6283C207.906 31.6283 207.564 31.7283 207.27 31.9284C206.976 32.1284 206.77 32.3226 206.652 32.5108C206.535 32.6991 206.476 32.8109 206.476 32.8462C206.476 32.858 206.505 32.8638 206.564 32.8638C206.776 32.8638 206.994 32.9462 207.217 33.111C207.441 33.2757 207.553 33.5464 207.553 33.9229C207.553 34.2171 207.459 34.4642 207.27 34.6642C207.082 34.8643 206.817 34.9702 206.476 34.982Z" fill="black"/>
<path d="M191.174 37.328C191.103 37.328 191.021 37.2809 190.927 37.1867C190.833 37.0926 190.78 37.0102 190.768 36.9396C190.756 36.869 190.939 36.6925 191.315 36.4101C191.692 36.1277 192.08 35.8335 192.48 35.5276C192.88 35.2216 193.104 35.051 193.151 35.0157C193.175 34.9922 193.204 34.9804 193.239 34.9804H193.257C193.327 34.9804 193.41 35.0804 193.504 35.2804C193.598 35.4805 193.916 36.1689 194.457 37.3456C194.681 37.8516 194.863 38.2576 195.004 38.5635L196.505 41.8289C196.516 41.8289 197.128 40.5757 198.34 38.0693C199.552 35.5629 200.764 33.0388 201.976 30.4971C203.188 27.9553 203.818 26.655 203.865 26.5962C203.936 26.4315 204.053 26.3491 204.218 26.3491C204.3 26.3491 204.371 26.3844 204.43 26.455C204.489 26.5256 204.53 26.5962 204.553 26.6668V26.7727L200.441 35.2981L196.293 43.8764C196.246 43.9588 196.134 44 195.957 44C195.852 44 195.781 43.9823 195.746 43.947C195.722 43.9235 195.146 42.6762 194.016 40.2051L192.321 36.4984L192.039 36.6925C191.862 36.8337 191.68 36.9749 191.492 37.1161C191.304 37.2574 191.198 37.328 191.174 37.328Z" fill="black"/>
<path d="M213.377 27.0991H204.552V26.3507H213.377V27.0991Z" fill="black"/>
<path d="M215.878 24.0996H187V22.6017H215.878V24.0996Z" fill="black"/>
<path d="M222.345 35.8086H222.295C222.095 35.8086 221.946 35.6921 221.846 35.4591V23.3256L221.871 11.1922C222.037 10.9758 222.195 10.8676 222.345 10.8676C222.561 10.8676 222.728 10.9925 222.844 11.2421V35.4591C222.711 35.6921 222.561 35.8086 222.395 35.8086H222.345Z" fill="black"/>
<path d="M228.211 14.9873C229.143 13.6391 230.416 12.965 232.031 12.965C232.83 12.965 233.629 13.1814 234.428 13.6142C235.227 14.0469 235.876 14.8125 236.375 15.911C236.991 17.2925 237.299 19.1899 237.299 21.6033C237.299 24.1831 236.941 26.1554 236.225 27.5202C235.892 28.2192 235.435 28.7768 234.852 29.1929C234.27 29.609 233.762 29.867 233.329 29.9668C232.896 30.0667 232.472 30.125 232.056 30.1416C231.623 30.1416 231.19 30.0917 230.758 29.9918C230.325 29.8919 229.817 29.6256 229.235 29.1929C228.652 28.7602 228.194 28.2026 227.862 27.5202C227.146 26.1554 226.788 24.1831 226.788 21.6033C226.788 18.7072 227.262 16.5019 228.211 14.9873ZM233.828 14.6877C233.329 14.1551 232.738 13.8888 232.056 13.8888C231.357 13.8888 230.758 14.1551 230.258 14.6877C229.842 15.1204 229.568 15.7196 229.434 16.4852C229.301 17.2509 229.235 18.8487 229.235 21.2787C229.235 23.9084 229.301 25.6394 229.434 26.4716C229.568 27.3038 229.867 27.9612 230.333 28.4439C230.799 28.9432 231.373 29.1929 232.056 29.1929C232.722 29.1929 233.288 28.9432 233.754 28.4439C234.236 27.9446 234.536 27.2456 234.652 26.3468C234.769 25.448 234.835 23.7586 234.852 21.2787C234.852 18.8653 234.786 17.2758 234.652 16.5102C234.519 15.7446 234.245 15.1371 233.828 14.6877Z" fill="black"/>
<path d="M240.395 23.6748C240.395 23.6748 240.395 23.5667 240.395 23.3503C240.395 23.1339 240.511 22.9675 240.744 22.851H255.249C255.499 22.9841 255.624 23.1506 255.624 23.3503C255.624 23.55 255.499 23.7165 255.249 23.8496H240.744C240.511 23.7331 240.395 23.5667 240.395 23.3503V23.6748Z" fill="black"/>
<path d="M259.095 11.317C259.111 11.2004 259.161 11.1006 259.245 11.0174C259.328 10.9341 259.444 10.8842 259.594 10.8676C259.76 10.8676 259.902 10.9508 260.018 11.1172C260.068 11.2337 260.851 13.2809 262.365 17.2588C263.88 21.2367 264.645 23.2673 264.662 23.3505C264.679 23.4338 263.921 25.4643 262.39 29.4422C260.859 33.4201 260.068 35.4673 260.018 35.5838C259.902 35.7503 259.76 35.8335 259.594 35.8335C259.461 35.8335 259.353 35.7919 259.269 35.7087C259.186 35.6254 259.128 35.5173 259.095 35.3841C259.095 35.3009 259.844 33.2786 261.342 29.3174C262.856 25.3728 263.614 23.3838 263.614 23.3505C263.614 23.3172 262.856 21.3283 261.342 17.3837C259.844 13.4224 259.095 11.4002 259.095 11.317Z" fill="black"/>
<path d="M378.786 9.55314L378.556 9.6414C378.392 9.70024 378.156 9.75907 377.85 9.81791C377.544 9.87674 377.203 9.91793 376.827 9.94146H376.491V9.12952H376.827C377.38 9.10599 377.892 9.01773 378.362 8.86476C378.833 8.71178 379.162 8.57058 379.351 8.44114C379.539 8.3117 379.704 8.18226 379.845 8.05282C379.868 8.01751 379.939 7.99986 380.057 7.99986C380.163 7.99986 380.263 8.03517 380.357 8.10577V13.3834L380.374 18.6787C380.457 18.761 380.527 18.814 380.586 18.8375C380.645 18.8611 380.786 18.8846 381.01 18.9081C381.233 18.9317 381.598 18.9434 382.104 18.9434H382.563V19.7554H382.369C382.122 19.7201 381.186 19.7024 379.562 19.7024C377.962 19.7024 377.038 19.7201 376.791 19.7554H376.579V18.9434H377.038C377.297 18.9434 377.521 18.9434 377.709 18.9434C377.897 18.9434 378.044 18.9375 378.15 18.9258C378.256 18.914 378.35 18.8964 378.433 18.8728C378.515 18.8493 378.562 18.8375 378.574 18.8375C378.586 18.8375 378.621 18.8081 378.68 18.7493C378.739 18.6904 378.774 18.6669 378.786 18.6787V9.55314Z" fill="black"/>
<path d="M384.477 34.982C384.159 34.982 383.906 34.8761 383.718 34.6642C383.53 34.4524 383.436 34.1936 383.436 33.8876C383.436 33.0521 383.747 32.3284 384.371 31.7165C384.995 31.1046 385.771 30.7987 386.701 30.7987C387.772 30.7987 388.666 31.1282 389.384 31.7871C390.102 32.4461 390.466 33.2992 390.478 34.3465C390.478 34.8525 390.361 35.335 390.125 35.7939C389.89 36.2528 389.607 36.6529 389.278 36.9942C388.949 37.3354 388.478 37.7708 387.866 38.3003C387.442 38.6651 386.854 39.2064 386.101 39.9242L385.059 40.9127L386.401 40.9303C388.248 40.9303 389.231 40.9009 389.349 40.8421C389.431 40.8185 389.572 40.2949 389.772 39.2711V39.2182H390.478V39.2711C390.466 39.3064 390.39 39.8418 390.249 40.8774C390.108 41.9129 390.019 42.4542 389.984 42.5012V42.5542H383.436V42.2188V42.007C383.436 41.9247 383.471 41.8364 383.541 41.7423C383.612 41.6481 383.789 41.4422 384.071 41.1245C384.412 40.7479 384.706 40.4184 384.954 40.136C385.059 40.0184 385.259 39.8007 385.554 39.4829C385.848 39.1652 386.048 38.9475 386.154 38.8299C386.26 38.7122 386.43 38.518 386.666 38.2474C386.901 37.9767 387.066 37.7767 387.16 37.6472C387.254 37.5178 387.389 37.3413 387.566 37.1177C387.742 36.8941 387.866 36.7059 387.937 36.5529C388.007 36.3999 388.095 36.2293 388.201 36.041C388.307 35.8527 388.384 35.6645 388.431 35.4762C388.478 35.2879 388.519 35.1114 388.554 34.9467C388.59 34.7819 388.607 34.5878 388.607 34.3642C388.607 33.6228 388.407 32.9815 388.007 32.4402C387.607 31.8989 387.036 31.6283 386.295 31.6283C385.907 31.6283 385.565 31.7283 385.271 31.9284C384.977 32.1284 384.771 32.3226 384.653 32.5108C384.536 32.6991 384.477 32.8109 384.477 32.8462C384.477 32.858 384.506 32.8638 384.565 32.8638C384.777 32.8638 384.995 32.9462 385.218 33.111C385.442 33.2757 385.554 33.5464 385.554 33.9229C385.554 34.2171 385.46 34.4642 385.271 34.6642C385.083 34.8643 384.818 34.9702 384.477 34.982Z" fill="black"/>
<path d="M369.174 37.328C369.103 37.328 369.021 37.2809 368.927 37.1867C368.833 37.0926 368.78 37.0102 368.768 36.9396C368.756 36.869 368.939 36.6925 369.315 36.4101C369.692 36.1277 370.08 35.8335 370.48 35.5276C370.88 35.2216 371.104 35.051 371.151 35.0157C371.175 34.9922 371.204 34.9804 371.239 34.9804H371.257C371.327 34.9804 371.41 35.0804 371.504 35.2804C371.598 35.4805 371.916 36.1689 372.457 37.3456C372.681 37.8516 372.863 38.2576 373.004 38.5635L374.505 41.8289C374.516 41.8289 375.128 40.5757 376.34 38.0693C377.552 35.5629 378.764 33.0388 379.976 30.4971C381.188 27.9553 381.818 26.655 381.865 26.5962C381.936 26.4315 382.053 26.3491 382.218 26.3491C382.3 26.3491 382.371 26.3844 382.43 26.455C382.489 26.5256 382.53 26.5962 382.553 26.6668V26.7727L378.441 35.2981L374.293 43.8764C374.246 43.9588 374.134 44 373.957 44C373.852 44 373.781 43.9823 373.746 43.947C373.722 43.9235 373.146 42.6762 372.016 40.2051L370.321 36.4984L370.039 36.6925C369.862 36.8337 369.68 36.9749 369.492 37.1161C369.304 37.2574 369.198 37.328 369.174 37.328Z" fill="black"/>
<path d="M391.379 27.0991H382.554V26.3507H391.379V27.0991Z" fill="black"/>
<path d="M393.878 24.0996H365V22.6017H393.878V24.0996Z" fill="black"/>
<path d="M400.344 35.8086H400.294C400.094 35.8086 399.945 35.6921 399.845 35.4591V23.3256L399.87 11.1922C400.036 10.9758 400.194 10.8676 400.344 10.8676C400.56 10.8676 400.727 10.9925 400.843 11.2421V35.4591C400.71 35.6921 400.56 35.8086 400.394 35.8086H400.344Z" fill="black"/>
<path d="M409.132 15.162L408.808 15.2868C408.575 15.37 408.242 15.4532 407.809 15.5365C407.376 15.6197 406.894 15.6779 406.361 15.7112H405.887V14.5628H406.361C407.143 14.5295 407.867 14.4047 408.533 14.1883C409.199 13.9719 409.665 13.7722 409.931 13.5891C410.198 13.406 410.431 13.223 410.63 13.0399C410.664 12.9899 410.763 12.965 410.93 12.965C411.08 12.965 411.221 13.0149 411.354 13.1148V20.5796L411.379 28.0694C411.496 28.1859 411.596 28.2608 411.679 28.2941C411.762 28.3273 411.962 28.3606 412.278 28.3939C412.594 28.4272 413.11 28.4439 413.826 28.4439H414.475V29.5923H414.2C413.851 29.5424 412.528 29.5174 410.231 29.5174C407.967 29.5174 406.661 29.5424 406.311 29.5923H406.012V28.4439H406.661C407.027 28.4439 407.343 28.4439 407.609 28.4439C407.876 28.4439 408.084 28.4355 408.234 28.4189C408.383 28.4022 408.516 28.3773 408.633 28.344C408.749 28.3107 408.816 28.2941 408.833 28.2941C408.849 28.2941 408.899 28.2524 408.982 28.1692C409.066 28.086 409.116 28.0527 409.132 28.0694V15.162Z" fill="black"/>
<path d="M418.395 23.6753C418.395 23.6753 418.395 23.5672 418.395 23.3508C418.395 23.1344 418.511 22.968 418.744 22.8515H433.249C433.499 22.9846 433.624 23.1511 433.624 23.3508C433.624 23.5505 433.499 23.7169 433.249 23.8501H418.744C418.511 23.7336 418.395 23.5672 418.395 23.3508V23.6753Z" fill="black"/>
<path d="M437.094 11.317C437.11 11.2004 437.16 11.1006 437.244 11.0174C437.327 10.9341 437.443 10.8842 437.593 10.8676C437.76 10.8676 437.901 10.9508 438.017 11.1172C438.067 11.2337 438.85 13.2809 440.364 17.2588C441.879 21.2368 442.645 23.2673 442.661 23.3505C442.678 23.4338 441.92 25.4643 440.389 29.4422C438.858 33.4201 438.067 35.4673 438.017 35.5838C437.901 35.7503 437.76 35.8335 437.593 35.8335C437.46 35.8335 437.352 35.7919 437.269 35.7087C437.185 35.6254 437.127 35.5173 437.094 35.3841C437.094 35.3009 437.843 33.2786 439.341 29.3174C440.855 25.3728 441.613 23.3838 441.613 23.3505C441.613 23.3172 440.855 21.3283 439.341 17.3837C437.843 13.4224 437.094 11.4002 437.094 11.317Z" fill="black"/>
</svg>
