<svg width="704" height="387" viewBox="0 0 704 387" fill="none" xmlns="http://www.w3.org/2000/svg">
<rect width="704" height="387" fill="white"/>
<path d="M603.5 315L391.635 315C389.877 315 388.247 314.076 387.345 312.567L342.381 237.432C341.478 235.924 339.849 235 338.09 235L91 235" stroke="#343A3F"/>
<path d="M604.5 235L392.342 235C390.561 235 388.915 235.947 388.02 237.486L344.367 312.514C343.471 314.053 341.825 315 340.045 315L91 315" stroke="#343A3F"/>
<path d="M604.37 236.5L608.37 235L604.37 233.5V236.5Z" fill="#343A3F"/>
<line x1="604.37" y1="235" x2="584.37" y2="235" stroke="#343A3F"/>
<path d="M604.37 316.5L608.37 315L604.37 313.5V316.5Z" fill="#343A3F"/>
<line x1="604.37" y1="315" x2="584.37" y2="315" stroke="#343A3F"/>
<circle cx="48" cy="76" r="24" fill="#DDE1E6"/>
<circle cx="48.5" cy="75.5" r="13" transform="rotate(-90 48.5 75.5)" fill="#BE95FF" stroke="#491D8B"/>
<path d="M58 76.6562L62 75.1562L58 73.6562L58 76.6562Z" fill="#491D8B"/>
<line x1="58" y1="75.1562" x2="47" y2="75.1562" stroke="#491D8B"/>
<circle cx="656" cy="76" r="24" fill="#DDE1E6"/>
<circle cx="656.5" cy="75.5" r="13" transform="rotate(-90 656.5 75.5)" fill="#BE95FF" stroke="#491D8B"/>
<path d="M666 76.6562L670 75.1562L666 73.6562V76.6562Z" fill="#491D8B"/>
<line x1="666" y1="75.1562" x2="655" y2="75.1562" stroke="#491D8B"/>
<path d="M43.2255 117.168C45.5635 117.168 46.5855 115.306 46.5855 112.114C46.5855 108.922 45.5635 107.06 43.2255 107.06C40.8875 107.06 39.8655 108.922 39.8655 112.114C39.8655 115.306 40.8875 117.168 43.2255 117.168ZM43.2255 116.146C41.6995 116.146 41.0975 114.802 41.0975 112.912V111.316C41.0975 109.426 41.6995 108.082 43.2255 108.082C44.7515 108.082 45.3535 109.426 45.3535 111.316V112.912C45.3535 114.802 44.7515 116.146 43.2255 116.146ZM51.78 117.168C54.118 117.168 55.14 115.306 55.14 112.114C55.14 108.922 54.118 107.06 51.78 107.06C49.442 107.06 48.42 108.922 48.42 112.114C48.42 115.306 49.442 117.168 51.78 117.168ZM51.78 116.146C50.254 116.146 49.652 114.802 49.652 112.912V111.316C49.652 109.426 50.254 108.082 51.78 108.082C53.306 108.082 53.908 109.426 53.908 111.316V112.912C53.908 114.802 53.306 116.146 51.78 116.146Z" fill="black"/>
<path d="M651.225 117.168C653.563 117.168 654.585 115.306 654.585 112.114C654.585 108.922 653.563 107.06 651.225 107.06C648.887 107.06 647.865 108.922 647.865 112.114C647.865 115.306 648.887 117.168 651.225 117.168ZM651.225 116.146C649.699 116.146 649.097 114.802 649.097 112.912V111.316C649.097 109.426 649.699 108.082 651.225 108.082C652.751 108.082 653.353 109.426 653.353 111.316V112.912C653.353 114.802 652.751 116.146 651.225 116.146ZM659.78 117.168C662.118 117.168 663.14 115.306 663.14 112.114C663.14 108.922 662.118 107.06 659.78 107.06C657.442 107.06 656.42 108.922 656.42 112.114C656.42 115.306 657.442 117.168 659.78 117.168ZM659.78 116.146C658.254 116.146 657.652 114.802 657.652 112.912V111.316C657.652 109.426 658.254 108.082 659.78 108.082C661.306 108.082 661.908 109.426 661.908 111.316V112.912C661.908 114.802 661.306 116.146 659.78 116.146Z" fill="black"/>
<path d="M43.2255 199.168C45.5635 199.168 46.5855 197.306 46.5855 194.114C46.5855 190.922 45.5635 189.06 43.2255 189.06C40.8875 189.06 39.8655 190.922 39.8655 194.114C39.8655 197.306 40.8875 199.168 43.2255 199.168ZM43.2255 198.146C41.6995 198.146 41.0975 196.802 41.0975 194.912V193.316C41.0975 191.426 41.6995 190.082 43.2255 190.082C44.7515 190.082 45.3535 191.426 45.3535 193.316V194.912C45.3535 196.802 44.7515 198.146 43.2255 198.146ZM55.238 199V197.964H52.718V189.228H50.884L48.294 191.65L48.98 192.392L51.444 190.096H51.542V197.964H48.812V199H55.238Z" fill="black"/>
<path d="M651.225 199.168C653.563 199.168 654.585 197.306 654.585 194.114C654.585 190.922 653.563 189.06 651.225 189.06C648.887 189.06 647.865 190.922 647.865 194.114C647.865 197.306 648.887 199.168 651.225 199.168ZM651.225 198.146C649.699 198.146 649.097 196.802 649.097 194.912V193.316C649.097 191.426 649.699 190.082 651.225 190.082C652.751 190.082 653.353 191.426 653.353 193.316V194.912C653.353 196.802 652.751 198.146 651.225 198.146ZM663.238 199V197.964H660.718V189.228H658.884L656.294 191.65L656.98 192.392L659.444 190.096H659.542V197.964H656.812V199H663.238Z" fill="black"/>
<path d="M46.6835 277V275.964H44.1635V267.228H42.3295L39.7395 269.65L40.4255 270.392L42.8895 268.096H42.9875V275.964H40.2575V277H46.6835ZM51.78 277.168C54.118 277.168 55.14 275.306 55.14 272.114C55.14 268.922 54.118 267.06 51.78 267.06C49.442 267.06 48.42 268.922 48.42 272.114C48.42 275.306 49.442 277.168 51.78 277.168ZM51.78 276.146C50.254 276.146 49.652 274.802 49.652 272.912V271.316C49.652 269.426 50.254 268.082 51.78 268.082C53.306 268.082 53.908 269.426 53.908 271.316V272.912C53.908 274.802 53.306 276.146 51.78 276.146Z" fill="black"/>
<path d="M654.683 277V275.964H652.163V267.228H650.329L647.739 269.65L648.425 270.392L650.889 268.096H650.987V275.964H648.257V277H654.683ZM659.78 277.168C662.118 277.168 663.14 275.306 663.14 272.114C663.14 268.922 662.118 267.06 659.78 267.06C657.442 267.06 656.42 268.922 656.42 272.114C656.42 275.306 657.442 277.168 659.78 277.168ZM659.78 276.146C658.254 276.146 657.652 274.802 657.652 272.912V271.316C657.652 269.426 658.254 268.082 659.78 268.082C661.306 268.082 661.908 269.426 661.908 271.316V272.912C661.908 274.802 661.306 276.146 659.78 276.146Z" fill="black"/>
<path d="M46.6835 355V353.964H44.1635V345.228H42.3295L39.7395 347.65L40.4255 348.392L42.8895 346.096H42.9875V353.964H40.2575V355H46.6835ZM55.238 355V353.964H52.718V345.228H50.884L48.294 347.65L48.98 348.392L51.444 346.096H51.542V353.964H48.812V355H55.238Z" fill="black"/>
<path d="M654.683 355V353.964H652.163V345.228H650.329L647.739 347.65L648.425 348.392L650.889 346.096H650.987V353.964H648.257V355H654.683ZM663.238 355V353.964H660.718V345.228H658.884L656.294 347.65L656.98 348.392L659.444 346.096H659.542V353.964H656.812V355H663.238Z" fill="black"/>
<circle cx="48" cy="236" r="24" fill="#DDE1E6"/>
<circle cx="656" cy="236" r="24" fill="#DDE1E6"/>
<circle cx="48" cy="158" r="24" transform="rotate(-180 48 158)" fill="#DDE1E6"/>
<circle cx="47.5" cy="158.5" r="13" transform="rotate(90 47.5 158.5)" fill="#BE95FF" stroke="#491D8B"/>
<path d="M38 157.344L34 158.844L38 160.344L38 157.344Z" fill="#491D8B"/>
<line x1="38" y1="158.844" x2="49" y2="158.844" stroke="#491D8B"/>
<circle cx="656" cy="158" r="24" transform="rotate(-180 656 158)" fill="#DDE1E6"/>
<circle cx="655.5" cy="158.5" r="13" transform="rotate(90 655.5 158.5)" fill="#BE95FF" stroke="#491D8B"/>
<path d="M646 157.344L642 158.844L646 160.344L646 157.344Z" fill="#491D8B"/>
<line x1="646" y1="158.844" x2="657" y2="158.844" stroke="#491D8B"/>
<circle cx="48" cy="314" r="24" fill="#DDE1E6"/>
<circle cx="656" cy="314" r="24" fill="#DDE1E6"/>
<path d="M64 49H77C78.6569 49 80 50.3431 80 52V368C80 369.657 78.6569 371 77 371H66.5" stroke="#343A3F"/>
<path d="M32 49H19C17.3431 49 16 50.3431 16 52V368C16 369.657 17.3431 371 19 371H29.5" stroke="#343A3F"/>
<path d="M672 49H685C686.657 49 688 50.3431 688 52V368C688 369.657 686.657 371 685 371H674.5" stroke="#343A3F"/>
<path d="M640 49H627C625.343 49 624 50.3431 624 52V368C624 369.657 625.343 371 627 371H637.5" stroke="#343A3F"/>
<path d="M604.37 77L608.37 75.5L604.37 74V77Z" fill="#343A3F"/>
<line x1="604.37" y1="75.5" x2="584.37" y2="75.5" stroke="#343A3F"/>
<line x1="585" y1="75.5" x2="91" y2="75.5" stroke="black"/>
<path d="M604.37 159L608.37 157.5L604.37 156V159Z" fill="#343A3F"/>
<line x1="604.37" y1="157.5" x2="584.37" y2="157.5" stroke="#343A3F"/>
<line x1="585" y1="157.5" x2="91" y2="157.5" stroke="black"/>
<rect opacity="0.7" x="1" y="204" width="703" height="181" fill="white"/>
<rect x="1.5" y="0.5" width="702" height="203" stroke="#8A3FFC"/>
<path d="M330 26.1489C330 24.7034 330.277 23.3755 330.832 22.1653C331.387 20.9551 332.101 19.9886 332.975 19.2658C333.849 18.543 334.765 17.9883 335.723 17.6017C336.681 17.2151 337.589 17.0134 338.446 16.9966C338.497 16.9966 338.572 16.9966 338.673 16.9966C338.774 16.9966 338.841 17.005 338.875 17.0218C340.405 17.0218 341.758 17.5933 342.934 18.7363L343.262 19.0389L344.018 18.0556C344.472 17.4337 344.733 17.0891 344.8 17.0218C344.817 17.0218 344.85 17.0218 344.901 17.0218C344.951 17.0218 345.002 17.0134 345.052 16.9966H345.153C345.203 16.9966 345.279 17.0471 345.38 17.1479V24.2075L345.229 24.3588H344.371C344.271 24.258 344.212 24.1151 344.195 23.9302C344.044 22.5519 343.64 21.3585 342.985 20.35C342.329 19.3414 341.531 18.6775 340.589 18.3581C340.27 18.2405 339.85 18.1816 339.329 18.1816C337.581 18.1816 336.118 18.7699 334.942 19.9465C333.614 21.2744 332.95 23.3419 332.95 26.1489C332.95 28.1828 333.269 29.788 333.908 30.9646C334.261 31.637 334.698 32.2001 335.219 32.6539C335.74 33.1077 336.286 33.4355 336.858 33.6372C337.429 33.8389 337.9 33.9734 338.27 34.0406C338.64 34.1079 339.009 34.1499 339.379 34.1667C340.875 34.1667 342.077 33.5868 342.985 32.427C343.892 31.2672 344.355 29.9981 344.371 28.6198C344.371 28.5022 344.422 28.3929 344.523 28.2921H345.229L345.38 28.4433V28.8215C345.296 30.5528 344.657 32.0656 343.464 33.3599C342.27 34.6541 340.699 35.3013 338.749 35.3013C336.379 35.3013 334.328 34.4272 332.597 32.6791C330.866 30.931 330 28.7543 330 26.1489Z" fill="black"/>
<path d="M347.851 33.6122C348.389 33.5786 348.826 33.4945 349.162 33.36C349.498 33.2256 349.7 33.1163 349.767 33.0323C349.834 32.9482 349.918 32.8054 350.019 32.6037V18.7869H349.918C349.75 18.7365 349.145 18.7113 348.103 18.7113H347.422V17.5515H352.641L352.717 17.6271C352.751 17.6439 353.482 18.7029 354.911 20.804C356.339 22.9051 357.777 25.0145 359.222 27.1324L361.365 30.2841V19.6946C361.264 19.5265 361.18 19.4004 361.113 19.3164C361.046 19.2324 360.844 19.1147 360.508 18.9634C360.172 18.8121 359.735 18.7281 359.197 18.7113H358.768V17.5515H358.97C359.222 17.6019 360.205 17.6271 361.92 17.6271C363.702 17.6271 364.668 17.6019 364.819 17.5515H365.046V18.7113H364.618C363.391 18.7785 362.676 19.1063 362.475 19.6946L362.449 27.1576V34.6207L362.273 34.772H361.92C361.668 34.772 361.516 34.7468 361.466 34.6963C361.416 34.6459 360.567 33.4105 358.919 30.99C357.272 28.5696 355.6 26.1071 353.902 23.6026C352.204 21.0981 351.272 19.7366 351.103 19.5181V26.0735L351.129 32.6037C351.314 33.2088 352.028 33.5449 353.272 33.6122H353.7V34.772H353.473C353.221 34.7215 352.255 34.6963 350.574 34.6963C348.86 34.6963 347.876 34.7215 347.624 34.772H347.422V33.6122H347.851Z" fill="black"/>
<path d="M367.114 26.1995C367.114 24.8044 367.366 23.5101 367.87 22.3167C368.374 21.1233 369.03 20.1484 369.837 19.392C370.644 18.6356 371.534 18.0473 372.509 17.6271C373.484 17.2069 374.476 16.9967 375.484 16.9967C377.72 16.9967 379.678 17.8708 381.359 19.6189C383.04 21.367 383.889 23.5521 383.906 26.1743C383.906 27.5358 383.662 28.7964 383.174 29.9562C382.687 31.116 382.048 32.0909 381.258 32.8809C380.468 33.6709 379.569 34.2677 378.56 34.6711C377.552 35.0745 376.527 35.293 375.484 35.3266C374.442 35.3602 373.425 35.1501 372.434 34.6963C371.442 34.2424 370.543 33.6457 369.736 32.9062C368.929 32.1666 368.299 31.2001 367.845 30.0067C367.391 28.8132 367.147 27.5442 367.114 26.1995ZM377.476 18.4591C376.787 18.1565 376.123 18.0053 375.484 18.0053C375.014 18.0053 374.535 18.0977 374.047 18.2826C373.56 18.4675 373.039 18.7533 372.484 19.1398C371.929 19.5264 371.459 20.1232 371.072 20.93C370.686 21.7368 370.4 22.6613 370.215 23.7034C370.131 24.174 370.089 24.8884 370.089 25.8465C370.089 29.3763 370.955 31.8388 372.686 33.2339C373.526 33.9231 374.434 34.2677 375.409 34.2677H375.51H375.56C376.955 34.2677 378.182 33.6037 379.241 32.2758C380.351 30.7799 380.905 28.6367 380.905 25.8465C380.905 24.8884 380.863 24.174 380.779 23.7034C380.426 21.1317 379.325 19.3836 377.476 18.4591Z" fill="black"/>
<path d="M386.225 23.6026C386.242 23.5186 386.326 22.5521 386.477 20.7031C386.629 18.8542 386.704 17.9045 386.704 17.854V17.7028H402.109V17.854C402.126 17.9381 402.21 18.9046 402.361 20.7535C402.513 22.6025 402.588 23.5522 402.588 23.6026V23.7539H401.58V23.6026C401.58 23.569 401.555 23.2748 401.504 22.7202C401.454 22.1655 401.361 21.6108 401.227 21.0561C401.092 20.5014 400.916 20.0896 400.697 19.8207C400.412 19.4677 399.949 19.1987 399.311 19.0138C398.958 18.9298 398.311 18.8878 397.369 18.8878H396.688H396.487C396.05 18.8878 395.806 18.9886 395.756 19.1903C395.739 19.224 395.73 21.5688 395.73 26.2248V33.1836C395.848 33.3516 396.067 33.4609 396.386 33.5113C396.705 33.5617 397.453 33.5954 398.63 33.6122H399.386V34.772H399.059L394.419 34.6963C391.478 34.73 389.931 34.7552 389.78 34.772H389.452V33.6122H390.209C391.385 33.6122 392.133 33.587 392.453 33.5365C392.772 33.4861 392.991 33.3684 393.108 33.1836V26.2248V20.9048C393.108 19.7282 393.066 19.0979 392.982 19.0138C392.898 18.9298 392.621 18.8878 392.15 18.8878H391.469H390.965C389.789 18.8878 388.906 19.1315 388.318 19.619C388.015 19.8879 387.797 20.2829 387.662 20.804C387.528 21.325 387.427 21.8965 387.36 22.5185C387.292 23.1404 387.25 23.5018 387.234 23.6026V23.7539H386.225V23.6026Z" fill="black"/>
<path d="M29.5 35.9751H29.45C29.25 35.9751 29.1 35.8584 29 35.6251V23.4751L29.025 11.3251C29.1917 11.1084 29.35 11.0001 29.5 11.0001C29.7167 11.0001 29.8833 11.1251 30 11.3751V35.6251C29.8667 35.8584 29.7167 35.9751 29.55 35.9751H29.5Z" fill="black"/>
<path d="M35.3752 15.1248C36.3085 13.7748 37.5835 13.0998 39.2002 13.0998C40.0002 13.0998 40.8002 13.3165 41.6002 13.7498C42.4002 14.1831 43.0502 14.9498 43.5502 16.0498C44.1669 17.4331 44.4752 19.3331 44.4752 21.7498C44.4752 24.3331 44.1169 26.3081 43.4002 27.6748C43.0669 28.3748 42.6085 28.9331 42.0252 29.3498C41.4419 29.7665 40.9335 30.0248 40.5002 30.1248C40.0669 30.2248 39.6419 30.2831 39.2252 30.2998C38.7919 30.2998 38.3585 30.2498 37.9252 30.1498C37.4919 30.0498 36.9835 29.7831 36.4002 29.3498C35.8169 28.9165 35.3585 28.3581 35.0252 27.6748C34.3085 26.3081 33.9502 24.3331 33.9502 21.7498C33.9502 18.8498 34.4252 16.6415 35.3752 15.1248ZM41.0002 14.8248C40.5002 14.2915 39.9085 14.0248 39.2252 14.0248C38.5252 14.0248 37.9252 14.2915 37.4252 14.8248C37.0085 15.2581 36.7335 15.8581 36.6002 16.6248C36.4669 17.3915 36.4002 18.9915 36.4002 21.4248C36.4002 24.0581 36.4669 25.7915 36.6002 26.6248C36.7335 27.4581 37.0335 28.1165 37.5002 28.5998C37.9669 29.0998 38.5419 29.3498 39.2252 29.3498C39.8919 29.3498 40.4585 29.0998 40.9252 28.5998C41.4085 28.0998 41.7085 27.3998 41.8252 26.4998C41.9419 25.5998 42.0085 23.9081 42.0252 21.4248C42.0252 19.0081 41.9585 17.4165 41.8252 16.6498C41.6919 15.8831 41.4169 15.2748 41.0002 14.8248Z" fill="black"/>
<path d="M47.5752 23.825C47.5752 23.825 47.5752 23.7167 47.5752 23.5C47.5752 23.2833 47.6919 23.1167 47.9252 23H62.4502C62.7002 23.1333 62.8252 23.3 62.8252 23.5C62.8252 23.7 62.7002 23.8667 62.4502 24H47.9252C47.6919 23.8833 47.5752 23.7167 47.5752 23.5V23.825Z" fill="black"/>
<path d="M66.2998 11.45C66.3165 11.3333 66.3665 11.2333 66.4498 11.15C66.5331 11.0667 66.6498 11.0167 66.7998 11C66.9665 11 67.1081 11.0833 67.2248 11.25C67.2748 11.3667 68.0581 13.4167 69.5748 17.4C71.0915 21.3833 71.8581 23.4167 71.8748 23.5C71.8915 23.5833 71.1331 25.6167 69.5998 29.6C68.0665 33.5833 67.2748 35.6333 67.2248 35.75C67.1081 35.9167 66.9665 36 66.7998 36C66.6665 36 66.5581 35.9583 66.4748 35.875C66.3915 35.7917 66.3331 35.6833 66.2998 35.55C66.2998 35.4667 67.0498 33.4417 68.5498 29.475C70.0665 25.525 70.8248 23.5333 70.8248 23.5C70.8248 23.4667 70.0665 21.475 68.5498 17.525C67.0498 13.5583 66.2998 11.5333 66.2998 11.45Z" fill="black"/>
<path d="M638.5 35.9751H638.45C638.25 35.9751 638.1 35.8584 638 35.6251V23.4751L638.025 11.3251C638.192 11.1084 638.35 11.0001 638.5 11.0001C638.717 11.0001 638.883 11.1251 639 11.3751V35.6251C638.867 35.8584 638.717 35.9751 638.55 35.9751H638.5Z" fill="black"/>
<path d="M644.375 15.1248C645.309 13.7748 646.584 13.0998 648.2 13.0998C649 13.0998 649.8 13.3165 650.6 13.7498C651.4 14.1831 652.05 14.9498 652.55 16.0498C653.167 17.4331 653.475 19.3331 653.475 21.7498C653.475 24.3331 653.117 26.3081 652.4 27.6748C652.067 28.3748 651.609 28.9331 651.025 29.3498C650.442 29.7665 649.934 30.0248 649.5 30.1248C649.067 30.2248 648.642 30.2831 648.225 30.2998C647.792 30.2998 647.359 30.2498 646.925 30.1498C646.492 30.0498 645.984 29.7831 645.4 29.3498C644.817 28.9165 644.359 28.3581 644.025 27.6748C643.309 26.3081 642.95 24.3331 642.95 21.7498C642.95 18.8498 643.425 16.6415 644.375 15.1248ZM650 14.8248C649.5 14.2915 648.909 14.0248 648.225 14.0248C647.525 14.0248 646.925 14.2915 646.425 14.8248C646.009 15.2581 645.734 15.8581 645.6 16.6248C645.467 17.3915 645.4 18.9915 645.4 21.4248C645.4 24.0581 645.467 25.7915 645.6 26.6248C645.734 27.4581 646.034 28.1165 646.5 28.5998C646.967 29.0998 647.542 29.3498 648.225 29.3498C648.892 29.3498 649.459 29.0998 649.925 28.5998C650.409 28.0998 650.709 27.3998 650.825 26.4998C650.942 25.5998 651.009 23.9081 651.025 21.4248C651.025 19.0081 650.959 17.4165 650.825 16.6498C650.692 15.8831 650.417 15.2748 650 14.8248Z" fill="black"/>
<path d="M656.575 23.825C656.575 23.825 656.575 23.7167 656.575 23.5C656.575 23.2833 656.692 23.1167 656.925 23H671.45C671.7 23.1333 671.825 23.3 671.825 23.5C671.825 23.7 671.7 23.8667 671.45 24H656.925C656.692 23.8833 656.575 23.7167 656.575 23.5V23.825Z" fill="black"/>
<path d="M675.3 11.45C675.316 11.3333 675.366 11.2333 675.45 11.15C675.533 11.0667 675.65 11.0167 675.8 11C675.966 11 676.108 11.0833 676.225 11.25C676.275 11.3667 677.058 13.4167 678.575 17.4C680.091 21.3833 680.858 23.4167 680.875 23.5C680.891 23.5833 680.133 25.6167 678.6 29.6C677.066 33.5833 676.275 35.6333 676.225 35.75C676.108 35.9167 675.966 36 675.8 36C675.666 36 675.558 35.9583 675.475 35.875C675.391 35.7917 675.333 35.6833 675.3 35.55C675.3 35.4667 676.05 33.4417 677.55 29.475C679.066 25.525 679.825 23.5333 679.825 23.5C679.825 23.4667 679.066 21.475 677.55 17.525C676.05 13.5583 675.3 11.5333 675.3 11.45Z" fill="black"/>
</svg>
