<svg width="704" height="387" viewBox="0 0 704 387" fill="none" xmlns="http://www.w3.org/2000/svg">
<rect width="704" height="387" fill="white"/>
<g opacity="0.2">
<path d="M200 315L171.635 315C169.877 315 168.247 314.076 167.345 312.567L122.381 237.432C121.478 235.924 119.849 235 118.09 235L92 235" stroke="#343A3F"/>
<path d="M203.5 235L172.342 235C170.561 235 168.915 235.947 168.02 237.486L124.367 312.514C123.472 314.053 121.826 315 120.045 315L91 315" stroke="#343A3F"/>
<path d="M218.37 236.5L222.37 235L218.37 233.5V236.5Z" fill="#343A3F"/>
<line x1="218.37" y1="235" x2="198.37" y2="235" stroke="#343A3F"/>
<path d="M216.37 316.5L220.37 315L216.37 313.5V316.5Z" fill="#343A3F"/>
<line x1="216.37" y1="315" x2="196.37" y2="315" stroke="#343A3F"/>
</g>
<circle cx="290" cy="76" r="24" fill="#DDE1E6"/>
<circle cx="290.5" cy="75.5" r="13" transform="rotate(-90 290.5 75.5)" fill="#BE95FF" stroke="#491D8B"/>
<path d="M300 76.6562L304 75.1562L300 73.6562V76.6562Z" fill="#491D8B"/>
<line x1="300" y1="75.1562" x2="289" y2="75.1562" stroke="#491D8B"/>
<circle cx="426" cy="76" r="24" fill="#DDE1E6"/>
<circle cx="426.5" cy="75.5" r="13" transform="rotate(-90 426.5 75.5)" fill="#BE95FF" stroke="#491D8B"/>
<path d="M436 76.6562L440 75.1562L436 73.6562V76.6562Z" fill="#491D8B"/>
<line x1="436" y1="75.1562" x2="425" y2="75.1562" stroke="#491D8B"/>
<circle cx="562" cy="76" r="24" fill="#DDE1E6"/>
<path d="M285.225 117.168C287.563 117.168 288.585 115.306 288.585 112.114C288.585 108.922 287.563 107.06 285.225 107.06C282.887 107.06 281.865 108.922 281.865 112.114C281.865 115.306 282.887 117.168 285.225 117.168ZM285.225 116.146C283.699 116.146 283.097 114.802 283.097 112.912V111.316C283.097 109.426 283.699 108.082 285.225 108.082C286.751 108.082 287.353 109.426 287.353 111.316V112.912C287.353 114.802 286.751 116.146 285.225 116.146ZM293.78 117.168C296.118 117.168 297.14 115.306 297.14 112.114C297.14 108.922 296.118 107.06 293.78 107.06C291.442 107.06 290.42 108.922 290.42 112.114C290.42 115.306 291.442 117.168 293.78 117.168ZM293.78 116.146C292.254 116.146 291.652 114.802 291.652 112.912V111.316C291.652 109.426 292.254 108.082 293.78 108.082C295.306 108.082 295.908 109.426 295.908 111.316V112.912C295.908 114.802 295.306 116.146 293.78 116.146Z" fill="black"/>
<path d="M421.225 117.168C423.563 117.168 424.585 115.306 424.585 112.114C424.585 108.922 423.563 107.06 421.225 107.06C418.887 107.06 417.865 108.922 417.865 112.114C417.865 115.306 418.887 117.168 421.225 117.168ZM421.225 116.146C419.699 116.146 419.097 114.802 419.097 112.912V111.316C419.097 109.426 419.699 108.082 421.225 108.082C422.751 108.082 423.353 109.426 423.353 111.316V112.912C423.353 114.802 422.751 116.146 421.225 116.146ZM429.78 117.168C432.118 117.168 433.14 115.306 433.14 112.114C433.14 108.922 432.118 107.06 429.78 107.06C427.442 107.06 426.42 108.922 426.42 112.114C426.42 115.306 427.442 117.168 429.78 117.168ZM429.78 116.146C428.254 116.146 427.652 114.802 427.652 112.912V111.316C427.652 109.426 428.254 108.082 429.78 108.082C431.306 108.082 431.908 109.426 431.908 111.316V112.912C431.908 114.802 431.306 116.146 429.78 116.146Z" fill="black"/>
<path d="M557.225 117.168C559.563 117.168 560.585 115.306 560.585 112.114C560.585 108.922 559.563 107.06 557.225 107.06C554.887 107.06 553.865 108.922 553.865 112.114C553.865 115.306 554.887 117.168 557.225 117.168ZM557.225 116.146C555.699 116.146 555.097 114.802 555.097 112.912V111.316C555.097 109.426 555.699 108.082 557.225 108.082C558.751 108.082 559.353 109.426 559.353 111.316V112.912C559.353 114.802 558.751 116.146 557.225 116.146ZM565.78 117.168C568.118 117.168 569.14 115.306 569.14 112.114C569.14 108.922 568.118 107.06 565.78 107.06C563.442 107.06 562.42 108.922 562.42 112.114C562.42 115.306 563.442 117.168 565.78 117.168ZM565.78 116.146C564.254 116.146 563.652 114.802 563.652 112.912V111.316C563.652 109.426 564.254 108.082 565.78 108.082C567.306 108.082 567.908 109.426 567.908 111.316V112.912C567.908 114.802 567.306 116.146 565.78 116.146Z" fill="black"/>
<path d="M285.225 199.168C287.563 199.168 288.585 197.306 288.585 194.114C288.585 190.922 287.563 189.06 285.225 189.06C282.887 189.06 281.865 190.922 281.865 194.114C281.865 197.306 282.887 199.168 285.225 199.168ZM285.225 198.146C283.699 198.146 283.097 196.802 283.097 194.912V193.316C283.097 191.426 283.699 190.082 285.225 190.082C286.751 190.082 287.353 191.426 287.353 193.316V194.912C287.353 196.802 286.751 198.146 285.225 198.146ZM297.238 199V197.964H294.718V189.228H292.884L290.294 191.65L290.98 192.392L293.444 190.096H293.542V197.964H290.812V199H297.238Z" fill="black"/>
<path d="M421.225 199.168C423.563 199.168 424.585 197.306 424.585 194.114C424.585 190.922 423.563 189.06 421.225 189.06C418.887 189.06 417.865 190.922 417.865 194.114C417.865 197.306 418.887 199.168 421.225 199.168ZM421.225 198.146C419.699 198.146 419.097 196.802 419.097 194.912V193.316C419.097 191.426 419.699 190.082 421.225 190.082C422.751 190.082 423.353 191.426 423.353 193.316V194.912C423.353 196.802 422.751 198.146 421.225 198.146ZM433.238 199V197.964H430.718V189.228H428.884L426.294 191.65L426.98 192.392L429.444 190.096H429.542V197.964H426.812V199H433.238Z" fill="black"/>
<path d="M557.225 199.168C559.563 199.168 560.585 197.306 560.585 194.114C560.585 190.922 559.563 189.06 557.225 189.06C554.887 189.06 553.865 190.922 553.865 194.114C553.865 197.306 554.887 199.168 557.225 199.168ZM557.225 198.146C555.699 198.146 555.097 196.802 555.097 194.912V193.316C555.097 191.426 555.699 190.082 557.225 190.082C558.751 190.082 559.353 191.426 559.353 193.316V194.912C559.353 196.802 558.751 198.146 557.225 198.146ZM569.238 199V197.964H566.718V189.228H564.884L562.294 191.65L562.98 192.392L565.444 190.096H565.542V197.964H562.812V199H569.238Z" fill="black"/>
<path d="M288.683 277V275.964H286.163V267.228H284.329L281.739 269.65L282.425 270.392L284.889 268.096H284.987V275.964H282.257V277H288.683ZM293.78 277.168C296.118 277.168 297.14 275.306 297.14 272.114C297.14 268.922 296.118 267.06 293.78 267.06C291.442 267.06 290.42 268.922 290.42 272.114C290.42 275.306 291.442 277.168 293.78 277.168ZM293.78 276.146C292.254 276.146 291.652 274.802 291.652 272.912V271.316C291.652 269.426 292.254 268.082 293.78 268.082C295.306 268.082 295.908 269.426 295.908 271.316V272.912C295.908 274.802 295.306 276.146 293.78 276.146Z" fill="black"/>
<path d="M424.683 277V275.964H422.163V267.228H420.329L417.739 269.65L418.425 270.392L420.889 268.096H420.987V275.964H418.257V277H424.683ZM429.78 277.168C432.118 277.168 433.14 275.306 433.14 272.114C433.14 268.922 432.118 267.06 429.78 267.06C427.442 267.06 426.42 268.922 426.42 272.114C426.42 275.306 427.442 277.168 429.78 277.168ZM429.78 276.146C428.254 276.146 427.652 274.802 427.652 272.912V271.316C427.652 269.426 428.254 268.082 429.78 268.082C431.306 268.082 431.908 269.426 431.908 271.316V272.912C431.908 274.802 431.306 276.146 429.78 276.146Z" fill="black"/>
<path d="M560.683 277V275.964H558.163V267.228H556.329L553.739 269.65L554.425 270.392L556.889 268.096H556.987V275.964H554.257V277H560.683ZM565.78 277.168C568.118 277.168 569.14 275.306 569.14 272.114C569.14 268.922 568.118 267.06 565.78 267.06C563.442 267.06 562.42 268.922 562.42 272.114C562.42 275.306 563.442 277.168 565.78 277.168ZM565.78 276.146C564.254 276.146 563.652 274.802 563.652 272.912V271.316C563.652 269.426 564.254 268.082 565.78 268.082C567.306 268.082 567.908 269.426 567.908 271.316V272.912C567.908 274.802 567.306 276.146 565.78 276.146Z" fill="black"/>
<path d="M288.683 355V353.964H286.163V345.228H284.329L281.739 347.65L282.425 348.392L284.889 346.096H284.987V353.964H282.257V355H288.683ZM297.238 355V353.964H294.718V345.228H292.884L290.294 347.65L290.98 348.392L293.444 346.096H293.542V353.964H290.812V355H297.238Z" fill="black"/>
<path d="M424.683 355V353.964H422.163V345.228H420.329L417.739 347.65L418.425 348.392L420.889 346.096H420.987V353.964H418.257V355H424.683ZM433.238 355V353.964H430.718V345.228H428.884L426.294 347.65L426.98 348.392L429.444 346.096H429.542V353.964H426.812V355H433.238Z" fill="black"/>
<path d="M560.683 355V353.964H558.163V345.228H556.329L553.739 347.65L554.425 348.392L556.889 346.096H556.987V353.964H554.257V355H560.683ZM569.238 355V353.964H566.718V345.228H564.884L562.294 347.65L562.98 348.392L565.444 346.096H565.542V353.964H562.812V355H569.238Z" fill="black"/>
<circle cx="290" cy="236" r="24" fill="#DDE1E6"/>
<circle cx="290.5" cy="235.5" r="13" transform="rotate(90 290.5 235.5)" fill="#BE95FF" stroke="#491D8B"/>
<path d="M281 234.344L277 235.844L281 237.344V234.344Z" fill="#491D8B"/>
<line x1="281" y1="235.844" x2="292" y2="235.844" stroke="#491D8B"/>
<circle cx="426" cy="236" r="24" fill="#DDE1E6"/>
<circle cx="562" cy="236" r="24" fill="#DDE1E6"/>
<circle cx="562.5" cy="235.5" r="13" transform="rotate(90 562.5 235.5)" fill="#BE95FF" stroke="#491D8B"/>
<path d="M553 234.344L549 235.844L553 237.344V234.344Z" fill="#491D8B"/>
<line x1="553" y1="235.844" x2="564" y2="235.844" stroke="#491D8B"/>
<circle cx="290" cy="158" r="24" fill="#DDE1E6"/>
<circle cx="290.5" cy="157.5" r="13" transform="rotate(90 290.5 157.5)" fill="#BE95FF" stroke="#491D8B"/>
<path d="M281 156.344L277 157.844L281 159.344V156.344Z" fill="#491D8B"/>
<line x1="281" y1="157.844" x2="292" y2="157.844" stroke="#491D8B"/>
<circle cx="426" cy="158" r="24" fill="#DDE1E6"/>
<circle cx="426.5" cy="157.5" r="13" transform="rotate(90 426.5 157.5)" fill="#BE95FF" stroke="#491D8B"/>
<path d="M417 156.344L413 157.844L417 159.344V156.344Z" fill="#491D8B"/>
<line x1="417" y1="157.844" x2="428" y2="157.844" stroke="#491D8B"/>
<circle cx="562" cy="158" r="24" fill="#DDE1E6"/>
<circle cx="290" cy="314" r="24" fill="#DDE1E6"/>
<circle cx="290.5" cy="313.5" r="13" transform="rotate(-90 290.5 313.5)" fill="#BE95FF" stroke="#491D8B"/>
<path d="M300 314.656L304 313.156L300 311.656V314.656Z" fill="#491D8B"/>
<line x1="300" y1="313.156" x2="289" y2="313.156" stroke="#491D8B"/>
<circle cx="426" cy="314" r="24" fill="#DDE1E6"/>
<circle cx="562" cy="314" r="24" fill="#DDE1E6"/>
<circle cx="562.5" cy="313.5" r="13" transform="rotate(-90 562.5 313.5)" fill="#BE95FF" stroke="#491D8B"/>
<path d="M572 314.656L576 313.156L572 311.656V314.656Z" fill="#491D8B"/>
<line x1="572" y1="313.156" x2="561" y2="313.156" stroke="#491D8B"/>
<g opacity="0.2">
<circle cx="48" cy="76" r="24" fill="#DDE1E6"/>
<circle cx="48.5" cy="75.5" r="13" transform="rotate(-90 48.5 75.5)" fill="#BE95FF" stroke="#491D8B"/>
<path d="M58 76.6562L62 75.1562L58 73.6562L58 76.6562Z" fill="#491D8B"/>
<line x1="58" y1="75.1562" x2="47" y2="75.1562" stroke="#491D8B"/>
<path d="M43.2255 117.168C45.5635 117.168 46.5855 115.306 46.5855 112.114C46.5855 108.922 45.5635 107.06 43.2255 107.06C40.8875 107.06 39.8655 108.922 39.8655 112.114C39.8655 115.306 40.8875 117.168 43.2255 117.168ZM43.2255 116.146C41.6995 116.146 41.0975 114.802 41.0975 112.912V111.316C41.0975 109.426 41.6995 108.082 43.2255 108.082C44.7515 108.082 45.3535 109.426 45.3535 111.316V112.912C45.3535 114.802 44.7515 116.146 43.2255 116.146ZM51.78 117.168C54.118 117.168 55.14 115.306 55.14 112.114C55.14 108.922 54.118 107.06 51.78 107.06C49.442 107.06 48.42 108.922 48.42 112.114C48.42 115.306 49.442 117.168 51.78 117.168ZM51.78 116.146C50.254 116.146 49.652 114.802 49.652 112.912V111.316C49.652 109.426 50.254 108.082 51.78 108.082C53.306 108.082 53.908 109.426 53.908 111.316V112.912C53.908 114.802 53.306 116.146 51.78 116.146Z" fill="black"/>
<path d="M43.2255 199.168C45.5635 199.168 46.5855 197.306 46.5855 194.114C46.5855 190.922 45.5635 189.06 43.2255 189.06C40.8875 189.06 39.8655 190.922 39.8655 194.114C39.8655 197.306 40.8875 199.168 43.2255 199.168ZM43.2255 198.146C41.6995 198.146 41.0975 196.802 41.0975 194.912V193.316C41.0975 191.426 41.6995 190.082 43.2255 190.082C44.7515 190.082 45.3535 191.426 45.3535 193.316V194.912C45.3535 196.802 44.7515 198.146 43.2255 198.146ZM55.238 199V197.964H52.718V189.228H50.884L48.294 191.65L48.98 192.392L51.444 190.096H51.542V197.964H48.812V199H55.238Z" fill="black"/>
<path d="M46.6835 277V275.964H44.1635V267.228H42.3295L39.7395 269.65L40.4255 270.392L42.8895 268.096H42.9875V275.964H40.2575V277H46.6835ZM51.78 277.168C54.118 277.168 55.14 275.306 55.14 272.114C55.14 268.922 54.118 267.06 51.78 267.06C49.442 267.06 48.42 268.922 48.42 272.114C48.42 275.306 49.442 277.168 51.78 277.168ZM51.78 276.146C50.254 276.146 49.652 274.802 49.652 272.912V271.316C49.652 269.426 50.254 268.082 51.78 268.082C53.306 268.082 53.908 269.426 53.908 271.316V272.912C53.908 274.802 53.306 276.146 51.78 276.146Z" fill="black"/>
<path d="M46.6835 355V353.964H44.1635V345.228H42.3295L39.7395 347.65L40.4255 348.392L42.8895 346.096H42.9875V353.964H40.2575V355H46.6835ZM55.238 355V353.964H52.718V345.228H50.884L48.294 347.65L48.98 348.392L51.444 346.096H51.542V353.964H48.812V355H55.238Z" fill="black"/>
<circle cx="48" cy="236" r="24" fill="#DDE1E6"/>
<circle cx="48.5" cy="235.5" r="13" transform="rotate(-90 48.5 235.5)" fill="#BE95FF" stroke="#491D8B"/>
<path d="M58 236.656L62 235.156L58 233.656L58 236.656Z" fill="#491D8B"/>
<line x1="58" y1="235.156" x2="47" y2="235.156" stroke="#491D8B"/>
<circle cx="48" cy="158" r="24" fill="#DDE1E6"/>
<circle cx="48.5" cy="157.5" r="13" transform="rotate(90 48.5 157.5)" fill="#BE95FF" stroke="#491D8B"/>
<path d="M39 156.344L35 157.844L39 159.344L39 156.344Z" fill="#491D8B"/>
<line x1="39" y1="157.844" x2="50" y2="157.844" stroke="#491D8B"/>
<circle cx="48" cy="314" r="24" fill="#DDE1E6"/>
<circle cx="48.5" cy="313.5" r="13" transform="rotate(90 48.5 313.5)" fill="#BE95FF" stroke="#491D8B"/>
<path d="M39 312.344L35 313.844L39 315.344L39 312.344Z" fill="#491D8B"/>
<line x1="39" y1="313.844" x2="50" y2="313.844" stroke="#491D8B"/>
<path d="M64 49H77C78.6569 49 80 50.3431 80 52V368C80 369.657 78.6569 371 77 371H66.5" stroke="#343A3F"/>
<path d="M32 49H19C17.3431 49 16 50.3431 16 52V368C16 369.657 17.3431 371 19 371H29.5" stroke="#343A3F"/>
</g>
<path d="M306 49H319C320.657 49 322 50.3431 322 52V368C322 369.657 320.657 371 319 371H308.5" stroke="#343A3F"/>
<path d="M274 49H261C259.343 49 258 50.3431 258 52V368C258 369.657 259.343 371 261 371H271.5" stroke="#343A3F"/>
<path d="M442 49H455C456.657 49 458 50.3431 458 52V368C458 369.657 456.657 371 455 371H444.5" stroke="#343A3F"/>
<path d="M410 49H397C395.343 49 394 50.3431 394 52V368C394 369.657 395.343 371 397 371H407.5" stroke="#343A3F"/>
<path d="M578 49H591C592.657 49 594 50.3431 594 52V368C594 369.657 592.657 371 591 371H580.5" stroke="#343A3F"/>
<path d="M546 49H533C531.343 49 530 50.3431 530 52V368C530 369.657 531.343 371 533 371H543.5" stroke="#343A3F"/>
<g opacity="0.2">
<path d="M218 77L222 75.5L218 74V77Z" fill="#343A3F"/>
<line x1="218" y1="75.5" x2="216" y2="75.5" stroke="#343A3F"/>
<line x1="216.083" y1="75.5" x2="91.0004" y2="75.5" stroke="black"/>
</g>
<g opacity="0.2">
<path d="M218 159L222 157.5L218 156V159Z" fill="#343A3F"/>
<line x1="218" y1="157.5" x2="216" y2="157.5" stroke="#343A3F"/>
<line x1="216.083" y1="157.5" x2="91.0004" y2="157.5" stroke="black"/>
</g>
<path d="M359.462 198.89V197.448H352.938V198.89H359.462ZM359.462 202.012V200.556H352.938V202.012H359.462Z" fill="black"/>
<path d="M493.984 203.118V200.444H496.462V199.002H493.984V196.314H492.416V199.002H489.938V200.444H492.416V203.118H493.984Z" fill="black"/>
<path d="M265.5 39.9751H265.45C265.25 39.9751 265.1 39.8584 265 39.6251V27.4751L265.025 15.3251C265.192 15.1084 265.35 15.0001 265.5 15.0001C265.717 15.0001 265.883 15.1251 266 15.3751V39.6251C265.867 39.8584 265.717 39.9751 265.55 39.9751H265.5Z" fill="black"/>
<path d="M271.074 27.825C271.074 27.825 271.074 27.7167 271.074 27.5C271.074 27.2833 271.191 27.1167 271.424 27H285.949C286.199 27.1333 286.324 27.3 286.324 27.5C286.324 27.7 286.199 27.8667 285.949 28H271.424C271.191 27.8833 271.074 27.7167 271.074 27.5V27.825Z" fill="black"/>
<path d="M290.525 27.825C290.525 27.825 290.525 27.7167 290.525 27.5C290.525 27.2833 290.642 27.1167 290.875 27H305.4C305.65 27.1333 305.775 27.3 305.775 27.5C305.775 27.7 305.65 27.8667 305.4 28H290.875C290.642 27.8833 290.525 27.7167 290.525 27.5V27.825Z" fill="black"/>
<path d="M309.25 15.45C309.267 15.3333 309.317 15.2333 309.4 15.15C309.483 15.0667 309.6 15.0167 309.75 15C309.917 15 310.058 15.0833 310.175 15.25C310.225 15.3667 311.008 17.4167 312.525 21.4C314.042 25.3833 314.808 27.4167 314.825 27.5C314.842 27.5833 314.083 29.6167 312.55 33.6C311.017 37.5833 310.225 39.6333 310.175 39.75C310.058 39.9167 309.917 40 309.75 40C309.617 40 309.508 39.9583 309.425 39.875C309.342 39.7917 309.283 39.6833 309.25 39.55C309.25 39.4667 310 37.4417 311.5 33.475C313.017 29.525 313.775 27.5333 313.775 27.5C313.775 27.4667 313.017 25.475 311.5 21.525C310 17.5583 309.25 15.5333 309.25 15.45Z" fill="black"/>
<g opacity="0.33">
<path d="M27.5 39.9751H27.45C27.25 39.9751 27.1 39.8584 27 39.6251V27.4751L27.025 15.3251C27.1917 15.1084 27.35 15.0001 27.5 15.0001C27.7167 15.0001 27.8833 15.1251 28 15.3751V39.6251C27.8667 39.8584 27.7167 39.9751 27.55 39.9751H27.5Z" fill="black"/>
<path d="M32.375 27.8248C32.375 27.8248 32.375 27.7165 32.375 27.4998C32.375 27.2831 32.4917 27.1165 32.725 26.9998H40.2V23.2498L40.225 19.4998C40.3917 19.2831 40.55 19.1748 40.7 19.1748C40.9167 19.1748 41.0833 19.2998 41.2 19.5498V26.9998H48.65C48.9 27.1331 49.025 27.2998 49.025 27.4998C49.025 27.6998 48.9 27.8665 48.65 27.9998H41.2V35.4498C41.0667 35.6831 40.9167 35.7998 40.75 35.7998H40.7H40.65C40.45 35.7998 40.3 35.6831 40.2 35.4498V27.9998H32.725C32.4917 27.8831 32.375 27.7165 32.375 27.4998V27.8248Z" fill="black"/>
<path d="M52.5254 27.825C52.5254 27.825 52.5254 27.7167 52.5254 27.5C52.5254 27.2833 52.6421 27.1167 52.8754 27H67.4004C67.6504 27.1333 67.7754 27.3 67.7754 27.5C67.7754 27.7 67.6504 27.8667 67.4004 28H52.8754C52.6421 27.8833 52.5254 27.7167 52.5254 27.5V27.825Z" fill="black"/>
<path d="M71.25 15.45C71.2667 15.3333 71.3167 15.2333 71.4 15.15C71.4833 15.0667 71.6 15.0167 71.75 15C71.9167 15 72.0583 15.0833 72.175 15.25C72.225 15.3667 73.0083 17.4167 74.525 21.4C76.0417 25.3833 76.8083 27.4167 76.825 27.5C76.8417 27.5833 76.0833 29.6167 74.55 33.6C73.0167 37.5833 72.225 39.6333 72.175 39.75C72.0583 39.9167 71.9167 40 71.75 40C71.6167 40 71.5083 39.9583 71.425 39.875C71.3417 39.7917 71.2833 39.6833 71.25 39.55C71.25 39.4667 72 37.4417 73.5 33.475C75.0167 29.525 75.775 27.5333 75.775 27.5C75.775 27.4667 75.0167 25.475 73.5 21.525C72 17.5583 71.25 15.5333 71.25 15.45Z" fill="black"/>
</g>
<path d="M393.786 10.5531L393.556 10.6414C393.392 10.7002 393.156 10.7591 392.85 10.8179C392.544 10.8767 392.203 10.9179 391.827 10.9415H391.491V10.1295H391.827C392.38 10.106 392.892 10.0177 393.362 9.86476C393.833 9.71178 394.162 9.57058 394.351 9.44114C394.539 9.3117 394.704 9.18226 394.845 9.05282C394.868 9.01751 394.939 8.99986 395.057 8.99986C395.163 8.99986 395.263 9.03517 395.357 9.10577V14.3834L395.374 19.6787C395.457 19.761 395.527 19.814 395.586 19.8375C395.645 19.8611 395.786 19.8846 396.01 19.9081C396.233 19.9317 396.598 19.9434 397.104 19.9434H397.563V20.7554H397.369C397.122 20.7201 396.186 20.7024 394.562 20.7024C392.962 20.7024 392.038 20.7201 391.791 20.7554H391.579V19.9434H392.038C392.297 19.9434 392.521 19.9434 392.709 19.9434C392.897 19.9434 393.044 19.9375 393.15 19.9258C393.256 19.914 393.35 19.8964 393.433 19.8728C393.515 19.8493 393.562 19.8375 393.574 19.8375C393.586 19.8375 393.621 19.8081 393.68 19.7493C393.739 19.6904 393.774 19.6669 393.786 19.6787V10.5531Z" fill="black"/>
<path d="M399.476 35.982C399.158 35.982 398.905 35.8761 398.717 35.6642C398.529 35.4524 398.435 35.1936 398.435 34.8876C398.435 34.0521 398.746 33.3284 399.37 32.7165C399.994 32.1046 400.77 31.7987 401.7 31.7987C402.771 31.7987 403.665 32.1282 404.383 32.7871C405.101 33.4461 405.466 34.2992 405.477 35.3465C405.477 35.8525 405.36 36.335 405.124 36.7939C404.889 37.2528 404.607 37.6529 404.277 37.9942C403.948 38.3354 403.477 38.7708 402.865 39.3003C402.441 39.6651 401.853 40.2064 401.1 40.9242L400.058 41.9127L401.4 41.9303C403.247 41.9303 404.23 41.9009 404.348 41.8421C404.43 41.8185 404.571 41.2949 404.771 40.2711V40.2182H405.477V40.2711C405.466 40.3064 405.389 40.8418 405.248 41.8774C405.107 42.9129 405.018 43.4542 404.983 43.5012V43.5542H398.435V43.2188V43.007C398.435 42.9247 398.47 42.8364 398.54 42.7423C398.611 42.6481 398.788 42.4422 399.07 42.1245C399.411 41.7479 399.705 41.4184 399.953 41.136C400.058 41.0184 400.258 40.8007 400.553 40.4829C400.847 40.1652 401.047 39.9475 401.153 39.8299C401.259 39.7122 401.429 39.518 401.665 39.2474C401.9 38.9767 402.065 38.7767 402.159 38.6472C402.253 38.5178 402.388 38.3413 402.565 38.1177C402.741 37.8941 402.865 37.7059 402.936 37.5529C403.006 37.3999 403.094 37.2293 403.2 37.041C403.306 36.8527 403.383 36.6645 403.43 36.4762C403.477 36.2879 403.518 36.1114 403.553 35.9467C403.589 35.7819 403.606 35.5878 403.606 35.3642C403.606 34.6228 403.406 33.9815 403.006 33.4402C402.606 32.8989 402.035 32.6283 401.294 32.6283C400.906 32.6283 400.564 32.7283 400.27 32.9284C399.976 33.1284 399.77 33.3226 399.652 33.5108C399.535 33.6991 399.476 33.8109 399.476 33.8462C399.476 33.858 399.505 33.8638 399.564 33.8638C399.776 33.8638 399.994 33.9462 400.217 34.111C400.441 34.2757 400.553 34.5464 400.553 34.9229C400.553 35.2171 400.459 35.4642 400.27 35.6642C400.082 35.8643 399.817 35.9702 399.476 35.982Z" fill="black"/>
<path d="M384.174 38.328C384.103 38.328 384.021 38.2809 383.927 38.1867C383.833 38.0926 383.78 38.0102 383.768 37.9396C383.756 37.869 383.939 37.6925 384.315 37.4101C384.692 37.1277 385.08 36.8335 385.48 36.5276C385.88 36.2216 386.104 36.051 386.151 36.0157C386.175 35.9922 386.204 35.9804 386.239 35.9804H386.257C386.327 35.9804 386.41 36.0804 386.504 36.2804C386.598 36.4805 386.916 37.1689 387.457 38.3456C387.681 38.8516 387.863 39.2576 388.004 39.5635L389.505 42.8289C389.516 42.8289 390.128 41.5757 391.34 39.0693C392.552 36.5629 393.764 34.0388 394.976 31.4971C396.188 28.9553 396.818 27.655 396.865 27.5962C396.936 27.4315 397.053 27.3491 397.218 27.3491C397.3 27.3491 397.371 27.3844 397.43 27.455C397.489 27.5256 397.53 27.5962 397.553 27.6668V27.7727L393.441 36.2981L389.293 44.8764C389.246 44.9588 389.134 45 388.957 45C388.852 45 388.781 44.9823 388.746 44.947C388.722 44.9235 388.146 43.6762 387.016 41.2051L385.321 37.4984L385.039 37.6925C384.862 37.8337 384.68 37.9749 384.492 38.1161C384.304 38.2574 384.198 38.328 384.174 38.328Z" fill="black"/>
<path d="M406.377 28.0991H397.552V27.3507H406.377V28.0991Z" fill="black"/>
<path d="M408.878 25.0996H380V23.6017H408.878V25.0996Z" fill="black"/>
<path d="M415.345 36.8086H415.295C415.095 36.8086 414.946 36.6921 414.846 36.4591V24.3256L414.871 12.1922C415.037 11.9758 415.195 11.8676 415.345 11.8676C415.561 11.8676 415.728 11.9925 415.844 12.2421V36.4591C415.711 36.6921 415.561 36.8086 415.395 36.8086H415.345Z" fill="black"/>
<path d="M421.211 15.9873C422.143 14.6391 423.416 13.965 425.031 13.965C425.83 13.965 426.629 14.1814 427.428 14.6142C428.227 15.0469 428.876 15.8125 429.375 16.911C429.991 18.2925 430.299 20.1899 430.299 22.6033C430.299 25.1831 429.941 27.1554 429.225 28.5202C428.892 29.2192 428.435 29.7768 427.852 30.1929C427.27 30.609 426.762 30.867 426.329 30.9668C425.896 31.0667 425.472 31.125 425.056 31.1416C424.623 31.1416 424.19 31.0917 423.758 30.9918C423.325 30.8919 422.817 30.6256 422.235 30.1929C421.652 29.7602 421.194 29.2026 420.862 28.5202C420.146 27.1554 419.788 25.1831 419.788 22.6033C419.788 19.7072 420.262 17.5019 421.211 15.9873ZM426.828 15.6877C426.329 15.1551 425.738 14.8888 425.056 14.8888C424.357 14.8888 423.758 15.1551 423.258 15.6877C422.842 16.1204 422.568 16.7196 422.434 17.4852C422.301 18.2509 422.235 19.8487 422.235 22.2787C422.235 24.9084 422.301 26.6394 422.434 27.4716C422.568 28.3038 422.867 28.9612 423.333 29.4439C423.799 29.9432 424.373 30.1929 425.056 30.1929C425.722 30.1929 426.288 29.9432 426.754 29.4439C427.236 28.9446 427.536 28.2456 427.652 27.3468C427.769 26.448 427.835 24.7586 427.852 22.2787C427.852 19.8653 427.786 18.2758 427.652 17.5102C427.519 16.7446 427.245 16.1371 426.828 15.6877Z" fill="black"/>
<path d="M433.395 24.6748C433.395 24.6748 433.395 24.5667 433.395 24.3503C433.395 24.1339 433.511 23.9675 433.744 23.851H448.249C448.499 23.9841 448.624 24.1506 448.624 24.3503C448.624 24.55 448.499 24.7165 448.249 24.8496H433.744C433.511 24.7331 433.395 24.5667 433.395 24.3503V24.6748Z" fill="black"/>
<path d="M452.095 12.317C452.111 12.2004 452.161 12.1006 452.245 12.0174C452.328 11.9341 452.444 11.8842 452.594 11.8676C452.76 11.8676 452.902 11.9508 453.018 12.1172C453.068 12.2337 453.851 14.2809 455.365 18.2588C456.88 22.2367 457.645 24.2673 457.662 24.3505C457.679 24.4338 456.921 26.4643 455.39 30.4422C453.859 34.4201 453.068 36.4673 453.018 36.5838C452.902 36.7503 452.76 36.8335 452.594 36.8335C452.461 36.8335 452.353 36.7919 452.269 36.7087C452.186 36.6254 452.128 36.5173 452.095 36.3841C452.095 36.3009 452.844 34.2786 454.342 30.3174C455.856 26.3728 456.614 24.3838 456.614 24.3505C456.614 24.3172 455.856 22.3283 454.342 18.3837C452.844 14.4224 452.095 12.4002 452.095 12.317Z" fill="black"/>
<path d="M494 24.6753C494 24.6753 494 24.5672 494 24.3508C494 24.1344 494.117 23.968 494.35 23.8515H508.855C509.104 23.9846 509.229 24.1511 509.229 24.3508C509.229 24.5505 509.104 24.7169 508.855 24.8501H494.35C494.117 24.7336 494 24.5672 494 24.3508V24.6753Z" fill="black"/>
<path d="M528.108 10.5531L527.879 10.6414C527.714 10.7002 527.479 10.7591 527.173 10.8179C526.867 10.8767 526.525 10.9179 526.149 10.9415H525.813V10.1295H526.149C526.702 10.106 527.214 10.0177 527.684 9.86476C528.155 9.71178 528.485 9.57058 528.673 9.44114C528.861 9.3117 529.026 9.18226 529.167 9.05282C529.191 9.01751 529.261 8.99986 529.379 8.99986C529.485 8.99986 529.585 9.03517 529.679 9.10577V14.3834L529.697 19.6787C529.779 19.761 529.85 19.814 529.908 19.8375C529.967 19.8611 530.109 19.8846 530.332 19.9081C530.556 19.9317 530.92 19.9434 531.426 19.9434H531.885V20.7554H531.691C531.444 20.7201 530.509 20.7024 528.885 20.7024C527.284 20.7024 526.361 20.7201 526.114 20.7554H525.902V19.9434H526.361C526.62 19.9434 526.843 19.9434 527.031 19.9434C527.22 19.9434 527.367 19.9375 527.473 19.9258C527.579 19.914 527.673 19.8964 527.755 19.8728C527.837 19.8493 527.885 19.8375 527.896 19.8375C527.908 19.8375 527.943 19.8081 528.002 19.7493C528.061 19.6904 528.096 19.6669 528.108 19.6787V10.5531Z" fill="black"/>
<path d="M533.798 35.982C533.481 35.982 533.228 35.8761 533.039 35.6642C532.851 35.4524 532.757 35.1936 532.757 34.8876C532.757 34.0521 533.069 33.3284 533.692 32.7165C534.316 32.1046 535.093 31.7987 536.022 31.7987C537.093 31.7987 537.987 32.1282 538.705 32.7871C539.423 33.4461 539.788 34.2992 539.8 35.3465C539.8 35.8525 539.682 36.335 539.447 36.7939C539.211 37.2528 538.929 37.6529 538.599 37.9942C538.27 38.3354 537.799 38.7708 537.187 39.3003C536.764 39.6651 536.175 40.2064 535.422 40.9242L534.381 41.9127L535.722 41.9303C537.57 41.9303 538.552 41.9009 538.67 41.8421C538.752 41.8185 538.893 41.2949 539.094 40.2711V40.2182H539.8V40.2711C539.788 40.3064 539.711 40.8418 539.57 41.8774C539.429 42.9129 539.341 43.4542 539.305 43.5012V43.5542H532.757V43.2188V43.007C532.757 42.9247 532.792 42.8364 532.863 42.7423C532.933 42.6481 533.11 42.4422 533.392 42.1245C533.734 41.7479 534.028 41.4184 534.275 41.136C534.381 41.0184 534.581 40.8007 534.875 40.4829C535.169 40.1652 535.369 39.9475 535.475 39.8299C535.581 39.7122 535.752 39.518 535.987 39.2474C536.222 38.9767 536.387 38.7767 536.481 38.6472C536.575 38.5178 536.711 38.3413 536.887 38.1177C537.064 37.8941 537.187 37.7059 537.258 37.5529C537.328 37.3999 537.417 37.2293 537.523 37.041C537.628 36.8527 537.705 36.6645 537.752 36.4762C537.799 36.2879 537.84 36.1114 537.876 35.9467C537.911 35.7819 537.929 35.5878 537.929 35.3642C537.929 34.6228 537.729 33.9815 537.328 33.4402C536.928 32.8989 536.358 32.6283 535.616 32.6283C535.228 32.6283 534.887 32.7283 534.593 32.9284C534.298 33.1284 534.092 33.3226 533.975 33.5108C533.857 33.6991 533.798 33.8109 533.798 33.8462C533.798 33.858 533.828 33.8638 533.886 33.8638C534.098 33.8638 534.316 33.9462 534.54 34.111C534.763 34.2757 534.875 34.5464 534.875 34.9229C534.875 35.2171 534.781 35.4642 534.593 35.6642C534.404 35.8643 534.139 35.9702 533.798 35.982Z" fill="black"/>
<path d="M518.495 38.328C518.425 38.328 518.342 38.2809 518.248 38.1867C518.154 38.0926 518.101 38.0102 518.089 37.9396C518.078 37.869 518.26 37.6925 518.637 37.4101C519.013 37.1277 519.401 36.8335 519.802 36.5276C520.202 36.2216 520.425 36.051 520.472 36.0157C520.496 35.9922 520.525 35.9804 520.561 35.9804H520.578C520.649 35.9804 520.731 36.0804 520.825 36.2804C520.919 36.4805 521.237 37.1689 521.778 38.3456C522.002 38.8516 522.184 39.2576 522.326 39.5635L523.826 42.8289C523.838 42.8289 524.45 41.5757 525.662 39.0693C526.874 36.5629 528.086 34.0388 529.298 31.4971C530.51 28.9553 531.139 27.655 531.186 27.5962C531.257 27.4315 531.375 27.3491 531.539 27.3491C531.622 27.3491 531.692 27.3844 531.751 27.455C531.81 27.5256 531.851 27.5962 531.875 27.6668V27.7727L527.762 36.2981L523.614 44.8764C523.567 44.9588 523.455 45 523.279 45C523.173 45 523.102 44.9823 523.067 44.947C523.043 44.9235 522.467 43.6762 521.337 41.2051L519.643 37.4984L519.36 37.6925C519.184 37.8337 519.001 37.9749 518.813 38.1161C518.625 38.2574 518.519 38.328 518.495 38.328Z" fill="black"/>
<path d="M540.7 28.0991H531.875V27.3507H540.7V28.0991Z" fill="black"/>
<path d="M543.2 25.0996H514.322V23.6017H543.2V25.0996Z" fill="black"/>
<path d="M549.666 36.8086H549.616C549.417 36.8086 549.267 36.6921 549.167 36.4591V24.3256L549.192 12.1922C549.358 11.9758 549.517 11.8676 549.666 11.8676C549.883 11.8676 550.049 11.9925 550.166 12.2421V36.4591C550.032 36.6921 549.883 36.8086 549.716 36.8086H549.666Z" fill="black"/>
<path d="M558.455 16.162L558.13 16.2868C557.897 16.37 557.564 16.4532 557.131 16.5365C556.699 16.6197 556.216 16.6779 555.683 16.7112H555.209V15.5628H555.683C556.466 15.5295 557.19 15.4047 557.855 15.1883C558.521 14.9719 558.987 14.7722 559.253 14.5891C559.52 14.406 559.753 14.223 559.953 14.0399C559.986 13.9899 560.086 13.965 560.252 13.965C560.402 13.965 560.543 14.0149 560.677 14.1148V21.5796L560.701 29.0694C560.818 29.1859 560.918 29.2608 561.001 29.2941C561.084 29.3273 561.284 29.3606 561.6 29.3939C561.916 29.4272 562.432 29.4439 563.148 29.4439H563.797V30.5923H563.523C563.173 30.5424 561.85 30.5174 559.553 30.5174C557.289 30.5174 555.983 30.5424 555.633 30.5923H555.334V29.4439H555.983C556.349 29.4439 556.665 29.4439 556.932 29.4439C557.198 29.4439 557.406 29.4355 557.556 29.4189C557.706 29.4022 557.839 29.3773 557.955 29.344C558.072 29.3107 558.138 29.2941 558.155 29.2941C558.172 29.2941 558.222 29.2524 558.305 29.1692C558.388 29.086 558.438 29.0527 558.455 29.0694V16.162Z" fill="black"/>
<path d="M567.718 24.6753C567.718 24.6753 567.718 24.5672 567.718 24.3508C567.718 24.1344 567.834 23.968 568.067 23.8515H582.573C582.822 23.9846 582.947 24.1511 582.947 24.3508C582.947 24.5505 582.822 24.7169 582.573 24.8501H568.067C567.834 24.7336 567.718 24.5672 567.718 24.3508V24.6753Z" fill="black"/>
<path d="M586.416 12.317C586.433 12.2004 586.483 12.1006 586.566 12.0174C586.649 11.9341 586.766 11.8842 586.915 11.8676C587.082 11.8676 587.223 11.9508 587.34 12.1172C587.39 12.2337 588.172 14.2809 589.687 18.2588C591.201 22.2367 591.967 24.2673 591.983 24.3505C592 24.4338 591.243 26.4643 589.712 30.4422C588.18 34.4201 587.39 36.4673 587.34 36.5838C587.223 36.7503 587.082 36.8335 586.915 36.8335C586.782 36.8335 586.674 36.7919 586.591 36.7087C586.508 36.6254 586.449 36.5173 586.416 36.3841C586.416 36.3009 587.165 34.2786 588.663 30.3174C590.178 26.3728 590.935 24.3838 590.935 24.3505C590.935 24.3172 590.178 22.3283 588.663 18.3837C587.165 14.4224 586.416 12.4002 586.416 12.317Z" fill="black"/>
</svg>
