<svg xmlns="http://www.w3.org/2000/svg" xmlns:svg="http://www.w3.org/2000/svg" xmlns:xlink="http://www.w3.org/1999/xlink" id="svg955" width="260pt" height="192.64" version="1.1" viewBox="0 0 260 144.48"><metadata id="metadata833"/><defs id="defs837"><style id="style835" type="text/css">*{stroke-linecap:butt;stroke-linejoin:round}</style></defs><g id="line2d_1" transform="translate(-98.714288,10.661143)"><path style="fill:none;stroke:#000;stroke-width:2;stroke-linecap:square" id="path842" d="m 116.76459,53.6984 h 218.1648" clip-path="url(#p88e68e412f)"/></g><g id="line2d_2" transform="translate(-98.714288,10.661143)"><path style="fill:none;stroke:#000;stroke-width:2;stroke-linecap:square" id="path845" d="m 116.76459,99.1494 h 218.1648" clip-path="url(#p88e68e412f)"/></g><g id="line2d_3" transform="translate(-98.714288,10.661143)"><path style="fill:none;stroke:#6fa4ff;stroke-width:2;stroke-linecap:square" id="path848" d="M 244.02739,99.1494 V 53.6984" clip-path="url(#p88e68e412f)"/></g><g id="patch_2" transform="translate(-98.714288,10.661143)"><path style="fill:#6fa4ff;stroke:#6fa4ff;stroke-width:1.5;stroke-linejoin:miter" id="path851" d="m 138.35382,68.469975 h 29.54315 v -29.54315 h -29.54315 z" clip-path="url(#p88e68e412f)"/></g><g id="patch_3" transform="translate(-98.714288,10.661143)"><path style="fill:#6fa4ff;stroke:#6fa4ff;stroke-width:1.5;stroke-linejoin:miter" id="path854" d="m 138.35382,113.92098 h 29.54315 V 84.377825 h -29.54315 z" clip-path="url(#p88e68e412f)"/></g><g id="patch_4" transform="translate(-98.714288,10.661143)"><path style="fill:#05bab6;stroke:#05bab6;stroke-width:1.5;stroke-linejoin:miter" id="path857" d="m 183.80482,68.469975 h 29.54315 v -29.54315 h -29.54315 z" clip-path="url(#p88e68e412f)"/></g><g id="patch_5" transform="translate(-98.714288,10.661143)"><path style="fill:#05bab6;stroke:#05bab6;stroke-width:1.5;stroke-linejoin:miter" id="path860" d="m 183.80482,113.92098 h 29.54315 V 84.377825 h -29.54315 z" clip-path="url(#p88e68e412f)"/></g><g id="patch_6" transform="translate(-98.714288,10.661143)"><path style="fill:#6fa4ff;stroke:#6fa4ff;stroke-width:1.5;stroke-linejoin:miter" id="path863" d="m 244.02739,58.129873 c 1.17524,0 2.30251,-0.466928 3.13353,-1.297949 0.83102,-0.83102 1.29795,-1.958284 1.29795,-3.133524 0,-1.17524 -0.46693,-2.302504 -1.29795,-3.133524 -0.83102,-0.831021 -1.95829,-1.297948 -3.13353,-1.297948 -1.17524,0 -2.3025,0.466927 -3.13352,1.297948 -0.83102,0.83102 -1.29795,1.958284 -1.29795,3.133524 0,1.17524 0.46693,2.302504 1.29795,3.133524 0.83102,0.831021 1.95828,1.297949 3.13352,1.297949 z" clip-path="url(#p88e68e412f)"/></g><g id="patch_7" transform="translate(-98.714288,10.661143)"><path style="fill:#6fa4ff;stroke:#6fa4ff;stroke-width:1.5;stroke-linejoin:miter" id="path866" d="m 244.02739,103.58087 c 1.17524,0 2.30251,-0.46692 3.13353,-1.29795 0.83102,-0.83102 1.29795,-1.95828 1.29795,-3.13352 0,-1.17524 -0.46693,-2.302504 -1.29795,-3.133524 -0.83102,-0.831021 -1.95829,-1.297948 -3.13353,-1.297948 -1.17524,0 -2.3025,0.466927 -3.13352,1.297948 -0.83102,0.83102 -1.29795,1.958284 -1.29795,3.133524 0,1.17524 0.46693,2.3025 1.29795,3.13352 0.83102,0.83103 1.95828,1.29795 3.13352,1.29795 z" clip-path="url(#p88e68e412f)"/></g><g id="patch_8" transform="translate(-98.714288,10.661143)"><path style="fill:#6fa4ff;stroke:#6fa4ff;stroke-width:1.5;stroke-linejoin:miter" id="path869" d="m 274.70682,68.469975 h 29.54315 v -29.54315 h -29.54315 z" clip-path="url(#p88e68e412f)"/></g><g id="patch_9" transform="translate(-98.714288,10.661143)"><path style="fill:#6fa4ff;stroke:#6fa4ff;stroke-width:1.5;stroke-linejoin:miter" id="path872" d="m 274.70682,113.92098 h 29.54315 V 84.377825 h -29.54315 z" clip-path="url(#p88e68e412f)"/></g><g id="text_1" transform="translate(-98.714288,10.661143)"><g id="g882" clip-path="url(#p88e68e412f)"><g id="g880" transform="matrix(0.13,0,0,-0.13,148.23719,57.285588)"><defs id="defs876"><path id="DejaVuSans-72" d="m 9.8125,72.90625 h 9.859375 V 43.015625 h 35.84375 V 72.90625 H 65.375 V 0 H 55.515625 V 34.71875 H 19.671875 V 0 H 9.8125 Z"/></defs><use id="use878" width="100%" height="100%" x="0" y="0" xlink:href="#DejaVuSans-72"/></g></g></g><g id="text_2" transform="translate(-98.714288,10.661143)"><g id="g889" clip-path="url(#p88e68e412f)"><g id="g887" transform="matrix(0.13,0,0,-0.13,148.23719,102.73659)"><use id="use885" width="100%" height="100%" x="0" y="0" xlink:href="#DejaVuSans-72"/></g></g></g><g id="text_3" transform="translate(-98.714288,10.661143)"><g id="g899" clip-path="url(#p88e68e412f)"><g id="g897" transform="matrix(0.13,0,0,-0.13,194.12389,57.285588)"><defs id="defs893"><path id="DejaVuSans-90" d="m 5.609375,72.90625 h 57.28125 V 65.375 L 16.796875,8.296875 h 47.21875 V 0 H 4.5 V 7.515625 L 50.59375,64.59375 H 5.609375 Z"/></defs><use id="use895" width="100%" height="100%" x="0" y="0" xlink:href="#DejaVuSans-90"/></g></g></g><g id="text_4" transform="translate(-98.714288,10.661143)"><g id="g906" clip-path="url(#p88e68e412f)"><g id="g904" transform="matrix(0.13,0,0,-0.13,194.12389,102.73659)"><use id="use902" width="100%" height="100%" x="0" y="0" xlink:href="#DejaVuSans-90"/></g></g></g><g id="text_5" transform="translate(-98.714288,10.661143)"><g id="g913" clip-path="url(#p88e68e412f)"><g id="g911" transform="matrix(0.13,0,0,-0.13,284.59019,57.285588)"><use id="use909" width="100%" height="100%" x="0" y="0" xlink:href="#DejaVuSans-72"/></g></g></g><g id="text_6" transform="translate(-98.714288,10.661143)"><g id="g920" clip-path="url(#p88e68e412f)"><g id="g918" transform="matrix(0.13,0,0,-0.13,284.59019,102.73659)"><use id="use916" width="100%" height="100%" x="0" y="0" xlink:href="#DejaVuSans-72"/></g></g></g><defs id="defs953"><clipPath id="p88e68e412f"><rect id="rect950" width="287.981" height="109.082" x="51.493" y="17.338"/></clipPath></defs><rect style="fill:none;stroke:#000;stroke-width:2.26771;stroke-dasharray:6.80315,2.26771" id="rect1120" width="196.244" height="95.95" x="26.455" y="39.486"/><text style="font-style:normal;font-weight:400;font-size:25.33333201px;line-height:1.25;font-family:'IBM Plex Mono';fill:#000;fill-opacity:1;stroke:none;stroke-width:.75;stroke-linecap:butt;stroke-linejoin:round;-inkscape-font-specification:'IBM Plex Mono Normal';font-stretch:normal;font-variant:normal;font-variant-ligatures:normal;font-variant-caps:normal;font-variant-numeric:normal;font-variant-east-asian:normal" id="text1124" x="37.117" y="25.271" xml:space="preserve"><tspan id="tspan1122" x="37.117" y="25.271" style="font-style:normal;font-variant:normal;font-weight:400;font-stretch:normal;font-size:25.33333201px;font-family:'IBM Plex Mono';-inkscape-font-specification:'IBM Plex Mono Normal';font-variant-ligatures:normal;font-variant-caps:normal;font-variant-numeric:normal;font-variant-east-asian:normal;stroke-width:.75">Diffuser (U</tspan></text><text id="text1124-7" x="208.147" y="25.233" xml:space="preserve" style="font-style:normal;font-variant:normal;font-weight:400;font-stretch:normal;font-size:25.3333px;line-height:1.25;font-family:'IBM Plex Mono';-inkscape-font-specification:'IBM Plex Mono Normal';font-variant-ligatures:normal;font-variant-caps:normal;font-variant-numeric:normal;font-variant-east-asian:normal;fill:#000;fill-opacity:1;stroke:none;stroke-width:.75;stroke-linecap:butt;stroke-linejoin:round"><tspan style="font-style:normal;font-variant:normal;font-weight:400;font-stretch:normal;font-size:25.3333px;font-family:'IBM Plex Mono';-inkscape-font-specification:'IBM Plex Mono Normal';font-variant-ligatures:normal;font-variant-caps:normal;font-variant-numeric:normal;font-variant-east-asian:normal;stroke-width:.75" id="tspan1122-8" x="208.147" y="25.233">)</tspan></text><text style="font-style:normal;font-variant:normal;font-weight:400;font-stretch:normal;font-size:16px;line-height:1.25;font-family:'IBM Plex Mono';-inkscape-font-specification:'IBM Plex Mono Normal';font-variant-ligatures:normal;font-variant-caps:normal;font-variant-numeric:normal;font-variant-east-asian:normal;fill:#000;fill-opacity:1;stroke:none;stroke-width:.75;stroke-linecap:butt;stroke-linejoin:round" id="text1146" x="200.982" y="29.614" xml:space="preserve"><tspan id="tspan1144" x="200.982" y="29.614" style="font-style:normal;font-variant:normal;font-weight:400;font-stretch:normal;font-size:16px;font-family:'IBM Plex Mono';-inkscape-font-specification:'IBM Plex Mono Normal';font-variant-ligatures:normal;font-variant-caps:normal;font-variant-numeric:normal;font-variant-east-asian:normal;stroke-width:.75">s</tspan></text></svg>