<svg width="400" height="192" viewBox="0 0 400 192" fill="none" xmlns="http://www.w3.org/2000/svg">
<rect width="400" height="192" fill="white"/>
<rect opacity="0.4" y="120" width="400" height="40" fill="#F2F4F8"/>
<rect opacity="0.4" y="40" width="400" height="40" fill="#F2F4F8"/>
<rect x="0.5" y="0.5" width="399" height="191" stroke="#DDE1E6"/>
<line x1="148" y1="73.5" x2="240" y2="73.5" stroke="black"/>
<line x1="148" y1="121.5" x2="240" y2="121.5" stroke="black"/>
<rect x="177" y="106" width="32" height="32" rx="16" fill="#1192E8"/>
<path d="M194 121V113H192V121H184V123H192V131H194V123H202V121H194V121Z" fill="white"/>
<rect x="187" y="68" width="12" height="12" rx="6" fill="#1192E8"/>
<line x1="193" y1="108" x2="193" y2="79" stroke="#1192E8" stroke-width="2"/>
<path d="M110.4 83.98H110.36C110.2 83.98 110.08 83.8866 110 83.7V73.98L110.02 64.26C110.153 64.0866 110.28 64 110.4 64C110.573 64 110.707 64.1 110.8 64.3V83.7C110.693 83.8866 110.573 83.98 110.44 83.98H110.4Z" fill="black"/>
<path d="M114.3 74.2601C114.3 74.2601 114.3 74.1735 114.3 74.0001C114.3 73.8268 114.393 73.6935 114.58 73.6001H120.56V70.6001L120.58 67.6001C120.713 67.4268 120.84 67.3401 120.96 67.3401C121.133 67.3401 121.267 67.4401 121.36 67.6401V73.6001H127.32C127.52 73.7068 127.62 73.8401 127.62 74.0001C127.62 74.1601 127.52 74.2935 127.32 74.4001H121.36V80.3601C121.253 80.5468 121.133 80.6401 121 80.6401H120.96H120.92C120.76 80.6401 120.64 80.5468 120.56 80.3601V74.4001H114.58C114.393 74.3068 114.3 74.1735 114.3 74.0001V74.2601Z" fill="black"/>
<path d="M129.84 64.36C129.853 64.2667 129.893 64.1867 129.96 64.12C130.027 64.0533 130.12 64.0133 130.24 64C130.373 64 130.487 64.0667 130.58 64.2C130.62 64.2933 131.247 65.9333 132.46 69.12C133.673 72.3067 134.287 73.9333 134.3 74C134.313 74.0667 133.707 75.6933 132.48 78.88C131.253 82.0667 130.62 83.7067 130.58 83.8C130.487 83.9333 130.373 84 130.24 84C130.133 84 130.047 83.9667 129.98 83.9C129.913 83.8333 129.867 83.7467 129.84 83.64C129.84 83.5733 130.44 81.9533 131.64 78.78C132.853 75.62 133.46 74.0267 133.46 74C133.46 73.9733 132.853 72.38 131.64 69.22C130.44 66.0467 129.84 64.4267 129.84 64.36Z" fill="black"/>
<path d="M110.4 131.979H110.36C110.2 131.979 110.08 131.886 110 131.699V121.979L110.02 112.259C110.153 112.086 110.28 111.999 110.4 111.999C110.573 111.999 110.707 112.099 110.8 112.299V131.699C110.693 131.886 110.573 131.979 110.44 131.979H110.4Z" fill="black"/>
<path d="M114.86 122.26C114.86 122.26 114.86 122.173 114.86 122C114.86 121.827 114.953 121.693 115.14 121.6H126.76C126.96 121.707 127.06 121.84 127.06 122C127.06 122.16 126.96 122.293 126.76 122.4H115.14C114.953 122.307 114.86 122.173 114.86 122V122.26Z" fill="black"/>
<path d="M129.84 112.36C129.853 112.267 129.893 112.187 129.96 112.12C130.027 112.053 130.12 112.013 130.24 112C130.373 112 130.487 112.067 130.58 112.2C130.62 112.293 131.247 113.933 132.46 117.12C133.673 120.307 134.287 121.933 134.3 122C134.313 122.067 133.707 123.693 132.48 126.88C131.253 130.067 130.62 131.707 130.58 131.8C130.487 131.933 130.373 132 130.24 132C130.133 132 130.047 131.967 129.98 131.9C129.913 131.833 129.867 131.747 129.84 131.64C129.84 131.573 130.44 129.953 131.64 126.78C132.853 123.62 133.46 122.027 133.46 122C133.46 121.973 132.853 120.38 131.64 117.22C130.44 114.047 129.84 112.427 129.84 112.36Z" fill="black"/>
<path d="M254.4 131.979H254.36C254.2 131.979 254.08 131.886 254 131.699V121.979L254.02 112.259C254.153 112.086 254.28 111.999 254.4 111.999C254.573 111.999 254.707 112.099 254.8 112.299V131.699C254.693 131.886 254.573 131.979 254.44 131.979H254.4Z" fill="black"/>
<path d="M258.86 122.26C258.86 122.26 258.86 122.173 258.86 122C258.86 121.827 258.953 121.693 259.14 121.6H270.76C270.96 121.707 271.06 121.84 271.06 122C271.06 122.16 270.96 122.293 270.76 122.4H259.14C258.953 122.307 258.86 122.173 258.86 122V122.26Z" fill="black"/>
<path d="M273.84 112.36C273.853 112.267 273.893 112.187 273.96 112.12C274.027 112.053 274.12 112.013 274.24 112C274.373 112 274.487 112.067 274.58 112.2C274.62 112.293 275.247 113.933 276.46 117.12C277.673 120.307 278.287 121.933 278.3 122C278.313 122.067 277.707 123.693 276.48 126.88C275.253 130.067 274.62 131.707 274.58 131.8C274.487 131.933 274.373 132 274.24 132C274.133 132 274.047 131.967 273.98 131.9C273.913 131.833 273.867 131.747 273.84 131.64C273.84 131.573 274.44 129.953 275.64 126.78C276.853 123.62 277.46 122.027 277.46 122C277.46 121.973 276.853 120.38 275.64 117.22C274.44 114.047 273.84 112.427 273.84 112.36Z" fill="black"/>
<path d="M254.4 83.98H254.36C254.2 83.98 254.08 83.8866 254 83.7V73.98L254.02 64.26C254.153 64.0866 254.28 64 254.4 64C254.573 64 254.707 64.1 254.8 64.3V83.7C254.693 83.8866 254.573 83.98 254.44 83.98H254.4Z" fill="black"/>
<path d="M258.86 74.2599C258.86 74.2599 258.86 74.1732 258.86 73.9999C258.86 73.8266 258.953 73.6932 259.14 73.5999H270.76C270.96 73.7066 271.06 73.8399 271.06 73.9999C271.06 74.1599 270.96 74.2932 270.76 74.3999H259.14C258.953 74.3066 258.86 74.1732 258.86 73.9999V74.2599Z" fill="black"/>
<path d="M273.84 64.36C273.853 64.2667 273.893 64.1867 273.96 64.12C274.027 64.0533 274.12 64.0133 274.24 64C274.373 64 274.487 64.0667 274.58 64.2C274.62 64.2933 275.247 65.9333 276.46 69.12C277.673 72.3067 278.287 73.9333 278.3 74C278.313 74.0667 277.707 75.6933 276.48 78.88C275.253 82.0667 274.62 83.7067 274.58 83.8C274.487 83.9333 274.373 84 274.24 84C274.133 84 274.047 83.9667 273.98 83.9C273.913 83.8333 273.867 83.7467 273.84 83.64C273.84 83.5733 274.44 81.9533 275.64 78.78C276.853 75.62 277.46 74.0267 277.46 74C277.46 73.9733 276.853 72.38 275.64 69.22C274.44 66.0467 273.84 64.4267 273.84 64.36Z" fill="black"/>
</svg>
