<svg width="400" height="192" viewBox="0 0 400 192" fill="none" xmlns="http://www.w3.org/2000/svg">
<rect width="400" height="192" fill="white"/>
<rect opacity="0.4" y="120" width="400" height="40" fill="#F2F4F8"/>
<rect opacity="0.4" y="40" width="400" height="40" fill="#F2F4F8"/>
<rect x="0.5" y="0.5" width="399" height="191" stroke="#DDE1E6"/>
<line x1="48" y1="73.5" x2="202" y2="73.5" stroke="black"/>
<line x1="48" y1="121.5" x2="202" y2="121.5" stroke="black"/>
<rect x="109" y="106" width="32" height="32" rx="16" fill="#1192E8"/>
<path d="M126 121V113H124V121H116V123H124V131H126V123H134V121H126Z" fill="white"/>
<rect x="119" y="68" width="12" height="12" rx="6" fill="#1192E8"/>
<line x1="125" y1="108" x2="125" y2="79" stroke="#1192E8" stroke-width="2"/>
<rect x="55" y="58" width="32" height="32" fill="#1192E8"/>
<path d="M74.6767 81H76.1887V68.436H74.6767V73.98H68.3227V68.436H66.8107V81H68.3227V75.312H74.6767V81Z" fill="white"/>
<rect x="163" y="58" width="32" height="32" fill="#1192E8"/>
<path d="M182.677 81H184.189V68.436H182.677V73.98H176.323V68.436H174.811V81H176.323V75.312H182.677V81Z" fill="white"/>
<rect x="55" y="106" width="32" height="32" fill="#1192E8"/>
<path d="M74.6767 129H76.1887V116.436H74.6767V121.98H68.3227V116.436H66.8107V129H68.3227V123.312H74.6767V129Z" fill="white"/>
<rect x="163" y="106" width="32" height="32" fill="#1192E8"/>
<path d="M182.677 129H184.189V116.436H182.677V121.98H176.323V116.436H174.811V129H176.323V123.312H182.677V129Z" fill="white"/>
<line x1="281" y1="73.5" x2="339" y2="73.5" stroke="black"/>
<line x1="281" y1="121.5" x2="339" y2="121.5" stroke="black"/>
<rect x="326" y="90" width="32" height="32" rx="16" transform="rotate(-180 326 90)" fill="#1192E8"/>
<path d="M309 75V83H311V75H319V73H311V65H309V73H301V75H309Z" fill="white"/>
<rect x="316" y="128" width="12" height="12" rx="6" transform="rotate(-180 316 128)" fill="#1192E8"/>
<line x1="310" y1="88" x2="310" y2="117" stroke="#1192E8" stroke-width="2"/>
<path d="M230 93.8409C230 93.4765 230.196 93.1962 230.589 93.0001H257.369C257.79 93.2243 258 93.5046 258 93.8409C258 94.1492 257.804 94.4155 257.411 94.6397L244.042 94.6817H230.673C230.224 94.5416 230 94.2613 230 93.8409ZM230 101.997C230 101.577 230.224 101.296 230.673 101.156H257.411C257.804 101.436 258 101.717 258 101.997C258 102.361 257.79 102.642 257.369 102.838H230.589C230.196 102.642 230 102.361 230 101.997Z" fill="black"/>
</svg>
