<svg width="400" height="192" viewBox="0 0 400 192" fill="none" xmlns="http://www.w3.org/2000/svg">
<rect width="400" height="192" fill="white"/>
<rect opacity="0.4" y="120" width="400" height="40" fill="#F2F4F8"/>
<rect opacity="0.4" y="40" width="400" height="40" fill="#F2F4F8"/>
<rect x="0.5" y="0.5" width="399" height="191" stroke="#DDE1E6"/>
<line x1="124" y1="103.5" x2="265" y2="103.5" stroke="black"/>
<line x1="124" y1="50.5" x2="265" y2="50.5" stroke="black"/>
<line x1="124" y1="113.5" x2="265" y2="113.5" stroke="black"/>
<line x1="124" y1="124.5" x2="265" y2="124.5" stroke="black"/>
<line x1="124" y1="135.5" x2="265" y2="135.5" stroke="black"/>
<line x1="124" y1="146.5" x2="265" y2="146.5" stroke="black"/>
<rect width="93" height="82" transform="translate(148 85)" fill="#1192E8"/>
<path d="M82.4 135.98H82.36C82.2 135.98 82.08 135.887 82 135.7V125.98L82.02 116.26C82.1533 116.087 82.28 116 82.4 116C82.5733 116 82.7067 116.1 82.8 116.3V135.7C82.6933 135.887 82.5733 135.98 82.44 135.98H82.4Z" fill="black"/>
<path d="M85.6 125.26C85.6 125.154 85.66 124.947 85.78 124.64C85.9 124.334 86.0666 123.987 86.28 123.6C86.4933 123.214 86.7866 122.88 87.16 122.6C87.5333 122.32 87.9266 122.174 88.34 122.16C88.9533 122.16 89.4133 122.327 89.72 122.66C90.0266 122.994 90.18 123.387 90.18 123.84C90.18 124.08 89.9533 124.827 89.5 126.08C89.0466 127.334 88.82 128.274 88.82 128.9C88.82 129.474 88.9133 129.874 89.1 130.1C89.2866 130.327 89.5666 130.447 89.94 130.46C90.3133 130.474 90.6666 130.36 91 130.12C91.3333 129.88 91.58 129.654 91.74 129.44L91.96 129.1C91.9866 129.047 92.24 128.034 92.72 126.06C93.12 124.46 93.36 123.527 93.44 123.26C93.52 122.994 93.6133 122.8 93.72 122.68C93.9466 122.48 94.1866 122.38 94.44 122.38C94.6666 122.38 94.8333 122.447 94.94 122.58C95.0466 122.714 95.1 122.84 95.1 122.96L93.58 129.32C93.5666 129.387 93.56 129.494 93.56 129.64C93.56 129.974 93.6066 130.194 93.7 130.3C93.7933 130.407 93.9333 130.467 94.12 130.48C94.4133 130.44 94.6466 130.234 94.82 129.86C94.9933 129.487 95.1933 128.9 95.42 128.1C95.4466 127.994 95.58 127.94 95.82 127.94C96.0733 127.94 96.2 128 96.2 128.12C96.1866 128.187 96.1733 128.28 96.16 128.4C96.1466 128.52 96.0866 128.734 95.98 129.04C95.8733 129.347 95.76 129.634 95.64 129.9C95.52 130.167 95.3533 130.42 95.14 130.66C94.9266 130.9 94.6866 131.067 94.42 131.16C94.3133 131.187 94.1533 131.2 93.94 131.2C93.06 131.2 92.4533 130.827 92.12 130.08C92.0933 130.094 92.02 130.16 91.9 130.28C91.78 130.4 91.66 130.5 91.54 130.58C91.42 130.66 91.2733 130.76 91.1 130.88C90.9266 131 90.7333 131.08 90.52 131.12C90.3066 131.16 90.08 131.194 89.84 131.22C89.2533 131.22 88.7333 131.1 88.28 130.86C87.5866 130.447 87.24 129.74 87.24 128.74C87.24 127.98 87.4733 126.987 87.94 125.76C88.4066 124.534 88.64 123.754 88.64 123.42C88.64 123.407 88.64 123.394 88.64 123.38C88.64 123.26 88.64 123.18 88.64 123.14C88.64 123.1 88.6133 123.054 88.56 123C88.5066 122.947 88.4333 122.92 88.34 122.92H88.26C87.9533 122.92 87.6733 123.047 87.42 123.3C87.1666 123.554 86.9666 123.827 86.82 124.12C86.6733 124.414 86.56 124.694 86.48 124.96C86.4 125.227 86.3466 125.374 86.32 125.4C86.2933 125.427 86.1866 125.44 86 125.44H85.72C85.64 125.36 85.6 125.3 85.6 125.26Z" fill="black"/>
<path d="M97.72 116.36C97.7333 116.267 97.7733 116.187 97.84 116.12C97.9067 116.053 98 116.013 98.12 116C98.2533 116 98.3667 116.067 98.46 116.2C98.5 116.293 99.1267 117.933 100.34 121.12C101.553 124.307 102.167 125.933 102.18 126C102.193 126.067 101.587 127.693 100.36 130.88C99.1333 134.067 98.5 135.707 98.46 135.8C98.3667 135.933 98.2533 136 98.12 136C98.0133 136 97.9267 135.967 97.86 135.9C97.7933 135.833 97.7467 135.747 97.72 135.64C97.72 135.573 98.32 133.953 99.52 130.78C100.733 127.62 101.34 126.027 101.34 126C101.34 125.973 100.733 124.38 99.52 121.22C98.32 118.047 97.72 116.427 97.72 116.36Z" fill="black"/>
<path d="M287.4 135.98H287.36C287.2 135.98 287.08 135.887 287 135.7V125.98L287.02 116.26C287.153 116.087 287.28 116 287.4 116C287.573 116 287.707 116.1 287.8 116.3V135.7C287.693 135.887 287.573 135.98 287.44 135.98H287.4Z" fill="black"/>
<path d="M290.6 125.26C290.6 125.154 290.66 124.947 290.78 124.64C290.9 124.334 291.067 123.987 291.28 123.6C291.493 123.214 291.787 122.88 292.16 122.6C292.533 122.32 292.927 122.174 293.34 122.16C293.953 122.16 294.413 122.327 294.72 122.66C295.027 122.994 295.18 123.387 295.18 123.84C295.18 124.08 294.953 124.827 294.5 126.08C294.047 127.334 293.82 128.274 293.82 128.9C293.82 129.474 293.913 129.874 294.1 130.1C294.287 130.327 294.567 130.447 294.94 130.46C295.313 130.474 295.667 130.36 296 130.12C296.333 129.88 296.58 129.654 296.74 129.44L296.96 129.1C296.987 129.047 297.24 128.034 297.72 126.06C298.12 124.46 298.36 123.527 298.44 123.26C298.52 122.994 298.613 122.8 298.72 122.68C298.947 122.48 299.187 122.38 299.44 122.38C299.667 122.38 299.833 122.447 299.94 122.58C300.047 122.714 300.1 122.84 300.1 122.96L298.58 129.32C298.567 129.387 298.56 129.494 298.56 129.64C298.56 129.974 298.607 130.194 298.7 130.3C298.793 130.407 298.933 130.467 299.12 130.48C299.413 130.44 299.647 130.234 299.82 129.86C299.993 129.487 300.193 128.9 300.42 128.1C300.447 127.994 300.58 127.94 300.82 127.94C301.073 127.94 301.2 128 301.2 128.12C301.187 128.187 301.173 128.28 301.16 128.4C301.147 128.52 301.087 128.734 300.98 129.04C300.873 129.347 300.76 129.634 300.64 129.9C300.52 130.167 300.353 130.42 300.14 130.66C299.927 130.9 299.687 131.067 299.42 131.16C299.313 131.187 299.153 131.2 298.94 131.2C298.06 131.2 297.453 130.827 297.12 130.08C297.093 130.094 297.02 130.16 296.9 130.28C296.78 130.4 296.66 130.5 296.54 130.58C296.42 130.66 296.273 130.76 296.1 130.88C295.927 131 295.733 131.08 295.52 131.12C295.307 131.16 295.08 131.194 294.84 131.22C294.253 131.22 293.733 131.1 293.28 130.86C292.587 130.447 292.24 129.74 292.24 128.74C292.24 127.98 292.473 126.987 292.94 125.76C293.407 124.534 293.64 123.754 293.64 123.42C293.64 123.407 293.64 123.394 293.64 123.38C293.64 123.26 293.64 123.18 293.64 123.14C293.64 123.1 293.613 123.054 293.56 123C293.507 122.947 293.433 122.92 293.34 122.92H293.26C292.953 122.92 292.673 123.047 292.42 123.3C292.167 123.554 291.967 123.827 291.82 124.12C291.673 124.414 291.56 124.694 291.48 124.96C291.4 125.227 291.347 125.374 291.32 125.4C291.293 125.427 291.187 125.44 291 125.44H290.72C290.64 125.36 290.6 125.3 290.6 125.26Z" fill="black"/>
<path d="M302.72 116.36C302.733 116.267 302.773 116.187 302.84 116.12C302.907 116.053 303 116.013 303.12 116C303.253 116 303.367 116.067 303.46 116.2C303.5 116.293 304.127 117.933 305.34 121.12C306.553 124.307 307.167 125.933 307.18 126C307.193 126.067 306.587 127.693 305.36 130.88C304.133 134.067 303.5 135.707 303.46 135.8C303.367 135.933 303.253 136 303.12 136C303.013 136 302.927 135.967 302.86 135.9C302.793 135.833 302.747 135.747 302.72 135.64C302.72 135.573 303.32 133.953 304.52 130.78C305.733 127.62 306.34 126.027 306.34 126C306.34 125.973 305.733 124.38 304.52 121.22C303.32 118.047 302.72 116.427 302.72 116.36Z" fill="black"/>
<path d="M183 113.957C182.035 113.957 181.525 113.901 181.468 113.787C181.44 113.73 181.426 113.617 181.426 113.447C181.426 112.766 181.582 112.298 181.894 112.043C181.95 112.014 182.191 112 182.617 112C183.78 112.057 185.709 112.085 188.404 112.085C189.369 112.085 190.262 112.085 191.085 112.085C191.908 112.085 192.546 112.071 193 112.043C193.454 112.014 193.738 112.014 193.851 112.043C194.305 112.043 194.532 112.184 194.532 112.468C194.532 112.525 194.504 112.723 194.447 113.064C194.305 113.546 194.163 113.83 194.021 113.915H193.936C193.879 113.915 193.809 113.915 193.723 113.915C193.638 113.915 193.539 113.915 193.426 113.915C193.312 113.915 193.184 113.929 193.043 113.957C192.901 113.986 192.773 113.986 192.66 113.957C191.553 113.986 190.844 114.028 190.532 114.085C190.22 114.142 189.965 114.298 189.766 114.553C189.738 114.61 189.34 116.099 188.574 119.021C187.809 121.943 187.043 125.007 186.277 128.213C185.511 131.418 185.085 133.305 185 133.872C184.943 134.27 184.915 134.681 184.915 135.106C184.915 136.638 185.355 137.844 186.234 138.723C187.113 139.603 188.333 140.043 189.894 140.043C191.794 140.043 193.695 139.404 195.596 138.128C197.496 136.851 198.887 134.922 199.766 132.34L201.936 123.787C203.27 118.34 203.936 115.504 203.936 115.277C203.936 114.511 203.028 114.071 201.213 113.957C200.532 113.957 200.191 113.801 200.191 113.489C200.191 113.433 200.22 113.262 200.277 112.979C200.39 112.525 200.475 112.255 200.532 112.17C200.589 112.085 200.73 112.028 200.957 112C201.043 112 201.496 112.014 202.319 112.043C203.142 112.071 204.333 112.099 205.894 112.128C207.34 112.128 208.447 112.113 209.213 112.085C209.979 112.057 210.39 112.043 210.447 112.043C210.872 112.043 211.085 112.184 211.085 112.468C211.085 113.092 210.972 113.518 210.745 113.745C210.66 113.887 210.348 113.957 209.809 113.957C207.794 114.071 206.532 114.638 206.021 115.66C205.965 115.801 205.255 118.539 203.894 123.872C202.73 128.667 202.021 131.489 201.766 132.34C200.83 135.177 199.199 137.489 196.872 139.277C194.546 141.064 192.135 141.972 189.638 142C187.028 142 184.943 141.206 183.383 139.617C181.823 138.028 181.028 136.142 181 133.957V133.277C181 132.766 181.78 129.39 183.34 123.149C184.73 117.447 185.426 114.511 185.426 114.34C185.426 114.142 184.617 114.014 183 113.957Z" fill="white"/>
<line x1="196" y1="86" x2="196" y2="51" stroke="#1192E8" stroke-width="2"/>
<circle cx="196" cy="51" r="5.5" fill="#1192E8" stroke="#1192E8"/>
<path d="M85.4 60.98H85.36C85.2 60.98 85.08 60.8866 85 60.7V50.98L85.02 41.26C85.1533 41.0866 85.28 41 85.4 41C85.5733 41 85.7067 41.1 85.8 41.3V60.7C85.6933 60.8866 85.5733 60.98 85.44 60.98H85.4Z" fill="black"/>
<path d="M90.1 44.2999C90.8467 43.2199 91.8667 42.6799 93.16 42.6799C93.8 42.6799 94.44 42.8533 95.08 43.1999C95.72 43.5466 96.24 44.1599 96.64 45.0399C97.1333 46.1466 97.38 47.6666 97.38 49.5999C97.38 51.6666 97.0933 53.2466 96.52 54.3399C96.2533 54.8999 95.8867 55.3466 95.42 55.6799C94.9533 56.0133 94.5467 56.2199 94.2 56.2999C93.8533 56.3799 93.5133 56.4266 93.18 56.4399C92.8333 56.4399 92.4867 56.3999 92.14 56.3199C91.7933 56.2399 91.3867 56.0266 90.92 55.6799C90.4533 55.3333 90.0867 54.8866 89.82 54.3399C89.2467 53.2466 88.96 51.6666 88.96 49.5999C88.96 47.2799 89.34 45.5133 90.1 44.2999ZM94.6 44.0599C94.2 43.6333 93.7267 43.4199 93.18 43.4199C92.62 43.4199 92.14 43.6333 91.74 44.0599C91.4067 44.4066 91.1867 44.8866 91.08 45.4999C90.9733 46.1133 90.92 47.3933 90.92 49.3399C90.92 51.4466 90.9733 52.8333 91.08 53.4999C91.1867 54.1666 91.4267 54.6933 91.8 55.0799C92.1733 55.4799 92.6333 55.6799 93.18 55.6799C93.7133 55.6799 94.1667 55.4799 94.54 55.0799C94.9267 54.6799 95.1667 54.1199 95.26 53.3999C95.3533 52.6799 95.4067 51.3266 95.42 49.3399C95.42 47.4066 95.3667 46.1333 95.26 45.5199C95.1533 44.9066 94.9333 44.4199 94.6 44.0599Z" fill="black"/>
<path d="M99.28 41.36C99.2933 41.2667 99.3333 41.1867 99.4 41.12C99.4667 41.0533 99.56 41.0133 99.68 41C99.8133 41 99.9267 41.0667 100.02 41.2C100.06 41.2933 100.687 42.9333 101.9 46.12C103.113 49.3067 103.727 50.9333 103.74 51C103.753 51.0667 103.147 52.6933 101.92 55.88C100.693 59.0667 100.06 60.7067 100.02 60.8C99.9267 60.9333 99.8133 61 99.68 61C99.5733 61 99.4867 60.9667 99.42 60.9C99.3533 60.8333 99.3067 60.7467 99.28 60.64C99.28 60.5733 99.88 58.9533 101.08 55.78C102.293 52.62 102.9 51.0267 102.9 51C102.9 50.9733 102.293 49.38 101.08 46.22C99.88 43.0467 99.28 41.4267 99.28 41.36Z" fill="black"/>
<path d="M287.4 60.98H287.36C287.2 60.98 287.08 60.8866 287 60.7V50.98L287.02 41.26C287.153 41.0866 287.28 41 287.4 41C287.573 41 287.707 41.1 287.8 41.3V60.7C287.693 60.8866 287.573 60.98 287.44 60.98H287.4Z" fill="black"/>
<path d="M292.1 44.2999C292.847 43.2199 293.867 42.6799 295.16 42.6799C295.8 42.6799 296.44 42.8533 297.08 43.1999C297.72 43.5466 298.24 44.1599 298.64 45.0399C299.133 46.1466 299.38 47.6666 299.38 49.5999C299.38 51.6666 299.093 53.2466 298.52 54.3399C298.253 54.8999 297.887 55.3466 297.42 55.6799C296.953 56.0133 296.547 56.2199 296.2 56.2999C295.853 56.3799 295.513 56.4266 295.18 56.4399C294.833 56.4399 294.487 56.3999 294.14 56.3199C293.793 56.2399 293.387 56.0266 292.92 55.6799C292.453 55.3333 292.087 54.8866 291.82 54.3399C291.247 53.2466 290.96 51.6666 290.96 49.5999C290.96 47.2799 291.34 45.5133 292.1 44.2999ZM296.6 44.0599C296.2 43.6333 295.727 43.4199 295.18 43.4199C294.62 43.4199 294.14 43.6333 293.74 44.0599C293.407 44.4066 293.187 44.8866 293.08 45.4999C292.973 46.1133 292.92 47.3933 292.92 49.3399C292.92 51.4466 292.973 52.8333 293.08 53.4999C293.187 54.1666 293.427 54.6933 293.8 55.0799C294.173 55.4799 294.633 55.6799 295.18 55.6799C295.713 55.6799 296.167 55.4799 296.54 55.0799C296.927 54.6799 297.167 54.1199 297.26 53.3999C297.353 52.6799 297.407 51.3266 297.42 49.3399C297.42 47.4066 297.367 46.1333 297.26 45.5199C297.153 44.9066 296.933 44.4199 296.6 44.0599Z" fill="black"/>
<path d="M301.28 41.36C301.293 41.2667 301.333 41.1867 301.4 41.12C301.467 41.0533 301.56 41.0133 301.68 41C301.813 41 301.927 41.0667 302.02 41.2C302.06 41.2933 302.687 42.9333 303.9 46.12C305.113 49.3067 305.727 50.9333 305.74 51C305.753 51.0667 305.147 52.6933 303.92 55.88C302.693 59.0667 302.06 60.7067 302.02 60.8C301.927 60.9333 301.813 61 301.68 61C301.573 61 301.487 60.9667 301.42 60.9C301.353 60.8333 301.307 60.7467 301.28 60.64C301.28 60.5733 301.88 58.9533 303.08 55.78C304.293 52.62 304.9 51.0267 304.9 51C304.9 50.9733 304.293 49.38 303.08 46.22C301.88 43.0467 301.28 41.4267 301.28 41.36Z" fill="black"/>
</svg>
