<svg width="400" height="192" viewBox="0 0 400 192" fill="none" xmlns="http://www.w3.org/2000/svg">
<rect width="400" height="192" fill="white"/>
<rect opacity="0.4" y="120" width="400" height="40" fill="#F2F4F8"/>
<rect opacity="0.4" y="40" width="400" height="40" fill="#F2F4F8"/>
<rect x="0.5" y="0.5" width="399" height="191" stroke="#DDE1E6"/>
<line x1="124" y1="103.5" x2="265" y2="103.5" stroke="black"/>
<line x1="124" y1="50.5" x2="265" y2="50.5" stroke="black"/>
<line x1="124" y1="113.5" x2="265" y2="113.5" stroke="black"/>
<line x1="124" y1="124.5" x2="265" y2="124.5" stroke="black"/>
<line x1="124" y1="135.5" x2="265" y2="135.5" stroke="black"/>
<line x1="124" y1="146.5" x2="265" y2="146.5" stroke="black"/>
<rect width="93" height="82" transform="translate(148 85)" fill="#1192E8"/>
<path d="M82.4 135.98H82.36C82.2 135.98 82.08 135.887 82 135.7V125.98L82.02 116.26C82.1533 116.087 82.28 116 82.4 116C82.5733 116 82.7067 116.1 82.8 116.3V135.7C82.6933 135.887 82.5733 135.98 82.44 135.98H82.4Z" fill="black"/>
<path d="M85.6 125.26C85.6 125.154 85.66 124.947 85.78 124.64C85.9 124.334 86.0666 123.987 86.28 123.6C86.4933 123.214 86.7866 122.88 87.16 122.6C87.5333 122.32 87.9266 122.174 88.34 122.16C88.9533 122.16 89.4133 122.327 89.72 122.66C90.0266 122.994 90.18 123.387 90.18 123.84C90.18 124.08 89.9533 124.827 89.5 126.08C89.0466 127.334 88.82 128.274 88.82 128.9C88.82 129.474 88.9133 129.874 89.1 130.1C89.2866 130.327 89.5666 130.447 89.94 130.46C90.3133 130.474 90.6666 130.36 91 130.12C91.3333 129.88 91.58 129.654 91.74 129.44L91.96 129.1C91.9866 129.047 92.24 128.034 92.72 126.06C93.12 124.46 93.36 123.527 93.44 123.26C93.52 122.994 93.6133 122.8 93.72 122.68C93.9466 122.48 94.1866 122.38 94.44 122.38C94.6666 122.38 94.8333 122.447 94.94 122.58C95.0466 122.714 95.1 122.84 95.1 122.96L93.58 129.32C93.5666 129.387 93.56 129.494 93.56 129.64C93.56 129.974 93.6066 130.194 93.7 130.3C93.7933 130.407 93.9333 130.467 94.12 130.48C94.4133 130.44 94.6466 130.234 94.82 129.86C94.9933 129.487 95.1933 128.9 95.42 128.1C95.4466 127.994 95.58 127.94 95.82 127.94C96.0733 127.94 96.2 128 96.2 128.12C96.1866 128.187 96.1733 128.28 96.16 128.4C96.1466 128.52 96.0866 128.734 95.98 129.04C95.8733 129.347 95.76 129.634 95.64 129.9C95.52 130.167 95.3533 130.42 95.14 130.66C94.9266 130.9 94.6866 131.067 94.42 131.16C94.3133 131.187 94.1533 131.2 93.94 131.2C93.06 131.2 92.4533 130.827 92.12 130.08C92.0933 130.094 92.02 130.16 91.9 130.28C91.78 130.4 91.66 130.5 91.54 130.58C91.42 130.66 91.2733 130.76 91.1 130.88C90.9266 131 90.7333 131.08 90.52 131.12C90.3066 131.16 90.08 131.194 89.84 131.22C89.2533 131.22 88.7333 131.1 88.28 130.86C87.5866 130.447 87.24 129.74 87.24 128.74C87.24 127.98 87.4733 126.987 87.94 125.76C88.4066 124.534 88.64 123.754 88.64 123.42C88.64 123.407 88.64 123.394 88.64 123.38C88.64 123.26 88.64 123.18 88.64 123.14C88.64 123.1 88.6133 123.054 88.56 123C88.5066 122.947 88.4333 122.92 88.34 122.92H88.26C87.9533 122.92 87.6733 123.047 87.42 123.3C87.1666 123.554 86.9666 123.827 86.82 124.12C86.6733 124.414 86.56 124.694 86.48 124.96C86.4 125.227 86.3466 125.374 86.32 125.4C86.2933 125.427 86.1866 125.44 86 125.44H85.72C85.64 125.36 85.6 125.3 85.6 125.26Z" fill="black"/>
<path d="M97.72 116.36C97.7333 116.267 97.7733 116.187 97.84 116.12C97.9067 116.053 98 116.013 98.12 116C98.2533 116 98.3667 116.067 98.46 116.2C98.5 116.293 99.1267 117.933 100.34 121.12C101.553 124.307 102.167 125.933 102.18 126C102.193 126.067 101.587 127.693 100.36 130.88C99.1333 134.067 98.5 135.707 98.46 135.8C98.3667 135.933 98.2533 136 98.12 136C98.0133 136 97.9267 135.967 97.86 135.9C97.7933 135.833 97.7467 135.747 97.72 135.64C97.72 135.573 98.32 133.953 99.52 130.78C100.733 127.62 101.34 126.027 101.34 126C101.34 125.973 100.733 124.38 99.52 121.22C98.32 118.047 97.72 116.427 97.72 116.36Z" fill="black"/>
<path d="M288 128.442C288 127.755 288.115 127.128 288.344 126.562C288.573 125.995 288.868 125.525 289.23 125.151C289.591 124.778 289.995 124.464 290.441 124.211C290.887 123.958 291.309 123.771 291.707 123.651C292.104 123.53 292.484 123.476 292.846 123.488H292.9C293.442 123.488 293.913 123.621 294.31 123.886C294.708 124.151 294.907 124.543 294.907 125.061C294.907 126.146 294.238 126.857 292.9 127.195C292.309 127.351 291.502 127.436 290.477 127.448C290.031 127.448 289.802 127.46 289.79 127.484C289.79 127.508 289.754 127.719 289.682 128.117C289.609 128.515 289.567 128.864 289.555 129.165C289.555 129.732 289.682 130.178 289.935 130.503C290.188 130.829 290.568 130.998 291.074 131.01C291.58 131.022 292.141 130.907 292.755 130.666C293.37 130.425 293.925 130.027 294.419 129.473C294.527 129.352 294.6 129.292 294.636 129.292C294.684 129.292 294.762 129.346 294.871 129.455C294.979 129.563 295.04 129.648 295.052 129.708C295.064 129.768 295.009 129.865 294.889 129.997C294.768 130.13 294.588 130.292 294.346 130.485C294.105 130.678 293.828 130.865 293.515 131.046C293.201 131.227 292.822 131.377 292.376 131.498C291.93 131.618 291.472 131.679 291.001 131.679C290.049 131.679 289.314 131.359 288.796 130.72C288.277 130.082 288.012 129.322 288 128.442ZM294.039 125.097C293.967 124.47 293.557 124.157 292.81 124.157C292.412 124.157 292.044 124.241 291.707 124.41C291.369 124.579 291.098 124.784 290.893 125.025C290.688 125.266 290.513 125.513 290.369 125.766C290.224 126.019 290.128 126.236 290.079 126.417C290.031 126.598 290.001 126.712 289.989 126.761C289.989 126.773 290.109 126.779 290.351 126.779C291.713 126.779 292.665 126.634 293.207 126.345C293.75 126.055 294.027 125.64 294.039 125.097Z" fill="black"/>
<path d="M297.114 118.528C296.884 118.528 296.701 118.451 296.564 118.298C296.428 118.145 296.36 117.957 296.36 117.736C296.36 117.131 296.586 116.606 297.037 116.163C297.489 115.72 298.051 115.499 298.725 115.499C299.5 115.499 300.148 115.737 300.668 116.214C301.188 116.692 301.452 117.309 301.46 118.068C301.46 118.434 301.375 118.784 301.205 119.116C301.034 119.449 300.83 119.738 300.591 119.985C300.352 120.233 300.012 120.548 299.568 120.931C299.262 121.196 298.835 121.588 298.29 122.107L297.536 122.823L298.507 122.836C299.845 122.836 300.557 122.815 300.642 122.772C300.702 122.755 300.804 122.376 300.949 121.635V121.596H301.46V121.635C301.452 121.66 301.396 122.048 301.294 122.798C301.192 123.548 301.128 123.94 301.102 123.974V124.012H296.36V123.769V123.616C296.36 123.556 296.385 123.492 296.436 123.424C296.488 123.356 296.615 123.207 296.82 122.977C297.067 122.704 297.28 122.465 297.459 122.261C297.536 122.176 297.681 122.018 297.894 121.788C298.107 121.558 298.252 121.4 298.328 121.315C298.405 121.23 298.529 121.089 298.699 120.893C298.87 120.697 298.989 120.552 299.057 120.458C299.125 120.365 299.223 120.237 299.351 120.075C299.479 119.913 299.568 119.777 299.62 119.666C299.671 119.555 299.735 119.432 299.811 119.295C299.888 119.159 299.943 119.022 299.977 118.886C300.012 118.75 300.041 118.622 300.067 118.503C300.093 118.383 300.105 118.243 300.105 118.081C300.105 117.544 299.96 117.079 299.671 116.687C299.381 116.295 298.968 116.099 298.431 116.099C298.149 116.099 297.902 116.172 297.689 116.317C297.476 116.462 297.327 116.602 297.242 116.738C297.157 116.875 297.114 116.956 297.114 116.981C297.114 116.99 297.135 116.994 297.178 116.994C297.331 116.994 297.489 117.054 297.651 117.173C297.813 117.292 297.894 117.488 297.894 117.761C297.894 117.974 297.826 118.153 297.689 118.298C297.553 118.443 297.361 118.52 297.114 118.528Z" fill="black"/>
<path d="M303.8 124.153C303.51 124.153 303.365 124.012 303.365 123.731V123.59L303.531 123.232C304.17 121.886 304.635 120.723 304.925 119.743L305.027 119.436H304.618C304.294 119.436 304.064 119.449 303.927 119.474C303.791 119.5 303.625 119.581 303.429 119.717C303.335 119.777 303.241 119.853 303.148 119.947C303.054 120.041 302.973 120.13 302.905 120.216C302.837 120.301 302.798 120.352 302.79 120.369C302.773 120.377 302.709 120.382 302.598 120.382C302.436 120.382 302.355 120.339 302.355 120.254C302.355 120.203 302.436 120.054 302.598 119.807C302.76 119.559 302.994 119.295 303.301 119.014C303.608 118.733 303.91 118.571 304.209 118.528C304.268 118.511 305.227 118.503 307.085 118.503C308.449 118.503 309.147 118.507 309.181 118.515C309.352 118.575 309.437 118.694 309.437 118.873C309.437 119.138 309.301 119.316 309.028 119.41C308.977 119.427 308.683 119.436 308.146 119.436H307.328L307.29 119.653C307.187 120.267 307.136 120.774 307.136 121.174C307.136 121.617 307.174 122.014 307.251 122.363C307.328 122.713 307.409 122.985 307.494 123.181C307.579 123.377 307.622 123.497 307.622 123.539C307.622 123.684 307.562 123.82 307.443 123.948C307.324 124.076 307.17 124.14 306.983 124.14C306.889 124.14 306.812 124.127 306.753 124.102C306.693 124.076 306.625 123.974 306.548 123.795C306.471 123.616 306.403 123.36 306.344 123.028C306.335 122.951 306.331 122.764 306.331 122.465C306.331 122.048 306.369 121.6 306.446 121.123C306.523 120.646 306.599 120.254 306.676 119.947C306.753 119.64 306.795 119.47 306.804 119.436H305.551L305.538 119.487C305.538 119.512 305.457 119.849 305.295 120.497C305.133 121.144 304.95 121.831 304.746 122.555C304.541 123.279 304.409 123.693 304.349 123.795C304.256 124.034 304.072 124.153 303.8 124.153Z" fill="black"/>
<path d="M311.751 116.342C311.751 116.138 311.832 115.959 311.994 115.805C312.156 115.652 312.343 115.571 312.556 115.562C312.71 115.562 312.837 115.614 312.94 115.716C313.042 115.818 313.097 115.946 313.106 116.099C313.106 116.295 313.021 116.474 312.85 116.636C312.68 116.798 312.492 116.883 312.288 116.892C312.16 116.892 312.041 116.849 311.93 116.764C311.819 116.679 311.759 116.538 311.751 116.342ZM309.667 120.343C309.667 120.275 309.706 120.143 309.782 119.947C309.859 119.751 309.961 119.534 310.089 119.295C310.217 119.057 310.404 118.839 310.652 118.643C310.899 118.447 311.154 118.353 311.419 118.362C311.751 118.362 312.028 118.46 312.249 118.656C312.471 118.852 312.586 119.116 312.595 119.449C312.595 119.593 312.535 119.832 312.416 120.164C312.296 120.497 312.126 120.944 311.904 121.507C311.683 122.069 311.504 122.551 311.367 122.951C311.325 123.139 311.303 123.275 311.303 123.36C311.303 123.573 311.376 123.68 311.521 123.68C311.598 123.68 311.678 123.667 311.764 123.641C311.849 123.616 311.947 123.556 312.058 123.463C312.168 123.369 312.284 123.22 312.403 123.015C312.522 122.811 312.629 122.559 312.722 122.261C312.748 122.159 312.769 122.099 312.786 122.082C312.803 122.065 312.876 122.056 313.004 122.056C313.174 122.056 313.259 122.099 313.259 122.184C313.259 122.252 313.221 122.384 313.144 122.58C313.068 122.776 312.961 122.994 312.825 123.232C312.688 123.471 312.497 123.684 312.249 123.872C312.002 124.059 311.738 124.153 311.457 124.153C311.184 124.153 310.933 124.063 310.703 123.884C310.473 123.705 310.353 123.433 310.345 123.066C310.345 122.921 310.366 122.785 310.409 122.657C310.451 122.529 310.634 122.044 310.958 121.2C311.282 120.339 311.47 119.824 311.521 119.653C311.572 119.483 311.602 119.316 311.61 119.155C311.61 118.95 311.538 118.848 311.393 118.848H311.367C311.112 118.848 310.877 118.988 310.664 119.27C310.451 119.551 310.289 119.909 310.179 120.343C310.17 120.352 310.162 120.365 310.153 120.382C310.144 120.399 310.14 120.412 310.14 120.42C310.14 120.429 310.132 120.437 310.115 120.446C310.098 120.454 310.085 120.458 310.076 120.458C310.068 120.458 310.051 120.458 310.025 120.458C310 120.458 309.965 120.458 309.923 120.458H309.744C309.693 120.407 309.667 120.369 309.667 120.343Z" fill="black"/>
<path d="M314.256 121.456C314.256 120.586 314.423 119.67 314.755 118.707C315.087 117.744 315.539 116.913 316.11 116.214C316.681 115.516 317.273 115.115 317.887 115.013C317.895 115.013 317.929 115.013 317.989 115.013C318.049 115.013 318.1 115.009 318.143 115C318.603 115.034 318.961 115.243 319.216 115.626C319.549 116.138 319.715 116.824 319.715 117.685C319.715 118.665 319.523 119.662 319.14 120.676C318.756 121.69 318.266 122.521 317.67 123.169C317.073 123.816 316.502 124.14 315.957 124.14H315.867C315.56 124.14 315.296 124.055 315.075 123.884C314.853 123.714 314.687 123.488 314.576 123.207C314.465 122.926 314.384 122.64 314.333 122.35C314.282 122.061 314.256 121.762 314.256 121.456ZM318.705 116.777C318.705 115.908 318.479 115.473 318.028 115.473C317.721 115.473 317.422 115.665 317.133 116.048C316.843 116.432 316.604 116.866 316.417 117.352C316.229 117.838 316.084 118.264 315.982 118.631C315.88 118.997 315.825 119.21 315.816 119.27C316.234 119.278 316.647 119.282 317.056 119.282L318.296 119.27C318.304 119.261 318.339 119.121 318.398 118.848C318.458 118.575 318.526 118.234 318.603 117.825C318.679 117.416 318.714 117.067 318.705 116.777ZM315.254 122.325C315.254 123.228 315.479 123.68 315.931 123.68C316.059 123.68 316.195 123.637 316.34 123.552C316.485 123.467 316.66 123.305 316.864 123.066C317.069 122.828 317.273 122.457 317.478 121.954C317.682 121.451 317.887 120.829 318.091 120.088L318.155 119.871H315.663C315.663 119.896 315.624 120.058 315.548 120.356C315.471 120.655 315.403 120.987 315.343 121.353C315.283 121.72 315.254 122.044 315.254 122.325Z" fill="black"/>
<path d="M323.226 135.982H323.189C323.045 135.982 322.936 135.898 322.864 135.729V126.941L322.882 118.154C323.003 117.997 323.117 117.919 323.226 117.919C323.382 117.919 323.503 118.009 323.587 118.19V135.729C323.491 135.898 323.382 135.982 323.262 135.982H323.226Z" fill="black"/>
<path d="M326.119 126.291C326.119 126.194 326.173 126.007 326.281 125.73C326.39 125.453 326.54 125.139 326.733 124.79C326.926 124.44 327.191 124.139 327.529 123.886C327.866 123.633 328.222 123.5 328.596 123.488C329.15 123.488 329.566 123.639 329.843 123.94C330.12 124.241 330.259 124.597 330.259 125.007C330.259 125.224 330.054 125.899 329.644 127.032C329.235 128.165 329.03 129.015 329.03 129.581C329.03 130.1 329.114 130.461 329.283 130.666C329.451 130.871 329.705 130.98 330.042 130.992C330.38 131.004 330.699 130.901 331 130.684C331.302 130.467 331.525 130.262 331.669 130.069L331.868 129.762C331.892 129.714 332.121 128.798 332.555 127.014C332.917 125.567 333.134 124.724 333.206 124.482C333.279 124.241 333.363 124.067 333.459 123.958C333.664 123.777 333.881 123.687 334.11 123.687C334.315 123.687 334.466 123.747 334.562 123.868C334.659 123.988 334.707 124.103 334.707 124.211L333.333 129.961C333.321 130.021 333.315 130.118 333.315 130.25C333.315 130.552 333.357 130.751 333.441 130.847C333.526 130.943 333.652 130.998 333.821 131.01C334.086 130.974 334.297 130.787 334.454 130.449C334.611 130.112 334.791 129.581 334.996 128.858C335.02 128.762 335.141 128.713 335.358 128.713C335.587 128.713 335.702 128.768 335.702 128.876C335.689 128.936 335.677 129.021 335.665 129.129C335.653 129.238 335.599 129.431 335.503 129.708C335.406 129.985 335.304 130.244 335.195 130.485C335.087 130.726 334.936 130.955 334.743 131.172C334.55 131.389 334.333 131.54 334.092 131.624C333.996 131.649 333.851 131.661 333.658 131.661C332.863 131.661 332.314 131.323 332.013 130.648C331.989 130.66 331.923 130.72 331.814 130.829C331.706 130.937 331.597 131.028 331.489 131.1C331.38 131.172 331.248 131.263 331.091 131.371C330.934 131.48 330.759 131.552 330.566 131.588C330.374 131.624 330.169 131.655 329.952 131.679C329.421 131.679 328.951 131.57 328.541 131.353C327.915 130.98 327.601 130.341 327.601 129.437C327.601 128.75 327.812 127.852 328.234 126.743C328.656 125.634 328.867 124.928 328.867 124.627C328.867 124.615 328.867 124.603 328.867 124.591C328.867 124.482 328.867 124.41 328.867 124.374C328.867 124.338 328.843 124.296 328.795 124.247C328.746 124.199 328.68 124.175 328.596 124.175H328.523C328.246 124.175 327.993 124.29 327.764 124.519C327.535 124.748 327.354 124.995 327.221 125.26C327.089 125.525 326.986 125.778 326.914 126.019C326.842 126.26 326.794 126.393 326.769 126.417C326.745 126.441 326.649 126.453 326.48 126.453H326.227C326.155 126.381 326.119 126.327 326.119 126.291Z" fill="black"/>
<path d="M337.076 118.244C337.088 118.16 337.124 118.088 337.184 118.027C337.244 117.967 337.329 117.931 337.437 117.919C337.558 117.919 337.66 117.979 337.745 118.1C337.781 118.184 338.347 119.667 339.444 122.548C340.541 125.429 341.096 126.899 341.108 126.959C341.12 127.02 340.571 128.49 339.462 131.371C338.353 134.252 337.781 135.735 337.745 135.819C337.66 135.94 337.558 136 337.437 136C337.341 136 337.263 135.97 337.202 135.91C337.142 135.849 337.1 135.771 337.076 135.675C337.076 135.614 337.618 134.15 338.703 131.281C339.8 128.424 340.348 126.984 340.348 126.959C340.348 126.935 339.8 125.495 338.703 122.638C337.618 119.769 337.076 118.305 337.076 118.244Z" fill="black"/>
<path d="M183 113.957C182.035 113.957 181.525 113.901 181.468 113.787C181.44 113.73 181.426 113.617 181.426 113.447C181.426 112.766 181.582 112.298 181.894 112.043C181.95 112.014 182.191 112 182.617 112C183.78 112.057 185.709 112.085 188.404 112.085C189.369 112.085 190.262 112.085 191.085 112.085C191.908 112.085 192.546 112.071 193 112.043C193.454 112.014 193.738 112.014 193.851 112.043C194.305 112.043 194.532 112.184 194.532 112.468C194.532 112.525 194.504 112.723 194.447 113.064C194.305 113.546 194.163 113.83 194.021 113.915H193.936C193.879 113.915 193.809 113.915 193.723 113.915C193.638 113.915 193.539 113.915 193.426 113.915C193.312 113.915 193.184 113.929 193.043 113.957C192.901 113.986 192.773 113.986 192.66 113.957C191.553 113.986 190.844 114.028 190.532 114.085C190.22 114.142 189.965 114.298 189.766 114.553C189.738 114.61 189.34 116.099 188.574 119.021C187.809 121.943 187.043 125.007 186.277 128.213C185.511 131.418 185.085 133.305 185 133.872C184.943 134.27 184.915 134.681 184.915 135.106C184.915 136.638 185.355 137.844 186.234 138.723C187.113 139.603 188.333 140.043 189.894 140.043C191.794 140.043 193.695 139.404 195.596 138.128C197.496 136.851 198.887 134.922 199.766 132.34L201.936 123.787C203.27 118.34 203.936 115.504 203.936 115.277C203.936 114.511 203.028 114.071 201.213 113.957C200.532 113.957 200.191 113.801 200.191 113.489C200.191 113.433 200.22 113.262 200.277 112.979C200.39 112.525 200.475 112.255 200.532 112.17C200.589 112.085 200.73 112.028 200.957 112C201.043 112 201.496 112.014 202.319 112.043C203.142 112.071 204.333 112.099 205.894 112.128C207.34 112.128 208.447 112.113 209.213 112.085C209.979 112.057 210.39 112.043 210.447 112.043C210.872 112.043 211.085 112.184 211.085 112.468C211.085 113.092 210.972 113.518 210.745 113.745C210.66 113.887 210.348 113.957 209.809 113.957C207.794 114.071 206.532 114.638 206.021 115.66C205.965 115.801 205.255 118.539 203.894 123.872C202.73 128.667 202.021 131.489 201.766 132.34C200.83 135.177 199.199 137.489 196.872 139.277C194.546 141.064 192.135 141.972 189.638 142C187.028 142 184.943 141.206 183.383 139.617C181.823 138.028 181.028 136.142 181 133.957V133.277C181 132.766 181.78 129.39 183.34 123.149C184.73 117.447 185.426 114.511 185.426 114.34C185.426 114.142 184.617 114.014 183 113.957Z" fill="white"/>
<line x1="196" y1="86" x2="196" y2="51" stroke="#1192E8" stroke-width="2"/>
<circle cx="196" cy="51" r="5.5" fill="#1192E8" stroke="#1192E8"/>
<path d="M85.4 60.98H85.36C85.2 60.98 85.08 60.8866 85 60.7V50.98L85.02 41.26C85.1533 41.0866 85.28 41 85.4 41C85.5733 41 85.7067 41.1 85.8 41.3V60.7C85.6933 60.8866 85.5733 60.98 85.44 60.98H85.4Z" fill="black"/>
<path d="M92.44 44.44L92.18 44.54C91.9933 44.6067 91.7267 44.6733 91.38 44.74C91.0333 44.8067 90.6467 44.8533 90.22 44.88H89.84V43.96H90.22C90.8467 43.9333 91.4267 43.8333 91.96 43.66C92.4933 43.4867 92.8667 43.3267 93.08 43.18C93.2933 43.0333 93.48 42.8867 93.64 42.74C93.6667 42.7 93.7467 42.68 93.88 42.68C94 42.68 94.1133 42.72 94.22 42.8V48.78L94.24 54.78C94.3333 54.8733 94.4133 54.9333 94.48 54.96C94.5467 54.9867 94.7067 55.0133 94.96 55.04C95.2133 55.0667 95.6267 55.08 96.2 55.08H96.72V56H96.5C96.22 55.96 95.16 55.94 93.32 55.94C91.5067 55.94 90.46 55.96 90.18 56H89.94V55.08H90.46C90.7533 55.08 91.0067 55.08 91.22 55.08C91.4333 55.08 91.6 55.0733 91.72 55.06C91.84 55.0467 91.9467 55.0267 92.04 55C92.1333 54.9733 92.1867 54.96 92.2 54.96C92.2133 54.96 92.2533 54.9267 92.32 54.86C92.3867 54.7933 92.4267 54.7667 92.44 54.78V44.44Z" fill="black"/>
<path d="M99.28 41.36C99.2933 41.2667 99.3333 41.1867 99.4 41.12C99.4667 41.0533 99.56 41.0133 99.68 41C99.8133 41 99.9267 41.0667 100.02 41.2C100.06 41.2933 100.687 42.9333 101.9 46.12C103.113 49.3067 103.727 50.9333 103.74 51C103.753 51.0667 103.147 52.6933 101.92 55.88C100.693 59.0667 100.06 60.7067 100.02 60.8C99.9267 60.9333 99.8133 61 99.68 61C99.5733 61 99.4867 60.9667 99.42 60.9C99.3533 60.8333 99.3067 60.7467 99.28 60.64C99.28 60.5733 99.88 58.9533 101.08 55.78C102.293 52.62 102.9 51.0267 102.9 51C102.9 50.9733 102.293 49.38 101.08 46.22C99.88 43.0467 99.28 41.4267 99.28 41.36Z" fill="black"/>
<path d="M287.4 60.98H287.36C287.2 60.98 287.08 60.8866 287 60.7V50.98L287.02 41.26C287.153 41.0866 287.28 41 287.4 41C287.573 41 287.707 41.1 287.8 41.3V60.7C287.693 60.8866 287.573 60.98 287.44 60.98H287.4Z" fill="black"/>
<path d="M294.44 44.44L294.18 44.54C293.993 44.6067 293.727 44.6733 293.38 44.74C293.033 44.8067 292.647 44.8533 292.22 44.88H291.84V43.96H292.22C292.847 43.9333 293.427 43.8333 293.96 43.66C294.493 43.4867 294.867 43.3267 295.08 43.18C295.293 43.0333 295.48 42.8867 295.64 42.74C295.667 42.7 295.747 42.68 295.88 42.68C296 42.68 296.113 42.72 296.22 42.8V48.78L296.24 54.78C296.333 54.8733 296.413 54.9333 296.48 54.96C296.547 54.9867 296.707 55.0133 296.96 55.04C297.213 55.0667 297.627 55.08 298.2 55.08H298.72V56H298.5C298.22 55.96 297.16 55.94 295.32 55.94C293.507 55.94 292.46 55.96 292.18 56H291.94V55.08H292.46C292.753 55.08 293.007 55.08 293.22 55.08C293.433 55.08 293.6 55.0733 293.72 55.06C293.84 55.0467 293.947 55.0267 294.04 55C294.133 54.9733 294.187 54.96 294.2 54.96C294.213 54.96 294.253 54.9267 294.32 54.86C294.387 54.7933 294.427 54.7667 294.44 54.78V44.44Z" fill="black"/>
<path d="M301.28 41.36C301.293 41.2667 301.333 41.1867 301.4 41.12C301.467 41.0533 301.56 41.0133 301.68 41C301.813 41 301.927 41.0667 302.02 41.2C302.06 41.2933 302.687 42.9333 303.9 46.12C305.113 49.3067 305.727 50.9333 305.74 51C305.753 51.0667 305.147 52.6933 303.92 55.88C302.693 59.0667 302.06 60.7067 302.02 60.8C301.927 60.9333 301.813 61 301.68 61C301.573 61 301.487 60.9667 301.42 60.9C301.353 60.8333 301.307 60.7467 301.28 60.64C301.28 60.5733 301.88 58.9533 303.08 55.78C304.293 52.62 304.9 51.0267 304.9 51C304.9 50.9733 304.293 49.38 303.08 46.22C301.88 43.0467 301.28 41.4267 301.28 41.36Z" fill="black"/>
</svg>
