<svg width="400" height="192" viewBox="0 0 400 192" fill="none" xmlns="http://www.w3.org/2000/svg">
<rect width="400" height="192" fill="white"/>
<rect opacity="0.4" y="120" width="400" height="40" fill="#F2F4F8"/>
<rect opacity="0.4" y="40" width="400" height="40" fill="#F2F4F8"/>
<rect x="0.5" y="0.5" width="399" height="191" stroke="#DDE1E6"/>
<line x1="124" y1="103.5" x2="265" y2="103.5" stroke="black"/>
<line x1="124" y1="50.5" x2="251" y2="50.5" stroke="black"/>
<line x1="124" y1="113.5" x2="265" y2="113.5" stroke="black"/>
<line x1="124" y1="124.5" x2="265" y2="124.5" stroke="black"/>
<line x1="124" y1="135.5" x2="265" y2="135.5" stroke="black"/>
<line x1="124" y1="146.5" x2="265" y2="146.5" stroke="black"/>
<rect width="93" height="82" transform="translate(148 85)" fill="#1192E8"/>
<path d="M82.4 135.98H82.36C82.2 135.98 82.08 135.887 82 135.7V125.98L82.02 116.26C82.1533 116.087 82.28 116 82.4 116C82.5733 116 82.7067 116.1 82.8 116.3V135.7C82.6933 135.887 82.5733 135.98 82.44 135.98H82.4Z" fill="black"/>
<path d="M85.6 125.26C85.6 125.154 85.66 124.947 85.78 124.64C85.9 124.334 86.0666 123.987 86.28 123.6C86.4933 123.214 86.7866 122.88 87.16 122.6C87.5333 122.32 87.9266 122.174 88.34 122.16C88.9533 122.16 89.4133 122.327 89.72 122.66C90.0266 122.994 90.18 123.387 90.18 123.84C90.18 124.08 89.9533 124.827 89.5 126.08C89.0466 127.334 88.82 128.274 88.82 128.9C88.82 129.474 88.9133 129.874 89.1 130.1C89.2866 130.327 89.5666 130.447 89.94 130.46C90.3133 130.474 90.6666 130.36 91 130.12C91.3333 129.88 91.58 129.654 91.74 129.44L91.96 129.1C91.9866 129.047 92.24 128.034 92.72 126.06C93.12 124.46 93.36 123.527 93.44 123.26C93.52 122.994 93.6133 122.8 93.72 122.68C93.9466 122.48 94.1866 122.38 94.44 122.38C94.6666 122.38 94.8333 122.447 94.94 122.58C95.0466 122.714 95.1 122.84 95.1 122.96L93.58 129.32C93.5666 129.387 93.56 129.494 93.56 129.64C93.56 129.974 93.6066 130.194 93.7 130.3C93.7933 130.407 93.9333 130.467 94.12 130.48C94.4133 130.44 94.6466 130.234 94.82 129.86C94.9933 129.487 95.1933 128.9 95.42 128.1C95.4466 127.994 95.58 127.94 95.82 127.94C96.0733 127.94 96.2 128 96.2 128.12C96.1866 128.187 96.1733 128.28 96.16 128.4C96.1466 128.52 96.0866 128.734 95.98 129.04C95.8733 129.347 95.76 129.634 95.64 129.9C95.52 130.167 95.3533 130.42 95.14 130.66C94.9266 130.9 94.6866 131.067 94.42 131.16C94.3133 131.187 94.1533 131.2 93.94 131.2C93.06 131.2 92.4533 130.827 92.12 130.08C92.0933 130.094 92.02 130.16 91.9 130.28C91.78 130.4 91.66 130.5 91.54 130.58C91.42 130.66 91.2733 130.76 91.1 130.88C90.9266 131 90.7333 131.08 90.52 131.12C90.3066 131.16 90.08 131.194 89.84 131.22C89.2533 131.22 88.7333 131.1 88.28 130.86C87.5866 130.447 87.24 129.74 87.24 128.74C87.24 127.98 87.4733 126.987 87.94 125.76C88.4066 124.534 88.64 123.754 88.64 123.42C88.64 123.407 88.64 123.394 88.64 123.38C88.64 123.26 88.64 123.18 88.64 123.14C88.64 123.1 88.6133 123.054 88.56 123C88.5066 122.947 88.4333 122.92 88.34 122.92H88.26C87.9533 122.92 87.6733 123.047 87.42 123.3C87.1666 123.554 86.9666 123.827 86.82 124.12C86.6733 124.414 86.56 124.694 86.48 124.96C86.4 125.227 86.3466 125.374 86.32 125.4C86.2933 125.427 86.1866 125.44 86 125.44H85.72C85.64 125.36 85.6 125.3 85.6 125.26Z" fill="black"/>
<path d="M97.72 116.36C97.7333 116.267 97.7733 116.187 97.84 116.12C97.9067 116.053 98 116.013 98.12 116C98.2533 116 98.3667 116.067 98.46 116.2C98.5 116.293 99.1267 117.933 100.34 121.12C101.553 124.307 102.167 125.933 102.18 126C102.193 126.067 101.587 127.693 100.36 130.88C99.1333 134.067 98.5 135.707 98.46 135.8C98.3667 135.933 98.2533 136 98.12 136C98.0133 136 97.9267 135.967 97.86 135.9C97.7933 135.833 97.7467 135.747 97.72 135.64C97.72 135.573 98.32 133.953 99.52 130.78C100.733 127.62 101.34 126.027 101.34 126C101.34 125.973 100.733 124.38 99.52 121.22C98.32 118.047 97.72 116.427 97.72 116.36Z" fill="black"/>
<path d="M291.4 135.98H291.36C291.2 135.98 291.08 135.887 291 135.7V125.98L291.02 116.26C291.153 116.087 291.28 116 291.4 116C291.573 116 291.707 116.1 291.8 116.3V135.7C291.693 135.887 291.573 135.98 291.44 135.98H291.4Z" fill="black"/>
<path d="M294.6 125.26C294.6 125.154 294.66 124.947 294.78 124.64C294.9 124.334 295.067 123.987 295.28 123.6C295.493 123.214 295.787 122.88 296.16 122.6C296.533 122.32 296.927 122.174 297.34 122.16C297.953 122.16 298.413 122.327 298.72 122.66C299.027 122.994 299.18 123.387 299.18 123.84C299.18 124.08 298.953 124.827 298.5 126.08C298.047 127.334 297.82 128.274 297.82 128.9C297.82 129.474 297.913 129.874 298.1 130.1C298.287 130.327 298.567 130.447 298.94 130.46C299.313 130.474 299.667 130.36 300 130.12C300.333 129.88 300.58 129.654 300.74 129.44L300.96 129.1C300.987 129.047 301.24 128.034 301.72 126.06C302.12 124.46 302.36 123.527 302.44 123.26C302.52 122.994 302.613 122.8 302.72 122.68C302.947 122.48 303.187 122.38 303.44 122.38C303.667 122.38 303.833 122.447 303.94 122.58C304.047 122.714 304.1 122.84 304.1 122.96L302.58 129.32C302.567 129.387 302.56 129.494 302.56 129.64C302.56 129.974 302.607 130.194 302.7 130.3C302.793 130.407 302.933 130.467 303.12 130.48C303.413 130.44 303.647 130.234 303.82 129.86C303.993 129.487 304.193 128.9 304.42 128.1C304.447 127.994 304.58 127.94 304.82 127.94C305.073 127.94 305.2 128 305.2 128.12C305.187 128.187 305.173 128.28 305.16 128.4C305.147 128.52 305.087 128.734 304.98 129.04C304.873 129.347 304.76 129.634 304.64 129.9C304.52 130.167 304.353 130.42 304.14 130.66C303.927 130.9 303.687 131.067 303.42 131.16C303.313 131.187 303.153 131.2 302.94 131.2C302.06 131.2 301.453 130.827 301.12 130.08C301.093 130.094 301.02 130.16 300.9 130.28C300.78 130.4 300.66 130.5 300.54 130.58C300.42 130.66 300.273 130.76 300.1 130.88C299.927 131 299.733 131.08 299.52 131.12C299.307 131.16 299.08 131.194 298.84 131.22C298.253 131.22 297.733 131.1 297.28 130.86C296.587 130.447 296.24 129.74 296.24 128.74C296.24 127.98 296.473 126.987 296.94 125.76C297.407 124.534 297.64 123.754 297.64 123.42C297.64 123.407 297.64 123.394 297.64 123.38C297.64 123.26 297.64 123.18 297.64 123.14C297.64 123.1 297.613 123.054 297.56 123C297.507 122.947 297.433 122.92 297.34 122.92H297.26C296.953 122.92 296.673 123.047 296.42 123.3C296.167 123.554 295.967 123.827 295.82 124.12C295.673 124.414 295.56 124.694 295.48 124.96C295.4 125.227 295.347 125.374 295.32 125.4C295.293 125.427 295.187 125.44 295 125.44H294.72C294.64 125.36 294.6 125.3 294.6 125.26Z" fill="black"/>
<path d="M306.72 116.36C306.733 116.267 306.773 116.187 306.84 116.12C306.907 116.053 307 116.013 307.12 116C307.253 116 307.367 116.067 307.46 116.2C307.5 116.293 308.127 117.933 309.34 121.12C310.553 124.307 311.167 125.933 311.18 126C311.193 126.067 310.587 127.693 309.36 130.88C308.133 134.067 307.5 135.707 307.46 135.8C307.367 135.933 307.253 136 307.12 136C307.013 136 306.927 135.967 306.86 135.9C306.793 135.833 306.747 135.747 306.72 135.64C306.72 135.573 307.32 133.953 308.52 130.78C309.733 127.62 310.34 126.027 310.34 126C310.34 125.973 309.733 124.38 308.52 121.22C307.32 118.047 306.72 116.427 306.72 116.36Z" fill="black"/>
<path d="M183 113.957C182.035 113.957 181.525 113.901 181.468 113.787C181.44 113.73 181.426 113.617 181.426 113.447C181.426 112.766 181.582 112.298 181.894 112.043C181.95 112.014 182.191 112 182.617 112C183.78 112.057 185.709 112.085 188.404 112.085C189.369 112.085 190.262 112.085 191.085 112.085C191.908 112.085 192.546 112.071 193 112.043C193.454 112.014 193.738 112.014 193.851 112.043C194.305 112.043 194.532 112.184 194.532 112.468C194.532 112.525 194.504 112.723 194.447 113.064C194.305 113.546 194.163 113.83 194.021 113.915H193.936C193.879 113.915 193.809 113.915 193.723 113.915C193.638 113.915 193.539 113.915 193.426 113.915C193.312 113.915 193.184 113.929 193.043 113.957C192.901 113.986 192.773 113.986 192.66 113.957C191.553 113.986 190.844 114.028 190.532 114.085C190.22 114.142 189.965 114.298 189.766 114.553C189.738 114.61 189.34 116.099 188.574 119.021C187.809 121.943 187.043 125.007 186.277 128.213C185.511 131.418 185.085 133.305 185 133.872C184.943 134.27 184.915 134.681 184.915 135.106C184.915 136.638 185.355 137.844 186.234 138.723C187.113 139.603 188.333 140.043 189.894 140.043C191.794 140.043 193.695 139.404 195.596 138.128C197.496 136.851 198.887 134.922 199.766 132.34L201.936 123.787C203.27 118.34 203.936 115.504 203.936 115.277C203.936 114.511 203.028 114.071 201.213 113.957C200.532 113.957 200.191 113.801 200.191 113.489C200.191 113.433 200.22 113.262 200.277 112.979C200.39 112.525 200.475 112.255 200.532 112.17C200.589 112.085 200.73 112.028 200.957 112C201.043 112 201.496 112.014 202.319 112.043C203.142 112.071 204.333 112.099 205.894 112.128C207.34 112.128 208.447 112.113 209.213 112.085C209.979 112.057 210.39 112.043 210.447 112.043C210.872 112.043 211.085 112.184 211.085 112.468C211.085 113.092 210.972 113.518 210.745 113.745C210.66 113.887 210.348 113.957 209.809 113.957C207.794 114.071 206.532 114.638 206.021 115.66C205.965 115.801 205.255 118.539 203.894 123.872C202.73 128.667 202.021 131.489 201.766 132.34C200.83 135.177 199.199 137.489 196.872 139.277C194.546 141.064 192.135 141.972 189.638 142C187.028 142 184.943 141.206 183.383 139.617C181.823 138.028 181.028 136.142 181 133.957V133.277C181 132.766 181.78 129.39 183.34 123.149C184.73 117.447 185.426 114.511 185.426 114.34C185.426 114.142 184.617 114.014 183 113.957Z" fill="white"/>
<line x1="196" y1="86" x2="196" y2="51" stroke="#1192E8" stroke-width="2"/>
<circle cx="196" cy="51" r="5.5" fill="#1192E8" stroke="#1192E8"/>
<path d="M25 52.8802C25 51.3602 25.5733 50.0269 26.72 48.8802C27.8667 47.7335 29.1267 47.1602 30.5 47.1602C31.4333 47.1602 32.18 47.4269 32.74 47.9602C33.3 48.4935 33.68 49.1469 33.88 49.9202C33.96 50.3069 34.0067 50.7535 34.02 51.2602V51.8402C34.6733 50.8535 35.1733 49.7469 35.52 48.5202C35.5733 48.3335 35.6133 48.2269 35.64 48.2002C35.6667 48.1735 35.7733 48.1535 35.96 48.1402C36.24 48.1402 36.38 48.1935 36.38 48.3002C36.38 48.4202 36.32 48.6802 36.2 49.0802C36.08 49.4802 35.84 50.0469 35.48 50.7802C35.12 51.5135 34.7133 52.1802 34.26 52.7802L34.04 53.0602L34.06 53.5402C34.0867 54.2869 34.14 54.7935 34.22 55.0602C34.3 55.3269 34.4267 55.4669 34.6 55.4802C34.7867 55.4535 34.96 55.3802 35.12 55.2602C35.28 55.1402 35.3933 54.9869 35.46 54.8002C35.4867 54.7069 35.52 54.6535 35.56 54.6402C35.6 54.6269 35.7 54.6135 35.86 54.6002C36.1267 54.6002 36.26 54.6535 36.26 54.7602C36.26 54.8402 36.22 54.9669 36.14 55.1402C35.98 55.4602 35.7467 55.7135 35.44 55.9002C35.1333 56.0869 34.84 56.1869 34.56 56.2002H34.42C33.5267 56.2002 32.92 55.7202 32.6 54.7602L32.54 54.6202L32.32 54.7802C32.1867 54.8869 31.9867 55.0202 31.72 55.1802C31.4533 55.3402 31.1533 55.4935 30.82 55.6402C30.4867 55.7869 30.1 55.9202 29.66 56.0402C29.22 56.1602 28.7933 56.2202 28.38 56.2202C27.3267 56.2202 26.5 55.8869 25.9 55.2202C25.3 54.5535 25 53.7735 25 52.8802ZM28.48 55.4802C29.1333 55.4802 29.7867 55.3402 30.44 55.0602C31.0933 54.7802 31.58 54.4935 31.9 54.2002L32.38 53.7602C32.3533 51.8535 32.3067 50.6669 32.24 50.2002C32.0533 48.6669 31.44 47.9002 30.4 47.9002C29.48 47.9002 28.6733 48.3869 27.98 49.3602C27.62 49.8935 27.3267 50.6135 27.1 51.5202C26.8733 52.4269 26.7533 53.1202 26.74 53.6002C26.74 54.2535 26.9067 54.7269 27.24 55.0202C27.5733 55.3135 27.9867 55.4669 28.48 55.4802Z" fill="black"/>
<path d="M39.9 60.98H39.86C39.7 60.98 39.58 60.8866 39.5 60.7V50.98L39.52 41.26C39.6533 41.0866 39.78 41 39.9 41C40.0733 41 40.2067 41.1 40.3 41.3V60.7C40.1933 60.8866 40.0733 60.98 39.94 60.98H39.9Z" fill="black"/>
<path d="M44.6 44.2999C45.3467 43.2199 46.3667 42.6799 47.66 42.6799C48.3 42.6799 48.94 42.8533 49.58 43.1999C50.22 43.5466 50.74 44.1599 51.14 45.0399C51.6333 46.1466 51.88 47.6666 51.88 49.5999C51.88 51.6666 51.5933 53.2466 51.02 54.3399C50.7533 54.8999 50.3867 55.3466 49.92 55.6799C49.4533 56.0133 49.0467 56.2199 48.7 56.2999C48.3533 56.3799 48.0133 56.4266 47.68 56.4399C47.3333 56.4399 46.9867 56.3999 46.64 56.3199C46.2933 56.2399 45.8867 56.0266 45.42 55.6799C44.9533 55.3333 44.5867 54.8866 44.32 54.3399C43.7467 53.2466 43.46 51.6666 43.46 49.5999C43.46 47.2799 43.84 45.5133 44.6 44.2999ZM49.1 44.0599C48.7 43.6333 48.2267 43.4199 47.68 43.4199C47.12 43.4199 46.64 43.6333 46.24 44.0599C45.9067 44.4066 45.6867 44.8866 45.58 45.4999C45.4733 46.1133 45.42 47.3933 45.42 49.3399C45.42 51.4466 45.4733 52.8333 45.58 53.4999C45.6867 54.1666 45.9267 54.6933 46.3 55.0799C46.6733 55.4799 47.1333 55.6799 47.68 55.6799C48.2133 55.6799 48.6667 55.4799 49.04 55.0799C49.4267 54.6799 49.6667 54.1199 49.76 53.3999C49.8533 52.6799 49.9067 51.3266 49.92 49.3399C49.92 47.4066 49.8667 46.1333 49.76 45.5199C49.6533 44.9066 49.4333 44.4199 49.1 44.0599Z" fill="black"/>
<path d="M53.78 41.36C53.7933 41.2667 53.8333 41.1867 53.9 41.12C53.9667 41.0533 54.06 41.0133 54.18 41C54.3133 41 54.4267 41.0667 54.52 41.2C54.56 41.2933 55.1867 42.9333 56.4 46.12C57.6133 49.3067 58.2267 50.9333 58.24 51C58.2533 51.0667 57.6467 52.6933 56.42 55.88C55.1933 59.0667 54.56 60.7067 54.52 60.8C54.4267 60.9333 54.3133 61 54.18 61C54.0733 61 53.9867 60.9667 53.92 60.9C53.8533 60.8333 53.8067 60.7467 53.78 60.64C53.78 60.5733 54.38 58.9533 55.58 55.78C56.7933 52.62 57.4 51.0267 57.4 51C57.4 50.9733 56.7933 49.38 55.58 46.22C54.38 43.0467 53.78 41.4267 53.78 41.36Z" fill="black"/>
<path d="M66.024 51.2601C66.024 51.2601 66.024 51.1735 66.024 51.0001C66.024 50.8268 66.1174 50.6935 66.304 50.6001H72.284V47.6001L72.304 44.6001C72.4374 44.4268 72.564 44.3401 72.684 44.3401C72.8574 44.3401 72.9907 44.4401 73.084 44.6401V50.6001H79.044C79.244 50.7068 79.344 50.8401 79.344 51.0001C79.344 51.1601 79.244 51.2935 79.044 51.4001H73.084V57.3601C72.9774 57.5468 72.8574 57.6401 72.724 57.6401H72.684H72.644C72.484 57.6401 72.364 57.5468 72.284 57.3601V51.4001H66.304C66.1174 51.3068 66.024 51.1735 66.024 51.0001V51.2601Z" fill="black"/>
<path d="M85.488 59.8799C85.408 59.7999 85.368 59.7465 85.368 59.7199C85.368 59.6799 85.8947 57.5465 86.948 53.3199C88.0013 49.0932 88.5613 46.8865 88.628 46.6999C88.9213 45.7932 89.3013 44.9999 89.768 44.3199C90.2347 43.6399 90.6747 43.1465 91.088 42.8399C91.8347 42.2132 92.6347 41.8999 93.488 41.8999H93.528C94.3547 41.8999 95.0347 42.1532 95.568 42.6599C96.1013 43.1665 96.368 43.8132 96.368 44.5999C96.368 45.9999 95.6747 47.1599 94.288 48.0799L94.548 48.3399C95.228 49.0199 95.568 49.8932 95.568 50.9599C95.568 52.4665 95.0013 53.7132 93.868 54.6999C92.7347 55.6865 91.4613 56.1865 90.048 56.1999C89.648 56.1999 89.288 56.1465 88.968 56.0399C88.648 55.9332 88.3947 55.8065 88.208 55.6599C88.0213 55.5132 87.8747 55.3599 87.768 55.1999C87.6613 55.0399 87.5813 54.9132 87.528 54.8199C87.4747 54.7265 87.4413 54.6865 87.428 54.6999L86.148 59.7599C86.1213 59.8399 85.988 59.8799 85.748 59.8799H85.488ZM91.968 47.3799C92.488 47.3799 92.9813 47.4599 93.448 47.6199L93.548 47.5599C93.6013 47.5065 93.648 47.4599 93.688 47.4199C93.728 47.3799 93.7947 47.3132 93.888 47.2199C93.9813 47.1265 94.0613 47.0332 94.128 46.9399C94.1947 46.8465 94.268 46.7265 94.348 46.5799C94.428 46.4332 94.508 46.2732 94.588 46.0999C94.668 45.9265 94.728 45.7332 94.768 45.5199C94.808 45.3065 94.8613 45.0665 94.928 44.7999C94.9547 44.6799 94.968 44.4599 94.968 44.1399C94.968 43.8999 94.9613 43.7465 94.948 43.6799C94.748 42.9999 94.2413 42.6599 93.428 42.6599C92.868 42.6599 92.3413 42.8199 91.848 43.1399C91.3547 43.4599 90.948 43.8665 90.628 44.3599C90.308 44.8532 90.048 45.3065 89.848 45.7199C89.648 46.1332 89.4947 46.5265 89.388 46.8999C89.3213 47.1132 89.068 48.0932 88.628 49.8399C88.188 51.5865 87.9613 52.5199 87.948 52.6399C87.9347 52.7065 87.928 52.8465 87.928 53.0599C87.928 53.6999 88.0747 54.2265 88.368 54.6399C88.7813 55.1999 89.3613 55.4799 90.108 55.4799C90.668 55.4799 91.2613 55.3132 91.888 54.9799C92.5147 54.6465 93.0213 54.0732 93.408 53.2599C93.6213 52.8065 93.7813 52.2932 93.888 51.7199C93.9947 51.1465 94.048 50.7132 94.048 50.4199C94.048 49.6465 93.8147 49.0265 93.348 48.5599C92.788 48.7465 92.288 48.8399 91.848 48.8399H91.648C90.5947 48.8399 90.068 48.6332 90.068 48.2199C90.068 48.1265 90.088 48.0332 90.128 47.9399C90.3147 47.5665 90.928 47.3799 91.968 47.3799Z" fill="black"/>
<path d="M99.008 60.98H98.968C98.808 60.98 98.688 60.8866 98.608 60.7V50.98L98.628 41.26C98.7613 41.0866 98.888 41 99.008 41C99.1813 41 99.3147 41.1 99.408 41.3V60.7C99.3013 60.8866 99.1813 60.98 99.048 60.98H99.008Z" fill="black"/>
<path d="M106.048 44.44L105.788 44.54C105.601 44.6067 105.335 44.6733 104.988 44.74C104.641 44.8067 104.255 44.8533 103.828 44.88H103.448V43.96H103.828C104.455 43.9333 105.035 43.8333 105.568 43.66C106.101 43.4867 106.475 43.3267 106.688 43.18C106.901 43.0333 107.088 42.8867 107.248 42.74C107.275 42.7 107.355 42.68 107.488 42.68C107.608 42.68 107.721 42.72 107.828 42.8V48.78L107.848 54.78C107.941 54.8733 108.021 54.9333 108.088 54.96C108.155 54.9867 108.315 55.0133 108.568 55.04C108.821 55.0667 109.235 55.08 109.808 55.08H110.328V56H110.108C109.828 55.96 108.768 55.94 106.928 55.94C105.115 55.94 104.068 55.96 103.788 56H103.548V55.08H104.068C104.361 55.08 104.615 55.08 104.828 55.08C105.041 55.08 105.208 55.0733 105.328 55.06C105.448 55.0467 105.555 55.0267 105.648 55C105.741 54.9733 105.795 54.96 105.808 54.96C105.821 54.96 105.861 54.9267 105.928 54.86C105.995 54.7933 106.035 54.7667 106.048 54.78V44.44Z" fill="black"/>
<path d="M112.888 41.36C112.901 41.2667 112.941 41.1867 113.008 41.12C113.075 41.0533 113.168 41.0133 113.288 41C113.421 41 113.535 41.0667 113.628 41.2C113.668 41.2933 114.295 42.9333 115.508 46.12C116.721 49.3067 117.335 50.9333 117.348 51C117.361 51.0667 116.755 52.6933 115.528 55.88C114.301 59.0667 113.668 60.7067 113.628 60.8C113.535 60.9333 113.421 61 113.288 61C113.181 61 113.095 60.9667 113.028 60.9C112.961 60.8333 112.915 60.7467 112.888 60.64C112.888 60.5733 113.488 58.9533 114.688 55.78C115.901 52.62 116.508 51.0267 116.508 51C116.508 50.9733 115.901 49.38 114.688 46.22C113.488 43.0467 112.888 41.4267 112.888 41.36Z" fill="black"/>
<path d="M260 52.96C260 51.4549 260.568 50.1347 261.703 48.9994C262.838 47.864 264.086 47.2963 265.446 47.2963C266.37 47.2963 267.109 47.5603 267.664 48.0884C268.218 48.6165 268.595 49.2634 268.793 50.0291C268.872 50.412 268.918 50.8542 268.931 51.3559V51.9302C269.578 50.9533 270.073 49.8575 270.416 48.6429C270.469 48.4581 270.509 48.3525 270.535 48.3261C270.562 48.2996 270.667 48.2798 270.852 48.2666C271.129 48.2666 271.268 48.3194 271.268 48.4251C271.268 48.5439 271.209 48.8013 271.09 49.1974C270.971 49.5934 270.733 50.1545 270.377 50.8806C270.02 51.6068 269.618 52.2669 269.169 52.861L268.951 53.1382L268.971 53.6135C268.997 54.3528 269.05 54.8545 269.129 55.1185C269.208 55.3826 269.334 55.5212 269.505 55.5344C269.69 55.508 269.862 55.4354 270.02 55.3165C270.179 55.1977 270.291 55.0459 270.357 54.8611C270.383 54.7687 270.416 54.7158 270.456 54.7026C270.496 54.6894 270.595 54.6762 270.753 54.663C271.017 54.663 271.149 54.7158 271.149 54.8215C271.149 54.9007 271.11 55.0261 271.03 55.1977C270.872 55.5146 270.641 55.7654 270.337 55.9502C270.034 56.1351 269.743 56.2341 269.466 56.2473H269.327C268.443 56.2473 267.842 55.772 267.525 54.8215L267.466 54.6828L267.248 54.8413C267.116 54.9469 266.918 55.0789 266.654 55.2373C266.39 55.3958 266.093 55.5476 265.763 55.6928C265.433 55.838 265.05 55.97 264.614 56.0889C264.178 56.2077 263.756 56.2671 263.347 56.2671C262.304 56.2671 261.485 55.937 260.891 55.2769C260.297 54.6168 260 53.8445 260 52.96ZM263.446 55.5344C264.093 55.5344 264.74 55.3958 265.386 55.1185C266.033 54.8413 266.515 54.5574 266.832 54.267L267.307 53.8313C267.281 51.9434 267.235 50.7684 267.169 50.3064C266.984 48.7881 266.377 48.029 265.347 48.029C264.436 48.029 263.637 48.5109 262.951 49.4746C262.594 50.0027 262.304 50.7156 262.079 51.6134C261.855 52.5111 261.736 53.1976 261.723 53.6729C261.723 54.3198 261.888 54.7885 262.218 55.0789C262.548 55.3693 262.957 55.5212 263.446 55.5344Z" fill="black"/>
<path d="M274.753 60.98H274.714C274.555 60.98 274.436 60.8876 274.357 60.7027V51.0784L274.377 41.4541C274.509 41.2825 274.634 41.1967 274.753 41.1967C274.925 41.1967 275.057 41.2957 275.149 41.4937V60.7027C275.044 60.8876 274.925 60.98 274.793 60.98H274.753Z" fill="black"/>
<path d="M279.407 44.4644C280.146 43.395 281.156 42.8603 282.437 42.8603C283.071 42.8603 283.704 43.032 284.338 43.3752C284.972 43.7185 285.487 44.3258 285.883 45.1971C286.371 46.2929 286.615 47.7979 286.615 49.7122C286.615 51.7585 286.332 53.323 285.764 54.4055C285.5 54.96 285.137 55.4023 284.675 55.7323C284.213 56.0624 283.81 56.267 283.467 56.3462C283.123 56.4255 282.787 56.4717 282.457 56.4849C282.113 56.4849 281.77 56.4453 281.427 56.366C281.084 56.2868 280.681 56.0756 280.219 55.7323C279.757 55.3891 279.394 54.9468 279.13 54.4055C278.562 53.323 278.278 51.7585 278.278 49.7122C278.278 47.415 278.655 45.6658 279.407 44.4644ZM283.863 44.2268C283.467 43.8043 282.998 43.5931 282.457 43.5931C281.902 43.5931 281.427 43.8043 281.031 44.2268C280.701 44.57 280.483 45.0453 280.377 45.6526C280.272 46.2599 280.219 47.5273 280.219 49.4548C280.219 51.5407 280.272 52.9137 280.377 53.5738C280.483 54.2339 280.721 54.7554 281.09 55.1383C281.46 55.5343 281.915 55.7323 282.457 55.7323C282.985 55.7323 283.434 55.5343 283.803 55.1383C284.186 54.7422 284.424 54.1877 284.516 53.4748C284.609 52.7619 284.661 51.4219 284.675 49.4548C284.675 47.5405 284.622 46.2797 284.516 45.6724C284.411 45.0651 284.193 44.5832 283.863 44.2268Z" fill="black"/>
<path d="M288.497 41.5534C288.51 41.461 288.549 41.3817 288.615 41.3157C288.681 41.2497 288.774 41.2101 288.893 41.1969C289.025 41.1969 289.137 41.2629 289.229 41.3949C289.269 41.4874 289.889 43.1112 291.091 46.2665C292.292 49.4218 292.9 51.0324 292.913 51.0985C292.926 51.1645 292.325 52.7751 291.111 55.9304C289.896 59.0857 289.269 60.7096 289.229 60.802C289.137 60.934 289.025 61 288.893 61C288.787 61 288.701 60.967 288.635 60.901C288.569 60.835 288.523 60.7492 288.497 60.6435C288.497 60.5775 289.091 58.9735 290.279 55.8314C291.48 52.7025 292.081 51.1249 292.081 51.0985C292.081 51.0721 291.48 49.4944 290.279 46.3655C289.091 43.2234 288.497 41.6194 288.497 41.5534Z" fill="black"/>
<path d="M300.62 51.3562C300.62 51.3562 300.62 51.2703 300.62 51.0987C300.62 50.9271 300.712 50.7951 300.897 50.7027H306.818V47.7322L306.838 44.7617C306.97 44.5901 307.096 44.5043 307.214 44.5043C307.386 44.5043 307.518 44.6033 307.611 44.8013V50.7027H313.512C313.71 50.8083 313.809 50.9403 313.809 51.0987C313.809 51.2571 313.71 51.3892 313.512 51.4948H307.611V57.3961C307.505 57.5809 307.386 57.6733 307.254 57.6733H307.214H307.175C307.016 57.6733 306.898 57.5809 306.818 57.3961V51.4948H300.897C300.712 51.4024 300.62 51.2703 300.62 51.0987V51.3562Z" fill="black"/>
<path d="M319.892 59.8906C319.813 59.8114 319.774 59.7586 319.774 59.7322C319.774 59.6926 320.295 57.5803 321.338 53.3952C322.381 49.2102 322.936 47.0252 323.002 46.8404C323.292 45.9427 323.668 45.1571 324.13 44.4838C324.592 43.8105 325.028 43.322 325.437 43.0184C326.177 42.3979 326.969 42.0877 327.814 42.0877H327.853C328.672 42.0877 329.345 42.3385 329.873 42.8402C330.401 43.3418 330.665 43.9821 330.665 44.7611C330.665 46.1473 329.979 47.2959 328.606 48.2068L328.863 48.4642C329.537 49.1375 329.873 50.0023 329.873 51.0584C329.873 52.5503 329.312 53.7847 328.19 54.7616C327.068 55.7386 325.807 56.2337 324.408 56.2469C324.011 56.2469 323.655 56.194 323.338 56.0884C323.021 55.9828 322.771 55.8574 322.586 55.7122C322.401 55.567 322.256 55.4151 322.15 55.2567C322.044 55.0983 321.965 54.9729 321.912 54.8804C321.86 54.788 321.827 54.7484 321.813 54.7616L320.546 59.7718C320.52 59.851 320.388 59.8906 320.15 59.8906H319.892ZM326.309 47.5137C326.824 47.5137 327.312 47.5929 327.774 47.7513L327.873 47.6919C327.926 47.6391 327.972 47.5929 328.012 47.5533C328.051 47.5137 328.117 47.4477 328.21 47.3553C328.302 47.2629 328.381 47.1704 328.447 47.078C328.513 46.9856 328.586 46.8668 328.665 46.7216C328.744 46.5763 328.824 46.4179 328.903 46.2463C328.982 46.0747 329.041 45.8832 329.081 45.672C329.121 45.4608 329.174 45.2231 329.24 44.9591C329.266 44.8403 329.279 44.6224 329.279 44.3056C329.279 44.068 329.273 43.9161 329.259 43.8501C329.061 43.1768 328.56 42.8402 327.754 42.8402C327.2 42.8402 326.678 42.9986 326.19 43.3154C325.701 43.6323 325.299 44.035 324.982 44.5234C324.665 45.0119 324.408 45.4608 324.21 45.87C324.011 46.2793 323.86 46.6688 323.754 47.0384C323.688 47.2497 323.437 48.22 323.002 49.9495C322.566 51.6789 322.341 52.6031 322.328 52.7219C322.315 52.7879 322.308 52.9265 322.308 53.1378C322.308 53.7715 322.454 54.293 322.744 54.7022C323.153 55.2567 323.728 55.5339 324.467 55.5339C325.021 55.5339 325.609 55.3689 326.229 55.0389C326.85 54.7088 327.352 54.1411 327.734 53.3358C327.946 52.8869 328.104 52.3787 328.21 51.811C328.315 51.2433 328.368 50.8142 328.368 50.5238C328.368 49.758 328.137 49.1442 327.675 48.6821C327.121 48.8669 326.626 48.9593 326.19 48.9593H325.992C324.949 48.9593 324.427 48.7547 324.427 48.3454C324.427 48.253 324.447 48.1606 324.487 48.0682C324.672 47.6985 325.279 47.5137 326.309 47.5137Z" fill="black"/>
<path d="M331.299 52.7223C331.299 51.9698 331.424 51.2833 331.675 50.6628C331.926 50.0423 332.25 49.5274 332.646 49.1182C333.042 48.7089 333.484 48.3657 333.972 48.0884C334.461 47.8112 334.923 47.6065 335.359 47.4745C335.794 47.3425 336.21 47.2831 336.606 47.2963H336.666C337.26 47.2963 337.775 47.4415 338.21 47.732C338.646 48.0224 338.864 48.4515 338.864 49.0192C338.864 50.2073 338.131 50.9863 336.666 51.3559C336.019 51.5276 335.134 51.62 334.012 51.6332C333.524 51.6332 333.273 51.6464 333.26 51.6728C333.26 51.6992 333.22 51.9302 333.141 52.3659C333.062 52.8015 333.015 53.1844 333.002 53.5145C333.002 54.135 333.141 54.6234 333.418 54.9799C333.695 55.3363 334.111 55.5212 334.666 55.5344C335.22 55.5476 335.834 55.4222 336.507 55.1581C337.181 54.8941 337.788 54.4584 338.329 53.8511C338.448 53.7191 338.527 53.6531 338.567 53.6531C338.62 53.6531 338.705 53.7125 338.824 53.8313C338.943 53.9501 339.009 54.0425 339.022 54.1086C339.035 54.1746 338.976 54.2802 338.844 54.4254C338.712 54.5706 338.514 54.7489 338.25 54.9601C337.986 55.1713 337.682 55.376 337.339 55.574C336.996 55.772 336.58 55.937 336.091 56.0691C335.603 56.2011 335.101 56.2671 334.586 56.2671C333.543 56.2671 332.738 55.9172 332.17 55.2175C331.603 54.5178 331.312 53.6861 331.299 52.7223ZM337.913 49.0588C337.834 48.3723 337.385 48.029 336.567 48.029C336.131 48.029 335.728 48.1214 335.359 48.3062C334.989 48.4911 334.692 48.7155 334.468 48.9796C334.243 49.2436 334.052 49.5142 333.893 49.7915C333.735 50.0687 333.629 50.3064 333.576 50.5044C333.524 50.7024 333.491 50.8278 333.477 50.8806C333.477 50.8939 333.609 50.9005 333.873 50.9005C335.365 50.9005 336.408 50.742 337.002 50.4252C337.596 50.1083 337.9 49.6529 337.913 49.0588Z" fill="black"/>
<path d="M341.281 41.8643C341.029 41.8643 340.828 41.7803 340.679 41.6123C340.53 41.4442 340.455 41.2389 340.455 40.9962C340.455 40.3335 340.702 39.7595 341.197 39.2741C341.692 38.7888 342.308 38.5461 343.045 38.5461C343.894 38.5461 344.604 38.8074 345.173 39.3301C345.743 39.8528 346.032 40.5295 346.041 41.3602C346.041 41.7616 345.948 42.1443 345.761 42.5083C345.575 42.8723 345.351 43.1897 345.089 43.4604C344.828 43.731 344.455 44.0764 343.969 44.4964C343.633 44.7858 343.166 45.2151 342.569 45.7845L341.743 46.5685L342.807 46.5825C344.273 46.5825 345.052 46.5592 345.145 46.5125C345.211 46.4939 345.323 46.0785 345.481 45.2665V45.2245H346.041V45.2665C346.032 45.2945 345.971 45.7192 345.859 46.5405C345.747 47.3619 345.677 47.7913 345.649 47.8286V47.8706H340.455V47.6046V47.4366C340.455 47.3712 340.483 47.3012 340.539 47.2266C340.595 47.1519 340.735 46.9886 340.959 46.7365C341.23 46.4379 341.463 46.1765 341.659 45.9525C341.743 45.8592 341.902 45.6865 342.135 45.4345C342.368 45.1825 342.527 45.0098 342.611 44.9164C342.695 44.8231 342.83 44.6691 343.017 44.4544C343.204 44.2397 343.334 44.0811 343.409 43.9784C343.484 43.8757 343.591 43.7357 343.731 43.5584C343.871 43.381 343.969 43.2317 344.025 43.1103C344.081 42.989 344.151 42.8537 344.235 42.7043C344.319 42.555 344.38 42.4056 344.417 42.2563C344.455 42.1069 344.487 41.9669 344.515 41.8363C344.543 41.7056 344.557 41.5516 344.557 41.3742C344.557 40.7862 344.399 40.2775 344.081 39.8482C343.764 39.4188 343.311 39.2041 342.723 39.2041C342.415 39.2041 342.144 39.2835 341.911 39.4421C341.678 39.6008 341.514 39.7548 341.421 39.9042C341.328 40.0535 341.281 40.1422 341.281 40.1702C341.281 40.1795 341.304 40.1842 341.351 40.1842C341.519 40.1842 341.692 40.2495 341.869 40.3802C342.046 40.5109 342.135 40.7255 342.135 41.0242C342.135 41.2576 342.06 41.4536 341.911 41.6123C341.762 41.7709 341.552 41.8549 341.281 41.8643Z" fill="black"/>
<path d="M348.603 48.0244C348.286 48.0244 348.127 47.8704 348.127 47.5624V47.4084L348.309 47.0164C349.009 45.5416 349.518 44.2675 349.836 43.1941L349.948 42.8581H349.499C349.145 42.8581 348.893 42.8721 348.743 42.9001C348.594 42.9281 348.412 43.0168 348.197 43.1661C348.095 43.2315 347.992 43.3155 347.889 43.4182C347.787 43.5208 347.698 43.6188 347.623 43.7122C347.549 43.8055 347.507 43.8615 347.497 43.8802C347.479 43.8895 347.409 43.8942 347.287 43.8942C347.11 43.8942 347.021 43.8475 347.021 43.7542C347.021 43.6982 347.11 43.5348 347.287 43.2641C347.465 42.9935 347.721 42.7041 348.057 42.3961C348.393 42.0881 348.725 41.9107 349.051 41.8641C349.117 41.8454 350.167 41.8361 352.202 41.8361C353.695 41.8361 354.46 41.8407 354.498 41.8501C354.684 41.9154 354.778 42.0461 354.778 42.2421C354.778 42.5314 354.628 42.7275 354.33 42.8301C354.274 42.8488 353.952 42.8581 353.364 42.8581H352.468L352.426 43.0961C352.314 43.7682 352.258 44.3235 352.258 44.7622C352.258 45.2476 352.3 45.6816 352.384 46.0643C352.468 46.447 352.556 46.7457 352.65 46.9604C352.743 47.175 352.79 47.3057 352.79 47.3524C352.79 47.5111 352.724 47.6604 352.594 47.8004C352.463 47.9404 352.295 48.0104 352.09 48.0104C351.987 48.0104 351.903 47.9964 351.838 47.9684C351.772 47.9404 351.698 47.8284 351.614 47.6324C351.53 47.4364 351.455 47.1564 351.39 46.7923C351.38 46.7083 351.376 46.503 351.376 46.1763C351.376 45.719 351.418 45.2289 351.502 44.7062C351.586 44.1835 351.67 43.7542 351.754 43.4182C351.838 43.0821 351.884 42.8955 351.894 42.8581H350.522L350.508 42.9141C350.508 42.9421 350.419 43.3108 350.242 44.0202C350.064 44.7296 349.864 45.4809 349.639 46.2743C349.415 47.0677 349.271 47.5204 349.205 47.6324C349.103 47.8937 348.902 48.0244 348.603 48.0244Z" fill="black"/>
<path d="M357.312 39.4699C357.312 39.2459 357.401 39.0499 357.578 38.8819C357.755 38.7139 357.961 38.6252 358.194 38.6159C358.362 38.6159 358.502 38.6719 358.614 38.7839C358.726 38.8959 358.787 39.0359 358.796 39.2039C358.796 39.4186 358.703 39.6146 358.516 39.792C358.329 39.9693 358.124 40.0626 357.9 40.072C357.76 40.072 357.629 40.0253 357.508 39.932C357.387 39.8386 357.321 39.6846 357.312 39.4699ZM355.03 43.8522C355.03 43.7775 355.072 43.6328 355.156 43.4182C355.24 43.2035 355.352 42.9655 355.492 42.7041C355.632 42.4428 355.837 42.2048 356.108 41.9901C356.379 41.7754 356.659 41.6727 356.948 41.6821C357.312 41.6821 357.615 41.7894 357.858 42.0041C358.101 42.2188 358.227 42.5081 358.236 42.8721C358.236 43.0308 358.171 43.2921 358.04 43.6562C357.909 44.0202 357.723 44.5102 357.48 45.1263C357.237 45.7423 357.041 46.2696 356.892 46.7083C356.845 46.9137 356.822 47.063 356.822 47.1564C356.822 47.3897 356.901 47.5064 357.06 47.5064C357.144 47.5064 357.233 47.4924 357.326 47.4644C357.419 47.4364 357.527 47.371 357.648 47.2684C357.769 47.1657 357.895 47.0024 358.026 46.7783C358.157 46.5543 358.273 46.279 358.376 45.9523C358.404 45.8403 358.427 45.775 358.446 45.7563C358.465 45.7376 358.544 45.7283 358.684 45.7283C358.871 45.7283 358.964 45.775 358.964 45.8683C358.964 45.943 358.922 46.0876 358.838 46.3023C358.754 46.517 358.637 46.755 358.488 47.0164C358.339 47.2777 358.129 47.5111 357.858 47.7164C357.587 47.9217 357.298 48.0244 356.99 48.0244C356.691 48.0244 356.416 47.9264 356.164 47.7304C355.912 47.5344 355.781 47.2357 355.772 46.8343C355.772 46.6757 355.795 46.5263 355.842 46.3863C355.888 46.2463 356.089 45.7143 356.444 44.7902C356.799 43.8475 357.004 43.2828 357.06 43.0961C357.116 42.9095 357.149 42.7275 357.158 42.5501C357.158 42.3261 357.079 42.2141 356.92 42.2141H356.892C356.612 42.2141 356.355 42.3681 356.122 42.6761C355.888 42.9841 355.711 43.3762 355.59 43.8522C355.58 43.8615 355.571 43.8755 355.562 43.8942C355.552 43.9129 355.548 43.9269 355.548 43.9362C355.548 43.9455 355.538 43.9549 355.52 43.9642C355.501 43.9735 355.487 43.9782 355.478 43.9782C355.468 43.9782 355.45 43.9782 355.422 43.9782C355.394 43.9782 355.356 43.9782 355.31 43.9782H355.114C355.058 43.9222 355.03 43.8802 355.03 43.8522Z" fill="black"/>
<path d="M360.056 45.0706C360.056 44.1185 360.238 43.1151 360.602 42.0604C360.966 41.0057 361.461 40.0956 362.086 39.3303C362.712 38.5649 363.36 38.1262 364.032 38.0142C364.042 38.0142 364.079 38.0142 364.144 38.0142C364.21 38.0142 364.266 38.0095 364.312 38.0002C364.816 38.0375 365.208 38.2662 365.488 38.6862C365.852 39.2463 366.034 39.9976 366.034 40.9403C366.034 42.0137 365.824 43.1058 365.404 44.2165C364.984 45.3273 364.448 46.2373 363.794 46.9467C363.141 47.6561 362.516 48.0107 361.918 48.0107H361.82C361.484 48.0107 361.195 47.9174 360.952 47.7307C360.709 47.544 360.527 47.2967 360.406 46.9887C360.285 46.6807 360.196 46.368 360.14 46.0506C360.084 45.7333 360.056 45.4066 360.056 45.0706ZM364.928 39.9463C364.928 38.9942 364.681 38.5182 364.186 38.5182C363.85 38.5182 363.524 38.7282 363.206 39.1482C362.889 39.5683 362.628 40.0443 362.422 40.5763C362.217 41.1084 362.058 41.575 361.946 41.9764C361.834 42.3778 361.773 42.6111 361.764 42.6764C362.221 42.6858 362.674 42.6904 363.122 42.6904L364.48 42.6764C364.49 42.6671 364.527 42.5131 364.592 42.2144C364.658 41.9157 364.732 41.5424 364.816 41.0944C364.9 40.6463 364.938 40.2636 364.928 39.9463ZM361.148 46.0226C361.148 47.012 361.395 47.5067 361.89 47.5067C362.03 47.5067 362.179 47.46 362.338 47.3667C362.497 47.2734 362.688 47.096 362.912 46.8347C363.136 46.5733 363.36 46.1673 363.584 45.6166C363.808 45.0659 364.032 44.3845 364.256 43.5725L364.326 43.3345H361.596C361.596 43.3625 361.554 43.5398 361.47 43.8665C361.386 44.1932 361.311 44.5572 361.246 44.9586C361.181 45.3599 361.148 45.7146 361.148 46.0226Z" fill="black"/>
<path d="M369.879 60.98H369.84C369.681 60.98 369.563 60.8876 369.483 60.7027V51.0784L369.503 41.4541C369.635 41.2825 369.761 41.1967 369.879 41.1967C370.051 41.1967 370.183 41.2957 370.275 41.4937V60.7027C370.17 60.8876 370.051 60.98 369.919 60.98H369.879Z" fill="black"/>
<path d="M376.85 44.6026L376.593 44.7017C376.408 44.7677 376.144 44.8337 375.801 44.8997C375.457 44.9657 375.074 45.0119 374.652 45.0383H374.276V44.1274H374.652C375.272 44.101 375.847 44.0019 376.375 43.8303C376.903 43.6587 377.273 43.5003 377.484 43.355C377.695 43.2098 377.88 43.0646 378.038 42.9194C378.065 42.8798 378.144 42.86 378.276 42.86C378.395 42.86 378.507 42.8996 378.613 42.9788V48.8999L378.632 54.8408C378.725 54.9333 378.804 54.9927 378.87 55.0191C378.936 55.0455 379.094 55.0719 379.345 55.0983C379.596 55.1247 380.005 55.1379 380.573 55.1379H381.088V56.0488H380.87C380.593 56.0092 379.543 55.9894 377.721 55.9894C375.926 55.9894 374.89 56.0092 374.612 56.0488H374.375V55.1379H374.89C375.18 55.1379 375.431 55.1379 375.642 55.1379C375.853 55.1379 376.018 55.1313 376.137 55.1181C376.256 55.1049 376.362 55.0851 376.454 55.0587C376.546 55.0323 376.599 55.0191 376.612 55.0191C376.626 55.0191 376.665 54.9861 376.731 54.9201C376.797 54.854 376.837 54.8276 376.85 54.8408V44.6026Z" fill="black"/>
<path d="M383.623 41.5534C383.636 41.461 383.676 41.3817 383.742 41.3157C383.808 41.2497 383.9 41.2101 384.019 41.1969C384.151 41.1969 384.263 41.2629 384.355 41.3949C384.395 41.4874 385.016 43.1112 386.217 46.2665C387.418 49.4218 388.026 51.0324 388.039 51.0985C388.052 51.1645 387.451 52.7751 386.237 55.9304C385.022 59.0857 384.395 60.7096 384.355 60.802C384.263 60.934 384.151 61 384.019 61C383.913 61 383.827 60.967 383.761 60.901C383.695 60.835 383.649 60.7492 383.623 60.6435C383.623 60.5775 384.217 58.9735 385.405 55.8314C386.606 52.7025 387.207 51.1249 387.207 51.0985C387.207 51.0721 386.606 49.4944 385.405 46.3655C384.217 43.2234 383.623 41.6194 383.623 41.5534Z" fill="black"/>
</svg>
