<svg width="400" height="192" viewBox="0 0 400 192" fill="none" xmlns="http://www.w3.org/2000/svg">
<rect width="400" height="192" fill="white"/>
<rect opacity="0.4" y="120" width="400" height="40" fill="#F2F4F8"/>
<rect opacity="0.4" y="40" width="400" height="40" fill="#F2F4F8"/>
<rect x="0.5" y="0.5" width="399" height="191" stroke="#DDE1E6"/>
<line x1="124" y1="73.5" x2="265" y2="73.5" stroke="black"/>
<line x1="124" y1="83.5" x2="265" y2="83.5" stroke="black"/>
<line x1="124" y1="94.5" x2="265" y2="94.5" stroke="black"/>
<line x1="124" y1="105.5" x2="265" y2="105.5" stroke="black"/>
<line x1="124" y1="116.5" x2="265" y2="116.5" stroke="black"/>
<rect width="93" height="82" transform="translate(148 55)" fill="#1192E8"/>
<path d="M82.4 105.98H82.36C82.2 105.98 82.08 105.887 82 105.7V95.98L82.02 86.26C82.1533 86.0866 82.28 86 82.4 86C82.5733 86 82.7067 86.1 82.8 86.3V105.7C82.6933 105.887 82.5733 105.98 82.44 105.98H82.4Z" fill="black"/>
<path d="M85.6 95.2602C85.6 95.1535 85.66 94.9469 85.78 94.6402C85.9 94.3335 86.0666 93.9869 86.28 93.6002C86.4933 93.2135 86.7866 92.8802 87.16 92.6002C87.5333 92.3202 87.9266 92.1735 88.34 92.1602C88.9533 92.1602 89.4133 92.3269 89.72 92.6602C90.0266 92.9935 90.18 93.3869 90.18 93.8402C90.18 94.0802 89.9533 94.8269 89.5 96.0802C89.0466 97.3335 88.82 98.2735 88.82 98.9002C88.82 99.4735 88.9133 99.8735 89.1 100.1C89.2866 100.327 89.5666 100.447 89.94 100.46C90.3133 100.474 90.6666 100.36 91 100.12C91.3333 99.8802 91.58 99.6535 91.74 99.4402L91.96 99.1002C91.9866 99.0469 92.24 98.0335 92.72 96.0602C93.12 94.4602 93.36 93.5269 93.44 93.2602C93.52 92.9935 93.6133 92.8002 93.72 92.6802C93.9466 92.4802 94.1866 92.3802 94.44 92.3802C94.6666 92.3802 94.8333 92.4469 94.94 92.5802C95.0466 92.7135 95.1 92.8402 95.1 92.9602L93.58 99.3202C93.5666 99.3869 93.56 99.4935 93.56 99.6402C93.56 99.9735 93.6066 100.194 93.7 100.3C93.7933 100.407 93.9333 100.467 94.12 100.48C94.4133 100.44 94.6466 100.234 94.82 99.8602C94.9933 99.4869 95.1933 98.9002 95.42 98.1002C95.4466 97.9935 95.58 97.9402 95.82 97.9402C96.0733 97.9402 96.2 98.0002 96.2 98.1202C96.1866 98.1869 96.1733 98.2802 96.16 98.4002C96.1466 98.5202 96.0866 98.7335 95.98 99.0402C95.8733 99.3469 95.76 99.6335 95.64 99.9002C95.52 100.167 95.3533 100.42 95.14 100.66C94.9266 100.9 94.6866 101.067 94.42 101.16C94.3133 101.187 94.1533 101.2 93.94 101.2C93.06 101.2 92.4533 100.827 92.12 100.08C92.0933 100.094 92.02 100.16 91.9 100.28C91.78 100.4 91.66 100.5 91.54 100.58C91.42 100.66 91.2733 100.76 91.1 100.88C90.9266 101 90.7333 101.08 90.52 101.12C90.3066 101.16 90.08 101.194 89.84 101.22C89.2533 101.22 88.7333 101.1 88.28 100.86C87.5866 100.447 87.24 99.7402 87.24 98.7402C87.24 97.9802 87.4733 96.9869 87.94 95.7602C88.4066 94.5335 88.64 93.7535 88.64 93.4202C88.64 93.4069 88.64 93.3935 88.64 93.3802C88.64 93.2602 88.64 93.1802 88.64 93.1402C88.64 93.1002 88.6133 93.0535 88.56 93.0002C88.5066 92.9469 88.4333 92.9202 88.34 92.9202H88.26C87.9533 92.9202 87.6733 93.0469 87.42 93.3002C87.1666 93.5535 86.9666 93.8269 86.82 94.1202C86.6733 94.4135 86.56 94.6935 86.48 94.9602C86.4 95.2269 86.3466 95.3735 86.32 95.4002C86.2933 95.4269 86.1866 95.4402 86 95.4402H85.72C85.64 95.3602 85.6 95.3002 85.6 95.2602Z" fill="black"/>
<path d="M97.72 86.36C97.7333 86.2667 97.7733 86.1867 97.84 86.12C97.9067 86.0533 98 86.0133 98.12 86C98.2533 86 98.3667 86.0667 98.46 86.2C98.5 86.2933 99.1267 87.9333 100.34 91.12C101.553 94.3067 102.167 95.9333 102.18 96C102.193 96.0667 101.587 97.6933 100.36 100.88C99.1333 104.067 98.5 105.707 98.46 105.8C98.3667 105.933 98.2533 106 98.12 106C98.0133 106 97.9267 105.967 97.86 105.9C97.7933 105.833 97.7467 105.747 97.72 105.64C97.72 105.573 98.32 103.953 99.52 100.78C100.733 97.62 101.34 96.0267 101.34 96C101.34 95.9733 100.733 94.38 99.52 91.22C98.32 88.0467 97.72 86.4267 97.72 86.36Z" fill="black"/>
<path d="M288 98.4422C288 97.7551 288.115 97.1283 288.344 96.5618C288.573 95.9952 288.868 95.5251 289.23 95.1514C289.591 94.7778 289.995 94.4644 290.441 94.2112C290.887 93.9581 291.309 93.7713 291.707 93.6507C292.104 93.5302 292.484 93.4759 292.846 93.488H292.9C293.442 93.488 293.913 93.6206 294.31 93.8858C294.708 94.151 294.907 94.5427 294.907 95.061C294.907 96.1459 294.238 96.8571 292.9 97.1946C292.309 97.3513 291.502 97.4357 290.477 97.4477C290.031 97.4477 289.802 97.4598 289.79 97.4839C289.79 97.508 289.754 97.719 289.682 98.1167C289.609 98.5145 289.567 98.8641 289.555 99.1654C289.555 99.732 289.682 100.178 289.935 100.503C290.188 100.829 290.568 100.998 291.074 101.01C291.58 101.022 292.141 100.907 292.755 100.666C293.37 100.425 293.925 100.027 294.419 99.4728C294.527 99.3523 294.6 99.292 294.636 99.292C294.684 99.292 294.762 99.3463 294.871 99.4547C294.979 99.5632 295.04 99.6476 295.052 99.7079C295.064 99.7681 295.009 99.8646 294.889 99.9972C294.768 100.13 294.588 100.292 294.346 100.485C294.105 100.678 293.828 100.865 293.515 101.046C293.201 101.227 292.822 101.377 292.376 101.498C291.93 101.618 291.472 101.679 291.001 101.679C290.049 101.679 289.314 101.359 288.796 100.72C288.277 100.082 288.012 99.3221 288 98.4422ZM294.039 95.0972C293.967 94.4704 293.557 94.157 292.81 94.157C292.412 94.157 292.044 94.2414 291.707 94.4101C291.369 94.5789 291.098 94.7838 290.893 95.0249C290.688 95.266 290.513 95.5131 290.369 95.7662C290.224 96.0193 290.128 96.2363 290.079 96.4171C290.031 96.5979 290.001 96.7124 289.989 96.7607C289.989 96.7727 290.109 96.7787 290.351 96.7787C291.713 96.7787 292.665 96.6341 293.207 96.3448C293.75 96.0555 294.027 95.6396 294.039 95.0972Z" fill="black"/>
<path d="M297.114 88.5282C296.884 88.5282 296.701 88.4515 296.564 88.2981C296.428 88.1447 296.36 87.9572 296.36 87.7356C296.36 87.1305 296.586 86.6064 297.037 86.1632C297.489 85.7201 298.051 85.4985 298.725 85.4985C299.5 85.4985 300.148 85.7371 300.668 86.2144C301.188 86.6916 301.452 87.3095 301.46 88.068C301.46 88.4344 301.375 88.7838 301.205 89.1162C301.034 89.4486 300.83 89.7383 300.591 89.9855C300.352 90.2326 300.012 90.5479 299.568 90.9314C299.262 91.1956 298.835 91.5876 298.29 92.1075L297.536 92.8234L298.507 92.8361C299.845 92.8361 300.557 92.8148 300.642 92.7722C300.702 92.7552 300.804 92.3759 300.949 91.6345V91.5962H301.46V91.6345C301.452 91.6601 301.396 92.0478 301.294 92.7978C301.192 93.5477 301.128 93.9398 301.102 93.9739V94.0122H296.36V93.7693V93.6159C296.36 93.5563 296.385 93.4924 296.436 93.4242C296.488 93.356 296.615 93.2069 296.82 92.9768C297.067 92.704 297.28 92.4654 297.459 92.2609C297.536 92.1757 297.681 92.018 297.894 91.7879C298.107 91.5578 298.252 91.4001 298.328 91.3149C298.405 91.2297 298.529 91.0891 298.699 90.8931C298.87 90.6971 298.989 90.5522 299.057 90.4584C299.125 90.3647 299.223 90.2369 299.351 90.0749C299.479 89.913 299.568 89.7767 299.62 89.6659C299.671 89.5551 299.735 89.4315 299.811 89.2952C299.888 89.1588 299.943 89.0224 299.977 88.8861C300.012 88.7497 300.041 88.6219 300.067 88.5026C300.093 88.3833 300.105 88.2427 300.105 88.0807C300.105 87.5438 299.96 87.0794 299.671 86.6874C299.381 86.2953 298.968 86.0993 298.431 86.0993C298.149 86.0993 297.902 86.1718 297.689 86.3166C297.476 86.4615 297.327 86.6021 297.242 86.7385C297.157 86.8749 297.114 86.9558 297.114 86.9814C297.114 86.9899 297.135 86.9942 297.178 86.9942C297.331 86.9942 297.489 87.0538 297.651 87.1731C297.813 87.2924 297.894 87.4885 297.894 87.7612C297.894 87.9742 297.826 88.1532 297.689 88.2981C297.553 88.4429 297.361 88.5196 297.114 88.5282Z" fill="black"/>
<path d="M303.8 94.1528C303.51 94.1528 303.365 94.0122 303.365 93.731V93.5904L303.531 93.2324C304.17 91.8859 304.635 90.7226 304.925 89.7426L305.027 89.4358H304.618C304.294 89.4358 304.064 89.4486 303.927 89.4741C303.791 89.4997 303.625 89.5807 303.429 89.717C303.335 89.7767 303.241 89.8534 303.148 89.9471C303.054 90.0409 302.973 90.1303 302.905 90.2156C302.837 90.3008 302.798 90.3519 302.79 90.369C302.773 90.3775 302.709 90.3818 302.598 90.3818C302.436 90.3818 302.355 90.3391 302.355 90.2539C302.355 90.2028 302.436 90.0536 302.598 89.8065C302.76 89.5594 302.994 89.2952 303.301 89.0139C303.608 88.7327 303.91 88.5708 304.209 88.5282C304.268 88.5111 305.227 88.5026 307.085 88.5026C308.449 88.5026 309.147 88.5069 309.181 88.5154C309.352 88.575 309.437 88.6944 309.437 88.8733C309.437 89.1375 309.301 89.3165 309.028 89.4102C308.977 89.4273 308.683 89.4358 308.146 89.4358H307.328L307.29 89.6531C307.187 90.2667 307.136 90.7738 307.136 91.1743C307.136 91.6175 307.174 92.0138 307.251 92.3632C307.328 92.7126 307.409 92.9853 307.494 93.1813C307.579 93.3773 307.622 93.4966 307.622 93.5392C307.622 93.6841 307.562 93.8205 307.443 93.9483C307.324 94.0761 307.17 94.14 306.983 94.14C306.889 94.14 306.812 94.1273 306.753 94.1017C306.693 94.0761 306.625 93.9739 306.548 93.7949C306.471 93.6159 306.403 93.3603 306.344 93.0279C306.335 92.9512 306.331 92.7637 306.331 92.4654C306.331 92.0478 306.369 91.6004 306.446 91.1232C306.523 90.6459 306.599 90.2539 306.676 89.9471C306.753 89.6403 306.795 89.4699 306.804 89.4358H305.551L305.538 89.4869C305.538 89.5125 305.457 89.8491 305.295 90.4968C305.133 91.1445 304.95 91.8305 304.746 92.5549C304.541 93.2793 304.409 93.6926 304.349 93.7949C304.256 94.0335 304.072 94.1528 303.8 94.1528Z" fill="black"/>
<path d="M311.751 86.3422C311.751 86.1377 311.832 85.9587 311.994 85.8053C312.156 85.6519 312.343 85.571 312.556 85.5624C312.71 85.5624 312.837 85.6136 312.94 85.7158C313.042 85.8181 313.097 85.9459 313.106 86.0993C313.106 86.2953 313.021 86.4743 312.85 86.6362C312.68 86.7982 312.492 86.8834 312.288 86.8919C312.16 86.8919 312.041 86.8493 311.93 86.7641C311.819 86.6788 311.759 86.5382 311.751 86.3422ZM309.667 90.3434C309.667 90.2752 309.706 90.1431 309.782 89.9471C309.859 89.7511 309.961 89.5338 310.089 89.2952C310.217 89.0565 310.404 88.8392 310.652 88.6432C310.899 88.4472 311.154 88.3535 311.419 88.362C311.751 88.362 312.028 88.46 312.249 88.656C312.471 88.852 312.586 89.1162 312.595 89.4486C312.595 89.5934 312.535 89.8321 312.416 90.1644C312.296 90.4968 312.126 90.9442 311.904 91.5067C311.683 92.0692 311.504 92.5507 311.367 92.9512C311.325 93.1387 311.303 93.275 311.303 93.3603C311.303 93.5733 311.376 93.6798 311.521 93.6798C311.598 93.6798 311.678 93.6671 311.764 93.6415C311.849 93.6159 311.947 93.5563 312.058 93.4625C312.168 93.3688 312.284 93.2196 312.403 93.0151C312.522 92.8106 312.629 92.5592 312.722 92.2609C312.748 92.1586 312.769 92.099 312.786 92.0819C312.803 92.0649 312.876 92.0564 313.004 92.0564C313.174 92.0564 313.259 92.099 313.259 92.1842C313.259 92.2524 313.221 92.3845 313.144 92.5805C313.068 92.7765 312.961 92.9938 312.825 93.2324C312.688 93.4711 312.497 93.6841 312.249 93.8716C312.002 94.0591 311.738 94.1528 311.457 94.1528C311.184 94.1528 310.933 94.0633 310.703 93.8844C310.473 93.7054 310.353 93.4327 310.345 93.0662C310.345 92.9214 310.366 92.785 310.409 92.6572C310.451 92.5293 310.634 92.0436 310.958 91.1999C311.282 90.3391 311.47 89.8235 311.521 89.6531C311.572 89.4827 311.602 89.3165 311.61 89.1546C311.61 88.95 311.538 88.8478 311.393 88.8478H311.367C311.112 88.8478 310.877 88.9884 310.664 89.2696C310.451 89.5508 310.289 89.9088 310.179 90.3434C310.17 90.3519 310.162 90.3647 310.153 90.3818C310.144 90.3988 310.14 90.4116 310.14 90.4201C310.14 90.4286 310.132 90.4371 310.115 90.4457C310.098 90.4542 310.085 90.4585 310.076 90.4585C310.068 90.4585 310.051 90.4585 310.025 90.4585C310 90.4585 309.965 90.4585 309.923 90.4585H309.744C309.693 90.4073 309.667 90.369 309.667 90.3434Z" fill="black"/>
<path d="M314.256 91.4556C314.256 90.5864 314.423 89.6702 314.755 88.7072C315.087 87.7442 315.539 86.9133 316.11 86.2145C316.681 85.5157 317.273 85.1151 317.887 85.0128C317.895 85.0128 317.929 85.0128 317.989 85.0128C318.049 85.0128 318.1 85.0086 318.143 85.0001C318.603 85.0341 318.961 85.2429 319.216 85.6264C319.549 86.1378 319.715 86.8238 319.715 87.6846C319.715 88.6646 319.523 89.6617 319.14 90.6759C318.756 91.69 318.266 92.5209 317.67 93.1686C317.073 93.8163 316.502 94.1401 315.957 94.1401H315.867C315.56 94.1401 315.296 94.0549 315.075 93.8845C314.853 93.714 314.687 93.4882 314.576 93.207C314.465 92.9257 314.384 92.6402 314.333 92.3505C314.282 92.0607 314.256 91.7624 314.256 91.4556ZM318.705 86.7769C318.705 85.9077 318.479 85.473 318.028 85.473C317.721 85.473 317.422 85.6648 317.133 86.0483C316.843 86.4318 316.604 86.8664 316.417 87.3522C316.229 87.838 316.084 88.2641 315.982 88.6305C315.88 88.997 315.825 89.21 315.816 89.2697C316.234 89.2782 316.647 89.2825 317.056 89.2825L318.296 89.2697C318.304 89.2612 318.339 89.1206 318.398 88.8478C318.458 88.5751 318.526 88.2342 318.603 87.8252C318.679 87.4161 318.714 87.0667 318.705 86.7769ZM315.254 92.3249C315.254 93.2283 315.479 93.6799 315.931 93.6799C316.059 93.6799 316.195 93.6373 316.34 93.5521C316.485 93.4669 316.66 93.305 316.864 93.0663C317.069 92.8277 317.273 92.457 317.478 91.9542C317.682 91.4514 317.887 90.8293 318.091 90.0878L318.155 89.8705H315.663C315.663 89.8961 315.624 90.058 315.548 90.3563C315.471 90.6546 315.403 90.9869 315.343 91.3534C315.283 91.7198 315.254 92.0437 315.254 92.3249Z" fill="black"/>
<path d="M323.226 105.982H323.189C323.045 105.982 322.936 105.898 322.864 105.729V96.9414L322.882 88.154C323.003 87.9973 323.117 87.9189 323.226 87.9189C323.382 87.9189 323.503 88.0093 323.587 88.1902V105.729C323.491 105.898 323.382 105.982 323.262 105.982H323.226Z" fill="black"/>
<path d="M326.119 96.2905C326.119 96.1941 326.173 96.0073 326.281 95.73C326.39 95.4528 326.54 95.1394 326.733 94.7898C326.926 94.4403 327.191 94.1389 327.529 93.8858C327.866 93.6326 328.222 93.5 328.596 93.488C329.15 93.488 329.566 93.6387 329.843 93.94C330.12 94.2414 330.259 94.597 330.259 95.0068C330.259 95.2238 330.054 95.8988 329.644 97.0319C329.235 98.165 329.03 99.0148 329.03 99.5813C329.03 100.1 329.114 100.461 329.283 100.666C329.451 100.871 329.705 100.98 330.042 100.992C330.38 101.004 330.699 100.901 331 100.684C331.302 100.467 331.525 100.262 331.669 100.069L331.868 99.7621C331.892 99.7139 332.121 98.7978 332.555 97.0138C332.917 95.5673 333.134 94.7235 333.206 94.4824C333.279 94.2414 333.363 94.0666 333.459 93.9581C333.664 93.7773 333.881 93.6869 334.11 93.6869C334.315 93.6869 334.466 93.7471 334.562 93.8677C334.659 93.9882 334.707 94.1027 334.707 94.2112L333.333 99.961C333.321 100.021 333.315 100.118 333.315 100.25C333.315 100.552 333.357 100.751 333.441 100.847C333.526 100.943 333.652 100.998 333.821 101.01C334.086 100.974 334.297 100.787 334.454 100.449C334.611 100.112 334.791 99.5813 334.996 98.8581C335.02 98.7616 335.141 98.7134 335.358 98.7134C335.587 98.7134 335.702 98.7677 335.702 98.8761C335.689 98.9364 335.677 99.0208 335.665 99.1293C335.653 99.2378 335.599 99.4306 335.503 99.7079C335.406 99.9851 335.304 100.244 335.195 100.485C335.087 100.726 334.936 100.955 334.743 101.172C334.55 101.389 334.333 101.54 334.092 101.624C333.996 101.649 333.851 101.661 333.658 101.661C332.863 101.661 332.314 101.323 332.013 100.648C331.989 100.66 331.923 100.72 331.814 100.829C331.706 100.937 331.597 101.028 331.489 101.1C331.38 101.172 331.248 101.263 331.091 101.371C330.934 101.48 330.759 101.552 330.566 101.588C330.374 101.624 330.169 101.655 329.952 101.679C329.421 101.679 328.951 101.57 328.541 101.353C327.915 100.98 327.601 100.341 327.601 99.4367C327.601 98.7496 327.812 97.8515 328.234 96.7426C328.656 95.6336 328.867 94.9284 328.867 94.6271C328.867 94.615 328.867 94.603 328.867 94.5909C328.867 94.4824 328.867 94.4101 328.867 94.374C328.867 94.3378 328.843 94.2956 328.795 94.2474C328.746 94.1992 328.68 94.1751 328.596 94.1751H328.523C328.246 94.1751 327.993 94.2896 327.764 94.5186C327.535 94.7476 327.354 94.9947 327.221 95.2599C327.089 95.5251 326.986 95.7783 326.914 96.0193C326.842 96.2604 326.794 96.393 326.769 96.4171C326.745 96.4412 326.649 96.4533 326.48 96.4533H326.227C326.155 96.381 326.119 96.3267 326.119 96.2905Z" fill="black"/>
<path d="M337.076 88.2444C337.088 88.16 337.124 88.0877 337.184 88.0274C337.244 87.9671 337.329 87.931 337.437 87.9189C337.558 87.9189 337.66 87.9792 337.745 88.0997C337.781 88.1841 338.347 89.6668 339.444 92.5477C340.541 95.4286 341.096 96.8992 341.108 96.9595C341.12 97.0197 340.571 98.4903 339.462 101.371C338.353 104.252 337.781 105.735 337.745 105.819C337.66 105.94 337.558 106 337.437 106C337.341 106 337.263 105.97 337.202 105.91C337.142 105.849 337.1 105.771 337.076 105.675C337.076 105.614 337.618 104.15 338.703 101.281C339.8 98.424 340.348 96.9836 340.348 96.9595C340.348 96.9354 339.8 95.4949 338.703 92.6381C337.618 89.7692 337.076 88.3046 337.076 88.2444Z" fill="black"/>
<path d="M183 83.9574C182.035 83.9574 181.525 83.9007 181.468 83.7872C181.44 83.7305 181.426 83.617 181.426 83.4468C181.426 82.766 181.582 82.2979 181.894 82.0426C181.95 82.0142 182.191 82 182.617 82C183.78 82.0567 185.709 82.0851 188.404 82.0851C189.369 82.0851 190.262 82.0851 191.085 82.0851C191.908 82.0851 192.546 82.0709 193 82.0426C193.454 82.0142 193.738 82.0142 193.851 82.0426C194.305 82.0426 194.532 82.1844 194.532 82.4681C194.532 82.5248 194.504 82.7234 194.447 83.0638C194.305 83.5461 194.163 83.8298 194.021 83.9149H193.936C193.879 83.9149 193.809 83.9149 193.723 83.9149C193.638 83.9149 193.539 83.9149 193.426 83.9149C193.312 83.9149 193.184 83.9291 193.043 83.9574C192.901 83.9858 192.773 83.9858 192.66 83.9574C191.553 83.9858 190.844 84.0284 190.532 84.0851C190.22 84.1418 189.965 84.2979 189.766 84.5532C189.738 84.6099 189.34 86.0993 188.574 89.0213C187.809 91.9433 187.043 95.0071 186.277 98.2128C185.511 101.418 185.085 103.305 185 103.872C184.943 104.27 184.915 104.681 184.915 105.106C184.915 106.638 185.355 107.844 186.234 108.723C187.113 109.603 188.333 110.043 189.894 110.043C191.794 110.043 193.695 109.404 195.596 108.128C197.496 106.851 198.887 104.922 199.766 102.34L201.936 93.7872C203.27 88.3404 203.936 85.5035 203.936 85.2766C203.936 84.5106 203.028 84.0709 201.213 83.9574C200.532 83.9574 200.191 83.8014 200.191 83.4894C200.191 83.4326 200.22 83.2624 200.277 82.9787C200.39 82.5248 200.475 82.2553 200.532 82.1702C200.589 82.0851 200.73 82.0284 200.957 82C201.043 82 201.496 82.0142 202.319 82.0426C203.142 82.0709 204.333 82.0993 205.894 82.1277C207.34 82.1277 208.447 82.1135 209.213 82.0851C209.979 82.0567 210.39 82.0426 210.447 82.0426C210.872 82.0426 211.085 82.1844 211.085 82.4681C211.085 83.0922 210.972 83.5177 210.745 83.7447C210.66 83.8865 210.348 83.9574 209.809 83.9574C207.794 84.0709 206.532 84.6383 206.021 85.6596C205.965 85.8014 205.255 88.539 203.894 93.8723C202.73 98.6667 202.021 101.489 201.766 102.34C200.83 105.177 199.199 107.489 196.872 109.277C194.546 111.064 192.135 111.972 189.638 112C187.028 112 184.943 111.206 183.383 109.617C181.823 108.028 181.028 106.142 181 103.957V103.277C181 102.766 181.78 99.3901 183.34 93.1489C184.73 87.4468 185.426 84.5106 185.426 84.3404C185.426 84.1418 184.617 84.0142 183 83.9574Z" fill="white"/>
</svg>
