<svg width="400" height="192" viewBox="0 0 400 192" fill="none" xmlns="http://www.w3.org/2000/svg">
<rect width="400" height="192" fill="white"/>
<rect opacity="0.4" y="120" width="400" height="40" fill="#F2F4F8"/>
<rect opacity="0.4" y="40" width="400" height="40" fill="#F2F4F8"/>
<rect x="0.5" y="0.5" width="399" height="191" stroke="#DDE1E6"/>
<path d="M349.544 37.562H347.27L348.44 36.542C348.998 36.056 349.376 35.588 349.376 34.952C349.376 34.244 348.908 33.74 348.074 33.74C347.252 33.74 346.874 34.232 346.712 34.724L347.162 34.892C347.294 34.46 347.552 34.178 348.062 34.178C348.578 34.178 348.848 34.466 348.848 34.97V35.042C348.848 35.468 348.554 35.858 348.146 36.224L346.748 37.484V38H349.544V37.562ZM350.592 38H351.072V35.312H352.278V37.292C352.278 37.706 352.494 38 352.962 38H353.31V37.592H352.758V35.312H353.31V34.904H350.04V35.312H350.592V38ZM355.51 34.22C355.786 34.22 355.888 34.088 355.888 33.914V33.818C355.888 33.644 355.786 33.512 355.51 33.512C355.234 33.512 355.132 33.644 355.132 33.818V33.914C355.132 34.088 355.234 34.22 355.51 34.22ZM354.154 38H356.794V37.592H355.75V34.904H354.154V35.312H355.27V37.592H354.154V38ZM358.891 38.06C358.563 38.06 358.291 37.968 358.075 37.784C357.863 37.596 357.705 37.33 357.601 36.986C357.497 36.638 357.445 36.222 357.445 35.738C357.445 35.25 357.493 34.832 357.589 34.484C357.685 34.136 357.839 33.87 358.051 33.686C358.267 33.502 358.547 33.41 358.891 33.41C359.223 33.41 359.497 33.502 359.713 33.686C359.929 33.866 360.089 34.13 360.193 34.478C360.301 34.826 360.355 35.246 360.355 35.738C360.355 36.222 360.305 36.638 360.205 36.986C360.109 37.33 359.953 37.596 359.737 37.784C359.525 37.968 359.243 38.06 358.891 38.06ZM358.891 37.622C359.099 37.622 359.269 37.562 359.401 37.442C359.537 37.322 359.639 37.134 359.707 36.878C359.775 36.622 359.813 36.288 359.821 35.876H357.979C357.987 36.284 358.021 36.616 358.081 36.872C358.145 37.128 358.243 37.318 358.375 37.442C358.507 37.562 358.679 37.622 358.891 37.622ZM357.979 35.468H359.815C359.803 35.104 359.763 34.804 359.695 34.568C359.627 34.328 359.527 34.15 359.395 34.034C359.263 33.914 359.095 33.854 358.891 33.854C358.687 33.854 358.519 33.914 358.387 34.034C358.259 34.15 358.163 34.328 358.099 34.568C358.035 34.804 357.995 35.104 357.979 35.468Z" fill="black"/>
<line x1="98" y1="49.5" x2="299" y2="49.5" stroke="black"/>
<line x1="98" y1="97.5" x2="299" y2="97.5" stroke="black"/>
<line x1="98" y1="106.5" x2="299" y2="106.5" stroke="black"/>
<line x1="98" y1="115.5" x2="299" y2="115.5" stroke="black"/>
<line x1="98" y1="124.5" x2="299" y2="124.5" stroke="black"/>
<line x1="98" y1="133.5" x2="299" y2="133.5" stroke="black"/>
<line x1="98" y1="142.5" x2="299" y2="142.5" stroke="black"/>
<path d="M85.0545 48L84 47.46L86.6804 42L84 36.54L85.0545 36L88 42L85.0545 48Z" fill="#161616"/>
<rect x="74" y="36" width="1" height="12" fill="#161616"/>
<path d="M68.263 45.256V42.748H70.663V41.932H68.263V39.424H67.351V41.932H64.951V42.748H67.351V45.256H68.263ZM83.2337 46V45.124H81.0257V37.624H79.4537L77.2337 39.7L77.8217 40.336L79.9337 38.368H80.0177V45.124H77.6177V46H83.2337Z" fill="black"/>
<path d="M58.0545 48L57 47.46L59.6804 42L57 36.54L58.0545 36L61 42L58.0545 48Z" fill="#161616"/>
<rect x="47" y="36" width="1" height="12" fill="#161616"/>
<path d="M53.0023 46.144C55.0423 46.144 55.9303 44.548 55.9303 41.812C55.9303 39.076 55.0423 37.48 53.0023 37.48C50.9623 37.48 50.0743 39.076 50.0743 41.812C50.0743 44.548 50.9623 46.144 53.0023 46.144ZM53.0023 45.268C51.6583 45.268 51.1183 44.176 51.1183 42.496V41.128C51.1183 39.448 51.6583 38.356 53.0023 38.356C54.3463 38.356 54.8863 39.448 54.8863 41.128V42.496C54.8863 44.176 54.3463 45.268 53.0023 45.268ZM53.0023 42.52C53.5543 42.52 53.7463 42.268 53.7463 41.944V41.68C53.7463 41.356 53.5543 41.104 53.0023 41.104C52.4503 41.104 52.2583 41.356 52.2583 41.68V41.944C52.2583 42.268 52.4503 42.52 53.0023 42.52Z" fill="black"/>
<line x1="46" y1="52.5" x2="89" y2="52.5" stroke="black"/>
<path d="M71.1091 65.197H66.9401L69.0851 63.327C70.1081 62.436 70.8011 61.578 70.8011 60.412C70.8011 59.114 69.9431 58.19 68.4141 58.19C66.9071 58.19 66.2141 59.092 65.9171 59.994L66.7421 60.302C66.9841 59.51 67.4571 58.993 68.3921 58.993C69.3381 58.993 69.8331 59.521 69.8331 60.445V60.577C69.8331 61.358 69.2941 62.073 68.5461 62.744L65.9831 65.054V66H71.1091V65.197Z" fill="black"/>
<path d="M59 63.5H61L62 67L64.5 56H74.5" stroke="black"/>
<path d="M373.054 48L372 47.46L374.68 42L372 36.54L373.054 36L376 42L373.054 48Z" fill="#161616"/>
<rect x="362" y="36" width="1" height="12" fill="#161616"/>
<path d="M371.234 46V45.124H369.026V37.624H367.454L365.234 39.7L365.822 40.336L367.934 38.368H368.018V45.124H365.618V46H371.234Z" fill="black"/>
<path d="M336.361 45.256V42.748H338.761V41.932H336.361V39.424H335.449V41.932H333.049V42.748H335.449V45.256H336.361ZM344.208 46.144C345.432 46.144 346.32 45.544 346.692 44.716L345.984 44.236C345.66 44.908 345.036 45.316 344.208 45.316C343.044 45.316 342.312 44.524 342.312 43.432V43.144H346.896V42.688C346.896 40.936 345.816 39.664 344.148 39.664C342.468 39.664 341.304 40.936 341.304 42.916C341.304 44.872 342.432 46.144 344.208 46.144ZM344.148 40.456C345.168 40.456 345.864 41.2 345.864 42.292V42.424H342.312V42.34C342.312 41.26 343.092 40.456 344.148 40.456Z" fill="black"/>
<path d="M327.054 48L326 47.46L328.68 42L326 36.54L327.054 36L330 42L327.054 48Z" fill="#161616"/>
<rect x="316" y="36" width="1" height="12" fill="#161616"/>
<path d="M322.002 46.144C324.042 46.144 324.93 44.548 324.93 41.812C324.93 39.076 324.042 37.48 322.002 37.48C319.962 37.48 319.074 39.076 319.074 41.812C319.074 44.548 319.962 46.144 322.002 46.144ZM322.002 45.268C320.658 45.268 320.118 44.176 320.118 42.496V41.128C320.118 39.448 320.658 38.356 322.002 38.356C323.346 38.356 323.886 39.448 323.886 41.128V42.496C323.886 44.176 323.346 45.268 322.002 45.268ZM322.002 42.52C322.554 42.52 322.746 42.268 322.746 41.944V41.68C322.746 41.356 322.554 41.104 322.002 41.104C321.45 41.104 321.258 41.356 321.258 41.68V41.944C321.258 42.268 321.45 42.52 322.002 42.52Z" fill="black"/>
<line x1="315" y1="52.5" x2="374" y2="52.5" stroke="black"/>
<path d="M350.109 65.197H345.94L348.085 63.327C349.108 62.436 349.801 61.578 349.801 60.412C349.801 59.114 348.943 58.19 347.414 58.19C345.907 58.19 345.214 59.092 344.917 59.994L345.742 60.302C345.984 59.51 346.457 58.993 347.392 58.993C348.338 58.993 348.833 59.521 348.833 60.445V60.577C348.833 61.358 348.294 62.073 347.546 62.744L344.983 65.054V66H350.109V65.197Z" fill="black"/>
<path d="M338 63.5H340L341 67L343.5 56H353.5" stroke="black"/>
<rect x="182" y="43" width="12" height="12" rx="6" fill="#1192E8"/>
<line x1="188" y1="90" x2="188" y2="49" stroke="#1192E8" stroke-width="2"/>
<path d="M75.0545 127L74 126.46L76.6804 121L74 115.54L75.0545 115L78 121L75.0545 127Z" fill="#161616"/>
<rect x="62" y="115" width="1" height="12" fill="#161616"/>
<path d="M333.054 127L332 126.46L334.68 121L332 115.54L333.054 115L336 121L333.054 127Z" fill="#161616"/>
<rect x="320" y="115" width="1" height="12" fill="#161616"/>
<path d="M70.4663 124V122.992H70.4183C70.1543 123.604 69.6743 124.144 68.6543 124.144C67.3583 124.144 66.5063 123.28 66.5063 121.78V117.808H67.4663V121.612C67.4663 122.74 67.9823 123.292 68.9303 123.292C69.6983 123.292 70.4663 122.92 70.4663 122.104V117.808H71.4263V124H70.4663Z" fill="black"/>
<path d="M328.466 124V122.992H328.418C328.154 123.604 327.674 124.144 326.654 124.144C325.358 124.144 324.506 123.28 324.506 121.78V117.808H325.466V121.612C325.466 122.74 325.982 123.292 326.93 123.292C327.698 123.292 328.466 122.92 328.466 122.104V117.808H329.426V124H328.466Z" fill="black"/>
<rect width="91" height="68" transform="translate(142 86)" fill="#1192E8"/>
<path d="M181.479 112.248V122.136C181.479 127.008 182.967 129.288 187.431 129.288C191.895 129.288 193.527 127.008 193.527 122.136V112.248H191.511V122.616C191.511 125.808 190.479 127.488 187.503 127.488C184.527 127.488 183.495 125.808 183.495 122.616V112.248H181.479Z" fill="white"/>
<path d="M89.5 94.0088C89.5 94.0088 86.5 93.8372 86.5 95.0088C86.5 101.009 86.5 111.509 86.5 119.009C86.5 120.259 84 121.009 84 121.009C84 121.009 86.5 121.759 86.5 123.009C86.5 131.009 86.5 136.008 86.5 148.009C86.5 149.18 89.5 149.009 89.5 149.009" stroke="black"/>
<path d="M310 94.0088C310 94.0088 312.182 93.8372 312.182 95.0088C312.182 101.009 312.182 111.51 312.182 119.01C312.182 120.26 314 121.01 314 121.01C314 121.01 312.182 121.76 312.182 123.01C312.182 131.01 312.182 136.01 312.182 148.011C312.182 149.183 310 149.011 310 149.011" stroke="black"/>
</svg>
