<svg width="447" height="261" viewBox="0 0 447 261" fill="none" xmlns="http://www.w3.org/2000/svg">
<g clip-path="url(#clip0_1125_23084)">
<rect width="447" height="261" fill="white"/>
<rect opacity="0.4" y="200" width="447" height="40" fill="#F2F4F8"/>
<rect opacity="0.4" y="120" width="447" height="40" fill="#F2F4F8"/>
<rect opacity="0.4" y="40" width="447" height="40" fill="#F2F4F8"/>
<line x1="258.5" y1="-1" x2="258.5" y2="260.319" stroke="#DDE1E6"/>
<rect x="0.5" y="0.180664" width="446" height="260.319" stroke="#DDE1E6"/>
<path fill-rule="evenodd" clip-rule="evenodd" d="M52.3996 77.1998H53.5996C54.5937 77.1998 55.3996 76.3939 55.3996 75.3998V70.5998C55.3996 69.6057 54.5937 68.7998 53.5996 68.7998H52.3996C51.4055 68.7998 50.5996 69.6057 50.5996 70.5998V75.3998C50.5996 76.3939 51.4055 77.1998 52.3996 77.1998ZM51.7996 70.5998C51.7996 70.2684 52.0682 69.9998 52.3996 69.9998H53.5996C53.931 69.9998 54.1996 70.2684 54.1996 70.5998V75.3998C54.1996 75.7312 53.931 75.9998 53.5996 75.9998H52.3996C52.0682 75.9998 51.7996 75.7312 51.7996 75.3998V70.5998Z" fill="#161616"/>
<path d="M58.0545 79L57 78.46L59.6804 73L57 67.54L58.0545 67L61 73L58.0545 79Z" fill="#161616"/>
<rect x="47" y="67" width="1" height="12" fill="#161616"/>
<line x1="69" y1="72.5" x2="249" y2="72.5" stroke="black"/>
<path fill-rule="evenodd" clip-rule="evenodd" d="M52.3996 125.2H53.5996C54.5937 125.2 55.3996 124.394 55.3996 123.4V118.6C55.3996 117.606 54.5937 116.8 53.5996 116.8H52.3996C51.4055 116.8 50.5996 117.606 50.5996 118.6V123.4C50.5996 124.394 51.4055 125.2 52.3996 125.2ZM51.7996 118.6C51.7996 118.268 52.0682 118 52.3996 118H53.5996C53.931 118 54.1996 118.268 54.1996 118.6V123.4C54.1996 123.731 53.931 124 53.5996 124H52.3996C52.0682 124 51.7996 123.731 51.7996 123.4V118.6Z" fill="#161616"/>
<path d="M58.0545 127L57 126.46L59.6804 121L57 115.54L58.0545 115L61 121L58.0545 127Z" fill="#161616"/>
<rect x="47" y="115" width="1" height="12" fill="#161616"/>
<line x1="69" y1="120.5" x2="249" y2="120.5" stroke="black"/>
<path fill-rule="evenodd" clip-rule="evenodd" d="M52.3996 189.2H53.5996C54.5937 189.2 55.3996 188.394 55.3996 187.4V182.6C55.3996 181.606 54.5937 180.8 53.5996 180.8H52.3996C51.4055 180.8 50.5996 181.606 50.5996 182.6V187.4C50.5996 188.394 51.4055 189.2 52.3996 189.2ZM51.7996 182.6C51.7996 182.268 52.0682 182 52.3996 182H53.5996C53.931 182 54.1996 182.268 54.1996 182.6V187.4C54.1996 187.731 53.931 188 53.5996 188H52.3996C52.0682 188 51.7996 187.731 51.7996 187.4V182.6Z" fill="#161616"/>
<path d="M58.0545 191L57 190.46L59.6804 185L57 179.54L58.0545 179L61 185L58.0545 191Z" fill="#161616"/>
<rect x="47" y="179" width="1" height="12" fill="#161616"/>
<line x1="69" y1="184.5" x2="249" y2="184.5" stroke="black"/>
<rect width="70" height="144" transform="translate(93 57)" fill="#1192E8"/>
<path d="M118.876 129.351C118.247 131.868 116.161 133.343 114.471 133.343C113.176 133.343 112.295 132.48 112.295 130.987C112.295 130.915 112.295 130.376 112.493 129.585L114.255 122.518C114.417 121.906 114.453 121.727 115.729 121.727C116.053 121.727 116.233 121.727 116.233 121.403C116.233 121.205 116.071 121.205 115.963 121.205C115.639 121.205 115.262 121.241 114.92 121.241H112.798C112.457 121.241 112.079 121.205 111.737 121.205C111.611 121.205 111.396 121.205 111.396 121.547C111.396 121.727 111.521 121.727 111.863 121.727C112.942 121.727 112.942 121.87 112.942 122.068C112.942 122.176 112.816 122.698 112.726 123.003L111.162 129.297C111.108 129.495 111 129.98 111 130.466C111 132.444 112.421 133.864 114.381 133.864C116.197 133.864 118.211 132.426 119.128 130.142C119.254 129.836 119.416 129.207 119.523 128.722C119.703 128.074 120.081 126.492 120.207 126.024L120.89 123.327C121.124 122.392 121.268 121.798 122.85 121.727C122.994 121.709 123.066 121.565 123.066 121.403C123.066 121.205 122.904 121.205 122.832 121.205C122.58 121.205 122.257 121.241 122.005 121.241H121.16C120.045 121.241 119.47 121.205 119.452 121.205C119.344 121.205 119.128 121.205 119.128 121.547C119.128 121.727 119.272 121.727 119.398 121.727C120.477 121.763 120.548 122.176 120.548 122.5C120.548 122.662 120.548 122.716 120.477 122.967L118.876 129.351Z" fill="white"/>
<path d="M129.457 137.856C129.457 137.802 129.457 137.766 129.151 137.461C127.353 135.644 126.346 132.677 126.346 129.009C126.346 125.52 127.191 122.517 129.277 120.396C129.457 120.234 129.457 120.198 129.457 120.144C129.457 120.036 129.367 120 129.295 120C129.061 120 127.587 121.295 126.706 123.057C125.789 124.873 125.375 126.797 125.375 129.009C125.375 130.609 125.627 132.749 126.562 134.673C127.623 136.831 129.097 138 129.295 138C129.367 138 129.457 137.964 129.457 137.856Z" fill="white"/>
<path d="M138.426 124.442C138.426 122.607 137.851 120.827 136.376 120.827C133.859 120.827 131.18 126.096 131.18 130.052C131.18 130.879 131.36 133.666 133.248 133.666C135.693 133.666 138.426 128.523 138.426 124.442ZM132.978 126.977C133.248 125.916 133.625 124.406 134.345 123.129C134.938 122.05 135.567 121.187 136.359 121.187C136.952 121.187 137.348 121.69 137.348 123.417C137.348 124.064 137.294 124.963 136.772 126.977H132.978ZM136.646 127.516C136.197 129.279 135.819 130.412 135.172 131.544C134.65 132.462 134.021 133.307 133.266 133.307C132.708 133.307 132.259 132.875 132.259 131.095C132.259 129.926 132.546 128.703 132.834 127.516H136.646Z" fill="white"/>
<path d="M144.226 129.009C144.226 127.642 144.047 125.413 143.04 123.327C141.979 121.169 140.504 120 140.306 120C140.234 120 140.145 120.036 140.145 120.144C140.145 120.198 140.145 120.234 140.45 120.539C142.248 122.356 143.255 125.323 143.255 128.991C143.255 132.48 142.41 135.483 140.324 137.604C140.145 137.766 140.145 137.802 140.145 137.856C140.145 137.964 140.234 138 140.306 138C140.54 138 142.015 136.705 142.896 134.943C143.813 133.109 144.226 131.167 144.226 129.009Z" fill="white"/>
<rect width="70" height="144" transform="translate(303 57)" fill="#1192E8"/>
<path d="M319.16 100.12C320.32 100.12 321.17 99.51 321.61 98.53L320.94 98.11C320.66 98.87 320.05 99.37 319.16 99.37C317.96 99.37 317.25 98.5 317.25 97.07V96.03C317.25 94.6 317.96 93.65 319.16 93.65C320.02 93.65 320.6 94.12 320.88 94.84L321.56 94.43C321.12 93.46 320.32 92.9 319.16 92.9C317.4 92.9 316.35 94.22 316.35 96.55C316.35 98.88 317.4 100.12 319.16 100.12ZM324.941 100.12C326.321 100.12 327.271 99.06 327.271 97.42C327.271 95.78 326.321 94.72 324.941 94.72C323.561 94.72 322.611 95.78 322.611 97.42C322.611 99.06 323.561 100.12 324.941 100.12ZM324.941 99.41C324.081 99.41 323.471 98.88 323.471 97.79V97.05C323.471 95.96 324.081 95.43 324.941 95.43C325.801 95.43 326.411 95.96 326.411 97.05V97.79C326.411 98.88 325.801 99.41 324.941 99.41ZM329.547 100V96.42C329.547 95.76 330.147 95.44 330.777 95.44C331.537 95.44 331.887 95.91 331.887 96.83V100H332.687V96.42C332.687 95.76 333.267 95.44 333.897 95.44C334.677 95.44 335.027 95.92 335.027 96.83V100H335.827V96.69C335.827 95.44 335.197 94.72 334.147 94.72C333.267 94.72 332.767 95.21 332.577 95.77H332.557C332.277 95.03 331.657 94.72 330.977 94.72C330.177 94.72 329.817 95.15 329.587 95.68H329.547V94.84H328.747V100H329.547ZM337.637 102H338.437V99.16H338.477C338.787 99.8 339.277 100.12 339.987 100.12C341.277 100.12 342.087 99.07 342.087 97.42C342.087 95.77 341.277 94.72 339.987 94.72C339.277 94.72 338.747 95.03 338.477 95.68H338.437V94.84H337.637V102ZM339.767 99.4C339.037 99.4 338.437 99.02 338.437 98.35V96.43C338.437 95.86 339.037 95.44 339.767 95.44C340.667 95.44 341.227 96.06 341.227 96.98V97.86C341.227 98.78 340.667 99.4 339.767 99.4ZM346.778 100H347.578V94.84H346.778V98.41C346.778 99.09 346.158 99.4 345.528 99.4C344.758 99.4 344.348 98.93 344.348 98.01V94.84H343.548V98.15C343.548 99.4 344.228 100.12 345.288 100.12C346.148 100.12 346.538 99.65 346.738 99.16H346.778V100ZM351.582 100V99.3H350.532V95.54H351.662V94.84H350.532V93.41H349.812V94.37C349.812 94.72 349.702 94.84 349.362 94.84H348.882V95.54H349.732V99.15C349.732 99.65 350.032 100 350.582 100H351.582ZM355.008 100.12C355.978 100.12 356.718 99.64 357.048 98.94L356.478 98.53C356.208 99.1 355.708 99.42 355.058 99.42C354.098 99.42 353.528 98.75 353.528 97.86V97.62H357.238V97.24C357.238 95.78 356.388 94.72 355.008 94.72C353.608 94.72 352.688 95.78 352.688 97.42C352.688 99.06 353.608 100.12 355.008 100.12ZM355.008 95.39C355.828 95.39 356.378 96 356.378 96.91V97.02H353.528V96.95C353.528 96.05 354.138 95.39 355.008 95.39ZM329.83 113.12C330.99 113.12 331.84 112.51 332.28 111.53L331.61 111.11C331.33 111.87 330.72 112.37 329.83 112.37C328.63 112.37 327.92 111.5 327.92 110.07V109.03C327.92 107.6 328.63 106.65 329.83 106.65C330.69 106.65 331.27 107.12 331.55 107.84L332.23 107.43C331.79 106.46 330.99 105.9 329.83 105.9C328.07 105.9 327.02 107.22 327.02 109.55C327.02 111.88 328.07 113.12 329.83 113.12ZM335.611 113.12C336.991 113.12 337.941 112.06 337.941 110.42C337.941 108.78 336.991 107.72 335.611 107.72C334.231 107.72 333.281 108.78 333.281 110.42C333.281 112.06 334.231 113.12 335.611 113.12ZM335.611 112.41C334.751 112.41 334.141 111.88 334.141 110.79V110.05C334.141 108.96 334.751 108.43 335.611 108.43C336.471 108.43 337.081 108.96 337.081 110.05V110.79C337.081 111.88 336.471 112.41 335.611 112.41ZM340.966 113.12C342.146 113.12 342.876 112.51 342.876 111.51C342.876 110.73 342.436 110.23 341.296 110.06L340.896 110C340.256 109.9 339.906 109.7 339.906 109.2C339.906 108.71 340.256 108.4 340.916 108.4C341.576 108.4 342.016 108.71 342.246 109.03L342.776 108.55C342.356 108.03 341.806 107.72 340.976 107.72C339.926 107.72 339.136 108.22 339.136 109.24C339.136 110.2 339.846 110.59 340.796 110.73L341.206 110.79C341.886 110.89 342.106 111.2 342.106 111.6C342.106 112.13 341.706 112.44 341.026 112.44C340.376 112.44 339.896 112.15 339.496 111.65L338.926 112.11C339.386 112.72 340.016 113.12 340.966 113.12ZM346.521 113V112.3H345.471V108.54H346.601V107.84H345.471V106.41H344.751V107.37C344.751 107.72 344.641 107.84 344.301 107.84H343.821V108.54H344.671V112.15C344.671 112.65 344.971 113 345.521 113H346.521ZM319.703 126V122.84H322.733V122.1H319.703V119.76H323.023V119.02H318.863V126H319.703ZM327.455 126H328.255V120.84H327.455V124.41C327.455 125.09 326.835 125.4 326.205 125.4C325.435 125.4 325.025 124.93 325.025 124.01V120.84H324.225V124.15C324.225 125.4 324.905 126.12 325.965 126.12C326.825 126.12 327.215 125.65 327.415 125.16H327.455V126ZM330.919 126V122.42C330.919 121.76 331.539 121.44 332.179 121.44C332.949 121.44 333.349 121.91 333.349 122.83V126H334.149V122.69C334.149 121.44 333.479 120.72 332.419 120.72C331.649 120.72 331.209 121.1 330.959 121.68H330.919V120.84H330.119V126H330.919ZM337.882 126.12C338.862 126.12 339.532 125.64 339.862 124.9L339.282 124.51C339.002 125.1 338.532 125.41 337.882 125.41C336.932 125.41 336.442 124.76 336.442 123.86V122.98C336.442 122.08 336.932 121.43 337.882 121.43C338.512 121.43 338.952 121.74 339.142 122.27L339.812 121.93C339.512 121.22 338.902 120.72 337.882 120.72C336.432 120.72 335.582 121.77 335.582 123.42C335.582 125.07 336.432 126.12 337.882 126.12ZM343.292 126V125.3H342.242V121.54H343.372V120.84H342.242V119.41H341.522V120.37C341.522 120.72 341.412 120.84 341.072 120.84H340.592V121.54H341.442V125.15C341.442 125.65 341.742 126 342.292 126H343.292ZM345.218 119.63C345.558 119.63 345.708 119.45 345.708 119.18V119.05C345.708 118.78 345.558 118.6 345.218 118.6C344.878 118.6 344.728 118.78 344.728 119.05V119.18C344.728 119.45 344.878 119.63 345.218 119.63ZM344.818 126H345.618V120.84H344.818V126ZM349.428 126.12C350.808 126.12 351.758 125.06 351.758 123.42C351.758 121.78 350.808 120.72 349.428 120.72C348.048 120.72 347.098 121.78 347.098 123.42C347.098 125.06 348.048 126.12 349.428 126.12ZM349.428 125.41C348.568 125.41 347.958 124.88 347.958 123.79V123.05C347.958 121.96 348.568 121.43 349.428 121.43C350.288 121.43 350.898 121.96 350.898 123.05V123.79C350.898 124.88 350.288 125.41 349.428 125.41ZM354.033 126V122.42C354.033 121.76 354.653 121.44 355.293 121.44C356.063 121.44 356.463 121.91 356.463 122.83V126H357.263V122.69C357.263 121.44 356.593 120.72 355.533 120.72C354.763 120.72 354.323 121.1 354.073 121.68H354.033V120.84H353.233V126H354.033ZM318.483 152.12C319.643 152.12 320.493 151.51 320.933 150.53L320.263 150.11C319.983 150.87 319.373 151.37 318.483 151.37C317.283 151.37 316.573 150.5 316.573 149.07V148.03C316.573 146.6 317.283 145.65 318.483 145.65C319.343 145.65 319.923 146.12 320.203 146.84L320.883 146.43C320.443 145.46 319.643 144.9 318.483 144.9C316.723 144.9 315.673 146.22 315.673 148.55C315.673 150.88 316.723 152.12 318.483 152.12ZM326.513 152V151.3H325.923V148.46C325.923 147.37 325.183 146.72 323.943 146.72C323.013 146.72 322.393 147.18 322.113 147.73L322.593 148.18C322.873 147.71 323.283 147.41 323.903 147.41C324.723 147.41 325.123 147.81 325.123 148.54V149.05H324.103C322.603 149.05 321.903 149.59 321.903 150.56C321.903 151.52 322.543 152.12 323.633 152.12C324.353 152.12 324.903 151.79 325.123 151.16H325.173C325.233 151.64 325.473 152 326.063 152H326.513ZM323.763 151.44C323.143 151.44 322.743 151.15 322.743 150.64V150.43C322.743 149.93 323.153 149.65 324.063 149.65H325.123V150.5C325.123 151.03 324.553 151.44 323.763 151.44ZM329.375 152V151.3H328.615V144.6H327.815V151.17C327.815 151.65 328.115 152 328.665 152H329.375ZM332.62 152.12C333.6 152.12 334.27 151.64 334.6 150.9L334.02 150.51C333.74 151.1 333.27 151.41 332.62 151.41C331.67 151.41 331.18 150.76 331.18 149.86V148.98C331.18 148.08 331.67 147.43 332.62 147.43C333.25 147.43 333.69 147.74 333.88 148.27L334.55 147.93C334.25 147.22 333.64 146.72 332.62 146.72C331.17 146.72 330.32 147.77 330.32 149.42C330.32 151.07 331.17 152.12 332.62 152.12ZM339.069 152H339.869V146.84H339.069V150.41C339.069 151.09 338.449 151.4 337.819 151.4C337.049 151.4 336.639 150.93 336.639 150.01V146.84H335.839V150.15C335.839 151.4 336.519 152.12 337.579 152.12C338.439 152.12 338.829 151.65 339.029 151.16H339.069V152ZM343.293 152V151.3H342.533V144.6H341.733V151.17C341.733 151.65 342.033 152 342.583 152H343.293ZM348.817 152V151.3H348.227V148.46C348.227 147.37 347.487 146.72 346.247 146.72C345.317 146.72 344.697 147.18 344.417 147.73L344.897 148.18C345.177 147.71 345.587 147.41 346.207 147.41C347.027 147.41 347.427 147.81 347.427 148.54V149.05H346.407C344.907 149.05 344.207 149.59 344.207 150.56C344.207 151.52 344.847 152.12 345.937 152.12C346.657 152.12 347.207 151.79 347.427 151.16H347.477C347.537 151.64 347.777 152 348.367 152H348.817ZM346.067 151.44C345.447 151.44 345.047 151.15 345.047 150.64V150.43C345.047 149.93 345.457 149.65 346.367 149.65H347.427V150.5C347.427 151.03 346.857 151.44 346.067 151.44ZM352.259 152V151.3H351.209V147.54H352.339V146.84H351.209V145.41H350.489V146.37C350.489 146.72 350.379 146.84 350.039 146.84H349.559V147.54H350.409V151.15C350.409 151.65 350.709 152 351.259 152H352.259ZM355.686 152.12C356.656 152.12 357.396 151.64 357.726 150.94L357.156 150.53C356.886 151.1 356.386 151.42 355.736 151.42C354.776 151.42 354.206 150.75 354.206 149.86V149.62H357.916V149.24C357.916 147.78 357.066 146.72 355.686 146.72C354.286 146.72 353.366 147.78 353.366 149.42C353.366 151.06 354.286 152.12 355.686 152.12ZM355.686 147.39C356.506 147.39 357.056 148 357.056 148.91V149.02H354.206V148.95C354.206 148.05 354.816 147.39 355.686 147.39ZM313.049 165V162.02H314.989C316.239 162.02 316.939 161.25 316.939 160.02C316.939 158.79 316.239 158.02 314.989 158.02H312.209V165H313.049ZM313.049 158.76H314.989C315.649 158.76 316.039 159.12 316.039 159.76V160.28C316.039 160.92 315.649 161.28 314.989 161.28H313.049V158.76ZM322.456 165V164.3H321.866V161.46C321.866 160.37 321.126 159.72 319.886 159.72C318.956 159.72 318.336 160.18 318.056 160.73L318.536 161.18C318.816 160.71 319.226 160.41 319.846 160.41C320.666 160.41 321.066 160.81 321.066 161.54V162.05H320.046C318.546 162.05 317.846 162.59 317.846 163.56C317.846 164.52 318.486 165.12 319.576 165.12C320.296 165.12 320.846 164.79 321.066 164.16H321.116C321.176 164.64 321.416 165 322.006 165H322.456ZM319.706 164.44C319.086 164.44 318.686 164.15 318.686 163.64V163.43C318.686 162.93 319.096 162.65 320.006 162.65H321.066V163.5C321.066 164.03 320.496 164.44 319.706 164.44ZM324.558 165V161.5C324.558 161.01 325.078 160.64 325.938 160.64H326.408V159.84H326.098C325.258 159.84 324.788 160.3 324.608 160.79H324.558V159.84H323.758V165H324.558ZM331.75 165V164.3H331.16V161.46C331.16 160.37 330.42 159.72 329.18 159.72C328.25 159.72 327.63 160.18 327.35 160.73L327.83 161.18C328.11 160.71 328.52 160.41 329.14 160.41C329.96 160.41 330.36 160.81 330.36 161.54V162.05H329.34C327.84 162.05 327.14 162.59 327.14 163.56C327.14 164.52 327.78 165.12 328.87 165.12C329.59 165.12 330.14 164.79 330.36 164.16H330.41C330.47 164.64 330.71 165 331.3 165H331.75ZM329 164.44C328.38 164.44 327.98 164.15 327.98 163.64V163.43C327.98 162.93 328.39 162.65 329.3 162.65H330.36V163.5C330.36 164.03 329.79 164.44 329 164.44ZM333.852 165V161.42C333.852 160.76 334.452 160.44 335.082 160.44C335.842 160.44 336.192 160.91 336.192 161.83V165H336.992V161.42C336.992 160.76 337.572 160.44 338.202 160.44C338.982 160.44 339.332 160.92 339.332 161.83V165H340.132V161.69C340.132 160.44 339.502 159.72 338.452 159.72C337.572 159.72 337.072 160.21 336.882 160.77H336.862C336.582 160.03 335.962 159.72 335.282 159.72C334.482 159.72 334.122 160.15 333.892 160.68H333.852V159.84H333.052V165H333.852ZM343.883 165.12C344.853 165.12 345.593 164.64 345.923 163.94L345.353 163.53C345.083 164.1 344.583 164.42 343.933 164.42C342.973 164.42 342.403 163.75 342.403 162.86V162.62H346.113V162.24C346.113 160.78 345.263 159.72 343.883 159.72C342.483 159.72 341.563 160.78 341.563 162.42C341.563 164.06 342.483 165.12 343.883 165.12ZM343.883 160.39C344.703 160.39 345.253 161 345.253 161.91V162.02H342.403V161.95C342.403 161.05 343.013 160.39 343.883 160.39ZM349.731 165V164.3H348.681V160.54H349.811V159.84H348.681V158.41H347.961V159.37C347.961 159.72 347.851 159.84 347.511 159.84H347.031V160.54H347.881V164.15C347.881 164.65 348.181 165 348.731 165H349.731ZM353.158 165.12C354.128 165.12 354.868 164.64 355.198 163.94L354.628 163.53C354.358 164.1 353.858 164.42 353.208 164.42C352.248 164.42 351.678 163.75 351.678 162.86V162.62H355.388V162.24C355.388 160.78 354.538 159.72 353.158 159.72C351.758 159.72 350.838 160.78 350.838 162.42C350.838 164.06 351.758 165.12 353.158 165.12ZM353.158 160.39C353.978 160.39 354.528 161 354.528 161.91V162.02H351.678V161.95C351.678 161.05 352.288 160.39 353.158 160.39ZM357.666 165V161.5C357.666 161.01 358.186 160.64 359.046 160.64H359.516V159.84H359.206C358.366 159.84 357.896 160.3 357.716 160.79H357.666V159.84H356.866V165H357.666ZM362.248 165.12C363.428 165.12 364.158 164.51 364.158 163.51C364.158 162.73 363.718 162.23 362.578 162.06L362.178 162C361.538 161.9 361.188 161.7 361.188 161.2C361.188 160.71 361.538 160.4 362.198 160.4C362.858 160.4 363.298 160.71 363.528 161.03L364.058 160.55C363.638 160.03 363.088 159.72 362.258 159.72C361.208 159.72 360.418 160.22 360.418 161.24C360.418 162.2 361.128 162.59 362.078 162.73L362.488 162.79C363.168 162.89 363.388 163.2 363.388 163.6C363.388 164.13 362.988 164.44 362.308 164.44C361.658 164.44 361.178 164.15 360.778 163.65L360.208 164.11C360.668 164.72 361.298 165.12 362.248 165.12Z" fill="white"/>
<path d="M384 110H405.5C408.261 110 410.5 112.239 410.5 115V150C410.5 152.761 408.261 155 405.5 155H392.5" stroke="#343A3F"/>
<path d="M340 216V235C340 237.761 337.761 240 335 240H135C132.239 240 130 237.761 130 235V216" stroke="#343A3F"/>
<path d="M340 208V235C340 237.761 337.761 240 335 240H21C18.2386 240 16 237.761 16 235V127C16 124.239 18.2386 122 21 122H28.8837" stroke="#343A3F"/>
<rect x="197" y="57" width="32" height="32" fill="#121619"/>
<path d="M220 72.89L222.427 68.6667L220.408 67.5L217.865 71.8983C213.573 70.3076 208.774 70.9158 205.014 73.5269C201.254 76.1381 199.008 80.4224 199 84.9999H201.333C201.336 81.2518 203.14 77.7333 206.181 75.5426C209.222 73.3518 213.131 72.7556 216.687 73.94L213 80.3333C211.944 80.3322 211.018 81.0409 210.744 82.061C210.47 83.0811 210.915 84.1581 211.83 84.6867C212.744 85.2154 213.9 85.0637 214.647 84.317C215.394 83.5702 215.546 82.4147 215.018 81.5L218.833 74.9083C222.439 76.9902 224.662 80.8361 224.667 84.9999H227C226.995 80.0034 224.327 75.3883 220 72.89Z" fill="white"/>
<rect x="197" y="105" width="32" height="32" fill="#121619"/>
<path d="M220 120.89L222.427 116.667L220.408 115.5L217.865 119.898C213.573 118.308 208.774 118.916 205.014 121.527C201.254 124.138 199.008 128.422 199 133H201.333C201.336 129.252 203.14 125.733 206.181 123.543C209.222 121.352 213.131 120.756 216.687 121.94L213 128.333C211.944 128.332 211.018 129.041 210.744 130.061C210.47 131.081 210.915 132.158 211.83 132.687C212.744 133.215 213.9 133.064 214.647 132.317C215.394 131.57 215.546 130.415 215.018 129.5L218.833 122.908C222.439 124.99 224.662 128.836 224.667 133H227C226.995 128.003 224.327 123.388 220 120.89Z" fill="white"/>
<rect x="197" y="169" width="32" height="32" fill="#121619"/>
<path d="M220 184.89L222.427 180.667L220.408 179.5L217.865 183.898C213.573 182.308 208.774 182.916 205.014 185.527C201.254 188.138 199.008 192.422 199 197H201.333C201.336 193.252 203.14 189.733 206.181 187.543C209.222 185.352 213.131 184.756 216.687 185.94L213 192.333C211.944 192.332 211.018 193.041 210.744 194.061C210.47 195.081 210.915 196.158 211.83 196.687C212.744 197.215 213.9 197.064 214.647 196.317C215.394 195.57 215.546 194.415 215.018 193.5L218.833 186.908C222.439 188.99 224.662 192.836 224.667 197H227C226.995 192.003 224.327 187.388 220 184.89Z" fill="white"/>
<line x1="52" y1="144" x2="52" y2="160" stroke="black" stroke-width="2" stroke-linecap="round" stroke-dasharray="0.1 6"/>
<line x1="213" y1="144" x2="213" y2="160" stroke="black" stroke-width="2" stroke-linecap="round" stroke-dasharray="0.1 6"/>
<path d="M23.448 30.98H21.95V30.07C23.98 29.678 25.24 27.984 25.24 25.114C25.24 21.81 23.56 20.06 20.984 20.06C18.422 20.06 16.728 21.81 16.728 25.114C16.728 28.068 18.086 29.79 20.214 30.112V30.7C20.214 31.834 20.802 32.492 22.09 32.492H23.448V30.98ZM20.984 28.53C19.584 28.53 18.688 27.536 18.688 25.87V24.358C18.688 22.692 19.584 21.698 20.984 21.698C22.384 21.698 23.28 22.692 23.28 24.358V25.87C23.28 27.536 22.384 28.53 20.984 28.53ZM31.5308 30H33.3228V22.692H31.5308V27.522C31.5308 28.306 30.8168 28.684 30.1028 28.684C29.2488 28.684 28.8708 28.138 28.8708 27.13V22.692H27.0788V27.312C27.0788 29.132 27.9188 30.168 29.4168 30.168C30.6208 30.168 31.2088 29.51 31.4608 28.782H31.5308V30ZM37.3593 30.168C38.4513 30.168 39.2493 29.678 39.4873 28.74H39.5713C39.6833 29.496 40.1593 30 40.9293 30H41.9233V28.572H41.1953V25.128C41.1953 23.462 40.1453 22.524 38.1713 22.524C36.7013 22.524 35.8473 23.084 35.3153 23.924L36.3793 24.876C36.7293 24.372 37.2053 23.952 38.0453 23.952C38.9973 23.952 39.4033 24.428 39.4033 25.24V25.772H38.1573C36.1693 25.772 35.0353 26.514 35.0353 28.012C35.0353 29.314 35.8753 30.168 37.3593 30.168ZM37.9613 28.866C37.2613 28.866 36.8553 28.572 36.8553 27.984V27.746C36.8553 27.172 37.3173 26.85 38.2553 26.85H39.4033V27.816C39.4033 28.502 38.7593 28.866 37.9613 28.866ZM45.3256 30V25.17C45.3256 24.386 46.0396 23.994 46.7816 23.994C47.6356 23.994 47.9856 24.526 47.9856 25.562V30H49.7776V25.38C49.7776 23.56 48.9376 22.524 47.4396 22.524C46.3056 22.524 45.6896 23.126 45.3956 23.91H45.3256V22.692H43.5336V30H45.3256ZM54.206 30H55.494V28.572H54.108V24.12H55.606V22.692H54.108V20.69H52.498V21.936C52.498 22.44 52.33 22.692 51.798 22.692H51.238V24.12H52.316V28.138C52.316 29.328 52.974 30 54.206 30ZM61.6884 30H63.4804V22.692H61.6884V27.522C61.6884 28.306 60.9744 28.684 60.2604 28.684C59.4064 28.684 59.0284 28.138 59.0284 27.13V22.692H57.2364V27.312C57.2364 29.132 58.0764 30.168 59.5744 30.168C60.7784 30.168 61.3664 29.51 61.6184 28.782H61.6884V30ZM67.5028 30V25.17C67.5028 24.386 68.1748 23.994 68.8608 23.994C69.6588 23.994 70.0368 24.512 70.0368 25.562V30H71.8288V25.17C71.8288 24.386 72.4868 23.994 73.1868 23.994C73.9848 23.994 74.3628 24.512 74.3628 25.562V30H76.1548V25.38C76.1548 23.56 75.3428 22.524 73.9148 22.524C72.7528 22.524 71.9408 23.182 71.6748 23.994H71.6468C71.2968 23.014 70.5268 22.524 69.5328 22.524C68.4408 22.524 67.8528 23.14 67.5728 23.91H67.5028V22.692H65.7108V30H67.5028Z" fill="black"/>
<path d="M304.942 30.168C306.692 30.168 307.854 29.314 308.554 27.858L307.056 26.976C306.734 27.858 306.048 28.53 304.942 28.53C303.57 28.53 302.688 27.578 302.688 25.898V24.358C302.688 22.692 303.57 21.698 304.942 21.698C306.034 21.698 306.65 22.286 306.93 23.154L308.512 22.314C307.826 20.802 306.692 20.06 304.942 20.06C302.366 20.06 300.728 21.894 300.728 25.184C300.728 28.474 302.366 30.168 304.942 30.168ZM312.936 30V28.572H311.97V19.64H310.178V28.236C310.178 29.356 310.752 30 311.97 30H312.936ZM316.26 30.168C317.352 30.168 318.15 29.678 318.388 28.74H318.472C318.584 29.496 319.06 30 319.83 30H320.824V28.572H320.096V25.128C320.096 23.462 319.046 22.524 317.072 22.524C315.602 22.524 314.748 23.084 314.216 23.924L315.28 24.876C315.63 24.372 316.106 23.952 316.946 23.952C317.898 23.952 318.304 24.428 318.304 25.24V25.772H317.058C315.07 25.772 313.936 26.514 313.936 28.012C313.936 29.314 314.776 30.168 316.26 30.168ZM316.862 28.866C316.162 28.866 315.756 28.572 315.756 27.984V27.746C315.756 27.172 316.218 26.85 317.156 26.85H318.304V27.816C318.304 28.502 317.66 28.866 316.862 28.866ZM324.828 30.168C326.648 30.168 327.838 29.188 327.838 27.774C327.838 26.556 327.068 25.842 325.472 25.618L324.73 25.52C324.044 25.408 323.778 25.184 323.778 24.694C323.778 24.246 324.114 23.938 324.884 23.938C325.598 23.938 326.214 24.274 326.634 24.722L327.684 23.672C326.984 22.944 326.256 22.524 324.828 22.524C323.162 22.524 322.056 23.42 322.056 24.834C322.056 26.164 322.924 26.85 324.492 27.046L325.22 27.144C325.864 27.228 326.116 27.494 326.116 27.914C326.116 28.432 325.752 28.754 324.898 28.754C324.072 28.754 323.428 28.376 322.896 27.76L321.804 28.824C322.532 29.664 323.442 30.168 324.828 30.168ZM331.879 30.168C333.699 30.168 334.889 29.188 334.889 27.774C334.889 26.556 334.119 25.842 332.523 25.618L331.781 25.52C331.095 25.408 330.829 25.184 330.829 24.694C330.829 24.246 331.165 23.938 331.935 23.938C332.649 23.938 333.265 24.274 333.685 24.722L334.735 23.672C334.035 22.944 333.307 22.524 331.879 22.524C330.213 22.524 329.107 23.42 329.107 24.834C329.107 26.164 329.975 26.85 331.543 27.046L332.271 27.144C332.915 27.228 333.167 27.494 333.167 27.914C333.167 28.432 332.803 28.754 331.949 28.754C331.123 28.754 330.479 28.376 329.947 27.76L328.855 28.824C329.583 29.664 330.493 30.168 331.879 30.168ZM337.527 21.628C338.255 21.628 338.577 21.25 338.577 20.732V20.452C338.577 19.934 338.255 19.556 337.527 19.556C336.785 19.556 336.477 19.934 336.477 20.452V20.732C336.477 21.25 336.785 21.628 337.527 21.628ZM336.631 30H338.423V22.692H336.631V30ZM343.544 30.168C344.958 30.168 345.98 29.524 346.456 28.236L345.084 27.578C344.818 28.236 344.398 28.726 343.544 28.726C342.55 28.726 342.046 28.04 342.046 27.018V25.688C342.046 24.666 342.55 23.966 343.544 23.966C344.314 23.966 344.776 24.414 344.944 25.03L346.414 24.372C345.98 23.224 345.014 22.524 343.544 22.524C341.388 22.524 340.17 23.994 340.17 26.332C340.17 28.684 341.388 30.168 343.544 30.168ZM349.804 30.168C350.896 30.168 351.694 29.678 351.932 28.74H352.016C352.128 29.496 352.604 30 353.374 30H354.368V28.572H353.64V25.128C353.64 23.462 352.59 22.524 350.616 22.524C349.146 22.524 348.292 23.084 347.76 23.924L348.824 24.876C349.174 24.372 349.65 23.952 350.49 23.952C351.442 23.952 351.848 24.428 351.848 25.24V25.772H350.602C348.614 25.772 347.48 26.514 347.48 28.012C347.48 29.314 348.32 30.168 349.804 30.168ZM350.406 28.866C349.706 28.866 349.3 28.572 349.3 27.984V27.746C349.3 27.172 349.762 26.85 350.7 26.85H351.848V27.816C351.848 28.502 351.204 28.866 350.406 28.866ZM358.736 30V28.572H357.77V19.64H355.978V28.236C355.978 29.356 356.552 30 357.77 30H358.736Z" fill="black"/>
<path d="M151.642 231H152.762V223.776H151.642V228.774C151.642 229.726 150.774 230.16 149.892 230.16C148.814 230.16 148.24 229.502 148.24 228.214V223.776H147.12V228.41C147.12 230.16 148.072 231.168 149.556 231.168C150.76 231.168 151.306 230.51 151.586 229.824H151.642V231ZM155.307 233.8H156.427V229.824H156.483C156.917 230.72 157.603 231.168 158.597 231.168C160.403 231.168 161.537 229.698 161.537 227.388C161.537 225.078 160.403 223.608 158.597 223.608C157.603 223.608 156.861 224.042 156.483 224.952H156.427V223.776H155.307V233.8ZM158.289 230.16C157.267 230.16 156.427 229.628 156.427 228.69V226.002C156.427 225.204 157.267 224.616 158.289 224.616C159.549 224.616 160.333 225.484 160.333 226.772V228.004C160.333 229.292 159.549 230.16 158.289 230.16ZM168.208 231H169.328V220.64H168.208V224.952H168.152C167.774 224.042 167.032 223.608 166.038 223.608C164.232 223.608 163.098 225.078 163.098 227.388C163.098 229.698 164.232 231.168 166.038 231.168C167.032 231.168 167.718 230.72 168.152 229.824H168.208V231ZM166.346 230.16C165.086 230.16 164.302 229.292 164.302 228.004V226.772C164.302 225.484 165.086 224.616 166.346 224.616C167.368 224.616 168.208 225.204 168.208 226.002V228.69C168.208 229.628 167.368 230.16 166.346 230.16ZM177.749 231V230.02H176.923V226.044C176.923 224.518 175.887 223.608 174.151 223.608C172.849 223.608 171.981 224.252 171.589 225.022L172.261 225.652C172.653 224.994 173.227 224.574 174.095 224.574C175.243 224.574 175.803 225.134 175.803 226.156V226.87H174.375C172.275 226.87 171.295 227.626 171.295 228.984C171.295 230.328 172.191 231.168 173.717 231.168C174.725 231.168 175.495 230.706 175.803 229.824H175.873C175.957 230.496 176.293 231 177.119 231H177.749ZM173.899 230.216C173.031 230.216 172.471 229.81 172.471 229.096V228.802C172.471 228.102 173.045 227.71 174.319 227.71H175.803V228.9C175.803 229.642 175.005 230.216 173.899 230.216ZM182.504 231V230.02H181.034V224.756H182.616V223.776H181.034V221.774H180.026V223.118C180.026 223.608 179.872 223.776 179.396 223.776H178.724V224.756H179.914V229.81C179.914 230.51 180.334 231 181.104 231H182.504ZM187.237 231.168C188.595 231.168 189.631 230.496 190.093 229.516L189.295 228.942C188.917 229.74 188.217 230.188 187.307 230.188C185.963 230.188 185.165 229.25 185.165 228.004V227.668H190.359V227.136C190.359 225.092 189.169 223.608 187.237 223.608C185.277 223.608 183.989 225.092 183.989 227.388C183.989 229.684 185.277 231.168 187.237 231.168ZM187.237 224.546C188.385 224.546 189.155 225.4 189.155 226.674V226.828H185.165V226.73C185.165 225.47 186.019 224.546 187.237 224.546Z" fill="black"/>
<path d="M34.31 231V226.1C34.31 225.414 35.038 224.896 36.242 224.896H36.9V223.776H36.466C35.29 223.776 34.632 224.42 34.38 225.106H34.31V223.776H33.19V231H34.31ZM41.1383 231.168C42.4963 231.168 43.5323 230.496 43.9943 229.516L43.1963 228.942C42.8183 229.74 42.1183 230.188 41.2083 230.188C39.8643 230.188 39.0663 229.25 39.0663 228.004V227.668H44.2603V227.136C44.2603 225.092 43.0703 223.608 41.1383 223.608C39.1783 223.608 37.8903 225.092 37.8903 227.388C37.8903 229.684 39.1783 231.168 41.1383 231.168ZM41.1383 224.546C42.2863 224.546 43.0563 225.4 43.0563 226.674V226.828H39.0663V226.73C39.0663 225.47 39.9203 224.546 41.1383 224.546ZM47.3859 231V226.1C47.3859 225.414 48.1139 224.896 49.3179 224.896H49.9759V223.776H49.5419C48.3659 223.776 47.7079 224.42 47.4559 225.106H47.3859V223.776H46.2659V231H47.3859ZM56.0185 231H57.1385V223.776H56.0185V228.774C56.0185 229.726 55.1505 230.16 54.2685 230.16C53.1905 230.16 52.6165 229.502 52.6165 228.214V223.776H51.4965V228.41C51.4965 230.16 52.4485 231.168 53.9325 231.168C55.1365 231.168 55.6825 230.51 55.9625 229.824H56.0185V231ZM60.8035 231V225.988C60.8035 225.064 61.6715 224.616 62.5675 224.616C63.6455 224.616 64.2055 225.274 64.2055 226.562V231H65.3255V226.366C65.3255 224.616 64.3875 223.608 62.9035 223.608C61.8255 223.608 61.2095 224.14 60.8595 224.952H60.8035V223.776H59.6835V231H60.8035Z" fill="black"/>
<path d="M293 122L297 120.5L293 119V122Z" fill="#343A3F"/>
<line x1="293" y1="120.5" x2="269" y2="120.5" stroke="#343A3F"/>
<path d="M131.5 210L130 206L128.5 210H131.5Z" fill="#343A3F"/>
<line x1="130" y1="210" x2="130" y2="234" stroke="#343A3F"/>
<path d="M34 123.5L38 122L34 120.5L34 123.5Z" fill="#343A3F"/>
<line x1="34" y1="122" x2="29" y2="122" stroke="#343A3F"/>
<path d="M388 153.5L384 155L388 156.5L388 153.5Z" fill="#343A3F"/>
<line x1="388" y1="155" x2="393" y2="155" stroke="#343A3F"/>
</g>
<defs>
<clipPath id="clip0_1125_23084">
<rect width="447" height="261" fill="white"/>
</clipPath>
</defs>
</svg>
