<svg width="567" height="240" viewBox="0 0 567 240" fill="none" xmlns="http://www.w3.org/2000/svg">
<rect width="567" height="240" fill="white"/>
<rect opacity="0.4" y="200" width="567" height="40" fill="#F2F4F8"/>
<rect opacity="0.4" y="120" width="567" height="40" fill="#F2F4F8"/>
<rect opacity="0.4" y="40" width="567" height="40" fill="#F2F4F8"/>
<rect x="0.5" y="0.5" width="566" height="239" stroke="#DDE1E6"/>
<rect width="70" height="103" transform="translate(208 55)" fill="#1192E8"/>
<path d="M232.895 106L229.479 96.228H227.981L224.565 106H225.755L226.735 103.116H230.683L231.663 106H232.895ZM230.389 102.08H227.015L228.667 97.32H228.737L230.389 102.08ZM234.561 108.8H235.681V104.824H235.737C236.171 105.72 236.857 106.168 237.851 106.168C239.657 106.168 240.791 104.698 240.791 102.388C240.791 100.078 239.657 98.608 237.851 98.608C236.857 98.608 236.115 99.042 235.737 99.952H235.681V98.776H234.561V108.8ZM237.543 105.16C236.521 105.16 235.681 104.628 235.681 103.69V101.002C235.681 100.204 236.521 99.616 237.543 99.616C238.803 99.616 239.587 100.484 239.587 101.772V103.004C239.587 104.292 238.803 105.16 237.543 105.16ZM242.842 108.8H243.962V104.824H244.018C244.452 105.72 245.138 106.168 246.132 106.168C247.938 106.168 249.072 104.698 249.072 102.388C249.072 100.078 247.938 98.608 246.132 98.608C245.138 98.608 244.396 99.042 244.018 99.952H243.962V98.776H242.842V108.8ZM245.824 105.16C244.802 105.16 243.962 104.628 243.962 103.69V101.002C243.962 100.204 244.802 99.616 245.824 99.616C247.084 99.616 247.868 100.484 247.868 101.772V103.004C247.868 104.292 247.084 105.16 245.824 105.16ZM253.307 106V105.02H252.243V95.64H251.123V104.838C251.123 105.51 251.543 106 252.313 106H253.307ZM257.663 103.69L257.271 104.866H257.201L256.865 103.69L255.129 98.776H254.009L256.711 106.28L256.165 107.82H255.031V108.8H255.605C256.669 108.8 256.963 108.548 257.285 107.68L260.519 98.776H259.413L257.663 103.69Z" fill="white"/>
<rect width="70" height="103" transform="translate(117 55)" fill="#1192E8"/>
<path d="M141.895 106L138.479 96.228H136.981L133.565 106H134.755L135.735 103.116H139.683L140.663 106H141.895ZM139.389 102.08H136.015L137.667 97.32H137.737L139.389 102.08ZM143.561 108.8H144.681V104.824H144.737C145.171 105.72 145.857 106.168 146.851 106.168C148.657 106.168 149.791 104.698 149.791 102.388C149.791 100.078 148.657 98.608 146.851 98.608C145.857 98.608 145.115 99.042 144.737 99.952H144.681V98.776H143.561V108.8ZM146.543 105.16C145.521 105.16 144.681 104.628 144.681 103.69V101.002C144.681 100.204 145.521 99.616 146.543 99.616C147.803 99.616 148.587 100.484 148.587 101.772V103.004C148.587 104.292 147.803 105.16 146.543 105.16ZM151.842 108.8H152.962V104.824H153.018C153.452 105.72 154.138 106.168 155.132 106.168C156.938 106.168 158.072 104.698 158.072 102.388C158.072 100.078 156.938 98.608 155.132 98.608C154.138 98.608 153.396 99.042 153.018 99.952H152.962V98.776H151.842V108.8ZM154.824 105.16C153.802 105.16 152.962 104.628 152.962 103.69V101.002C152.962 100.204 153.802 99.616 154.824 99.616C156.084 99.616 156.868 100.484 156.868 101.772V103.004C156.868 104.292 156.084 105.16 154.824 105.16ZM162.307 106V105.02H161.243V95.64H160.123V104.838C160.123 105.51 160.543 106 161.313 106H162.307ZM166.663 103.69L166.271 104.866H166.201L165.865 103.69L164.129 98.776H163.009L165.711 106.28L165.165 107.82H164.031V108.8H164.605C165.669 108.8 165.963 108.548 166.285 107.68L169.519 98.776H168.413L166.663 103.69Z" fill="white"/>
<path d="M138.887 117.169C138.887 117.007 138.761 117.007 138.707 117.007C138.545 117.007 138.527 117.043 138.456 117.348L137.485 121.215C137.431 121.448 137.413 121.466 137.395 121.484C137.377 121.52 137.251 121.538 137.215 121.538C134.266 121.79 132 124.218 132 126.465C132 128.407 133.493 129.594 135.363 129.702C135.219 130.26 135.093 130.835 134.949 131.392C134.697 132.345 134.553 132.939 134.553 133.011C134.553 133.047 134.553 133.155 134.733 133.155C134.787 133.155 134.859 133.155 134.895 133.083C134.931 133.047 135.039 132.615 135.111 132.381L135.776 129.702C138.851 129.54 141.189 127.023 141.189 124.757C141.189 122.941 139.822 121.646 137.826 121.52L138.887 117.169ZM137.718 121.88C138.905 121.952 140.092 122.617 140.092 124.379C140.092 126.411 138.671 129.109 135.866 129.325L137.718 121.88ZM135.453 129.343C134.571 129.289 133.097 128.821 133.097 126.843C133.097 124.577 134.733 122.06 137.323 121.898L135.453 129.343Z" fill="white"/>
<path d="M147.42 133.856C147.42 133.802 147.42 133.766 147.114 133.461C145.316 131.644 144.309 128.677 144.309 125.009C144.309 121.52 145.154 118.517 147.24 116.396C147.42 116.234 147.42 116.198 147.42 116.144C147.42 116.036 147.33 116 147.258 116C147.024 116 145.55 117.295 144.669 119.057C143.751 120.873 143.338 122.797 143.338 125.009C143.338 126.609 143.59 128.749 144.525 130.673C145.586 132.831 147.06 134 147.258 134C147.33 134 147.42 133.964 147.42 133.856Z" fill="white"/>
<path d="M158.752 118.751C158.537 118.949 157.871 119.578 157.871 119.83C157.871 120.01 158.033 120.172 158.213 120.172C158.375 120.172 158.447 120.064 158.573 119.884C159.004 119.344 159.49 119.003 159.903 118.769C160.083 118.661 160.209 118.607 160.209 118.409C160.209 118.247 160.065 118.158 159.957 118.068C159.454 117.726 159.328 117.24 159.274 117.025C159.22 116.881 159.166 116.665 158.914 116.665C158.806 116.665 158.591 116.737 158.591 117.007C158.591 117.169 158.698 117.6 159.04 118.086H152.998C152.692 118.086 152.387 118.086 152.387 118.427C152.387 118.751 152.71 118.751 152.998 118.751H158.752Z" fill="white"/>
<path d="M154.357 126.592C153.872 125.099 153.979 125.243 153.53 123.984C152.972 122.438 152.829 122.312 152.577 122.06C152.253 121.772 151.642 121.557 151.012 121.557C150.005 121.557 149.52 122.492 149.52 122.725C149.52 122.833 149.61 122.887 149.718 122.887C149.862 122.887 149.898 122.797 149.916 122.725C150.185 122.024 150.743 121.916 150.905 121.916C151.426 121.916 151.93 123.211 152.253 124.074C152.685 125.171 152.901 125.926 153.386 127.671L149.142 132.49C148.98 132.688 148.98 132.759 148.98 132.777C148.98 132.921 149.07 132.957 149.142 132.957C149.214 132.957 149.268 132.921 149.322 132.867C149.826 132.364 150.941 131.033 151.408 130.494L153.494 128.12C154.375 130.889 154.375 130.925 154.645 131.591C154.933 132.274 155.31 133.155 156.839 133.155C157.864 133.155 158.331 132.238 158.331 131.986C158.331 131.86 158.223 131.824 158.133 131.824C157.989 131.824 157.971 131.896 157.918 132.04C157.72 132.544 157.252 132.795 156.964 132.795C156.731 132.795 156.443 132.795 155.652 130.799C155.184 129.595 154.771 128.156 154.465 127.041L158.727 122.186C158.871 122.024 158.889 122.006 158.889 121.934C158.889 121.808 158.799 121.754 158.709 121.754C158.655 121.754 158.601 121.754 158.421 121.952L154.357 126.592Z" fill="white"/>
<path d="M163.025 124.704C163.025 124.44 162.833 124.248 162.558 124.248C162.246 124.248 161.898 124.536 161.898 124.895C161.898 125.159 162.09 125.351 162.366 125.351C162.678 125.351 163.025 125.063 163.025 124.704ZM161.275 129.103L160.628 130.758C160.568 130.937 160.508 131.081 160.508 131.285C160.508 131.872 160.963 132.304 161.599 132.304C162.762 132.304 163.253 130.626 163.253 130.47C163.253 130.35 163.157 130.314 163.073 130.314C162.929 130.314 162.905 130.398 162.869 130.518C162.594 131.477 162.102 131.968 161.623 131.968C161.479 131.968 161.335 131.908 161.335 131.585C161.335 131.297 161.419 131.081 161.575 130.71C161.695 130.386 161.814 130.062 161.946 129.739L162.318 128.768C162.426 128.492 162.57 128.12 162.57 127.916C162.57 127.317 162.09 126.897 161.479 126.897C160.316 126.897 159.812 128.576 159.812 128.732C159.812 128.839 159.896 128.887 159.992 128.887C160.148 128.887 160.16 128.815 160.196 128.696C160.532 127.557 161.083 127.233 161.443 127.233C161.611 127.233 161.731 127.293 161.731 127.629C161.731 127.749 161.719 127.916 161.599 128.276L161.275 129.103Z" fill="white"/>
<path d="M169.609 125.009C169.609 123.642 169.429 121.413 168.422 119.327C167.362 117.169 165.887 116 165.689 116C165.617 116 165.527 116.036 165.527 116.144C165.527 116.198 165.527 116.234 165.833 116.539C167.631 118.356 168.638 121.323 168.638 124.991C168.638 128.48 167.793 131.483 165.707 133.604C165.527 133.766 165.527 133.802 165.527 133.856C165.527 133.964 165.617 134 165.689 134C165.923 134 167.397 132.705 168.279 130.943C169.196 129.109 169.609 127.167 169.609 125.009Z" fill="white"/>
<rect width="70" height="144" transform="translate(440 55)" fill="#1192E8"/>
<path d="M456.16 98.12C457.32 98.12 458.17 97.51 458.61 96.53L457.94 96.11C457.66 96.87 457.05 97.37 456.16 97.37C454.96 97.37 454.25 96.5 454.25 95.07V94.03C454.25 92.6 454.96 91.65 456.16 91.65C457.02 91.65 457.6 92.12 457.88 92.84L458.56 92.43C458.12 91.46 457.32 90.9 456.16 90.9C454.4 90.9 453.35 92.22 453.35 94.55C453.35 96.88 454.4 98.12 456.16 98.12ZM461.941 98.12C463.321 98.12 464.271 97.06 464.271 95.42C464.271 93.78 463.321 92.72 461.941 92.72C460.561 92.72 459.611 93.78 459.611 95.42C459.611 97.06 460.561 98.12 461.941 98.12ZM461.941 97.41C461.081 97.41 460.471 96.88 460.471 95.79V95.05C460.471 93.96 461.081 93.43 461.941 93.43C462.801 93.43 463.411 93.96 463.411 95.05V95.79C463.411 96.88 462.801 97.41 461.941 97.41ZM466.547 98V94.42C466.547 93.76 467.147 93.44 467.777 93.44C468.537 93.44 468.887 93.91 468.887 94.83V98H469.687V94.42C469.687 93.76 470.267 93.44 470.897 93.44C471.677 93.44 472.027 93.92 472.027 94.83V98H472.827V94.69C472.827 93.44 472.197 92.72 471.147 92.72C470.267 92.72 469.767 93.21 469.577 93.77H469.557C469.277 93.03 468.657 92.72 467.977 92.72C467.177 92.72 466.817 93.15 466.587 93.68H466.547V92.84H465.747V98H466.547ZM474.637 100H475.437V97.16H475.477C475.787 97.8 476.277 98.12 476.987 98.12C478.277 98.12 479.087 97.07 479.087 95.42C479.087 93.77 478.277 92.72 476.987 92.72C476.277 92.72 475.747 93.03 475.477 93.68H475.437V92.84H474.637V100ZM476.767 97.4C476.037 97.4 475.437 97.02 475.437 96.35V94.43C475.437 93.86 476.037 93.44 476.767 93.44C477.667 93.44 478.227 94.06 478.227 94.98V95.86C478.227 96.78 477.667 97.4 476.767 97.4ZM483.778 98H484.578V92.84H483.778V96.41C483.778 97.09 483.158 97.4 482.528 97.4C481.758 97.4 481.348 96.93 481.348 96.01V92.84H480.548V96.15C480.548 97.4 481.228 98.12 482.288 98.12C483.148 98.12 483.538 97.65 483.738 97.16H483.778V98ZM488.582 98V97.3H487.532V93.54H488.662V92.84H487.532V91.41H486.812V92.37C486.812 92.72 486.702 92.84 486.362 92.84H485.882V93.54H486.732V97.15C486.732 97.65 487.032 98 487.582 98H488.582ZM492.008 98.12C492.978 98.12 493.718 97.64 494.048 96.94L493.478 96.53C493.208 97.1 492.708 97.42 492.058 97.42C491.098 97.42 490.528 96.75 490.528 95.86V95.62H494.238V95.24C494.238 93.78 493.388 92.72 492.008 92.72C490.608 92.72 489.688 93.78 489.688 95.42C489.688 97.06 490.608 98.12 492.008 98.12ZM492.008 93.39C492.828 93.39 493.378 94 493.378 94.91V95.02H490.528V94.95C490.528 94.05 491.138 93.39 492.008 93.39ZM466.83 111.12C467.99 111.12 468.84 110.51 469.28 109.53L468.61 109.11C468.33 109.87 467.72 110.37 466.83 110.37C465.63 110.37 464.92 109.5 464.92 108.07V107.03C464.92 105.6 465.63 104.65 466.83 104.65C467.69 104.65 468.27 105.12 468.55 105.84L469.23 105.43C468.79 104.46 467.99 103.9 466.83 103.9C465.07 103.9 464.02 105.22 464.02 107.55C464.02 109.88 465.07 111.12 466.83 111.12ZM472.611 111.12C473.991 111.12 474.941 110.06 474.941 108.42C474.941 106.78 473.991 105.72 472.611 105.72C471.231 105.72 470.281 106.78 470.281 108.42C470.281 110.06 471.231 111.12 472.611 111.12ZM472.611 110.41C471.751 110.41 471.141 109.88 471.141 108.79V108.05C471.141 106.96 471.751 106.43 472.611 106.43C473.471 106.43 474.081 106.96 474.081 108.05V108.79C474.081 109.88 473.471 110.41 472.611 110.41ZM477.966 111.12C479.146 111.12 479.876 110.51 479.876 109.51C479.876 108.73 479.436 108.23 478.296 108.06L477.896 108C477.256 107.9 476.906 107.7 476.906 107.2C476.906 106.71 477.256 106.4 477.916 106.4C478.576 106.4 479.016 106.71 479.246 107.03L479.776 106.55C479.356 106.03 478.806 105.72 477.976 105.72C476.926 105.72 476.136 106.22 476.136 107.24C476.136 108.2 476.846 108.59 477.796 108.73L478.206 108.79C478.886 108.89 479.106 109.2 479.106 109.6C479.106 110.13 478.706 110.44 478.026 110.44C477.376 110.44 476.896 110.15 476.496 109.65L475.926 110.11C476.386 110.72 477.016 111.12 477.966 111.12ZM483.521 111V110.3H482.471V106.54H483.601V105.84H482.471V104.41H481.751V105.37C481.751 105.72 481.641 105.84 481.301 105.84H480.821V106.54H481.671V110.15C481.671 110.65 481.971 111 482.521 111H483.521ZM456.703 124V120.84H459.733V120.1H456.703V117.76H460.023V117.02H455.863V124H456.703ZM464.455 124H465.255V118.84H464.455V122.41C464.455 123.09 463.835 123.4 463.205 123.4C462.435 123.4 462.025 122.93 462.025 122.01V118.84H461.225V122.15C461.225 123.4 461.905 124.12 462.965 124.12C463.825 124.12 464.215 123.65 464.415 123.16H464.455V124ZM467.919 124V120.42C467.919 119.76 468.539 119.44 469.179 119.44C469.949 119.44 470.349 119.91 470.349 120.83V124H471.149V120.69C471.149 119.44 470.479 118.72 469.419 118.72C468.649 118.72 468.209 119.1 467.959 119.68H467.919V118.84H467.119V124H467.919ZM474.882 124.12C475.862 124.12 476.532 123.64 476.862 122.9L476.282 122.51C476.002 123.1 475.532 123.41 474.882 123.41C473.932 123.41 473.442 122.76 473.442 121.86V120.98C473.442 120.08 473.932 119.43 474.882 119.43C475.512 119.43 475.952 119.74 476.142 120.27L476.812 119.93C476.512 119.22 475.902 118.72 474.882 118.72C473.432 118.72 472.582 119.77 472.582 121.42C472.582 123.07 473.432 124.12 474.882 124.12ZM480.292 124V123.3H479.242V119.54H480.372V118.84H479.242V117.41H478.522V118.37C478.522 118.72 478.412 118.84 478.072 118.84H477.592V119.54H478.442V123.15C478.442 123.65 478.742 124 479.292 124H480.292ZM482.218 117.63C482.558 117.63 482.708 117.45 482.708 117.18V117.05C482.708 116.78 482.558 116.6 482.218 116.6C481.878 116.6 481.728 116.78 481.728 117.05V117.18C481.728 117.45 481.878 117.63 482.218 117.63ZM481.818 124H482.618V118.84H481.818V124ZM486.428 124.12C487.808 124.12 488.758 123.06 488.758 121.42C488.758 119.78 487.808 118.72 486.428 118.72C485.048 118.72 484.098 119.78 484.098 121.42C484.098 123.06 485.048 124.12 486.428 124.12ZM486.428 123.41C485.568 123.41 484.958 122.88 484.958 121.79V121.05C484.958 119.96 485.568 119.43 486.428 119.43C487.288 119.43 487.898 119.96 487.898 121.05V121.79C487.898 122.88 487.288 123.41 486.428 123.41ZM491.033 124V120.42C491.033 119.76 491.653 119.44 492.293 119.44C493.063 119.44 493.463 119.91 493.463 120.83V124H494.263V120.69C494.263 119.44 493.593 118.72 492.533 118.72C491.763 118.72 491.323 119.1 491.073 119.68H491.033V118.84H490.233V124H491.033ZM455.483 150.12C456.643 150.12 457.493 149.51 457.933 148.53L457.263 148.11C456.983 148.87 456.373 149.37 455.483 149.37C454.283 149.37 453.573 148.5 453.573 147.07V146.03C453.573 144.6 454.283 143.65 455.483 143.65C456.343 143.65 456.923 144.12 457.203 144.84L457.883 144.43C457.443 143.46 456.643 142.9 455.483 142.9C453.723 142.9 452.673 144.22 452.673 146.55C452.673 148.88 453.723 150.12 455.483 150.12ZM463.513 150V149.3H462.923V146.46C462.923 145.37 462.183 144.72 460.943 144.72C460.013 144.72 459.393 145.18 459.113 145.73L459.593 146.18C459.873 145.71 460.283 145.41 460.903 145.41C461.723 145.41 462.123 145.81 462.123 146.54V147.05H461.103C459.603 147.05 458.903 147.59 458.903 148.56C458.903 149.52 459.543 150.12 460.633 150.12C461.353 150.12 461.903 149.79 462.123 149.16H462.173C462.233 149.64 462.473 150 463.063 150H463.513ZM460.763 149.44C460.143 149.44 459.743 149.15 459.743 148.64V148.43C459.743 147.93 460.153 147.65 461.063 147.65H462.123V148.5C462.123 149.03 461.553 149.44 460.763 149.44ZM466.375 150V149.3H465.615V142.6H464.815V149.17C464.815 149.65 465.115 150 465.665 150H466.375ZM469.62 150.12C470.6 150.12 471.27 149.64 471.6 148.9L471.02 148.51C470.74 149.1 470.27 149.41 469.62 149.41C468.67 149.41 468.18 148.76 468.18 147.86V146.98C468.18 146.08 468.67 145.43 469.62 145.43C470.25 145.43 470.69 145.74 470.88 146.27L471.55 145.93C471.25 145.22 470.64 144.72 469.62 144.72C468.17 144.72 467.32 145.77 467.32 147.42C467.32 149.07 468.17 150.12 469.62 150.12ZM476.069 150H476.869V144.84H476.069V148.41C476.069 149.09 475.449 149.4 474.819 149.4C474.049 149.4 473.639 148.93 473.639 148.01V144.84H472.839V148.15C472.839 149.4 473.519 150.12 474.579 150.12C475.439 150.12 475.829 149.65 476.029 149.16H476.069V150ZM480.293 150V149.3H479.533V142.6H478.733V149.17C478.733 149.65 479.033 150 479.583 150H480.293ZM485.817 150V149.3H485.227V146.46C485.227 145.37 484.487 144.72 483.247 144.72C482.317 144.72 481.697 145.18 481.417 145.73L481.897 146.18C482.177 145.71 482.587 145.41 483.207 145.41C484.027 145.41 484.427 145.81 484.427 146.54V147.05H483.407C481.907 147.05 481.207 147.59 481.207 148.56C481.207 149.52 481.847 150.12 482.937 150.12C483.657 150.12 484.207 149.79 484.427 149.16H484.477C484.537 149.64 484.777 150 485.367 150H485.817ZM483.067 149.44C482.447 149.44 482.047 149.15 482.047 148.64V148.43C482.047 147.93 482.457 147.65 483.367 147.65H484.427V148.5C484.427 149.03 483.857 149.44 483.067 149.44ZM489.259 150V149.3H488.209V145.54H489.339V144.84H488.209V143.41H487.489V144.37C487.489 144.72 487.379 144.84 487.039 144.84H486.559V145.54H487.409V149.15C487.409 149.65 487.709 150 488.259 150H489.259ZM492.686 150.12C493.656 150.12 494.396 149.64 494.726 148.94L494.156 148.53C493.886 149.1 493.386 149.42 492.736 149.42C491.776 149.42 491.206 148.75 491.206 147.86V147.62H494.916V147.24C494.916 145.78 494.066 144.72 492.686 144.72C491.286 144.72 490.366 145.78 490.366 147.42C490.366 149.06 491.286 150.12 492.686 150.12ZM492.686 145.39C493.506 145.39 494.056 146 494.056 146.91V147.02H491.206V146.95C491.206 146.05 491.816 145.39 492.686 145.39ZM450.049 163V160.02H451.989C453.239 160.02 453.939 159.25 453.939 158.02C453.939 156.79 453.239 156.02 451.989 156.02H449.209V163H450.049ZM450.049 156.76H451.989C452.649 156.76 453.039 157.12 453.039 157.76V158.28C453.039 158.92 452.649 159.28 451.989 159.28H450.049V156.76ZM459.456 163V162.3H458.866V159.46C458.866 158.37 458.126 157.72 456.886 157.72C455.956 157.72 455.336 158.18 455.056 158.73L455.536 159.18C455.816 158.71 456.226 158.41 456.846 158.41C457.666 158.41 458.066 158.81 458.066 159.54V160.05H457.046C455.546 160.05 454.846 160.59 454.846 161.56C454.846 162.52 455.486 163.12 456.576 163.12C457.296 163.12 457.846 162.79 458.066 162.16H458.116C458.176 162.64 458.416 163 459.006 163H459.456ZM456.706 162.44C456.086 162.44 455.686 162.15 455.686 161.64V161.43C455.686 160.93 456.096 160.65 457.006 160.65H458.066V161.5C458.066 162.03 457.496 162.44 456.706 162.44ZM461.558 163V159.5C461.558 159.01 462.078 158.64 462.938 158.64H463.408V157.84H463.098C462.258 157.84 461.788 158.3 461.608 158.79H461.558V157.84H460.758V163H461.558ZM468.75 163V162.3H468.16V159.46C468.16 158.37 467.42 157.72 466.18 157.72C465.25 157.72 464.63 158.18 464.35 158.73L464.83 159.18C465.11 158.71 465.52 158.41 466.14 158.41C466.96 158.41 467.36 158.81 467.36 159.54V160.05H466.34C464.84 160.05 464.14 160.59 464.14 161.56C464.14 162.52 464.78 163.12 465.87 163.12C466.59 163.12 467.14 162.79 467.36 162.16H467.41C467.47 162.64 467.71 163 468.3 163H468.75ZM466 162.44C465.38 162.44 464.98 162.15 464.98 161.64V161.43C464.98 160.93 465.39 160.65 466.3 160.65H467.36V161.5C467.36 162.03 466.79 162.44 466 162.44ZM470.852 163V159.42C470.852 158.76 471.452 158.44 472.082 158.44C472.842 158.44 473.192 158.91 473.192 159.83V163H473.992V159.42C473.992 158.76 474.572 158.44 475.202 158.44C475.982 158.44 476.332 158.92 476.332 159.83V163H477.132V159.69C477.132 158.44 476.502 157.72 475.452 157.72C474.572 157.72 474.072 158.21 473.882 158.77H473.862C473.582 158.03 472.962 157.72 472.282 157.72C471.482 157.72 471.122 158.15 470.892 158.68H470.852V157.84H470.052V163H470.852ZM480.883 163.12C481.853 163.12 482.593 162.64 482.923 161.94L482.353 161.53C482.083 162.1 481.583 162.42 480.933 162.42C479.973 162.42 479.403 161.75 479.403 160.86V160.62H483.113V160.24C483.113 158.78 482.263 157.72 480.883 157.72C479.483 157.72 478.563 158.78 478.563 160.42C478.563 162.06 479.483 163.12 480.883 163.12ZM480.883 158.39C481.703 158.39 482.253 159 482.253 159.91V160.02H479.403V159.95C479.403 159.05 480.013 158.39 480.883 158.39ZM486.731 163V162.3H485.681V158.54H486.811V157.84H485.681V156.41H484.961V157.37C484.961 157.72 484.851 157.84 484.511 157.84H484.031V158.54H484.881V162.15C484.881 162.65 485.181 163 485.731 163H486.731ZM490.158 163.12C491.128 163.12 491.868 162.64 492.198 161.94L491.628 161.53C491.358 162.1 490.858 162.42 490.208 162.42C489.248 162.42 488.678 161.75 488.678 160.86V160.62H492.388V160.24C492.388 158.78 491.538 157.72 490.158 157.72C488.758 157.72 487.838 158.78 487.838 160.42C487.838 162.06 488.758 163.12 490.158 163.12ZM490.158 158.39C490.978 158.39 491.528 159 491.528 159.91V160.02H488.678V159.95C488.678 159.05 489.288 158.39 490.158 158.39ZM494.666 163V159.5C494.666 159.01 495.186 158.64 496.046 158.64H496.516V157.84H496.206C495.366 157.84 494.896 158.3 494.716 158.79H494.666V157.84H493.866V163H494.666ZM499.248 163.12C500.428 163.12 501.158 162.51 501.158 161.51C501.158 160.73 500.718 160.23 499.578 160.06L499.178 160C498.538 159.9 498.188 159.7 498.188 159.2C498.188 158.71 498.538 158.4 499.198 158.4C499.858 158.4 500.298 158.71 500.528 159.03L501.058 158.55C500.638 158.03 500.088 157.72 499.258 157.72C498.208 157.72 497.418 158.22 497.418 159.24C497.418 160.2 498.128 160.59 499.078 160.73L499.488 160.79C500.168 160.89 500.388 161.2 500.388 161.6C500.388 162.13 499.988 162.44 499.308 162.44C498.658 162.44 498.178 162.15 497.778 161.65L497.208 162.11C497.668 162.72 498.298 163.12 499.248 163.12Z" fill="white"/>
<path d="M521 71H543C545.761 71 548 73.2386 548 76V182C548 184.761 545.761 187 543 187H529.66" stroke="#343A3F"/>
<path d="M332.996 30V26.276H335.544C337.35 26.276 338.442 25.072 338.442 23.252C338.442 21.446 337.35 20.228 335.544 20.228H331.148V30H332.996ZM332.996 21.838H335.376C336.09 21.838 336.524 22.216 336.524 22.93V23.574C336.524 24.288 336.09 24.68 335.376 24.68H332.996V21.838ZM341.82 30V25.52C341.82 24.722 342.45 24.386 343.654 24.386H344.214V22.692H343.822C342.66 22.692 342.072 23.434 341.89 24.204H341.82V22.692H340.028V30H341.82ZM348.57 30.168C349.928 30.168 350.992 29.65 351.594 28.824L350.628 27.746C350.18 28.32 349.648 28.74 348.766 28.74C347.59 28.74 346.988 28.026 346.988 26.976V26.794H351.846V26.206C351.846 24.204 350.796 22.524 348.514 22.524C346.372 22.524 345.126 24.022 345.126 26.332C345.126 28.67 346.414 30.168 348.57 30.168ZM348.542 23.868C349.466 23.868 349.984 24.554 349.984 25.562V25.688H346.988V25.576C346.988 24.568 347.604 23.868 348.542 23.868ZM358.118 30H359.91V19.64H358.118V23.896H358.048C357.796 23.056 356.998 22.524 356.032 22.524C354.198 22.524 353.176 23.896 353.176 26.332C353.176 28.782 354.198 30.168 356.032 30.168C356.998 30.168 357.782 29.608 358.048 28.782H358.118V30ZM356.606 28.684C355.682 28.684 355.052 28.012 355.052 26.976V25.716C355.052 24.68 355.682 23.994 356.606 23.994C357.46 23.994 358.118 24.456 358.118 25.17V27.494C358.118 28.25 357.46 28.684 356.606 28.684ZM363.033 21.628C363.761 21.628 364.083 21.25 364.083 20.732V20.452C364.083 19.934 363.761 19.556 363.033 19.556C362.291 19.556 361.983 19.934 361.983 20.452V20.732C361.983 21.25 362.291 21.628 363.033 21.628ZM362.137 30H363.929V22.692H362.137V30ZM369.05 30.168C370.464 30.168 371.486 29.524 371.962 28.236L370.59 27.578C370.324 28.236 369.904 28.726 369.05 28.726C368.056 28.726 367.552 28.04 367.552 27.018V25.688C367.552 24.666 368.056 23.966 369.05 23.966C369.82 23.966 370.282 24.414 370.45 25.03L371.92 24.372C371.486 23.224 370.52 22.524 369.05 22.524C366.894 22.524 365.676 23.994 365.676 26.332C365.676 28.684 366.894 30.168 369.05 30.168ZM375.786 30H377.074V28.572H375.688V24.12H377.186V22.692H375.688V20.69H374.078V21.936C374.078 22.44 373.91 22.692 373.378 22.692H372.818V24.12H373.896V28.138C373.896 29.328 374.554 30 375.786 30ZM381.799 30.168C383.157 30.168 384.221 29.65 384.823 28.824L383.857 27.746C383.409 28.32 382.877 28.74 381.995 28.74C380.819 28.74 380.217 28.026 380.217 26.976V26.794H385.075V26.206C385.075 24.204 384.025 22.524 381.743 22.524C379.601 22.524 378.355 24.022 378.355 26.332C378.355 28.67 379.643 30.168 381.799 30.168ZM381.771 23.868C382.695 23.868 383.213 24.554 383.213 25.562V25.688H380.217V25.576C380.217 24.568 380.833 23.868 381.771 23.868ZM391.348 30H393.14V19.64H391.348V23.896H391.278C391.026 23.056 390.228 22.524 389.262 22.524C387.428 22.524 386.406 23.896 386.406 26.332C386.406 28.782 387.428 30.168 389.262 30.168C390.228 30.168 391.012 29.608 391.278 28.782H391.348V30ZM389.836 28.684C388.912 28.684 388.282 28.012 388.282 26.976V25.716C388.282 24.68 388.912 23.994 389.836 23.994C390.69 23.994 391.348 24.456 391.348 25.17V27.494C391.348 28.25 390.69 28.684 389.836 28.684ZM336.846 48V46.362H332.996V38.228H331.148V48H336.846ZM340.344 48.168C341.436 48.168 342.234 47.678 342.472 46.74H342.556C342.668 47.496 343.144 48 343.914 48H344.908V46.572H344.18V43.128C344.18 41.462 343.13 40.524 341.156 40.524C339.686 40.524 338.832 41.084 338.3 41.924L339.364 42.876C339.714 42.372 340.19 41.952 341.03 41.952C341.982 41.952 342.388 42.428 342.388 43.24V43.772H341.142C339.154 43.772 338.02 44.514 338.02 46.012C338.02 47.314 338.86 48.168 340.344 48.168ZM340.946 46.866C340.246 46.866 339.84 46.572 339.84 45.984V45.746C339.84 45.172 340.302 44.85 341.24 44.85H342.388V45.816C342.388 46.502 341.744 46.866 340.946 46.866ZM346.518 48H348.31V46.782H348.366C348.646 47.608 349.416 48.168 350.382 48.168C352.23 48.168 353.252 46.782 353.252 44.332C353.252 41.896 352.23 40.524 350.382 40.524C349.416 40.524 348.632 41.056 348.366 41.896H348.31V37.64H346.518V48ZM349.808 46.684C348.954 46.684 348.31 46.25 348.31 45.494V43.17C348.31 42.456 348.954 41.994 349.808 41.994C350.732 41.994 351.376 42.68 351.376 43.716V44.976C351.376 46.012 350.732 46.684 349.808 46.684ZM358.027 48.168C359.385 48.168 360.449 47.65 361.051 46.824L360.085 45.746C359.637 46.32 359.105 46.74 358.223 46.74C357.047 46.74 356.445 46.026 356.445 44.976V44.794H361.303V44.206C361.303 42.204 360.253 40.524 357.971 40.524C355.829 40.524 354.583 42.022 354.583 44.332C354.583 46.67 355.871 48.168 358.027 48.168ZM357.999 41.868C358.923 41.868 359.441 42.554 359.441 43.562V43.688H356.445V43.576C356.445 42.568 357.061 41.868 357.999 41.868ZM365.797 48V46.572H364.831V37.64H363.039V46.236C363.039 47.356 363.613 48 364.831 48H365.797ZM369.709 48.168C371.529 48.168 372.719 47.188 372.719 45.774C372.719 44.556 371.949 43.842 370.353 43.618L369.611 43.52C368.925 43.408 368.659 43.184 368.659 42.694C368.659 42.246 368.995 41.938 369.765 41.938C370.479 41.938 371.095 42.274 371.515 42.722L372.565 41.672C371.865 40.944 371.137 40.524 369.709 40.524C368.043 40.524 366.937 41.42 366.937 42.834C366.937 44.164 367.805 44.85 369.373 45.046L370.101 45.144C370.745 45.228 370.997 45.494 370.997 45.914C370.997 46.432 370.633 46.754 369.779 46.754C368.953 46.754 368.309 46.376 367.777 45.76L366.685 46.824C367.413 47.664 368.323 48.168 369.709 48.168Z" fill="black"/>
<path d="M447.942 30.168C449.692 30.168 450.854 29.314 451.554 27.858L450.056 26.976C449.734 27.858 449.048 28.53 447.942 28.53C446.57 28.53 445.688 27.578 445.688 25.898V24.358C445.688 22.692 446.57 21.698 447.942 21.698C449.034 21.698 449.65 22.286 449.93 23.154L451.512 22.314C450.826 20.802 449.692 20.06 447.942 20.06C445.366 20.06 443.728 21.894 443.728 25.184C443.728 28.474 445.366 30.168 447.942 30.168ZM455.936 30V28.572H454.97V19.64H453.178V28.236C453.178 29.356 453.752 30 454.97 30H455.936ZM459.26 30.168C460.352 30.168 461.15 29.678 461.388 28.74H461.472C461.584 29.496 462.06 30 462.83 30H463.824V28.572H463.096V25.128C463.096 23.462 462.046 22.524 460.072 22.524C458.602 22.524 457.748 23.084 457.216 23.924L458.28 24.876C458.63 24.372 459.106 23.952 459.946 23.952C460.898 23.952 461.304 24.428 461.304 25.24V25.772H460.058C458.07 25.772 456.936 26.514 456.936 28.012C456.936 29.314 457.776 30.168 459.26 30.168ZM459.862 28.866C459.162 28.866 458.756 28.572 458.756 27.984V27.746C458.756 27.172 459.218 26.85 460.156 26.85H461.304V27.816C461.304 28.502 460.66 28.866 459.862 28.866ZM467.828 30.168C469.648 30.168 470.838 29.188 470.838 27.774C470.838 26.556 470.068 25.842 468.472 25.618L467.73 25.52C467.044 25.408 466.778 25.184 466.778 24.694C466.778 24.246 467.114 23.938 467.884 23.938C468.598 23.938 469.214 24.274 469.634 24.722L470.684 23.672C469.984 22.944 469.256 22.524 467.828 22.524C466.162 22.524 465.056 23.42 465.056 24.834C465.056 26.164 465.924 26.85 467.492 27.046L468.22 27.144C468.864 27.228 469.116 27.494 469.116 27.914C469.116 28.432 468.752 28.754 467.898 28.754C467.072 28.754 466.428 28.376 465.896 27.76L464.804 28.824C465.532 29.664 466.442 30.168 467.828 30.168ZM474.879 30.168C476.699 30.168 477.889 29.188 477.889 27.774C477.889 26.556 477.119 25.842 475.523 25.618L474.781 25.52C474.095 25.408 473.829 25.184 473.829 24.694C473.829 24.246 474.165 23.938 474.935 23.938C475.649 23.938 476.265 24.274 476.685 24.722L477.735 23.672C477.035 22.944 476.307 22.524 474.879 22.524C473.213 22.524 472.107 23.42 472.107 24.834C472.107 26.164 472.975 26.85 474.543 27.046L475.271 27.144C475.915 27.228 476.167 27.494 476.167 27.914C476.167 28.432 475.803 28.754 474.949 28.754C474.123 28.754 473.479 28.376 472.947 27.76L471.855 28.824C472.583 29.664 473.493 30.168 474.879 30.168ZM480.527 21.628C481.255 21.628 481.577 21.25 481.577 20.732V20.452C481.577 19.934 481.255 19.556 480.527 19.556C479.785 19.556 479.477 19.934 479.477 20.452V20.732C479.477 21.25 479.785 21.628 480.527 21.628ZM479.631 30H481.423V22.692H479.631V30ZM486.544 30.168C487.958 30.168 488.98 29.524 489.456 28.236L488.084 27.578C487.818 28.236 487.398 28.726 486.544 28.726C485.55 28.726 485.046 28.04 485.046 27.018V25.688C485.046 24.666 485.55 23.966 486.544 23.966C487.314 23.966 487.776 24.414 487.944 25.03L489.414 24.372C488.98 23.224 488.014 22.524 486.544 22.524C484.388 22.524 483.17 23.994 483.17 26.332C483.17 28.684 484.388 30.168 486.544 30.168ZM492.804 30.168C493.896 30.168 494.694 29.678 494.932 28.74H495.016C495.128 29.496 495.604 30 496.374 30H497.368V28.572H496.64V25.128C496.64 23.462 495.59 22.524 493.616 22.524C492.146 22.524 491.292 23.084 490.76 23.924L491.824 24.876C492.174 24.372 492.65 23.952 493.49 23.952C494.442 23.952 494.848 24.428 494.848 25.24V25.772H493.602C491.614 25.772 490.48 26.514 490.48 28.012C490.48 29.314 491.32 30.168 492.804 30.168ZM493.406 28.866C492.706 28.866 492.3 28.572 492.3 27.984V27.746C492.3 27.172 492.762 26.85 493.7 26.85H494.848V27.816C494.848 28.502 494.204 28.866 493.406 28.866ZM501.736 30V28.572H500.77V19.64H498.978V28.236C498.978 29.356 499.552 30 500.77 30H501.736Z" fill="black"/>
<path d="M166.448 30.98H164.95V30.07C166.98 29.678 168.24 27.984 168.24 25.114C168.24 21.81 166.56 20.06 163.984 20.06C161.422 20.06 159.728 21.81 159.728 25.114C159.728 28.068 161.086 29.79 163.214 30.112V30.7C163.214 31.834 163.802 32.492 165.09 32.492H166.448V30.98ZM163.984 28.53C162.584 28.53 161.688 27.536 161.688 25.87V24.358C161.688 22.692 162.584 21.698 163.984 21.698C165.384 21.698 166.28 22.692 166.28 24.358V25.87C166.28 27.536 165.384 28.53 163.984 28.53ZM174.531 30H176.323V22.692H174.531V27.522C174.531 28.306 173.817 28.684 173.103 28.684C172.249 28.684 171.871 28.138 171.871 27.13V22.692H170.079V27.312C170.079 29.132 170.919 30.168 172.417 30.168C173.621 30.168 174.209 29.51 174.461 28.782H174.531V30ZM180.359 30.168C181.451 30.168 182.249 29.678 182.487 28.74H182.571C182.683 29.496 183.159 30 183.929 30H184.923V28.572H184.195V25.128C184.195 23.462 183.145 22.524 181.171 22.524C179.701 22.524 178.847 23.084 178.315 23.924L179.379 24.876C179.729 24.372 180.205 23.952 181.045 23.952C181.997 23.952 182.403 24.428 182.403 25.24V25.772H181.157C179.169 25.772 178.035 26.514 178.035 28.012C178.035 29.314 178.875 30.168 180.359 30.168ZM180.961 28.866C180.261 28.866 179.855 28.572 179.855 27.984V27.746C179.855 27.172 180.317 26.85 181.255 26.85H182.403V27.816C182.403 28.502 181.759 28.866 180.961 28.866ZM188.326 30V25.17C188.326 24.386 189.04 23.994 189.782 23.994C190.636 23.994 190.986 24.526 190.986 25.562V30H192.778V25.38C192.778 23.56 191.938 22.524 190.44 22.524C189.306 22.524 188.69 23.126 188.396 23.91H188.326V22.692H186.534V30H188.326ZM197.206 30H198.494V28.572H197.108V24.12H198.606V22.692H197.108V20.69H195.498V21.936C195.498 22.44 195.33 22.692 194.798 22.692H194.238V24.12H195.316V28.138C195.316 29.328 195.974 30 197.206 30ZM204.688 30H206.48V22.692H204.688V27.522C204.688 28.306 203.974 28.684 203.26 28.684C202.406 28.684 202.028 28.138 202.028 27.13V22.692H200.236V27.312C200.236 29.132 201.076 30.168 202.574 30.168C203.778 30.168 204.366 29.51 204.618 28.782H204.688V30ZM210.503 30V25.17C210.503 24.386 211.175 23.994 211.861 23.994C212.659 23.994 213.037 24.512 213.037 25.562V30H214.829V25.17C214.829 24.386 215.487 23.994 216.187 23.994C216.985 23.994 217.363 24.512 217.363 25.562V30H219.155V25.38C219.155 23.56 218.343 22.524 216.915 22.524C215.753 22.524 214.941 23.182 214.675 23.994H214.647C214.297 23.014 213.527 22.524 212.533 22.524C211.441 22.524 210.853 23.14 210.573 23.91H210.503V22.692H208.711V30H210.503Z" fill="black"/>
<path d="M12.148 34H15.704C18.252 34 19.918 32.362 19.918 29.114C19.918 25.866 18.252 24.228 15.704 24.228H12.148V34ZM13.996 32.362V25.866H15.704C17.076 25.866 17.958 26.678 17.958 28.344V29.884C17.958 31.55 17.076 32.362 15.704 32.362H13.996ZM23.6543 34.168C24.7463 34.168 25.5443 33.678 25.7823 32.74H25.8663C25.9783 33.496 26.4543 34 27.2243 34H28.2183V32.572H27.4903V29.128C27.4903 27.462 26.4403 26.524 24.4663 26.524C22.9963 26.524 22.1423 27.084 21.6103 27.924L22.6743 28.876C23.0243 28.372 23.5003 27.952 24.3403 27.952C25.2923 27.952 25.6983 28.428 25.6983 29.24V29.772H24.4523C22.4643 29.772 21.3303 30.514 21.3303 32.012C21.3303 33.314 22.1703 34.168 23.6543 34.168ZM24.2563 32.866C23.5563 32.866 23.1503 32.572 23.1503 31.984V31.746C23.1503 31.172 23.6123 30.85 24.5503 30.85H25.6983V31.816C25.6983 32.502 25.0543 32.866 24.2563 32.866ZM32.056 34H33.344V32.572H31.958V28.12H33.456V26.692H31.958V24.69H30.348V25.936C30.348 26.44 30.18 26.692 29.648 26.692H29.088V28.12H30.166V32.138C30.166 33.328 30.824 34 32.056 34ZM36.9763 34.168C38.0683 34.168 38.8663 33.678 39.1043 32.74H39.1883C39.3003 33.496 39.7763 34 40.5463 34H41.5403V32.572H40.8123V29.128C40.8123 27.462 39.7623 26.524 37.7883 26.524C36.3183 26.524 35.4643 27.084 34.9323 27.924L35.9963 28.876C36.3463 28.372 36.8223 27.952 37.6623 27.952C38.6143 27.952 39.0203 28.428 39.0203 29.24V29.772H37.7743C35.7863 29.772 34.6523 30.514 34.6523 32.012C34.6523 33.314 35.4923 34.168 36.9763 34.168ZM37.5783 32.866C36.8783 32.866 36.4723 32.572 36.4723 31.984V31.746C36.4723 31.172 36.9343 30.85 37.8723 30.85H39.0203V31.816C39.0203 32.502 38.3763 32.866 37.5783 32.866ZM43.1506 36.8H44.9426V32.782H44.9986C45.2786 33.608 46.0486 34.168 47.0146 34.168C48.8626 34.168 49.8846 32.782 49.8846 30.332C49.8846 27.896 48.8626 26.524 47.0146 26.524C46.0486 26.524 45.2646 27.056 44.9986 27.896H44.9426V26.692H43.1506V36.8ZM46.4406 32.684C45.5866 32.684 44.9426 32.25 44.9426 31.494V29.17C44.9426 28.456 45.5866 27.994 46.4406 27.994C47.3646 27.994 48.0086 28.68 48.0086 29.716V30.976C48.0086 32.012 47.3646 32.684 46.4406 32.684ZM54.6031 34.168C56.7031 34.168 58.0051 32.684 58.0051 30.332C58.0051 27.994 56.7031 26.524 54.6031 26.524C52.5171 26.524 51.2151 27.994 51.2151 30.332C51.2151 32.684 52.5171 34.168 54.6031 34.168ZM54.6031 32.726C53.6791 32.726 53.0911 32.124 53.0911 31.018V29.66C53.0911 28.568 53.6791 27.966 54.6031 27.966C55.5411 27.966 56.1291 28.568 56.1291 29.66V31.018C56.1291 32.124 55.5411 32.726 54.6031 32.726ZM60.6498 25.628C61.3778 25.628 61.6998 25.25 61.6998 24.732V24.452C61.6998 23.934 61.3778 23.556 60.6498 23.556C59.9078 23.556 59.5998 23.934 59.5998 24.452V24.732C59.5998 25.25 59.9078 25.628 60.6498 25.628ZM59.7538 34H61.5458V26.692H59.7538V34ZM65.575 34V29.17C65.575 28.386 66.289 27.994 67.031 27.994C67.885 27.994 68.235 28.526 68.235 29.562V34H70.027V29.38C70.027 27.56 69.187 26.524 67.689 26.524C66.555 26.524 65.939 27.126 65.645 27.91H65.575V26.692H63.783V34H65.575ZM74.4554 34H75.7434V32.572H74.3574V28.12H75.8554V26.692H74.3574V24.69H72.7474V25.936C72.7474 26.44 72.5794 26.692 72.0474 26.692H71.4874V28.12H72.5654V32.138C72.5654 33.328 73.2234 34 74.4554 34ZM79.9638 34.168C81.7838 34.168 82.9738 33.188 82.9738 31.774C82.9738 30.556 82.2038 29.842 80.6078 29.618L79.8658 29.52C79.1798 29.408 78.9138 29.184 78.9138 28.694C78.9138 28.246 79.2498 27.938 80.0198 27.938C80.7338 27.938 81.3498 28.274 81.7698 28.722L82.8198 27.672C82.1198 26.944 81.3918 26.524 79.9638 26.524C78.2978 26.524 77.1918 27.42 77.1918 28.834C77.1918 30.164 78.0598 30.85 79.6278 31.046L80.3558 31.144C80.9998 31.228 81.2518 31.494 81.2518 31.914C81.2518 32.432 80.8878 32.754 80.0338 32.754C79.2078 32.754 78.5638 32.376 78.0318 31.76L76.9398 32.824C77.6678 33.664 78.5778 34.168 79.9638 34.168Z" fill="black"/>
<path d="M253.642 178H254.762V170.776H253.642V175.774C253.642 176.726 252.774 177.16 251.892 177.16C250.814 177.16 250.24 176.502 250.24 175.214V170.776H249.12V175.41C249.12 177.16 250.072 178.168 251.556 178.168C252.76 178.168 253.306 177.51 253.586 176.824H253.642V178ZM257.307 180.8H258.427V176.824H258.483C258.917 177.72 259.603 178.168 260.597 178.168C262.403 178.168 263.537 176.698 263.537 174.388C263.537 172.078 262.403 170.608 260.597 170.608C259.603 170.608 258.861 171.042 258.483 171.952H258.427V170.776H257.307V180.8ZM260.289 177.16C259.267 177.16 258.427 176.628 258.427 175.69V173.002C258.427 172.204 259.267 171.616 260.289 171.616C261.549 171.616 262.333 172.484 262.333 173.772V175.004C262.333 176.292 261.549 177.16 260.289 177.16ZM270.208 178H271.328V167.64H270.208V171.952H270.152C269.774 171.042 269.032 170.608 268.038 170.608C266.232 170.608 265.098 172.078 265.098 174.388C265.098 176.698 266.232 178.168 268.038 178.168C269.032 178.168 269.718 177.72 270.152 176.824H270.208V178ZM268.346 177.16C267.086 177.16 266.302 176.292 266.302 175.004V173.772C266.302 172.484 267.086 171.616 268.346 171.616C269.368 171.616 270.208 172.204 270.208 173.002V175.69C270.208 176.628 269.368 177.16 268.346 177.16ZM279.749 178V177.02H278.923V173.044C278.923 171.518 277.887 170.608 276.151 170.608C274.849 170.608 273.981 171.252 273.589 172.022L274.261 172.652C274.653 171.994 275.227 171.574 276.095 171.574C277.243 171.574 277.803 172.134 277.803 173.156V173.87H276.375C274.275 173.87 273.295 174.626 273.295 175.984C273.295 177.328 274.191 178.168 275.717 178.168C276.725 178.168 277.495 177.706 277.803 176.824H277.873C277.957 177.496 278.293 178 279.119 178H279.749ZM275.899 177.216C275.031 177.216 274.471 176.81 274.471 176.096V175.802C274.471 175.102 275.045 174.71 276.319 174.71H277.803V175.9C277.803 176.642 277.005 177.216 275.899 177.216ZM284.504 178V177.02H283.034V171.756H284.616V170.776H283.034V168.774H282.026V170.118C282.026 170.608 281.872 170.776 281.396 170.776H280.724V171.756H281.914V176.81C281.914 177.51 282.334 178 283.104 178H284.504ZM289.237 178.168C290.595 178.168 291.631 177.496 292.093 176.516L291.295 175.942C290.917 176.74 290.217 177.188 289.307 177.188C287.963 177.188 287.165 176.25 287.165 175.004V174.668H292.359V174.136C292.359 172.092 291.169 170.608 289.237 170.608C287.277 170.608 285.989 172.092 285.989 174.388C285.989 176.684 287.277 178.168 289.237 178.168ZM289.237 171.546C290.385 171.546 291.155 172.4 291.155 173.674V173.828H287.165V173.73C287.165 172.47 288.019 171.546 289.237 171.546Z" fill="black"/>
<path d="M102.31 178V173.1C102.31 172.414 103.038 171.896 104.242 171.896H104.9V170.776H104.466C103.29 170.776 102.632 171.42 102.38 172.106H102.31V170.776H101.19V178H102.31ZM109.138 178.168C110.496 178.168 111.532 177.496 111.994 176.516L111.196 175.942C110.818 176.74 110.118 177.188 109.208 177.188C107.864 177.188 107.066 176.25 107.066 175.004V174.668H112.26V174.136C112.26 172.092 111.07 170.608 109.138 170.608C107.178 170.608 105.89 172.092 105.89 174.388C105.89 176.684 107.178 178.168 109.138 178.168ZM109.138 171.546C110.286 171.546 111.056 172.4 111.056 173.674V173.828H107.066V173.73C107.066 172.47 107.92 171.546 109.138 171.546ZM115.386 178V173.1C115.386 172.414 116.114 171.896 117.318 171.896H117.976V170.776H117.542C116.366 170.776 115.708 171.42 115.456 172.106H115.386V170.776H114.266V178H115.386ZM124.018 178H125.138V170.776H124.018V175.774C124.018 176.726 123.15 177.16 122.268 177.16C121.19 177.16 120.616 176.502 120.616 175.214V170.776H119.496V175.41C119.496 177.16 120.448 178.168 121.932 178.168C123.136 178.168 123.682 177.51 123.962 176.824H124.018V178ZM128.804 178V172.988C128.804 172.064 129.672 171.616 130.568 171.616C131.646 171.616 132.206 172.274 132.206 173.562V178H133.326V173.366C133.326 171.616 132.388 170.608 130.904 170.608C129.826 170.608 129.21 171.14 128.86 171.952H128.804V170.776H127.684V178H128.804Z" fill="black"/>
<path d="M417 74L421 72.5L417 71V74Z" fill="#343A3F"/>
<line x1="417" y1="72.5" x2="393" y2="72.5" stroke="#343A3F"/>
<path d="M320 74L324 72.5L320 71V74Z" fill="#343A3F"/>
<line x1="320" y1="72.5" x2="296" y2="72.5" stroke="#343A3F"/>
<path d="M100 74L104 72.5L100 71V74Z" fill="#343A3F"/>
<line x1="100" y1="72.5" x2="84" y2="72.5" stroke="#343A3F"/>
<path d="M242.5 166L241 162L239.5 166H242.5Z" fill="#343A3F"/>
<line x1="241" y1="166" x2="241" y2="182" stroke="#343A3F"/>
<path d="M525 185.5L521 187L525 188.5L525 185.5Z" fill="#343A3F"/>
<line x1="525" y1="187" x2="530" y2="187" stroke="#343A3F"/>
<path d="M348.962 78.932V78.05H347.632V74.55C347.632 73.668 347.086 72.912 346.302 72.758V72.534C347.086 72.38 347.632 71.624 347.632 70.742V67.242H348.962V66.36H347.786C347.044 66.36 346.666 66.864 346.666 67.508V70.868C346.666 71.666 346.092 72.1 345.308 72.1V73.192C346.092 73.192 346.666 73.626 346.666 74.424V77.784C346.666 78.428 347.044 78.932 347.786 78.932H348.962ZM364.673 66.36V67.242H366.003V70.742C366.003 71.624 366.549 72.38 367.333 72.534V72.758C366.549 72.912 366.003 73.668 366.003 74.55V78.05H364.673V78.932H365.849C366.591 78.932 366.969 78.428 366.969 77.784V74.424C366.969 73.626 367.543 73.192 368.327 73.192V72.1C367.543 72.1 366.969 71.666 366.969 70.868V67.508C366.969 66.864 366.591 66.36 365.849 66.36H364.673Z" fill="black"/>
<path d="M38.962 78.932V78.05H37.632V74.55C37.632 73.668 37.086 72.912 36.302 72.758V72.534C37.086 72.38 37.632 71.624 37.632 70.742V67.242H38.962V66.36H37.786C37.044 66.36 36.666 66.864 36.666 67.508V70.868C36.666 71.666 36.092 72.1 35.308 72.1V73.192C36.092 73.192 36.666 73.626 36.666 74.424V77.784C36.666 78.428 37.044 78.932 37.786 78.932H38.962ZM54.6732 66.36V67.242H56.0032V70.742C56.0032 71.624 56.5492 72.38 57.3332 72.534V72.758C56.5492 72.912 56.0032 73.668 56.0032 74.55V78.05H54.6732V78.932H55.8492C56.5912 78.932 56.9692 78.428 56.9692 77.784V74.424C56.9692 73.626 57.5432 73.192 58.3272 73.192V72.1C57.5432 72.1 56.9692 71.666 56.9692 70.868V67.508C56.9692 66.864 56.5912 66.36 55.8492 66.36H54.6732Z" fill="black"/>
<path d="M422 187H398.433H98C95.2386 187 93 184.761 93 182V73.4375V72" stroke="#343A3F"/>
<path d="M416 187H246C243.239 187 241 184.761 241 182V174" stroke="#343A3F"/>
<path d="M360.126 70.6252L360.463 70.2884C361.107 69.6296 361.649 69.4685 362.161 69.4246C362.322 69.41 362.454 69.3953 362.454 69.1464C362.454 69 362.307 69 362.278 69C362.102 69 361.912 69.0293 361.736 69.0293H361.136C360.712 69.0293 360.258 69 359.848 69C359.745 69 359.584 69 359.584 69.2782C359.584 69.41 359.731 69.4246 359.775 69.4246C360.214 69.4539 360.214 69.6735 360.214 69.7613C360.214 69.9224 360.097 70.142 359.804 70.4788L356.319 74.4758L354.665 70.0249C354.577 69.8199 354.577 69.7906 354.577 69.7613C354.577 69.4539 355.177 69.4246 355.353 69.4246C355.529 69.4246 355.69 69.4246 355.69 69.1611C355.69 69 355.558 69 355.47 69C355.221 69 354.928 69.0293 354.679 69.0293H353.054C352.791 69.0293 352.512 69 352.264 69C352.161 69 352 69 352 69.2782C352 69.4246 352.132 69.4246 352.351 69.4246C353.069 69.4246 353.201 69.5564 353.332 69.8931L355.148 74.7687C355.163 74.8126 355.206 74.9736 355.206 75.0176C355.206 75.0615 354.489 77.9458 354.445 78.0922C354.328 78.4876 354.182 78.5608 353.245 78.5754C352.996 78.5754 352.878 78.5754 352.878 78.8536C352.878 79 353.04 79 353.083 79C353.347 79 353.654 78.9707 353.933 78.9707H355.66C355.924 78.9707 356.231 79 356.495 79C356.597 79 356.773 79 356.773 78.7365C356.773 78.5754 356.671 78.5754 356.422 78.5754C355.514 78.5754 355.514 78.4729 355.514 78.3119C355.514 78.2094 355.631 77.7408 355.704 77.448L356.231 75.3397C356.319 75.0322 356.319 75.0029 356.451 74.8565L360.126 70.6252Z" fill="black"/>
<path d="M361 66.7612L357.688 64H356.312L353 66.7612L353.976 67L356.968 64.5522H357.032L360.024 67L361 66.7612Z" fill="black"/>
<path d="M239.46 120.936C239.798 120.364 240.12 119.822 241 119.734C241.132 119.719 241.264 119.704 241.264 119.47C241.264 119.309 241.132 119.309 241.088 119.309C241.058 119.309 240.956 119.338 239.988 119.338C239.548 119.338 239.094 119.309 238.669 119.309C238.581 119.309 238.405 119.309 238.405 119.587C238.405 119.719 238.522 119.734 238.61 119.734C238.903 119.748 239.372 119.836 239.372 120.291C239.372 120.481 239.314 120.584 239.167 120.833L235.165 127.84L234.638 120.203C234.638 120.027 234.799 119.748 235.62 119.734C235.81 119.734 235.957 119.734 235.957 119.455C235.957 119.309 235.81 119.309 235.737 119.309C235.224 119.309 234.681 119.338 234.154 119.338H233.391C233.172 119.338 232.908 119.309 232.688 119.309C232.6 119.309 232.424 119.309 232.424 119.587C232.424 119.734 232.527 119.734 232.776 119.734C233.45 119.734 233.45 119.748 233.509 120.643L233.553 121.17L229.756 127.84L229.214 120.276C229.214 120.115 229.214 119.748 230.21 119.734C230.372 119.734 230.533 119.734 230.533 119.47C230.533 119.309 230.401 119.309 230.313 119.309C229.8 119.309 229.258 119.338 228.73 119.338H227.968C227.748 119.338 227.484 119.309 227.264 119.309C227.176 119.309 227 119.309 227 119.587C227 119.734 227.117 119.734 227.323 119.734C228.011 119.734 228.026 119.822 228.055 120.291L228.7 129.292C228.715 129.541 228.73 129.629 228.906 129.629C229.052 129.629 229.082 129.57 229.214 129.35L233.582 121.713L234.124 129.292C234.139 129.541 234.154 129.629 234.33 129.629C234.476 129.629 234.52 129.555 234.638 129.35L239.46 120.936Z" fill="white"/>
<path d="M246.533 132.883C246.533 132.839 246.533 132.81 246.284 132.56C244.818 131.08 243.997 128.661 243.997 125.67C243.997 122.827 244.686 120.378 246.386 118.649C246.533 118.517 246.533 118.487 246.533 118.443C246.533 118.355 246.459 118.326 246.401 118.326C246.21 118.326 245.008 119.382 244.29 120.818C243.542 122.299 243.205 123.867 243.205 125.67C243.205 126.975 243.41 128.72 244.173 130.288C245.037 132.047 246.24 133 246.401 133C246.459 133 246.533 132.971 246.533 132.883Z" fill="white"/>
<path d="M255.217 116.7C255.041 116.862 254.498 117.375 254.498 117.58C254.498 117.727 254.63 117.859 254.777 117.859C254.909 117.859 254.968 117.771 255.07 117.624C255.422 117.184 255.818 116.906 256.155 116.715C256.302 116.627 256.404 116.583 256.404 116.422C256.404 116.29 256.287 116.217 256.199 116.143C255.788 115.865 255.686 115.469 255.642 115.293C255.598 115.176 255.554 115 255.349 115C255.261 115 255.085 115.059 255.085 115.279C255.085 115.41 255.173 115.762 255.451 116.158H250.526C250.277 116.158 250.027 116.158 250.027 116.437C250.027 116.7 250.291 116.7 250.526 116.7H255.217Z" fill="white"/>
<path d="M253.843 121.947C253.843 120.451 253.374 119 252.172 119C250.12 119 247.936 123.295 247.936 126.52C247.936 127.195 248.082 129.467 249.621 129.467C251.615 129.467 253.843 125.274 253.843 121.947ZM249.401 124.013C249.621 123.149 249.929 121.917 250.516 120.876C250.999 119.997 251.512 119.293 252.157 119.293C252.641 119.293 252.964 119.704 252.964 121.111C252.964 121.639 252.92 122.372 252.495 124.013H249.401ZM252.392 124.453C252.026 125.89 251.718 126.813 251.19 127.737C250.765 128.485 250.252 129.174 249.636 129.174C249.182 129.174 248.815 128.822 248.815 127.37C248.815 126.418 249.05 125.421 249.284 124.453H252.392Z" fill="white"/>
<path d="M258.572 125.67C258.572 124.556 258.425 122.739 257.604 121.038C256.739 119.279 255.537 118.326 255.376 118.326C255.317 118.326 255.244 118.355 255.244 118.443C255.244 118.487 255.244 118.517 255.493 118.766C256.959 120.247 257.78 122.665 257.78 125.656C257.78 128.5 257.091 130.948 255.391 132.678C255.244 132.81 255.244 132.839 255.244 132.883C255.244 132.971 255.317 133 255.376 133C255.567 133 256.769 131.945 257.487 130.508C258.235 129.013 258.572 127.43 258.572 125.67Z" fill="white"/>
<path d="M51.8883 65.8975C51.692 66.0774 51.0868 66.6499 51.0868 66.879C51.0868 67.0425 51.234 67.1898 51.3975 67.1898C51.5448 67.1898 51.6102 67.0916 51.7247 66.928C52.1173 66.4373 52.5589 66.1265 52.9352 65.9139C53.0987 65.8157 53.2133 65.7666 53.2133 65.5867C53.2133 65.4395 53.0824 65.3577 52.9842 65.2759C52.5262 64.9651 52.4117 64.5234 52.3627 64.3272C52.3136 64.1963 52.2645 64 52.0355 64C51.9374 64 51.7411 64.0654 51.7411 64.3108C51.7411 64.458 51.8392 64.8506 52.15 65.2923H46.6538C46.3757 65.2923 46.0977 65.2923 46.0977 65.6031C46.0977 65.8975 46.3921 65.8975 46.6538 65.8975H51.8883Z" fill="black"/>
<path d="M47.8909 73.0294C47.4493 71.6717 47.5474 71.8025 47.1385 70.6575C46.6314 69.2507 46.5005 69.1362 46.2715 68.9072C45.9771 68.6455 45.4209 68.4492 44.8484 68.4492C43.9324 68.4492 43.4907 69.2998 43.4907 69.5125C43.4907 69.6106 43.5725 69.6597 43.6707 69.6597C43.8015 69.6597 43.8342 69.5779 43.8506 69.5125C44.096 68.8745 44.6031 68.7764 44.7503 68.7764C45.2246 68.7764 45.6827 69.9541 45.9771 70.7393C46.3697 71.7371 46.566 72.4241 47.0076 74.0108L43.1472 78.3947C43 78.5746 43 78.6401 43 78.6564C43 78.7873 43.0818 78.82 43.1472 78.82C43.2127 78.82 43.2617 78.7873 43.3108 78.7382C43.7688 78.2802 44.783 77.0697 45.2083 76.579L47.1058 74.4198C47.9073 76.9389 47.9073 76.9716 48.1527 77.5768C48.4144 78.1984 48.7579 78.9999 50.1483 78.9999C51.0807 78.9999 51.506 78.1657 51.506 77.9367C51.506 77.8222 51.4079 77.7895 51.3261 77.7895C51.1952 77.7895 51.1788 77.8549 51.1298 77.9858C50.9498 78.4438 50.5245 78.6728 50.2628 78.6728C50.0502 78.6728 49.7884 78.6728 49.0687 76.8571C48.6434 75.7611 48.2672 74.4525 47.9891 73.4383L51.8659 69.0217C51.9967 68.8745 52.0131 68.8582 52.0131 68.7927C52.0131 68.6782 51.9313 68.6292 51.8495 68.6292C51.8004 68.6292 51.7514 68.6292 51.5878 68.8091L47.8909 73.0294Z" fill="black"/>
</svg>
