<svg xmlns="http://www.w3.org/2000/svg" width="576" height="192" fill="none" viewBox="0 0 576 192"><rect width="192" height="192" fill="#F2F4F8" opacity=".4"/><rect width="192" height="192" x="384" fill="#F2F4F8" opacity=".4"/><rect width="575" height="191" x=".5" y=".5" stroke="#DDE1E6"/><line x1="192.5" x2="192.5" y1="40" y2="181" stroke="#C1C7CD" stroke-dasharray="2 2"/><line x1="384.5" x2="384.5" y1="40" y2="181" stroke="#C1C7CD" stroke-dasharray="2 2"/><path fill="#121619" d="M19.324 165.144C18.892 165.144 18.504 165.068 18.16 164.916C17.816 164.764 17.524 164.548 17.284 164.268C17.052 163.988 16.872 163.648 16.744 163.248C16.624 162.848 16.564 162.4 16.564 161.904C16.564 161.408 16.624 160.96 16.744 160.56C16.872 160.16 17.052 159.82 17.284 159.54C17.524 159.26 17.816 159.044 18.16 158.892C18.504 158.74 18.892 158.664 19.324 158.664C19.94 158.664 20.432 158.8 20.8 159.072C21.176 159.336 21.456 159.684 21.64 160.116L20.836 160.524C20.724 160.204 20.54 159.956 20.284 159.78C20.028 159.604 19.708 159.516 19.324 159.516C19.036 159.516 18.784 159.564 18.568 159.66C18.352 159.748 18.172 159.876 18.028 160.044C17.884 160.204 17.776 160.4 17.704 160.632C17.632 160.856 17.596 161.104 17.596 161.376V162.432C17.596 162.976 17.74 163.424 18.028 163.776C18.324 164.12 18.756 164.292 19.324 164.292C20.1 164.292 20.66 163.932 21.004 163.212L21.7 163.68C21.5 164.128 21.2 164.484 20.8 164.748C20.408 165.012 19.916 165.144 19.324 165.144Z"/><path fill="#121619" d="M20.98 138.992H20.932C20.556 139.76 19.952 140.144 19.12 140.144C18.736 140.144 18.388 140.068 18.076 139.916C17.764 139.764 17.496 139.548 17.272 139.268C17.056 138.988 16.888 138.648 16.768 138.248C16.656 137.848 16.6 137.4 16.6 136.904C16.6 136.408 16.656 135.96 16.768 135.56C16.888 135.16 17.056 134.82 17.272 134.54C17.496 134.26 17.764 134.044 18.076 133.892C18.388 133.74 18.736 133.664 19.12 133.664C19.552 133.664 19.92 133.76 20.224 133.952C20.536 134.136 20.772 134.424 20.932 134.816H20.98V133.808H21.94V142.4H20.98V138.992ZM19.384 139.28C19.6 139.28 19.804 139.252 19.996 139.196C20.196 139.14 20.368 139.06 20.512 138.956C20.656 138.844 20.768 138.712 20.848 138.56C20.936 138.4 20.98 138.22 20.98 138.02V135.716C20.98 135.548 20.936 135.392 20.848 135.248C20.768 135.096 20.656 134.968 20.512 134.864C20.368 134.76 20.196 134.68 19.996 134.624C19.804 134.56 19.6 134.528 19.384 134.528C18.84 134.528 18.412 134.7 18.1 135.044C17.788 135.38 17.632 135.824 17.632 136.376V137.432C17.632 137.984 17.788 138.432 18.1 138.776C18.412 139.112 18.84 139.28 19.384 139.28ZM26.4129 135.176C26.9809 135.176 27.4049 135.048 27.6849 134.792C27.9729 134.528 28.1169 134.192 28.1169 133.784V133.7C28.1169 133.26 27.9769 132.932 27.6969 132.716C27.4249 132.492 27.0649 132.38 26.6169 132.38C26.1849 132.38 25.8329 132.476 25.5609 132.668C25.2889 132.852 25.0649 133.104 24.8889 133.424L24.1449 132.848C24.2489 132.68 24.3729 132.516 24.5169 132.356C24.6689 132.188 24.8449 132.04 25.0449 131.912C25.2449 131.784 25.4769 131.68 25.7409 131.6C26.0049 131.52 26.3049 131.48 26.6409 131.48C26.9929 131.48 27.3249 131.528 27.6369 131.624C27.9489 131.712 28.2169 131.848 28.4409 132.032C28.6729 132.208 28.8529 132.428 28.9809 132.692C29.1169 132.956 29.1849 133.256 29.1849 133.592C29.1849 133.864 29.1409 134.108 29.0529 134.324C28.9729 134.54 28.8609 134.728 28.7169 134.888C28.5729 135.048 28.4009 135.184 28.2009 135.296C28.0089 135.408 27.8009 135.492 27.5769 135.548V135.596C27.8009 135.644 28.0169 135.724 28.2249 135.836C28.4409 135.94 28.6289 136.08 28.7889 136.256C28.9569 136.424 29.0889 136.632 29.1849 136.88C29.2889 137.12 29.3409 137.396 29.3409 137.708C29.3409 138.068 29.2729 138.4 29.1369 138.704C29.0009 139 28.8089 139.256 28.5609 139.472C28.3129 139.68 28.0129 139.844 27.6609 139.964C27.3089 140.084 26.9209 140.144 26.4969 140.144C26.1369 140.144 25.8169 140.104 25.5369 140.024C25.2569 139.944 25.0089 139.836 24.7929 139.7C24.5769 139.564 24.3849 139.412 24.2169 139.244C24.0569 139.076 23.9129 138.9 23.7849 138.716L24.5409 138.14C24.6449 138.308 24.7569 138.46 24.8769 138.596C25.0049 138.732 25.1449 138.848 25.2969 138.944C25.4489 139.04 25.6209 139.116 25.8129 139.172C26.0049 139.22 26.2289 139.244 26.4849 139.244C27.0769 139.244 27.5249 139.112 27.8289 138.848C28.1329 138.576 28.2849 138.192 28.2849 137.696V137.6C28.2849 137.104 28.1329 136.724 27.8289 136.46C27.5249 136.188 27.0769 136.052 26.4849 136.052H25.5009V135.176H26.4129Z"/><path fill="#161616" d="M426.4 158.096C427.736 158.096 428.32 157.032 428.32 155.208C428.32 153.384 427.736 152.32 426.4 152.32C425.064 152.32 424.48 153.384 424.48 155.208C424.48 157.032 425.064 158.096 426.4 158.096ZM426.4 157.512C425.528 157.512 425.184 156.744 425.184 155.664V154.752C425.184 153.672 425.528 152.904 426.4 152.904C427.272 152.904 427.616 153.672 427.616 154.752V155.664C427.616 156.744 427.272 157.512 426.4 157.512Z"/><path fill="#161616" d="M454.376 158V157.408H452.936V152.416H452.2L450.424 153.448L450.688 153.96L452.264 153.024V157.408H450.704V158H454.376Z"/><path fill="#121619" d="M20.98 115.992H20.932C20.556 116.76 19.952 117.144 19.12 117.144C18.736 117.144 18.388 117.068 18.076 116.916C17.764 116.764 17.496 116.548 17.272 116.268C17.056 115.988 16.888 115.648 16.768 115.248C16.656 114.848 16.6 114.4 16.6 113.904C16.6 113.408 16.656 112.96 16.768 112.56C16.888 112.16 17.056 111.82 17.272 111.54C17.496 111.26 17.764 111.044 18.076 110.892C18.388 110.74 18.736 110.664 19.12 110.664C19.552 110.664 19.92 110.76 20.224 110.952C20.536 111.136 20.772 111.424 20.932 111.816H20.98V110.808H21.94V119.4H20.98V115.992ZM19.384 116.28C19.6 116.28 19.804 116.252 19.996 116.196C20.196 116.14 20.368 116.06 20.512 115.956C20.656 115.844 20.768 115.712 20.848 115.56C20.936 115.4 20.98 115.22 20.98 115.02V112.716C20.98 112.548 20.936 112.392 20.848 112.248C20.768 112.096 20.656 111.968 20.512 111.864C20.368 111.76 20.196 111.68 19.996 111.624C19.804 111.56 19.6 111.528 19.384 111.528C18.84 111.528 18.412 111.7 18.1 112.044C17.788 112.38 17.632 112.824 17.632 113.376V114.432C17.632 114.984 17.788 115.432 18.1 115.776C18.412 116.112 18.84 116.28 19.384 116.28ZM29.6769 117H24.1809V115.968L26.9169 113.448C27.3089 113.088 27.6369 112.708 27.9009 112.308C28.1649 111.9 28.2969 111.492 28.2969 111.084V110.94C28.2969 110.476 28.1689 110.1 27.9129 109.812C27.6569 109.524 27.2689 109.38 26.7489 109.38C26.4929 109.38 26.2689 109.416 26.0769 109.488C25.8849 109.56 25.7169 109.66 25.5729 109.788C25.4369 109.916 25.3209 110.068 25.2249 110.244C25.1369 110.412 25.0649 110.596 25.0089 110.796L24.1089 110.448C24.1889 110.2 24.2969 109.96 24.4329 109.728C24.5769 109.488 24.7529 109.276 24.9609 109.092C25.1769 108.908 25.4329 108.76 25.7289 108.648C26.0329 108.536 26.3889 108.48 26.7969 108.48C27.2049 108.48 27.5689 108.54 27.8889 108.66C28.2089 108.78 28.4769 108.948 28.6929 109.164C28.9089 109.38 29.0729 109.636 29.1849 109.932C29.3049 110.228 29.3649 110.556 29.3649 110.916C29.3649 111.244 29.3169 111.548 29.2209 111.828C29.1329 112.108 29.0089 112.376 28.8489 112.632C28.6889 112.88 28.4929 113.124 28.2609 113.364C28.0369 113.604 27.7929 113.844 27.5289 114.084L25.2729 116.112H29.6769V117Z"/><path fill="#121619" d="M20.98 91.992H20.932C20.556 92.76 19.952 93.144 19.12 93.144C18.736 93.144 18.388 93.068 18.076 92.916C17.764 92.764 17.496 92.548 17.272 92.268C17.056 91.988 16.888 91.648 16.768 91.248C16.656 90.848 16.6 90.4 16.6 89.904C16.6 89.408 16.656 88.96 16.768 88.56C16.888 88.16 17.056 87.82 17.272 87.54C17.496 87.26 17.764 87.044 18.076 86.892C18.388 86.74 18.736 86.664 19.12 86.664C19.552 86.664 19.92 86.76 20.224 86.952C20.536 87.136 20.772 87.424 20.932 87.816H20.98V86.808H21.94V95.4H20.98V91.992ZM19.384 92.28C19.6 92.28 19.804 92.252 19.996 92.196C20.196 92.14 20.368 92.06 20.512 91.956C20.656 91.844 20.768 91.712 20.848 91.56C20.936 91.4 20.98 91.22 20.98 91.02V88.716C20.98 88.548 20.936 88.392 20.848 88.248C20.768 88.096 20.656 87.968 20.512 87.864C20.368 87.76 20.196 87.68 19.996 87.624C19.804 87.56 19.6 87.528 19.384 87.528C18.84 87.528 18.412 87.7 18.1 88.044C17.788 88.38 17.632 88.824 17.632 89.376V90.432C17.632 90.984 17.788 91.432 18.1 91.776C18.412 92.112 18.84 92.28 19.384 92.28ZM24.3369 93V92.112H26.6769V85.368H26.5929L24.4809 87.336L23.8929 86.7L26.1129 84.624H27.6849V92.112H29.8449V93H24.3369Z"/><path fill="#121619" d="M20.98 67.992H20.932C20.556 68.76 19.952 69.144 19.12 69.144C18.736 69.144 18.388 69.068 18.076 68.916C17.764 68.764 17.496 68.548 17.272 68.268C17.056 67.988 16.888 67.648 16.768 67.248C16.656 66.848 16.6 66.4 16.6 65.904C16.6 65.408 16.656 64.96 16.768 64.56C16.888 64.16 17.056 63.82 17.272 63.54C17.496 63.26 17.764 63.044 18.076 62.892C18.388 62.74 18.736 62.664 19.12 62.664C19.552 62.664 19.92 62.76 20.224 62.952C20.536 63.136 20.772 63.424 20.932 63.816H20.98V62.808H21.94V71.4H20.98V67.992ZM19.384 68.28C19.6 68.28 19.804 68.252 19.996 68.196C20.196 68.14 20.368 68.06 20.512 67.956C20.656 67.844 20.768 67.712 20.848 67.56C20.936 67.4 20.98 67.22 20.98 67.02V64.716C20.98 64.548 20.936 64.392 20.848 64.248C20.768 64.096 20.656 63.968 20.512 63.864C20.368 63.76 20.196 63.68 19.996 63.624C19.804 63.56 19.6 63.528 19.384 63.528C18.84 63.528 18.412 63.7 18.1 64.044C17.788 64.38 17.632 64.824 17.632 65.376V66.432C17.632 66.984 17.788 67.432 18.1 67.776C18.412 68.112 18.84 68.28 19.384 68.28ZM26.8809 69.144C25.8809 69.144 25.1489 68.764 24.6849 68.004C24.2289 67.244 24.0009 66.18 24.0009 64.812C24.0009 63.444 24.2289 62.38 24.6849 61.62C25.1489 60.86 25.8809 60.48 26.8809 60.48C27.8809 60.48 28.6089 60.86 29.0649 61.62C29.5289 62.38 29.7609 63.444 29.7609 64.812C29.7609 66.18 29.5289 67.244 29.0649 68.004C28.6089 68.764 27.8809 69.144 26.8809 69.144ZM26.8809 68.268C27.2089 68.268 27.4889 68.2 27.7209 68.064C27.9529 67.928 28.1409 67.736 28.2849 67.488C28.4289 67.24 28.5329 66.948 28.5969 66.612C28.6689 66.276 28.7049 65.904 28.7049 65.496V64.128C28.7049 63.72 28.6689 63.348 28.5969 63.012C28.5329 62.676 28.4289 62.384 28.2849 62.136C28.1409 61.888 27.9529 61.696 27.7209 61.56C27.4889 61.424 27.2089 61.356 26.8809 61.356C26.5529 61.356 26.2729 61.424 26.0409 61.56C25.8089 61.696 25.6209 61.888 25.4769 62.136C25.3329 62.384 25.2249 62.676 25.1529 63.012C25.0889 63.348 25.0569 63.72 25.0569 64.128V65.496C25.0569 65.904 25.0889 66.276 25.1529 66.612C25.2249 66.948 25.3329 67.24 25.4769 67.488C25.6209 67.736 25.8089 67.928 26.0409 68.064C26.2729 68.2 26.5529 68.268 26.8809 68.268Z"/><line x1="37" x2="560" y1="161.5" y2="161.5" stroke="#C1C7CD"/><line x1="37" x2="560" y1="163.5" y2="163.5" stroke="#C1C7CD"/><line x1="420.5" x2="420.5" y1="123" y2="162" stroke="#C1C7CD"/><line x1="418.5" x2="418.5" y1="123" y2="162" stroke="#C1C7CD"/><line x2="17" y1="-.5" y2="-.5" stroke="#C1C7CD" transform="matrix(1.41346e-06 1 -1 1.35178e-09 444 144)"/><line x2="17" y1="-.5" y2="-.5" stroke="#C1C7CD" transform="matrix(1.41346e-06 1 -1 1.35178e-09 442 144)"/><line x1="37" x2="560" y1="89.5" y2="89.5" stroke="#C1C7CD"/><line x1="37" x2="560" y1="137.5" y2="137.5" stroke="#C1C7CD"/><line x1="37" x2="560" y1="65.5" y2="65.5" stroke="#C1C7CD"/><line x1="37" x2="560" y1="113.5" y2="113.5" stroke="#C1C7CD"/><path fill="#121619" d="M397.148 20V10.228H403.588V11.866H398.996V14.232H403.056V15.87H398.996V18.362H403.588V20H397.148ZM404.821 20L407.313 16.29L404.877 12.692H406.921L408.433 15.114H408.489L409.987 12.692H411.891L409.413 16.318L411.905 20H409.861L408.321 17.48H408.265L406.725 20H404.821ZM415.648 20C415.032 20 414.56 19.8413 414.234 19.524C413.916 19.1973 413.758 18.7353 413.758 18.138V14.12H412.68V12.692H413.24C413.51 12.692 413.692 12.6313 413.786 12.51C413.888 12.3793 413.94 12.188 413.94 11.936V10.69H415.55V12.692H417.048V14.12H415.55V18.572H416.936V20H415.648ZM418.762 20V12.692H420.554V14.204H420.624C420.671 14.008 420.741 13.8213 420.834 13.644C420.937 13.4573 421.067 13.294 421.226 13.154C421.385 13.014 421.571 12.902 421.786 12.818C422.01 12.734 422.267 12.692 422.556 12.692H422.948V14.386H422.388C421.781 14.386 421.324 14.4747 421.016 14.652C420.708 14.8293 420.554 15.1187 420.554 15.52V20H418.762ZM429.644 20C429.252 20 428.939 19.888 428.706 19.664C428.482 19.4307 428.342 19.1227 428.286 18.74H428.202C428.08 19.216 427.833 19.5753 427.46 19.818C427.086 20.0513 426.624 20.168 426.074 20.168C425.327 20.168 424.753 19.972 424.352 19.58C423.95 19.188 423.75 18.6653 423.75 18.012C423.75 17.256 424.02 16.696 424.562 16.332C425.103 15.9587 425.873 15.772 426.872 15.772H428.118V15.24C428.118 14.8293 428.01 14.512 427.796 14.288C427.581 14.064 427.236 13.952 426.76 13.952C426.34 13.952 425.999 14.0453 425.738 14.232C425.486 14.4093 425.271 14.624 425.094 14.876L424.03 13.924C424.3 13.504 424.66 13.168 425.108 12.916C425.556 12.6547 426.148 12.524 426.886 12.524C427.875 12.524 428.626 12.748 429.14 13.196C429.653 13.644 429.91 14.288 429.91 15.128V18.572H430.638V20H429.644ZM426.676 18.866C427.077 18.866 427.418 18.7773 427.698 18.6C427.978 18.4227 428.118 18.1613 428.118 17.816V16.85H426.97C426.036 16.85 425.57 17.1487 425.57 17.746V17.984C425.57 18.2827 425.663 18.5067 425.85 18.656C426.046 18.796 426.321 18.866 426.676 18.866ZM435.132 20.168C434.591 20.168 434.11 20.0793 433.69 19.902C433.27 19.7247 432.915 19.468 432.626 19.132C432.346 18.796 432.131 18.3947 431.982 17.928C431.833 17.452 431.758 16.92 431.758 16.332C431.758 15.744 431.833 15.2167 431.982 14.75C432.131 14.2833 432.346 13.8867 432.626 13.56C432.915 13.224 433.27 12.9673 433.69 12.79C434.11 12.6127 434.591 12.524 435.132 12.524C435.869 12.524 436.476 12.6873 436.952 13.014C437.437 13.3407 437.787 13.7933 438.002 14.372L436.532 15.03C436.448 14.722 436.289 14.47 436.056 14.274C435.832 14.0687 435.524 13.966 435.132 13.966C434.628 13.966 434.25 14.1247 433.998 14.442C433.755 14.7593 433.634 15.1747 433.634 15.688V17.018C433.634 17.5313 433.755 17.9467 433.998 18.264C434.25 18.572 434.628 18.726 435.132 18.726C435.561 18.726 435.893 18.6187 436.126 18.404C436.359 18.18 436.541 17.9047 436.672 17.578L438.044 18.236C437.801 18.88 437.433 19.3653 436.938 19.692C436.443 20.0093 435.841 20.168 435.132 20.168ZM441.868 20C441.252 20 440.781 19.8413 440.454 19.524C440.137 19.1973 439.978 18.7353 439.978 18.138V14.12H438.9V12.692H439.46C439.731 12.692 439.913 12.6313 440.006 12.51C440.109 12.3793 440.16 12.188 440.16 11.936V10.69H441.77V12.692H443.268V14.12H441.77V18.572H443.156V20H441.868ZM451.349 20.168C450.826 20.168 450.355 20.0793 449.935 19.902C449.524 19.7247 449.169 19.468 448.871 19.132C448.581 18.796 448.357 18.3947 448.199 17.928C448.04 17.452 447.961 16.92 447.961 16.332C447.961 15.744 448.04 15.2167 448.199 14.75C448.357 14.2833 448.581 13.8867 448.871 13.56C449.169 13.224 449.524 12.9673 449.935 12.79C450.355 12.6127 450.826 12.524 451.349 12.524C451.871 12.524 452.343 12.6127 452.763 12.79C453.183 12.9673 453.537 13.224 453.827 13.56C454.125 13.8867 454.354 14.2833 454.513 14.75C454.671 15.2167 454.751 15.744 454.751 16.332C454.751 16.92 454.671 17.452 454.513 17.928C454.354 18.3947 454.125 18.796 453.827 19.132C453.537 19.468 453.183 19.7247 452.763 19.902C452.343 20.0793 451.871 20.168 451.349 20.168ZM451.349 18.726C451.825 18.726 452.198 18.5813 452.469 18.292C452.739 18.0027 452.875 17.578 452.875 17.018V15.66C452.875 15.1093 452.739 14.6893 452.469 14.4C452.198 14.1107 451.825 13.966 451.349 13.966C450.882 13.966 450.513 14.1107 450.243 14.4C449.972 14.6893 449.837 15.1093 449.837 15.66V17.018C449.837 17.578 449.972 18.0027 450.243 18.292C450.513 18.5813 450.882 18.726 451.349 18.726ZM460.867 18.782H460.797C460.732 18.9687 460.643 19.146 460.531 19.314C460.429 19.4727 460.293 19.6173 460.125 19.748C459.967 19.8787 459.771 19.9813 459.537 20.056C459.313 20.1307 459.052 20.168 458.753 20.168C457.997 20.168 457.419 19.9207 457.017 19.426C456.616 18.9313 456.415 18.2267 456.415 17.312V12.692H458.207V17.13C458.207 17.634 458.305 18.0213 458.501 18.292C458.697 18.5533 459.01 18.684 459.439 18.684C459.617 18.684 459.789 18.6607 459.957 18.614C460.135 18.5673 460.289 18.4973 460.419 18.404C460.55 18.3013 460.657 18.18 460.741 18.04C460.825 17.8907 460.867 17.718 460.867 17.522V12.692H462.659V20H460.867V18.782ZM467.172 20C466.556 20 466.085 19.8413 465.758 19.524C465.441 19.1973 465.282 18.7353 465.282 18.138V14.12H464.204V12.692H464.764C465.035 12.692 465.217 12.6313 465.31 12.51C465.413 12.3793 465.464 12.188 465.464 11.936V10.69H467.074V12.692H468.572V14.12H467.074V18.572H468.46V20H467.172ZM470.286 12.692H472.078V13.896H472.134C472.265 13.476 472.512 13.1447 472.876 12.902C473.24 12.65 473.665 12.524 474.15 12.524C475.084 12.524 475.793 12.8553 476.278 13.518C476.773 14.1713 477.02 15.1093 477.02 16.332C477.02 17.564 476.773 18.5113 476.278 19.174C475.793 19.8367 475.084 20.168 474.15 20.168C473.665 20.168 473.24 20.042 472.876 19.79C472.522 19.538 472.274 19.202 472.134 18.782H472.078V22.8H470.286V12.692ZM473.576 18.684C474.043 18.684 474.421 18.53 474.71 18.222C475 17.914 475.144 17.4987 475.144 16.976V15.716C475.144 15.1933 475 14.778 474.71 14.47C474.421 14.1527 474.043 13.994 473.576 13.994C473.147 13.994 472.788 14.1013 472.498 14.316C472.218 14.5307 472.078 14.8153 472.078 15.17V17.494C472.078 17.8767 472.218 18.1707 472.498 18.376C472.788 18.5813 473.147 18.684 473.576 18.684ZM483.209 18.782H483.139C483.073 18.9687 482.985 19.146 482.873 19.314C482.77 19.4727 482.635 19.6173 482.467 19.748C482.308 19.8787 482.112 19.9813 481.879 20.056C481.655 20.1307 481.393 20.168 481.095 20.168C480.339 20.168 479.76 19.9207 479.359 19.426C478.957 18.9313 478.757 18.2267 478.757 17.312V12.692H480.549V17.13C480.549 17.634 480.647 18.0213 480.843 18.292C481.039 18.5533 481.351 18.684 481.781 18.684C481.958 18.684 482.131 18.6607 482.299 18.614C482.476 18.5673 482.63 18.4973 482.761 18.404C482.891 18.3013 482.999 18.18 483.083 18.04C483.167 17.8907 483.209 17.718 483.209 17.522V12.692H485.001V20H483.209V18.782ZM489.513 20C488.897 20 488.426 19.8413 488.099 19.524C487.782 19.1973 487.623 18.7353 487.623 18.138V14.12H486.545V12.692H487.105C487.376 12.692 487.558 12.6313 487.651 12.51C487.754 12.3793 487.805 12.188 487.805 11.936V10.69H489.415V12.692H490.913V14.12H489.415V18.572H490.801V20H489.513Z"/><path fill="#121619" d="M200.148 10.228H203.704C204.339 10.228 204.913 10.3307 205.426 10.536C205.949 10.7413 206.392 11.0493 206.756 11.46C207.129 11.8613 207.414 12.37 207.61 12.986C207.815 13.5927 207.918 14.302 207.918 15.114C207.918 15.926 207.815 16.64 207.61 17.256C207.414 17.8627 207.129 18.3713 206.756 18.782C206.392 19.1833 205.949 19.4867 205.426 19.692C204.913 19.8973 204.339 20 203.704 20H200.148V10.228ZM203.704 18.362C204.395 18.362 204.941 18.1613 205.342 17.76C205.753 17.3493 205.958 16.724 205.958 15.884V14.344C205.958 13.504 205.753 12.8833 205.342 12.482C204.941 12.0713 204.395 11.866 203.704 11.866H201.996V18.362H203.704ZM212.746 20.168C212.224 20.168 211.752 20.0793 211.332 19.902C210.922 19.7247 210.567 19.468 210.268 19.132C209.979 18.796 209.755 18.3947 209.596 17.928C209.438 17.452 209.358 16.92 209.358 16.332C209.358 15.744 209.438 15.2167 209.596 14.75C209.755 14.2833 209.979 13.8867 210.268 13.56C210.567 13.224 210.922 12.9673 211.332 12.79C211.752 12.6127 212.224 12.524 212.746 12.524C213.269 12.524 213.74 12.6127 214.16 12.79C214.58 12.9673 214.935 13.224 215.224 13.56C215.523 13.8867 215.752 14.2833 215.91 14.75C216.069 15.2167 216.148 15.744 216.148 16.332C216.148 16.92 216.069 17.452 215.91 17.928C215.752 18.3947 215.523 18.796 215.224 19.132C214.935 19.468 214.58 19.7247 214.16 19.902C213.74 20.0793 213.269 20.168 212.746 20.168ZM212.746 18.726C213.222 18.726 213.596 18.5813 213.866 18.292C214.137 18.0027 214.272 17.578 214.272 17.018V15.66C214.272 15.1093 214.137 14.6893 213.866 14.4C213.596 14.1107 213.222 13.966 212.746 13.966C212.28 13.966 211.911 14.1107 211.64 14.4C211.37 14.6893 211.234 15.1093 211.234 15.66V17.018C211.234 17.578 211.37 18.0027 211.64 18.292C211.911 18.5813 212.28 18.726 212.746 18.726ZM224.264 20.168C223.741 20.168 223.27 20.0793 222.85 19.902C222.439 19.7247 222.084 19.468 221.786 19.132C221.496 18.796 221.272 18.3947 221.114 17.928C220.955 17.452 220.876 16.92 220.876 16.332C220.876 15.744 220.955 15.2167 221.114 14.75C221.272 14.2833 221.496 13.8867 221.786 13.56C222.084 13.224 222.439 12.9673 222.85 12.79C223.27 12.6127 223.741 12.524 224.264 12.524C224.786 12.524 225.258 12.6127 225.678 12.79C226.098 12.9673 226.452 13.224 226.742 13.56C227.04 13.8867 227.269 14.2833 227.428 14.75C227.586 15.2167 227.666 15.744 227.666 16.332C227.666 16.92 227.586 17.452 227.428 17.928C227.269 18.3947 227.04 18.796 226.742 19.132C226.452 19.468 226.098 19.7247 225.678 19.902C225.258 20.0793 224.786 20.168 224.264 20.168ZM224.264 18.726C224.74 18.726 225.113 18.5813 225.384 18.292C225.654 18.0027 225.79 17.578 225.79 17.018V15.66C225.79 15.1093 225.654 14.6893 225.384 14.4C225.113 14.1107 224.74 13.966 224.264 13.966C223.797 13.966 223.428 14.1107 223.158 14.4C222.887 14.6893 222.752 15.1093 222.752 15.66V17.018C222.752 17.578 222.887 18.0027 223.158 18.292C223.428 18.5813 223.797 18.726 224.264 18.726ZM229.414 12.692H231.206V13.896H231.262C231.393 13.476 231.64 13.1447 232.004 12.902C232.368 12.65 232.793 12.524 233.278 12.524C234.212 12.524 234.921 12.8553 235.406 13.518C235.901 14.1713 236.148 15.1093 236.148 16.332C236.148 17.564 235.901 18.5113 235.406 19.174C234.921 19.8367 234.212 20.168 233.278 20.168C232.793 20.168 232.368 20.042 232.004 19.79C231.65 19.538 231.402 19.202 231.262 18.782H231.206V22.8H229.414V12.692ZM232.704 18.684C233.171 18.684 233.549 18.53 233.838 18.222C234.128 17.914 234.272 17.4987 234.272 16.976V15.716C234.272 15.1933 234.128 14.778 233.838 14.47C233.549 14.1527 233.171 13.994 232.704 13.994C232.275 13.994 231.916 14.1013 231.626 14.316C231.346 14.5307 231.206 14.8153 231.206 15.17V17.494C231.206 17.8767 231.346 18.1707 231.626 18.376C231.916 18.5813 232.275 18.684 232.704 18.684ZM240.923 20.168C240.381 20.168 239.896 20.0793 239.467 19.902C239.047 19.7153 238.687 19.4587 238.389 19.132C238.099 18.796 237.875 18.3947 237.717 17.928C237.558 17.452 237.479 16.92 237.479 16.332C237.479 15.7533 237.553 15.2307 237.703 14.764C237.861 14.2973 238.085 13.9007 238.375 13.574C238.664 13.238 239.019 12.9813 239.439 12.804C239.859 12.6173 240.335 12.524 240.867 12.524C241.436 12.524 241.931 12.622 242.351 12.818C242.771 13.014 243.116 13.28 243.387 13.616C243.657 13.952 243.858 14.344 243.989 14.792C244.129 15.2307 244.199 15.702 244.199 16.206V16.794H239.341V16.976C239.341 17.508 239.49 17.9373 239.789 18.264C240.087 18.5813 240.531 18.74 241.119 18.74C241.567 18.74 241.931 18.6467 242.211 18.46C242.5 18.2733 242.757 18.0353 242.981 17.746L243.947 18.824C243.648 19.244 243.237 19.5753 242.715 19.818C242.201 20.0513 241.604 20.168 240.923 20.168ZM240.895 13.868C240.419 13.868 240.041 14.0267 239.761 14.344C239.481 14.6613 239.341 15.072 239.341 15.576V15.688H242.337V15.562C242.337 15.058 242.211 14.652 241.959 14.344C241.716 14.0267 241.361 13.868 240.895 13.868ZM245.935 20V12.692H247.727V14.204H247.797C247.844 14.008 247.914 13.8213 248.007 13.644C248.11 13.4573 248.241 13.294 248.399 13.154C248.558 13.014 248.745 12.902 248.959 12.818C249.183 12.734 249.44 12.692 249.729 12.692H250.121V14.386H249.561C248.955 14.386 248.497 14.4747 248.189 14.652C247.881 14.8293 247.727 15.1187 247.727 15.52V20H245.935ZM256.817 20C256.425 20 256.112 19.888 255.879 19.664C255.655 19.4307 255.515 19.1227 255.459 18.74H255.375C255.254 19.216 255.006 19.5753 254.633 19.818C254.26 20.0513 253.798 20.168 253.247 20.168C252.5 20.168 251.926 19.972 251.525 19.58C251.124 19.188 250.923 18.6653 250.923 18.012C250.923 17.256 251.194 16.696 251.735 16.332C252.276 15.9587 253.046 15.772 254.045 15.772H255.291V15.24C255.291 14.8293 255.184 14.512 254.969 14.288C254.754 14.064 254.409 13.952 253.933 13.952C253.513 13.952 253.172 14.0453 252.911 14.232C252.659 14.4093 252.444 14.624 252.267 14.876L251.203 13.924C251.474 13.504 251.833 13.168 252.281 12.916C252.729 12.6547 253.322 12.524 254.059 12.524C255.048 12.524 255.8 12.748 256.313 13.196C256.826 13.644 257.083 14.288 257.083 15.128V18.572H257.811V20H256.817ZM253.849 18.866C254.25 18.866 254.591 18.7773 254.871 18.6C255.151 18.4227 255.291 18.1613 255.291 17.816V16.85H254.143C253.21 16.85 252.743 17.1487 252.743 17.746V17.984C252.743 18.2827 252.836 18.5067 253.023 18.656C253.219 18.796 253.494 18.866 253.849 18.866ZM261.649 20C261.033 20 260.561 19.8413 260.235 19.524C259.917 19.1973 259.759 18.7353 259.759 18.138V14.12H258.681V12.692H259.241C259.511 12.692 259.693 12.6313 259.787 12.51C259.889 12.3793 259.941 12.188 259.941 11.936V10.69H261.551V12.692H263.049V14.12H261.551V18.572H262.937V20H261.649ZM265.659 11.628C265.286 11.628 265.015 11.544 264.847 11.376C264.688 11.208 264.609 10.9933 264.609 10.732V10.452C264.609 10.1907 264.688 9.976 264.847 9.808C265.015 9.64 265.286 9.556 265.659 9.556C266.023 9.556 266.289 9.64 266.457 9.808C266.625 9.976 266.709 10.1907 266.709 10.452V10.732C266.709 10.9933 266.625 11.208 266.457 11.376C266.289 11.544 266.023 11.628 265.659 11.628ZM264.763 12.692H266.555V20H264.763V12.692ZM271.69 20.168C271.168 20.168 270.696 20.0793 270.276 19.902C269.866 19.7247 269.511 19.468 269.212 19.132C268.923 18.796 268.699 18.3947 268.54 17.928C268.382 17.452 268.302 16.92 268.302 16.332C268.302 15.744 268.382 15.2167 268.54 14.75C268.699 14.2833 268.923 13.8867 269.212 13.56C269.511 13.224 269.866 12.9673 270.276 12.79C270.696 12.6127 271.168 12.524 271.69 12.524C272.213 12.524 272.684 12.6127 273.104 12.79C273.524 12.9673 273.879 13.224 274.168 13.56C274.467 13.8867 274.696 14.2833 274.854 14.75C275.013 15.2167 275.092 15.744 275.092 16.332C275.092 16.92 275.013 17.452 274.854 17.928C274.696 18.3947 274.467 18.796 274.168 19.132C273.879 19.468 273.524 19.7247 273.104 19.902C272.684 20.0793 272.213 20.168 271.69 20.168ZM271.69 18.726C272.166 18.726 272.54 18.5813 272.81 18.292C273.081 18.0027 273.216 17.578 273.216 17.018V15.66C273.216 15.1093 273.081 14.6893 272.81 14.4C272.54 14.1107 272.166 13.966 271.69 13.966C271.224 13.966 270.855 14.1107 270.584 14.4C270.314 14.6893 270.178 15.1093 270.178 15.66V17.018C270.178 17.578 270.314 18.0027 270.584 18.292C270.855 18.5813 271.224 18.726 271.69 18.726ZM276.841 20V12.692H278.633V13.91H278.703C278.852 13.518 279.086 13.1913 279.403 12.93C279.73 12.6593 280.178 12.524 280.747 12.524C281.503 12.524 282.082 12.7713 282.483 13.266C282.884 13.7607 283.085 14.4653 283.085 15.38V20H281.293V15.562C281.293 15.0393 281.2 14.6473 281.013 14.386C280.826 14.1247 280.518 13.994 280.089 13.994C279.902 13.994 279.72 14.022 279.543 14.078C279.375 14.1247 279.221 14.1993 279.081 14.302C278.95 14.3953 278.843 14.5167 278.759 14.666C278.675 14.806 278.633 14.974 278.633 15.17V20H276.841ZM287.625 20.168C286.925 20.168 286.337 20.0513 285.861 19.818C285.385 19.5753 284.965 19.244 284.601 18.824L285.693 17.76C285.964 18.068 286.258 18.3107 286.575 18.488C286.902 18.6653 287.275 18.754 287.695 18.754C288.125 18.754 288.433 18.6793 288.619 18.53C288.815 18.3807 288.913 18.1753 288.913 17.914C288.913 17.6993 288.843 17.5313 288.703 17.41C288.573 17.2793 288.344 17.1907 288.017 17.144L287.289 17.046C286.496 16.9433 285.889 16.7193 285.469 16.374C285.059 16.0193 284.853 15.506 284.853 14.834C284.853 14.4793 284.919 14.162 285.049 13.882C285.18 13.5927 285.367 13.35 285.609 13.154C285.852 12.9487 286.141 12.7947 286.477 12.692C286.823 12.58 287.205 12.524 287.625 12.524C287.98 12.524 288.293 12.552 288.563 12.608C288.843 12.6547 289.095 12.7293 289.319 12.832C289.543 12.9253 289.749 13.0467 289.935 13.196C290.122 13.336 290.304 13.4947 290.481 13.672L289.431 14.722C289.217 14.498 288.96 14.3113 288.661 14.162C288.363 14.0127 288.036 13.938 287.681 13.938C287.289 13.938 287.005 14.008 286.827 14.148C286.659 14.288 286.575 14.47 286.575 14.694C286.575 14.9367 286.645 15.1233 286.785 15.254C286.935 15.3753 287.182 15.464 287.527 15.52L288.269 15.618C289.847 15.842 290.635 16.5607 290.635 17.774C290.635 18.1287 290.561 18.4553 290.411 18.754C290.271 19.0433 290.071 19.2953 289.809 19.51C289.548 19.7153 289.231 19.8787 288.857 20C288.493 20.112 288.083 20.168 287.625 20.168ZM298.744 20.168C298.222 20.168 297.75 20.0793 297.33 19.902C296.92 19.7247 296.565 19.468 296.266 19.132C295.977 18.796 295.753 18.3947 295.594 17.928C295.436 17.452 295.356 16.92 295.356 16.332C295.356 15.744 295.436 15.2167 295.594 14.75C295.753 14.2833 295.977 13.8867 296.266 13.56C296.565 13.224 296.92 12.9673 297.33 12.79C297.75 12.6127 298.222 12.524 298.744 12.524C299.267 12.524 299.738 12.6127 300.158 12.79C300.578 12.9673 300.933 13.224 301.222 13.56C301.521 13.8867 301.75 14.2833 301.908 14.75C302.067 15.2167 302.146 15.744 302.146 16.332C302.146 16.92 302.067 17.452 301.908 17.928C301.75 18.3947 301.521 18.796 301.222 19.132C300.933 19.468 300.578 19.7247 300.158 19.902C299.738 20.0793 299.267 20.168 298.744 20.168ZM298.744 18.726C299.22 18.726 299.594 18.5813 299.864 18.292C300.135 18.0027 300.27 17.578 300.27 17.018V15.66C300.27 15.1093 300.135 14.6893 299.864 14.4C299.594 14.1107 299.22 13.966 298.744 13.966C298.278 13.966 297.909 14.1107 297.638 14.4C297.368 14.6893 297.232 15.1093 297.232 15.66V17.018C297.232 17.578 297.368 18.0027 297.638 18.292C297.909 18.5813 298.278 18.726 298.744 18.726ZM303.895 20V12.692H305.687V13.91H305.757C305.906 13.518 306.14 13.1913 306.457 12.93C306.784 12.6593 307.232 12.524 307.801 12.524C308.557 12.524 309.136 12.7713 309.537 13.266C309.938 13.7607 310.139 14.4653 310.139 15.38V20H308.347V15.562C308.347 15.0393 308.254 14.6473 308.067 14.386C307.88 14.1247 307.572 13.994 307.143 13.994C306.956 13.994 306.774 14.022 306.597 14.078C306.429 14.1247 306.275 14.1993 306.135 14.302C306.004 14.3953 305.897 14.5167 305.813 14.666C305.729 14.806 305.687 14.974 305.687 15.17V20H303.895ZM315.754 9.64H317.546V13.896H317.602C317.733 13.476 317.98 13.1447 318.344 12.902C318.708 12.65 319.133 12.524 319.618 12.524C320.551 12.524 321.261 12.8553 321.746 13.518C322.241 14.1713 322.488 15.1093 322.488 16.332C322.488 17.564 322.241 18.5113 321.746 19.174C321.261 19.8367 320.551 20.168 319.618 20.168C319.133 20.168 318.708 20.042 318.344 19.79C317.989 19.538 317.742 19.202 317.602 18.782H317.546V20H315.754V9.64ZM319.044 18.684C319.511 18.684 319.889 18.53 320.178 18.222C320.467 17.914 320.612 17.4987 320.612 16.976V15.716C320.612 15.1933 320.467 14.778 320.178 14.47C319.889 14.1527 319.511 13.994 319.044 13.994C318.615 13.994 318.255 14.1013 317.966 14.316C317.686 14.5307 317.546 14.8153 317.546 15.17V17.494C317.546 17.8767 317.686 18.1707 317.966 18.376C318.255 18.5813 318.615 18.684 319.044 18.684ZM325.205 11.628C324.831 11.628 324.561 11.544 324.393 11.376C324.234 11.208 324.155 10.9933 324.155 10.732V10.452C324.155 10.1907 324.234 9.976 324.393 9.808C324.561 9.64 324.831 9.556 325.205 9.556C325.569 9.556 325.835 9.64 326.003 9.808C326.171 9.976 326.255 10.1907 326.255 10.452V10.732C326.255 10.9933 326.171 11.208 326.003 11.376C325.835 11.544 325.569 11.628 325.205 11.628ZM324.309 12.692H326.101V20H324.309V12.692ZM330.62 20C330.004 20 329.532 19.8413 329.206 19.524C328.888 19.1973 328.73 18.7353 328.73 18.138V14.12H327.652V12.692H328.212C328.482 12.692 328.664 12.6313 328.758 12.51C328.86 12.3793 328.912 12.188 328.912 11.936V10.69H330.522V12.692H332.02V14.12H330.522V18.572H331.908V20H330.62ZM336.128 20.168C335.428 20.168 334.84 20.0513 334.364 19.818C333.888 19.5753 333.468 19.244 333.104 18.824L334.196 17.76C334.467 18.068 334.761 18.3107 335.078 18.488C335.405 18.6653 335.778 18.754 336.198 18.754C336.627 18.754 336.935 18.6793 337.122 18.53C337.318 18.3807 337.416 18.1753 337.416 17.914C337.416 17.6993 337.346 17.5313 337.206 17.41C337.075 17.2793 336.847 17.1907 336.52 17.144L335.792 17.046C334.999 16.9433 334.392 16.7193 333.972 16.374C333.561 16.0193 333.356 15.506 333.356 14.834C333.356 14.4793 333.421 14.162 333.552 13.882C333.683 13.5927 333.869 13.35 334.112 13.154C334.355 12.9487 334.644 12.7947 334.98 12.692C335.325 12.58 335.708 12.524 336.128 12.524C336.483 12.524 336.795 12.552 337.066 12.608C337.346 12.6547 337.598 12.7293 337.822 12.832C338.046 12.9253 338.251 13.0467 338.438 13.196C338.625 13.336 338.807 13.4947 338.984 13.672L337.934 14.722C337.719 14.498 337.463 14.3113 337.164 14.162C336.865 14.0127 336.539 13.938 336.184 13.938C335.792 13.938 335.507 14.008 335.33 14.148C335.162 14.288 335.078 14.47 335.078 14.694C335.078 14.9367 335.148 15.1233 335.288 15.254C335.437 15.3753 335.685 15.464 336.03 15.52L336.772 15.618C338.349 15.842 339.138 16.5607 339.138 17.774C339.138 18.1287 339.063 18.4553 338.914 18.754C338.774 19.0433 338.573 19.2953 338.312 19.51C338.051 19.7153 337.733 19.8787 337.36 20C336.996 20.112 336.585 20.168 336.128 20.168Z"/><path fill="#121619" d="M40.148 20V10.228H46.588V11.866H41.996V14.232H46.056V15.87H41.996V18.362H46.588V20H40.148ZM48.5905 20V12.692H50.3825V13.91H50.4525C50.6019 13.518 50.8352 13.1913 51.1525 12.93C51.4792 12.6593 51.9272 12.524 52.4965 12.524C53.2525 12.524 53.8312 12.7713 54.2325 13.266C54.6339 13.7607 54.8345 14.4653 54.8345 15.38V20H53.0425V15.562C53.0425 15.0393 52.9492 14.6473 52.7625 14.386C52.5759 14.1247 52.2679 13.994 51.8385 13.994C51.6519 13.994 51.4699 14.022 51.2925 14.078C51.1245 14.1247 50.9705 14.1993 50.8305 14.302C50.6999 14.3953 50.5925 14.5167 50.5085 14.666C50.4245 14.806 50.3825 14.974 50.3825 15.17V20H48.5905ZM59.865 20.168C59.3237 20.168 58.843 20.0793 58.423 19.902C58.003 19.7247 57.6483 19.468 57.359 19.132C57.079 18.796 56.8643 18.3947 56.715 17.928C56.5657 17.452 56.491 16.92 56.491 16.332C56.491 15.744 56.5657 15.2167 56.715 14.75C56.8643 14.2833 57.079 13.8867 57.359 13.56C57.6483 13.224 58.003 12.9673 58.423 12.79C58.843 12.6127 59.3237 12.524 59.865 12.524C60.6023 12.524 61.209 12.6873 61.685 13.014C62.1703 13.3407 62.5203 13.7933 62.735 14.372L61.265 15.03C61.181 14.722 61.0223 14.47 60.789 14.274C60.565 14.0687 60.257 13.966 59.865 13.966C59.361 13.966 58.983 14.1247 58.731 14.442C58.4883 14.7593 58.367 15.1747 58.367 15.688V17.018C58.367 17.5313 58.4883 17.9467 58.731 18.264C58.983 18.572 59.361 18.726 59.865 18.726C60.2943 18.726 60.6257 18.6187 60.859 18.404C61.0923 18.18 61.2743 17.9047 61.405 17.578L62.777 18.236C62.5343 18.88 62.1657 19.3653 61.671 19.692C61.1763 20.0093 60.5743 20.168 59.865 20.168ZM67.1484 20.168C66.6257 20.168 66.1544 20.0793 65.7344 19.902C65.3237 19.7247 64.969 19.468 64.6704 19.132C64.381 18.796 64.157 18.3947 63.9984 17.928C63.8397 17.452 63.7604 16.92 63.7604 16.332C63.7604 15.744 63.8397 15.2167 63.9984 14.75C64.157 14.2833 64.381 13.8867 64.6704 13.56C64.969 13.224 65.3237 12.9673 65.7344 12.79C66.1544 12.6127 66.6257 12.524 67.1484 12.524C67.671 12.524 68.1424 12.6127 68.5624 12.79C68.9824 12.9673 69.337 13.224 69.6264 13.56C69.925 13.8867 70.1537 14.2833 70.3124 14.75C70.471 15.2167 70.5504 15.744 70.5504 16.332C70.5504 16.92 70.471 17.452 70.3124 17.928C70.1537 18.3947 69.925 18.796 69.6264 19.132C69.337 19.468 68.9824 19.7247 68.5624 19.902C68.1424 20.0793 67.671 20.168 67.1484 20.168ZM67.1484 18.726C67.6244 18.726 67.9977 18.5813 68.2684 18.292C68.539 18.0027 68.6744 17.578 68.6744 17.018V15.66C68.6744 15.1093 68.539 14.6893 68.2684 14.4C67.9977 14.1107 67.6244 13.966 67.1484 13.966C66.6817 13.966 66.313 14.1107 66.0424 14.4C65.7717 14.6893 65.6364 15.1093 65.6364 15.66V17.018C65.6364 17.578 65.7717 18.0027 66.0424 18.292C66.313 18.5813 66.6817 18.726 67.1484 18.726ZM76.835 18.782H76.765C76.6344 19.202 76.387 19.538 76.023 19.79C75.659 20.042 75.2344 20.168 74.749 20.168C73.825 20.168 73.1157 19.8367 72.621 19.174C72.1357 18.5113 71.893 17.564 71.893 16.332C71.893 15.1093 72.1357 14.1713 72.621 13.518C73.1157 12.8553 73.825 12.524 74.749 12.524C75.2344 12.524 75.659 12.65 76.023 12.902C76.387 13.1447 76.6344 13.476 76.765 13.896H76.835V9.64H78.627V20H76.835V18.782ZM75.323 18.684C75.7524 18.684 76.1117 18.5813 76.401 18.376C76.6904 18.1707 76.835 17.8767 76.835 17.494V15.17C76.835 14.8153 76.6904 14.5307 76.401 14.316C76.1117 14.1013 75.7524 13.994 75.323 13.994C74.8564 13.994 74.4784 14.1527 74.189 14.47C73.909 14.778 73.769 15.1933 73.769 15.716V16.976C73.769 17.4987 73.909 17.914 74.189 18.222C74.4784 18.53 74.8564 18.684 75.323 18.684ZM83.8076 20.168C83.2662 20.168 82.7809 20.0793 82.3516 19.902C81.9316 19.7153 81.5722 19.4587 81.2736 19.132C80.9842 18.796 80.7602 18.3947 80.6016 17.928C80.4429 17.452 80.3636 16.92 80.3636 16.332C80.3636 15.7533 80.4382 15.2307 80.5876 14.764C80.7462 14.2973 80.9702 13.9007 81.2596 13.574C81.5489 13.238 81.9036 12.9813 82.3236 12.804C82.7436 12.6173 83.2196 12.524 83.7516 12.524C84.3209 12.524 84.8156 12.622 85.2356 12.818C85.6556 13.014 86.0009 13.28 86.2716 13.616C86.5422 13.952 86.7429 14.344 86.8736 14.792C87.0136 15.2307 87.0836 15.702 87.0836 16.206V16.794H82.2256V16.976C82.2256 17.508 82.3749 17.9373 82.6736 18.264C82.9722 18.5813 83.4156 18.74 84.0036 18.74C84.4516 18.74 84.8156 18.6467 85.0956 18.46C85.3849 18.2733 85.6416 18.0353 85.8656 17.746L86.8316 18.824C86.5329 19.244 86.1222 19.5753 85.5996 19.818C85.0862 20.0513 84.4889 20.168 83.8076 20.168ZM83.7796 13.868C83.3036 13.868 82.9256 14.0267 82.6456 14.344C82.3656 14.6613 82.2256 15.072 82.2256 15.576V15.688H85.2216V15.562C85.2216 15.058 85.0956 14.652 84.8436 14.344C84.6009 14.0267 84.2462 13.868 83.7796 13.868ZM93.1848 11.628C92.8115 11.628 92.5408 11.544 92.3728 11.376C92.2141 11.208 92.1348 10.9933 92.1348 10.732V10.452C92.1348 10.1907 92.2141 9.976 92.3728 9.808C92.5408 9.64 92.8115 9.556 93.1848 9.556C93.5488 9.556 93.8148 9.64 93.9828 9.808C94.1508 9.976 94.2348 10.1907 94.2348 10.452V10.732C94.2348 10.9933 94.1508 11.208 93.9828 11.376C93.8148 11.544 93.5488 11.628 93.1848 11.628ZM92.2888 12.692H94.0808V20H92.2888V12.692ZM96.318 20V12.692H98.11V13.91H98.18C98.3293 13.518 98.5626 13.1913 98.88 12.93C99.2066 12.6593 99.6546 12.524 100.224 12.524C100.98 12.524 101.559 12.7713 101.96 13.266C102.361 13.7607 102.562 14.4653 102.562 15.38V20H100.77V15.562C100.77 15.0393 100.677 14.6473 100.49 14.386C100.303 14.1247 99.9953 13.994 99.566 13.994C99.3793 13.994 99.1973 14.022 99.02 14.078C98.852 14.1247 98.698 14.1993 98.558 14.302C98.4273 14.3953 98.32 14.5167 98.236 14.666C98.152 14.806 98.11 14.974 98.11 15.17V20H96.318ZM104.708 12.692H106.5V13.896H106.556C106.687 13.476 106.934 13.1447 107.298 12.902C107.662 12.65 108.087 12.524 108.572 12.524C109.506 12.524 110.215 12.8553 110.7 13.518C111.195 14.1713 111.442 15.1093 111.442 16.332C111.442 17.564 111.195 18.5113 110.7 19.174C110.215 19.8367 109.506 20.168 108.572 20.168C108.087 20.168 107.662 20.042 107.298 19.79C106.944 19.538 106.696 19.202 106.556 18.782H106.5V22.8H104.708V12.692ZM107.998 18.684C108.465 18.684 108.843 18.53 109.132 18.222C109.422 17.914 109.566 17.4987 109.566 16.976V15.716C109.566 15.1933 109.422 14.778 109.132 14.47C108.843 14.1527 108.465 13.994 107.998 13.994C107.569 13.994 107.21 14.1013 106.92 14.316C106.64 14.5307 106.5 14.8153 106.5 15.17V17.494C106.5 17.8767 106.64 18.1707 106.92 18.376C107.21 18.5813 107.569 18.684 107.998 18.684ZM117.631 18.782H117.561C117.496 18.9687 117.407 19.146 117.295 19.314C117.192 19.4727 117.057 19.6173 116.889 19.748C116.73 19.8787 116.534 19.9813 116.301 20.056C116.077 20.1307 115.816 20.168 115.517 20.168C114.761 20.168 114.182 19.9207 113.781 19.426C113.38 18.9313 113.179 18.2267 113.179 17.312V12.692H114.971V17.13C114.971 17.634 115.069 18.0213 115.265 18.292C115.461 18.5533 115.774 18.684 116.203 18.684C116.38 18.684 116.553 18.6607 116.721 18.614C116.898 18.5673 117.052 18.4973 117.183 18.404C117.314 18.3013 117.421 18.18 117.505 18.04C117.589 17.8907 117.631 17.718 117.631 17.522V12.692H119.423V20H117.631V18.782ZM123.935 20C123.319 20 122.848 19.8413 122.521 19.524C122.204 19.1973 122.045 18.7353 122.045 18.138V14.12H120.967V12.692H121.527C121.798 12.692 121.98 12.6313 122.073 12.51C122.176 12.3793 122.227 12.188 122.227 11.936V10.69H123.837V12.692H125.335V14.12H123.837V18.572H125.223V20H123.935Z"/><rect width="18" height="18" x="62" y="57" fill="#05BAB6"/><path fill="#161616" d="M68.252 69L70.544 65.88L68.348 62.808H69.476L71.048 65.112H71.084L72.716 62.808H73.784L71.6 65.808L73.832 69H72.704L71.096 66.576H71.06L69.32 69H68.252Z"/><rect width="18" height="18" x="62" y="80" fill="#05BAB6"/><path fill="#161616" d="M69.284 92L71.06 89.516H71.096L72.74 92H73.832L71.6 88.808L73.784 85.808H72.716L71.084 88.112H71.048L69.476 85.808H68.348L70.544 88.88L68.252 92H69.284Z"/><rect width="18" height="18" x="410" y="106" fill="#161616"/><path fill="#F4F4F4" d="M416.252 118L418.544 114.88L416.348 111.808H417.476L419.048 114.112H419.084L420.716 111.808H421.784L419.6 114.808L421.832 118H420.704L419.096 115.576H419.06L417.32 118H416.252Z"/><rect width="18" height="18" x="435" y="128" fill="#161616"/><path fill="#F4F4F4" d="M441.252 140L443.544 136.88L441.348 133.808H442.476L444.048 136.112H444.084L445.716 133.808H446.784L444.6 136.808L446.832 140H445.704L444.096 137.576H444.06L442.32 140H441.252Z"/><path fill="#C1C7CD" d="M69 51L70.5 55L72 51H69Z"/><line x1="70.5" x2="70.5" y1="51" y2="28" stroke="#C1C7CD"/><path fill="#C1C7CD" d="M255 73L256.5 77L258 73H255Z"/><line x1="256.5" x2="256.5" y1="73" y2="27" stroke="#C1C7CD"/><path fill="#C1C7CD" d="M445 97L446.5 101L448 97H445Z"/><line x1="446.5" x2="446.5" y1="97" y2="27" stroke="#C1C7CD"/></svg>