<svg width="759" height="274" viewBox="0 0 759 274" fill="none" xmlns="http://www.w3.org/2000/svg">
<g clip-path="url(#clip0_1125_20674)">
<rect width="759" height="274" fill="white"/>
<rect opacity="0.4" x="15.5293" y="142" width="743.471" height="44" fill="#F2F4F8"/>
<rect opacity="0.4" x="15.5293" y="230" width="743.471" height="44" fill="#F2F4F8"/>
<rect opacity="0.4" x="15.5293" y="54" width="743.471" height="44" fill="#F2F4F8"/>
<rect x="0.5" y="0.5" width="758" height="273" stroke="#DDE1E6"/>
<line x1="124.5" y1="1" x2="124.5" y2="273" stroke="#C1C7CD"/>
<line x1="447.5" y1="54" x2="447.5" y2="142" stroke="#DDE1E6"/>
<line x1="602.5" y1="97" x2="602.5" y2="142" stroke="#DDE1E6"/>
<line x1="528.5" y1="1" x2="528.5" y2="54" stroke="#DDE1E6"/>
<line x1="447.5" y1="1" x2="447.5" y2="53" stroke="#DDE1E6"/>
<line x1="671.5" y1="1" x2="671.5" y2="54" stroke="#DDE1E6"/>
<line x1="602.5" y1="1" x2="602.5" y2="54" stroke="#DDE1E6"/>
<line x1="362.5" y1="1" x2="362.5" y2="273" stroke="#DDE1E6"/>
<line x1="447.5" y1="141" x2="447.5" y2="273" stroke="#DDE1E6"/>
<line x1="528.5" y1="142" x2="528.5" y2="273" stroke="#DDE1E6"/>
<line x1="602.5" y1="142" x2="602.5" y2="273" stroke="#DDE1E6"/>
<line x1="671.5" y1="142" x2="671.5" y2="273" stroke="#DDE1E6"/>
<line x1="276.5" y1="1" x2="276.5" y2="273" stroke="#DDE1E6"/>
<line x1="1" y1="53.5" x2="758" y2="53.5001" stroke="#C1C7CD"/>
<line x1="125" y1="97.5" x2="758" y2="97.5001" stroke="#DDE1E6"/>
<line x1="125" y1="141.5" x2="758" y2="141.5" stroke="#DDE1E6"/>
<path d="M138.46 24V22.964H134.302V14.228H133.126V24H138.46ZM142.372 24V23.02H141.308V13.64H140.188V22.838C140.188 23.51 140.608 24 141.378 24H142.372ZM146.892 24.168C148.824 24.168 150.154 22.684 150.154 20.388C150.154 18.092 148.824 16.608 146.892 16.608C144.96 16.608 143.63 18.092 143.63 20.388C143.63 22.684 144.96 24.168 146.892 24.168ZM146.892 23.174C145.688 23.174 144.834 22.432 144.834 20.906V19.87C144.834 18.344 145.688 17.602 146.892 17.602C148.096 17.602 148.95 18.344 148.95 19.87V20.906C148.95 22.432 148.096 23.174 146.892 23.174ZM154.79 21.69L154.398 22.866H154.328L153.992 21.69L152.256 16.776H151.136L153.838 24.28L153.292 25.82H152.158V26.8H152.732C153.796 26.8 154.09 26.548 154.412 25.68L157.646 16.776H156.54L154.79 21.69ZM163.786 24H164.906V13.64H163.786V17.952H163.73C163.352 17.042 162.61 16.608 161.616 16.608C159.81 16.608 158.676 18.078 158.676 20.388C158.676 22.698 159.81 24.168 161.616 24.168C162.61 24.168 163.296 23.72 163.73 22.824H163.786V24ZM161.924 23.16C160.664 23.16 159.88 22.292 159.88 21.004V19.772C159.88 18.484 160.664 17.616 161.924 17.616C162.946 17.616 163.786 18.204 163.786 19.002V21.69C163.786 22.628 162.946 23.16 161.924 23.16ZM173.632 24.168C174.99 24.168 176.026 23.496 176.488 22.516L175.69 21.942C175.312 22.74 174.612 23.188 173.702 23.188C172.358 23.188 171.56 22.25 171.56 21.004V20.668H176.754V20.136C176.754 18.092 175.564 16.608 173.632 16.608C171.672 16.608 170.384 18.092 170.384 20.388C170.384 22.684 171.672 24.168 173.632 24.168ZM173.632 17.546C174.78 17.546 175.55 18.4 175.55 19.674V19.828H171.56V19.73C171.56 18.47 172.414 17.546 173.632 17.546ZM181.755 24V23.02H180.285V17.756H181.867V16.776H180.285V14.774H179.277V16.118C179.277 16.608 179.123 16.776 178.647 16.776H177.975V17.756H179.165V22.81C179.165 23.51 179.585 24 180.355 24H181.755ZM193.176 24V23.02H192.35V19.044C192.35 17.518 191.314 16.608 189.578 16.608C188.276 16.608 187.408 17.252 187.016 18.022L187.688 18.652C188.08 17.994 188.654 17.574 189.522 17.574C190.67 17.574 191.23 18.134 191.23 19.156V19.87H189.802C187.702 19.87 186.722 20.626 186.722 21.984C186.722 23.328 187.618 24.168 189.144 24.168C190.152 24.168 190.922 23.706 191.23 22.824H191.3C191.384 23.496 191.72 24 192.546 24H193.176ZM189.326 23.216C188.458 23.216 187.898 22.81 187.898 22.096V21.802C187.898 21.102 188.472 20.71 189.746 20.71H191.23V21.9C191.23 22.642 190.432 23.216 189.326 23.216ZM197.119 24V23.02H196.055V13.64H194.935V22.838C194.935 23.51 195.355 24 196.125 24H197.119ZM199.76 24.168C200.348 24.168 200.614 23.832 200.614 23.356V23.174C200.614 22.698 200.348 22.362 199.76 22.362C199.172 22.362 198.906 22.698 198.906 23.174V23.356C198.906 23.832 199.172 24.168 199.76 24.168ZM206.433 26.114L210.087 13.64H209.079L205.425 26.114H206.433ZM215.589 24H218.865C221.301 24 222.869 22.376 222.869 19.114C222.869 15.852 221.301 14.228 218.865 14.228H215.589V24ZM216.765 22.964V15.264H218.865C220.475 15.264 221.609 16.384 221.609 18.316V19.912C221.609 21.844 220.475 22.964 218.865 22.964H216.765ZM230.909 24V23.02H230.083V19.044C230.083 17.518 229.047 16.608 227.311 16.608C226.009 16.608 225.141 17.252 224.749 18.022L225.421 18.652C225.813 17.994 226.387 17.574 227.255 17.574C228.403 17.574 228.963 18.134 228.963 19.156V19.87H227.535C225.435 19.87 224.455 20.626 224.455 21.984C224.455 23.328 225.351 24.168 226.877 24.168C227.885 24.168 228.655 23.706 228.963 22.824H229.033C229.117 23.496 229.453 24 230.279 24H230.909ZM227.059 23.216C226.191 23.216 225.631 22.81 225.631 22.096V21.802C225.631 21.102 226.205 20.71 227.479 20.71H228.963V21.9C228.963 22.642 228.165 23.216 227.059 23.216ZM234.852 24V23.02H233.788V13.64H232.668V22.838C232.668 23.51 233.088 24 233.858 24H234.852ZM238.758 24V23.02H237.694V13.64H236.574V22.838C236.574 23.51 236.994 24 237.764 24H238.758ZM246.428 24V23.02H245.602V19.044C245.602 17.518 244.566 16.608 242.83 16.608C241.528 16.608 240.66 17.252 240.268 18.022L240.94 18.652C241.332 17.994 241.906 17.574 242.774 17.574C243.922 17.574 244.482 18.134 244.482 19.156V19.87H243.054C240.954 19.87 239.974 20.626 239.974 21.984C239.974 23.328 240.87 24.168 242.396 24.168C243.404 24.168 244.174 23.706 244.482 22.824H244.552C244.636 23.496 244.972 24 245.798 24H246.428ZM242.578 23.216C241.71 23.216 241.15 22.81 241.15 22.096V21.802C241.15 21.102 241.724 20.71 242.998 20.71H244.482V21.9C244.482 22.642 243.684 23.216 242.578 23.216ZM248.747 15.082C249.223 15.082 249.433 14.83 249.433 14.452V14.27C249.433 13.892 249.223 13.64 248.747 13.64C248.271 13.64 248.061 13.892 248.061 14.27V14.452C248.061 14.83 248.271 15.082 248.747 15.082ZM248.187 24H249.307V16.776H248.187V24ZM252.967 24V19.1C252.967 18.414 253.695 17.896 254.899 17.896H255.557V16.776H255.123C253.947 16.776 253.289 17.42 253.037 18.106H252.967V16.776H251.847V24H252.967ZM259.795 24.168C261.153 24.168 262.189 23.496 262.651 22.516L261.853 21.942C261.475 22.74 260.775 23.188 259.865 23.188C258.521 23.188 257.723 22.25 257.723 21.004V20.668H262.917V20.136C262.917 18.092 261.727 16.608 259.795 16.608C257.835 16.608 256.547 18.092 256.547 20.388C256.547 22.684 257.835 24.168 259.795 24.168ZM259.795 17.546C260.943 17.546 261.713 18.4 261.713 19.674V19.828H257.723V19.73C257.723 18.47 258.577 17.546 259.795 17.546ZM268.489 20.346V19.142H264.835V20.346H268.489ZM133.126 44H136.402C138.838 44 140.406 42.376 140.406 39.114C140.406 35.852 138.838 34.228 136.402 34.228H133.126V44ZM134.302 42.964V35.264H136.402C138.012 35.264 139.146 36.384 139.146 38.316V39.912C139.146 41.844 138.012 42.964 136.402 42.964H134.302ZM145.283 44.168C146.641 44.168 147.677 43.496 148.139 42.516L147.341 41.942C146.963 42.74 146.263 43.188 145.353 43.188C144.009 43.188 143.211 42.25 143.211 41.004V40.668H148.405V40.136C148.405 38.092 147.215 36.608 145.283 36.608C143.323 36.608 142.035 38.092 142.035 40.388C142.035 42.684 143.323 44.168 145.283 44.168ZM145.283 37.546C146.431 37.546 147.201 38.4 147.201 39.674V39.828H143.211V39.73C143.211 38.47 144.065 37.546 145.283 37.546ZM151.53 44V38.988C151.53 38.064 152.37 37.616 153.252 37.616C154.316 37.616 154.806 38.274 154.806 39.562V44H155.926V38.988C155.926 38.064 156.738 37.616 157.62 37.616C158.712 37.616 159.202 38.288 159.202 39.562V44H160.322V39.366C160.322 37.616 159.44 36.608 157.97 36.608C156.738 36.608 156.038 37.294 155.772 38.078H155.744C155.352 37.042 154.484 36.608 153.532 36.608C152.412 36.608 151.908 37.21 151.586 37.952H151.53V36.776H150.41V44H151.53ZM165.509 44.168C166.867 44.168 167.903 43.496 168.365 42.516L167.567 41.942C167.189 42.74 166.489 43.188 165.579 43.188C164.235 43.188 163.437 42.25 163.437 41.004V40.668H168.631V40.136C168.631 38.092 167.441 36.608 165.509 36.608C163.549 36.608 162.261 38.092 162.261 40.388C162.261 42.684 163.549 44.168 165.509 44.168ZM165.509 37.546C166.657 37.546 167.427 38.4 167.427 39.674V39.828H163.437V39.73C163.437 38.47 164.291 37.546 165.509 37.546ZM171.757 44V39.1C171.757 38.414 172.485 37.896 173.689 37.896H174.347V36.776H173.913C172.737 36.776 172.079 37.42 171.827 38.106H171.757V36.776H170.637V44H171.757ZM178.107 44.168C179.759 44.168 180.781 43.314 180.781 41.914C180.781 40.822 180.165 40.122 178.569 39.884L178.009 39.8C177.113 39.66 176.623 39.38 176.623 38.68C176.623 37.994 177.113 37.56 178.037 37.56C178.961 37.56 179.577 37.994 179.899 38.442L180.641 37.77C180.053 37.042 179.283 36.608 178.121 36.608C176.651 36.608 175.545 37.308 175.545 38.736C175.545 40.08 176.539 40.626 177.869 40.822L178.443 40.906C179.395 41.046 179.703 41.48 179.703 42.04C179.703 42.782 179.143 43.216 178.191 43.216C177.281 43.216 176.609 42.81 176.049 42.11L175.251 42.754C175.895 43.608 176.777 44.168 178.107 44.168ZM189.104 44.168C190.462 44.168 191.498 43.496 191.96 42.516L191.162 41.942C190.784 42.74 190.084 43.188 189.174 43.188C187.83 43.188 187.032 42.25 187.032 41.004V40.668H192.226V40.136C192.226 38.092 191.036 36.608 189.104 36.608C187.144 36.608 185.856 38.092 185.856 40.388C185.856 42.684 187.144 44.168 189.104 44.168ZM189.104 37.546C190.252 37.546 191.022 38.4 191.022 39.674V39.828H187.032V39.73C187.032 38.47 187.886 37.546 189.104 37.546ZM197.228 44V43.02H195.758V37.756H197.34V36.776H195.758V34.774H194.75V36.118C194.75 36.608 194.596 36.776 194.12 36.776H193.448V37.756H194.638V42.81C194.638 43.51 195.058 44 195.828 44H197.228ZM208.649 44V43.02H207.823V39.044C207.823 37.518 206.787 36.608 205.051 36.608C203.749 36.608 202.881 37.252 202.489 38.022L203.161 38.652C203.553 37.994 204.127 37.574 204.995 37.574C206.143 37.574 206.703 38.134 206.703 39.156V39.87H205.275C203.175 39.87 202.195 40.626 202.195 41.984C202.195 43.328 203.091 44.168 204.617 44.168C205.625 44.168 206.395 43.706 206.703 42.824H206.773C206.857 43.496 207.193 44 208.019 44H208.649ZM204.799 43.216C203.931 43.216 203.371 42.81 203.371 42.096V41.802C203.371 41.102 203.945 40.71 205.219 40.71H206.703V41.9C206.703 42.642 205.905 43.216 204.799 43.216ZM212.591 44V43.02H211.527V33.64H210.407V42.838C210.407 43.51 210.827 44 211.597 44H212.591ZM215.232 44.168C215.82 44.168 216.086 43.832 216.086 43.356V43.174C216.086 42.698 215.82 42.362 215.232 42.362C214.644 42.362 214.378 42.698 214.378 43.174V43.356C214.378 43.832 214.644 44.168 215.232 44.168Z" fill="black"/>
<path d="M290.636 34V32.964H286.478V24.228H285.302V34H290.636ZM294.548 34V33.02H293.484V23.64H292.364V32.838C292.364 33.51 292.784 34 293.554 34H294.548ZM299.068 34.168C301 34.168 302.33 32.684 302.33 30.388C302.33 28.092 301 26.608 299.068 26.608C297.136 26.608 295.806 28.092 295.806 30.388C295.806 32.684 297.136 34.168 299.068 34.168ZM299.068 33.174C297.864 33.174 297.01 32.432 297.01 30.906V29.87C297.01 28.344 297.864 27.602 299.068 27.602C300.272 27.602 301.126 28.344 301.126 29.87V30.906C301.126 32.432 300.272 33.174 299.068 33.174ZM306.966 31.69L306.574 32.866H306.504L306.168 31.69L304.432 26.776H303.312L306.014 34.28L305.468 35.82H304.334V36.8H304.908C305.972 36.8 306.266 36.548 306.588 35.68L309.822 26.776H308.716L306.966 31.69ZM315.962 34H317.082V23.64H315.962V27.952H315.906C315.528 27.042 314.786 26.608 313.792 26.608C311.986 26.608 310.852 28.078 310.852 30.388C310.852 32.698 311.986 34.168 313.792 34.168C314.786 34.168 315.472 33.72 315.906 32.824H315.962V34ZM314.1 33.16C312.84 33.16 312.056 32.292 312.056 31.004V29.772C312.056 28.484 312.84 27.616 314.1 27.616C315.122 27.616 315.962 28.204 315.962 29.002V31.69C315.962 32.628 315.122 33.16 314.1 33.16ZM325.807 34.168C327.165 34.168 328.201 33.496 328.663 32.516L327.865 31.942C327.487 32.74 326.787 33.188 325.877 33.188C324.533 33.188 323.735 32.25 323.735 31.004V30.668H328.929V30.136C328.929 28.092 327.739 26.608 325.807 26.608C323.847 26.608 322.559 28.092 322.559 30.388C322.559 32.684 323.847 34.168 325.807 34.168ZM325.807 27.546C326.955 27.546 327.725 28.4 327.725 29.674V29.828H323.735V29.73C323.735 28.47 324.589 27.546 325.807 27.546ZM333.931 34V33.02H332.461V27.756H334.043V26.776H332.461V24.774H331.453V26.118C331.453 26.608 331.299 26.776 330.823 26.776H330.151V27.756H331.341V32.81C331.341 33.51 331.761 34 332.531 34H333.931ZM345.352 34V33.02H344.526V29.044C344.526 27.518 343.49 26.608 341.754 26.608C340.452 26.608 339.584 27.252 339.192 28.022L339.864 28.652C340.256 27.994 340.83 27.574 341.698 27.574C342.846 27.574 343.406 28.134 343.406 29.156V29.87H341.978C339.878 29.87 338.898 30.626 338.898 31.984C338.898 33.328 339.794 34.168 341.32 34.168C342.328 34.168 343.098 33.706 343.406 32.824H343.476C343.56 33.496 343.896 34 344.722 34H345.352ZM341.502 33.216C340.634 33.216 340.074 32.81 340.074 32.096V31.802C340.074 31.102 340.648 30.71 341.922 30.71H343.406V31.9C343.406 32.642 342.608 33.216 341.502 33.216ZM349.294 34V33.02H348.23V23.64H347.11V32.838C347.11 33.51 347.53 34 348.3 34H349.294ZM351.935 34.168C352.523 34.168 352.789 33.832 352.789 33.356V33.174C352.789 32.698 352.523 32.362 351.935 32.362C351.347 32.362 351.081 32.698 351.081 33.174V33.356C351.081 33.832 351.347 34.168 351.935 34.168Z" fill="black"/>
<path d="M376.636 34V32.964H372.478V24.228H371.302V34H376.636ZM380.548 34V33.02H379.484V23.64H378.364V32.838C378.364 33.51 378.784 34 379.554 34H380.548ZM385.068 34.168C387 34.168 388.33 32.684 388.33 30.388C388.33 28.092 387 26.608 385.068 26.608C383.136 26.608 381.806 28.092 381.806 30.388C381.806 32.684 383.136 34.168 385.068 34.168ZM385.068 33.174C383.864 33.174 383.01 32.432 383.01 30.906V29.87C383.01 28.344 383.864 27.602 385.068 27.602C386.272 27.602 387.126 28.344 387.126 29.87V30.906C387.126 32.432 386.272 33.174 385.068 33.174ZM392.966 31.69L392.574 32.866H392.504L392.168 31.69L390.432 26.776H389.312L392.014 34.28L391.468 35.82H390.334V36.8H390.908C391.972 36.8 392.266 36.548 392.588 35.68L395.822 26.776H394.716L392.966 31.69ZM401.962 34H403.082V23.64H401.962V27.952H401.906C401.528 27.042 400.786 26.608 399.792 26.608C397.986 26.608 396.852 28.078 396.852 30.388C396.852 32.698 397.986 34.168 399.792 34.168C400.786 34.168 401.472 33.72 401.906 32.824H401.962V34ZM400.1 33.16C398.84 33.16 398.056 32.292 398.056 31.004V29.772C398.056 28.484 398.84 27.616 400.1 27.616C401.122 27.616 401.962 28.204 401.962 29.002V31.69C401.962 32.628 401.122 33.16 400.1 33.16ZM411.807 34.168C413.165 34.168 414.201 33.496 414.663 32.516L413.865 31.942C413.487 32.74 412.787 33.188 411.877 33.188C410.533 33.188 409.735 32.25 409.735 31.004V30.668H414.929V30.136C414.929 28.092 413.739 26.608 411.807 26.608C409.847 26.608 408.559 28.092 408.559 30.388C408.559 32.684 409.847 34.168 411.807 34.168ZM411.807 27.546C412.955 27.546 413.725 28.4 413.725 29.674V29.828H409.735V29.73C409.735 28.47 410.589 27.546 411.807 27.546ZM419.931 34V33.02H418.461V27.756H420.043V26.776H418.461V24.774H417.453V26.118C417.453 26.608 417.299 26.776 416.823 26.776H416.151V27.756H417.341V32.81C417.341 33.51 417.761 34 418.531 34H419.931ZM431.352 34V33.02H430.526V29.044C430.526 27.518 429.49 26.608 427.754 26.608C426.452 26.608 425.584 27.252 425.192 28.022L425.864 28.652C426.256 27.994 426.83 27.574 427.698 27.574C428.846 27.574 429.406 28.134 429.406 29.156V29.87H427.978C425.878 29.87 424.898 30.626 424.898 31.984C424.898 33.328 425.794 34.168 427.32 34.168C428.328 34.168 429.098 33.706 429.406 32.824H429.476C429.56 33.496 429.896 34 430.722 34H431.352ZM427.502 33.216C426.634 33.216 426.074 32.81 426.074 32.096V31.802C426.074 31.102 426.648 30.71 427.922 30.71H429.406V31.9C429.406 32.642 428.608 33.216 427.502 33.216ZM435.294 34V33.02H434.23V23.64H433.11V32.838C433.11 33.51 433.53 34 434.3 34H435.294ZM437.935 34.168C438.523 34.168 438.789 33.832 438.789 33.356V33.174C438.789 32.698 438.523 32.362 437.935 32.362C437.347 32.362 437.081 32.698 437.081 33.174V33.356C437.081 33.832 437.347 34.168 437.935 34.168Z" fill="black"/>
<path d="M463.045 32.964H457.193L462.849 25.292V24.228H456.227V25.264H461.575L455.933 32.936V34H463.045V32.964ZM467.547 34.168C468.905 34.168 469.941 33.496 470.403 32.516L469.605 31.942C469.227 32.74 468.527 33.188 467.617 33.188C466.273 33.188 465.475 32.25 465.475 31.004V30.668H470.669V30.136C470.669 28.092 469.479 26.608 467.547 26.608C465.587 26.608 464.299 28.092 464.299 30.388C464.299 32.684 465.587 34.168 467.547 34.168ZM467.547 27.546C468.695 27.546 469.465 28.4 469.465 29.674V29.828H465.475V29.73C465.475 28.47 466.329 27.546 467.547 27.546ZM473.795 34V28.988C473.795 28.064 474.663 27.616 475.559 27.616C476.637 27.616 477.197 28.274 477.197 29.562V34H478.317V29.366C478.317 27.616 477.379 26.608 475.895 26.608C474.817 26.608 474.201 27.14 473.851 27.952H473.795V26.776H472.675V34H473.795ZM486.882 34.798C486.882 33.608 486.112 32.88 484.32 32.88H482.78C482.122 32.88 481.674 32.768 481.674 32.334C481.674 31.886 482.15 31.648 482.626 31.522C482.836 31.564 483.088 31.592 483.326 31.592C484.978 31.592 486.056 30.57 486.056 29.1C486.056 28.33 485.748 27.686 485.23 27.238V26.776H486.602V25.796H485.524C484.922 25.796 484.684 26.202 484.684 26.762V26.888C484.292 26.706 483.83 26.608 483.312 26.608C481.674 26.608 480.596 27.63 480.596 29.1C480.596 30.108 481.1 30.906 481.954 31.312V31.368C481.226 31.55 480.708 31.9 480.708 32.628C480.708 33.118 480.946 33.44 481.352 33.636V33.79C480.638 33.986 480.204 34.406 480.204 35.19C480.204 36.324 481.128 36.968 483.382 36.968C485.706 36.968 486.882 36.282 486.882 34.798ZM485.832 34.882C485.832 35.666 485.104 36.058 483.858 36.058H482.822C481.688 36.058 481.254 35.54 481.254 34.91C481.254 34.462 481.464 34.14 481.926 33.93H484.334C485.454 33.93 485.832 34.308 485.832 34.882ZM483.326 30.696C482.374 30.696 481.772 30.248 481.772 29.296V28.904C481.772 27.952 482.374 27.504 483.326 27.504C484.278 27.504 484.88 27.952 484.88 28.904V29.296C484.88 30.248 484.278 30.696 483.326 30.696ZM494.533 34.168C495.891 34.168 496.927 33.496 497.389 32.516L496.591 31.942C496.213 32.74 495.513 33.188 494.603 33.188C493.259 33.188 492.461 32.25 492.461 31.004V30.668H497.655V30.136C497.655 28.092 496.465 26.608 494.533 26.608C492.573 26.608 491.285 28.092 491.285 30.388C491.285 32.684 492.573 34.168 494.533 34.168ZM494.533 27.546C495.681 27.546 496.451 28.4 496.451 29.674V29.828H492.461V29.73C492.461 28.47 493.315 27.546 494.533 27.546ZM502.657 34V33.02H501.187V27.756H502.769V26.776H501.187V24.774H500.179V26.118C500.179 26.608 500.025 26.776 499.549 26.776H498.877V27.756H500.067V32.81C500.067 33.51 500.487 34 501.257 34H502.657ZM514.077 34V33.02H513.251V29.044C513.251 27.518 512.215 26.608 510.479 26.608C509.177 26.608 508.309 27.252 507.917 28.022L508.589 28.652C508.981 27.994 509.555 27.574 510.423 27.574C511.571 27.574 512.131 28.134 512.131 29.156V29.87H510.703C508.603 29.87 507.623 30.626 507.623 31.984C507.623 33.328 508.519 34.168 510.045 34.168C511.053 34.168 511.823 33.706 512.131 32.824H512.201C512.285 33.496 512.621 34 513.447 34H514.077ZM510.227 33.216C509.359 33.216 508.799 32.81 508.799 32.096V31.802C508.799 31.102 509.373 30.71 510.647 30.71H512.131V31.9C512.131 32.642 511.333 33.216 510.227 33.216ZM518.02 34V33.02H516.956V23.64H515.836V32.838C515.836 33.51 516.256 34 517.026 34H518.02ZM520.661 34.168C521.249 34.168 521.515 33.832 521.515 33.356V33.174C521.515 32.698 521.249 32.362 520.661 32.362C520.073 32.362 519.807 32.698 519.807 33.174V33.356C519.807 33.832 520.073 34.168 520.661 34.168Z" fill="black"/>
<path d="M379.091 125L375.675 115.228H374.177L370.761 125H371.951L372.931 122.116H376.879L377.859 125H379.091ZM376.585 121.08H373.211L374.863 116.32H374.933L376.585 121.08ZM381.877 125V119.988C381.877 119.064 382.745 118.616 383.641 118.616C384.719 118.616 385.279 119.274 385.279 120.562V125H386.399V120.366C386.399 118.616 385.461 117.608 383.977 117.608C382.899 117.608 382.283 118.14 381.933 118.952H381.877V117.776H380.757V125H381.877ZM391.467 122.69L391.075 123.866H391.005L390.669 122.69L388.933 117.776H387.813L390.515 125.28L389.969 126.82H388.835V127.8H389.409C390.473 127.8 390.767 127.548 391.089 126.68L394.323 117.776H393.217L391.467 122.69Z" fill="black"/>
<path d="M456.718 125H459.994C462.43 125 463.998 123.376 463.998 120.114C463.998 116.852 462.43 115.228 459.994 115.228H456.718V125ZM457.894 123.964V116.264H459.994C461.604 116.264 462.738 117.384 462.738 119.316V120.912C462.738 122.844 461.604 123.964 459.994 123.964H457.894ZM466.718 116.082C467.194 116.082 467.404 115.83 467.404 115.452V115.27C467.404 114.892 467.194 114.64 466.718 114.64C466.242 114.64 466.032 114.892 466.032 115.27V115.452C466.032 115.83 466.242 116.082 466.718 116.082ZM466.158 125H467.278V117.776H466.158V125ZM471.988 125.168C473.64 125.168 474.662 124.314 474.662 122.914C474.662 121.822 474.046 121.122 472.45 120.884L471.89 120.8C470.994 120.66 470.504 120.38 470.504 119.68C470.504 118.994 470.994 118.56 471.918 118.56C472.842 118.56 473.458 118.994 473.78 119.442L474.522 118.77C473.934 118.042 473.164 117.608 472.002 117.608C470.532 117.608 469.426 118.308 469.426 119.736C469.426 121.08 470.42 121.626 471.75 121.822L472.324 121.906C473.276 122.046 473.584 122.48 473.584 123.04C473.584 123.782 473.024 124.216 472.072 124.216C471.162 124.216 470.49 123.81 469.93 123.11L469.132 123.754C469.776 124.608 470.658 125.168 471.988 125.168ZM479.488 125.168C480.86 125.168 481.798 124.496 482.26 123.46L481.448 122.914C481.056 123.74 480.398 124.174 479.488 124.174C478.158 124.174 477.472 123.264 477.472 122.004V120.772C477.472 119.512 478.158 118.602 479.488 118.602C480.37 118.602 480.986 119.036 481.252 119.778L482.19 119.302C481.77 118.308 480.916 117.608 479.488 117.608C477.458 117.608 476.268 119.078 476.268 121.388C476.268 123.698 477.458 125.168 479.488 125.168ZM485.121 125V120.1C485.121 119.414 485.849 118.896 487.053 118.896H487.711V117.776H487.277C486.101 117.776 485.443 118.42 485.191 119.106H485.121V117.776H484.001V125H485.121ZM491.95 125.168C493.308 125.168 494.344 124.496 494.806 123.516L494.008 122.942C493.63 123.74 492.93 124.188 492.02 124.188C490.676 124.188 489.878 123.25 489.878 122.004V121.668H495.072V121.136C495.072 119.092 493.882 117.608 491.95 117.608C489.99 117.608 488.702 119.092 488.702 121.388C488.702 123.684 489.99 125.168 491.95 125.168ZM491.95 118.546C493.098 118.546 493.868 119.4 493.868 120.674V120.828H489.878V120.73C489.878 119.47 490.732 118.546 491.95 118.546ZM500.073 125V124.02H498.603V118.756H500.185V117.776H498.603V115.774H497.595V117.118C497.595 117.608 497.441 117.776 496.965 117.776H496.293V118.756H497.483V123.81C497.483 124.51 497.903 125 498.673 125H500.073ZM504.807 125.168C506.165 125.168 507.201 124.496 507.663 123.516L506.865 122.942C506.487 123.74 505.787 124.188 504.877 124.188C503.533 124.188 502.735 123.25 502.735 122.004V121.668H507.929V121.136C507.929 119.092 506.739 117.608 504.807 117.608C502.847 117.608 501.559 119.092 501.559 121.388C501.559 123.684 502.847 125.168 504.807 125.168ZM504.807 118.546C505.955 118.546 506.725 119.4 506.725 120.674V120.828H502.735V120.73C502.735 119.47 503.589 118.546 504.807 118.546Z" fill="black"/>
<path d="M683.815 125.168C685.439 125.168 686.629 124.314 687.245 122.942L686.307 122.354C685.915 123.418 685.061 124.118 683.815 124.118C682.135 124.118 681.141 122.9 681.141 120.898V119.442C681.141 117.44 682.135 116.11 683.815 116.11C685.019 116.11 685.831 116.768 686.223 117.776L687.175 117.202C686.559 115.844 685.439 115.06 683.815 115.06C681.351 115.06 679.881 116.908 679.881 120.17C679.881 123.432 681.351 125.168 683.815 125.168ZM691.844 125.168C693.776 125.168 695.106 123.684 695.106 121.388C695.106 119.092 693.776 117.608 691.844 117.608C689.912 117.608 688.582 119.092 688.582 121.388C688.582 123.684 689.912 125.168 691.844 125.168ZM691.844 124.174C690.64 124.174 689.786 123.432 689.786 121.906V120.87C689.786 119.344 690.64 118.602 691.844 118.602C693.048 118.602 693.902 119.344 693.902 120.87V121.906C693.902 123.432 693.048 124.174 691.844 124.174ZM698.228 125V119.988C698.228 119.064 699.096 118.616 699.992 118.616C701.07 118.616 701.63 119.274 701.63 120.562V125H702.75V120.366C702.75 118.616 701.812 117.608 700.328 117.608C699.25 117.608 698.634 118.14 698.284 118.952H698.228V117.776H697.108V125H698.228ZM708.221 125V124.02H706.751V118.756H708.333V117.776H706.751V115.774H705.743V117.118C705.743 117.608 705.589 117.776 705.113 117.776H704.441V118.756H705.631V123.81C705.631 124.51 706.051 125 706.821 125H708.221ZM710.854 116.082C711.33 116.082 711.54 115.83 711.54 115.452V115.27C711.54 114.892 711.33 114.64 710.854 114.64C710.378 114.64 710.168 114.892 710.168 115.27V115.452C710.168 115.83 710.378 116.082 710.854 116.082ZM710.294 125H711.414V117.776H710.294V125ZM715.074 125V119.988C715.074 119.064 715.942 118.616 716.838 118.616C717.916 118.616 718.476 119.274 718.476 120.562V125H719.596V120.366C719.596 118.616 718.658 117.608 717.174 117.608C716.096 117.608 715.48 118.14 715.13 118.952H715.074V117.776H713.954V125H715.074ZM726.523 125H727.643V117.776H726.523V122.774C726.523 123.726 725.655 124.16 724.773 124.16C723.695 124.16 723.121 123.502 723.121 122.214V117.776H722.001V122.41C722.001 124.16 722.953 125.168 724.437 125.168C725.641 125.168 726.187 124.51 726.467 123.824H726.523V125ZM732.918 125.168C734.85 125.168 736.18 123.684 736.18 121.388C736.18 119.092 734.85 117.608 732.918 117.608C730.986 117.608 729.656 119.092 729.656 121.388C729.656 123.684 730.986 125.168 732.918 125.168ZM732.918 124.174C731.714 124.174 730.86 123.432 730.86 121.906V120.87C730.86 119.344 731.714 118.602 732.918 118.602C734.122 118.602 734.976 119.344 734.976 120.87V121.906C734.976 123.432 734.122 124.174 732.918 124.174ZM742.634 125H743.754V117.776H742.634V122.774C742.634 123.726 741.766 124.16 740.884 124.16C739.806 124.16 739.232 123.502 739.232 122.214V117.776H738.112V122.41C738.112 124.16 739.064 125.168 740.548 125.168C741.752 125.168 742.298 124.51 742.578 123.824H742.634V125ZM748.469 125.168C750.121 125.168 751.143 124.314 751.143 122.914C751.143 121.822 750.527 121.122 748.931 120.884L748.371 120.8C747.475 120.66 746.985 120.38 746.985 119.68C746.985 118.994 747.475 118.56 748.399 118.56C749.323 118.56 749.939 118.994 750.261 119.442L751.003 118.77C750.415 118.042 749.645 117.608 748.483 117.608C747.013 117.608 745.907 118.308 745.907 119.736C745.907 121.08 746.901 121.626 748.231 121.822L748.805 121.906C749.757 122.046 750.065 122.48 750.065 123.04C750.065 123.782 749.505 124.216 748.553 124.216C747.643 124.216 746.971 123.81 746.411 123.11L745.613 123.754C746.257 124.608 747.139 125.168 748.469 125.168Z" fill="black"/>
<path d="M540.269 34.168C542.369 34.168 543.629 33.02 543.629 31.228C543.629 29.772 542.803 28.932 540.899 28.498L540.101 28.316C538.869 28.036 538.267 27.616 538.267 26.692C538.267 25.642 539.037 25.096 540.283 25.096C541.417 25.096 542.159 25.558 542.691 26.3L543.573 25.656C542.845 24.62 541.809 24.06 540.339 24.06C538.421 24.06 537.105 24.998 537.105 26.734C537.105 28.232 538.085 29.016 539.863 29.422L540.661 29.604C541.949 29.898 542.467 30.36 542.467 31.284C542.467 32.404 541.711 33.132 540.311 33.132C539.177 33.132 538.365 32.642 537.679 31.732L536.811 32.46C537.595 33.524 538.701 34.168 540.269 34.168ZM546.268 25.082C546.744 25.082 546.954 24.83 546.954 24.452V24.27C546.954 23.892 546.744 23.64 546.268 23.64C545.792 23.64 545.582 23.892 545.582 24.27V24.452C545.582 24.83 545.792 25.082 546.268 25.082ZM545.708 34H546.828V26.776H545.708V34ZM552.364 34V33.02H550.894V27.756H552.476V26.776H550.894V24.774H549.886V26.118C549.886 26.608 549.732 26.776 549.256 26.776H548.584V27.756H549.774V32.81C549.774 33.51 550.194 34 550.964 34H552.364ZM558.888 34H560.008V26.776H558.888V31.774C558.888 32.726 558.02 33.16 557.138 33.16C556.06 33.16 555.486 32.502 555.486 31.214V26.776H554.366V31.41C554.366 33.16 555.318 34.168 556.802 34.168C558.006 34.168 558.552 33.51 558.832 32.824H558.888V34ZM568.738 34.168C570.096 34.168 571.132 33.496 571.594 32.516L570.796 31.942C570.418 32.74 569.718 33.188 568.808 33.188C567.464 33.188 566.666 32.25 566.666 31.004V30.668H571.86V30.136C571.86 28.092 570.67 26.608 568.738 26.608C566.778 26.608 565.49 28.092 565.49 30.388C565.49 32.684 566.778 34.168 568.738 34.168ZM568.738 27.546C569.886 27.546 570.656 28.4 570.656 29.674V29.828H566.666V29.73C566.666 28.47 567.52 27.546 568.738 27.546ZM576.862 34V33.02H575.392V27.756H576.974V26.776H575.392V24.774H574.384V26.118C574.384 26.608 574.23 26.776 573.754 26.776H573.082V27.756H574.272V32.81C574.272 33.51 574.692 34 575.462 34H576.862ZM588.282 34V33.02H587.456V29.044C587.456 27.518 586.42 26.608 584.684 26.608C583.382 26.608 582.514 27.252 582.122 28.022L582.794 28.652C583.186 27.994 583.76 27.574 584.628 27.574C585.776 27.574 586.336 28.134 586.336 29.156V29.87H584.908C582.808 29.87 581.828 30.626 581.828 31.984C581.828 33.328 582.724 34.168 584.25 34.168C585.258 34.168 586.028 33.706 586.336 32.824H586.406C586.49 33.496 586.826 34 587.652 34H588.282ZM584.432 33.216C583.564 33.216 583.004 32.81 583.004 32.096V31.802C583.004 31.102 583.578 30.71 584.852 30.71H586.336V31.9C586.336 32.642 585.538 33.216 584.432 33.216ZM592.225 34V33.02H591.161V23.64H590.041V32.838C590.041 33.51 590.461 34 591.231 34H592.225ZM594.866 34.168C595.454 34.168 595.72 33.832 595.72 33.356V33.174C595.72 32.698 595.454 32.362 594.866 32.362C594.278 32.362 594.012 32.698 594.012 33.174V33.356C594.012 33.832 594.278 34.168 594.866 34.168Z" fill="black"/>
<path d="M617.626 34H618.802V24.228H617.626V28.54H612.684V24.228H611.508V34H612.684V29.576H617.626V34ZM625.906 34H627.026V26.776H625.906V31.774C625.906 32.726 625.038 33.16 624.156 33.16C623.078 33.16 622.504 32.502 622.504 31.214V26.776H621.384V31.41C621.384 33.16 622.336 34.168 623.82 34.168C625.024 34.168 625.57 33.51 625.85 32.824H625.906V34ZM635.756 34.168C637.114 34.168 638.15 33.496 638.612 32.516L637.814 31.942C637.436 32.74 636.736 33.188 635.826 33.188C634.482 33.188 633.684 32.25 633.684 31.004V30.668H638.878V30.136C638.878 28.092 637.688 26.608 635.756 26.608C633.796 26.608 632.508 28.092 632.508 30.388C632.508 32.684 633.796 34.168 635.756 34.168ZM635.756 27.546C636.904 27.546 637.674 28.4 637.674 29.674V29.828H633.684V29.73C633.684 28.47 634.538 27.546 635.756 27.546ZM643.879 34V33.02H642.409V27.756H643.991V26.776H642.409V24.774H641.401V26.118C641.401 26.608 641.247 26.776 640.771 26.776H640.099V27.756H641.289V32.81C641.289 33.51 641.709 34 642.479 34H643.879ZM655.3 34V33.02H654.474V29.044C654.474 27.518 653.438 26.608 651.702 26.608C650.4 26.608 649.532 27.252 649.14 28.022L649.812 28.652C650.204 27.994 650.778 27.574 651.646 27.574C652.794 27.574 653.354 28.134 653.354 29.156V29.87H651.926C649.826 29.87 648.846 30.626 648.846 31.984C648.846 33.328 649.742 34.168 651.268 34.168C652.276 34.168 653.046 33.706 653.354 32.824H653.424C653.508 33.496 653.844 34 654.67 34H655.3ZM651.45 33.216C650.582 33.216 650.022 32.81 650.022 32.096V31.802C650.022 31.102 650.596 30.71 651.87 30.71H653.354V31.9C653.354 32.642 652.556 33.216 651.45 33.216ZM659.243 34V33.02H658.179V23.64H657.059V32.838C657.059 33.51 657.479 34 658.249 34H659.243ZM661.884 34.168C662.472 34.168 662.738 33.832 662.738 33.356V33.174C662.738 32.698 662.472 32.362 661.884 32.362C661.296 32.362 661.03 32.698 661.03 33.174V33.356C661.03 33.832 661.296 34.168 661.884 34.168Z" fill="black"/>
<path d="M684.289 34L687.579 24.228H686.361L684.737 29.156L683.631 32.824H683.561L682.483 29.156L680.873 24.228H679.613L682.861 34H684.289ZM694.972 35.316H693.474V34.126C695.616 33.832 696.96 32.096 696.96 29.114C696.96 25.838 695.336 24.06 692.816 24.06C690.296 24.06 688.672 25.838 688.672 29.114C688.672 32.18 690.1 33.944 692.354 34.154V35.148C692.354 35.806 692.76 36.296 693.53 36.296H694.972V35.316ZM692.816 33.118C691.122 33.118 689.932 31.858 689.932 29.926V28.302C689.932 26.37 691.122 25.11 692.816 25.11C694.51 25.11 695.7 26.37 695.7 28.302V29.926C695.7 31.858 694.51 33.118 692.816 33.118ZM705.562 34H706.654V28.974H703.35V30.01H705.506V30.976C705.506 32.418 704.372 33.118 703.014 33.118C701.152 33.118 700.004 31.83 700.004 29.898V28.316C700.004 26.384 701.18 25.11 702.902 25.11C704.134 25.11 705.044 25.754 705.492 26.79L706.458 26.202C705.828 24.928 704.652 24.06 702.902 24.06C700.396 24.06 698.744 25.866 698.744 29.114C698.744 32.39 700.41 34.168 702.804 34.168C704.288 34.168 705.282 33.482 705.52 32.572H705.562V34Z" fill="black"/>
<path d="M134.621 81V76.576H138.863V75.54H134.621V72.264H139.269V71.228H133.445V81H134.621ZM146.632 81V80.02H145.806V76.044C145.806 74.518 144.77 73.608 143.034 73.608C141.732 73.608 140.864 74.252 140.472 75.022L141.144 75.652C141.536 74.994 142.11 74.574 142.978 74.574C144.126 74.574 144.686 75.134 144.686 76.156V76.87H143.258C141.158 76.87 140.178 77.626 140.178 78.984C140.178 80.328 141.074 81.168 142.6 81.168C143.608 81.168 144.378 80.706 144.686 79.824H144.756C144.84 80.496 145.176 81 146.002 81H146.632ZM142.782 80.216C141.914 80.216 141.354 79.81 141.354 79.096V78.802C141.354 78.102 141.928 77.71 143.202 77.71H144.686V78.9C144.686 79.642 143.888 80.216 142.782 80.216ZM152.843 81H153.963V73.776H152.843V78.774C152.843 79.726 151.975 80.16 151.093 80.16C150.015 80.16 149.441 79.502 149.441 78.214V73.776H148.321V78.41C148.321 80.16 149.273 81.168 150.757 81.168C151.961 81.168 152.507 80.51 152.787 79.824H152.843V81ZM158.692 81V80.02H157.628V70.64H156.508V79.838C156.508 80.51 156.928 81 157.698 81H158.692ZM163.41 81V80.02H161.94V74.756H163.522V73.776H161.94V71.774H160.932V73.118C160.932 73.608 160.778 73.776 160.302 73.776H159.63V74.756H160.82V79.81C160.82 80.51 161.24 81 162.01 81H163.41ZM168.639 77.346V76.142H164.985V77.346H168.639ZM173.957 81V80.02H172.487V74.756H174.069V73.776H172.487V71.774H171.479V73.118C171.479 73.608 171.325 73.776 170.849 73.776H170.177V74.756H171.367V79.81C171.367 80.51 171.787 81 172.557 81H173.957ZM178.704 81.168C180.636 81.168 181.966 79.684 181.966 77.388C181.966 75.092 180.636 73.608 178.704 73.608C176.772 73.608 175.442 75.092 175.442 77.388C175.442 79.684 176.772 81.168 178.704 81.168ZM178.704 80.174C177.5 80.174 176.646 79.432 176.646 77.906V76.87C176.646 75.344 177.5 74.602 178.704 74.602C179.908 74.602 180.762 75.344 180.762 76.87V77.906C180.762 79.432 179.908 80.174 178.704 80.174ZM186.152 81V80.02H185.088V70.64H183.968V79.838C183.968 80.51 184.388 81 185.158 81H186.152ZM190.659 81.168C192.017 81.168 193.053 80.496 193.515 79.516L192.717 78.942C192.339 79.74 191.639 80.188 190.729 80.188C189.385 80.188 188.587 79.25 188.587 78.004V77.668H193.781V77.136C193.781 75.092 192.591 73.608 190.659 73.608C188.699 73.608 187.411 75.092 187.411 77.388C187.411 79.684 188.699 81.168 190.659 81.168ZM190.659 74.546C191.807 74.546 192.577 75.4 192.577 76.674V76.828H188.587V76.73C188.587 75.47 189.441 74.546 190.659 74.546ZM196.906 81V76.1C196.906 75.414 197.634 74.896 198.838 74.896H199.496V73.776H199.062C197.886 73.776 197.228 74.42 196.976 75.106H196.906V73.776H195.786V81H196.906ZM206.912 81V80.02H206.086V76.044C206.086 74.518 205.05 73.608 203.314 73.608C202.012 73.608 201.144 74.252 200.752 75.022L201.424 75.652C201.816 74.994 202.39 74.574 203.258 74.574C204.406 74.574 204.966 75.134 204.966 76.156V76.87H203.538C201.438 76.87 200.458 77.626 200.458 78.984C200.458 80.328 201.354 81.168 202.88 81.168C203.888 81.168 204.658 80.706 204.966 79.824H205.036C205.12 80.496 205.456 81 206.282 81H206.912ZM203.062 80.216C202.194 80.216 201.634 79.81 201.634 79.096V78.802C201.634 78.102 202.208 77.71 203.482 77.71H204.966V78.9C204.966 79.642 204.168 80.216 203.062 80.216ZM209.791 81V75.988C209.791 75.064 210.659 74.616 211.555 74.616C212.633 74.616 213.193 75.274 213.193 76.562V81H214.313V76.366C214.313 74.616 213.375 73.608 211.891 73.608C210.813 73.608 210.197 74.14 209.847 74.952H209.791V73.776H208.671V81H209.791ZM219.784 81V80.02H218.314V74.756H219.896V73.776H218.314V71.774H217.306V73.118C217.306 73.608 217.152 73.776 216.676 73.776H216.004V74.756H217.194V79.81C217.194 80.51 217.614 81 218.384 81H219.784Z" fill="black"/>
<path d="M138.98 170.316H137.482V169.126C139.624 168.832 140.968 167.096 140.968 164.114C140.968 160.838 139.344 159.06 136.824 159.06C134.304 159.06 132.68 160.838 132.68 164.114C132.68 167.18 134.108 168.944 136.362 169.154V170.148C136.362 170.806 136.768 171.296 137.538 171.296H138.98V170.316ZM136.824 168.118C135.13 168.118 133.94 166.858 133.94 164.926V163.302C133.94 161.37 135.13 160.11 136.824 160.11C138.518 160.11 139.708 161.37 139.708 163.302V164.926C139.708 166.858 138.518 168.118 136.824 168.118Z" fill="black"/>
<path d="M138.98 214.316H137.482V213.126C139.624 212.832 140.968 211.096 140.968 208.114C140.968 204.838 139.344 203.06 136.824 203.06C134.304 203.06 132.68 204.838 132.68 208.114C132.68 211.18 134.108 212.944 136.362 213.154V214.148C136.362 214.806 136.768 215.296 137.538 215.296H138.98V214.316ZM136.824 212.118C135.13 212.118 133.94 210.858 133.94 208.926V207.302C133.94 205.37 135.13 204.11 136.824 204.11C138.518 204.11 139.708 205.37 139.708 207.302V208.926C139.708 210.858 138.518 212.118 136.824 212.118Z" fill="black"/>
<path d="M377.156 170.316H375.658V169.126C377.8 168.832 379.144 167.096 379.144 164.114C379.144 160.838 377.52 159.06 375 159.06C372.48 159.06 370.856 160.838 370.856 164.114C370.856 167.18 372.284 168.944 374.538 169.154V170.148C374.538 170.806 374.944 171.296 375.714 171.296H377.156V170.316ZM375 168.118C373.306 168.118 372.116 166.858 372.116 164.926V163.302C372.116 161.37 373.306 160.11 375 160.11C376.694 160.11 377.884 161.37 377.884 163.302V164.926C377.884 166.858 376.694 168.118 375 168.118Z" fill="black"/>
<path d="M462.156 170.316H460.658V169.126C462.8 168.832 464.144 167.096 464.144 164.114C464.144 160.838 462.52 159.06 460 159.06C457.48 159.06 455.856 160.838 455.856 164.114C455.856 167.18 457.284 168.944 459.538 169.154V170.148C459.538 170.806 459.944 171.296 460.714 171.296H462.156V170.316ZM460 168.118C458.306 168.118 457.116 166.858 457.116 164.926V163.302C457.116 161.37 458.306 160.11 460 160.11C461.694 160.11 462.884 161.37 462.884 163.302V164.926C462.884 166.858 461.694 168.118 460 168.118Z" fill="black"/>
<path d="M543.156 170.316H541.658V169.126C543.8 168.832 545.144 167.096 545.144 164.114C545.144 160.838 543.52 159.06 541 159.06C538.48 159.06 536.856 160.838 536.856 164.114C536.856 167.18 538.284 168.944 540.538 169.154V170.148C540.538 170.806 540.944 171.296 541.714 171.296H543.156V170.316ZM541 168.118C539.306 168.118 538.116 166.858 538.116 164.926V163.302C538.116 161.37 539.306 160.11 541 160.11C542.694 160.11 543.884 161.37 543.884 163.302V164.926C543.884 166.858 542.694 168.118 541 168.118Z" fill="black"/>
<path d="M686.14 170.316H684.642V169.126C686.784 168.832 688.128 167.096 688.128 164.114C688.128 160.838 686.504 159.06 683.984 159.06C681.464 159.06 679.84 160.838 679.84 164.114C679.84 167.18 681.268 168.944 683.522 169.154V170.148C683.522 170.806 683.928 171.296 684.698 171.296H686.14V170.316ZM683.984 168.118C682.29 168.118 681.1 166.858 681.1 164.926V163.302C681.1 161.37 682.29 160.11 683.984 160.11C685.678 160.11 686.868 161.37 686.868 163.302V164.926C686.868 166.858 685.678 168.118 683.984 168.118ZM690.097 171.114L693.751 158.64H692.743L689.089 171.114H690.097ZM699.023 169.168C700.647 169.168 701.837 168.314 702.453 166.942L701.515 166.354C701.123 167.418 700.269 168.118 699.023 168.118C697.343 168.118 696.349 166.9 696.349 164.898V163.442C696.349 161.44 697.343 160.11 699.023 160.11C700.227 160.11 701.039 160.768 701.431 161.776L702.383 161.202C701.767 159.844 700.647 159.06 699.023 159.06C696.559 159.06 695.089 160.908 695.089 164.17C695.089 167.432 696.559 169.168 699.023 169.168Z" fill="black"/>
<path d="M686.14 214.316H684.642V213.126C686.784 212.832 688.128 211.096 688.128 208.114C688.128 204.838 686.504 203.06 683.984 203.06C681.464 203.06 679.84 204.838 679.84 208.114C679.84 211.18 681.268 212.944 683.522 213.154V214.148C683.522 214.806 683.928 215.296 684.698 215.296H686.14V214.316ZM683.984 212.118C682.29 212.118 681.1 210.858 681.1 208.926V207.302C681.1 205.37 682.29 204.11 683.984 204.11C685.678 204.11 686.868 205.37 686.868 207.302V208.926C686.868 210.858 685.678 212.118 683.984 212.118ZM690.097 215.114L693.751 202.64H692.743L689.089 215.114H690.097ZM699.023 213.168C700.647 213.168 701.837 212.314 702.453 210.942L701.515 210.354C701.123 211.418 700.269 212.118 699.023 212.118C697.343 212.118 696.349 210.9 696.349 208.898V207.442C696.349 205.44 697.343 204.11 699.023 204.11C700.227 204.11 701.039 204.768 701.431 205.776L702.383 205.202C701.767 203.844 700.647 203.06 699.023 203.06C696.559 203.06 695.089 204.908 695.089 208.17C695.089 211.432 696.559 213.168 699.023 213.168Z" fill="black"/>
<path d="M686.156 258.316H684.658V257.126C686.8 256.832 688.144 255.096 688.144 252.114C688.144 248.838 686.52 247.06 684 247.06C681.48 247.06 679.856 248.838 679.856 252.114C679.856 255.18 681.284 256.944 683.538 257.154V258.148C683.538 258.806 683.944 259.296 684.714 259.296H686.156V258.316ZM684 256.118C682.306 256.118 681.116 254.858 681.116 252.926V251.302C681.116 249.37 682.306 248.11 684 248.11C685.694 248.11 686.884 249.37 686.884 251.302V252.926C686.884 254.858 685.694 256.118 684 256.118Z" fill="black"/>
<path d="M377.156 214.316H375.658V213.126C377.8 212.832 379.144 211.096 379.144 208.114C379.144 204.838 377.52 203.06 375 203.06C372.48 203.06 370.856 204.838 370.856 208.114C370.856 211.18 372.284 212.944 374.538 213.154V214.148C374.538 214.806 374.944 215.296 375.714 215.296H377.156V214.316ZM375 212.118C373.306 212.118 372.116 210.858 372.116 208.926V207.302C372.116 205.37 373.306 204.11 375 204.11C376.694 204.11 377.884 205.37 377.884 207.302V208.926C377.884 210.858 376.694 212.118 375 212.118Z" fill="black"/>
<path d="M138.98 258.316H137.482V257.126C139.624 256.832 140.968 255.096 140.968 252.114C140.968 248.838 139.344 247.06 136.824 247.06C134.304 247.06 132.68 248.838 132.68 252.114C132.68 255.18 134.108 256.944 136.362 257.154V258.148C136.362 258.806 136.768 259.296 137.538 259.296H138.98V258.316ZM136.824 256.118C135.13 256.118 133.94 254.858 133.94 252.926V251.302C133.94 249.37 135.13 248.11 136.824 248.11C138.518 248.11 139.708 249.37 139.708 251.302V252.926C139.708 254.858 138.518 256.118 136.824 256.118Z" fill="black"/>
<path d="M617.156 170.316H615.658V169.126C617.8 168.832 619.144 167.096 619.144 164.114C619.144 160.838 617.52 159.06 615 159.06C612.48 159.06 610.856 160.838 610.856 164.114C610.856 167.18 612.284 168.944 614.538 169.154V170.148C614.538 170.806 614.944 171.296 615.714 171.296H617.156V170.316ZM615 168.118C613.306 168.118 612.116 166.858 612.116 164.926V163.302C612.116 161.37 613.306 160.11 615 160.11C616.694 160.11 617.884 161.37 617.884 163.302V164.926C617.884 166.858 616.694 168.118 615 168.118Z" fill="black"/>
<path d="M617.156 214.316H615.658V213.126C617.8 212.832 619.144 211.096 619.144 208.114C619.144 204.838 617.52 203.06 615 203.06C612.48 203.06 610.856 204.838 610.856 208.114C610.856 211.18 612.284 212.944 614.538 213.154V214.148C614.538 214.806 614.944 215.296 615.714 215.296H617.156V214.316ZM615 212.118C613.306 212.118 612.116 210.858 612.116 208.926V207.302C612.116 205.37 613.306 204.11 615 204.11C616.694 204.11 617.884 205.37 617.884 207.302V208.926C617.884 210.858 616.694 212.118 615 212.118Z" fill="black"/>
<path d="M617.156 258.316H615.658V257.126C617.8 256.832 619.144 255.096 619.144 252.114C619.144 248.838 617.52 247.06 615 247.06C612.48 247.06 610.856 248.838 610.856 252.114C610.856 255.18 612.284 256.944 614.538 257.154V258.148C614.538 258.806 614.944 259.296 615.714 259.296H617.156V258.316ZM615 256.118C613.306 256.118 612.116 254.858 612.116 252.926V251.302C612.116 249.37 613.306 248.11 615 248.11C616.694 248.11 617.884 249.37 617.884 251.302V252.926C617.884 254.858 616.694 256.118 615 256.118Z" fill="black"/>
<path d="M291.156 258.316H289.658V257.126C291.8 256.832 293.144 255.096 293.144 252.114C293.144 248.838 291.52 247.06 289 247.06C286.48 247.06 284.856 248.838 284.856 252.114C284.856 255.18 286.284 256.944 288.538 257.154V258.148C288.538 258.806 288.944 259.296 289.714 259.296H291.156V258.316ZM289 256.118C287.306 256.118 286.116 254.858 286.116 252.926V251.302C286.116 249.37 287.306 248.11 289 248.11C290.694 248.11 291.884 249.37 291.884 251.302V252.926C291.884 254.858 290.694 256.118 289 256.118Z" fill="black"/>
<path d="M291.14 214.316H289.642V213.126C291.784 212.832 293.128 211.096 293.128 208.114C293.128 204.838 291.504 203.06 288.984 203.06C286.464 203.06 284.84 204.838 284.84 208.114C284.84 211.18 286.268 212.944 288.522 213.154V214.148C288.522 214.806 288.928 215.296 289.698 215.296H291.14V214.316ZM288.984 212.118C287.29 212.118 286.1 210.858 286.1 208.926V207.302C286.1 205.37 287.29 204.11 288.984 204.11C290.678 204.11 291.868 205.37 291.868 207.302V208.926C291.868 210.858 290.678 212.118 288.984 212.118ZM295.097 215.114L298.751 202.64H297.743L294.089 215.114H295.097ZM304.023 213.168C305.647 213.168 306.837 212.314 307.453 210.942L306.515 210.354C306.123 211.418 305.269 212.118 304.023 212.118C302.343 212.118 301.349 210.9 301.349 208.898V207.442C301.349 205.44 302.343 204.11 304.023 204.11C305.227 204.11 306.039 204.768 306.431 205.776L307.383 205.202C306.767 203.844 305.647 203.06 304.023 203.06C301.559 203.06 300.089 204.908 300.089 208.17C300.089 211.432 301.559 213.168 304.023 213.168Z" fill="black"/>
<path d="M288.898 169.168C290.522 169.168 291.712 168.314 292.328 166.942L291.39 166.354C290.998 167.418 290.144 168.118 288.898 168.118C287.218 168.118 286.224 166.9 286.224 164.898V163.442C286.224 161.44 287.218 160.11 288.898 160.11C290.102 160.11 290.914 160.768 291.306 161.776L292.258 161.202C291.642 159.844 290.522 159.06 288.898 159.06C286.434 159.06 284.964 160.908 284.964 164.17C284.964 167.432 286.434 169.168 288.898 169.168Z" fill="black"/>
<path d="M374.898 257.168C376.522 257.168 377.712 256.314 378.328 254.942L377.39 254.354C376.998 255.418 376.144 256.118 374.898 256.118C373.218 256.118 372.224 254.9 372.224 252.898V251.442C372.224 249.44 373.218 248.11 374.898 248.11C376.102 248.11 376.914 248.768 377.306 249.776L378.258 249.202C377.642 247.844 376.522 247.06 374.898 247.06C372.434 247.06 370.964 248.908 370.964 252.17C370.964 255.432 372.434 257.168 374.898 257.168Z" fill="black"/>
<path d="M459.898 257.168C461.522 257.168 462.712 256.314 463.328 254.942L462.39 254.354C461.998 255.418 461.144 256.118 459.898 256.118C458.218 256.118 457.224 254.9 457.224 252.898V251.442C457.224 249.44 458.218 248.11 459.898 248.11C461.102 248.11 461.914 248.768 462.306 249.776L463.258 249.202C462.642 247.844 461.522 247.06 459.898 247.06C457.434 247.06 455.964 248.908 455.964 252.17C455.964 255.432 457.434 257.168 459.898 257.168Z" fill="black"/>
<path d="M459.898 213.168C461.522 213.168 462.712 212.314 463.328 210.942L462.39 210.354C461.998 211.418 461.144 212.118 459.898 212.118C458.218 212.118 457.224 210.9 457.224 208.898V207.442C457.224 205.44 458.218 204.11 459.898 204.11C461.102 204.11 461.914 204.768 462.306 205.776L463.258 205.202C462.642 203.844 461.522 203.06 459.898 203.06C457.434 203.06 455.964 204.908 455.964 208.17C455.964 211.432 457.434 213.168 459.898 213.168Z" fill="black"/>
<path d="M540.898 257.168C542.522 257.168 543.712 256.314 544.328 254.942L543.39 254.354C542.998 255.418 542.144 256.118 540.898 256.118C539.218 256.118 538.224 254.9 538.224 252.898V251.442C538.224 249.44 539.218 248.11 540.898 248.11C542.102 248.11 542.914 248.768 543.306 249.776L544.258 249.202C543.642 247.844 542.522 247.06 540.898 247.06C538.434 247.06 536.964 248.908 536.964 252.17C536.964 255.432 538.434 257.168 540.898 257.168Z" fill="black"/>
<path d="M540.898 213.168C542.522 213.168 543.712 212.314 544.328 210.942L543.39 210.354C542.998 211.418 542.144 212.118 540.898 212.118C539.218 212.118 538.224 210.9 538.224 208.898V207.442C538.224 205.44 539.218 204.11 540.898 204.11C542.102 204.11 542.914 204.768 543.306 205.776L544.258 205.202C543.642 203.844 542.522 203.06 540.898 203.06C538.434 203.06 536.964 204.908 536.964 208.17C536.964 211.432 538.434 213.168 540.898 213.168Z" fill="black"/>
<path d="M462.512 81H463.688V71.228H462.512V75.54H457.57V71.228H456.394V81H457.57V76.576H462.512V81ZM469.042 78.69L468.65 79.866H468.58L468.244 78.69L466.508 73.776H465.388L468.09 81.28L467.544 82.82H466.41V83.8H466.984C468.048 83.8 468.342 83.548 468.664 82.68L471.898 73.776H470.792L469.042 78.69ZM473.486 81H474.606V79.824H474.662C475.096 80.72 475.782 81.168 476.776 81.168C478.582 81.168 479.716 79.698 479.716 77.388C479.716 75.078 478.582 73.608 476.776 73.608C475.782 73.608 475.04 74.042 474.662 74.952H474.606V70.64H473.486V81ZM476.468 80.16C475.446 80.16 474.606 79.628 474.606 78.69V76.002C474.606 75.204 475.446 74.616 476.468 74.616C477.728 74.616 478.512 75.484 478.512 76.772V78.004C478.512 79.292 477.728 80.16 476.468 80.16ZM482.888 81V76.1C482.888 75.414 483.616 74.896 484.82 74.896H485.478V73.776H485.044C483.868 73.776 483.21 74.42 482.958 75.106H482.888V73.776H481.768V81H482.888ZM487.628 72.082C488.104 72.082 488.314 71.83 488.314 71.452V71.27C488.314 70.892 488.104 70.64 487.628 70.64C487.152 70.64 486.942 70.892 486.942 71.27V71.452C486.942 71.83 487.152 72.082 487.628 72.082ZM487.068 81H488.188V73.776H487.068V81ZM495.348 81H496.468V70.64H495.348V74.952H495.292C494.914 74.042 494.172 73.608 493.178 73.608C491.372 73.608 490.238 75.078 490.238 77.388C490.238 79.698 491.372 81.168 493.178 81.168C494.172 81.168 494.858 80.72 495.292 79.824H495.348V81ZM493.486 80.16C492.226 80.16 491.442 79.292 491.442 78.004V76.772C491.442 75.484 492.226 74.616 493.486 74.616C494.508 74.616 495.348 75.204 495.348 76.002V78.69C495.348 79.628 494.508 80.16 493.486 80.16ZM507.098 83.8H508.218V73.776H507.098V74.952H507.042C506.664 74.042 505.922 73.608 504.928 73.608C503.122 73.608 501.988 75.078 501.988 77.388C501.988 79.698 503.122 81.168 504.928 81.168C505.922 81.168 506.608 80.72 507.042 79.824H507.098V83.8ZM505.236 80.16C503.976 80.16 503.192 79.292 503.192 78.004V76.772C503.192 75.484 503.976 74.616 505.236 74.616C506.258 74.616 507.098 75.204 507.098 76.002V78.69C507.098 79.628 506.258 80.16 505.236 80.16ZM515.211 81H516.331V73.776H515.211V78.774C515.211 79.726 514.343 80.16 513.461 80.16C512.383 80.16 511.809 79.502 511.809 78.214V73.776H510.689V78.41C510.689 80.16 511.641 81.168 513.125 81.168C514.329 81.168 514.875 80.51 515.155 79.824H515.211V81ZM524.756 81V80.02H523.93V76.044C523.93 74.518 522.894 73.608 521.158 73.608C519.856 73.608 518.988 74.252 518.596 75.022L519.268 75.652C519.66 74.994 520.234 74.574 521.102 74.574C522.25 74.574 522.81 75.134 522.81 76.156V76.87H521.382C519.282 76.87 518.302 77.626 518.302 78.984C518.302 80.328 519.198 81.168 520.724 81.168C521.732 81.168 522.502 80.706 522.81 79.824H522.88C522.964 80.496 523.3 81 524.126 81H524.756ZM520.906 80.216C520.038 80.216 519.478 79.81 519.478 79.096V78.802C519.478 78.102 520.052 77.71 521.326 77.71H522.81V78.9C522.81 79.642 522.012 80.216 520.906 80.216ZM527.634 81V75.988C527.634 75.064 528.502 74.616 529.398 74.616C530.476 74.616 531.036 75.274 531.036 76.562V81H532.156V76.366C532.156 74.616 531.218 73.608 529.734 73.608C528.656 73.608 528.04 74.14 527.69 74.952H527.634V73.776H526.514V81H527.634ZM537.627 81V80.02H536.157V74.756H537.739V73.776H536.157V71.774H535.149V73.118C535.149 73.608 534.995 73.776 534.519 73.776H533.847V74.756H535.037V79.81C535.037 80.51 535.457 81 536.227 81H537.627ZM544.152 81H545.272V73.776H544.152V78.774C544.152 79.726 543.284 80.16 542.402 80.16C541.324 80.16 540.75 79.502 540.75 78.214V73.776H539.63V78.41C539.63 80.16 540.582 81.168 542.066 81.168C543.27 81.168 543.816 80.51 544.096 79.824H544.152V81ZM548.937 81V75.988C548.937 75.064 549.777 74.616 550.659 74.616C551.723 74.616 552.213 75.274 552.213 76.562V81H553.333V75.988C553.333 75.064 554.145 74.616 555.027 74.616C556.119 74.616 556.609 75.288 556.609 76.562V81H557.729V76.366C557.729 74.616 556.847 73.608 555.377 73.608C554.145 73.608 553.445 74.294 553.179 75.078H553.151C552.759 74.042 551.891 73.608 550.939 73.608C549.819 73.608 549.315 74.21 548.993 74.952H548.937V73.776H547.817V81H548.937ZM563.629 77.346V76.142H559.975V77.346H563.629ZM568.776 81.168C570.148 81.168 571.086 80.496 571.548 79.46L570.736 78.914C570.344 79.74 569.686 80.174 568.776 80.174C567.446 80.174 566.76 79.264 566.76 78.004V76.772C566.76 75.512 567.446 74.602 568.776 74.602C569.658 74.602 570.274 75.036 570.54 75.778L571.478 75.302C571.058 74.308 570.204 73.608 568.776 73.608C566.746 73.608 565.556 75.078 565.556 77.388C565.556 79.698 566.746 81.168 568.776 81.168ZM575.473 81V80.02H574.409V70.64H573.289V79.838C573.289 80.51 573.709 81 574.479 81H575.473ZM583.143 81V80.02H582.317V76.044C582.317 74.518 581.281 73.608 579.545 73.608C578.243 73.608 577.375 74.252 576.983 75.022L577.655 75.652C578.047 74.994 578.621 74.574 579.489 74.574C580.637 74.574 581.197 75.134 581.197 76.156V76.87H579.769C577.669 76.87 576.689 77.626 576.689 78.984C576.689 80.328 577.585 81.168 579.111 81.168C580.119 81.168 580.889 80.706 581.197 79.824H581.267C581.351 80.496 581.687 81 582.513 81H583.143ZM579.293 80.216C578.425 80.216 577.865 79.81 577.865 79.096V78.802C577.865 78.102 578.439 77.71 579.713 77.71H581.197V78.9C581.197 79.642 580.399 80.216 579.293 80.216ZM587.072 81.168C588.724 81.168 589.746 80.314 589.746 78.914C589.746 77.822 589.13 77.122 587.534 76.884L586.974 76.8C586.078 76.66 585.588 76.38 585.588 75.68C585.588 74.994 586.078 74.56 587.002 74.56C587.926 74.56 588.542 74.994 588.864 75.442L589.606 74.77C589.018 74.042 588.248 73.608 587.086 73.608C585.616 73.608 584.51 74.308 584.51 75.736C584.51 77.08 585.504 77.626 586.834 77.822L587.408 77.906C588.36 78.046 588.668 78.48 588.668 79.04C588.668 79.782 588.108 80.216 587.156 80.216C586.246 80.216 585.574 79.81 585.014 79.11L584.216 79.754C584.86 80.608 585.742 81.168 587.072 81.168ZM593.972 81.168C595.624 81.168 596.646 80.314 596.646 78.914C596.646 77.822 596.03 77.122 594.434 76.884L593.874 76.8C592.978 76.66 592.488 76.38 592.488 75.68C592.488 74.994 592.978 74.56 593.902 74.56C594.826 74.56 595.442 74.994 595.764 75.442L596.506 74.77C595.918 74.042 595.148 73.608 593.986 73.608C592.516 73.608 591.41 74.308 591.41 75.736C591.41 77.08 592.404 77.626 593.734 77.822L594.308 77.906C595.26 78.046 595.568 78.48 595.568 79.04C595.568 79.782 595.008 80.216 594.056 80.216C593.146 80.216 592.474 79.81 591.914 79.11L591.116 79.754C591.76 80.608 592.642 81.168 593.972 81.168ZM599.344 72.082C599.82 72.082 600.03 71.83 600.03 71.452V71.27C600.03 70.892 599.82 70.64 599.344 70.64C598.868 70.64 598.658 70.892 598.658 71.27V71.452C598.658 71.83 598.868 72.082 599.344 72.082ZM598.784 81H599.904V73.776H598.784V81ZM605.132 81.168C606.504 81.168 607.442 80.496 607.904 79.46L607.092 78.914C606.7 79.74 606.042 80.174 605.132 80.174C603.802 80.174 603.116 79.264 603.116 78.004V76.772C603.116 75.512 603.802 74.602 605.132 74.602C606.014 74.602 606.63 75.036 606.896 75.778L607.834 75.302C607.414 74.308 606.56 73.608 605.132 73.608C603.102 73.608 601.912 75.078 601.912 77.388C601.912 79.698 603.102 81.168 605.132 81.168ZM615.525 81V80.02H614.699V76.044C614.699 74.518 613.663 73.608 611.927 73.608C610.625 73.608 609.757 74.252 609.365 75.022L610.037 75.652C610.429 74.994 611.003 74.574 611.871 74.574C613.019 74.574 613.579 75.134 613.579 76.156V76.87H612.151C610.051 76.87 609.071 77.626 609.071 78.984C609.071 80.328 609.967 81.168 611.493 81.168C612.501 81.168 613.271 80.706 613.579 79.824H613.649C613.733 80.496 614.069 81 614.895 81H615.525ZM611.675 80.216C610.807 80.216 610.247 79.81 610.247 79.096V78.802C610.247 78.102 610.821 77.71 612.095 77.71H613.579V78.9C613.579 79.642 612.781 80.216 611.675 80.216ZM619.468 81V80.02H618.404V70.64H617.284V79.838C617.284 80.51 617.704 81 618.474 81H619.468Z" fill="black"/>
<line x1="671.5" y1="98" x2="671.5" y2="142" stroke="#DDE1E6"/>
<line x1="125" y1="185.5" x2="758" y2="185.5" stroke="#DDE1E6"/>
<line x1="125" y1="229.5" x2="758" y2="229.5" stroke="#E0E0E0"/>
<path d="M16.76 81V80.02H15.388V72.208H16.76V71.228H12.84V72.208H14.212V80.02H12.84V81H16.76ZM20.0755 81V75.988C20.0755 75.064 20.9155 74.616 21.7975 74.616C22.8615 74.616 23.3515 75.274 23.3515 76.562V81H24.4715V75.988C24.4715 75.064 25.2835 74.616 26.1655 74.616C27.2575 74.616 27.7475 75.288 27.7475 76.562V81H28.8675V76.366C28.8675 74.616 27.9855 73.608 26.5155 73.608C25.2835 73.608 24.5835 74.294 24.3175 75.078H24.2895C23.8975 74.042 23.0295 73.608 22.0775 73.608C20.9575 73.608 20.4535 74.21 20.1315 74.952H20.0755V73.776H18.9555V81H20.0755ZM31.3381 83.8H32.4581V79.824H32.5141C32.9481 80.72 33.6341 81.168 34.6281 81.168C36.4341 81.168 37.5681 79.698 37.5681 77.388C37.5681 75.078 36.4341 73.608 34.6281 73.608C33.6341 73.608 32.8921 74.042 32.5141 74.952H32.4581V73.776H31.3381V83.8ZM34.3201 80.16C33.2981 80.16 32.4581 79.628 32.4581 78.69V76.002C32.4581 75.204 33.2981 74.616 34.3201 74.616C35.5801 74.616 36.3641 75.484 36.3641 76.772V78.004C36.3641 79.292 35.5801 80.16 34.3201 80.16ZM41.8032 81V80.02H40.7392V70.64H39.6192V79.838C39.6192 80.51 40.0392 81 40.8092 81H41.8032ZM46.3097 81.168C47.6677 81.168 48.7037 80.496 49.1657 79.516L48.3677 78.942C47.9897 79.74 47.2897 80.188 46.3797 80.188C45.0357 80.188 44.2377 79.25 44.2377 78.004V77.668H49.4317V77.136C49.4317 75.092 48.2417 73.608 46.3097 73.608C44.3497 73.608 43.0617 75.092 43.0617 77.388C43.0617 79.684 44.3497 81.168 46.3097 81.168ZM46.3097 74.546C47.4577 74.546 48.2277 75.4 48.2277 76.674V76.828H44.2377V76.73C44.2377 75.47 45.0917 74.546 46.3097 74.546ZM52.5573 81V75.988C52.5573 75.064 53.3973 74.616 54.2793 74.616C55.3433 74.616 55.8333 75.274 55.8333 76.562V81H56.9533V75.988C56.9533 75.064 57.7653 74.616 58.6473 74.616C59.7393 74.616 60.2293 75.288 60.2293 76.562V81H61.3493V76.366C61.3493 74.616 60.4673 73.608 58.9973 73.608C57.7653 73.608 57.0653 74.294 56.7993 75.078H56.7713C56.3793 74.042 55.5113 73.608 54.5593 73.608C53.4393 73.608 52.9353 74.21 52.6133 74.952H52.5573V73.776H51.4373V81H52.5573ZM66.5359 81.168C67.8939 81.168 68.9299 80.496 69.3919 79.516L68.5939 78.942C68.2159 79.74 67.5159 80.188 66.6059 80.188C65.2619 80.188 64.4639 79.25 64.4639 78.004V77.668H69.6579V77.136C69.6579 75.092 68.4679 73.608 66.5359 73.608C64.5759 73.608 63.2879 75.092 63.2879 77.388C63.2879 79.684 64.5759 81.168 66.5359 81.168ZM66.5359 74.546C67.6839 74.546 68.4539 75.4 68.4539 76.674V76.828H64.4639V76.73C64.4639 75.47 65.3179 74.546 66.5359 74.546ZM72.7835 81V75.988C72.7835 75.064 73.6515 74.616 74.5475 74.616C75.6255 74.616 76.1855 75.274 76.1855 76.562V81H77.3055V76.366C77.3055 74.616 76.3675 73.608 74.8835 73.608C73.8055 73.608 73.1895 74.14 72.8395 74.952H72.7835V73.776H71.6635V81H72.7835ZM82.7765 81V80.02H81.3065V74.756H82.8885V73.776H81.3065V71.774H80.2985V73.118C80.2985 73.608 80.1445 73.776 79.6685 73.776H78.9965V74.756H80.1865V79.81C80.1865 80.51 80.6065 81 81.3765 81H82.7765ZM90.7288 81V80.02H89.9028V76.044C89.9028 74.518 88.8668 73.608 87.1308 73.608C85.8288 73.608 84.9608 74.252 84.5688 75.022L85.2408 75.652C85.6328 74.994 86.2068 74.574 87.0748 74.574C88.2228 74.574 88.7828 75.134 88.7828 76.156V76.87H87.3548C85.2548 76.87 84.2748 77.626 84.2748 78.984C84.2748 80.328 85.1708 81.168 86.6968 81.168C87.7048 81.168 88.4748 80.706 88.7828 79.824H88.8528C88.9368 80.496 89.2728 81 90.0988 81H90.7288ZM86.8788 80.216C86.0108 80.216 85.4508 79.81 85.4508 79.096V78.802C85.4508 78.102 86.0248 77.71 87.2988 77.71H88.7828V78.9C88.7828 79.642 87.9848 80.216 86.8788 80.216ZM95.4833 81V80.02H94.0133V74.756H95.5953V73.776H94.0133V71.774H93.0053V73.118C93.0053 73.608 92.8513 73.776 92.3753 73.776H91.7033V74.756H92.8933V79.81C92.8933 80.51 93.3133 81 94.0833 81H95.4833ZM98.1155 72.082C98.5915 72.082 98.8015 71.83 98.8015 71.452V71.27C98.8015 70.892 98.5915 70.64 98.1155 70.64C97.6395 70.64 97.4295 70.892 97.4295 71.27V71.452C97.4295 71.83 97.6395 72.082 98.1155 72.082ZM97.5555 81H98.6755V73.776H97.5555V81ZM103.945 81.168C105.877 81.168 107.207 79.684 107.207 77.388C107.207 75.092 105.877 73.608 103.945 73.608C102.013 73.608 100.683 75.092 100.683 77.388C100.683 79.684 102.013 81.168 103.945 81.168ZM103.945 80.174C102.741 80.174 101.887 79.432 101.887 77.906V76.87C101.887 75.344 102.741 74.602 103.945 74.602C105.149 74.602 106.003 75.344 106.003 76.87V77.906C106.003 79.432 105.149 80.174 103.945 80.174ZM110.329 81V75.988C110.329 75.064 111.197 74.616 112.093 74.616C113.171 74.616 113.731 75.274 113.731 76.562V81H114.851V76.366C114.851 74.616 113.913 73.608 112.429 73.608C111.351 73.608 110.735 74.14 110.385 74.952H110.329V73.776H109.209V81H110.329Z" fill="black"/>
<path d="M14.478 32V27.828H17.194C18.944 27.828 19.924 26.75 19.924 25.028C19.924 23.306 18.944 22.228 17.194 22.228H13.302V32H14.478ZM14.478 23.264H17.194C18.118 23.264 18.664 23.768 18.664 24.664V25.392C18.664 26.288 18.118 26.792 17.194 26.792H14.478V23.264ZM27.5835 32V31.02H26.7575V27.044C26.7575 25.518 25.7215 24.608 23.9855 24.608C22.6835 24.608 21.8155 25.252 21.4235 26.022L22.0955 26.652C22.4875 25.994 23.0615 25.574 23.9295 25.574C25.0775 25.574 25.6375 26.134 25.6375 27.156V27.87H24.2095C22.1095 27.87 21.1295 28.626 21.1295 29.984C21.1295 31.328 22.0255 32.168 23.5515 32.168C24.5595 32.168 25.3295 31.706 25.6375 30.824H25.7075C25.7915 31.496 26.1275 32 26.9535 32H27.5835ZM23.7335 31.216C22.8655 31.216 22.3055 30.81 22.3055 30.096V29.802C22.3055 29.102 22.8795 28.71 24.1535 28.71H25.6375V29.9C25.6375 30.642 24.8395 31.216 23.7335 31.216ZM29.342 34.8H30.462V30.824H30.518C30.952 31.72 31.638 32.168 32.632 32.168C34.438 32.168 35.572 30.698 35.572 28.388C35.572 26.078 34.438 24.608 32.632 24.608C31.638 24.608 30.896 25.042 30.518 25.952H30.462V24.776H29.342V34.8ZM32.324 31.16C31.302 31.16 30.462 30.628 30.462 29.69V27.002C30.462 26.204 31.302 25.616 32.324 25.616C33.584 25.616 34.368 26.484 34.368 27.772V29.004C34.368 30.292 33.584 31.16 32.324 31.16ZM40.3391 32.168C41.6971 32.168 42.7331 31.496 43.1951 30.516L42.3971 29.942C42.0191 30.74 41.3191 31.188 40.4091 31.188C39.0651 31.188 38.2671 30.25 38.2671 29.004V28.668H43.4611V28.136C43.4611 26.092 42.2711 24.608 40.3391 24.608C38.3791 24.608 37.0911 26.092 37.0911 28.388C37.0911 30.684 38.3791 32.168 40.3391 32.168ZM40.3391 25.546C41.4871 25.546 42.2571 26.4 42.2571 27.674V27.828H38.2671V27.73C38.2671 26.47 39.1211 25.546 40.3391 25.546ZM46.5867 32V27.1C46.5867 26.414 47.3147 25.896 48.5187 25.896H49.1767V24.776H48.7427C47.5667 24.776 46.9087 25.42 46.6567 26.106H46.5867V24.776H45.4667V32H46.5867Z" fill="black"/>
<path d="M16.956 125L20.246 115.228H19.028L17.404 120.156L16.298 123.824H16.228L15.15 120.156L13.54 115.228H12.28L15.528 125H16.956ZM27.3374 125V124.02H26.5114V120.044C26.5114 118.518 25.4754 117.608 23.7394 117.608C22.4374 117.608 21.5694 118.252 21.1774 119.022L21.8494 119.652C22.2414 118.994 22.8154 118.574 23.6834 118.574C24.8314 118.574 25.3914 119.134 25.3914 120.156V120.87H23.9634C21.8634 120.87 20.8834 121.626 20.8834 122.984C20.8834 124.328 21.7794 125.168 23.3054 125.168C24.3134 125.168 25.0834 124.706 25.3914 123.824H25.4614C25.5454 124.496 25.8814 125 26.7074 125H27.3374ZM23.4874 124.216C22.6194 124.216 22.0594 123.81 22.0594 123.096V122.802C22.0594 122.102 22.6334 121.71 23.9074 121.71H25.3914V122.9C25.3914 123.642 24.5934 124.216 23.4874 124.216ZM30.2159 125V120.1C30.2159 119.414 30.9439 118.896 32.1479 118.896H32.8059V117.776H32.3719C31.1959 117.776 30.5379 118.42 30.2859 119.106H30.2159V117.776H29.0959V125H30.2159ZM34.9566 116.082C35.4326 116.082 35.6426 115.83 35.6426 115.452V115.27C35.6426 114.892 35.4326 114.64 34.9566 114.64C34.4806 114.64 34.2706 114.892 34.2706 115.27V115.452C34.2706 115.83 34.4806 116.082 34.9566 116.082ZM34.3966 125H35.5166V117.776H34.3966V125ZM43.9366 125V124.02H43.1106V120.044C43.1106 118.518 42.0746 117.608 40.3386 117.608C39.0366 117.608 38.1686 118.252 37.7766 119.022L38.4486 119.652C38.8406 118.994 39.4146 118.574 40.2826 118.574C41.4306 118.574 41.9906 119.134 41.9906 120.156V120.87H40.5626C38.4626 120.87 37.4826 121.626 37.4826 122.984C37.4826 124.328 38.3786 125.168 39.9046 125.168C40.9126 125.168 41.6826 124.706 41.9906 123.824H42.0606C42.1446 124.496 42.4806 125 43.3066 125H43.9366ZM40.0866 124.216C39.2186 124.216 38.6586 123.81 38.6586 123.096V122.802C38.6586 122.102 39.2326 121.71 40.5066 121.71H41.9906V122.9C41.9906 123.642 41.1926 124.216 40.0866 124.216ZM45.6951 125H46.8151V123.824H46.8711C47.3051 124.72 47.9911 125.168 48.9851 125.168C50.7911 125.168 51.9251 123.698 51.9251 121.388C51.9251 119.078 50.7911 117.608 48.9851 117.608C47.9911 117.608 47.2491 118.042 46.8711 118.952H46.8151V114.64H45.6951V125ZM48.6771 124.16C47.6551 124.16 46.8151 123.628 46.8151 122.69V120.002C46.8151 119.204 47.6551 118.616 48.6771 118.616C49.9371 118.616 50.7211 119.484 50.7211 120.772V122.004C50.7211 123.292 49.9371 124.16 48.6771 124.16ZM56.1602 125V124.02H55.0962V114.64H53.9762V123.838C53.9762 124.51 54.3962 125 55.1662 125H56.1602ZM60.6666 125.168C62.0246 125.168 63.0606 124.496 63.5226 123.516L62.7246 122.942C62.3466 123.74 61.6466 124.188 60.7366 124.188C59.3926 124.188 58.5946 123.25 58.5946 122.004V121.668H63.7886V121.136C63.7886 119.092 62.5986 117.608 60.6666 117.608C58.7066 117.608 57.4186 119.092 57.4186 121.388C57.4186 123.684 58.7066 125.168 60.6666 125.168ZM60.6666 118.546C61.8146 118.546 62.5846 119.4 62.5846 120.674V120.828H58.5946V120.73C58.5946 119.47 59.4486 118.546 60.6666 118.546ZM72.2588 125V124.02H70.7888V118.756H72.3708V117.776H70.7888V115.774H69.7808V117.118C69.7808 117.608 69.6268 117.776 69.1508 117.776H68.4788V118.756H69.6688V123.81C69.6688 124.51 70.0888 125 70.8588 125H72.2588ZM77.033 122.69L76.641 123.866H76.571L76.235 122.69L74.499 117.776H73.379L76.081 125.28L75.535 126.82H74.401V127.8H74.975C76.039 127.8 76.333 127.548 76.655 126.68L79.889 117.776H78.783L77.033 122.69ZM81.4773 127.8H82.5973V123.824H82.6533C83.0873 124.72 83.7733 125.168 84.7673 125.168C86.5733 125.168 87.7073 123.698 87.7073 121.388C87.7073 119.078 86.5733 117.608 84.7673 117.608C83.7733 117.608 83.0313 118.042 82.6533 118.952H82.5973V117.776H81.4773V127.8ZM84.4593 124.16C83.4373 124.16 82.5973 123.628 82.5973 122.69V120.002C82.5973 119.204 83.4373 118.616 84.4593 118.616C85.7193 118.616 86.5033 119.484 86.5033 120.772V122.004C86.5033 123.292 85.7193 124.16 84.4593 124.16ZM92.4744 125.168C93.8324 125.168 94.8684 124.496 95.3304 123.516L94.5324 122.942C94.1544 123.74 93.4544 124.188 92.5444 124.188C91.2004 124.188 90.4024 123.25 90.4024 122.004V121.668H95.5964V121.136C95.5964 119.092 94.4064 117.608 92.4744 117.608C90.5144 117.608 89.2264 119.092 89.2264 121.388C89.2264 123.684 90.5144 125.168 92.4744 125.168ZM92.4744 118.546C93.6224 118.546 94.3924 119.4 94.3924 120.674V120.828H90.4024V120.73C90.4024 119.47 91.2564 118.546 92.4744 118.546Z" fill="black"/>
<path d="M19.63 169H20.722V163.974H17.418V165.01H19.574V165.976C19.574 167.418 18.44 168.118 17.082 168.118C15.22 168.118 14.072 166.83 14.072 164.898V163.316C14.072 161.384 15.248 160.11 16.97 160.11C18.202 160.11 19.112 160.754 19.56 161.79L20.526 161.202C19.896 159.928 18.72 159.06 16.97 159.06C14.464 159.06 12.812 160.866 12.812 164.114C12.812 167.39 14.478 169.168 16.872 169.168C18.356 169.168 19.35 168.482 19.588 167.572H19.63V169ZM25.8004 169.168C27.1584 169.168 28.1944 168.496 28.6564 167.516L27.8584 166.942C27.4804 167.74 26.7804 168.188 25.8704 168.188C24.5264 168.188 23.7284 167.25 23.7284 166.004V165.668H28.9224V165.136C28.9224 163.092 27.7324 161.608 25.8004 161.608C23.8404 161.608 22.5524 163.092 22.5524 165.388C22.5524 167.684 23.8404 169.168 25.8004 169.168ZM25.8004 162.546C26.9484 162.546 27.7184 163.4 27.7184 164.674V164.828H23.7284V164.73C23.7284 163.47 24.5824 162.546 25.8004 162.546ZM32.048 169V163.988C32.048 163.064 32.916 162.616 33.812 162.616C34.89 162.616 35.45 163.274 35.45 164.562V169H36.57V164.366C36.57 162.616 35.632 161.608 34.148 161.608C33.07 161.608 32.454 162.14 32.104 162.952H32.048V161.776H30.928V169H32.048ZM41.761 169.168C43.119 169.168 44.155 168.496 44.617 167.516L43.819 166.942C43.441 167.74 42.741 168.188 41.831 168.188C40.487 168.188 39.689 167.25 39.689 166.004V165.668H44.883V165.136C44.883 163.092 43.693 161.608 41.761 161.608C39.801 161.608 38.513 163.092 38.513 165.388C38.513 167.684 39.801 169.168 41.761 169.168ZM41.761 162.546C42.909 162.546 43.679 163.4 43.679 164.674V164.828H39.689V164.73C39.689 163.47 40.543 162.546 41.761 162.546ZM48.0086 169V164.1C48.0086 163.414 48.7366 162.896 49.9406 162.896H50.5986V161.776H50.1646C48.9886 161.776 48.3306 162.42 48.0786 163.106H48.0086V161.776H46.8886V169H48.0086ZM58.0145 169V168.02H57.1885V164.044C57.1885 162.518 56.1525 161.608 54.4165 161.608C53.1145 161.608 52.2465 162.252 51.8545 163.022L52.5265 163.652C52.9185 162.994 53.4925 162.574 54.3605 162.574C55.5085 162.574 56.0685 163.134 56.0685 164.156V164.87H54.6405C52.5405 164.87 51.5605 165.626 51.5605 166.984C51.5605 168.328 52.4565 169.168 53.9825 169.168C54.9905 169.168 55.7605 168.706 56.0685 167.824H56.1385C56.2225 168.496 56.5585 169 57.3845 169H58.0145ZM54.1645 168.216C53.2965 168.216 52.7365 167.81 52.7365 167.096V166.802C52.7365 166.102 53.3105 165.71 54.5845 165.71H56.0685V166.9C56.0685 167.642 55.2705 168.216 54.1645 168.216ZM62.769 169V168.02H61.299V162.756H62.881V161.776H61.299V159.774H60.291V161.118C60.291 161.608 60.137 161.776 59.661 161.776H58.989V162.756H60.179V167.81C60.179 168.51 60.599 169 61.369 169H62.769ZM67.5166 169.168C69.4486 169.168 70.7786 167.684 70.7786 165.388C70.7786 163.092 69.4486 161.608 67.5166 161.608C65.5846 161.608 64.2546 163.092 64.2546 165.388C64.2546 167.684 65.5846 169.168 67.5166 169.168ZM67.5166 168.174C66.3126 168.174 65.4586 167.432 65.4586 165.906V164.87C65.4586 163.344 66.3126 162.602 67.5166 162.602C68.7206 162.602 69.5746 163.344 69.5746 164.87V165.906C69.5746 167.432 68.7206 168.174 67.5166 168.174ZM73.9005 169V164.1C73.9005 163.414 74.6285 162.896 75.8325 162.896H76.4905V161.776H76.0565C74.8805 161.776 74.2225 162.42 73.9705 163.106H73.9005V161.776H72.7805V169H73.9005Z" fill="black"/>
<path d="M13.302 213H16.578C19.014 213 20.582 211.376 20.582 208.114C20.582 204.852 19.014 203.228 16.578 203.228H13.302V213ZM14.478 211.964V204.264H16.578C18.188 204.264 19.322 205.384 19.322 207.316V208.912C19.322 210.844 18.188 211.964 16.578 211.964H14.478ZM25.4586 213.168C26.8166 213.168 27.8526 212.496 28.3146 211.516L27.5166 210.942C27.1386 211.74 26.4386 212.188 25.5286 212.188C24.1846 212.188 23.3866 211.25 23.3866 210.004V209.668H28.5806V209.136C28.5806 207.092 27.3906 205.608 25.4586 205.608C23.4986 205.608 22.2106 207.092 22.2106 209.388C22.2106 211.684 23.4986 213.168 25.4586 213.168ZM25.4586 206.546C26.6066 206.546 27.3766 207.4 27.3766 208.674V208.828H23.3866V208.73C23.3866 207.47 24.2406 206.546 25.4586 206.546ZM32.7562 213.168C34.4082 213.168 35.4302 212.314 35.4302 210.914C35.4302 209.822 34.8142 209.122 33.2182 208.884L32.6582 208.8C31.7622 208.66 31.2722 208.38 31.2722 207.68C31.2722 206.994 31.7622 206.56 32.6862 206.56C33.6102 206.56 34.2262 206.994 34.5482 207.442L35.2902 206.77C34.7022 206.042 33.9322 205.608 32.7702 205.608C31.3002 205.608 30.1942 206.308 30.1942 207.736C30.1942 209.08 31.1882 209.626 32.5182 209.822L33.0922 209.906C34.0442 210.046 34.3522 210.48 34.3522 211.04C34.3522 211.782 33.7922 212.216 32.8402 212.216C31.9302 212.216 31.2582 211.81 30.6982 211.11L29.9002 211.754C30.5442 212.608 31.4262 213.168 32.7562 213.168ZM40.2564 213.168C41.6284 213.168 42.5664 212.496 43.0284 211.46L42.2164 210.914C41.8244 211.74 41.1664 212.174 40.2564 212.174C38.9264 212.174 38.2404 211.264 38.2404 210.004V208.772C38.2404 207.512 38.9264 206.602 40.2564 206.602C41.1384 206.602 41.7544 207.036 42.0204 207.778L42.9584 207.302C42.5384 206.308 41.6844 205.608 40.2564 205.608C38.2264 205.608 37.0364 207.078 37.0364 209.388C37.0364 211.698 38.2264 213.168 40.2564 213.168ZM45.8895 213V208.1C45.8895 207.414 46.6175 206.896 47.8215 206.896H48.4795V205.776H48.0455C46.8695 205.776 46.2115 206.42 45.9595 207.106H45.8895V205.776H44.7695V213H45.8895ZM50.6301 204.082C51.1061 204.082 51.3161 203.83 51.3161 203.452V203.27C51.3161 202.892 51.1061 202.64 50.6301 202.64C50.1541 202.64 49.9441 202.892 49.9441 203.27V203.452C49.9441 203.83 50.1541 204.082 50.6301 204.082ZM50.0701 213H51.1901V205.776H50.0701V213ZM54.8501 213V207.988C54.8501 207.064 55.6901 206.616 56.5721 206.616C57.6361 206.616 58.1261 207.274 58.1261 208.562V213H59.2461V207.988C59.2461 207.064 60.0581 206.616 60.9401 206.616C62.0321 206.616 62.5221 207.288 62.5221 208.562V213H63.6421V208.366C63.6421 206.616 62.7601 205.608 61.2901 205.608C60.0581 205.608 59.3581 206.294 59.0921 207.078H59.0641C58.6721 206.042 57.8041 205.608 56.8521 205.608C55.7321 205.608 55.2281 206.21 54.9061 206.952H54.8501V205.776H53.7301V213H54.8501ZM66.6727 204.082C67.1487 204.082 67.3587 203.83 67.3587 203.452V203.27C67.3587 202.892 67.1487 202.64 66.6727 202.64C66.1967 202.64 65.9867 202.892 65.9867 203.27V203.452C65.9867 203.83 66.1967 204.082 66.6727 204.082ZM66.1127 213H67.2327V205.776H66.1127V213ZM70.8927 213V207.988C70.8927 207.064 71.7607 206.616 72.6567 206.616C73.7347 206.616 74.2947 207.274 74.2947 208.562V213H75.4147V208.366C75.4147 206.616 74.4767 205.608 72.9927 205.608C71.9147 205.608 71.2987 206.14 70.9487 206.952H70.8927V205.776H69.7727V213H70.8927ZM83.7698 213V212.02H82.9438V208.044C82.9438 206.518 81.9078 205.608 80.1718 205.608C78.8698 205.608 78.0018 206.252 77.6098 207.022L78.2818 207.652C78.6738 206.994 79.2478 206.574 80.1158 206.574C81.2638 206.574 81.8238 207.134 81.8238 208.156V208.87H80.3958C78.2958 208.87 77.3158 209.626 77.3158 210.984C77.3158 212.328 78.2118 213.168 79.7378 213.168C80.7458 213.168 81.5158 212.706 81.8238 211.824H81.8938C81.9778 212.496 82.3138 213 83.1398 213H83.7698ZM79.9198 212.216C79.0518 212.216 78.4918 211.81 78.4918 211.096V210.802C78.4918 210.102 79.0658 209.71 80.3398 209.71H81.8238V210.9C81.8238 211.642 81.0258 212.216 79.9198 212.216ZM88.5243 213V212.02H87.0543V206.756H88.6363V205.776H87.0543V203.774H86.0463V205.118C86.0463 205.608 85.8923 205.776 85.4163 205.776H84.7443V206.756H85.9343V211.81C85.9343 212.51 86.3543 213 87.1243 213H88.5243ZM93.2718 213.168C95.2038 213.168 96.5338 211.684 96.5338 209.388C96.5338 207.092 95.2038 205.608 93.2718 205.608C91.3398 205.608 90.0098 207.092 90.0098 209.388C90.0098 211.684 91.3398 213.168 93.2718 213.168ZM93.2718 212.174C92.0678 212.174 91.2138 211.432 91.2138 209.906V208.87C91.2138 207.344 92.0678 206.602 93.2718 206.602C94.4758 206.602 95.3298 207.344 95.3298 208.87V209.906C95.3298 211.432 94.4758 212.174 93.2718 212.174ZM99.6558 213V208.1C99.6558 207.414 100.384 206.896 101.588 206.896H102.246V205.776H101.812C100.636 205.776 99.9778 206.42 99.7258 207.106H99.6558V205.776H98.5358V213H99.6558Z" fill="black"/>
<path d="M13.302 257H16.578C19.014 257 20.582 255.376 20.582 252.114C20.582 248.852 19.014 247.228 16.578 247.228H13.302V257ZM14.478 255.964V248.264H16.578C18.188 248.264 19.322 249.384 19.322 251.316V252.912C19.322 254.844 18.188 255.964 16.578 255.964H14.478ZM28.6226 257V256.02H27.7966V252.044C27.7966 250.518 26.7606 249.608 25.0246 249.608C23.7226 249.608 22.8546 250.252 22.4626 251.022L23.1346 251.652C23.5266 250.994 24.1006 250.574 24.9686 250.574C26.1166 250.574 26.6766 251.134 26.6766 252.156V252.87H25.2486C23.1486 252.87 22.1686 253.626 22.1686 254.984C22.1686 256.328 23.0646 257.168 24.5906 257.168C25.5986 257.168 26.3686 256.706 26.6766 255.824H26.7466C26.8306 256.496 27.1666 257 27.9926 257H28.6226ZM24.7726 256.216C23.9046 256.216 23.3446 255.81 23.3446 255.096V254.802C23.3446 254.102 23.9186 253.71 25.1926 253.71H26.6766V254.9C26.6766 255.642 25.8786 256.216 24.7726 256.216ZM33.3771 257V256.02H31.9071V250.756H33.4891V249.776H31.9071V247.774H30.8991V249.118C30.8991 249.608 30.7451 249.776 30.2691 249.776H29.5971V250.756H30.7871V255.81C30.7871 256.51 31.2071 257 31.9771 257H33.3771ZM41.3293 257V256.02H40.5033V252.044C40.5033 250.518 39.4673 249.608 37.7313 249.608C36.4293 249.608 35.5613 250.252 35.1693 251.022L35.8413 251.652C36.2333 250.994 36.8073 250.574 37.6753 250.574C38.8233 250.574 39.3833 251.134 39.3833 252.156V252.87H37.9553C35.8553 252.87 34.8753 253.626 34.8753 254.984C34.8753 256.328 35.7713 257.168 37.2973 257.168C38.3053 257.168 39.0753 256.706 39.3833 255.824H39.4533C39.5373 256.496 39.8733 257 40.6993 257H41.3293ZM37.4793 256.216C36.6113 256.216 36.0513 255.81 36.0513 255.096V254.802C36.0513 254.102 36.6253 253.71 37.8993 253.71H39.3833V254.9C39.3833 255.642 38.5853 256.216 37.4793 256.216ZM53.0664 248.264V247.228H45.6744V248.264H48.7824V257H49.9584V248.264H53.0664ZM56.8696 254.69L56.4776 255.866H56.4076L56.0716 254.69L54.3356 249.776H53.2156L55.9176 257.28L55.3716 258.82H54.2376V259.8H54.8116C55.8756 259.8 56.1696 259.548 56.4916 258.68L59.7256 249.776H58.6196L56.8696 254.69ZM61.3139 259.8H62.4339V255.824H62.4899C62.9239 256.72 63.6099 257.168 64.6039 257.168C66.4099 257.168 67.5439 255.698 67.5439 253.388C67.5439 251.078 66.4099 249.608 64.6039 249.608C63.6099 249.608 62.8679 250.042 62.4899 250.952H62.4339V249.776H61.3139V259.8ZM64.2959 256.16C63.2739 256.16 62.4339 255.628 62.4339 254.69V252.002C62.4339 251.204 63.2739 250.616 64.2959 250.616C65.5559 250.616 66.3399 251.484 66.3399 252.772V254.004C66.3399 255.292 65.5559 256.16 64.2959 256.16ZM72.311 257.168C73.669 257.168 74.705 256.496 75.167 255.516L74.369 254.942C73.991 255.74 73.291 256.188 72.381 256.188C71.037 256.188 70.239 255.25 70.239 254.004V253.668H75.433V253.136C75.433 251.092 74.243 249.608 72.311 249.608C70.351 249.608 69.063 251.092 69.063 253.388C69.063 255.684 70.351 257.168 72.311 257.168ZM72.311 250.546C73.459 250.546 74.229 251.4 74.229 252.674V252.828H70.239V252.73C70.239 251.47 71.093 250.546 72.311 250.546Z" fill="black"/>
</g>
<defs>
<clipPath id="clip0_1125_20674">
<rect width="759" height="274" fill="white"/>
</clipPath>
</defs>
</svg>
