<svg width="506" height="212" viewBox="0 0 506 212" fill="none" xmlns="http://www.w3.org/2000/svg">
<g clip-path="url(#clip0_1125_23659)">
<rect width="506" height="212" fill="white"/>
<rect opacity="0.4" y="200" width="506" height="26.5399" fill="#F2F4F8"/>
<rect opacity="0.4" y="120" width="506" height="40" fill="#F2F4F8"/>
<rect opacity="0.4" y="40" width="506" height="40" fill="#F2F4F8"/>
<rect x="0.5" y="0.180664" width="505" height="211.319" stroke="#DDE1E6"/>
<path fill-rule="evenodd" clip-rule="evenodd" d="M52.3996 86.1998H53.5996C54.5937 86.1998 55.3996 85.3939 55.3996 84.3998V79.5998C55.3996 78.6057 54.5937 77.7998 53.5996 77.7998H52.3996C51.4055 77.7998 50.5996 78.6057 50.5996 79.5998V84.3998C50.5996 85.3939 51.4055 86.1998 52.3996 86.1998ZM51.7996 79.5998C51.7996 79.2684 52.0682 78.9998 52.3996 78.9998H53.5996C53.931 78.9998 54.1996 79.2684 54.1996 79.5998V84.3998C54.1996 84.7312 53.931 84.9998 53.5996 84.9998H52.3996C52.0682 84.9998 51.7996 84.7312 51.7996 84.3998V79.5998Z" fill="#161616"/>
<path d="M58.0545 88L57 87.46L59.6804 82L57 76.54L58.0545 76L61 82L58.0545 88Z" fill="#161616"/>
<rect x="47" y="76" width="1" height="12" fill="#161616"/>
<line x1="69" y1="81.5" x2="331" y2="81.5" stroke="black"/>
<path fill-rule="evenodd" clip-rule="evenodd" d="M52.3996 134.2H53.5996C54.5937 134.2 55.3996 133.394 55.3996 132.4V127.6C55.3996 126.606 54.5937 125.8 53.5996 125.8H52.3996C51.4055 125.8 50.5996 126.606 50.5996 127.6V132.4C50.5996 133.394 51.4055 134.2 52.3996 134.2ZM51.7996 127.6C51.7996 127.268 52.0682 127 52.3996 127H53.5996C53.931 127 54.1996 127.268 54.1996 127.6V132.4C54.1996 132.731 53.931 133 53.5996 133H52.3996C52.0682 133 51.7996 132.731 51.7996 132.4V127.6Z" fill="#161616"/>
<path d="M58.0545 136L57 135.46L59.6804 130L57 124.54L58.0545 124L61 130L58.0545 136Z" fill="#161616"/>
<rect x="47" y="124" width="1" height="12" fill="#161616"/>
<line x1="69" y1="129.5" x2="331" y2="129.5" stroke="black"/>
<rect width="70" height="144" transform="translate(183 34)" fill="#1192E8"/>
<path d="M111.162 112.268C110.658 113.69 109.892 115.79 109.892 117.094C109.892 117.551 110.264 117.755 110.79 117.755C111.665 117.755 113.306 117.026 113.306 116.688C113.306 116.603 113.197 116.569 113.088 116.569C112.825 116.569 112.431 116.722 112.19 116.823C111.906 116.789 111.753 116.62 111.753 116.383C111.753 114.317 114.248 108.39 114.882 107.137C115.145 106.663 115.429 105.969 115.429 105.833C115.429 105.715 115.298 105.715 115.211 105.715C114.751 105.715 113.766 106.172 113.591 106.494C113.306 107.086 113.263 107.171 113 107.798C112.278 109.406 110.111 112.2 107.945 114.165C107.266 114.757 105.121 116.722 103.567 116.722C102.517 116.722 101.86 116.027 101.86 114.91C101.86 113.724 102.714 112.2 104.027 109.88C104.815 108.492 105.471 107.29 105.471 106.528C105.471 105.732 104.771 105.715 104.377 105.715C102.692 105.715 100.591 106.765 100.591 107.12C100.591 107.222 100.744 107.222 100.832 107.222C101.094 107.222 101.488 107.086 101.838 106.9C101.992 106.816 102.342 106.646 102.933 106.646C103.414 106.646 103.611 106.883 103.611 107.256C103.611 108.001 102.823 109.389 101.904 111.015C100.46 113.555 100 114.639 100 115.621C100 116.739 100.569 117.653 102.123 117.653C103.48 117.653 105.471 116.959 107.704 115.35C109.214 114.249 110.199 113.233 111.14 112.251L111.162 112.268Z" fill="white"/>
<path d="M120.226 118.379C122.94 118.187 124.384 117.081 124.384 116.065C124.384 114.992 122.867 113.92 120.226 113.739V113.13C120.226 112.735 120.226 112.577 121.598 112.577H122.064V112.204C121.408 112.238 120.314 112.238 119.613 112.238C118.913 112.238 117.804 112.238 117.147 112.204V112.577H117.614C118.986 112.577 118.986 112.735 118.986 113.13V113.751C116.549 113.92 114.93 114.959 114.93 116.054C114.93 117.205 116.622 118.199 118.986 118.368V118.989C118.986 119.384 118.986 119.542 117.614 119.542H117.147V119.914C117.804 119.881 118.898 119.881 119.599 119.881C120.299 119.881 121.408 119.881 122.064 119.914V119.542H121.598C120.226 119.542 120.226 119.384 120.226 118.989V118.379ZM118.986 118.052C117.716 117.939 116.403 117.476 116.403 116.065C116.403 114.801 117.439 114.202 118.986 114.067V118.052ZM120.226 114.067C121.51 114.146 122.911 114.597 122.911 116.054C122.911 117.499 121.568 117.961 120.226 118.052V114.067Z" fill="white"/>
<path d="M130.123 122.737C130.24 122.737 130.415 122.737 130.415 122.602C130.415 122.557 130.401 122.545 130.211 122.399C128.212 120.942 127.716 118.843 127.716 117.093C127.716 113.842 129.452 112.317 130.196 111.798C130.401 111.651 130.415 111.64 130.415 111.584C130.415 111.527 130.357 111.448 130.211 111.448C129.977 111.448 129.248 112.024 129.131 112.126C127.176 113.706 126.768 115.738 126.768 117.093C126.768 119.621 128.139 121.653 130.123 122.737Z" fill="white"/>
<path d="M140.01 113.231L139.66 113.502C139.412 113.706 139.368 113.785 139.368 113.864C139.368 113.999 139.528 114.123 139.704 114.123C139.864 114.123 139.937 114.044 139.981 114.01C140.185 113.83 140.535 113.491 141.221 113.243C141.367 113.186 141.527 113.13 141.527 112.972C141.527 112.825 141.381 112.769 141.308 112.723C140.827 112.498 140.696 112.238 140.623 112.069C140.594 111.978 140.521 111.82 140.287 111.82C140.068 111.82 139.952 111.967 139.952 112.08C139.952 112.148 140.054 112.441 140.302 112.712H135.195C134.962 112.712 134.641 112.712 134.641 112.972C134.641 113.231 134.962 113.231 135.195 113.231H140.01Z" fill="white"/>
<path d="M140.239 115.445C140.341 115.354 140.414 115.286 140.414 115.219C140.414 115.117 140.312 115.049 140.21 115.049C140.108 115.049 140.078 115.072 139.947 115.185L136.489 118.018C135.657 116.246 135.657 116.223 135.322 115.738C135.176 115.501 134.811 114.937 133.44 114.937C132.477 114.937 132.083 115.557 132.083 115.715C132.083 115.806 132.17 115.862 132.302 115.862C132.477 115.862 132.491 115.806 132.535 115.715C132.71 115.377 133.104 115.253 133.323 115.253C134.125 115.253 135.293 118.109 135.57 118.763L131.966 121.721C131.82 121.845 131.791 121.857 131.791 121.936C131.791 122.037 131.893 122.105 132.01 122.105C132.054 122.105 132.112 122.105 132.273 121.97L135.73 119.136C136.868 121.755 137.16 121.868 137.715 122.06C137.948 122.139 138.342 122.218 138.78 122.218C139.684 122.218 140.122 121.631 140.122 121.439C140.122 121.337 140.035 121.292 139.903 121.292C139.743 121.292 139.714 121.349 139.67 121.439C139.553 121.687 139.203 121.902 138.882 121.902C138.444 121.902 137.934 121.021 137.729 120.683C137.394 120.118 137.394 120.096 136.635 118.402L140.239 115.445Z" fill="white"/>
<path d="M144.728 116.352C144.728 116.149 144.532 116.014 144.28 116.014C143.984 116.014 143.667 116.234 143.667 116.479C143.667 116.691 143.864 116.818 144.105 116.818C144.455 116.818 144.728 116.564 144.728 116.352ZM144.072 119.307C144.116 119.223 144.214 119.019 144.258 118.943C144.291 118.867 144.335 118.782 144.335 118.638C144.335 118.164 143.787 117.902 143.24 117.902C142.124 117.902 141.588 119.019 141.588 119.206C141.588 119.248 141.632 119.324 141.785 119.324C141.938 119.324 141.971 119.273 142.004 119.197C142.31 118.376 142.89 118.181 143.196 118.181C143.415 118.181 143.492 118.291 143.492 118.486C143.492 118.655 143.426 118.782 143.404 118.842L142.835 119.925C142.704 120.171 142.704 120.188 142.562 120.476C142.42 120.73 142.365 120.84 142.365 120.984C142.365 121.415 142.868 121.72 143.47 121.72C144.575 121.72 145.122 120.603 145.122 120.416C145.122 120.399 145.111 120.298 144.915 120.298C144.761 120.298 144.75 120.34 144.685 120.501C144.51 120.933 144.061 121.441 143.503 121.441C143.306 121.441 143.207 121.339 143.207 121.136C143.207 120.967 143.273 120.84 143.415 120.577L144.072 119.307Z" fill="white"/>
<path d="M151.217 117.093C151.217 116.02 150.984 114.733 150.079 113.401C149.364 112.363 148.036 111.448 147.774 111.448C147.628 111.448 147.584 111.527 147.584 111.584C147.584 111.629 147.584 111.651 147.759 111.787C149.802 113.288 150.269 115.354 150.269 117.093C150.269 120.333 148.532 121.868 147.788 122.387C147.599 122.534 147.584 122.545 147.584 122.602C147.584 122.658 147.628 122.737 147.774 122.737C148.007 122.737 148.737 122.161 148.853 122.06C150.808 120.479 151.217 118.447 151.217 117.093Z" fill="white"/>
<rect x="315" y="113" width="32" height="32" fill="#121619"/>
<path d="M338 128.89L340.427 124.667L338.408 123.5L335.865 127.898C331.573 126.308 326.774 126.916 323.014 129.527C319.254 132.138 317.008 136.422 317 141H319.333C319.336 137.252 321.14 133.733 324.181 131.543C327.222 129.352 331.131 128.756 334.687 129.94L331 136.333C329.944 136.332 329.018 137.041 328.744 138.061C328.47 139.081 328.915 140.158 329.83 140.687C330.744 141.215 331.9 141.064 332.647 140.317C333.394 139.57 333.546 138.415 333.018 137.5L336.833 130.908C340.439 132.99 342.662 136.836 342.667 141H345C344.995 136.003 342.327 131.388 338 128.89Z" fill="white"/>
<path d="M389.022 133.964H383.17L388.826 126.292V125.228H382.204V126.264H387.552L381.91 133.936V135H389.022V133.964Z" fill="black"/>
<path d="M393 124L396 130L393 136" stroke="black"/>
<path d="M378 124L375 130L378 136" stroke="black"/>
<path d="M409.478 130.8H411.76L413.874 135H415.204L412.964 130.688C414.238 130.394 414.924 129.428 414.924 128C414.924 126.222 413.902 125.228 412.194 125.228H408.302V135H409.478V130.8ZM409.478 129.792V126.264H412.194C413.118 126.264 413.664 126.768 413.664 127.664V128.392C413.664 129.288 413.118 129.792 412.194 129.792H409.478ZM419.816 135.168C421.174 135.168 422.21 134.496 422.672 133.516L421.874 132.942C421.496 133.74 420.796 134.188 419.886 134.188C418.542 134.188 417.744 133.25 417.744 132.004V131.668H422.938V131.136C422.938 129.092 421.748 127.608 419.816 127.608C417.856 127.608 416.568 129.092 416.568 131.388C416.568 133.684 417.856 135.168 419.816 135.168ZM419.816 128.546C420.964 128.546 421.734 129.4 421.734 130.674V130.828H417.744V130.73C417.744 129.47 418.598 128.546 419.816 128.546ZM430.824 135V134.02H429.998V130.044C429.998 128.518 428.962 127.608 427.226 127.608C425.924 127.608 425.056 128.252 424.664 129.022L425.336 129.652C425.728 128.994 426.302 128.574 427.17 128.574C428.318 128.574 428.878 129.134 428.878 130.156V130.87H427.45C425.35 130.87 424.37 131.626 424.37 132.984C424.37 134.328 425.266 135.168 426.792 135.168C427.8 135.168 428.57 134.706 428.878 133.824H428.948C429.032 134.496 429.368 135 430.194 135H430.824ZM426.974 134.216C426.106 134.216 425.546 133.81 425.546 133.096V132.802C425.546 132.102 426.12 131.71 427.394 131.71H428.878V132.9C428.878 133.642 428.08 134.216 426.974 134.216ZM434.766 135V134.02H433.702V124.64H432.582V133.838C432.582 134.51 433.002 135 433.772 135H434.766ZM436.501 137.114L440.155 124.64H439.147L435.493 137.114H436.501ZM443.364 135V130.576H447.606V129.54H443.364V126.264H448.012V125.228H442.188V135H443.364ZM455.376 135V134.02H454.55V130.044C454.55 128.518 453.514 127.608 451.778 127.608C450.476 127.608 449.608 128.252 449.216 129.022L449.888 129.652C450.28 128.994 450.854 128.574 451.722 128.574C452.87 128.574 453.43 129.134 453.43 130.156V130.87H452.002C449.902 130.87 448.922 131.626 448.922 132.984C448.922 134.328 449.818 135.168 451.344 135.168C452.352 135.168 453.122 134.706 453.43 133.824H453.5C453.584 134.496 453.92 135 454.746 135H455.376ZM451.526 134.216C450.658 134.216 450.098 133.81 450.098 133.096V132.802C450.098 132.102 450.672 131.71 451.946 131.71H453.43V132.9C453.43 133.642 452.632 134.216 451.526 134.216ZM457.134 135H458.254V132.424L459.332 131.318L461.726 135H463.084L460.144 130.632L462.818 127.776H461.46L459.416 129.974L458.31 131.206H458.254V124.64H457.134V135ZM467.161 135.168C468.519 135.168 469.555 134.496 470.017 133.516L469.219 132.942C468.841 133.74 468.141 134.188 467.231 134.188C465.887 134.188 465.089 133.25 465.089 132.004V131.668H470.283V131.136C470.283 129.092 469.093 127.608 467.161 127.608C465.201 127.608 463.913 129.092 463.913 131.388C463.913 133.684 465.201 135.168 467.161 135.168ZM467.161 128.546C468.309 128.546 469.079 129.4 469.079 130.674V130.828H465.089V130.73C465.089 129.47 465.943 128.546 467.161 128.546Z" fill="black"/>
<path d="M207.254 118.294C207.152 118.693 207.129 118.807 206.331 118.807C206.114 118.807 206 118.807 206 119.013C206 119.138 206.068 119.138 206.296 119.138H209.911C212.214 119.138 214.46 116.755 214.46 114.212C214.46 112.571 213.48 111.351 211.849 111.351H208.189C207.972 111.351 207.87 111.351 207.87 111.567C207.87 111.681 207.972 111.681 208.144 111.681C208.839 111.681 208.839 111.772 208.839 111.898C208.839 111.921 208.839 111.989 208.793 112.16L207.254 118.294ZM209.66 112.126C209.763 111.704 209.808 111.681 210.253 111.681H211.507C212.579 111.681 213.559 112.263 213.559 113.836C213.559 114.406 213.331 116.39 212.225 117.644C211.906 118.021 211.04 118.807 209.728 118.807H208.429C208.269 118.807 208.246 118.807 208.178 118.796C208.052 118.784 208.041 118.762 208.041 118.67C208.041 118.591 208.064 118.522 208.087 118.42L209.66 112.126Z" fill="white"/>
<path d="M218.75 121.909C218.75 121.875 218.75 121.852 218.556 121.658C217.416 120.506 216.778 118.625 216.778 116.299C216.778 114.087 217.314 112.183 218.636 110.838C218.75 110.735 218.75 110.712 218.75 110.678C218.75 110.61 218.693 110.587 218.648 110.587C218.499 110.587 217.565 111.408 217.006 112.525C216.424 113.677 216.162 114.897 216.162 116.299C216.162 117.314 216.322 118.671 216.915 119.891C217.587 121.259 218.522 122 218.648 122C218.693 122 218.75 121.977 218.75 121.909Z" fill="white"/>
<path d="M225.503 109.323C225.366 109.448 224.944 109.847 224.944 110.007C224.944 110.121 225.047 110.223 225.161 110.223C225.264 110.223 225.309 110.155 225.389 110.041C225.663 109.699 225.97 109.482 226.233 109.334C226.347 109.266 226.427 109.231 226.427 109.106C226.427 109.003 226.335 108.946 226.267 108.889C225.948 108.673 225.868 108.365 225.834 108.228C225.799 108.137 225.765 108 225.606 108C225.537 108 225.4 108.046 225.4 108.217C225.4 108.319 225.469 108.593 225.685 108.901H221.854C221.661 108.901 221.467 108.901 221.467 109.117C221.467 109.323 221.672 109.323 221.854 109.323H225.503Z" fill="white"/>
<path d="M224.437 113.403C224.437 112.24 224.072 111.111 223.137 111.111C221.541 111.111 219.842 114.452 219.842 116.96C219.842 117.485 219.956 119.252 221.153 119.252C222.704 119.252 224.437 115.991 224.437 113.403ZM220.982 115.011C221.153 114.338 221.392 113.38 221.848 112.571C222.225 111.887 222.624 111.339 223.125 111.339C223.502 111.339 223.753 111.659 223.753 112.753C223.753 113.164 223.718 113.734 223.388 115.011H220.982ZM223.308 115.353C223.023 116.47 222.783 117.188 222.373 117.907C222.042 118.488 221.643 119.024 221.164 119.024C220.811 119.024 220.526 118.75 220.526 117.622C220.526 116.881 220.708 116.105 220.891 115.353H223.308Z" fill="white"/>
<path d="M228.114 116.299C228.114 115.433 228 114.019 227.361 112.696C226.688 111.328 225.753 110.587 225.628 110.587C225.582 110.587 225.525 110.61 225.525 110.678C225.525 110.712 225.525 110.735 225.719 110.929C226.859 112.081 227.498 113.962 227.498 116.288C227.498 118.5 226.962 120.404 225.639 121.749C225.525 121.852 225.525 121.875 225.525 121.909C225.525 121.977 225.582 122 225.628 122C225.776 122 226.711 121.179 227.27 120.062C227.851 118.899 228.114 117.667 228.114 116.299Z" fill="white"/>
<rect x="124" y="65" width="32" height="32" fill="#6929C4"/>
<path d="M135.486 70.832V77.424C135.486 80.672 136.478 82.192 139.454 82.192C142.43 82.192 143.518 80.672 143.518 77.424V70.832H142.174V77.744C142.174 79.872 141.486 80.992 139.502 80.992C137.518 80.992 136.83 79.872 136.83 77.744V70.832H135.486Z" fill="white"/>
<line x1="86.67" y1="89.4642" x2="104.701" y2="73.6245" stroke="black"/>
<path d="M88.3315 75V69.988C88.3315 69.064 89.1995 68.616 90.0955 68.616C91.1735 68.616 91.7335 69.274 91.7335 70.562V75H92.8535V70.366C92.8535 68.616 91.9155 67.608 90.4315 67.608C89.3535 67.608 88.7375 68.14 88.3875 68.952H88.3315V67.776H87.2115V75H88.3315Z" fill="black"/>
<path d="M138.49 90.424H139.822L141.862 94H142.99L140.854 90.376C142.186 90.244 142.918 89.38 142.918 88.036C142.918 86.524 142.078 85.624 140.53 85.624H137.482V94H138.49V90.424ZM138.49 89.572V86.5H140.506C141.346 86.5 141.85 86.944 141.85 87.724V88.348C141.85 89.128 141.346 89.572 140.506 89.572H138.49Z" fill="white"/>
<path d="M213.232 95.228V100.996C213.232 103.838 214.1 105.168 216.704 105.168C219.308 105.168 220.26 103.838 220.26 100.996V95.228H219.084V101.276C219.084 103.138 218.482 104.118 216.746 104.118C215.01 104.118 214.408 103.138 214.408 101.276V95.228H213.232Z" fill="white"/>
</g>
<defs>
<clipPath id="clip0_1125_23659">
<rect width="506" height="212" fill="white"/>
</clipPath>
</defs>
</svg>
