<svg xmlns="http://www.w3.org/2000/svg" width="290" height="375" fill="none" viewBox="0 0 290 375"><rect width="34.5" height="34.5" x="7.061" y="222.456" stroke="#C1C7CD" stroke-dasharray="3 3" stroke-width="1.5" transform="rotate(-45 7.06066 222.456)"/><path fill="#C1C7CD" d="M149.171 81C149.171 80.5858 148.836 80.25 148.421 80.25L141.671 80.25C141.257 80.25 140.921 80.5858 140.921 81C140.921 81.4142 141.257 81.75 141.671 81.75L147.671 81.75L147.671 87.75C147.671 88.1642 148.007 88.5 148.421 88.5C148.836 88.5 149.171 88.1642 149.171 87.75L149.171 81ZM7.53033 222.952L148.952 81.5304L147.891 80.4697L6.46967 221.891L7.53033 222.952Z"/><path fill="#C1C7CD" d="M148.421 364.593C148.836 364.593 149.171 364.257 149.171 363.843L149.171 357.093C149.171 356.679 148.836 356.343 148.421 356.343C148.007 356.343 147.671 356.679 147.671 357.093L147.671 363.093H141.671C141.257 363.093 140.921 363.429 140.921 363.843C140.921 364.257 141.257 364.593 141.671 364.593H148.421ZM6.46967 222.952L147.891 364.373L148.952 363.312L7.53033 221.891L6.46967 222.952Z"/><path fill="#21272A" d="M7.53032 21.4697C7.23743 21.1768 6.76255 21.1768 6.46966 21.4697L1.69669 26.2426C1.4038 26.5355 1.4038 27.0104 1.69669 27.3033C1.98958 27.5962 2.46446 27.5962 2.75735 27.3033L6.99999 23.0607L11.2426 27.3033C11.5355 27.5962 12.0104 27.5962 12.3033 27.3033C12.5962 27.0104 12.5962 26.5355 12.3033 26.2426L7.53032 21.4697ZM7.75 222L7.74999 22L6.24999 22L6.25 222L7.75 222Z"/><path fill="#21272A" d="M207.53 222.53C207.823 222.237 207.823 221.763 207.53 221.47L202.757 216.697C202.464 216.404 201.99 216.404 201.697 216.697C201.404 216.99 201.404 217.464 201.697 217.757L205.939 222L201.697 226.243C201.404 226.536 201.404 227.01 201.697 227.303C201.99 227.596 202.464 227.596 202.757 227.303L207.53 222.53ZM7 222.75L207 222.75V221.25L7 221.25V222.75Z"/><path fill="#21272A" d="M1.876 15.932V3.36H3.388V15.932H1.876ZM9.62367 14.168C8.99834 14.168 8.45701 14.056 7.99967 13.832C7.54234 13.5987 7.16434 13.2673 6.86567 12.838C6.56701 12.4087 6.34301 11.8813 6.19367 11.256C6.05367 10.6307 5.98367 9.91667 5.98367 9.114C5.98367 8.32067 6.05367 7.61133 6.19367 6.986C6.34301 6.35133 6.56701 5.81933 6.86567 5.39C7.16434 4.96067 7.54234 4.634 7.99967 4.41C8.45701 4.17667 8.99834 4.06 9.62367 4.06C10.865 4.06 11.7797 4.50333 12.3677 5.39C12.965 6.27667 13.2637 7.518 13.2637 9.114C13.2637 10.71 12.965 11.9513 12.3677 12.838C11.7797 13.7247 10.865 14.168 9.62367 14.168ZM9.62367 12.614C10.249 12.614 10.683 12.3807 10.9257 11.914C11.1777 11.438 11.3037 10.7987 11.3037 9.996V8.232C11.3037 7.42933 11.1777 6.79467 10.9257 6.328C10.683 5.852 10.249 5.614 9.62367 5.614C8.99834 5.614 8.55967 5.852 8.30767 6.328C8.06501 6.79467 7.94367 7.42933 7.94367 8.232V9.996C7.94367 10.7987 8.06501 11.438 8.30767 11.914C8.55967 12.3807 8.99834 12.614 9.62367 12.614Z"/><path stroke="#21272A" stroke-width="1.5" d="M15 3L17.75 9.5L15 16"/><path fill="#21272A" d="M213.876 228.932V216.36H215.388V228.932H213.876ZM218.698 227V225.502H221.386V218.558H221.26L219.132 221.078L217.984 220.112L220.406 217.228H223.192V225.502H225.432V227H218.698Z"/><path stroke="#21272A" stroke-width="1.5" d="M227 216L229.75 222.5L227 229"/><path stroke="#21272A" stroke-width="1.5" d="M227 216L229.75 222.5L227 229"/><path fill="#C1C7CD" d="M154.876 80.932V68.36H156.388V80.932H154.876ZM161.84 78.118V75.444H159.362V74.002H161.84V71.314H163.408V74.002H165.886V75.444H163.408V78.118H161.84Z"/><path stroke="#C1C7CD" stroke-width="1.5" d="M168 68L170.75 74.5L168 81"/><path fill="#C1C7CD" d="M154.876 372.932V360.36H156.388V372.932H154.876Z"/><path stroke="#C1C7CD" stroke-width="1.5" d="M168 360L170.75 366.5L168 373"/><line x1="159" x2="166" y1="366.25" y2="366.25" stroke="#C1C7CD" stroke-width="1.5"/></svg>