<svg width="400" height="192" viewBox="0 0 400 192" fill="none" xmlns="http://www.w3.org/2000/svg">
<rect width="400" height="192" fill="white"/>
<rect opacity="0.4" y="120" width="400" height="40" fill="#F2F4F8"/>
<rect opacity="0.4" y="40" width="400" height="40" fill="#F2F4F8"/>
<rect x="0.5" y="0.5" width="399" height="191" stroke="#DDE1E6"/>
<line x1="98" y1="73.5" x2="299" y2="73.5" stroke="black"/>
<line x1="98" y1="121.5" x2="299" y2="121.5" stroke="black"/>
<path d="M85.0545 80L84 79.46L86.6804 74L84 68.54L85.0545 68L88 74L85.0545 80V80Z" fill="#161616"/>
<rect x="70" y="68" width="1" height="12" fill="#161616"/>
<path d="M78.4583 77.256V74.748H80.8583V73.932H78.4583V71.424H77.5463V73.932H75.1463V74.748H77.5463V77.256H78.4583Z" fill="black"/>
<path d="M324.054 80L323 79.46L325.68 74L323 68.54L324.054 68L327 74L324.054 80V80Z" fill="#161616"/>
<rect x="309" y="68" width="1" height="12" fill="#161616"/>
<path d="M318.742 74.856V73.848H315.262V74.856H318.742Z" fill="black"/>
<path d="M85.0545 127L84 126.46L86.6804 121L84 115.54L85.0545 115L88 121L85.0545 127V127Z" fill="#161616"/>
<rect x="70" y="115" width="1" height="12" fill="#161616"/>
<path d="M79.7423 121.856V120.848H76.2623V121.856H79.7423Z" fill="black"/>
<path d="M324.054 127L323 126.46L325.68 121L323 115.54L324.054 115L327 121L324.054 127V127Z" fill="#161616"/>
<rect x="309" y="115" width="1" height="12" fill="#161616"/>
<path d="M318.742 121.856V120.848H315.262V121.856H318.742Z" fill="black"/>
<rect x="177" y="106" width="32" height="32" rx="16" fill="#1192E8"/>
<path d="M194 121V113H192V121H184V123H192V131H194V123H202V121H194V121Z" fill="white"/>
<rect x="187" y="68" width="12" height="12" rx="6" fill="#1192E8"/>
<line x1="193" y1="108" x2="193" y2="79" stroke="#1192E8" stroke-width="2"/>
</svg>
