<svg width="330" height="192" viewBox="0 0 330 192" fill="none" xmlns="http://www.w3.org/2000/svg">
<rect width="330" height="192" fill="white"/>
<rect opacity="0.4" y="120" width="330" height="40" fill="#F2F4F8"/>
<rect opacity="0.4" y="40" width="330" height="40" fill="#F2F4F8"/>
<rect x="0.5" y="0.5" width="329" height="191" stroke="#DDE1E6"/>
<line x1="69" y1="71.5" x2="231" y2="71.5" stroke="black"/>
<path d="M51.3307 75V74.02H50.5047V70.044C50.5047 68.518 49.4687 67.608 47.7327 67.608C46.4307 67.608 45.5627 68.252 45.1707 69.022L45.8427 69.652C46.2347 68.994 46.8087 68.574 47.6767 68.574C48.8247 68.574 49.3847 69.134 49.3847 70.156V70.87H47.9567C45.8567 70.87 44.8767 71.626 44.8767 72.984C44.8767 74.328 45.7727 75.168 47.2987 75.168C48.3067 75.168 49.0767 74.706 49.3847 73.824H49.4547C49.5387 74.496 49.8747 75 50.7007 75H51.3307ZM47.4807 74.216C46.6127 74.216 46.0527 73.81 46.0527 73.096V72.802C46.0527 72.102 46.6267 71.71 47.9007 71.71H49.3847V72.9C49.3847 73.642 48.5867 74.216 47.4807 74.216Z" fill="black"/>
<line x1="69" y1="121.5" x2="231" y2="121.5" stroke="black"/>
<path d="M45.6295 125H46.7495V123.824H46.8055C47.2395 124.72 47.9255 125.168 48.9195 125.168C50.7255 125.168 51.8595 123.698 51.8595 121.388C51.8595 119.078 50.7255 117.608 48.9195 117.608C47.9255 117.608 47.1835 118.042 46.8055 118.952H46.7495V114.64H45.6295V125ZM48.6115 124.16C47.5895 124.16 46.7495 123.628 46.7495 122.69V120.002C46.7495 119.204 47.5895 118.616 48.6115 118.616C49.8715 118.616 50.6555 119.484 50.6555 120.772V122.004C50.6555 123.292 49.8715 124.16 48.6115 124.16Z" fill="black"/>
<rect width="93" height="82" transform="translate(100 51)" fill="#1192E8"/>
<path d="M138.077 108.346C138.121 108.346 138.187 108.372 138.275 108.423C138.363 108.474 138.484 108.513 138.637 108.538C138.791 108.564 138.923 108.577 139.033 108.577C139.319 108.577 139.582 108.41 139.824 108.077C140.066 107.744 140.242 107.372 140.352 106.962C140.571 106.269 140.945 104.308 141.473 101.077C142 97.8462 142.505 94.7692 142.989 91.8462C143.473 88.9231 143.714 87.4487 143.714 87.4231V87.3077H142.165C141.132 87.3077 140.582 87.2821 140.516 87.2308C140.429 87.1538 140.385 87.0256 140.385 86.8462L140.615 85.7692C140.659 85.641 140.747 85.5769 140.879 85.5769C141.011 85.5769 141.527 85.5641 142.429 85.5385C143.484 85.5385 144.011 85.5256 144.011 85.5C144.011 85.4487 144.11 84.8077 144.308 83.5769C144.505 82.3462 144.637 81.6026 144.703 81.3462C145.516 77.1154 147.121 75 149.516 75C150.33 75.0513 151 75.3333 151.527 75.8462C152.055 76.359 152.319 77.0385 152.319 77.8846C152.319 78.8077 152.088 79.4744 151.626 79.8846C151.165 80.2949 150.703 80.5128 150.242 80.5385C149.275 80.5385 148.791 80 148.791 78.9231C148.791 78.4359 148.912 78.0128 149.154 77.6538C149.396 77.2949 149.659 77.0256 149.945 76.8462L150.242 76.6538C149.89 76.5 149.56 76.4231 149.253 76.4231C148.989 76.4231 148.736 76.5513 148.495 76.8077C148.253 77.0641 148.088 77.4231 148 77.8846C147.846 78.6282 147.67 79.6282 147.473 80.8846C147.275 82.141 147.099 83.2051 146.945 84.0769C146.791 84.9487 146.714 85.4103 146.714 85.4615C146.714 85.5128 147.319 85.5385 148.527 85.5385C149.516 85.5385 150.088 85.5513 150.242 85.5769C150.396 85.6026 150.516 85.6795 150.604 85.8077C150.626 85.9103 150.604 86.1282 150.538 86.4615C150.473 86.7949 150.418 87 150.374 87.0769C150.33 87.2051 150.231 87.2692 150.077 87.2692C149.923 87.2692 149.33 87.2821 148.297 87.3077H146.451L145.692 92C144.637 98.359 143.901 102.333 143.484 103.923C142.89 106.103 142.121 107.718 141.176 108.769C140.363 109.59 139.56 110 138.769 110C138.066 110 137.429 109.756 136.857 109.269C136.286 108.782 136 108.09 136 107.192C136 106.244 136.231 105.551 136.692 105.115C137.154 104.679 137.615 104.462 138.077 104.462C139.044 104.462 139.527 105 139.527 106.077C139.527 106.564 139.407 106.987 139.165 107.346C138.923 107.705 138.659 107.974 138.374 108.154L138.077 108.346Z" fill="white"/>
<path d="M252.331 75V74.02H251.505V70.044C251.505 68.518 250.469 67.608 248.733 67.608C247.431 67.608 246.563 68.252 246.171 69.022L246.843 69.652C247.235 68.994 247.809 68.574 248.677 68.574C249.825 68.574 250.385 69.134 250.385 70.156V70.87H248.957C246.857 70.87 245.877 71.626 245.877 72.984C245.877 74.328 246.773 75.168 248.299 75.168C249.307 75.168 250.077 74.706 250.385 73.824H250.455C250.539 74.496 250.875 75 251.701 75H252.331ZM248.481 74.216C247.613 74.216 247.053 73.81 247.053 73.096V72.802C247.053 72.102 247.627 71.71 248.901 71.71H250.385V72.9C250.385 73.642 249.587 74.216 248.481 74.216Z" fill="black"/>
<path d="M242.065 125H243.185V118.756H244.739V117.776H243.185V115.62H244.739V114.64H243.647C242.583 114.64 242.065 115.326 242.065 116.32V117.776H240.889V118.756H242.065V125ZM247.84 120.632C247.84 123.362 248.988 125.742 250.374 126.918H251.438C249.926 125.574 248.89 123.208 248.89 121.248V120.044C248.89 118.084 249.884 115.76 251.438 114.36H250.374C248.946 115.578 247.84 117.93 247.84 120.632ZM258.758 125V124.02H257.932V120.044C257.932 118.518 256.896 117.608 255.16 117.608C253.858 117.608 252.99 118.252 252.598 119.022L253.27 119.652C253.662 118.994 254.236 118.574 255.104 118.574C256.252 118.574 256.812 119.134 256.812 120.156V120.87H255.384C253.284 120.87 252.304 121.626 252.304 122.984C252.304 124.328 253.2 125.168 254.726 125.168C255.734 125.168 256.504 124.706 256.812 123.824H256.882C256.966 124.496 257.302 125 258.128 125H258.758ZM254.908 124.216C254.04 124.216 253.48 123.81 253.48 123.096V122.802C253.48 122.102 254.054 121.71 255.328 121.71H256.812V122.9C256.812 123.642 256.014 124.216 254.908 124.216ZM261.527 123.362C260.939 123.362 260.673 123.698 260.673 124.188V124.384C260.673 124.762 260.841 125.042 261.219 125.126C261.065 125.784 260.729 126.274 260.169 126.862H261.107C261.905 126.176 262.381 125.14 262.381 124.384V124.188C262.381 123.698 262.115 123.362 261.527 123.362ZM268.576 125H269.696V123.824H269.752C270.186 124.72 270.872 125.168 271.866 125.168C273.672 125.168 274.806 123.698 274.806 121.388C274.806 119.078 273.672 117.608 271.866 117.608C270.872 117.608 270.13 118.042 269.752 118.952H269.696V114.64H268.576V125ZM271.558 124.16C270.536 124.16 269.696 123.628 269.696 122.69V120.002C269.696 119.204 270.536 118.616 271.558 118.616C272.818 118.616 273.602 119.484 273.602 120.772V122.004C273.602 123.292 272.818 124.16 271.558 124.16ZM279.355 120.632C279.355 117.93 278.249 115.578 276.821 114.36H275.757C277.311 115.76 278.305 118.084 278.305 120.044V121.248C278.305 123.208 277.269 125.574 275.757 126.918H276.821C278.207 125.742 279.355 123.362 279.355 120.632Z" fill="black"/>
</svg>
