<svg width="460" height="192" viewBox="0 0 460 192" fill="none" xmlns="http://www.w3.org/2000/svg">
<rect width="460" height="192" fill="white"/>
<rect opacity="0.4" y="120" width="460" height="40" fill="#F2F4F8"/>
<rect opacity="0.4" y="40" width="460" height="40" fill="#F2F4F8"/>
<rect x="0.5" y="0.5" width="459" height="191" stroke="#DDE1E6"/>
<line x1="69" y1="71.5" x2="345" y2="71.5" stroke="black"/>
<line x1="69" y1="121.5" x2="357" y2="121.5" stroke="black"/>
<rect width="93" height="82" transform="translate(174 55)" fill="#1192E8"/>
<path d="M212.077 112.346C212.121 112.346 212.187 112.372 212.275 112.423C212.363 112.474 212.484 112.513 212.637 112.538C212.791 112.564 212.923 112.577 213.033 112.577C213.319 112.577 213.582 112.41 213.824 112.077C214.066 111.744 214.242 111.372 214.352 110.962C214.571 110.269 214.945 108.308 215.473 105.077C216 101.846 216.505 98.7692 216.989 95.8462C217.473 92.9231 217.714 91.4487 217.714 91.4231V91.3077H216.165C215.132 91.3077 214.582 91.2821 214.516 91.2308C214.429 91.1538 214.385 91.0256 214.385 90.8462L214.615 89.7692C214.659 89.641 214.747 89.5769 214.879 89.5769C215.011 89.5769 215.527 89.5641 216.429 89.5385C217.484 89.5385 218.011 89.5256 218.011 89.5C218.011 89.4487 218.11 88.8077 218.308 87.5769C218.505 86.3462 218.637 85.6026 218.703 85.3462C219.516 81.1154 221.121 79 223.516 79C224.33 79.0513 225 79.3333 225.527 79.8462C226.055 80.359 226.319 81.0385 226.319 81.8846C226.319 82.8077 226.088 83.4744 225.626 83.8846C225.165 84.2949 224.703 84.5128 224.242 84.5385C223.275 84.5385 222.791 84 222.791 82.9231C222.791 82.4359 222.912 82.0128 223.154 81.6538C223.396 81.2949 223.659 81.0256 223.945 80.8462L224.242 80.6538C223.89 80.5 223.56 80.4231 223.253 80.4231C222.989 80.4231 222.736 80.5513 222.495 80.8077C222.253 81.0641 222.088 81.4231 222 81.8846C221.846 82.6282 221.67 83.6282 221.473 84.8846C221.275 86.141 221.099 87.2051 220.945 88.0769C220.791 88.9487 220.714 89.4103 220.714 89.4615C220.714 89.5128 221.319 89.5385 222.527 89.5385C223.516 89.5385 224.088 89.5513 224.242 89.5769C224.396 89.6026 224.516 89.6795 224.604 89.8077C224.626 89.9103 224.604 90.1282 224.538 90.4615C224.473 90.7949 224.418 91 224.374 91.0769C224.33 91.2051 224.231 91.2692 224.077 91.2692C223.923 91.2692 223.33 91.2821 222.297 91.3077H220.451L219.692 96C218.637 102.359 217.901 106.333 217.484 107.923C216.89 110.103 216.121 111.718 215.176 112.769C214.363 113.59 213.56 114 212.769 114C212.066 114 211.429 113.756 210.857 113.269C210.286 112.782 210 112.09 210 111.192C210 110.244 210.231 109.551 210.692 109.115C211.154 108.679 211.615 108.462 212.077 108.462C213.044 108.462 213.527 109 213.527 110.077C213.527 110.564 213.407 110.987 213.165 111.346C212.923 111.705 212.659 111.974 212.374 112.154L212.077 112.346Z" fill="white"/>
<rect x="129" y="55" width="32" height="32" fill="#1192E8"/>
<path d="M148.177 78H149.689V65.436H148.177V70.98H141.823V65.436H140.311V78H141.823V72.312H148.177V78Z" fill="white"/>
<rect x="280" y="55" width="32" height="32" fill="#1192E8"/>
<path d="M299.177 78H300.689V65.436H299.177V70.98H292.823V65.436H291.311V78H292.823V72.312H299.177V78Z" fill="white"/>
<rect x="129" y="105" width="32" height="32" fill="#1192E8"/>
<path d="M148.177 128H149.689V115.436H148.177V120.98H141.823V115.436H140.311V128H141.823V122.312H148.177V128Z" fill="white"/>
<path d="M84 105H116V137H84V105Z" fill="#005D5D"/>
<path d="M94.4125 128H96.1405L99.4345 122.726H99.4705L102.764 128H104.582L100.442 121.556L104.474 115.436H102.746L99.5245 120.44H99.4885L96.3385 115.436H94.5205L98.5165 121.61L94.4125 128Z" fill="white"/>
<rect x="325" y="55" width="32" height="32" fill="#121619"/>
<path d="M355 59H349V61H352.38L349 65V67H355V65H351.62L355 61V59V59Z" fill="white"/>
<path d="M345 72.62L347.08 69L345.35 68L343.17 71.77C339.491 70.4065 335.378 70.9278 332.155 73.1659C328.932 75.4041 327.007 79.0763 327 83H329C329.002 79.7873 330.548 76.7714 333.155 74.8936C335.762 73.0158 339.112 72.5048 342.16 73.52L339 79C338.095 78.999 337.302 79.6065 337.066 80.4808C336.831 81.3552 337.213 82.2784 337.997 82.7315C338.781 83.1846 339.771 83.0546 340.412 82.4145C341.052 81.7745 341.183 80.7841 340.73 80L344 74.35C347.091 76.1345 348.996 79.431 349 83H351C350.996 78.7172 348.709 74.7614 345 72.62Z" fill="white"/>
<path d="M373.021 65.12C374.721 65.12 375.461 63.79 375.461 61.51C375.461 59.23 374.721 57.9 373.021 57.9C371.321 57.9 370.581 59.23 370.581 61.51C370.581 63.79 371.321 65.12 373.021 65.12ZM373.021 64.39C371.901 64.39 371.451 63.48 371.451 62.08V60.94C371.451 59.54 371.901 58.63 373.021 58.63C374.141 58.63 374.591 59.54 374.591 60.94V62.08C374.591 63.48 374.141 64.39 373.021 64.39ZM373.021 62.1C373.481 62.1 373.641 61.89 373.641 61.62V61.4C373.641 61.13 373.481 60.92 373.021 60.92C372.561 60.92 372.401 61.13 372.401 61.4V61.62C372.401 61.89 372.561 62.1 373.021 62.1ZM379.018 65.09C379.558 65.09 379.758 64.83 379.758 64.49V64.31C379.758 63.97 379.558 63.71 379.018 63.71C378.478 63.71 378.278 63.97 378.278 64.31V64.49C378.278 64.83 378.478 65.09 379.018 65.09ZM379.018 61.13C379.558 61.13 379.758 60.87 379.758 60.53V60.35C379.758 60.01 379.558 59.75 379.018 59.75C378.478 59.75 378.278 60.01 378.278 60.35V60.53C378.278 60.87 378.478 61.13 379.018 61.13ZM391.19 65.12C392.22 65.12 392.87 64.61 393.17 63.92L392.6 63.53C392.34 64.09 391.89 64.43 391.2 64.43C390.23 64.43 389.71 63.77 389.71 62.86V61.98C389.71 61.07 390.24 60.41 391.18 60.41C391.82 60.41 392.26 60.72 392.45 61.25L393.09 60.91C392.8 60.21 392.18 59.72 391.18 59.72C389.72 59.72 388.85 60.78 388.85 62.42C388.85 64.05 389.71 65.12 391.19 65.12ZM397.006 65.12C398.456 65.12 399.346 64.06 399.346 62.42C399.346 60.78 398.456 59.72 397.006 59.72C395.556 59.72 394.666 60.78 394.666 62.42C394.666 64.06 395.556 65.12 397.006 65.12ZM397.006 64.43C396.116 64.43 395.516 63.9 395.516 62.79V62.05C395.516 60.94 396.116 60.41 397.006 60.41C397.896 60.41 398.496 60.94 398.496 62.05V62.79C398.496 63.9 397.896 64.43 397.006 64.43ZM401.782 65V61.42C401.782 60.74 402.422 60.43 403.062 60.43C403.852 60.43 404.282 60.89 404.282 61.83V65H405.082V61.69C405.082 60.44 404.372 59.72 403.292 59.72C402.442 59.72 402.042 60.17 401.822 60.68H401.782V59.84H400.982V65H401.782ZM409.058 65.12C410.378 65.12 411.238 64.53 411.238 63.51C411.238 62.39 410.208 62.19 409.468 62.08L408.658 61.96C408.198 61.89 407.748 61.75 407.748 61.21C407.748 60.68 408.198 60.39 409.008 60.39C409.918 60.39 410.378 60.75 410.618 61.04L411.138 60.55C410.648 60.03 409.968 59.72 409.038 59.72C407.838 59.72 406.958 60.23 406.958 61.26C406.958 62.38 407.998 62.58 408.728 62.69L409.538 62.81C410.008 62.88 410.448 63.02 410.448 63.56C410.448 64.17 409.878 64.45 409.078 64.45C408.258 64.45 407.698 64.16 407.208 63.64L406.668 64.11C407.208 64.72 407.978 65.12 409.058 65.12ZM417.254 65V64.32H414.904V60.52H417.254V59.84H414.904V58.02H414.134V59.37C414.134 59.72 414.004 59.84 413.664 59.84H412.384V60.52H414.104V63.82C414.104 64.51 414.464 65 415.244 65H417.254ZM423.49 65V64.3H422.77V61.46C422.77 60.37 422 59.72 420.79 59.72C419.74 59.72 419.08 60.22 418.82 60.76L419.36 61.16C419.63 60.69 420.05 60.4 420.74 60.4C421.52 60.4 421.97 60.79 421.97 61.54V62.05H420.87C419.32 62.05 418.65 62.6 418.65 63.55C418.65 64.52 419.34 65.12 420.42 65.12C421.26 65.12 421.75 64.75 421.97 64.16H422.02C422.08 64.64 422.32 65 422.94 65H423.49ZM420.56 64.45C419.9 64.45 419.49 64.17 419.49 63.64V63.43C419.49 62.93 419.92 62.65 420.87 62.65H421.97V63.5C421.97 64.03 421.38 64.45 420.56 64.45ZM425.766 65V61.42C425.766 60.74 426.406 60.43 427.046 60.43C427.836 60.43 428.266 60.89 428.266 61.83V65H429.066V61.69C429.066 60.44 428.356 59.72 427.276 59.72C426.426 59.72 426.026 60.17 425.806 60.68H425.766V59.84H424.966V65H425.766ZM435.242 65V64.32H432.892V60.52H435.242V59.84H432.892V58.02H432.122V59.37C432.122 59.72 431.992 59.84 431.652 59.84H430.372V60.52H432.092V63.82C432.092 64.51 432.452 65 433.232 65H435.242ZM375.551 83V82.27H373.711V76.02H372.401L370.551 77.75L371.041 78.28L372.801 76.64H372.871V82.27H370.871V83H375.551ZM379.018 83.09C379.558 83.09 379.758 82.83 379.758 82.49V82.31C379.758 81.97 379.558 81.71 379.018 81.71C378.478 81.71 378.278 81.97 378.278 82.31V82.49C378.278 82.83 378.478 83.09 379.018 83.09ZM379.018 79.13C379.558 79.13 379.758 78.87 379.758 78.53V78.35C379.758 78.01 379.558 77.75 379.018 77.75C378.478 77.75 378.278 78.01 378.278 78.35V78.53C378.278 78.87 378.478 79.13 379.018 79.13ZM388.96 83H389.76V82.16H389.8C390.13 82.79 390.67 83.12 391.39 83.12C392.65 83.12 393.41 82.11 393.41 80.42C393.41 78.73 392.65 77.72 391.39 77.72C390.67 77.72 390.13 78.05 389.8 78.68H389.76V75.6H388.96V83ZM391.08 82.41C390.37 82.41 389.76 82.04 389.76 81.35V79.49C389.76 78.8 390.37 78.43 391.08 78.43C392.01 78.43 392.55 79.05 392.55 79.98V80.86C392.55 81.79 392.01 82.41 391.08 82.41ZM399.506 83V82.3H398.786V79.46C398.786 78.37 398.016 77.72 396.806 77.72C395.756 77.72 395.096 78.22 394.836 78.76L395.376 79.16C395.646 78.69 396.066 78.4 396.756 78.4C397.536 78.4 397.986 78.79 397.986 79.54V80.05H396.886C395.336 80.05 394.666 80.6 394.666 81.55C394.666 82.52 395.356 83.12 396.436 83.12C397.276 83.12 397.766 82.75 397.986 82.16H398.036C398.096 82.64 398.336 83 398.956 83H399.506ZM396.576 82.45C395.916 82.45 395.506 82.17 395.506 81.64V81.43C395.506 80.93 395.936 80.65 396.886 80.65H397.986V81.5C397.986 82.03 397.396 82.45 396.576 82.45ZM400.802 83H405.202V82.32H403.402V75.6H400.802V76.28H402.602V82.32H400.802V83ZM411.498 83V82.3H410.778V79.46C410.778 78.37 410.008 77.72 408.798 77.72C407.748 77.72 407.088 78.22 406.828 78.76L407.368 79.16C407.638 78.69 408.058 78.4 408.748 78.4C409.528 78.4 409.978 78.79 409.978 79.54V80.05H408.878C407.328 80.05 406.658 80.6 406.658 81.55C406.658 82.52 407.348 83.12 408.428 83.12C409.268 83.12 409.758 82.75 409.978 82.16H410.028C410.088 82.64 410.328 83 410.948 83H411.498ZM408.568 82.45C407.908 82.45 407.498 82.17 407.498 81.64V81.43C407.498 80.93 407.928 80.65 408.878 80.65H409.978V81.5C409.978 82.03 409.388 82.45 408.568 82.45ZM413.774 83V79.42C413.774 78.74 414.414 78.43 415.054 78.43C415.844 78.43 416.274 78.89 416.274 79.83V83H417.074V79.69C417.074 78.44 416.364 77.72 415.284 77.72C414.434 77.72 414.034 78.17 413.814 78.68H413.774V77.84H412.974V83H413.774ZM421.17 83.12C422.2 83.12 422.85 82.61 423.15 81.92L422.58 81.53C422.32 82.09 421.87 82.43 421.18 82.43C420.21 82.43 419.69 81.77 419.69 80.86V79.98C419.69 79.07 420.22 78.41 421.16 78.41C421.8 78.41 422.24 78.72 422.43 79.25L423.07 78.91C422.78 78.21 422.16 77.72 421.16 77.72C419.7 77.72 418.83 78.78 418.83 80.42C418.83 82.05 419.69 83.12 421.17 83.12ZM427.076 83.12C428.096 83.12 428.836 82.62 429.146 81.93L428.556 81.53C428.286 82.09 427.766 82.43 427.076 82.43C426.106 82.43 425.496 81.77 425.496 80.86V80.62H429.316V80.24C429.316 78.78 428.416 77.72 427.026 77.72C425.626 77.72 424.656 78.78 424.656 80.43C424.656 82.06 425.596 83.12 427.076 83.12ZM427.026 78.38C427.876 78.38 428.456 79 428.456 79.91V80.02H425.496V79.95C425.496 79.05 426.146 78.38 427.026 78.38ZM434.232 83H435.032V75.6H434.232V78.68H434.192C433.862 78.05 433.322 77.72 432.602 77.72C431.342 77.72 430.582 78.73 430.582 80.42C430.582 82.11 431.342 83.12 432.602 83.12C433.322 83.12 433.862 82.79 434.192 82.16H434.232V83ZM432.912 82.41C431.982 82.41 431.442 81.79 431.442 80.86V79.98C431.442 79.05 431.982 78.43 432.912 78.43C433.622 78.43 434.232 78.8 434.232 79.49V81.35C434.232 82.04 433.622 82.41 432.912 82.41Z" fill="black"/>
<rect width="20" height="20" transform="translate(41 61)" fill="white" style="mix-blend-mode:multiply"/>
<path d="M55.375 77.25H54.125L57.25 71L54.125 64.75H55.375L58.5 71L55.375 77.25Z" fill="#161616"/>
<path d="M44.75 64.75H43.5V77.25H44.75V64.75Z" fill="#161616"/>
<path d="M51 66.625H48.5C47.8125 66.625 47.25 67.1875 47.25 67.875V74.125C47.25 74.8125 47.8125 75.375 48.5 75.375H51C51.6875 75.375 52.25 74.8125 52.25 74.125V67.875C52.25 67.1875 51.6875 66.625 51 66.625ZM51 74.125H48.5V67.875H51V74.125Z" fill="#161616"/>
<path d="M50.375 70.375H49.125V71.625H50.375V70.375Z" fill="#161616"/>
<rect width="20" height="20" transform="translate(41 111)" fill="white" style="mix-blend-mode:multiply"/>
<path d="M55.375 127.25H54.125L57.25 121L54.125 114.75H55.375L58.5 121L55.375 127.25Z" fill="#161616"/>
<path d="M44.75 114.75H43.5V127.25H44.75V114.75Z" fill="#161616"/>
<path d="M51 116.625H48.5C47.8125 116.625 47.25 117.187 47.25 117.875V124.125C47.25 124.813 47.8125 125.375 48.5 125.375H51C51.6875 125.375 52.25 124.813 52.25 124.125V117.875C52.25 117.187 51.6875 116.625 51 116.625ZM51 124.125H48.5V117.875H51V124.125Z" fill="#161616"/>
<path d="M50.375 120.375H49.125V121.625H50.375V120.375Z" fill="#161616"/>
</svg>
