<svg width="324" height="144" viewBox="0 0 324 144" fill="none" xmlns="http://www.w3.org/2000/svg">
<g clip-path="url(#clip0_1360_19130)">
<rect width="324" height="144" fill="white"/>
<rect opacity="0.4" y="80" width="324" height="40" fill="#F2F4F8"/>
<rect opacity="0.4" width="324" height="40" fill="#F2F4F8"/>
<rect x="0.5" y="0.5" width="323" height="143" stroke="#DDE1E6"/>
<path fill-rule="evenodd" clip-rule="evenodd" d="M34.3996 80.2H35.5996C36.5937 80.2 37.3996 79.3942 37.3996 78.4V73.6C37.3996 72.6059 36.5937 71.8 35.5996 71.8H34.3996C33.4055 71.8 32.5996 72.6059 32.5996 73.6V78.4C32.5996 79.3942 33.4055 80.2 34.3996 80.2ZM33.7996 73.6C33.7996 73.2687 34.0682 73 34.3996 73H35.5996C35.931 73 36.1996 73.2687 36.1996 73.6V78.4C36.1996 78.7314 35.931 79 35.5996 79H34.3996C34.0682 79 33.7996 78.7314 33.7996 78.4V73.6Z" fill="#161616"/>
<path d="M40.0545 82L39 81.46L41.6804 76L39 70.54L40.0545 70L43 76L40.0545 82V82Z" fill="#161616"/>
<rect x="29" y="70" width="1" height="12" fill="#161616"/>
<line x1="51" y1="75.5" x2="273" y2="75.5" stroke="black"/>
<rect x="137" y="60" width="32" height="32" fill="#6929C4"/>
<path d="M146.254 71.6H149.188L151.906 77H153.616L150.736 71.456C152.374 71.078 153.256 69.836 153.256 68C153.256 65.714 151.942 64.436 149.746 64.436H144.742V77H146.254V71.6ZM146.254 70.304V65.768H149.746C150.934 65.768 151.636 66.416 151.636 67.568V68.504C151.636 69.656 150.934 70.304 149.746 70.304H146.254ZM162.34 77V75.74H156.814L162.196 68.792V67.712H155.338V68.972H160.45L155.176 75.794V77H162.34Z" fill="white"/>
<path d="M147.173 84.88C147.173 86.83 147.993 88.53 148.983 89.37H149.743C148.663 88.41 147.923 86.72 147.923 85.32V84.46C147.923 83.06 148.633 81.4 149.743 80.4H148.983C147.963 81.27 147.173 82.95 147.173 84.88ZM152.502 80.48C151.082 80.48 150.252 81.42 150.252 84.3C150.252 87.18 151.082 88.12 152.502 88.12C153.922 88.12 154.752 87.18 154.752 84.3C154.752 81.42 153.922 80.48 152.502 80.48ZM151.112 83.32C151.112 81.75 151.622 81.17 152.502 81.17C153.382 81.17 153.892 81.75 153.892 83.32V83.95H151.112V83.32ZM152.502 87.43C151.622 87.43 151.112 86.85 151.112 85.28V84.65H153.892V85.28C153.892 86.85 153.382 87.43 152.502 87.43ZM157.828 84.88C157.828 82.95 157.038 81.27 156.018 80.4H155.258C156.368 81.4 157.078 83.06 157.078 84.46V85.32C157.078 86.72 156.338 88.41 155.258 89.37H156.018C157.008 88.53 157.828 86.83 157.828 84.88Z" fill="white"/>
<rect x="199" y="60" width="32" height="32" fill="#6929C4"/>
<path d="M207.368 71.6H210.302L213.02 77H214.73L211.85 71.456C213.488 71.078 214.37 69.836 214.37 68C214.37 65.714 213.056 64.436 210.86 64.436H205.856V77H207.368V71.6ZM207.368 70.304V65.768H210.86C212.048 65.768 212.75 66.416 212.75 67.568V68.504C212.75 69.656 212.048 70.304 210.86 70.304H207.368ZM216.073 77H217.675L220.285 73.364H220.339L222.751 77H224.443L221.095 72.212L224.371 67.712H222.769L220.321 71.168H220.267L217.909 67.712H216.217L219.511 72.32L216.073 77Z" fill="white"/>
<path d="M209.406 83.88C209.406 85.83 210.226 87.53 211.216 88.37H211.976C210.896 87.41 210.156 85.72 210.156 84.32V83.46C210.156 82.06 210.866 80.4 211.976 79.4H211.216C210.196 80.27 209.406 81.95 209.406 83.88ZM214.996 89H215.796V87.12C217.516 87.12 218.556 86.12 218.556 84.26C218.556 82.47 217.926 81.72 216.746 81.72C215.626 81.72 214.996 82.47 214.996 84.26V86.41C214.056 86.41 213.286 85.89 213.286 84.7V84.31C213.286 83.23 213.606 82.64 214.326 82.28L213.876 81.72C212.956 82.16 212.426 83.08 212.426 84.5C212.426 86.08 213.516 87.12 214.996 87.12V89ZM215.796 84.01C215.796 82.82 216.156 82.43 216.746 82.43C217.336 82.43 217.696 82.82 217.696 84.01V84.7C217.696 85.94 216.936 86.41 215.796 86.41V84.01ZM221.594 83.88C221.594 81.95 220.804 80.27 219.784 79.4H219.024C220.134 80.4 220.844 82.06 220.844 83.46V84.32C220.844 85.72 220.104 87.41 219.024 88.37H219.784C220.774 87.53 221.594 85.83 221.594 83.88Z" fill="white"/>
<rect x="75" y="60" width="32" height="32" fill="#1192E8"/>
<path d="M94.1767 83H95.6887V70.436H94.1767V75.98H87.8227V70.436H86.3107V83H87.8227V77.312H94.1767V83Z" fill="white"/>
<path d="M33.942 36.168C35.692 36.168 36.854 35.314 37.554 33.858L36.056 32.976C35.734 33.858 35.048 34.53 33.942 34.53C32.57 34.53 31.688 33.578 31.688 31.898V30.358C31.688 28.692 32.57 27.698 33.942 27.698C35.034 27.698 35.65 28.286 35.93 29.154L37.512 28.314C36.826 26.802 35.692 26.06 33.942 26.06C31.366 26.06 29.728 27.894 29.728 31.184C29.728 34.474 31.366 36.168 33.942 36.168ZM40.0744 27.628C40.8024 27.628 41.1244 27.25 41.1244 26.732V26.452C41.1244 25.934 40.8024 25.556 40.0744 25.556C39.3324 25.556 39.0244 25.934 39.0244 26.452V26.732C39.0244 27.25 39.3324 27.628 40.0744 27.628ZM39.1784 36H40.9704V28.692H39.1784V36ZM44.9996 36V31.52C44.9996 30.722 45.6296 30.386 46.8336 30.386H47.3936V28.692H47.0016C45.8396 28.692 45.2516 29.434 45.0696 30.204H44.9996V28.692H43.2076V36H44.9996ZM51.6793 36.168C53.0933 36.168 54.1153 35.524 54.5913 34.236L53.2193 33.578C52.9533 34.236 52.5333 34.726 51.6793 34.726C50.6853 34.726 50.1813 34.04 50.1813 33.018V31.688C50.1813 30.666 50.6853 29.966 51.6793 29.966C52.4493 29.966 52.9113 30.414 53.0793 31.03L54.5493 30.372C54.1153 29.224 53.1493 28.524 51.6793 28.524C49.5233 28.524 48.3053 29.994 48.3053 32.332C48.3053 34.684 49.5233 36.168 51.6793 36.168ZM60.501 36H62.293V28.692H60.501V33.522C60.501 34.306 59.787 34.684 59.073 34.684C58.219 34.684 57.841 34.138 57.841 33.13V28.692H56.049V33.312C56.049 35.132 56.889 36.168 58.387 36.168C59.591 36.168 60.179 35.51 60.431 34.782H60.501V36ZM65.4195 27.628C66.1475 27.628 66.4695 27.25 66.4695 26.732V26.452C66.4695 25.934 66.1475 25.556 65.4195 25.556C64.6775 25.556 64.3695 25.934 64.3695 26.452V26.732C64.3695 27.25 64.6775 27.628 65.4195 27.628ZM64.5235 36H66.3155V28.692H64.5235V36ZM70.8346 36H72.1226V34.572H70.7366V30.12H72.2346V28.692H70.7366V26.69H69.1266V27.936C69.1266 28.44 68.9586 28.692 68.4266 28.692H67.8666V30.12H68.9446V34.138C68.9446 35.328 69.6026 36 70.8346 36ZM77.5296 36H82.4856C83.9276 36 85.0056 34.768 85.0056 33.2C85.0056 31.534 83.7456 30.932 82.8916 30.918V30.834C83.7876 30.778 84.6416 30.218 84.6416 28.734C84.6416 27.222 83.6616 26.228 82.0516 26.228H77.5296V36ZM79.3776 31.814H81.9536C82.6536 31.814 83.0736 32.206 83.0736 32.892V33.368C83.0736 34.054 82.6536 34.432 81.9536 34.432H79.3776V31.814ZM79.3776 27.796H81.6596C82.3316 27.796 82.7236 28.174 82.7236 28.832V29.266C82.7236 29.91 82.3316 30.302 81.6596 30.302H79.3776V27.796Z" fill="black"/>
</g>
<defs>
<clipPath id="clip0_1360_19130">
<rect width="324" height="144" fill="white"/>
</clipPath>
</defs>
</svg>
