<svg xmlns="http://www.w3.org/2000/svg" width="384" height="240" fill="none" viewBox="0 0 384 240"><rect width="384" height="51" y="189" fill="#F2F4F8" opacity=".4"/><path fill="#000" d="M27.644 202.944H27.584L26.876 204.348L24.872 207.996L22.868 204.348L22.16 202.944H22.1V210H21.116V201.624H22.46L24.86 206.136H24.92L27.332 201.624H28.628V210H27.644V202.944ZM35.5783 210C35.2183 210 34.9583 209.904 34.7983 209.712C34.6463 209.52 34.5503 209.28 34.5103 208.992H34.4503C34.3143 209.376 34.0903 209.664 33.7783 209.856C33.4663 210.048 33.0943 210.144 32.6623 210.144C32.0063 210.144 31.4943 209.976 31.1263 209.64C30.7663 209.304 30.5863 208.848 30.5863 208.272C30.5863 207.688 30.7983 207.24 31.2223 206.928C31.6543 206.616 32.3223 206.46 33.2263 206.46H34.4503V205.848C34.4503 205.408 34.3303 205.072 34.0903 204.84C33.8503 204.608 33.4823 204.492 32.9863 204.492C32.6103 204.492 32.2943 204.576 32.0383 204.744C31.7903 204.912 31.5823 205.136 31.4143 205.416L30.8383 204.876C31.0063 204.54 31.2743 204.256 31.6423 204.024C32.0103 203.784 32.4743 203.664 33.0343 203.664C33.7863 203.664 34.3703 203.848 34.7863 204.216C35.2023 204.584 35.4103 205.096 35.4103 205.752V209.16H36.1183V210H35.5783ZM32.8183 209.328C33.0583 209.328 33.2783 209.3 33.4783 209.244C33.6783 209.188 33.8503 209.108 33.9943 209.004C34.1383 208.9 34.2503 208.78 34.3303 208.644C34.4103 208.508 34.4503 208.36 34.4503 208.2V207.18H33.1783C32.6263 207.18 32.2223 207.26 31.9663 207.42C31.7183 207.58 31.5943 207.812 31.5943 208.116V208.368C31.5943 208.672 31.7023 208.908 31.9183 209.076C32.1423 209.244 32.4423 209.328 32.8183 209.328ZM43.0284 210.684C43.0284 211.324 42.7764 211.792 42.2724 212.088C41.7764 212.392 41.0284 212.544 40.0284 212.544C39.0604 212.544 38.3644 212.412 37.9404 212.148C37.5164 211.884 37.3044 211.508 37.3044 211.02C37.3044 210.684 37.3924 210.42 37.5684 210.228C37.7444 210.044 37.9844 209.908 38.2884 209.82V209.688C37.9204 209.512 37.7364 209.224 37.7364 208.824C37.7364 208.512 37.8364 208.276 38.0364 208.116C38.2364 207.948 38.4924 207.824 38.8044 207.744V207.696C38.4364 207.52 38.1484 207.268 37.9404 206.94C37.7404 206.612 37.6404 206.232 37.6404 205.8C37.6404 205.488 37.6964 205.2 37.8084 204.936C37.9204 204.672 38.0764 204.448 38.2764 204.264C38.4844 204.072 38.7284 203.924 39.0084 203.82C39.2964 203.716 39.6164 203.664 39.9684 203.664C40.4084 203.664 40.8004 203.744 41.1444 203.904V203.796C41.1444 203.556 41.2004 203.36 41.3124 203.208C41.4244 203.048 41.6084 202.968 41.8644 202.968H42.7884V203.808H41.6124V204.204C41.8364 204.396 42.0084 204.628 42.1284 204.9C42.2564 205.164 42.3204 205.464 42.3204 205.8C42.3204 206.112 42.2644 206.4 42.1524 206.664C42.0404 206.928 41.8804 207.156 41.6724 207.348C41.4724 207.532 41.2284 207.676 40.9404 207.78C40.6524 207.884 40.3324 207.936 39.9804 207.936C39.7804 207.936 39.5804 207.916 39.3804 207.876C39.1724 207.932 38.9844 208.016 38.8164 208.128C38.6484 208.232 38.5644 208.38 38.5644 208.572C38.5644 208.756 38.6524 208.88 38.8284 208.944C39.0044 209.008 39.2324 209.04 39.5124 209.04H40.8324C41.6004 209.04 42.1564 209.188 42.5004 209.484C42.8524 209.772 43.0284 210.172 43.0284 210.684ZM42.1284 210.756C42.1284 210.508 42.0324 210.308 41.8404 210.156C41.6564 210.012 41.3244 209.94 40.8444 209.94H38.7804C38.3964 210.116 38.2044 210.396 38.2044 210.78C38.2044 211.052 38.3044 211.284 38.5044 211.476C38.7124 211.668 39.0604 211.764 39.5484 211.764H40.4364C40.9724 211.764 41.3884 211.68 41.6844 211.512C41.9804 211.344 42.1284 211.092 42.1284 210.756ZM39.9804 207.168C40.3884 207.168 40.7124 207.072 40.9524 206.88C41.1924 206.68 41.3124 206.376 41.3124 205.968V205.632C41.3124 205.224 41.1924 204.924 40.9524 204.732C40.7124 204.532 40.3884 204.432 39.9804 204.432C39.5724 204.432 39.2484 204.532 39.0084 204.732C38.7684 204.924 38.6484 205.224 38.6484 205.632V205.968C38.6484 206.376 38.7684 206.68 39.0084 206.88C39.2484 207.072 39.5724 207.168 39.9804 207.168ZM44.4683 210V203.808H45.4283V204.816H45.4763C45.6283 204.464 45.8403 204.184 46.1123 203.976C46.3923 203.768 46.7643 203.664 47.2283 203.664C47.8683 203.664 48.3723 203.872 48.7403 204.288C49.1163 204.696 49.3043 205.276 49.3043 206.028V210H48.3443V206.196C48.3443 205.084 47.8763 204.528 46.9403 204.528C46.7483 204.528 46.5603 204.552 46.3763 204.6C46.2003 204.648 46.0403 204.72 45.8963 204.816C45.7523 204.912 45.6363 205.036 45.5483 205.188C45.4683 205.332 45.4283 205.504 45.4283 205.704V210H44.4683ZM52.0886 202.356C51.8806 202.356 51.7286 202.308 51.6326 202.212C51.5446 202.108 51.5006 201.976 51.5006 201.816V201.66C51.5006 201.5 51.5446 201.372 51.6326 201.276C51.7286 201.172 51.8806 201.12 52.0886 201.12C52.2966 201.12 52.4446 201.172 52.5326 201.276C52.6286 201.372 52.6766 201.5 52.6766 201.66V201.816C52.6766 201.976 52.6286 202.108 52.5326 202.212C52.4446 202.308 52.2966 202.356 52.0886 202.356ZM51.6086 203.808H52.5686V210H51.6086V203.808ZM56.2966 210C55.9606 210 55.7046 209.908 55.5286 209.724C55.3606 209.532 55.2766 209.284 55.2766 208.98V204.648H54.2566V203.808H54.8326C55.0406 203.808 55.1806 203.768 55.2526 203.688C55.3326 203.6 55.3726 203.452 55.3726 203.244V202.092H56.2366V203.808H57.5926V204.648H56.2366V209.16H57.4966V210H56.2966ZM63.2716 208.992H63.2236C63.1596 209.136 63.0796 209.28 62.9836 209.424C62.8956 209.56 62.7836 209.684 62.6476 209.796C62.5116 209.9 62.3476 209.984 62.1556 210.048C61.9636 210.112 61.7396 210.144 61.4836 210.144C60.8436 210.144 60.3356 209.94 59.9596 209.532C59.5836 209.116 59.3956 208.532 59.3956 207.78V203.808H60.3556V207.612C60.3556 208.724 60.8276 209.28 61.7716 209.28C61.9636 209.28 62.1476 209.256 62.3236 209.208C62.5076 209.16 62.6676 209.088 62.8036 208.992C62.9476 208.896 63.0596 208.776 63.1396 208.632C63.2276 208.48 63.2716 208.3 63.2716 208.092V203.808H64.2316V210H63.2716V208.992ZM70.5559 208.992H70.5079C70.1319 209.76 69.5279 210.144 68.6959 210.144C68.3119 210.144 67.9639 210.068 67.6519 209.916C67.3399 209.764 67.0719 209.548 66.8479 209.268C66.6319 208.988 66.4639 208.648 66.3439 208.248C66.2319 207.848 66.1759 207.4 66.1759 206.904C66.1759 206.408 66.2319 205.96 66.3439 205.56C66.4639 205.16 66.6319 204.82 66.8479 204.54C67.0719 204.26 67.3399 204.044 67.6519 203.892C67.9639 203.74 68.3119 203.664 68.6959 203.664C69.1279 203.664 69.4959 203.76 69.7999 203.952C70.1119 204.136 70.3479 204.424 70.5079 204.816H70.5559V201.12H71.5159V210H70.5559V208.992ZM68.9599 209.28C69.1759 209.28 69.3799 209.252 69.5719 209.196C69.7719 209.14 69.9439 209.06 70.0879 208.956C70.2319 208.844 70.3439 208.712 70.4239 208.56C70.5119 208.4 70.5559 208.22 70.5559 208.02V205.716C70.5559 205.548 70.5119 205.392 70.4239 205.248C70.3439 205.096 70.2319 204.968 70.0879 204.864C69.9439 204.76 69.7719 204.68 69.5719 204.624C69.3799 204.56 69.1759 204.528 68.9599 204.528C68.4159 204.528 67.9879 204.7 67.6759 205.044C67.3639 205.38 67.2079 205.824 67.2079 206.376V207.432C67.2079 207.984 67.3639 208.432 67.6759 208.776C67.9879 209.112 68.4159 209.28 68.9599 209.28ZM76.2049 210.144C75.7809 210.144 75.3969 210.068 75.0529 209.916C74.7169 209.764 74.4249 209.548 74.1769 209.268C73.9369 208.98 73.7489 208.64 73.6129 208.248C73.4849 207.848 73.4209 207.4 73.4209 206.904C73.4209 206.416 73.4849 205.972 73.6129 205.572C73.7489 205.172 73.9369 204.832 74.1769 204.552C74.4249 204.264 74.7169 204.044 75.0529 203.892C75.3969 203.74 75.7809 203.664 76.2049 203.664C76.6209 203.664 76.9929 203.74 77.3209 203.892C77.6489 204.044 77.9289 204.256 78.1609 204.528C78.3929 204.792 78.5689 205.108 78.6889 205.476C78.8169 205.844 78.8809 206.248 78.8809 206.688V207.144H74.4289V207.432C74.4289 207.696 74.4689 207.944 74.5489 208.176C74.6369 208.4 74.7569 208.596 74.9089 208.764C75.0689 208.932 75.2609 209.064 75.4849 209.16C75.7169 209.256 75.9769 209.304 76.2649 209.304C76.6569 209.304 76.9969 209.212 77.2849 209.028C77.5809 208.844 77.8089 208.58 77.9689 208.236L78.6529 208.728C78.4529 209.152 78.1409 209.496 77.7169 209.76C77.2929 210.016 76.7889 210.144 76.2049 210.144ZM76.2049 204.468C75.9409 204.468 75.7009 204.516 75.4849 204.612C75.2689 204.7 75.0809 204.828 74.9209 204.996C74.7689 205.164 74.6489 205.364 74.5609 205.596C74.4729 205.82 74.4289 206.068 74.4289 206.34V206.424H77.8489V206.292C77.8489 205.74 77.6969 205.3 77.3929 204.972C77.0969 204.636 76.7009 204.468 76.2049 204.468ZM81.5148 210.144C81.2588 210.144 81.0708 210.08 80.9508 209.952C80.8388 209.824 80.7828 209.656 80.7828 209.448V209.292C80.7828 209.084 80.8388 208.916 80.9508 208.788C81.0708 208.66 81.2588 208.596 81.5148 208.596C81.7708 208.596 81.9548 208.66 82.0668 208.788C82.1868 208.916 82.2468 209.084 82.2468 209.292V209.448C82.2468 209.656 82.1868 209.824 82.0668 209.952C81.9548 210.08 81.7708 210.144 81.5148 210.144ZM81.5148 205.212C81.2588 205.212 81.0708 205.148 80.9508 205.02C80.8388 204.892 80.7828 204.724 80.7828 204.516V204.36C80.7828 204.152 80.8388 203.984 80.9508 203.856C81.0708 203.728 81.2588 203.664 81.5148 203.664C81.7708 203.664 81.9548 203.728 82.0668 203.856C82.1868 203.984 82.2468 204.152 82.2468 204.36V204.516C82.2468 204.724 82.1868 204.892 82.0668 205.02C81.9548 205.148 81.7708 205.212 81.5148 205.212ZM90.3427 210.144C89.3427 210.144 88.6107 209.764 88.1467 209.004C87.6907 208.244 87.4627 207.18 87.4627 205.812C87.4627 204.444 87.6907 203.38 88.1467 202.62C88.6107 201.86 89.3427 201.48 90.3427 201.48C91.3427 201.48 92.0707 201.86 92.5267 202.62C92.9907 203.38 93.2227 204.444 93.2227 205.812C93.2227 207.18 92.9907 208.244 92.5267 209.004C92.0707 209.764 91.3427 210.144 90.3427 210.144ZM90.3427 209.268C90.6707 209.268 90.9507 209.2 91.1827 209.064C91.4147 208.928 91.6027 208.736 91.7467 208.488C91.8907 208.24 91.9947 207.948 92.0587 207.612C92.1307 207.276 92.1667 206.904 92.1667 206.496V205.128C92.1667 204.72 92.1307 204.348 92.0587 204.012C91.9947 203.676 91.8907 203.384 91.7467 203.136C91.6027 202.888 91.4147 202.696 91.1827 202.56C90.9507 202.424 90.6707 202.356 90.3427 202.356C90.0147 202.356 89.7347 202.424 89.5027 202.56C89.2707 202.696 89.0827 202.888 88.9387 203.136C88.7947 203.384 88.6867 203.676 88.6147 204.012C88.5507 204.348 88.5187 204.72 88.5187 205.128V206.496C88.5187 206.904 88.5507 207.276 88.6147 207.612C88.6867 207.948 88.7947 208.24 88.9387 208.488C89.0827 208.736 89.2707 208.928 89.5027 209.064C89.7347 209.2 90.0147 209.268 90.3427 209.268ZM95.89 210.144C95.634 210.144 95.446 210.08 95.326 209.952C95.214 209.824 95.158 209.656 95.158 209.448V209.292C95.158 209.084 95.214 208.916 95.326 208.788C95.446 208.66 95.634 208.596 95.89 208.596C96.146 208.596 96.33 208.66 96.442 208.788C96.562 208.916 96.622 209.084 96.622 209.292V209.448C96.622 209.656 96.562 209.824 96.442 209.952C96.33 210.08 96.146 210.144 95.89 210.144ZM104.244 210H98.7475V208.968L101.484 206.448C101.876 206.088 102.204 205.708 102.468 205.308C102.732 204.9 102.864 204.492 102.864 204.084V203.94C102.864 203.476 102.736 203.1 102.48 202.812C102.224 202.524 101.836 202.38 101.316 202.38C101.06 202.38 100.836 202.416 100.644 202.488C100.452 202.56 100.284 202.66 100.14 202.788C100.004 202.916 99.8875 203.068 99.7915 203.244C99.7035 203.412 99.6315 203.596 99.5755 203.796L98.6755 203.448C98.7555 203.2 98.8635 202.96 98.9995 202.728C99.1435 202.488 99.3195 202.276 99.5275 202.092C99.7435 201.908 99.9995 201.76 100.296 201.648C100.6 201.536 100.956 201.48 101.364 201.48C101.772 201.48 102.136 201.54 102.456 201.66C102.776 201.78 103.044 201.948 103.26 202.164C103.476 202.38 103.64 202.636 103.752 202.932C103.872 203.228 103.932 203.556 103.932 203.916C103.932 204.244 103.884 204.548 103.788 204.828C103.7 205.108 103.576 205.376 103.416 205.632C103.256 205.88 103.06 206.124 102.828 206.364C102.604 206.604 102.36 206.844 102.096 207.084L99.8395 209.112H104.244V210ZM111.339 202.512H107.667L107.427 205.704H107.511C107.711 205.424 107.935 205.2 108.183 205.032C108.439 204.864 108.787 204.78 109.227 204.78C109.587 204.78 109.919 204.84 110.223 204.96C110.527 205.08 110.791 205.252 111.015 205.476C111.239 205.692 111.411 205.96 111.531 206.28C111.659 206.6 111.723 206.964 111.723 207.372C111.723 207.78 111.659 208.156 111.531 208.5C111.403 208.836 111.215 209.128 110.967 209.376C110.727 209.616 110.431 209.804 110.079 209.94C109.735 210.076 109.343 210.144 108.903 210.144C108.551 210.144 108.239 210.104 107.967 210.024C107.703 209.944 107.467 209.836 107.259 209.7C107.051 209.564 106.867 209.412 106.707 209.244C106.555 209.076 106.415 208.9 106.287 208.716L107.043 208.14C107.147 208.308 107.255 208.46 107.367 208.596C107.487 208.732 107.615 208.848 107.751 208.944C107.895 209.04 108.059 209.116 108.243 209.172C108.427 209.22 108.647 209.244 108.903 209.244C109.479 209.244 109.915 209.092 110.211 208.788C110.507 208.484 110.655 208.056 110.655 207.504V207.384C110.655 206.832 110.507 206.404 110.211 206.1C109.915 205.796 109.479 205.644 108.903 205.644C108.519 205.644 108.215 205.716 107.991 205.86C107.775 205.996 107.579 206.16 107.403 206.352L106.551 206.232L106.851 201.624H111.339V202.512Z"/><path fill="#000" d="M231.644 202.944H231.584L230.876 204.348L228.872 207.996L226.868 204.348L226.16 202.944H226.1V210H225.116V201.624H226.46L228.86 206.136H228.92L231.332 201.624H232.628V210H231.644V202.944ZM239.578 210C239.218 210 238.958 209.904 238.798 209.712C238.646 209.52 238.55 209.28 238.51 208.992H238.45C238.314 209.376 238.09 209.664 237.778 209.856C237.466 210.048 237.094 210.144 236.662 210.144C236.006 210.144 235.494 209.976 235.126 209.64C234.766 209.304 234.586 208.848 234.586 208.272C234.586 207.688 234.798 207.24 235.222 206.928C235.654 206.616 236.322 206.46 237.226 206.46H238.45V205.848C238.45 205.408 238.33 205.072 238.09 204.84C237.85 204.608 237.482 204.492 236.986 204.492C236.61 204.492 236.294 204.576 236.038 204.744C235.79 204.912 235.582 205.136 235.414 205.416L234.838 204.876C235.006 204.54 235.274 204.256 235.642 204.024C236.01 203.784 236.474 203.664 237.034 203.664C237.786 203.664 238.37 203.848 238.786 204.216C239.202 204.584 239.41 205.096 239.41 205.752V209.16H240.118V210H239.578ZM236.818 209.328C237.058 209.328 237.278 209.3 237.478 209.244C237.678 209.188 237.85 209.108 237.994 209.004C238.138 208.9 238.25 208.78 238.33 208.644C238.41 208.508 238.45 208.36 238.45 208.2V207.18H237.178C236.626 207.18 236.222 207.26 235.966 207.42C235.718 207.58 235.594 207.812 235.594 208.116V208.368C235.594 208.672 235.702 208.908 235.918 209.076C236.142 209.244 236.442 209.328 236.818 209.328ZM247.028 210.684C247.028 211.324 246.776 211.792 246.272 212.088C245.776 212.392 245.028 212.544 244.028 212.544C243.06 212.544 242.364 212.412 241.94 212.148C241.516 211.884 241.304 211.508 241.304 211.02C241.304 210.684 241.392 210.42 241.568 210.228C241.744 210.044 241.984 209.908 242.288 209.82V209.688C241.92 209.512 241.736 209.224 241.736 208.824C241.736 208.512 241.836 208.276 242.036 208.116C242.236 207.948 242.492 207.824 242.804 207.744V207.696C242.436 207.52 242.148 207.268 241.94 206.94C241.74 206.612 241.64 206.232 241.64 205.8C241.64 205.488 241.696 205.2 241.808 204.936C241.92 204.672 242.076 204.448 242.276 204.264C242.484 204.072 242.728 203.924 243.008 203.82C243.296 203.716 243.616 203.664 243.968 203.664C244.408 203.664 244.8 203.744 245.144 203.904V203.796C245.144 203.556 245.2 203.36 245.312 203.208C245.424 203.048 245.608 202.968 245.864 202.968H246.788V203.808H245.612V204.204C245.836 204.396 246.008 204.628 246.128 204.9C246.256 205.164 246.32 205.464 246.32 205.8C246.32 206.112 246.264 206.4 246.152 206.664C246.04 206.928 245.88 207.156 245.672 207.348C245.472 207.532 245.228 207.676 244.94 207.78C244.652 207.884 244.332 207.936 243.98 207.936C243.78 207.936 243.58 207.916 243.38 207.876C243.172 207.932 242.984 208.016 242.816 208.128C242.648 208.232 242.564 208.38 242.564 208.572C242.564 208.756 242.652 208.88 242.828 208.944C243.004 209.008 243.232 209.04 243.512 209.04H244.832C245.6 209.04 246.156 209.188 246.5 209.484C246.852 209.772 247.028 210.172 247.028 210.684ZM246.128 210.756C246.128 210.508 246.032 210.308 245.84 210.156C245.656 210.012 245.324 209.94 244.844 209.94H242.78C242.396 210.116 242.204 210.396 242.204 210.78C242.204 211.052 242.304 211.284 242.504 211.476C242.712 211.668 243.06 211.764 243.548 211.764H244.436C244.972 211.764 245.388 211.68 245.684 211.512C245.98 211.344 246.128 211.092 246.128 210.756ZM243.98 207.168C244.388 207.168 244.712 207.072 244.952 206.88C245.192 206.68 245.312 206.376 245.312 205.968V205.632C245.312 205.224 245.192 204.924 244.952 204.732C244.712 204.532 244.388 204.432 243.98 204.432C243.572 204.432 243.248 204.532 243.008 204.732C242.768 204.924 242.648 205.224 242.648 205.632V205.968C242.648 206.376 242.768 206.68 243.008 206.88C243.248 207.072 243.572 207.168 243.98 207.168ZM248.468 210V203.808H249.428V204.816H249.476C249.628 204.464 249.84 204.184 250.112 203.976C250.392 203.768 250.764 203.664 251.228 203.664C251.868 203.664 252.372 203.872 252.74 204.288C253.116 204.696 253.304 205.276 253.304 206.028V210H252.344V206.196C252.344 205.084 251.876 204.528 250.94 204.528C250.748 204.528 250.56 204.552 250.376 204.6C250.2 204.648 250.04 204.72 249.896 204.816C249.752 204.912 249.636 205.036 249.548 205.188C249.468 205.332 249.428 205.504 249.428 205.704V210H248.468ZM256.089 202.356C255.881 202.356 255.729 202.308 255.633 202.212C255.545 202.108 255.501 201.976 255.501 201.816V201.66C255.501 201.5 255.545 201.372 255.633 201.276C255.729 201.172 255.881 201.12 256.089 201.12C256.297 201.12 256.445 201.172 256.533 201.276C256.629 201.372 256.677 201.5 256.677 201.66V201.816C256.677 201.976 256.629 202.108 256.533 202.212C256.445 202.308 256.297 202.356 256.089 202.356ZM255.609 203.808H256.569V210H255.609V203.808ZM260.297 210C259.961 210 259.705 209.908 259.529 209.724C259.361 209.532 259.277 209.284 259.277 208.98V204.648H258.257V203.808H258.833C259.041 203.808 259.181 203.768 259.253 203.688C259.333 203.6 259.373 203.452 259.373 203.244V202.092H260.237V203.808H261.593V204.648H260.237V209.16H261.497V210H260.297ZM267.272 208.992H267.224C267.16 209.136 267.08 209.28 266.984 209.424C266.896 209.56 266.784 209.684 266.648 209.796C266.512 209.9 266.348 209.984 266.156 210.048C265.964 210.112 265.74 210.144 265.484 210.144C264.844 210.144 264.336 209.94 263.96 209.532C263.584 209.116 263.396 208.532 263.396 207.78V203.808H264.356V207.612C264.356 208.724 264.828 209.28 265.772 209.28C265.964 209.28 266.148 209.256 266.324 209.208C266.508 209.16 266.668 209.088 266.804 208.992C266.948 208.896 267.06 208.776 267.14 208.632C267.228 208.48 267.272 208.3 267.272 208.092V203.808H268.232V210H267.272V208.992ZM274.556 208.992H274.508C274.132 209.76 273.528 210.144 272.696 210.144C272.312 210.144 271.964 210.068 271.652 209.916C271.34 209.764 271.072 209.548 270.848 209.268C270.632 208.988 270.464 208.648 270.344 208.248C270.232 207.848 270.176 207.4 270.176 206.904C270.176 206.408 270.232 205.96 270.344 205.56C270.464 205.16 270.632 204.82 270.848 204.54C271.072 204.26 271.34 204.044 271.652 203.892C271.964 203.74 272.312 203.664 272.696 203.664C273.128 203.664 273.496 203.76 273.8 203.952C274.112 204.136 274.348 204.424 274.508 204.816H274.556V201.12H275.516V210H274.556V208.992ZM272.96 209.28C273.176 209.28 273.38 209.252 273.572 209.196C273.772 209.14 273.944 209.06 274.088 208.956C274.232 208.844 274.344 208.712 274.424 208.56C274.512 208.4 274.556 208.22 274.556 208.02V205.716C274.556 205.548 274.512 205.392 274.424 205.248C274.344 205.096 274.232 204.968 274.088 204.864C273.944 204.76 273.772 204.68 273.572 204.624C273.38 204.56 273.176 204.528 272.96 204.528C272.416 204.528 271.988 204.7 271.676 205.044C271.364 205.38 271.208 205.824 271.208 206.376V207.432C271.208 207.984 271.364 208.432 271.676 208.776C271.988 209.112 272.416 209.28 272.96 209.28ZM280.205 210.144C279.781 210.144 279.397 210.068 279.053 209.916C278.717 209.764 278.425 209.548 278.177 209.268C277.937 208.98 277.749 208.64 277.613 208.248C277.485 207.848 277.421 207.4 277.421 206.904C277.421 206.416 277.485 205.972 277.613 205.572C277.749 205.172 277.937 204.832 278.177 204.552C278.425 204.264 278.717 204.044 279.053 203.892C279.397 203.74 279.781 203.664 280.205 203.664C280.621 203.664 280.993 203.74 281.321 203.892C281.649 204.044 281.929 204.256 282.161 204.528C282.393 204.792 282.569 205.108 282.689 205.476C282.817 205.844 282.881 206.248 282.881 206.688V207.144H278.429V207.432C278.429 207.696 278.469 207.944 278.549 208.176C278.637 208.4 278.757 208.596 278.909 208.764C279.069 208.932 279.261 209.064 279.485 209.16C279.717 209.256 279.977 209.304 280.265 209.304C280.657 209.304 280.997 209.212 281.285 209.028C281.581 208.844 281.809 208.58 281.969 208.236L282.653 208.728C282.453 209.152 282.141 209.496 281.717 209.76C281.293 210.016 280.789 210.144 280.205 210.144ZM280.205 204.468C279.941 204.468 279.701 204.516 279.485 204.612C279.269 204.7 279.081 204.828 278.921 204.996C278.769 205.164 278.649 205.364 278.561 205.596C278.473 205.82 278.429 206.068 278.429 206.34V206.424H281.849V206.292C281.849 205.74 281.697 205.3 281.393 204.972C281.097 204.636 280.701 204.468 280.205 204.468ZM285.515 210.144C285.259 210.144 285.071 210.08 284.951 209.952C284.839 209.824 284.783 209.656 284.783 209.448V209.292C284.783 209.084 284.839 208.916 284.951 208.788C285.071 208.66 285.259 208.596 285.515 208.596C285.771 208.596 285.955 208.66 286.067 208.788C286.187 208.916 286.247 209.084 286.247 209.292V209.448C286.247 209.656 286.187 209.824 286.067 209.952C285.955 210.08 285.771 210.144 285.515 210.144ZM285.515 205.212C285.259 205.212 285.071 205.148 284.951 205.02C284.839 204.892 284.783 204.724 284.783 204.516V204.36C284.783 204.152 284.839 203.984 284.951 203.856C285.071 203.728 285.259 203.664 285.515 203.664C285.771 203.664 285.955 203.728 286.067 203.856C286.187 203.984 286.247 204.152 286.247 204.36V204.516C286.247 204.724 286.187 204.892 286.067 205.02C285.955 205.148 285.771 205.212 285.515 205.212ZM294.343 210.144C293.343 210.144 292.611 209.764 292.147 209.004C291.691 208.244 291.463 207.18 291.463 205.812C291.463 204.444 291.691 203.38 292.147 202.62C292.611 201.86 293.343 201.48 294.343 201.48C295.343 201.48 296.071 201.86 296.527 202.62C296.991 203.38 297.223 204.444 297.223 205.812C297.223 207.18 296.991 208.244 296.527 209.004C296.071 209.764 295.343 210.144 294.343 210.144ZM294.343 209.268C294.671 209.268 294.951 209.2 295.183 209.064C295.415 208.928 295.603 208.736 295.747 208.488C295.891 208.24 295.995 207.948 296.059 207.612C296.131 207.276 296.167 206.904 296.167 206.496V205.128C296.167 204.72 296.131 204.348 296.059 204.012C295.995 203.676 295.891 203.384 295.747 203.136C295.603 202.888 295.415 202.696 295.183 202.56C294.951 202.424 294.671 202.356 294.343 202.356C294.015 202.356 293.735 202.424 293.503 202.56C293.271 202.696 293.083 202.888 292.939 203.136C292.795 203.384 292.687 203.676 292.615 204.012C292.551 204.348 292.519 204.72 292.519 205.128V206.496C292.519 206.904 292.551 207.276 292.615 207.612C292.687 207.948 292.795 208.24 292.939 208.488C293.083 208.736 293.271 208.928 293.503 209.064C293.735 209.2 294.015 209.268 294.343 209.268ZM299.89 210.144C299.634 210.144 299.446 210.08 299.326 209.952C299.214 209.824 299.158 209.656 299.158 209.448V209.292C299.158 209.084 299.214 208.916 299.326 208.788C299.446 208.66 299.634 208.596 299.89 208.596C300.146 208.596 300.33 208.66 300.442 208.788C300.562 208.916 300.622 209.084 300.622 209.292V209.448C300.622 209.656 300.562 209.824 300.442 209.952C300.33 210.08 300.146 210.144 299.89 210.144ZM307.824 202.512H304.152L303.912 205.704H303.996C304.196 205.424 304.42 205.2 304.668 205.032C304.924 204.864 305.272 204.78 305.712 204.78C306.072 204.78 306.404 204.84 306.708 204.96C307.012 205.08 307.276 205.252 307.5 205.476C307.724 205.692 307.896 205.96 308.016 206.28C308.144 206.6 308.208 206.964 308.208 207.372C308.208 207.78 308.144 208.156 308.016 208.5C307.888 208.836 307.7 209.128 307.452 209.376C307.212 209.616 306.916 209.804 306.564 209.94C306.22 210.076 305.828 210.144 305.388 210.144C305.036 210.144 304.724 210.104 304.452 210.024C304.188 209.944 303.952 209.836 303.744 209.7C303.536 209.564 303.352 209.412 303.192 209.244C303.04 209.076 302.9 208.9 302.772 208.716L303.528 208.14C303.632 208.308 303.74 208.46 303.852 208.596C303.972 208.732 304.1 208.848 304.236 208.944C304.38 209.04 304.544 209.116 304.728 209.172C304.912 209.22 305.132 209.244 305.388 209.244C305.964 209.244 306.4 209.092 306.696 208.788C306.992 208.484 307.14 208.056 307.14 207.504V207.384C307.14 206.832 306.992 206.404 306.696 206.1C306.4 205.796 305.964 205.644 305.388 205.644C305.004 205.644 304.7 205.716 304.476 205.86C304.26 205.996 304.064 206.16 303.888 206.352L303.036 206.232L303.336 201.624H307.824V202.512ZM225.116 226V217.624H228.452C229.204 217.624 229.78 217.84 230.18 218.272C230.588 218.696 230.792 219.28 230.792 220.024C230.792 220.768 230.588 221.356 230.18 221.788C229.78 222.212 229.204 222.424 228.452 222.424H226.124V226H225.116ZM226.124 221.536H228.452C228.852 221.536 229.16 221.432 229.376 221.224C229.6 221.016 229.712 220.72 229.712 220.336V219.712C229.712 219.328 229.6 219.032 229.376 218.824C229.16 218.616 228.852 218.512 228.452 218.512H226.124V221.536ZM232.617 217.12H233.577V220.816H233.625C233.777 220.464 233.989 220.184 234.261 219.976C234.541 219.768 234.913 219.664 235.377 219.664C236.017 219.664 236.521 219.872 236.889 220.288C237.265 220.696 237.453 221.276 237.453 222.028V226H236.493V222.196C236.493 221.084 236.025 220.528 235.089 220.528C234.897 220.528 234.709 220.552 234.525 220.6C234.349 220.648 234.189 220.72 234.045 220.816C233.901 220.912 233.785 221.036 233.697 221.188C233.617 221.332 233.577 221.504 233.577 221.704V226H232.617V217.12ZM244.258 226C243.898 226 243.638 225.904 243.478 225.712C243.326 225.52 243.23 225.28 243.19 224.992H243.13C242.994 225.376 242.77 225.664 242.458 225.856C242.146 226.048 241.774 226.144 241.342 226.144C240.686 226.144 240.174 225.976 239.806 225.64C239.446 225.304 239.266 224.848 239.266 224.272C239.266 223.688 239.478 223.24 239.902 222.928C240.334 222.616 241.002 222.46 241.906 222.46H243.13V221.848C243.13 221.408 243.01 221.072 242.77 220.84C242.53 220.608 242.162 220.492 241.666 220.492C241.29 220.492 240.974 220.576 240.718 220.744C240.47 220.912 240.262 221.136 240.094 221.416L239.518 220.876C239.686 220.54 239.954 220.256 240.322 220.024C240.69 219.784 241.154 219.664 241.714 219.664C242.466 219.664 243.05 219.848 243.466 220.216C243.882 220.584 244.09 221.096 244.09 221.752V225.16H244.798V226H244.258ZM241.498 225.328C241.738 225.328 241.958 225.3 242.158 225.244C242.358 225.188 242.53 225.108 242.674 225.004C242.818 224.9 242.93 224.78 243.01 224.644C243.09 224.508 243.13 224.36 243.13 224.2V223.18H241.858C241.306 223.18 240.902 223.26 240.646 223.42C240.398 223.58 240.274 223.812 240.274 224.116V224.368C240.274 224.672 240.382 224.908 240.598 225.076C240.822 225.244 241.122 225.328 241.498 225.328ZM248.348 226.144C247.772 226.144 247.288 226.036 246.896 225.82C246.512 225.596 246.18 225.3 245.9 224.932L246.584 224.38C246.824 224.684 247.092 224.92 247.388 225.088C247.684 225.248 248.028 225.328 248.42 225.328C248.828 225.328 249.144 225.24 249.368 225.064C249.6 224.888 249.716 224.64 249.716 224.32C249.716 224.08 249.636 223.876 249.476 223.708C249.324 223.532 249.044 223.412 248.636 223.348L248.144 223.276C247.856 223.236 247.592 223.176 247.352 223.096C247.112 223.008 246.9 222.896 246.716 222.76C246.54 222.616 246.4 222.44 246.296 222.232C246.2 222.024 246.152 221.776 246.152 221.488C246.152 221.184 246.208 220.92 246.32 220.696C246.432 220.464 246.584 220.272 246.776 220.12C246.976 219.968 247.212 219.856 247.484 219.784C247.756 219.704 248.048 219.664 248.36 219.664C248.864 219.664 249.284 219.752 249.62 219.928C249.964 220.104 250.264 220.348 250.52 220.66L249.884 221.236C249.748 221.044 249.548 220.872 249.284 220.72C249.02 220.56 248.688 220.48 248.288 220.48C247.888 220.48 247.584 220.568 247.376 220.744C247.176 220.912 247.076 221.144 247.076 221.44C247.076 221.744 247.176 221.964 247.376 222.1C247.584 222.236 247.88 222.336 248.264 222.4L248.744 222.472C249.432 222.576 249.92 222.776 250.208 223.072C250.496 223.36 250.64 223.74 250.64 224.212C250.64 224.812 250.436 225.284 250.028 225.628C249.62 225.972 249.06 226.144 248.348 226.144ZM254.983 226.144C254.559 226.144 254.175 226.068 253.831 225.916C253.495 225.764 253.203 225.548 252.955 225.268C252.715 224.98 252.527 224.64 252.391 224.248C252.263 223.848 252.199 223.4 252.199 222.904C252.199 222.416 252.263 221.972 252.391 221.572C252.527 221.172 252.715 220.832 252.955 220.552C253.203 220.264 253.495 220.044 253.831 219.892C254.175 219.74 254.559 219.664 254.983 219.664C255.399 219.664 255.771 219.74 256.099 219.892C256.427 220.044 256.707 220.256 256.939 220.528C257.171 220.792 257.347 221.108 257.467 221.476C257.595 221.844 257.659 222.248 257.659 222.688V223.144H253.207V223.432C253.207 223.696 253.247 223.944 253.327 224.176C253.415 224.4 253.535 224.596 253.687 224.764C253.847 224.932 254.039 225.064 254.263 225.16C254.495 225.256 254.755 225.304 255.043 225.304C255.435 225.304 255.775 225.212 256.063 225.028C256.359 224.844 256.587 224.58 256.747 224.236L257.431 224.728C257.231 225.152 256.919 225.496 256.495 225.76C256.071 226.016 255.567 226.144 254.983 226.144ZM254.983 220.468C254.719 220.468 254.479 220.516 254.263 220.612C254.047 220.7 253.859 220.828 253.699 220.996C253.547 221.164 253.427 221.364 253.339 221.596C253.251 221.82 253.207 222.068 253.207 222.34V222.424H256.627V222.292C256.627 221.74 256.475 221.3 256.171 220.972C255.875 220.636 255.479 220.468 254.983 220.468ZM260.293 226.144C260.037 226.144 259.849 226.08 259.729 225.952C259.617 225.824 259.561 225.656 259.561 225.448V225.292C259.561 225.084 259.617 224.916 259.729 224.788C259.849 224.66 260.037 224.596 260.293 224.596C260.549 224.596 260.733 224.66 260.845 224.788C260.965 224.916 261.025 225.084 261.025 225.292V225.448C261.025 225.656 260.965 225.824 260.845 225.952C260.733 226.08 260.549 226.144 260.293 226.144ZM260.293 221.212C260.037 221.212 259.849 221.148 259.729 221.02C259.617 220.892 259.561 220.724 259.561 220.516V220.36C259.561 220.152 259.617 219.984 259.729 219.856C259.849 219.728 260.037 219.664 260.293 219.664C260.549 219.664 260.733 219.728 260.845 219.856C260.965 219.984 261.025 220.152 261.025 220.36V220.516C261.025 220.724 260.965 220.892 260.845 221.02C260.733 221.148 260.549 221.212 260.293 221.212ZM268.653 221.176C269.221 221.176 269.645 221.048 269.925 220.792C270.213 220.528 270.357 220.192 270.357 219.784V219.7C270.357 219.26 270.217 218.932 269.937 218.716C269.665 218.492 269.305 218.38 268.857 218.38C268.425 218.38 268.073 218.476 267.801 218.668C267.529 218.852 267.305 219.104 267.129 219.424L266.385 218.848C266.489 218.68 266.613 218.516 266.757 218.356C266.909 218.188 267.085 218.04 267.285 217.912C267.485 217.784 267.717 217.68 267.981 217.6C268.245 217.52 268.545 217.48 268.881 217.48C269.233 217.48 269.565 217.528 269.877 217.624C270.189 217.712 270.457 217.848 270.681 218.032C270.913 218.208 271.093 218.428 271.221 218.692C271.357 218.956 271.425 219.256 271.425 219.592C271.425 219.864 271.381 220.108 271.293 220.324C271.213 220.54 271.101 220.728 270.957 220.888C270.813 221.048 270.641 221.184 270.441 221.296C270.249 221.408 270.041 221.492 269.817 221.548V221.596C270.041 221.644 270.257 221.724 270.465 221.836C270.681 221.94 270.869 222.08 271.029 222.256C271.197 222.424 271.329 222.632 271.425 222.88C271.529 223.12 271.581 223.396 271.581 223.708C271.581 224.068 271.513 224.4 271.377 224.704C271.241 225 271.049 225.256 270.801 225.472C270.553 225.68 270.253 225.844 269.901 225.964C269.549 226.084 269.161 226.144 268.737 226.144C268.377 226.144 268.057 226.104 267.777 226.024C267.497 225.944 267.249 225.836 267.033 225.7C266.817 225.564 266.625 225.412 266.457 225.244C266.297 225.076 266.153 224.9 266.025 224.716L266.781 224.14C266.885 224.308 266.997 224.46 267.117 224.596C267.245 224.732 267.385 224.848 267.537 224.944C267.689 225.04 267.861 225.116 268.053 225.172C268.245 225.22 268.469 225.244 268.725 225.244C269.317 225.244 269.765 225.112 270.069 224.848C270.373 224.576 270.525 224.192 270.525 223.696V223.6C270.525 223.104 270.373 222.724 270.069 222.46C269.765 222.188 269.317 222.052 268.725 222.052H267.741V221.176H268.653ZM274.093 226V225.112H276.433V218.368H276.349L274.237 220.336L273.649 219.7L275.869 217.624H277.441V225.112H279.601V226H274.093ZM284.152 226.144C283.152 226.144 282.42 225.764 281.956 225.004C281.5 224.244 281.272 223.18 281.272 221.812C281.272 220.444 281.5 219.38 281.956 218.62C282.42 217.86 283.152 217.48 284.152 217.48C285.152 217.48 285.88 217.86 286.336 218.62C286.8 219.38 287.032 220.444 287.032 221.812C287.032 223.18 286.8 224.244 286.336 225.004C285.88 225.764 285.152 226.144 284.152 226.144ZM284.152 225.268C284.48 225.268 284.76 225.2 284.992 225.064C285.224 224.928 285.412 224.736 285.556 224.488C285.7 224.24 285.804 223.948 285.868 223.612C285.94 223.276 285.976 222.904 285.976 222.496V221.128C285.976 220.72 285.94 220.348 285.868 220.012C285.804 219.676 285.7 219.384 285.556 219.136C285.412 218.888 285.224 218.696 284.992 218.56C284.76 218.424 284.48 218.356 284.152 218.356C283.824 218.356 283.544 218.424 283.312 218.56C283.08 218.696 282.892 218.888 282.748 219.136C282.604 219.384 282.496 219.676 282.424 220.012C282.36 220.348 282.328 220.72 282.328 221.128V222.496C282.328 222.904 282.36 223.276 282.424 223.612C282.496 223.948 282.604 224.24 282.748 224.488C282.892 224.736 283.08 224.928 283.312 225.064C283.544 225.2 283.824 225.268 284.152 225.268ZM290.875 221.608C290.587 221.608 290.319 221.556 290.071 221.452C289.831 221.348 289.619 221.204 289.435 221.02C289.259 220.836 289.119 220.62 289.015 220.372C288.911 220.116 288.859 219.84 288.859 219.544C288.859 219.248 288.911 218.976 289.015 218.728C289.119 218.472 289.259 218.252 289.435 218.068C289.619 217.884 289.831 217.74 290.071 217.636C290.319 217.532 290.587 217.48 290.875 217.48C291.163 217.48 291.427 217.532 291.667 217.636C291.915 217.74 292.127 217.884 292.303 218.068C292.487 218.252 292.631 218.472 292.735 218.728C292.839 218.976 292.891 219.248 292.891 219.544C292.891 219.84 292.839 220.116 292.735 220.372C292.631 220.62 292.487 220.836 292.303 221.02C292.127 221.204 291.915 221.348 291.667 221.452C291.427 221.556 291.163 221.608 290.875 221.608ZM290.875 220.84C291.235 220.84 291.519 220.716 291.727 220.468C291.943 220.212 292.051 219.904 292.051 219.544C292.051 219.184 291.943 218.88 291.727 218.632C291.519 218.376 291.235 218.248 290.875 218.248C290.515 218.248 290.227 218.376 290.011 218.632C289.803 218.88 289.699 219.184 289.699 219.544C289.699 219.904 289.803 220.212 290.011 220.468C290.227 220.716 290.515 220.84 290.875 220.84Z"/><path fill="#000" d="M216.196 22L215.412 19.508H211.94L211.17 22H209.294L212.57 12.228H214.866L218.114 22H216.196ZM213.704 13.908H213.634L212.388 17.926H214.964L213.704 13.908ZM219.602 22V14.692H221.394V15.91H221.464C221.604 15.5273 221.828 15.2007 222.136 14.93C222.444 14.6593 222.874 14.524 223.424 14.524C223.928 14.524 224.362 14.6453 224.726 14.888C225.09 15.1307 225.361 15.4993 225.538 15.994H225.566C225.697 15.5833 225.954 15.238 226.336 14.958C226.728 14.6687 227.218 14.524 227.806 14.524C228.525 14.524 229.076 14.7713 229.458 15.266C229.85 15.7607 230.046 16.4653 230.046 17.38V22H228.254V17.562C228.254 16.5167 227.862 15.994 227.078 15.994C226.901 15.994 226.728 16.022 226.56 16.078C226.402 16.1247 226.257 16.1993 226.126 16.302C226.005 16.3953 225.907 16.5167 225.832 16.666C225.758 16.806 225.72 16.974 225.72 17.17V22H223.928V17.562C223.928 16.5167 223.536 15.994 222.752 15.994C222.584 15.994 222.416 16.022 222.248 16.078C222.09 16.1247 221.945 16.1993 221.814 16.302C221.693 16.3953 221.59 16.5167 221.506 16.666C221.432 16.806 221.394 16.974 221.394 17.17V22H219.602ZM232.19 14.692H233.982V15.896H234.038C234.169 15.476 234.416 15.1447 234.78 14.902C235.144 14.65 235.569 14.524 236.054 14.524C236.987 14.524 237.697 14.8553 238.182 15.518C238.677 16.1713 238.924 17.1093 238.924 18.332C238.924 19.564 238.677 20.5113 238.182 21.174C237.697 21.8367 236.987 22.168 236.054 22.168C235.569 22.168 235.144 22.042 234.78 21.79C234.425 21.538 234.178 21.202 234.038 20.782H233.982V24.8H232.19V14.692ZM235.48 20.684C235.947 20.684 236.325 20.53 236.614 20.222C236.903 19.914 237.048 19.4987 237.048 18.976V17.716C237.048 17.1933 236.903 16.778 236.614 16.47C236.325 16.1527 235.947 15.994 235.48 15.994C235.051 15.994 234.691 16.1013 234.402 16.316C234.122 16.5307 233.982 16.8153 233.982 17.17V19.494C233.982 19.8767 234.122 20.1707 234.402 20.376C234.691 20.5813 235.051 20.684 235.48 20.684ZM242.537 22C241.921 22 241.468 21.846 241.179 21.538C240.889 21.23 240.745 20.796 240.745 20.236V11.64H242.537V20.572H243.503V22H242.537ZM245.916 13.628C245.542 13.628 245.272 13.544 245.104 13.376C244.945 13.208 244.866 12.9933 244.866 12.732V12.452C244.866 12.1907 244.945 11.976 245.104 11.808C245.272 11.64 245.542 11.556 245.916 11.556C246.28 11.556 246.546 11.64 246.714 11.808C246.882 11.976 246.966 12.1907 246.966 12.452V12.732C246.966 12.9933 246.882 13.208 246.714 13.376C246.546 13.544 246.28 13.628 245.916 13.628ZM245.02 14.692H246.812V22H245.02V14.692ZM251.331 22C250.715 22 250.244 21.8413 249.917 21.524C249.6 21.1973 249.441 20.7353 249.441 20.138V16.12H248.363V14.692H248.923C249.194 14.692 249.376 14.6313 249.469 14.51C249.572 14.3793 249.623 14.188 249.623 13.936V12.69H251.233V14.692H252.731V16.12H251.233V20.572H252.619V22H251.331ZM258.813 20.782H258.743C258.678 20.9687 258.589 21.146 258.477 21.314C258.375 21.4727 258.239 21.6173 258.071 21.748C257.913 21.8787 257.717 21.9813 257.483 22.056C257.259 22.1307 256.998 22.168 256.699 22.168C255.943 22.168 255.365 21.9207 254.963 21.426C254.562 20.9313 254.361 20.2267 254.361 19.312V14.692H256.153V19.13C256.153 19.634 256.251 20.0213 256.447 20.292C256.643 20.5533 256.956 20.684 257.385 20.684C257.563 20.684 257.735 20.6607 257.903 20.614C258.081 20.5673 258.235 20.4973 258.365 20.404C258.496 20.3013 258.603 20.18 258.687 20.04C258.771 19.8907 258.813 19.718 258.813 19.522V14.692H260.605V22H258.813V20.782ZM267.372 20.782H267.302C267.171 21.202 266.924 21.538 266.56 21.79C266.196 22.042 265.771 22.168 265.286 22.168C264.362 22.168 263.652 21.8367 263.158 21.174C262.672 20.5113 262.43 19.564 262.43 18.332C262.43 17.1093 262.672 16.1713 263.158 15.518C263.652 14.8553 264.362 14.524 265.286 14.524C265.771 14.524 266.196 14.65 266.56 14.902C266.924 15.1447 267.171 15.476 267.302 15.896H267.372V11.64H269.164V22H267.372V20.782ZM265.86 20.684C266.289 20.684 266.648 20.5813 266.938 20.376C267.227 20.1707 267.372 19.8767 267.372 19.494V17.17C267.372 16.8153 267.227 16.5307 266.938 16.316C266.648 16.1013 266.289 15.994 265.86 15.994C265.393 15.994 265.015 16.1527 264.726 16.47C264.446 16.778 264.306 17.1933 264.306 17.716V18.976C264.306 19.4987 264.446 19.914 264.726 20.222C265.015 20.53 265.393 20.684 265.86 20.684ZM274.344 22.168C273.803 22.168 273.318 22.0793 272.888 21.902C272.468 21.7153 272.109 21.4587 271.81 21.132C271.521 20.796 271.297 20.3947 271.138 19.928C270.98 19.452 270.9 18.92 270.9 18.332C270.9 17.7533 270.975 17.2307 271.124 16.764C271.283 16.2973 271.507 15.9007 271.796 15.574C272.086 15.238 272.44 14.9813 272.86 14.804C273.28 14.6173 273.756 14.524 274.288 14.524C274.858 14.524 275.352 14.622 275.772 14.818C276.192 15.014 276.538 15.28 276.808 15.616C277.079 15.952 277.28 16.344 277.41 16.792C277.55 17.2307 277.62 17.702 277.62 18.206V18.794H272.762V18.976C272.762 19.508 272.912 19.9373 273.21 20.264C273.509 20.5813 273.952 20.74 274.54 20.74C274.988 20.74 275.352 20.6467 275.632 20.46C275.922 20.2733 276.178 20.0353 276.402 19.746L277.368 20.824C277.07 21.244 276.659 21.5753 276.136 21.818C275.623 22.0513 275.026 22.168 274.344 22.168ZM274.316 15.868C273.84 15.868 273.462 16.0267 273.182 16.344C272.902 16.6613 272.762 17.072 272.762 17.576V17.688H275.758V17.562C275.758 17.058 275.632 16.652 275.38 16.344C275.138 16.0267 274.783 15.868 274.316 15.868Z"/><path fill="#000" d="M17.148 22V12.228H21.544C21.992 12.228 22.3933 12.3027 22.748 12.452C23.112 12.592 23.42 12.7973 23.672 13.068C23.924 13.3293 24.1153 13.6467 24.246 14.02C24.3767 14.3933 24.442 14.804 24.442 15.252C24.442 15.7093 24.3767 16.1247 24.246 16.498C24.1153 16.862 23.924 17.1793 23.672 17.45C23.42 17.7113 23.112 17.9167 22.748 18.066C22.3933 18.206 21.992 18.276 21.544 18.276H18.996V22H17.148ZM18.996 16.68H21.376C21.7307 16.68 22.0107 16.5867 22.216 16.4C22.4213 16.204 22.524 15.9287 22.524 15.574V14.93C22.524 14.5753 22.4213 14.3047 22.216 14.118C22.0107 13.9313 21.7307 13.838 21.376 13.838H18.996V16.68ZM26.028 22V14.692H27.82V16.204H27.89C27.9367 16.008 28.0067 15.8213 28.1 15.644C28.2027 15.4573 28.3334 15.294 28.492 15.154C28.6507 15.014 28.8374 14.902 29.052 14.818C29.276 14.734 29.5327 14.692 29.822 14.692H30.214V16.386H29.654C29.0474 16.386 28.59 16.4747 28.282 16.652C27.974 16.8293 27.82 17.1187 27.82 17.52V22H26.028ZM34.5138 22.168C33.9911 22.168 33.5198 22.0793 33.0998 21.902C32.6891 21.7247 32.3344 21.468 32.0358 21.132C31.7464 20.796 31.5224 20.3947 31.3638 19.928C31.2051 19.452 31.1258 18.92 31.1258 18.332C31.1258 17.744 31.2051 17.2167 31.3638 16.75C31.5224 16.2833 31.7464 15.8867 32.0358 15.56C32.3344 15.224 32.6891 14.9673 33.0998 14.79C33.5198 14.6127 33.9911 14.524 34.5138 14.524C35.0364 14.524 35.5078 14.6127 35.9278 14.79C36.3478 14.9673 36.7024 15.224 36.9918 15.56C37.2904 15.8867 37.5191 16.2833 37.6778 16.75C37.8364 17.2167 37.9158 17.744 37.9158 18.332C37.9158 18.92 37.8364 19.452 37.6778 19.928C37.5191 20.3947 37.2904 20.796 36.9918 21.132C36.7024 21.468 36.3478 21.7247 35.9278 21.902C35.5078 22.0793 35.0364 22.168 34.5138 22.168ZM34.5138 20.726C34.9898 20.726 35.3631 20.5813 35.6338 20.292C35.9044 20.0027 36.0398 19.578 36.0398 19.018V17.66C36.0398 17.1093 35.9044 16.6893 35.6338 16.4C35.3631 16.1107 34.9898 15.966 34.5138 15.966C34.0471 15.966 33.6784 16.1107 33.4078 16.4C33.1371 16.6893 33.0018 17.1093 33.0018 17.66V19.018C33.0018 19.578 33.1371 20.0027 33.4078 20.292C33.6784 20.5813 34.0471 20.726 34.5138 20.726ZM39.6644 11.64H41.4564V15.896H41.5124C41.6431 15.476 41.8904 15.1447 42.2544 14.902C42.6184 14.65 43.0431 14.524 43.5284 14.524C44.4618 14.524 45.1711 14.8553 45.6564 15.518C46.1511 16.1713 46.3984 17.1093 46.3984 18.332C46.3984 19.564 46.1511 20.5113 45.6564 21.174C45.1711 21.8367 44.4618 22.168 43.5284 22.168C43.0431 22.168 42.6184 22.042 42.2544 21.79C41.8998 21.538 41.6524 21.202 41.5124 20.782H41.4564V22H39.6644V11.64ZM42.9544 20.684C43.4211 20.684 43.7991 20.53 44.0884 20.222C44.3778 19.914 44.5224 19.4987 44.5224 18.976V17.716C44.5224 17.1933 44.3778 16.778 44.0884 16.47C43.7991 16.1527 43.4211 15.994 42.9544 15.994C42.5251 15.994 42.1658 16.1013 41.8764 16.316C41.5964 16.5307 41.4564 16.8153 41.4564 17.17V19.494C41.4564 19.8767 41.5964 20.1707 41.8764 20.376C42.1658 20.5813 42.5251 20.684 42.9544 20.684ZM53.595 22C53.203 22 52.8903 21.888 52.657 21.664C52.433 21.4307 52.293 21.1227 52.237 20.74H52.153C52.0316 21.216 51.7843 21.5753 51.411 21.818C51.0376 22.0513 50.5756 22.168 50.025 22.168C49.2783 22.168 48.7043 21.972 48.303 21.58C47.9016 21.188 47.701 20.6653 47.701 20.012C47.701 19.256 47.9716 18.696 48.513 18.332C49.0543 17.9587 49.8243 17.772 50.823 17.772H52.069V17.24C52.069 16.8293 51.9616 16.512 51.747 16.288C51.5323 16.064 51.187 15.952 50.711 15.952C50.291 15.952 49.9503 16.0453 49.689 16.232C49.437 16.4093 49.2223 16.624 49.045 16.876L47.981 15.924C48.2516 15.504 48.611 15.168 49.059 14.916C49.507 14.6547 50.0996 14.524 50.837 14.524C51.8263 14.524 52.5776 14.748 53.091 15.196C53.6043 15.644 53.861 16.288 53.861 17.128V20.572H54.589V22H53.595ZM50.627 20.866C51.0283 20.866 51.369 20.7773 51.649 20.6C51.929 20.4227 52.069 20.1613 52.069 19.816V18.85H50.921C49.9876 18.85 49.521 19.1487 49.521 19.746V19.984C49.521 20.2827 49.6143 20.5067 49.801 20.656C49.997 20.796 50.2723 20.866 50.627 20.866ZM56.1993 11.64H57.9913V15.896H58.0473C58.1779 15.476 58.4253 15.1447 58.7893 14.902C59.1533 14.65 59.5779 14.524 60.0633 14.524C60.9966 14.524 61.7059 14.8553 62.1913 15.518C62.6859 16.1713 62.9333 17.1093 62.9333 18.332C62.9333 19.564 62.6859 20.5113 62.1913 21.174C61.7059 21.8367 60.9966 22.168 60.0633 22.168C59.5779 22.168 59.1533 22.042 58.7893 21.79C58.4346 21.538 58.1873 21.202 58.0473 20.782H57.9913V22H56.1993V11.64ZM59.4893 20.684C59.9559 20.684 60.3339 20.53 60.6233 20.222C60.9126 19.914 61.0573 19.4987 61.0573 18.976V17.716C61.0573 17.1933 60.9126 16.778 60.6233 16.47C60.3339 16.1527 59.9559 15.994 59.4893 15.994C59.0599 15.994 58.7006 16.1013 58.4113 16.316C58.1313 16.5307 57.9913 16.8153 57.9913 17.17V19.494C57.9913 19.8767 58.1313 20.1707 58.4113 20.376C58.7006 20.5813 59.0599 20.684 59.4893 20.684ZM65.6498 13.628C65.2765 13.628 65.0058 13.544 64.8378 13.376C64.6791 13.208 64.5998 12.9933 64.5998 12.732V12.452C64.5998 12.1907 64.6791 11.976 64.8378 11.808C65.0058 11.64 65.2765 11.556 65.6498 11.556C66.0138 11.556 66.2798 11.64 66.4478 11.808C66.6158 11.976 66.6998 12.1907 66.6998 12.452V12.732C66.6998 12.9933 66.6158 13.208 66.4478 13.376C66.2798 13.544 66.0138 13.628 65.6498 13.628ZM64.7538 14.692H66.5458V22H64.7538V14.692ZM70.575 22C69.959 22 69.5063 21.846 69.217 21.538C68.9276 21.23 68.783 20.796 68.783 20.236V11.64H70.575V20.572H71.541V22H70.575ZM73.9542 13.628C73.5809 13.628 73.3102 13.544 73.1422 13.376C72.9835 13.208 72.9042 12.9933 72.9042 12.732V12.452C72.9042 12.1907 72.9835 11.976 73.1422 11.808C73.3102 11.64 73.5809 11.556 73.9542 11.556C74.3182 11.556 74.5842 11.64 74.7522 11.808C74.9202 11.976 75.0042 12.1907 75.0042 12.452V12.732C75.0042 12.9933 74.9202 13.208 74.7522 13.376C74.5842 13.544 74.3182 13.628 73.9542 13.628ZM73.0582 14.692H74.8502V22H73.0582V14.692ZM79.3693 22C78.7533 22 78.282 21.8413 77.9553 21.524C77.638 21.1973 77.4793 20.7353 77.4793 20.138V16.12H76.4013V14.692H76.9613C77.232 14.692 77.414 14.6313 77.5073 14.51C77.61 14.3793 77.6613 14.188 77.6613 13.936V12.69H79.2713V14.692H80.7693V16.12H79.2713V20.572H80.6573V22H79.3693ZM86.9637 14.692H88.6437L85.7037 23.302C85.6103 23.5633 85.503 23.7873 85.3817 23.974C85.2697 24.17 85.1343 24.3287 84.9757 24.45C84.817 24.5713 84.6257 24.66 84.4017 24.716C84.1777 24.772 83.9163 24.8 83.6177 24.8H82.5397V23.372H83.8557L84.1917 22.35L81.5737 14.692H83.3517L84.6257 18.556L85.1017 20.404H85.1857L85.6897 18.556L86.9637 14.692Z"/><line x1="192.5" x2="192.5" y2="240" stroke="#DDE1E6"/><rect width="383" height="239" x=".5" y=".5" stroke="#DDE1E6"/><path fill="#343A3F" d="M84 103L80 104.5L84 106V103Z"/><line x1="84" x2="209" y1="104.5" y2="104.5" stroke="#343A3F"/><circle cx="288" cy="104" r="64" fill="#DDE1E6"/><circle cx="287.104" cy="103.558" r="39.5" fill="#BE95FF" stroke="#491D8B" transform="rotate(-136.118 287.104 103.558)"/><path fill="#491D8B" d="M309.516 128.581L313.439 130.273L311.596 126.419L309.516 128.581Z"/><line x1="310.556" x2="286.05" y1="127.5" y2="103.932" stroke="#491D8B"/><rect width="32" height="116" x="32" y="60" fill="#DDE1E6"/><rect width="31" height="29" x="32.5" y="146.5" fill="#BE95FF" stroke="#491D8B"/><path fill="#000" d="M119.88 78.144C119.304 78.144 118.82 78.036 118.428 77.82C118.044 77.596 117.712 77.3 117.432 76.932L118.116 76.38C118.356 76.684 118.624 76.92 118.92 77.088C119.216 77.248 119.56 77.328 119.952 77.328C120.36 77.328 120.676 77.24 120.9 77.064C121.132 76.888 121.248 76.64 121.248 76.32C121.248 76.08 121.168 75.876 121.008 75.708C120.856 75.532 120.576 75.412 120.168 75.348L119.676 75.276C119.388 75.236 119.124 75.176 118.884 75.096C118.644 75.008 118.432 74.896 118.248 74.76C118.072 74.616 117.932 74.44 117.828 74.232C117.732 74.024 117.684 73.776 117.684 73.488C117.684 73.184 117.74 72.92 117.852 72.696C117.964 72.464 118.116 72.272 118.308 72.12C118.508 71.968 118.744 71.856 119.016 71.784C119.288 71.704 119.58 71.664 119.892 71.664C120.396 71.664 120.816 71.752 121.152 71.928C121.496 72.104 121.796 72.348 122.052 72.66L121.416 73.236C121.28 73.044 121.08 72.872 120.816 72.72C120.552 72.56 120.22 72.48 119.82 72.48C119.42 72.48 119.116 72.568 118.908 72.744C118.708 72.912 118.608 73.144 118.608 73.44C118.608 73.744 118.708 73.964 118.908 74.1C119.116 74.236 119.412 74.336 119.796 74.4L120.276 74.472C120.964 74.576 121.452 74.776 121.74 75.072C122.028 75.36 122.172 75.74 122.172 76.212C122.172 76.812 121.968 77.284 121.56 77.628C121.152 77.972 120.592 78.144 119.88 78.144ZM128.148 76.992H128.1C127.724 77.76 127.12 78.144 126.288 78.144C125.904 78.144 125.556 78.068 125.244 77.916C124.932 77.764 124.664 77.548 124.44 77.268C124.224 76.988 124.056 76.648 123.936 76.248C123.824 75.848 123.768 75.4 123.768 74.904C123.768 74.408 123.824 73.96 123.936 73.56C124.056 73.16 124.224 72.82 124.44 72.54C124.664 72.26 124.932 72.044 125.244 71.892C125.556 71.74 125.904 71.664 126.288 71.664C126.72 71.664 127.088 71.76 127.392 71.952C127.704 72.136 127.94 72.424 128.1 72.816H128.148V71.808H129.108V80.4H128.148V76.992ZM126.552 77.28C126.768 77.28 126.972 77.252 127.164 77.196C127.364 77.14 127.536 77.06 127.68 76.956C127.824 76.844 127.936 76.712 128.016 76.56C128.104 76.4 128.148 76.22 128.148 76.02V73.716C128.148 73.548 128.104 73.392 128.016 73.248C127.936 73.096 127.824 72.968 127.68 72.864C127.536 72.76 127.364 72.68 127.164 72.624C126.972 72.56 126.768 72.528 126.552 72.528C126.008 72.528 125.58 72.7 125.268 73.044C124.956 73.38 124.8 73.824 124.8 74.376V75.432C124.8 75.984 124.956 76.432 125.268 76.776C125.58 77.112 126.008 77.28 126.552 77.28ZM135.285 76.992H135.237C135.173 77.136 135.093 77.28 134.997 77.424C134.909 77.56 134.797 77.684 134.661 77.796C134.525 77.9 134.361 77.984 134.169 78.048C133.977 78.112 133.753 78.144 133.497 78.144C132.857 78.144 132.349 77.94 131.973 77.532C131.597 77.116 131.409 76.532 131.409 75.78V71.808H132.369V75.612C132.369 76.724 132.841 77.28 133.785 77.28C133.977 77.28 134.161 77.256 134.337 77.208C134.521 77.16 134.681 77.088 134.817 76.992C134.961 76.896 135.073 76.776 135.153 76.632C135.241 76.48 135.285 76.3 135.285 76.092V71.808H136.245V78H135.285V76.992ZM143.109 78C142.749 78 142.489 77.904 142.329 77.712C142.177 77.52 142.081 77.28 142.041 76.992H141.981C141.845 77.376 141.621 77.664 141.309 77.856C140.997 78.048 140.625 78.144 140.193 78.144C139.537 78.144 139.025 77.976 138.657 77.64C138.297 77.304 138.117 76.848 138.117 76.272C138.117 75.688 138.329 75.24 138.753 74.928C139.185 74.616 139.853 74.46 140.757 74.46H141.981V73.848C141.981 73.408 141.861 73.072 141.621 72.84C141.381 72.608 141.013 72.492 140.517 72.492C140.141 72.492 139.825 72.576 139.569 72.744C139.321 72.912 139.113 73.136 138.945 73.416L138.369 72.876C138.537 72.54 138.805 72.256 139.173 72.024C139.541 71.784 140.005 71.664 140.565 71.664C141.317 71.664 141.901 71.848 142.317 72.216C142.733 72.584 142.941 73.096 142.941 73.752V77.16H143.649V78H143.109ZM140.349 77.328C140.589 77.328 140.809 77.3 141.009 77.244C141.209 77.188 141.381 77.108 141.525 77.004C141.669 76.9 141.781 76.78 141.861 76.644C141.941 76.508 141.981 76.36 141.981 76.2V75.18H140.709C140.157 75.18 139.753 75.26 139.497 75.42C139.249 75.58 139.125 75.812 139.125 76.116V76.368C139.125 76.672 139.233 76.908 139.449 77.076C139.673 77.244 139.973 77.328 140.349 77.328ZM145.339 78V71.808H146.299V72.948H146.359C146.471 72.652 146.671 72.388 146.959 72.156C147.247 71.924 147.643 71.808 148.147 71.808H148.519V72.768H147.955C147.435 72.768 147.027 72.868 146.731 73.068C146.443 73.26 146.299 73.504 146.299 73.8V78H145.339ZM152.335 78.144C151.911 78.144 151.527 78.068 151.183 77.916C150.847 77.764 150.555 77.548 150.307 77.268C150.067 76.98 149.879 76.64 149.743 76.248C149.615 75.848 149.551 75.4 149.551 74.904C149.551 74.416 149.615 73.972 149.743 73.572C149.879 73.172 150.067 72.832 150.307 72.552C150.555 72.264 150.847 72.044 151.183 71.892C151.527 71.74 151.911 71.664 152.335 71.664C152.751 71.664 153.123 71.74 153.451 71.892C153.779 72.044 154.059 72.256 154.291 72.528C154.523 72.792 154.699 73.108 154.819 73.476C154.947 73.844 155.011 74.248 155.011 74.688V75.144H150.559V75.432C150.559 75.696 150.599 75.944 150.679 76.176C150.767 76.4 150.887 76.596 151.039 76.764C151.199 76.932 151.391 77.064 151.615 77.16C151.847 77.256 152.107 77.304 152.395 77.304C152.787 77.304 153.127 77.212 153.415 77.028C153.711 76.844 153.939 76.58 154.099 76.236L154.783 76.728C154.583 77.152 154.271 77.496 153.847 77.76C153.423 78.016 152.919 78.144 152.335 78.144ZM152.335 72.468C152.071 72.468 151.831 72.516 151.615 72.612C151.399 72.7 151.211 72.828 151.051 72.996C150.899 73.164 150.779 73.364 150.691 73.596C150.603 73.82 150.559 74.068 150.559 74.34V74.424H153.979V74.292C153.979 73.74 153.827 73.3 153.523 72.972C153.227 72.636 152.831 72.468 152.335 72.468ZM118.02 94V87.808H118.98V88.816H119.028C119.1 88.656 119.18 88.508 119.268 88.372C119.364 88.228 119.476 88.104 119.604 88C119.74 87.896 119.896 87.816 120.072 87.76C120.248 87.696 120.456 87.664 120.696 87.664C121.104 87.664 121.48 87.764 121.824 87.964C122.168 88.156 122.424 88.476 122.592 88.924H122.616C122.728 88.588 122.936 88.296 123.24 88.048C123.552 87.792 123.972 87.664 124.5 87.664C125.132 87.664 125.624 87.872 125.976 88.288C126.336 88.696 126.516 89.276 126.516 90.028V94H125.556V90.196C125.556 89.644 125.448 89.228 125.232 88.948C125.016 88.668 124.672 88.528 124.2 88.528C124.008 88.528 123.824 88.552 123.648 88.6C123.48 88.648 123.328 88.72 123.192 88.816C123.056 88.912 122.948 89.036 122.868 89.188C122.788 89.332 122.748 89.504 122.748 89.704V94H121.788V90.196C121.788 89.644 121.68 89.228 121.464 88.948C121.248 88.668 120.912 88.528 120.456 88.528C120.264 88.528 120.08 88.552 119.904 88.6C119.728 88.648 119.572 88.72 119.436 88.816C119.3 88.912 119.188 89.036 119.1 89.188C119.02 89.332 118.98 89.504 118.98 89.704V94H118.02ZM133.317 94C132.957 94 132.697 93.904 132.537 93.712C132.385 93.52 132.289 93.28 132.249 92.992H132.189C132.053 93.376 131.829 93.664 131.517 93.856C131.205 94.048 130.833 94.144 130.401 94.144C129.745 94.144 129.233 93.976 128.865 93.64C128.505 93.304 128.325 92.848 128.325 92.272C128.325 91.688 128.537 91.24 128.961 90.928C129.393 90.616 130.061 90.46 130.965 90.46H132.189V89.848C132.189 89.408 132.069 89.072 131.829 88.84C131.589 88.608 131.221 88.492 130.725 88.492C130.349 88.492 130.033 88.576 129.777 88.744C129.529 88.912 129.321 89.136 129.153 89.416L128.577 88.876C128.745 88.54 129.013 88.256 129.381 88.024C129.749 87.784 130.213 87.664 130.773 87.664C131.525 87.664 132.109 87.848 132.525 88.216C132.941 88.584 133.149 89.096 133.149 89.752V93.16H133.857V94H133.317ZM130.557 93.328C130.797 93.328 131.017 93.3 131.217 93.244C131.417 93.188 131.589 93.108 131.733 93.004C131.877 92.9 131.989 92.78 132.069 92.644C132.149 92.508 132.189 92.36 132.189 92.2V91.18H130.917C130.365 91.18 129.961 91.26 129.705 91.42C129.457 91.58 129.333 91.812 129.333 92.116V92.368C129.333 92.672 129.441 92.908 129.657 93.076C129.881 93.244 130.181 93.328 130.557 93.328ZM140.767 94.684C140.767 95.324 140.515 95.792 140.011 96.088C139.515 96.392 138.767 96.544 137.767 96.544C136.799 96.544 136.103 96.412 135.679 96.148C135.255 95.884 135.043 95.508 135.043 95.02C135.043 94.684 135.131 94.42 135.307 94.228C135.483 94.044 135.723 93.908 136.027 93.82V93.688C135.659 93.512 135.475 93.224 135.475 92.824C135.475 92.512 135.575 92.276 135.775 92.116C135.975 91.948 136.231 91.824 136.543 91.744V91.696C136.175 91.52 135.887 91.268 135.679 90.94C135.479 90.612 135.379 90.232 135.379 89.8C135.379 89.488 135.435 89.2 135.547 88.936C135.659 88.672 135.815 88.448 136.015 88.264C136.223 88.072 136.467 87.924 136.747 87.82C137.035 87.716 137.355 87.664 137.707 87.664C138.147 87.664 138.539 87.744 138.883 87.904V87.796C138.883 87.556 138.939 87.36 139.051 87.208C139.163 87.048 139.347 86.968 139.603 86.968H140.527V87.808H139.351V88.204C139.575 88.396 139.747 88.628 139.867 88.9C139.995 89.164 140.059 89.464 140.059 89.8C140.059 90.112 140.003 90.4 139.891 90.664C139.779 90.928 139.619 91.156 139.411 91.348C139.211 91.532 138.967 91.676 138.679 91.78C138.391 91.884 138.071 91.936 137.719 91.936C137.519 91.936 137.319 91.916 137.119 91.876C136.911 91.932 136.723 92.016 136.555 92.128C136.387 92.232 136.303 92.38 136.303 92.572C136.303 92.756 136.391 92.88 136.567 92.944C136.743 93.008 136.971 93.04 137.251 93.04H138.571C139.339 93.04 139.895 93.188 140.239 93.484C140.591 93.772 140.767 94.172 140.767 94.684ZM139.867 94.756C139.867 94.508 139.771 94.308 139.579 94.156C139.395 94.012 139.063 93.94 138.583 93.94H136.519C136.135 94.116 135.943 94.396 135.943 94.78C135.943 95.052 136.043 95.284 136.243 95.476C136.451 95.668 136.799 95.764 137.287 95.764H138.175C138.711 95.764 139.127 95.68 139.423 95.512C139.719 95.344 139.867 95.092 139.867 94.756ZM137.719 91.168C138.127 91.168 138.451 91.072 138.691 90.88C138.931 90.68 139.051 90.376 139.051 89.968V89.632C139.051 89.224 138.931 88.924 138.691 88.732C138.451 88.532 138.127 88.432 137.719 88.432C137.311 88.432 136.987 88.532 136.747 88.732C136.507 88.924 136.387 89.224 136.387 89.632V89.968C136.387 90.376 136.507 90.68 136.747 90.88C136.987 91.072 137.311 91.168 137.719 91.168ZM142.207 94V87.808H143.167V88.816H143.215C143.367 88.464 143.579 88.184 143.851 87.976C144.131 87.768 144.503 87.664 144.967 87.664C145.607 87.664 146.111 87.872 146.479 88.288C146.855 88.696 147.043 89.276 147.043 90.028V94H146.083V90.196C146.083 89.084 145.615 88.528 144.679 88.528C144.487 88.528 144.299 88.552 144.115 88.6C143.939 88.648 143.779 88.72 143.635 88.816C143.491 88.912 143.375 89.036 143.287 89.188C143.207 89.332 143.167 89.504 143.167 89.704V94H142.207ZM149.827 86.356C149.619 86.356 149.467 86.308 149.371 86.212C149.283 86.108 149.239 85.976 149.239 85.816V85.66C149.239 85.5 149.283 85.372 149.371 85.276C149.467 85.172 149.619 85.12 149.827 85.12C150.035 85.12 150.183 85.172 150.271 85.276C150.367 85.372 150.415 85.5 150.415 85.66V85.816C150.415 85.976 150.367 86.108 150.271 86.212C150.183 86.308 150.035 86.356 149.827 86.356ZM149.347 87.808H150.307V94H149.347V87.808ZM154.035 94C153.699 94 153.443 93.908 153.267 93.724C153.099 93.532 153.015 93.284 153.015 92.98V88.648H151.995V87.808H152.571C152.779 87.808 152.919 87.768 152.991 87.688C153.071 87.6 153.111 87.452 153.111 87.244V86.092H153.975V87.808H155.331V88.648H153.975V93.16H155.235V94H154.035ZM161.01 92.992H160.962C160.898 93.136 160.818 93.28 160.722 93.424C160.634 93.56 160.522 93.684 160.386 93.796C160.25 93.9 160.086 93.984 159.894 94.048C159.702 94.112 159.478 94.144 159.222 94.144C158.582 94.144 158.074 93.94 157.698 93.532C157.322 93.116 157.134 92.532 157.134 91.78V87.808H158.094V91.612C158.094 92.724 158.566 93.28 159.51 93.28C159.702 93.28 159.886 93.256 160.062 93.208C160.246 93.16 160.406 93.088 160.542 92.992C160.686 92.896 160.798 92.776 160.878 92.632C160.966 92.48 161.01 92.3 161.01 92.092V87.808H161.97V94H161.01V92.992ZM168.294 92.992H168.246C167.87 93.76 167.266 94.144 166.434 94.144C166.05 94.144 165.702 94.068 165.39 93.916C165.078 93.764 164.81 93.548 164.586 93.268C164.37 92.988 164.202 92.648 164.082 92.248C163.97 91.848 163.914 91.4 163.914 90.904C163.914 90.408 163.97 89.96 164.082 89.56C164.202 89.16 164.37 88.82 164.586 88.54C164.81 88.26 165.078 88.044 165.39 87.892C165.702 87.74 166.05 87.664 166.434 87.664C166.866 87.664 167.234 87.76 167.538 87.952C167.85 88.136 168.086 88.424 168.246 88.816H168.294V85.12H169.254V94H168.294V92.992ZM166.698 93.28C166.914 93.28 167.118 93.252 167.31 93.196C167.51 93.14 167.682 93.06 167.826 92.956C167.97 92.844 168.082 92.712 168.162 92.56C168.25 92.4 168.294 92.22 168.294 92.02V89.716C168.294 89.548 168.25 89.392 168.162 89.248C168.082 89.096 167.97 88.968 167.826 88.864C167.682 88.76 167.51 88.68 167.31 88.624C167.118 88.56 166.914 88.528 166.698 88.528C166.154 88.528 165.726 88.7 165.414 89.044C165.102 89.38 164.946 89.824 164.946 90.376V91.432C164.946 91.984 165.102 92.432 165.414 92.776C165.726 93.112 166.154 93.28 166.698 93.28ZM173.943 94.144C173.519 94.144 173.135 94.068 172.791 93.916C172.455 93.764 172.163 93.548 171.915 93.268C171.675 92.98 171.487 92.64 171.351 92.248C171.223 91.848 171.159 91.4 171.159 90.904C171.159 90.416 171.223 89.972 171.351 89.572C171.487 89.172 171.675 88.832 171.915 88.552C172.163 88.264 172.455 88.044 172.791 87.892C173.135 87.74 173.519 87.664 173.943 87.664C174.359 87.664 174.731 87.74 175.059 87.892C175.387 88.044 175.667 88.256 175.899 88.528C176.131 88.792 176.307 89.108 176.427 89.476C176.555 89.844 176.619 90.248 176.619 90.688V91.144H172.167V91.432C172.167 91.696 172.207 91.944 172.287 92.176C172.375 92.4 172.495 92.596 172.647 92.764C172.807 92.932 172.999 93.064 173.223 93.16C173.455 93.256 173.715 93.304 174.003 93.304C174.395 93.304 174.735 93.212 175.023 93.028C175.319 92.844 175.547 92.58 175.707 92.236L176.391 92.728C176.191 93.152 175.879 93.496 175.455 93.76C175.031 94.016 174.527 94.144 173.943 94.144ZM173.943 88.468C173.679 88.468 173.439 88.516 173.223 88.612C173.007 88.7 172.819 88.828 172.659 88.996C172.507 89.164 172.387 89.364 172.299 89.596C172.211 89.82 172.167 90.068 172.167 90.34V90.424H175.587V90.292C175.587 89.74 175.435 89.3 175.131 88.972C174.835 88.636 174.439 88.468 173.943 88.468Z"/></svg>