<svg xmlns="http://www.w3.org/2000/svg" width="318" height="206" fill="none" viewBox="0 0 318 206"><rect width="138" height="204" x="179" y="1" fill="#fff"/><rect width="316" height="204" x="1" y="1" fill="#fff"/><rect width="178" height="206" fill="#F2F4F8" opacity=".4"/><rect width="317" height="205" x=".5" y=".5" stroke="#DDE1E6"/><path fill="#121619" d="M131.056 35V34.112H133.396V27.368H133.312L131.2 29.336L130.612 28.7L132.832 26.624H134.404V34.112H136.564V35H131.056Z"/><line x1="178.5" x2="178.5" y2="206" stroke="#DDE1E6"/><path fill="#121619" d="M38.18 79.656V68.88H39.02V79.656H38.18ZM46.1153 78.144C45.6033 78.144 45.1633 78.048 44.7953 77.856C44.4273 77.656 44.1233 77.372 43.8833 77.004C43.6433 76.636 43.4673 76.184 43.3553 75.648C43.2433 75.112 43.1873 74.5 43.1873 73.812C43.1873 73.132 43.2433 72.524 43.3553 71.988C43.4673 71.444 43.6433 70.988 43.8833 70.62C44.1233 70.252 44.4273 69.972 44.7953 69.78C45.1633 69.58 45.6033 69.48 46.1153 69.48C46.6273 69.48 47.0673 69.58 47.4353 69.78C47.8033 69.972 48.1073 70.252 48.3473 70.62C48.5873 70.988 48.7633 71.444 48.8753 71.988C48.9873 72.524 49.0433 73.132 49.0433 73.812C49.0433 74.5 48.9873 75.112 48.8753 75.648C48.7633 76.184 48.5873 76.636 48.3473 77.004C48.1073 77.372 47.8033 77.656 47.4353 77.856C47.0673 78.048 46.6273 78.144 46.1153 78.144ZM46.1153 77.268C46.4513 77.268 46.7393 77.204 46.9793 77.076C47.2193 76.94 47.4113 76.752 47.5553 76.512C47.7073 76.272 47.8193 75.984 47.8913 75.648C47.9633 75.304 47.9993 74.92 47.9993 74.496V73.128C47.9993 72.712 47.9633 72.332 47.8913 71.988C47.8193 71.644 47.7073 71.352 47.5553 71.112C47.4113 70.872 47.2193 70.688 46.9793 70.56C46.7393 70.424 46.4513 70.356 46.1153 70.356C45.7793 70.356 45.4913 70.424 45.2513 70.56C45.0113 70.688 44.8153 70.872 44.6633 71.112C44.5193 71.352 44.4113 71.644 44.3393 71.988C44.2673 72.332 44.2313 72.712 44.2313 73.128V74.496C44.2313 74.92 44.2673 75.304 44.3393 75.648C44.4113 75.984 44.5193 76.272 44.6633 76.512C44.8153 76.752 45.0113 76.94 45.2513 77.076C45.4913 77.204 45.7793 77.268 46.1153 77.268ZM46.1153 74.52C45.8353 74.52 45.6393 74.464 45.5273 74.352C45.4233 74.24 45.3713 74.104 45.3713 73.944V73.68C45.3713 73.52 45.4233 73.384 45.5273 73.272C45.6393 73.16 45.8353 73.104 46.1153 73.104C46.3953 73.104 46.5873 73.16 46.6913 73.272C46.8033 73.384 46.8593 73.52 46.8593 73.68V73.944C46.8593 74.104 46.8033 74.24 46.6913 74.352C46.5873 74.464 46.3953 74.52 46.1153 74.52ZM51.0506 76.812L55.3106 74.4V74.304L51.0506 71.892V70.872L56.2106 73.86V74.82L51.0506 77.808V76.812Z"/><circle cx="46" cy="42" r="19.5" fill="#BE95FF" stroke="#491D8B"/><path fill="#491D8B" d="M62 44L66 42.5L62 41V44Z"/><line x1="62" x2="45" y1="42.5" y2="42.5" stroke="#491D8B"/><path fill="#121619" d="M216.18 79.656V68.88H217.02V79.656H216.18ZM221.535 78V77.124H223.935V70.368H223.851L221.739 72.336L221.151 71.7L223.371 69.624H224.943V77.124H227.151V78H221.535ZM229.051 76.812L233.311 74.4V74.304L229.051 71.892V70.872L234.211 73.86V74.82L229.051 77.808V76.812Z"/><circle cx="224" cy="42" r="19.5" fill="#BE95FF" stroke="#491D8B"/><path fill="#491D8B" d="M240 44L244 42.5L240 41V44Z"/><line x1="240" x2="223" y1="42.5" y2="42.5" stroke="#491D8B"/><path fill="#343A3F" d="M188 44L192 42.5L188 41V44Z"/><line x1="188" x2="84" y1="42.5" y2="42.5" stroke="#343A3F"/><path fill="#121619" d="M131.056 129V128.112H133.396V121.368H133.312L131.2 123.336L130.612 122.7L132.832 120.624H134.404V128.112H136.564V129H131.056Z"/><path fill="#121619" d="M38.18 173.656V162.88H39.02V173.656H38.18ZM43.5353 172V171.124H45.9353V164.368H45.8513L43.7393 166.336L43.1513 165.7L45.3713 163.624H46.9433V171.124H49.1513V172H43.5353ZM51.0506 170.812L55.3106 168.4V168.304L51.0506 165.892V164.872L56.2106 167.86V168.82L51.0506 171.808V170.812Z"/><circle cx="46" cy="136" r="19.5" fill="#BE95FF" stroke="#491D8B"/><path fill="#491D8B" d="M62 138L66 136.5L62 135V138Z"/><line x1="62" x2="45" y1="136.5" y2="136.5" stroke="#491D8B"/><path fill="#121619" d="M216.18 173.656V162.88H217.02V173.656H216.18ZM224.115 172.144C223.603 172.144 223.163 172.048 222.795 171.856C222.427 171.656 222.123 171.372 221.883 171.004C221.643 170.636 221.467 170.184 221.355 169.648C221.243 169.112 221.187 168.5 221.187 167.812C221.187 167.132 221.243 166.524 221.355 165.988C221.467 165.444 221.643 164.988 221.883 164.62C222.123 164.252 222.427 163.972 222.795 163.78C223.163 163.58 223.603 163.48 224.115 163.48C224.627 163.48 225.067 163.58 225.435 163.78C225.803 163.972 226.107 164.252 226.347 164.62C226.587 164.988 226.763 165.444 226.875 165.988C226.987 166.524 227.043 167.132 227.043 167.812C227.043 168.5 226.987 169.112 226.875 169.648C226.763 170.184 226.587 170.636 226.347 171.004C226.107 171.372 225.803 171.656 225.435 171.856C225.067 172.048 224.627 172.144 224.115 172.144ZM224.115 171.268C224.451 171.268 224.739 171.204 224.979 171.076C225.219 170.94 225.411 170.752 225.555 170.512C225.707 170.272 225.819 169.984 225.891 169.648C225.963 169.304 225.999 168.92 225.999 168.496V167.128C225.999 166.712 225.963 166.332 225.891 165.988C225.819 165.644 225.707 165.352 225.555 165.112C225.411 164.872 225.219 164.688 224.979 164.56C224.739 164.424 224.451 164.356 224.115 164.356C223.779 164.356 223.491 164.424 223.251 164.56C223.011 164.688 222.815 164.872 222.663 165.112C222.519 165.352 222.411 165.644 222.339 165.988C222.267 166.332 222.231 166.712 222.231 167.128V168.496C222.231 168.92 222.267 169.304 222.339 169.648C222.411 169.984 222.519 170.272 222.663 170.512C222.815 170.752 223.011 170.94 223.251 171.076C223.491 171.204 223.779 171.268 224.115 171.268ZM224.115 168.52C223.835 168.52 223.639 168.464 223.527 168.352C223.423 168.24 223.371 168.104 223.371 167.944V167.68C223.371 167.52 223.423 167.384 223.527 167.272C223.639 167.16 223.835 167.104 224.115 167.104C224.395 167.104 224.587 167.16 224.691 167.272C224.803 167.384 224.859 167.52 224.859 167.68V167.944C224.859 168.104 224.803 168.24 224.691 168.352C224.587 168.464 224.395 168.52 224.115 168.52ZM229.051 170.812L233.311 168.4V168.304L229.051 165.892V164.872L234.211 167.86V168.82L229.051 171.808V170.812Z"/><circle cx="224" cy="136" r="19.5" fill="#BE95FF" stroke="#491D8B"/><path fill="#491D8B" d="M240 138L244 136.5L240 135V138Z"/><line x1="240" x2="223" y1="136.5" y2="136.5" stroke="#491D8B"/><path fill="#343A3F" d="M188 138L192 136.5L188 135V138Z"/><line x1="188" x2="84" y1="136.5" y2="136.5" stroke="#343A3F"/></svg>