<svg xmlns="http://www.w3.org/2000/svg" width="318" height="206" fill="none" viewBox="0 0 318 206"><rect width="317" height="204" y="1" fill="#fff"/><rect width="178" height="206" fill="#F2F4F8" opacity=".4"/><rect width="317" height="205" x=".5" y=".5" stroke="#DDE1E6"/><path fill="#121619" d="M131.056 35V34.112H133.396V27.368H133.312L131.2 29.336L130.612 28.7L132.832 26.624H134.404V34.112H136.564V35H131.056Z"/><line x1="178.5" x2="178.5" y2="206" stroke="#DDE1E6"/><path fill="#121619" d="M38.18 79.656V68.88H39.02V79.656H38.18ZM46.1153 78.144C45.6033 78.144 45.1633 78.048 44.7953 77.856C44.4273 77.656 44.1233 77.372 43.8833 77.004C43.6433 76.636 43.4673 76.184 43.3553 75.648C43.2433 75.112 43.1873 74.5 43.1873 73.812C43.1873 73.132 43.2433 72.524 43.3553 71.988C43.4673 71.444 43.6433 70.988 43.8833 70.62C44.1233 70.252 44.4273 69.972 44.7953 69.78C45.1633 69.58 45.6033 69.48 46.1153 69.48C46.6273 69.48 47.0673 69.58 47.4353 69.78C47.8033 69.972 48.1073 70.252 48.3473 70.62C48.5873 70.988 48.7633 71.444 48.8753 71.988C48.9873 72.524 49.0433 73.132 49.0433 73.812C49.0433 74.5 48.9873 75.112 48.8753 75.648C48.7633 76.184 48.5873 76.636 48.3473 77.004C48.1073 77.372 47.8033 77.656 47.4353 77.856C47.0673 78.048 46.6273 78.144 46.1153 78.144ZM46.1153 77.268C46.4513 77.268 46.7393 77.204 46.9793 77.076C47.2193 76.94 47.4113 76.752 47.5553 76.512C47.7073 76.272 47.8193 75.984 47.8913 75.648C47.9633 75.304 47.9993 74.92 47.9993 74.496V73.128C47.9993 72.712 47.9633 72.332 47.8913 71.988C47.8193 71.644 47.7073 71.352 47.5553 71.112C47.4113 70.872 47.2193 70.688 46.9793 70.56C46.7393 70.424 46.4513 70.356 46.1153 70.356C45.7793 70.356 45.4913 70.424 45.2513 70.56C45.0113 70.688 44.8153 70.872 44.6633 71.112C44.5193 71.352 44.4113 71.644 44.3393 71.988C44.2673 72.332 44.2313 72.712 44.2313 73.128V74.496C44.2313 74.92 44.2673 75.304 44.3393 75.648C44.4113 75.984 44.5193 76.272 44.6633 76.512C44.8153 76.752 45.0113 76.94 45.2513 77.076C45.4913 77.204 45.7793 77.268 46.1153 77.268ZM46.1153 74.52C45.8353 74.52 45.6393 74.464 45.5273 74.352C45.4233 74.24 45.3713 74.104 45.3713 73.944V73.68C45.3713 73.52 45.4233 73.384 45.5273 73.272C45.6393 73.16 45.8353 73.104 46.1153 73.104C46.3953 73.104 46.5873 73.16 46.6913 73.272C46.8033 73.384 46.8593 73.52 46.8593 73.68V73.944C46.8593 74.104 46.8033 74.24 46.6913 74.352C46.5873 74.464 46.3953 74.52 46.1153 74.52ZM51.0506 76.812L55.3106 74.4V74.304L51.0506 71.892V70.872L56.2106 73.86V74.82L51.0506 77.808V76.812Z"/><circle cx="46" cy="42" r="19.5" fill="#BE95FF" stroke="#491D8B"/><path fill="#491D8B" d="M62 44L66 42.5L62 41V44Z"/><line x1="62" x2="45" y1="42.5" y2="42.5" stroke="#491D8B"/><path fill="#121619" d="M216.18 79.656V68.88H217.02V79.656H216.18ZM224.115 78.144C223.603 78.144 223.163 78.048 222.795 77.856C222.427 77.656 222.123 77.372 221.883 77.004C221.643 76.636 221.467 76.184 221.355 75.648C221.243 75.112 221.187 74.5 221.187 73.812C221.187 73.132 221.243 72.524 221.355 71.988C221.467 71.444 221.643 70.988 221.883 70.62C222.123 70.252 222.427 69.972 222.795 69.78C223.163 69.58 223.603 69.48 224.115 69.48C224.627 69.48 225.067 69.58 225.435 69.78C225.803 69.972 226.107 70.252 226.347 70.62C226.587 70.988 226.763 71.444 226.875 71.988C226.987 72.524 227.043 73.132 227.043 73.812C227.043 74.5 226.987 75.112 226.875 75.648C226.763 76.184 226.587 76.636 226.347 77.004C226.107 77.372 225.803 77.656 225.435 77.856C225.067 78.048 224.627 78.144 224.115 78.144ZM224.115 77.268C224.451 77.268 224.739 77.204 224.979 77.076C225.219 76.94 225.411 76.752 225.555 76.512C225.707 76.272 225.819 75.984 225.891 75.648C225.963 75.304 225.999 74.92 225.999 74.496V73.128C225.999 72.712 225.963 72.332 225.891 71.988C225.819 71.644 225.707 71.352 225.555 71.112C225.411 70.872 225.219 70.688 224.979 70.56C224.739 70.424 224.451 70.356 224.115 70.356C223.779 70.356 223.491 70.424 223.251 70.56C223.011 70.688 222.815 70.872 222.663 71.112C222.519 71.352 222.411 71.644 222.339 71.988C222.267 72.332 222.231 72.712 222.231 73.128V74.496C222.231 74.92 222.267 75.304 222.339 75.648C222.411 75.984 222.519 76.272 222.663 76.512C222.815 76.752 223.011 76.94 223.251 77.076C223.491 77.204 223.779 77.268 224.115 77.268ZM224.115 74.52C223.835 74.52 223.639 74.464 223.527 74.352C223.423 74.24 223.371 74.104 223.371 73.944V73.68C223.371 73.52 223.423 73.384 223.527 73.272C223.639 73.16 223.835 73.104 224.115 73.104C224.395 73.104 224.587 73.16 224.691 73.272C224.803 73.384 224.859 73.52 224.859 73.68V73.944C224.859 74.104 224.803 74.24 224.691 74.352C224.587 74.464 224.395 74.52 224.115 74.52ZM229.051 76.812L233.311 74.4V74.304L229.051 71.892V70.872L234.211 73.86V74.82L229.051 77.808V76.812Z"/><circle cx="224" cy="42" r="19.5" fill="#BE95FF" stroke="#491D8B"/><path fill="#491D8B" d="M240 44L244 42.5L240 41V44Z"/><line x1="240" x2="223" y1="42.5" y2="42.5" stroke="#491D8B"/><path fill="#343A3F" d="M188 44L192 42.5L188 41V44Z"/><line x1="188" x2="84" y1="42.5" y2="42.5" stroke="#343A3F"/><path fill="#121619" d="M130.828 125.868V124.836H133.96V125.868H130.828ZM136.169 129V128.112H138.509V121.368H138.425L136.313 123.336L135.725 122.7L137.945 120.624H139.517V128.112H141.677V129H136.169Z"/><path fill="#121619" d="M38.18 173.656V162.88H39.02V173.656H38.18ZM43.5353 172V171.124H45.9353V164.368H45.8513L43.7393 166.336L43.1513 165.7L45.3713 163.624H46.9433V171.124H49.1513V172H43.5353ZM51.0506 170.812L55.3106 168.4V168.304L51.0506 165.892V164.872L56.2106 167.86V168.82L51.0506 171.808V170.812Z"/><circle cx="46" cy="136" r="19.5" fill="#BE95FF" stroke="#491D8B"/><path fill="#491D8B" d="M62 138L66 136.5L62 135V138Z"/><line x1="62" x2="45" y1="136.5" y2="136.5" stroke="#491D8B"/><path fill="#121619" d="M216.18 173.656V162.88H217.02V173.656H216.18ZM221.535 172V171.124H223.935V164.368H223.851L221.739 166.336L221.151 165.7L223.371 163.624H224.943V171.124H227.151V172H221.535ZM229.051 170.812L233.311 168.4V168.304L229.051 165.892V164.872L234.211 167.86V168.82L229.051 171.808V170.812Z"/><circle cx="224" cy="136" r="19.5" fill="#BE95FF" stroke="#491D8B"/><path fill="#491D8B" d="M208 138L204 136.5L208 135V138Z"/><line x2="15" y1="-.5" y2="-.5" stroke="#491D8B" transform="matrix(1 -4.37115e-08 -4.37115e-08 -1 208 136)"/><path fill="#343A3F" d="M188 138L192 136.5L188 135V138Z"/><line x1="188" x2="84" y1="136.5" y2="136.5" stroke="#343A3F"/></svg>