<svg xmlns="http://www.w3.org/2000/svg" xmlns:svg="http://www.w3.org/2000/svg" id="svg956" width="300" height="300" version="1.1" viewBox="0 0 225 225"><metadata id="metadata960"/><defs id="defs835"><marker style="overflow:visible" id="Arrow2Mend" orient="auto" refX="0" refY="0"><path style="fill:#000;fill-opacity:1;fill-rule:evenodd;stroke:#000;stroke-width:.625;stroke-linejoin:round;stroke-opacity:1" id="path1236" d="M 8.7185878,4.0337352 -2.2072895,0.01601326 8.7185884,-4.0017078 c -1.7454984,2.3720609 -1.7354408,5.6174519 -6e-7,8.035443 z" transform="scale(-0.6)"/></marker><marker style="overflow:visible" id="Arrow2Send" orient="auto" refX="0" refY="0"><path style="fill:#000;fill-opacity:1;fill-rule:evenodd;stroke:#000;stroke-width:.625;stroke-linejoin:round;stroke-opacity:1" id="path1242" d="M 8.7185878,4.0337352 -2.2072895,0.01601326 8.7185884,-4.0017078 c -1.7454984,2.3720609 -1.7354408,5.6174519 -6e-7,8.035443 z" transform="matrix(-0.3,0,0,-0.3,0.69,0)"/></marker><marker style="overflow:visible" id="Arrow2Lend" orient="auto" refX="0" refY="0"><path style="fill:#000;fill-opacity:1;fill-rule:evenodd;stroke:#000;stroke-width:.625;stroke-linejoin:round;stroke-opacity:1" id="path1230" d="M 8.7185878,4.0337352 -2.2072895,0.01601326 8.7185884,-4.0017078 c -1.7454984,2.3720609 -1.7354408,5.6174519 -6e-7,8.035443 z" transform="matrix(-1.1,0,0,-1.1,-1.1,0)"/></marker><marker style="overflow:visible" id="Arrow2Lstart" orient="auto" refX="0" refY="0"><path style="fill:#000;fill-opacity:1;fill-rule:evenodd;stroke:#000;stroke-width:.625;stroke-linejoin:round;stroke-opacity:1" id="path1227" d="M 8.7185878,4.0337352 -2.2072895,0.01601326 8.7185884,-4.0017078 c -1.7454984,2.3720609 -1.7354408,5.6174519 -6e-7,8.035443 z" transform="matrix(1.1,0,0,1.1,1.1,0)"/></marker><style id="style833" type="text/css">*{stroke-linecap:butt;stroke-linejoin:round}</style></defs><g id="line2d_1" transform="translate(-28.380001,-41.781668)"><path id="path840" d="M 92.362485,68.1464 H 233.26058" clip-path="url(#pe654f87d29)" style="fill:none;stroke:#000;stroke-width:2;stroke-linecap:square"/></g><g id="line2d_2" transform="translate(-28.380001,-41.781668)"><path id="path843" d="M 92.362485,113.5974 H 233.26058" clip-path="url(#pe654f87d29)" style="fill:none;stroke:#000;stroke-width:2;stroke-linecap:square"/></g><g id="line2d_3" transform="translate(-28.380001,-41.781668)"><path id="path846" d="M 92.362485,159.0484 H 233.26058" clip-path="url(#pe654f87d29)" style="fill:none;stroke:#000;stroke-width:2;stroke-linecap:square"/></g><g id="line2d_4" transform="translate(-28.380001,-41.781668)"><path id="path849" d="M 92.362485,204.4994 H 233.26058" clip-path="url(#pe654f87d29)" style="fill:none;stroke:#000;stroke-width:2;stroke-linecap:square"/></g><g id="line2d_5" transform="translate(-28.380001,-41.781668)"><path id="path852" d="M 116.90603,159.0484 V 68.1464" clip-path="url(#pe654f87d29)" style="fill:none;stroke:#6fa4ff;stroke-width:2;stroke-linecap:square"/></g><g id="line2d_6" transform="translate(-28.380001,-41.781668)"><path id="path855" d="m 162.35702,159.0484 v -45.451" clip-path="url(#pe654f87d29)" style="fill:none;stroke:#6fa4ff;stroke-width:2;stroke-linecap:square"/></g><g id="line2d_7" transform="translate(-28.380001,-41.781668)"><path id="path858" d="M 207.80802,204.4994 V 68.1464" clip-path="url(#pe654f87d29)" style="fill:none;stroke:#bb8bff;stroke-width:2;stroke-linecap:square"/></g><g id="patch_2" transform="translate(-28.380001,-41.781668)"><path id="path861" d="m 116.90603,72.577872 c 1.17524,0 2.3025,-0.466927 3.13352,-1.297948 0.83102,-0.83102 1.29795,-1.958284 1.29795,-3.133524 0,-1.17524 -0.46693,-2.302504 -1.29795,-3.133524 -0.83102,-0.831021 -1.95828,-1.297948 -3.13352,-1.297948 -1.17525,0 -2.30251,0.466927 -3.13353,1.297948 -0.83102,0.83102 -1.29795,1.958284 -1.29795,3.133524 0,1.17524 0.46693,2.302504 1.29795,3.133524 0.83102,0.831021 1.95828,1.297948 3.13353,1.297948 z" clip-path="url(#pe654f87d29)" style="fill:#6fa4ff;stroke:#6fa4ff;stroke-width:1.5;stroke-linejoin:miter"/></g><g id="patch_3" transform="translate(-28.380001,-41.781668)"><path id="path864" d="m 116.90603,169.3885 c 2.74222,0 5.3725,-1.0895 7.31155,-3.02854 1.93905,-1.93905 3.02855,-4.56933 3.02855,-7.31156 0,-2.74223 -1.0895,-5.37251 -3.02855,-7.31156 -1.93905,-1.93904 -4.56933,-3.02854 -7.31155,-3.02854 -2.74223,0 -5.37251,1.0895 -7.31156,3.02854 -1.93905,1.93905 -3.02855,4.56933 -3.02855,7.31156 0,2.74223 1.0895,5.37251 3.02855,7.31156 1.93905,1.93904 4.56933,3.02854 7.31156,3.02854 z" clip-path="url(#pe654f87d29)" style="fill:#6fa4ff;stroke:#6fa4ff;stroke-width:2;stroke-linejoin:miter"/></g><g id="patch_4" transform="translate(-28.380001,-41.781668)"><path id="path867" d="m 162.35702,118.02887 c 1.17524,0 2.30251,-0.46693 3.13353,-1.29795 0.83102,-0.83102 1.29795,-1.95828 1.29795,-3.13352 0,-1.17524 -0.46693,-2.3025 -1.29795,-3.13352 -0.83102,-0.83102 -1.95829,-1.29795 -3.13353,-1.29795 -1.17524,0 -2.3025,0.46693 -3.13352,1.29795 -0.83102,0.83102 -1.29795,1.95828 -1.29795,3.13352 0,1.17524 0.46693,2.3025 1.29795,3.13352 0.83102,0.83102 1.95828,1.29795 3.13352,1.29795 z" clip-path="url(#pe654f87d29)" style="fill:#6fa4ff;stroke:#6fa4ff;stroke-width:1.5;stroke-linejoin:miter"/></g><g id="patch_5" transform="translate(-28.380001,-41.781668)"><path id="path870" d="m 162.35702,169.3885 c 2.74223,0 5.37251,-1.0895 7.31156,-3.02854 1.93905,-1.93905 3.02855,-4.56933 3.02855,-7.31156 0,-2.74223 -1.0895,-5.37251 -3.02855,-7.31156 -1.93905,-1.93904 -4.56933,-3.02854 -7.31156,-3.02854 -2.74222,0 -5.3725,1.0895 -7.31155,3.02854 -1.93905,1.93905 -3.02855,4.56933 -3.02855,7.31156 0,2.74223 1.0895,5.37251 3.02855,7.31156 1.93905,1.93904 4.56933,3.02854 7.31155,3.02854 z" clip-path="url(#pe654f87d29)" style="fill:#6fa4ff;stroke:#6fa4ff;stroke-width:2;stroke-linejoin:miter"/></g><g id="patch_6" transform="translate(-28.380001,-41.781668)"><path id="path873" d="m 207.80802,72.577872 c 1.17524,0 2.30251,-0.466927 3.13353,-1.297948 0.83102,-0.83102 1.29795,-1.958284 1.29795,-3.133524 0,-1.17524 -0.46693,-2.302504 -1.29795,-3.133524 -0.83102,-0.831021 -1.95829,-1.297948 -3.13353,-1.297948 -1.17524,0 -2.3025,0.466927 -3.13352,1.297948 -0.83102,0.83102 -1.29795,1.958284 -1.29795,3.133524 0,1.17524 0.46693,2.302504 1.29795,3.133524 0.83102,0.831021 1.95828,1.297948 3.13352,1.297948 z" clip-path="url(#pe654f87d29)" style="fill:#bb8bff;stroke:#bb8bff;stroke-width:1.5;stroke-linejoin:miter"/></g><g id="patch_7" transform="translate(-28.380001,-41.781668)"><path id="path876" d="m 207.80802,118.02887 c 1.17524,0 2.30251,-0.46693 3.13353,-1.29795 0.83102,-0.83102 1.29795,-1.95828 1.29795,-3.13352 0,-1.17524 -0.46693,-2.3025 -1.29795,-3.13352 -0.83102,-0.83102 -1.95829,-1.29795 -3.13353,-1.29795 -1.17524,0 -2.3025,0.46693 -3.13352,1.29795 -0.83102,0.83102 -1.29795,1.95828 -1.29795,3.13352 0,1.17524 0.46693,2.3025 1.29795,3.13352 0.83102,0.83102 1.95828,1.29795 3.13352,1.29795 z" clip-path="url(#pe654f87d29)" style="fill:#bb8bff;stroke:#bb8bff;stroke-width:1.5;stroke-linejoin:miter"/></g><g id="patch_8" transform="translate(-28.380001,-41.781668)"><path id="path879" d="m 207.80802,214.8395 c 2.74223,0 5.37251,-1.0895 7.31156,-3.02854 1.93905,-1.93905 3.02855,-4.56933 3.02855,-7.31156 0,-2.74223 -1.0895,-5.37251 -3.02855,-7.31156 -1.93905,-1.93904 -4.56933,-3.02854 -7.31156,-3.02854 -2.74222,0 -5.3725,1.0895 -7.31155,3.02854 -1.93905,1.93905 -3.02855,4.56933 -3.02855,7.31156 0,2.74223 1.0895,5.37251 3.02855,7.31156 1.93905,1.93904 4.56933,3.02854 7.31155,3.02854 z" clip-path="url(#pe654f87d29)" style="fill:#bb8bff;stroke:#bb8bff;stroke-width:2;stroke-linejoin:miter"/></g><g id="line2d_8" transform="translate(-28.380001,-41.781668)"><path id="path882" d="M 116.90603,164.95703 V 153.13977" clip-path="url(#pe654f87d29)" style="fill:none;stroke:#fff;stroke-width:2;stroke-linecap:square"/></g><g id="line2d_9" transform="translate(-28.380001,-41.781668)"><path id="path885" d="m 110.99739,159.0484 h 11.81727" clip-path="url(#pe654f87d29)" style="fill:none;stroke:#fff;stroke-width:2;stroke-linecap:square"/></g><g id="line2d_10" transform="translate(-28.380001,-41.781668)"><path id="path888" d="M 162.35702,164.95703 V 153.13977" clip-path="url(#pe654f87d29)" style="fill:none;stroke:#fff;stroke-width:2;stroke-linecap:square"/></g><g id="line2d_11" transform="translate(-28.380001,-41.781668)"><path id="path891" d="m 156.44839,159.0484 h 11.81726" clip-path="url(#pe654f87d29)" style="fill:none;stroke:#fff;stroke-width:2;stroke-linecap:square"/></g><g id="line2d_12" transform="translate(-28.380001,-41.781668)"><path id="path894" d="M 207.80802,210.40803 V 198.59077" clip-path="url(#pe654f87d29)" style="fill:none;stroke:#fff;stroke-width:2;stroke-linecap:square"/></g><g id="line2d_13" transform="translate(-28.380001,-41.781668)"><path id="path897" d="m 201.89939,204.4994 h 11.81726" clip-path="url(#pe654f87d29)" style="fill:none;stroke:#fff;stroke-width:2;stroke-linecap:square"/></g><defs id="defs954"><clipPath id="pe654f87d29"><rect id="rect951" width="201.734" height="199.984" x="36.072" y="31.786"/></clipPath></defs><text id="text1131" x="39.023" y="31.139" xml:space="preserve" style="font-style:normal;font-variant:normal;font-weight:400;font-stretch:normal;font-size:18px;line-height:1.25;font-family:'IBM Plex Sans';-inkscape-font-specification:'IBM Plex Sans Normal';font-variant-ligatures:normal;font-variant-caps:normal;font-variant-numeric:normal;font-variant-east-asian:normal;stroke-width:.75;stroke-linecap:butt;stroke-linejoin:round"><tspan style="font-style:normal;font-variant:normal;font-weight:400;font-stretch:normal;font-size:18px;font-family:'IBM Plex Sans';-inkscape-font-specification:'IBM Plex Sans Normal';font-variant-ligatures:normal;font-variant-caps:normal;font-variant-numeric:normal;font-variant-east-asian:normal;stroke-width:.75" id="tspan1129" x="39.023" y="31.139">A</tspan></text><text style="font-style:normal;font-variant:normal;font-weight:400;font-stretch:normal;font-size:18px;line-height:1.25;font-family:'IBM Plex Sans';-inkscape-font-specification:'IBM Plex Sans Normal';font-variant-ligatures:normal;font-variant-caps:normal;font-variant-numeric:normal;font-variant-east-asian:normal;stroke-width:.75;stroke-linecap:butt;stroke-linejoin:round" id="text1131-7" x="40.348" y="76.444" xml:space="preserve"><tspan id="tspan1129-4" x="40.348" y="76.444" style="font-style:normal;font-variant:normal;font-weight:400;font-stretch:normal;font-size:18px;font-family:'IBM Plex Sans';-inkscape-font-specification:'IBM Plex Sans Normal';font-variant-ligatures:normal;font-variant-caps:normal;font-variant-numeric:normal;font-variant-east-asian:normal;stroke-width:.75">B</tspan></text><text id="text1131-7-6" x="41.137" y="124.138" xml:space="preserve" style="font-style:normal;font-variant:normal;font-weight:400;font-stretch:normal;font-size:18px;line-height:1.25;font-family:'IBM Plex Sans';-inkscape-font-specification:'IBM Plex Sans Normal';font-variant-ligatures:normal;font-variant-caps:normal;font-variant-numeric:normal;font-variant-east-asian:normal;stroke-width:.75;stroke-linecap:butt;stroke-linejoin:round"><tspan style="font-style:normal;font-variant:normal;font-weight:400;font-stretch:normal;font-size:18px;font-family:'IBM Plex Sans';-inkscape-font-specification:'IBM Plex Sans Normal';font-variant-ligatures:normal;font-variant-caps:normal;font-variant-numeric:normal;font-variant-east-asian:normal;stroke-width:.75" id="tspan1129-4-2" x="41.137" y="124.138">0</tspan></text><text style="font-style:normal;font-variant:normal;font-weight:400;font-stretch:normal;font-size:18px;line-height:1.25;font-family:'IBM Plex Sans';-inkscape-font-specification:'IBM Plex Sans Normal';font-variant-ligatures:normal;font-variant-caps:normal;font-variant-numeric:normal;font-variant-east-asian:normal;stroke-width:.75;stroke-linecap:butt;stroke-linejoin:round" id="text1131-7-6-6" x="41.531" y="169.073" xml:space="preserve"><tspan id="tspan1129-4-2-8" x="41.531" y="169.073" style="font-style:normal;font-variant:normal;font-weight:400;font-stretch:normal;font-size:18px;font-family:'IBM Plex Sans';-inkscape-font-specification:'IBM Plex Sans Normal';font-variant-ligatures:normal;font-variant-caps:normal;font-variant-numeric:normal;font-variant-east-asian:normal;stroke-width:.75">0</tspan></text><text id="text1131-7-6-6-7" x="84.101" y="204.154" xml:space="preserve" style="font-style:normal;font-variant:normal;font-weight:400;font-stretch:normal;font-size:18px;line-height:1.25;font-family:'IBM Plex Sans';-inkscape-font-specification:'IBM Plex Sans Normal';font-variant-ligatures:normal;font-variant-caps:normal;font-variant-numeric:normal;font-variant-east-asian:normal;stroke-width:.75;stroke-linecap:butt;stroke-linejoin:round"><tspan style="font-style:normal;font-variant:normal;font-weight:400;font-stretch:normal;font-size:14px;font-family:'IBM Plex Sans';-inkscape-font-specification:'IBM Plex Sans Normal';font-variant-ligatures:normal;font-variant-caps:normal;font-variant-numeric:normal;font-variant-east-asian:normal;stroke-width:.75" id="tspan1129-4-2-8-0" x="84.101" y="204.154">Toffoli gate</tspan></text><path id="path1207" d="m 155.69583,192.7475 11.03667,-14.19" style="fill:none;stroke:#000;stroke-width:1.41732;stroke-linecap:butt;stroke-linejoin:miter;stroke-miterlimit:4;stroke-dasharray:none;stroke-opacity:1;marker-end:url(#Arrow2Mend)"/></svg>