<svg xmlns="http://www.w3.org/2000/svg" xmlns:svg="http://www.w3.org/2000/svg" id="svg923" width="250pt" height="160pt" version="1.1" viewBox="0 0 250 160"><metadata id="metadata927"/><defs id="defs835"><style id="style833" type="text/css">*{stroke-linecap:butt;stroke-linejoin:round}</style></defs><g id="figure_1"><g id="line2d_1" transform="translate(-34.722499,-28.630832)"><path style="fill:none;stroke:#000;stroke-width:2;stroke-linecap:square" id="path840" d="M 84.235485,60.9224 H 179.68258" clip-path="url(#p8d9942d0b0)"/></g><g id="line2d_2" transform="translate(-34.722499,-28.630832)"><path style="fill:none;stroke:#000;stroke-width:2;stroke-linecap:square" id="path843" d="M 84.235485,106.3734 H 179.68258" clip-path="url(#p8d9942d0b0)"/></g><g id="line2d_3" transform="translate(-34.722499,-28.630832)"><path style="fill:none;stroke:#000;stroke-width:2;stroke-linecap:square" id="path846" d="M 84.235485,151.8244 H 179.68258" clip-path="url(#p8d9942d0b0)"/></g><g id="line2d_4" transform="translate(-34.722499,-28.630832)"><path style="fill:none;stroke:#6fa4ff;stroke-width:2;stroke-linecap:square" id="path849" d="M 108.77903,151.8244 V 60.9224" clip-path="url(#p8d9942d0b0)"/></g><g id="line2d_5" transform="translate(-34.722499,-28.630832)"><path style="fill:none;stroke:#6fa4ff;stroke-width:2;stroke-linecap:square" id="path852" d="m 154.23002,151.8244 v -45.451" clip-path="url(#p8d9942d0b0)"/></g><g id="patch_2" transform="translate(-34.722499,-28.630832)"><path style="fill:#6fa4ff;stroke:#6fa4ff;stroke-width:1.5;stroke-linejoin:miter" id="path855" d="m 108.77903,65.353872 c 1.17524,0 2.3025,-0.466927 3.13352,-1.297948 0.83102,-0.83102 1.29795,-1.958284 1.29795,-3.133524 0,-1.17524 -0.46693,-2.302504 -1.29795,-3.133524 -0.83102,-0.831021 -1.95828,-1.297949 -3.13352,-1.297949 -1.17524,0 -2.30251,0.466928 -3.13353,1.297949 -0.83102,0.83102 -1.29795,1.958284 -1.29795,3.133524 0,1.17524 0.46693,2.302504 1.29795,3.133524 0.83102,0.831021 1.95829,1.297948 3.13353,1.297948 z" clip-path="url(#p8d9942d0b0)"/></g><g id="patch_3" transform="translate(-34.722499,-28.630832)"><path style="fill:#6fa4ff;stroke:#6fa4ff;stroke-width:2;stroke-linejoin:miter" id="path858" d="m 108.77903,162.1645 c 2.74222,0 5.3725,-1.0895 7.31155,-3.02854 1.93905,-1.93905 3.02855,-4.56933 3.02855,-7.31156 0,-2.74223 -1.0895,-5.37251 -3.02855,-7.31156 -1.93905,-1.93904 -4.56933,-3.02854 -7.31155,-3.02854 -2.74223,0 -5.37251,1.0895 -7.31156,3.02854 -1.939049,1.93905 -3.028547,4.56933 -3.028547,7.31156 0,2.74223 1.089498,5.37251 3.028547,7.31156 1.93905,1.93904 4.56933,3.02854 7.31156,3.02854 z" clip-path="url(#p8d9942d0b0)"/></g><g id="patch_4" transform="translate(-34.722499,-28.630832)"><path style="fill:#6fa4ff;stroke:#6fa4ff;stroke-width:1.5;stroke-linejoin:miter" id="path861" d="m 154.23002,110.80487 c 1.17525,0 2.30251,-0.46692 3.13353,-1.29795 0.83102,-0.83102 1.29795,-1.95828 1.29795,-3.13352 0,-1.17524 -0.46693,-2.3025 -1.29795,-3.13352 -0.83102,-0.83102 -1.95828,-1.29795 -3.13353,-1.29795 -1.17524,0 -2.3025,0.46693 -3.13352,1.29795 -0.83102,0.83102 -1.29795,1.95828 -1.29795,3.13352 0,1.17524 0.46693,2.3025 1.29795,3.13352 0.83102,0.83103 1.95828,1.29795 3.13352,1.29795 z" clip-path="url(#p8d9942d0b0)"/></g><g id="patch_5" transform="translate(-34.722499,-28.630832)"><path style="fill:#6fa4ff;stroke:#6fa4ff;stroke-width:2;stroke-linejoin:miter" id="path864" d="m 154.23002,162.1645 c 2.74223,0 5.37251,-1.0895 7.31156,-3.02854 1.93905,-1.93905 3.02855,-4.56933 3.02855,-7.31156 0,-2.74223 -1.0895,-5.37251 -3.02855,-7.31156 -1.93905,-1.93904 -4.56933,-3.02854 -7.31156,-3.02854 -2.74222,0 -5.3725,1.0895 -7.31155,3.02854 -1.93905,1.93905 -3.02855,4.56933 -3.02855,7.31156 0,2.74223 1.0895,5.37251 3.02855,7.31156 1.93905,1.93904 4.56933,3.02854 7.31155,3.02854 z" clip-path="url(#p8d9942d0b0)"/></g><g id="line2d_6" transform="translate(-34.722499,-28.630832)"><path style="fill:none;stroke:#fff;stroke-width:2;stroke-linecap:square" id="path867" d="M 108.77903,157.73303 V 145.91577" clip-path="url(#p8d9942d0b0)"/></g><g id="line2d_7" transform="translate(-34.722499,-28.630832)"><path style="fill:none;stroke:#fff;stroke-width:2;stroke-linecap:square" id="path870" d="m 102.8704,151.8244 h 11.81726" clip-path="url(#p8d9942d0b0)"/></g><g id="line2d_8" transform="translate(-34.722499,-28.630832)"><path style="fill:none;stroke:#fff;stroke-width:2;stroke-linecap:square" id="path873" d="M 154.23002,157.73303 V 145.91577" clip-path="url(#p8d9942d0b0)"/></g><g id="line2d_9" transform="translate(-34.722499,-28.630832)"><path style="fill:none;stroke:#fff;stroke-width:2;stroke-linecap:square" id="path876" d="m 148.32139,151.8244 h 11.81726" clip-path="url(#p8d9942d0b0)"/></g><text id="text991" x="22.844" y="38.378" xml:space="preserve" style="font-style:normal;font-variant:normal;font-weight:400;font-stretch:normal;font-size:18px;line-height:1.25;font-family:'IBM Plex Sans';-inkscape-font-specification:'IBM Plex Sans Normal';font-variant-ligatures:normal;font-variant-caps:normal;font-variant-numeric:normal;font-variant-east-asian:normal;stroke-width:.75;stroke-linecap:butt;stroke-linejoin:round"><tspan style="font-style:normal;font-variant:normal;font-weight:400;font-stretch:normal;font-size:18px;font-family:'IBM Plex Sans';-inkscape-font-specification:'IBM Plex Sans Normal';font-variant-ligatures:normal;font-variant-caps:normal;font-variant-numeric:normal;font-variant-east-asian:normal;stroke-width:.75" id="tspan989" x="22.844" y="38.378">A</tspan></text><text style="font-style:normal;font-variant:normal;font-weight:400;font-stretch:normal;font-size:18px;line-height:1.25;font-family:'IBM Plex Sans';-inkscape-font-specification:'IBM Plex Sans Normal';font-variant-ligatures:normal;font-variant-caps:normal;font-variant-numeric:normal;font-variant-east-asian:normal;stroke-width:.75;stroke-linecap:butt;stroke-linejoin:round" id="text991-5" x="22.862" y="82.732" xml:space="preserve"><tspan id="tspan989-4" x="22.862" y="82.732" style="font-style:normal;font-variant:normal;font-weight:400;font-stretch:normal;font-size:18px;font-family:'IBM Plex Sans';-inkscape-font-specification:'IBM Plex Sans Normal';font-variant-ligatures:normal;font-variant-caps:normal;font-variant-numeric:normal;font-variant-east-asian:normal;stroke-width:.75">B</tspan></text><text id="text991-5-6" x="24.385" y="128.42" xml:space="preserve" style="font-style:normal;font-variant:normal;font-weight:400;font-stretch:normal;font-size:18px;line-height:1.25;font-family:'IBM Plex Sans';-inkscape-font-specification:'IBM Plex Sans Normal';font-variant-ligatures:normal;font-variant-caps:normal;font-variant-numeric:normal;font-variant-east-asian:normal;stroke-width:.75;stroke-linecap:butt;stroke-linejoin:round"><tspan style="font-style:normal;font-variant:normal;font-weight:400;font-stretch:normal;font-size:18px;font-family:'IBM Plex Sans';-inkscape-font-specification:'IBM Plex Sans Normal';font-variant-ligatures:normal;font-variant-caps:normal;font-variant-numeric:normal;font-variant-east-asian:normal;stroke-width:.75" id="tspan989-4-6" x="24.385" y="128.42">0</tspan></text><text style="font-style:normal;font-variant:normal;font-weight:400;font-stretch:normal;font-size:18px;line-height:1.25;font-family:'IBM Plex Sans';-inkscape-font-specification:'IBM Plex Sans Normal';font-variant-ligatures:normal;font-variant-caps:normal;font-variant-numeric:normal;font-variant-east-asian:normal;stroke-width:.75;stroke-linecap:butt;stroke-linejoin:round" id="text991-5-6-7" x="154.137" y="38.872" xml:space="preserve"><tspan id="tspan989-4-6-4" x="154.137" y="38.872" style="font-style:normal;font-variant:normal;font-weight:400;font-stretch:normal;font-size:18px;font-family:'IBM Plex Sans';-inkscape-font-specification:'IBM Plex Sans Normal';font-variant-ligatures:normal;font-variant-caps:normal;font-variant-numeric:normal;font-variant-east-asian:normal;stroke-width:.75">A</tspan></text><text id="text991-5-6-7-0" x="155.356" y="83.951" xml:space="preserve" style="font-style:normal;font-variant:normal;font-weight:400;font-stretch:normal;font-size:18px;line-height:1.25;font-family:'IBM Plex Sans';-inkscape-font-specification:'IBM Plex Sans Normal';font-variant-ligatures:normal;font-variant-caps:normal;font-variant-numeric:normal;font-variant-east-asian:normal;stroke-width:.75;stroke-linecap:butt;stroke-linejoin:round"><tspan style="font-style:normal;font-variant:normal;font-weight:400;font-stretch:normal;font-size:18px;font-family:'IBM Plex Sans';-inkscape-font-specification:'IBM Plex Sans Normal';font-variant-ligatures:normal;font-variant-caps:normal;font-variant-numeric:normal;font-variant-east-asian:normal;stroke-width:.75" id="tspan989-4-6-4-7" x="155.356" y="83.951">B</tspan></text><text style="font-style:normal;font-variant:normal;font-weight:400;font-stretch:normal;font-size:18px;line-height:1.25;font-family:'IBM Plex Sans';-inkscape-font-specification:'IBM Plex Sans Normal';font-variant-ligatures:normal;font-variant-caps:normal;font-variant-numeric:normal;font-variant-east-asian:normal;stroke-width:.75;stroke-linecap:butt;stroke-linejoin:round" id="text991-5-6-7-0-0" x="153.833" y="129.638" xml:space="preserve"><tspan id="tspan989-4-6-4-7-1" x="153.833" y="129.638" style="font-style:normal;font-variant:normal;font-weight:400;font-stretch:normal;font-size:18px;font-family:'IBM Plex Sans';-inkscape-font-specification:'IBM Plex Sans Normal';font-variant-ligatures:normal;font-variant-caps:normal;font-variant-numeric:normal;font-variant-east-asian:normal;stroke-width:.75">A XOR B</tspan></text></g><defs id="defs921"><clipPath id="p8d9942d0b0"><rect id="rect918" width="156.283" height="154.533" x="27.945" y="24.562"/></clipPath></defs></svg>