<svg xmlns="http://www.w3.org/2000/svg" width="417" height="411" fill="none" viewBox="0 0 417 411"><rect width="384" height="48" x="33" y="336" fill="#F2F4F8" opacity=".4"/><rect width="384" height="48" x="33" y="240" fill="#F2F4F8" opacity=".4"/><rect width="384" height="48" x="33" y="144" fill="#F2F4F8" opacity=".4"/><rect width="384" height="48" x="33" y="48" fill="#F2F4F8" opacity=".4"/><path fill="#000" d="M71.9482 401.988L70.9402 399.958H70.8982V407H69.1482V397.228H71.1782L74.1182 402.24L75.1262 404.27H75.1682V397.228H76.9182V407H74.8882L71.9482 401.988ZM83.6267 405.782H83.5567C83.4914 405.969 83.4027 406.146 83.2907 406.314C83.1881 406.473 83.0527 406.617 82.8847 406.748C82.7261 406.879 82.5301 406.981 82.2967 407.056C82.0727 407.131 81.8114 407.168 81.5127 407.168C80.7567 407.168 80.1781 406.921 79.7767 406.426C79.3754 405.931 79.1747 405.227 79.1747 404.312V399.692H80.9667V404.13C80.9667 404.634 81.0647 405.021 81.2607 405.292C81.4567 405.553 81.7694 405.684 82.1987 405.684C82.3761 405.684 82.5487 405.661 82.7167 405.614C82.8941 405.567 83.0481 405.497 83.1787 405.404C83.3094 405.301 83.4167 405.18 83.5007 405.04C83.5847 404.891 83.6267 404.718 83.6267 404.522V399.692H85.4187V407H83.6267V405.782ZM87.6492 407V399.692H89.4412V400.91H89.5112C89.6512 400.527 89.8752 400.201 90.1832 399.93C90.4912 399.659 90.9205 399.524 91.4712 399.524C91.9752 399.524 92.4092 399.645 92.7732 399.888C93.1372 400.131 93.4079 400.499 93.5852 400.994H93.6132C93.7439 400.583 94.0005 400.238 94.3832 399.958C94.7752 399.669 95.2652 399.524 95.8532 399.524C96.5719 399.524 97.1225 399.771 97.5052 400.266C97.8972 400.761 98.0932 401.465 98.0932 402.38V407H96.3012V402.562C96.3012 401.517 95.9092 400.994 95.1252 400.994C94.9479 400.994 94.7752 401.022 94.6072 401.078C94.4485 401.125 94.3039 401.199 94.1732 401.302C94.0519 401.395 93.9539 401.517 93.8792 401.666C93.8045 401.806 93.7672 401.974 93.7672 402.17V407H91.9752V402.562C91.9752 401.517 91.5832 400.994 90.7992 400.994C90.6312 400.994 90.4632 401.022 90.2952 401.078C90.1365 401.125 89.9919 401.199 89.8612 401.302C89.7399 401.395 89.6372 401.517 89.5532 401.666C89.4785 401.806 89.4412 401.974 89.4412 402.17V407H87.6492ZM100.237 396.64H102.029V400.896H102.085C102.216 400.476 102.463 400.145 102.827 399.902C103.191 399.65 103.616 399.524 104.101 399.524C105.034 399.524 105.744 399.855 106.229 400.518C106.724 401.171 106.971 402.109 106.971 403.332C106.971 404.564 106.724 405.511 106.229 406.174C105.744 406.837 105.034 407.168 104.101 407.168C103.616 407.168 103.191 407.042 102.827 406.79C102.472 406.538 102.225 406.202 102.085 405.782H102.029V407H100.237V396.64ZM103.527 405.684C103.994 405.684 104.372 405.53 104.661 405.222C104.95 404.914 105.095 404.499 105.095 403.976V402.716C105.095 402.193 104.95 401.778 104.661 401.47C104.372 401.153 103.994 400.994 103.527 400.994C103.098 400.994 102.738 401.101 102.449 401.316C102.169 401.531 102.029 401.815 102.029 402.17V404.494C102.029 404.877 102.169 405.171 102.449 405.376C102.738 405.581 103.098 405.684 103.527 405.684ZM111.745 407.168C111.204 407.168 110.719 407.079 110.289 406.902C109.869 406.715 109.51 406.459 109.211 406.132C108.922 405.796 108.698 405.395 108.539 404.928C108.381 404.452 108.301 403.92 108.301 403.332C108.301 402.753 108.376 402.231 108.525 401.764C108.684 401.297 108.908 400.901 109.197 400.574C109.487 400.238 109.841 399.981 110.261 399.804C110.681 399.617 111.157 399.524 111.689 399.524C112.259 399.524 112.753 399.622 113.173 399.818C113.593 400.014 113.939 400.28 114.209 400.616C114.48 400.952 114.681 401.344 114.811 401.792C114.951 402.231 115.021 402.702 115.021 403.206V403.794H110.163V403.976C110.163 404.508 110.313 404.937 110.611 405.264C110.91 405.581 111.353 405.74 111.941 405.74C112.389 405.74 112.753 405.647 113.033 405.46C113.323 405.273 113.579 405.035 113.803 404.746L114.769 405.824C114.471 406.244 114.06 406.575 113.537 406.818C113.024 407.051 112.427 407.168 111.745 407.168ZM111.717 400.868C111.241 400.868 110.863 401.027 110.583 401.344C110.303 401.661 110.163 402.072 110.163 402.576V402.688H113.159V402.562C113.159 402.058 113.033 401.652 112.781 401.344C112.539 401.027 112.184 400.868 111.717 400.868ZM116.758 407V399.692H118.55V401.204H118.62C118.667 401.008 118.737 400.821 118.83 400.644C118.933 400.457 119.063 400.294 119.222 400.154C119.381 400.014 119.567 399.902 119.782 399.818C120.006 399.734 120.263 399.692 120.552 399.692H120.944V401.386H120.384C119.777 401.386 119.32 401.475 119.012 401.652C118.704 401.829 118.55 402.119 118.55 402.52V407H116.758ZM128.781 407.168C128.258 407.168 127.787 407.079 127.367 406.902C126.956 406.725 126.601 406.468 126.303 406.132C126.013 405.796 125.789 405.395 125.631 404.928C125.472 404.452 125.393 403.92 125.393 403.332C125.393 402.744 125.472 402.217 125.631 401.75C125.789 401.283 126.013 400.887 126.303 400.56C126.601 400.224 126.956 399.967 127.367 399.79C127.787 399.613 128.258 399.524 128.781 399.524C129.303 399.524 129.775 399.613 130.195 399.79C130.615 399.967 130.969 400.224 131.259 400.56C131.557 400.887 131.786 401.283 131.945 401.75C132.103 402.217 132.183 402.744 132.183 403.332C132.183 403.92 132.103 404.452 131.945 404.928C131.786 405.395 131.557 405.796 131.259 406.132C130.969 406.468 130.615 406.725 130.195 406.902C129.775 407.079 129.303 407.168 128.781 407.168ZM128.781 405.726C129.257 405.726 129.63 405.581 129.901 405.292C130.171 405.003 130.307 404.578 130.307 404.018V402.66C130.307 402.109 130.171 401.689 129.901 401.4C129.63 401.111 129.257 400.966 128.781 400.966C128.314 400.966 127.945 401.111 127.675 401.4C127.404 401.689 127.269 402.109 127.269 402.66V404.018C127.269 404.578 127.404 405.003 127.675 405.292C127.945 405.581 128.314 405.726 128.781 405.726ZM134.213 401.106H133.135V399.692H134.213V398.642C134.213 397.998 134.381 397.503 134.717 397.158C135.063 396.813 135.567 396.64 136.229 396.64H137.503V398.068H136.005V399.692H137.503V401.106H136.005V407H134.213V401.106ZM142.373 399.692H144.165V400.896H144.221C144.351 400.476 144.599 400.145 144.963 399.902C145.327 399.65 145.751 399.524 146.237 399.524C147.17 399.524 147.879 399.855 148.365 400.518C148.859 401.171 149.107 402.109 149.107 403.332C149.107 404.564 148.859 405.511 148.365 406.174C147.879 406.837 147.17 407.168 146.237 407.168C145.751 407.168 145.327 407.042 144.963 406.79C144.608 406.538 144.361 406.202 144.221 405.782H144.165V409.8H142.373V399.692ZM145.663 405.684C146.129 405.684 146.507 405.53 146.797 405.222C147.086 404.914 147.231 404.499 147.231 403.976V402.716C147.231 402.193 147.086 401.778 146.797 401.47C146.507 401.153 146.129 400.994 145.663 400.994C145.233 400.994 144.874 401.101 144.585 401.316C144.305 401.531 144.165 401.815 144.165 402.17V404.494C144.165 404.877 144.305 405.171 144.585 405.376C144.874 405.581 145.233 405.684 145.663 405.684ZM153.825 407.168C153.302 407.168 152.831 407.079 152.411 406.902C152 406.725 151.646 406.468 151.347 406.132C151.058 405.796 150.834 405.395 150.675 404.928C150.516 404.452 150.437 403.92 150.437 403.332C150.437 402.744 150.516 402.217 150.675 401.75C150.834 401.283 151.058 400.887 151.347 400.56C151.646 400.224 152 399.967 152.411 399.79C152.831 399.613 153.302 399.524 153.825 399.524C154.348 399.524 154.819 399.613 155.239 399.79C155.659 399.967 156.014 400.224 156.303 400.56C156.602 400.887 156.83 401.283 156.989 401.75C157.148 402.217 157.227 402.744 157.227 403.332C157.227 403.92 157.148 404.452 156.989 404.928C156.83 405.395 156.602 405.796 156.303 406.132C156.014 406.468 155.659 406.725 155.239 406.902C154.819 407.079 154.348 407.168 153.825 407.168ZM153.825 405.726C154.301 405.726 154.674 405.581 154.945 405.292C155.216 405.003 155.351 404.578 155.351 404.018V402.66C155.351 402.109 155.216 401.689 154.945 401.4C154.674 401.111 154.301 400.966 153.825 400.966C153.358 400.966 152.99 401.111 152.719 401.4C152.448 401.689 152.313 402.109 152.313 402.66V404.018C152.313 404.578 152.448 405.003 152.719 405.292C152.99 405.581 153.358 405.726 153.825 405.726ZM161.37 407.168C160.67 407.168 160.082 407.051 159.606 406.818C159.13 406.575 158.71 406.244 158.346 405.824L159.438 404.76C159.708 405.068 160.002 405.311 160.32 405.488C160.646 405.665 161.02 405.754 161.44 405.754C161.869 405.754 162.177 405.679 162.364 405.53C162.56 405.381 162.658 405.175 162.658 404.914C162.658 404.699 162.588 404.531 162.448 404.41C162.317 404.279 162.088 404.191 161.762 404.144L161.034 404.046C160.24 403.943 159.634 403.719 159.214 403.374C158.803 403.019 158.598 402.506 158.598 401.834C158.598 401.479 158.663 401.162 158.794 400.882C158.924 400.593 159.111 400.35 159.354 400.154C159.596 399.949 159.886 399.795 160.222 399.692C160.567 399.58 160.95 399.524 161.37 399.524C161.724 399.524 162.037 399.552 162.308 399.608C162.588 399.655 162.84 399.729 163.064 399.832C163.288 399.925 163.493 400.047 163.68 400.196C163.866 400.336 164.048 400.495 164.226 400.672L163.176 401.722C162.961 401.498 162.704 401.311 162.406 401.162C162.107 401.013 161.78 400.938 161.426 400.938C161.034 400.938 160.749 401.008 160.572 401.148C160.404 401.288 160.32 401.47 160.32 401.694C160.32 401.937 160.39 402.123 160.53 402.254C160.679 402.375 160.926 402.464 161.272 402.52L162.014 402.618C163.591 402.842 164.38 403.561 164.38 404.774C164.38 405.129 164.305 405.455 164.156 405.754C164.016 406.043 163.815 406.295 163.554 406.51C163.292 406.715 162.975 406.879 162.602 407C162.238 407.112 161.827 407.168 161.37 407.168ZM168.42 407.168C167.72 407.168 167.132 407.051 166.656 406.818C166.18 406.575 165.76 406.244 165.396 405.824L166.488 404.76C166.759 405.068 167.053 405.311 167.37 405.488C167.697 405.665 168.07 405.754 168.49 405.754C168.92 405.754 169.228 405.679 169.414 405.53C169.61 405.381 169.708 405.175 169.708 404.914C169.708 404.699 169.638 404.531 169.498 404.41C169.368 404.279 169.139 404.191 168.812 404.144L168.084 404.046C167.291 403.943 166.684 403.719 166.264 403.374C165.854 403.019 165.648 402.506 165.648 401.834C165.648 401.479 165.714 401.162 165.844 400.882C165.975 400.593 166.162 400.35 166.404 400.154C166.647 399.949 166.936 399.795 167.272 399.692C167.618 399.58 168 399.524 168.42 399.524C168.775 399.524 169.088 399.552 169.358 399.608C169.638 399.655 169.89 399.729 170.114 399.832C170.338 399.925 170.544 400.047 170.73 400.196C170.917 400.336 171.099 400.495 171.276 400.672L170.226 401.722C170.012 401.498 169.755 401.311 169.456 401.162C169.158 401.013 168.831 400.938 168.476 400.938C168.084 400.938 167.8 401.008 167.622 401.148C167.454 401.288 167.37 401.47 167.37 401.694C167.37 401.937 167.44 402.123 167.58 402.254C167.73 402.375 167.977 402.464 168.322 402.52L169.064 402.618C170.642 402.842 171.43 403.561 171.43 404.774C171.43 405.129 171.356 405.455 171.206 405.754C171.066 406.043 170.866 406.295 170.604 406.51C170.343 406.715 170.026 406.879 169.652 407C169.288 407.112 168.878 407.168 168.42 407.168ZM174.069 398.628C173.695 398.628 173.425 398.544 173.257 398.376C173.098 398.208 173.019 397.993 173.019 397.732V397.452C173.019 397.191 173.098 396.976 173.257 396.808C173.425 396.64 173.695 396.556 174.069 396.556C174.433 396.556 174.699 396.64 174.867 396.808C175.035 396.976 175.119 397.191 175.119 397.452V397.732C175.119 397.993 175.035 398.208 174.867 398.376C174.699 398.544 174.433 398.628 174.069 398.628ZM173.173 399.692H174.965V407H173.173V399.692ZM177.202 396.64H178.994V400.896H179.05C179.181 400.476 179.428 400.145 179.792 399.902C180.156 399.65 180.581 399.524 181.066 399.524C181.999 399.524 182.709 399.855 183.194 400.518C183.689 401.171 183.936 402.109 183.936 403.332C183.936 404.564 183.689 405.511 183.194 406.174C182.709 406.837 181.999 407.168 181.066 407.168C180.581 407.168 180.156 407.042 179.792 406.79C179.437 406.538 179.19 406.202 179.05 405.782H178.994V407H177.202V396.64ZM180.492 405.684C180.959 405.684 181.337 405.53 181.626 405.222C181.915 404.914 182.06 404.499 182.06 403.976V402.716C182.06 402.193 181.915 401.778 181.626 401.47C181.337 401.153 180.959 400.994 180.492 400.994C180.063 400.994 179.703 401.101 179.414 401.316C179.134 401.531 178.994 401.815 178.994 402.17V404.494C178.994 404.877 179.134 405.171 179.414 405.376C179.703 405.581 180.063 405.684 180.492 405.684ZM187.548 407C186.932 407 186.48 406.846 186.19 406.538C185.901 406.23 185.756 405.796 185.756 405.236V396.64H187.548V405.572H188.514V407H187.548ZM192.986 407.168C192.444 407.168 191.959 407.079 191.53 406.902C191.11 406.715 190.75 406.459 190.452 406.132C190.162 405.796 189.938 405.395 189.78 404.928C189.621 404.452 189.542 403.92 189.542 403.332C189.542 402.753 189.616 402.231 189.766 401.764C189.924 401.297 190.148 400.901 190.438 400.574C190.727 400.238 191.082 399.981 191.502 399.804C191.922 399.617 192.398 399.524 192.93 399.524C193.499 399.524 193.994 399.622 194.414 399.818C194.834 400.014 195.179 400.28 195.45 400.616C195.72 400.952 195.921 401.344 196.052 401.792C196.192 402.231 196.262 402.702 196.262 403.206V403.794H191.404V403.976C191.404 404.508 191.553 404.937 191.852 405.264C192.15 405.581 192.594 405.74 193.182 405.74C193.63 405.74 193.994 405.647 194.274 405.46C194.563 405.273 194.82 405.035 195.044 404.746L196.01 405.824C195.711 406.244 195.3 406.575 194.778 406.818C194.264 407.051 193.667 407.168 192.986 407.168ZM192.958 400.868C192.482 400.868 192.104 401.027 191.824 401.344C191.544 401.661 191.404 402.072 191.404 402.576V402.688H194.4V402.562C194.4 402.058 194.274 401.652 194.022 401.344C193.779 401.027 193.424 400.868 192.958 400.868ZM202.363 398.628C201.99 398.628 201.719 398.544 201.551 398.376C201.392 398.208 201.313 397.993 201.313 397.732V397.452C201.313 397.191 201.392 396.976 201.551 396.808C201.719 396.64 201.99 396.556 202.363 396.556C202.727 396.556 202.993 396.64 203.161 396.808C203.329 396.976 203.413 397.191 203.413 397.452V397.732C203.413 397.993 203.329 398.208 203.161 398.376C202.993 398.544 202.727 398.628 202.363 398.628ZM201.467 399.692H203.259V407H201.467V399.692ZM205.496 407V399.692H207.288V400.91H207.358C207.507 400.518 207.741 400.191 208.058 399.93C208.385 399.659 208.833 399.524 209.402 399.524C210.158 399.524 210.737 399.771 211.138 400.266C211.539 400.761 211.74 401.465 211.74 402.38V407H209.948V402.562C209.948 402.039 209.855 401.647 209.668 401.386C209.481 401.125 209.173 400.994 208.744 400.994C208.557 400.994 208.375 401.022 208.198 401.078C208.03 401.125 207.876 401.199 207.736 401.302C207.605 401.395 207.498 401.517 207.414 401.666C207.33 401.806 207.288 401.974 207.288 402.17V407H205.496ZM213.886 399.692H215.678V400.896H215.734C215.865 400.476 216.112 400.145 216.476 399.902C216.84 399.65 217.265 399.524 217.75 399.524C218.684 399.524 219.393 399.855 219.878 400.518C220.373 401.171 220.62 402.109 220.62 403.332C220.62 404.564 220.373 405.511 219.878 406.174C219.393 406.837 218.684 407.168 217.75 407.168C217.265 407.168 216.84 407.042 216.476 406.79C216.122 406.538 215.874 406.202 215.734 405.782H215.678V409.8H213.886V399.692ZM217.176 405.684C217.643 405.684 218.021 405.53 218.31 405.222C218.6 404.914 218.744 404.499 218.744 403.976V402.716C218.744 402.193 218.6 401.778 218.31 401.47C218.021 401.153 217.643 400.994 217.176 400.994C216.747 400.994 216.388 401.101 216.098 401.316C215.818 401.531 215.678 401.815 215.678 402.17V404.494C215.678 404.877 215.818 405.171 216.098 405.376C216.388 405.581 216.747 405.684 217.176 405.684ZM226.809 405.782H226.739C226.674 405.969 226.585 406.146 226.473 406.314C226.37 406.473 226.235 406.617 226.067 406.748C225.908 406.879 225.712 406.981 225.479 407.056C225.255 407.131 224.994 407.168 224.695 407.168C223.939 407.168 223.36 406.921 222.959 406.426C222.558 405.931 222.357 405.227 222.357 404.312V399.692H224.149V404.13C224.149 404.634 224.247 405.021 224.443 405.292C224.639 405.553 224.952 405.684 225.381 405.684C225.558 405.684 225.731 405.661 225.899 405.614C226.076 405.567 226.23 405.497 226.361 405.404C226.492 405.301 226.599 405.18 226.683 405.04C226.767 404.891 226.809 404.718 226.809 404.522V399.692H228.601V407H226.809V405.782ZM233.113 407C232.497 407 232.026 406.841 231.699 406.524C231.382 406.197 231.223 405.735 231.223 405.138V401.12H230.145V399.692H230.705C230.976 399.692 231.158 399.631 231.251 399.51C231.354 399.379 231.405 399.188 231.405 398.936V397.69H233.015V399.692H234.513V401.12H233.015V405.572H234.401V407H233.113ZM238.622 407.168C237.922 407.168 237.334 407.051 236.858 406.818C236.382 406.575 235.962 406.244 235.598 405.824L236.69 404.76C236.96 405.068 237.254 405.311 237.572 405.488C237.898 405.665 238.272 405.754 238.692 405.754C239.121 405.754 239.429 405.679 239.616 405.53C239.812 405.381 239.91 405.175 239.91 404.914C239.91 404.699 239.84 404.531 239.7 404.41C239.569 404.279 239.34 404.191 239.014 404.144L238.286 404.046C237.492 403.943 236.886 403.719 236.466 403.374C236.055 403.019 235.85 402.506 235.85 401.834C235.85 401.479 235.915 401.162 236.046 400.882C236.176 400.593 236.363 400.35 236.606 400.154C236.848 399.949 237.138 399.795 237.474 399.692C237.819 399.58 238.202 399.524 238.622 399.524C238.976 399.524 239.289 399.552 239.56 399.608C239.84 399.655 240.092 399.729 240.316 399.832C240.54 399.925 240.745 400.047 240.932 400.196C241.118 400.336 241.3 400.495 241.478 400.672L240.428 401.722C240.213 401.498 239.956 401.311 239.658 401.162C239.359 401.013 239.032 400.938 238.678 400.938C238.286 400.938 238.001 401.008 237.824 401.148C237.656 401.288 237.572 401.47 237.572 401.694C237.572 401.937 237.642 402.123 237.782 402.254C237.931 402.375 238.178 402.464 238.524 402.52L239.266 402.618C240.843 402.842 241.632 403.561 241.632 404.774C241.632 405.129 241.557 405.455 241.408 405.754C241.268 406.043 241.067 406.295 240.806 406.51C240.544 406.715 240.227 406.879 239.854 407C239.49 407.112 239.079 407.168 238.622 407.168Z"/><path fill="#000" d="M14 352.804L11.508 353.588V357.06L14 357.83V359.706L4.228 356.43V354.134L14 350.886V352.804ZM5.908 355.296V355.366L9.926 356.612V354.036L5.908 355.296ZM14 348.213L6.692 350.649V348.885L9.842 347.863L12.446 347.149V347.051L9.842 346.337L6.692 345.343V343.635L14 346.085V348.213ZM14.168 339.434C14.168 339.975 14.0793 340.461 13.902 340.89C13.7153 341.31 13.4587 341.669 13.132 341.968C12.796 342.257 12.3947 342.481 11.928 342.64C11.452 342.799 10.92 342.878 10.332 342.878C9.75333 342.878 9.23067 342.803 8.764 342.654C8.29733 342.495 7.90067 342.271 7.574 341.982C7.238 341.693 6.98133 341.338 6.804 340.918C6.61733 340.498 6.524 340.022 6.524 339.49C6.524 338.921 6.622 338.426 6.818 338.006C7.014 337.586 7.28 337.241 7.616 336.97C7.952 336.699 8.344 336.499 8.792 336.368C9.23067 336.228 9.702 336.158 10.206 336.158H10.794V341.016H10.976C11.508 341.016 11.9373 340.867 12.264 340.568C12.5813 340.269 12.74 339.826 12.74 339.238C12.74 338.79 12.6467 338.426 12.46 338.146C12.2733 337.857 12.0353 337.6 11.746 337.376L12.824 336.41C13.244 336.709 13.5753 337.119 13.818 337.642C14.0513 338.155 14.168 338.753 14.168 339.434ZM7.868 339.462C7.868 339.938 8.02667 340.316 8.344 340.596C8.66133 340.876 9.072 341.016 9.576 341.016H9.688V338.02H9.562C9.058 338.02 8.652 338.146 8.344 338.398C8.02667 338.641 7.868 338.995 7.868 339.462ZM14 334.422H6.692V332.63H8.204V332.56C8.008 332.513 7.82133 332.443 7.644 332.35C7.45733 332.247 7.294 332.116 7.154 331.958C7.014 331.799 6.902 331.612 6.818 331.398C6.734 331.174 6.692 330.917 6.692 330.628V330.236H8.386V330.796C8.386 331.402 8.47467 331.86 8.652 332.168C8.82933 332.476 9.11867 332.63 9.52 332.63H14V334.422ZM14 323.54C14 323.932 13.888 324.244 13.664 324.478C13.4307 324.702 13.1227 324.842 12.74 324.898V324.982C13.216 325.103 13.5753 325.35 13.818 325.724C14.0513 326.097 14.168 326.559 14.168 327.11C14.168 327.856 13.972 328.43 13.58 328.832C13.188 329.233 12.6653 329.434 12.012 329.434C11.256 329.434 10.696 329.163 10.332 328.622C9.95867 328.08 9.772 327.31 9.772 326.312V325.066H9.24C8.82933 325.066 8.512 325.173 8.288 325.388C8.064 325.602 7.952 325.948 7.952 326.424C7.952 326.844 8.04533 327.184 8.232 327.446C8.40933 327.698 8.624 327.912 8.876 328.09L7.924 329.154C7.504 328.883 7.168 328.524 6.916 328.076C6.65467 327.628 6.524 327.035 6.524 326.298C6.524 325.308 6.748 324.557 7.196 324.044C7.644 323.53 8.288 323.274 9.128 323.274H12.572V322.546H14V323.54ZM12.866 326.508C12.866 326.106 12.7773 325.766 12.6 325.486C12.4227 325.206 12.1613 325.066 11.816 325.066H10.85V326.214C10.85 327.147 11.1487 327.614 11.746 327.614H11.984C12.2827 327.614 12.5067 327.52 12.656 327.334C12.796 327.138 12.866 326.862 12.866 326.508ZM14.616 314.341C14.9987 314.341 15.3347 314.411 15.624 314.551C15.9227 314.682 16.17 314.901 16.366 315.209C16.562 315.517 16.7113 315.914 16.814 316.399C16.9167 316.885 16.968 317.477 16.968 318.177C16.968 318.793 16.926 319.316 16.842 319.745C16.7673 320.175 16.6553 320.529 16.506 320.809C16.366 321.08 16.1887 321.276 15.974 321.397C15.7593 321.519 15.5167 321.579 15.246 321.579C14.8353 321.579 14.5133 321.467 14.28 321.243C14.056 321.01 13.9113 320.688 13.846 320.277H13.692C13.6173 320.576 13.4727 320.809 13.258 320.977C13.034 321.136 12.7727 321.215 12.474 321.215C12.2873 321.215 12.124 321.178 11.984 321.103C11.8347 321.029 11.7087 320.931 11.606 320.809C11.5033 320.679 11.4193 320.534 11.354 320.375C11.2793 320.217 11.2233 320.049 11.186 319.871H11.13C10.9247 320.319 10.64 320.655 10.276 320.879C9.912 321.094 9.48733 321.201 9.002 321.201C8.25533 321.201 7.658 320.945 7.21 320.431C6.75267 319.918 6.524 319.167 6.524 318.177C6.524 317.953 6.538 317.734 6.566 317.519C6.594 317.295 6.64067 317.09 6.706 316.903H6.468C5.75867 316.903 5.404 316.558 5.404 315.867V314.733H6.776V316.287H6.972C7.18667 315.905 7.46667 315.62 7.812 315.433C8.15733 315.247 8.554 315.153 9.002 315.153C9.73933 315.153 10.332 315.41 10.78 315.923C11.228 316.427 11.452 317.179 11.452 318.177C11.452 318.607 11.41 318.98 11.326 319.297C11.3913 319.437 11.48 319.559 11.592 319.661C11.6947 319.764 11.8253 319.815 11.984 319.815C12.348 319.815 12.53 319.498 12.53 318.863V316.903C12.53 316.007 12.7167 315.359 13.09 314.957C13.454 314.547 13.9627 314.341 14.616 314.341ZM14.826 316.021C14.5927 316.021 14.4107 316.115 14.28 316.301C14.1493 316.488 14.084 316.81 14.084 317.267V319.759C14.2707 320.011 14.5227 320.137 14.84 320.137C15.12 320.137 15.3393 320.021 15.498 319.787C15.6567 319.554 15.736 319.157 15.736 318.597V317.701C15.736 317.113 15.6613 316.689 15.512 316.427C15.3627 316.157 15.134 316.021 14.826 316.021ZM10.234 318.177C10.234 317.3 9.86067 316.861 9.114 316.861H8.876C8.12933 316.861 7.756 317.3 7.756 318.177C7.756 319.055 8.12933 319.493 8.876 319.493H9.114C9.86067 319.493 10.234 319.055 10.234 318.177ZM14.168 310.275C14.168 310.816 14.0793 311.301 13.902 311.731C13.7153 312.151 13.4587 312.51 13.132 312.809C12.796 313.098 12.3947 313.322 11.928 313.481C11.452 313.639 10.92 313.719 10.332 313.719C9.75333 313.719 9.23067 313.644 8.764 313.495C8.29733 313.336 7.90067 313.112 7.574 312.823C7.238 312.533 6.98133 312.179 6.804 311.759C6.61733 311.339 6.524 310.863 6.524 310.331C6.524 309.761 6.622 309.267 6.818 308.847C7.014 308.427 7.28 308.081 7.616 307.811C7.952 307.54 8.344 307.339 8.792 307.209C9.23067 307.069 9.702 306.999 10.206 306.999H10.794V311.857H10.976C11.508 311.857 11.9373 311.707 12.264 311.409C12.5813 311.11 12.74 310.667 12.74 310.079C12.74 309.631 12.6467 309.267 12.46 308.987C12.2733 308.697 12.0353 308.441 11.746 308.217L12.824 307.251C13.244 307.549 13.5753 307.96 13.818 308.483C14.0513 308.996 14.168 309.593 14.168 310.275ZM7.868 310.303C7.868 310.779 8.02667 311.157 8.344 311.437C8.66133 311.717 9.072 311.857 9.576 311.857H9.688V308.861H9.562C9.058 308.861 8.652 308.987 8.344 309.239C8.02667 309.481 7.868 309.836 7.868 310.303ZM14 301.793H6.692V300.001H7.91V299.931C7.518 299.782 7.19133 299.549 6.93 299.231C6.65933 298.905 6.524 298.457 6.524 297.887C6.524 297.131 6.77133 296.553 7.266 296.151C7.76067 295.75 8.46533 295.549 9.38 295.549H14V297.341H9.562C9.03933 297.341 8.64733 297.435 8.386 297.621C8.12467 297.808 7.994 298.116 7.994 298.545C7.994 298.732 8.022 298.914 8.078 299.091C8.12467 299.259 8.19933 299.413 8.302 299.553C8.39533 299.684 8.51667 299.791 8.666 299.875C8.806 299.959 8.974 300.001 9.17 300.001H14V301.793ZM12.782 289.035V289.105C12.9687 289.17 13.146 289.259 13.314 289.371C13.4727 289.474 13.6173 289.609 13.748 289.777C13.8787 289.936 13.9813 290.132 14.056 290.365C14.1307 290.589 14.168 290.85 14.168 291.149C14.168 291.905 13.9207 292.484 13.426 292.885C12.9313 293.286 12.2267 293.487 11.312 293.487H6.692V291.695H11.13C11.634 291.695 12.0213 291.597 12.292 291.401C12.5533 291.205 12.684 290.892 12.684 290.463C12.684 290.286 12.6607 290.113 12.614 289.945C12.5673 289.768 12.4973 289.614 12.404 289.483C12.3013 289.352 12.18 289.245 12.04 289.161C11.8907 289.077 11.718 289.035 11.522 289.035H6.692V287.243H14V289.035H12.782ZM14 285.012H6.692V283.22H7.91V283.15C7.52733 283.01 7.20067 282.786 6.93 282.478C6.65933 282.17 6.524 281.741 6.524 281.19C6.524 280.686 6.64533 280.252 6.888 279.888C7.13067 279.524 7.49933 279.254 7.994 279.076V279.048C7.58333 278.918 7.238 278.661 6.958 278.278C6.66867 277.886 6.524 277.396 6.524 276.808C6.524 276.09 6.77133 275.539 7.266 275.156C7.76067 274.764 8.46533 274.568 9.38 274.568H14V276.36H9.562C8.51667 276.36 7.994 276.752 7.994 277.536C7.994 277.714 8.022 277.886 8.078 278.054C8.12467 278.213 8.19933 278.358 8.302 278.488C8.39533 278.61 8.51667 278.708 8.666 278.782C8.806 278.857 8.974 278.894 9.17 278.894H14V280.686H9.562C8.51667 280.686 7.994 281.078 7.994 281.862C7.994 282.03 8.022 282.198 8.078 282.366C8.12467 282.525 8.19933 282.67 8.302 282.8C8.39533 282.922 8.51667 283.024 8.666 283.108C8.806 283.183 8.974 283.22 9.17 283.22H14V285.012ZM3.64 272.425V270.633H7.896V270.577C7.476 270.446 7.14467 270.199 6.902 269.835C6.65 269.471 6.524 269.046 6.524 268.561C6.524 267.627 6.85533 266.918 7.518 266.433C8.17133 265.938 9.10933 265.691 10.332 265.691C11.564 265.691 12.5113 265.938 13.174 266.433C13.8367 266.918 14.168 267.627 14.168 268.561C14.168 269.046 14.042 269.471 13.79 269.835C13.538 270.189 13.202 270.437 12.782 270.577V270.633H14V272.425H3.64ZM12.684 269.135C12.684 268.668 12.53 268.29 12.222 268.001C11.914 267.711 11.4987 267.567 10.976 267.567H9.716C9.19333 267.567 8.778 267.711 8.47 268.001C8.15267 268.29 7.994 268.668 7.994 269.135C7.994 269.564 8.10133 269.923 8.316 270.213C8.53067 270.493 8.81533 270.633 9.17 270.633H11.494C11.8767 270.633 12.1707 270.493 12.376 270.213C12.5813 269.923 12.684 269.564 12.684 269.135ZM14.168 260.916C14.168 261.458 14.0793 261.943 13.902 262.372C13.7153 262.792 13.4587 263.152 13.132 263.45C12.796 263.74 12.3947 263.964 11.928 264.122C11.452 264.281 10.92 264.36 10.332 264.36C9.75333 264.36 9.23067 264.286 8.764 264.136C8.29733 263.978 7.90067 263.754 7.574 263.464C7.238 263.175 6.98133 262.82 6.804 262.4C6.61733 261.98 6.524 261.504 6.524 260.972C6.524 260.403 6.622 259.908 6.818 259.488C7.014 259.068 7.28 258.723 7.616 258.452C7.952 258.182 8.344 257.981 8.792 257.85C9.23067 257.71 9.702 257.64 10.206 257.64H10.794V262.498H10.976C11.508 262.498 11.9373 262.349 12.264 262.05C12.5813 261.752 12.74 261.308 12.74 260.72C12.74 260.272 12.6467 259.908 12.46 259.628C12.2733 259.339 12.0353 259.082 11.746 258.858L12.824 257.892C13.244 258.191 13.5753 258.602 13.818 259.124C14.0513 259.638 14.168 260.235 14.168 260.916ZM7.868 260.944C7.868 261.42 8.02667 261.798 8.344 262.078C8.66133 262.358 9.072 262.498 9.576 262.498H9.688V259.502H9.562C9.058 259.502 8.652 259.628 8.344 259.88C8.02667 260.123 7.868 260.478 7.868 260.944ZM14 255.904H6.692V254.112H8.204V254.042C8.008 253.995 7.82133 253.925 7.644 253.832C7.45733 253.729 7.294 253.598 7.154 253.44C7.014 253.281 6.902 253.094 6.818 252.88C6.734 252.656 6.692 252.399 6.692 252.11V251.718H8.386V252.278C8.386 252.884 8.47467 253.342 8.652 253.65C8.82933 253.958 9.11867 254.112 9.52 254.112H14V255.904ZM14.168 243.881C14.168 244.404 14.0793 244.875 13.902 245.295C13.7247 245.706 13.468 246.06 13.132 246.359C12.796 246.648 12.3947 246.872 11.928 247.031C11.452 247.19 10.92 247.269 10.332 247.269C9.744 247.269 9.21667 247.19 8.75 247.031C8.28333 246.872 7.88667 246.648 7.56 246.359C7.224 246.06 6.96733 245.706 6.79 245.295C6.61267 244.875 6.524 244.404 6.524 243.881C6.524 243.358 6.61267 242.887 6.79 242.467C6.96733 242.047 7.224 241.692 7.56 241.403C7.88667 241.104 8.28333 240.876 8.75 240.717C9.21667 240.558 9.744 240.479 10.332 240.479C10.92 240.479 11.452 240.558 11.928 240.717C12.3947 240.876 12.796 241.104 13.132 241.403C13.468 241.692 13.7247 242.047 13.902 242.467C14.0793 242.887 14.168 243.358 14.168 243.881ZM12.726 243.881C12.726 243.405 12.5813 243.032 12.292 242.761C12.0027 242.49 11.578 242.355 11.018 242.355H9.66C9.10933 242.355 8.68933 242.49 8.4 242.761C8.11067 243.032 7.966 243.405 7.966 243.881C7.966 244.348 8.11067 244.716 8.4 244.987C8.68933 245.258 9.10933 245.393 9.66 245.393H11.018C11.578 245.393 12.0027 245.258 12.292 244.987C12.5813 244.716 12.726 244.348 12.726 243.881ZM8.106 238.448V239.526H6.692V238.448H5.642C4.998 238.448 4.50333 238.28 4.158 237.944C3.81267 237.599 3.64 237.095 3.64 236.432V235.158H5.068V236.656H6.692V235.158H8.106V236.656H14V238.448H8.106ZM12.782 225.753V225.823C13.202 225.954 13.538 226.201 13.79 226.565C14.042 226.929 14.168 227.354 14.168 227.839C14.168 228.763 13.8367 229.472 13.174 229.967C12.5113 230.452 11.564 230.695 10.332 230.695C9.10933 230.695 8.17133 230.452 7.518 229.967C6.85533 229.472 6.524 228.763 6.524 227.839C6.524 227.354 6.65 226.929 6.902 226.565C7.14467 226.201 7.476 225.954 7.896 225.823V225.753H3.64V223.961H14V225.753H12.782ZM12.684 227.265C12.684 226.836 12.5813 226.476 12.376 226.187C12.1707 225.898 11.8767 225.753 11.494 225.753H9.17C8.81533 225.753 8.53067 225.898 8.316 226.187C8.10133 226.476 7.994 226.836 7.994 227.265C7.994 227.732 8.15267 228.11 8.47 228.399C8.778 228.679 9.19333 228.819 9.716 228.819H10.976C11.4987 228.819 11.914 228.679 12.222 228.399C12.53 228.11 12.684 227.732 12.684 227.265ZM14 216.359C14 216.751 13.888 217.063 13.664 217.297C13.4307 217.521 13.1227 217.661 12.74 217.717V217.801C13.216 217.922 13.5753 218.169 13.818 218.543C14.0513 218.916 14.168 219.378 14.168 219.929C14.168 220.675 13.972 221.249 13.58 221.651C13.188 222.052 12.6653 222.253 12.012 222.253C11.256 222.253 10.696 221.982 10.332 221.441C9.95867 220.899 9.772 220.129 9.772 219.131V217.885H9.24C8.82933 217.885 8.512 217.992 8.288 218.207C8.064 218.421 7.952 218.767 7.952 219.243C7.952 219.663 8.04533 220.003 8.232 220.265C8.40933 220.517 8.624 220.731 8.876 220.909L7.924 221.973C7.504 221.702 7.168 221.343 6.916 220.895C6.65467 220.447 6.524 219.854 6.524 219.117C6.524 218.127 6.748 217.376 7.196 216.863C7.644 216.349 8.288 216.093 9.128 216.093H12.572V215.365H14V216.359ZM12.866 219.327C12.866 218.925 12.7773 218.585 12.6 218.305C12.4227 218.025 12.1613 217.885 11.816 217.885H10.85V219.033C10.85 219.966 11.1487 220.433 11.746 220.433H11.984C12.2827 220.433 12.5067 220.339 12.656 220.153C12.796 219.957 12.866 219.681 12.866 219.327ZM14 211.527C14 212.143 13.8413 212.614 13.524 212.941C13.1973 213.258 12.7353 213.417 12.138 213.417H8.12V214.495H6.692V213.935C6.692 213.664 6.63133 213.482 6.51 213.389C6.37933 213.286 6.188 213.235 5.936 213.235H4.69V211.625H6.692V210.127H8.12V211.625H12.572V210.239H14V211.527ZM14 203.037C14 203.429 13.888 203.741 13.664 203.975C13.4307 204.199 13.1227 204.339 12.74 204.395V204.479C13.216 204.6 13.5753 204.847 13.818 205.221C14.0513 205.594 14.168 206.056 14.168 206.607C14.168 207.353 13.972 207.927 13.58 208.329C13.188 208.73 12.6653 208.931 12.012 208.931C11.256 208.931 10.696 208.66 10.332 208.119C9.95867 207.577 9.772 206.807 9.772 205.809V204.563H9.24C8.82933 204.563 8.512 204.67 8.288 204.885C8.064 205.099 7.952 205.445 7.952 205.921C7.952 206.341 8.04533 206.681 8.232 206.943C8.40933 207.195 8.624 207.409 8.876 207.587L7.924 208.651C7.504 208.38 7.168 208.021 6.916 207.573C6.65467 207.125 6.524 206.532 6.524 205.795C6.524 204.805 6.748 204.054 7.196 203.541C7.644 203.027 8.288 202.771 9.128 202.771H12.572V202.043H14V203.037ZM12.866 206.005C12.866 205.603 12.7773 205.263 12.6 204.983C12.4227 204.703 12.1613 204.563 11.816 204.563H10.85V205.711C10.85 206.644 11.1487 207.111 11.746 207.111H11.984C12.2827 207.111 12.5067 207.017 12.656 206.831C12.796 206.635 12.866 206.359 12.866 206.005ZM3.64 200.432V198.64H7.896V198.584C7.476 198.454 7.14467 198.206 6.902 197.842C6.65 197.478 6.524 197.054 6.524 196.568C6.524 195.635 6.85533 194.926 7.518 194.44C8.17133 193.946 9.10933 193.698 10.332 193.698C11.564 193.698 12.5113 193.946 13.174 194.44C13.8367 194.926 14.168 195.635 14.168 196.568C14.168 197.054 14.042 197.478 13.79 197.842C13.538 198.197 13.202 198.444 12.782 198.584V198.64H14V200.432H3.64ZM12.684 197.142C12.684 196.676 12.53 196.298 12.222 196.008C11.914 195.719 11.4987 195.574 10.976 195.574H9.716C9.19333 195.574 8.778 195.719 8.47 196.008C8.15267 196.298 7.994 196.676 7.994 197.142C7.994 197.572 8.10133 197.931 8.316 198.22C8.53067 198.5 8.81533 198.64 9.17 198.64H11.494C11.8767 198.64 12.1707 198.5 12.376 198.22C12.5813 197.931 12.684 197.572 12.684 197.142ZM14 186.502C14 186.894 13.888 187.206 13.664 187.44C13.4307 187.664 13.1227 187.804 12.74 187.86V187.944C13.216 188.065 13.5753 188.312 13.818 188.686C14.0513 189.059 14.168 189.521 14.168 190.072C14.168 190.818 13.972 191.392 13.58 191.794C13.188 192.195 12.6653 192.396 12.012 192.396C11.256 192.396 10.696 192.125 10.332 191.584C9.95867 191.042 9.772 190.272 9.772 189.274V188.028H9.24C8.82933 188.028 8.512 188.135 8.288 188.35C8.064 188.564 7.952 188.91 7.952 189.386C7.952 189.806 8.04533 190.146 8.232 190.408C8.40933 190.66 8.624 190.874 8.876 191.052L7.924 192.116C7.504 191.845 7.168 191.486 6.916 191.038C6.65467 190.59 6.524 189.997 6.524 189.26C6.524 188.27 6.748 187.519 7.196 187.006C7.644 186.492 8.288 186.236 9.128 186.236H12.572V185.508H14V186.502ZM12.866 189.47C12.866 189.068 12.7773 188.728 12.6 188.448C12.4227 188.168 12.1613 188.028 11.816 188.028H10.85V189.176C10.85 190.109 11.1487 190.576 11.746 190.576H11.984C12.2827 190.576 12.5067 190.482 12.656 190.296C12.796 190.1 12.866 189.824 12.866 189.47ZM14.168 181.503C14.168 182.203 14.0513 182.791 13.818 183.267C13.5753 183.743 13.244 184.163 12.824 184.527L11.76 183.435C12.068 183.165 12.3107 182.871 12.488 182.553C12.6653 182.227 12.754 181.853 12.754 181.433C12.754 181.004 12.6793 180.696 12.53 180.509C12.3807 180.313 12.1753 180.215 11.914 180.215C11.6993 180.215 11.5313 180.285 11.41 180.425C11.2793 180.556 11.1907 180.785 11.144 181.111L11.046 181.839C10.9433 182.633 10.7193 183.239 10.374 183.659C10.0193 184.07 9.506 184.275 8.834 184.275C8.47933 184.275 8.162 184.21 7.882 184.079C7.59267 183.949 7.35 183.762 7.154 183.519C6.94867 183.277 6.79467 182.987 6.692 182.651C6.58 182.306 6.524 181.923 6.524 181.503C6.524 181.149 6.552 180.836 6.608 180.565C6.65467 180.285 6.72933 180.033 6.832 179.809C6.92533 179.585 7.04667 179.38 7.196 179.193C7.336 179.007 7.49467 178.825 7.672 178.647L8.722 179.697C8.498 179.912 8.31133 180.169 8.162 180.467C8.01267 180.766 7.938 181.093 7.938 181.447C7.938 181.839 8.008 182.124 8.148 182.301C8.288 182.469 8.47 182.553 8.694 182.553C8.93667 182.553 9.12333 182.483 9.254 182.343C9.37533 182.194 9.464 181.947 9.52 181.601L9.618 180.859C9.842 179.282 10.5607 178.493 11.774 178.493C12.1287 178.493 12.4553 178.568 12.754 178.717C13.0433 178.857 13.2953 179.058 13.51 179.319C13.7153 179.581 13.8787 179.898 14 180.271C14.112 180.635 14.168 181.046 14.168 181.503ZM14.168 173.797C14.168 174.338 14.0793 174.824 13.902 175.253C13.7153 175.673 13.4587 176.032 13.132 176.331C12.796 176.62 12.3947 176.844 11.928 177.003C11.452 177.162 10.92 177.241 10.332 177.241C9.75333 177.241 9.23067 177.166 8.764 177.017C8.29733 176.858 7.90067 176.634 7.574 176.345C7.238 176.056 6.98133 175.701 6.804 175.281C6.61733 174.861 6.524 174.385 6.524 173.853C6.524 173.284 6.622 172.789 6.818 172.369C7.014 171.949 7.28 171.604 7.616 171.333C7.952 171.062 8.344 170.862 8.792 170.731C9.23067 170.591 9.702 170.521 10.206 170.521H10.794V175.379H10.976C11.508 175.379 11.9373 175.23 12.264 174.931C12.5813 174.632 12.74 174.189 12.74 173.601C12.74 173.153 12.6467 172.789 12.46 172.509C12.2733 172.22 12.0353 171.963 11.746 171.739L12.824 170.773C13.244 171.072 13.5753 171.482 13.818 172.005C14.0513 172.518 14.168 173.116 14.168 173.797ZM7.868 173.825C7.868 174.301 8.02667 174.679 8.344 174.959C8.66133 175.239 9.072 175.379 9.576 175.379H9.688V172.383H9.562C9.058 172.383 8.652 172.509 8.344 172.761C8.02667 173.004 7.868 173.358 7.868 173.825ZM12.782 160.78V160.85C13.202 160.981 13.538 161.228 13.79 161.592C14.042 161.956 14.168 162.381 14.168 162.866C14.168 163.79 13.8367 164.499 13.174 164.994C12.5113 165.479 11.564 165.722 10.332 165.722C9.10933 165.722 8.17133 165.479 7.518 164.994C6.85533 164.499 6.524 163.79 6.524 162.866C6.524 162.381 6.65 161.956 6.902 161.592C7.14467 161.228 7.476 160.981 7.896 160.85V160.78H6.692V158.988H16.8V160.78H12.782ZM12.684 162.292C12.684 161.863 12.5813 161.503 12.376 161.214C12.1707 160.925 11.8767 160.78 11.494 160.78H9.17C8.81533 160.78 8.53067 160.925 8.316 161.214C8.10133 161.503 7.994 161.863 7.994 162.292C7.994 162.759 8.15267 163.137 8.47 163.426C8.778 163.706 9.19333 163.846 9.716 163.846H10.976C11.4987 163.846 11.914 163.706 12.222 163.426C12.53 163.137 12.684 162.759 12.684 162.292ZM12.782 152.393V152.463C12.9687 152.529 13.146 152.617 13.314 152.729C13.4727 152.832 13.6173 152.967 13.748 153.135C13.8787 153.294 13.9813 153.49 14.056 153.723C14.1307 153.947 14.168 154.209 14.168 154.507C14.168 155.263 13.9207 155.842 13.426 156.243C12.9313 156.645 12.2267 156.845 11.312 156.845H6.692V155.053H11.13C11.634 155.053 12.0213 154.955 12.292 154.759C12.5533 154.563 12.684 154.251 12.684 153.821C12.684 153.644 12.6607 153.471 12.614 153.303C12.5673 153.126 12.4973 152.972 12.404 152.841C12.3013 152.711 12.18 152.603 12.04 152.519C11.8907 152.435 11.718 152.393 11.522 152.393H6.692V150.601H14V152.393H12.782ZM14.168 145.417C14.168 145.958 14.0793 146.444 13.902 146.873C13.7153 147.293 13.4587 147.652 13.132 147.951C12.796 148.24 12.3947 148.464 11.928 148.623C11.452 148.782 10.92 148.861 10.332 148.861C9.75333 148.861 9.23067 148.786 8.764 148.637C8.29733 148.478 7.90067 148.254 7.574 147.965C7.238 147.676 6.98133 147.321 6.804 146.901C6.61733 146.481 6.524 146.005 6.524 145.473C6.524 144.904 6.622 144.409 6.818 143.989C7.014 143.569 7.28 143.224 7.616 142.953C7.952 142.682 8.344 142.482 8.792 142.351C9.23067 142.211 9.702 142.141 10.206 142.141H10.794V146.999H10.976C11.508 146.999 11.9373 146.85 12.264 146.551C12.5813 146.252 12.74 145.809 12.74 145.221C12.74 144.773 12.6467 144.409 12.46 144.129C12.2733 143.84 12.0353 143.583 11.746 143.359L12.824 142.393C13.244 142.692 13.5753 143.102 13.818 143.625C14.0513 144.138 14.168 144.736 14.168 145.417ZM7.868 145.445C7.868 145.921 8.02667 146.299 8.344 146.579C8.66133 146.859 9.072 146.999 9.576 146.999H9.688V144.003H9.562C9.058 144.003 8.652 144.129 8.344 144.381C8.02667 144.624 7.868 144.978 7.868 145.445ZM14 140.404H6.692V138.612H8.204V138.542C8.008 138.496 7.82133 138.426 7.644 138.332C7.45733 138.23 7.294 138.099 7.154 137.94C7.014 137.782 6.902 137.595 6.818 137.38C6.734 137.156 6.692 136.9 6.692 136.61V136.218H8.386V136.778C8.386 137.385 8.47467 137.842 8.652 138.15C8.82933 138.458 9.11867 138.612 9.52 138.612H14V140.404ZM5.628 133.852C5.628 134.225 5.544 134.496 5.376 134.664C5.208 134.823 4.99333 134.902 4.732 134.902H4.452C4.19067 134.902 3.976 134.823 3.808 134.664C3.64 134.496 3.556 134.225 3.556 133.852C3.556 133.488 3.64 133.222 3.808 133.054C3.976 132.886 4.19067 132.802 4.452 132.802H4.732C4.99333 132.802 5.208 132.886 5.376 133.054C5.544 133.222 5.628 133.488 5.628 133.852ZM6.692 134.748V132.956H14V134.748H6.692ZM14.168 127.765C14.168 128.306 14.0793 128.792 13.902 129.221C13.7153 129.641 13.4587 130 13.132 130.299C12.796 130.588 12.3947 130.812 11.928 130.971C11.452 131.13 10.92 131.209 10.332 131.209C9.75333 131.209 9.23067 131.134 8.764 130.985C8.29733 130.826 7.90067 130.602 7.574 130.313C7.238 130.024 6.98133 129.669 6.804 129.249C6.61733 128.829 6.524 128.353 6.524 127.821C6.524 127.252 6.622 126.757 6.818 126.337C7.014 125.917 7.28 125.572 7.616 125.301C7.952 125.03 8.344 124.83 8.792 124.699C9.23067 124.559 9.702 124.489 10.206 124.489H10.794V129.347H10.976C11.508 129.347 11.9373 129.198 12.264 128.899C12.5813 128.6 12.74 128.157 12.74 127.569C12.74 127.121 12.6467 126.757 12.46 126.477C12.2733 126.188 12.0353 125.931 11.746 125.707L12.824 124.741C13.244 125.04 13.5753 125.45 13.818 125.973C14.0513 126.486 14.168 127.084 14.168 127.765ZM7.868 127.793C7.868 128.269 8.02667 128.647 8.344 128.927C8.66133 129.207 9.072 129.347 9.576 129.347H9.688V126.351H9.562C9.058 126.351 8.652 126.477 8.344 126.729C8.02667 126.972 7.868 127.326 7.868 127.793ZM14.168 120.358C14.168 121.058 14.0513 121.646 13.818 122.122C13.5753 122.598 13.244 123.018 12.824 123.382L11.76 122.29C12.068 122.02 12.3107 121.726 12.488 121.408C12.6653 121.082 12.754 120.708 12.754 120.288C12.754 119.859 12.6793 119.551 12.53 119.364C12.3807 119.168 12.1753 119.07 11.914 119.07C11.6993 119.07 11.5313 119.14 11.41 119.28C11.2793 119.411 11.1907 119.64 11.144 119.966L11.046 120.694C10.9433 121.488 10.7193 122.094 10.374 122.514C10.0193 122.925 9.506 123.13 8.834 123.13C8.47933 123.13 8.162 123.065 7.882 122.934C7.59267 122.804 7.35 122.617 7.154 122.374C6.94867 122.132 6.79467 121.842 6.692 121.506C6.58 121.161 6.524 120.778 6.524 120.358C6.524 120.004 6.552 119.691 6.608 119.42C6.65467 119.14 6.72933 118.888 6.832 118.664C6.92533 118.44 7.04667 118.235 7.196 118.048C7.336 117.862 7.49467 117.68 7.672 117.502L8.722 118.552C8.498 118.767 8.31133 119.024 8.162 119.322C8.01267 119.621 7.938 119.948 7.938 120.302C7.938 120.694 8.008 120.979 8.148 121.156C8.288 121.324 8.47 121.408 8.694 121.408C8.93667 121.408 9.12333 121.338 9.254 121.198C9.37533 121.049 9.464 120.802 9.52 120.456L9.618 119.714C9.842 118.137 10.5607 117.348 11.774 117.348C12.1287 117.348 12.4553 117.423 12.754 117.572C13.0433 117.712 13.2953 117.913 13.51 118.174C13.7153 118.436 13.8787 118.753 14 119.126C14.112 119.49 14.168 119.901 14.168 120.358Z"/><line x1="129.5" x2="129.5" y2="384" stroke="#DDE1E6"/><line x1="225.5" x2="225.5" y2="384" stroke="#DDE1E6"/><line x1="321.5" x2="321.5" y2="384" stroke="#DDE1E6"/><rect width="383" height="383" x="33.5" y=".5" stroke="#DDE1E6"/><path stroke="#6929C4" d="M35.0002 382C106.5 283.5 282.5 258.5 378.5 240"/><path fill="#6929C4" d="M251.486 251.688L251.45 251.695C251.416 252.099 251.221 252.466 250.865 252.797C250.515 253.119 250.025 253.335 249.395 253.446C248.891 253.535 248.41 253.526 247.953 253.42C247.502 253.305 247.095 253.096 246.733 252.794C246.37 252.485 246.055 252.081 245.789 251.584C245.529 251.078 245.338 250.478 245.216 249.784C245.095 249.099 245.071 248.478 245.143 247.921C245.214 247.356 245.372 246.869 245.616 246.46C245.86 246.044 246.182 245.703 246.581 245.437C246.981 245.172 247.445 244.992 247.973 244.899C248.714 244.769 249.361 244.825 249.916 245.068C250.471 245.312 250.93 245.682 251.294 246.178L250.566 246.818C250.299 246.41 249.954 246.114 249.532 245.928C249.117 245.741 248.649 245.694 248.13 245.786C247.767 245.849 247.448 245.975 247.172 246.162C246.895 246.34 246.667 246.567 246.488 246.843C246.317 247.117 246.202 247.429 246.142 247.781C246.082 248.133 246.088 248.513 246.16 248.923L246.396 250.259C246.468 250.668 246.593 251.032 246.771 251.35C246.948 251.66 247.163 251.915 247.417 252.113C247.68 252.311 247.98 252.449 248.319 252.527C248.656 252.598 249.022 252.598 249.416 252.529C249.7 252.479 249.961 252.396 250.201 252.281C250.447 252.156 250.651 252.002 250.814 251.819C250.985 251.635 251.106 251.422 251.177 251.182C251.247 250.934 251.255 250.657 251.201 250.35L251.057 249.534L249.237 249.855L249.083 248.981L251.872 248.489L252.62 252.731L251.698 252.894L251.486 251.688ZM254.794 252.348L253.719 246.25L254.664 246.083L254.862 247.206L254.921 247.196C254.98 246.885 255.131 246.59 255.375 246.311C255.618 246.033 255.988 245.85 256.484 245.762L256.851 245.698L257.017 246.643L256.462 246.741C255.95 246.832 255.565 247.001 255.308 247.249C255.058 247.488 254.959 247.754 255.01 248.045L255.739 252.181L254.794 252.348ZM261.72 251.273C261.311 251.345 260.923 251.336 260.558 251.246C260.193 251.156 259.864 250.995 259.571 250.762C259.285 250.52 259.04 250.218 258.838 249.856C258.635 249.486 258.49 249.056 258.404 248.568C258.319 248.087 258.309 247.638 258.374 247.22C258.438 246.803 258.564 246.435 258.752 246.118C258.946 245.791 259.2 245.523 259.512 245.314C259.824 245.104 260.185 244.964 260.595 244.891C261.005 244.819 261.388 244.829 261.745 244.92C262.111 245.01 262.44 245.175 262.735 245.416C263.027 245.648 263.276 245.95 263.479 246.32C263.682 246.691 263.826 247.116 263.911 247.597C263.997 248.085 264.008 248.538 263.944 248.956C263.878 249.365 263.748 249.733 263.554 250.06C263.358 250.379 263.104 250.643 262.792 250.853C262.487 251.061 262.13 251.201 261.72 251.273ZM261.572 250.434C262.084 250.344 262.474 250.112 262.742 249.74C263.009 249.368 263.086 248.859 262.972 248.213L262.818 247.339C262.704 246.693 262.458 246.24 262.079 245.982C261.7 245.724 261.255 245.64 260.743 245.73C260.231 245.821 259.841 246.052 259.574 246.424C259.306 246.796 259.229 247.305 259.343 247.951L259.498 248.826C259.611 249.472 259.858 249.924 260.236 250.182C260.615 250.44 261.06 250.524 261.572 250.434ZM267.574 250.095L264.359 244.374L265.305 244.207L266.902 247.045L267.93 249.008L267.99 248.998L268.285 246.801L268.838 243.584L269.748 243.424L268.673 249.901L267.574 250.095ZM274.583 249.005C274.166 249.078 273.774 249.07 273.409 248.98C273.052 248.889 272.727 248.727 272.434 248.494C272.148 248.252 271.904 247.95 271.702 247.588C271.506 247.216 271.365 246.786 271.279 246.297C271.194 245.817 271.18 245.369 271.237 244.952C271.301 244.535 271.427 244.167 271.615 243.85C271.809 243.523 272.059 243.256 272.363 243.048C272.676 242.838 273.041 242.697 273.458 242.623C273.868 242.551 274.247 242.561 274.597 242.654C274.946 242.747 275.259 242.907 275.534 243.134C275.809 243.354 276.037 243.635 276.219 243.976C276.409 244.317 276.542 244.703 276.619 245.137L276.698 245.586L272.313 246.359L272.363 246.642C272.409 246.902 272.492 247.14 272.611 247.354C272.736 247.56 272.889 247.732 273.067 247.871C273.254 248.008 273.466 248.105 273.703 248.161C273.949 248.215 274.213 248.217 274.497 248.167C274.883 248.099 275.202 247.949 275.453 247.718C275.713 247.486 275.891 247.186 275.989 246.819L276.748 247.185C276.625 247.638 276.377 248.03 276.006 248.364C275.633 248.69 275.159 248.903 274.583 249.005ZM273.598 243.415C273.338 243.461 273.11 243.55 272.914 243.682C272.716 243.806 272.553 243.965 272.425 244.158C272.304 244.35 272.221 244.568 272.175 244.811C272.127 245.047 272.127 245.299 272.174 245.567L272.188 245.65L275.556 245.056L275.534 244.926C275.438 244.382 275.212 243.975 274.855 243.705C274.505 243.426 274.086 243.329 273.598 243.415ZM279.067 248.068L277.992 241.97L278.937 241.803L279.135 242.926L279.194 242.916C279.253 242.605 279.404 242.31 279.647 242.032C279.891 241.753 280.261 241.57 280.757 241.483L281.123 241.418L281.29 242.363L280.735 242.461C280.222 242.552 279.838 242.721 279.581 242.969C279.331 243.208 279.231 243.474 279.283 243.765L280.012 247.901L279.067 248.068ZM283.466 238.153C283.719 238.109 283.912 238.144 284.046 238.258C284.186 238.364 284.274 238.519 284.31 238.724L284.339 238.889C284.396 239.212 284.365 239.587 284.245 240.014C284.124 240.434 283.92 240.819 283.633 241.17L282.841 241.31C283.033 241.016 283.18 240.746 283.283 240.501C283.393 240.246 283.455 239.975 283.469 239.688C283.305 239.677 283.173 239.623 283.075 239.526C282.985 239.428 282.926 239.301 282.898 239.143L282.869 238.978C282.832 238.773 282.858 238.598 282.946 238.452C283.041 238.297 283.214 238.198 283.466 238.153ZM289.182 246.431C288.615 246.531 288.12 246.508 287.696 246.364C287.279 246.21 286.901 245.976 286.561 245.662L287.139 245C287.428 245.257 287.733 245.443 288.053 245.557C288.373 245.664 288.725 245.683 289.111 245.615C289.513 245.544 289.809 245.402 289.999 245.19C290.197 244.976 290.268 244.712 290.213 244.397C290.171 244.16 290.057 243.973 289.87 243.836C289.69 243.689 289.393 243.619 288.98 243.627L288.483 243.642C288.193 243.652 287.922 243.639 287.672 243.602C287.42 243.557 287.192 243.483 286.987 243.381C286.789 243.27 286.621 243.121 286.482 242.934C286.351 242.746 286.261 242.51 286.211 242.227C286.158 241.927 286.168 241.658 286.239 241.418C286.309 241.17 286.425 240.954 286.588 240.771C286.759 240.587 286.972 240.435 287.227 240.317C287.481 240.191 287.762 240.101 288.069 240.047C288.565 239.959 288.994 239.973 289.356 240.088C289.725 240.202 290.063 240.39 290.369 240.653L289.843 241.33C289.675 241.165 289.449 241.03 289.162 240.927C288.874 240.815 288.534 240.794 288.14 240.863C287.746 240.933 287.462 241.072 287.287 241.281C287.12 241.482 287.061 241.727 287.113 242.019C287.166 242.318 287.302 242.518 287.523 242.617C287.751 242.715 288.06 242.762 288.449 242.758L288.935 242.746C289.63 242.729 290.146 242.841 290.481 243.082C290.814 243.316 291.022 243.665 291.104 244.13C291.208 244.721 291.089 245.221 290.747 245.631C290.405 246.04 289.883 246.307 289.182 246.431ZM300.939 244.211C300.585 244.274 300.312 244.224 300.121 244.063C299.938 243.901 299.802 243.681 299.712 243.404L299.653 243.415C299.586 243.816 299.415 244.139 299.141 244.382C298.867 244.625 298.518 244.785 298.092 244.86C297.446 244.973 296.913 244.897 296.492 244.63C296.079 244.362 295.823 243.944 295.723 243.376C295.621 242.801 295.752 242.323 296.116 241.942C296.487 241.56 297.118 241.291 298.008 241.134L299.213 240.921L299.107 240.318C299.031 239.885 298.854 239.575 298.578 239.388C298.301 239.201 297.918 239.151 297.43 239.237C297.06 239.302 296.763 239.44 296.54 239.65C296.325 239.858 296.159 240.115 296.042 240.42L295.381 239.988C295.488 239.628 295.703 239.302 296.025 239.01C296.346 238.709 296.782 238.511 297.333 238.413C298.074 238.283 298.681 238.363 299.155 238.653C299.628 238.943 299.922 239.411 300.036 240.057L300.628 243.413L301.325 243.29L301.471 244.118L300.939 244.211ZM298.104 244.029C298.341 243.987 298.552 243.921 298.74 243.832C298.927 243.742 299.082 243.633 299.206 243.506C299.33 243.378 299.419 243.241 299.475 243.093C299.53 242.945 299.543 242.792 299.516 242.635L299.339 241.63L298.086 241.851C297.542 241.947 297.158 242.096 296.934 242.298C296.717 242.498 296.636 242.748 296.688 243.048L296.732 243.296C296.785 243.595 296.932 243.809 297.174 243.937C297.424 244.064 297.734 244.094 298.104 244.029ZM304.14 243.647C303.809 243.705 303.541 243.659 303.336 243.509C303.137 243.349 303.012 243.127 302.962 242.843L301.593 235.079L302.539 234.912L303.935 242.83L304.833 242.672L304.979 243.499L304.14 243.647ZM311.93 242.968C312.041 243.598 311.874 244.103 311.429 244.482C310.993 244.867 310.283 245.147 309.298 245.321C308.345 245.489 307.637 245.48 307.173 245.293C306.71 245.107 306.436 244.773 306.351 244.293C306.293 243.962 306.334 243.687 306.474 243.467C306.615 243.255 306.828 243.08 307.112 242.94L307.089 242.81C306.696 242.701 306.465 242.449 306.395 242.055C306.341 241.748 306.399 241.498 306.568 241.306C306.736 241.106 306.966 240.939 307.259 240.806L307.251 240.759C306.858 240.649 306.531 240.451 306.269 240.164C306.015 239.876 305.851 239.519 305.776 239.094C305.721 238.787 305.727 238.493 305.791 238.214C305.855 237.934 305.97 237.687 306.135 237.471C306.307 237.245 306.521 237.057 306.779 236.906C307.045 236.754 307.351 236.647 307.697 236.586C308.131 236.51 308.531 236.52 308.897 236.618L308.878 236.512C308.837 236.275 308.858 236.073 308.942 235.904C309.024 235.727 309.192 235.616 309.444 235.571L310.354 235.411L310.499 236.238L309.341 236.442L309.41 236.832C309.664 236.982 309.874 237.181 310.039 237.428C310.211 237.666 310.326 237.95 310.384 238.281C310.439 238.588 310.434 238.882 310.369 239.161C310.305 239.441 310.187 239.693 310.015 239.918C309.85 240.134 309.635 240.318 309.369 240.471C309.104 240.623 308.798 240.73 308.451 240.791C308.254 240.826 308.054 240.841 307.85 240.836C307.655 240.927 307.484 241.043 307.338 241.182C307.191 241.314 307.134 241.474 307.167 241.663C307.199 241.844 307.307 241.951 307.491 241.984C307.676 242.016 307.906 242.008 308.182 241.959L309.482 241.73C310.238 241.597 310.811 241.646 311.201 241.878C311.598 242.1 311.841 242.464 311.93 242.968ZM311.056 243.195C311.013 242.951 310.884 242.771 310.668 242.654C310.462 242.544 310.123 242.531 309.65 242.615L307.617 242.973C307.27 243.213 307.129 243.522 307.196 243.9C307.243 244.168 307.382 244.379 307.612 244.534C307.85 244.686 308.21 244.721 308.69 244.636L309.565 244.482C310.093 244.389 310.488 244.234 310.75 244.017C311.012 243.8 311.114 243.526 311.056 243.195ZM308.318 240.035C308.719 239.964 309.022 239.813 309.225 239.582C309.426 239.344 309.492 239.023 309.421 238.622L309.363 238.291C309.292 237.889 309.121 237.614 308.852 237.467C308.581 237.312 308.244 237.269 307.842 237.34C307.441 237.411 307.139 237.566 306.937 237.804C306.734 238.035 306.668 238.351 306.739 238.753L306.797 239.084C306.868 239.486 307.039 239.765 307.31 239.92C307.58 240.067 307.916 240.106 308.318 240.035ZM315.489 241.792C315.08 241.864 314.692 241.855 314.327 241.765C313.962 241.675 313.633 241.514 313.34 241.281C313.054 241.04 312.809 240.737 312.607 240.375C312.404 240.005 312.259 239.575 312.173 239.087C312.088 238.606 312.078 238.157 312.143 237.74C312.207 237.322 312.333 236.955 312.521 236.637C312.715 236.31 312.969 236.042 313.281 235.833C313.593 235.624 313.954 235.483 314.364 235.41C314.774 235.338 315.157 235.348 315.514 235.439C315.88 235.529 316.209 235.694 316.504 235.935C316.796 236.168 317.045 236.469 317.248 236.839C317.451 237.21 317.595 237.635 317.68 238.116C317.766 238.604 317.777 239.057 317.713 239.475C317.647 239.884 317.517 240.253 317.322 240.579C317.127 240.898 316.873 241.162 316.56 241.372C316.256 241.58 315.899 241.72 315.489 241.792ZM315.341 240.953C315.853 240.863 316.243 240.631 316.511 240.259C316.778 239.887 316.855 239.378 316.741 238.732L316.587 237.858C316.473 237.212 316.227 236.76 315.848 236.501C315.469 236.243 315.024 236.159 314.512 236.25C314 236.34 313.61 236.571 313.343 236.943C313.075 237.315 312.998 237.824 313.112 238.47L313.266 239.345C313.38 239.991 313.627 240.443 314.005 240.701C314.384 240.959 314.829 241.043 315.341 240.953ZM320.088 240.835L319.013 234.737L319.958 234.57L320.156 235.693L320.215 235.683C320.274 235.372 320.425 235.077 320.668 234.798C320.912 234.52 321.282 234.337 321.778 234.249L322.144 234.185L322.311 235.13L321.755 235.228C321.243 235.318 320.859 235.488 320.602 235.736C320.352 235.975 320.252 236.241 320.304 236.532L321.033 240.668L320.088 240.835ZM323.888 232.403C323.683 232.439 323.525 232.418 323.413 232.34C323.309 232.253 323.242 232.131 323.215 231.973L323.188 231.82C323.16 231.662 323.181 231.528 323.251 231.419C323.327 231.3 323.468 231.222 323.673 231.186C323.878 231.15 324.033 231.175 324.137 231.262C324.248 231.34 324.318 231.458 324.346 231.615L324.373 231.769C324.401 231.927 324.376 232.065 324.3 232.184C324.23 232.294 324.092 232.367 323.888 232.403ZM323.667 233.916L324.612 233.75L325.688 239.848L324.742 240.014L323.667 233.916ZM329.359 239.2C329.028 239.259 328.76 239.212 328.555 239.062C328.356 238.902 328.23 238.672 328.177 238.373L327.425 234.107L326.421 234.284L326.275 233.456L326.842 233.356C327.047 233.32 327.178 233.257 327.235 233.165C327.298 233.065 327.312 232.912 327.276 232.707L327.076 231.573L327.927 231.423L328.225 233.113L329.56 232.877L329.706 233.704L328.371 233.94L329.154 238.383L330.395 238.165L330.541 238.992L329.359 239.2ZM330.928 229.907L331.873 229.74L332.515 233.38L332.562 233.371C332.651 232.998 332.811 232.686 333.043 232.434C333.283 232.18 333.631 232.013 334.088 231.933C334.718 231.821 335.251 231.939 335.685 232.285C336.126 232.621 336.412 233.16 336.543 233.9L337.233 237.812L336.287 237.979L335.627 234.232C335.433 233.137 334.876 232.671 333.954 232.833C333.765 232.867 333.584 232.923 333.411 233.002C333.246 233.08 333.101 233.179 332.976 233.298C332.851 233.418 332.758 233.56 332.698 233.725C332.644 233.881 332.635 234.057 332.669 234.254L333.415 238.485L332.47 238.652L330.928 229.907ZM339.502 237.412L338.427 231.314L339.372 231.147L339.547 232.14L339.594 232.131C339.637 231.961 339.691 231.802 339.754 231.653C339.823 231.494 339.912 231.352 340.02 231.228C340.136 231.102 340.275 230.996 340.439 230.91C340.601 230.817 340.801 230.749 341.037 230.707C341.439 230.636 341.826 230.67 342.2 230.807C342.572 230.936 342.88 231.207 343.123 231.619L343.147 231.615C343.199 231.264 343.353 230.941 343.609 230.644C343.872 230.337 344.263 230.138 344.783 230.047C345.406 229.937 345.926 230.056 346.345 230.405C346.77 230.744 347.048 231.284 347.179 232.025L347.869 235.936L346.923 236.103L346.263 232.357C346.167 231.813 345.988 231.422 345.727 231.184C345.466 230.946 345.103 230.868 344.638 230.95C344.449 230.983 344.272 231.039 344.107 231.116C343.95 231.193 343.812 231.29 343.695 231.408C343.578 231.527 343.493 231.667 343.441 231.831C343.387 231.987 343.377 232.163 343.412 232.36L344.158 236.591L343.213 236.757L342.552 233.011C342.456 232.468 342.278 232.077 342.016 231.838C341.755 231.6 341.4 231.521 340.951 231.6C340.762 231.633 340.585 231.689 340.42 231.767C340.255 231.844 340.113 231.942 339.996 232.061C339.879 232.179 339.79 232.32 339.73 232.485C339.676 232.641 339.667 232.817 339.701 233.014L340.447 237.245L339.502 237.412Z"/><path fill="#1192E8" d="M245.124 66H244.116V57.624H247.452C248.188 57.624 248.76 57.828 249.168 58.236C249.584 58.644 249.792 59.232 249.792 60C249.792 60.616 249.648 61.124 249.36 61.524C249.08 61.916 248.664 62.176 248.112 62.304L250.032 66H248.892L247.08 62.4H245.124V66ZM247.452 61.536C247.852 61.536 248.16 61.432 248.376 61.224C248.6 61.016 248.712 60.72 248.712 60.336V59.712C248.712 59.328 248.6 59.032 248.376 58.824C248.16 58.616 247.852 58.512 247.452 58.512H245.124V61.536H247.452ZM256.399 66C256.039 66 255.779 65.904 255.619 65.712C255.467 65.52 255.371 65.28 255.331 64.992H255.271C255.135 65.376 254.911 65.664 254.599 65.856C254.287 66.048 253.915 66.144 253.483 66.144C252.827 66.144 252.315 65.976 251.947 65.64C251.587 65.304 251.407 64.848 251.407 64.272C251.407 63.688 251.619 63.24 252.043 62.928C252.475 62.616 253.143 62.46 254.047 62.46H255.271V61.848C255.271 61.408 255.151 61.072 254.911 60.84C254.671 60.608 254.303 60.492 253.807 60.492C253.431 60.492 253.115 60.576 252.859 60.744C252.611 60.912 252.403 61.136 252.235 61.416L251.659 60.876C251.827 60.54 252.095 60.256 252.463 60.024C252.831 59.784 253.295 59.664 253.855 59.664C254.607 59.664 255.191 59.848 255.607 60.216C256.023 60.584 256.231 61.096 256.231 61.752V65.16H256.939V66H256.399ZM253.639 65.328C253.879 65.328 254.099 65.3 254.299 65.244C254.499 65.188 254.671 65.108 254.815 65.004C254.959 64.9 255.071 64.78 255.151 64.644C255.231 64.508 255.271 64.36 255.271 64.2V63.18H253.999C253.447 63.18 253.043 63.26 252.787 63.42C252.539 63.58 252.415 63.812 252.415 64.116V64.368C252.415 64.672 252.523 64.908 252.739 65.076C252.963 65.244 253.263 65.328 253.639 65.328ZM258.629 66V59.808H259.589V60.816H259.637C259.789 60.464 260.001 60.184 260.273 59.976C260.553 59.768 260.925 59.664 261.389 59.664C262.029 59.664 262.533 59.872 262.901 60.288C263.277 60.696 263.465 61.276 263.465 62.028V66H262.505V62.196C262.505 61.084 262.037 60.528 261.101 60.528C260.909 60.528 260.721 60.552 260.537 60.6C260.361 60.648 260.201 60.72 260.057 60.816C259.913 60.912 259.797 61.036 259.709 61.188C259.629 61.332 259.589 61.504 259.589 61.704V66H258.629ZM269.729 64.992H269.681C269.305 65.76 268.701 66.144 267.869 66.144C267.485 66.144 267.137 66.068 266.825 65.916C266.513 65.764 266.245 65.548 266.021 65.268C265.805 64.988 265.637 64.648 265.517 64.248C265.405 63.848 265.349 63.4 265.349 62.904C265.349 62.408 265.405 61.96 265.517 61.56C265.637 61.16 265.805 60.82 266.021 60.54C266.245 60.26 266.513 60.044 266.825 59.892C267.137 59.74 267.485 59.664 267.869 59.664C268.301 59.664 268.669 59.76 268.973 59.952C269.285 60.136 269.521 60.424 269.681 60.816H269.729V57.12H270.689V66H269.729V64.992ZM268.133 65.28C268.349 65.28 268.553 65.252 268.745 65.196C268.945 65.14 269.117 65.06 269.261 64.956C269.405 64.844 269.517 64.712 269.597 64.56C269.685 64.4 269.729 64.22 269.729 64.02V61.716C269.729 61.548 269.685 61.392 269.597 61.248C269.517 61.096 269.405 60.968 269.261 60.864C269.117 60.76 268.945 60.68 268.745 60.624C268.553 60.56 268.349 60.528 268.133 60.528C267.589 60.528 267.161 60.7 266.849 61.044C266.537 61.38 266.381 61.824 266.381 62.376V63.432C266.381 63.984 266.537 64.432 266.849 64.776C267.161 65.112 267.589 65.28 268.133 65.28ZM275.39 66.144C274.974 66.144 274.594 66.068 274.25 65.916C273.906 65.764 273.61 65.548 273.362 65.268C273.122 64.98 272.934 64.64 272.798 64.248C272.662 63.848 272.594 63.4 272.594 62.904C272.594 62.416 272.662 61.972 272.798 61.572C272.934 61.172 273.122 60.832 273.362 60.552C273.61 60.264 273.906 60.044 274.25 59.892C274.594 59.74 274.974 59.664 275.39 59.664C275.806 59.664 276.182 59.74 276.518 59.892C276.862 60.044 277.158 60.264 277.406 60.552C277.654 60.832 277.846 61.172 277.982 61.572C278.118 61.972 278.186 62.416 278.186 62.904C278.186 63.4 278.118 63.848 277.982 64.248C277.846 64.64 277.654 64.98 277.406 65.268C277.158 65.548 276.862 65.764 276.518 65.916C276.182 66.068 275.806 66.144 275.39 66.144ZM275.39 65.292C275.91 65.292 276.334 65.132 276.662 64.812C276.99 64.492 277.154 64.004 277.154 63.348V62.46C277.154 61.804 276.99 61.316 276.662 60.996C276.334 60.676 275.91 60.516 275.39 60.516C274.87 60.516 274.446 60.676 274.118 60.996C273.79 61.316 273.626 61.804 273.626 62.46V63.348C273.626 64.004 273.79 64.492 274.118 64.812C274.446 65.132 274.87 65.292 275.39 65.292ZM280.085 66V59.808H281.045V60.816H281.093C281.165 60.656 281.245 60.508 281.333 60.372C281.429 60.228 281.541 60.104 281.669 60C281.805 59.896 281.961 59.816 282.137 59.76C282.313 59.696 282.521 59.664 282.761 59.664C283.169 59.664 283.545 59.764 283.889 59.964C284.233 60.156 284.489 60.476 284.657 60.924H284.681C284.793 60.588 285.001 60.296 285.305 60.048C285.617 59.792 286.037 59.664 286.565 59.664C287.197 59.664 287.689 59.872 288.041 60.288C288.401 60.696 288.581 61.276 288.581 62.028V66H287.621V62.196C287.621 61.644 287.513 61.228 287.297 60.948C287.081 60.668 286.737 60.528 286.265 60.528C286.073 60.528 285.889 60.552 285.713 60.6C285.545 60.648 285.393 60.72 285.257 60.816C285.121 60.912 285.013 61.036 284.933 61.188C284.853 61.332 284.813 61.504 284.813 61.704V66H283.853V62.196C283.853 61.644 283.745 61.228 283.529 60.948C283.313 60.668 282.977 60.528 282.521 60.528C282.329 60.528 282.145 60.552 281.969 60.6C281.793 60.648 281.637 60.72 281.501 60.816C281.365 60.912 281.253 61.036 281.165 61.188C281.085 61.332 281.045 61.504 281.045 61.704V66H280.085ZM299.257 66.684C299.257 67.324 299.005 67.792 298.501 68.088C298.005 68.392 297.257 68.544 296.257 68.544C295.289 68.544 294.593 68.412 294.169 68.148C293.745 67.884 293.533 67.508 293.533 67.02C293.533 66.684 293.621 66.42 293.797 66.228C293.973 66.044 294.213 65.908 294.517 65.82V65.688C294.149 65.512 293.965 65.224 293.965 64.824C293.965 64.512 294.065 64.276 294.265 64.116C294.465 63.948 294.721 63.824 295.033 63.744V63.696C294.665 63.52 294.377 63.268 294.169 62.94C293.969 62.612 293.869 62.232 293.869 61.8C293.869 61.488 293.925 61.2 294.037 60.936C294.149 60.672 294.305 60.448 294.505 60.264C294.713 60.072 294.957 59.924 295.237 59.82C295.525 59.716 295.845 59.664 296.197 59.664C296.637 59.664 297.029 59.744 297.373 59.904V59.796C297.373 59.556 297.429 59.36 297.541 59.208C297.653 59.048 297.837 58.968 298.093 58.968H299.017V59.808H297.841V60.204C298.065 60.396 298.237 60.628 298.357 60.9C298.485 61.164 298.549 61.464 298.549 61.8C298.549 62.112 298.493 62.4 298.381 62.664C298.269 62.928 298.109 63.156 297.901 63.348C297.701 63.532 297.457 63.676 297.169 63.78C296.881 63.884 296.561 63.936 296.209 63.936C296.009 63.936 295.809 63.916 295.609 63.876C295.401 63.932 295.213 64.016 295.045 64.128C294.877 64.232 294.793 64.38 294.793 64.572C294.793 64.756 294.881 64.88 295.057 64.944C295.233 65.008 295.461 65.04 295.741 65.04H297.061C297.829 65.04 298.385 65.188 298.729 65.484C299.081 65.772 299.257 66.172 299.257 66.684ZM298.357 66.756C298.357 66.508 298.261 66.308 298.069 66.156C297.885 66.012 297.553 65.94 297.073 65.94H295.009C294.625 66.116 294.433 66.396 294.433 66.78C294.433 67.052 294.533 67.284 294.733 67.476C294.941 67.668 295.289 67.764 295.777 67.764H296.665C297.201 67.764 297.617 67.68 297.913 67.512C298.209 67.344 298.357 67.092 298.357 66.756ZM296.209 63.168C296.617 63.168 296.941 63.072 297.181 62.88C297.421 62.68 297.541 62.376 297.541 61.968V61.632C297.541 61.224 297.421 60.924 297.181 60.732C296.941 60.532 296.617 60.432 296.209 60.432C295.801 60.432 295.477 60.532 295.237 60.732C294.997 60.924 294.877 61.224 294.877 61.632V61.968C294.877 62.376 294.997 62.68 295.237 62.88C295.477 63.072 295.801 63.168 296.209 63.168ZM304.466 64.992H304.418C304.354 65.136 304.274 65.28 304.178 65.424C304.09 65.56 303.978 65.684 303.842 65.796C303.706 65.9 303.542 65.984 303.35 66.048C303.158 66.112 302.934 66.144 302.678 66.144C302.038 66.144 301.53 65.94 301.154 65.532C300.778 65.116 300.59 64.532 300.59 63.78V59.808H301.55V63.612C301.55 64.724 302.022 65.28 302.966 65.28C303.158 65.28 303.342 65.256 303.518 65.208C303.702 65.16 303.862 65.088 303.998 64.992C304.142 64.896 304.254 64.776 304.334 64.632C304.422 64.48 304.466 64.3 304.466 64.092V59.808H305.426V66H304.466V64.992ZM310.119 66.144C309.695 66.144 309.311 66.068 308.967 65.916C308.631 65.764 308.339 65.548 308.091 65.268C307.851 64.98 307.663 64.64 307.527 64.248C307.399 63.848 307.335 63.4 307.335 62.904C307.335 62.416 307.399 61.972 307.527 61.572C307.663 61.172 307.851 60.832 308.091 60.552C308.339 60.264 308.631 60.044 308.967 59.892C309.311 59.74 309.695 59.664 310.119 59.664C310.535 59.664 310.907 59.74 311.235 59.892C311.563 60.044 311.843 60.256 312.075 60.528C312.307 60.792 312.483 61.108 312.603 61.476C312.731 61.844 312.795 62.248 312.795 62.688V63.144H308.343V63.432C308.343 63.696 308.383 63.944 308.463 64.176C308.551 64.4 308.671 64.596 308.823 64.764C308.983 64.932 309.175 65.064 309.399 65.16C309.631 65.256 309.891 65.304 310.179 65.304C310.571 65.304 310.911 65.212 311.199 65.028C311.495 64.844 311.723 64.58 311.883 64.236L312.567 64.728C312.367 65.152 312.055 65.496 311.631 65.76C311.207 66.016 310.703 66.144 310.119 66.144ZM310.119 60.468C309.855 60.468 309.615 60.516 309.399 60.612C309.183 60.7 308.995 60.828 308.835 60.996C308.683 61.164 308.563 61.364 308.475 61.596C308.387 61.82 308.343 62.068 308.343 62.34V62.424H311.763V62.292C311.763 61.74 311.611 61.3 311.307 60.972C311.011 60.636 310.615 60.468 310.119 60.468ZM316.557 66.144C315.981 66.144 315.497 66.036 315.105 65.82C314.721 65.596 314.389 65.3 314.109 64.932L314.793 64.38C315.033 64.684 315.301 64.92 315.597 65.088C315.893 65.248 316.237 65.328 316.629 65.328C317.037 65.328 317.353 65.24 317.577 65.064C317.809 64.888 317.925 64.64 317.925 64.32C317.925 64.08 317.845 63.876 317.685 63.708C317.533 63.532 317.253 63.412 316.845 63.348L316.353 63.276C316.065 63.236 315.801 63.176 315.561 63.096C315.321 63.008 315.109 62.896 314.925 62.76C314.749 62.616 314.609 62.44 314.505 62.232C314.409 62.024 314.361 61.776 314.361 61.488C314.361 61.184 314.417 60.92 314.529 60.696C314.641 60.464 314.793 60.272 314.985 60.12C315.185 59.968 315.421 59.856 315.693 59.784C315.965 59.704 316.257 59.664 316.569 59.664C317.073 59.664 317.493 59.752 317.829 59.928C318.173 60.104 318.473 60.348 318.729 60.66L318.093 61.236C317.957 61.044 317.757 60.872 317.493 60.72C317.229 60.56 316.897 60.48 316.497 60.48C316.097 60.48 315.793 60.568 315.585 60.744C315.385 60.912 315.285 61.144 315.285 61.44C315.285 61.744 315.385 61.964 315.585 62.1C315.793 62.236 316.089 62.336 316.473 62.4L316.953 62.472C317.641 62.576 318.129 62.776 318.417 63.072C318.705 63.36 318.849 63.74 318.849 64.212C318.849 64.812 318.645 65.284 318.237 65.628C317.829 65.972 317.269 66.144 316.557 66.144ZM322.654 66.144C322.078 66.144 321.594 66.036 321.202 65.82C320.818 65.596 320.486 65.3 320.206 64.932L320.89 64.38C321.13 64.684 321.398 64.92 321.694 65.088C321.99 65.248 322.334 65.328 322.726 65.328C323.134 65.328 323.45 65.24 323.674 65.064C323.906 64.888 324.022 64.64 324.022 64.32C324.022 64.08 323.942 63.876 323.782 63.708C323.63 63.532 323.35 63.412 322.942 63.348L322.45 63.276C322.162 63.236 321.898 63.176 321.658 63.096C321.418 63.008 321.206 62.896 321.022 62.76C320.846 62.616 320.706 62.44 320.602 62.232C320.506 62.024 320.458 61.776 320.458 61.488C320.458 61.184 320.514 60.92 320.626 60.696C320.738 60.464 320.89 60.272 321.082 60.12C321.282 59.968 321.518 59.856 321.79 59.784C322.062 59.704 322.354 59.664 322.666 59.664C323.17 59.664 323.59 59.752 323.926 59.928C324.27 60.104 324.57 60.348 324.826 60.66L324.19 61.236C324.054 61.044 323.854 60.872 323.59 60.72C323.326 60.56 322.994 60.48 322.594 60.48C322.194 60.48 321.89 60.568 321.682 60.744C321.482 60.912 321.382 61.144 321.382 61.44C321.382 61.744 321.482 61.964 321.682 62.1C321.89 62.236 322.186 62.336 322.57 62.4L323.05 62.472C323.738 62.576 324.226 62.776 324.514 63.072C324.802 63.36 324.946 63.74 324.946 64.212C324.946 64.812 324.742 65.284 324.334 65.628C323.926 65.972 323.366 66.144 322.654 66.144ZM327.442 58.356C327.234 58.356 327.082 58.308 326.986 58.212C326.898 58.108 326.854 57.976 326.854 57.816V57.66C326.854 57.5 326.898 57.372 326.986 57.276C327.082 57.172 327.234 57.12 327.442 57.12C327.65 57.12 327.798 57.172 327.886 57.276C327.982 57.372 328.03 57.5 328.03 57.66V57.816C328.03 57.976 327.982 58.108 327.886 58.212C327.798 58.308 327.65 58.356 327.442 58.356ZM326.962 59.808H327.922V66H326.962V59.808ZM330.282 66V59.808H331.242V60.816H331.29C331.442 60.464 331.654 60.184 331.926 59.976C332.206 59.768 332.578 59.664 333.042 59.664C333.682 59.664 334.186 59.872 334.554 60.288C334.93 60.696 335.118 61.276 335.118 62.028V66H334.158V62.196C334.158 61.084 333.69 60.528 332.754 60.528C332.562 60.528 332.374 60.552 332.19 60.6C332.014 60.648 331.854 60.72 331.71 60.816C331.566 60.912 331.45 61.036 331.362 61.188C331.282 61.332 331.242 61.504 331.242 61.704V66H330.282ZM342.642 66.684C342.642 67.324 342.39 67.792 341.886 68.088C341.39 68.392 340.642 68.544 339.642 68.544C338.674 68.544 337.978 68.412 337.554 68.148C337.13 67.884 336.918 67.508 336.918 67.02C336.918 66.684 337.006 66.42 337.182 66.228C337.358 66.044 337.598 65.908 337.902 65.82V65.688C337.534 65.512 337.35 65.224 337.35 64.824C337.35 64.512 337.45 64.276 337.65 64.116C337.85 63.948 338.106 63.824 338.418 63.744V63.696C338.05 63.52 337.762 63.268 337.554 62.94C337.354 62.612 337.254 62.232 337.254 61.8C337.254 61.488 337.31 61.2 337.422 60.936C337.534 60.672 337.69 60.448 337.89 60.264C338.098 60.072 338.342 59.924 338.622 59.82C338.91 59.716 339.23 59.664 339.582 59.664C340.022 59.664 340.414 59.744 340.758 59.904V59.796C340.758 59.556 340.814 59.36 340.926 59.208C341.038 59.048 341.222 58.968 341.478 58.968H342.402V59.808H341.226V60.204C341.45 60.396 341.622 60.628 341.742 60.9C341.87 61.164 341.934 61.464 341.934 61.8C341.934 62.112 341.878 62.4 341.766 62.664C341.654 62.928 341.494 63.156 341.286 63.348C341.086 63.532 340.842 63.676 340.554 63.78C340.266 63.884 339.946 63.936 339.594 63.936C339.394 63.936 339.194 63.916 338.994 63.876C338.786 63.932 338.598 64.016 338.43 64.128C338.262 64.232 338.178 64.38 338.178 64.572C338.178 64.756 338.266 64.88 338.442 64.944C338.618 65.008 338.846 65.04 339.126 65.04H340.446C341.214 65.04 341.77 65.188 342.114 65.484C342.466 65.772 342.642 66.172 342.642 66.684ZM341.742 66.756C341.742 66.508 341.646 66.308 341.454 66.156C341.27 66.012 340.938 65.94 340.458 65.94H338.394C338.01 66.116 337.818 66.396 337.818 66.78C337.818 67.052 337.918 67.284 338.118 67.476C338.326 67.668 338.674 67.764 339.162 67.764H340.05C340.586 67.764 341.002 67.68 341.298 67.512C341.594 67.344 341.742 67.092 341.742 66.756ZM339.594 63.168C340.002 63.168 340.326 63.072 340.566 62.88C340.806 62.68 340.926 62.376 340.926 61.968V61.632C340.926 61.224 340.806 60.924 340.566 60.732C340.326 60.532 340.002 60.432 339.594 60.432C339.186 60.432 338.862 60.532 338.622 60.732C338.382 60.924 338.262 61.224 338.262 61.632V61.968C338.262 62.376 338.382 62.68 338.622 62.88C338.862 63.072 339.186 63.168 339.594 63.168Z"/><path fill="#6929C4" d="M377.521 241.649L381.2 239.477L377 238.695L377.521 241.649Z"/><path fill="#1192E8" d="M349.121 68.4497L350.889 64.5607L347 66.3284L349.121 68.4497Z"/><line x1="36.645" x2="348.645" y1="381.648" y2="66.648" stroke="#1192E8"/></svg>