<svg xmlns="http://www.w3.org/2000/svg" width="417" height="411" fill="none" viewBox="0 0 417 411"><rect width="384" height="48" x="33" y="336" fill="#F2F4F8" opacity=".4"/><rect width="384" height="48" x="33" y="240" fill="#F2F4F8" opacity=".4"/><rect width="384" height="48" x="33" y="144" fill="#F2F4F8" opacity=".4"/><rect width="384" height="48" x="33" y="48" fill="#F2F4F8" opacity=".4"/><path fill="#000" d="M69.1485 407V397.228H73.5445C73.9925 397.228 74.3938 397.303 74.7485 397.452C75.1125 397.592 75.4205 397.797 75.6725 398.068C75.9245 398.329 76.1158 398.647 76.2465 399.02C76.3772 399.393 76.4425 399.804 76.4425 400.252C76.4425 400.709 76.3772 401.125 76.2465 401.498C76.1158 401.862 75.9245 402.179 75.6725 402.45C75.4205 402.711 75.1125 402.917 74.7485 403.066C74.3938 403.206 73.9925 403.276 73.5445 403.276H70.9965V407H69.1485ZM70.9965 401.68H73.3765C73.7312 401.68 74.0112 401.587 74.2165 401.4C74.4218 401.204 74.5245 400.929 74.5245 400.574V399.93C74.5245 399.575 74.4218 399.305 74.2165 399.118C74.0112 398.931 73.7312 398.838 73.3765 398.838H70.9965V401.68ZM78.0285 407V399.692H79.8205V401.204H79.8905C79.9372 401.008 80.0072 400.821 80.1005 400.644C80.2032 400.457 80.3339 400.294 80.4925 400.154C80.6512 400.014 80.8379 399.902 81.0525 399.818C81.2765 399.734 81.5332 399.692 81.8225 399.692H82.2145V401.386H81.6545C81.0479 401.386 80.5905 401.475 80.2825 401.652C79.9745 401.829 79.8205 402.119 79.8205 402.52V407H78.0285ZM86.5143 407.168C85.9916 407.168 85.5203 407.079 85.1003 406.902C84.6896 406.725 84.3349 406.468 84.0363 406.132C83.7469 405.796 83.5229 405.395 83.3643 404.928C83.2056 404.452 83.1263 403.92 83.1263 403.332C83.1263 402.744 83.2056 402.217 83.3643 401.75C83.5229 401.283 83.7469 400.887 84.0363 400.56C84.3349 400.224 84.6896 399.967 85.1003 399.79C85.5203 399.613 85.9916 399.524 86.5143 399.524C87.0369 399.524 87.5083 399.613 87.9283 399.79C88.3483 399.967 88.7029 400.224 88.9923 400.56C89.2909 400.887 89.5196 401.283 89.6783 401.75C89.8369 402.217 89.9163 402.744 89.9163 403.332C89.9163 403.92 89.8369 404.452 89.6783 404.928C89.5196 405.395 89.2909 405.796 88.9923 406.132C88.7029 406.468 88.3483 406.725 87.9283 406.902C87.5083 407.079 87.0369 407.168 86.5143 407.168ZM86.5143 405.726C86.9903 405.726 87.3636 405.581 87.6343 405.292C87.9049 405.003 88.0403 404.578 88.0403 404.018V402.66C88.0403 402.109 87.9049 401.689 87.6343 401.4C87.3636 401.111 86.9903 400.966 86.5143 400.966C86.0476 400.966 85.6789 401.111 85.4083 401.4C85.1376 401.689 85.0023 402.109 85.0023 402.66V404.018C85.0023 404.578 85.1376 405.003 85.4083 405.292C85.6789 405.581 86.0476 405.726 86.5143 405.726ZM91.6649 396.64H93.4569V400.896H93.5129C93.6436 400.476 93.8909 400.145 94.2549 399.902C94.6189 399.65 95.0436 399.524 95.5289 399.524C96.4623 399.524 97.1716 399.855 97.6569 400.518C98.1516 401.171 98.3989 402.109 98.3989 403.332C98.3989 404.564 98.1516 405.511 97.6569 406.174C97.1716 406.837 96.4623 407.168 95.5289 407.168C95.0436 407.168 94.6189 407.042 94.2549 406.79C93.9003 406.538 93.6529 406.202 93.5129 405.782H93.4569V407H91.6649V396.64ZM94.9549 405.684C95.4216 405.684 95.7996 405.53 96.0889 405.222C96.3783 404.914 96.5229 404.499 96.5229 403.976V402.716C96.5229 402.193 96.3783 401.778 96.0889 401.47C95.7996 401.153 95.4216 400.994 94.9549 400.994C94.5256 400.994 94.1663 401.101 93.8769 401.316C93.5969 401.531 93.4569 401.815 93.4569 402.17V404.494C93.4569 404.877 93.5969 405.171 93.8769 405.376C94.1663 405.581 94.5256 405.684 94.9549 405.684ZM102.011 407C101.395 407 100.943 406.846 100.653 406.538C100.364 406.23 100.219 405.796 100.219 405.236V396.64H102.011V405.572H102.977V407H102.011ZM107.449 407.168C106.907 407.168 106.422 407.079 105.993 406.902C105.573 406.715 105.213 406.459 104.915 406.132C104.625 405.796 104.401 405.395 104.243 404.928C104.084 404.452 104.005 403.92 104.005 403.332C104.005 402.753 104.079 402.231 104.229 401.764C104.387 401.297 104.611 400.901 104.901 400.574C105.19 400.238 105.545 399.981 105.965 399.804C106.385 399.617 106.861 399.524 107.393 399.524C107.962 399.524 108.457 399.622 108.877 399.818C109.297 400.014 109.642 400.28 109.913 400.616C110.183 400.952 110.384 401.344 110.515 401.792C110.655 402.231 110.725 402.702 110.725 403.206V403.794H105.867V403.976C105.867 404.508 106.016 404.937 106.315 405.264C106.613 405.581 107.057 405.74 107.645 405.74C108.093 405.74 108.457 405.647 108.737 405.46C109.026 405.273 109.283 405.035 109.507 404.746L110.473 405.824C110.174 406.244 109.763 406.575 109.241 406.818C108.727 407.051 108.13 407.168 107.449 407.168ZM107.421 400.868C106.945 400.868 106.567 401.027 106.287 401.344C106.007 401.661 105.867 402.072 105.867 402.576V402.688H108.863V402.562C108.863 402.058 108.737 401.652 108.485 401.344C108.242 401.027 107.887 400.868 107.421 400.868ZM112.461 407V399.692H114.253V400.91H114.323C114.463 400.527 114.687 400.201 114.995 399.93C115.303 399.659 115.733 399.524 116.283 399.524C116.787 399.524 117.221 399.645 117.585 399.888C117.949 400.131 118.22 400.499 118.397 400.994H118.425C118.556 400.583 118.813 400.238 119.195 399.958C119.587 399.669 120.077 399.524 120.665 399.524C121.384 399.524 121.935 399.771 122.317 400.266C122.709 400.761 122.905 401.465 122.905 402.38V407H121.113V402.562C121.113 401.517 120.721 400.994 119.937 400.994C119.76 400.994 119.587 401.022 119.419 401.078C119.261 401.125 119.116 401.199 118.985 401.302C118.864 401.395 118.766 401.517 118.691 401.666C118.617 401.806 118.579 401.974 118.579 402.17V407H116.787V402.562C116.787 401.517 116.395 400.994 115.611 400.994C115.443 400.994 115.275 401.022 115.107 401.078C114.949 401.125 114.804 401.199 114.673 401.302C114.552 401.395 114.449 401.517 114.365 401.666C114.291 401.806 114.253 401.974 114.253 402.17V407H112.461ZM130.912 407.168C130.212 407.168 129.624 407.051 129.148 406.818C128.672 406.575 128.252 406.244 127.888 405.824L128.98 404.76C129.25 405.068 129.544 405.311 129.862 405.488C130.188 405.665 130.562 405.754 130.982 405.754C131.411 405.754 131.719 405.679 131.906 405.53C132.102 405.381 132.2 405.175 132.2 404.914C132.2 404.699 132.13 404.531 131.99 404.41C131.859 404.279 131.63 404.191 131.304 404.144L130.576 404.046C129.782 403.943 129.176 403.719 128.756 403.374C128.345 403.019 128.14 402.506 128.14 401.834C128.14 401.479 128.205 401.162 128.336 400.882C128.466 400.593 128.653 400.35 128.896 400.154C129.138 399.949 129.428 399.795 129.764 399.692C130.109 399.58 130.492 399.524 130.912 399.524C131.266 399.524 131.579 399.552 131.85 399.608C132.13 399.655 132.382 399.729 132.606 399.832C132.83 399.925 133.035 400.047 133.222 400.196C133.408 400.336 133.59 400.495 133.768 400.672L132.718 401.722C132.503 401.498 132.246 401.311 131.948 401.162C131.649 401.013 131.322 400.938 130.968 400.938C130.576 400.938 130.291 401.008 130.114 401.148C129.946 401.288 129.862 401.47 129.862 401.694C129.862 401.937 129.932 402.123 130.072 402.254C130.221 402.375 130.468 402.464 130.814 402.52L131.556 402.618C133.133 402.842 133.922 403.561 133.922 404.774C133.922 405.129 133.847 405.455 133.698 405.754C133.558 406.043 133.357 406.295 133.096 406.51C132.834 406.715 132.517 406.879 132.144 407C131.78 407.112 131.369 407.168 130.912 407.168ZM136.56 398.628C136.187 398.628 135.916 398.544 135.748 398.376C135.589 398.208 135.51 397.993 135.51 397.732V397.452C135.51 397.191 135.589 396.976 135.748 396.808C135.916 396.64 136.187 396.556 136.56 396.556C136.924 396.556 137.19 396.64 137.358 396.808C137.526 396.976 137.61 397.191 137.61 397.452V397.732C137.61 397.993 137.526 398.208 137.358 398.376C137.19 398.544 136.924 398.628 136.56 398.628ZM135.664 399.692H137.456V407H135.664V399.692ZM139.175 407V405.572L142.969 401.106H139.301V399.692H145.069V401.078L141.247 405.572H145.167V407H139.175ZM149.684 407.168C149.143 407.168 148.657 407.079 148.228 406.902C147.808 406.715 147.449 406.459 147.15 406.132C146.861 405.796 146.637 405.395 146.478 404.928C146.319 404.452 146.24 403.92 146.24 403.332C146.24 402.753 146.315 402.231 146.464 401.764C146.623 401.297 146.847 400.901 147.136 400.574C147.425 400.238 147.78 399.981 148.2 399.804C148.62 399.617 149.096 399.524 149.628 399.524C150.197 399.524 150.692 399.622 151.112 399.818C151.532 400.014 151.877 400.28 152.148 400.616C152.419 400.952 152.619 401.344 152.75 401.792C152.89 402.231 152.96 402.702 152.96 403.206V403.794H148.102V403.976C148.102 404.508 148.251 404.937 148.55 405.264C148.849 405.581 149.292 405.74 149.88 405.74C150.328 405.74 150.692 405.647 150.972 405.46C151.261 405.273 151.518 405.035 151.742 404.746L152.708 405.824C152.409 406.244 151.999 406.575 151.476 406.818C150.963 407.051 150.365 407.168 149.684 407.168ZM149.656 400.868C149.18 400.868 148.802 401.027 148.522 401.344C148.242 401.661 148.102 402.072 148.102 402.576V402.688H151.098V402.562C151.098 402.058 150.972 401.652 150.72 401.344C150.477 401.027 150.123 400.868 149.656 400.868ZM157.829 402.632C157.829 401.96 157.89 401.311 158.011 400.686C158.142 400.061 158.315 399.482 158.529 398.95C158.753 398.409 159.015 397.919 159.313 397.48C159.612 397.041 159.939 396.668 160.293 396.36H161.987C161.605 396.715 161.259 397.107 160.951 397.536C160.653 397.965 160.396 398.427 160.181 398.922C159.967 399.407 159.799 399.921 159.677 400.462C159.565 401.003 159.509 401.559 159.509 402.128V403.164C159.509 403.743 159.565 404.307 159.677 404.858C159.799 405.399 159.967 405.917 160.181 406.412C160.405 406.897 160.667 407.355 160.965 407.784C161.273 408.213 161.614 408.596 161.987 408.932H160.293C159.948 408.643 159.626 408.279 159.327 407.84C159.029 407.401 158.767 406.911 158.543 406.37C158.319 405.819 158.142 405.231 158.011 404.606C157.89 403.971 157.829 403.313 157.829 402.632ZM163.042 407V399.692H164.834V400.91H164.904C165.053 400.518 165.287 400.191 165.604 399.93C165.931 399.659 166.379 399.524 166.948 399.524C167.704 399.524 168.283 399.771 168.684 400.266C169.085 400.761 169.286 401.465 169.286 402.38V407H167.494V402.562C167.494 402.039 167.401 401.647 167.214 401.386C167.027 401.125 166.719 400.994 166.29 400.994C166.103 400.994 165.921 401.022 165.744 401.078C165.576 401.125 165.422 401.199 165.282 401.302C165.151 401.395 165.044 401.517 164.96 401.666C164.876 401.806 164.834 401.974 164.834 402.17V407H163.042ZM175.801 405.782H175.731C175.665 405.969 175.577 406.146 175.465 406.314C175.362 406.473 175.227 406.617 175.059 406.748C174.9 406.879 174.704 406.981 174.471 407.056C174.247 407.131 173.985 407.168 173.687 407.168C172.931 407.168 172.352 406.921 171.951 406.426C171.549 405.931 171.349 405.227 171.349 404.312V399.692H173.141V404.13C173.141 404.634 173.239 405.021 173.435 405.292C173.631 405.553 173.943 405.684 174.373 405.684C174.55 405.684 174.723 405.661 174.891 405.614C175.068 405.567 175.222 405.497 175.353 405.404C175.483 405.301 175.591 405.18 175.675 405.04C175.759 404.891 175.801 404.718 175.801 404.522V399.692H177.593V407H175.801V405.782ZM179.823 407V399.692H181.615V400.91H181.685C181.825 400.527 182.049 400.201 182.357 399.93C182.665 399.659 183.094 399.524 183.645 399.524C184.149 399.524 184.583 399.645 184.947 399.888C185.311 400.131 185.582 400.499 185.759 400.994H185.787C185.918 400.583 186.174 400.238 186.557 399.958C186.949 399.669 187.439 399.524 188.027 399.524C188.746 399.524 189.296 399.771 189.679 400.266C190.071 400.761 190.267 401.465 190.267 402.38V407H188.475V402.562C188.475 401.517 188.083 400.994 187.299 400.994C187.122 400.994 186.949 401.022 186.781 401.078C186.622 401.125 186.478 401.199 186.347 401.302C186.226 401.395 186.128 401.517 186.053 401.666C185.978 401.806 185.941 401.974 185.941 402.17V407H184.149V402.562C184.149 401.517 183.757 400.994 182.973 400.994C182.805 400.994 182.637 401.022 182.469 401.078C182.31 401.125 182.166 401.199 182.035 401.302C181.914 401.395 181.811 401.517 181.727 401.666C181.652 401.806 181.615 401.974 181.615 402.17V407H179.823ZM192.411 396.64H194.203V400.896H194.259C194.389 400.476 194.637 400.145 195.001 399.902C195.365 399.65 195.789 399.524 196.275 399.524C197.208 399.524 197.917 399.855 198.403 400.518C198.897 401.171 199.145 402.109 199.145 403.332C199.145 404.564 198.897 405.511 198.403 406.174C197.917 406.837 197.208 407.168 196.275 407.168C195.789 407.168 195.365 407.042 195.001 406.79C194.646 406.538 194.399 406.202 194.259 405.782H194.203V407H192.411V396.64ZM195.701 405.684C196.167 405.684 196.545 405.53 196.835 405.222C197.124 404.914 197.269 404.499 197.269 403.976V402.716C197.269 402.193 197.124 401.778 196.835 401.47C196.545 401.153 196.167 400.994 195.701 400.994C195.271 400.994 194.912 401.101 194.623 401.316C194.343 401.531 194.203 401.815 194.203 402.17V404.494C194.203 404.877 194.343 405.171 194.623 405.376C194.912 405.581 195.271 405.684 195.701 405.684ZM203.919 407.168C203.378 407.168 202.893 407.079 202.463 406.902C202.043 406.715 201.684 406.459 201.385 406.132C201.096 405.796 200.872 405.395 200.713 404.928C200.555 404.452 200.475 403.92 200.475 403.332C200.475 402.753 200.55 402.231 200.699 401.764C200.858 401.297 201.082 400.901 201.371 400.574C201.661 400.238 202.015 399.981 202.435 399.804C202.855 399.617 203.331 399.524 203.863 399.524C204.433 399.524 204.927 399.622 205.347 399.818C205.767 400.014 206.113 400.28 206.383 400.616C206.654 400.952 206.855 401.344 206.985 401.792C207.125 402.231 207.195 402.702 207.195 403.206V403.794H202.337V403.976C202.337 404.508 202.487 404.937 202.785 405.264C203.084 405.581 203.527 405.74 204.115 405.74C204.563 405.74 204.927 405.647 205.207 405.46C205.497 405.273 205.753 405.035 205.977 404.746L206.943 405.824C206.645 406.244 206.234 406.575 205.711 406.818C205.198 407.051 204.601 407.168 203.919 407.168ZM203.891 400.868C203.415 400.868 203.037 401.027 202.757 401.344C202.477 401.661 202.337 402.072 202.337 402.576V402.688H205.333V402.562C205.333 402.058 205.207 401.652 204.955 401.344C204.713 401.027 204.358 400.868 203.891 400.868ZM208.932 407V399.692H210.724V401.204H210.794C210.841 401.008 210.911 400.821 211.004 400.644C211.107 400.457 211.237 400.294 211.396 400.154C211.555 400.014 211.741 399.902 211.956 399.818C212.18 399.734 212.437 399.692 212.726 399.692H213.118V401.386H212.558C211.951 401.386 211.494 401.475 211.186 401.652C210.878 401.829 210.724 402.119 210.724 402.52V407H208.932ZM220.955 407.168C220.432 407.168 219.961 407.079 219.541 406.902C219.13 406.725 218.775 406.468 218.477 406.132C218.187 405.796 217.963 405.395 217.805 404.928C217.646 404.452 217.567 403.92 217.567 403.332C217.567 402.744 217.646 402.217 217.805 401.75C217.963 401.283 218.187 400.887 218.477 400.56C218.775 400.224 219.13 399.967 219.541 399.79C219.961 399.613 220.432 399.524 220.955 399.524C221.477 399.524 221.949 399.613 222.369 399.79C222.789 399.967 223.143 400.224 223.433 400.56C223.731 400.887 223.96 401.283 224.119 401.75C224.277 402.217 224.357 402.744 224.357 403.332C224.357 403.92 224.277 404.452 224.119 404.928C223.96 405.395 223.731 405.796 223.433 406.132C223.143 406.468 222.789 406.725 222.369 406.902C221.949 407.079 221.477 407.168 220.955 407.168ZM220.955 405.726C221.431 405.726 221.804 405.581 222.075 405.292C222.345 405.003 222.481 404.578 222.481 404.018V402.66C222.481 402.109 222.345 401.689 222.075 401.4C221.804 401.111 221.431 400.966 220.955 400.966C220.488 400.966 220.119 401.111 219.849 401.4C219.578 401.689 219.443 402.109 219.443 402.66V404.018C219.443 404.578 219.578 405.003 219.849 405.292C220.119 405.581 220.488 405.726 220.955 405.726ZM226.387 401.106H225.309V399.692H226.387V398.642C226.387 397.998 226.555 397.503 226.891 397.158C227.237 396.813 227.741 396.64 228.403 396.64H229.677V398.068H228.179V399.692H229.677V401.106H228.179V407H226.387V401.106ZM234.546 396.64H236.338V400.896H236.394C236.525 400.476 236.772 400.145 237.136 399.902C237.5 399.65 237.925 399.524 238.41 399.524C239.344 399.524 240.053 399.855 240.538 400.518C241.033 401.171 241.28 402.109 241.28 403.332C241.28 404.564 241.033 405.511 240.538 406.174C240.053 406.837 239.344 407.168 238.41 407.168C237.925 407.168 237.5 407.042 237.136 406.79C236.782 406.538 236.534 406.202 236.394 405.782H236.338V407H234.546V396.64ZM237.836 405.684C238.303 405.684 238.681 405.53 238.97 405.222C239.26 404.914 239.404 404.499 239.404 403.976V402.716C239.404 402.193 239.26 401.778 238.97 401.47C238.681 401.153 238.303 400.994 237.836 400.994C237.407 400.994 237.048 401.101 236.758 401.316C236.478 401.531 236.338 401.815 236.338 402.17V404.494C236.338 404.877 236.478 405.171 236.758 405.376C237.048 405.581 237.407 405.684 237.836 405.684ZM243.997 398.628C243.624 398.628 243.353 398.544 243.185 398.376C243.026 398.208 242.947 397.993 242.947 397.732V397.452C242.947 397.191 243.026 396.976 243.185 396.808C243.353 396.64 243.624 396.556 243.997 396.556C244.361 396.556 244.627 396.64 244.795 396.808C244.963 396.976 245.047 397.191 245.047 397.452V397.732C245.047 397.993 244.963 398.208 244.795 398.376C244.627 398.544 244.361 398.628 243.997 398.628ZM243.101 399.692H244.893V407H243.101V399.692ZM249.412 407C248.796 407 248.325 406.841 247.998 406.524C247.681 406.197 247.522 405.735 247.522 405.138V401.12H246.444V399.692H247.004C247.275 399.692 247.457 399.631 247.55 399.51C247.653 399.379 247.704 399.188 247.704 398.936V397.69H249.314V399.692H250.812V401.12H249.314V405.572H250.7V407H249.412ZM254.92 407.168C254.22 407.168 253.632 407.051 253.156 406.818C252.68 406.575 252.26 406.244 251.896 405.824L252.988 404.76C253.259 405.068 253.553 405.311 253.87 405.488C254.197 405.665 254.57 405.754 254.99 405.754C255.42 405.754 255.728 405.679 255.914 405.53C256.11 405.381 256.208 405.175 256.208 404.914C256.208 404.699 256.138 404.531 255.998 404.41C255.868 404.279 255.639 404.191 255.312 404.144L254.584 404.046C253.791 403.943 253.184 403.719 252.764 403.374C252.354 403.019 252.148 402.506 252.148 401.834C252.148 401.479 252.214 401.162 252.344 400.882C252.475 400.593 252.662 400.35 252.904 400.154C253.147 399.949 253.436 399.795 253.772 399.692C254.118 399.58 254.5 399.524 254.92 399.524C255.275 399.524 255.588 399.552 255.858 399.608C256.138 399.655 256.39 399.729 256.614 399.832C256.838 399.925 257.044 400.047 257.23 400.196C257.417 400.336 257.599 400.495 257.776 400.672L256.726 401.722C256.512 401.498 256.255 401.311 255.956 401.162C255.658 401.013 255.331 400.938 254.976 400.938C254.584 400.938 254.3 401.008 254.122 401.148C253.954 401.288 253.87 401.47 253.87 401.694C253.87 401.937 253.94 402.123 254.08 402.254C254.23 402.375 254.477 402.464 254.822 402.52L255.564 402.618C257.142 402.842 257.93 403.561 257.93 404.774C257.93 405.129 257.856 405.455 257.706 405.754C257.566 406.043 257.366 406.295 257.104 406.51C256.843 406.715 256.526 406.879 256.152 407C255.788 407.112 255.378 407.168 254.92 407.168ZM262.655 402.632C262.655 403.313 262.589 403.971 262.459 404.606C262.337 405.231 262.165 405.819 261.941 406.37C261.717 406.911 261.455 407.401 261.157 407.84C260.858 408.279 260.536 408.643 260.191 408.932H258.497C258.87 408.596 259.206 408.213 259.505 407.784C259.813 407.355 260.074 406.897 260.289 406.412C260.513 405.917 260.681 405.399 260.793 404.858C260.914 404.307 260.975 403.743 260.975 403.164V402.128C260.975 401.559 260.914 401.003 260.793 400.462C260.681 399.921 260.517 399.407 260.303 398.922C260.088 398.427 259.827 397.965 259.519 397.536C259.22 397.107 258.879 396.715 258.497 396.36H260.191C260.545 396.668 260.872 397.041 261.171 397.48C261.469 397.919 261.726 398.409 261.941 398.95C262.165 399.482 262.337 400.061 262.459 400.686C262.589 401.311 262.655 401.96 262.655 402.632Z"/><path fill="#000" d="M14 352.804L11.508 353.588V357.06L14 357.83V359.706L4.228 356.43V354.134L14 350.886V352.804ZM5.908 355.296V355.366L9.926 356.612V354.036L5.908 355.296ZM14 347.606C14 348.222 13.846 348.674 13.538 348.964C13.23 349.253 12.796 349.398 12.236 349.398H3.64V347.606H12.572V346.64H14V347.606ZM14.616 338.529C14.9987 338.529 15.3347 338.599 15.624 338.739C15.9227 338.869 16.17 339.089 16.366 339.397C16.562 339.705 16.7113 340.101 16.814 340.587C16.9167 341.072 16.968 341.665 16.968 342.365C16.968 342.981 16.926 343.503 16.842 343.933C16.7673 344.362 16.6553 344.717 16.506 344.997C16.366 345.267 16.1887 345.463 15.974 345.585C15.7593 345.706 15.5167 345.767 15.246 345.767C14.8353 345.767 14.5133 345.655 14.28 345.431C14.056 345.197 13.9113 344.875 13.846 344.465H13.692C13.6173 344.763 13.4727 344.997 13.258 345.165C13.034 345.323 12.7727 345.403 12.474 345.403C12.2873 345.403 12.124 345.365 11.984 345.291C11.8347 345.216 11.7087 345.118 11.606 344.997C11.5033 344.866 11.4193 344.721 11.354 344.563C11.2793 344.404 11.2233 344.236 11.186 344.059H11.13C10.9247 344.507 10.64 344.843 10.276 345.067C9.912 345.281 9.48733 345.389 9.002 345.389C8.25533 345.389 7.658 345.132 7.21 344.619C6.75267 344.105 6.524 343.354 6.524 342.365C6.524 342.141 6.538 341.921 6.566 341.707C6.594 341.483 6.64067 341.277 6.706 341.091H6.468C5.75867 341.091 5.404 340.745 5.404 340.055V338.921H6.776V340.475H6.972C7.18667 340.092 7.46667 339.807 7.812 339.621C8.15733 339.434 8.554 339.341 9.002 339.341C9.73933 339.341 10.332 339.597 10.78 340.111C11.228 340.615 11.452 341.366 11.452 342.365C11.452 342.794 11.41 343.167 11.326 343.485C11.3913 343.625 11.48 343.746 11.592 343.849C11.6947 343.951 11.8253 344.003 11.984 344.003C12.348 344.003 12.53 343.685 12.53 343.051V341.091C12.53 340.195 12.7167 339.546 13.09 339.145C13.454 338.734 13.9627 338.529 14.616 338.529ZM14.826 340.209C14.5927 340.209 14.4107 340.302 14.28 340.489C14.1493 340.675 14.084 340.997 14.084 341.455V343.947C14.2707 344.199 14.5227 344.325 14.84 344.325C15.12 344.325 15.3393 344.208 15.498 343.975C15.6567 343.741 15.736 343.345 15.736 342.785V341.889C15.736 341.301 15.6613 340.876 15.512 340.615C15.3627 340.344 15.134 340.209 14.826 340.209ZM10.234 342.365C10.234 341.487 9.86067 341.049 9.114 341.049H8.876C8.12933 341.049 7.756 341.487 7.756 342.365C7.756 343.242 8.12933 343.681 8.876 343.681H9.114C9.86067 343.681 10.234 343.242 10.234 342.365ZM14.168 334.518C14.168 335.04 14.0793 335.512 13.902 335.932C13.7247 336.342 13.468 336.697 13.132 336.996C12.796 337.285 12.3947 337.509 11.928 337.668C11.452 337.826 10.92 337.906 10.332 337.906C9.744 337.906 9.21667 337.826 8.75 337.668C8.28333 337.509 7.88667 337.285 7.56 336.996C7.224 336.697 6.96733 336.342 6.79 335.932C6.61267 335.512 6.524 335.04 6.524 334.518C6.524 333.995 6.61267 333.524 6.79 333.104C6.96733 332.684 7.224 332.329 7.56 332.04C7.88667 331.741 8.28333 331.512 8.75 331.354C9.21667 331.195 9.744 331.116 10.332 331.116C10.92 331.116 11.452 331.195 11.928 331.354C12.3947 331.512 12.796 331.741 13.132 332.04C13.468 332.329 13.7247 332.684 13.902 333.104C14.0793 333.524 14.168 333.995 14.168 334.518ZM12.726 334.518C12.726 334.042 12.5813 333.668 12.292 333.398C12.0027 333.127 11.578 332.992 11.018 332.992H9.66C9.10933 332.992 8.68933 333.127 8.4 333.398C8.11067 333.668 7.966 334.042 7.966 334.518C7.966 334.984 8.11067 335.353 8.4 335.624C8.68933 335.894 9.10933 336.03 9.66 336.03H11.018C11.578 336.03 12.0027 335.894 12.292 335.624C12.5813 335.353 12.726 334.984 12.726 334.518ZM14 329.367H6.692V327.575H8.204V327.505C8.008 327.458 7.82133 327.388 7.644 327.295C7.45733 327.192 7.294 327.062 7.154 326.903C7.014 326.744 6.902 326.558 6.818 326.343C6.734 326.119 6.692 325.862 6.692 325.573V325.181H8.386V325.741C8.386 326.348 8.47467 326.805 8.652 327.113C8.82933 327.421 9.11867 327.575 9.52 327.575H14V329.367ZM5.628 322.815C5.628 323.188 5.544 323.459 5.376 323.627C5.208 323.786 4.99333 323.865 4.732 323.865H4.452C4.19067 323.865 3.976 323.786 3.808 323.627C3.64 323.459 3.556 323.188 3.556 322.815C3.556 322.451 3.64 322.185 3.808 322.017C3.976 321.849 4.19067 321.765 4.452 321.765H4.732C4.99333 321.765 5.208 321.849 5.376 322.017C5.544 322.185 5.628 322.451 5.628 322.815ZM6.692 323.711V321.919H14V323.711H6.692ZM14 317.4C14 318.016 13.8413 318.487 13.524 318.814C13.1973 319.131 12.7353 319.29 12.138 319.29H8.12V320.368H6.692V319.808C6.692 319.537 6.63133 319.355 6.51 319.262C6.37933 319.159 6.188 319.108 5.936 319.108H4.69V317.498H6.692V316H8.12V317.498H12.572V316.112H14V317.4ZM3.64 314.285V312.493H7.91V312.423C7.518 312.274 7.19133 312.041 6.93 311.723C6.65933 311.397 6.524 310.949 6.524 310.379C6.524 309.623 6.77133 309.045 7.266 308.643C7.76067 308.242 8.46533 308.041 9.38 308.041H14V309.833H9.562C9.03933 309.833 8.64733 309.927 8.386 310.113C8.12467 310.3 7.994 310.608 7.994 311.037C7.994 311.224 8.022 311.406 8.078 311.583C8.12467 311.751 8.19933 311.905 8.302 312.045C8.39533 312.176 8.51667 312.283 8.666 312.367C8.806 312.451 8.974 312.493 9.17 312.493H14V314.285H3.64ZM14 305.895H6.692V304.103H7.91V304.033C7.52733 303.893 7.20067 303.669 6.93 303.361C6.65933 303.053 6.524 302.624 6.524 302.073C6.524 301.569 6.64533 301.135 6.888 300.771C7.13067 300.407 7.49933 300.136 7.994 299.959V299.931C7.58333 299.8 7.238 299.544 6.958 299.161C6.66867 298.769 6.524 298.279 6.524 297.691C6.524 296.972 6.77133 296.422 7.266 296.039C7.76067 295.647 8.46533 295.451 9.38 295.451H14V297.243H9.562C8.51667 297.243 7.994 297.635 7.994 298.419C7.994 298.596 8.022 298.769 8.078 298.937C8.12467 299.096 8.19933 299.24 8.302 299.371C8.39533 299.492 8.51667 299.59 8.666 299.665C8.806 299.74 8.974 299.777 9.17 299.777H14V301.569H9.562C8.51667 301.569 7.994 301.961 7.994 302.745C7.994 302.913 8.022 303.081 8.078 303.249C8.12467 303.408 8.19933 303.552 8.302 303.683C8.39533 303.804 8.51667 303.907 8.666 303.991C8.806 304.066 8.974 304.103 9.17 304.103H14V305.895ZM14 289.839H6.692V288.047H8.204V287.977C8.008 287.93 7.82133 287.86 7.644 287.767C7.45733 287.664 7.294 287.533 7.154 287.375C7.014 287.216 6.902 287.029 6.818 286.815C6.734 286.591 6.692 286.334 6.692 286.045V285.653H8.386V286.213C8.386 286.819 8.47467 287.277 8.652 287.585C8.82933 287.893 9.11867 288.047 9.52 288.047H14V289.839ZM12.782 279.815V279.885C12.9687 279.95 13.146 280.039 13.314 280.151C13.4727 280.253 13.6173 280.389 13.748 280.557C13.8787 280.715 13.9813 280.911 14.056 281.145C14.1307 281.369 14.168 281.63 14.168 281.929C14.168 282.685 13.9207 283.263 13.426 283.665C12.9313 284.066 12.2267 284.267 11.312 284.267H6.692V282.475H11.13C11.634 282.475 12.0213 282.377 12.292 282.181C12.5533 281.985 12.684 281.672 12.684 281.243C12.684 281.065 12.6607 280.893 12.614 280.725C12.5673 280.547 12.4973 280.393 12.404 280.263C12.3013 280.132 12.18 280.025 12.04 279.941C11.8907 279.857 11.718 279.815 11.522 279.815H6.692V278.023H14V279.815H12.782ZM14 275.792H6.692V274H7.91V273.93C7.518 273.781 7.19133 273.547 6.93 273.23C6.65933 272.903 6.524 272.455 6.524 271.886C6.524 271.13 6.77133 270.551 7.266 270.15C7.76067 269.749 8.46533 269.548 9.38 269.548H14V271.34H9.562C9.03933 271.34 8.64733 271.433 8.386 271.62C8.12467 271.807 7.994 272.115 7.994 272.544C7.994 272.731 8.022 272.913 8.078 273.09C8.12467 273.258 8.19933 273.412 8.302 273.552C8.39533 273.683 8.51667 273.79 8.666 273.874C8.806 273.958 8.974 274 9.17 274H14V275.792ZM14 267.402H6.692V265.61H7.91V265.54C7.518 265.39 7.19133 265.157 6.93 264.84C6.65933 264.513 6.524 264.065 6.524 263.496C6.524 262.74 6.77133 262.161 7.266 261.76C7.76067 261.358 8.46533 261.158 9.38 261.158H14V262.95H9.562C9.03933 262.95 8.64733 263.043 8.386 263.23C8.12467 263.416 7.994 263.724 7.994 264.154C7.994 264.34 8.022 264.522 8.078 264.7C8.12467 264.868 8.19933 265.022 8.302 265.162C8.39533 265.292 8.51667 265.4 8.666 265.484C8.806 265.568 8.974 265.61 9.17 265.61H14V267.402ZM5.628 258.115C5.628 258.488 5.544 258.759 5.376 258.927C5.208 259.086 4.99333 259.165 4.732 259.165H4.452C4.19067 259.165 3.976 259.086 3.808 258.927C3.64 258.759 3.556 258.488 3.556 258.115C3.556 257.751 3.64 257.485 3.808 257.317C3.976 257.149 4.19067 257.065 4.452 257.065H4.732C4.99333 257.065 5.208 257.149 5.376 257.317C5.544 257.485 5.628 257.751 5.628 258.115ZM6.692 259.011V257.219H14V259.011H6.692ZM14 254.982H6.692V253.19H7.91V253.12C7.518 252.971 7.19133 252.737 6.93 252.42C6.65933 252.093 6.524 251.645 6.524 251.076C6.524 250.32 6.77133 249.741 7.266 249.34C7.76067 248.939 8.46533 248.738 9.38 248.738H14V250.53H9.562C9.03933 250.53 8.64733 250.623 8.386 250.81C8.12467 250.997 7.994 251.305 7.994 251.734C7.994 251.921 8.022 252.103 8.078 252.28C8.12467 252.448 8.19933 252.602 8.302 252.742C8.39533 252.873 8.51667 252.98 8.666 253.064C8.806 253.148 8.974 253.19 9.17 253.19H14V254.982ZM14.616 239.998C14.9987 239.998 15.3347 240.068 15.624 240.208C15.9227 240.338 16.17 240.558 16.366 240.866C16.562 241.174 16.7113 241.57 16.814 242.056C16.9167 242.541 16.968 243.134 16.968 243.834C16.968 244.45 16.926 244.972 16.842 245.402C16.7673 245.831 16.6553 246.186 16.506 246.466C16.366 246.736 16.1887 246.932 15.974 247.054C15.7593 247.175 15.5167 247.236 15.246 247.236C14.8353 247.236 14.5133 247.124 14.28 246.9C14.056 246.666 13.9113 246.344 13.846 245.934H13.692C13.6173 246.232 13.4727 246.466 13.258 246.634C13.034 246.792 12.7727 246.872 12.474 246.872C12.2873 246.872 12.124 246.834 11.984 246.76C11.8347 246.685 11.7087 246.587 11.606 246.466C11.5033 246.335 11.4193 246.19 11.354 246.032C11.2793 245.873 11.2233 245.705 11.186 245.528H11.13C10.9247 245.976 10.64 246.312 10.276 246.536C9.912 246.75 9.48733 246.858 9.002 246.858C8.25533 246.858 7.658 246.601 7.21 246.088C6.75267 245.574 6.524 244.823 6.524 243.834C6.524 243.61 6.538 243.39 6.566 243.176C6.594 242.952 6.64067 242.746 6.706 242.56H6.468C5.75867 242.56 5.404 242.214 5.404 241.524V240.39H6.776V241.944H6.972C7.18667 241.561 7.46667 241.276 7.812 241.09C8.15733 240.903 8.554 240.81 9.002 240.81C9.73933 240.81 10.332 241.066 10.78 241.58C11.228 242.084 11.452 242.835 11.452 243.834C11.452 244.263 11.41 244.636 11.326 244.954C11.3913 245.094 11.48 245.215 11.592 245.318C11.6947 245.42 11.8253 245.472 11.984 245.472C12.348 245.472 12.53 245.154 12.53 244.52V242.56C12.53 241.664 12.7167 241.015 13.09 240.614C13.454 240.203 13.9627 239.998 14.616 239.998ZM14.826 241.678C14.5927 241.678 14.4107 241.771 14.28 241.958C14.1493 242.144 14.084 242.466 14.084 242.924V245.416C14.2707 245.668 14.5227 245.794 14.84 245.794C15.12 245.794 15.3393 245.677 15.498 245.444C15.6567 245.21 15.736 244.814 15.736 244.254V243.358C15.736 242.77 15.6613 242.345 15.512 242.084C15.3627 241.813 15.134 241.678 14.826 241.678ZM10.234 243.834C10.234 242.956 9.86067 242.518 9.114 242.518H8.876C8.12933 242.518 7.756 242.956 7.756 243.834C7.756 244.711 8.12933 245.15 8.876 245.15H9.114C9.86067 245.15 10.234 244.711 10.234 243.834ZM14 233.052C14 233.668 13.8413 234.139 13.524 234.466C13.1973 234.783 12.7353 234.942 12.138 234.942H8.12V236.02H6.692V235.46C6.692 235.189 6.63133 235.007 6.51 234.914C6.37933 234.811 6.188 234.76 5.936 234.76H4.69V233.15H6.692V231.652H8.12V233.15H12.572V231.764H14V233.052ZM5.628 229.042C5.628 229.415 5.544 229.686 5.376 229.854C5.208 230.012 4.99333 230.092 4.732 230.092H4.452C4.19067 230.092 3.976 230.012 3.808 229.854C3.64 229.686 3.556 229.415 3.556 229.042C3.556 228.678 3.64 228.412 3.808 228.244C3.976 228.076 4.19067 227.992 4.452 227.992H4.732C4.99333 227.992 5.208 228.076 5.376 228.244C5.544 228.412 5.628 228.678 5.628 229.042ZM6.692 229.938V228.146H14V229.938H6.692ZM14 225.909H6.692V224.117H7.91V224.047C7.52733 223.907 7.20067 223.683 6.93 223.375C6.65933 223.067 6.524 222.637 6.524 222.087C6.524 221.583 6.64533 221.149 6.888 220.785C7.13067 220.421 7.49933 220.15 7.994 219.973V219.945C7.58333 219.814 7.238 219.557 6.958 219.175C6.66867 218.783 6.524 218.293 6.524 217.705C6.524 216.986 6.77133 216.435 7.266 216.053C7.76067 215.661 8.46533 215.465 9.38 215.465H14V217.257H9.562C8.51667 217.257 7.994 217.649 7.994 218.433C7.994 218.61 8.022 218.783 8.078 218.951C8.12467 219.109 8.19933 219.254 8.302 219.385C8.39533 219.506 8.51667 219.604 8.666 219.679C8.806 219.753 8.974 219.791 9.17 219.791H14V221.583H9.562C8.51667 221.583 7.994 221.975 7.994 222.759C7.994 222.927 8.022 223.095 8.078 223.263C8.12467 223.421 8.19933 223.566 8.302 223.697C8.39533 223.818 8.51667 223.921 8.666 224.005C8.806 224.079 8.974 224.117 9.17 224.117H14V225.909ZM14.168 210.367C14.168 210.908 14.0793 211.393 13.902 211.823C13.7153 212.243 13.4587 212.602 13.132 212.901C12.796 213.19 12.3947 213.414 11.928 213.573C11.452 213.731 10.92 213.811 10.332 213.811C9.75333 213.811 9.23067 213.736 8.764 213.587C8.29733 213.428 7.90067 213.204 7.574 212.915C7.238 212.625 6.98133 212.271 6.804 211.851C6.61733 211.431 6.524 210.955 6.524 210.423C6.524 209.853 6.622 209.359 6.818 208.939C7.014 208.519 7.28 208.173 7.616 207.903C7.952 207.632 8.344 207.431 8.792 207.301C9.23067 207.161 9.702 207.091 10.206 207.091H10.794V211.949H10.976C11.508 211.949 11.9373 211.799 12.264 211.501C12.5813 211.202 12.74 210.759 12.74 210.171C12.74 209.723 12.6467 209.359 12.46 209.079C12.2733 208.789 12.0353 208.533 11.746 208.309L12.824 207.343C13.244 207.641 13.5753 208.052 13.818 208.575C14.0513 209.088 14.168 209.685 14.168 210.367ZM7.868 210.395C7.868 210.871 8.02667 211.249 8.344 211.529C8.66133 211.809 9.072 211.949 9.576 211.949H9.688V208.953H9.562C9.058 208.953 8.652 209.079 8.344 209.331C8.02667 209.573 7.868 209.928 7.868 210.395Z"/><line x1="129.5" x2="129.5" y2="384" stroke="#DDE1E6"/><line x1="225.5" x2="225.5" y2="384" stroke="#DDE1E6"/><line x1="321.5" x2="321.5" y2="384" stroke="#DDE1E6"/><rect width="383" height="383" x="33.5" y=".5" stroke="#DDE1E6"/><path fill="#6929C4" d="M125.54 59.776H125.504C125.4 60.168 125.144 60.496 124.736 60.76C124.336 61.016 123.816 61.144 123.176 61.144C122.664 61.144 122.192 61.052 121.76 60.868C121.336 60.676 120.972 60.4 120.668 60.04C120.364 59.672 120.124 59.22 119.948 58.684C119.78 58.14 119.696 57.516 119.696 56.812C119.696 56.116 119.78 55.5 119.948 54.964C120.116 54.42 120.356 53.968 120.668 53.608C120.98 53.24 121.356 52.96 121.796 52.768C122.236 52.576 122.724 52.48 123.26 52.48C124.012 52.48 124.64 52.648 125.144 52.984C125.648 53.32 126.036 53.764 126.308 54.316L125.48 54.82C125.288 54.372 125 54.02 124.616 53.764C124.24 53.508 123.788 53.38 123.26 53.38C122.892 53.38 122.556 53.448 122.252 53.584C121.948 53.712 121.684 53.896 121.46 54.136C121.244 54.376 121.076 54.664 120.956 55C120.836 55.336 120.776 55.712 120.776 56.128V57.484C120.776 57.9 120.836 58.28 120.956 58.624C121.076 58.96 121.244 59.248 121.46 59.488C121.684 59.728 121.956 59.916 122.276 60.052C122.596 60.18 122.956 60.244 123.356 60.244C123.644 60.244 123.916 60.208 124.172 60.136C124.436 60.056 124.664 59.94 124.856 59.788C125.056 59.636 125.212 59.448 125.324 59.224C125.436 58.992 125.492 58.72 125.492 58.408V57.58H123.644V56.692H126.476V61H125.54V59.776ZM128.684 61V54.808H129.644V55.948H129.704C129.816 55.652 130.016 55.388 130.304 55.156C130.592 54.924 130.988 54.808 131.492 54.808H131.864V55.768H131.3C130.78 55.768 130.372 55.868 130.076 56.068C129.788 56.26 129.644 56.504 129.644 56.8V61H128.684ZM135.691 61.144C135.275 61.144 134.895 61.068 134.551 60.916C134.207 60.764 133.911 60.548 133.663 60.268C133.423 59.98 133.235 59.64 133.099 59.248C132.963 58.848 132.895 58.4 132.895 57.904C132.895 57.416 132.963 56.972 133.099 56.572C133.235 56.172 133.423 55.832 133.663 55.552C133.911 55.264 134.207 55.044 134.551 54.892C134.895 54.74 135.275 54.664 135.691 54.664C136.107 54.664 136.483 54.74 136.819 54.892C137.163 55.044 137.459 55.264 137.707 55.552C137.955 55.832 138.147 56.172 138.283 56.572C138.419 56.972 138.487 57.416 138.487 57.904C138.487 58.4 138.419 58.848 138.283 59.248C138.147 59.64 137.955 59.98 137.707 60.268C137.459 60.548 137.163 60.764 136.819 60.916C136.483 61.068 136.107 61.144 135.691 61.144ZM135.691 60.292C136.211 60.292 136.635 60.132 136.963 59.812C137.291 59.492 137.455 59.004 137.455 58.348V57.46C137.455 56.804 137.291 56.316 136.963 55.996C136.635 55.676 136.211 55.516 135.691 55.516C135.171 55.516 134.747 55.676 134.419 55.996C134.091 56.316 133.927 56.804 133.927 57.46V58.348C133.927 59.004 134.091 59.492 134.419 59.812C134.747 60.132 135.171 60.292 135.691 60.292ZM141.66 61L139.488 54.808H140.448L141.528 57.88L142.2 59.992H142.26L142.932 57.88L144.036 54.808H144.96L142.776 61H141.66ZM148.753 61.144C148.329 61.144 147.945 61.068 147.601 60.916C147.265 60.764 146.973 60.548 146.725 60.268C146.485 59.98 146.297 59.64 146.161 59.248C146.033 58.848 145.969 58.4 145.969 57.904C145.969 57.416 146.033 56.972 146.161 56.572C146.297 56.172 146.485 55.832 146.725 55.552C146.973 55.264 147.265 55.044 147.601 54.892C147.945 54.74 148.329 54.664 148.753 54.664C149.169 54.664 149.541 54.74 149.869 54.892C150.197 55.044 150.477 55.256 150.709 55.528C150.941 55.792 151.117 56.108 151.237 56.476C151.365 56.844 151.429 57.248 151.429 57.688V58.144H146.977V58.432C146.977 58.696 147.017 58.944 147.097 59.176C147.185 59.4 147.305 59.596 147.457 59.764C147.617 59.932 147.809 60.064 148.033 60.16C148.265 60.256 148.525 60.304 148.813 60.304C149.205 60.304 149.545 60.212 149.833 60.028C150.129 59.844 150.357 59.58 150.517 59.236L151.201 59.728C151.001 60.152 150.689 60.496 150.265 60.76C149.841 61.016 149.337 61.144 148.753 61.144ZM148.753 55.468C148.489 55.468 148.249 55.516 148.033 55.612C147.817 55.7 147.629 55.828 147.469 55.996C147.317 56.164 147.197 56.364 147.109 56.596C147.021 56.82 146.977 57.068 146.977 57.34V57.424H150.397V57.292C150.397 56.74 150.245 56.3 149.941 55.972C149.645 55.636 149.249 55.468 148.753 55.468ZM153.331 61V54.808H154.291V55.948H154.351C154.463 55.652 154.663 55.388 154.951 55.156C155.239 54.924 155.635 54.808 156.139 54.808H156.511V55.768H155.947C155.427 55.768 155.019 55.868 154.723 56.068C154.435 56.26 154.291 56.504 154.291 56.8V61H153.331ZM159.385 52C159.641 52 159.825 52.068 159.937 52.204C160.057 52.332 160.117 52.5 160.117 52.708V52.876C160.117 53.204 160.021 53.568 159.829 53.968C159.637 54.36 159.369 54.704 159.025 55H158.221C158.461 54.744 158.653 54.504 158.797 54.28C158.949 54.048 159.057 53.792 159.121 53.512C158.961 53.472 158.841 53.396 158.761 53.284C158.689 53.172 158.653 53.036 158.653 52.876V52.708C158.653 52.5 158.709 52.332 158.821 52.204C158.941 52.068 159.129 52 159.385 52ZM163.577 61.144C163.001 61.144 162.517 61.036 162.125 60.82C161.741 60.596 161.409 60.3 161.129 59.932L161.813 59.38C162.053 59.684 162.321 59.92 162.617 60.088C162.913 60.248 163.257 60.328 163.649 60.328C164.057 60.328 164.373 60.24 164.597 60.064C164.829 59.888 164.945 59.64 164.945 59.32C164.945 59.08 164.865 58.876 164.705 58.708C164.553 58.532 164.273 58.412 163.865 58.348L163.373 58.276C163.085 58.236 162.821 58.176 162.581 58.096C162.341 58.008 162.129 57.896 161.945 57.76C161.769 57.616 161.629 57.44 161.525 57.232C161.429 57.024 161.381 56.776 161.381 56.488C161.381 56.184 161.437 55.92 161.549 55.696C161.661 55.464 161.813 55.272 162.005 55.12C162.205 54.968 162.441 54.856 162.713 54.784C162.985 54.704 163.277 54.664 163.589 54.664C164.093 54.664 164.513 54.752 164.849 54.928C165.193 55.104 165.493 55.348 165.749 55.66L165.113 56.236C164.977 56.044 164.777 55.872 164.513 55.72C164.249 55.56 163.917 55.48 163.517 55.48C163.117 55.48 162.813 55.568 162.605 55.744C162.405 55.912 162.305 56.144 162.305 56.44C162.305 56.744 162.405 56.964 162.605 57.1C162.813 57.236 163.109 57.336 163.493 57.4L163.973 57.472C164.661 57.576 165.149 57.776 165.437 58.072C165.725 58.36 165.869 58.74 165.869 59.212C165.869 59.812 165.665 60.284 165.257 60.628C164.849 60.972 164.289 61.144 163.577 61.144ZM124.52 77C124.16 77 123.9 76.904 123.74 76.712C123.588 76.52 123.492 76.28 123.452 75.992H123.392C123.256 76.376 123.032 76.664 122.72 76.856C122.408 77.048 122.036 77.144 121.604 77.144C120.948 77.144 120.436 76.976 120.068 76.64C119.708 76.304 119.528 75.848 119.528 75.272C119.528 74.688 119.74 74.24 120.164 73.928C120.596 73.616 121.264 73.46 122.168 73.46H123.392V72.848C123.392 72.408 123.272 72.072 123.032 71.84C122.792 71.608 122.424 71.492 121.928 71.492C121.552 71.492 121.236 71.576 120.98 71.744C120.732 71.912 120.524 72.136 120.356 72.416L119.78 71.876C119.948 71.54 120.216 71.256 120.584 71.024C120.952 70.784 121.416 70.664 121.976 70.664C122.728 70.664 123.312 70.848 123.728 71.216C124.144 71.584 124.352 72.096 124.352 72.752V76.16H125.06V77H124.52ZM121.76 76.328C122 76.328 122.22 76.3 122.42 76.244C122.62 76.188 122.792 76.108 122.936 76.004C123.08 75.9 123.192 75.78 123.272 75.644C123.352 75.508 123.392 75.36 123.392 75.2V74.18H122.12C121.568 74.18 121.164 74.26 120.908 74.42C120.66 74.58 120.536 74.812 120.536 75.116V75.368C120.536 75.672 120.644 75.908 120.86 76.076C121.084 76.244 121.384 76.328 121.76 76.328ZM127.77 77C127.434 77 127.178 76.908 127.002 76.724C126.834 76.532 126.75 76.292 126.75 76.004V68.12H127.71V76.16H128.622V77H127.77ZM135.56 77.684C135.56 78.324 135.308 78.792 134.804 79.088C134.308 79.392 133.56 79.544 132.56 79.544C131.592 79.544 130.896 79.412 130.472 79.148C130.048 78.884 129.836 78.508 129.836 78.02C129.836 77.684 129.924 77.42 130.1 77.228C130.276 77.044 130.516 76.908 130.82 76.82V76.688C130.452 76.512 130.268 76.224 130.268 75.824C130.268 75.512 130.368 75.276 130.568 75.116C130.768 74.948 131.024 74.824 131.336 74.744V74.696C130.968 74.52 130.68 74.268 130.472 73.94C130.272 73.612 130.172 73.232 130.172 72.8C130.172 72.488 130.228 72.2 130.34 71.936C130.452 71.672 130.608 71.448 130.808 71.264C131.016 71.072 131.26 70.924 131.54 70.82C131.828 70.716 132.148 70.664 132.5 70.664C132.94 70.664 133.332 70.744 133.676 70.904V70.796C133.676 70.556 133.732 70.36 133.844 70.208C133.956 70.048 134.14 69.968 134.396 69.968H135.32V70.808H134.144V71.204C134.368 71.396 134.54 71.628 134.66 71.9C134.788 72.164 134.852 72.464 134.852 72.8C134.852 73.112 134.796 73.4 134.684 73.664C134.572 73.928 134.412 74.156 134.204 74.348C134.004 74.532 133.76 74.676 133.472 74.78C133.184 74.884 132.864 74.936 132.512 74.936C132.312 74.936 132.112 74.916 131.912 74.876C131.704 74.932 131.516 75.016 131.348 75.128C131.18 75.232 131.096 75.38 131.096 75.572C131.096 75.756 131.184 75.88 131.36 75.944C131.536 76.008 131.764 76.04 132.044 76.04H133.364C134.132 76.04 134.688 76.188 135.032 76.484C135.384 76.772 135.56 77.172 135.56 77.684ZM134.66 77.756C134.66 77.508 134.564 77.308 134.372 77.156C134.188 77.012 133.856 76.94 133.376 76.94H131.312C130.928 77.116 130.736 77.396 130.736 77.78C130.736 78.052 130.836 78.284 131.036 78.476C131.244 78.668 131.592 78.764 132.08 78.764H132.968C133.504 78.764 133.92 78.68 134.216 78.512C134.512 78.344 134.66 78.092 134.66 77.756ZM132.512 74.168C132.92 74.168 133.244 74.072 133.484 73.88C133.724 73.68 133.844 73.376 133.844 72.968V72.632C133.844 72.224 133.724 71.924 133.484 71.732C133.244 71.532 132.92 71.432 132.512 71.432C132.104 71.432 131.78 71.532 131.54 71.732C131.3 71.924 131.18 72.224 131.18 72.632V72.968C131.18 73.376 131.3 73.68 131.54 73.88C131.78 74.072 132.104 74.168 132.512 74.168ZM139.269 77.144C138.853 77.144 138.473 77.068 138.129 76.916C137.785 76.764 137.489 76.548 137.241 76.268C137.001 75.98 136.813 75.64 136.677 75.248C136.541 74.848 136.473 74.4 136.473 73.904C136.473 73.416 136.541 72.972 136.677 72.572C136.813 72.172 137.001 71.832 137.241 71.552C137.489 71.264 137.785 71.044 138.129 70.892C138.473 70.74 138.853 70.664 139.269 70.664C139.685 70.664 140.061 70.74 140.397 70.892C140.741 71.044 141.037 71.264 141.285 71.552C141.533 71.832 141.725 72.172 141.861 72.572C141.997 72.972 142.065 73.416 142.065 73.904C142.065 74.4 141.997 74.848 141.861 75.248C141.725 75.64 141.533 75.98 141.285 76.268C141.037 76.548 140.741 76.764 140.397 76.916C140.061 77.068 139.685 77.144 139.269 77.144ZM139.269 76.292C139.789 76.292 140.213 76.132 140.541 75.812C140.869 75.492 141.033 75.004 141.033 74.348V73.46C141.033 72.804 140.869 72.316 140.541 71.996C140.213 71.676 139.789 71.516 139.269 71.516C138.749 71.516 138.325 71.676 137.997 71.996C137.669 72.316 137.505 72.804 137.505 73.46V74.348C137.505 75.004 137.669 75.492 137.997 75.812C138.325 76.132 138.749 76.292 139.269 76.292ZM143.964 77V70.808H144.924V71.948H144.984C145.096 71.652 145.296 71.388 145.584 71.156C145.872 70.924 146.268 70.808 146.772 70.808H147.144V71.768H146.58C146.06 71.768 145.652 71.868 145.356 72.068C145.068 72.26 144.924 72.504 144.924 72.8V77H143.964ZM149.17 69.356C148.962 69.356 148.81 69.308 148.714 69.212C148.626 69.108 148.582 68.976 148.582 68.816V68.66C148.582 68.5 148.626 68.372 148.714 68.276C148.81 68.172 148.962 68.12 149.17 68.12C149.378 68.12 149.526 68.172 149.614 68.276C149.71 68.372 149.758 68.5 149.758 68.66V68.816C149.758 68.976 149.71 69.108 149.614 69.212C149.526 69.308 149.378 69.356 149.17 69.356ZM148.69 70.808H149.65V77H148.69V70.808ZM153.378 77C153.042 77 152.786 76.908 152.61 76.724C152.442 76.532 152.358 76.284 152.358 75.98V71.648H151.338V70.808H151.914C152.122 70.808 152.262 70.768 152.334 70.688C152.414 70.6 152.454 70.452 152.454 70.244V69.092H153.318V70.808H154.674V71.648H153.318V76.16H154.578V77H153.378ZM156.537 68.12H157.497V71.816H157.545C157.697 71.464 157.909 71.184 158.181 70.976C158.461 70.768 158.833 70.664 159.297 70.664C159.937 70.664 160.441 70.872 160.809 71.288C161.185 71.696 161.373 72.276 161.373 73.028V77H160.413V73.196C160.413 72.084 159.945 71.528 159.009 71.528C158.817 71.528 158.629 71.552 158.445 71.6C158.269 71.648 158.109 71.72 157.965 71.816C157.821 71.912 157.705 72.036 157.617 72.188C157.537 72.332 157.497 72.504 157.497 72.704V77H156.537V68.12ZM163.678 77V70.808H164.638V71.816H164.686C164.758 71.656 164.838 71.508 164.926 71.372C165.022 71.228 165.134 71.104 165.262 71C165.398 70.896 165.554 70.816 165.73 70.76C165.906 70.696 166.114 70.664 166.354 70.664C166.762 70.664 167.138 70.764 167.482 70.964C167.826 71.156 168.082 71.476 168.25 71.924H168.274C168.386 71.588 168.594 71.296 168.898 71.048C169.21 70.792 169.63 70.664 170.158 70.664C170.79 70.664 171.282 70.872 171.634 71.288C171.994 71.696 172.174 72.276 172.174 73.028V77H171.214V73.196C171.214 72.644 171.106 72.228 170.89 71.948C170.674 71.668 170.33 71.528 169.858 71.528C169.666 71.528 169.482 71.552 169.306 71.6C169.138 71.648 168.986 71.72 168.85 71.816C168.714 71.912 168.606 72.036 168.526 72.188C168.446 72.332 168.406 72.504 168.406 72.704V77H167.446V73.196C167.446 72.644 167.338 72.228 167.122 71.948C166.906 71.668 166.57 71.528 166.114 71.528C165.922 71.528 165.738 71.552 165.562 71.6C165.386 71.648 165.23 71.72 165.094 71.816C164.958 71.912 164.846 72.036 164.758 72.188C164.678 72.332 164.638 72.504 164.638 72.704V77H163.678Z"/><path fill="#1192E8" d="M53.124 37H52.116V28.624H55.452C56.188 28.624 56.76 28.828 57.168 29.236C57.584 29.644 57.792 30.232 57.792 31C57.792 31.616 57.648 32.124 57.36 32.524C57.08 32.916 56.664 33.176 56.112 33.304L58.032 37H56.892L55.08 33.4H53.124V37ZM55.452 32.536C55.852 32.536 56.16 32.432 56.376 32.224C56.6 32.016 56.712 31.72 56.712 31.336V30.712C56.712 30.328 56.6 30.032 56.376 29.824C56.16 29.616 55.852 29.512 55.452 29.512H53.124V32.536H55.452ZM64.3986 37C64.0386 37 63.7786 36.904 63.6186 36.712C63.4666 36.52 63.3706 36.28 63.3306 35.992H63.2706C63.1346 36.376 62.9106 36.664 62.5986 36.856C62.2866 37.048 61.9146 37.144 61.4826 37.144C60.8266 37.144 60.3146 36.976 59.9466 36.64C59.5866 36.304 59.4066 35.848 59.4066 35.272C59.4066 34.688 59.6186 34.24 60.0426 33.928C60.4746 33.616 61.1426 33.46 62.0466 33.46H63.2706V32.848C63.2706 32.408 63.1506 32.072 62.9106 31.84C62.6706 31.608 62.3026 31.492 61.8066 31.492C61.4306 31.492 61.1146 31.576 60.8586 31.744C60.6106 31.912 60.4026 32.136 60.2346 32.416L59.6586 31.876C59.8266 31.54 60.0946 31.256 60.4626 31.024C60.8306 30.784 61.2946 30.664 61.8546 30.664C62.6066 30.664 63.1906 30.848 63.6066 31.216C64.0226 31.584 64.2306 32.096 64.2306 32.752V36.16H64.9386V37H64.3986ZM61.6386 36.328C61.8786 36.328 62.0986 36.3 62.2986 36.244C62.4986 36.188 62.6706 36.108 62.8146 36.004C62.9586 35.9 63.0706 35.78 63.1506 35.644C63.2306 35.508 63.2706 35.36 63.2706 35.2V34.18H61.9986C61.4466 34.18 61.0426 34.26 60.7866 34.42C60.5386 34.58 60.4146 34.812 60.4146 35.116V35.368C60.4146 35.672 60.5226 35.908 60.7386 36.076C60.9626 36.244 61.2626 36.328 61.6386 36.328ZM66.6288 37V30.808H67.5888V31.816H67.6368C67.7888 31.464 68.0008 31.184 68.2728 30.976C68.5528 30.768 68.9248 30.664 69.3888 30.664C70.0288 30.664 70.5328 30.872 70.9008 31.288C71.2768 31.696 71.4648 32.276 71.4648 33.028V37H70.5048V33.196C70.5048 32.084 70.0368 31.528 69.1008 31.528C68.9088 31.528 68.7208 31.552 68.5368 31.6C68.3608 31.648 68.2008 31.72 68.0568 31.816C67.9128 31.912 67.7968 32.036 67.7088 32.188C67.6288 32.332 67.5888 32.504 67.5888 32.704V37H66.6288ZM77.7291 35.992H77.6811C77.3051 36.76 76.7011 37.144 75.8691 37.144C75.4851 37.144 75.1371 37.068 74.8251 36.916C74.5131 36.764 74.2451 36.548 74.0211 36.268C73.8051 35.988 73.6371 35.648 73.5171 35.248C73.4051 34.848 73.3491 34.4 73.3491 33.904C73.3491 33.408 73.4051 32.96 73.5171 32.56C73.6371 32.16 73.8051 31.82 74.0211 31.54C74.2451 31.26 74.5131 31.044 74.8251 30.892C75.1371 30.74 75.4851 30.664 75.8691 30.664C76.3011 30.664 76.6691 30.76 76.9731 30.952C77.2851 31.136 77.5211 31.424 77.6811 31.816H77.7291V28.12H78.6891V37H77.7291V35.992ZM76.1331 36.28C76.3491 36.28 76.5531 36.252 76.7451 36.196C76.9451 36.14 77.1171 36.06 77.2611 35.956C77.4051 35.844 77.5171 35.712 77.5971 35.56C77.6851 35.4 77.7291 35.22 77.7291 35.02V32.716C77.7291 32.548 77.6851 32.392 77.5971 32.248C77.5171 32.096 77.4051 31.968 77.2611 31.864C77.1171 31.76 76.9451 31.68 76.7451 31.624C76.5531 31.56 76.3491 31.528 76.1331 31.528C75.5891 31.528 75.1611 31.7 74.8491 32.044C74.5371 32.38 74.3811 32.824 74.3811 33.376V34.432C74.3811 34.984 74.5371 35.432 74.8491 35.776C75.1611 36.112 75.5891 36.28 76.1331 36.28ZM83.39 37.144C82.974 37.144 82.594 37.068 82.25 36.916C81.906 36.764 81.61 36.548 81.362 36.268C81.122 35.98 80.934 35.64 80.798 35.248C80.662 34.848 80.594 34.4 80.594 33.904C80.594 33.416 80.662 32.972 80.798 32.572C80.934 32.172 81.122 31.832 81.362 31.552C81.61 31.264 81.906 31.044 82.25 30.892C82.594 30.74 82.974 30.664 83.39 30.664C83.806 30.664 84.182 30.74 84.518 30.892C84.862 31.044 85.158 31.264 85.406 31.552C85.654 31.832 85.846 32.172 85.982 32.572C86.118 32.972 86.186 33.416 86.186 33.904C86.186 34.4 86.118 34.848 85.982 35.248C85.846 35.64 85.654 35.98 85.406 36.268C85.158 36.548 84.862 36.764 84.518 36.916C84.182 37.068 83.806 37.144 83.39 37.144ZM83.39 36.292C83.91 36.292 84.334 36.132 84.662 35.812C84.99 35.492 85.154 35.004 85.154 34.348V33.46C85.154 32.804 84.99 32.316 84.662 31.996C84.334 31.676 83.91 31.516 83.39 31.516C82.87 31.516 82.446 31.676 82.118 31.996C81.79 32.316 81.626 32.804 81.626 33.46V34.348C81.626 35.004 81.79 35.492 82.118 35.812C82.446 36.132 82.87 36.292 83.39 36.292ZM88.0848 37V30.808H89.0448V31.816H89.0928C89.1648 31.656 89.2448 31.508 89.3328 31.372C89.4288 31.228 89.5408 31.104 89.6688 31C89.8048 30.896 89.9608 30.816 90.1368 30.76C90.3128 30.696 90.5208 30.664 90.7608 30.664C91.1688 30.664 91.5448 30.764 91.8888 30.964C92.2328 31.156 92.4888 31.476 92.6568 31.924H92.6808C92.7928 31.588 93.0008 31.296 93.3048 31.048C93.6168 30.792 94.0368 30.664 94.5648 30.664C95.1968 30.664 95.6888 30.872 96.0408 31.288C96.4008 31.696 96.5808 32.276 96.5808 33.028V37H95.6208V33.196C95.6208 32.644 95.5128 32.228 95.2968 31.948C95.0808 31.668 94.7368 31.528 94.2648 31.528C94.0728 31.528 93.8888 31.552 93.7128 31.6C93.5448 31.648 93.3928 31.72 93.2568 31.816C93.1208 31.912 93.0128 32.036 92.9328 32.188C92.8528 32.332 92.8128 32.504 92.8128 32.704V37H91.8528V33.196C91.8528 32.644 91.7448 32.228 91.5288 31.948C91.3128 31.668 90.9768 31.528 90.5208 31.528C90.3288 31.528 90.1448 31.552 89.9688 31.6C89.7928 31.648 89.6368 31.72 89.5008 31.816C89.3648 31.912 89.2528 32.036 89.1648 32.188C89.0848 32.332 89.0448 32.504 89.0448 32.704V37H88.0848ZM57.24 53.684C57.24 54.324 56.988 54.792 56.484 55.088C55.988 55.392 55.24 55.544 54.24 55.544C53.272 55.544 52.576 55.412 52.152 55.148C51.728 54.884 51.516 54.508 51.516 54.02C51.516 53.684 51.604 53.42 51.78 53.228C51.956 53.044 52.196 52.908 52.5 52.82V52.688C52.132 52.512 51.948 52.224 51.948 51.824C51.948 51.512 52.048 51.276 52.248 51.116C52.448 50.948 52.704 50.824 53.016 50.744V50.696C52.648 50.52 52.36 50.268 52.152 49.94C51.952 49.612 51.852 49.232 51.852 48.8C51.852 48.488 51.908 48.2 52.02 47.936C52.132 47.672 52.288 47.448 52.488 47.264C52.696 47.072 52.94 46.924 53.22 46.82C53.508 46.716 53.828 46.664 54.18 46.664C54.62 46.664 55.012 46.744 55.356 46.904V46.796C55.356 46.556 55.412 46.36 55.524 46.208C55.636 46.048 55.82 45.968 56.076 45.968H57V46.808H55.824V47.204C56.048 47.396 56.22 47.628 56.34 47.9C56.468 48.164 56.532 48.464 56.532 48.8C56.532 49.112 56.476 49.4 56.364 49.664C56.252 49.928 56.092 50.156 55.884 50.348C55.684 50.532 55.44 50.676 55.152 50.78C54.864 50.884 54.544 50.936 54.192 50.936C53.992 50.936 53.792 50.916 53.592 50.876C53.384 50.932 53.196 51.016 53.028 51.128C52.86 51.232 52.776 51.38 52.776 51.572C52.776 51.756 52.864 51.88 53.04 51.944C53.216 52.008 53.444 52.04 53.724 52.04H55.044C55.812 52.04 56.368 52.188 56.712 52.484C57.064 52.772 57.24 53.172 57.24 53.684ZM56.34 53.756C56.34 53.508 56.244 53.308 56.052 53.156C55.868 53.012 55.536 52.94 55.056 52.94H52.992C52.608 53.116 52.416 53.396 52.416 53.78C52.416 54.052 52.516 54.284 52.716 54.476C52.924 54.668 53.272 54.764 53.76 54.764H54.648C55.184 54.764 55.6 54.68 55.896 54.512C56.192 54.344 56.34 54.092 56.34 53.756ZM54.192 50.168C54.6 50.168 54.924 50.072 55.164 49.88C55.404 49.68 55.524 49.376 55.524 48.968V48.632C55.524 48.224 55.404 47.924 55.164 47.732C54.924 47.532 54.6 47.432 54.192 47.432C53.784 47.432 53.46 47.532 53.22 47.732C52.98 47.924 52.86 48.224 52.86 48.632V48.968C52.86 49.376 52.98 49.68 53.22 49.88C53.46 50.072 53.784 50.168 54.192 50.168ZM62.449 51.992H62.401C62.337 52.136 62.257 52.28 62.161 52.424C62.073 52.56 61.961 52.684 61.825 52.796C61.689 52.9 61.525 52.984 61.333 53.048C61.141 53.112 60.917 53.144 60.661 53.144C60.021 53.144 59.513 52.94 59.137 52.532C58.761 52.116 58.573 51.532 58.573 50.78V46.808H59.533V50.612C59.533 51.724 60.005 52.28 60.949 52.28C61.141 52.28 61.325 52.256 61.501 52.208C61.685 52.16 61.845 52.088 61.981 51.992C62.125 51.896 62.237 51.776 62.317 51.632C62.405 51.48 62.449 51.3 62.449 51.092V46.808H63.409V53H62.449V51.992ZM68.1013 53.144C67.6773 53.144 67.2933 53.068 66.9493 52.916C66.6133 52.764 66.3213 52.548 66.0733 52.268C65.8333 51.98 65.6453 51.64 65.5093 51.248C65.3813 50.848 65.3173 50.4 65.3173 49.904C65.3173 49.416 65.3813 48.972 65.5093 48.572C65.6453 48.172 65.8333 47.832 66.0733 47.552C66.3213 47.264 66.6133 47.044 66.9493 46.892C67.2933 46.74 67.6773 46.664 68.1013 46.664C68.5173 46.664 68.8893 46.74 69.2173 46.892C69.5453 47.044 69.8253 47.256 70.0573 47.528C70.2893 47.792 70.4653 48.108 70.5853 48.476C70.7133 48.844 70.7773 49.248 70.7773 49.688V50.144H66.3253V50.432C66.3253 50.696 66.3653 50.944 66.4453 51.176C66.5333 51.4 66.6533 51.596 66.8053 51.764C66.9653 51.932 67.1573 52.064 67.3813 52.16C67.6133 52.256 67.8733 52.304 68.1613 52.304C68.5533 52.304 68.8933 52.212 69.1813 52.028C69.4773 51.844 69.7053 51.58 69.8653 51.236L70.5493 51.728C70.3493 52.152 70.0373 52.496 69.6133 52.76C69.1893 53.016 68.6853 53.144 68.1013 53.144ZM68.1013 47.468C67.8373 47.468 67.5973 47.516 67.3813 47.612C67.1653 47.7 66.9773 47.828 66.8173 47.996C66.6653 48.164 66.5453 48.364 66.4573 48.596C66.3693 48.82 66.3253 49.068 66.3253 49.34V49.424H69.7453V49.292C69.7453 48.74 69.5933 48.3 69.2893 47.972C68.9933 47.636 68.5973 47.468 68.1013 47.468ZM74.5392 53.144C73.9632 53.144 73.4792 53.036 73.0872 52.82C72.7032 52.596 72.3712 52.3 72.0912 51.932L72.7752 51.38C73.0152 51.684 73.2832 51.92 73.5792 52.088C73.8752 52.248 74.2192 52.328 74.6112 52.328C75.0192 52.328 75.3352 52.24 75.5592 52.064C75.7912 51.888 75.9072 51.64 75.9072 51.32C75.9072 51.08 75.8272 50.876 75.6672 50.708C75.5152 50.532 75.2352 50.412 74.8272 50.348L74.3352 50.276C74.0472 50.236 73.7832 50.176 73.5432 50.096C73.3032 50.008 73.0912 49.896 72.9072 49.76C72.7312 49.616 72.5912 49.44 72.4872 49.232C72.3912 49.024 72.3432 48.776 72.3432 48.488C72.3432 48.184 72.3992 47.92 72.5112 47.696C72.6232 47.464 72.7752 47.272 72.9672 47.12C73.1672 46.968 73.4032 46.856 73.6752 46.784C73.9472 46.704 74.2392 46.664 74.5512 46.664C75.0552 46.664 75.4752 46.752 75.8112 46.928C76.1552 47.104 76.4552 47.348 76.7112 47.66L76.0752 48.236C75.9392 48.044 75.7392 47.872 75.4752 47.72C75.2112 47.56 74.8792 47.48 74.4792 47.48C74.0792 47.48 73.7752 47.568 73.5672 47.744C73.3672 47.912 73.2672 48.144 73.2672 48.44C73.2672 48.744 73.3672 48.964 73.5672 49.1C73.7752 49.236 74.0712 49.336 74.4552 49.4L74.9352 49.472C75.6232 49.576 76.1112 49.776 76.3992 50.072C76.6872 50.36 76.8312 50.74 76.8312 51.212C76.8312 51.812 76.6272 52.284 76.2192 52.628C75.8112 52.972 75.2512 53.144 74.5392 53.144ZM80.6366 53.144C80.0606 53.144 79.5766 53.036 79.1846 52.82C78.8006 52.596 78.4686 52.3 78.1886 51.932L78.8726 51.38C79.1126 51.684 79.3806 51.92 79.6766 52.088C79.9726 52.248 80.3166 52.328 80.7086 52.328C81.1166 52.328 81.4326 52.24 81.6566 52.064C81.8886 51.888 82.0046 51.64 82.0046 51.32C82.0046 51.08 81.9246 50.876 81.7646 50.708C81.6126 50.532 81.3326 50.412 80.9246 50.348L80.4326 50.276C80.1446 50.236 79.8806 50.176 79.6406 50.096C79.4006 50.008 79.1886 49.896 79.0046 49.76C78.8286 49.616 78.6886 49.44 78.5846 49.232C78.4886 49.024 78.4406 48.776 78.4406 48.488C78.4406 48.184 78.4966 47.92 78.6086 47.696C78.7206 47.464 78.8726 47.272 79.0646 47.12C79.2646 46.968 79.5006 46.856 79.7726 46.784C80.0446 46.704 80.3366 46.664 80.6486 46.664C81.1526 46.664 81.5726 46.752 81.9086 46.928C82.2526 47.104 82.5526 47.348 82.8086 47.66L82.1726 48.236C82.0366 48.044 81.8366 47.872 81.5726 47.72C81.3086 47.56 80.9766 47.48 80.5766 47.48C80.1766 47.48 79.8726 47.568 79.6646 47.744C79.4646 47.912 79.3646 48.144 79.3646 48.44C79.3646 48.744 79.4646 48.964 79.6646 49.1C79.8726 49.236 80.1686 49.336 80.5526 49.4L81.0326 49.472C81.7206 49.576 82.2086 49.776 82.4966 50.072C82.7846 50.36 82.9286 50.74 82.9286 51.212C82.9286 51.812 82.7246 52.284 82.3166 52.628C81.9086 52.972 81.3486 53.144 80.6366 53.144ZM85.4242 45.356C85.2162 45.356 85.0642 45.308 84.9682 45.212C84.8802 45.108 84.8362 44.976 84.8362 44.816V44.66C84.8362 44.5 84.8802 44.372 84.9682 44.276C85.0642 44.172 85.2162 44.12 85.4242 44.12C85.6322 44.12 85.7802 44.172 85.8682 44.276C85.9642 44.372 86.0122 44.5 86.0122 44.66V44.816C86.0122 44.976 85.9642 45.108 85.8682 45.212C85.7802 45.308 85.6322 45.356 85.4242 45.356ZM84.9442 46.808H85.9042V53H84.9442V46.808ZM88.2642 53V46.808H89.2242V47.816H89.2722C89.4242 47.464 89.6362 47.184 89.9082 46.976C90.1882 46.768 90.5602 46.664 91.0242 46.664C91.6642 46.664 92.1682 46.872 92.5362 47.288C92.9122 47.696 93.1002 48.276 93.1002 49.028V53H92.1402V49.196C92.1402 48.084 91.6722 47.528 90.7362 47.528C90.5442 47.528 90.3562 47.552 90.1722 47.6C89.9962 47.648 89.8362 47.72 89.6922 47.816C89.5482 47.912 89.4322 48.036 89.3442 48.188C89.2642 48.332 89.2242 48.504 89.2242 48.704V53H88.2642ZM100.625 53.684C100.625 54.324 100.373 54.792 99.8685 55.088C99.3725 55.392 98.6245 55.544 97.6245 55.544C96.6565 55.544 95.9605 55.412 95.5365 55.148C95.1125 54.884 94.9005 54.508 94.9005 54.02C94.9005 53.684 94.9885 53.42 95.1645 53.228C95.3405 53.044 95.5805 52.908 95.8845 52.82V52.688C95.5165 52.512 95.3325 52.224 95.3325 51.824C95.3325 51.512 95.4325 51.276 95.6325 51.116C95.8325 50.948 96.0885 50.824 96.4005 50.744V50.696C96.0325 50.52 95.7445 50.268 95.5365 49.94C95.3365 49.612 95.2365 49.232 95.2365 48.8C95.2365 48.488 95.2925 48.2 95.4045 47.936C95.5165 47.672 95.6725 47.448 95.8725 47.264C96.0805 47.072 96.3245 46.924 96.6045 46.82C96.8925 46.716 97.2125 46.664 97.5645 46.664C98.0045 46.664 98.3965 46.744 98.7405 46.904V46.796C98.7405 46.556 98.7965 46.36 98.9085 46.208C99.0205 46.048 99.2045 45.968 99.4605 45.968H100.385V46.808H99.2085V47.204C99.4325 47.396 99.6045 47.628 99.7245 47.9C99.8525 48.164 99.9165 48.464 99.9165 48.8C99.9165 49.112 99.8605 49.4 99.7485 49.664C99.6365 49.928 99.4765 50.156 99.2685 50.348C99.0685 50.532 98.8245 50.676 98.5365 50.78C98.2485 50.884 97.9285 50.936 97.5765 50.936C97.3765 50.936 97.1765 50.916 96.9765 50.876C96.7685 50.932 96.5805 51.016 96.4125 51.128C96.2445 51.232 96.1605 51.38 96.1605 51.572C96.1605 51.756 96.2485 51.88 96.4245 51.944C96.6005 52.008 96.8285 52.04 97.1085 52.04H98.4285C99.1965 52.04 99.7525 52.188 100.097 52.484C100.449 52.772 100.625 53.172 100.625 53.684ZM99.7245 53.756C99.7245 53.508 99.6285 53.308 99.4365 53.156C99.2525 53.012 98.9205 52.94 98.4405 52.94H96.3765C95.9925 53.116 95.8005 53.396 95.8005 53.78C95.8005 54.052 95.9005 54.284 96.1005 54.476C96.3085 54.668 96.6565 54.764 97.1445 54.764H98.0325C98.5685 54.764 98.9845 54.68 99.2805 54.512C99.5765 54.344 99.7245 54.092 99.7245 53.756ZM97.5765 50.168C97.9845 50.168 98.3085 50.072 98.5485 49.88C98.7885 49.68 98.9085 49.376 98.9085 48.968V48.632C98.9085 48.224 98.7885 47.924 98.5485 47.732C98.3085 47.532 97.9845 47.432 97.5765 47.432C97.1685 47.432 96.8445 47.532 96.6045 47.732C96.3645 47.924 96.2445 48.224 96.2445 48.632V48.968C96.2445 49.376 96.3645 49.68 96.6045 49.88C96.8445 50.072 97.1685 50.168 97.5765 50.168Z"/><path fill="#1192E8" d="M111.5 7L110 3L108.5 7H111.5Z"/><path fill="#6929C4" d="M186.29 8.24625L185.144 4.13073L183.301 7.98478L186.29 8.24625Z"/><path stroke="#1192E8" d="M33 379C82.5 368.5 97.5 286 110 6"/><path stroke="#6929C4" d="M33 379C142 360.5 153.5 278.5 185 7"/></svg>