<svg xmlns="http://www.w3.org/2000/svg" xmlns:svg="http://www.w3.org/2000/svg" xmlns:xlink="http://www.w3.org/1999/xlink" id="svg631" width="427.019" height="272.907" version="1.1" viewBox="0 0 320.264 204.68"><metadata id="metadata635"/><defs id="defs498"><marker style="overflow:visible" id="Arrow2Lend" orient="auto" refX="0" refY="0"><path style="fill-rule:evenodd;stroke-width:.625;stroke-linejoin:round;stroke:#000;stroke-opacity:1;fill:#000;fill-opacity:1" id="path2093" d="M 8.7185878,4.0337352 L -2.2072895,0.016013256 L 8.7185884,-4.0017078 C 6.9730900,-1.6296469 6.9831476,1.6157441 8.7185878,4.0337352 z" transform="scale(1.1) rotate(180) translate(1,0)"/></marker><marker style="overflow:visible" id="marker2605" orient="auto" refX="0" refY="0"><path style="fill-rule:evenodd;stroke:#000;stroke-width:1pt;stroke-opacity:1;fill:#000;fill-opacity:1" id="path2603" d="M 0.0,0.0 L 5.0,-5.0 L -12.5,0.0 L 5.0,5.0 L 0.0,0.0 z" transform="scale(0.4) rotate(180) translate(10,0)"/></marker><marker style="overflow:visible" id="Arrow2Mend" orient="auto" refX="0" refY="0"><path style="fill-rule:evenodd;stroke-width:.625;stroke-linejoin:round;stroke:#000;stroke-opacity:1;fill:#000;fill-opacity:1" id="path2099" d="M 8.7185878,4.0337352 L -2.2072895,0.016013256 L 8.7185884,-4.0017078 C 6.9730900,-1.6296469 6.9831476,1.6157441 8.7185878,4.0337352 z" transform="scale(0.6) rotate(180) translate(0,0)"/></marker><marker style="overflow:visible" id="marker2503" orient="auto" refX="0" refY="0"><path style="fill-rule:evenodd;stroke:#000;stroke-width:1pt;stroke-opacity:1;fill:#000;fill-opacity:1" id="path2501" d="M 0.0,0.0 L 5.0,-5.0 L -12.5,0.0 L 5.0,5.0 L 0.0,0.0 z" transform="scale(0.4) translate(10,0)"/></marker><marker style="overflow:visible" id="Arrow1Mstart" orient="auto" refX="0" refY="0"><path style="fill-rule:evenodd;stroke:#000;stroke-width:1pt;stroke-opacity:1;fill:#000;fill-opacity:1" id="path2078" d="M 0.0,0.0 L 5.0,-5.0 L -12.5,0.0 L 5.0,5.0 L 0.0,0.0 z" transform="scale(0.4) translate(10,0)"/></marker><marker style="overflow:visible" id="Arrow1Lstart" orient="auto" refX="0" refY="0"><path style="fill-rule:evenodd;stroke:#000;stroke-width:1pt;stroke-opacity:1;fill:#000;fill-opacity:1" id="path2072" d="M 0.0,0.0 L 5.0,-5.0 L -12.5,0.0 L 5.0,5.0 L 0.0,0.0 z" transform="scale(0.8) translate(12.5,0)"/></marker><marker style="overflow:visible" id="Arrow1Mend" orient="auto" refX="0" refY="0"><path style="fill-rule:evenodd;stroke:#000;stroke-width:1pt;stroke-opacity:1;fill:#000;fill-opacity:1" id="path2081" d="M 0.0,0.0 L 5.0,-5.0 L -12.5,0.0 L 5.0,5.0 L 0.0,0.0 z" transform="scale(0.4) rotate(180) translate(10,0)"/></marker><marker style="overflow:visible" id="Arrow1Sstart" orient="auto" refX="0" refY="0"><path style="fill-rule:evenodd;stroke:#000;stroke-width:1pt;stroke-opacity:1;fill:#000;fill-opacity:1" id="path2084" d="M 0.0,0.0 L 5.0,-5.0 L -12.5,0.0 L 5.0,5.0 L 0.0,0.0 z" transform="scale(0.2) translate(6,0)"/></marker><marker style="overflow:visible" id="Arrow1Send" orient="auto" refX="0" refY="0"><path style="fill-rule:evenodd;stroke:none;stroke-width:1pt;stroke-opacity:1;fill:#000;fill-opacity:1" id="path2087" d="M 0.0,0.0 L 5.0,-5.0 L -12.5,0.0 L 5.0,5.0 L 0.0,0.0 z" transform="scale(0.2) rotate(180) translate(6,0)"/></marker><style id="style496" type="text/css">*{stroke-linecap:butt;stroke-linejoin:round}</style><clipPath id="pfc583bf404"><rect id="rect485" width="196.348" height="154.533" x="35.109" y="24.562"/></clipPath><clipPath id="clipPath1047"><rect id="rect1045" width="196.348" height="154.533" x="35.109" y="24.562"/></clipPath><clipPath id="clipPath1051"><rect id="rect1049" width="196.348" height="154.533" x="35.109" y="24.562"/></clipPath><clipPath id="clipPath1055"><rect id="rect1053" width="196.348" height="154.533" x="35.109" y="24.562"/></clipPath><clipPath id="clipPath1059"><rect id="rect1057" width="196.348" height="154.533" x="35.109" y="24.562"/></clipPath><clipPath id="clipPath1063"><rect id="rect1061" width="196.348" height="154.533" x="35.109" y="24.562"/></clipPath><clipPath id="clipPath1067"><rect id="rect1065" width="196.348" height="154.533" x="35.109" y="24.562"/></clipPath><clipPath id="clipPath1071"><rect id="rect1069" width="196.348" height="154.533" x="35.109" y="24.562"/></clipPath><path id="DejaVuSans-Oblique-90-1" d="M 13.09375,72.90625 H 70.3125 L 68.890625,65.375 12.40625,8.296875 H 58.890625 L 57.328125,0 h -59.53125 l 1.421875,7.515625 56.5,57.078125 h -44.1875 z"/></defs><path id="path500" d="M 0,204.68 H 320.264 V 0 H 0 Z" style="fill:#fff"/><g id="patch_2" transform="translate(-145.2325,-1.505)"><path id="path503" d="m 183.67923,141.4843 h 11.81726 l -5.90863,10.3401 z" clip-path="url(#pb245b75ef5)" style="fill:#789"/></g><g id="line2d_1" transform="translate(-145.2325,-1.505)"><path id="path506" d="m 166.86236,60.9224 h 113.6275" clip-path="url(#pb245b75ef5)" style="fill:none;stroke:#000;stroke-width:2;stroke-linecap:square"/></g><g id="line2d_2" transform="translate(-145.2325,-1.505)"><path id="path509" d="m 166.86236,106.3734 h 113.6275" clip-path="url(#pb245b75ef5)" style="fill:none;stroke:#000;stroke-width:2;stroke-linecap:square"/></g><g id="line2d_3" transform="translate(-145.2325,-1.505)"><path id="path512" d="m 166.86236,150.34724 h 113.6275" clip-path="url(#pb245b75ef5)" style="fill:none;stroke:#789;stroke-width:2;stroke-linecap:square"/></g><g id="line2d_4" transform="translate(-145.2325,-1.505)"><path id="path515" d="m 166.86236,153.30156 h 113.6275" clip-path="url(#pb245b75ef5)" style="fill:none;stroke:#789;stroke-width:2;stroke-linecap:square"/></g><g id="line2d_5" transform="translate(-145.2325,-1.505)"><path id="path518" d="m 191.06502,60.9224 v 80.5619" clip-path="url(#pb245b75ef5)" style="fill:none;stroke:#789;stroke-width:2;stroke-linecap:square"/></g><g id="line2d_6" transform="translate(-145.2325,-1.505)"><path id="path521" d="m 188.1107,60.9224 v 80.5619" clip-path="url(#pb245b75ef5)" style="fill:none;stroke:#789;stroke-width:2;stroke-linecap:square"/></g><g id="line2d_7" transform="translate(-145.2325,-1.505)"><path id="path524" d="m 236.51602,106.3734 v 45.451" clip-path="url(#pb245b75ef5)" style="fill:none;stroke:#789;stroke-width:2;stroke-linecap:square"/></g><g id="line2d_8" transform="translate(-145.2325,-1.505)"><path id="path527" d="m 233.5617,106.3734 v 45.451" clip-path="url(#pb245b75ef5)" style="fill:none;stroke:#789;stroke-width:2;stroke-linecap:square"/></g><g id="patch_3" transform="translate(-145.2325,-1.505)"><path id="path530" d="m 174.81628,75.693975 h 29.54315 v -29.54315 h -29.54315 z" clip-path="url(#pb245b75ef5)"/></g><g id="patch_4" transform="translate(-145.2325,-1.505)"><path id="path533" d="m 199.92796,65.353873 c 0,-2.741314 -1.09014,-5.373155 -3.02854,-7.311557 -1.93841,-1.938402 -4.57025,-3.028546 -7.31156,-3.028546 -2.74131,0 -5.37316,1.090144 -7.31156,3.028546 -1.9384,1.938402 -3.02854,4.570243 -3.02854,7.311557" clip-path="url(#pb245b75ef5)" style="fill:none;stroke:#fff;stroke-width:2;stroke-linejoin:miter"/></g><g id="patch_5" transform="translate(-145.2325,-1.505)"><path id="path536" d="m 235.03886,156.25587 c 1.17524,0 2.3025,-0.46693 3.13352,-1.29795 0.83102,-0.83102 1.29795,-1.95828 1.29795,-3.13352 0,-1.17524 -0.46693,-2.3025 -1.29795,-3.13352 -0.83102,-0.83103 -1.95828,-1.29795 -3.13352,-1.29795 -1.17524,0 -2.3025,0.46692 -3.13352,1.29795 -0.83102,0.83102 -1.29795,1.95828 -1.29795,3.13352 0,1.17524 0.46693,2.3025 1.29795,3.13352 0.83102,0.83102 1.95828,1.29795 3.13352,1.29795 z" clip-path="url(#pb245b75ef5)" style="stroke:#000;stroke-width:1.5;stroke-linejoin:miter"/></g><g id="patch_6" transform="translate(-145.2325,-1.505)"><path id="path539" d="m 220.26728,121.14498 h 29.54315 V 91.601825 h -29.54315 z" clip-path="url(#pb245b75ef5)" style="fill:#05bab6"/></g><g id="line2d_9" transform="translate(-145.2325,-1.505)"><path id="path542" d="M 189.58786,65.353873 199.92796,55.01377" clip-path="url(#pb245b75ef5)" style="fill:none;stroke:#fff;stroke-width:2;stroke-linecap:square"/></g><g id="text_1" transform="translate(-145.2325,-1.505)"><g id="g552" clip-path="url(#pb245b75ef5)"><defs id="defs546"><path id="DejaVuSans-48" d="m 31.78125,66.40625 q -7.609375,0 -11.453125,-7.5 Q 16.5,51.421875 16.5,36.375 q 0,-14.984375 3.828125,-22.484375 3.84375,-7.5 11.453125,-7.5 7.671875,0 11.5,7.5 3.84375,7.5 3.84375,22.484375 0,15.046875 -3.84375,22.53125 -3.828125,7.5 -11.5,7.5 z m 0,7.8125 q 12.265625,0 18.734375,-9.703125 6.46875,-9.6875 6.46875,-28.140625 0,-18.40625 -6.46875,-28.109375 -6.46875,-9.6875 -18.734375,-9.6875 -12.25,0 -18.71875,9.6875 Q 6.59375,17.96875 6.59375,36.375 q 0,18.453125 6.46875,28.140625 6.46875,9.703125 18.71875,9.703125 z"/></defs><g id="g550" transform="matrix(0.104,0,0,-0.104,200.95061,145.11642)"><use id="use548" width="100%" height="100%" x="0" y="0" xlink:href="#DejaVuSans-48"/></g></g></g><g id="text_2" transform="translate(-145.2325,-1.505)"><g id="g567" clip-path="url(#pb245b75ef5)"><defs id="defs557"><path id="DejaVuSans-120" d="M 54.890625,54.6875 35.109375,28.078125 55.90625,0 H 45.3125 L 29.390625,21.484375 13.484375,0 H 2.875 L 24.125,28.609375 4.6875,54.6875 h 10.59375 l 14.5,-19.484375 14.5,19.484375 z"/><path id="DejaVuSans-49" d="m 12.40625,8.296875 h 16.109375 v 55.625 L 10.984375,60.40625 v 8.984375 l 17.4375,3.515625 H 38.28125 V 8.296875 H 54.390625 V 0 H 12.40625 Z"/></defs><g id="g565" transform="matrix(0.08,0,0,-0.08,227.58136,166.76609)"><use id="use559" width="100%" height="100%" x="0" y="0" xlink:href="#DejaVuSans-48"/><use id="use561" width="100%" height="100%" x="63.623" y="0" xlink:href="#DejaVuSans-120"/><use id="use563" width="100%" height="100%" x="122.803" y="0" xlink:href="#DejaVuSans-49"/></g></g></g><g id="text_3" transform="translate(-145.2325,-1.505)"><g id="g577" clip-path="url(#pb245b75ef5)"><defs id="defs571"><path id="DejaVuSans-Oblique-90" d="M 13.09375,72.90625 H 70.3125 L 68.890625,65.375 12.40625,8.296875 H 58.890625 L 57.328125,0 h -59.53125 l 1.421875,7.515625 56.5,57.078125 h -44.1875 z"/></defs><g id="g575" transform="matrix(0.13,0,0,-0.13,230.55386,109.96059)"><use id="use573" width="100%" height="100%" x="0" y="0" transform="translate(0,0.09375)" xlink:href="#DejaVuSans-Oblique-90"/></g></g></g><defs id="defs629"><clipPath id="pb245b75ef5"><rect id="rect626" width="241.799" height="154.533" x="43.236" y="24.562"/></clipPath></defs><g style="stroke-linecap:butt;stroke-linejoin:round" id="line2d_1-5" transform="matrix(0.77569892,0,0,1,91.280327,-1.1925017)"><path style="fill:none;stroke:#000;stroke-width:2;stroke-linecap:square" id="path406" d="m 158.73536,60.9224 h 68.1765" clip-path="url(#pfc583bf404)"/></g><g style="stroke-linecap:butt;stroke-linejoin:round" id="line2d_2-7" transform="matrix(0.77261453,0,0,1,91.99423,-1.1925017)"><path style="fill:none;stroke:#000;stroke-width:2;stroke-linecap:square" id="path409" d="m 158.73536,106.3734 h 68.1765" clip-path="url(#pfc583bf404)"/></g><g style="stroke-linecap:butt;stroke-linejoin:round" id="line2d_5-9" transform="translate(55.900116,-1.1925017)"><path style="fill:none;stroke:#bb8bff;stroke-width:2;stroke-linecap:square" id="path418" d="M 181.46086,106.3734 V 60.9224" clip-path="url(#pfc583bf404)"/></g><g style="stroke-linecap:butt;stroke-linejoin:round" id="patch_2-9" transform="translate(55.900116,-1.1925017)"><path style="fill:#bb8bff;stroke:#bb8bff;stroke-width:1.5;stroke-linejoin:miter" id="path421" d="m 181.46086,65.353873 c 1.17524,0 2.3025,-0.466928 3.13352,-1.297949 0.83102,-0.83102 1.29795,-1.958284 1.29795,-3.133524 0,-1.17524 -0.46693,-2.302504 -1.29795,-3.133524 -0.83102,-0.831021 -1.95828,-1.297948 -3.13352,-1.297948 -1.17524,0 -2.3025,0.466927 -3.13352,1.297948 -0.83103,0.83102 -1.29795,1.958284 -1.29795,3.133524 0,1.17524 0.46692,2.302504 1.29795,3.133524 0.83102,0.831021 1.95828,1.297949 3.13352,1.297949 z" clip-path="url(#pfc583bf404)"/></g><g style="stroke-linecap:butt;stroke-linejoin:round" id="patch_3-4" transform="translate(55.900116,-1.1925017)"><path style="fill:#bb8bff" id="path424" d="m 166.68928,121.14498 h 29.54315 V 91.601825 h -29.54315 z" clip-path="url(#pfc583bf404)"/></g><g style="stroke-linecap:butt;stroke-linejoin:round" id="text_1-7" transform="translate(55.900116,-1.1925017)"><g id="g434" clip-path="url(#pfc583bf404)"><defs id="defs428"><path id="path1164" d="M 13.09375,72.90625 H 70.3125 L 68.890625,65.375 12.40625,8.296875 H 58.890625 L 57.328125,0 h -59.53125 l 1.421875,7.515625 56.5,57.078125 h -44.1875 z"/></defs><g id="g432" transform="matrix(0.13,0,0,-0.13,176.97586,109.96059)"><use id="use430" width="100%" height="100%" x="0" y="0" transform="translate(0,0.09375)" xlink:href="#DejaVuSans-Oblique-90-1"/></g></g></g><path id="path1177" d="m 183.25732,111.74271 c 0.94569,-1.16572 2.94103,-3.6253 5.11224,-6.30169 a 0.375,0.375 44.349039 0 0 -0.005,-0.47906 c -1.89759,-2.23338 -3.91846,-4.61184 -5.57148,-6.55738 l -0.57156,0.48562 c 1.59462,1.87679 3.53154,4.15645 5.36989,6.32011 -2.09459,2.58193 -3.99895,4.92937 -4.91609,6.0599 z m 0,0 c 0.94569,-1.16572 2.94103,-3.6253 5.11224,-6.30169 a 0.375,0.375 44.348389 0 0 -0.005,-0.47906 c -1.89759,-2.23338 -3.91846,-4.61184 -5.57148,-6.55738 l -0.57156,0.48562 c 1.59462,1.87679 3.53154,4.15645 5.36989,6.32011 -2.09459,2.58193 -3.99895,4.92937 -4.91609,6.0599 z" style="fill:#000;fill-rule:nonzero;stroke:none;stroke-width:.75px;stroke-linecap:butt;stroke-linejoin:miter;stroke-opacity:1"/><path id="path2681" d="m 152.90543,104.97537 h 44.35101" style="fill:none;stroke:#000;stroke-width:3;stroke-linecap:butt;stroke-linejoin:miter;stroke-miterlimit:4;stroke-dasharray:none;stroke-opacity:1;marker-end:url(#marker2605)"/></svg>