<svg xmlns="http://www.w3.org/2000/svg" xmlns:svg="http://www.w3.org/2000/svg" xmlns:xlink="http://www.w3.org/1999/xlink" id="svg953" width="251pt" height="200pt" version="1.1" viewBox="0 0 251 200"><metadata id="metadata957"/><defs id="defs835"><style id="style833" type="text/css">*{stroke-linecap:butt;stroke-linejoin:round}</style></defs><g id="axes_1" transform="translate(-85.283299,-46.83591)"><g id="line2d_1"><path style="fill:none;stroke:#000;stroke-width:2;stroke-linecap:square" id="path840" d="m 155.70128,68.1464 h 159.0785" clip-path="url(#pd45d881fdd)"/></g><g id="line2d_2"><path style="fill:none;stroke:#000;stroke-width:2;stroke-linecap:square" id="path843" d="m 155.70128,113.5974 h 159.0785" clip-path="url(#pd45d881fdd)"/></g><g id="line2d_3"><path style="fill:none;stroke:#000;stroke-width:2;stroke-linecap:square" id="path846" d="m 155.70128,159.0484 h 159.0785" clip-path="url(#pd45d881fdd)"/></g><g id="line2d_4"><path style="fill:none;stroke:#000;stroke-width:2;stroke-linecap:square" id="path849" d="m 155.70128,204.4994 h 159.0785" clip-path="url(#pd45d881fdd)"/></g><g id="line2d_5"><path style="fill:none;stroke:#6fa4ff;stroke-width:2;stroke-linecap:square" id="path852" d="M 178.42678,204.4994 V 68.1464" clip-path="url(#pd45d881fdd)"/></g><g id="line2d_6"><path style="fill:none;stroke:#6fa4ff;stroke-width:2;stroke-linecap:square" id="path855" d="m 223.87778,204.4994 v -90.902" clip-path="url(#pd45d881fdd)"/></g><g id="line2d_7"><path style="fill:none;stroke:#6fa4ff;stroke-width:2;stroke-linecap:square" id="path858" d="m 269.32878,204.4994 v -45.451" clip-path="url(#pd45d881fdd)"/></g><g id="patch_2"><path style="fill:#6fa4ff;stroke:#6fa4ff;stroke-width:1.5;stroke-linejoin:miter" id="path861" d="m 178.42678,72.577873 c 1.17524,0 2.3025,-0.466928 3.13352,-1.297949 0.83102,-0.83102 1.29795,-1.958284 1.29795,-3.133524 0,-1.17524 -0.46693,-2.302504 -1.29795,-3.133524 -0.83102,-0.831021 -1.95828,-1.297948 -3.13352,-1.297948 -1.17524,0 -2.3025,0.466927 -3.13352,1.297948 -0.83103,0.83102 -1.29795,1.958284 -1.29795,3.133524 0,1.17524 0.46692,2.302504 1.29795,3.133524 0.83102,0.831021 1.95828,1.297949 3.13352,1.297949 z" clip-path="url(#pd45d881fdd)"/></g><g id="patch_3"><path style="fill:#6fa4ff;stroke:#6fa4ff;stroke-width:2;stroke-linejoin:miter" id="path864" d="m 178.42678,214.8395 c 2.74223,0 5.37251,-1.0895 7.31156,-3.02854 1.93904,-1.93905 3.02854,-4.56933 3.02854,-7.31156 0,-2.74223 -1.0895,-5.37251 -3.02854,-7.31156 -1.93905,-1.93904 -4.56933,-3.02854 -7.31156,-3.02854 -2.74223,0 -5.37251,1.0895 -7.31156,3.02854 -1.93904,1.93905 -3.02854,4.56933 -3.02854,7.31156 0,2.74223 1.0895,5.37251 3.02854,7.31156 1.93905,1.93904 4.56933,3.02854 7.31156,3.02854 z" clip-path="url(#pd45d881fdd)"/></g><g id="patch_4"><path style="fill:#6fa4ff;stroke:#6fa4ff;stroke-width:1.5;stroke-linejoin:miter" id="path867" d="m 223.87778,118.02887 c 1.17524,0 2.3025,-0.46693 3.13352,-1.29795 0.83102,-0.83102 1.29795,-1.95828 1.29795,-3.13352 0,-1.17524 -0.46693,-2.3025 -1.29795,-3.13352 -0.83102,-0.83102 -1.95828,-1.29795 -3.13352,-1.29795 -1.17524,0 -2.3025,0.46693 -3.13352,1.29795 -0.83103,0.83102 -1.29795,1.95828 -1.29795,3.13352 0,1.17524 0.46692,2.3025 1.29795,3.13352 0.83102,0.83102 1.95828,1.29795 3.13352,1.29795 z" clip-path="url(#pd45d881fdd)"/></g><g id="patch_5"><path style="fill:#6fa4ff;stroke:#6fa4ff;stroke-width:2;stroke-linejoin:miter" id="path870" d="m 223.87778,214.8395 c 2.74223,0 5.37251,-1.0895 7.31156,-3.02854 1.93904,-1.93905 3.02854,-4.56933 3.02854,-7.31156 0,-2.74223 -1.0895,-5.37251 -3.02854,-7.31156 -1.93905,-1.93904 -4.56933,-3.02854 -7.31156,-3.02854 -2.74223,0 -5.37251,1.0895 -7.31156,3.02854 -1.93904,1.93905 -3.02854,4.56933 -3.02854,7.31156 0,2.74223 1.0895,5.37251 3.02854,7.31156 1.93905,1.93904 4.56933,3.02854 7.31156,3.02854 z" clip-path="url(#pd45d881fdd)"/></g><g id="patch_6"><path style="fill:#6fa4ff;stroke:#6fa4ff;stroke-width:1.5;stroke-linejoin:miter" id="path873" d="m 269.32878,163.47987 c 1.17524,0 2.3025,-0.46693 3.13352,-1.29795 0.83102,-0.83102 1.29795,-1.95828 1.29795,-3.13352 0,-1.17524 -0.46693,-2.3025 -1.29795,-3.13352 -0.83102,-0.83103 -1.95828,-1.29795 -3.13352,-1.29795 -1.17524,0 -2.3025,0.46692 -3.13352,1.29795 -0.83103,0.83102 -1.29795,1.95828 -1.29795,3.13352 0,1.17524 0.46692,2.3025 1.29795,3.13352 0.83102,0.83102 1.95828,1.29795 3.13352,1.29795 z" clip-path="url(#pd45d881fdd)"/></g><g id="patch_7"><path style="fill:#6fa4ff;stroke:#6fa4ff;stroke-width:2;stroke-linejoin:miter" id="path876" d="m 269.32878,214.8395 c 2.74223,0 5.37251,-1.0895 7.31156,-3.02854 1.93904,-1.93905 3.02854,-4.56933 3.02854,-7.31156 0,-2.74223 -1.0895,-5.37251 -3.02854,-7.31156 -1.93905,-1.93904 -4.56933,-3.02854 -7.31156,-3.02854 -2.74223,0 -5.37251,1.0895 -7.31156,3.02854 -1.93904,1.93905 -3.02854,4.56933 -3.02854,7.31156 0,2.74223 1.0895,5.37251 3.02854,7.31156 1.93905,1.93904 4.56933,3.02854 7.31156,3.02854 z" clip-path="url(#pd45d881fdd)"/></g><g id="line2d_8"><path style="fill:none;stroke:#fff;stroke-width:2;stroke-linecap:square" id="path879" d="M 178.42678,210.40803 V 198.59077" clip-path="url(#pd45d881fdd)"/></g><g id="line2d_9"><path style="fill:none;stroke:#fff;stroke-width:2;stroke-linecap:square" id="path882" d="m 172.51815,204.4994 h 11.81726" clip-path="url(#pd45d881fdd)"/></g><g id="line2d_10"><path style="fill:none;stroke:#fff;stroke-width:2;stroke-linecap:square" id="path885" d="M 223.87778,210.40803 V 198.59077" clip-path="url(#pd45d881fdd)"/></g><g id="line2d_11"><path style="fill:none;stroke:#fff;stroke-width:2;stroke-linecap:square" id="path888" d="m 217.96915,204.4994 h 11.81726" clip-path="url(#pd45d881fdd)"/></g><g id="line2d_12"><path style="fill:none;stroke:#fff;stroke-width:2;stroke-linecap:square" id="path891" d="M 269.32878,210.40803 V 198.59077" clip-path="url(#pd45d881fdd)"/></g><g id="line2d_13"><path style="fill:none;stroke:#fff;stroke-width:2;stroke-linecap:square" id="path894" d="m 263.42015,204.4994 h 11.81726" clip-path="url(#pd45d881fdd)"/></g><g id="text_1"><g id="g907" clip-path="url(#pd45d881fdd)"><defs id="defs899"><path id="DejaVuSans-Oblique-113" d="m 41.703125,8.203125 q -3.609375,-4.734375 -8.53125,-7.1875 -4.90625,-2.4375 -10.859375,-2.4375 -8.296875,0 -13.015625,5.59375 -4.703125,5.59375 -4.703125,15.40625 0,7.90625 2.90625,15.28125 2.90625,7.375 8.328125,13.234375 3.515625,3.8125 8.078125,5.859375 Q 28.46875,56 33.5,56 q 6.046875,0 9.953125,-2.390625 3.90625,-2.390625 5.671875,-7.21875 l 1.5625,8.203125 h 9.03125 L 45.125,-20.609375 H 36.078125 Z M 13.921875,20.90625 q 0,-7.234375 3.015625,-11.015625 3.03125,-3.78125 8.75,-3.78125 8.5,0 14.5,8.125 6,8.125 6,19.75 0,7.03125 -3.109375,10.765625 -3.09375,3.734375 -8.890625,3.734375 -4.25,0 -7.875,-1.984375 -3.609375,-1.96875 -6.296875,-5.78125 -2.828125,-4 -4.46875,-9.375 -1.625,-5.359375 -1.625,-10.4375 z"/><path id="DejaVuSans-48" d="m 31.78125,66.40625 q -7.609375,0 -11.453125,-7.5 Q 16.5,51.421875 16.5,36.375 q 0,-14.984375 3.828125,-22.484375 3.84375,-7.5 11.453125,-7.5 7.671875,0 11.5,7.5 3.84375,7.5 3.84375,22.484375 0,15.046875 -3.84375,22.53125 -3.828125,7.5 -11.5,7.5 z m 0,7.8125 q 12.265625,0 18.734375,-9.703125 6.46875,-9.6875 6.46875,-28.140625 0,-18.40625 -6.46875,-28.109375 -6.46875,-9.6875 -18.734375,-9.6875 -12.25,0 -18.71875,9.6875 Q 6.59375,17.96875 6.59375,36.375 q 0,18.453125 6.46875,28.140625 6.46875,9.703125 18.71875,9.703125 z"/></defs><g id="g905" transform="matrix(0.1625,0,0,-0.1625,114.93828,72.597377)"><use id="use901" width="100%" height="100%" x="0" y="0" xlink:href="#DejaVuSans-Oblique-113"/><use id="use903" width="100%" height="100%" x="0" y="0" transform="matrix(0.7,0,0,0.7,63.476562,-16.40625)" xlink:href="#DejaVuSans-48"/></g></g></g><g id="text_2"><g id="g919" clip-path="url(#pd45d881fdd)"><defs id="defs911"><path id="DejaVuSans-49" d="m 12.40625,8.296875 h 16.109375 v 55.625 L 10.984375,60.40625 v 8.984375 l 17.4375,3.515625 H 38.28125 V 8.296875 H 54.390625 V 0 H 12.40625 Z"/></defs><g id="g917" transform="matrix(0.1625,0,0,-0.1625,114.93828,118.04838)"><use id="use913" width="100%" height="100%" x="0" y="0" xlink:href="#DejaVuSans-Oblique-113"/><use id="use915" width="100%" height="100%" x="0" y="0" transform="matrix(0.7,0,0,0.7,63.476562,-16.40625)" xlink:href="#DejaVuSans-49"/></g></g></g><g id="text_3"><g id="g931" clip-path="url(#pd45d881fdd)"><defs id="defs923"><path id="DejaVuSans-50" d="M 19.1875,8.296875 H 53.609375 V 0 H 7.328125 v 8.296875 q 5.609375,5.8125 15.296875,15.59375 9.703125,9.796875 12.1875,12.640625 4.734375,5.3125 6.609375,9 1.890625,3.6875 1.890625,7.25 0,5.8125 -4.078125,9.46875 -4.078125,3.671875 -10.625,3.671875 -4.640625,0 -9.796875,-1.609375 -5.140625,-1.609375 -11,-4.890625 v 9.96875 Q 13.765625,71.78125 18.9375,73 q 5.1875,1.21875 9.484375,1.21875 11.328125,0 18.0625,-5.671875 6.734375,-5.65625 6.734375,-15.125 0,-4.5 -1.6875,-8.53125 Q 49.859375,40.875 45.40625,35.40625 44.1875,33.984375 37.640625,27.21875 31.109375,20.453125 19.1875,8.296875 Z"/></defs><g id="g929" transform="matrix(0.1625,0,0,-0.1625,114.93828,163.49938)"><use id="use925" width="100%" height="100%" x="0" y="0" xlink:href="#DejaVuSans-Oblique-113"/><use id="use927" width="100%" height="100%" x="0" y="0" transform="matrix(0.7,0,0,0.7,63.476562,-16.40625)" xlink:href="#DejaVuSans-50"/></g></g></g><g id="text_4"><g id="g943" clip-path="url(#pd45d881fdd)"><defs id="defs935"><path id="DejaVuSans-51" d="M 40.578125,39.3125 Q 47.65625,37.796875 51.625,33 q 3.984375,-4.78125 3.984375,-11.8125 0,-10.78125 -7.421875,-16.703125 -7.421875,-5.90625 -21.09375,-5.90625 -4.578125,0 -9.4375,0.90625 -4.859375,0.90625 -10.03125,2.71875 v 9.515625 q 4.09375,-2.390625 8.96875,-3.609375 4.890625,-1.21875 10.21875,-1.21875 9.265625,0 14.125,3.65625 4.859375,3.65625 4.859375,10.640625 0,6.453125 -4.515625,10.078125 -4.515625,3.640625 -12.5625,3.640625 h -8.5 v 8.109375 h 8.890625 q 7.265625,0 11.125,2.90625 3.859375,2.90625 3.859375,8.375 0,5.609375 -3.984375,8.609375 -3.96875,3.015625 -11.390625,3.015625 -4.0625,0 -8.703125,-0.890625 Q 15.375,64.15625 9.8125,62.3125 v 8.78125 q 5.625,1.5625 10.53125,2.34375 4.90625,0.78125 9.25,0.78125 11.234375,0 17.765625,-5.109375 6.546875,-5.09375 6.546875,-13.78125 0,-6.0625 -3.46875,-10.234375 -3.46875,-4.171875 -9.859375,-5.78125 z"/></defs><g id="g941" transform="matrix(0.1625,0,0,-0.1625,114.93828,208.95038)"><use id="use937" width="100%" height="100%" x="0" y="0" xlink:href="#DejaVuSans-Oblique-113"/><use id="use939" width="100%" height="100%" x="0" y="0" transform="matrix(0.7,0,0,0.7,63.476562,-16.40625)" xlink:href="#DejaVuSans-51"/></g></g></g></g><defs id="defs951"><clipPath id="pd45d881fdd"><rect id="rect948" width="270.888" height="199.984" x="48.437" y="31.786"/></clipPath></defs></svg>