<svg xmlns="http://www.w3.org/2000/svg" xmlns:svg="http://www.w3.org/2000/svg" xmlns:xlink="http://www.w3.org/1999/xlink" id="svg912" width="348.043" height="192.64" version="1.1" viewBox="0 0 261.032 144.48"><metadata id="metadata833"/><defs id="defs837"><style id="style835" type="text/css">*{stroke-linecap:butt;stroke-linejoin:round}</style></defs><g id="line2d_1" transform="translate(-40.80314,6.7554868)"><path style="fill:none;stroke:#000;stroke-width:2;stroke-linecap:square" id="path842" d="m 100.51059,53.6984 h 127.2628" clip-path="url(#pd6ab2512fa)"/></g><g id="line2d_2" transform="translate(-40.80314,6.7554868)"><path style="fill:none;stroke:#000;stroke-width:2;stroke-linecap:square" id="path845" d="m 100.51059,99.1494 h 127.2628" clip-path="url(#pd6ab2512fa)"/></g><g id="line2d_3" transform="translate(-40.80314,6.7554868)"><path style="fill:none;stroke:#6fa4ff;stroke-width:2;stroke-linecap:square" id="path848" d="M 182.32239,99.1494 V 53.6984" clip-path="url(#pd6ab2512fa)"/></g><g id="patch_2" transform="translate(-40.80314,6.7554868)"><path style="fill:#05bab6;stroke:#05bab6;stroke-width:1.5;stroke-linejoin:miter" id="path851" d="m 122.09982,68.469975 h 29.54315 v -29.54315 h -29.54315 z" clip-path="url(#pd6ab2512fa)"/></g><g id="patch_3" transform="translate(-40.80314,6.7554868)"><path style="fill:#05bab6;stroke:#05bab6;stroke-width:1.5;stroke-linejoin:miter" id="path854" d="m 122.09982,113.92098 h 29.54315 V 84.377825 h -29.54315 z" clip-path="url(#pd6ab2512fa)"/></g><g id="patch_4" transform="translate(-40.80314,6.7554868)"><path style="fill:#6fa4ff;stroke:#6fa4ff;stroke-width:1.5;stroke-linejoin:miter" id="path857" d="m 182.32239,58.129873 c 1.17524,0 2.30251,-0.466928 3.13353,-1.297949 0.83102,-0.83102 1.29795,-1.958284 1.29795,-3.133524 0,-1.17524 -0.46693,-2.302504 -1.29795,-3.133524 -0.83102,-0.831021 -1.95829,-1.297948 -3.13353,-1.297948 -1.17524,0 -2.3025,0.466927 -3.13352,1.297948 -0.83102,0.83102 -1.29795,1.958284 -1.29795,3.133524 0,1.17524 0.46693,2.302504 1.29795,3.133524 0.83102,0.831021 1.95828,1.297949 3.13352,1.297949 z" clip-path="url(#pd6ab2512fa)"/></g><g id="patch_5" transform="translate(-40.80314,6.7554868)"><path style="fill:#6fa4ff;stroke:#6fa4ff;stroke-width:1.5;stroke-linejoin:miter" id="path860" d="m 182.32239,103.58087 c 1.17524,0 2.30251,-0.46692 3.13353,-1.29795 0.83102,-0.83102 1.29795,-1.95828 1.29795,-3.13352 0,-1.17524 -0.46693,-2.302504 -1.29795,-3.133524 -0.83102,-0.831021 -1.95829,-1.297948 -3.13353,-1.297948 -1.17524,0 -2.3025,0.466927 -3.13352,1.297948 -0.83102,0.83102 -1.29795,1.958284 -1.29795,3.133524 0,1.17524 0.46693,2.3025 1.29795,3.13352 0.83102,0.83103 1.95828,1.29795 3.13352,1.29795 z" clip-path="url(#pd6ab2512fa)"/></g><g id="text_1" transform="translate(-40.80314,6.7554868)"><g id="g870" clip-path="url(#pd6ab2512fa)"><g id="g868" transform="matrix(0.13,0,0,-0.13,132.41889,57.285588)"><defs id="defs864"><path id="DejaVuSans-90" d="m 5.609375,72.90625 h 57.28125 V 65.375 L 16.796875,8.296875 h 47.21875 V 0 H 4.5 V 7.515625 L 50.59375,64.59375 H 5.609375 Z"/></defs><use id="use866" width="100%" height="100%" x="0" y="0" xlink:href="#DejaVuSans-90"/></g></g></g><g id="text_2" transform="translate(-40.80314,6.7554868)"><g id="g877" clip-path="url(#pd6ab2512fa)"><g id="g875" transform="matrix(0.13,0,0,-0.13,132.41889,102.73659)"><use id="use873" width="100%" height="100%" x="0" y="0" xlink:href="#DejaVuSans-90"/></g></g></g><defs id="defs910"><clipPath id="pd6ab2512fa"><rect id="rect907" width="197.079" height="109.082" x="35.239" y="17.338"/></clipPath></defs><rect style="fill:none;stroke:#000;stroke-width:2.26771;stroke-dasharray:6.80315,2.26771" id="rect1005" width="112.411" height="97.279" x="67.014" y="34.858"/><text style="font-style:normal;font-weight:400;font-size:30px;line-height:1.25;font-family:sans-serif;fill:#000;fill-opacity:1;stroke:none;stroke-width:.75;stroke-linecap:butt;stroke-linejoin:round" id="text1009" x="54.855" y="18.915" xml:space="preserve"><tspan id="tspan1007" x="54.855" y="18.915" style="font-style:normal;font-variant:normal;font-weight:400;font-stretch:normal;font-size:18px;font-family:'IBM Plex Mono';-inkscape-font-specification:'IBM Plex Mono Normal';font-variant-ligatures:normal;font-variant-caps:normal;font-variant-numeric:normal;font-variant-east-asian:normal;stroke-width:.75">Reflection U</tspan></text><text style="font-style:normal;font-variant:normal;font-weight:400;font-stretch:normal;font-size:10px;line-height:1.25;font-family:'IBM Plex Mono';-inkscape-font-specification:'IBM Plex Mono Normal';font-variant-ligatures:normal;font-variant-caps:normal;font-variant-numeric:normal;font-variant-east-asian:normal;fill:#000;fill-opacity:1;stroke:none;stroke-width:.75;stroke-linecap:butt;stroke-linejoin:round" id="text1031" x="184.019" y="21.888" xml:space="preserve"><tspan id="tspan1029" x="184.019" y="21.888" style="font-style:normal;font-variant:normal;font-weight:400;font-stretch:normal;font-size:10px;font-family:'IBM Plex Mono';-inkscape-font-specification:'IBM Plex Mono Normal';font-variant-ligatures:normal;font-variant-caps:normal;font-variant-numeric:normal;font-variant-east-asian:normal;stroke-width:.75">0</tspan></text></svg>