<svg xmlns="http://www.w3.org/2000/svg" xmlns:svg="http://www.w3.org/2000/svg" xmlns:xlink="http://www.w3.org/1999/xlink" id="svg912" width="220pt" height="140pt" version="1.1" viewBox="0 0 220 140"><metadata id="metadata833"/><defs id="defs837"><marker id="Arrow1Lstart" orient="auto" refX="0" refY="0" style="overflow:visible"><path id="path999" d="M 0,0 5,-5 -12.5,0 5,5 Z" transform="matrix(0.8,0,0,0.8,10,0)" style="fill-rule:evenodd;stroke:#000;stroke-width:1pt"/></marker><style id="style835" type="text/css">*{stroke-linecap:butt;stroke-linejoin:round}</style></defs><g id="line2d_1" transform="translate(-44.586213,2.4319748)"><path style="fill:none;stroke:#000;stroke-width:2;stroke-linecap:square" id="path842" d="m 100.51059,53.6984 h 127.2628" clip-path="url(#pbb903bc6a3)"/></g><g id="line2d_2" transform="translate(-44.586213,2.4319748)"><path style="fill:none;stroke:#000;stroke-width:2;stroke-linecap:square" id="path845" d="m 100.51059,99.1494 h 127.2628" clip-path="url(#pbb903bc6a3)"/></g><g id="line2d_3" transform="translate(-27.292166,2.7021938)"><path style="fill:none;stroke:#6fa4ff;stroke-width:2;stroke-linecap:square" id="path848" d="M 182.32239,99.1494 V 53.6984" clip-path="url(#pbb903bc6a3)"/></g><g id="patch_2" transform="translate(-44.586213,2.4319748)"><path style="fill:#6fa4ff;stroke:#6fa4ff;stroke-width:1.5;stroke-linejoin:miter" id="path851" d="m 122.09982,68.469975 h 29.54315 v -29.54315 h -29.54315 z" clip-path="url(#pbb903bc6a3)"/></g><g id="patch_3" transform="translate(-44.586213,2.4319748)"><path style="fill:#6fa4ff;stroke:#6fa4ff;stroke-width:1.5;stroke-linejoin:miter" id="path854" d="m 122.09982,113.92098 h 29.54315 V 84.377825 h -29.54315 z" clip-path="url(#pbb903bc6a3)"/></g><g id="patch_4" transform="translate(-27.292166,2.7021938)"><path style="fill:#6fa4ff;stroke:#6fa4ff;stroke-width:1.5;stroke-linejoin:miter" id="path857" d="m 182.32239,58.129873 c 1.17524,0 2.30251,-0.466928 3.13353,-1.297949 0.83102,-0.83102 1.29795,-1.958284 1.29795,-3.133524 0,-1.17524 -0.46693,-2.302504 -1.29795,-3.133524 -0.83102,-0.831021 -1.95829,-1.297948 -3.13353,-1.297948 -1.17524,0 -2.3025,0.466927 -3.13352,1.297948 -0.83102,0.83102 -1.29795,1.958284 -1.29795,3.133524 0,1.17524 0.46693,2.302504 1.29795,3.133524 0.83102,0.831021 1.95828,1.297949 3.13352,1.297949 z" clip-path="url(#pbb903bc6a3)"/></g><g id="patch_5" transform="translate(-27.292166,2.7021938)"><path style="fill:#6fa4ff;stroke:#6fa4ff;stroke-width:1.5;stroke-linejoin:miter" id="path860" d="m 182.32239,103.58087 c 1.17524,0 2.30251,-0.46692 3.13353,-1.29795 0.83102,-0.83102 1.29795,-1.95828 1.29795,-3.13352 0,-1.17524 -0.46693,-2.302504 -1.29795,-3.133524 -0.83102,-0.831021 -1.95829,-1.297948 -3.13353,-1.297948 -1.17524,0 -2.3025,0.466927 -3.13352,1.297948 -0.83102,0.83102 -1.29795,1.958284 -1.29795,3.133524 0,1.17524 0.46693,2.3025 1.29795,3.13352 0.83102,0.83103 1.95828,1.29795 3.13352,1.29795 z" clip-path="url(#pbb903bc6a3)"/></g><g id="text_1" transform="translate(-44.586213,2.4319748)"><g id="g870" clip-path="url(#pbb903bc6a3)"><g id="g868" transform="matrix(0.13,0,0,-0.13,131.98319,57.285588)"><defs id="defs864"><path id="DejaVuSans-72" d="m 9.8125,72.90625 h 9.859375 V 43.015625 h 35.84375 V 72.90625 H 65.375 V 0 H 55.515625 V 34.71875 H 19.671875 V 0 H 9.8125 Z"/></defs><use id="use866" width="100%" height="100%" x="0" y="0" xlink:href="#DejaVuSans-72"/></g></g></g><g id="text_2" transform="translate(-44.586213,2.4319748)"><g id="g877" clip-path="url(#pbb903bc6a3)"><g id="g875" transform="matrix(0.13,0,0,-0.13,131.98319,102.73659)"><use id="use873" width="100%" height="100%" x="0" y="0" xlink:href="#DejaVuSans-72"/></g></g></g><g id="text_3" transform="translate(-44.586213,2.4319748)"><g id="g890" clip-path="url(#pbb903bc6a3)"><g id="g888" transform="matrix(0.1625,0,0,-0.1625,64.292694,58.149377)"><defs id="defs882"><path id="DejaVuSans-Oblique-113" d="m 41.703125,8.203125 q -3.609375,-4.734375 -8.53125,-7.1875 -4.90625,-2.4375 -10.859375,-2.4375 -8.296875,0 -13.015625,5.59375 -4.703125,5.59375 -4.703125,15.40625 0,7.90625 2.90625,15.28125 2.90625,7.375 8.328125,13.234375 3.515625,3.8125 8.078125,5.859375 Q 28.46875,56 33.5,56 q 6.046875,0 9.953125,-2.390625 3.90625,-2.390625 5.671875,-7.21875 l 1.5625,8.203125 h 9.03125 L 45.125,-20.609375 H 36.078125 Z M 13.921875,20.90625 q 0,-7.234375 3.015625,-11.015625 3.03125,-3.78125 8.75,-3.78125 8.5,0 14.5,8.125 6,8.125 6,19.75 0,7.03125 -3.109375,10.765625 -3.09375,3.734375 -8.890625,3.734375 -4.25,0 -7.875,-1.984375 -3.609375,-1.96875 -6.296875,-5.78125 -2.828125,-4 -4.46875,-9.375 -1.625,-5.359375 -1.625,-10.4375 z"/><path id="DejaVuSans-48" d="m 31.78125,66.40625 q -7.609375,0 -11.453125,-7.5 Q 16.5,51.421875 16.5,36.375 q 0,-14.984375 3.828125,-22.484375 3.84375,-7.5 11.453125,-7.5 7.671875,0 11.5,7.5 3.84375,7.5 3.84375,22.484375 0,15.046875 -3.84375,22.53125 -3.828125,7.5 -11.5,7.5 z m 0,7.8125 q 12.265625,0 18.734375,-9.703125 6.46875,-9.6875 6.46875,-28.140625 0,-18.40625 -6.46875,-28.109375 -6.46875,-9.6875 -18.734375,-9.6875 -12.25,0 -18.71875,9.6875 Q 6.59375,17.96875 6.59375,36.375 q 0,18.453125 6.46875,28.140625 6.46875,9.703125 18.71875,9.703125 z"/></defs><use id="use884" width="100%" height="100%" x="0" y="0" xlink:href="#DejaVuSans-Oblique-113"/><use id="use886" width="100%" height="100%" x="0" y="0" transform="matrix(0.7,0,0,0.7,63.476562,-16.40625)" xlink:href="#DejaVuSans-48"/></g></g></g><g id="text_4" transform="translate(-44.586213,2.4319748)"><g id="g902" clip-path="url(#pbb903bc6a3)"><g id="g900" transform="matrix(0.1625,0,0,-0.1625,64.292694,103.60038)"><defs id="defs894"><path id="DejaVuSans-49" d="m 12.40625,8.296875 h 16.109375 v 55.625 L 10.984375,60.40625 v 8.984375 l 17.4375,3.515625 H 38.28125 V 8.296875 H 54.390625 V 0 H 12.40625 Z"/></defs><use id="use896" width="100%" height="100%" x="0" y="0" xlink:href="#DejaVuSans-Oblique-113"/><use id="use898" width="100%" height="100%" x="0" y="0" transform="matrix(0.7,0,0,0.7,63.476562,-16.40625)" xlink:href="#DejaVuSans-49"/></g></g></g><defs id="defs910"><clipPath id="pbb903bc6a3"><rect id="rect907" width="197.079" height="109.082" x="35.239" y="17.338"/></clipPath></defs><rect style="fill:none;stroke:#000;stroke-width:2.26772;stroke-miterlimit:4;stroke-dasharray:6.80315,2.26772;stroke-dashoffset:0;stroke-opacity:1" id="rect997" width="37.29" height="82.687" x="136.191" y="37.29"/><text style="font-style:normal;font-variant:normal;font-weight:400;font-stretch:normal;font-size:16px;line-height:1.25;font-family:'IBM Plex Mono';-inkscape-font-specification:'IBM Plex Mono Normal';font-variant-ligatures:normal;font-variant-caps:normal;font-variant-numeric:normal;font-variant-east-asian:normal;fill:#000;fill-opacity:1;stroke:none;stroke-width:.75;stroke-linecap:butt;stroke-linejoin:round" id="text1265" x="127.003" y="21.347" xml:space="preserve"><tspan id="tspan1263" x="127.003" y="21.347" style="font-style:normal;font-variant:normal;font-weight:400;font-stretch:normal;font-size:16px;font-family:'IBM Plex Mono';-inkscape-font-specification:'IBM Plex Mono Normal';font-variant-ligatures:normal;font-variant-caps:normal;font-variant-numeric:normal;font-variant-east-asian:normal;stroke-width:.75">Oracle</tspan></text><text style="font-style:normal;font-variant:normal;font-weight:400;font-stretch:normal;font-size:16px;line-height:1.25;font-family:'IBM Plex Mono';-inkscape-font-specification:'IBM Plex Mono Normal';font-variant-ligatures:normal;font-variant-caps:normal;font-variant-numeric:normal;font-variant-east-asian:normal;fill:#000;fill-opacity:1;stroke:none;stroke-width:.75;stroke-linecap:butt;stroke-linejoin:round" id="text1277" x="72.149" y="20.807" xml:space="preserve"><tspan id="tspan1275" x="72.149" y="20.807" style="font-style:normal;font-variant:normal;font-weight:400;font-stretch:normal;font-size:16px;font-family:'IBM Plex Mono';-inkscape-font-specification:'IBM Plex Mono Normal';font-variant-ligatures:normal;font-variant-caps:normal;font-variant-numeric:normal;font-variant-east-asian:normal;stroke-width:.75">init</tspan></text></svg>