<svg width="517" height="224" viewBox="0 0 517 224" fill="none" xmlns="http://www.w3.org/2000/svg">
<g clip-path="url(#clip0_1163_19138)">
<rect width="517" height="224" fill="white"/>
<rect opacity="0.4" y="200" width="517" height="28" fill="#F2F4F8"/>
<rect opacity="0.4" y="120" width="517" height="40" fill="#F2F4F8"/>
<rect opacity="0.4" y="40" width="517" height="40" fill="#F2F4F8"/>
<rect x="0.5" y="0.5" width="516" height="223" stroke="#DDE1E6"/>
<rect width="70" height="144" transform="translate(192 43)" fill="#1192E8"/>
<path d="M216.895 115L213.479 105.228H211.981L208.565 115H209.755L210.735 112.116H214.683L215.663 115H216.895ZM214.389 111.08H211.015L212.667 106.32H212.737L214.389 111.08ZM218.561 117.8H219.681V113.824H219.737C220.171 114.72 220.857 115.168 221.851 115.168C223.657 115.168 224.791 113.698 224.791 111.388C224.791 109.078 223.657 107.608 221.851 107.608C220.857 107.608 220.115 108.042 219.737 108.952H219.681V107.776H218.561V117.8ZM221.543 114.16C220.521 114.16 219.681 113.628 219.681 112.69V110.002C219.681 109.204 220.521 108.616 221.543 108.616C222.803 108.616 223.587 109.484 223.587 110.772V112.004C223.587 113.292 222.803 114.16 221.543 114.16ZM226.842 117.8H227.962V113.824H228.018C228.452 114.72 229.138 115.168 230.132 115.168C231.938 115.168 233.072 113.698 233.072 111.388C233.072 109.078 231.938 107.608 230.132 107.608C229.138 107.608 228.396 108.042 228.018 108.952H227.962V107.776H226.842V117.8ZM229.824 114.16C228.802 114.16 227.962 113.628 227.962 112.69V110.002C227.962 109.204 228.802 108.616 229.824 108.616C231.084 108.616 231.868 109.484 231.868 110.772V112.004C231.868 113.292 231.084 114.16 229.824 114.16ZM237.307 115V114.02H236.243V104.64H235.123V113.838C235.123 114.51 235.543 115 236.313 115H237.307ZM241.663 112.69L241.271 113.866H241.201L240.865 112.69L239.129 107.776H238.009L240.711 115.28L240.165 116.82H239.031V117.8H239.605C240.669 117.8 240.963 117.548 241.285 116.68L244.519 107.776H243.413L241.663 112.69Z" fill="white"/>
<path d="M213.763 134.394C213.323 136.002 212.653 138.376 212.653 139.85C212.653 140.367 212.979 140.597 213.438 140.597C214.204 140.597 215.64 139.774 215.64 139.391C215.64 139.295 215.544 139.257 215.448 139.257C215.218 139.257 214.874 139.429 214.663 139.544C214.414 139.506 214.28 139.314 214.28 139.046C214.28 136.711 216.463 130.01 217.018 128.593C217.248 128.057 217.497 127.273 217.497 127.119C217.497 126.985 217.382 126.985 217.305 126.985C216.903 126.985 216.042 127.502 215.888 127.866C215.64 128.536 215.601 128.632 215.372 129.34C214.74 131.159 212.845 134.318 210.949 136.538C210.356 137.208 208.48 139.429 207.12 139.429C206.202 139.429 205.627 138.644 205.627 137.381C205.627 136.041 206.374 134.318 207.523 131.695C208.212 130.125 208.786 128.766 208.786 127.904C208.786 127.004 208.173 126.985 207.829 126.985C206.355 126.985 204.517 128.172 204.517 128.574C204.517 128.689 204.651 128.689 204.727 128.689C204.957 128.689 205.302 128.536 205.608 128.325C205.742 128.23 206.048 128.038 206.565 128.038C206.986 128.038 207.159 128.306 207.159 128.727C207.159 129.57 206.47 131.14 205.666 132.977C204.402 135.849 204 137.074 204 138.185C204 139.448 204.498 140.482 205.857 140.482C207.044 140.482 208.786 139.697 210.739 137.878C212.06 136.634 212.921 135.485 213.744 134.375L213.763 134.394Z" fill="white"/>
<path d="M221.373 125.663C221.679 125.701 221.705 125.701 222.266 125.854C222.458 125.905 222.739 125.969 222.943 125.969C223.441 125.969 223.466 125.548 223.466 125.497C223.466 125.357 223.402 125.012 222.943 125.012C222.649 125.012 222.266 125.114 222.037 125.191C221.705 125.28 221.628 125.293 221.373 125.318C221.399 124.948 221.437 124.565 221.565 123.761C221.641 123.366 221.692 122.97 221.692 122.574C221.692 122.383 221.641 122 221.22 122C220.735 122 220.735 122.459 220.735 122.574C220.735 122.613 220.735 123.059 220.863 123.761C220.965 124.425 221.028 124.859 221.054 125.318C220.748 125.28 220.722 125.28 220.161 125.127C219.969 125.076 219.688 125.012 219.484 125.012C218.986 125.012 218.961 125.433 218.961 125.484C218.961 125.625 219.025 125.969 219.484 125.969C219.778 125.969 220.161 125.867 220.39 125.791C220.722 125.701 220.799 125.688 221.054 125.663C221.028 126.007 220.977 126.263 220.901 126.595C220.735 127.411 220.735 127.539 220.735 128.19C220.735 130.577 220.965 133.104 221.003 133.461C221.028 133.64 221.028 133.729 221.207 133.729C221.386 133.729 221.399 133.64 221.424 133.486C221.488 132.95 221.539 132.134 221.577 131.572C221.616 131.036 221.692 129.428 221.692 128.19C221.692 127.616 221.692 127.399 221.539 126.709C221.539 126.671 221.399 126.033 221.373 125.663Z" fill="white"/>
<path d="M221.692 144.366C224.066 144.149 225.33 142.898 225.33 141.75C225.33 140.537 224.002 139.325 221.692 139.12V138.431C221.692 137.985 221.692 137.806 222.892 137.806H223.301V137.385C222.726 137.423 221.769 137.423 221.156 137.423C220.544 137.423 219.574 137.423 219 137.385V137.806H219.408C220.608 137.806 220.608 137.985 220.608 138.431V139.133C218.476 139.325 217.06 140.499 217.06 141.737C217.06 143.039 218.54 144.162 220.608 144.353V145.055C220.608 145.502 220.608 145.681 219.408 145.681H219V146.102C219.574 146.063 220.531 146.063 221.144 146.063C221.756 146.063 222.726 146.063 223.301 146.102V145.681H222.892C221.692 145.681 221.692 145.502 221.692 145.055V144.366ZM220.608 143.996C219.497 143.868 218.349 143.345 218.349 141.75C218.349 140.32 219.255 139.644 220.608 139.491V143.996ZM221.692 139.491C222.816 139.58 224.041 140.09 224.041 141.737C224.041 143.37 222.867 143.894 221.692 143.996V139.491Z" fill="white"/>
<path d="M230.35 149.292C230.453 149.292 230.606 149.292 230.606 149.139C230.606 149.088 230.593 149.075 230.427 148.909C228.679 147.263 228.245 144.889 228.245 142.911C228.245 139.235 229.763 137.512 230.414 136.925C230.593 136.759 230.606 136.746 230.606 136.682C230.606 136.619 230.555 136.529 230.427 136.529C230.223 136.529 229.585 137.18 229.483 137.295C227.772 139.082 227.415 141.379 227.415 142.911C227.415 145.77 228.615 148.067 230.35 149.292Z" fill="white"/>
<path d="M238.997 138.546L238.691 138.852C238.474 139.082 238.436 139.171 238.436 139.261C238.436 139.414 238.576 139.554 238.729 139.554C238.87 139.554 238.934 139.465 238.972 139.427C239.151 139.222 239.457 138.84 240.057 138.559C240.184 138.495 240.325 138.431 240.325 138.252C240.325 138.087 240.197 138.023 240.133 137.972C239.712 137.716 239.597 137.423 239.533 137.231C239.508 137.129 239.444 136.951 239.24 136.951C239.049 136.951 238.946 137.117 238.946 137.244C238.946 137.321 239.036 137.653 239.253 137.959H234.786C234.582 137.959 234.301 137.959 234.301 138.252C234.301 138.546 234.582 138.546 234.786 138.546H238.997Z" fill="white"/>
<path d="M239.197 141.047C239.287 140.945 239.35 140.869 239.35 140.792C239.35 140.677 239.261 140.601 239.172 140.601C239.082 140.601 239.057 140.626 238.942 140.754L235.917 143.957C235.19 141.954 235.19 141.928 234.896 141.379C234.769 141.111 234.45 140.473 233.25 140.473C232.407 140.473 232.063 141.175 232.063 141.354C232.063 141.456 232.139 141.52 232.254 141.52C232.407 141.52 232.42 141.456 232.459 141.354C232.612 140.971 232.956 140.831 233.148 140.831C233.85 140.831 234.871 144.059 235.113 144.8L231.961 148.144C231.833 148.284 231.808 148.297 231.808 148.386C231.808 148.501 231.897 148.577 231.999 148.577C232.037 148.577 232.088 148.577 232.229 148.424L235.254 145.221C236.249 148.182 236.504 148.309 236.989 148.526C237.193 148.616 237.538 148.705 237.921 148.705C238.712 148.705 239.095 148.041 239.095 147.824C239.095 147.71 239.019 147.659 238.904 147.659C238.763 147.659 238.738 147.722 238.699 147.824C238.597 148.105 238.291 148.348 238.01 148.348C237.627 148.348 237.181 147.352 237.002 146.969C236.709 146.331 236.709 146.306 236.045 144.391L239.197 141.047Z" fill="white"/>
<path d="M244.235 142.074C244.235 141.787 244.005 141.691 243.852 141.691C243.546 141.691 243.306 141.988 243.306 142.218C243.306 142.419 243.459 142.601 243.699 142.601C243.948 142.601 244.235 142.361 244.235 142.074ZM242.196 148.478C242.014 149.196 241.449 149.684 240.894 149.684C240.865 149.684 240.597 149.674 240.597 149.636C240.597 149.627 240.626 149.607 240.626 149.598C240.77 149.483 240.837 149.33 240.837 149.186C240.837 148.88 240.588 148.813 240.454 148.813C240.195 148.813 239.908 149.024 239.908 149.378C239.908 149.885 240.511 150 240.904 150C241.545 150 242.694 149.636 242.981 148.488L243.842 145.061C243.861 144.965 243.89 144.879 243.89 144.745C243.89 144.209 243.412 143.826 242.799 143.826C241.717 143.826 241.047 145.118 241.047 145.3C241.047 145.357 241.086 145.434 241.22 145.434C241.354 145.434 241.363 145.396 241.43 145.262C241.708 144.64 242.244 144.142 242.77 144.142C243.057 144.142 243.124 144.381 243.124 144.62C243.124 144.745 243.105 144.879 243.096 144.908L242.196 148.478Z" fill="white"/>
<path d="M249.987 142.911C249.987 141.698 249.782 140.243 248.991 138.737C248.366 137.563 247.204 136.529 246.975 136.529C246.847 136.529 246.809 136.619 246.809 136.682C246.809 136.734 246.809 136.759 246.962 136.912C248.749 138.61 249.157 140.945 249.157 142.911C249.157 146.574 247.638 148.309 246.987 148.896C246.821 149.062 246.809 149.075 246.809 149.139C246.809 149.203 246.847 149.292 246.975 149.292C247.179 149.292 247.817 148.641 247.919 148.526C249.629 146.739 249.987 144.442 249.987 142.911Z" fill="white"/>
<rect width="70" height="144" transform="translate(103 43)" fill="#1192E8"/>
<path d="M127.895 115L124.479 105.228H122.981L119.565 115H120.755L121.735 112.116H125.683L126.663 115H127.895ZM125.389 111.08H122.015L123.667 106.32H123.737L125.389 111.08ZM129.561 117.8H130.681V113.824H130.737C131.171 114.72 131.857 115.168 132.851 115.168C134.657 115.168 135.791 113.698 135.791 111.388C135.791 109.078 134.657 107.608 132.851 107.608C131.857 107.608 131.115 108.042 130.737 108.952H130.681V107.776H129.561V117.8ZM132.543 114.16C131.521 114.16 130.681 113.628 130.681 112.69V110.002C130.681 109.204 131.521 108.616 132.543 108.616C133.803 108.616 134.587 109.484 134.587 110.772V112.004C134.587 113.292 133.803 114.16 132.543 114.16ZM137.842 117.8H138.962V113.824H139.018C139.452 114.72 140.138 115.168 141.132 115.168C142.938 115.168 144.072 113.698 144.072 111.388C144.072 109.078 142.938 107.608 141.132 107.608C140.138 107.608 139.396 108.042 139.018 108.952H138.962V107.776H137.842V117.8ZM140.824 114.16C139.802 114.16 138.962 113.628 138.962 112.69V110.002C138.962 109.204 139.802 108.616 140.824 108.616C142.084 108.616 142.868 109.484 142.868 110.772V112.004C142.868 113.292 142.084 114.16 140.824 114.16ZM148.307 115V114.02H147.243V104.64H146.123V113.838C146.123 114.51 146.543 115 147.313 115H148.307ZM152.663 112.69L152.271 113.866H152.201L151.865 112.69L150.129 107.776H149.009L151.711 115.28L151.165 116.82H150.031V117.8H150.605C151.669 117.8 151.963 117.548 152.285 116.68L155.519 107.776H154.413L152.663 112.69Z" fill="white"/>
<path d="M125.147 133.7C124.689 135.371 123.993 137.838 123.993 139.37C123.993 139.907 124.331 140.146 124.809 140.146C125.605 140.146 127.097 139.291 127.097 138.893C127.097 138.793 126.997 138.753 126.898 138.753C126.659 138.753 126.301 138.932 126.082 139.052C125.823 139.012 125.684 138.813 125.684 138.535C125.684 136.107 127.952 129.144 128.529 127.671C128.768 127.114 129.027 126.298 129.027 126.139C129.027 126 128.907 126 128.828 126C128.41 126 127.515 126.537 127.355 126.915C127.097 127.612 127.057 127.711 126.818 128.447C126.162 130.337 124.192 133.62 122.222 135.928C121.605 136.625 119.656 138.932 118.243 138.932C117.288 138.932 116.691 138.117 116.691 136.804C116.691 135.411 117.467 133.62 118.661 130.894C119.377 129.263 119.974 127.85 119.974 126.955C119.974 126.02 119.337 126 118.979 126C117.447 126 115.537 127.234 115.537 127.651C115.537 127.771 115.676 127.771 115.756 127.771C115.995 127.771 116.353 127.612 116.671 127.393C116.811 127.293 117.129 127.094 117.666 127.094C118.104 127.094 118.283 127.373 118.283 127.811C118.283 128.686 117.567 130.317 116.731 132.227C115.418 135.212 115 136.485 115 137.639C115 138.952 115.517 140.027 116.93 140.027C118.163 140.027 119.974 139.211 122.003 137.321C123.376 136.028 124.272 134.834 125.127 133.68L125.147 133.7Z" fill="white"/>
<path d="M133.387 140.88C135.854 140.654 137.167 139.355 137.167 138.161C137.167 136.901 135.788 135.641 133.387 135.428V134.712C133.387 134.248 133.387 134.062 134.634 134.062H135.058V133.625C134.462 133.664 133.467 133.664 132.83 133.664C132.193 133.664 131.185 133.664 130.588 133.625V134.062H131.013C132.26 134.062 132.26 134.248 132.26 134.712V135.442C130.045 135.641 128.572 136.861 128.572 138.148C128.572 139.5 130.111 140.668 132.26 140.867V141.596C132.26 142.06 132.26 142.246 131.013 142.246H130.588V142.684C131.185 142.644 132.18 142.644 132.817 142.644C133.453 142.644 134.462 142.644 135.058 142.684V142.246H134.634C133.387 142.246 133.387 142.06 133.387 141.596V140.88ZM132.26 140.495C131.106 140.363 129.912 139.819 129.912 138.161C129.912 136.675 130.854 135.972 132.26 135.813V140.495ZM133.387 135.813C134.554 135.906 135.828 136.436 135.828 138.148C135.828 139.845 134.607 140.389 133.387 140.495V135.813Z" fill="white"/>
<path d="M142.385 146C142.491 146 142.65 146 142.65 145.841C142.65 145.788 142.637 145.774 142.464 145.602C140.647 143.891 140.196 141.424 140.196 139.368C140.196 135.548 141.775 133.757 142.451 133.147C142.637 132.975 142.65 132.961 142.65 132.895C142.65 132.829 142.597 132.736 142.464 132.736C142.252 132.736 141.589 133.412 141.483 133.532C139.705 135.389 139.334 137.776 139.334 139.368C139.334 142.339 140.581 144.727 142.385 146Z" fill="white"/>
<path d="M151.372 134.832L151.054 135.15C150.829 135.389 150.789 135.482 150.789 135.575C150.789 135.734 150.935 135.88 151.094 135.88C151.24 135.88 151.306 135.787 151.346 135.747C151.532 135.535 151.85 135.137 152.473 134.845C152.606 134.779 152.752 134.712 152.752 134.527C152.752 134.354 152.619 134.288 152.553 134.235C152.115 133.97 151.996 133.665 151.929 133.466C151.903 133.36 151.837 133.174 151.624 133.174C151.425 133.174 151.319 133.346 151.319 133.479C151.319 133.558 151.412 133.903 151.638 134.222H146.995C146.783 134.222 146.491 134.222 146.491 134.527C146.491 134.832 146.783 134.832 146.995 134.832H151.372Z" fill="white"/>
<path d="M151.58 137.431C151.673 137.325 151.739 137.246 151.739 137.166C151.739 137.047 151.647 136.967 151.554 136.967C151.461 136.967 151.434 136.994 151.315 137.126L148.171 140.456C147.415 138.373 147.415 138.347 147.11 137.776C146.978 137.498 146.646 136.834 145.399 136.834C144.524 136.834 144.166 137.564 144.166 137.75C144.166 137.856 144.245 137.922 144.365 137.922C144.524 137.922 144.537 137.856 144.577 137.75C144.736 137.352 145.094 137.206 145.293 137.206C146.023 137.206 147.084 140.562 147.336 141.331L144.06 144.806C143.927 144.952 143.9 144.965 143.9 145.058C143.9 145.178 143.993 145.257 144.099 145.257C144.139 145.257 144.192 145.257 144.338 145.098L147.482 141.769C148.516 144.846 148.782 144.979 149.286 145.204C149.498 145.297 149.856 145.39 150.254 145.39C151.076 145.39 151.474 144.7 151.474 144.475C151.474 144.355 151.395 144.302 151.275 144.302C151.129 144.302 151.103 144.368 151.063 144.475C150.957 144.766 150.639 145.018 150.347 145.018C149.949 145.018 149.485 143.984 149.299 143.586C148.994 142.923 148.994 142.896 148.304 140.907L151.58 137.431Z" fill="white"/>
<path d="M155.662 138.499C155.662 138.26 155.483 138.101 155.254 138.101C154.985 138.101 154.697 138.359 154.697 138.648C154.697 138.896 154.876 139.046 155.095 139.046C155.413 139.046 155.662 138.747 155.662 138.499ZM155.065 141.97C155.105 141.871 155.194 141.632 155.234 141.543C155.264 141.453 155.304 141.354 155.304 141.184C155.304 140.627 154.806 140.319 154.309 140.319C153.294 140.319 152.807 141.632 152.807 141.851C152.807 141.901 152.846 141.99 152.986 141.99C153.125 141.99 153.155 141.931 153.185 141.841C153.463 140.876 153.99 140.647 154.269 140.647C154.468 140.647 154.538 140.777 154.538 141.005C154.538 141.204 154.478 141.354 154.458 141.423L153.941 142.697C153.821 142.985 153.821 143.005 153.692 143.343C153.563 143.642 153.513 143.771 153.513 143.94C153.513 144.447 153.971 144.806 154.518 144.806C155.522 144.806 156.02 143.492 156.02 143.274C156.02 143.254 156.01 143.134 155.831 143.134C155.692 143.134 155.682 143.184 155.622 143.373C155.463 143.88 155.055 144.477 154.548 144.477C154.368 144.477 154.279 144.358 154.279 144.119C154.279 143.92 154.339 143.771 154.468 143.463L155.065 141.97Z" fill="white"/>
<path d="M161.561 139.368C161.561 138.108 161.348 136.596 160.526 135.031C159.876 133.81 158.669 132.736 158.43 132.736C158.298 132.736 158.258 132.829 158.258 132.895C158.258 132.948 158.258 132.975 158.417 133.134C160.274 134.898 160.698 137.325 160.698 139.368C160.698 143.175 159.12 144.979 158.444 145.589C158.271 145.761 158.258 145.774 158.258 145.841C158.258 145.907 158.298 146 158.43 146C158.642 146 159.306 145.323 159.412 145.204C161.189 143.347 161.561 140.96 161.561 139.368Z" fill="white"/>
<path d="M493.593 108.719L493.949 108.362C494.63 107.666 495.203 107.495 495.745 107.449C495.915 107.434 496.054 107.418 496.054 107.155C496.054 107 495.9 107 495.869 107C495.683 107 495.482 107.031 495.296 107.031H494.661C494.212 107.031 493.732 107 493.299 107C493.19 107 493.02 107 493.02 107.294C493.02 107.434 493.175 107.449 493.221 107.449C493.686 107.48 493.686 107.712 493.686 107.805C493.686 107.975 493.562 108.208 493.252 108.564L489.567 112.79L487.818 108.084C487.725 107.867 487.725 107.836 487.725 107.805C487.725 107.48 488.36 107.449 488.545 107.449C488.731 107.449 488.902 107.449 488.902 107.17C488.902 107 488.762 107 488.669 107C488.406 107 488.096 107.031 487.833 107.031H486.115C485.836 107.031 485.542 107 485.279 107C485.17 107 485 107 485 107.294C485 107.449 485.139 107.449 485.372 107.449C486.13 107.449 486.27 107.588 486.409 107.944L488.329 113.1C488.344 113.146 488.391 113.317 488.391 113.363C488.391 113.41 487.632 116.46 487.586 116.615C487.462 117.033 487.307 117.11 486.316 117.125C486.053 117.125 485.929 117.125 485.929 117.42C485.929 117.574 486.099 117.574 486.146 117.574C486.424 117.574 486.75 117.543 487.044 117.543H488.871C489.149 117.543 489.474 117.574 489.753 117.574C489.861 117.574 490.047 117.574 490.047 117.296C490.047 117.125 489.939 117.125 489.676 117.125C488.716 117.125 488.716 117.017 488.716 116.847C488.716 116.738 488.84 116.243 488.917 115.933L489.474 113.704C489.567 113.379 489.567 113.348 489.707 113.193L493.593 108.719Z" fill="black"/>
<path d="M496.36 113.456C496.36 113.229 496.195 113.064 495.957 113.064C495.689 113.064 495.39 113.312 495.39 113.621C495.39 113.848 495.555 114.014 495.792 114.014C496.061 114.014 496.36 113.766 496.36 113.456ZM494.853 117.244L494.296 118.669C494.244 118.823 494.192 118.947 494.192 119.123C494.192 119.628 494.585 120 495.132 120C496.133 120 496.556 118.555 496.556 118.421C496.556 118.318 496.473 118.287 496.401 118.287C496.277 118.287 496.257 118.359 496.226 118.462C495.988 119.288 495.565 119.711 495.152 119.711C495.028 119.711 494.905 119.659 494.905 119.381C494.905 119.133 494.977 118.947 495.111 118.627C495.214 118.349 495.317 118.07 495.431 117.791L495.751 116.955C495.844 116.718 495.968 116.398 495.968 116.222C495.968 115.706 495.555 115.345 495.028 115.345C494.027 115.345 493.594 116.79 493.594 116.924C493.594 117.017 493.666 117.058 493.749 117.058C493.883 117.058 493.893 116.996 493.924 116.893C494.213 115.913 494.688 115.634 494.997 115.634C495.142 115.634 495.245 115.686 495.245 115.975C495.245 116.078 495.235 116.222 495.132 116.532L494.853 117.244Z" fill="black"/>
<rect width="80" height="144" transform="translate(346 43)" fill="#1192E8"/>
<path d="M361.179 110.168C362.803 110.168 363.993 109.314 364.609 107.942L363.671 107.354C363.279 108.418 362.425 109.118 361.179 109.118C359.499 109.118 358.505 107.9 358.505 105.898V104.442C358.505 102.44 359.499 101.11 361.179 101.11C362.383 101.11 363.195 101.768 363.587 102.776L364.539 102.202C363.923 100.844 362.803 100.06 361.179 100.06C358.715 100.06 357.245 101.908 357.245 105.17C357.245 108.432 358.715 110.168 361.179 110.168ZM368.663 110V109.02H367.599V99.64H366.479V108.838C366.479 109.51 366.899 110 367.669 110H368.663ZM376.333 110V109.02H375.507V105.044C375.507 103.518 374.471 102.608 372.735 102.608C371.433 102.608 370.565 103.252 370.173 104.022L370.845 104.652C371.237 103.994 371.811 103.574 372.679 103.574C373.827 103.574 374.387 104.134 374.387 105.156V105.87H372.959C370.859 105.87 369.879 106.626 369.879 107.984C369.879 109.328 370.775 110.168 372.301 110.168C373.309 110.168 374.079 109.706 374.387 108.824H374.457C374.541 109.496 374.877 110 375.703 110H376.333ZM372.483 109.216C371.615 109.216 371.055 108.81 371.055 108.096V107.802C371.055 107.102 371.629 106.71 372.903 106.71H374.387V107.9C374.387 108.642 373.589 109.216 372.483 109.216ZM380.262 110.168C381.914 110.168 382.936 109.314 382.936 107.914C382.936 106.822 382.32 106.122 380.724 105.884L380.164 105.8C379.268 105.66 378.778 105.38 378.778 104.68C378.778 103.994 379.268 103.56 380.192 103.56C381.116 103.56 381.732 103.994 382.054 104.442L382.796 103.77C382.208 103.042 381.438 102.608 380.276 102.608C378.806 102.608 377.7 103.308 377.7 104.736C377.7 106.08 378.694 106.626 380.024 106.822L380.598 106.906C381.55 107.046 381.858 107.48 381.858 108.04C381.858 108.782 381.298 109.216 380.346 109.216C379.436 109.216 378.764 108.81 378.204 108.11L377.406 108.754C378.05 109.608 378.932 110.168 380.262 110.168ZM387.162 110.168C388.814 110.168 389.836 109.314 389.836 107.914C389.836 106.822 389.22 106.122 387.624 105.884L387.064 105.8C386.168 105.66 385.678 105.38 385.678 104.68C385.678 103.994 386.168 103.56 387.092 103.56C388.016 103.56 388.632 103.994 388.954 104.442L389.696 103.77C389.108 103.042 388.338 102.608 387.176 102.608C385.706 102.608 384.6 103.308 384.6 104.736C384.6 106.08 385.594 106.626 386.924 106.822L387.498 106.906C388.45 107.046 388.758 107.48 388.758 108.04C388.758 108.782 388.198 109.216 387.246 109.216C386.336 109.216 385.664 108.81 385.104 108.11L384.306 108.754C384.95 109.608 385.832 110.168 387.162 110.168ZM392.534 101.082C393.01 101.082 393.22 100.83 393.22 100.452V100.27C393.22 99.892 393.01 99.64 392.534 99.64C392.058 99.64 391.848 99.892 391.848 100.27V100.452C391.848 100.83 392.058 101.082 392.534 101.082ZM391.974 110H393.094V102.776H391.974V110ZM398.322 110.168C399.694 110.168 400.632 109.496 401.094 108.46L400.282 107.914C399.89 108.74 399.232 109.174 398.322 109.174C396.992 109.174 396.306 108.264 396.306 107.004V105.772C396.306 104.512 396.992 103.602 398.322 103.602C399.204 103.602 399.82 104.036 400.086 104.778L401.024 104.302C400.604 103.308 399.75 102.608 398.322 102.608C396.292 102.608 395.102 104.078 395.102 106.388C395.102 108.698 396.292 110.168 398.322 110.168ZM408.715 110V109.02H407.889V105.044C407.889 103.518 406.853 102.608 405.117 102.608C403.815 102.608 402.947 103.252 402.555 104.022L403.227 104.652C403.619 103.994 404.193 103.574 405.061 103.574C406.209 103.574 406.769 104.134 406.769 105.156V105.87H405.341C403.241 105.87 402.261 106.626 402.261 107.984C402.261 109.328 403.157 110.168 404.683 110.168C405.691 110.168 406.461 109.706 406.769 108.824H406.839C406.923 109.496 407.259 110 408.085 110H408.715ZM404.865 109.216C403.997 109.216 403.437 108.81 403.437 108.096V107.802C403.437 107.102 404.011 106.71 405.285 106.71H406.769V107.9C406.769 108.642 405.971 109.216 404.865 109.216ZM412.658 110V109.02H411.594V99.64H410.474V108.838C410.474 109.51 410.894 110 411.664 110H412.658ZM376.372 130.168C378.472 130.168 379.732 129.02 379.732 127.228C379.732 125.772 378.906 124.932 377.002 124.498L376.204 124.316C374.972 124.036 374.37 123.616 374.37 122.692C374.37 121.642 375.14 121.096 376.386 121.096C377.52 121.096 378.262 121.558 378.794 122.3L379.676 121.656C378.948 120.62 377.912 120.06 376.442 120.06C374.524 120.06 373.208 120.998 373.208 122.734C373.208 124.232 374.188 125.016 375.966 125.422L376.764 125.604C378.052 125.898 378.57 126.36 378.57 127.284C378.57 128.404 377.814 129.132 376.414 129.132C375.28 129.132 374.468 128.642 373.782 127.732L372.914 128.46C373.698 129.524 374.804 130.168 376.372 130.168ZM385.577 130L388.867 120.228H387.649L386.025 125.156L384.919 128.824H384.849L383.771 125.156L382.161 120.228H380.901L384.149 130H385.577ZM390.614 130H391.762V121.768H391.832L392.658 123.406L394.996 127.662L397.334 123.406L398.16 121.768H398.23V130H399.378V120.228H397.866L395.052 125.492H394.982L392.182 120.228H390.614V130Z" fill="white"/>
<path d="M465 114L469 112.5L465 111V114Z" fill="#343A3F"/>
<line x1="465" y1="112.5" x2="441" y2="112.5" stroke="#343A3F"/>
<path d="M326 113L330 111.5L326 110V113Z" fill="#343A3F"/>
<line x1="326" y1="111.5" x2="302" y2="111.5" stroke="#343A3F"/>
<path d="M76 113L80 111.5L76 110V113Z" fill="#343A3F"/>
<line x1="76" y1="111.5" x2="52" y2="111.5" stroke="#343A3F"/>
<path d="M19.962 116.932V116.05H18.632V112.55C18.632 111.668 18.086 110.912 17.302 110.758V110.534C18.086 110.38 18.632 109.624 18.632 108.742V105.242H19.962V104.36H18.786C18.044 104.36 17.666 104.864 17.666 105.508V108.868C17.666 109.666 17.092 110.1 16.308 110.1V111.192C17.092 111.192 17.666 111.626 17.666 112.424V115.784C17.666 116.428 18.044 116.932 18.786 116.932H19.962ZM39.1418 104.36V105.242H40.4718V108.742C40.4718 109.624 41.0178 110.38 41.8018 110.534V110.758C41.0178 110.912 40.4718 111.668 40.4718 112.55V116.05H39.1418V116.932H40.3178C41.0598 116.932 41.4378 116.428 41.4378 115.784V112.424C41.4378 111.626 42.0118 111.192 42.7958 111.192V110.1C42.0118 110.1 41.4378 109.666 41.4378 108.868V105.508C41.4378 104.864 41.0598 104.36 40.3178 104.36H39.1418Z" fill="black"/>
<path d="M482.962 117.932V117.05H481.632V113.55C481.632 112.668 481.086 111.912 480.302 111.758V111.534C481.086 111.38 481.632 110.624 481.632 109.742V106.242H482.962V105.36H481.786C481.044 105.36 480.666 105.864 480.666 106.508V109.868C480.666 110.666 480.092 111.1 479.308 111.1V112.192C480.092 112.192 480.666 112.626 480.666 113.424V116.784C480.666 117.428 481.044 117.932 481.786 117.932H482.962ZM498.673 105.36V106.242H500.003V109.742C500.003 110.624 500.549 111.38 501.333 111.534V111.758C500.549 111.912 500.003 112.668 500.003 113.55V117.05H498.673V117.932H499.849C500.591 117.932 500.969 117.428 500.969 116.784V113.424C500.969 112.626 501.543 112.192 502.327 112.192V111.1C501.543 111.1 500.969 110.666 500.969 109.868V106.508C500.969 105.864 500.591 105.36 499.849 105.36H498.673Z" fill="black"/>
<rect x="86.5" y="25.5" width="193" height="181" rx="4.5" stroke="#343A3F"/>
<path d="M350.749 207.168C352.373 207.168 353.563 206.314 354.179 204.942L353.241 204.354C352.849 205.418 351.995 206.118 350.749 206.118C349.069 206.118 348.075 204.9 348.075 202.898V201.442C348.075 199.44 349.069 198.11 350.749 198.11C351.953 198.11 352.765 198.768 353.157 199.776L354.109 199.202C353.493 197.844 352.373 197.06 350.749 197.06C348.285 197.06 346.815 198.908 346.815 202.17C346.815 205.432 348.285 207.168 350.749 207.168ZM357.336 207V202.828H360.052C361.802 202.828 362.782 201.75 362.782 200.028C362.782 198.306 361.802 197.228 360.052 197.228H356.16V207H357.336ZM357.336 198.264H360.052C360.976 198.264 361.522 198.768 361.522 199.664V200.392C361.522 201.288 360.976 201.792 360.052 201.792H357.336V198.264ZM364.741 197.228V202.996C364.741 205.838 365.609 207.168 368.213 207.168C370.817 207.168 371.769 205.838 371.769 202.996V197.228H370.593V203.276C370.593 205.138 369.991 206.118 368.255 206.118C366.519 206.118 365.917 205.138 365.917 203.276V197.228H364.741Z" fill="black"/>
<path d="M55.5067 203.316H54.0087V202.126C56.1507 201.832 57.4947 200.096 57.4947 197.114C57.4947 193.838 55.8707 192.06 53.3507 192.06C50.8307 192.06 49.2067 193.838 49.2067 197.114C49.2067 200.18 50.6347 201.944 52.8887 202.154V203.148C52.8887 203.806 53.2947 204.296 54.0647 204.296H55.5067V203.316ZM53.3507 201.118C51.6567 201.118 50.4667 199.858 50.4667 197.926V196.302C50.4667 194.37 51.6567 193.11 53.3507 193.11C55.0447 193.11 56.2347 194.37 56.2347 196.302V197.926C56.2347 199.858 55.0447 201.118 53.3507 201.118ZM60.9448 202V197.828H63.6608C65.4108 197.828 66.3908 196.75 66.3908 195.028C66.3908 193.306 65.4108 192.228 63.6608 192.228H59.7688V202H60.9448ZM60.9448 193.264H63.6608C64.5848 193.264 65.1308 193.768 65.1308 194.664V195.392C65.1308 196.288 64.5848 196.792 63.6608 196.792H60.9448V193.264ZM68.349 192.228V197.996C68.349 200.838 69.217 202.168 71.821 202.168C74.425 202.168 75.377 200.838 75.377 197.996V192.228H74.201V198.276C74.201 200.138 73.599 201.118 71.863 201.118C70.127 201.118 69.525 200.138 69.525 198.276V192.228H68.349Z" fill="black"/>
<path d="M31.8893 103.897C31.693 104.077 31.0877 104.65 31.0877 104.879C31.0877 105.043 31.2349 105.19 31.3985 105.19C31.5457 105.19 31.6112 105.092 31.7257 104.928C32.1183 104.437 32.5599 104.127 32.9361 103.914C33.0997 103.816 33.2142 103.767 33.2142 103.587C33.2142 103.439 33.0834 103.358 32.9852 103.276C32.5272 102.965 32.4127 102.523 32.3636 102.327C32.3146 102.196 32.2655 102 32.0365 102C31.9383 102 31.742 102.065 31.742 102.311C31.742 102.458 31.8402 102.851 32.151 103.292H26.6548C26.3767 103.292 26.0986 103.292 26.0986 103.603C26.0986 103.897 26.3931 103.897 26.6548 103.897H31.8893Z" fill="black"/>
<path d="M27.8909 111.029C27.4493 109.672 27.5474 109.803 27.1385 108.658C26.6314 107.251 26.5005 107.136 26.2715 106.907C25.9771 106.646 25.4209 106.449 24.8484 106.449C23.9324 106.449 23.4907 107.3 23.4907 107.512C23.4907 107.611 23.5725 107.66 23.6707 107.66C23.8015 107.66 23.8342 107.578 23.8506 107.512C24.096 106.875 24.6031 106.776 24.7503 106.776C25.2246 106.776 25.6827 107.954 25.9771 108.739C26.3697 109.737 26.566 110.424 27.0076 112.011L23.1472 116.395C23 116.575 23 116.64 23 116.656C23 116.787 23.0818 116.82 23.1472 116.82C23.2127 116.82 23.2617 116.787 23.3108 116.738C23.7688 116.28 24.783 115.07 25.2083 114.579L27.1058 112.42C27.9073 114.939 27.9073 114.972 28.1527 115.577C28.4144 116.198 28.7579 117 30.1483 117C31.0807 117 31.506 116.166 31.506 115.937C31.506 115.822 31.4079 115.789 31.3261 115.789C31.1952 115.789 31.1788 115.855 31.1298 115.986C30.9498 116.444 30.5245 116.673 30.2628 116.673C30.0502 116.673 29.7884 116.673 29.0687 114.857C28.6434 113.761 28.2672 112.452 27.9891 111.438L31.8659 107.022C31.9967 106.875 32.0131 106.858 32.0131 106.793C32.0131 106.678 31.9313 106.629 31.8495 106.629C31.8004 106.629 31.7514 106.629 31.5878 106.809L27.8909 111.029Z" fill="black"/>
<path d="M35.7771 109.312C35.7771 109.072 35.6026 108.897 35.3518 108.897C35.0682 108.897 34.752 109.159 34.752 109.486C34.752 109.726 34.9265 109.901 35.1773 109.901C35.4608 109.901 35.7771 109.639 35.7771 109.312ZM34.1849 113.314L33.596 114.819C33.5415 114.983 33.487 115.113 33.487 115.299C33.487 115.833 33.9014 116.226 34.4794 116.226C35.5372 116.226 35.9843 114.699 35.9843 114.557C35.9843 114.448 35.897 114.415 35.8207 114.415C35.6898 114.415 35.668 114.492 35.6353 114.601C35.3845 115.473 34.9374 115.92 34.5012 115.92C34.3703 115.92 34.2394 115.866 34.2394 115.571C34.2394 115.31 34.3158 115.113 34.4575 114.775C34.5666 114.481 34.6756 114.186 34.7956 113.892L35.1337 113.009C35.2318 112.758 35.3627 112.42 35.3627 112.234C35.3627 111.689 34.9265 111.307 34.3703 111.307C33.3125 111.307 32.8545 112.834 32.8545 112.976C32.8545 113.074 32.9308 113.118 33.0181 113.118C33.1598 113.118 33.1707 113.052 33.2035 112.943C33.5088 111.907 34.0104 111.613 34.3376 111.613C34.4903 111.613 34.5993 111.667 34.5993 111.973C34.5993 112.082 34.5884 112.234 34.4794 112.562L34.1849 113.314Z" fill="black"/>
<path d="M495 104.761L491.688 102H490.312L487 104.761L487.976 105L490.968 102.552H491.032L494.024 105L495 104.761Z" fill="black"/>
</g>
<path d="M314.977 90.9019C314.959 90.8492 314.889 90.7086 314.889 90.6559C314.889 90.6384 314.906 90.6208 315.205 90.3924L316.909 89.0571C319.264 87.2299 320.037 86.6149 321.249 86.5095C321.372 86.4919 321.548 86.4919 321.548 86.1933C321.548 86.0878 321.495 86 321.354 86C321.161 86 320.95 86.0351 320.757 86.0351H320.089C319.545 86.0351 318.965 86 318.438 86C318.315 86 318.104 86 318.104 86.3163C318.104 86.4919 318.227 86.5095 318.332 86.5095C318.526 86.5271 318.754 86.5974 318.754 86.8433C318.754 87.1947 318.227 87.6164 318.086 87.7218L311.199 93.0805L312.657 87.2826C312.816 86.6852 312.851 86.5095 314.098 86.5095C314.432 86.5095 314.59 86.5095 314.59 86.1757C314.59 86 314.414 86 314.327 86C314.01 86 313.641 86.0351 313.307 86.0351H311.234C310.918 86.0351 310.531 86 310.215 86C310.075 86 309.881 86 309.881 86.3338C309.881 86.5095 310.04 86.5095 310.303 86.5095C311.375 86.5095 311.375 86.6501 311.375 86.8433C311.375 86.8785 311.375 86.9839 311.305 87.2474L308.933 96.6999C308.775 97.3148 308.739 97.4905 307.51 97.4905C307.176 97.4905 307 97.4905 307 97.8067C307 98 307.158 98 307.264 98C307.597 98 307.949 97.9649 308.283 97.9649H310.338C310.672 97.9649 311.041 98 311.375 98C311.515 98 311.709 98 311.709 97.6662C311.709 97.4905 311.551 97.4905 311.287 97.4905C310.215 97.4905 310.215 97.3499 310.215 97.1742C310.215 97.0512 310.321 96.612 310.391 96.3309L311.076 93.6076L313.747 91.5168C314.256 92.6413 315.187 94.8902 315.908 96.612C315.96 96.7174 315.996 96.8228 315.996 96.9458C315.996 97.4729 315.293 97.4905 315.135 97.4905C314.977 97.4905 314.801 97.4905 314.801 97.8243C314.801 98 314.994 98 315.047 98C315.662 98 316.312 97.9649 316.927 97.9649H317.77C318.034 97.9649 318.332 98 318.596 98C318.701 98 318.895 98 318.895 97.6662C318.895 97.4905 318.736 97.4905 318.561 97.4905C317.911 97.4729 317.682 97.3324 317.419 96.6999L314.977 90.9019Z" fill="black"/>
<defs>
<clipPath id="clip0_1163_19138">
<rect width="517" height="224" fill="white"/>
</clipPath>
</defs>
</svg>
