<svg width="290" height="375" viewBox="0 0 290 375" fill="none" xmlns="http://www.w3.org/2000/svg">
<rect x="7.06066" y="222.456" width="34.5" height="34.5" transform="rotate(-45 7.06066 222.456)" stroke="#C1C7CD" stroke-width="1.5" stroke-dasharray="3 3"/>
<path d="M149.171 81C149.171 80.5858 148.836 80.25 148.421 80.25L141.671 80.25C141.257 80.25 140.921 80.5858 140.921 81C140.921 81.4142 141.257 81.75 141.671 81.75L147.671 81.75L147.671 87.75C147.671 88.1642 148.007 88.5 148.421 88.5C148.836 88.5 149.171 88.1642 149.171 87.75L149.171 81ZM7.53033 222.952L148.952 81.5304L147.891 80.4697L6.46967 221.891L7.53033 222.952Z" fill="#C1C7CD"/>
<path d="M148.421 364.593C148.836 364.593 149.171 364.257 149.171 363.843L149.171 357.093C149.171 356.679 148.836 356.343 148.421 356.343C148.007 356.343 147.671 356.679 147.671 357.093L147.671 363.093H141.671C141.257 363.093 140.921 363.429 140.921 363.843C140.921 364.257 141.257 364.593 141.671 364.593H148.421ZM6.46967 222.952L147.891 364.373L148.952 363.312L7.53033 221.891L6.46967 222.952Z" fill="#C1C7CD"/>
<path d="M7.53032 21.4697C7.23743 21.1768 6.76255 21.1768 6.46966 21.4697L1.69669 26.2426C1.4038 26.5355 1.4038 27.0104 1.69669 27.3033C1.98958 27.5962 2.46446 27.5962 2.75735 27.3033L6.99999 23.0607L11.2426 27.3033C11.5355 27.5962 12.0104 27.5962 12.3033 27.3033C12.5962 27.0104 12.5962 26.5355 12.3033 26.2426L7.53032 21.4697ZM7.75 222L7.74999 22L6.24999 22L6.25 222L7.75 222Z" fill="#21272A"/>
<path d="M207.53 222.53C207.823 222.237 207.823 221.763 207.53 221.47L202.757 216.697C202.464 216.404 201.99 216.404 201.697 216.697C201.404 216.99 201.404 217.464 201.697 217.757L205.939 222L201.697 226.243C201.404 226.536 201.404 227.01 201.697 227.303C201.99 227.596 202.464 227.596 202.757 227.303L207.53 222.53ZM7 222.75L207 222.75V221.25L7 221.25V222.75Z" fill="#21272A"/>
<path d="M3.388 15.932V3.36H1.876V15.932H3.388ZM13.4317 14V12.502H11.1917V4.228H8.40567L5.98367 7.112L7.13167 8.078L9.25967 5.558H9.38567V12.502H6.69767V14H13.4317Z" fill="#21272A"/>
<path d="M15 3L17.75 9.5L15 16" stroke="#21272A" stroke-width="1.5"/>
<path d="M215.388 228.932V216.36H213.876V228.932H215.388ZM221.624 227.168C224.116 227.168 225.264 225.306 225.264 222.114C225.264 218.922 224.116 217.06 221.624 217.06C219.132 217.06 217.984 218.922 217.984 222.114C217.984 225.306 219.132 227.168 221.624 227.168ZM221.624 225.614C220.378 225.614 219.944 224.606 219.944 222.996V221.232C219.944 219.622 220.378 218.614 221.624 218.614C222.87 218.614 223.304 219.622 223.304 221.232V222.996C223.304 224.606 222.87 225.614 221.624 225.614Z" fill="#21272A"/>
<path d="M227 216L229.75 222.5L227 229" stroke="#21272A" stroke-width="1.5"/>
<path d="M227 216L229.75 222.5L227 229" stroke="#21272A" stroke-width="1.5"/>
<path d="M154.876 80.932V68.36H156.388V80.932H154.876ZM161.84 78.118V75.444H159.362V74.002H161.84V71.314H163.408V74.002H165.886V75.444H163.408V78.118H161.84Z" fill="#C1C7CD"/>
<path d="M168 68L170.75 74.5L168 81" stroke="#C1C7CD" stroke-width="1.5"/>
<path d="M154.876 372.932V360.36H156.388V372.932H154.876Z" fill="#C1C7CD"/>
<path d="M168 360L170.75 366.5L168 373" stroke="#C1C7CD" stroke-width="1.5"/>
<line x1="159" y1="366.25" x2="166" y2="366.25" stroke="#C1C7CD" stroke-width="1.5"/>
</svg>
