<svg xmlns="http://www.w3.org/2000/svg" width="377" height="245" fill="none" viewBox="0 0 377 245"><rect width="377" height="245" fill="#fff"/><rect width="377" height="245" fill="#fff"/><rect width="377" height="245" fill="#fff"/><rect width="377" height="245" fill="#fff"/><rect width="125" height="245" x="1" fill="#F2F4F8" opacity=".4"/><rect width="125" height="245" x="252" fill="#F2F4F8" opacity=".4"/><rect width="376" height="244" x=".5" y=".5" stroke="#DDE1E6"/><circle cx="168" cy="39" r="20" fill="#DDE1E6"/><circle cx="168" cy="39" r="16.5" fill="#BE95FF" stroke="#491D8B"/><circle cx="298" cy="39" r="20" fill="#DDE1E6"/><circle cx="298" cy="39" r="7.5" fill="#BE95FF" stroke="#491D8B"/><circle cx="298" cy="147" r="20" fill="#DDE1E6"/><circle cx="298" cy="147" r="7.5" fill="#BE95FF" stroke="#491D8B"/><circle cx="168" cy="147" r="20" fill="#DDE1E6"/><circle cx="168" cy="147" r="16.5" fill="#BE95FF" stroke="#491D8B"/><circle cx="298" cy="93" r="20" fill="#DDE1E6"/><circle cx="298" cy="93" r="7.5" fill="#BE95FF" stroke="#491D8B"/><circle cx="298" cy="201" r="20" fill="#DDE1E6"/><circle cx="298" cy="201" r="7.5" fill="#BE95FF" stroke="#491D8B"/><line x1="126.5" x2="126.5" y2="245" stroke="#DDE1E6"/><line x1="252.5" x2="252.5" y2="245" stroke="#DDE1E6"/><circle cx="36" cy="39" r="19.5" fill="#BE95FF" stroke="#491D8B"/><path stroke="#343A3F" d="M114 147.5H105.5H101.746C98.9848 147.5 96.7463 145.261 96.7463 142.5V44.5C96.7463 41.7386 94.5077 39.5 91.7463 39.5H88.5H80"/><path stroke="#343A3F" d="M238 92.5H229.5H225.547C222.768 92.5 220.521 90.2326 220.548 87.4528L220.952 44.5472C220.979 41.7674 218.732 39.5 215.953 39.5H212.5H204"/><path fill="#491D8B" d="M51 41L55 39.5L51 38V41Z"/><line x1="51" x2="36" y1="39.5" y2="39.5" stroke="#491D8B"/><path fill="#491D8B" d="M181 41L185 39.5L181 38V41Z"/><line x1="181" x2="169" y1="39.5" y2="39.5" stroke="#491D8B"/><path fill="#491D8B" d="M301.633 41L305.633 39.5L301.633 38V41Z"/><line x1="301.633" x2="297.633" y1="39.5" y2="39.5" stroke="#491D8B"/><path fill="#491D8B" d="M301.708 95L305.708 93.5L301.708 92V95Z"/><line x1="301.708" x2="297.708" y1="93.5" y2="93.5" stroke="#491D8B"/><path fill="#491D8B" d="M302.006 149L306.006 147.5L302.006 146V149Z"/><line x1="302.006" x2="298.006" y1="147.5" y2="147.5" stroke="#491D8B"/><path fill="#491D8B" d="M295 200L291 201.5L295 203V200Z"/><line x1="295" x2="298" y1="201.5" y2="201.5" stroke="#491D8B"/><path fill="#491D8B" d="M180 149L184 147.5L180 146V149Z"/><line x1="180" x2="168" y1="147.5" y2="147.5" stroke="#491D8B"/><path fill="#343A3F" d="M139 41L143 39.5L139 38V41Z"/><line x1="139" x2="70" y1="39.5" y2="39.5" stroke="#343A3F"/><path fill="#343A3F" d="M265 41L269 39.5L265 38V41Z"/><line x1="265" x2="204" y1="39.5" y2="39.5" stroke="#343A3F"/><path fill="#343A3F" d="M265 94L269 92.5L265 91V94Z"/><line x1="265" x2="226" y1="92.5" y2="92.5" stroke="#343A3F"/><path stroke="#343A3F" d="M238 200.5H229.5H225.547C222.768 200.5 220.521 198.233 220.548 195.453L220.952 152.547C220.979 149.767 218.732 147.5 215.953 147.5H212.5H204"/><path fill="#343A3F" d="M265 149L269 147.5L265 146V149Z"/><line x1="265" x2="204" y1="147.5" y2="147.5" stroke="#343A3F"/><path fill="#343A3F" d="M265 202L269 200.5L265 199V202Z"/><line x1="265" x2="226" y1="200.5" y2="200.5" stroke="#343A3F"/><path fill="#343A3F" d="M139 149L143 147.5L139 146V149Z"/><line x1="139" x2="108" y1="147.5" y2="147.5" stroke="#343A3F"/></svg>