<svg xmlns="http://www.w3.org/2000/svg" width="318" height="268" fill="none" viewBox="0 0 318 268"><rect width="178" height="268" fill="#F2F4F8" opacity=".4"/><rect width="317" height="267" x=".5" y=".5" stroke="#DDE1E6"/><path fill="#121619" d="M40.18 110.656V99.88H41.02V110.656H40.18ZM48.1153 109.144C47.6033 109.144 47.1633 109.048 46.7953 108.856C46.4273 108.656 46.1233 108.372 45.8833 108.004C45.6433 107.636 45.4673 107.184 45.3553 106.648C45.2433 106.112 45.1873 105.5 45.1873 104.812C45.1873 104.132 45.2433 103.524 45.3553 102.988C45.4673 102.444 45.6433 101.988 45.8833 101.62C46.1233 101.252 46.4273 100.972 46.7953 100.78C47.1633 100.58 47.6033 100.48 48.1153 100.48C48.6273 100.48 49.0673 100.58 49.4353 100.78C49.8033 100.972 50.1073 101.252 50.3473 101.62C50.5873 101.988 50.7633 102.444 50.8753 102.988C50.9873 103.524 51.0433 104.132 51.0433 104.812C51.0433 105.5 50.9873 106.112 50.8753 106.648C50.7633 107.184 50.5873 107.636 50.3473 108.004C50.1073 108.372 49.8033 108.656 49.4353 108.856C49.0673 109.048 48.6273 109.144 48.1153 109.144ZM48.1153 108.268C48.4513 108.268 48.7393 108.204 48.9793 108.076C49.2193 107.94 49.4113 107.752 49.5553 107.512C49.7073 107.272 49.8193 106.984 49.8913 106.648C49.9633 106.304 49.9993 105.92 49.9993 105.496V104.128C49.9993 103.712 49.9633 103.332 49.8913 102.988C49.8193 102.644 49.7073 102.352 49.5553 102.112C49.4113 101.872 49.2193 101.688 48.9793 101.56C48.7393 101.424 48.4513 101.356 48.1153 101.356C47.7793 101.356 47.4913 101.424 47.2513 101.56C47.0113 101.688 46.8153 101.872 46.6633 102.112C46.5193 102.352 46.4113 102.644 46.3393 102.988C46.2673 103.332 46.2313 103.712 46.2313 104.128V105.496C46.2313 105.92 46.2673 106.304 46.3393 106.648C46.4113 106.984 46.5193 107.272 46.6633 107.512C46.8153 107.752 47.0113 107.94 47.2513 108.076C47.4913 108.204 47.7793 108.268 48.1153 108.268ZM48.1153 105.52C47.8353 105.52 47.6393 105.464 47.5273 105.352C47.4233 105.24 47.3713 105.104 47.3713 104.944V104.68C47.3713 104.52 47.4233 104.384 47.5273 104.272C47.6393 104.16 47.8353 104.104 48.1153 104.104C48.3953 104.104 48.5873 104.16 48.6913 104.272C48.8033 104.384 48.8593 104.52 48.8593 104.68V104.944C48.8593 105.104 48.8033 105.24 48.6913 105.352C48.5873 105.464 48.3953 105.52 48.1153 105.52ZM53.0506 107.812L57.3106 105.4V105.304L53.0506 102.892V101.872L58.2106 104.86V105.82L53.0506 108.808V107.812Z"/><path fill="#121619" d="M213.18 110.656V99.88H214.02V110.656H213.18ZM221.115 109.144C220.603 109.144 220.163 109.048 219.795 108.856C219.427 108.656 219.123 108.372 218.883 108.004C218.643 107.636 218.467 107.184 218.355 106.648C218.243 106.112 218.187 105.5 218.187 104.812C218.187 104.132 218.243 103.524 218.355 102.988C218.467 102.444 218.643 101.988 218.883 101.62C219.123 101.252 219.427 100.972 219.795 100.78C220.163 100.58 220.603 100.48 221.115 100.48C221.627 100.48 222.067 100.58 222.435 100.78C222.803 100.972 223.107 101.252 223.347 101.62C223.587 101.988 223.763 102.444 223.875 102.988C223.987 103.524 224.043 104.132 224.043 104.812C224.043 105.5 223.987 106.112 223.875 106.648C223.763 107.184 223.587 107.636 223.347 108.004C223.107 108.372 222.803 108.656 222.435 108.856C222.067 109.048 221.627 109.144 221.115 109.144ZM221.115 108.268C221.451 108.268 221.739 108.204 221.979 108.076C222.219 107.94 222.411 107.752 222.555 107.512C222.707 107.272 222.819 106.984 222.891 106.648C222.963 106.304 222.999 105.92 222.999 105.496V104.128C222.999 103.712 222.963 103.332 222.891 102.988C222.819 102.644 222.707 102.352 222.555 102.112C222.411 101.872 222.219 101.688 221.979 101.56C221.739 101.424 221.451 101.356 221.115 101.356C220.779 101.356 220.491 101.424 220.251 101.56C220.011 101.688 219.815 101.872 219.663 102.112C219.519 102.352 219.411 102.644 219.339 102.988C219.267 103.332 219.231 103.712 219.231 104.128V105.496C219.231 105.92 219.267 106.304 219.339 106.648C219.411 106.984 219.519 107.272 219.663 107.512C219.815 107.752 220.011 107.94 220.251 108.076C220.491 108.204 220.779 108.268 221.115 108.268ZM221.115 105.52C220.835 105.52 220.639 105.464 220.527 105.352C220.423 105.24 220.371 105.104 220.371 104.944V104.68C220.371 104.52 220.423 104.384 220.527 104.272C220.639 104.16 220.835 104.104 221.115 104.104C221.395 104.104 221.587 104.16 221.691 104.272C221.803 104.384 221.859 104.52 221.859 104.68V104.944C221.859 105.104 221.803 105.24 221.691 105.352C221.587 105.464 221.395 105.52 221.115 105.52ZM226.051 107.812L230.311 105.4V105.304L226.051 102.892V101.872L231.211 104.86V105.82L226.051 108.808V107.812Z"/><path fill="#121619" d="M213.18 215.656V204.88H214.02V215.656H213.18ZM218.535 214V213.124H220.935V206.368H220.851L218.739 208.336L218.151 207.7L220.371 205.624H221.943V213.124H224.151V214H218.535ZM226.051 212.812L230.311 210.4V210.304L226.051 207.892V206.872L231.211 209.86V210.82L226.051 213.808V212.812Z"/><circle cx="221" cy="73" r="20" fill="#DDE1E6"/><circle cx="221" cy="73" r="16.5" fill="#BE95FF" stroke="#491D8B"/><circle cx="221" cy="178" r="20" fill="#DDE1E6"/><circle cx="221" cy="178" r="16.5" fill="#BE95FF" stroke="#491D8B"/><path fill="#121619" d="M135.036 66L133.536 60.576H132.348V59.808H134.268L134.808 61.8L135.708 65.196H135.768L136.704 61.8L137.868 57.624H138.804L136.392 66H135.036ZM140.511 62.256C140.511 61.68 140.567 61.124 140.679 60.588C140.791 60.052 140.943 59.556 141.135 59.1C141.335 58.636 141.567 58.216 141.831 57.84C142.095 57.464 142.379 57.144 142.683 56.88H143.595C143.259 57.184 142.955 57.528 142.683 57.912C142.419 58.296 142.191 58.704 141.999 59.136C141.815 59.568 141.671 60.008 141.567 60.456C141.463 60.904 141.411 61.336 141.411 61.752V62.784C141.411 63.208 141.463 63.644 141.567 64.092C141.671 64.54 141.819 64.98 142.011 65.412C142.203 65.844 142.431 66.252 142.695 66.636C142.967 67.02 143.267 67.356 143.595 67.644H142.683C142.387 67.396 142.107 67.084 141.843 66.708C141.579 66.332 141.347 65.912 141.147 65.448C140.955 64.984 140.799 64.484 140.679 63.948C140.567 63.404 140.511 62.84 140.511 62.256ZM144.911 66V65.112H147.251V58.368H147.167L145.055 60.336L144.467 59.7L146.687 57.624H148.259V65.112H150.419V66H144.911ZM151.478 67.812L154.61 57.12H155.474L152.342 67.812H151.478ZM162.68 66H157.184V64.968L159.92 62.448C160.312 62.088 160.64 61.708 160.904 61.308C161.168 60.9 161.3 60.492 161.3 60.084V59.94C161.3 59.476 161.172 59.1 160.916 58.812C160.66 58.524 160.272 58.38 159.752 58.38C159.496 58.38 159.272 58.416 159.08 58.488C158.888 58.56 158.72 58.66 158.576 58.788C158.44 58.916 158.324 59.068 158.228 59.244C158.14 59.412 158.068 59.596 158.012 59.796L157.112 59.448C157.192 59.2 157.3 58.96 157.436 58.728C157.58 58.488 157.756 58.276 157.964 58.092C158.18 57.908 158.436 57.76 158.732 57.648C159.036 57.536 159.392 57.48 159.8 57.48C160.208 57.48 160.572 57.54 160.892 57.66C161.212 57.78 161.48 57.948 161.696 58.164C161.912 58.38 162.076 58.636 162.188 58.932C162.308 59.228 162.368 59.556 162.368 59.916C162.368 60.244 162.32 60.548 162.224 60.828C162.136 61.108 162.012 61.376 161.852 61.632C161.692 61.88 161.496 62.124 161.264 62.364C161.04 62.604 160.796 62.844 160.532 63.084L158.276 65.112H162.68V66ZM166.823 62.256C166.823 62.84 166.763 63.404 166.643 63.948C166.531 64.484 166.375 64.984 166.175 65.448C165.983 65.912 165.755 66.332 165.491 66.708C165.227 67.084 164.947 67.396 164.651 67.644H163.739C164.067 67.356 164.363 67.02 164.627 66.636C164.899 66.252 165.131 65.844 165.323 65.412C165.515 64.98 165.663 64.54 165.767 64.092C165.871 63.644 165.923 63.208 165.923 62.784V61.752C165.923 61.336 165.871 60.904 165.767 60.456C165.663 60.008 165.515 59.568 165.323 59.136C165.139 58.704 164.911 58.296 164.639 57.912C164.375 57.528 164.075 57.184 163.739 56.88H164.651C164.955 57.144 165.239 57.464 165.503 57.84C165.767 58.216 165.995 58.636 166.187 59.1C166.387 59.556 166.543 60.052 166.655 60.588C166.767 61.124 166.823 61.68 166.823 62.256Z"/><path fill="#121619" d="M135.036 171L133.536 165.576H132.348V164.808H134.268L134.808 166.8L135.708 170.196H135.768L136.704 166.8L137.868 162.624H138.804L136.392 171H135.036ZM140.511 167.256C140.511 166.68 140.567 166.124 140.679 165.588C140.791 165.052 140.943 164.556 141.135 164.1C141.335 163.636 141.567 163.216 141.831 162.84C142.095 162.464 142.379 162.144 142.683 161.88H143.595C143.259 162.184 142.955 162.528 142.683 162.912C142.419 163.296 142.191 163.704 141.999 164.136C141.815 164.568 141.671 165.008 141.567 165.456C141.463 165.904 141.411 166.336 141.411 166.752V167.784C141.411 168.208 141.463 168.644 141.567 169.092C141.671 169.54 141.819 169.98 142.011 170.412C142.203 170.844 142.431 171.252 142.695 171.636C142.967 172.02 143.267 172.356 143.595 172.644H142.683C142.387 172.396 142.107 172.084 141.843 171.708C141.579 171.332 141.347 170.912 141.147 170.448C140.955 169.984 140.799 169.484 140.679 168.948C140.567 168.404 140.511 167.84 140.511 167.256ZM144.911 171V170.112H147.251V163.368H147.167L145.055 165.336L144.467 164.7L146.687 162.624H148.259V170.112H150.419V171H144.911ZM151.478 172.812L154.61 162.12H155.474L152.342 172.812H151.478ZM162.68 171H157.184V169.968L159.92 167.448C160.312 167.088 160.64 166.708 160.904 166.308C161.168 165.9 161.3 165.492 161.3 165.084V164.94C161.3 164.476 161.172 164.1 160.916 163.812C160.66 163.524 160.272 163.38 159.752 163.38C159.496 163.38 159.272 163.416 159.08 163.488C158.888 163.56 158.72 163.66 158.576 163.788C158.44 163.916 158.324 164.068 158.228 164.244C158.14 164.412 158.068 164.596 158.012 164.796L157.112 164.448C157.192 164.2 157.3 163.96 157.436 163.728C157.58 163.488 157.756 163.276 157.964 163.092C158.18 162.908 158.436 162.76 158.732 162.648C159.036 162.536 159.392 162.48 159.8 162.48C160.208 162.48 160.572 162.54 160.892 162.66C161.212 162.78 161.48 162.948 161.696 163.164C161.912 163.38 162.076 163.636 162.188 163.932C162.308 164.228 162.368 164.556 162.368 164.916C162.368 165.244 162.32 165.548 162.224 165.828C162.136 166.108 162.012 166.376 161.852 166.632C161.692 166.88 161.496 167.124 161.264 167.364C161.04 167.604 160.796 167.844 160.532 168.084L158.276 170.112H162.68V171ZM166.823 167.256C166.823 167.84 166.763 168.404 166.643 168.948C166.531 169.484 166.375 169.984 166.175 170.448C165.983 170.912 165.755 171.332 165.491 171.708C165.227 172.084 164.947 172.396 164.651 172.644H163.739C164.067 172.356 164.363 172.02 164.627 171.636C164.899 171.252 165.131 170.844 165.323 170.412C165.515 169.98 165.663 169.54 165.767 169.092C165.871 168.644 165.923 168.208 165.923 167.784V166.752C165.923 166.336 165.871 165.904 165.767 165.456C165.663 165.008 165.515 164.568 165.323 164.136C165.139 163.704 164.911 163.296 164.639 162.912C164.375 162.528 164.075 162.184 163.739 161.88H164.651C164.955 162.144 165.239 162.464 165.503 162.84C165.767 163.216 165.995 163.636 166.187 164.1C166.387 164.556 166.543 165.052 166.655 165.588C166.767 166.124 166.823 166.68 166.823 167.256Z"/><path fill="#121619" d="M202.07 17.87H197.996V22H196.148V12.228H197.996V16.232H202.07V12.228H203.918V22H202.07V17.87ZM206.034 18.626V16.848H210.039V18.626H206.034ZM218.645 22.616C218.645 22.9987 218.575 23.3347 218.435 23.624C218.305 23.9227 218.085 24.17 217.777 24.366C217.469 24.562 217.073 24.7113 216.587 24.814C216.102 24.9167 215.509 24.968 214.809 24.968C214.193 24.968 213.671 24.926 213.241 24.842C212.812 24.7673 212.457 24.6553 212.177 24.506C211.907 24.366 211.711 24.1887 211.589 23.974C211.468 23.7593 211.407 23.5167 211.407 23.246C211.407 22.8353 211.519 22.5133 211.743 22.28C211.977 22.056 212.299 21.9113 212.709 21.846V21.692C212.411 21.6173 212.177 21.4727 212.009 21.258C211.851 21.034 211.771 20.7727 211.771 20.474C211.771 20.2873 211.809 20.124 211.883 19.984C211.958 19.8347 212.056 19.7087 212.177 19.606C212.308 19.5033 212.453 19.4193 212.611 19.354C212.77 19.2793 212.938 19.2233 213.115 19.186V19.13C212.667 18.9247 212.331 18.64 212.107 18.276C211.893 17.912 211.785 17.4873 211.785 17.002C211.785 16.2553 212.042 15.658 212.555 15.21C213.069 14.7527 213.82 14.524 214.809 14.524C215.033 14.524 215.253 14.538 215.467 14.566C215.691 14.594 215.897 14.6407 216.083 14.706V14.468C216.083 13.7587 216.429 13.404 217.119 13.404H218.253V14.776H216.699V14.972C217.082 15.1867 217.367 15.4667 217.553 15.812C217.74 16.1573 217.833 16.554 217.833 17.002C217.833 17.7393 217.577 18.332 217.063 18.78C216.559 19.228 215.808 19.452 214.809 19.452C214.38 19.452 214.007 19.41 213.689 19.326C213.549 19.3913 213.428 19.48 213.325 19.592C213.223 19.6947 213.171 19.8253 213.171 19.984C213.171 20.348 213.489 20.53 214.123 20.53H216.083C216.979 20.53 217.628 20.7167 218.029 21.09C218.44 21.454 218.645 21.9627 218.645 22.616ZM216.965 22.826C216.965 22.5927 216.872 22.4107 216.685 22.28C216.499 22.1493 216.177 22.084 215.719 22.084H213.227C212.975 22.2707 212.849 22.5227 212.849 22.84C212.849 23.12 212.966 23.3393 213.199 23.498C213.433 23.6567 213.829 23.736 214.389 23.736H215.285C215.873 23.736 216.298 23.6613 216.559 23.512C216.83 23.3627 216.965 23.134 216.965 22.826ZM214.809 18.234C215.687 18.234 216.125 17.8607 216.125 17.114V16.876C216.125 16.1293 215.687 15.756 214.809 15.756C213.932 15.756 213.493 16.1293 213.493 16.876V17.114C213.493 17.8607 213.932 18.234 214.809 18.234ZM225.189 22C224.797 22 224.484 21.888 224.251 21.664C224.027 21.4307 223.887 21.1227 223.831 20.74H223.747C223.626 21.216 223.378 21.5753 223.005 21.818C222.632 22.0513 222.17 22.168 221.619 22.168C220.872 22.168 220.298 21.972 219.897 21.58C219.496 21.188 219.295 20.6653 219.295 20.012C219.295 19.256 219.566 18.696 220.107 18.332C220.648 17.9587 221.418 17.772 222.417 17.772H223.663V17.24C223.663 16.8293 223.556 16.512 223.341 16.288C223.126 16.064 222.781 15.952 222.305 15.952C221.885 15.952 221.544 16.0453 221.283 16.232C221.031 16.4093 220.816 16.624 220.639 16.876L219.575 15.924C219.846 15.504 220.205 15.168 220.653 14.916C221.101 14.6547 221.694 14.524 222.431 14.524C223.42 14.524 224.172 14.748 224.685 15.196C225.198 15.644 225.455 16.288 225.455 17.128V20.572H226.183V22H225.189ZM222.221 20.866C222.622 20.866 222.963 20.7773 223.243 20.6C223.523 20.4227 223.663 20.1613 223.663 19.816V18.85H222.515C221.582 18.85 221.115 19.1487 221.115 19.746V19.984C221.115 20.2827 221.208 20.5067 221.395 20.656C221.591 20.796 221.866 20.866 222.221 20.866ZM230.02 22C229.404 22 228.933 21.8413 228.606 21.524C228.289 21.1973 228.13 20.7353 228.13 20.138V16.12H227.052V14.692H227.612C227.883 14.692 228.065 14.6313 228.158 14.51C228.261 14.3793 228.312 14.188 228.312 13.936V12.69H229.922V14.692H231.42V16.12H229.922V20.572H231.308V22H230.02ZM236.034 22.168C235.493 22.168 235.007 22.0793 234.578 21.902C234.158 21.7153 233.799 21.4587 233.5 21.132C233.211 20.796 232.987 20.3947 232.828 19.928C232.669 19.452 232.59 18.92 232.59 18.332C232.59 17.7533 232.665 17.2307 232.814 16.764C232.973 16.2973 233.197 15.9007 233.486 15.574C233.775 15.238 234.13 14.9813 234.55 14.804C234.97 14.6173 235.446 14.524 235.978 14.524C236.547 14.524 237.042 14.622 237.462 14.818C237.882 15.014 238.227 15.28 238.498 15.616C238.769 15.952 238.969 16.344 239.1 16.792C239.24 17.2307 239.31 17.702 239.31 18.206V18.794H234.452V18.976C234.452 19.508 234.601 19.9373 234.9 20.264C235.199 20.5813 235.642 20.74 236.23 20.74C236.678 20.74 237.042 20.6467 237.322 20.46C237.611 20.2733 237.868 20.0353 238.092 19.746L239.058 20.824C238.759 21.244 238.349 21.5753 237.826 21.818C237.313 22.0513 236.715 22.168 236.034 22.168ZM236.006 15.868C235.53 15.868 235.152 16.0267 234.872 16.344C234.592 16.6613 234.452 17.072 234.452 17.576V17.688H237.448V17.562C237.448 17.058 237.322 16.652 237.07 16.344C236.827 16.0267 236.473 15.868 236.006 15.868ZM247.413 22.168C246.891 22.168 246.419 22.0793 245.999 21.902C245.589 21.7247 245.234 21.468 244.935 21.132C244.646 20.796 244.422 20.3947 244.263 19.928C244.105 19.452 244.025 18.92 244.025 18.332C244.025 17.744 244.105 17.2167 244.263 16.75C244.422 16.2833 244.646 15.8867 244.935 15.56C245.234 15.224 245.589 14.9673 245.999 14.79C246.419 14.6127 246.891 14.524 247.413 14.524C247.936 14.524 248.407 14.6127 248.827 14.79C249.247 14.9673 249.602 15.224 249.891 15.56C250.19 15.8867 250.419 16.2833 250.577 16.75C250.736 17.2167 250.815 17.744 250.815 18.332C250.815 18.92 250.736 19.452 250.577 19.928C250.419 20.3947 250.19 20.796 249.891 21.132C249.602 21.468 249.247 21.7247 248.827 21.902C248.407 22.0793 247.936 22.168 247.413 22.168ZM247.413 20.726C247.889 20.726 248.263 20.5813 248.533 20.292C248.804 20.0027 248.939 19.578 248.939 19.018V17.66C248.939 17.1093 248.804 16.6893 248.533 16.4C248.263 16.1107 247.889 15.966 247.413 15.966C246.947 15.966 246.578 16.1107 246.307 16.4C246.037 16.6893 245.901 17.1093 245.901 17.66V19.018C245.901 19.578 246.037 20.0027 246.307 20.292C246.578 20.5813 246.947 20.726 247.413 20.726ZM256.932 20.782H256.862C256.797 20.9687 256.708 21.146 256.596 21.314C256.493 21.4727 256.358 21.6173 256.19 21.748C256.031 21.8787 255.835 21.9813 255.602 22.056C255.378 22.1307 255.117 22.168 254.818 22.168C254.062 22.168 253.483 21.9207 253.082 21.426C252.681 20.9313 252.48 20.2267 252.48 19.312V14.692H254.272V19.13C254.272 19.634 254.37 20.0213 254.566 20.292C254.762 20.5533 255.075 20.684 255.504 20.684C255.681 20.684 255.854 20.6607 256.022 20.614C256.199 20.5673 256.353 20.4973 256.484 20.404C256.615 20.3013 256.722 20.18 256.806 20.04C256.89 19.8907 256.932 19.718 256.932 19.522V14.692H258.724V22H256.932V20.782ZM263.237 22C262.621 22 262.149 21.8413 261.823 21.524C261.505 21.1973 261.347 20.7353 261.347 20.138V16.12H260.269V14.692H260.829C261.099 14.692 261.281 14.6313 261.375 14.51C261.477 14.3793 261.529 14.188 261.529 13.936V12.69H263.139V14.692H264.637V16.12H263.139V20.572H264.525V22H263.237ZM266.351 14.692H268.143V15.896H268.199C268.33 15.476 268.577 15.1447 268.941 14.902C269.305 14.65 269.73 14.524 270.215 14.524C271.148 14.524 271.858 14.8553 272.343 15.518C272.838 16.1713 273.085 17.1093 273.085 18.332C273.085 19.564 272.838 20.5113 272.343 21.174C271.858 21.8367 271.148 22.168 270.215 22.168C269.73 22.168 269.305 22.042 268.941 21.79C268.586 21.538 268.339 21.202 268.199 20.782H268.143V24.8H266.351V14.692ZM269.641 20.684C270.108 20.684 270.486 20.53 270.775 20.222C271.064 19.914 271.209 19.4987 271.209 18.976V17.716C271.209 17.1933 271.064 16.778 270.775 16.47C270.486 16.1527 270.108 15.994 269.641 15.994C269.212 15.994 268.852 16.1013 268.563 16.316C268.283 16.5307 268.143 16.8153 268.143 17.17V19.494C268.143 19.8767 268.283 20.1707 268.563 20.376C268.852 20.5813 269.212 20.684 269.641 20.684ZM279.273 20.782H279.203C279.138 20.9687 279.049 21.146 278.937 21.314C278.835 21.4727 278.699 21.6173 278.531 21.748C278.373 21.8787 278.177 21.9813 277.943 22.056C277.719 22.1307 277.458 22.168 277.159 22.168C276.403 22.168 275.825 21.9207 275.423 21.426C275.022 20.9313 274.821 20.2267 274.821 19.312V14.692H276.613V19.13C276.613 19.634 276.711 20.0213 276.907 20.292C277.103 20.5533 277.416 20.684 277.845 20.684C278.023 20.684 278.195 20.6607 278.363 20.614C278.541 20.5673 278.695 20.4973 278.825 20.404C278.956 20.3013 279.063 20.18 279.147 20.04C279.231 19.8907 279.273 19.718 279.273 19.522V14.692H281.065V22H279.273V20.782ZM285.578 22C284.962 22 284.491 21.8413 284.164 21.524C283.847 21.1973 283.688 20.7353 283.688 20.138V16.12H282.61V14.692H283.17C283.441 14.692 283.623 14.6313 283.716 14.51C283.819 14.3793 283.87 14.188 283.87 13.936V12.69H285.48V14.692H286.978V16.12H285.48V20.572H286.866V22H285.578Z"/><path fill="#121619" d="M35.07 17.87H30.996V22H29.148V12.228H30.996V16.232H35.07V12.228H36.918V22H35.07V17.87ZM39.0345 18.626V16.848H43.0385V18.626H39.0345ZM51.6453 22.616C51.6453 22.9987 51.5753 23.3347 51.4353 23.624C51.3046 23.9227 51.0853 24.17 50.7773 24.366C50.4693 24.562 50.0726 24.7113 49.5873 24.814C49.102 24.9167 48.5093 24.968 47.8093 24.968C47.1933 24.968 46.6706 24.926 46.2413 24.842C45.812 24.7673 45.4573 24.6553 45.1773 24.506C44.9066 24.366 44.7106 24.1887 44.5893 23.974C44.468 23.7593 44.4073 23.5167 44.4073 23.246C44.4073 22.8353 44.5193 22.5133 44.7433 22.28C44.9766 22.056 45.2986 21.9113 45.7093 21.846V21.692C45.4106 21.6173 45.1773 21.4727 45.0093 21.258C44.8506 21.034 44.7713 20.7727 44.7713 20.474C44.7713 20.2873 44.8086 20.124 44.8833 19.984C44.958 19.8347 45.056 19.7087 45.1773 19.606C45.308 19.5033 45.4526 19.4193 45.6113 19.354C45.77 19.2793 45.938 19.2233 46.1153 19.186V19.13C45.6673 18.9247 45.3313 18.64 45.1073 18.276C44.8926 17.912 44.7853 17.4873 44.7853 17.002C44.7853 16.2553 45.042 15.658 45.5553 15.21C46.0686 14.7527 46.82 14.524 47.8093 14.524C48.0333 14.524 48.2526 14.538 48.4673 14.566C48.6913 14.594 48.8966 14.6407 49.0833 14.706V14.468C49.0833 13.7587 49.4286 13.404 50.1193 13.404H51.2533V14.776H49.6993V14.972C50.082 15.1867 50.3666 15.4667 50.5533 15.812C50.74 16.1573 50.8333 16.554 50.8333 17.002C50.8333 17.7393 50.5766 18.332 50.0633 18.78C49.5593 19.228 48.808 19.452 47.8093 19.452C47.38 19.452 47.0066 19.41 46.6893 19.326C46.5493 19.3913 46.428 19.48 46.3253 19.592C46.2226 19.6947 46.1713 19.8253 46.1713 19.984C46.1713 20.348 46.4886 20.53 47.1233 20.53H49.0833C49.9793 20.53 50.628 20.7167 51.0293 21.09C51.44 21.454 51.6453 21.9627 51.6453 22.616ZM49.9653 22.826C49.9653 22.5927 49.872 22.4107 49.6853 22.28C49.4986 22.1493 49.1766 22.084 48.7193 22.084H46.2273C45.9753 22.2707 45.8493 22.5227 45.8493 22.84C45.8493 23.12 45.966 23.3393 46.1993 23.498C46.4326 23.6567 46.8293 23.736 47.3893 23.736H48.2853C48.8733 23.736 49.298 23.6613 49.5593 23.512C49.83 23.3627 49.9653 23.134 49.9653 22.826ZM47.8093 18.234C48.6866 18.234 49.1253 17.8607 49.1253 17.114V16.876C49.1253 16.1293 48.6866 15.756 47.8093 15.756C46.932 15.756 46.4933 16.1293 46.4933 16.876V17.114C46.4933 17.8607 46.932 18.234 47.8093 18.234ZM58.1889 22C57.7969 22 57.4842 21.888 57.2509 21.664C57.0269 21.4307 56.8869 21.1227 56.8309 20.74H56.7469C56.6255 21.216 56.3782 21.5753 56.0049 21.818C55.6315 22.0513 55.1695 22.168 54.6189 22.168C53.8722 22.168 53.2982 21.972 52.8969 21.58C52.4955 21.188 52.2949 20.6653 52.2949 20.012C52.2949 19.256 52.5655 18.696 53.1069 18.332C53.6482 17.9587 54.4182 17.772 55.4169 17.772H56.6629V17.24C56.6629 16.8293 56.5555 16.512 56.3409 16.288C56.1262 16.064 55.7809 15.952 55.3049 15.952C54.8849 15.952 54.5442 16.0453 54.2829 16.232C54.0309 16.4093 53.8162 16.624 53.6389 16.876L52.5749 15.924C52.8455 15.504 53.2049 15.168 53.6529 14.916C54.1009 14.6547 54.6935 14.524 55.4309 14.524C56.4202 14.524 57.1715 14.748 57.6849 15.196C58.1982 15.644 58.4549 16.288 58.4549 17.128V20.572H59.1829V22H58.1889ZM55.2209 20.866C55.6222 20.866 55.9629 20.7773 56.2429 20.6C56.5229 20.4227 56.6629 20.1613 56.6629 19.816V18.85H55.5149C54.5815 18.85 54.1149 19.1487 54.1149 19.746V19.984C54.1149 20.2827 54.2082 20.5067 54.3949 20.656C54.5909 20.796 54.8662 20.866 55.2209 20.866ZM63.0205 22C62.4045 22 61.9332 21.8413 61.6065 21.524C61.2892 21.1973 61.1305 20.7353 61.1305 20.138V16.12H60.0525V14.692H60.6125C60.8832 14.692 61.0652 14.6313 61.1585 14.51C61.2612 14.3793 61.3125 14.188 61.3125 13.936V12.69H62.9225V14.692H64.4205V16.12H62.9225V20.572H64.3085V22H63.0205ZM69.0341 22.168C68.4928 22.168 68.0075 22.0793 67.5781 21.902C67.1581 21.7153 66.7988 21.4587 66.5001 21.132C66.2108 20.796 65.9868 20.3947 65.8281 19.928C65.6695 19.452 65.5901 18.92 65.5901 18.332C65.5901 17.7533 65.6648 17.2307 65.8141 16.764C65.9728 16.2973 66.1968 15.9007 66.4861 15.574C66.7755 15.238 67.1301 14.9813 67.5501 14.804C67.9701 14.6173 68.4461 14.524 68.9781 14.524C69.5475 14.524 70.0421 14.622 70.4621 14.818C70.8821 15.014 71.2275 15.28 71.4981 15.616C71.7688 15.952 71.9695 16.344 72.1001 16.792C72.2401 17.2307 72.3101 17.702 72.3101 18.206V18.794H67.4521V18.976C67.4521 19.508 67.6015 19.9373 67.9001 20.264C68.1988 20.5813 68.6421 20.74 69.2301 20.74C69.6781 20.74 70.0421 20.6467 70.3221 20.46C70.6115 20.2733 70.8681 20.0353 71.0921 19.746L72.0581 20.824C71.7595 21.244 71.3488 21.5753 70.8261 21.818C70.3128 22.0513 69.7155 22.168 69.0341 22.168ZM69.0061 15.868C68.5301 15.868 68.1521 16.0267 67.8721 16.344C67.5921 16.6613 67.4521 17.072 67.4521 17.576V17.688H70.4481V17.562C70.4481 17.058 70.3221 16.652 70.0701 16.344C69.8275 16.0267 69.4728 15.868 69.0061 15.868ZM78.4114 13.628C78.038 13.628 77.7674 13.544 77.5994 13.376C77.4407 13.208 77.3614 12.9933 77.3614 12.732V12.452C77.3614 12.1907 77.4407 11.976 77.5994 11.808C77.7674 11.64 78.038 11.556 78.4114 11.556C78.7754 11.556 79.0414 11.64 79.2094 11.808C79.3774 11.976 79.4614 12.1907 79.4614 12.452V12.732C79.4614 12.9933 79.3774 13.208 79.2094 13.376C79.0414 13.544 78.7754 13.628 78.4114 13.628ZM77.5154 14.692H79.3074V22H77.5154V14.692ZM81.5445 22V14.692H83.3365V15.91H83.4065C83.5558 15.518 83.7892 15.1913 84.1065 14.93C84.4332 14.6593 84.8812 14.524 85.4505 14.524C86.2065 14.524 86.7852 14.7713 87.1865 15.266C87.5878 15.7607 87.7885 16.4653 87.7885 17.38V22H85.9965V17.562C85.9965 17.0393 85.9032 16.6473 85.7165 16.386C85.5298 16.1247 85.2218 15.994 84.7925 15.994C84.6058 15.994 84.4238 16.022 84.2465 16.078C84.0785 16.1247 83.9245 16.1993 83.7845 16.302C83.6538 16.3953 83.5465 16.5167 83.4625 16.666C83.3785 16.806 83.3365 16.974 83.3365 17.17V22H81.5445ZM89.935 14.692H91.727V15.896H91.783C91.9136 15.476 92.161 15.1447 92.525 14.902C92.889 14.65 93.3136 14.524 93.799 14.524C94.7323 14.524 95.4416 14.8553 95.927 15.518C96.4216 16.1713 96.669 17.1093 96.669 18.332C96.669 19.564 96.4216 20.5113 95.927 21.174C95.4416 21.8367 94.7323 22.168 93.799 22.168C93.3136 22.168 92.889 22.042 92.525 21.79C92.1703 21.538 91.923 21.202 91.783 20.782H91.727V24.8H89.935V14.692ZM93.225 20.684C93.6916 20.684 94.0696 20.53 94.359 20.222C94.6483 19.914 94.793 19.4987 94.793 18.976V17.716C94.793 17.1933 94.6483 16.778 94.359 16.47C94.0696 16.1527 93.6916 15.994 93.225 15.994C92.7956 15.994 92.4363 16.1013 92.147 16.316C91.867 16.5307 91.727 16.8153 91.727 17.17V19.494C91.727 19.8767 91.867 20.1707 92.147 20.376C92.4363 20.5813 92.7956 20.684 93.225 20.684ZM102.858 20.782H102.788C102.722 20.9687 102.634 21.146 102.522 21.314C102.419 21.4727 102.284 21.6173 102.116 21.748C101.957 21.8787 101.761 21.9813 101.528 22.056C101.304 22.1307 101.042 22.168 100.744 22.168C99.9875 22.168 99.4088 21.9207 99.0075 21.426C98.6062 20.9313 98.4055 20.2267 98.4055 19.312V14.692H100.198V19.13C100.198 19.634 100.296 20.0213 100.492 20.292C100.688 20.5533 101 20.684 101.43 20.684C101.607 20.684 101.78 20.6607 101.948 20.614C102.125 20.5673 102.279 20.4973 102.41 20.404C102.54 20.3013 102.648 20.18 102.732 20.04C102.816 19.8907 102.858 19.718 102.858 19.522V14.692H104.65V22H102.858V20.782ZM109.162 22C108.546 22 108.075 21.8413 107.748 21.524C107.431 21.1973 107.272 20.7353 107.272 20.138V16.12H106.194V14.692H106.754C107.025 14.692 107.207 14.6313 107.3 14.51C107.403 14.3793 107.454 14.188 107.454 13.936V12.69H109.064V14.692H110.562V16.12H109.064V20.572H110.45V22H109.162Z"/><line x1="178.5" x2="178.5" y2="268" stroke="#DDE1E6"/><circle cx="48" cy="73" r="19.5" fill="#BE95FF" stroke="#491D8B"/><path stroke="#343A3F" d="M127 178.5H118.5H114V178.5C111.651 178.5 109.746 176.596 109.746 174.246V78.5C109.746 75.7386 107.508 73.5 104.746 73.5L101.5 73.5H93"/><path fill="#491D8B" d="M64 75L68 73.5L64 72V75Z"/><line x1="64" x2="47" y1="73.5" y2="73.5" stroke="#491D8B"/><path fill="#491D8B" d="M233 75L237 73.5L233 72V75Z"/><line x1="233" x2="221" y1="73.5" y2="73.5" stroke="#491D8B"/><path fill="#491D8B" d="M233 180L237 178.5L233 177V180Z"/><line x1="233" x2="221" y1="178.5" y2="178.5" stroke="#491D8B"/><path fill="#343A3F" d="M190 75L194 73.5L190 72V75Z"/><line x1="190" x2="86" y1="73.5" y2="73.5" stroke="#343A3F"/><path fill="#343A3F" d="M190 180L194 178.5L190 177V180Z"/><line x1="190" x2="127" y1="178.5" y2="178.5" stroke="#343A3F"/></svg>