<svg width="384" height="240" viewBox="0 0 384 240" fill="none" xmlns="http://www.w3.org/2000/svg">
<rect opacity="0.4" y="189" width="384" height="51" fill="#F2F4F8"/>
<path d="M27.644 202.944H27.584L26.876 204.348L24.872 207.996L22.868 204.348L22.16 202.944H22.1V210H21.116V201.624H22.46L24.86 206.136H24.92L27.332 201.624H28.628V210H27.644V202.944ZM35.5783 210C35.2183 210 34.9583 209.904 34.7983 209.712C34.6463 209.52 34.5503 209.28 34.5103 208.992H34.4503C34.3143 209.376 34.0903 209.664 33.7783 209.856C33.4663 210.048 33.0943 210.144 32.6623 210.144C32.0063 210.144 31.4943 209.976 31.1263 209.64C30.7663 209.304 30.5863 208.848 30.5863 208.272C30.5863 207.688 30.7983 207.24 31.2223 206.928C31.6543 206.616 32.3223 206.46 33.2263 206.46H34.4503V205.848C34.4503 205.408 34.3303 205.072 34.0903 204.84C33.8503 204.608 33.4823 204.492 32.9863 204.492C32.6103 204.492 32.2943 204.576 32.0383 204.744C31.7903 204.912 31.5823 205.136 31.4143 205.416L30.8383 204.876C31.0063 204.54 31.2743 204.256 31.6423 204.024C32.0103 203.784 32.4743 203.664 33.0343 203.664C33.7863 203.664 34.3703 203.848 34.7863 204.216C35.2023 204.584 35.4103 205.096 35.4103 205.752V209.16H36.1183V210H35.5783ZM32.8183 209.328C33.0583 209.328 33.2783 209.3 33.4783 209.244C33.6783 209.188 33.8503 209.108 33.9943 209.004C34.1383 208.9 34.2503 208.78 34.3303 208.644C34.4103 208.508 34.4503 208.36 34.4503 208.2V207.18H33.1783C32.6263 207.18 32.2223 207.26 31.9663 207.42C31.7183 207.58 31.5943 207.812 31.5943 208.116V208.368C31.5943 208.672 31.7023 208.908 31.9183 209.076C32.1423 209.244 32.4423 209.328 32.8183 209.328ZM43.0284 210.684C43.0284 211.324 42.7764 211.792 42.2724 212.088C41.7764 212.392 41.0284 212.544 40.0284 212.544C39.0604 212.544 38.3644 212.412 37.9404 212.148C37.5164 211.884 37.3044 211.508 37.3044 211.02C37.3044 210.684 37.3924 210.42 37.5684 210.228C37.7444 210.044 37.9844 209.908 38.2884 209.82V209.688C37.9204 209.512 37.7364 209.224 37.7364 208.824C37.7364 208.512 37.8364 208.276 38.0364 208.116C38.2364 207.948 38.4924 207.824 38.8044 207.744V207.696C38.4364 207.52 38.1484 207.268 37.9404 206.94C37.7404 206.612 37.6404 206.232 37.6404 205.8C37.6404 205.488 37.6964 205.2 37.8084 204.936C37.9204 204.672 38.0764 204.448 38.2764 204.264C38.4844 204.072 38.7284 203.924 39.0084 203.82C39.2964 203.716 39.6164 203.664 39.9684 203.664C40.4084 203.664 40.8004 203.744 41.1444 203.904V203.796C41.1444 203.556 41.2004 203.36 41.3124 203.208C41.4244 203.048 41.6084 202.968 41.8644 202.968H42.7884V203.808H41.6124V204.204C41.8364 204.396 42.0084 204.628 42.1284 204.9C42.2564 205.164 42.3204 205.464 42.3204 205.8C42.3204 206.112 42.2644 206.4 42.1524 206.664C42.0404 206.928 41.8804 207.156 41.6724 207.348C41.4724 207.532 41.2284 207.676 40.9404 207.78C40.6524 207.884 40.3324 207.936 39.9804 207.936C39.7804 207.936 39.5804 207.916 39.3804 207.876C39.1724 207.932 38.9844 208.016 38.8164 208.128C38.6484 208.232 38.5644 208.38 38.5644 208.572C38.5644 208.756 38.6524 208.88 38.8284 208.944C39.0044 209.008 39.2324 209.04 39.5124 209.04H40.8324C41.6004 209.04 42.1564 209.188 42.5004 209.484C42.8524 209.772 43.0284 210.172 43.0284 210.684ZM42.1284 210.756C42.1284 210.508 42.0324 210.308 41.8404 210.156C41.6564 210.012 41.3244 209.94 40.8444 209.94H38.7804C38.3964 210.116 38.2044 210.396 38.2044 210.78C38.2044 211.052 38.3044 211.284 38.5044 211.476C38.7124 211.668 39.0604 211.764 39.5484 211.764H40.4364C40.9724 211.764 41.3884 211.68 41.6844 211.512C41.9804 211.344 42.1284 211.092 42.1284 210.756ZM39.9804 207.168C40.3884 207.168 40.7124 207.072 40.9524 206.88C41.1924 206.68 41.3124 206.376 41.3124 205.968V205.632C41.3124 205.224 41.1924 204.924 40.9524 204.732C40.7124 204.532 40.3884 204.432 39.9804 204.432C39.5724 204.432 39.2484 204.532 39.0084 204.732C38.7684 204.924 38.6484 205.224 38.6484 205.632V205.968C38.6484 206.376 38.7684 206.68 39.0084 206.88C39.2484 207.072 39.5724 207.168 39.9804 207.168ZM44.4683 210V203.808H45.4283V204.816H45.4763C45.6283 204.464 45.8403 204.184 46.1123 203.976C46.3923 203.768 46.7643 203.664 47.2283 203.664C47.8683 203.664 48.3723 203.872 48.7403 204.288C49.1163 204.696 49.3043 205.276 49.3043 206.028V210H48.3443V206.196C48.3443 205.084 47.8763 204.528 46.9403 204.528C46.7483 204.528 46.5603 204.552 46.3763 204.6C46.2003 204.648 46.0403 204.72 45.8963 204.816C45.7523 204.912 45.6363 205.036 45.5483 205.188C45.4683 205.332 45.4283 205.504 45.4283 205.704V210H44.4683ZM52.0886 202.356C51.8806 202.356 51.7286 202.308 51.6326 202.212C51.5446 202.108 51.5006 201.976 51.5006 201.816V201.66C51.5006 201.5 51.5446 201.372 51.6326 201.276C51.7286 201.172 51.8806 201.12 52.0886 201.12C52.2966 201.12 52.4446 201.172 52.5326 201.276C52.6286 201.372 52.6766 201.5 52.6766 201.66V201.816C52.6766 201.976 52.6286 202.108 52.5326 202.212C52.4446 202.308 52.2966 202.356 52.0886 202.356ZM51.6086 203.808H52.5686V210H51.6086V203.808ZM56.2966 210C55.9606 210 55.7046 209.908 55.5286 209.724C55.3606 209.532 55.2766 209.284 55.2766 208.98V204.648H54.2566V203.808H54.8326C55.0406 203.808 55.1806 203.768 55.2526 203.688C55.3326 203.6 55.3726 203.452 55.3726 203.244V202.092H56.2366V203.808H57.5926V204.648H56.2366V209.16H57.4966V210H56.2966ZM63.2716 208.992H63.2236C63.1596 209.136 63.0796 209.28 62.9836 209.424C62.8956 209.56 62.7836 209.684 62.6476 209.796C62.5116 209.9 62.3476 209.984 62.1556 210.048C61.9636 210.112 61.7396 210.144 61.4836 210.144C60.8436 210.144 60.3356 209.94 59.9596 209.532C59.5836 209.116 59.3956 208.532 59.3956 207.78V203.808H60.3556V207.612C60.3556 208.724 60.8276 209.28 61.7716 209.28C61.9636 209.28 62.1476 209.256 62.3236 209.208C62.5076 209.16 62.6676 209.088 62.8036 208.992C62.9476 208.896 63.0596 208.776 63.1396 208.632C63.2276 208.48 63.2716 208.3 63.2716 208.092V203.808H64.2316V210H63.2716V208.992ZM70.5559 208.992H70.5079C70.1319 209.76 69.5279 210.144 68.6959 210.144C68.3119 210.144 67.9639 210.068 67.6519 209.916C67.3399 209.764 67.0719 209.548 66.8479 209.268C66.6319 208.988 66.4639 208.648 66.3439 208.248C66.2319 207.848 66.1759 207.4 66.1759 206.904C66.1759 206.408 66.2319 205.96 66.3439 205.56C66.4639 205.16 66.6319 204.82 66.8479 204.54C67.0719 204.26 67.3399 204.044 67.6519 203.892C67.9639 203.74 68.3119 203.664 68.6959 203.664C69.1279 203.664 69.4959 203.76 69.7999 203.952C70.1119 204.136 70.3479 204.424 70.5079 204.816H70.5559V201.12H71.5159V210H70.5559V208.992ZM68.9599 209.28C69.1759 209.28 69.3799 209.252 69.5719 209.196C69.7719 209.14 69.9439 209.06 70.0879 208.956C70.2319 208.844 70.3439 208.712 70.4239 208.56C70.5119 208.4 70.5559 208.22 70.5559 208.02V205.716C70.5559 205.548 70.5119 205.392 70.4239 205.248C70.3439 205.096 70.2319 204.968 70.0879 204.864C69.9439 204.76 69.7719 204.68 69.5719 204.624C69.3799 204.56 69.1759 204.528 68.9599 204.528C68.4159 204.528 67.9879 204.7 67.6759 205.044C67.3639 205.38 67.2079 205.824 67.2079 206.376V207.432C67.2079 207.984 67.3639 208.432 67.6759 208.776C67.9879 209.112 68.4159 209.28 68.9599 209.28ZM76.2049 210.144C75.7809 210.144 75.3969 210.068 75.0529 209.916C74.7169 209.764 74.4249 209.548 74.1769 209.268C73.9369 208.98 73.7489 208.64 73.6129 208.248C73.4849 207.848 73.4209 207.4 73.4209 206.904C73.4209 206.416 73.4849 205.972 73.6129 205.572C73.7489 205.172 73.9369 204.832 74.1769 204.552C74.4249 204.264 74.7169 204.044 75.0529 203.892C75.3969 203.74 75.7809 203.664 76.2049 203.664C76.6209 203.664 76.9929 203.74 77.3209 203.892C77.6489 204.044 77.9289 204.256 78.1609 204.528C78.3929 204.792 78.5689 205.108 78.6889 205.476C78.8169 205.844 78.8809 206.248 78.8809 206.688V207.144H74.4289V207.432C74.4289 207.696 74.4689 207.944 74.5489 208.176C74.6369 208.4 74.7569 208.596 74.9089 208.764C75.0689 208.932 75.2609 209.064 75.4849 209.16C75.7169 209.256 75.9769 209.304 76.2649 209.304C76.6569 209.304 76.9969 209.212 77.2849 209.028C77.5809 208.844 77.8089 208.58 77.9689 208.236L78.6529 208.728C78.4529 209.152 78.1409 209.496 77.7169 209.76C77.2929 210.016 76.7889 210.144 76.2049 210.144ZM76.2049 204.468C75.9409 204.468 75.7009 204.516 75.4849 204.612C75.2689 204.7 75.0809 204.828 74.9209 204.996C74.7689 205.164 74.6489 205.364 74.5609 205.596C74.4729 205.82 74.4289 206.068 74.4289 206.34V206.424H77.8489V206.292C77.8489 205.74 77.6969 205.3 77.3929 204.972C77.0969 204.636 76.7009 204.468 76.2049 204.468ZM81.5148 210.144C81.2588 210.144 81.0708 210.08 80.9508 209.952C80.8388 209.824 80.7828 209.656 80.7828 209.448V209.292C80.7828 209.084 80.8388 208.916 80.9508 208.788C81.0708 208.66 81.2588 208.596 81.5148 208.596C81.7708 208.596 81.9548 208.66 82.0668 208.788C82.1868 208.916 82.2468 209.084 82.2468 209.292V209.448C82.2468 209.656 82.1868 209.824 82.0668 209.952C81.9548 210.08 81.7708 210.144 81.5148 210.144ZM81.5148 205.212C81.2588 205.212 81.0708 205.148 80.9508 205.02C80.8388 204.892 80.7828 204.724 80.7828 204.516V204.36C80.7828 204.152 80.8388 203.984 80.9508 203.856C81.0708 203.728 81.2588 203.664 81.5148 203.664C81.7708 203.664 81.9548 203.728 82.0668 203.856C82.1868 203.984 82.2468 204.152 82.2468 204.36V204.516C82.2468 204.724 82.1868 204.892 82.0668 205.02C81.9548 205.148 81.7708 205.212 81.5148 205.212ZM90.3427 210.144C89.3427 210.144 88.6107 209.764 88.1467 209.004C87.6907 208.244 87.4627 207.18 87.4627 205.812C87.4627 204.444 87.6907 203.38 88.1467 202.62C88.6107 201.86 89.3427 201.48 90.3427 201.48C91.3427 201.48 92.0707 201.86 92.5267 202.62C92.9907 203.38 93.2227 204.444 93.2227 205.812C93.2227 207.18 92.9907 208.244 92.5267 209.004C92.0707 209.764 91.3427 210.144 90.3427 210.144ZM90.3427 209.268C90.6707 209.268 90.9507 209.2 91.1827 209.064C91.4147 208.928 91.6027 208.736 91.7467 208.488C91.8907 208.24 91.9947 207.948 92.0587 207.612C92.1307 207.276 92.1667 206.904 92.1667 206.496V205.128C92.1667 204.72 92.1307 204.348 92.0587 204.012C91.9947 203.676 91.8907 203.384 91.7467 203.136C91.6027 202.888 91.4147 202.696 91.1827 202.56C90.9507 202.424 90.6707 202.356 90.3427 202.356C90.0147 202.356 89.7347 202.424 89.5027 202.56C89.2707 202.696 89.0827 202.888 88.9387 203.136C88.7947 203.384 88.6867 203.676 88.6147 204.012C88.5507 204.348 88.5187 204.72 88.5187 205.128V206.496C88.5187 206.904 88.5507 207.276 88.6147 207.612C88.6867 207.948 88.7947 208.24 88.9387 208.488C89.0827 208.736 89.2707 208.928 89.5027 209.064C89.7347 209.2 90.0147 209.268 90.3427 209.268ZM95.89 210.144C95.634 210.144 95.446 210.08 95.326 209.952C95.214 209.824 95.158 209.656 95.158 209.448V209.292C95.158 209.084 95.214 208.916 95.326 208.788C95.446 208.66 95.634 208.596 95.89 208.596C96.146 208.596 96.33 208.66 96.442 208.788C96.562 208.916 96.622 209.084 96.622 209.292V209.448C96.622 209.656 96.562 209.824 96.442 209.952C96.33 210.08 96.146 210.144 95.89 210.144ZM100.98 205.176C101.548 205.176 101.972 205.048 102.252 204.792C102.54 204.528 102.684 204.192 102.684 203.784V203.7C102.684 203.26 102.544 202.932 102.264 202.716C101.992 202.492 101.632 202.38 101.184 202.38C100.752 202.38 100.4 202.476 100.128 202.668C99.8555 202.852 99.6315 203.104 99.4555 203.424L98.7115 202.848C98.8155 202.68 98.9395 202.516 99.0835 202.356C99.2355 202.188 99.4115 202.04 99.6115 201.912C99.8115 201.784 100.044 201.68 100.308 201.6C100.572 201.52 100.872 201.48 101.208 201.48C101.56 201.48 101.892 201.528 102.204 201.624C102.516 201.712 102.784 201.848 103.008 202.032C103.24 202.208 103.42 202.428 103.548 202.692C103.684 202.956 103.752 203.256 103.752 203.592C103.752 203.864 103.708 204.108 103.62 204.324C103.54 204.54 103.428 204.728 103.284 204.888C103.14 205.048 102.968 205.184 102.768 205.296C102.576 205.408 102.368 205.492 102.144 205.548V205.596C102.368 205.644 102.584 205.724 102.792 205.836C103.008 205.94 103.196 206.08 103.356 206.256C103.524 206.424 103.656 206.632 103.752 206.88C103.856 207.12 103.908 207.396 103.908 207.708C103.908 208.068 103.84 208.4 103.704 208.704C103.568 209 103.376 209.256 103.128 209.472C102.88 209.68 102.58 209.844 102.228 209.964C101.876 210.084 101.488 210.144 101.064 210.144C100.704 210.144 100.384 210.104 100.104 210.024C99.8235 209.944 99.5755 209.836 99.3595 209.7C99.1435 209.564 98.9515 209.412 98.7835 209.244C98.6235 209.076 98.4795 208.9 98.3515 208.716L99.1075 208.14C99.2115 208.308 99.3235 208.46 99.4435 208.596C99.5715 208.732 99.7115 208.848 99.8635 208.944C100.016 209.04 100.188 209.116 100.38 209.172C100.572 209.22 100.796 209.244 101.052 209.244C101.644 209.244 102.092 209.112 102.396 208.848C102.7 208.576 102.852 208.192 102.852 207.696V207.6C102.852 207.104 102.7 206.724 102.396 206.46C102.092 206.188 101.644 206.052 101.052 206.052H100.068V205.176H100.98ZM21.116 226V217.624H24.452C25.204 217.624 25.78 217.84 26.18 218.272C26.588 218.696 26.792 219.28 26.792 220.024C26.792 220.768 26.588 221.356 26.18 221.788C25.78 222.212 25.204 222.424 24.452 222.424H22.124V226H21.116ZM22.124 221.536H24.452C24.852 221.536 25.16 221.432 25.376 221.224C25.6 221.016 25.712 220.72 25.712 220.336V219.712C25.712 219.328 25.6 219.032 25.376 218.824C25.16 218.616 24.852 218.512 24.452 218.512H22.124V221.536ZM28.6173 217.12H29.5773V220.816H29.6253C29.7773 220.464 29.9893 220.184 30.2613 219.976C30.5413 219.768 30.9133 219.664 31.3773 219.664C32.0173 219.664 32.5213 219.872 32.8893 220.288C33.2653 220.696 33.4533 221.276 33.4533 222.028V226H32.4933V222.196C32.4933 221.084 32.0253 220.528 31.0893 220.528C30.8973 220.528 30.7093 220.552 30.5253 220.6C30.3493 220.648 30.1893 220.72 30.0453 220.816C29.9013 220.912 29.7853 221.036 29.6973 221.188C29.6173 221.332 29.5773 221.504 29.5773 221.704V226H28.6173V217.12ZM40.2577 226C39.8977 226 39.6377 225.904 39.4777 225.712C39.3257 225.52 39.2297 225.28 39.1897 224.992H39.1297C38.9937 225.376 38.7697 225.664 38.4577 225.856C38.1457 226.048 37.7737 226.144 37.3417 226.144C36.6857 226.144 36.1737 225.976 35.8057 225.64C35.4457 225.304 35.2657 224.848 35.2657 224.272C35.2657 223.688 35.4777 223.24 35.9017 222.928C36.3337 222.616 37.0017 222.46 37.9057 222.46H39.1297V221.848C39.1297 221.408 39.0097 221.072 38.7697 220.84C38.5297 220.608 38.1617 220.492 37.6657 220.492C37.2897 220.492 36.9737 220.576 36.7177 220.744C36.4697 220.912 36.2617 221.136 36.0937 221.416L35.5177 220.876C35.6857 220.54 35.9537 220.256 36.3217 220.024C36.6897 219.784 37.1537 219.664 37.7137 219.664C38.4657 219.664 39.0497 219.848 39.4657 220.216C39.8817 220.584 40.0897 221.096 40.0897 221.752V225.16H40.7977V226H40.2577ZM37.4977 225.328C37.7377 225.328 37.9577 225.3 38.1577 225.244C38.3577 225.188 38.5297 225.108 38.6737 225.004C38.8177 224.9 38.9297 224.78 39.0097 224.644C39.0897 224.508 39.1297 224.36 39.1297 224.2V223.18H37.8577C37.3057 223.18 36.9017 223.26 36.6457 223.42C36.3977 223.58 36.2737 223.812 36.2737 224.116V224.368C36.2737 224.672 36.3817 224.908 36.5977 225.076C36.8217 225.244 37.1217 225.328 37.4977 225.328ZM44.3478 226.144C43.7718 226.144 43.2878 226.036 42.8958 225.82C42.5118 225.596 42.1798 225.3 41.8998 224.932L42.5838 224.38C42.8238 224.684 43.0918 224.92 43.3878 225.088C43.6838 225.248 44.0278 225.328 44.4198 225.328C44.8278 225.328 45.1438 225.24 45.3678 225.064C45.5998 224.888 45.7158 224.64 45.7158 224.32C45.7158 224.08 45.6358 223.876 45.4758 223.708C45.3238 223.532 45.0438 223.412 44.6358 223.348L44.1438 223.276C43.8558 223.236 43.5918 223.176 43.3518 223.096C43.1118 223.008 42.8998 222.896 42.7158 222.76C42.5398 222.616 42.3998 222.44 42.2958 222.232C42.1998 222.024 42.1518 221.776 42.1518 221.488C42.1518 221.184 42.2078 220.92 42.3198 220.696C42.4318 220.464 42.5838 220.272 42.7758 220.12C42.9758 219.968 43.2118 219.856 43.4838 219.784C43.7558 219.704 44.0478 219.664 44.3598 219.664C44.8638 219.664 45.2838 219.752 45.6198 219.928C45.9638 220.104 46.2638 220.348 46.5198 220.66L45.8838 221.236C45.7478 221.044 45.5478 220.872 45.2838 220.72C45.0198 220.56 44.6878 220.48 44.2878 220.48C43.8878 220.48 43.5838 220.568 43.3758 220.744C43.1758 220.912 43.0758 221.144 43.0758 221.44C43.0758 221.744 43.1758 221.964 43.3758 222.1C43.5838 222.236 43.8798 222.336 44.2638 222.4L44.7438 222.472C45.4318 222.576 45.9198 222.776 46.2078 223.072C46.4958 223.36 46.6398 223.74 46.6398 224.212C46.6398 224.812 46.4358 225.284 46.0278 225.628C45.6198 225.972 45.0598 226.144 44.3478 226.144ZM50.9835 226.144C50.5595 226.144 50.1755 226.068 49.8315 225.916C49.4955 225.764 49.2035 225.548 48.9555 225.268C48.7155 224.98 48.5275 224.64 48.3915 224.248C48.2635 223.848 48.1995 223.4 48.1995 222.904C48.1995 222.416 48.2635 221.972 48.3915 221.572C48.5275 221.172 48.7155 220.832 48.9555 220.552C49.2035 220.264 49.4955 220.044 49.8315 219.892C50.1755 219.74 50.5595 219.664 50.9835 219.664C51.3995 219.664 51.7715 219.74 52.0995 219.892C52.4275 220.044 52.7075 220.256 52.9395 220.528C53.1715 220.792 53.3475 221.108 53.4675 221.476C53.5955 221.844 53.6595 222.248 53.6595 222.688V223.144H49.2075V223.432C49.2075 223.696 49.2475 223.944 49.3275 224.176C49.4155 224.4 49.5355 224.596 49.6875 224.764C49.8475 224.932 50.0395 225.064 50.2635 225.16C50.4955 225.256 50.7555 225.304 51.0435 225.304C51.4355 225.304 51.7755 225.212 52.0635 225.028C52.3595 224.844 52.5875 224.58 52.7475 224.236L53.4315 224.728C53.2315 225.152 52.9195 225.496 52.4955 225.76C52.0715 226.016 51.5675 226.144 50.9835 226.144ZM50.9835 220.468C50.7195 220.468 50.4795 220.516 50.2635 220.612C50.0475 220.7 49.8595 220.828 49.6995 220.996C49.5475 221.164 49.4275 221.364 49.3395 221.596C49.2515 221.82 49.2075 222.068 49.2075 222.34V222.424H52.6275V222.292C52.6275 221.74 52.4755 221.3 52.1715 220.972C51.8755 220.636 51.4795 220.468 50.9835 220.468ZM56.2934 226.144C56.0374 226.144 55.8494 226.08 55.7294 225.952C55.6174 225.824 55.5614 225.656 55.5614 225.448V225.292C55.5614 225.084 55.6174 224.916 55.7294 224.788C55.8494 224.66 56.0374 224.596 56.2934 224.596C56.5494 224.596 56.7334 224.66 56.8454 224.788C56.9654 224.916 57.0254 225.084 57.0254 225.292V225.448C57.0254 225.656 56.9654 225.824 56.8454 225.952C56.7334 226.08 56.5494 226.144 56.2934 226.144ZM56.2934 221.212C56.0374 221.212 55.8494 221.148 55.7294 221.02C55.6174 220.892 55.5614 220.724 55.5614 220.516V220.36C55.5614 220.152 55.6174 219.984 55.7294 219.856C55.8494 219.728 56.0374 219.664 56.2934 219.664C56.5494 219.664 56.7334 219.728 56.8454 219.856C56.9654 219.984 57.0254 220.152 57.0254 220.36V220.516C57.0254 220.724 56.9654 220.892 56.8454 221.02C56.7334 221.148 56.5494 221.212 56.2934 221.212ZM67.9173 226H62.4213V224.968L65.1573 222.448C65.5493 222.088 65.8773 221.708 66.1413 221.308C66.4053 220.9 66.5373 220.492 66.5373 220.084V219.94C66.5373 219.476 66.4093 219.1 66.1533 218.812C65.8973 218.524 65.5093 218.38 64.9893 218.38C64.7333 218.38 64.5093 218.416 64.3173 218.488C64.1253 218.56 63.9573 218.66 63.8133 218.788C63.6773 218.916 63.5613 219.068 63.4653 219.244C63.3773 219.412 63.3053 219.596 63.2493 219.796L62.3493 219.448C62.4293 219.2 62.5373 218.96 62.6733 218.728C62.8173 218.488 62.9933 218.276 63.2013 218.092C63.4173 217.908 63.6733 217.76 63.9693 217.648C64.2733 217.536 64.6293 217.48 65.0373 217.48C65.4453 217.48 65.8093 217.54 66.1293 217.66C66.4493 217.78 66.7173 217.948 66.9333 218.164C67.1493 218.38 67.3133 218.636 67.4253 218.932C67.5453 219.228 67.6053 219.556 67.6053 219.916C67.6053 220.244 67.5573 220.548 67.4613 220.828C67.3733 221.108 67.2493 221.376 67.0893 221.632C66.9293 221.88 66.7333 222.124 66.5013 222.364C66.2773 222.604 66.0333 222.844 65.7693 223.084L63.5133 225.112H67.9173V226ZM71.1366 226L74.3406 218.488H70.7646V220.048H69.8646V217.624H75.3606V218.512L72.2166 226H71.1366ZM80.1519 226.144C79.1519 226.144 78.4199 225.764 77.9559 225.004C77.4999 224.244 77.2719 223.18 77.2719 221.812C77.2719 220.444 77.4999 219.38 77.9559 218.62C78.4199 217.86 79.1519 217.48 80.1519 217.48C81.1519 217.48 81.8799 217.86 82.3359 218.62C82.7999 219.38 83.0319 220.444 83.0319 221.812C83.0319 223.18 82.7999 224.244 82.3359 225.004C81.8799 225.764 81.1519 226.144 80.1519 226.144ZM80.1519 225.268C80.4799 225.268 80.7599 225.2 80.9919 225.064C81.2239 224.928 81.4119 224.736 81.5559 224.488C81.6999 224.24 81.8039 223.948 81.8679 223.612C81.9399 223.276 81.9759 222.904 81.9759 222.496V221.128C81.9759 220.72 81.9399 220.348 81.8679 220.012C81.8039 219.676 81.6999 219.384 81.5559 219.136C81.4119 218.888 81.2239 218.696 80.9919 218.56C80.7599 218.424 80.4799 218.356 80.1519 218.356C79.8239 218.356 79.5439 218.424 79.3119 218.56C79.0799 218.696 78.8919 218.888 78.7479 219.136C78.6039 219.384 78.4959 219.676 78.4239 220.012C78.3599 220.348 78.3279 220.72 78.3279 221.128V222.496C78.3279 222.904 78.3599 223.276 78.4239 223.612C78.4959 223.948 78.6039 224.24 78.7479 224.488C78.8919 224.736 79.0799 224.928 79.3119 225.064C79.5439 225.2 79.8239 225.268 80.1519 225.268ZM86.8752 221.608C86.5872 221.608 86.3192 221.556 86.0712 221.452C85.8312 221.348 85.6192 221.204 85.4352 221.02C85.2592 220.836 85.1192 220.62 85.0152 220.372C84.9112 220.116 84.8592 219.84 84.8592 219.544C84.8592 219.248 84.9112 218.976 85.0152 218.728C85.1192 218.472 85.2592 218.252 85.4352 218.068C85.6192 217.884 85.8312 217.74 86.0712 217.636C86.3192 217.532 86.5872 217.48 86.8752 217.48C87.1632 217.48 87.4272 217.532 87.6672 217.636C87.9152 217.74 88.1272 217.884 88.3032 218.068C88.4872 218.252 88.6312 218.472 88.7352 218.728C88.8392 218.976 88.8912 219.248 88.8912 219.544C88.8912 219.84 88.8392 220.116 88.7352 220.372C88.6312 220.62 88.4872 220.836 88.3032 221.02C88.1272 221.204 87.9152 221.348 87.6672 221.452C87.4272 221.556 87.1632 221.608 86.8752 221.608ZM86.8752 220.84C87.2352 220.84 87.5192 220.716 87.7272 220.468C87.9432 220.212 88.0512 219.904 88.0512 219.544C88.0512 219.184 87.9432 218.88 87.7272 218.632C87.5192 218.376 87.2352 218.248 86.8752 218.248C86.5152 218.248 86.2272 218.376 86.0112 218.632C85.8032 218.88 85.6992 219.184 85.6992 219.544C85.6992 219.904 85.8032 220.212 86.0112 220.468C86.2272 220.716 86.5152 220.84 86.8752 220.84Z" fill="black"/>
<path d="M216.644 202.944H216.584L215.876 204.348L213.872 207.996L211.868 204.348L211.16 202.944H211.1V210H210.116V201.624H211.46L213.86 206.136H213.92L216.332 201.624H217.628V210H216.644V202.944ZM224.578 210C224.218 210 223.958 209.904 223.798 209.712C223.646 209.52 223.55 209.28 223.51 208.992H223.45C223.314 209.376 223.09 209.664 222.778 209.856C222.466 210.048 222.094 210.144 221.662 210.144C221.006 210.144 220.494 209.976 220.126 209.64C219.766 209.304 219.586 208.848 219.586 208.272C219.586 207.688 219.798 207.24 220.222 206.928C220.654 206.616 221.322 206.46 222.226 206.46H223.45V205.848C223.45 205.408 223.33 205.072 223.09 204.84C222.85 204.608 222.482 204.492 221.986 204.492C221.61 204.492 221.294 204.576 221.038 204.744C220.79 204.912 220.582 205.136 220.414 205.416L219.838 204.876C220.006 204.54 220.274 204.256 220.642 204.024C221.01 203.784 221.474 203.664 222.034 203.664C222.786 203.664 223.37 203.848 223.786 204.216C224.202 204.584 224.41 205.096 224.41 205.752V209.16H225.118V210H224.578ZM221.818 209.328C222.058 209.328 222.278 209.3 222.478 209.244C222.678 209.188 222.85 209.108 222.994 209.004C223.138 208.9 223.25 208.78 223.33 208.644C223.41 208.508 223.45 208.36 223.45 208.2V207.18H222.178C221.626 207.18 221.222 207.26 220.966 207.42C220.718 207.58 220.594 207.812 220.594 208.116V208.368C220.594 208.672 220.702 208.908 220.918 209.076C221.142 209.244 221.442 209.328 221.818 209.328ZM232.028 210.684C232.028 211.324 231.776 211.792 231.272 212.088C230.776 212.392 230.028 212.544 229.028 212.544C228.06 212.544 227.364 212.412 226.94 212.148C226.516 211.884 226.304 211.508 226.304 211.02C226.304 210.684 226.392 210.42 226.568 210.228C226.744 210.044 226.984 209.908 227.288 209.82V209.688C226.92 209.512 226.736 209.224 226.736 208.824C226.736 208.512 226.836 208.276 227.036 208.116C227.236 207.948 227.492 207.824 227.804 207.744V207.696C227.436 207.52 227.148 207.268 226.94 206.94C226.74 206.612 226.64 206.232 226.64 205.8C226.64 205.488 226.696 205.2 226.808 204.936C226.92 204.672 227.076 204.448 227.276 204.264C227.484 204.072 227.728 203.924 228.008 203.82C228.296 203.716 228.616 203.664 228.968 203.664C229.408 203.664 229.8 203.744 230.144 203.904V203.796C230.144 203.556 230.2 203.36 230.312 203.208C230.424 203.048 230.608 202.968 230.864 202.968H231.788V203.808H230.612V204.204C230.836 204.396 231.008 204.628 231.128 204.9C231.256 205.164 231.32 205.464 231.32 205.8C231.32 206.112 231.264 206.4 231.152 206.664C231.04 206.928 230.88 207.156 230.672 207.348C230.472 207.532 230.228 207.676 229.94 207.78C229.652 207.884 229.332 207.936 228.98 207.936C228.78 207.936 228.58 207.916 228.38 207.876C228.172 207.932 227.984 208.016 227.816 208.128C227.648 208.232 227.564 208.38 227.564 208.572C227.564 208.756 227.652 208.88 227.828 208.944C228.004 209.008 228.232 209.04 228.512 209.04H229.832C230.6 209.04 231.156 209.188 231.5 209.484C231.852 209.772 232.028 210.172 232.028 210.684ZM231.128 210.756C231.128 210.508 231.032 210.308 230.84 210.156C230.656 210.012 230.324 209.94 229.844 209.94H227.78C227.396 210.116 227.204 210.396 227.204 210.78C227.204 211.052 227.304 211.284 227.504 211.476C227.712 211.668 228.06 211.764 228.548 211.764H229.436C229.972 211.764 230.388 211.68 230.684 211.512C230.98 211.344 231.128 211.092 231.128 210.756ZM228.98 207.168C229.388 207.168 229.712 207.072 229.952 206.88C230.192 206.68 230.312 206.376 230.312 205.968V205.632C230.312 205.224 230.192 204.924 229.952 204.732C229.712 204.532 229.388 204.432 228.98 204.432C228.572 204.432 228.248 204.532 228.008 204.732C227.768 204.924 227.648 205.224 227.648 205.632V205.968C227.648 206.376 227.768 206.68 228.008 206.88C228.248 207.072 228.572 207.168 228.98 207.168ZM233.468 210V203.808H234.428V204.816H234.476C234.628 204.464 234.84 204.184 235.112 203.976C235.392 203.768 235.764 203.664 236.228 203.664C236.868 203.664 237.372 203.872 237.74 204.288C238.116 204.696 238.304 205.276 238.304 206.028V210H237.344V206.196C237.344 205.084 236.876 204.528 235.94 204.528C235.748 204.528 235.56 204.552 235.376 204.6C235.2 204.648 235.04 204.72 234.896 204.816C234.752 204.912 234.636 205.036 234.548 205.188C234.468 205.332 234.428 205.504 234.428 205.704V210H233.468ZM241.089 202.356C240.881 202.356 240.729 202.308 240.633 202.212C240.545 202.108 240.501 201.976 240.501 201.816V201.66C240.501 201.5 240.545 201.372 240.633 201.276C240.729 201.172 240.881 201.12 241.089 201.12C241.297 201.12 241.445 201.172 241.533 201.276C241.629 201.372 241.677 201.5 241.677 201.66V201.816C241.677 201.976 241.629 202.108 241.533 202.212C241.445 202.308 241.297 202.356 241.089 202.356ZM240.609 203.808H241.569V210H240.609V203.808ZM245.297 210C244.961 210 244.705 209.908 244.529 209.724C244.361 209.532 244.277 209.284 244.277 208.98V204.648H243.257V203.808H243.833C244.041 203.808 244.181 203.768 244.253 203.688C244.333 203.6 244.373 203.452 244.373 203.244V202.092H245.237V203.808H246.593V204.648H245.237V209.16H246.497V210H245.297ZM252.272 208.992H252.224C252.16 209.136 252.08 209.28 251.984 209.424C251.896 209.56 251.784 209.684 251.648 209.796C251.512 209.9 251.348 209.984 251.156 210.048C250.964 210.112 250.74 210.144 250.484 210.144C249.844 210.144 249.336 209.94 248.96 209.532C248.584 209.116 248.396 208.532 248.396 207.78V203.808H249.356V207.612C249.356 208.724 249.828 209.28 250.772 209.28C250.964 209.28 251.148 209.256 251.324 209.208C251.508 209.16 251.668 209.088 251.804 208.992C251.948 208.896 252.06 208.776 252.14 208.632C252.228 208.48 252.272 208.3 252.272 208.092V203.808H253.232V210H252.272V208.992ZM259.556 208.992H259.508C259.132 209.76 258.528 210.144 257.696 210.144C257.312 210.144 256.964 210.068 256.652 209.916C256.34 209.764 256.072 209.548 255.848 209.268C255.632 208.988 255.464 208.648 255.344 208.248C255.232 207.848 255.176 207.4 255.176 206.904C255.176 206.408 255.232 205.96 255.344 205.56C255.464 205.16 255.632 204.82 255.848 204.54C256.072 204.26 256.34 204.044 256.652 203.892C256.964 203.74 257.312 203.664 257.696 203.664C258.128 203.664 258.496 203.76 258.8 203.952C259.112 204.136 259.348 204.424 259.508 204.816H259.556V201.12H260.516V210H259.556V208.992ZM257.96 209.28C258.176 209.28 258.38 209.252 258.572 209.196C258.772 209.14 258.944 209.06 259.088 208.956C259.232 208.844 259.344 208.712 259.424 208.56C259.512 208.4 259.556 208.22 259.556 208.02V205.716C259.556 205.548 259.512 205.392 259.424 205.248C259.344 205.096 259.232 204.968 259.088 204.864C258.944 204.76 258.772 204.68 258.572 204.624C258.38 204.56 258.176 204.528 257.96 204.528C257.416 204.528 256.988 204.7 256.676 205.044C256.364 205.38 256.208 205.824 256.208 206.376V207.432C256.208 207.984 256.364 208.432 256.676 208.776C256.988 209.112 257.416 209.28 257.96 209.28ZM265.205 210.144C264.781 210.144 264.397 210.068 264.053 209.916C263.717 209.764 263.425 209.548 263.177 209.268C262.937 208.98 262.749 208.64 262.613 208.248C262.485 207.848 262.421 207.4 262.421 206.904C262.421 206.416 262.485 205.972 262.613 205.572C262.749 205.172 262.937 204.832 263.177 204.552C263.425 204.264 263.717 204.044 264.053 203.892C264.397 203.74 264.781 203.664 265.205 203.664C265.621 203.664 265.993 203.74 266.321 203.892C266.649 204.044 266.929 204.256 267.161 204.528C267.393 204.792 267.569 205.108 267.689 205.476C267.817 205.844 267.881 206.248 267.881 206.688V207.144H263.429V207.432C263.429 207.696 263.469 207.944 263.549 208.176C263.637 208.4 263.757 208.596 263.909 208.764C264.069 208.932 264.261 209.064 264.485 209.16C264.717 209.256 264.977 209.304 265.265 209.304C265.657 209.304 265.997 209.212 266.285 209.028C266.581 208.844 266.809 208.58 266.969 208.236L267.653 208.728C267.453 209.152 267.141 209.496 266.717 209.76C266.293 210.016 265.789 210.144 265.205 210.144ZM265.205 204.468C264.941 204.468 264.701 204.516 264.485 204.612C264.269 204.7 264.081 204.828 263.921 204.996C263.769 205.164 263.649 205.364 263.561 205.596C263.473 205.82 263.429 206.068 263.429 206.34V206.424H266.849V206.292C266.849 205.74 266.697 205.3 266.393 204.972C266.097 204.636 265.701 204.468 265.205 204.468ZM270.515 210.144C270.259 210.144 270.071 210.08 269.951 209.952C269.839 209.824 269.783 209.656 269.783 209.448V209.292C269.783 209.084 269.839 208.916 269.951 208.788C270.071 208.66 270.259 208.596 270.515 208.596C270.771 208.596 270.955 208.66 271.067 208.788C271.187 208.916 271.247 209.084 271.247 209.292V209.448C271.247 209.656 271.187 209.824 271.067 209.952C270.955 210.08 270.771 210.144 270.515 210.144ZM270.515 205.212C270.259 205.212 270.071 205.148 269.951 205.02C269.839 204.892 269.783 204.724 269.783 204.516V204.36C269.783 204.152 269.839 203.984 269.951 203.856C270.071 203.728 270.259 203.664 270.515 203.664C270.771 203.664 270.955 203.728 271.067 203.856C271.187 203.984 271.247 204.152 271.247 204.36V204.516C271.247 204.724 271.187 204.892 271.067 205.02C270.955 205.148 270.771 205.212 270.515 205.212ZM279.343 210.144C278.343 210.144 277.611 209.764 277.147 209.004C276.691 208.244 276.463 207.18 276.463 205.812C276.463 204.444 276.691 203.38 277.147 202.62C277.611 201.86 278.343 201.48 279.343 201.48C280.343 201.48 281.071 201.86 281.527 202.62C281.991 203.38 282.223 204.444 282.223 205.812C282.223 207.18 281.991 208.244 281.527 209.004C281.071 209.764 280.343 210.144 279.343 210.144ZM279.343 209.268C279.671 209.268 279.951 209.2 280.183 209.064C280.415 208.928 280.603 208.736 280.747 208.488C280.891 208.24 280.995 207.948 281.059 207.612C281.131 207.276 281.167 206.904 281.167 206.496V205.128C281.167 204.72 281.131 204.348 281.059 204.012C280.995 203.676 280.891 203.384 280.747 203.136C280.603 202.888 280.415 202.696 280.183 202.56C279.951 202.424 279.671 202.356 279.343 202.356C279.015 202.356 278.735 202.424 278.503 202.56C278.271 202.696 278.083 202.888 277.939 203.136C277.795 203.384 277.687 203.676 277.615 204.012C277.551 204.348 277.519 204.72 277.519 205.128V206.496C277.519 206.904 277.551 207.276 277.615 207.612C277.687 207.948 277.795 208.24 277.939 208.488C278.083 208.736 278.271 208.928 278.503 209.064C278.735 209.2 279.015 209.268 279.343 209.268ZM284.89 210.144C284.634 210.144 284.446 210.08 284.326 209.952C284.214 209.824 284.158 209.656 284.158 209.448V209.292C284.158 209.084 284.214 208.916 284.326 208.788C284.446 208.66 284.634 208.596 284.89 208.596C285.146 208.596 285.33 208.66 285.442 208.788C285.562 208.916 285.622 209.084 285.622 209.292V209.448C285.622 209.656 285.562 209.824 285.442 209.952C285.33 210.08 285.146 210.144 284.89 210.144ZM290.448 210.144C289.448 210.144 288.716 209.764 288.252 209.004C287.796 208.244 287.568 207.18 287.568 205.812C287.568 204.444 287.796 203.38 288.252 202.62C288.716 201.86 289.448 201.48 290.448 201.48C291.448 201.48 292.176 201.86 292.632 202.62C293.096 203.38 293.328 204.444 293.328 205.812C293.328 207.18 293.096 208.244 292.632 209.004C292.176 209.764 291.448 210.144 290.448 210.144ZM290.448 209.268C290.776 209.268 291.056 209.2 291.288 209.064C291.52 208.928 291.708 208.736 291.852 208.488C291.996 208.24 292.1 207.948 292.164 207.612C292.236 207.276 292.272 206.904 292.272 206.496V205.128C292.272 204.72 292.236 204.348 292.164 204.012C292.1 203.676 291.996 203.384 291.852 203.136C291.708 202.888 291.52 202.696 291.288 202.56C291.056 202.424 290.776 202.356 290.448 202.356C290.12 202.356 289.84 202.424 289.608 202.56C289.376 202.696 289.188 202.888 289.044 203.136C288.9 203.384 288.792 203.676 288.72 204.012C288.656 204.348 288.624 204.72 288.624 205.128V206.496C288.624 206.904 288.656 207.276 288.72 207.612C288.792 207.948 288.9 208.24 289.044 208.488C289.188 208.736 289.376 208.928 289.608 209.064C289.84 209.2 290.12 209.268 290.448 209.268ZM300.759 204.696C300.759 205.32 300.667 205.908 300.483 206.46C300.299 207.004 300.059 207.504 299.763 207.96C299.475 208.408 299.155 208.808 298.803 209.16C298.451 209.504 298.107 209.784 297.771 210H296.475C296.923 209.672 297.323 209.352 297.675 209.04C298.027 208.728 298.335 208.404 298.599 208.068C298.863 207.724 299.087 207.36 299.271 206.976C299.455 206.584 299.603 206.144 299.715 205.656L299.655 205.632C299.455 205.976 299.195 206.264 298.875 206.496C298.563 206.72 298.151 206.832 297.639 206.832C297.279 206.832 296.947 206.772 296.643 206.652C296.339 206.532 296.079 206.36 295.863 206.136C295.647 205.912 295.475 205.644 295.347 205.332C295.227 205.012 295.167 204.652 295.167 204.252C295.167 203.844 295.231 203.472 295.359 203.136C295.495 202.792 295.683 202.5 295.923 202.26C296.171 202.012 296.463 201.82 296.799 201.684C297.143 201.548 297.527 201.48 297.951 201.48C298.383 201.48 298.771 201.556 299.115 201.708C299.467 201.852 299.763 202.064 300.003 202.344C300.251 202.616 300.439 202.952 300.567 203.352C300.695 203.752 300.759 204.2 300.759 204.696ZM297.963 205.98C298.515 205.98 298.943 205.828 299.247 205.524C299.559 205.22 299.715 204.784 299.715 204.216V204.12C299.715 203.552 299.559 203.116 299.247 202.812C298.943 202.508 298.515 202.356 297.963 202.356C297.411 202.356 296.979 202.508 296.667 202.812C296.363 203.116 296.211 203.552 296.211 204.12V204.216C296.211 204.784 296.363 205.22 296.667 205.524C296.979 205.828 297.411 205.98 297.963 205.98Z" fill="black"/>
<path d="M210.148 22V12.228H214.544C214.992 12.228 215.393 12.3027 215.748 12.452C216.112 12.592 216.42 12.7973 216.672 13.068C216.924 13.3293 217.115 13.6467 217.246 14.02C217.377 14.3933 217.442 14.804 217.442 15.252C217.442 15.7093 217.377 16.1247 217.246 16.498C217.115 16.862 216.924 17.1793 216.672 17.45C216.42 17.7113 216.112 17.9167 215.748 18.066C215.393 18.206 214.992 18.276 214.544 18.276H211.996V22H210.148ZM211.996 16.68H214.376C214.731 16.68 215.011 16.5867 215.216 16.4C215.421 16.204 215.524 15.9287 215.524 15.574V14.93C215.524 14.5753 215.421 14.3047 215.216 14.118C215.011 13.9313 214.731 13.838 214.376 13.838H211.996V16.68ZM219.028 22V14.692H220.82V16.204H220.89C220.937 16.008 221.007 15.8213 221.1 15.644C221.203 15.4573 221.333 15.294 221.492 15.154C221.651 15.014 221.837 14.902 222.052 14.818C222.276 14.734 222.533 14.692 222.822 14.692H223.214V16.386H222.654C222.047 16.386 221.59 16.4747 221.282 16.652C220.974 16.8293 220.82 17.1187 220.82 17.52V22H219.028ZM227.514 22.168C226.991 22.168 226.52 22.0793 226.1 21.902C225.689 21.7247 225.334 21.468 225.036 21.132C224.746 20.796 224.522 20.3947 224.364 19.928C224.205 19.452 224.126 18.92 224.126 18.332C224.126 17.744 224.205 17.2167 224.364 16.75C224.522 16.2833 224.746 15.8867 225.036 15.56C225.334 15.224 225.689 14.9673 226.1 14.79C226.52 14.6127 226.991 14.524 227.514 14.524C228.036 14.524 228.508 14.6127 228.928 14.79C229.348 14.9673 229.702 15.224 229.992 15.56C230.29 15.8867 230.519 16.2833 230.678 16.75C230.836 17.2167 230.916 17.744 230.916 18.332C230.916 18.92 230.836 19.452 230.678 19.928C230.519 20.3947 230.29 20.796 229.992 21.132C229.702 21.468 229.348 21.7247 228.928 21.902C228.508 22.0793 228.036 22.168 227.514 22.168ZM227.514 20.726C227.99 20.726 228.363 20.5813 228.634 20.292C228.904 20.0027 229.04 19.578 229.04 19.018V17.66C229.04 17.1093 228.904 16.6893 228.634 16.4C228.363 16.1107 227.99 15.966 227.514 15.966C227.047 15.966 226.678 16.1107 226.408 16.4C226.137 16.6893 226.002 17.1093 226.002 17.66V19.018C226.002 19.578 226.137 20.0027 226.408 20.292C226.678 20.5813 227.047 20.726 227.514 20.726ZM232.664 11.64H234.456V15.896H234.512C234.643 15.476 234.89 15.1447 235.254 14.902C235.618 14.65 236.043 14.524 236.528 14.524C237.462 14.524 238.171 14.8553 238.656 15.518C239.151 16.1713 239.398 17.1093 239.398 18.332C239.398 19.564 239.151 20.5113 238.656 21.174C238.171 21.8367 237.462 22.168 236.528 22.168C236.043 22.168 235.618 22.042 235.254 21.79C234.9 21.538 234.652 21.202 234.512 20.782H234.456V22H232.664V11.64ZM235.954 20.684C236.421 20.684 236.799 20.53 237.088 20.222C237.378 19.914 237.522 19.4987 237.522 18.976V17.716C237.522 17.1933 237.378 16.778 237.088 16.47C236.799 16.1527 236.421 15.994 235.954 15.994C235.525 15.994 235.166 16.1013 234.876 16.316C234.596 16.5307 234.456 16.8153 234.456 17.17V19.494C234.456 19.8767 234.596 20.1707 234.876 20.376C235.166 20.5813 235.525 20.684 235.954 20.684ZM246.595 22C246.203 22 245.89 21.888 245.657 21.664C245.433 21.4307 245.293 21.1227 245.237 20.74H245.153C245.032 21.216 244.784 21.5753 244.411 21.818C244.038 22.0513 243.576 22.168 243.025 22.168C242.278 22.168 241.704 21.972 241.303 21.58C240.902 21.188 240.701 20.6653 240.701 20.012C240.701 19.256 240.972 18.696 241.513 18.332C242.054 17.9587 242.824 17.772 243.823 17.772H245.069V17.24C245.069 16.8293 244.962 16.512 244.747 16.288C244.532 16.064 244.187 15.952 243.711 15.952C243.291 15.952 242.95 16.0453 242.689 16.232C242.437 16.4093 242.222 16.624 242.045 16.876L240.981 15.924C241.252 15.504 241.611 15.168 242.059 14.916C242.507 14.6547 243.1 14.524 243.837 14.524C244.826 14.524 245.578 14.748 246.091 15.196C246.604 15.644 246.861 16.288 246.861 17.128V20.572H247.589V22H246.595ZM243.627 20.866C244.028 20.866 244.369 20.7773 244.649 20.6C244.929 20.4227 245.069 20.1613 245.069 19.816V18.85H243.921C242.988 18.85 242.521 19.1487 242.521 19.746V19.984C242.521 20.2827 242.614 20.5067 242.801 20.656C242.997 20.796 243.272 20.866 243.627 20.866ZM249.199 11.64H250.991V15.896H251.047C251.178 15.476 251.425 15.1447 251.789 14.902C252.153 14.65 252.578 14.524 253.063 14.524C253.997 14.524 254.706 14.8553 255.191 15.518C255.686 16.1713 255.933 17.1093 255.933 18.332C255.933 19.564 255.686 20.5113 255.191 21.174C254.706 21.8367 253.997 22.168 253.063 22.168C252.578 22.168 252.153 22.042 251.789 21.79C251.435 21.538 251.187 21.202 251.047 20.782H250.991V22H249.199V11.64ZM252.489 20.684C252.956 20.684 253.334 20.53 253.623 20.222C253.913 19.914 254.057 19.4987 254.057 18.976V17.716C254.057 17.1933 253.913 16.778 253.623 16.47C253.334 16.1527 252.956 15.994 252.489 15.994C252.06 15.994 251.701 16.1013 251.411 16.316C251.131 16.5307 250.991 16.8153 250.991 17.17V19.494C250.991 19.8767 251.131 20.1707 251.411 20.376C251.701 20.5813 252.06 20.684 252.489 20.684ZM258.65 13.628C258.276 13.628 258.006 13.544 257.838 13.376C257.679 13.208 257.6 12.9933 257.6 12.732V12.452C257.6 12.1907 257.679 11.976 257.838 11.808C258.006 11.64 258.276 11.556 258.65 11.556C259.014 11.556 259.28 11.64 259.448 11.808C259.616 11.976 259.7 12.1907 259.7 12.452V12.732C259.7 12.9933 259.616 13.208 259.448 13.376C259.28 13.544 259.014 13.628 258.65 13.628ZM257.754 14.692H259.546V22H257.754V14.692ZM263.575 22C262.959 22 262.506 21.846 262.217 21.538C261.928 21.23 261.783 20.796 261.783 20.236V11.64H263.575V20.572H264.541V22H263.575ZM266.954 13.628C266.581 13.628 266.31 13.544 266.142 13.376C265.984 13.208 265.904 12.9933 265.904 12.732V12.452C265.904 12.1907 265.984 11.976 266.142 11.808C266.31 11.64 266.581 11.556 266.954 11.556C267.318 11.556 267.584 11.64 267.752 11.808C267.92 11.976 268.004 12.1907 268.004 12.452V12.732C268.004 12.9933 267.92 13.208 267.752 13.376C267.584 13.544 267.318 13.628 266.954 13.628ZM266.058 14.692H267.85V22H266.058V14.692ZM272.369 22C271.753 22 271.282 21.8413 270.955 21.524C270.638 21.1973 270.479 20.7353 270.479 20.138V16.12H269.401V14.692H269.961C270.232 14.692 270.414 14.6313 270.507 14.51C270.61 14.3793 270.661 14.188 270.661 13.936V12.69H272.271V14.692H273.769V16.12H272.271V20.572H273.657V22H272.369ZM279.964 14.692H281.644L278.704 23.302C278.61 23.5633 278.503 23.7873 278.382 23.974C278.27 24.17 278.134 24.3287 277.976 24.45C277.817 24.5713 277.626 24.66 277.402 24.716C277.178 24.772 276.916 24.8 276.618 24.8H275.54V23.372H276.856L277.192 22.35L274.574 14.692H276.352L277.626 18.556L278.102 20.404H278.186L278.69 18.556L279.964 14.692Z" fill="black"/>
<path d="M23.196 22L22.412 19.508H18.94L18.17 22H16.294L19.57 12.228H21.866L25.114 22H23.196ZM20.704 13.908H20.634L19.388 17.926H21.964L20.704 13.908ZM26.6022 22V14.692H28.3942V15.91H28.4643C28.6043 15.5273 28.8283 15.2007 29.1363 14.93C29.4443 14.6593 29.8736 14.524 30.4242 14.524C30.9283 14.524 31.3623 14.6453 31.7263 14.888C32.0903 15.1307 32.3609 15.4993 32.5383 15.994H32.5662C32.6969 15.5833 32.9536 15.238 33.3362 14.958C33.7282 14.6687 34.2182 14.524 34.8063 14.524C35.5249 14.524 36.0756 14.7713 36.4583 15.266C36.8503 15.7607 37.0463 16.4653 37.0463 17.38V22H35.2543V17.562C35.2543 16.5167 34.8623 15.994 34.0783 15.994C33.9009 15.994 33.7283 16.022 33.5603 16.078C33.4016 16.1247 33.2569 16.1993 33.1263 16.302C33.0049 16.3953 32.9069 16.5167 32.8323 16.666C32.7576 16.806 32.7203 16.974 32.7203 17.17V22H30.9283V17.562C30.9283 16.5167 30.5363 15.994 29.7523 15.994C29.5843 15.994 29.4163 16.022 29.2483 16.078C29.0896 16.1247 28.9449 16.1993 28.8142 16.302C28.6929 16.3953 28.5902 16.5167 28.5062 16.666C28.4316 16.806 28.3942 16.974 28.3942 17.17V22H26.6022ZM39.19 14.692H40.982V15.896H41.038C41.1687 15.476 41.416 15.1447 41.78 14.902C42.144 14.65 42.5687 14.524 43.054 14.524C43.9873 14.524 44.6967 14.8553 45.182 15.518C45.6767 16.1713 45.924 17.1093 45.924 18.332C45.924 19.564 45.6767 20.5113 45.182 21.174C44.6967 21.8367 43.9873 22.168 43.054 22.168C42.5687 22.168 42.144 22.042 41.78 21.79C41.4253 21.538 41.178 21.202 41.038 20.782H40.982V24.8H39.19V14.692ZM42.48 20.684C42.9467 20.684 43.3247 20.53 43.614 20.222C43.9033 19.914 44.048 19.4987 44.048 18.976V17.716C44.048 17.1933 43.9033 16.778 43.614 16.47C43.3247 16.1527 42.9467 15.994 42.48 15.994C42.0507 15.994 41.6913 16.1013 41.402 16.316C41.122 16.5307 40.982 16.8153 40.982 17.17V19.494C40.982 19.8767 41.122 20.1707 41.402 20.376C41.6913 20.5813 42.0507 20.684 42.48 20.684ZM49.5365 22C48.9205 22 48.4678 21.846 48.1785 21.538C47.8892 21.23 47.7445 20.796 47.7445 20.236V11.64H49.5365V20.572H50.5025V22H49.5365ZM52.9157 13.628C52.5424 13.628 52.2717 13.544 52.1037 13.376C51.9451 13.208 51.8657 12.9933 51.8657 12.732V12.452C51.8657 12.1907 51.9451 11.976 52.1037 11.808C52.2717 11.64 52.5424 11.556 52.9157 11.556C53.2797 11.556 53.5457 11.64 53.7137 11.808C53.8817 11.976 53.9657 12.1907 53.9657 12.452V12.732C53.9657 12.9933 53.8817 13.208 53.7137 13.376C53.5457 13.544 53.2797 13.628 52.9157 13.628ZM52.0197 14.692H53.8117V22H52.0197V14.692ZM58.3309 22C57.7149 22 57.2436 21.8413 56.9169 21.524C56.5996 21.1973 56.4409 20.7353 56.4409 20.138V16.12H55.3629V14.692H55.9229C56.1936 14.692 56.3756 14.6313 56.4689 14.51C56.5716 14.3793 56.6229 14.188 56.6229 13.936V12.69H58.2329V14.692H59.7309V16.12H58.2329V20.572H59.6189V22H58.3309ZM65.8132 20.782H65.7432C65.6779 20.9687 65.5892 21.146 65.4772 21.314C65.3746 21.4727 65.2392 21.6173 65.0712 21.748C64.9126 21.8787 64.7166 21.9813 64.4832 22.056C64.2592 22.1307 63.9979 22.168 63.6992 22.168C62.9432 22.168 62.3646 21.9207 61.9632 21.426C61.5619 20.9313 61.3612 20.2267 61.3612 19.312V14.692H63.1532V19.13C63.1532 19.634 63.2512 20.0213 63.4472 20.292C63.6432 20.5533 63.9559 20.684 64.3852 20.684C64.5626 20.684 64.7352 20.6607 64.9032 20.614C65.0806 20.5673 65.2346 20.4973 65.3652 20.404C65.4959 20.3013 65.6032 20.18 65.6872 20.04C65.7712 19.8907 65.8132 19.718 65.8132 19.522V14.692H67.6052V22H65.8132V20.782ZM74.3717 20.782H74.3017C74.171 21.202 73.9237 21.538 73.5597 21.79C73.1957 22.042 72.771 22.168 72.2857 22.168C71.3617 22.168 70.6524 21.8367 70.1577 21.174C69.6724 20.5113 69.4297 19.564 69.4297 18.332C69.4297 17.1093 69.6724 16.1713 70.1577 15.518C70.6524 14.8553 71.3617 14.524 72.2857 14.524C72.771 14.524 73.1957 14.65 73.5597 14.902C73.9237 15.1447 74.171 15.476 74.3017 15.896H74.3717V11.64H76.1637V22H74.3717V20.782ZM72.8597 20.684C73.289 20.684 73.6484 20.5813 73.9377 20.376C74.227 20.1707 74.3717 19.8767 74.3717 19.494V17.17C74.3717 16.8153 74.227 16.5307 73.9377 16.316C73.6484 16.1013 73.289 15.994 72.8597 15.994C72.393 15.994 72.015 16.1527 71.7257 16.47C71.4457 16.778 71.3057 17.1933 71.3057 17.716V18.976C71.3057 19.4987 71.4457 19.914 71.7257 20.222C72.015 20.53 72.393 20.684 72.8597 20.684ZM81.3442 22.168C80.8029 22.168 80.3176 22.0793 79.8882 21.902C79.4682 21.7153 79.1089 21.4587 78.8102 21.132C78.5209 20.796 78.2969 20.3947 78.1382 19.928C77.9796 19.452 77.9002 18.92 77.9002 18.332C77.9002 17.7533 77.9749 17.2307 78.1242 16.764C78.2829 16.2973 78.5069 15.9007 78.7962 15.574C79.0856 15.238 79.4402 14.9813 79.8602 14.804C80.2802 14.6173 80.7562 14.524 81.2882 14.524C81.8576 14.524 82.3522 14.622 82.7722 14.818C83.1922 15.014 83.5376 15.28 83.8082 15.616C84.0789 15.952 84.2796 16.344 84.4102 16.792C84.5502 17.2307 84.6202 17.702 84.6202 18.206V18.794H79.7622V18.976C79.7622 19.508 79.9116 19.9373 80.2102 20.264C80.5089 20.5813 80.9522 20.74 81.5402 20.74C81.9882 20.74 82.3522 20.6467 82.6322 20.46C82.9216 20.2733 83.1782 20.0353 83.4022 19.746L84.3682 20.824C84.0696 21.244 83.6589 21.5753 83.1362 21.818C82.6229 22.0513 82.0256 22.168 81.3442 22.168ZM81.3162 15.868C80.8402 15.868 80.4622 16.0267 80.1822 16.344C79.9022 16.6613 79.7622 17.072 79.7622 17.576V17.688H82.7582V17.562C82.7582 17.058 82.6322 16.652 82.3802 16.344C82.1376 16.0267 81.7829 15.868 81.3162 15.868Z" fill="black"/>
<line x1="192.5" x2="192.5" y2="240" stroke="#DDE1E6"/>
<rect x="0.5" y="0.5" width="383" height="239" stroke="#DDE1E6"/>
<path d="M268 106L272 104.5L268 103V106Z" fill="#343A3F"/>
<line x1="268" y1="104.5" x2="176" y2="104.5" stroke="#343A3F"/>
<circle cx="96" cy="104" r="64" fill="#DDE1E6"/>
<circle cx="95.5" cy="103.5" r="23" fill="#BE95FF" stroke="#491D8B"/>
<path d="M93.9687 123L95.4688 127L96.9687 123L93.9687 123Z" fill="#491D8B"/>
<line x1="95.4688" y1="123" x2="95.4688" y2="101" stroke="#491D8B"/>
<rect x="288" y="60" width="28" height="116" fill="#DDE1E6"/>
<rect x="288.5" y="160.5" width="27" height="15" fill="#BE95FF" stroke="#491D8B"/>
<path d="M211.88 70.144C211.304 70.144 210.82 70.036 210.428 69.82C210.044 69.596 209.712 69.3 209.432 68.932L210.116 68.38C210.356 68.684 210.624 68.92 210.92 69.088C211.216 69.248 211.56 69.328 211.952 69.328C212.36 69.328 212.676 69.24 212.9 69.064C213.132 68.888 213.248 68.64 213.248 68.32C213.248 68.08 213.168 67.876 213.008 67.708C212.856 67.532 212.576 67.412 212.168 67.348L211.676 67.276C211.388 67.236 211.124 67.176 210.884 67.096C210.644 67.008 210.432 66.896 210.248 66.76C210.072 66.616 209.932 66.44 209.828 66.232C209.732 66.024 209.684 65.776 209.684 65.488C209.684 65.184 209.74 64.92 209.852 64.696C209.964 64.464 210.116 64.272 210.308 64.12C210.508 63.968 210.744 63.856 211.016 63.784C211.288 63.704 211.58 63.664 211.892 63.664C212.396 63.664 212.816 63.752 213.152 63.928C213.496 64.104 213.796 64.348 214.052 64.66L213.416 65.236C213.28 65.044 213.08 64.872 212.816 64.72C212.552 64.56 212.22 64.48 211.82 64.48C211.42 64.48 211.116 64.568 210.908 64.744C210.708 64.912 210.608 65.144 210.608 65.44C210.608 65.744 210.708 65.964 210.908 66.1C211.116 66.236 211.412 66.336 211.796 66.4L212.276 66.472C212.964 66.576 213.452 66.776 213.74 67.072C214.028 67.36 214.172 67.74 214.172 68.212C214.172 68.812 213.968 69.284 213.56 69.628C213.152 69.972 212.592 70.144 211.88 70.144ZM220.148 68.992H220.1C219.724 69.76 219.12 70.144 218.288 70.144C217.904 70.144 217.556 70.068 217.244 69.916C216.932 69.764 216.664 69.548 216.44 69.268C216.224 68.988 216.056 68.648 215.936 68.248C215.824 67.848 215.768 67.4 215.768 66.904C215.768 66.408 215.824 65.96 215.936 65.56C216.056 65.16 216.224 64.82 216.44 64.54C216.664 64.26 216.932 64.044 217.244 63.892C217.556 63.74 217.904 63.664 218.288 63.664C218.72 63.664 219.088 63.76 219.392 63.952C219.704 64.136 219.94 64.424 220.1 64.816H220.148V63.808H221.108V72.4H220.148V68.992ZM218.552 69.28C218.768 69.28 218.972 69.252 219.164 69.196C219.364 69.14 219.536 69.06 219.68 68.956C219.824 68.844 219.936 68.712 220.016 68.56C220.104 68.4 220.148 68.22 220.148 68.02V65.716C220.148 65.548 220.104 65.392 220.016 65.248C219.936 65.096 219.824 64.968 219.68 64.864C219.536 64.76 219.364 64.68 219.164 64.624C218.972 64.56 218.768 64.528 218.552 64.528C218.008 64.528 217.58 64.7 217.268 65.044C216.956 65.38 216.8 65.824 216.8 66.376V67.432C216.8 67.984 216.956 68.432 217.268 68.776C217.58 69.112 218.008 69.28 218.552 69.28ZM227.285 68.992H227.237C227.173 69.136 227.093 69.28 226.997 69.424C226.909 69.56 226.797 69.684 226.661 69.796C226.525 69.9 226.361 69.984 226.169 70.048C225.977 70.112 225.753 70.144 225.497 70.144C224.857 70.144 224.349 69.94 223.973 69.532C223.597 69.116 223.409 68.532 223.409 67.78V63.808H224.369V67.612C224.369 68.724 224.841 69.28 225.785 69.28C225.977 69.28 226.161 69.256 226.337 69.208C226.521 69.16 226.681 69.088 226.817 68.992C226.961 68.896 227.073 68.776 227.153 68.632C227.241 68.48 227.285 68.3 227.285 68.092V63.808H228.245V70H227.285V68.992ZM235.109 70C234.749 70 234.489 69.904 234.329 69.712C234.177 69.52 234.081 69.28 234.041 68.992H233.981C233.845 69.376 233.621 69.664 233.309 69.856C232.997 70.048 232.625 70.144 232.193 70.144C231.537 70.144 231.025 69.976 230.657 69.64C230.297 69.304 230.117 68.848 230.117 68.272C230.117 67.688 230.329 67.24 230.753 66.928C231.185 66.616 231.853 66.46 232.757 66.46H233.981V65.848C233.981 65.408 233.861 65.072 233.621 64.84C233.381 64.608 233.013 64.492 232.517 64.492C232.141 64.492 231.825 64.576 231.569 64.744C231.321 64.912 231.113 65.136 230.945 65.416L230.369 64.876C230.537 64.54 230.805 64.256 231.173 64.024C231.541 63.784 232.005 63.664 232.565 63.664C233.317 63.664 233.901 63.848 234.317 64.216C234.733 64.584 234.941 65.096 234.941 65.752V69.16H235.649V70H235.109ZM232.349 69.328C232.589 69.328 232.809 69.3 233.009 69.244C233.209 69.188 233.381 69.108 233.525 69.004C233.669 68.9 233.781 68.78 233.861 68.644C233.941 68.508 233.981 68.36 233.981 68.2V67.18H232.709C232.157 67.18 231.753 67.26 231.497 67.42C231.249 67.58 231.125 67.812 231.125 68.116V68.368C231.125 68.672 231.233 68.908 231.449 69.076C231.673 69.244 231.973 69.328 232.349 69.328ZM237.339 70V63.808H238.299V64.948H238.359C238.471 64.652 238.671 64.388 238.959 64.156C239.247 63.924 239.643 63.808 240.147 63.808H240.519V64.768H239.955C239.435 64.768 239.027 64.868 238.731 65.068C238.443 65.26 238.299 65.504 238.299 65.8V70H237.339ZM244.335 70.144C243.911 70.144 243.527 70.068 243.183 69.916C242.847 69.764 242.555 69.548 242.307 69.268C242.067 68.98 241.879 68.64 241.743 68.248C241.615 67.848 241.551 67.4 241.551 66.904C241.551 66.416 241.615 65.972 241.743 65.572C241.879 65.172 242.067 64.832 242.307 64.552C242.555 64.264 242.847 64.044 243.183 63.892C243.527 63.74 243.911 63.664 244.335 63.664C244.751 63.664 245.123 63.74 245.451 63.892C245.779 64.044 246.059 64.256 246.291 64.528C246.523 64.792 246.699 65.108 246.819 65.476C246.947 65.844 247.011 66.248 247.011 66.688V67.144H242.559V67.432C242.559 67.696 242.599 67.944 242.679 68.176C242.767 68.4 242.887 68.596 243.039 68.764C243.199 68.932 243.391 69.064 243.615 69.16C243.847 69.256 244.107 69.304 244.395 69.304C244.787 69.304 245.127 69.212 245.415 69.028C245.711 68.844 245.939 68.58 246.099 68.236L246.783 68.728C246.583 69.152 246.271 69.496 245.847 69.76C245.423 70.016 244.919 70.144 244.335 70.144ZM244.335 64.468C244.071 64.468 243.831 64.516 243.615 64.612C243.399 64.7 243.211 64.828 243.051 64.996C242.899 65.164 242.779 65.364 242.691 65.596C242.603 65.82 242.559 66.068 242.559 66.34V66.424H245.979V66.292C245.979 65.74 245.827 65.3 245.523 64.972C245.227 64.636 244.831 64.468 244.335 64.468ZM210.02 86V79.808H210.98V80.816H211.028C211.1 80.656 211.18 80.508 211.268 80.372C211.364 80.228 211.476 80.104 211.604 80C211.74 79.896 211.896 79.816 212.072 79.76C212.248 79.696 212.456 79.664 212.696 79.664C213.104 79.664 213.48 79.764 213.824 79.964C214.168 80.156 214.424 80.476 214.592 80.924H214.616C214.728 80.588 214.936 80.296 215.24 80.048C215.552 79.792 215.972 79.664 216.5 79.664C217.132 79.664 217.624 79.872 217.976 80.288C218.336 80.696 218.516 81.276 218.516 82.028V86H217.556V82.196C217.556 81.644 217.448 81.228 217.232 80.948C217.016 80.668 216.672 80.528 216.2 80.528C216.008 80.528 215.824 80.552 215.648 80.6C215.48 80.648 215.328 80.72 215.192 80.816C215.056 80.912 214.948 81.036 214.868 81.188C214.788 81.332 214.748 81.504 214.748 81.704V86H213.788V82.196C213.788 81.644 213.68 81.228 213.464 80.948C213.248 80.668 212.912 80.528 212.456 80.528C212.264 80.528 212.08 80.552 211.904 80.6C211.728 80.648 211.572 80.72 211.436 80.816C211.3 80.912 211.188 81.036 211.1 81.188C211.02 81.332 210.98 81.504 210.98 81.704V86H210.02ZM225.317 86C224.957 86 224.697 85.904 224.537 85.712C224.385 85.52 224.289 85.28 224.249 84.992H224.189C224.053 85.376 223.829 85.664 223.517 85.856C223.205 86.048 222.833 86.144 222.401 86.144C221.745 86.144 221.233 85.976 220.865 85.64C220.505 85.304 220.325 84.848 220.325 84.272C220.325 83.688 220.537 83.24 220.961 82.928C221.393 82.616 222.061 82.46 222.965 82.46H224.189V81.848C224.189 81.408 224.069 81.072 223.829 80.84C223.589 80.608 223.221 80.492 222.725 80.492C222.349 80.492 222.033 80.576 221.777 80.744C221.529 80.912 221.321 81.136 221.153 81.416L220.577 80.876C220.745 80.54 221.013 80.256 221.381 80.024C221.749 79.784 222.213 79.664 222.773 79.664C223.525 79.664 224.109 79.848 224.525 80.216C224.941 80.584 225.149 81.096 225.149 81.752V85.16H225.857V86H225.317ZM222.557 85.328C222.797 85.328 223.017 85.3 223.217 85.244C223.417 85.188 223.589 85.108 223.733 85.004C223.877 84.9 223.989 84.78 224.069 84.644C224.149 84.508 224.189 84.36 224.189 84.2V83.18H222.917C222.365 83.18 221.961 83.26 221.705 83.42C221.457 83.58 221.333 83.812 221.333 84.116V84.368C221.333 84.672 221.441 84.908 221.657 85.076C221.881 85.244 222.181 85.328 222.557 85.328ZM232.767 86.684C232.767 87.324 232.515 87.792 232.011 88.088C231.515 88.392 230.767 88.544 229.767 88.544C228.799 88.544 228.103 88.412 227.679 88.148C227.255 87.884 227.043 87.508 227.043 87.02C227.043 86.684 227.131 86.42 227.307 86.228C227.483 86.044 227.723 85.908 228.027 85.82V85.688C227.659 85.512 227.475 85.224 227.475 84.824C227.475 84.512 227.575 84.276 227.775 84.116C227.975 83.948 228.231 83.824 228.543 83.744V83.696C228.175 83.52 227.887 83.268 227.679 82.94C227.479 82.612 227.379 82.232 227.379 81.8C227.379 81.488 227.435 81.2 227.547 80.936C227.659 80.672 227.815 80.448 228.015 80.264C228.223 80.072 228.467 79.924 228.747 79.82C229.035 79.716 229.355 79.664 229.707 79.664C230.147 79.664 230.539 79.744 230.883 79.904V79.796C230.883 79.556 230.939 79.36 231.051 79.208C231.163 79.048 231.347 78.968 231.603 78.968H232.527V79.808H231.351V80.204C231.575 80.396 231.747 80.628 231.867 80.9C231.995 81.164 232.059 81.464 232.059 81.8C232.059 82.112 232.003 82.4 231.891 82.664C231.779 82.928 231.619 83.156 231.411 83.348C231.211 83.532 230.967 83.676 230.679 83.78C230.391 83.884 230.071 83.936 229.719 83.936C229.519 83.936 229.319 83.916 229.119 83.876C228.911 83.932 228.723 84.016 228.555 84.128C228.387 84.232 228.303 84.38 228.303 84.572C228.303 84.756 228.391 84.88 228.567 84.944C228.743 85.008 228.971 85.04 229.251 85.04H230.571C231.339 85.04 231.895 85.188 232.239 85.484C232.591 85.772 232.767 86.172 232.767 86.684ZM231.867 86.756C231.867 86.508 231.771 86.308 231.579 86.156C231.395 86.012 231.063 85.94 230.583 85.94H228.519C228.135 86.116 227.943 86.396 227.943 86.78C227.943 87.052 228.043 87.284 228.243 87.476C228.451 87.668 228.799 87.764 229.287 87.764H230.175C230.711 87.764 231.127 87.68 231.423 87.512C231.719 87.344 231.867 87.092 231.867 86.756ZM229.719 83.168C230.127 83.168 230.451 83.072 230.691 82.88C230.931 82.68 231.051 82.376 231.051 81.968V81.632C231.051 81.224 230.931 80.924 230.691 80.732C230.451 80.532 230.127 80.432 229.719 80.432C229.311 80.432 228.987 80.532 228.747 80.732C228.507 80.924 228.387 81.224 228.387 81.632V81.968C228.387 82.376 228.507 82.68 228.747 82.88C228.987 83.072 229.311 83.168 229.719 83.168ZM234.207 86V79.808H235.167V80.816H235.215C235.367 80.464 235.579 80.184 235.851 79.976C236.131 79.768 236.503 79.664 236.967 79.664C237.607 79.664 238.111 79.872 238.479 80.288C238.855 80.696 239.043 81.276 239.043 82.028V86H238.083V82.196C238.083 81.084 237.615 80.528 236.679 80.528C236.487 80.528 236.299 80.552 236.115 80.6C235.939 80.648 235.779 80.72 235.635 80.816C235.491 80.912 235.375 81.036 235.287 81.188C235.207 81.332 235.167 81.504 235.167 81.704V86H234.207ZM241.827 78.356C241.619 78.356 241.467 78.308 241.371 78.212C241.283 78.108 241.239 77.976 241.239 77.816V77.66C241.239 77.5 241.283 77.372 241.371 77.276C241.467 77.172 241.619 77.12 241.827 77.12C242.035 77.12 242.183 77.172 242.271 77.276C242.367 77.372 242.415 77.5 242.415 77.66V77.816C242.415 77.976 242.367 78.108 242.271 78.212C242.183 78.308 242.035 78.356 241.827 78.356ZM241.347 79.808H242.307V86H241.347V79.808ZM246.035 86C245.699 86 245.443 85.908 245.267 85.724C245.099 85.532 245.015 85.284 245.015 84.98V80.648H243.995V79.808H244.571C244.779 79.808 244.919 79.768 244.991 79.688C245.071 79.6 245.111 79.452 245.111 79.244V78.092H245.975V79.808H247.331V80.648H245.975V85.16H247.235V86H246.035ZM253.01 84.992H252.962C252.898 85.136 252.818 85.28 252.722 85.424C252.634 85.56 252.522 85.684 252.386 85.796C252.25 85.9 252.086 85.984 251.894 86.048C251.702 86.112 251.478 86.144 251.222 86.144C250.582 86.144 250.074 85.94 249.698 85.532C249.322 85.116 249.134 84.532 249.134 83.78V79.808H250.094V83.612C250.094 84.724 250.566 85.28 251.51 85.28C251.702 85.28 251.886 85.256 252.062 85.208C252.246 85.16 252.406 85.088 252.542 84.992C252.686 84.896 252.798 84.776 252.878 84.632C252.966 84.48 253.01 84.3 253.01 84.092V79.808H253.97V86H253.01V84.992ZM260.294 84.992H260.246C259.87 85.76 259.266 86.144 258.434 86.144C258.05 86.144 257.702 86.068 257.39 85.916C257.078 85.764 256.81 85.548 256.586 85.268C256.37 84.988 256.202 84.648 256.082 84.248C255.97 83.848 255.914 83.4 255.914 82.904C255.914 82.408 255.97 81.96 256.082 81.56C256.202 81.16 256.37 80.82 256.586 80.54C256.81 80.26 257.078 80.044 257.39 79.892C257.702 79.74 258.05 79.664 258.434 79.664C258.866 79.664 259.234 79.76 259.538 79.952C259.85 80.136 260.086 80.424 260.246 80.816H260.294V77.12H261.254V86H260.294V84.992ZM258.698 85.28C258.914 85.28 259.118 85.252 259.31 85.196C259.51 85.14 259.682 85.06 259.826 84.956C259.97 84.844 260.082 84.712 260.162 84.56C260.25 84.4 260.294 84.22 260.294 84.02V81.716C260.294 81.548 260.25 81.392 260.162 81.248C260.082 81.096 259.97 80.968 259.826 80.864C259.682 80.76 259.51 80.68 259.31 80.624C259.118 80.56 258.914 80.528 258.698 80.528C258.154 80.528 257.726 80.7 257.414 81.044C257.102 81.38 256.946 81.824 256.946 82.376V83.432C256.946 83.984 257.102 84.432 257.414 84.776C257.726 85.112 258.154 85.28 258.698 85.28ZM265.943 86.144C265.519 86.144 265.135 86.068 264.791 85.916C264.455 85.764 264.163 85.548 263.915 85.268C263.675 84.98 263.487 84.64 263.351 84.248C263.223 83.848 263.159 83.4 263.159 82.904C263.159 82.416 263.223 81.972 263.351 81.572C263.487 81.172 263.675 80.832 263.915 80.552C264.163 80.264 264.455 80.044 264.791 79.892C265.135 79.74 265.519 79.664 265.943 79.664C266.359 79.664 266.731 79.74 267.059 79.892C267.387 80.044 267.667 80.256 267.899 80.528C268.131 80.792 268.307 81.108 268.427 81.476C268.555 81.844 268.619 82.248 268.619 82.688V83.144H264.167V83.432C264.167 83.696 264.207 83.944 264.287 84.176C264.375 84.4 264.495 84.596 264.647 84.764C264.807 84.932 264.999 85.064 265.223 85.16C265.455 85.256 265.715 85.304 266.003 85.304C266.395 85.304 266.735 85.212 267.023 85.028C267.319 84.844 267.547 84.58 267.707 84.236L268.391 84.728C268.191 85.152 267.879 85.496 267.455 85.76C267.031 86.016 266.527 86.144 265.943 86.144ZM265.943 80.468C265.679 80.468 265.439 80.516 265.223 80.612C265.007 80.7 264.819 80.828 264.659 80.996C264.507 81.164 264.387 81.364 264.299 81.596C264.211 81.82 264.167 82.068 264.167 82.34V82.424H267.587V82.292C267.587 81.74 267.435 81.3 267.131 80.972C266.835 80.636 266.439 80.468 265.943 80.468Z" fill="black"/>
</svg>
