<svg xmlns="http://www.w3.org/2000/svg" width="384" height="232" fill="none" viewBox="0 0 384 232"><rect width="191" height="231" x="1" fill="#F2F4F8" opacity=".4"/><rect width="383" height="231" x=".5" y=".5" stroke="#DDE1E6"/><path fill="#121619" d="M213.196 22L212.412 19.508H208.94L208.17 22H206.294L209.57 12.228H211.866L215.114 22H213.196ZM210.704 13.908H210.634L209.388 17.926H211.964L210.704 13.908ZM216.966 16.106H215.888V14.692H216.966V13.642C216.966 12.998 217.134 12.5033 217.47 12.158C217.816 11.8127 218.32 11.64 218.982 11.64H220.256V13.068H218.758V14.692H220.256V16.106H218.758V22H216.966V16.106ZM223.939 22C223.323 22 222.851 21.8413 222.525 21.524C222.207 21.1973 222.049 20.7353 222.049 20.138V16.12H220.971V14.692H221.531C221.801 14.692 221.983 14.6313 222.077 14.51C222.179 14.3793 222.231 14.188 222.231 13.936V12.69H223.841V14.692H225.339V16.12H223.841V20.572H225.227V22H223.939ZM229.952 22.168C229.411 22.168 228.926 22.0793 228.496 21.902C228.076 21.7153 227.717 21.4587 227.418 21.132C227.129 20.796 226.905 20.3947 226.746 19.928C226.588 19.452 226.508 18.92 226.508 18.332C226.508 17.7533 226.583 17.2307 226.732 16.764C226.891 16.2973 227.115 15.9007 227.404 15.574C227.694 15.238 228.048 14.9813 228.468 14.804C228.888 14.6173 229.364 14.524 229.896 14.524C230.466 14.524 230.96 14.622 231.38 14.818C231.8 15.014 232.146 15.28 232.416 15.616C232.687 15.952 232.888 16.344 233.018 16.792C233.158 17.2307 233.228 17.702 233.228 18.206V18.794H228.37V18.976C228.37 19.508 228.52 19.9373 228.818 20.264C229.117 20.5813 229.56 20.74 230.148 20.74C230.596 20.74 230.96 20.6467 231.24 20.46C231.53 20.2733 231.786 20.0353 232.01 19.746L232.976 20.824C232.678 21.244 232.267 21.5753 231.744 21.818C231.231 22.0513 230.634 22.168 229.952 22.168ZM229.924 15.868C229.448 15.868 229.07 16.0267 228.79 16.344C228.51 16.6613 228.37 17.072 228.37 17.576V17.688H231.366V17.562C231.366 17.058 231.24 16.652 230.988 16.344C230.746 16.0267 230.391 15.868 229.924 15.868ZM234.965 22V14.692H236.757V16.204H236.827C236.874 16.008 236.944 15.8213 237.037 15.644C237.14 15.4573 237.27 15.294 237.429 15.154C237.588 15.014 237.774 14.902 237.989 14.818C238.213 14.734 238.47 14.692 238.759 14.692H239.151V16.386H238.591C237.984 16.386 237.527 16.4747 237.219 16.652C236.911 16.8293 236.757 17.1187 236.757 17.52V22H234.965ZM246.988 22.168C246.465 22.168 245.994 22.0793 245.574 21.902C245.163 21.7247 244.808 21.468 244.51 21.132C244.22 20.796 243.996 20.3947 243.838 19.928C243.679 19.452 243.6 18.92 243.6 18.332C243.6 17.744 243.679 17.2167 243.838 16.75C243.996 16.2833 244.22 15.8867 244.51 15.56C244.808 15.224 245.163 14.9673 245.574 14.79C245.994 14.6127 246.465 14.524 246.988 14.524C247.51 14.524 247.982 14.6127 248.402 14.79C248.822 14.9673 249.176 15.224 249.466 15.56C249.764 15.8867 249.993 16.2833 250.152 16.75C250.31 17.2167 250.39 17.744 250.39 18.332C250.39 18.92 250.31 19.452 250.152 19.928C249.993 20.3947 249.764 20.796 249.466 21.132C249.176 21.468 248.822 21.7247 248.402 21.902C247.982 22.0793 247.51 22.168 246.988 22.168ZM246.988 20.726C247.464 20.726 247.837 20.5813 248.108 20.292C248.378 20.0027 248.514 19.578 248.514 19.018V17.66C248.514 17.1093 248.378 16.6893 248.108 16.4C247.837 16.1107 247.464 15.966 246.988 15.966C246.521 15.966 246.152 16.1107 245.882 16.4C245.611 16.6893 245.476 17.1093 245.476 17.66V19.018C245.476 19.578 245.611 20.0027 245.882 20.292C246.152 20.5813 246.521 20.726 246.988 20.726ZM252.138 14.692H253.93V15.896H253.986C254.117 15.476 254.364 15.1447 254.728 14.902C255.092 14.65 255.517 14.524 256.002 14.524C256.936 14.524 257.645 14.8553 258.13 15.518C258.625 16.1713 258.872 17.1093 258.872 18.332C258.872 19.564 258.625 20.5113 258.13 21.174C257.645 21.8367 256.936 22.168 256.002 22.168C255.517 22.168 255.092 22.042 254.728 21.79C254.374 21.538 254.126 21.202 253.986 20.782H253.93V24.8H252.138V14.692ZM255.428 20.684C255.895 20.684 256.273 20.53 256.562 20.222C256.852 19.914 256.996 19.4987 256.996 18.976V17.716C256.996 17.1933 256.852 16.778 256.562 16.47C256.273 16.1527 255.895 15.994 255.428 15.994C254.999 15.994 254.64 16.1013 254.35 16.316C254.07 16.5307 253.93 16.8153 253.93 17.17V19.494C253.93 19.8767 254.07 20.1707 254.35 20.376C254.64 20.5813 254.999 20.684 255.428 20.684ZM263.647 22.168C263.106 22.168 262.62 22.0793 262.191 21.902C261.771 21.7153 261.412 21.4587 261.113 21.132C260.824 20.796 260.6 20.3947 260.441 19.928C260.282 19.452 260.203 18.92 260.203 18.332C260.203 17.7533 260.278 17.2307 260.427 16.764C260.586 16.2973 260.81 15.9007 261.099 15.574C261.388 15.238 261.743 14.9813 262.163 14.804C262.583 14.6173 263.059 14.524 263.591 14.524C264.16 14.524 264.655 14.622 265.075 14.818C265.495 15.014 265.84 15.28 266.111 15.616C266.382 15.952 266.582 16.344 266.713 16.792C266.853 17.2307 266.923 17.702 266.923 18.206V18.794H262.065V18.976C262.065 19.508 262.214 19.9373 262.513 20.264C262.812 20.5813 263.255 20.74 263.843 20.74C264.291 20.74 264.655 20.6467 264.935 20.46C265.224 20.2733 265.481 20.0353 265.705 19.746L266.671 20.824C266.372 21.244 265.962 21.5753 265.439 21.818C264.926 22.0513 264.328 22.168 263.647 22.168ZM263.619 15.868C263.143 15.868 262.765 16.0267 262.485 16.344C262.205 16.6613 262.065 17.072 262.065 17.576V17.688H265.061V17.562C265.061 17.058 264.935 16.652 264.683 16.344C264.44 16.0267 264.086 15.868 263.619 15.868ZM268.66 22V14.692H270.452V16.204H270.522C270.568 16.008 270.638 15.8213 270.732 15.644C270.834 15.4573 270.965 15.294 271.124 15.154C271.282 15.014 271.469 14.902 271.684 14.818C271.908 14.734 272.164 14.692 272.454 14.692H272.846V16.386H272.286C271.679 16.386 271.222 16.4747 270.914 16.652C270.606 16.8293 270.452 17.1187 270.452 17.52V22H268.66ZM279.541 22C279.149 22 278.837 21.888 278.603 21.664C278.379 21.4307 278.239 21.1227 278.183 20.74H278.099C277.978 21.216 277.731 21.5753 277.357 21.818C276.984 22.0513 276.522 22.168 275.971 22.168C275.225 22.168 274.651 21.972 274.249 21.58C273.848 21.188 273.647 20.6653 273.647 20.012C273.647 19.256 273.918 18.696 274.459 18.332C275.001 17.9587 275.771 17.772 276.769 17.772H278.015V17.24C278.015 16.8293 277.908 16.512 277.693 16.288C277.479 16.064 277.133 15.952 276.657 15.952C276.237 15.952 275.897 16.0453 275.635 16.232C275.383 16.4093 275.169 16.624 274.991 16.876L273.927 15.924C274.198 15.504 274.557 15.168 275.005 14.916C275.453 14.6547 276.046 14.524 276.783 14.524C277.773 14.524 278.524 14.748 279.037 15.196C279.551 15.644 279.807 16.288 279.807 17.128V20.572H280.535V22H279.541ZM276.573 20.866C276.975 20.866 277.315 20.7773 277.595 20.6C277.875 20.4227 278.015 20.1613 278.015 19.816V18.85H276.867C275.934 18.85 275.467 19.1487 275.467 19.746V19.984C275.467 20.2827 275.561 20.5067 275.747 20.656C275.943 20.796 276.219 20.866 276.573 20.866ZM284.373 22C283.757 22 283.286 21.8413 282.959 21.524C282.642 21.1973 282.483 20.7353 282.483 20.138V16.12H281.405V14.692H281.965C282.236 14.692 282.418 14.6313 282.511 14.51C282.614 14.3793 282.665 14.188 282.665 13.936V12.69H284.275V14.692H285.773V16.12H284.275V20.572H285.661V22H284.373ZM288.383 13.628C288.01 13.628 287.739 13.544 287.571 13.376C287.413 13.208 287.333 12.9933 287.333 12.732V12.452C287.333 12.1907 287.413 11.976 287.571 11.808C287.739 11.64 288.01 11.556 288.383 11.556C288.747 11.556 289.013 11.64 289.181 11.808C289.349 11.976 289.433 12.1907 289.433 12.452V12.732C289.433 12.9933 289.349 13.208 289.181 13.376C289.013 13.544 288.747 13.628 288.383 13.628ZM287.487 14.692H289.279V22H287.487V14.692ZM294.414 22.168C293.892 22.168 293.42 22.0793 293 21.902C292.59 21.7247 292.235 21.468 291.936 21.132C291.647 20.796 291.423 20.3947 291.264 19.928C291.106 19.452 291.026 18.92 291.026 18.332C291.026 17.744 291.106 17.2167 291.264 16.75C291.423 16.2833 291.647 15.8867 291.936 15.56C292.235 15.224 292.59 14.9673 293 14.79C293.42 14.6127 293.892 14.524 294.414 14.524C294.937 14.524 295.408 14.6127 295.828 14.79C296.248 14.9673 296.603 15.224 296.892 15.56C297.191 15.8867 297.42 16.2833 297.578 16.75C297.737 17.2167 297.816 17.744 297.816 18.332C297.816 18.92 297.737 19.452 297.578 19.928C297.42 20.3947 297.191 20.796 296.892 21.132C296.603 21.468 296.248 21.7247 295.828 21.902C295.408 22.0793 294.937 22.168 294.414 22.168ZM294.414 20.726C294.89 20.726 295.264 20.5813 295.534 20.292C295.805 20.0027 295.94 19.578 295.94 19.018V17.66C295.94 17.1093 295.805 16.6893 295.534 16.4C295.264 16.1107 294.89 15.966 294.414 15.966C293.948 15.966 293.579 16.1107 293.308 16.4C293.038 16.6893 292.902 17.1093 292.902 17.66V19.018C292.902 19.578 293.038 20.0027 293.308 20.292C293.579 20.5813 293.948 20.726 294.414 20.726ZM299.565 22V14.692H301.357V15.91H301.427C301.576 15.518 301.81 15.1913 302.127 14.93C302.454 14.6593 302.902 14.524 303.471 14.524C304.227 14.524 304.806 14.7713 305.207 15.266C305.608 15.7607 305.809 16.4653 305.809 17.38V22H304.017V17.562C304.017 17.0393 303.924 16.6473 303.737 16.386C303.55 16.1247 303.242 15.994 302.813 15.994C302.626 15.994 302.444 16.022 302.267 16.078C302.099 16.1247 301.945 16.1993 301.805 16.302C301.674 16.3953 301.567 16.5167 301.483 16.666C301.399 16.806 301.357 16.974 301.357 17.17V22H299.565Z"/><path fill="#121619" d="M14.148 12.228H18.67C19.0713 12.228 19.4307 12.2887 19.748 12.41C20.0747 12.5313 20.35 12.6993 20.574 12.914C20.798 13.1287 20.966 13.3947 21.078 13.712C21.1993 14.02 21.26 14.3607 21.26 14.734C21.26 15.1073 21.2087 15.4247 21.106 15.686C21.0127 15.938 20.882 16.148 20.714 16.316C20.5553 16.484 20.3687 16.61 20.154 16.694C19.9487 16.778 19.734 16.8247 19.51 16.834V16.918C19.7247 16.918 19.9533 16.96 20.196 17.044C20.448 17.128 20.6767 17.2633 20.882 17.45C21.0967 17.6273 21.274 17.8607 21.414 18.15C21.554 18.43 21.624 18.78 21.624 19.2C21.624 19.592 21.5587 19.9607 21.428 20.306C21.3067 20.642 21.134 20.936 20.91 21.188C20.686 21.44 20.42 21.6407 20.112 21.79C19.804 21.93 19.468 22 19.104 22H14.148V12.228ZM15.996 20.432H18.572C18.9267 20.432 19.202 20.3433 19.398 20.166C19.594 19.9793 19.692 19.7133 19.692 19.368V18.892C19.692 18.5467 19.594 18.2807 19.398 18.094C19.202 17.9073 18.9267 17.814 18.572 17.814H15.996V20.432ZM15.996 16.302H18.278C18.614 16.302 18.8753 16.2133 19.062 16.036C19.2487 15.8493 19.342 15.5927 19.342 15.266V14.832C19.342 14.5053 19.2487 14.2533 19.062 14.076C18.8753 13.8893 18.614 13.796 18.278 13.796H15.996V16.302ZM26.4332 22.168C25.8919 22.168 25.4065 22.0793 24.9772 21.902C24.5572 21.7153 24.1979 21.4587 23.8992 21.132C23.6099 20.796 23.3859 20.3947 23.2272 19.928C23.0685 19.452 22.9892 18.92 22.9892 18.332C22.9892 17.7533 23.0639 17.2307 23.2132 16.764C23.3719 16.2973 23.5959 15.9007 23.8852 15.574C24.1745 15.238 24.5292 14.9813 24.9492 14.804C25.3692 14.6173 25.8452 14.524 26.3772 14.524C26.9465 14.524 27.4412 14.622 27.8612 14.818C28.2812 15.014 28.6265 15.28 28.8972 15.616C29.1679 15.952 29.3685 16.344 29.4992 16.792C29.6392 17.2307 29.7092 17.702 29.7092 18.206V18.794H24.8512V18.976C24.8512 19.508 25.0005 19.9373 25.2992 20.264C25.5979 20.5813 26.0412 20.74 26.6292 20.74C27.0772 20.74 27.4412 20.6467 27.7212 20.46C28.0105 20.2733 28.2672 20.0353 28.4912 19.746L29.4572 20.824C29.1585 21.244 28.7479 21.5753 28.2252 21.818C27.7119 22.0513 27.1145 22.168 26.4332 22.168ZM26.4052 15.868C25.9292 15.868 25.5512 16.0267 25.2712 16.344C24.9912 16.6613 24.8512 17.072 24.8512 17.576V17.688H27.8472V17.562C27.8472 17.058 27.7212 16.652 27.4692 16.344C27.2265 16.0267 26.8719 15.868 26.4052 15.868ZM31.8098 16.106H30.7318V14.692H31.8098V13.642C31.8098 12.998 31.9778 12.5033 32.3138 12.158C32.6592 11.8127 33.1632 11.64 33.8258 11.64H35.0998V13.068H33.6018V14.692H35.0998V16.106H33.6018V22H31.8098V16.106ZM39.3437 22.168C38.821 22.168 38.3497 22.0793 37.9297 21.902C37.519 21.7247 37.1644 21.468 36.8657 21.132C36.5764 20.796 36.3524 20.3947 36.1937 19.928C36.035 19.452 35.9557 18.92 35.9557 18.332C35.9557 17.744 36.035 17.2167 36.1937 16.75C36.3524 16.2833 36.5764 15.8867 36.8657 15.56C37.1644 15.224 37.519 14.9673 37.9297 14.79C38.3497 14.6127 38.821 14.524 39.3437 14.524C39.8664 14.524 40.3377 14.6127 40.7577 14.79C41.1777 14.9673 41.5324 15.224 41.8217 15.56C42.1204 15.8867 42.349 16.2833 42.5077 16.75C42.6664 17.2167 42.7457 17.744 42.7457 18.332C42.7457 18.92 42.6664 19.452 42.5077 19.928C42.349 20.3947 42.1204 20.796 41.8217 21.132C41.5324 21.468 41.1777 21.7247 40.7577 21.902C40.3377 22.0793 39.8664 22.168 39.3437 22.168ZM39.3437 20.726C39.8197 20.726 40.193 20.5813 40.4637 20.292C40.7344 20.0027 40.8697 19.578 40.8697 19.018V17.66C40.8697 17.1093 40.7344 16.6893 40.4637 16.4C40.193 16.1107 39.8197 15.966 39.3437 15.966C38.877 15.966 38.5084 16.1107 38.2377 16.4C37.967 16.6893 37.8317 17.1093 37.8317 17.66V19.018C37.8317 19.578 37.967 20.0027 38.2377 20.292C38.5084 20.5813 38.877 20.726 39.3437 20.726ZM44.4944 22V14.692H46.2864V16.204H46.3564C46.403 16.008 46.473 15.8213 46.5664 15.644C46.669 15.4573 46.7997 15.294 46.9584 15.154C47.117 15.014 47.3037 14.902 47.5184 14.818C47.7424 14.734 47.999 14.692 48.2884 14.692H48.6804V16.386H48.1204C47.5137 16.386 47.0564 16.4747 46.7484 16.652C46.4404 16.8293 46.2864 17.1187 46.2864 17.52V22H44.4944ZM53.0361 22.168C52.4948 22.168 52.0094 22.0793 51.5801 21.902C51.1601 21.7153 50.8008 21.4587 50.5021 21.132C50.2128 20.796 49.9888 20.3947 49.8301 19.928C49.6714 19.452 49.5921 18.92 49.5921 18.332C49.5921 17.7533 49.6668 17.2307 49.8161 16.764C49.9748 16.2973 50.1988 15.9007 50.4881 15.574C50.7774 15.238 51.1321 14.9813 51.5521 14.804C51.9721 14.6173 52.4481 14.524 52.9801 14.524C53.5494 14.524 54.0441 14.622 54.4641 14.818C54.8841 15.014 55.2294 15.28 55.5001 15.616C55.7708 15.952 55.9714 16.344 56.1021 16.792C56.2421 17.2307 56.3121 17.702 56.3121 18.206V18.794H51.4541V18.976C51.4541 19.508 51.6034 19.9373 51.9021 20.264C52.2008 20.5813 52.6441 20.74 53.2321 20.74C53.6801 20.74 54.0441 20.6467 54.3241 20.46C54.6134 20.2733 54.8701 20.0353 55.0941 19.746L56.0601 20.824C55.7614 21.244 55.3508 21.5753 54.8281 21.818C54.3148 22.0513 53.7174 22.168 53.0361 22.168ZM53.0081 15.868C52.5321 15.868 52.1541 16.0267 51.8741 16.344C51.5941 16.6613 51.4541 17.072 51.4541 17.576V17.688H54.4501V17.562C54.4501 17.058 54.3241 16.652 54.0721 16.344C53.8294 16.0267 53.4748 15.868 53.0081 15.868ZM64.4153 22.168C63.8927 22.168 63.4213 22.0793 63.0013 21.902C62.5907 21.7247 62.236 21.468 61.9373 21.132C61.648 20.796 61.424 20.3947 61.2653 19.928C61.1067 19.452 61.0273 18.92 61.0273 18.332C61.0273 17.744 61.1067 17.2167 61.2653 16.75C61.424 16.2833 61.648 15.8867 61.9373 15.56C62.236 15.224 62.5907 14.9673 63.0013 14.79C63.4213 14.6127 63.8927 14.524 64.4153 14.524C64.938 14.524 65.4093 14.6127 65.8293 14.79C66.2493 14.9673 66.604 15.224 66.8933 15.56C67.192 15.8867 67.4207 16.2833 67.5793 16.75C67.738 17.2167 67.8173 17.744 67.8173 18.332C67.8173 18.92 67.738 19.452 67.5793 19.928C67.4207 20.3947 67.192 20.796 66.8933 21.132C66.604 21.468 66.2493 21.7247 65.8293 21.902C65.4093 22.0793 64.938 22.168 64.4153 22.168ZM64.4153 20.726C64.8913 20.726 65.2647 20.5813 65.5353 20.292C65.806 20.0027 65.9413 19.578 65.9413 19.018V17.66C65.9413 17.1093 65.806 16.6893 65.5353 16.4C65.2647 16.1107 64.8913 15.966 64.4153 15.966C63.9487 15.966 63.58 16.1107 63.3093 16.4C63.0387 16.6893 62.9033 17.1093 62.9033 17.66V19.018C62.9033 19.578 63.0387 20.0027 63.3093 20.292C63.58 20.5813 63.9487 20.726 64.4153 20.726ZM69.566 14.692H71.358V15.896H71.414C71.5447 15.476 71.792 15.1447 72.156 14.902C72.52 14.65 72.9447 14.524 73.43 14.524C74.3633 14.524 75.0727 14.8553 75.558 15.518C76.0527 16.1713 76.3 17.1093 76.3 18.332C76.3 19.564 76.0527 20.5113 75.558 21.174C75.0727 21.8367 74.3633 22.168 73.43 22.168C72.9447 22.168 72.52 22.042 72.156 21.79C71.8013 21.538 71.554 21.202 71.414 20.782H71.358V24.8H69.566V14.692ZM72.856 20.684C73.3227 20.684 73.7007 20.53 73.99 20.222C74.2793 19.914 74.424 19.4987 74.424 18.976V17.716C74.424 17.1933 74.2793 16.778 73.99 16.47C73.7007 16.1527 73.3227 15.994 72.856 15.994C72.4267 15.994 72.0673 16.1013 71.778 16.316C71.498 16.5307 71.358 16.8153 71.358 17.17V19.494C71.358 19.8767 71.498 20.1707 71.778 20.376C72.0673 20.5813 72.4267 20.684 72.856 20.684ZM81.0745 22.168C80.5332 22.168 80.0479 22.0793 79.6185 21.902C79.1985 21.7153 78.8392 21.4587 78.5405 21.132C78.2512 20.796 78.0272 20.3947 77.8685 19.928C77.7099 19.452 77.6305 18.92 77.6305 18.332C77.6305 17.7533 77.7052 17.2307 77.8545 16.764C78.0132 16.2973 78.2372 15.9007 78.5265 15.574C78.8159 15.238 79.1705 14.9813 79.5905 14.804C80.0105 14.6173 80.4865 14.524 81.0185 14.524C81.5879 14.524 82.0825 14.622 82.5025 14.818C82.9225 15.014 83.2679 15.28 83.5385 15.616C83.8092 15.952 84.0099 16.344 84.1405 16.792C84.2805 17.2307 84.3505 17.702 84.3505 18.206V18.794H79.4925V18.976C79.4925 19.508 79.6419 19.9373 79.9405 20.264C80.2392 20.5813 80.6825 20.74 81.2705 20.74C81.7185 20.74 82.0825 20.6467 82.3625 20.46C82.6519 20.2733 82.9085 20.0353 83.1325 19.746L84.0985 20.824C83.7999 21.244 83.3892 21.5753 82.8665 21.818C82.3532 22.0513 81.7559 22.168 81.0745 22.168ZM81.0465 15.868C80.5705 15.868 80.1925 16.0267 79.9125 16.344C79.6325 16.6613 79.4925 17.072 79.4925 17.576V17.688H82.4885V17.562C82.4885 17.058 82.3625 16.652 82.1105 16.344C81.8679 16.0267 81.5132 15.868 81.0465 15.868ZM86.0872 22V14.692H87.8792V16.204H87.9492C87.9958 16.008 88.0658 15.8213 88.1592 15.644C88.2618 15.4573 88.3925 15.294 88.5512 15.154C88.7098 15.014 88.8965 14.902 89.1112 14.818C89.3352 14.734 89.5918 14.692 89.8812 14.692H90.2732V16.386H89.7132C89.1065 16.386 88.6492 16.4747 88.3412 16.652C88.0332 16.8293 87.8792 17.1187 87.8792 17.52V22H86.0872ZM96.9689 22C96.5769 22 96.2642 21.888 96.0309 21.664C95.8069 21.4307 95.6669 21.1227 95.6109 20.74H95.5269C95.4055 21.216 95.1582 21.5753 94.7849 21.818C94.4115 22.0513 93.9495 22.168 93.3989 22.168C92.6522 22.168 92.0782 21.972 91.6769 21.58C91.2755 21.188 91.0749 20.6653 91.0749 20.012C91.0749 19.256 91.3455 18.696 91.8869 18.332C92.4282 17.9587 93.1982 17.772 94.1969 17.772H95.4429V17.24C95.4429 16.8293 95.3355 16.512 95.1209 16.288C94.9062 16.064 94.5609 15.952 94.0849 15.952C93.6649 15.952 93.3242 16.0453 93.0629 16.232C92.8109 16.4093 92.5962 16.624 92.4189 16.876L91.3549 15.924C91.6255 15.504 91.9849 15.168 92.4329 14.916C92.8809 14.6547 93.4735 14.524 94.2109 14.524C95.2002 14.524 95.9515 14.748 96.4649 15.196C96.9782 15.644 97.2349 16.288 97.2349 17.128V20.572H97.9629V22H96.9689ZM94.0009 20.866C94.4022 20.866 94.7429 20.7773 95.0229 20.6C95.3029 20.4227 95.4429 20.1613 95.4429 19.816V18.85H94.2949C93.3615 18.85 92.8949 19.1487 92.8949 19.746V19.984C92.8949 20.2827 92.9882 20.5067 93.1749 20.656C93.3709 20.796 93.6462 20.866 94.0009 20.866ZM101.8 22C101.184 22 100.713 21.8413 100.386 21.524C100.069 21.1973 99.9105 20.7353 99.9105 20.138V16.12H98.8325V14.692H99.3925C99.6632 14.692 99.8452 14.6313 99.9385 14.51C100.041 14.3793 100.092 14.188 100.092 13.936V12.69H101.702V14.692H103.2V16.12H101.702V20.572H103.088V22H101.8ZM105.811 13.628C105.437 13.628 105.167 13.544 104.999 13.376C104.84 13.208 104.761 12.9933 104.761 12.732V12.452C104.761 12.1907 104.84 11.976 104.999 11.808C105.167 11.64 105.437 11.556 105.811 11.556C106.175 11.556 106.441 11.64 106.609 11.808C106.777 11.976 106.861 12.1907 106.861 12.452V12.732C106.861 12.9933 106.777 13.208 106.609 13.376C106.441 13.544 106.175 13.628 105.811 13.628ZM104.915 14.692H106.707V22H104.915V14.692ZM111.842 22.168C111.319 22.168 110.848 22.0793 110.428 21.902C110.017 21.7247 109.663 21.468 109.364 21.132C109.075 20.796 108.851 20.3947 108.692 19.928C108.533 19.452 108.454 18.92 108.454 18.332C108.454 17.744 108.533 17.2167 108.692 16.75C108.851 16.2833 109.075 15.8867 109.364 15.56C109.663 15.224 110.017 14.9673 110.428 14.79C110.848 14.6127 111.319 14.524 111.842 14.524C112.365 14.524 112.836 14.6127 113.256 14.79C113.676 14.9673 114.031 15.224 114.32 15.56C114.619 15.8867 114.847 16.2833 115.006 16.75C115.165 17.2167 115.244 17.744 115.244 18.332C115.244 18.92 115.165 19.452 115.006 19.928C114.847 20.3947 114.619 20.796 114.32 21.132C114.031 21.468 113.676 21.7247 113.256 21.902C112.836 22.0793 112.365 22.168 111.842 22.168ZM111.842 20.726C112.318 20.726 112.691 20.5813 112.962 20.292C113.233 20.0027 113.368 19.578 113.368 19.018V17.66C113.368 17.1093 113.233 16.6893 112.962 16.4C112.691 16.1107 112.318 15.966 111.842 15.966C111.375 15.966 111.007 16.1107 110.736 16.4C110.465 16.6893 110.33 17.1093 110.33 17.66V19.018C110.33 19.578 110.465 20.0027 110.736 20.292C111.007 20.5813 111.375 20.726 111.842 20.726ZM116.993 22V14.692H118.785V15.91H118.855C119.004 15.518 119.237 15.1913 119.555 14.93C119.881 14.6593 120.329 14.524 120.899 14.524C121.655 14.524 122.233 14.7713 122.635 15.266C123.036 15.7607 123.237 16.4653 123.237 17.38V22H121.445V17.562C121.445 17.0393 121.351 16.6473 121.165 16.386C120.978 16.1247 120.67 15.994 120.241 15.994C120.054 15.994 119.872 16.022 119.695 16.078C119.527 16.1247 119.373 16.1993 119.233 16.302C119.102 16.3953 118.995 16.5167 118.911 16.666C118.827 16.806 118.785 16.974 118.785 17.17V22H116.993Z"/><line x1="192.5" x2="192.5" y2="232" stroke="#DDE1E6"/><path stroke="#343A3F" d="M113 49H126C127.657 49 129 50.3431 129 52V206C129 207.657 127.657 209 126 209H115.5"/><path stroke="#343A3F" d="M81 49H68C66.3431 49 65 50.3431 65 52V206C65 207.657 66.3431 209 68 209H78.5"/><path fill="#000" d="M85.488 75C84.944 75 84.536 74.864 84.264 74.592C84.008 74.32 83.88 73.96 83.88 73.512C83.88 73.32 83.904 73.104 83.952 72.864L84.072 72.312H84C83.488 73.352 82.92 74.112 82.296 74.592C81.672 75.056 80.904 75.288 79.992 75.288C78.856 75.288 77.944 74.872 77.256 74.04C76.568 73.192 76.224 72.032 76.224 70.56C76.224 69.648 76.344 68.712 76.584 67.752C76.84 66.776 77.216 65.888 77.712 65.088C78.208 64.272 78.832 63.608 79.584 63.096C80.352 62.584 81.248 62.328 82.272 62.328C82.64 62.328 83 62.376 83.352 62.472C83.704 62.568 84.024 62.712 84.312 62.904C84.6 63.096 84.848 63.336 85.056 63.624C85.264 63.912 85.416 64.248 85.512 64.632H85.608L86.016 62.616H87.864L85.704 73.368H87.456L87.144 75H85.488ZM80.472 73.608C81.016 73.608 81.496 73.504 81.912 73.296C82.328 73.072 82.72 72.768 83.088 72.384C83.504 71.968 83.832 71.52 84.072 71.04C84.328 70.56 84.52 70.016 84.648 69.408L85.152 66.888C85.232 66.504 85.24 66.144 85.176 65.808C85.112 65.456 84.968 65.152 84.744 64.896C84.52 64.624 84.216 64.408 83.832 64.248C83.448 64.088 82.984 64.008 82.44 64.008C81.432 64.008 80.6 64.336 79.944 64.992C79.288 65.648 78.84 66.576 78.6 67.776L78.24 69.576C78.16 70.024 78.12 70.432 78.12 70.8C78.12 71.648 78.32 72.328 78.72 72.84C79.12 73.352 79.704 73.608 80.472 73.608Z"/><path fill="#000" d="M97.2 85.288C95.2 85.288 93.736 84.528 92.808 83.008C91.896 81.488 91.44 79.36 91.44 76.624C91.44 73.888 91.896 71.76 92.808 70.24C93.736 68.72 95.2 67.96 97.2 67.96C99.2 67.96 100.656 68.72 101.568 70.24C102.496 71.76 102.96 73.888 102.96 76.624C102.96 79.36 102.496 81.488 101.568 83.008C100.656 84.528 99.2 85.288 97.2 85.288ZM97.2 83.536C97.856 83.536 98.416 83.4 98.88 83.128C99.344 82.856 99.72 82.472 100.008 81.976C100.296 81.48 100.504 80.896 100.632 80.224C100.776 79.552 100.848 78.808 100.848 77.992V75.256C100.848 74.44 100.776 73.696 100.632 73.024C100.504 72.352 100.296 71.768 100.008 71.272C99.72 70.776 99.344 70.392 98.88 70.12C98.416 69.848 97.856 69.712 97.2 69.712C96.544 69.712 95.984 69.848 95.52 70.12C95.056 70.392 94.68 70.776 94.392 71.272C94.104 71.768 93.888 72.352 93.744 73.024C93.616 73.696 93.552 74.44 93.552 75.256V77.992C93.552 78.808 93.616 79.552 93.744 80.224C93.888 80.896 94.104 81.48 94.392 81.976C94.68 82.472 95.056 82.856 95.52 83.128C95.984 83.4 96.544 83.536 97.2 83.536ZM111.751 85.288C109.751 85.288 108.287 84.528 107.359 83.008C106.447 81.488 105.991 79.36 105.991 76.624C105.991 73.888 106.447 71.76 107.359 70.24C108.287 68.72 109.751 67.96 111.751 67.96C113.751 67.96 115.207 68.72 116.119 70.24C117.047 71.76 117.511 73.888 117.511 76.624C117.511 79.36 117.047 81.488 116.119 83.008C115.207 84.528 113.751 85.288 111.751 85.288ZM111.751 83.536C112.407 83.536 112.967 83.4 113.431 83.128C113.895 82.856 114.271 82.472 114.559 81.976C114.847 81.48 115.055 80.896 115.183 80.224C115.327 79.552 115.399 78.808 115.399 77.992V75.256C115.399 74.44 115.327 73.696 115.183 73.024C115.055 72.352 114.847 71.768 114.559 71.272C114.271 70.776 113.895 70.392 113.431 70.12C112.967 69.848 112.407 69.712 111.751 69.712C111.095 69.712 110.535 69.848 110.071 70.12C109.607 70.392 109.231 70.776 108.943 71.272C108.655 71.768 108.439 72.352 108.295 73.024C108.167 73.696 108.103 74.44 108.103 75.256V77.992C108.103 78.808 108.167 79.552 108.295 80.224C108.439 80.896 108.655 81.48 108.943 81.976C109.231 82.472 109.607 82.856 110.071 83.128C110.535 83.4 111.095 83.536 111.751 83.536Z"/><path fill="#000" d="M85.488 111C84.944 111 84.536 110.864 84.264 110.592C84.008 110.32 83.88 109.96 83.88 109.512C83.88 109.32 83.904 109.104 83.952 108.864L84.072 108.312H84C83.488 109.352 82.92 110.112 82.296 110.592C81.672 111.056 80.904 111.288 79.992 111.288C78.856 111.288 77.944 110.872 77.256 110.04C76.568 109.192 76.224 108.032 76.224 106.56C76.224 105.648 76.344 104.712 76.584 103.752C76.84 102.776 77.216 101.888 77.712 101.088C78.208 100.272 78.832 99.608 79.584 99.096C80.352 98.584 81.248 98.328 82.272 98.328C82.64 98.328 83 98.376 83.352 98.472C83.704 98.568 84.024 98.712 84.312 98.904C84.6 99.096 84.848 99.336 85.056 99.624C85.264 99.912 85.416 100.248 85.512 100.632H85.608L86.016 98.616H87.864L85.704 109.368H87.456L87.144 111H85.488ZM80.472 109.608C81.016 109.608 81.496 109.504 81.912 109.296C82.328 109.072 82.72 108.768 83.088 108.384C83.504 107.968 83.832 107.52 84.072 107.04C84.328 106.56 84.52 106.016 84.648 105.408L85.152 102.888C85.232 102.504 85.24 102.144 85.176 101.808C85.112 101.456 84.968 101.152 84.744 100.896C84.52 100.624 84.216 100.408 83.832 100.248C83.448 100.088 82.984 100.008 82.44 100.008C81.432 100.008 80.6 100.336 79.944 100.992C79.288 101.648 78.84 102.576 78.6 103.776L78.24 105.576C78.16 106.024 78.12 106.432 78.12 106.8C78.12 107.648 78.32 108.328 78.72 108.84C79.12 109.352 79.704 109.608 80.472 109.608Z"/><path fill="#000" d="M97.2 121.288C95.2 121.288 93.736 120.528 92.808 119.008C91.896 117.488 91.44 115.36 91.44 112.624C91.44 109.888 91.896 107.76 92.808 106.24C93.736 104.72 95.2 103.96 97.2 103.96C99.2 103.96 100.656 104.72 101.568 106.24C102.496 107.76 102.96 109.888 102.96 112.624C102.96 115.36 102.496 117.488 101.568 119.008C100.656 120.528 99.2 121.288 97.2 121.288ZM97.2 119.536C97.856 119.536 98.416 119.4 98.88 119.128C99.344 118.856 99.72 118.472 100.008 117.976C100.296 117.48 100.504 116.896 100.632 116.224C100.776 115.552 100.848 114.808 100.848 113.992V111.256C100.848 110.44 100.776 109.696 100.632 109.024C100.504 108.352 100.296 107.768 100.008 107.272C99.72 106.776 99.344 106.392 98.88 106.12C98.416 105.848 97.856 105.712 97.2 105.712C96.544 105.712 95.984 105.848 95.52 106.12C95.056 106.392 94.68 106.776 94.392 107.272C94.104 107.768 93.888 108.352 93.744 109.024C93.616 109.696 93.552 110.44 93.552 111.256V113.992C93.552 114.808 93.616 115.552 93.744 116.224C93.888 116.896 94.104 117.48 94.392 117.976C94.68 118.472 95.056 118.856 95.52 119.128C95.984 119.4 96.544 119.536 97.2 119.536ZM106.663 121V119.224H111.343V105.736H111.175L106.951 109.672L105.775 108.4L110.215 104.248H113.359V119.224H117.679V121H106.663Z"/><path fill="#000" d="M85.488 147C84.944 147 84.536 146.864 84.264 146.592C84.008 146.32 83.88 145.96 83.88 145.512C83.88 145.32 83.904 145.104 83.952 144.864L84.072 144.312H84C83.488 145.352 82.92 146.112 82.296 146.592C81.672 147.056 80.904 147.288 79.992 147.288C78.856 147.288 77.944 146.872 77.256 146.04C76.568 145.192 76.224 144.032 76.224 142.56C76.224 141.648 76.344 140.712 76.584 139.752C76.84 138.776 77.216 137.888 77.712 137.088C78.208 136.272 78.832 135.608 79.584 135.096C80.352 134.584 81.248 134.328 82.272 134.328C82.64 134.328 83 134.376 83.352 134.472C83.704 134.568 84.024 134.712 84.312 134.904C84.6 135.096 84.848 135.336 85.056 135.624C85.264 135.912 85.416 136.248 85.512 136.632H85.608L86.016 134.616H87.864L85.704 145.368H87.456L87.144 147H85.488ZM80.472 145.608C81.016 145.608 81.496 145.504 81.912 145.296C82.328 145.072 82.72 144.768 83.088 144.384C83.504 143.968 83.832 143.52 84.072 143.04C84.328 142.56 84.52 142.016 84.648 141.408L85.152 138.888C85.232 138.504 85.24 138.144 85.176 137.808C85.112 137.456 84.968 137.152 84.744 136.896C84.52 136.624 84.216 136.408 83.832 136.248C83.448 136.088 82.984 136.008 82.44 136.008C81.432 136.008 80.6 136.336 79.944 136.992C79.288 137.648 78.84 138.576 78.6 139.776L78.24 141.576C78.16 142.024 78.12 142.432 78.12 142.8C78.12 143.648 78.32 144.328 78.72 144.84C79.12 145.352 79.704 145.608 80.472 145.608Z"/><path fill="#000" d="M92.112 157V155.224H96.792V141.736H96.624L92.4 145.672L91.224 144.4L95.664 140.248H98.808V155.224H103.128V157H92.112ZM111.751 157.288C109.751 157.288 108.287 156.528 107.359 155.008C106.447 153.488 105.991 151.36 105.991 148.624C105.991 145.888 106.447 143.76 107.359 142.24C108.287 140.72 109.751 139.96 111.751 139.96C113.751 139.96 115.207 140.72 116.119 142.24C117.047 143.76 117.511 145.888 117.511 148.624C117.511 151.36 117.047 153.488 116.119 155.008C115.207 156.528 113.751 157.288 111.751 157.288ZM111.751 155.536C112.407 155.536 112.967 155.4 113.431 155.128C113.895 154.856 114.271 154.472 114.559 153.976C114.847 153.48 115.055 152.896 115.183 152.224C115.327 151.552 115.399 150.808 115.399 149.992V147.256C115.399 146.44 115.327 145.696 115.183 145.024C115.055 144.352 114.847 143.768 114.559 143.272C114.271 142.776 113.895 142.392 113.431 142.12C112.967 141.848 112.407 141.712 111.751 141.712C111.095 141.712 110.535 141.848 110.071 142.12C109.607 142.392 109.231 142.776 108.943 143.272C108.655 143.768 108.439 144.352 108.295 145.024C108.167 145.696 108.103 146.44 108.103 147.256V149.992C108.103 150.808 108.167 151.552 108.295 152.224C108.439 152.896 108.655 153.48 108.943 153.976C109.231 154.472 109.607 154.856 110.071 155.128C110.535 155.4 111.095 155.536 111.751 155.536Z"/><path fill="#000" d="M85.488 183C84.944 183 84.536 182.864 84.264 182.592C84.008 182.32 83.88 181.96 83.88 181.512C83.88 181.32 83.904 181.104 83.952 180.864L84.072 180.312H84C83.488 181.352 82.92 182.112 82.296 182.592C81.672 183.056 80.904 183.288 79.992 183.288C78.856 183.288 77.944 182.872 77.256 182.04C76.568 181.192 76.224 180.032 76.224 178.56C76.224 177.648 76.344 176.712 76.584 175.752C76.84 174.776 77.216 173.888 77.712 173.088C78.208 172.272 78.832 171.608 79.584 171.096C80.352 170.584 81.248 170.328 82.272 170.328C82.64 170.328 83 170.376 83.352 170.472C83.704 170.568 84.024 170.712 84.312 170.904C84.6 171.096 84.848 171.336 85.056 171.624C85.264 171.912 85.416 172.248 85.512 172.632H85.608L86.016 170.616H87.864L85.704 181.368H87.456L87.144 183H85.488ZM80.472 181.608C81.016 181.608 81.496 181.504 81.912 181.296C82.328 181.072 82.72 180.768 83.088 180.384C83.504 179.968 83.832 179.52 84.072 179.04C84.328 178.56 84.52 178.016 84.648 177.408L85.152 174.888C85.232 174.504 85.24 174.144 85.176 173.808C85.112 173.456 84.968 173.152 84.744 172.896C84.52 172.624 84.216 172.408 83.832 172.248C83.448 172.088 82.984 172.008 82.44 172.008C81.432 172.008 80.6 172.336 79.944 172.992C79.288 173.648 78.84 174.576 78.6 175.776L78.24 177.576C78.16 178.024 78.12 178.432 78.12 178.8C78.12 179.648 78.32 180.328 78.72 180.84C79.12 181.352 79.704 181.608 80.472 181.608Z"/><path fill="#000" d="M92.112 193V191.224H96.792V177.736H96.624L92.4 181.672L91.224 180.4L95.664 176.248H98.808V191.224H103.128V193H92.112ZM106.663 193V191.224H111.343V177.736H111.175L106.951 181.672L105.775 180.4L110.215 176.248H113.359V191.224H117.679V193H106.663Z"/><path stroke="#343A3F" d="M304 49H317C318.657 49 320 50.3431 320 52V206C320 207.657 318.657 209 317 209H306.5"/><path stroke="#343A3F" d="M272 49H259C257.343 49 256 50.3431 256 52V206C256 207.657 257.343 209 259 209H269.5"/><path fill="#000" d="M270.44 57.24H272.288L270.656 65.304H270.728C271.24 64.264 271.808 63.512 272.432 63.048C273.056 62.568 273.824 62.328 274.736 62.328C275.872 62.328 276.784 62.752 277.472 63.6C278.16 64.432 278.504 65.584 278.504 67.056C278.504 67.968 278.376 68.912 278.12 69.888C277.88 70.848 277.512 71.736 277.016 72.552C276.52 73.352 275.888 74.008 275.12 74.52C274.368 75.032 273.48 75.288 272.456 75.288C272.088 75.288 271.728 75.24 271.376 75.144C271.024 75.048 270.704 74.904 270.416 74.712C270.128 74.52 269.88 74.28 269.672 73.992C269.464 73.704 269.312 73.368 269.216 72.984H269.12L268.712 75H266.864L270.44 57.24ZM272.288 73.608C273.296 73.608 274.128 73.28 274.784 72.624C275.44 71.968 275.888 71.04 276.128 69.84L276.488 68.04C276.568 67.592 276.608 67.184 276.608 66.816C276.608 66 276.416 65.328 276.032 64.8C275.664 64.272 275.064 64.008 274.232 64.008C273.688 64.008 273.208 64.12 272.792 64.344C272.392 64.568 272.008 64.864 271.64 65.232C271.24 65.632 270.912 66.072 270.656 66.552C270.4 67.032 270.208 67.584 270.08 68.208L269.576 70.728C269.496 71.112 269.488 71.48 269.552 71.832C269.616 72.184 269.76 72.496 269.984 72.768C270.208 73.024 270.504 73.232 270.872 73.392C271.256 73.536 271.728 73.608 272.288 73.608Z"/><path fill="#000" d="M288.2 85.288C286.2 85.288 284.736 84.528 283.808 83.008C282.896 81.488 282.44 79.36 282.44 76.624C282.44 73.888 282.896 71.76 283.808 70.24C284.736 68.72 286.2 67.96 288.2 67.96C290.2 67.96 291.656 68.72 292.568 70.24C293.496 71.76 293.96 73.888 293.96 76.624C293.96 79.36 293.496 81.488 292.568 83.008C291.656 84.528 290.2 85.288 288.2 85.288ZM288.2 83.536C288.856 83.536 289.416 83.4 289.88 83.128C290.344 82.856 290.72 82.472 291.008 81.976C291.296 81.48 291.504 80.896 291.632 80.224C291.776 79.552 291.848 78.808 291.848 77.992V75.256C291.848 74.44 291.776 73.696 291.632 73.024C291.504 72.352 291.296 71.768 291.008 71.272C290.72 70.776 290.344 70.392 289.88 70.12C289.416 69.848 288.856 69.712 288.2 69.712C287.544 69.712 286.984 69.848 286.52 70.12C286.056 70.392 285.68 70.776 285.392 71.272C285.104 71.768 284.888 72.352 284.744 73.024C284.616 73.696 284.552 74.44 284.552 75.256V77.992C284.552 78.808 284.616 79.552 284.744 80.224C284.888 80.896 285.104 81.48 285.392 81.976C285.68 82.472 286.056 82.856 286.52 83.128C286.984 83.4 287.544 83.536 288.2 83.536ZM302.751 85.288C300.751 85.288 299.287 84.528 298.359 83.008C297.447 81.488 296.991 79.36 296.991 76.624C296.991 73.888 297.447 71.76 298.359 70.24C299.287 68.72 300.751 67.96 302.751 67.96C304.751 67.96 306.207 68.72 307.119 70.24C308.047 71.76 308.511 73.888 308.511 76.624C308.511 79.36 308.047 81.488 307.119 83.008C306.207 84.528 304.751 85.288 302.751 85.288ZM302.751 83.536C303.407 83.536 303.967 83.4 304.431 83.128C304.895 82.856 305.271 82.472 305.559 81.976C305.847 81.48 306.055 80.896 306.183 80.224C306.327 79.552 306.399 78.808 306.399 77.992V75.256C306.399 74.44 306.327 73.696 306.183 73.024C306.055 72.352 305.847 71.768 305.559 71.272C305.271 70.776 304.895 70.392 304.431 70.12C303.967 69.848 303.407 69.712 302.751 69.712C302.095 69.712 301.535 69.848 301.071 70.12C300.607 70.392 300.231 70.776 299.943 71.272C299.655 71.768 299.439 72.352 299.295 73.024C299.167 73.696 299.103 74.44 299.103 75.256V77.992C299.103 78.808 299.167 79.552 299.295 80.224C299.439 80.896 299.655 81.48 299.943 81.976C300.231 82.472 300.607 82.856 301.071 83.128C301.535 83.4 302.095 83.536 302.751 83.536Z"/><path fill="#000" d="M270.44 93.24H272.288L270.656 101.304H270.728C271.24 100.264 271.808 99.512 272.432 99.048C273.056 98.568 273.824 98.328 274.736 98.328C275.872 98.328 276.784 98.752 277.472 99.6C278.16 100.432 278.504 101.584 278.504 103.056C278.504 103.968 278.376 104.912 278.12 105.888C277.88 106.848 277.512 107.736 277.016 108.552C276.52 109.352 275.888 110.008 275.12 110.52C274.368 111.032 273.48 111.288 272.456 111.288C272.088 111.288 271.728 111.24 271.376 111.144C271.024 111.048 270.704 110.904 270.416 110.712C270.128 110.52 269.88 110.28 269.672 109.992C269.464 109.704 269.312 109.368 269.216 108.984H269.12L268.712 111H266.864L270.44 93.24ZM272.288 109.608C273.296 109.608 274.128 109.28 274.784 108.624C275.44 107.968 275.888 107.04 276.128 105.84L276.488 104.04C276.568 103.592 276.608 103.184 276.608 102.816C276.608 102 276.416 101.328 276.032 100.8C275.664 100.272 275.064 100.008 274.232 100.008C273.688 100.008 273.208 100.12 272.792 100.344C272.392 100.568 272.008 100.864 271.64 101.232C271.24 101.632 270.912 102.072 270.656 102.552C270.4 103.032 270.208 103.584 270.08 104.208L269.576 106.728C269.496 107.112 269.488 107.48 269.552 107.832C269.616 108.184 269.76 108.496 269.984 108.768C270.208 109.024 270.504 109.232 270.872 109.392C271.256 109.536 271.728 109.608 272.288 109.608Z"/><path fill="#000" d="M288.2 121.288C286.2 121.288 284.736 120.528 283.808 119.008C282.896 117.488 282.44 115.36 282.44 112.624C282.44 109.888 282.896 107.76 283.808 106.24C284.736 104.72 286.2 103.96 288.2 103.96C290.2 103.96 291.656 104.72 292.568 106.24C293.496 107.76 293.96 109.888 293.96 112.624C293.96 115.36 293.496 117.488 292.568 119.008C291.656 120.528 290.2 121.288 288.2 121.288ZM288.2 119.536C288.856 119.536 289.416 119.4 289.88 119.128C290.344 118.856 290.72 118.472 291.008 117.976C291.296 117.48 291.504 116.896 291.632 116.224C291.776 115.552 291.848 114.808 291.848 113.992V111.256C291.848 110.44 291.776 109.696 291.632 109.024C291.504 108.352 291.296 107.768 291.008 107.272C290.72 106.776 290.344 106.392 289.88 106.12C289.416 105.848 288.856 105.712 288.2 105.712C287.544 105.712 286.984 105.848 286.52 106.12C286.056 106.392 285.68 106.776 285.392 107.272C285.104 107.768 284.888 108.352 284.744 109.024C284.616 109.696 284.552 110.44 284.552 111.256V113.992C284.552 114.808 284.616 115.552 284.744 116.224C284.888 116.896 285.104 117.48 285.392 117.976C285.68 118.472 286.056 118.856 286.52 119.128C286.984 119.4 287.544 119.536 288.2 119.536ZM297.663 121V119.224H302.343V105.736H302.175L297.951 109.672L296.775 108.4L301.215 104.248H304.359V119.224H308.679V121H297.663Z"/><path fill="#000" d="M270.44 129.24H272.288L270.656 137.304H270.728C271.24 136.264 271.808 135.512 272.432 135.048C273.056 134.568 273.824 134.328 274.736 134.328C275.872 134.328 276.784 134.752 277.472 135.6C278.16 136.432 278.504 137.584 278.504 139.056C278.504 139.968 278.376 140.912 278.12 141.888C277.88 142.848 277.512 143.736 277.016 144.552C276.52 145.352 275.888 146.008 275.12 146.52C274.368 147.032 273.48 147.288 272.456 147.288C272.088 147.288 271.728 147.24 271.376 147.144C271.024 147.048 270.704 146.904 270.416 146.712C270.128 146.52 269.88 146.28 269.672 145.992C269.464 145.704 269.312 145.368 269.216 144.984H269.12L268.712 147H266.864L270.44 129.24ZM272.288 145.608C273.296 145.608 274.128 145.28 274.784 144.624C275.44 143.968 275.888 143.04 276.128 141.84L276.488 140.04C276.568 139.592 276.608 139.184 276.608 138.816C276.608 138 276.416 137.328 276.032 136.8C275.664 136.272 275.064 136.008 274.232 136.008C273.688 136.008 273.208 136.12 272.792 136.344C272.392 136.568 272.008 136.864 271.64 137.232C271.24 137.632 270.912 138.072 270.656 138.552C270.4 139.032 270.208 139.584 270.08 140.208L269.576 142.728C269.496 143.112 269.488 143.48 269.552 143.832C269.616 144.184 269.76 144.496 269.984 144.768C270.208 145.024 270.504 145.232 270.872 145.392C271.256 145.536 271.728 145.608 272.288 145.608Z"/><path fill="#000" d="M283.112 157V155.224H287.792V141.736H287.624L283.4 145.672L282.224 144.4L286.664 140.248H289.808V155.224H294.128V157H283.112ZM302.751 157.288C300.751 157.288 299.287 156.528 298.359 155.008C297.447 153.488 296.991 151.36 296.991 148.624C296.991 145.888 297.447 143.76 298.359 142.24C299.287 140.72 300.751 139.96 302.751 139.96C304.751 139.96 306.207 140.72 307.119 142.24C308.047 143.76 308.511 145.888 308.511 148.624C308.511 151.36 308.047 153.488 307.119 155.008C306.207 156.528 304.751 157.288 302.751 157.288ZM302.751 155.536C303.407 155.536 303.967 155.4 304.431 155.128C304.895 154.856 305.271 154.472 305.559 153.976C305.847 153.48 306.055 152.896 306.183 152.224C306.327 151.552 306.399 150.808 306.399 149.992V147.256C306.399 146.44 306.327 145.696 306.183 145.024C306.055 144.352 305.847 143.768 305.559 143.272C305.271 142.776 304.895 142.392 304.431 142.12C303.967 141.848 303.407 141.712 302.751 141.712C302.095 141.712 301.535 141.848 301.071 142.12C300.607 142.392 300.231 142.776 299.943 143.272C299.655 143.768 299.439 144.352 299.295 145.024C299.167 145.696 299.103 146.44 299.103 147.256V149.992C299.103 150.808 299.167 151.552 299.295 152.224C299.439 152.896 299.655 153.48 299.943 153.976C300.231 154.472 300.607 154.856 301.071 155.128C301.535 155.4 302.095 155.536 302.751 155.536Z"/><path fill="#000" d="M270.44 165.24H272.288L270.656 173.304H270.728C271.24 172.264 271.808 171.512 272.432 171.048C273.056 170.568 273.824 170.328 274.736 170.328C275.872 170.328 276.784 170.752 277.472 171.6C278.16 172.432 278.504 173.584 278.504 175.056C278.504 175.968 278.376 176.912 278.12 177.888C277.88 178.848 277.512 179.736 277.016 180.552C276.52 181.352 275.888 182.008 275.12 182.52C274.368 183.032 273.48 183.288 272.456 183.288C272.088 183.288 271.728 183.24 271.376 183.144C271.024 183.048 270.704 182.904 270.416 182.712C270.128 182.52 269.88 182.28 269.672 181.992C269.464 181.704 269.312 181.368 269.216 180.984H269.12L268.712 183H266.864L270.44 165.24ZM272.288 181.608C273.296 181.608 274.128 181.28 274.784 180.624C275.44 179.968 275.888 179.04 276.128 177.84L276.488 176.04C276.568 175.592 276.608 175.184 276.608 174.816C276.608 174 276.416 173.328 276.032 172.8C275.664 172.272 275.064 172.008 274.232 172.008C273.688 172.008 273.208 172.12 272.792 172.344C272.392 172.568 272.008 172.864 271.64 173.232C271.24 173.632 270.912 174.072 270.656 174.552C270.4 175.032 270.208 175.584 270.08 176.208L269.576 178.728C269.496 179.112 269.488 179.48 269.552 179.832C269.616 180.184 269.76 180.496 269.984 180.768C270.208 181.024 270.504 181.232 270.872 181.392C271.256 181.536 271.728 181.608 272.288 181.608Z"/><path fill="#000" d="M283.112 193V191.224H287.792V177.736H287.624L283.4 181.672L282.224 180.4L286.664 176.248H289.808V191.224H294.128V193H283.112ZM297.663 193V191.224H302.343V177.736H302.175L297.951 181.672L296.775 180.4L301.215 176.248H304.359V191.224H308.679V193H297.663Z"/><line x1="136" x2="248" y1="74.5" y2="74.5" stroke="#A2A9B0"/><line x1="136" x2="248" y1="110.5" y2="110.5" stroke="#A2A9B0"/><line x1="136" x2="248" y1="146.5" y2="146.5" stroke="#A2A9B0"/><line x1="136" x2="248" y1="182.5" y2="182.5" stroke="#A2A9B0"/><line x1="136.153" x2="248.153" y1="74.524" y2="110.524" stroke="#A2A9B0"/><line x1="136.153" x2="248.153" y1="110.524" y2="146.524" stroke="#A2A9B0"/><line x1="136.153" x2="248.153" y1="146.524" y2="182.524" stroke="#A2A9B0"/><line x1="135.653" x2="247.653" y1="182.64" y2="74.64" stroke="#A2A9B0"/><line x1="136.27" x2="248.27" y1="74.579" y2="146.579" stroke="#A2A9B0"/><line x1="136.27" x2="248.27" y1="110.579" y2="182.579" stroke="#A2A9B0"/><line x1="135.73" x2="247.73" y1="146.579" y2="74.579" stroke="#A2A9B0"/><line x1="135.73" x2="247.73" y1="182.579" y2="110.579" stroke="#A2A9B0"/><line x1="136.347" x2="248.347" y1="74.64" y2="182.64" stroke="#A2A9B0"/><line x1="135.847" x2="247.847" y1="110.524" y2="74.524" stroke="#A2A9B0"/><line x1="135.847" x2="247.847" y1="146.524" y2="110.524" stroke="#A2A9B0"/><line x1="135.847" x2="247.847" y1="182.524" y2="146.524" stroke="#A2A9B0"/><path fill="#A2A9B0" d="M247.143 78.4439L249.035 73.7219L244 73L247.143 78.4439Z"/><path fill="#A2A9B0" d="M245.437 113.946L249.302 110.638L245.173 107.666L245.437 113.946Z"/><path fill="#A2A9B0" d="M246 149.256L250.286 146.515L246.609 143L246 149.256Z"/><path fill="#A2A9B0" d="M244.142 184.307L249.102 183.178L246.832 178.625L244.142 184.307Z"/></svg>