<svg xmlns="http://www.w3.org/2000/svg" width="441" height="606" fill="none" viewBox="0 0 441 606"><path fill="#A6C8FF" d="M207 425C207 413.358 205.983 401.737 203.962 390.271L7 425H207Z"/><path fill="#D4BBFF" d="M203.962 390.271C200.927 373.061 195.65 356.323 188.265 340.484L7 425L203.962 390.271Z"/><path fill="#A6C8FF" d="M207 425C207 436.642 205.983 448.263 203.962 459.729L7 425H207Z"/><path fill="#D4BBFF" d="M203.962 459.729C200.927 476.939 195.65 493.677 188.265 509.516L7 425L203.962 459.729Z"/><path fill="#000" d="M8.53033 25.4697C8.23744 25.1768 7.76256 25.1768 7.46967 25.4697L2.6967 30.2426C2.40381 30.5355 2.40381 31.0104 2.6967 31.3033C2.98959 31.5962 3.46447 31.5962 3.75736 31.3033L8 27.0607L12.2426 31.3033C12.5355 31.5962 13.0104 31.5962 13.3033 31.3033C13.5962 31.0104 13.5962 30.5355 13.3033 30.2426L8.53033 25.4697ZM8.75 426L8.75 26H7.25L7.25 426H8.75Z"/><path fill="#000" d="M408.53 426.53C408.823 426.237 408.823 425.763 408.53 425.47L403.757 420.697C403.464 420.404 402.99 420.404 402.697 420.697C402.404 420.99 402.404 421.464 402.697 421.757L406.939 426L402.697 430.243C402.404 430.536 402.404 431.01 402.697 431.303C402.99 431.596 403.464 431.596 403.757 431.303L408.53 426.53ZM8 426.75H408V425.25H8V426.75Z"/><path fill="#000" d="M402.23 356.215C402.349 356.045 402.308 355.811 402.138 355.693L399.374 353.757C399.204 353.638 398.97 353.679 398.851 353.849C398.732 354.018 398.774 354.252 398.943 354.371L401.401 356.092L399.68 358.549C399.561 358.719 399.603 358.953 399.772 359.072C399.942 359.19 400.176 359.149 400.294 358.979L402.23 356.215ZM8.06512 425.828L10.5271 425.394L10.3969 424.656L7.93488 425.09L8.06512 425.828ZM13.4816 424.873L18.4056 424.005L18.2754 423.266L13.3513 424.135L13.4816 424.873ZM21.36 423.484L26.2841 422.616L26.1538 421.877L21.2298 422.745L21.36 423.484ZM29.2385 422.095L34.1625 421.227L34.0323 420.488L29.1082 421.356L29.2385 422.095ZM37.1169 420.706L42.041 419.837L41.9107 419.099L36.9867 419.967L37.1169 420.706ZM44.9954 419.316L49.9194 418.448L49.7892 417.71L44.8652 418.578L44.9954 419.316ZM52.8739 417.927L57.7979 417.059L57.6677 416.32L52.7436 417.189L52.8739 417.927ZM60.7523 416.538L65.6764 415.67L65.5461 414.931L60.6221 415.8L60.7523 416.538ZM68.6308 415.149L73.5548 414.281L73.4246 413.542L68.5006 414.41L68.6308 415.149ZM76.5093 413.76L81.4333 412.891L81.3031 412.153L76.379 413.021L76.5093 413.76ZM84.3877 412.371L89.3118 411.502L89.1815 410.764L84.2575 411.632L84.3877 412.371ZM92.2662 410.981L97.1902 410.113L97.06 409.375L92.1359 410.243L92.2662 410.981ZM100.145 409.592L105.069 408.724L104.938 407.985L100.014 408.854L100.145 409.592ZM108.023 408.203L112.947 407.335L112.817 406.596L107.893 407.464L108.023 408.203ZM115.902 406.814L120.826 405.946L120.695 405.207L115.771 406.075L115.902 406.814ZM123.78 405.425L128.704 404.556L128.574 403.818L123.65 404.686L123.78 405.425ZM131.658 404.035L136.583 403.167L136.452 402.429L131.528 403.297L131.658 404.035ZM139.537 402.646L144.461 401.778L144.331 401.039L139.407 401.908L139.537 402.646ZM147.415 401.257L152.339 400.389L152.209 399.65L147.285 400.518L147.415 401.257ZM155.294 399.868L160.218 399L160.088 398.261L155.164 399.129L155.294 399.868ZM163.172 398.479L168.096 397.61L167.966 396.872L163.042 397.74L163.172 398.479ZM171.051 397.09L175.975 396.221L175.845 395.483L170.921 396.351L171.051 397.09ZM178.929 395.7L183.853 394.832L183.723 394.093L178.799 394.962L178.929 395.7ZM186.808 394.311L191.732 393.443L191.602 392.704L186.677 393.573L186.808 394.311ZM194.686 392.922L199.61 392.054L199.48 391.315L194.556 392.183L194.686 392.922ZM202.565 391.533L207.489 390.665L207.358 389.926L202.434 390.794L202.565 391.533ZM210.443 390.144L215.367 389.275L215.237 388.537L210.313 389.405L210.443 390.144ZM218.322 388.754L223.246 387.886L223.115 387.148L218.191 388.016L218.322 388.754ZM226.2 387.365L231.124 386.497L230.994 385.758L226.07 386.627L226.2 387.365ZM234.078 385.976L239.003 385.108L238.872 384.369L233.948 385.237L234.078 385.976ZM241.957 384.587L246.881 383.719L246.751 382.98L241.827 383.848L241.957 384.587ZM249.835 383.198L254.759 382.329L254.629 381.591L249.705 382.459L249.835 383.198ZM257.714 381.808L262.638 380.94L262.508 380.202L257.584 381.07L257.714 381.808ZM265.592 380.419L270.516 379.551L270.386 378.812L265.462 379.681L265.592 380.419ZM273.471 379.03L278.395 378.162L278.265 377.423L273.341 378.291L273.471 379.03ZM281.349 377.641L286.273 376.773L286.143 376.034L281.219 376.902L281.349 377.641ZM289.228 376.252L294.152 375.383L294.022 374.645L289.097 375.513L289.228 376.252ZM297.106 374.863L302.03 373.994L301.9 373.256L296.976 374.124L297.106 374.863ZM304.985 373.473L309.909 372.605L309.778 371.867L304.854 372.735L304.985 373.473ZM312.863 372.084L317.787 371.216L317.657 370.477L312.733 371.346L312.863 372.084ZM320.742 370.695L325.666 369.827L325.535 369.088L320.611 369.956L320.742 370.695ZM328.62 369.306L333.544 368.438L333.414 367.699L328.49 368.567L328.62 369.306ZM336.498 367.917L341.423 367.048L341.292 366.31L336.368 367.178L336.498 367.917ZM344.377 366.527L349.301 365.659L349.171 364.921L344.247 365.789L344.377 366.527ZM352.255 365.138L357.179 364.27L357.049 363.531L352.125 364.4L352.255 365.138ZM360.134 363.749L365.058 362.881L364.928 362.142L360.004 363.01L360.134 363.749ZM368.012 362.36L372.936 361.492L372.806 360.753L367.882 361.621L368.012 362.36ZM375.891 360.971L380.815 360.102L380.685 359.364L375.761 360.232L375.891 360.971ZM383.769 359.582L388.693 358.713L388.563 357.975L383.639 358.843L383.769 359.582ZM391.648 358.192L396.572 357.324L396.442 356.585L391.517 357.454L391.648 358.192ZM399.526 356.803L401.988 356.369L401.858 355.63L399.396 356.065L399.526 356.803ZM402.537 356.43C402.775 356.091 402.693 355.623 402.353 355.385L396.824 351.514C396.485 351.276 396.017 351.359 395.779 351.698C395.542 352.037 395.624 352.505 395.964 352.742L400.879 356.184L397.437 361.099C397.2 361.438 397.282 361.906 397.621 362.143C397.961 362.381 398.428 362.298 398.666 361.959L402.537 356.43ZM8.13024 426.198L10.5923 425.763L10.3318 424.286L7.86976 424.72L8.13024 426.198ZM13.5467 425.243L18.4707 424.374L18.2102 422.897L13.2862 423.765L13.5467 425.243ZM21.4251 423.853L26.3492 422.985L26.0887 421.508L21.1647 422.376L21.4251 423.853ZM29.3036 422.464L34.2276 421.596L33.9672 420.119L29.0431 420.987L29.3036 422.464ZM37.1821 421.075L42.1061 420.207L41.8456 418.73L36.9216 419.598L37.1821 421.075ZM45.0605 419.686L49.9846 418.818L49.7241 417.34L44.8001 418.209L45.0605 419.686ZM52.939 418.297L57.863 417.428L57.6026 415.951L52.6785 416.819L52.939 418.297ZM60.8175 416.907L65.7415 416.039L65.481 414.562L60.557 415.43L60.8175 416.907ZM68.6959 415.518L73.62 414.65L73.3595 413.173L68.4354 414.041L68.6959 415.518ZM76.5744 414.129L81.4984 413.261L81.2379 411.784L76.3139 412.652L76.5744 414.129ZM84.4528 412.74L89.3769 411.872L89.1164 410.394L84.1924 411.263L84.4528 412.74ZM92.3313 411.351L97.2553 410.482L96.9949 409.005L92.0708 409.873L92.3313 411.351ZM100.21 409.961L105.134 409.093L104.873 407.616L99.9493 408.484L100.21 409.961ZM108.088 408.572L113.012 407.704L112.752 406.227L107.828 407.095L108.088 408.572ZM115.967 407.183L120.891 406.315L120.63 404.838L115.706 405.706L115.967 407.183ZM123.845 405.794L128.769 404.926L128.509 403.448L123.585 404.317L123.845 405.794ZM131.724 404.405L136.648 403.537L136.387 402.059L131.463 402.928L131.724 404.405ZM139.602 403.016L144.526 402.147L144.266 400.67L139.342 401.538L139.602 403.016ZM147.481 401.626L152.405 400.758L152.144 399.281L147.22 400.149L147.481 401.626ZM155.359 400.237L160.283 399.369L160.023 397.892L155.099 398.76L155.359 400.237ZM163.237 398.848L168.161 397.98L167.901 396.503L162.977 397.371L163.237 398.848ZM171.116 397.459L176.04 396.591L175.779 395.113L170.855 395.982L171.116 397.459ZM178.994 396.07L183.918 395.201L183.658 393.724L178.734 394.592L178.994 396.07ZM186.873 394.68L191.797 393.812L191.536 392.335L186.612 393.203L186.873 394.68ZM194.751 393.291L199.675 392.423L199.415 390.946L194.491 391.814L194.751 393.291ZM202.63 391.902L207.554 391.034L207.293 389.557L202.369 390.425L202.63 391.902ZM210.508 390.513L215.432 389.645L215.172 388.167L210.248 389.036L210.508 390.513ZM218.387 389.124L223.311 388.255L223.05 386.778L218.126 387.646L218.387 389.124ZM226.265 387.735L231.189 386.866L230.929 385.389L226.005 386.257L226.265 387.735ZM234.144 386.345L239.068 385.477L238.807 384L233.883 384.868L234.144 386.345ZM242.022 384.956L246.946 384.088L246.686 382.611L241.762 383.479L242.022 384.956ZM249.901 383.567L254.825 382.699L254.564 381.222L249.64 382.09L249.901 383.567ZM257.779 382.178L262.703 381.31L262.443 379.832L257.519 380.701L257.779 382.178ZM265.657 380.789L270.581 379.92L270.321 378.443L265.397 379.311L265.657 380.789ZM273.536 379.399L278.46 378.531L278.199 377.054L273.275 377.922L273.536 379.399ZM281.414 378.01L286.338 377.142L286.078 375.665L281.154 376.533L281.414 378.01ZM289.293 376.621L294.217 375.753L293.956 374.276L289.032 375.144L289.293 376.621ZM297.171 375.232L302.095 374.364L301.835 372.886L296.911 373.755L297.171 375.232ZM305.05 373.843L309.974 372.974L309.713 371.497L304.789 372.365L305.05 373.843ZM312.928 372.453L317.852 371.585L317.592 370.108L312.668 370.976L312.928 372.453ZM320.807 371.064L325.731 370.196L325.47 368.719L320.546 369.587L320.807 371.064ZM328.685 369.675L333.609 368.807L333.349 367.33L328.425 368.198L328.685 369.675ZM336.564 368.286L341.488 367.418L341.227 365.94L336.303 366.809L336.564 368.286ZM344.442 366.897L349.366 366.028L349.106 364.551L344.182 365.42L344.442 366.897ZM352.321 365.508L357.245 364.639L356.984 363.162L352.06 364.03L352.321 365.508ZM360.199 364.118L365.123 363.25L364.863 361.773L359.939 362.641L360.199 364.118ZM368.077 362.729L373.001 361.861L372.741 360.384L367.817 361.252L368.077 362.729ZM375.956 361.34L380.88 360.472L380.619 358.995L375.695 359.863L375.956 361.34ZM383.834 359.951L388.758 359.083L388.498 357.605L383.574 358.474L383.834 359.951ZM391.713 358.562L396.637 357.693L396.376 356.216L391.452 357.084L391.713 358.562ZM399.591 357.172L402.053 356.738L401.793 355.261L399.331 355.695L399.591 357.172Z"/><path fill="#DDE1E6" d="M370.993 256.171C371.087 255.911 370.954 255.624 370.694 255.53L366.465 253.991C366.206 253.896 365.919 254.03 365.825 254.289C365.73 254.549 365.864 254.836 366.123 254.93L369.882 256.298L368.514 260.057C368.42 260.317 368.554 260.604 368.813 260.698C369.072 260.792 369.359 260.659 369.454 260.399L370.993 256.171ZM8.21131 425.5L370.734 256.453L370.312 255.546L7.78869 424.594L8.21131 425.5Z"/><path fill="#000" d="M370.78 595.752C371.169 595.61 371.37 595.18 371.228 594.791L368.919 588.448C368.778 588.059 368.347 587.858 367.958 588C367.569 588.141 367.368 588.572 367.51 588.961L369.562 594.599L363.924 596.651C363.534 596.793 363.334 597.223 363.475 597.612C363.617 598.002 364.047 598.202 364.437 598.061L370.78 595.752ZM7.68304 426.68L370.206 595.727L370.84 594.368L8.31696 425.32L7.68304 426.68Z"/><path fill="#000" d="M3.18 14.656V3.88H4.02V14.656H3.18Z"/><path stroke="#000" d="M17.2866 4L20.2866 9.5L17.2866 15"/><path stroke="#000" d="M6 10.5908L8.78662 14L14.7866 5"/><path fill="#000" d="M422.18 432.656V421.88H423.02V432.656H422.18ZM427.247 431L429.551 427.856L427.307 424.808H428.459L429.395 426.116L430.139 427.148H430.187L430.907 426.116L431.831 424.808H432.935L430.667 427.844L432.995 431H431.843L430.799 429.548L430.091 428.564H430.043L429.359 429.548L428.351 431H427.247Z"/><path fill="#000" d="M412.18 362.656V351.88H413.02V362.656H412.18ZM420.187 361.144C419.539 361.144 418.979 361.036 418.507 360.82C418.043 360.596 417.647 360.3 417.319 359.932L417.967 359.368C418.263 359.68 418.587 359.92 418.939 360.088C419.291 360.256 419.715 360.34 420.211 360.34C420.691 360.34 421.083 360.256 421.387 360.088C421.699 359.912 421.855 359.64 421.855 359.272C421.855 359.112 421.823 358.98 421.759 358.876C421.703 358.764 421.623 358.676 421.519 358.612C421.415 358.548 421.299 358.5 421.171 358.468C421.043 358.428 420.907 358.396 420.763 358.372L419.791 358.228C419.575 358.196 419.339 358.152 419.083 358.096C418.835 358.04 418.607 357.952 418.399 357.832C418.191 357.704 418.015 357.536 417.871 357.328C417.735 357.12 417.667 356.848 417.667 356.512C417.667 356.2 417.727 355.932 417.847 355.708C417.975 355.476 418.151 355.284 418.375 355.132C418.599 354.972 418.863 354.856 419.167 354.784C419.471 354.704 419.803 354.664 420.163 354.664C420.723 354.664 421.207 354.752 421.615 354.928C422.031 355.104 422.387 355.348 422.683 355.66L422.059 356.248C421.987 356.16 421.895 356.072 421.783 355.984C421.679 355.888 421.547 355.804 421.387 355.732C421.235 355.652 421.055 355.588 420.847 355.54C420.639 355.492 420.399 355.468 420.127 355.468C419.639 355.468 419.263 355.552 418.999 355.72C418.743 355.888 418.615 356.132 418.615 356.452C418.615 356.612 418.643 356.748 418.699 356.86C418.763 356.964 418.847 357.048 418.951 357.112C419.055 357.176 419.171 357.228 419.299 357.268C419.435 357.3 419.571 357.328 419.707 357.352L420.679 357.496C420.903 357.528 421.139 357.572 421.387 357.628C421.635 357.684 421.863 357.776 422.071 357.904C422.279 358.024 422.451 358.188 422.587 358.396C422.731 358.604 422.803 358.876 422.803 359.212C422.803 359.828 422.563 360.304 422.083 360.64C421.611 360.976 420.979 361.144 420.187 361.144Z"/><path fill="#000" d="M183.48 410.476C183.48 411.444 183.38 412.276 183.18 412.972C182.988 413.66 182.676 414.192 182.244 414.568C181.82 414.936 181.256 415.12 180.552 415.12C179.56 415.12 178.828 414.708 178.356 413.884C177.892 413.06 177.66 411.924 177.66 410.476C177.66 409.5 177.756 408.664 177.948 407.968C178.14 407.272 178.448 406.74 178.872 406.372C179.304 406.004 179.864 405.82 180.552 405.82C181.552 405.82 182.288 406.228 182.76 407.044C183.24 407.852 183.48 408.996 183.48 410.476ZM180.552 406.684C179.944 406.684 179.496 406.956 179.208 407.5C178.928 408.036 178.768 408.84 178.728 409.912H182.4C182.36 408.84 182.196 408.036 181.908 407.5C181.62 406.956 181.168 406.684 180.552 406.684ZM180.552 414.256C181.176 414.256 181.636 413.968 181.932 413.392C182.228 412.816 182.388 411.948 182.412 410.788H178.728C178.744 411.932 178.892 412.796 179.172 413.38C179.46 413.964 179.92 414.256 180.552 414.256Z"/><path fill="#000" d="M170.7 368.072C170.404 368.464 170.164 368.876 169.98 369.308C169.804 369.732 169.716 370.224 169.716 370.784C169.716 371.368 169.808 371.836 169.992 372.188C170.184 372.532 170.436 372.784 170.748 372.944C171.06 373.104 171.4 373.204 171.768 373.244V369.668C171.768 368.94 171.936 368.388 172.272 368.012C172.616 367.636 173.08 367.448 173.664 367.448C174.16 367.448 174.584 367.584 174.936 367.856C175.288 368.12 175.56 368.492 175.752 368.972C175.944 369.444 176.04 369.996 176.04 370.628C176.04 371.404 175.888 372.044 175.584 372.548C175.288 373.044 174.892 373.42 174.396 373.676C173.908 373.932 173.376 374.076 172.8 374.108V376.88H171.768V374.108C171.176 374.076 170.644 373.944 170.172 373.712C169.708 373.48 169.34 373.124 169.068 372.644C168.796 372.164 168.66 371.532 168.66 370.748C168.66 370.1 168.776 369.508 169.008 368.972C169.24 368.428 169.532 367.94 169.884 367.508L170.7 368.072ZM173.676 368.324C173.444 368.324 173.24 368.42 173.064 368.612C172.888 368.804 172.8 369.152 172.8 369.656V373.244C173.208 373.204 173.576 373.088 173.904 372.896C174.232 372.696 174.492 372.412 174.684 372.044C174.876 371.668 174.972 371.2 174.972 370.64C174.972 369.888 174.848 369.316 174.6 368.924C174.36 368.524 174.052 368.324 173.676 368.324Z"/><path fill="#000" d="M163.48 452.476C163.48 453.444 163.38 454.276 163.18 454.972C162.988 455.66 162.676 456.192 162.244 456.568C161.82 456.936 161.256 457.12 160.552 457.12C159.56 457.12 158.828 456.708 158.356 455.884C157.892 455.06 157.66 453.924 157.66 452.476C157.66 451.5 157.756 450.664 157.948 449.968C158.14 449.272 158.448 448.74 158.872 448.372C159.304 448.004 159.864 447.82 160.552 447.82C161.552 447.82 162.288 448.228 162.76 449.044C163.24 449.852 163.48 450.996 163.48 452.476ZM160.552 448.684C159.944 448.684 159.496 448.956 159.208 449.5C158.928 450.036 158.768 450.84 158.728 451.912H162.4C162.36 450.84 162.196 450.036 161.908 449.5C161.62 448.956 161.168 448.684 160.552 448.684ZM160.552 456.256C161.176 456.256 161.636 455.968 161.932 455.392C162.228 454.816 162.388 453.948 162.412 452.788H158.728C158.744 453.932 158.892 454.796 159.172 455.38C159.46 455.964 159.92 456.256 160.552 456.256ZM167.601 456.256V453.748H165.201V452.932H167.601V450.424H168.513V452.932H170.913V453.748H168.513V456.256H167.601ZM174.672 451.072C174.376 451.464 174.136 451.876 173.952 452.308C173.776 452.732 173.688 453.224 173.688 453.784C173.688 454.368 173.78 454.836 173.964 455.188C174.156 455.532 174.408 455.784 174.72 455.944C175.032 456.104 175.372 456.204 175.74 456.244V452.668C175.74 451.94 175.908 451.388 176.244 451.012C176.588 450.636 177.052 450.448 177.636 450.448C178.132 450.448 178.556 450.584 178.908 450.856C179.26 451.12 179.532 451.492 179.724 451.972C179.916 452.444 180.012 452.996 180.012 453.628C180.012 454.404 179.86 455.044 179.556 455.548C179.26 456.044 178.864 456.42 178.368 456.676C177.88 456.932 177.348 457.076 176.772 457.108V459.88H175.74V457.108C175.148 457.076 174.616 456.944 174.144 456.712C173.68 456.48 173.312 456.124 173.04 455.644C172.768 455.164 172.632 454.532 172.632 453.748C172.632 453.1 172.748 452.508 172.98 451.972C173.212 451.428 173.504 450.94 173.856 450.508L174.672 451.072ZM177.648 451.324C177.416 451.324 177.212 451.42 177.036 451.612C176.86 451.804 176.772 452.152 176.772 452.656V456.244C177.18 456.204 177.548 456.088 177.876 455.896C178.204 455.696 178.464 455.412 178.656 455.044C178.848 454.668 178.944 454.2 178.944 453.64C178.944 452.888 178.82 452.316 178.572 451.924C178.332 451.524 178.024 451.324 177.648 451.324Z"/><path fill="#DDE1E6" d="M380.18 257.656V246.88H381.02V257.656H380.18ZM389.627 255.22C390.307 255.156 390.851 254.924 391.259 254.524C391.675 254.116 391.883 253.488 391.883 252.64C391.883 252.088 391.851 251.58 391.787 251.116C391.723 250.644 391.627 250.128 391.499 249.568H392.543C392.671 250.104 392.763 250.612 392.819 251.092C392.883 251.572 392.915 252.076 392.915 252.604C392.915 253.428 392.767 254.092 392.471 254.596C392.175 255.092 391.779 255.46 391.283 255.7C390.787 255.932 390.235 256.068 389.627 256.108V258.88H388.595V256.108C387.987 256.084 387.447 255.96 386.975 255.736C386.503 255.512 386.131 255.16 385.859 254.68C385.595 254.192 385.463 253.552 385.463 252.76V249.568H386.507V252.796C386.507 253.396 386.603 253.868 386.795 254.212C386.987 254.556 387.243 254.804 387.563 254.956C387.883 255.108 388.227 255.2 388.595 255.232V246.892H389.627V255.22Z"/><path fill="#000" d="M385.18 604.656V593.88H386.02V604.656H385.18ZM394.627 602.22C395.307 602.156 395.851 601.924 396.259 601.524C396.675 601.116 396.883 600.488 396.883 599.64C396.883 599.088 396.851 598.58 396.787 598.116C396.723 597.644 396.627 597.128 396.499 596.568H397.543C397.671 597.104 397.763 597.612 397.819 598.092C397.883 598.572 397.915 599.076 397.915 599.604C397.915 600.428 397.767 601.092 397.471 601.596C397.175 602.092 396.779 602.46 396.283 602.7C395.787 602.932 395.235 603.068 394.627 603.108V605.88H393.595V603.108C392.987 603.084 392.447 602.96 391.975 602.736C391.503 602.512 391.131 602.16 390.859 601.68C390.595 601.192 390.463 600.552 390.463 599.76V596.568H391.507V599.796C391.507 600.396 391.603 600.868 391.795 601.212C391.987 601.556 392.243 601.804 392.563 601.956C392.883 602.108 393.227 602.2 393.595 602.232V593.892H394.627V602.22ZM402.276 594.12H403.824L402.444 597.444H401.64L402.276 594.12Z"/><path stroke="url(#paint0_linear)" stroke-dasharray="5 5" stroke-width=".75" d="M278.663 550.631C347.917 456.655 359.023 363.239 310.498 282.878"/><line x1="276.671" x2="279.671" y1="544.665" y2="550.665" stroke="#000" stroke-width="1.5"/><line x1="287.182" x2="279.182" y1="549.728" y2="551.728" stroke="#000" stroke-width="1.5"/><path fill="#000" d="M340.6 492.144C340.168 492.144 339.776 492.068 339.424 491.916C339.08 491.764 338.784 491.548 338.536 491.268C338.296 490.98 338.112 490.64 337.984 490.248C337.856 489.848 337.792 489.4 337.792 488.904C337.792 488.416 337.856 487.972 337.984 487.572C338.112 487.172 338.296 486.832 338.536 486.552C338.784 486.264 339.08 486.044 339.424 485.892C339.776 485.74 340.168 485.664 340.6 485.664C341.032 485.664 341.42 485.74 341.764 485.892C342.116 486.044 342.412 486.264 342.652 486.552C342.9 486.832 343.088 487.172 343.216 487.572C343.344 487.972 343.408 488.416 343.408 488.904C343.408 489.4 343.344 489.848 343.216 490.248C343.088 490.64 342.9 490.98 342.652 491.268C342.412 491.548 342.116 491.764 341.764 491.916C341.42 492.068 341.032 492.144 340.6 492.144ZM340.6 491.316C341.136 491.316 341.568 491.156 341.896 490.836C342.224 490.516 342.388 490.02 342.388 489.348V488.46C342.388 487.788 342.224 487.292 341.896 486.972C341.568 486.652 341.136 486.492 340.6 486.492C340.064 486.492 339.632 486.652 339.304 486.972C338.976 487.292 338.812 487.788 338.812 488.46V489.348C338.812 490.02 338.976 490.516 339.304 490.836C339.632 491.156 340.064 491.316 340.6 491.316ZM345.439 491.184H347.251V486.624H345.439V485.808H348.211V487.368H348.271C348.399 486.88 348.639 486.5 348.991 486.228C349.351 485.948 349.807 485.808 350.359 485.808H351.223V486.768H350.059C349.507 486.768 349.059 486.928 348.715 487.248C348.379 487.568 348.211 487.988 348.211 488.508V491.184H350.611V492H345.439V491.184ZM357.971 492C357.595 492 357.327 491.904 357.167 491.712C357.007 491.52 356.907 491.28 356.867 490.992H356.807C356.671 491.352 356.451 491.636 356.147 491.844C355.851 492.044 355.451 492.144 354.947 492.144C354.299 492.144 353.783 491.976 353.399 491.64C353.015 491.304 352.823 490.844 352.823 490.26C352.823 489.684 353.031 489.24 353.447 488.928C353.871 488.616 354.551 488.46 355.487 488.46H356.807V487.848C356.807 487.392 356.679 487.052 356.423 486.828C356.167 486.596 355.803 486.48 355.331 486.48C354.915 486.48 354.575 486.564 354.311 486.732C354.047 486.892 353.835 487.112 353.675 487.392L353.027 486.912C353.107 486.752 353.215 486.596 353.351 486.444C353.487 486.292 353.655 486.16 353.855 486.048C354.055 485.928 354.283 485.836 354.539 485.772C354.795 485.7 355.079 485.664 355.391 485.664C356.119 485.664 356.695 485.848 357.119 486.216C357.551 486.584 357.767 487.096 357.767 487.752V491.16H358.631V492H357.971ZM355.115 491.34C355.363 491.34 355.587 491.312 355.787 491.256C355.995 491.192 356.175 491.112 356.327 491.016C356.479 490.912 356.595 490.792 356.675 490.656C356.763 490.512 356.807 490.36 356.807 490.2V489.18H355.487C354.911 489.18 354.491 489.26 354.227 489.42C353.963 489.58 353.831 489.812 353.831 490.116V490.368C353.831 490.688 353.943 490.932 354.167 491.1C354.399 491.26 354.715 491.34 355.115 491.34ZM363.362 492.144C362.914 492.144 362.514 492.068 362.162 491.916C361.818 491.756 361.526 491.536 361.286 491.256C361.046 490.976 360.862 490.636 360.734 490.236C360.614 489.836 360.554 489.392 360.554 488.904C360.554 488.416 360.618 487.972 360.746 487.572C360.874 487.172 361.058 486.832 361.298 486.552C361.538 486.264 361.83 486.044 362.174 485.892C362.518 485.74 362.91 485.664 363.35 485.664C363.95 485.664 364.438 485.796 364.814 486.06C365.19 486.324 365.466 486.668 365.642 487.092L364.874 487.5C364.762 487.18 364.574 486.932 364.31 486.756C364.054 486.58 363.734 486.492 363.35 486.492C363.07 486.492 362.818 486.54 362.594 486.636C362.378 486.724 362.194 486.852 362.042 487.02C361.89 487.188 361.774 487.388 361.694 487.62C361.622 487.852 361.586 488.104 361.586 488.376V489.432C361.586 489.704 361.622 489.956 361.694 490.188C361.774 490.42 361.89 490.62 362.042 490.788C362.194 490.956 362.382 491.088 362.606 491.184C362.83 491.272 363.086 491.316 363.374 491.316C363.79 491.316 364.134 491.22 364.406 491.028C364.678 490.836 364.894 490.572 365.054 490.236L365.738 490.704C365.554 491.12 365.266 491.464 364.874 491.736C364.49 492.008 363.986 492.144 363.362 492.144ZM368.021 491.184H370.181V483.936H368.021V483.12H371.141V491.184H373.301V492H368.021V491.184ZM378.285 492.144C377.837 492.144 377.433 492.068 377.073 491.916C376.721 491.764 376.417 491.548 376.161 491.268C375.913 490.98 375.721 490.64 375.585 490.248C375.449 489.848 375.381 489.404 375.381 488.916C375.381 488.42 375.449 487.972 375.585 487.572C375.729 487.172 375.925 486.832 376.173 486.552C376.421 486.264 376.717 486.044 377.061 485.892C377.413 485.74 377.801 485.664 378.225 485.664C378.641 485.664 379.017 485.74 379.353 485.892C379.697 486.044 379.989 486.256 380.229 486.528C380.469 486.792 380.653 487.108 380.781 487.476C380.909 487.844 380.973 488.248 380.973 488.688V489.144H376.389V489.432C376.389 489.704 376.433 489.956 376.521 490.188C376.609 490.42 376.733 490.62 376.893 490.788C377.061 490.956 377.261 491.088 377.493 491.184C377.733 491.272 377.997 491.316 378.285 491.316C378.701 491.316 379.061 491.22 379.365 491.028C379.669 490.836 379.901 490.572 380.061 490.236L380.769 490.716C380.585 491.132 380.277 491.476 379.845 491.748C379.421 492.012 378.901 492.144 378.285 492.144ZM378.225 486.456C377.961 486.456 377.717 486.504 377.493 486.6C377.269 486.696 377.073 486.828 376.905 486.996C376.745 487.164 376.617 487.364 376.521 487.596C376.433 487.82 376.389 488.068 376.389 488.34V488.424H379.941V488.292C379.941 488.02 379.897 487.772 379.809 487.548C379.729 487.324 379.613 487.132 379.461 486.972C379.317 486.804 379.137 486.676 378.921 486.588C378.713 486.5 378.481 486.456 378.225 486.456Z"/><path stroke="#DDE1E6" stroke-width=".85" d="M397 247L400 252.5L397 258"/><path stroke="#000" stroke-width=".85" d="M437 422L440 427.5L437 433"/><path stroke="#000" stroke-width=".85" d="M427 352L430 357.5L427 363"/><path stroke="#000" stroke-width=".85" d="M410 594L413 599.5L410 605"/><defs><linearGradient id="paint0_linear" x1="279.136" x2="323.965" y1="288.408" y2="542.643" gradientUnits="userSpaceOnUse"><stop stop-color="#DDE1E6" stop-opacity=".19"/><stop offset="1"/></linearGradient></defs></svg>