<svg xmlns="http://www.w3.org/2000/svg" width="318" height="174" fill="none" viewBox="0 0 318 174"><rect width="316" height="172" x="1" y="1" fill="#fff"/><rect width="178" height="174" fill="#F2F4F8" opacity=".4"/><rect width="317" height="173" x=".5" y=".5" stroke="#DDE1E6"/><path fill="#121619" d="M51.18 78.656V67.88H52.02V78.656H51.18ZM56.5353 77V76.124H58.9353V69.368H58.8513L56.7393 71.336L56.1513 70.7L58.3713 68.624H59.9433V76.124H62.1513V77H56.5353ZM64.0506 75.812L68.3106 73.4V73.304L64.0506 70.892V69.872L69.2106 72.86V73.82L64.0506 76.808V75.812Z"/><path fill="#121619" d="M208.18 80.656V69.88H209.02V80.656H208.18ZM216.115 79.144C215.603 79.144 215.163 79.048 214.795 78.856C214.427 78.656 214.123 78.372 213.883 78.004C213.643 77.636 213.467 77.184 213.355 76.648C213.243 76.112 213.187 75.5 213.187 74.812C213.187 74.132 213.243 73.524 213.355 72.988C213.467 72.444 213.643 71.988 213.883 71.62C214.123 71.252 214.427 70.972 214.795 70.78C215.163 70.58 215.603 70.48 216.115 70.48C216.627 70.48 217.067 70.58 217.435 70.78C217.803 70.972 218.107 71.252 218.347 71.62C218.587 71.988 218.763 72.444 218.875 72.988C218.987 73.524 219.043 74.132 219.043 74.812C219.043 75.5 218.987 76.112 218.875 76.648C218.763 77.184 218.587 77.636 218.347 78.004C218.107 78.372 217.803 78.656 217.435 78.856C217.067 79.048 216.627 79.144 216.115 79.144ZM216.115 78.268C216.451 78.268 216.739 78.204 216.979 78.076C217.219 77.94 217.411 77.752 217.555 77.512C217.707 77.272 217.819 76.984 217.891 76.648C217.963 76.304 217.999 75.92 217.999 75.496V74.128C217.999 73.712 217.963 73.332 217.891 72.988C217.819 72.644 217.707 72.352 217.555 72.112C217.411 71.872 217.219 71.688 216.979 71.56C216.739 71.424 216.451 71.356 216.115 71.356C215.779 71.356 215.491 71.424 215.251 71.56C215.011 71.688 214.815 71.872 214.663 72.112C214.519 72.352 214.411 72.644 214.339 72.988C214.267 73.332 214.231 73.712 214.231 74.128V75.496C214.231 75.92 214.267 76.304 214.339 76.648C214.411 76.984 214.519 77.272 214.663 77.512C214.815 77.752 215.011 77.94 215.251 78.076C215.491 78.204 215.779 78.268 216.115 78.268ZM216.115 75.52C215.835 75.52 215.639 75.464 215.527 75.352C215.423 75.24 215.371 75.104 215.371 74.944V74.68C215.371 74.52 215.423 74.384 215.527 74.272C215.639 74.16 215.835 74.104 216.115 74.104C216.395 74.104 216.587 74.16 216.691 74.272C216.803 74.384 216.859 74.52 216.859 74.68V74.944C216.859 75.104 216.803 75.24 216.691 75.352C216.587 75.464 216.395 75.52 216.115 75.52ZM221.051 77.812L225.311 75.4V75.304L221.051 72.892V71.872L226.211 74.86V75.82L221.051 78.808V77.812Z"/><path fill="#121619" d="M208.18 148.656V137.88H209.02V148.656H208.18ZM213.535 147V146.124H215.935V139.368H215.851L213.739 141.336L213.151 140.7L215.371 138.624H216.943V146.124H219.151V147H213.535ZM221.051 145.812L225.311 143.4V143.304L221.051 140.892V139.872L226.211 142.86V143.82L221.051 146.808V145.812Z"/><path fill="#121619" d="M133.056 66V65.112H135.396V58.368H135.312L133.2 60.336L132.612 59.7L134.832 57.624H136.404V65.112H138.564V66H133.056ZM139.623 67.812L142.755 57.12H143.619L140.487 67.812H139.623ZM150.825 66H145.329V64.968L148.065 62.448C148.457 62.088 148.785 61.708 149.049 61.308C149.313 60.9 149.445 60.492 149.445 60.084V59.94C149.445 59.476 149.317 59.1 149.061 58.812C148.805 58.524 148.417 58.38 147.897 58.38C147.641 58.38 147.417 58.416 147.225 58.488C147.033 58.56 146.865 58.66 146.721 58.788C146.585 58.916 146.469 59.068 146.373 59.244C146.285 59.412 146.213 59.596 146.157 59.796L145.257 59.448C145.337 59.2 145.445 58.96 145.581 58.728C145.725 58.488 145.901 58.276 146.109 58.092C146.325 57.908 146.581 57.76 146.877 57.648C147.181 57.536 147.537 57.48 147.945 57.48C148.353 57.48 148.717 57.54 149.037 57.66C149.357 57.78 149.625 57.948 149.841 58.164C150.057 58.38 150.221 58.636 150.333 58.932C150.453 59.228 150.513 59.556 150.513 59.916C150.513 60.244 150.465 60.548 150.369 60.828C150.281 61.108 150.157 61.376 149.997 61.632C149.837 61.88 149.641 62.124 149.409 62.364C149.185 62.604 148.941 62.844 148.677 63.084L146.421 65.112H150.825V66Z"/><path fill="#121619" d="M133.056 134V133.112H135.396V126.368H135.312L133.2 128.336L132.612 127.7L134.832 125.624H136.404V133.112H138.564V134H133.056ZM139.623 135.812L142.755 125.12H143.619L140.487 135.812H139.623ZM150.825 134H145.329V132.968L148.065 130.448C148.457 130.088 148.785 129.708 149.049 129.308C149.313 128.9 149.445 128.492 149.445 128.084V127.94C149.445 127.476 149.317 127.1 149.061 126.812C148.805 126.524 148.417 126.38 147.897 126.38C147.641 126.38 147.417 126.416 147.225 126.488C147.033 126.56 146.865 126.66 146.721 126.788C146.585 126.916 146.469 127.068 146.373 127.244C146.285 127.412 146.213 127.596 146.157 127.796L145.257 127.448C145.337 127.2 145.445 126.96 145.581 126.728C145.725 126.488 145.901 126.276 146.109 126.092C146.325 125.908 146.581 125.76 146.877 125.648C147.181 125.536 147.537 125.48 147.945 125.48C148.353 125.48 148.717 125.54 149.037 125.66C149.357 125.78 149.625 125.948 149.841 126.164C150.057 126.38 150.221 126.636 150.333 126.932C150.453 127.228 150.513 127.556 150.513 127.916C150.513 128.244 150.465 128.548 150.369 128.828C150.281 129.108 150.157 129.376 149.997 129.632C149.837 129.88 149.641 130.124 149.409 130.364C149.185 130.604 148.941 130.844 148.677 131.084L146.421 133.112H150.825V134Z"/><path fill="#121619" d="M202.07 17.87H197.996V22H196.148V12.228H197.996V16.232H202.07V12.228H203.918V22H202.07V17.87ZM206.034 18.626V16.848H210.039V18.626H206.034ZM218.645 22.616C218.645 22.9987 218.575 23.3347 218.435 23.624C218.305 23.9227 218.085 24.17 217.777 24.366C217.469 24.562 217.073 24.7113 216.587 24.814C216.102 24.9167 215.509 24.968 214.809 24.968C214.193 24.968 213.671 24.926 213.241 24.842C212.812 24.7673 212.457 24.6553 212.177 24.506C211.907 24.366 211.711 24.1887 211.589 23.974C211.468 23.7593 211.407 23.5167 211.407 23.246C211.407 22.8353 211.519 22.5133 211.743 22.28C211.977 22.056 212.299 21.9113 212.709 21.846V21.692C212.411 21.6173 212.177 21.4727 212.009 21.258C211.851 21.034 211.771 20.7727 211.771 20.474C211.771 20.2873 211.809 20.124 211.883 19.984C211.958 19.8347 212.056 19.7087 212.177 19.606C212.308 19.5033 212.453 19.4193 212.611 19.354C212.77 19.2793 212.938 19.2233 213.115 19.186V19.13C212.667 18.9247 212.331 18.64 212.107 18.276C211.893 17.912 211.785 17.4873 211.785 17.002C211.785 16.2553 212.042 15.658 212.555 15.21C213.069 14.7527 213.82 14.524 214.809 14.524C215.033 14.524 215.253 14.538 215.467 14.566C215.691 14.594 215.897 14.6407 216.083 14.706V14.468C216.083 13.7587 216.429 13.404 217.119 13.404H218.253V14.776H216.699V14.972C217.082 15.1867 217.367 15.4667 217.553 15.812C217.74 16.1573 217.833 16.554 217.833 17.002C217.833 17.7393 217.577 18.332 217.063 18.78C216.559 19.228 215.808 19.452 214.809 19.452C214.38 19.452 214.007 19.41 213.689 19.326C213.549 19.3913 213.428 19.48 213.325 19.592C213.223 19.6947 213.171 19.8253 213.171 19.984C213.171 20.348 213.489 20.53 214.123 20.53H216.083C216.979 20.53 217.628 20.7167 218.029 21.09C218.44 21.454 218.645 21.9627 218.645 22.616ZM216.965 22.826C216.965 22.5927 216.872 22.4107 216.685 22.28C216.499 22.1493 216.177 22.084 215.719 22.084H213.227C212.975 22.2707 212.849 22.5227 212.849 22.84C212.849 23.12 212.966 23.3393 213.199 23.498C213.433 23.6567 213.829 23.736 214.389 23.736H215.285C215.873 23.736 216.298 23.6613 216.559 23.512C216.83 23.3627 216.965 23.134 216.965 22.826ZM214.809 18.234C215.687 18.234 216.125 17.8607 216.125 17.114V16.876C216.125 16.1293 215.687 15.756 214.809 15.756C213.932 15.756 213.493 16.1293 213.493 16.876V17.114C213.493 17.8607 213.932 18.234 214.809 18.234ZM225.189 22C224.797 22 224.484 21.888 224.251 21.664C224.027 21.4307 223.887 21.1227 223.831 20.74H223.747C223.626 21.216 223.378 21.5753 223.005 21.818C222.632 22.0513 222.17 22.168 221.619 22.168C220.872 22.168 220.298 21.972 219.897 21.58C219.496 21.188 219.295 20.6653 219.295 20.012C219.295 19.256 219.566 18.696 220.107 18.332C220.648 17.9587 221.418 17.772 222.417 17.772H223.663V17.24C223.663 16.8293 223.556 16.512 223.341 16.288C223.126 16.064 222.781 15.952 222.305 15.952C221.885 15.952 221.544 16.0453 221.283 16.232C221.031 16.4093 220.816 16.624 220.639 16.876L219.575 15.924C219.846 15.504 220.205 15.168 220.653 14.916C221.101 14.6547 221.694 14.524 222.431 14.524C223.42 14.524 224.172 14.748 224.685 15.196C225.198 15.644 225.455 16.288 225.455 17.128V20.572H226.183V22H225.189ZM222.221 20.866C222.622 20.866 222.963 20.7773 223.243 20.6C223.523 20.4227 223.663 20.1613 223.663 19.816V18.85H222.515C221.582 18.85 221.115 19.1487 221.115 19.746V19.984C221.115 20.2827 221.208 20.5067 221.395 20.656C221.591 20.796 221.866 20.866 222.221 20.866ZM230.02 22C229.404 22 228.933 21.8413 228.606 21.524C228.289 21.1973 228.13 20.7353 228.13 20.138V16.12H227.052V14.692H227.612C227.883 14.692 228.065 14.6313 228.158 14.51C228.261 14.3793 228.312 14.188 228.312 13.936V12.69H229.922V14.692H231.42V16.12H229.922V20.572H231.308V22H230.02ZM236.034 22.168C235.493 22.168 235.007 22.0793 234.578 21.902C234.158 21.7153 233.799 21.4587 233.5 21.132C233.211 20.796 232.987 20.3947 232.828 19.928C232.669 19.452 232.59 18.92 232.59 18.332C232.59 17.7533 232.665 17.2307 232.814 16.764C232.973 16.2973 233.197 15.9007 233.486 15.574C233.775 15.238 234.13 14.9813 234.55 14.804C234.97 14.6173 235.446 14.524 235.978 14.524C236.547 14.524 237.042 14.622 237.462 14.818C237.882 15.014 238.227 15.28 238.498 15.616C238.769 15.952 238.969 16.344 239.1 16.792C239.24 17.2307 239.31 17.702 239.31 18.206V18.794H234.452V18.976C234.452 19.508 234.601 19.9373 234.9 20.264C235.199 20.5813 235.642 20.74 236.23 20.74C236.678 20.74 237.042 20.6467 237.322 20.46C237.611 20.2733 237.868 20.0353 238.092 19.746L239.058 20.824C238.759 21.244 238.349 21.5753 237.826 21.818C237.313 22.0513 236.715 22.168 236.034 22.168ZM236.006 15.868C235.53 15.868 235.152 16.0267 234.872 16.344C234.592 16.6613 234.452 17.072 234.452 17.576V17.688H237.448V17.562C237.448 17.058 237.322 16.652 237.07 16.344C236.827 16.0267 236.473 15.868 236.006 15.868ZM247.413 22.168C246.891 22.168 246.419 22.0793 245.999 21.902C245.589 21.7247 245.234 21.468 244.935 21.132C244.646 20.796 244.422 20.3947 244.263 19.928C244.105 19.452 244.025 18.92 244.025 18.332C244.025 17.744 244.105 17.2167 244.263 16.75C244.422 16.2833 244.646 15.8867 244.935 15.56C245.234 15.224 245.589 14.9673 245.999 14.79C246.419 14.6127 246.891 14.524 247.413 14.524C247.936 14.524 248.407 14.6127 248.827 14.79C249.247 14.9673 249.602 15.224 249.891 15.56C250.19 15.8867 250.419 16.2833 250.577 16.75C250.736 17.2167 250.815 17.744 250.815 18.332C250.815 18.92 250.736 19.452 250.577 19.928C250.419 20.3947 250.19 20.796 249.891 21.132C249.602 21.468 249.247 21.7247 248.827 21.902C248.407 22.0793 247.936 22.168 247.413 22.168ZM247.413 20.726C247.889 20.726 248.263 20.5813 248.533 20.292C248.804 20.0027 248.939 19.578 248.939 19.018V17.66C248.939 17.1093 248.804 16.6893 248.533 16.4C248.263 16.1107 247.889 15.966 247.413 15.966C246.947 15.966 246.578 16.1107 246.307 16.4C246.037 16.6893 245.901 17.1093 245.901 17.66V19.018C245.901 19.578 246.037 20.0027 246.307 20.292C246.578 20.5813 246.947 20.726 247.413 20.726ZM256.932 20.782H256.862C256.797 20.9687 256.708 21.146 256.596 21.314C256.493 21.4727 256.358 21.6173 256.19 21.748C256.031 21.8787 255.835 21.9813 255.602 22.056C255.378 22.1307 255.117 22.168 254.818 22.168C254.062 22.168 253.483 21.9207 253.082 21.426C252.681 20.9313 252.48 20.2267 252.48 19.312V14.692H254.272V19.13C254.272 19.634 254.37 20.0213 254.566 20.292C254.762 20.5533 255.075 20.684 255.504 20.684C255.681 20.684 255.854 20.6607 256.022 20.614C256.199 20.5673 256.353 20.4973 256.484 20.404C256.615 20.3013 256.722 20.18 256.806 20.04C256.89 19.8907 256.932 19.718 256.932 19.522V14.692H258.724V22H256.932V20.782ZM263.237 22C262.621 22 262.149 21.8413 261.823 21.524C261.505 21.1973 261.347 20.7353 261.347 20.138V16.12H260.269V14.692H260.829C261.099 14.692 261.281 14.6313 261.375 14.51C261.477 14.3793 261.529 14.188 261.529 13.936V12.69H263.139V14.692H264.637V16.12H263.139V20.572H264.525V22H263.237ZM266.351 14.692H268.143V15.896H268.199C268.33 15.476 268.577 15.1447 268.941 14.902C269.305 14.65 269.73 14.524 270.215 14.524C271.148 14.524 271.858 14.8553 272.343 15.518C272.838 16.1713 273.085 17.1093 273.085 18.332C273.085 19.564 272.838 20.5113 272.343 21.174C271.858 21.8367 271.148 22.168 270.215 22.168C269.73 22.168 269.305 22.042 268.941 21.79C268.586 21.538 268.339 21.202 268.199 20.782H268.143V24.8H266.351V14.692ZM269.641 20.684C270.108 20.684 270.486 20.53 270.775 20.222C271.064 19.914 271.209 19.4987 271.209 18.976V17.716C271.209 17.1933 271.064 16.778 270.775 16.47C270.486 16.1527 270.108 15.994 269.641 15.994C269.212 15.994 268.852 16.1013 268.563 16.316C268.283 16.5307 268.143 16.8153 268.143 17.17V19.494C268.143 19.8767 268.283 20.1707 268.563 20.376C268.852 20.5813 269.212 20.684 269.641 20.684ZM279.273 20.782H279.203C279.138 20.9687 279.049 21.146 278.937 21.314C278.835 21.4727 278.699 21.6173 278.531 21.748C278.373 21.8787 278.177 21.9813 277.943 22.056C277.719 22.1307 277.458 22.168 277.159 22.168C276.403 22.168 275.825 21.9207 275.423 21.426C275.022 20.9313 274.821 20.2267 274.821 19.312V14.692H276.613V19.13C276.613 19.634 276.711 20.0213 276.907 20.292C277.103 20.5533 277.416 20.684 277.845 20.684C278.023 20.684 278.195 20.6607 278.363 20.614C278.541 20.5673 278.695 20.4973 278.825 20.404C278.956 20.3013 279.063 20.18 279.147 20.04C279.231 19.8907 279.273 19.718 279.273 19.522V14.692H281.065V22H279.273V20.782ZM285.578 22C284.962 22 284.491 21.8413 284.164 21.524C283.847 21.1973 283.688 20.7353 283.688 20.138V16.12H282.61V14.692H283.17C283.441 14.692 283.623 14.6313 283.716 14.51C283.819 14.3793 283.87 14.188 283.87 13.936V12.69H285.48V14.692H286.978V16.12H285.48V20.572H286.866V22H285.578Z"/><path fill="#121619" d="M35.07 17.87H30.996V22H29.148V12.228H30.996V16.232H35.07V12.228H36.918V22H35.07V17.87ZM39.0345 18.626V16.848H43.0385V18.626H39.0345ZM51.6453 22.616C51.6453 22.9987 51.5753 23.3347 51.4353 23.624C51.3046 23.9227 51.0853 24.17 50.7773 24.366C50.4693 24.562 50.0726 24.7113 49.5873 24.814C49.102 24.9167 48.5093 24.968 47.8093 24.968C47.1933 24.968 46.6706 24.926 46.2413 24.842C45.812 24.7673 45.4573 24.6553 45.1773 24.506C44.9066 24.366 44.7106 24.1887 44.5893 23.974C44.468 23.7593 44.4073 23.5167 44.4073 23.246C44.4073 22.8353 44.5193 22.5133 44.7433 22.28C44.9766 22.056 45.2986 21.9113 45.7093 21.846V21.692C45.4106 21.6173 45.1773 21.4727 45.0093 21.258C44.8506 21.034 44.7713 20.7727 44.7713 20.474C44.7713 20.2873 44.8086 20.124 44.8833 19.984C44.958 19.8347 45.056 19.7087 45.1773 19.606C45.308 19.5033 45.4526 19.4193 45.6113 19.354C45.77 19.2793 45.938 19.2233 46.1153 19.186V19.13C45.6673 18.9247 45.3313 18.64 45.1073 18.276C44.8926 17.912 44.7853 17.4873 44.7853 17.002C44.7853 16.2553 45.042 15.658 45.5553 15.21C46.0686 14.7527 46.82 14.524 47.8093 14.524C48.0333 14.524 48.2526 14.538 48.4673 14.566C48.6913 14.594 48.8966 14.6407 49.0833 14.706V14.468C49.0833 13.7587 49.4286 13.404 50.1193 13.404H51.2533V14.776H49.6993V14.972C50.082 15.1867 50.3666 15.4667 50.5533 15.812C50.74 16.1573 50.8333 16.554 50.8333 17.002C50.8333 17.7393 50.5766 18.332 50.0633 18.78C49.5593 19.228 48.808 19.452 47.8093 19.452C47.38 19.452 47.0066 19.41 46.6893 19.326C46.5493 19.3913 46.428 19.48 46.3253 19.592C46.2226 19.6947 46.1713 19.8253 46.1713 19.984C46.1713 20.348 46.4886 20.53 47.1233 20.53H49.0833C49.9793 20.53 50.628 20.7167 51.0293 21.09C51.44 21.454 51.6453 21.9627 51.6453 22.616ZM49.9653 22.826C49.9653 22.5927 49.872 22.4107 49.6853 22.28C49.4986 22.1493 49.1766 22.084 48.7193 22.084H46.2273C45.9753 22.2707 45.8493 22.5227 45.8493 22.84C45.8493 23.12 45.966 23.3393 46.1993 23.498C46.4326 23.6567 46.8293 23.736 47.3893 23.736H48.2853C48.8733 23.736 49.298 23.6613 49.5593 23.512C49.83 23.3627 49.9653 23.134 49.9653 22.826ZM47.8093 18.234C48.6866 18.234 49.1253 17.8607 49.1253 17.114V16.876C49.1253 16.1293 48.6866 15.756 47.8093 15.756C46.932 15.756 46.4933 16.1293 46.4933 16.876V17.114C46.4933 17.8607 46.932 18.234 47.8093 18.234ZM58.1889 22C57.7969 22 57.4842 21.888 57.2509 21.664C57.0269 21.4307 56.8869 21.1227 56.8309 20.74H56.7469C56.6255 21.216 56.3782 21.5753 56.0049 21.818C55.6315 22.0513 55.1695 22.168 54.6189 22.168C53.8722 22.168 53.2982 21.972 52.8969 21.58C52.4955 21.188 52.2949 20.6653 52.2949 20.012C52.2949 19.256 52.5655 18.696 53.1069 18.332C53.6482 17.9587 54.4182 17.772 55.4169 17.772H56.6629V17.24C56.6629 16.8293 56.5555 16.512 56.3409 16.288C56.1262 16.064 55.7809 15.952 55.3049 15.952C54.8849 15.952 54.5442 16.0453 54.2829 16.232C54.0309 16.4093 53.8162 16.624 53.6389 16.876L52.5749 15.924C52.8455 15.504 53.2049 15.168 53.6529 14.916C54.1009 14.6547 54.6935 14.524 55.4309 14.524C56.4202 14.524 57.1715 14.748 57.6849 15.196C58.1982 15.644 58.4549 16.288 58.4549 17.128V20.572H59.1829V22H58.1889ZM55.2209 20.866C55.6222 20.866 55.9629 20.7773 56.2429 20.6C56.5229 20.4227 56.6629 20.1613 56.6629 19.816V18.85H55.5149C54.5815 18.85 54.1149 19.1487 54.1149 19.746V19.984C54.1149 20.2827 54.2082 20.5067 54.3949 20.656C54.5909 20.796 54.8662 20.866 55.2209 20.866ZM63.0205 22C62.4045 22 61.9332 21.8413 61.6065 21.524C61.2892 21.1973 61.1305 20.7353 61.1305 20.138V16.12H60.0525V14.692H60.6125C60.8832 14.692 61.0652 14.6313 61.1585 14.51C61.2612 14.3793 61.3125 14.188 61.3125 13.936V12.69H62.9225V14.692H64.4205V16.12H62.9225V20.572H64.3085V22H63.0205ZM69.0341 22.168C68.4928 22.168 68.0075 22.0793 67.5781 21.902C67.1581 21.7153 66.7988 21.4587 66.5001 21.132C66.2108 20.796 65.9868 20.3947 65.8281 19.928C65.6695 19.452 65.5901 18.92 65.5901 18.332C65.5901 17.7533 65.6648 17.2307 65.8141 16.764C65.9728 16.2973 66.1968 15.9007 66.4861 15.574C66.7755 15.238 67.1301 14.9813 67.5501 14.804C67.9701 14.6173 68.4461 14.524 68.9781 14.524C69.5475 14.524 70.0421 14.622 70.4621 14.818C70.8821 15.014 71.2275 15.28 71.4981 15.616C71.7688 15.952 71.9695 16.344 72.1001 16.792C72.2401 17.2307 72.3101 17.702 72.3101 18.206V18.794H67.4521V18.976C67.4521 19.508 67.6015 19.9373 67.9001 20.264C68.1988 20.5813 68.6421 20.74 69.2301 20.74C69.6781 20.74 70.0421 20.6467 70.3221 20.46C70.6115 20.2733 70.8681 20.0353 71.0921 19.746L72.0581 20.824C71.7595 21.244 71.3488 21.5753 70.8261 21.818C70.3128 22.0513 69.7155 22.168 69.0341 22.168ZM69.0061 15.868C68.5301 15.868 68.1521 16.0267 67.8721 16.344C67.5921 16.6613 67.4521 17.072 67.4521 17.576V17.688H70.4481V17.562C70.4481 17.058 70.3221 16.652 70.0701 16.344C69.8275 16.0267 69.4728 15.868 69.0061 15.868ZM78.4114 13.628C78.038 13.628 77.7674 13.544 77.5994 13.376C77.4407 13.208 77.3614 12.9933 77.3614 12.732V12.452C77.3614 12.1907 77.4407 11.976 77.5994 11.808C77.7674 11.64 78.038 11.556 78.4114 11.556C78.7754 11.556 79.0414 11.64 79.2094 11.808C79.3774 11.976 79.4614 12.1907 79.4614 12.452V12.732C79.4614 12.9933 79.3774 13.208 79.2094 13.376C79.0414 13.544 78.7754 13.628 78.4114 13.628ZM77.5154 14.692H79.3074V22H77.5154V14.692ZM81.5445 22V14.692H83.3365V15.91H83.4065C83.5558 15.518 83.7892 15.1913 84.1065 14.93C84.4332 14.6593 84.8812 14.524 85.4505 14.524C86.2065 14.524 86.7852 14.7713 87.1865 15.266C87.5878 15.7607 87.7885 16.4653 87.7885 17.38V22H85.9965V17.562C85.9965 17.0393 85.9032 16.6473 85.7165 16.386C85.5298 16.1247 85.2218 15.994 84.7925 15.994C84.6058 15.994 84.4238 16.022 84.2465 16.078C84.0785 16.1247 83.9245 16.1993 83.7845 16.302C83.6538 16.3953 83.5465 16.5167 83.4625 16.666C83.3785 16.806 83.3365 16.974 83.3365 17.17V22H81.5445ZM89.935 14.692H91.727V15.896H91.783C91.9136 15.476 92.161 15.1447 92.525 14.902C92.889 14.65 93.3136 14.524 93.799 14.524C94.7323 14.524 95.4416 14.8553 95.927 15.518C96.4216 16.1713 96.669 17.1093 96.669 18.332C96.669 19.564 96.4216 20.5113 95.927 21.174C95.4416 21.8367 94.7323 22.168 93.799 22.168C93.3136 22.168 92.889 22.042 92.525 21.79C92.1703 21.538 91.923 21.202 91.783 20.782H91.727V24.8H89.935V14.692ZM93.225 20.684C93.6916 20.684 94.0696 20.53 94.359 20.222C94.6483 19.914 94.793 19.4987 94.793 18.976V17.716C94.793 17.1933 94.6483 16.778 94.359 16.47C94.0696 16.1527 93.6916 15.994 93.225 15.994C92.7956 15.994 92.4363 16.1013 92.147 16.316C91.867 16.5307 91.727 16.8153 91.727 17.17V19.494C91.727 19.8767 91.867 20.1707 92.147 20.376C92.4363 20.5813 92.7956 20.684 93.225 20.684ZM102.858 20.782H102.788C102.722 20.9687 102.634 21.146 102.522 21.314C102.419 21.4727 102.284 21.6173 102.116 21.748C101.957 21.8787 101.761 21.9813 101.528 22.056C101.304 22.1307 101.042 22.168 100.744 22.168C99.9875 22.168 99.4088 21.9207 99.0075 21.426C98.6062 20.9313 98.4055 20.2267 98.4055 19.312V14.692H100.198V19.13C100.198 19.634 100.296 20.0213 100.492 20.292C100.688 20.5533 101 20.684 101.43 20.684C101.607 20.684 101.78 20.6607 101.948 20.614C102.125 20.5673 102.279 20.4973 102.41 20.404C102.54 20.3013 102.648 20.18 102.732 20.04C102.816 19.8907 102.858 19.718 102.858 19.522V14.692H104.65V22H102.858V20.782ZM109.162 22C108.546 22 108.075 21.8413 107.748 21.524C107.431 21.1973 107.272 20.7353 107.272 20.138V16.12H106.194V14.692H106.754C107.025 14.692 107.207 14.6313 107.3 14.51C107.403 14.3793 107.454 14.188 107.454 13.936V12.69H109.064V14.692H110.562V16.12H109.064V20.572H110.45V22H109.162Z"/><line x1="178.5" x2="178.5" y2="174" stroke="#DDE1E6"/><path stroke="#343A3F" d="M129.5 143.5H121H114V143.5C111.651 143.5 109.746 141.596 109.746 139.246V78.5C109.746 75.7386 107.508 73.5 104.746 73.5L101.5 73.5H93"/><path fill="#343A3F" d="M190 75L194 73.5L190 72V75Z"/><line x1="190" x2="86" y1="73.5" y2="73.5" stroke="#343A3F"/><path fill="#343A3F" d="M190 145L194 143.5L190 142V145Z"/><line x1="190" x2="127" y1="143.5" y2="143.5" stroke="#343A3F"/></svg>