<svg xmlns="http://www.w3.org/2000/svg" width="576" height="291" fill="none" viewBox="0 0 576 291"><rect width="575" height="291" fill="#fff"/><rect width="191" height="291" x="1" fill="#F2F4F8" opacity=".4"/><rect width="191" height="291" x="384" fill="#F2F4F8" opacity=".4"/><rect width="575" height="290" x=".5" y=".5" stroke="#DDE1E6"/><path fill="#121619" d="M50.18 78.656V67.88H51.02V78.656H50.18ZM58.1153 77.144C57.6033 77.144 57.1633 77.048 56.7953 76.856C56.4273 76.656 56.1233 76.372 55.8833 76.004C55.6433 75.636 55.4673 75.184 55.3553 74.648C55.2433 74.112 55.1873 73.5 55.1873 72.812C55.1873 72.132 55.2433 71.524 55.3553 70.988C55.4673 70.444 55.6433 69.988 55.8833 69.62C56.1233 69.252 56.4273 68.972 56.7953 68.78C57.1633 68.58 57.6033 68.48 58.1153 68.48C58.6273 68.48 59.0673 68.58 59.4353 68.78C59.8033 68.972 60.1073 69.252 60.3473 69.62C60.5873 69.988 60.7633 70.444 60.8753 70.988C60.9873 71.524 61.0433 72.132 61.0433 72.812C61.0433 73.5 60.9873 74.112 60.8753 74.648C60.7633 75.184 60.5873 75.636 60.3473 76.004C60.1073 76.372 59.8033 76.656 59.4353 76.856C59.0673 77.048 58.6273 77.144 58.1153 77.144ZM58.1153 76.268C58.4513 76.268 58.7393 76.204 58.9793 76.076C59.2193 75.94 59.4113 75.752 59.5553 75.512C59.7073 75.272 59.8193 74.984 59.8913 74.648C59.9633 74.304 59.9993 73.92 59.9993 73.496V72.128C59.9993 71.712 59.9633 71.332 59.8913 70.988C59.8193 70.644 59.7073 70.352 59.5553 70.112C59.4113 69.872 59.2193 69.688 58.9793 69.56C58.7393 69.424 58.4513 69.356 58.1153 69.356C57.7793 69.356 57.4913 69.424 57.2513 69.56C57.0113 69.688 56.8153 69.872 56.6633 70.112C56.5193 70.352 56.4113 70.644 56.3393 70.988C56.2673 71.332 56.2313 71.712 56.2313 72.128V73.496C56.2313 73.92 56.2673 74.304 56.3393 74.648C56.4113 74.984 56.5193 75.272 56.6633 75.512C56.8153 75.752 57.0113 75.94 57.2513 76.076C57.4913 76.204 57.7793 76.268 58.1153 76.268ZM58.1153 73.52C57.8353 73.52 57.6393 73.464 57.5273 73.352C57.4233 73.24 57.3713 73.104 57.3713 72.944V72.68C57.3713 72.52 57.4233 72.384 57.5273 72.272C57.6393 72.16 57.8353 72.104 58.1153 72.104C58.3953 72.104 58.5873 72.16 58.6913 72.272C58.8033 72.384 58.8593 72.52 58.8593 72.68V72.944C58.8593 73.104 58.8033 73.24 58.6913 73.352C58.5873 73.464 58.3953 73.52 58.1153 73.52ZM63.0506 75.812L67.3106 73.4V73.304L63.0506 70.892V69.872L68.2106 72.86V73.82L63.0506 76.808V75.812Z"/><path fill="#121619" d="M227.18 78.656V67.88H228.02V78.656H227.18ZM235.115 77.144C234.603 77.144 234.163 77.048 233.795 76.856C233.427 76.656 233.123 76.372 232.883 76.004C232.643 75.636 232.467 75.184 232.355 74.648C232.243 74.112 232.187 73.5 232.187 72.812C232.187 72.132 232.243 71.524 232.355 70.988C232.467 70.444 232.643 69.988 232.883 69.62C233.123 69.252 233.427 68.972 233.795 68.78C234.163 68.58 234.603 68.48 235.115 68.48C235.627 68.48 236.067 68.58 236.435 68.78C236.803 68.972 237.107 69.252 237.347 69.62C237.587 69.988 237.763 70.444 237.875 70.988C237.987 71.524 238.043 72.132 238.043 72.812C238.043 73.5 237.987 74.112 237.875 74.648C237.763 75.184 237.587 75.636 237.347 76.004C237.107 76.372 236.803 76.656 236.435 76.856C236.067 77.048 235.627 77.144 235.115 77.144ZM235.115 76.268C235.451 76.268 235.739 76.204 235.979 76.076C236.219 75.94 236.411 75.752 236.555 75.512C236.707 75.272 236.819 74.984 236.891 74.648C236.963 74.304 236.999 73.92 236.999 73.496V72.128C236.999 71.712 236.963 71.332 236.891 70.988C236.819 70.644 236.707 70.352 236.555 70.112C236.411 69.872 236.219 69.688 235.979 69.56C235.739 69.424 235.451 69.356 235.115 69.356C234.779 69.356 234.491 69.424 234.251 69.56C234.011 69.688 233.815 69.872 233.663 70.112C233.519 70.352 233.411 70.644 233.339 70.988C233.267 71.332 233.231 71.712 233.231 72.128V73.496C233.231 73.92 233.267 74.304 233.339 74.648C233.411 74.984 233.519 75.272 233.663 75.512C233.815 75.752 234.011 75.94 234.251 76.076C234.491 76.204 234.779 76.268 235.115 76.268ZM235.115 73.52C234.835 73.52 234.639 73.464 234.527 73.352C234.423 73.24 234.371 73.104 234.371 72.944V72.68C234.371 72.52 234.423 72.384 234.527 72.272C234.639 72.16 234.835 72.104 235.115 72.104C235.395 72.104 235.587 72.16 235.691 72.272C235.803 72.384 235.859 72.52 235.859 72.68V72.944C235.859 73.104 235.803 73.24 235.691 73.352C235.587 73.464 235.395 73.52 235.115 73.52ZM240.051 75.812L244.311 73.4V73.304L240.051 70.892V69.872L245.211 72.86V73.82L240.051 76.808V75.812Z"/><path fill="#121619" d="M419.18 78.656V67.88H420.02V78.656H419.18ZM427.115 77.144C426.603 77.144 426.163 77.048 425.795 76.856C425.427 76.656 425.123 76.372 424.883 76.004C424.643 75.636 424.467 75.184 424.355 74.648C424.243 74.112 424.187 73.5 424.187 72.812C424.187 72.132 424.243 71.524 424.355 70.988C424.467 70.444 424.643 69.988 424.883 69.62C425.123 69.252 425.427 68.972 425.795 68.78C426.163 68.58 426.603 68.48 427.115 68.48C427.627 68.48 428.067 68.58 428.435 68.78C428.803 68.972 429.107 69.252 429.347 69.62C429.587 69.988 429.763 70.444 429.875 70.988C429.987 71.524 430.043 72.132 430.043 72.812C430.043 73.5 429.987 74.112 429.875 74.648C429.763 75.184 429.587 75.636 429.347 76.004C429.107 76.372 428.803 76.656 428.435 76.856C428.067 77.048 427.627 77.144 427.115 77.144ZM427.115 76.268C427.451 76.268 427.739 76.204 427.979 76.076C428.219 75.94 428.411 75.752 428.555 75.512C428.707 75.272 428.819 74.984 428.891 74.648C428.963 74.304 428.999 73.92 428.999 73.496V72.128C428.999 71.712 428.963 71.332 428.891 70.988C428.819 70.644 428.707 70.352 428.555 70.112C428.411 69.872 428.219 69.688 427.979 69.56C427.739 69.424 427.451 69.356 427.115 69.356C426.779 69.356 426.491 69.424 426.251 69.56C426.011 69.688 425.815 69.872 425.663 70.112C425.519 70.352 425.411 70.644 425.339 70.988C425.267 71.332 425.231 71.712 425.231 72.128V73.496C425.231 73.92 425.267 74.304 425.339 74.648C425.411 74.984 425.519 75.272 425.663 75.512C425.815 75.752 426.011 75.94 426.251 76.076C426.491 76.204 426.779 76.268 427.115 76.268ZM427.115 73.52C426.835 73.52 426.639 73.464 426.527 73.352C426.423 73.24 426.371 73.104 426.371 72.944V72.68C426.371 72.52 426.423 72.384 426.527 72.272C426.639 72.16 426.835 72.104 427.115 72.104C427.395 72.104 427.587 72.16 427.691 72.272C427.803 72.384 427.859 72.52 427.859 72.68V72.944C427.859 73.104 427.803 73.24 427.691 73.352C427.587 73.464 427.395 73.52 427.115 73.52ZM432.051 75.812L436.311 73.4V73.304L432.051 70.892V69.872L437.211 72.86V73.82L432.051 76.808V75.812Z"/><path fill="#121619" d="M419.18 198.656V187.88H420.02V198.656H419.18ZM427.115 197.144C426.603 197.144 426.163 197.048 425.795 196.856C425.427 196.656 425.123 196.372 424.883 196.004C424.643 195.636 424.467 195.184 424.355 194.648C424.243 194.112 424.187 193.5 424.187 192.812C424.187 192.132 424.243 191.524 424.355 190.988C424.467 190.444 424.643 189.988 424.883 189.62C425.123 189.252 425.427 188.972 425.795 188.78C426.163 188.58 426.603 188.48 427.115 188.48C427.627 188.48 428.067 188.58 428.435 188.78C428.803 188.972 429.107 189.252 429.347 189.62C429.587 189.988 429.763 190.444 429.875 190.988C429.987 191.524 430.043 192.132 430.043 192.812C430.043 193.5 429.987 194.112 429.875 194.648C429.763 195.184 429.587 195.636 429.347 196.004C429.107 196.372 428.803 196.656 428.435 196.856C428.067 197.048 427.627 197.144 427.115 197.144ZM427.115 196.268C427.451 196.268 427.739 196.204 427.979 196.076C428.219 195.94 428.411 195.752 428.555 195.512C428.707 195.272 428.819 194.984 428.891 194.648C428.963 194.304 428.999 193.92 428.999 193.496V192.128C428.999 191.712 428.963 191.332 428.891 190.988C428.819 190.644 428.707 190.352 428.555 190.112C428.411 189.872 428.219 189.688 427.979 189.56C427.739 189.424 427.451 189.356 427.115 189.356C426.779 189.356 426.491 189.424 426.251 189.56C426.011 189.688 425.815 189.872 425.663 190.112C425.519 190.352 425.411 190.644 425.339 190.988C425.267 191.332 425.231 191.712 425.231 192.128V193.496C425.231 193.92 425.267 194.304 425.339 194.648C425.411 194.984 425.519 195.272 425.663 195.512C425.815 195.752 426.011 195.94 426.251 196.076C426.491 196.204 426.779 196.268 427.115 196.268ZM427.115 193.52C426.835 193.52 426.639 193.464 426.527 193.352C426.423 193.24 426.371 193.104 426.371 192.944V192.68C426.371 192.52 426.423 192.384 426.527 192.272C426.639 192.16 426.835 192.104 427.115 192.104C427.395 192.104 427.587 192.16 427.691 192.272C427.803 192.384 427.859 192.52 427.859 192.68V192.944C427.859 193.104 427.803 193.24 427.691 193.352C427.587 193.464 427.395 193.52 427.115 193.52ZM432.051 195.812L436.311 193.4V193.304L432.051 190.892V189.872L437.211 192.86V193.82L432.051 196.808V195.812Z"/><path fill="#121619" d="M227.18 199.656V188.88H228.02V199.656H227.18ZM232.535 198V197.124H234.935V190.368H234.851L232.739 192.336L232.151 191.7L234.371 189.624H235.943V197.124H238.151V198H232.535ZM240.051 196.812L244.311 194.4V194.304L240.051 191.892V190.872L245.211 193.86V194.82L240.051 197.808V196.812Z"/><path fill="#121619" d="M419.18 139.656V128.88H420.02V139.656H419.18ZM424.535 138V137.124H426.935V130.368H426.851L424.739 132.336L424.151 131.7L426.371 129.624H427.943V137.124H430.151V138H424.535ZM432.051 136.812L436.311 134.4V134.304L432.051 131.892V130.872L437.211 133.86V134.82L432.051 137.808V136.812Z"/><path fill="#121619" d="M419.18 261.656V250.88H420.02V261.656H419.18ZM424.535 260V259.124H426.935V252.368H426.851L424.739 254.336L424.151 253.7L426.371 251.624H427.943V259.124H430.151V260H424.535ZM432.051 258.812L436.311 256.4V256.304L432.051 253.892V252.872L437.211 255.86V256.82L432.051 259.808V258.812Z"/><path fill="#DA1E28" d="M148.148 63.504V61.536C148.804 61.504 149.316 61.344 149.684 61.056C150.06 60.768 150.248 60.372 150.248 59.868V59.7C150.248 59.292 150.12 58.968 149.864 58.728C149.608 58.48 149.264 58.356 148.832 58.356C148.368 58.356 147.996 58.488 147.716 58.752C147.444 59.016 147.26 59.352 147.164 59.76L146.276 59.424C146.348 59.168 146.452 58.924 146.588 58.692C146.732 58.452 146.908 58.244 147.116 58.068C147.332 57.884 147.584 57.74 147.872 57.636C148.16 57.532 148.492 57.48 148.868 57.48C149.612 57.48 150.2 57.684 150.632 58.092C151.064 58.5 151.28 59.052 151.28 59.748C151.28 60.132 151.212 60.468 151.076 60.756C150.948 61.036 150.78 61.276 150.572 61.476C150.364 61.676 150.128 61.836 149.864 61.956C149.6 62.076 149.336 62.16 149.072 62.208V63.504H148.148ZM148.616 66.144C148.36 66.144 148.172 66.08 148.052 65.952C147.94 65.824 147.884 65.656 147.884 65.448V65.292C147.884 65.084 147.94 64.916 148.052 64.788C148.172 64.66 148.36 64.596 148.616 64.596C148.872 64.596 149.056 64.66 149.168 64.788C149.288 64.916 149.348 65.084 149.348 65.292V65.448C149.348 65.656 149.288 65.824 149.168 65.952C149.056 66.08 148.872 66.144 148.616 66.144ZM154.187 63.504V61.536C154.843 61.504 155.355 61.344 155.723 61.056C156.099 60.768 156.287 60.372 156.287 59.868V59.7C156.287 59.292 156.159 58.968 155.903 58.728C155.647 58.48 155.303 58.356 154.871 58.356C154.407 58.356 154.035 58.488 153.755 58.752C153.483 59.016 153.299 59.352 153.203 59.76L152.315 59.424C152.387 59.168 152.491 58.924 152.627 58.692C152.771 58.452 152.947 58.244 153.155 58.068C153.371 57.884 153.623 57.74 153.911 57.636C154.199 57.532 154.531 57.48 154.907 57.48C155.651 57.48 156.239 57.684 156.671 58.092C157.103 58.5 157.319 59.052 157.319 59.748C157.319 60.132 157.251 60.468 157.115 60.756C156.987 61.036 156.819 61.276 156.611 61.476C156.403 61.676 156.167 61.836 155.903 61.956C155.639 62.076 155.375 62.16 155.111 62.208V63.504H154.187ZM154.655 66.144C154.399 66.144 154.211 66.08 154.091 65.952C153.979 65.824 153.923 65.656 153.923 65.448V65.292C153.923 65.084 153.979 64.916 154.091 64.788C154.211 64.66 154.399 64.596 154.655 64.596C154.911 64.596 155.095 64.66 155.207 64.788C155.327 64.916 155.387 65.084 155.387 65.292V65.448C155.387 65.656 155.327 65.824 155.207 65.952C155.095 66.08 154.911 66.144 154.655 66.144ZM160.226 63.504V61.536C160.882 61.504 161.394 61.344 161.762 61.056C162.138 60.768 162.326 60.372 162.326 59.868V59.7C162.326 59.292 162.198 58.968 161.942 58.728C161.686 58.48 161.342 58.356 160.91 58.356C160.446 58.356 160.074 58.488 159.794 58.752C159.522 59.016 159.338 59.352 159.242 59.76L158.354 59.424C158.426 59.168 158.53 58.924 158.666 58.692C158.81 58.452 158.986 58.244 159.194 58.068C159.41 57.884 159.662 57.74 159.95 57.636C160.238 57.532 160.57 57.48 160.946 57.48C161.69 57.48 162.278 57.684 162.71 58.092C163.142 58.5 163.358 59.052 163.358 59.748C163.358 60.132 163.29 60.468 163.154 60.756C163.026 61.036 162.858 61.276 162.65 61.476C162.442 61.676 162.206 61.836 161.942 61.956C161.678 62.076 161.414 62.16 161.15 62.208V63.504H160.226ZM160.694 66.144C160.438 66.144 160.25 66.08 160.13 65.952C160.018 65.824 159.962 65.656 159.962 65.448V65.292C159.962 65.084 160.018 64.916 160.13 64.788C160.25 64.66 160.438 64.596 160.694 64.596C160.95 64.596 161.134 64.66 161.246 64.788C161.366 64.916 161.426 65.084 161.426 65.292V65.448C161.426 65.656 161.366 65.824 161.246 65.952C161.134 66.08 160.95 66.144 160.694 66.144Z"/><path fill="#DA1E28" d="M340.148 63.504V61.536C340.804 61.504 341.316 61.344 341.684 61.056C342.06 60.768 342.248 60.372 342.248 59.868V59.7C342.248 59.292 342.12 58.968 341.864 58.728C341.608 58.48 341.264 58.356 340.832 58.356C340.368 58.356 339.996 58.488 339.716 58.752C339.444 59.016 339.26 59.352 339.164 59.76L338.276 59.424C338.348 59.168 338.452 58.924 338.588 58.692C338.732 58.452 338.908 58.244 339.116 58.068C339.332 57.884 339.584 57.74 339.872 57.636C340.16 57.532 340.492 57.48 340.868 57.48C341.612 57.48 342.2 57.684 342.632 58.092C343.064 58.5 343.28 59.052 343.28 59.748C343.28 60.132 343.212 60.468 343.076 60.756C342.948 61.036 342.78 61.276 342.572 61.476C342.364 61.676 342.128 61.836 341.864 61.956C341.6 62.076 341.336 62.16 341.072 62.208V63.504H340.148ZM340.616 66.144C340.36 66.144 340.172 66.08 340.052 65.952C339.94 65.824 339.884 65.656 339.884 65.448V65.292C339.884 65.084 339.94 64.916 340.052 64.788C340.172 64.66 340.36 64.596 340.616 64.596C340.872 64.596 341.056 64.66 341.168 64.788C341.288 64.916 341.348 65.084 341.348 65.292V65.448C341.348 65.656 341.288 65.824 341.168 65.952C341.056 66.08 340.872 66.144 340.616 66.144ZM346.187 63.504V61.536C346.843 61.504 347.355 61.344 347.723 61.056C348.099 60.768 348.287 60.372 348.287 59.868V59.7C348.287 59.292 348.159 58.968 347.903 58.728C347.647 58.48 347.303 58.356 346.871 58.356C346.407 58.356 346.035 58.488 345.755 58.752C345.483 59.016 345.299 59.352 345.203 59.76L344.315 59.424C344.387 59.168 344.491 58.924 344.627 58.692C344.771 58.452 344.947 58.244 345.155 58.068C345.371 57.884 345.623 57.74 345.911 57.636C346.199 57.532 346.531 57.48 346.907 57.48C347.651 57.48 348.239 57.684 348.671 58.092C349.103 58.5 349.319 59.052 349.319 59.748C349.319 60.132 349.251 60.468 349.115 60.756C348.987 61.036 348.819 61.276 348.611 61.476C348.403 61.676 348.167 61.836 347.903 61.956C347.639 62.076 347.375 62.16 347.111 62.208V63.504H346.187ZM346.655 66.144C346.399 66.144 346.211 66.08 346.091 65.952C345.979 65.824 345.923 65.656 345.923 65.448V65.292C345.923 65.084 345.979 64.916 346.091 64.788C346.211 64.66 346.399 64.596 346.655 64.596C346.911 64.596 347.095 64.66 347.207 64.788C347.327 64.916 347.387 65.084 347.387 65.292V65.448C347.387 65.656 347.327 65.824 347.207 65.952C347.095 66.08 346.911 66.144 346.655 66.144ZM352.226 63.504V61.536C352.882 61.504 353.394 61.344 353.762 61.056C354.138 60.768 354.326 60.372 354.326 59.868V59.7C354.326 59.292 354.198 58.968 353.942 58.728C353.686 58.48 353.342 58.356 352.91 58.356C352.446 58.356 352.074 58.488 351.794 58.752C351.522 59.016 351.338 59.352 351.242 59.76L350.354 59.424C350.426 59.168 350.53 58.924 350.666 58.692C350.81 58.452 350.986 58.244 351.194 58.068C351.41 57.884 351.662 57.74 351.95 57.636C352.238 57.532 352.57 57.48 352.946 57.48C353.69 57.48 354.278 57.684 354.71 58.092C355.142 58.5 355.358 59.052 355.358 59.748C355.358 60.132 355.29 60.468 355.154 60.756C355.026 61.036 354.858 61.276 354.65 61.476C354.442 61.676 354.206 61.836 353.942 61.956C353.678 62.076 353.414 62.16 353.15 62.208V63.504H352.226ZM352.694 66.144C352.438 66.144 352.25 66.08 352.13 65.952C352.018 65.824 351.962 65.656 351.962 65.448V65.292C351.962 65.084 352.018 64.916 352.13 64.788C352.25 64.66 352.438 64.596 352.694 64.596C352.95 64.596 353.134 64.66 353.246 64.788C353.366 64.916 353.426 65.084 353.426 65.292V65.448C353.426 65.656 353.366 65.824 353.246 65.952C353.134 66.08 352.95 66.144 352.694 66.144Z"/><path fill="#DA1E28" d="M340.148 183.504V181.536C340.804 181.504 341.316 181.344 341.684 181.056C342.06 180.768 342.248 180.372 342.248 179.868V179.7C342.248 179.292 342.12 178.968 341.864 178.728C341.608 178.48 341.264 178.356 340.832 178.356C340.368 178.356 339.996 178.488 339.716 178.752C339.444 179.016 339.26 179.352 339.164 179.76L338.276 179.424C338.348 179.168 338.452 178.924 338.588 178.692C338.732 178.452 338.908 178.244 339.116 178.068C339.332 177.884 339.584 177.74 339.872 177.636C340.16 177.532 340.492 177.48 340.868 177.48C341.612 177.48 342.2 177.684 342.632 178.092C343.064 178.5 343.28 179.052 343.28 179.748C343.28 180.132 343.212 180.468 343.076 180.756C342.948 181.036 342.78 181.276 342.572 181.476C342.364 181.676 342.128 181.836 341.864 181.956C341.6 182.076 341.336 182.16 341.072 182.208V183.504H340.148ZM340.616 186.144C340.36 186.144 340.172 186.08 340.052 185.952C339.94 185.824 339.884 185.656 339.884 185.448V185.292C339.884 185.084 339.94 184.916 340.052 184.788C340.172 184.66 340.36 184.596 340.616 184.596C340.872 184.596 341.056 184.66 341.168 184.788C341.288 184.916 341.348 185.084 341.348 185.292V185.448C341.348 185.656 341.288 185.824 341.168 185.952C341.056 186.08 340.872 186.144 340.616 186.144ZM346.187 183.504V181.536C346.843 181.504 347.355 181.344 347.723 181.056C348.099 180.768 348.287 180.372 348.287 179.868V179.7C348.287 179.292 348.159 178.968 347.903 178.728C347.647 178.48 347.303 178.356 346.871 178.356C346.407 178.356 346.035 178.488 345.755 178.752C345.483 179.016 345.299 179.352 345.203 179.76L344.315 179.424C344.387 179.168 344.491 178.924 344.627 178.692C344.771 178.452 344.947 178.244 345.155 178.068C345.371 177.884 345.623 177.74 345.911 177.636C346.199 177.532 346.531 177.48 346.907 177.48C347.651 177.48 348.239 177.684 348.671 178.092C349.103 178.5 349.319 179.052 349.319 179.748C349.319 180.132 349.251 180.468 349.115 180.756C348.987 181.036 348.819 181.276 348.611 181.476C348.403 181.676 348.167 181.836 347.903 181.956C347.639 182.076 347.375 182.16 347.111 182.208V183.504H346.187ZM346.655 186.144C346.399 186.144 346.211 186.08 346.091 185.952C345.979 185.824 345.923 185.656 345.923 185.448V185.292C345.923 185.084 345.979 184.916 346.091 184.788C346.211 184.66 346.399 184.596 346.655 184.596C346.911 184.596 347.095 184.66 347.207 184.788C347.327 184.916 347.387 185.084 347.387 185.292V185.448C347.387 185.656 347.327 185.824 347.207 185.952C347.095 186.08 346.911 186.144 346.655 186.144ZM352.226 183.504V181.536C352.882 181.504 353.394 181.344 353.762 181.056C354.138 180.768 354.326 180.372 354.326 179.868V179.7C354.326 179.292 354.198 178.968 353.942 178.728C353.686 178.48 353.342 178.356 352.91 178.356C352.446 178.356 352.074 178.488 351.794 178.752C351.522 179.016 351.338 179.352 351.242 179.76L350.354 179.424C350.426 179.168 350.53 178.924 350.666 178.692C350.81 178.452 350.986 178.244 351.194 178.068C351.41 177.884 351.662 177.74 351.95 177.636C352.238 177.532 352.57 177.48 352.946 177.48C353.69 177.48 354.278 177.684 354.71 178.092C355.142 178.5 355.358 179.052 355.358 179.748C355.358 180.132 355.29 180.468 355.154 180.756C355.026 181.036 354.858 181.276 354.65 181.476C354.442 181.676 354.206 181.836 353.942 181.956C353.678 182.076 353.414 182.16 353.15 182.208V183.504H352.226ZM352.694 186.144C352.438 186.144 352.25 186.08 352.13 185.952C352.018 185.824 351.962 185.656 351.962 185.448V185.292C351.962 185.084 352.018 184.916 352.13 184.788C352.25 184.66 352.438 184.596 352.694 184.596C352.95 184.596 353.134 184.66 353.246 184.788C353.366 184.916 353.426 185.084 353.426 185.292V185.448C353.426 185.656 353.366 185.824 353.246 185.952C353.134 186.08 352.95 186.144 352.694 186.144Z"/><path fill="#DA1E28" d="M150.148 180.504V178.536C150.804 178.504 151.316 178.344 151.684 178.056C152.06 177.768 152.248 177.372 152.248 176.868V176.7C152.248 176.292 152.12 175.968 151.864 175.728C151.608 175.48 151.264 175.356 150.832 175.356C150.368 175.356 149.996 175.488 149.716 175.752C149.444 176.016 149.26 176.352 149.164 176.76L148.276 176.424C148.348 176.168 148.452 175.924 148.588 175.692C148.732 175.452 148.908 175.244 149.116 175.068C149.332 174.884 149.584 174.74 149.872 174.636C150.16 174.532 150.492 174.48 150.868 174.48C151.612 174.48 152.2 174.684 152.632 175.092C153.064 175.5 153.28 176.052 153.28 176.748C153.28 177.132 153.212 177.468 153.076 177.756C152.948 178.036 152.78 178.276 152.572 178.476C152.364 178.676 152.128 178.836 151.864 178.956C151.6 179.076 151.336 179.16 151.072 179.208V180.504H150.148ZM150.616 183.144C150.36 183.144 150.172 183.08 150.052 182.952C149.94 182.824 149.884 182.656 149.884 182.448V182.292C149.884 182.084 149.94 181.916 150.052 181.788C150.172 181.66 150.36 181.596 150.616 181.596C150.872 181.596 151.056 181.66 151.168 181.788C151.288 181.916 151.348 182.084 151.348 182.292V182.448C151.348 182.656 151.288 182.824 151.168 182.952C151.056 183.08 150.872 183.144 150.616 183.144ZM156.187 180.504V178.536C156.843 178.504 157.355 178.344 157.723 178.056C158.099 177.768 158.287 177.372 158.287 176.868V176.7C158.287 176.292 158.159 175.968 157.903 175.728C157.647 175.48 157.303 175.356 156.871 175.356C156.407 175.356 156.035 175.488 155.755 175.752C155.483 176.016 155.299 176.352 155.203 176.76L154.315 176.424C154.387 176.168 154.491 175.924 154.627 175.692C154.771 175.452 154.947 175.244 155.155 175.068C155.371 174.884 155.623 174.74 155.911 174.636C156.199 174.532 156.531 174.48 156.907 174.48C157.651 174.48 158.239 174.684 158.671 175.092C159.103 175.5 159.319 176.052 159.319 176.748C159.319 177.132 159.251 177.468 159.115 177.756C158.987 178.036 158.819 178.276 158.611 178.476C158.403 178.676 158.167 178.836 157.903 178.956C157.639 179.076 157.375 179.16 157.111 179.208V180.504H156.187ZM156.655 183.144C156.399 183.144 156.211 183.08 156.091 182.952C155.979 182.824 155.923 182.656 155.923 182.448V182.292C155.923 182.084 155.979 181.916 156.091 181.788C156.211 181.66 156.399 181.596 156.655 181.596C156.911 181.596 157.095 181.66 157.207 181.788C157.327 181.916 157.387 182.084 157.387 182.292V182.448C157.387 182.656 157.327 182.824 157.207 182.952C157.095 183.08 156.911 183.144 156.655 183.144ZM162.226 180.504V178.536C162.882 178.504 163.394 178.344 163.762 178.056C164.138 177.768 164.326 177.372 164.326 176.868V176.7C164.326 176.292 164.198 175.968 163.942 175.728C163.686 175.48 163.342 175.356 162.91 175.356C162.446 175.356 162.074 175.488 161.794 175.752C161.522 176.016 161.338 176.352 161.242 176.76L160.354 176.424C160.426 176.168 160.53 175.924 160.666 175.692C160.81 175.452 160.986 175.244 161.194 175.068C161.41 174.884 161.662 174.74 161.95 174.636C162.238 174.532 162.57 174.48 162.946 174.48C163.69 174.48 164.278 174.684 164.71 175.092C165.142 175.5 165.358 176.052 165.358 176.748C165.358 177.132 165.29 177.468 165.154 177.756C165.026 178.036 164.858 178.276 164.65 178.476C164.442 178.676 164.206 178.836 163.942 178.956C163.678 179.076 163.414 179.16 163.15 179.208V180.504H162.226ZM162.694 183.144C162.438 183.144 162.25 183.08 162.13 182.952C162.018 182.824 161.962 182.656 161.962 182.448V182.292C161.962 182.084 162.018 181.916 162.13 181.788C162.25 181.66 162.438 181.596 162.694 181.596C162.95 181.596 163.134 181.66 163.246 181.788C163.366 181.916 163.426 182.084 163.426 182.292V182.448C163.426 182.656 163.366 182.824 163.246 182.952C163.134 183.08 162.95 183.144 162.694 183.144Z"/><path fill="#DA1E28" d="M340.148 123.504V121.536C340.804 121.504 341.316 121.344 341.684 121.056C342.06 120.768 342.248 120.372 342.248 119.868V119.7C342.248 119.292 342.12 118.968 341.864 118.728C341.608 118.48 341.264 118.356 340.832 118.356C340.368 118.356 339.996 118.488 339.716 118.752C339.444 119.016 339.26 119.352 339.164 119.76L338.276 119.424C338.348 119.168 338.452 118.924 338.588 118.692C338.732 118.452 338.908 118.244 339.116 118.068C339.332 117.884 339.584 117.74 339.872 117.636C340.16 117.532 340.492 117.48 340.868 117.48C341.612 117.48 342.2 117.684 342.632 118.092C343.064 118.5 343.28 119.052 343.28 119.748C343.28 120.132 343.212 120.468 343.076 120.756C342.948 121.036 342.78 121.276 342.572 121.476C342.364 121.676 342.128 121.836 341.864 121.956C341.6 122.076 341.336 122.16 341.072 122.208V123.504H340.148ZM340.616 126.144C340.36 126.144 340.172 126.08 340.052 125.952C339.94 125.824 339.884 125.656 339.884 125.448V125.292C339.884 125.084 339.94 124.916 340.052 124.788C340.172 124.66 340.36 124.596 340.616 124.596C340.872 124.596 341.056 124.66 341.168 124.788C341.288 124.916 341.348 125.084 341.348 125.292V125.448C341.348 125.656 341.288 125.824 341.168 125.952C341.056 126.08 340.872 126.144 340.616 126.144ZM346.187 123.504V121.536C346.843 121.504 347.355 121.344 347.723 121.056C348.099 120.768 348.287 120.372 348.287 119.868V119.7C348.287 119.292 348.159 118.968 347.903 118.728C347.647 118.48 347.303 118.356 346.871 118.356C346.407 118.356 346.035 118.488 345.755 118.752C345.483 119.016 345.299 119.352 345.203 119.76L344.315 119.424C344.387 119.168 344.491 118.924 344.627 118.692C344.771 118.452 344.947 118.244 345.155 118.068C345.371 117.884 345.623 117.74 345.911 117.636C346.199 117.532 346.531 117.48 346.907 117.48C347.651 117.48 348.239 117.684 348.671 118.092C349.103 118.5 349.319 119.052 349.319 119.748C349.319 120.132 349.251 120.468 349.115 120.756C348.987 121.036 348.819 121.276 348.611 121.476C348.403 121.676 348.167 121.836 347.903 121.956C347.639 122.076 347.375 122.16 347.111 122.208V123.504H346.187ZM346.655 126.144C346.399 126.144 346.211 126.08 346.091 125.952C345.979 125.824 345.923 125.656 345.923 125.448V125.292C345.923 125.084 345.979 124.916 346.091 124.788C346.211 124.66 346.399 124.596 346.655 124.596C346.911 124.596 347.095 124.66 347.207 124.788C347.327 124.916 347.387 125.084 347.387 125.292V125.448C347.387 125.656 347.327 125.824 347.207 125.952C347.095 126.08 346.911 126.144 346.655 126.144ZM352.226 123.504V121.536C352.882 121.504 353.394 121.344 353.762 121.056C354.138 120.768 354.326 120.372 354.326 119.868V119.7C354.326 119.292 354.198 118.968 353.942 118.728C353.686 118.48 353.342 118.356 352.91 118.356C352.446 118.356 352.074 118.488 351.794 118.752C351.522 119.016 351.338 119.352 351.242 119.76L350.354 119.424C350.426 119.168 350.53 118.924 350.666 118.692C350.81 118.452 350.986 118.244 351.194 118.068C351.41 117.884 351.662 117.74 351.95 117.636C352.238 117.532 352.57 117.48 352.946 117.48C353.69 117.48 354.278 117.684 354.71 118.092C355.142 118.5 355.358 119.052 355.358 119.748C355.358 120.132 355.29 120.468 355.154 120.756C355.026 121.036 354.858 121.276 354.65 121.476C354.442 121.676 354.206 121.836 353.942 121.956C353.678 122.076 353.414 122.16 353.15 122.208V123.504H352.226ZM352.694 126.144C352.438 126.144 352.25 126.08 352.13 125.952C352.018 125.824 351.962 125.656 351.962 125.448V125.292C351.962 125.084 352.018 124.916 352.13 124.788C352.25 124.66 352.438 124.596 352.694 124.596C352.95 124.596 353.134 124.66 353.246 124.788C353.366 124.916 353.426 125.084 353.426 125.292V125.448C353.426 125.656 353.366 125.824 353.246 125.952C353.134 126.08 352.95 126.144 352.694 126.144Z"/><path fill="#DA1E28" d="M340.148 243.504V241.536C340.804 241.504 341.316 241.344 341.684 241.056C342.06 240.768 342.248 240.372 342.248 239.868V239.7C342.248 239.292 342.12 238.968 341.864 238.728C341.608 238.48 341.264 238.356 340.832 238.356C340.368 238.356 339.996 238.488 339.716 238.752C339.444 239.016 339.26 239.352 339.164 239.76L338.276 239.424C338.348 239.168 338.452 238.924 338.588 238.692C338.732 238.452 338.908 238.244 339.116 238.068C339.332 237.884 339.584 237.74 339.872 237.636C340.16 237.532 340.492 237.48 340.868 237.48C341.612 237.48 342.2 237.684 342.632 238.092C343.064 238.5 343.28 239.052 343.28 239.748C343.28 240.132 343.212 240.468 343.076 240.756C342.948 241.036 342.78 241.276 342.572 241.476C342.364 241.676 342.128 241.836 341.864 241.956C341.6 242.076 341.336 242.16 341.072 242.208V243.504H340.148ZM340.616 246.144C340.36 246.144 340.172 246.08 340.052 245.952C339.94 245.824 339.884 245.656 339.884 245.448V245.292C339.884 245.084 339.94 244.916 340.052 244.788C340.172 244.66 340.36 244.596 340.616 244.596C340.872 244.596 341.056 244.66 341.168 244.788C341.288 244.916 341.348 245.084 341.348 245.292V245.448C341.348 245.656 341.288 245.824 341.168 245.952C341.056 246.08 340.872 246.144 340.616 246.144ZM346.187 243.504V241.536C346.843 241.504 347.355 241.344 347.723 241.056C348.099 240.768 348.287 240.372 348.287 239.868V239.7C348.287 239.292 348.159 238.968 347.903 238.728C347.647 238.48 347.303 238.356 346.871 238.356C346.407 238.356 346.035 238.488 345.755 238.752C345.483 239.016 345.299 239.352 345.203 239.76L344.315 239.424C344.387 239.168 344.491 238.924 344.627 238.692C344.771 238.452 344.947 238.244 345.155 238.068C345.371 237.884 345.623 237.74 345.911 237.636C346.199 237.532 346.531 237.48 346.907 237.48C347.651 237.48 348.239 237.684 348.671 238.092C349.103 238.5 349.319 239.052 349.319 239.748C349.319 240.132 349.251 240.468 349.115 240.756C348.987 241.036 348.819 241.276 348.611 241.476C348.403 241.676 348.167 241.836 347.903 241.956C347.639 242.076 347.375 242.16 347.111 242.208V243.504H346.187ZM346.655 246.144C346.399 246.144 346.211 246.08 346.091 245.952C345.979 245.824 345.923 245.656 345.923 245.448V245.292C345.923 245.084 345.979 244.916 346.091 244.788C346.211 244.66 346.399 244.596 346.655 244.596C346.911 244.596 347.095 244.66 347.207 244.788C347.327 244.916 347.387 245.084 347.387 245.292V245.448C347.387 245.656 347.327 245.824 347.207 245.952C347.095 246.08 346.911 246.144 346.655 246.144ZM352.226 243.504V241.536C352.882 241.504 353.394 241.344 353.762 241.056C354.138 240.768 354.326 240.372 354.326 239.868V239.7C354.326 239.292 354.198 238.968 353.942 238.728C353.686 238.48 353.342 238.356 352.91 238.356C352.446 238.356 352.074 238.488 351.794 238.752C351.522 239.016 351.338 239.352 351.242 239.76L350.354 239.424C350.426 239.168 350.53 238.924 350.666 238.692C350.81 238.452 350.986 238.244 351.194 238.068C351.41 237.884 351.662 237.74 351.95 237.636C352.238 237.532 352.57 237.48 352.946 237.48C353.69 237.48 354.278 237.684 354.71 238.092C355.142 238.5 355.358 239.052 355.358 239.748C355.358 240.132 355.29 240.468 355.154 240.756C355.026 241.036 354.858 241.276 354.65 241.476C354.442 241.676 354.206 241.836 353.942 241.956C353.678 242.076 353.414 242.16 353.15 242.208V243.504H352.226ZM352.694 246.144C352.438 246.144 352.25 246.08 352.13 245.952C352.018 245.824 351.962 245.656 351.962 245.448V245.292C351.962 245.084 352.018 244.916 352.13 244.788C352.25 244.66 352.438 244.596 352.694 244.596C352.95 244.596 353.134 244.66 353.246 244.788C353.366 244.916 353.426 245.084 353.426 245.292V245.448C353.426 245.656 353.366 245.824 353.246 245.952C353.134 246.08 352.95 246.144 352.694 246.144Z"/><path fill="#121619" d="M216.196 22L215.412 19.508H211.94L211.17 22H209.294L212.57 12.228H214.866L218.114 22H216.196ZM213.704 13.908H213.634L212.388 17.926H214.964L213.704 13.908ZM219.966 16.106H218.888V14.692H219.966V13.642C219.966 12.998 220.134 12.5033 220.47 12.158C220.816 11.8127 221.32 11.64 221.982 11.64H223.256V13.068H221.758V14.692H223.256V16.106H221.758V22H219.966V16.106ZM226.939 22C226.323 22 225.851 21.8413 225.525 21.524C225.207 21.1973 225.049 20.7353 225.049 20.138V16.12H223.971V14.692H224.531C224.801 14.692 224.983 14.6313 225.077 14.51C225.179 14.3793 225.231 14.188 225.231 13.936V12.69H226.841V14.692H228.339V16.12H226.841V20.572H228.227V22H226.939ZM232.952 22.168C232.411 22.168 231.926 22.0793 231.496 21.902C231.076 21.7153 230.717 21.4587 230.418 21.132C230.129 20.796 229.905 20.3947 229.746 19.928C229.588 19.452 229.508 18.92 229.508 18.332C229.508 17.7533 229.583 17.2307 229.732 16.764C229.891 16.2973 230.115 15.9007 230.404 15.574C230.694 15.238 231.048 14.9813 231.468 14.804C231.888 14.6173 232.364 14.524 232.896 14.524C233.466 14.524 233.96 14.622 234.38 14.818C234.8 15.014 235.146 15.28 235.416 15.616C235.687 15.952 235.888 16.344 236.018 16.792C236.158 17.2307 236.228 17.702 236.228 18.206V18.794H231.37V18.976C231.37 19.508 231.52 19.9373 231.818 20.264C232.117 20.5813 232.56 20.74 233.148 20.74C233.596 20.74 233.96 20.6467 234.24 20.46C234.53 20.2733 234.786 20.0353 235.01 19.746L235.976 20.824C235.678 21.244 235.267 21.5753 234.744 21.818C234.231 22.0513 233.634 22.168 232.952 22.168ZM232.924 15.868C232.448 15.868 232.07 16.0267 231.79 16.344C231.51 16.6613 231.37 17.072 231.37 17.576V17.688H234.366V17.562C234.366 17.058 234.24 16.652 233.988 16.344C233.746 16.0267 233.391 15.868 232.924 15.868ZM237.965 22V14.692H239.757V16.204H239.827C239.874 16.008 239.944 15.8213 240.037 15.644C240.14 15.4573 240.27 15.294 240.429 15.154C240.588 15.014 240.774 14.902 240.989 14.818C241.213 14.734 241.47 14.692 241.759 14.692H242.151V16.386H241.591C240.984 16.386 240.527 16.4747 240.219 16.652C239.911 16.8293 239.757 17.1187 239.757 17.52V22H237.965ZM247.454 16.106H246.376V14.692H247.454V13.642C247.454 12.998 247.622 12.5033 247.958 12.158C248.303 11.8127 248.807 11.64 249.47 11.64H250.744V13.068H249.246V14.692H253.754V22H251.962V16.106H249.246V22H247.454V16.106ZM252.858 13.628C252.484 13.628 252.214 13.544 252.046 13.376C251.887 13.208 251.808 12.9933 251.808 12.732V12.452C251.808 12.1907 251.887 11.976 252.046 11.808C252.214 11.64 252.484 11.556 252.858 11.556C253.222 11.556 253.488 11.64 253.656 11.808C253.824 11.976 253.908 12.1907 253.908 12.452V12.732C253.908 12.9933 253.824 13.208 253.656 13.376C253.488 13.544 253.222 13.628 252.858 13.628ZM255.986 22V14.692H257.778V16.204H257.848C257.895 16.008 257.965 15.8213 258.058 15.644C258.161 15.4573 258.291 15.294 258.45 15.154C258.609 15.014 258.795 14.902 259.01 14.818C259.234 14.734 259.491 14.692 259.78 14.692H260.172V16.386H259.612C259.005 16.386 258.548 16.4747 258.24 16.652C257.932 16.8293 257.778 17.1187 257.778 17.52V22H255.986ZM264.036 22.168C263.336 22.168 262.748 22.0513 262.272 21.818C261.796 21.5753 261.376 21.244 261.012 20.824L262.104 19.76C262.375 20.068 262.669 20.3107 262.986 20.488C263.313 20.6653 263.686 20.754 264.106 20.754C264.536 20.754 264.844 20.6793 265.03 20.53C265.226 20.3807 265.324 20.1753 265.324 19.914C265.324 19.6993 265.254 19.5313 265.114 19.41C264.984 19.2793 264.755 19.1907 264.428 19.144L263.7 19.046C262.907 18.9433 262.3 18.7193 261.88 18.374C261.47 18.0193 261.264 17.506 261.264 16.834C261.264 16.4793 261.33 16.162 261.46 15.882C261.591 15.5927 261.778 15.35 262.02 15.154C262.263 14.9487 262.552 14.7947 262.888 14.692C263.234 14.58 263.616 14.524 264.036 14.524C264.391 14.524 264.704 14.552 264.974 14.608C265.254 14.6547 265.506 14.7293 265.73 14.832C265.954 14.9253 266.16 15.0467 266.346 15.196C266.533 15.336 266.715 15.4947 266.892 15.672L265.842 16.722C265.628 16.498 265.371 16.3113 265.072 16.162C264.774 16.0127 264.447 15.938 264.092 15.938C263.7 15.938 263.416 16.008 263.238 16.148C263.07 16.288 262.986 16.47 262.986 16.694C262.986 16.9367 263.056 17.1233 263.196 17.254C263.346 17.3753 263.593 17.464 263.938 17.52L264.68 17.618C266.258 17.842 267.046 18.5607 267.046 19.774C267.046 20.1287 266.972 20.4553 266.822 20.754C266.682 21.0433 266.482 21.2953 266.22 21.51C265.959 21.7153 265.642 21.8787 265.268 22C264.904 22.112 264.494 22.168 264.036 22.168ZM270.961 22C270.345 22 269.874 21.8413 269.547 21.524C269.23 21.1973 269.071 20.7353 269.071 20.138V16.12H267.993V14.692H268.553C268.824 14.692 269.006 14.6313 269.099 14.51C269.202 14.3793 269.253 14.188 269.253 13.936V12.69H270.863V14.692H272.361V16.12H270.863V20.572H272.249V22H270.961ZM283.578 17.87H279.504V22H277.656V12.228H279.504V16.232H283.578V12.228H285.426V22H283.578V17.87ZM287.543 18.626V16.848H291.547V18.626H287.543ZM300.153 22.616C300.153 22.9987 300.083 23.3347 299.943 23.624C299.813 23.9227 299.593 24.17 299.285 24.366C298.977 24.562 298.581 24.7113 298.095 24.814C297.61 24.9167 297.017 24.968 296.317 24.968C295.701 24.968 295.179 24.926 294.749 24.842C294.32 24.7673 293.965 24.6553 293.685 24.506C293.415 24.366 293.219 24.1887 293.097 23.974C292.976 23.7593 292.915 23.5167 292.915 23.246C292.915 22.8353 293.027 22.5133 293.251 22.28C293.485 22.056 293.807 21.9113 294.217 21.846V21.692C293.919 21.6173 293.685 21.4727 293.517 21.258C293.359 21.034 293.279 20.7727 293.279 20.474C293.279 20.2873 293.317 20.124 293.391 19.984C293.466 19.8347 293.564 19.7087 293.685 19.606C293.816 19.5033 293.961 19.4193 294.119 19.354C294.278 19.2793 294.446 19.2233 294.623 19.186V19.13C294.175 18.9247 293.839 18.64 293.615 18.276C293.401 17.912 293.293 17.4873 293.293 17.002C293.293 16.2553 293.55 15.658 294.063 15.21C294.577 14.7527 295.328 14.524 296.317 14.524C296.541 14.524 296.761 14.538 296.975 14.566C297.199 14.594 297.405 14.6407 297.591 14.706V14.468C297.591 13.7587 297.937 13.404 298.627 13.404H299.761V14.776H298.207V14.972C298.59 15.1867 298.875 15.4667 299.061 15.812C299.248 16.1573 299.341 16.554 299.341 17.002C299.341 17.7393 299.085 18.332 298.571 18.78C298.067 19.228 297.316 19.452 296.317 19.452C295.888 19.452 295.515 19.41 295.197 19.326C295.057 19.3913 294.936 19.48 294.833 19.592C294.731 19.6947 294.679 19.8253 294.679 19.984C294.679 20.348 294.997 20.53 295.631 20.53H297.591C298.487 20.53 299.136 20.7167 299.537 21.09C299.948 21.454 300.153 21.9627 300.153 22.616ZM298.473 22.826C298.473 22.5927 298.38 22.4107 298.193 22.28C298.007 22.1493 297.685 22.084 297.227 22.084H294.735C294.483 22.2707 294.357 22.5227 294.357 22.84C294.357 23.12 294.474 23.3393 294.707 23.498C294.941 23.6567 295.337 23.736 295.897 23.736H296.793C297.381 23.736 297.806 23.6613 298.067 23.512C298.338 23.3627 298.473 23.134 298.473 22.826ZM296.317 18.234C297.195 18.234 297.633 17.8607 297.633 17.114V16.876C297.633 16.1293 297.195 15.756 296.317 15.756C295.44 15.756 295.001 16.1293 295.001 16.876V17.114C295.001 17.8607 295.44 18.234 296.317 18.234ZM306.697 22C306.305 22 305.992 21.888 305.759 21.664C305.535 21.4307 305.395 21.1227 305.339 20.74H305.255C305.134 21.216 304.886 21.5753 304.513 21.818C304.14 22.0513 303.678 22.168 303.127 22.168C302.38 22.168 301.806 21.972 301.405 21.58C301.004 21.188 300.803 20.6653 300.803 20.012C300.803 19.256 301.074 18.696 301.615 18.332C302.156 17.9587 302.926 17.772 303.925 17.772H305.171V17.24C305.171 16.8293 305.064 16.512 304.849 16.288C304.634 16.064 304.289 15.952 303.813 15.952C303.393 15.952 303.052 16.0453 302.791 16.232C302.539 16.4093 302.324 16.624 302.147 16.876L301.083 15.924C301.354 15.504 301.713 15.168 302.161 14.916C302.609 14.6547 303.202 14.524 303.939 14.524C304.928 14.524 305.68 14.748 306.193 15.196C306.706 15.644 306.963 16.288 306.963 17.128V20.572H307.691V22H306.697ZM303.729 20.866C304.13 20.866 304.471 20.7773 304.751 20.6C305.031 20.4227 305.171 20.1613 305.171 19.816V18.85H304.023C303.09 18.85 302.623 19.1487 302.623 19.746V19.984C302.623 20.2827 302.716 20.5067 302.903 20.656C303.099 20.796 303.374 20.866 303.729 20.866ZM311.529 22C310.913 22 310.441 21.8413 310.115 21.524C309.797 21.1973 309.639 20.7353 309.639 20.138V16.12H308.561V14.692H309.121C309.391 14.692 309.573 14.6313 309.667 14.51C309.769 14.3793 309.821 14.188 309.821 13.936V12.69H311.431V14.692H312.929V16.12H311.431V20.572H312.817V22H311.529ZM317.542 22.168C317.001 22.168 316.516 22.0793 316.086 21.902C315.666 21.7153 315.307 21.4587 315.008 21.132C314.719 20.796 314.495 20.3947 314.336 19.928C314.178 19.452 314.098 18.92 314.098 18.332C314.098 17.7533 314.173 17.2307 314.322 16.764C314.481 16.2973 314.705 15.9007 314.994 15.574C315.284 15.238 315.638 14.9813 316.058 14.804C316.478 14.6173 316.954 14.524 317.486 14.524C318.056 14.524 318.55 14.622 318.97 14.818C319.39 15.014 319.736 15.28 320.006 15.616C320.277 15.952 320.478 16.344 320.608 16.792C320.748 17.2307 320.818 17.702 320.818 18.206V18.794H315.96V18.976C315.96 19.508 316.11 19.9373 316.408 20.264C316.707 20.5813 317.15 20.74 317.738 20.74C318.186 20.74 318.55 20.6467 318.83 20.46C319.12 20.2733 319.376 20.0353 319.6 19.746L320.566 20.824C320.268 21.244 319.857 21.5753 319.334 21.818C318.821 22.0513 318.224 22.168 317.542 22.168ZM317.514 15.868C317.038 15.868 316.66 16.0267 316.38 16.344C316.1 16.6613 315.96 17.072 315.96 17.576V17.688H318.956V17.562C318.956 17.058 318.83 16.652 318.578 16.344C318.336 16.0267 317.981 15.868 317.514 15.868Z"/><path fill="#121619" d="M409.196 22L408.412 19.508H404.94L404.17 22H402.294L405.57 12.228H407.866L411.114 22H409.196ZM406.704 13.908H406.634L405.388 17.926H407.964L406.704 13.908ZM412.966 16.106H411.888V14.692H412.966V13.642C412.966 12.998 413.134 12.5033 413.47 12.158C413.816 11.8127 414.32 11.64 414.982 11.64H416.256V13.068H414.758V14.692H416.256V16.106H414.758V22H412.966V16.106ZM419.939 22C419.323 22 418.851 21.8413 418.525 21.524C418.207 21.1973 418.049 20.7353 418.049 20.138V16.12H416.971V14.692H417.531C417.801 14.692 417.983 14.6313 418.077 14.51C418.179 14.3793 418.231 14.188 418.231 13.936V12.69H419.841V14.692H421.339V16.12H419.841V20.572H421.227V22H419.939ZM425.952 22.168C425.411 22.168 424.926 22.0793 424.496 21.902C424.076 21.7153 423.717 21.4587 423.418 21.132C423.129 20.796 422.905 20.3947 422.746 19.928C422.588 19.452 422.508 18.92 422.508 18.332C422.508 17.7533 422.583 17.2307 422.732 16.764C422.891 16.2973 423.115 15.9007 423.404 15.574C423.694 15.238 424.048 14.9813 424.468 14.804C424.888 14.6173 425.364 14.524 425.896 14.524C426.466 14.524 426.96 14.622 427.38 14.818C427.8 15.014 428.146 15.28 428.416 15.616C428.687 15.952 428.888 16.344 429.018 16.792C429.158 17.2307 429.228 17.702 429.228 18.206V18.794H424.37V18.976C424.37 19.508 424.52 19.9373 424.818 20.264C425.117 20.5813 425.56 20.74 426.148 20.74C426.596 20.74 426.96 20.6467 427.24 20.46C427.53 20.2733 427.786 20.0353 428.01 19.746L428.976 20.824C428.678 21.244 428.267 21.5753 427.744 21.818C427.231 22.0513 426.634 22.168 425.952 22.168ZM425.924 15.868C425.448 15.868 425.07 16.0267 424.79 16.344C424.51 16.6613 424.37 17.072 424.37 17.576V17.688H427.366V17.562C427.366 17.058 427.24 16.652 426.988 16.344C426.746 16.0267 426.391 15.868 425.924 15.868ZM430.965 22V14.692H432.757V16.204H432.827C432.874 16.008 432.944 15.8213 433.037 15.644C433.14 15.4573 433.27 15.294 433.429 15.154C433.588 15.014 433.774 14.902 433.989 14.818C434.213 14.734 434.47 14.692 434.759 14.692H435.151V16.386H434.591C433.984 16.386 433.527 16.4747 433.219 16.652C432.911 16.8293 432.757 17.1187 432.757 17.52V22H430.965ZM442.484 22.168C441.784 22.168 441.196 22.0513 440.72 21.818C440.244 21.5753 439.824 21.244 439.46 20.824L440.552 19.76C440.822 20.068 441.116 20.3107 441.434 20.488C441.76 20.6653 442.134 20.754 442.554 20.754C442.983 20.754 443.291 20.6793 443.478 20.53C443.674 20.3807 443.772 20.1753 443.772 19.914C443.772 19.6993 443.702 19.5313 443.562 19.41C443.431 19.2793 443.202 19.1907 442.876 19.144L442.148 19.046C441.354 18.9433 440.748 18.7193 440.328 18.374C439.917 18.0193 439.712 17.506 439.712 16.834C439.712 16.4793 439.777 16.162 439.908 15.882C440.038 15.5927 440.225 15.35 440.468 15.154C440.71 14.9487 441 14.7947 441.336 14.692C441.681 14.58 442.064 14.524 442.484 14.524C442.838 14.524 443.151 14.552 443.422 14.608C443.702 14.6547 443.954 14.7293 444.178 14.832C444.402 14.9253 444.607 15.0467 444.794 15.196C444.98 15.336 445.162 15.4947 445.34 15.672L444.29 16.722C444.075 16.498 443.818 16.3113 443.52 16.162C443.221 16.0127 442.894 15.938 442.54 15.938C442.148 15.938 441.863 16.008 441.686 16.148C441.518 16.288 441.434 16.47 441.434 16.694C441.434 16.9367 441.504 17.1233 441.644 17.254C441.793 17.3753 442.04 17.464 442.386 17.52L443.128 17.618C444.705 17.842 445.494 18.5607 445.494 19.774C445.494 20.1287 445.419 20.4553 445.27 20.754C445.13 21.0433 444.929 21.2953 444.668 21.51C444.406 21.7153 444.089 21.8787 443.716 22C443.352 22.112 442.941 22.168 442.484 22.168ZM450.19 22.168C449.649 22.168 449.163 22.0793 448.734 21.902C448.314 21.7153 447.955 21.4587 447.656 21.132C447.367 20.796 447.143 20.3947 446.984 19.928C446.825 19.452 446.746 18.92 446.746 18.332C446.746 17.7533 446.821 17.2307 446.97 16.764C447.129 16.2973 447.353 15.9007 447.642 15.574C447.931 15.238 448.286 14.9813 448.706 14.804C449.126 14.6173 449.602 14.524 450.134 14.524C450.703 14.524 451.198 14.622 451.618 14.818C452.038 15.014 452.383 15.28 452.654 15.616C452.925 15.952 453.125 16.344 453.256 16.792C453.396 17.2307 453.466 17.702 453.466 18.206V18.794H448.608V18.976C448.608 19.508 448.757 19.9373 449.056 20.264C449.355 20.5813 449.798 20.74 450.386 20.74C450.834 20.74 451.198 20.6467 451.478 20.46C451.767 20.2733 452.024 20.0353 452.248 19.746L453.214 20.824C452.915 21.244 452.505 21.5753 451.982 21.818C451.469 22.0513 450.871 22.168 450.19 22.168ZM450.162 15.868C449.686 15.868 449.308 16.0267 449.028 16.344C448.748 16.6613 448.608 17.072 448.608 17.576V17.688H451.604V17.562C451.604 17.058 451.478 16.652 451.226 16.344C450.983 16.0267 450.629 15.868 450.162 15.868ZM458.087 22.168C457.545 22.168 457.065 22.0793 456.645 21.902C456.225 21.7247 455.87 21.468 455.581 21.132C455.301 20.796 455.086 20.3947 454.937 19.928C454.787 19.452 454.713 18.92 454.713 18.332C454.713 17.744 454.787 17.2167 454.937 16.75C455.086 16.2833 455.301 15.8867 455.581 15.56C455.87 15.224 456.225 14.9673 456.645 14.79C457.065 14.6127 457.545 14.524 458.087 14.524C458.824 14.524 459.431 14.6873 459.907 15.014C460.392 15.3407 460.742 15.7933 460.957 16.372L459.487 17.03C459.403 16.722 459.244 16.47 459.011 16.274C458.787 16.0687 458.479 15.966 458.087 15.966C457.583 15.966 457.205 16.1247 456.953 16.442C456.71 16.7593 456.589 17.1747 456.589 17.688V19.018C456.589 19.5313 456.71 19.9467 456.953 20.264C457.205 20.572 457.583 20.726 458.087 20.726C458.516 20.726 458.847 20.6187 459.081 20.404C459.314 20.18 459.496 19.9047 459.627 19.578L460.999 20.236C460.756 20.88 460.387 21.3653 459.893 21.692C459.398 22.0093 458.796 22.168 458.087 22.168ZM465.37 22.168C464.847 22.168 464.376 22.0793 463.956 21.902C463.545 21.7247 463.191 21.468 462.892 21.132C462.603 20.796 462.379 20.3947 462.22 19.928C462.061 19.452 461.982 18.92 461.982 18.332C461.982 17.744 462.061 17.2167 462.22 16.75C462.379 16.2833 462.603 15.8867 462.892 15.56C463.191 15.224 463.545 14.9673 463.956 14.79C464.376 14.6127 464.847 14.524 465.37 14.524C465.893 14.524 466.364 14.6127 466.784 14.79C467.204 14.9673 467.559 15.224 467.848 15.56C468.147 15.8867 468.375 16.2833 468.534 16.75C468.693 17.2167 468.772 17.744 468.772 18.332C468.772 18.92 468.693 19.452 468.534 19.928C468.375 20.3947 468.147 20.796 467.848 21.132C467.559 21.468 467.204 21.7247 466.784 21.902C466.364 22.0793 465.893 22.168 465.37 22.168ZM465.37 20.726C465.846 20.726 466.219 20.5813 466.49 20.292C466.761 20.0027 466.896 19.578 466.896 19.018V17.66C466.896 17.1093 466.761 16.6893 466.49 16.4C466.219 16.1107 465.846 15.966 465.37 15.966C464.903 15.966 464.535 16.1107 464.264 16.4C463.993 16.6893 463.858 17.1093 463.858 17.66V19.018C463.858 19.578 463.993 20.0027 464.264 20.292C464.535 20.5813 464.903 20.726 465.37 20.726ZM470.521 22V14.692H472.313V15.91H472.383C472.532 15.518 472.765 15.1913 473.083 14.93C473.409 14.6593 473.857 14.524 474.427 14.524C475.183 14.524 475.761 14.7713 476.163 15.266C476.564 15.7607 476.765 16.4653 476.765 17.38V22H474.973V17.562C474.973 17.0393 474.879 16.6473 474.693 16.386C474.506 16.1247 474.198 15.994 473.769 15.994C473.582 15.994 473.4 16.022 473.223 16.078C473.055 16.1247 472.901 16.1993 472.761 16.302C472.63 16.3953 472.523 16.5167 472.439 16.666C472.355 16.806 472.313 16.974 472.313 17.17V22H470.521ZM483.447 20.782H483.377C483.247 21.202 482.999 21.538 482.635 21.79C482.271 22.042 481.847 22.168 481.361 22.168C480.437 22.168 479.728 21.8367 479.233 21.174C478.748 20.5113 478.505 19.564 478.505 18.332C478.505 17.1093 478.748 16.1713 479.233 15.518C479.728 14.8553 480.437 14.524 481.361 14.524C481.847 14.524 482.271 14.65 482.635 14.902C482.999 15.1447 483.247 15.476 483.377 15.896H483.447V11.64H485.239V22H483.447V20.782ZM481.935 20.684C482.365 20.684 482.724 20.5813 483.013 20.376C483.303 20.1707 483.447 19.8767 483.447 19.494V17.17C483.447 16.8153 483.303 16.5307 483.013 16.316C482.724 16.1013 482.365 15.994 481.935 15.994C481.469 15.994 481.091 16.1527 480.801 16.47C480.521 16.778 480.381 17.1933 480.381 17.716V18.976C480.381 19.4987 480.521 19.914 480.801 20.222C481.091 20.53 481.469 20.684 481.935 20.684ZM496.968 17.87H492.894V22H491.046V12.228H492.894V16.232H496.968V12.228H498.816V22H496.968V17.87ZM500.933 18.626V16.848H504.937V18.626H500.933ZM513.544 22.616C513.544 22.9987 513.474 23.3347 513.334 23.624C513.203 23.9227 512.984 24.17 512.676 24.366C512.368 24.562 511.971 24.7113 511.486 24.814C511 24.9167 510.408 24.968 509.708 24.968C509.092 24.968 508.569 24.926 508.14 24.842C507.71 24.7673 507.356 24.6553 507.076 24.506C506.805 24.366 506.609 24.1887 506.488 23.974C506.366 23.7593 506.306 23.5167 506.306 23.246C506.306 22.8353 506.418 22.5133 506.642 22.28C506.875 22.056 507.197 21.9113 507.608 21.846V21.692C507.309 21.6173 507.076 21.4727 506.908 21.258C506.749 21.034 506.67 20.7727 506.67 20.474C506.67 20.2873 506.707 20.124 506.782 19.984C506.856 19.8347 506.954 19.7087 507.076 19.606C507.206 19.5033 507.351 19.4193 507.51 19.354C507.668 19.2793 507.836 19.2233 508.014 19.186V19.13C507.566 18.9247 507.23 18.64 507.006 18.276C506.791 17.912 506.684 17.4873 506.684 17.002C506.684 16.2553 506.94 15.658 507.454 15.21C507.967 14.7527 508.718 14.524 509.708 14.524C509.932 14.524 510.151 14.538 510.366 14.566C510.59 14.594 510.795 14.6407 510.982 14.706V14.468C510.982 13.7587 511.327 13.404 512.018 13.404H513.152V14.776H511.598V14.972C511.98 15.1867 512.265 15.4667 512.452 15.812C512.638 16.1573 512.732 16.554 512.732 17.002C512.732 17.7393 512.475 18.332 511.962 18.78C511.458 19.228 510.706 19.452 509.708 19.452C509.278 19.452 508.905 19.41 508.588 19.326C508.448 19.3913 508.326 19.48 508.224 19.592C508.121 19.6947 508.07 19.8253 508.07 19.984C508.07 20.348 508.387 20.53 509.022 20.53H510.982C511.878 20.53 512.526 20.7167 512.928 21.09C513.338 21.454 513.544 21.9627 513.544 22.616ZM511.864 22.826C511.864 22.5927 511.77 22.4107 511.584 22.28C511.397 22.1493 511.075 22.084 510.618 22.084H508.126C507.874 22.2707 507.748 22.5227 507.748 22.84C507.748 23.12 507.864 23.3393 508.098 23.498C508.331 23.6567 508.728 23.736 509.288 23.736H510.184C510.772 23.736 511.196 23.6613 511.458 23.512C511.728 23.3627 511.864 23.134 511.864 22.826ZM509.708 18.234C510.585 18.234 511.024 17.8607 511.024 17.114V16.876C511.024 16.1293 510.585 15.756 509.708 15.756C508.83 15.756 508.392 16.1293 508.392 16.876V17.114C508.392 17.8607 508.83 18.234 509.708 18.234ZM520.087 22C519.695 22 519.383 21.888 519.149 21.664C518.925 21.4307 518.785 21.1227 518.729 20.74H518.645C518.524 21.216 518.277 21.5753 517.903 21.818C517.53 22.0513 517.068 22.168 516.517 22.168C515.771 22.168 515.197 21.972 514.795 21.58C514.394 21.188 514.193 20.6653 514.193 20.012C514.193 19.256 514.464 18.696 515.005 18.332C515.547 17.9587 516.317 17.772 517.315 17.772H518.561V17.24C518.561 16.8293 518.454 16.512 518.239 16.288C518.025 16.064 517.679 15.952 517.203 15.952C516.783 15.952 516.443 16.0453 516.181 16.232C515.929 16.4093 515.715 16.624 515.537 16.876L514.473 15.924C514.744 15.504 515.103 15.168 515.551 14.916C515.999 14.6547 516.592 14.524 517.329 14.524C518.319 14.524 519.07 14.748 519.583 15.196C520.097 15.644 520.353 16.288 520.353 17.128V20.572H521.081V22H520.087ZM517.119 20.866C517.521 20.866 517.861 20.7773 518.141 20.6C518.421 20.4227 518.561 20.1613 518.561 19.816V18.85H517.413C516.48 18.85 516.013 19.1487 516.013 19.746V19.984C516.013 20.2827 516.107 20.5067 516.293 20.656C516.489 20.796 516.765 20.866 517.119 20.866ZM524.919 22C524.303 22 523.832 21.8413 523.505 21.524C523.188 21.1973 523.029 20.7353 523.029 20.138V16.12H521.951V14.692H522.511C522.782 14.692 522.964 14.6313 523.057 14.51C523.16 14.3793 523.211 14.188 523.211 13.936V12.69H524.821V14.692H526.319V16.12H524.821V20.572H526.207V22H524.919ZM530.932 22.168C530.391 22.168 529.906 22.0793 529.476 21.902C529.056 21.7153 528.697 21.4587 528.398 21.132C528.109 20.796 527.885 20.3947 527.726 19.928C527.568 19.452 527.488 18.92 527.488 18.332C527.488 17.7533 527.563 17.2307 527.712 16.764C527.871 16.2973 528.095 15.9007 528.384 15.574C528.674 15.238 529.028 14.9813 529.448 14.804C529.868 14.6173 530.344 14.524 530.876 14.524C531.446 14.524 531.94 14.622 532.36 14.818C532.78 15.014 533.126 15.28 533.396 15.616C533.667 15.952 533.868 16.344 533.998 16.792C534.138 17.2307 534.208 17.702 534.208 18.206V18.794H529.35V18.976C529.35 19.508 529.5 19.9373 529.798 20.264C530.097 20.5813 530.54 20.74 531.128 20.74C531.576 20.74 531.94 20.6467 532.22 20.46C532.51 20.2733 532.766 20.0353 532.99 19.746L533.956 20.824C533.658 21.244 533.247 21.5753 532.724 21.818C532.211 22.0513 531.614 22.168 530.932 22.168ZM530.904 15.868C530.428 15.868 530.05 16.0267 529.77 16.344C529.49 16.6613 529.35 17.072 529.35 17.576V17.688H532.346V17.562C532.346 17.058 532.22 16.652 531.968 16.344C531.726 16.0267 531.371 15.868 530.904 15.868Z"/><path fill="#121619" d="M20.186 22.168C19.346 22.168 18.632 22.0187 18.044 21.72C17.4653 21.4213 16.966 21.0293 16.546 20.544L17.792 19.34C18.128 19.732 18.5013 20.0307 18.912 20.236C19.332 20.4413 19.794 20.544 20.298 20.544C20.8673 20.544 21.2967 20.4227 21.586 20.18C21.8753 19.928 22.02 19.592 22.02 19.172C22.02 18.8453 21.9267 18.5793 21.74 18.374C21.5533 18.1687 21.2033 18.0193 20.69 17.926L19.766 17.786C17.8153 17.478 16.84 16.5307 16.84 14.944C16.84 14.5053 16.9193 14.1087 17.078 13.754C17.246 13.3993 17.484 13.096 17.792 12.844C18.1 12.592 18.4687 12.4007 18.898 12.27C19.3367 12.13 19.8313 12.06 20.382 12.06C21.1193 12.06 21.7633 12.1813 22.314 12.424C22.8647 12.6667 23.336 13.026 23.728 13.502L22.468 14.692C22.2253 14.3933 21.9313 14.1507 21.586 13.964C21.2407 13.7773 20.8067 13.684 20.284 13.684C19.752 13.684 19.3507 13.7867 19.08 13.992C18.8187 14.188 18.688 14.468 18.688 14.832C18.688 15.2053 18.7953 15.4807 19.01 15.658C19.2247 15.8353 19.57 15.966 20.046 16.05L20.956 16.218C21.9453 16.3953 22.6733 16.7127 23.14 17.17C23.616 17.618 23.854 18.248 23.854 19.06C23.854 19.5267 23.77 19.9513 23.602 20.334C23.4433 20.7073 23.2053 21.034 22.888 21.314C22.58 21.5847 22.1973 21.7947 21.74 21.944C21.292 22.0933 20.774 22.168 20.186 22.168ZM27.9819 22C27.3659 22 26.8946 21.8413 26.5679 21.524C26.2506 21.1973 26.0919 20.7353 26.0919 20.138V16.12H25.0139V14.692H25.5739C25.8446 14.692 26.0266 14.6313 26.1199 14.51C26.2226 14.3793 26.2739 14.188 26.2739 13.936V12.69H27.8839V14.692H29.3819V16.12H27.8839V20.572H29.2699V22H27.9819ZM36.4722 22C36.0802 22 35.7676 21.888 35.5342 21.664C35.3102 21.4307 35.1702 21.1227 35.1142 20.74H35.0302C34.9089 21.216 34.6616 21.5753 34.2882 21.818C33.9149 22.0513 33.4529 22.168 32.9022 22.168C32.1556 22.168 31.5816 21.972 31.1802 21.58C30.7789 21.188 30.5782 20.6653 30.5782 20.012C30.5782 19.256 30.8489 18.696 31.3902 18.332C31.9316 17.9587 32.7016 17.772 33.7002 17.772H34.9462V17.24C34.9462 16.8293 34.8389 16.512 34.6242 16.288C34.4096 16.064 34.0642 15.952 33.5882 15.952C33.1682 15.952 32.8276 16.0453 32.5662 16.232C32.3142 16.4093 32.0996 16.624 31.9222 16.876L30.8582 15.924C31.1289 15.504 31.4882 15.168 31.9362 14.916C32.3842 14.6547 32.9769 14.524 33.7142 14.524C34.7036 14.524 35.4549 14.748 35.9682 15.196C36.4816 15.644 36.7382 16.288 36.7382 17.128V20.572H37.4662V22H36.4722ZM33.5042 20.866C33.9056 20.866 34.2462 20.7773 34.5262 20.6C34.8062 20.4227 34.9462 20.1613 34.9462 19.816V18.85H33.7982C32.8649 18.85 32.3982 19.1487 32.3982 19.746V19.984C32.3982 20.2827 32.4916 20.5067 32.6782 20.656C32.8742 20.796 33.1496 20.866 33.5042 20.866ZM39.0765 22V14.692H40.8685V16.204H40.9385C40.9852 16.008 41.0552 15.8213 41.1485 15.644C41.2512 15.4573 41.3819 15.294 41.5405 15.154C41.6992 15.014 41.8859 14.902 42.1005 14.818C42.3245 14.734 42.5812 14.692 42.8705 14.692H43.2625V16.386H42.7025C42.0959 16.386 41.6385 16.4747 41.3305 16.652C41.0225 16.8293 40.8685 17.1187 40.8685 17.52V22H39.0765ZM47.0693 22C46.4533 22 45.982 21.8413 45.6553 21.524C45.338 21.1973 45.1793 20.7353 45.1793 20.138V16.12H44.1013V14.692H44.6613C44.932 14.692 45.114 14.6313 45.2073 14.51C45.31 14.3793 45.3613 14.188 45.3613 13.936V12.69H46.9713V14.692H48.4693V16.12H46.9713V20.572H48.3573V22H47.0693ZM51.0797 13.628C50.7063 13.628 50.4357 13.544 50.2677 13.376C50.109 13.208 50.0297 12.9933 50.0297 12.732V12.452C50.0297 12.1907 50.109 11.976 50.2677 11.808C50.4357 11.64 50.7063 11.556 51.0797 11.556C51.4437 11.556 51.7097 11.64 51.8777 11.808C52.0457 11.976 52.1297 12.1907 52.1297 12.452V12.732C52.1297 12.9933 52.0457 13.208 51.8777 13.376C51.7097 13.544 51.4437 13.628 51.0797 13.628ZM50.1837 14.692H51.9757V22H50.1837V14.692ZM54.2128 22V14.692H56.0048V15.91H56.0748C56.2241 15.518 56.4575 15.1913 56.7748 14.93C57.1015 14.6593 57.5495 14.524 58.1188 14.524C58.8748 14.524 59.4535 14.7713 59.8548 15.266C60.2561 15.7607 60.4568 16.4653 60.4568 17.38V22H58.6648V17.562C58.6648 17.0393 58.5715 16.6473 58.3848 16.386C58.1981 16.1247 57.8901 15.994 57.4608 15.994C57.2741 15.994 57.0921 16.022 56.9148 16.078C56.7468 16.1247 56.5928 16.1993 56.4528 16.302C56.3221 16.3953 56.2148 16.5167 56.1308 16.666C56.0468 16.806 56.0048 16.974 56.0048 17.17V22H54.2128ZM69.1973 22.616C69.1973 22.9987 69.1273 23.3347 68.9873 23.624C68.8566 23.9227 68.6373 24.17 68.3293 24.366C68.0213 24.562 67.6246 24.7113 67.1393 24.814C66.6539 24.9167 66.0613 24.968 65.3613 24.968C64.7453 24.968 64.2226 24.926 63.7933 24.842C63.3639 24.7673 63.0093 24.6553 62.7293 24.506C62.4586 24.366 62.2626 24.1887 62.1413 23.974C62.0199 23.7593 61.9593 23.5167 61.9593 23.246C61.9593 22.8353 62.0713 22.5133 62.2953 22.28C62.5286 22.056 62.8506 21.9113 63.2613 21.846V21.692C62.9626 21.6173 62.7293 21.4727 62.5613 21.258C62.4026 21.034 62.3233 20.7727 62.3233 20.474C62.3233 20.2873 62.3606 20.124 62.4353 19.984C62.5099 19.8347 62.6079 19.7087 62.7293 19.606C62.8599 19.5033 63.0046 19.4193 63.1633 19.354C63.3219 19.2793 63.4899 19.2233 63.6673 19.186V19.13C63.2193 18.9247 62.8833 18.64 62.6593 18.276C62.4446 17.912 62.3373 17.4873 62.3373 17.002C62.3373 16.2553 62.5939 15.658 63.1073 15.21C63.6206 14.7527 64.3719 14.524 65.3613 14.524C65.5853 14.524 65.8046 14.538 66.0193 14.566C66.2433 14.594 66.4486 14.6407 66.6353 14.706V14.468C66.6353 13.7587 66.9806 13.404 67.6713 13.404H68.8053V14.776H67.2513V14.972C67.6339 15.1867 67.9186 15.4667 68.1053 15.812C68.2919 16.1573 68.3853 16.554 68.3853 17.002C68.3853 17.7393 68.1286 18.332 67.6153 18.78C67.1113 19.228 66.3599 19.452 65.3613 19.452C64.9319 19.452 64.5586 19.41 64.2413 19.326C64.1013 19.3913 63.9799 19.48 63.8773 19.592C63.7746 19.6947 63.7233 19.8253 63.7233 19.984C63.7233 20.348 64.0406 20.53 64.6753 20.53H66.6353C67.5313 20.53 68.1799 20.7167 68.5813 21.09C68.9919 21.454 69.1973 21.9627 69.1973 22.616ZM67.5173 22.826C67.5173 22.5927 67.4239 22.4107 67.2373 22.28C67.0506 22.1493 66.7286 22.084 66.2713 22.084H63.7793C63.5273 22.2707 63.4013 22.5227 63.4013 22.84C63.4013 23.12 63.5179 23.3393 63.7513 23.498C63.9846 23.6567 64.3813 23.736 64.9413 23.736H65.8373C66.4253 23.736 66.8499 23.6613 67.1113 23.512C67.3819 23.3627 67.5173 23.134 67.5173 22.826ZM65.3613 18.234C66.2386 18.234 66.6773 17.8607 66.6773 17.114V16.876C66.6773 16.1293 66.2386 15.756 65.3613 15.756C64.4839 15.756 64.0453 16.1293 64.0453 16.876V17.114C64.0453 17.8607 64.4839 18.234 65.3613 18.234ZM76.2548 22.168C75.5548 22.168 74.9668 22.0513 74.4908 21.818C74.0148 21.5753 73.5948 21.244 73.2308 20.824L74.3228 19.76C74.5934 20.068 74.8874 20.3107 75.2048 20.488C75.5314 20.6653 75.9048 20.754 76.3248 20.754C76.7541 20.754 77.0621 20.6793 77.2488 20.53C77.4448 20.3807 77.5428 20.1753 77.5428 19.914C77.5428 19.6993 77.4728 19.5313 77.3328 19.41C77.2021 19.2793 76.9734 19.1907 76.6468 19.144L75.9188 19.046C75.1254 18.9433 74.5188 18.7193 74.0988 18.374C73.6881 18.0193 73.4828 17.506 73.4828 16.834C73.4828 16.4793 73.5481 16.162 73.6788 15.882C73.8094 15.5927 73.9961 15.35 74.2388 15.154C74.4814 14.9487 74.7708 14.7947 75.1068 14.692C75.4521 14.58 75.8348 14.524 76.2548 14.524C76.6094 14.524 76.9221 14.552 77.1928 14.608C77.4728 14.6547 77.7248 14.7293 77.9488 14.832C78.1728 14.9253 78.3781 15.0467 78.5648 15.196C78.7514 15.336 78.9334 15.4947 79.1108 15.672L78.0608 16.722C77.8461 16.498 77.5894 16.3113 77.2908 16.162C76.9921 16.0127 76.6654 15.938 76.3108 15.938C75.9188 15.938 75.6341 16.008 75.4568 16.148C75.2888 16.288 75.2048 16.47 75.2048 16.694C75.2048 16.9367 75.2748 17.1233 75.4148 17.254C75.5641 17.3753 75.8114 17.464 76.1568 17.52L76.8988 17.618C78.4761 17.842 79.2648 18.5607 79.2648 19.774C79.2648 20.1287 79.1901 20.4553 79.0408 20.754C78.9008 21.0433 78.7001 21.2953 78.4388 21.51C78.1774 21.7153 77.8601 21.8787 77.4868 22C77.1228 22.112 76.7121 22.168 76.2548 22.168ZM83.1797 22C82.5637 22 82.0924 21.8413 81.7657 21.524C81.4484 21.1973 81.2897 20.7353 81.2897 20.138V16.12H80.2117V14.692H80.7717C81.0424 14.692 81.2244 14.6313 81.3177 14.51C81.4204 14.3793 81.4717 14.188 81.4717 13.936V12.69H83.0817V14.692H84.5797V16.12H83.0817V20.572H84.4677V22H83.1797ZM91.67 22C91.278 22 90.9654 21.888 90.732 21.664C90.508 21.4307 90.368 21.1227 90.312 20.74H90.228C90.1067 21.216 89.8594 21.5753 89.486 21.818C89.1127 22.0513 88.6507 22.168 88.1 22.168C87.3534 22.168 86.7794 21.972 86.378 21.58C85.9767 21.188 85.776 20.6653 85.776 20.012C85.776 19.256 86.0467 18.696 86.588 18.332C87.1294 17.9587 87.8994 17.772 88.898 17.772H90.144V17.24C90.144 16.8293 90.0367 16.512 89.822 16.288C89.6074 16.064 89.262 15.952 88.786 15.952C88.366 15.952 88.0254 16.0453 87.764 16.232C87.512 16.4093 87.2974 16.624 87.12 16.876L86.056 15.924C86.3267 15.504 86.686 15.168 87.134 14.916C87.582 14.6547 88.1747 14.524 88.912 14.524C89.9014 14.524 90.6527 14.748 91.166 15.196C91.6794 15.644 91.936 16.288 91.936 17.128V20.572H92.664V22H91.67ZM88.702 20.866C89.1034 20.866 89.444 20.7773 89.724 20.6C90.004 20.4227 90.144 20.1613 90.144 19.816V18.85H88.996C88.0627 18.85 87.596 19.1487 87.596 19.746V19.984C87.596 20.2827 87.6894 20.5067 87.876 20.656C88.072 20.796 88.3474 20.866 88.702 20.866ZM96.5017 22C95.8857 22 95.4143 21.8413 95.0877 21.524C94.7703 21.1973 94.6117 20.7353 94.6117 20.138V16.12H93.5337V14.692H94.0937C94.3643 14.692 94.5463 14.6313 94.6397 14.51C94.7423 14.3793 94.7937 14.188 94.7937 13.936V12.69H96.4037V14.692H97.9017V16.12H96.4037V20.572H97.7897V22H96.5017ZM102.515 22.168C101.974 22.168 101.489 22.0793 101.059 21.902C100.639 21.7153 100.28 21.4587 99.9813 21.132C99.692 20.796 99.468 20.3947 99.3093 19.928C99.1506 19.452 99.0713 18.92 99.0713 18.332C99.0713 17.7533 99.146 17.2307 99.2953 16.764C99.454 16.2973 99.678 15.9007 99.9673 15.574C100.257 15.238 100.611 14.9813 101.031 14.804C101.451 14.6173 101.927 14.524 102.459 14.524C103.029 14.524 103.523 14.622 103.943 14.818C104.363 15.014 104.709 15.28 104.979 15.616C105.25 15.952 105.451 16.344 105.581 16.792C105.721 17.2307 105.791 17.702 105.791 18.206V18.794H100.933V18.976C100.933 19.508 101.083 19.9373 101.381 20.264C101.68 20.5813 102.123 20.74 102.711 20.74C103.159 20.74 103.523 20.6467 103.803 20.46C104.093 20.2733 104.349 20.0353 104.573 19.746L105.539 20.824C105.241 21.244 104.83 21.5753 104.307 21.818C103.794 22.0513 103.197 22.168 102.515 22.168ZM102.487 15.868C102.011 15.868 101.633 16.0267 101.353 16.344C101.073 16.6613 100.933 17.072 100.933 17.576V17.688H103.929V17.562C103.929 17.058 103.803 16.652 103.551 16.344C103.309 16.0267 102.954 15.868 102.487 15.868Z"/><line x1="192.5" x2="192.5" y2="291" stroke="#DDE1E6"/><line x1="384.5" x2="384.5" y2="291" stroke="#DDE1E6"/><path stroke="#343A3F" d="M141 193.5H128.746C125.985 193.5 123.746 191.261 123.746 188.5V78.5C123.746 75.7386 121.508 73.5 118.746 73.5H107"/><path stroke="#343A3F" d="M333 133.5H324.5H320.746C317.985 133.5 315.746 131.261 315.746 128.5V78.5785C315.746 75.8574 313.57 73.6359 310.85 73.5796L307 73.5H299"/><path stroke="#343A3F" d="M333 253.5H320.746C317.985 253.5 315.746 251.261 315.746 248.5V198.5C315.746 195.739 313.508 193.5 310.746 193.5H299"/><path fill="#343A3F" d="M204 75L208 73.5L204 72V75Z"/><line x1="204" x2="80" y1="73.5" y2="73.5" stroke="#343A3F"/><path fill="#343A3F" d="M396 75L400 73.5L396 72V75Z"/><line x1="396" x2="264" y1="73.5" y2="73.5" stroke="#343A3F"/><path fill="#343A3F" d="M396 135L400 133.5L396 132V135Z"/><line x1="396" x2="333" y1="133.5" y2="133.5" stroke="#343A3F"/><path fill="#343A3F" d="M396 255L400 253.5L396 252V255Z"/><line x1="396" x2="333" y1="253.5" y2="253.5" stroke="#343A3F"/><path fill="#343A3F" d="M396 195L400 193.5L396 192V195Z"/><line x1="396" x2="264" y1="193.5" y2="193.5" stroke="#343A3F"/><path fill="#343A3F" d="M204 195L208 193.5L204 192V195Z"/><line x1="204" x2="141" y1="193.5" y2="193.5" stroke="#343A3F"/></svg>