<svg width="400" height="192" viewBox="0 0 400 192" fill="none" xmlns="http://www.w3.org/2000/svg">
<rect width="400" height="192" fill="white"/>
<rect opacity="0.4" y="120" width="400" height="40" fill="#F2F4F8"/>
<rect opacity="0.4" y="40" width="400" height="40" fill="#F2F4F8"/>
<rect x="0.5" y="0.5" width="399" height="191" stroke="#DDE1E6"/>
<line x1="98" y1="73.5" x2="299" y2="73.5" stroke="black"/>
<line x1="98" y1="121.5" x2="299" y2="121.5" stroke="black"/>
<line x1="193" y1="109" x2="193" y2="74" stroke="#005D5D" stroke-width="2"/>
<circle cx="193" cy="74" r="5.5" fill="#005D5D" stroke="#005D5D"/>
<path d="M177 106H209V138H177V106Z" fill="#005D5D"/>
<path d="M197.571 127.668H190.047L197.319 117.804V116.436H188.805V117.768H195.681L188.427 127.632V129H197.571V127.668Z" fill="white"/>
<path d="M71.0545 103L70 102.46L72.6804 97L70 91.54L71.0545 91L74 97L71.0545 103Z" fill="#161616"/>
<rect x="51" y="91" width="1" height="12" fill="#161616"/>
<path d="M60.9407 101V100.124H58.7327V92.624H57.1607L54.9407 94.7L55.5287 95.336L57.6407 93.368H57.7247V100.124H55.3247V101H60.9407ZM65.1 101.144C67.14 101.144 68.028 99.548 68.028 96.812C68.028 94.076 67.14 92.48 65.1 92.48C63.06 92.48 62.172 94.076 62.172 96.812C62.172 99.548 63.06 101.144 65.1 101.144ZM65.1 100.268C63.756 100.268 63.216 99.176 63.216 97.496V96.128C63.216 94.448 63.756 93.356 65.1 93.356C66.444 93.356 66.984 94.448 66.984 96.128V97.496C66.984 99.176 66.444 100.268 65.1 100.268ZM65.1 97.52C65.652 97.52 65.844 97.268 65.844 96.944V96.68C65.844 96.356 65.652 96.104 65.1 96.104C64.548 96.104 64.356 96.356 64.356 96.68V96.944C64.356 97.268 64.548 97.52 65.1 97.52Z" fill="black"/>
<path d="M345.054 103L344 102.46L346.68 97L344 91.54L345.054 91L348 97L345.054 103Z" fill="#161616"/>
<rect x="325" y="91" width="1" height="12" fill="#161616"/>
<path d="M334.941 101V100.124H332.733V92.624H331.161L328.941 94.7L329.529 95.336L331.641 93.368H331.725V100.124H329.325V101H334.941ZM339.1 101.144C341.14 101.144 342.028 99.548 342.028 96.812C342.028 94.076 341.14 92.48 339.1 92.48C337.06 92.48 336.172 94.076 336.172 96.812C336.172 99.548 337.06 101.144 339.1 101.144ZM339.1 100.268C337.756 100.268 337.216 99.176 337.216 97.496V96.128C337.216 94.448 337.756 93.356 339.1 93.356C340.444 93.356 340.984 94.448 340.984 96.128V97.496C340.984 99.176 340.444 100.268 339.1 100.268ZM339.1 97.52C339.652 97.52 339.844 97.268 339.844 96.944V96.68C339.844 96.356 339.652 96.104 339.1 96.104C338.548 96.104 338.356 96.356 338.356 96.68V96.944C338.356 97.268 338.548 97.52 339.1 97.52Z" fill="black"/>
<path d="M89 70C89 70 86 69.8284 86 71C86 76.9998 86 87.5 86 95C86 96.2503 83.5 97 83.5 97C83.5 97 86 97.7498 86 99C86 107 86 112 86 124C86 125.171 89 125 89 125" stroke="black"/>
<path d="M309 70.0088C309 70.0088 312 69.8373 312 71.0085C312 77.0064 312 87.5032 312 95.0008C312 96.2507 314.5 97.0002 314.5 97.0002C314.5 97.0002 312 97.7497 312 98.9995C312 106.997 312 111.995 312 123.991C312 125.163 309 124.991 309 124.991" stroke="black"/>
</svg>
