<svg width="400" height="192" viewBox="0 0 400 192" fill="none" xmlns="http://www.w3.org/2000/svg">
<rect width="400" height="192" fill="white"/>
<rect opacity="0.4" y="120" width="400" height="40" fill="#F2F4F8"/>
<rect opacity="0.4" y="40" width="400" height="40" fill="#F2F4F8"/>
<rect x="0.5" y="0.5" width="399" height="191" stroke="#DDE1E6"/>
<line x1="98" y1="72.5" x2="299" y2="72.5" stroke="black"/>
<line x1="98" y1="120.5" x2="299" y2="120.5" stroke="black"/>
<line x1="193" y1="108" x2="193" y2="73" stroke="#005D5D" stroke-width="2"/>
<circle cx="193" cy="73" r="5.5" fill="#005D5D" stroke="#005D5D"/>
<path d="M177 105H209V137H177V105Z" fill="#005D5D"/>
<path d="M197.571 126.668H190.047L197.319 116.804V115.436H188.805V116.768H195.681L188.427 126.632V128H197.571V126.668Z" fill="white"/>
<path d="M89 69C89 69 86 68.8284 86 70C86 75.9998 86 86.5 86 94C86 95.2503 83.5 96 83.5 96C83.5 96 86 96.7498 86 98C86 106 86 111 86 123C86 124.171 89 124 89 124" stroke="black"/>
<path d="M309 69.0088C309 69.0088 312 68.8373 312 70.0085C312 76.0064 312 86.5032 312 94.0008C312 95.2507 314.5 96.0002 314.5 96.0002C314.5 96.0002 312 96.7497 312 97.9995C312 105.997 312 110.995 312 122.991C312 124.163 309 123.991 309 123.991" stroke="black"/>
<path d="M71.0545 102L70 101.46L72.6804 96L70 90.54L71.0545 90L74 96L71.0545 102Z" fill="#161616"/>
<rect x="51" y="90" width="1" height="12" fill="#161616"/>
<path d="M44.1654 99.256V96.748H46.5654V95.932H44.1654V93.424H43.2534V95.932H40.8534V96.748H43.2534V99.256H44.1654ZM61.136 100V99.124H58.928V91.624H57.356L55.136 93.7L55.724 94.336L57.836 92.368H57.92V99.124H55.52V100H61.136ZM68.3313 100V99.124H66.1233V91.624H64.5513L62.3313 93.7L62.9193 94.336L65.0313 92.368H65.1153V99.124H62.7153V100H68.3313Z" fill="black"/>
<path d="M33.0545 102L32 101.46L34.6804 96L32 90.54L33.0545 90L36 96L33.0545 102Z" fill="#161616"/>
<rect x="13" y="90" width="1" height="12" fill="#161616"/>
<path d="M22.9407 100V99.124H20.7327V91.624H19.1607L16.9407 93.7L17.5287 94.336L19.6407 92.368H19.7247V99.124H17.3247V100H22.9407ZM27.1 100.144C29.14 100.144 30.028 98.548 30.028 95.812C30.028 93.076 29.14 91.48 27.1 91.48C25.06 91.48 24.172 93.076 24.172 95.812C24.172 98.548 25.06 100.144 27.1 100.144ZM27.1 99.268C25.756 99.268 25.216 98.176 25.216 96.496V95.128C25.216 93.448 25.756 92.356 27.1 92.356C28.444 92.356 28.984 93.448 28.984 95.128V96.496C28.984 98.176 28.444 99.268 27.1 99.268ZM27.1 96.52C27.652 96.52 27.844 96.268 27.844 95.944V95.68C27.844 95.356 27.652 95.104 27.1 95.104C26.548 95.104 26.356 95.356 26.356 95.68V95.944C26.356 96.268 26.548 96.52 27.1 96.52Z" fill="black"/>
<line x1="16.9807" y1="106.5" x2="69.0192" y2="106.5" stroke="black"/>
<path d="M44.1091 119.197H39.9401L42.0851 117.327C43.1081 116.436 43.8011 115.578 43.8011 114.412C43.8011 113.114 42.9431 112.19 41.4141 112.19C39.9071 112.19 39.2141 113.092 38.9171 113.994L39.7421 114.302C39.9841 113.51 40.4571 112.993 41.3921 112.993C42.3381 112.993 42.8331 113.521 42.8331 114.445V114.577C42.8331 115.358 42.2941 116.073 41.5461 116.744L38.9831 119.054V120H44.1091V119.197Z" fill="black"/>
<path d="M32 117.5H34L35 121L37.5 110H47.5" stroke="black"/>
<path d="M383.054 102L382 101.46L384.68 96L382 90.54L383.054 90L386 96L383.054 102Z" fill="#161616"/>
<rect x="363" y="90" width="1" height="12" fill="#161616"/>
<path d="M357.449 96.856V95.848H353.969V96.856H357.449ZM373.136 100V99.124H370.928V91.624H369.356L367.136 93.7L367.724 94.336L369.836 92.368H369.92V99.124H367.52V100H373.136ZM380.331 100V99.124H378.123V91.624H376.551L374.331 93.7L374.919 94.336L377.031 92.368H377.115V99.124H374.715V100H380.331Z" fill="black"/>
<path d="M345.054 102L344 101.46L346.68 96L344 90.54L345.054 90L348 96L345.054 102Z" fill="#161616"/>
<rect x="325" y="90" width="1" height="12" fill="#161616"/>
<path d="M334.941 100V99.124H332.733V91.624H331.161L328.941 93.7L329.529 94.336L331.641 92.368H331.725V99.124H329.325V100H334.941ZM339.1 100.144C341.14 100.144 342.028 98.548 342.028 95.812C342.028 93.076 341.14 91.48 339.1 91.48C337.06 91.48 336.172 93.076 336.172 95.812C336.172 98.548 337.06 100.144 339.1 100.144ZM339.1 99.268C337.756 99.268 337.216 98.176 337.216 96.496V95.128C337.216 93.448 337.756 92.356 339.1 92.356C340.444 92.356 340.984 93.448 340.984 95.128V96.496C340.984 98.176 340.444 99.268 339.1 99.268ZM339.1 96.52C339.652 96.52 339.844 96.268 339.844 95.944V95.68C339.844 95.356 339.652 95.104 339.1 95.104C338.548 95.104 338.356 95.356 338.356 95.68V95.944C338.356 96.268 338.548 96.52 339.1 96.52Z" fill="black"/>
<line x1="328.981" y1="106.5" x2="381.019" y2="106.5" stroke="black"/>
<path d="M356.109 119.197H351.94L354.085 117.327C355.108 116.436 355.801 115.578 355.801 114.412C355.801 113.114 354.943 112.19 353.414 112.19C351.907 112.19 351.214 113.092 350.917 113.994L351.742 114.302C351.984 113.51 352.457 112.993 353.392 112.993C354.338 112.993 354.833 113.521 354.833 114.445V114.577C354.833 115.358 354.294 116.073 353.546 116.744L350.983 119.054V120H356.109V119.197Z" fill="black"/>
<path d="M344 117.5H346L347 121L349.5 110H359.5" stroke="black"/>
</svg>
