<svg xmlns="http://www.w3.org/2000/svg" width="472" height="503" fill="none" viewBox="0 0 472 503"><path fill="#000" d="M430.6 401.144C430.168 401.144 429.776 401.068 429.424 400.916C429.08 400.764 428.784 400.548 428.536 400.268C428.296 399.98 428.112 399.64 427.984 399.248C427.856 398.848 427.792 398.4 427.792 397.904C427.792 397.416 427.856 396.972 427.984 396.572C428.112 396.172 428.296 395.832 428.536 395.552C428.784 395.264 429.08 395.044 429.424 394.892C429.776 394.74 430.168 394.664 430.6 394.664C431.032 394.664 431.42 394.74 431.764 394.892C432.116 395.044 432.412 395.264 432.652 395.552C432.9 395.832 433.088 396.172 433.216 396.572C433.344 396.972 433.408 397.416 433.408 397.904C433.408 398.4 433.344 398.848 433.216 399.248C433.088 399.64 432.9 399.98 432.652 400.268C432.412 400.548 432.116 400.764 431.764 400.916C431.42 401.068 431.032 401.144 430.6 401.144ZM430.6 400.316C431.136 400.316 431.568 400.156 431.896 399.836C432.224 399.516 432.388 399.02 432.388 398.348V397.46C432.388 396.788 432.224 396.292 431.896 395.972C431.568 395.652 431.136 395.492 430.6 395.492C430.064 395.492 429.632 395.652 429.304 395.972C428.976 396.292 428.812 396.788 428.812 397.46V398.348C428.812 399.02 428.976 399.516 429.304 399.836C429.632 400.156 430.064 400.316 430.6 400.316ZM435.439 400.184H437.251V395.624H435.439V394.808H438.211V396.368H438.271C438.399 395.88 438.639 395.5 438.991 395.228C439.351 394.948 439.807 394.808 440.359 394.808H441.223V395.768H440.059C439.507 395.768 439.059 395.928 438.715 396.248C438.379 396.568 438.211 396.988 438.211 397.508V400.184H440.611V401H435.439V400.184ZM447.971 401C447.595 401 447.327 400.904 447.167 400.712C447.007 400.52 446.907 400.28 446.867 399.992H446.807C446.671 400.352 446.451 400.636 446.147 400.844C445.851 401.044 445.451 401.144 444.947 401.144C444.299 401.144 443.783 400.976 443.399 400.64C443.015 400.304 442.823 399.844 442.823 399.26C442.823 398.684 443.031 398.24 443.447 397.928C443.871 397.616 444.551 397.46 445.487 397.46H446.807V396.848C446.807 396.392 446.679 396.052 446.423 395.828C446.167 395.596 445.803 395.48 445.331 395.48C444.915 395.48 444.575 395.564 444.311 395.732C444.047 395.892 443.835 396.112 443.675 396.392L443.027 395.912C443.107 395.752 443.215 395.596 443.351 395.444C443.487 395.292 443.655 395.16 443.855 395.048C444.055 394.928 444.283 394.836 444.539 394.772C444.795 394.7 445.079 394.664 445.391 394.664C446.119 394.664 446.695 394.848 447.119 395.216C447.551 395.584 447.767 396.096 447.767 396.752V400.16H448.631V401H447.971ZM445.115 400.34C445.363 400.34 445.587 400.312 445.787 400.256C445.995 400.192 446.175 400.112 446.327 400.016C446.479 399.912 446.595 399.792 446.675 399.656C446.763 399.512 446.807 399.36 446.807 399.2V398.18H445.487C444.911 398.18 444.491 398.26 444.227 398.42C443.963 398.58 443.831 398.812 443.831 399.116V399.368C443.831 399.688 443.943 399.932 444.167 400.1C444.399 400.26 444.715 400.34 445.115 400.34ZM453.362 401.144C452.914 401.144 452.514 401.068 452.162 400.916C451.818 400.756 451.526 400.536 451.286 400.256C451.046 399.976 450.862 399.636 450.734 399.236C450.614 398.836 450.554 398.392 450.554 397.904C450.554 397.416 450.618 396.972 450.746 396.572C450.874 396.172 451.058 395.832 451.298 395.552C451.538 395.264 451.83 395.044 452.174 394.892C452.518 394.74 452.91 394.664 453.35 394.664C453.95 394.664 454.438 394.796 454.814 395.06C455.19 395.324 455.466 395.668 455.642 396.092L454.874 396.5C454.762 396.18 454.574 395.932 454.31 395.756C454.054 395.58 453.734 395.492 453.35 395.492C453.07 395.492 452.818 395.54 452.594 395.636C452.378 395.724 452.194 395.852 452.042 396.02C451.89 396.188 451.774 396.388 451.694 396.62C451.622 396.852 451.586 397.104 451.586 397.376V398.432C451.586 398.704 451.622 398.956 451.694 399.188C451.774 399.42 451.89 399.62 452.042 399.788C452.194 399.956 452.382 400.088 452.606 400.184C452.83 400.272 453.086 400.316 453.374 400.316C453.79 400.316 454.134 400.22 454.406 400.028C454.678 399.836 454.894 399.572 455.054 399.236L455.738 399.704C455.554 400.12 455.266 400.464 454.874 400.736C454.49 401.008 453.986 401.144 453.362 401.144ZM458.021 400.184H460.181V392.936H458.021V392.12H461.141V400.184H463.301V401H458.021V400.184ZM468.285 401.144C467.837 401.144 467.433 401.068 467.073 400.916C466.721 400.764 466.417 400.548 466.161 400.268C465.913 399.98 465.721 399.64 465.585 399.248C465.449 398.848 465.381 398.404 465.381 397.916C465.381 397.42 465.449 396.972 465.585 396.572C465.729 396.172 465.925 395.832 466.173 395.552C466.421 395.264 466.717 395.044 467.061 394.892C467.413 394.74 467.801 394.664 468.225 394.664C468.641 394.664 469.017 394.74 469.353 394.892C469.697 395.044 469.989 395.256 470.229 395.528C470.469 395.792 470.653 396.108 470.781 396.476C470.909 396.844 470.973 397.248 470.973 397.688V398.144H466.389V398.432C466.389 398.704 466.433 398.956 466.521 399.188C466.609 399.42 466.733 399.62 466.893 399.788C467.061 399.956 467.261 400.088 467.493 400.184C467.733 400.272 467.997 400.316 468.285 400.316C468.701 400.316 469.061 400.22 469.365 400.028C469.669 399.836 469.901 399.572 470.061 399.236L470.769 399.716C470.585 400.132 470.277 400.476 469.845 400.748C469.421 401.012 468.901 401.144 468.285 401.144ZM468.225 395.456C467.961 395.456 467.717 395.504 467.493 395.6C467.269 395.696 467.073 395.828 466.905 395.996C466.745 396.164 466.617 396.364 466.521 396.596C466.433 396.82 466.389 397.068 466.389 397.34V397.424H469.941V397.292C469.941 397.02 469.897 396.772 469.809 396.548C469.729 396.324 469.613 396.132 469.461 395.972C469.317 395.804 469.137 395.676 468.921 395.588C468.713 395.5 468.481 395.456 468.225 395.456Z"/><path fill="#A6C8FF" d="M208 426C208 414.358 206.983 402.737 204.962 391.271L8 426H208Z"/><path fill="#000" d="M8.53033 25.4697C8.23744 25.1768 7.76256 25.1768 7.46967 25.4697L2.6967 30.2426C2.40381 30.5355 2.40381 31.0104 2.6967 31.3033C2.98959 31.5962 3.46447 31.5962 3.75736 31.3033L8 27.0607L12.2426 31.3033C12.5355 31.5962 13.0104 31.5962 13.3033 31.3033C13.5962 31.0104 13.5962 30.5355 13.3033 30.2426L8.53033 25.4697ZM8.75 426L8.75 26H7.25L7.25 426H8.75Z"/><path fill="#000" d="M408.53 426.53C408.823 426.237 408.823 425.763 408.53 425.47L403.757 420.697C403.464 420.404 402.99 420.404 402.697 420.697C402.404 420.99 402.404 421.464 402.697 421.757L406.939 426L402.697 430.243C402.404 430.536 402.404 431.01 402.697 431.303C402.99 431.596 403.464 431.596 403.757 431.303L408.53 426.53ZM8 426.75H408V425.25H8V426.75Z"/><path fill="#000" d="M402.537 356.43C402.775 356.091 402.693 355.623 402.353 355.385L396.824 351.514C396.485 351.276 396.017 351.359 395.779 351.698C395.542 352.037 395.624 352.505 395.964 352.742L400.879 356.184L397.437 361.099C397.2 361.438 397.282 361.906 397.621 362.143C397.961 362.381 398.428 362.298 398.666 361.959L402.537 356.43ZM8.13024 426.198L402.053 356.738L401.793 355.261L7.86976 424.72L8.13024 426.198Z"/><path fill="#000" d="M402.353 497.074C402.693 496.836 402.775 496.368 402.537 496.029L398.666 490.5C398.428 490.161 397.961 490.078 397.621 490.316C397.282 490.553 397.2 491.021 397.437 491.36L400.879 496.275L395.964 499.717C395.624 499.954 395.542 500.422 395.779 500.761C396.017 501.1 396.485 501.183 396.824 500.945L402.353 497.074ZM7.86976 427.739L401.793 497.198L402.053 495.721L8.13024 426.261L7.86976 427.739Z"/><path fill="#000" d="M3.18 14.656V3.88H4.02V14.656H3.18Z"/><path fill="#000" d="M422.18 432.656V421.88H423.02V432.656H422.18ZM427.247 431L429.551 427.856L427.307 424.808H428.459L429.395 426.116L430.139 427.148H430.187L430.907 426.116L431.831 424.808H432.935L430.667 427.844L432.995 431H431.843L430.799 429.548L430.091 428.564H430.043L429.359 429.548L428.351 431H427.247Z"/><path fill="#000" d="M412.18 362.656V351.88H413.02V362.656H412.18ZM420.187 361.144C419.539 361.144 418.979 361.036 418.507 360.82C418.043 360.596 417.647 360.3 417.319 359.932L417.967 359.368C418.263 359.68 418.587 359.92 418.939 360.088C419.291 360.256 419.715 360.34 420.211 360.34C420.691 360.34 421.083 360.256 421.387 360.088C421.699 359.912 421.855 359.64 421.855 359.272C421.855 359.112 421.823 358.98 421.759 358.876C421.703 358.764 421.623 358.676 421.519 358.612C421.415 358.548 421.299 358.5 421.171 358.468C421.043 358.428 420.907 358.396 420.763 358.372L419.791 358.228C419.575 358.196 419.339 358.152 419.083 358.096C418.835 358.04 418.607 357.952 418.399 357.832C418.191 357.704 418.015 357.536 417.871 357.328C417.735 357.12 417.667 356.848 417.667 356.512C417.667 356.2 417.727 355.932 417.847 355.708C417.975 355.476 418.151 355.284 418.375 355.132C418.599 354.972 418.863 354.856 419.167 354.784C419.471 354.704 419.803 354.664 420.163 354.664C420.723 354.664 421.207 354.752 421.615 354.928C422.031 355.104 422.387 355.348 422.683 355.66L422.059 356.248C421.987 356.16 421.895 356.072 421.783 355.984C421.679 355.888 421.547 355.804 421.387 355.732C421.235 355.652 421.055 355.588 420.847 355.54C420.639 355.492 420.399 355.468 420.127 355.468C419.639 355.468 419.263 355.552 418.999 355.72C418.743 355.888 418.615 356.132 418.615 356.452C418.615 356.612 418.643 356.748 418.699 356.86C418.763 356.964 418.847 357.048 418.951 357.112C419.055 357.176 419.171 357.228 419.299 357.268C419.435 357.3 419.571 357.328 419.707 357.352L420.679 357.496C420.903 357.528 421.139 357.572 421.387 357.628C421.635 357.684 421.863 357.776 422.071 357.904C422.279 358.024 422.451 358.188 422.587 358.396C422.731 358.604 422.803 358.876 422.803 359.212C422.803 359.828 422.563 360.304 422.083 360.64C421.611 360.976 420.979 361.144 420.187 361.144Z"/><path fill="#000" d="M183.48 410.476C183.48 411.444 183.38 412.276 183.18 412.972C182.988 413.66 182.676 414.192 182.244 414.568C181.82 414.936 181.256 415.12 180.552 415.12C179.56 415.12 178.828 414.708 178.356 413.884C177.892 413.06 177.66 411.924 177.66 410.476C177.66 409.5 177.756 408.664 177.948 407.968C178.14 407.272 178.448 406.74 178.872 406.372C179.304 406.004 179.864 405.82 180.552 405.82C181.552 405.82 182.288 406.228 182.76 407.044C183.24 407.852 183.48 408.996 183.48 410.476ZM180.552 406.684C179.944 406.684 179.496 406.956 179.208 407.5C178.928 408.036 178.768 408.84 178.728 409.912H182.4C182.36 408.84 182.196 408.036 181.908 407.5C181.62 406.956 181.168 406.684 180.552 406.684ZM180.552 414.256C181.176 414.256 181.636 413.968 181.932 413.392C182.228 412.816 182.388 411.948 182.412 410.788H178.728C178.744 411.932 178.892 412.796 179.172 413.38C179.46 413.964 179.92 414.256 180.552 414.256Z"/><path stroke="#000" stroke-dasharray="5 5" stroke-width=".75" d="M376.633 468.616C391.998 439.699 394.378 408.405 384.879 381"/><line x1="374.265" x2="372.265" y1="473.147" y2="463.147" stroke="#000" stroke-width="1.5"/><line x1="374.763" x2="383.763" y1="472.288" y2="469.288" stroke="#000" stroke-width="1.5"/><path stroke="#000" d="M17.2871 4L20.2871 9.5L17.2871 15"/><path stroke="#000" d="M6 10.5908L8.78662 14L14.7866 5"/><path stroke="#000" stroke-width=".85" d="M437 422L440 427.5L437 433"/><path stroke="#000" stroke-width=".85" d="M427 352L430 357.5L427 363"/></svg>