<svg xmlns="http://www.w3.org/2000/svg" width="517" height="234" fill="none" viewBox="0 0 517 234"><line x1="163.312" x2="254.437" y1="229.275" y2="19.701" stroke="url(#paint0_linear)" stroke-dasharray="5 5" stroke-width="1.5"/><path fill="#6929C4" d="M262.895 22.4121L264.371 17.6602H265.531L262.982 24.9785C262.588 26.0332 261.961 26.5605 261.102 26.5605L260.896 26.543L260.492 26.4668V25.5879L260.785 25.6113C261.152 25.6113 261.438 25.5371 261.641 25.3887C261.848 25.2402 262.018 24.9688 262.15 24.5742L262.391 23.9297L260.129 17.6602H261.312L262.895 22.4121ZM274.438 19.2305H269.551V18.2871H274.438V19.2305ZM274.438 21.6621H269.551V20.7246H274.438V21.6621ZM284.328 20.25C284.328 21.5039 284.098 22.4629 283.637 23.127C283.176 23.7871 282.51 24.1172 281.639 24.1172C280.783 24.1172 280.123 23.793 279.658 23.1445C279.193 22.4961 278.953 21.5703 278.938 20.3672V19.166C278.938 17.9277 279.168 16.9824 279.629 16.3301C280.09 15.6777 280.756 15.3516 281.627 15.3516C282.494 15.3516 283.156 15.668 283.613 16.3008C284.074 16.9336 284.312 17.8496 284.328 19.0488V20.25ZM280.021 19.3066H283.238V18.9844C283.238 18.0977 283.102 17.4199 282.828 16.9512C282.559 16.4785 282.158 16.2422 281.627 16.2422C281.104 16.2422 280.705 16.4785 280.432 16.9512C280.158 17.4199 280.021 18.0977 280.021 18.9844V19.3066ZM283.238 20.1973H280.021V20.4258C280.021 21.3203 280.164 22.0117 280.449 22.5C280.734 22.9883 281.131 23.2324 281.639 23.2324C282.146 23.2324 282.537 22.998 282.811 22.5293C283.088 22.0605 283.23 21.3828 283.238 20.4961V20.1973Z"/><path fill="#0F62FE" d="M308.895 101.412L310.371 96.6602H311.531L308.982 103.979C308.588 105.033 307.961 105.561 307.102 105.561L306.896 105.543L306.492 105.467V104.588L306.785 104.611C307.152 104.611 307.438 104.537 307.641 104.389C307.848 104.24 308.018 103.969 308.15 103.574L308.391 102.93L306.129 96.6602H307.312L308.895 101.412ZM320.438 98.2305H315.551V97.2871H320.438V98.2305ZM320.438 100.662H315.551V99.7246H320.438V100.662ZM328.734 101.318C328.734 101.025 328.623 100.799 328.4 100.639C328.182 100.475 327.797 100.334 327.246 100.217C326.699 100.1 326.264 99.959 325.939 99.7949C325.619 99.6309 325.381 99.4355 325.225 99.209C325.072 98.9824 324.996 98.7129 324.996 98.4004C324.996 97.8809 325.215 97.4414 325.652 97.082C326.094 96.7227 326.656 96.543 327.34 96.543C328.059 96.543 328.641 96.7285 329.086 97.0996C329.535 97.4707 329.76 97.9453 329.76 98.5234H328.67C328.67 98.2266 328.543 97.9707 328.289 97.7559C328.039 97.541 327.723 97.4336 327.34 97.4336C326.945 97.4336 326.637 97.5195 326.414 97.6914C326.191 97.8633 326.08 98.0879 326.08 98.3652C326.08 98.627 326.184 98.8242 326.391 98.957C326.598 99.0898 326.971 99.2168 327.51 99.3379C328.053 99.459 328.492 99.6035 328.828 99.7715C329.164 99.9395 329.412 100.143 329.572 100.381C329.736 100.615 329.818 100.902 329.818 101.242C329.818 101.809 329.592 102.264 329.139 102.607C328.686 102.947 328.098 103.117 327.375 103.117C326.867 103.117 326.418 103.027 326.027 102.848C325.637 102.668 325.33 102.418 325.107 102.098C324.889 101.773 324.779 101.424 324.779 101.049H325.863C325.883 101.412 326.027 101.701 326.297 101.916C326.57 102.127 326.93 102.232 327.375 102.232C327.785 102.232 328.113 102.15 328.359 101.986C328.609 101.818 328.734 101.596 328.734 101.318ZM332.408 103H331.324V96.6602H332.408V103ZM331.236 94.9785C331.236 94.8027 331.289 94.6543 331.395 94.5332C331.504 94.4121 331.664 94.3516 331.875 94.3516C332.086 94.3516 332.246 94.4121 332.355 94.5332C332.465 94.6543 332.52 94.8027 332.52 94.9785C332.52 95.1543 332.465 95.3008 332.355 95.418C332.246 95.5352 332.086 95.5938 331.875 95.5938C331.664 95.5938 331.504 95.5352 331.395 95.418C331.289 95.3008 331.236 95.1543 331.236 94.9785ZM335.174 96.6602L335.209 97.457C335.693 96.8477 336.326 96.543 337.107 96.543C338.447 96.543 339.123 97.2988 339.135 98.8105V103H338.051V98.8047C338.047 98.3477 337.941 98.0098 337.734 97.791C337.531 97.5723 337.213 97.4629 336.779 97.4629C336.428 97.4629 336.119 97.5566 335.854 97.7441C335.588 97.9316 335.381 98.1777 335.232 98.4824V103H334.148V96.6602H335.174ZM340.729 99.5371C340.729 98.6543 340.846 97.8066 341.08 96.9941C341.318 96.1816 341.672 95.4434 342.141 94.7793C342.609 94.1152 343.096 93.6465 343.6 93.373L343.822 94.0879C343.252 94.5254 342.783 95.1934 342.416 96.0918C342.053 96.9902 341.854 97.9961 341.818 99.1094L341.812 99.6074C341.812 101.115 342.088 102.424 342.639 103.533C342.971 104.197 343.365 104.717 343.822 105.092L343.6 105.754C343.08 105.465 342.584 104.98 342.111 104.301C341.189 102.973 340.729 101.385 340.729 99.5371ZM350.156 99.25C350.156 100.504 349.926 101.463 349.465 102.127C349.004 102.787 348.338 103.117 347.467 103.117C346.611 103.117 345.951 102.793 345.486 102.145C345.021 101.496 344.781 100.57 344.766 99.3672V98.166C344.766 96.9277 344.996 95.9824 345.457 95.3301C345.918 94.6777 346.584 94.3516 347.455 94.3516C348.322 94.3516 348.984 94.668 349.441 95.3008C349.902 95.9336 350.141 96.8496 350.156 98.0488V99.25ZM345.85 98.3066H349.066V97.9844C349.066 97.0977 348.93 96.4199 348.656 95.9512C348.387 95.4785 347.986 95.2422 347.455 95.2422C346.932 95.2422 346.533 95.4785 346.26 95.9512C345.986 96.4199 345.85 97.0977 345.85 97.9844V98.3066ZM349.066 99.1973H345.85V99.4258C345.85 100.32 345.992 101.012 346.277 101.5C346.562 101.988 346.959 102.232 347.467 102.232C347.975 102.232 348.365 101.998 348.639 101.529C348.916 101.061 349.059 100.383 349.066 99.4961V99.1973ZM354.205 99.5957C354.205 100.467 354.09 101.303 353.859 102.104C353.633 102.9 353.283 103.637 352.811 104.312C352.342 104.988 351.85 105.469 351.334 105.754L351.105 105.092C351.707 104.631 352.189 103.916 352.553 102.947C352.92 101.975 353.107 100.896 353.115 99.7129V99.5254C353.115 98.7051 353.029 97.9434 352.857 97.2402C352.686 96.5332 352.445 95.9004 352.137 95.3418C351.832 94.7832 351.488 94.3477 351.105 94.0352L351.334 93.373C351.85 93.6582 352.34 94.1348 352.805 94.8027C353.273 95.4707 353.623 96.207 353.854 97.0117C354.088 97.8164 354.205 98.6777 354.205 99.5957Z"/><path fill="#000" d="M499.48 139.476C499.48 140.444 499.38 141.276 499.18 141.972C498.988 142.66 498.676 143.192 498.244 143.568C497.82 143.936 497.256 144.12 496.552 144.12C495.56 144.12 494.828 143.708 494.356 142.884C493.892 142.06 493.66 140.924 493.66 139.476C493.66 138.5 493.756 137.664 493.948 136.968C494.14 136.272 494.448 135.74 494.872 135.372C495.304 135.004 495.864 134.82 496.552 134.82C497.552 134.82 498.288 135.228 498.76 136.044C499.24 136.852 499.48 137.996 499.48 139.476ZM496.552 135.684C495.944 135.684 495.496 135.956 495.208 136.5C494.928 137.036 494.768 137.84 494.728 138.912H498.4C498.36 137.84 498.196 137.036 497.908 136.5C497.62 135.956 497.168 135.684 496.552 135.684ZM496.552 143.256C497.176 143.256 497.636 142.968 497.932 142.392C498.228 141.816 498.388 140.948 498.412 139.788H494.728C494.744 140.932 494.892 141.796 495.172 142.38C495.46 142.964 495.92 143.256 496.552 143.256Z"/><path fill="#000" d="M200.604 6.808H201.564L198.492 14.356C198.42 14.532 198.34 14.684 198.252 14.812C198.164 14.948 198.06 15.056 197.94 15.136C197.82 15.224 197.676 15.288 197.508 15.328C197.34 15.376 197.14 15.4 196.908 15.4H195.996V14.584H197.436L198.132 12.88L195.636 6.808H196.62L197.664 9.4L198.588 11.752H198.636L199.56 9.4L200.604 6.808Z"/><line x1="4" x2="516" y1="129.25" y2="129.25" stroke="url(#paint1_linear)" stroke-width="1.5"/><line x1="207.25" x2="207.25" y1="233.022" y2="1" stroke="url(#paint2_linear)" stroke-width="1.5"/><path stroke="url(#paint3_linear)" stroke-width="1.5" d="M1 128.5C35.3333 43.8333 69.6667 43.8333 104 128.5C138.333 213.167 172.667 213.167 207 128.5C241.333 43.8333 275.667 43.8333 310 128.5C344.333 213.167 378.667 213.167 413 128.5C447.333 43.8333 481.667 43.8333 516 128.5"/><defs><linearGradient id="paint0_linear" x1="255" x2="163.999" y1="20" y2="230" gradientUnits="userSpaceOnUse"><stop stop-color="#6929C4" stop-opacity="0"/><stop offset=".193" stop-color="#6929C4"/><stop offset=".797" stop-color="#6929C4"/><stop offset="1" stop-color="#6929C4" stop-opacity="0"/></linearGradient><linearGradient id="paint1_linear" x1="515.997" x2="4" y1="130" y2="130" gradientUnits="userSpaceOnUse"><stop stop-opacity="0"/><stop offset=".359"/><stop offset=".708"/><stop offset="1" stop-opacity="0"/></linearGradient><linearGradient id="paint2_linear" x1="208" x2="208" y1="1" y2="233" gradientUnits="userSpaceOnUse"><stop stop-opacity="0"/><stop offset=".266"/><stop offset=".818"/><stop offset="1" stop-opacity="0"/></linearGradient><linearGradient id="paint3_linear" x1="1" x2="516" y1="129" y2="129" gradientUnits="userSpaceOnUse"><stop stop-color="#0F62FE" stop-opacity="0"/><stop offset=".307" stop-color="#0F62FE"/><stop offset=".698" stop-color="#0F62FE"/><stop offset="1" stop-color="#0F62FE" stop-opacity="0"/></linearGradient></defs></svg>