<svg xmlns="http://www.w3.org/2000/svg" width="441" height="434" fill="none" viewBox="0 0 441 434"><path fill="#D0E2FF" d="M206.5 426C206.5 399.736 201.359 373.728 191.371 349.463C181.383 325.198 166.743 303.15 148.287 284.579C129.832 266.007 107.922 251.275 83.8083 241.224C59.6949 231.173 33.8502 226 7.75 226L7.75001 426H206.5Z"/><path fill="#A6C8FF" d="M206.54 425.546C206.54 413.903 205.523 402.283 203.502 390.817L6.54004 425.546H206.54Z"/><path fill="#000" d="M408.348 426.354C408.543 426.158 408.543 425.842 408.348 425.646L405.166 422.464C404.97 422.269 404.654 422.269 404.459 422.464C404.263 422.66 404.263 422.976 404.459 423.172L407.287 426L404.459 428.828C404.263 429.024 404.263 429.34 404.459 429.536C404.654 429.731 404.97 429.731 405.166 429.536L408.348 426.354ZM7.99414 426.5L407.994 426.5V425.5L7.99414 425.5V426.5Z"/><path fill="#000" d="M8.53033 25.4697C8.23744 25.1768 7.76256 25.1768 7.46967 25.4697L2.6967 30.2426C2.40381 30.5355 2.40381 31.0104 2.6967 31.3033C2.98959 31.5962 3.46447 31.5962 3.75736 31.3033L8 27.0607L12.2426 31.3033C12.5355 31.5962 13.0104 31.5962 13.3033 31.3033C13.5962 31.0104 13.5962 30.5355 13.3033 30.2426L8.53033 25.4697ZM8.75 426L8.75 26H7.25L7.25 426H8.75Z"/><path fill="#000" d="M402.23 356.215C402.349 356.045 402.308 355.811 402.138 355.693L399.374 353.757C399.204 353.638 398.97 353.679 398.851 353.849C398.732 354.018 398.774 354.252 398.943 354.371L401.401 356.092L399.68 358.549C399.561 358.719 399.603 358.953 399.772 359.072C399.942 359.19 400.176 359.149 400.294 358.979L402.23 356.215ZM8.06512 425.828L10.5271 425.394L10.3969 424.656L7.93488 425.09L8.06512 425.828ZM13.4816 424.873L18.4056 424.005L18.2754 423.266L13.3513 424.135L13.4816 424.873ZM21.36 423.484L26.2841 422.616L26.1538 421.877L21.2298 422.745L21.36 423.484ZM29.2385 422.095L34.1625 421.227L34.0323 420.488L29.1082 421.356L29.2385 422.095ZM37.1169 420.706L42.041 419.837L41.9107 419.099L36.9867 419.967L37.1169 420.706ZM44.9954 419.316L49.9194 418.448L49.7892 417.71L44.8652 418.578L44.9954 419.316ZM52.8739 417.927L57.7979 417.059L57.6677 416.32L52.7436 417.189L52.8739 417.927ZM60.7523 416.538L65.6764 415.67L65.5461 414.931L60.6221 415.8L60.7523 416.538ZM68.6308 415.149L73.5548 414.281L73.4246 413.542L68.5006 414.41L68.6308 415.149ZM76.5093 413.76L81.4333 412.891L81.3031 412.153L76.379 413.021L76.5093 413.76ZM84.3877 412.371L89.3118 411.502L89.1815 410.764L84.2575 411.632L84.3877 412.371ZM92.2662 410.981L97.1902 410.113L97.06 409.375L92.1359 410.243L92.2662 410.981ZM100.145 409.592L105.069 408.724L104.938 407.985L100.014 408.854L100.145 409.592ZM108.023 408.203L112.947 407.335L112.817 406.596L107.893 407.464L108.023 408.203ZM115.902 406.814L120.826 405.946L120.695 405.207L115.771 406.075L115.902 406.814ZM123.78 405.425L128.704 404.556L128.574 403.818L123.65 404.686L123.78 405.425ZM131.658 404.035L136.583 403.167L136.452 402.429L131.528 403.297L131.658 404.035ZM139.537 402.646L144.461 401.778L144.331 401.039L139.407 401.908L139.537 402.646ZM147.415 401.257L152.339 400.389L152.209 399.65L147.285 400.518L147.415 401.257ZM155.294 399.868L160.218 399L160.088 398.261L155.164 399.129L155.294 399.868ZM163.172 398.479L168.096 397.61L167.966 396.872L163.042 397.74L163.172 398.479ZM171.051 397.09L175.975 396.221L175.845 395.483L170.921 396.351L171.051 397.09ZM178.929 395.7L183.853 394.832L183.723 394.093L178.799 394.962L178.929 395.7ZM186.808 394.311L191.732 393.443L191.602 392.704L186.677 393.573L186.808 394.311ZM194.686 392.922L199.61 392.054L199.48 391.315L194.556 392.183L194.686 392.922ZM202.565 391.533L207.489 390.665L207.358 389.926L202.434 390.794L202.565 391.533ZM210.443 390.144L215.367 389.275L215.237 388.537L210.313 389.405L210.443 390.144ZM218.322 388.754L223.246 387.886L223.115 387.148L218.191 388.016L218.322 388.754ZM226.2 387.365L231.124 386.497L230.994 385.758L226.07 386.627L226.2 387.365ZM234.078 385.976L239.003 385.108L238.872 384.369L233.948 385.237L234.078 385.976ZM241.957 384.587L246.881 383.719L246.751 382.98L241.827 383.848L241.957 384.587ZM249.835 383.198L254.759 382.329L254.629 381.591L249.705 382.459L249.835 383.198ZM257.714 381.808L262.638 380.94L262.508 380.202L257.584 381.07L257.714 381.808ZM265.592 380.419L270.516 379.551L270.386 378.812L265.462 379.681L265.592 380.419ZM273.471 379.03L278.395 378.162L278.265 377.423L273.341 378.291L273.471 379.03ZM281.349 377.641L286.273 376.773L286.143 376.034L281.219 376.902L281.349 377.641ZM289.228 376.252L294.152 375.383L294.022 374.645L289.097 375.513L289.228 376.252ZM297.106 374.863L302.03 373.994L301.9 373.256L296.976 374.124L297.106 374.863ZM304.985 373.473L309.909 372.605L309.778 371.867L304.854 372.735L304.985 373.473ZM312.863 372.084L317.787 371.216L317.657 370.477L312.733 371.346L312.863 372.084ZM320.742 370.695L325.666 369.827L325.535 369.088L320.611 369.956L320.742 370.695ZM328.62 369.306L333.544 368.438L333.414 367.699L328.49 368.567L328.62 369.306ZM336.498 367.917L341.423 367.048L341.292 366.31L336.368 367.178L336.498 367.917ZM344.377 366.527L349.301 365.659L349.171 364.921L344.247 365.789L344.377 366.527ZM352.255 365.138L357.179 364.27L357.049 363.531L352.125 364.4L352.255 365.138ZM360.134 363.749L365.058 362.881L364.928 362.142L360.004 363.01L360.134 363.749ZM368.012 362.36L372.936 361.492L372.806 360.753L367.882 361.621L368.012 362.36ZM375.891 360.971L380.815 360.102L380.685 359.364L375.761 360.232L375.891 360.971ZM383.769 359.582L388.693 358.713L388.563 357.975L383.639 358.843L383.769 359.582ZM391.648 358.192L396.572 357.324L396.442 356.585L391.517 357.454L391.648 358.192ZM399.526 356.803L401.988 356.369L401.858 355.63L399.396 356.065L399.526 356.803ZM402.537 356.43C402.775 356.091 402.693 355.623 402.353 355.385L396.824 351.514C396.485 351.276 396.017 351.359 395.779 351.698C395.542 352.037 395.624 352.505 395.964 352.742L400.879 356.184L397.437 361.099C397.2 361.438 397.282 361.906 397.621 362.143C397.961 362.381 398.428 362.298 398.666 361.959L402.537 356.43ZM8.13024 426.198L10.5923 425.763L10.3318 424.286L7.86976 424.72L8.13024 426.198ZM13.5467 425.243L18.4707 424.374L18.2102 422.897L13.2862 423.765L13.5467 425.243ZM21.4251 423.853L26.3492 422.985L26.0887 421.508L21.1647 422.376L21.4251 423.853ZM29.3036 422.464L34.2276 421.596L33.9672 420.119L29.0431 420.987L29.3036 422.464ZM37.1821 421.075L42.1061 420.207L41.8456 418.73L36.9216 419.598L37.1821 421.075ZM45.0605 419.686L49.9846 418.818L49.7241 417.34L44.8001 418.209L45.0605 419.686ZM52.939 418.297L57.863 417.428L57.6026 415.951L52.6785 416.819L52.939 418.297ZM60.8175 416.907L65.7415 416.039L65.481 414.562L60.557 415.43L60.8175 416.907ZM68.6959 415.518L73.62 414.65L73.3595 413.173L68.4354 414.041L68.6959 415.518ZM76.5744 414.129L81.4984 413.261L81.2379 411.784L76.3139 412.652L76.5744 414.129ZM84.4528 412.74L89.3769 411.872L89.1164 410.394L84.1924 411.263L84.4528 412.74ZM92.3313 411.351L97.2553 410.482L96.9949 409.005L92.0708 409.873L92.3313 411.351ZM100.21 409.961L105.134 409.093L104.873 407.616L99.9493 408.484L100.21 409.961ZM108.088 408.572L113.012 407.704L112.752 406.227L107.828 407.095L108.088 408.572ZM115.967 407.183L120.891 406.315L120.63 404.838L115.706 405.706L115.967 407.183ZM123.845 405.794L128.769 404.926L128.509 403.448L123.585 404.317L123.845 405.794ZM131.724 404.405L136.648 403.537L136.387 402.059L131.463 402.928L131.724 404.405ZM139.602 403.016L144.526 402.147L144.266 400.67L139.342 401.538L139.602 403.016ZM147.481 401.626L152.405 400.758L152.144 399.281L147.22 400.149L147.481 401.626ZM155.359 400.237L160.283 399.369L160.023 397.892L155.099 398.76L155.359 400.237ZM163.237 398.848L168.161 397.98L167.901 396.503L162.977 397.371L163.237 398.848ZM171.116 397.459L176.04 396.591L175.779 395.113L170.855 395.982L171.116 397.459ZM178.994 396.07L183.918 395.201L183.658 393.724L178.734 394.592L178.994 396.07ZM186.873 394.68L191.797 393.812L191.536 392.335L186.612 393.203L186.873 394.68ZM194.751 393.291L199.675 392.423L199.415 390.946L194.491 391.814L194.751 393.291ZM202.63 391.902L207.554 391.034L207.293 389.557L202.369 390.425L202.63 391.902ZM210.508 390.513L215.432 389.645L215.172 388.167L210.248 389.036L210.508 390.513ZM218.387 389.124L223.311 388.255L223.05 386.778L218.126 387.646L218.387 389.124ZM226.265 387.735L231.189 386.866L230.929 385.389L226.005 386.257L226.265 387.735ZM234.144 386.345L239.068 385.477L238.807 384L233.883 384.868L234.144 386.345ZM242.022 384.956L246.946 384.088L246.686 382.611L241.762 383.479L242.022 384.956ZM249.901 383.567L254.825 382.699L254.564 381.222L249.64 382.09L249.901 383.567ZM257.779 382.178L262.703 381.31L262.443 379.832L257.519 380.701L257.779 382.178ZM265.657 380.789L270.581 379.92L270.321 378.443L265.397 379.311L265.657 380.789ZM273.536 379.399L278.46 378.531L278.199 377.054L273.275 377.922L273.536 379.399ZM281.414 378.01L286.338 377.142L286.078 375.665L281.154 376.533L281.414 378.01ZM289.293 376.621L294.217 375.753L293.956 374.276L289.032 375.144L289.293 376.621ZM297.171 375.232L302.095 374.364L301.835 372.886L296.911 373.755L297.171 375.232ZM305.05 373.843L309.974 372.974L309.713 371.497L304.789 372.365L305.05 373.843ZM312.928 372.453L317.852 371.585L317.592 370.108L312.668 370.976L312.928 372.453ZM320.807 371.064L325.731 370.196L325.47 368.719L320.546 369.587L320.807 371.064ZM328.685 369.675L333.609 368.807L333.349 367.33L328.425 368.198L328.685 369.675ZM336.564 368.286L341.488 367.418L341.227 365.94L336.303 366.809L336.564 368.286ZM344.442 366.897L349.366 366.028L349.106 364.551L344.182 365.42L344.442 366.897ZM352.321 365.508L357.245 364.639L356.984 363.162L352.06 364.03L352.321 365.508ZM360.199 364.118L365.123 363.25L364.863 361.773L359.939 362.641L360.199 364.118ZM368.077 362.729L373.001 361.861L372.741 360.384L367.817 361.252L368.077 362.729ZM375.956 361.34L380.88 360.472L380.619 358.995L375.695 359.863L375.956 361.34ZM383.834 359.951L388.758 359.083L388.498 357.605L383.574 358.474L383.834 359.951ZM391.713 358.562L396.637 357.693L396.376 356.216L391.452 357.084L391.713 358.562ZM399.591 357.172L402.053 356.738L401.793 355.261L399.331 355.695L399.591 357.172Z"/><path fill="#C1C7CD" d="M355.135 225.194C355.242 224.794 355.004 224.383 354.604 224.276L348.084 222.529C347.684 222.421 347.273 222.659 347.166 223.059C347.058 223.459 347.296 223.87 347.696 223.977L353.492 225.53L351.939 231.326C351.831 231.726 352.069 232.137 352.469 232.244C352.869 232.352 353.28 232.114 353.388 231.714L355.135 225.194ZM8.375 425.65L354.785 225.65L354.035 224.351L7.625 424.35L8.375 425.65Z"/><path fill="#C1C7CD" d="M265.967 119.011C265.931 118.599 265.567 118.294 265.154 118.33L258.43 118.918C258.017 118.954 257.712 119.318 257.748 119.73C257.784 120.143 258.148 120.448 258.561 120.412L264.538 119.889L265.061 125.866C265.097 126.279 265.461 126.584 265.873 126.548C266.286 126.512 266.591 126.148 266.555 125.736L265.967 119.011ZM8.87922 425.738L265.794 119.559L264.645 118.595L7.73015 424.774L8.87922 425.738Z"/><path fill="#C1C7CD" d="M145.488 48.683C145.313 48.3076 144.866 48.1451 144.491 48.3202L138.374 51.1729C137.998 51.3479 137.836 51.7942 138.011 52.1696C138.186 52.545 138.632 52.7074 139.007 52.5323L144.445 49.9966L146.981 55.4345C147.156 55.8099 147.602 55.9723 147.978 55.7972C148.353 55.6222 148.516 55.1759 148.34 54.8005L145.488 48.683ZM8.70477 425.133L145.513 49.2564L144.103 48.7434L7.29523 424.62L8.70477 425.133Z"/><path fill="#000" d="M3.18 14.656V3.88H4.02V14.656H3.18Z"/><path fill="#000" d="M422.18 432.656V421.88H423.02V432.656H422.18ZM427.247 431L429.551 427.856L427.307 424.808H428.459L429.395 426.116L430.139 427.148H430.187L430.907 426.116L431.831 424.808H432.935L430.667 427.844L432.995 431H431.843L430.799 429.548L430.091 428.564H430.043L429.359 429.548L428.351 431H427.247Z"/><path fill="#000" d="M412.18 362.656V351.88H413.02V362.656H412.18ZM420.187 361.144C419.539 361.144 418.979 361.036 418.507 360.82C418.043 360.596 417.647 360.3 417.319 359.932L417.967 359.368C418.263 359.68 418.587 359.92 418.939 360.088C419.291 360.256 419.715 360.34 420.211 360.34C420.691 360.34 421.083 360.256 421.387 360.088C421.699 359.912 421.855 359.64 421.855 359.272C421.855 359.112 421.823 358.98 421.759 358.876C421.703 358.764 421.623 358.676 421.519 358.612C421.415 358.548 421.299 358.5 421.171 358.468C421.043 358.428 420.907 358.396 420.763 358.372L419.791 358.228C419.575 358.196 419.339 358.152 419.083 358.096C418.835 358.04 418.607 357.952 418.399 357.832C418.191 357.704 418.015 357.536 417.871 357.328C417.735 357.12 417.667 356.848 417.667 356.512C417.667 356.2 417.727 355.932 417.847 355.708C417.975 355.476 418.151 355.284 418.375 355.132C418.599 354.972 418.863 354.856 419.167 354.784C419.471 354.704 419.803 354.664 420.163 354.664C420.723 354.664 421.207 354.752 421.615 354.928C422.031 355.104 422.387 355.348 422.683 355.66L422.059 356.248C421.987 356.16 421.895 356.072 421.783 355.984C421.679 355.888 421.547 355.804 421.387 355.732C421.235 355.652 421.055 355.588 420.847 355.54C420.639 355.492 420.399 355.468 420.127 355.468C419.639 355.468 419.263 355.552 418.999 355.72C418.743 355.888 418.615 356.132 418.615 356.452C418.615 356.612 418.643 356.748 418.699 356.86C418.763 356.964 418.847 357.048 418.951 357.112C419.055 357.176 419.171 357.228 419.299 357.268C419.435 357.3 419.571 357.328 419.707 357.352L420.679 357.496C420.903 357.528 421.139 357.572 421.387 357.628C421.635 357.684 421.863 357.776 422.071 357.904C422.279 358.024 422.451 358.188 422.587 358.396C422.731 358.604 422.803 358.876 422.803 359.212C422.803 359.828 422.563 360.304 422.083 360.64C421.611 360.976 420.979 361.144 420.187 361.144Z"/><path stroke="#000" d="M17.2363 4L20.2363 9.5L17.2363 15"/><path stroke="#000" d="M5.94922 10.5908L8.73584 14L14.7358 5"/><path stroke="#000" stroke-width=".85" d="M436.949 422L439.949 427.5L436.949 433"/><path stroke="#000" stroke-width=".85" d="M426.949 352L429.949 357.5L426.949 363"/><path stroke="#C1C7CD" stroke-dasharray="5 5" stroke-width=".75" d="M223.54 141.771C206.18 114.006 180.268 96.298 151.785 90.8223"/><line x1="147.136" x2="153.329" y1="90.144" y2="97.802" stroke="#C1C7CD" stroke-width="1.5"/><line x1="146.22" x2="155.362" y1="89.943" y2="85.423" stroke="#C1C7CD" stroke-width="1.5"/><path stroke="#C1C7CD" stroke-dasharray="5 5" stroke-width=".75" d="M113.282 77.7125C87.4721 57.5599 57.0665 49.7817 28.4287 54.3779"/><line x1="23.828" x2="32.267" y1="55.331" y2="60.409" stroke="#C1C7CD" stroke-width="1.5"/><line x1="22.899" x2="29.944" y1="55.456" y2="48.081" stroke="#C1C7CD" stroke-width="1.5"/><path stroke="#C1C7CD" stroke-dasharray="5 5" stroke-width=".75" d="M357.021 342.7C358.725 309.999 347.657 280.631 327.466 259.809"/><line x1="324.047" x2="324.728" y1="256.586" y2="266.411" stroke="#C1C7CD" stroke-width="1.5"/><line x1="323.412" x2="333.493" y1="255.896" y2="257.437" stroke="#C1C7CD" stroke-width="1.5"/><path stroke="#C1C7CD" stroke-dasharray="5 5" stroke-width=".75" d="M307.251 231.421C298.767 199.794 279.165 175.284 253.527 161.72"/><line x1="249.369" x2="253.053" y1="159.991" y2="169.125" stroke="#C1C7CD" stroke-width="1.5"/><line x1="248.552" x2="258.616" y1="159.531" y2="157.882" stroke="#C1C7CD" stroke-width="1.5"/><path fill="#000" d="M186.02 406V405.124H188.42V398.368H188.336L186.224 400.336L185.636 399.7L187.856 397.624H189.428V405.124H191.636V406H186.02Z"/><path fill="#000" d="M186.956 414.908H186.872V422H185.96V413.624H187.388L190.244 420.644H190.328V413.624H191.24V422H189.812L186.956 414.908Z"/><line x1="182" x2="195" y1="408.5" y2="408.5" stroke="#000"/><line x1="176.646" x2="179.646" y1="417.646" y2="414.646" stroke="#000"/><line x1="179.485" x2="181.485" y1="414.879" y2="422.879" stroke="#000"/><line x1="181.507" x2="183.507" y1="422.918" y2="410.918" stroke="#000"/><line x1="183" x2="194" y1="411.5" y2="411.5" stroke="#000"/><path fill="#000" d="M180.444 361H174.852V359.968L177.648 357.448C178.056 357.08 178.392 356.704 178.656 356.32C178.92 355.928 179.052 355.516 179.052 355.084V354.94C179.052 354.436 178.92 354.048 178.656 353.776C178.392 353.496 178 353.356 177.48 353.356C176.968 353.356 176.572 353.488 176.292 353.752C176.02 354.008 175.816 354.352 175.68 354.784L174.78 354.448C174.86 354.2 174.968 353.96 175.104 353.728C175.248 353.488 175.428 353.276 175.644 353.092C175.86 352.908 176.12 352.76 176.424 352.648C176.736 352.536 177.096 352.48 177.504 352.48C177.92 352.48 178.288 352.54 178.608 352.66C178.936 352.78 179.208 352.948 179.424 353.164C179.648 353.38 179.816 353.636 179.928 353.932C180.048 354.228 180.108 354.552 180.108 354.904C180.108 355.224 180.06 355.524 179.964 355.804C179.876 356.084 179.748 356.352 179.58 356.608C179.42 356.864 179.224 357.116 178.992 357.364C178.768 357.604 178.516 357.844 178.236 358.084L175.896 360.124H180.444V361Z"/><path fill="#000" d="M175.956 369.908H175.872V377H174.96V368.624H176.388L179.244 375.644H179.328V368.624H180.24V377H178.812L175.956 369.908Z"/><line x1="171" x2="184" y1="363.5" y2="363.5" stroke="#000"/><line x1="165.646" x2="168.646" y1="372.646" y2="369.646" stroke="#000"/><line x1="168.485" x2="170.485" y1="369.879" y2="377.879" stroke="#000"/><line x1="170.507" x2="172.507" y1="377.918" y2="365.918" stroke="#000"/><line x1="172" x2="183" y1="366.5" y2="366.5" stroke="#000"/><path fill="#000" d="M147.444 311H141.852V309.968L144.648 307.448C145.056 307.08 145.392 306.704 145.656 306.32C145.92 305.928 146.052 305.516 146.052 305.084V304.94C146.052 304.436 145.92 304.048 145.656 303.776C145.392 303.496 145 303.356 144.48 303.356C143.968 303.356 143.572 303.488 143.292 303.752C143.02 304.008 142.816 304.352 142.68 304.784L141.78 304.448C141.86 304.2 141.968 303.96 142.104 303.728C142.248 303.488 142.428 303.276 142.644 303.092C142.86 302.908 143.12 302.76 143.424 302.648C143.736 302.536 144.096 302.48 144.504 302.48C144.92 302.48 145.288 302.54 145.608 302.66C145.936 302.78 146.208 302.948 146.424 303.164C146.648 303.38 146.816 303.636 146.928 303.932C147.048 304.228 147.108 304.552 147.108 304.904C147.108 305.224 147.06 305.524 146.964 305.804C146.876 306.084 146.748 306.352 146.58 306.608C146.42 306.864 146.224 307.116 145.992 307.364C145.768 307.604 145.516 307.844 145.236 308.084L142.896 310.124H147.444V311Z"/><path fill="#000" d="M142.956 319.908H142.872V327H141.96V318.624H143.388L146.244 325.644H146.328V318.624H147.24V327H145.812L142.956 319.908Z"/><line x1="138" x2="151" y1="313.5" y2="313.5" stroke="#000"/><line x1="132.646" x2="135.646" y1="322.646" y2="319.646" stroke="#000"/><line x1="135.485" x2="137.485" y1="319.879" y2="327.879" stroke="#000"/><line x1="137.507" x2="139.507" y1="327.918" y2="315.918" stroke="#000"/><line x1="139" x2="150" y1="316.5" y2="316.5" stroke="#000"/><path fill="#000" d="M99.444 272H93.852V270.968L96.648 268.448C97.056 268.08 97.392 267.704 97.656 267.32C97.92 266.928 98.052 266.516 98.052 266.084V265.94C98.052 265.436 97.92 265.048 97.656 264.776C97.392 264.496 97 264.356 96.48 264.356C95.968 264.356 95.572 264.488 95.292 264.752C95.02 265.008 94.816 265.352 94.68 265.784L93.78 265.448C93.86 265.2 93.968 264.96 94.104 264.728C94.248 264.488 94.428 264.276 94.644 264.092C94.86 263.908 95.12 263.76 95.424 263.648C95.736 263.536 96.096 263.48 96.504 263.48C96.92 263.48 97.288 263.54 97.608 263.66C97.936 263.78 98.208 263.948 98.424 264.164C98.648 264.38 98.816 264.636 98.928 264.932C99.048 265.228 99.108 265.552 99.108 265.904C99.108 266.224 99.06 266.524 98.964 266.804C98.876 267.084 98.748 267.352 98.58 267.608C98.42 267.864 98.224 268.116 97.992 268.364C97.768 268.604 97.516 268.844 97.236 269.084L94.896 271.124H99.444V272Z"/><path fill="#000" d="M94.956 280.908H94.872V288H93.96V279.624H95.388L98.244 286.644H98.328V279.624H99.24V288H97.812L94.956 280.908Z"/><line x1="90" x2="103" y1="274.5" y2="274.5" stroke="#000"/><line x1="84.646" x2="87.646" y1="283.646" y2="280.646" stroke="#000"/><line x1="87.485" x2="89.485" y1="280.879" y2="288.879" stroke="#000"/><line x1="89.507" x2="91.507" y1="288.918" y2="276.918" stroke="#000"/><line x1="91" x2="102" y1="277.5" y2="277.5" stroke="#000"/><path fill="#000" d="M42.444 250H36.852V248.968L39.648 246.448C40.056 246.08 40.392 245.704 40.656 245.32C40.92 244.928 41.052 244.516 41.052 244.084V243.94C41.052 243.436 40.92 243.048 40.656 242.776C40.392 242.496 40 242.356 39.48 242.356C38.968 242.356 38.572 242.488 38.292 242.752C38.02 243.008 37.816 243.352 37.68 243.784L36.78 243.448C36.86 243.2 36.968 242.96 37.104 242.728C37.248 242.488 37.428 242.276 37.644 242.092C37.86 241.908 38.12 241.76 38.424 241.648C38.736 241.536 39.096 241.48 39.504 241.48C39.92 241.48 40.288 241.54 40.608 241.66C40.936 241.78 41.208 241.948 41.424 242.164C41.648 242.38 41.816 242.636 41.928 242.932C42.048 243.228 42.108 243.552 42.108 243.904C42.108 244.224 42.06 244.524 41.964 244.804C41.876 245.084 41.748 245.352 41.58 245.608C41.42 245.864 41.224 246.116 40.992 246.364C40.768 246.604 40.516 246.844 40.236 247.084L37.896 249.124H42.444V250Z"/><path fill="#000" d="M37.956 258.908H37.872V266H36.96V257.624H38.388L41.244 264.644H41.328V257.624H42.24V266H40.812L37.956 258.908Z"/><line x1="33" x2="46" y1="252.5" y2="252.5" stroke="#000"/><line x1="27.646" x2="30.646" y1="261.646" y2="258.646" stroke="#000"/><line x1="30.485" x2="32.485" y1="258.879" y2="266.879" stroke="#000"/><line x1="32.507" x2="34.507" y1="266.918" y2="254.918" stroke="#000"/><line x1="34" x2="45" y1="255.5" y2="255.5" stroke="#000"/></svg>