<svg xmlns="http://www.w3.org/2000/svg" width="656" height="268" fill="none" viewBox="0 0 656 268"><rect width="317" height="267" fill="#fff"/><rect width="317" height="267" x="339" fill="#fff"/><rect width="178" height="268" fill="#F2F4F8" opacity=".4"/><rect width="317" height="267" x=".5" y=".5" stroke="#DDE1E6"/><path fill="#121619" d="M40.18 110.656V99.88H41.02V110.656H40.18ZM48.1153 109.144C47.6033 109.144 47.1633 109.048 46.7953 108.856C46.4273 108.656 46.1233 108.372 45.8833 108.004C45.6433 107.636 45.4673 107.184 45.3553 106.648C45.2433 106.112 45.1873 105.5 45.1873 104.812C45.1873 104.132 45.2433 103.524 45.3553 102.988C45.4673 102.444 45.6433 101.988 45.8833 101.62C46.1233 101.252 46.4273 100.972 46.7953 100.78C47.1633 100.58 47.6033 100.48 48.1153 100.48C48.6273 100.48 49.0673 100.58 49.4353 100.78C49.8033 100.972 50.1073 101.252 50.3473 101.62C50.5873 101.988 50.7633 102.444 50.8753 102.988C50.9873 103.524 51.0433 104.132 51.0433 104.812C51.0433 105.5 50.9873 106.112 50.8753 106.648C50.7633 107.184 50.5873 107.636 50.3473 108.004C50.1073 108.372 49.8033 108.656 49.4353 108.856C49.0673 109.048 48.6273 109.144 48.1153 109.144ZM48.1153 108.268C48.4513 108.268 48.7393 108.204 48.9793 108.076C49.2193 107.94 49.4113 107.752 49.5553 107.512C49.7073 107.272 49.8193 106.984 49.8913 106.648C49.9633 106.304 49.9993 105.92 49.9993 105.496V104.128C49.9993 103.712 49.9633 103.332 49.8913 102.988C49.8193 102.644 49.7073 102.352 49.5553 102.112C49.4113 101.872 49.2193 101.688 48.9793 101.56C48.7393 101.424 48.4513 101.356 48.1153 101.356C47.7793 101.356 47.4913 101.424 47.2513 101.56C47.0113 101.688 46.8153 101.872 46.6633 102.112C46.5193 102.352 46.4113 102.644 46.3393 102.988C46.2673 103.332 46.2313 103.712 46.2313 104.128V105.496C46.2313 105.92 46.2673 106.304 46.3393 106.648C46.4113 106.984 46.5193 107.272 46.6633 107.512C46.8153 107.752 47.0113 107.94 47.2513 108.076C47.4913 108.204 47.7793 108.268 48.1153 108.268ZM48.1153 105.52C47.8353 105.52 47.6393 105.464 47.5273 105.352C47.4233 105.24 47.3713 105.104 47.3713 104.944V104.68C47.3713 104.52 47.4233 104.384 47.5273 104.272C47.6393 104.16 47.8353 104.104 48.1153 104.104C48.3953 104.104 48.5873 104.16 48.6913 104.272C48.8033 104.384 48.8593 104.52 48.8593 104.68V104.944C48.8593 105.104 48.8033 105.24 48.6913 105.352C48.5873 105.464 48.3953 105.52 48.1153 105.52ZM53.0506 107.812L57.3106 105.4V105.304L53.0506 102.892V101.872L58.2106 104.86V105.82L53.0506 108.808V107.812Z"/><path fill="#121619" d="M213.18 110.656V99.88H214.02V110.656H213.18ZM221.115 109.144C220.603 109.144 220.163 109.048 219.795 108.856C219.427 108.656 219.123 108.372 218.883 108.004C218.643 107.636 218.467 107.184 218.355 106.648C218.243 106.112 218.187 105.5 218.187 104.812C218.187 104.132 218.243 103.524 218.355 102.988C218.467 102.444 218.643 101.988 218.883 101.62C219.123 101.252 219.427 100.972 219.795 100.78C220.163 100.58 220.603 100.48 221.115 100.48C221.627 100.48 222.067 100.58 222.435 100.78C222.803 100.972 223.107 101.252 223.347 101.62C223.587 101.988 223.763 102.444 223.875 102.988C223.987 103.524 224.043 104.132 224.043 104.812C224.043 105.5 223.987 106.112 223.875 106.648C223.763 107.184 223.587 107.636 223.347 108.004C223.107 108.372 222.803 108.656 222.435 108.856C222.067 109.048 221.627 109.144 221.115 109.144ZM221.115 108.268C221.451 108.268 221.739 108.204 221.979 108.076C222.219 107.94 222.411 107.752 222.555 107.512C222.707 107.272 222.819 106.984 222.891 106.648C222.963 106.304 222.999 105.92 222.999 105.496V104.128C222.999 103.712 222.963 103.332 222.891 102.988C222.819 102.644 222.707 102.352 222.555 102.112C222.411 101.872 222.219 101.688 221.979 101.56C221.739 101.424 221.451 101.356 221.115 101.356C220.779 101.356 220.491 101.424 220.251 101.56C220.011 101.688 219.815 101.872 219.663 102.112C219.519 102.352 219.411 102.644 219.339 102.988C219.267 103.332 219.231 103.712 219.231 104.128V105.496C219.231 105.92 219.267 106.304 219.339 106.648C219.411 106.984 219.519 107.272 219.663 107.512C219.815 107.752 220.011 107.94 220.251 108.076C220.491 108.204 220.779 108.268 221.115 108.268ZM221.115 105.52C220.835 105.52 220.639 105.464 220.527 105.352C220.423 105.24 220.371 105.104 220.371 104.944V104.68C220.371 104.52 220.423 104.384 220.527 104.272C220.639 104.16 220.835 104.104 221.115 104.104C221.395 104.104 221.587 104.16 221.691 104.272C221.803 104.384 221.859 104.52 221.859 104.68V104.944C221.859 105.104 221.803 105.24 221.691 105.352C221.587 105.464 221.395 105.52 221.115 105.52ZM226.051 107.812L230.311 105.4V105.304L226.051 102.892V101.872L231.211 104.86V105.82L226.051 108.808V107.812Z"/><path fill="#121619" d="M213.18 215.656V204.88H214.02V215.656H213.18ZM218.535 214V213.124H220.935V206.368H220.851L218.739 208.336L218.151 207.7L220.371 205.624H221.943V213.124H224.151V214H218.535ZM226.051 212.812L230.311 210.4V210.304L226.051 207.892V206.872L231.211 209.86V210.82L226.051 213.808V212.812Z"/><circle cx="221" cy="73" r="20" fill="#DDE1E6"/><circle cx="221" cy="73" r="16.5" fill="#BE95FF" stroke="#491D8B"/><circle cx="221" cy="178" r="20" fill="#DDE1E6"/><circle cx="221" cy="178" r="16.5" fill="#BE95FF" stroke="#491D8B"/><path fill="#121619" d="M135.036 66L133.536 60.576H132.348V59.808H134.268L134.808 61.8L135.708 65.196H135.768L136.704 61.8L137.868 57.624H138.804L136.392 66H135.036ZM140.511 62.256C140.511 61.68 140.567 61.124 140.679 60.588C140.791 60.052 140.943 59.556 141.135 59.1C141.335 58.636 141.567 58.216 141.831 57.84C142.095 57.464 142.379 57.144 142.683 56.88H143.595C143.259 57.184 142.955 57.528 142.683 57.912C142.419 58.296 142.191 58.704 141.999 59.136C141.815 59.568 141.671 60.008 141.567 60.456C141.463 60.904 141.411 61.336 141.411 61.752V62.784C141.411 63.208 141.463 63.644 141.567 64.092C141.671 64.54 141.819 64.98 142.011 65.412C142.203 65.844 142.431 66.252 142.695 66.636C142.967 67.02 143.267 67.356 143.595 67.644H142.683C142.387 67.396 142.107 67.084 141.843 66.708C141.579 66.332 141.347 65.912 141.147 65.448C140.955 64.984 140.799 64.484 140.679 63.948C140.567 63.404 140.511 62.84 140.511 62.256ZM144.911 66V65.112H147.251V58.368H147.167L145.055 60.336L144.467 59.7L146.687 57.624H148.259V65.112H150.419V66H144.911ZM151.478 67.812L154.61 57.12H155.474L152.342 67.812H151.478ZM162.68 66H157.184V64.968L159.92 62.448C160.312 62.088 160.64 61.708 160.904 61.308C161.168 60.9 161.3 60.492 161.3 60.084V59.94C161.3 59.476 161.172 59.1 160.916 58.812C160.66 58.524 160.272 58.38 159.752 58.38C159.496 58.38 159.272 58.416 159.08 58.488C158.888 58.56 158.72 58.66 158.576 58.788C158.44 58.916 158.324 59.068 158.228 59.244C158.14 59.412 158.068 59.596 158.012 59.796L157.112 59.448C157.192 59.2 157.3 58.96 157.436 58.728C157.58 58.488 157.756 58.276 157.964 58.092C158.18 57.908 158.436 57.76 158.732 57.648C159.036 57.536 159.392 57.48 159.8 57.48C160.208 57.48 160.572 57.54 160.892 57.66C161.212 57.78 161.48 57.948 161.696 58.164C161.912 58.38 162.076 58.636 162.188 58.932C162.308 59.228 162.368 59.556 162.368 59.916C162.368 60.244 162.32 60.548 162.224 60.828C162.136 61.108 162.012 61.376 161.852 61.632C161.692 61.88 161.496 62.124 161.264 62.364C161.04 62.604 160.796 62.844 160.532 63.084L158.276 65.112H162.68V66ZM166.823 62.256C166.823 62.84 166.763 63.404 166.643 63.948C166.531 64.484 166.375 64.984 166.175 65.448C165.983 65.912 165.755 66.332 165.491 66.708C165.227 67.084 164.947 67.396 164.651 67.644H163.739C164.067 67.356 164.363 67.02 164.627 66.636C164.899 66.252 165.131 65.844 165.323 65.412C165.515 64.98 165.663 64.54 165.767 64.092C165.871 63.644 165.923 63.208 165.923 62.784V61.752C165.923 61.336 165.871 60.904 165.767 60.456C165.663 60.008 165.515 59.568 165.323 59.136C165.139 58.704 164.911 58.296 164.639 57.912C164.375 57.528 164.075 57.184 163.739 56.88H164.651C164.955 57.144 165.239 57.464 165.503 57.84C165.767 58.216 165.995 58.636 166.187 59.1C166.387 59.556 166.543 60.052 166.655 60.588C166.767 61.124 166.823 61.68 166.823 62.256Z"/><path fill="#121619" d="M135.036 171L133.536 165.576H132.348V164.808H134.268L134.808 166.8L135.708 170.196H135.768L136.704 166.8L137.868 162.624H138.804L136.392 171H135.036ZM140.511 167.256C140.511 166.68 140.567 166.124 140.679 165.588C140.791 165.052 140.943 164.556 141.135 164.1C141.335 163.636 141.567 163.216 141.831 162.84C142.095 162.464 142.379 162.144 142.683 161.88H143.595C143.259 162.184 142.955 162.528 142.683 162.912C142.419 163.296 142.191 163.704 141.999 164.136C141.815 164.568 141.671 165.008 141.567 165.456C141.463 165.904 141.411 166.336 141.411 166.752V167.784C141.411 168.208 141.463 168.644 141.567 169.092C141.671 169.54 141.819 169.98 142.011 170.412C142.203 170.844 142.431 171.252 142.695 171.636C142.967 172.02 143.267 172.356 143.595 172.644H142.683C142.387 172.396 142.107 172.084 141.843 171.708C141.579 171.332 141.347 170.912 141.147 170.448C140.955 169.984 140.799 169.484 140.679 168.948C140.567 168.404 140.511 167.84 140.511 167.256ZM144.911 171V170.112H147.251V163.368H147.167L145.055 165.336L144.467 164.7L146.687 162.624H148.259V170.112H150.419V171H144.911ZM151.478 172.812L154.61 162.12H155.474L152.342 172.812H151.478ZM162.68 171H157.184V169.968L159.92 167.448C160.312 167.088 160.64 166.708 160.904 166.308C161.168 165.9 161.3 165.492 161.3 165.084V164.94C161.3 164.476 161.172 164.1 160.916 163.812C160.66 163.524 160.272 163.38 159.752 163.38C159.496 163.38 159.272 163.416 159.08 163.488C158.888 163.56 158.72 163.66 158.576 163.788C158.44 163.916 158.324 164.068 158.228 164.244C158.14 164.412 158.068 164.596 158.012 164.796L157.112 164.448C157.192 164.2 157.3 163.96 157.436 163.728C157.58 163.488 157.756 163.276 157.964 163.092C158.18 162.908 158.436 162.76 158.732 162.648C159.036 162.536 159.392 162.48 159.8 162.48C160.208 162.48 160.572 162.54 160.892 162.66C161.212 162.78 161.48 162.948 161.696 163.164C161.912 163.38 162.076 163.636 162.188 163.932C162.308 164.228 162.368 164.556 162.368 164.916C162.368 165.244 162.32 165.548 162.224 165.828C162.136 166.108 162.012 166.376 161.852 166.632C161.692 166.88 161.496 167.124 161.264 167.364C161.04 167.604 160.796 167.844 160.532 168.084L158.276 170.112H162.68V171ZM166.823 167.256C166.823 167.84 166.763 168.404 166.643 168.948C166.531 169.484 166.375 169.984 166.175 170.448C165.983 170.912 165.755 171.332 165.491 171.708C165.227 172.084 164.947 172.396 164.651 172.644H163.739C164.067 172.356 164.363 172.02 164.627 171.636C164.899 171.252 165.131 170.844 165.323 170.412C165.515 169.98 165.663 169.54 165.767 169.092C165.871 168.644 165.923 168.208 165.923 167.784V166.752C165.923 166.336 165.871 165.904 165.767 165.456C165.663 165.008 165.515 164.568 165.323 164.136C165.139 163.704 164.911 163.296 164.639 162.912C164.375 162.528 164.075 162.184 163.739 161.88H164.651C164.955 162.144 165.239 162.464 165.503 162.84C165.767 163.216 165.995 163.636 166.187 164.1C166.387 164.556 166.543 165.052 166.655 165.588C166.767 166.124 166.823 166.68 166.823 167.256Z"/><path fill="#121619" d="M202.07 17.87H197.996V22H196.148V12.228H197.996V16.232H202.07V12.228H203.918V22H202.07V17.87ZM206.034 18.626V16.848H210.039V18.626H206.034ZM218.645 22.616C218.645 22.9987 218.575 23.3347 218.435 23.624C218.305 23.9227 218.085 24.17 217.777 24.366C217.469 24.562 217.073 24.7113 216.587 24.814C216.102 24.9167 215.509 24.968 214.809 24.968C214.193 24.968 213.671 24.926 213.241 24.842C212.812 24.7673 212.457 24.6553 212.177 24.506C211.907 24.366 211.711 24.1887 211.589 23.974C211.468 23.7593 211.407 23.5167 211.407 23.246C211.407 22.8353 211.519 22.5133 211.743 22.28C211.977 22.056 212.299 21.9113 212.709 21.846V21.692C212.411 21.6173 212.177 21.4727 212.009 21.258C211.851 21.034 211.771 20.7727 211.771 20.474C211.771 20.2873 211.809 20.124 211.883 19.984C211.958 19.8347 212.056 19.7087 212.177 19.606C212.308 19.5033 212.453 19.4193 212.611 19.354C212.77 19.2793 212.938 19.2233 213.115 19.186V19.13C212.667 18.9247 212.331 18.64 212.107 18.276C211.893 17.912 211.785 17.4873 211.785 17.002C211.785 16.2553 212.042 15.658 212.555 15.21C213.069 14.7527 213.82 14.524 214.809 14.524C215.033 14.524 215.253 14.538 215.467 14.566C215.691 14.594 215.897 14.6407 216.083 14.706V14.468C216.083 13.7587 216.429 13.404 217.119 13.404H218.253V14.776H216.699V14.972C217.082 15.1867 217.367 15.4667 217.553 15.812C217.74 16.1573 217.833 16.554 217.833 17.002C217.833 17.7393 217.577 18.332 217.063 18.78C216.559 19.228 215.808 19.452 214.809 19.452C214.38 19.452 214.007 19.41 213.689 19.326C213.549 19.3913 213.428 19.48 213.325 19.592C213.223 19.6947 213.171 19.8253 213.171 19.984C213.171 20.348 213.489 20.53 214.123 20.53H216.083C216.979 20.53 217.628 20.7167 218.029 21.09C218.44 21.454 218.645 21.9627 218.645 22.616ZM216.965 22.826C216.965 22.5927 216.872 22.4107 216.685 22.28C216.499 22.1493 216.177 22.084 215.719 22.084H213.227C212.975 22.2707 212.849 22.5227 212.849 22.84C212.849 23.12 212.966 23.3393 213.199 23.498C213.433 23.6567 213.829 23.736 214.389 23.736H215.285C215.873 23.736 216.298 23.6613 216.559 23.512C216.83 23.3627 216.965 23.134 216.965 22.826ZM214.809 18.234C215.687 18.234 216.125 17.8607 216.125 17.114V16.876C216.125 16.1293 215.687 15.756 214.809 15.756C213.932 15.756 213.493 16.1293 213.493 16.876V17.114C213.493 17.8607 213.932 18.234 214.809 18.234ZM225.189 22C224.797 22 224.484 21.888 224.251 21.664C224.027 21.4307 223.887 21.1227 223.831 20.74H223.747C223.626 21.216 223.378 21.5753 223.005 21.818C222.632 22.0513 222.17 22.168 221.619 22.168C220.872 22.168 220.298 21.972 219.897 21.58C219.496 21.188 219.295 20.6653 219.295 20.012C219.295 19.256 219.566 18.696 220.107 18.332C220.648 17.9587 221.418 17.772 222.417 17.772H223.663V17.24C223.663 16.8293 223.556 16.512 223.341 16.288C223.126 16.064 222.781 15.952 222.305 15.952C221.885 15.952 221.544 16.0453 221.283 16.232C221.031 16.4093 220.816 16.624 220.639 16.876L219.575 15.924C219.846 15.504 220.205 15.168 220.653 14.916C221.101 14.6547 221.694 14.524 222.431 14.524C223.42 14.524 224.172 14.748 224.685 15.196C225.198 15.644 225.455 16.288 225.455 17.128V20.572H226.183V22H225.189ZM222.221 20.866C222.622 20.866 222.963 20.7773 223.243 20.6C223.523 20.4227 223.663 20.1613 223.663 19.816V18.85H222.515C221.582 18.85 221.115 19.1487 221.115 19.746V19.984C221.115 20.2827 221.208 20.5067 221.395 20.656C221.591 20.796 221.866 20.866 222.221 20.866ZM230.02 22C229.404 22 228.933 21.8413 228.606 21.524C228.289 21.1973 228.13 20.7353 228.13 20.138V16.12H227.052V14.692H227.612C227.883 14.692 228.065 14.6313 228.158 14.51C228.261 14.3793 228.312 14.188 228.312 13.936V12.69H229.922V14.692H231.42V16.12H229.922V20.572H231.308V22H230.02ZM236.034 22.168C235.493 22.168 235.007 22.0793 234.578 21.902C234.158 21.7153 233.799 21.4587 233.5 21.132C233.211 20.796 232.987 20.3947 232.828 19.928C232.669 19.452 232.59 18.92 232.59 18.332C232.59 17.7533 232.665 17.2307 232.814 16.764C232.973 16.2973 233.197 15.9007 233.486 15.574C233.775 15.238 234.13 14.9813 234.55 14.804C234.97 14.6173 235.446 14.524 235.978 14.524C236.547 14.524 237.042 14.622 237.462 14.818C237.882 15.014 238.227 15.28 238.498 15.616C238.769 15.952 238.969 16.344 239.1 16.792C239.24 17.2307 239.31 17.702 239.31 18.206V18.794H234.452V18.976C234.452 19.508 234.601 19.9373 234.9 20.264C235.199 20.5813 235.642 20.74 236.23 20.74C236.678 20.74 237.042 20.6467 237.322 20.46C237.611 20.2733 237.868 20.0353 238.092 19.746L239.058 20.824C238.759 21.244 238.349 21.5753 237.826 21.818C237.313 22.0513 236.715 22.168 236.034 22.168ZM236.006 15.868C235.53 15.868 235.152 16.0267 234.872 16.344C234.592 16.6613 234.452 17.072 234.452 17.576V17.688H237.448V17.562C237.448 17.058 237.322 16.652 237.07 16.344C236.827 16.0267 236.473 15.868 236.006 15.868ZM247.413 22.168C246.891 22.168 246.419 22.0793 245.999 21.902C245.589 21.7247 245.234 21.468 244.935 21.132C244.646 20.796 244.422 20.3947 244.263 19.928C244.105 19.452 244.025 18.92 244.025 18.332C244.025 17.744 244.105 17.2167 244.263 16.75C244.422 16.2833 244.646 15.8867 244.935 15.56C245.234 15.224 245.589 14.9673 245.999 14.79C246.419 14.6127 246.891 14.524 247.413 14.524C247.936 14.524 248.407 14.6127 248.827 14.79C249.247 14.9673 249.602 15.224 249.891 15.56C250.19 15.8867 250.419 16.2833 250.577 16.75C250.736 17.2167 250.815 17.744 250.815 18.332C250.815 18.92 250.736 19.452 250.577 19.928C250.419 20.3947 250.19 20.796 249.891 21.132C249.602 21.468 249.247 21.7247 248.827 21.902C248.407 22.0793 247.936 22.168 247.413 22.168ZM247.413 20.726C247.889 20.726 248.263 20.5813 248.533 20.292C248.804 20.0027 248.939 19.578 248.939 19.018V17.66C248.939 17.1093 248.804 16.6893 248.533 16.4C248.263 16.1107 247.889 15.966 247.413 15.966C246.947 15.966 246.578 16.1107 246.307 16.4C246.037 16.6893 245.901 17.1093 245.901 17.66V19.018C245.901 19.578 246.037 20.0027 246.307 20.292C246.578 20.5813 246.947 20.726 247.413 20.726ZM256.932 20.782H256.862C256.797 20.9687 256.708 21.146 256.596 21.314C256.493 21.4727 256.358 21.6173 256.19 21.748C256.031 21.8787 255.835 21.9813 255.602 22.056C255.378 22.1307 255.117 22.168 254.818 22.168C254.062 22.168 253.483 21.9207 253.082 21.426C252.681 20.9313 252.48 20.2267 252.48 19.312V14.692H254.272V19.13C254.272 19.634 254.37 20.0213 254.566 20.292C254.762 20.5533 255.075 20.684 255.504 20.684C255.681 20.684 255.854 20.6607 256.022 20.614C256.199 20.5673 256.353 20.4973 256.484 20.404C256.615 20.3013 256.722 20.18 256.806 20.04C256.89 19.8907 256.932 19.718 256.932 19.522V14.692H258.724V22H256.932V20.782ZM263.237 22C262.621 22 262.149 21.8413 261.823 21.524C261.505 21.1973 261.347 20.7353 261.347 20.138V16.12H260.269V14.692H260.829C261.099 14.692 261.281 14.6313 261.375 14.51C261.477 14.3793 261.529 14.188 261.529 13.936V12.69H263.139V14.692H264.637V16.12H263.139V20.572H264.525V22H263.237ZM266.351 14.692H268.143V15.896H268.199C268.33 15.476 268.577 15.1447 268.941 14.902C269.305 14.65 269.73 14.524 270.215 14.524C271.148 14.524 271.858 14.8553 272.343 15.518C272.838 16.1713 273.085 17.1093 273.085 18.332C273.085 19.564 272.838 20.5113 272.343 21.174C271.858 21.8367 271.148 22.168 270.215 22.168C269.73 22.168 269.305 22.042 268.941 21.79C268.586 21.538 268.339 21.202 268.199 20.782H268.143V24.8H266.351V14.692ZM269.641 20.684C270.108 20.684 270.486 20.53 270.775 20.222C271.064 19.914 271.209 19.4987 271.209 18.976V17.716C271.209 17.1933 271.064 16.778 270.775 16.47C270.486 16.1527 270.108 15.994 269.641 15.994C269.212 15.994 268.852 16.1013 268.563 16.316C268.283 16.5307 268.143 16.8153 268.143 17.17V19.494C268.143 19.8767 268.283 20.1707 268.563 20.376C268.852 20.5813 269.212 20.684 269.641 20.684ZM279.273 20.782H279.203C279.138 20.9687 279.049 21.146 278.937 21.314C278.835 21.4727 278.699 21.6173 278.531 21.748C278.373 21.8787 278.177 21.9813 277.943 22.056C277.719 22.1307 277.458 22.168 277.159 22.168C276.403 22.168 275.825 21.9207 275.423 21.426C275.022 20.9313 274.821 20.2267 274.821 19.312V14.692H276.613V19.13C276.613 19.634 276.711 20.0213 276.907 20.292C277.103 20.5533 277.416 20.684 277.845 20.684C278.023 20.684 278.195 20.6607 278.363 20.614C278.541 20.5673 278.695 20.4973 278.825 20.404C278.956 20.3013 279.063 20.18 279.147 20.04C279.231 19.8907 279.273 19.718 279.273 19.522V14.692H281.065V22H279.273V20.782ZM285.578 22C284.962 22 284.491 21.8413 284.164 21.524C283.847 21.1973 283.688 20.7353 283.688 20.138V16.12H282.61V14.692H283.17C283.441 14.692 283.623 14.6313 283.716 14.51C283.819 14.3793 283.87 14.188 283.87 13.936V12.69H285.48V14.692H286.978V16.12H285.48V20.572H286.866V22H285.578Z"/><path fill="#121619" d="M35.07 17.87H30.996V22H29.148V12.228H30.996V16.232H35.07V12.228H36.918V22H35.07V17.87ZM39.0345 18.626V16.848H43.0385V18.626H39.0345ZM51.6453 22.616C51.6453 22.9987 51.5753 23.3347 51.4353 23.624C51.3046 23.9227 51.0853 24.17 50.7773 24.366C50.4693 24.562 50.0726 24.7113 49.5873 24.814C49.102 24.9167 48.5093 24.968 47.8093 24.968C47.1933 24.968 46.6706 24.926 46.2413 24.842C45.812 24.7673 45.4573 24.6553 45.1773 24.506C44.9066 24.366 44.7106 24.1887 44.5893 23.974C44.468 23.7593 44.4073 23.5167 44.4073 23.246C44.4073 22.8353 44.5193 22.5133 44.7433 22.28C44.9766 22.056 45.2986 21.9113 45.7093 21.846V21.692C45.4106 21.6173 45.1773 21.4727 45.0093 21.258C44.8506 21.034 44.7713 20.7727 44.7713 20.474C44.7713 20.2873 44.8086 20.124 44.8833 19.984C44.958 19.8347 45.056 19.7087 45.1773 19.606C45.308 19.5033 45.4526 19.4193 45.6113 19.354C45.77 19.2793 45.938 19.2233 46.1153 19.186V19.13C45.6673 18.9247 45.3313 18.64 45.1073 18.276C44.8926 17.912 44.7853 17.4873 44.7853 17.002C44.7853 16.2553 45.042 15.658 45.5553 15.21C46.0686 14.7527 46.82 14.524 47.8093 14.524C48.0333 14.524 48.2526 14.538 48.4673 14.566C48.6913 14.594 48.8966 14.6407 49.0833 14.706V14.468C49.0833 13.7587 49.4286 13.404 50.1193 13.404H51.2533V14.776H49.6993V14.972C50.082 15.1867 50.3666 15.4667 50.5533 15.812C50.74 16.1573 50.8333 16.554 50.8333 17.002C50.8333 17.7393 50.5766 18.332 50.0633 18.78C49.5593 19.228 48.808 19.452 47.8093 19.452C47.38 19.452 47.0066 19.41 46.6893 19.326C46.5493 19.3913 46.428 19.48 46.3253 19.592C46.2226 19.6947 46.1713 19.8253 46.1713 19.984C46.1713 20.348 46.4886 20.53 47.1233 20.53H49.0833C49.9793 20.53 50.628 20.7167 51.0293 21.09C51.44 21.454 51.6453 21.9627 51.6453 22.616ZM49.9653 22.826C49.9653 22.5927 49.872 22.4107 49.6853 22.28C49.4986 22.1493 49.1766 22.084 48.7193 22.084H46.2273C45.9753 22.2707 45.8493 22.5227 45.8493 22.84C45.8493 23.12 45.966 23.3393 46.1993 23.498C46.4326 23.6567 46.8293 23.736 47.3893 23.736H48.2853C48.8733 23.736 49.298 23.6613 49.5593 23.512C49.83 23.3627 49.9653 23.134 49.9653 22.826ZM47.8093 18.234C48.6866 18.234 49.1253 17.8607 49.1253 17.114V16.876C49.1253 16.1293 48.6866 15.756 47.8093 15.756C46.932 15.756 46.4933 16.1293 46.4933 16.876V17.114C46.4933 17.8607 46.932 18.234 47.8093 18.234ZM58.1889 22C57.7969 22 57.4842 21.888 57.2509 21.664C57.0269 21.4307 56.8869 21.1227 56.8309 20.74H56.7469C56.6255 21.216 56.3782 21.5753 56.0049 21.818C55.6315 22.0513 55.1695 22.168 54.6189 22.168C53.8722 22.168 53.2982 21.972 52.8969 21.58C52.4955 21.188 52.2949 20.6653 52.2949 20.012C52.2949 19.256 52.5655 18.696 53.1069 18.332C53.6482 17.9587 54.4182 17.772 55.4169 17.772H56.6629V17.24C56.6629 16.8293 56.5555 16.512 56.3409 16.288C56.1262 16.064 55.7809 15.952 55.3049 15.952C54.8849 15.952 54.5442 16.0453 54.2829 16.232C54.0309 16.4093 53.8162 16.624 53.6389 16.876L52.5749 15.924C52.8455 15.504 53.2049 15.168 53.6529 14.916C54.1009 14.6547 54.6935 14.524 55.4309 14.524C56.4202 14.524 57.1715 14.748 57.6849 15.196C58.1982 15.644 58.4549 16.288 58.4549 17.128V20.572H59.1829V22H58.1889ZM55.2209 20.866C55.6222 20.866 55.9629 20.7773 56.2429 20.6C56.5229 20.4227 56.6629 20.1613 56.6629 19.816V18.85H55.5149C54.5815 18.85 54.1149 19.1487 54.1149 19.746V19.984C54.1149 20.2827 54.2082 20.5067 54.3949 20.656C54.5909 20.796 54.8662 20.866 55.2209 20.866ZM63.0205 22C62.4045 22 61.9332 21.8413 61.6065 21.524C61.2892 21.1973 61.1305 20.7353 61.1305 20.138V16.12H60.0525V14.692H60.6125C60.8832 14.692 61.0652 14.6313 61.1585 14.51C61.2612 14.3793 61.3125 14.188 61.3125 13.936V12.69H62.9225V14.692H64.4205V16.12H62.9225V20.572H64.3085V22H63.0205ZM69.0341 22.168C68.4928 22.168 68.0075 22.0793 67.5781 21.902C67.1581 21.7153 66.7988 21.4587 66.5001 21.132C66.2108 20.796 65.9868 20.3947 65.8281 19.928C65.6695 19.452 65.5901 18.92 65.5901 18.332C65.5901 17.7533 65.6648 17.2307 65.8141 16.764C65.9728 16.2973 66.1968 15.9007 66.4861 15.574C66.7755 15.238 67.1301 14.9813 67.5501 14.804C67.9701 14.6173 68.4461 14.524 68.9781 14.524C69.5475 14.524 70.0421 14.622 70.4621 14.818C70.8821 15.014 71.2275 15.28 71.4981 15.616C71.7688 15.952 71.9695 16.344 72.1001 16.792C72.2401 17.2307 72.3101 17.702 72.3101 18.206V18.794H67.4521V18.976C67.4521 19.508 67.6015 19.9373 67.9001 20.264C68.1988 20.5813 68.6421 20.74 69.2301 20.74C69.6781 20.74 70.0421 20.6467 70.3221 20.46C70.6115 20.2733 70.8681 20.0353 71.0921 19.746L72.0581 20.824C71.7595 21.244 71.3488 21.5753 70.8261 21.818C70.3128 22.0513 69.7155 22.168 69.0341 22.168ZM69.0061 15.868C68.5301 15.868 68.1521 16.0267 67.8721 16.344C67.5921 16.6613 67.4521 17.072 67.4521 17.576V17.688H70.4481V17.562C70.4481 17.058 70.3221 16.652 70.0701 16.344C69.8275 16.0267 69.4728 15.868 69.0061 15.868ZM78.4114 13.628C78.038 13.628 77.7674 13.544 77.5994 13.376C77.4407 13.208 77.3614 12.9933 77.3614 12.732V12.452C77.3614 12.1907 77.4407 11.976 77.5994 11.808C77.7674 11.64 78.038 11.556 78.4114 11.556C78.7754 11.556 79.0414 11.64 79.2094 11.808C79.3774 11.976 79.4614 12.1907 79.4614 12.452V12.732C79.4614 12.9933 79.3774 13.208 79.2094 13.376C79.0414 13.544 78.7754 13.628 78.4114 13.628ZM77.5154 14.692H79.3074V22H77.5154V14.692ZM81.5445 22V14.692H83.3365V15.91H83.4065C83.5558 15.518 83.7892 15.1913 84.1065 14.93C84.4332 14.6593 84.8812 14.524 85.4505 14.524C86.2065 14.524 86.7852 14.7713 87.1865 15.266C87.5878 15.7607 87.7885 16.4653 87.7885 17.38V22H85.9965V17.562C85.9965 17.0393 85.9032 16.6473 85.7165 16.386C85.5298 16.1247 85.2218 15.994 84.7925 15.994C84.6058 15.994 84.4238 16.022 84.2465 16.078C84.0785 16.1247 83.9245 16.1993 83.7845 16.302C83.6538 16.3953 83.5465 16.5167 83.4625 16.666C83.3785 16.806 83.3365 16.974 83.3365 17.17V22H81.5445ZM89.935 14.692H91.727V15.896H91.783C91.9136 15.476 92.161 15.1447 92.525 14.902C92.889 14.65 93.3136 14.524 93.799 14.524C94.7323 14.524 95.4416 14.8553 95.927 15.518C96.4216 16.1713 96.669 17.1093 96.669 18.332C96.669 19.564 96.4216 20.5113 95.927 21.174C95.4416 21.8367 94.7323 22.168 93.799 22.168C93.3136 22.168 92.889 22.042 92.525 21.79C92.1703 21.538 91.923 21.202 91.783 20.782H91.727V24.8H89.935V14.692ZM93.225 20.684C93.6916 20.684 94.0696 20.53 94.359 20.222C94.6483 19.914 94.793 19.4987 94.793 18.976V17.716C94.793 17.1933 94.6483 16.778 94.359 16.47C94.0696 16.1527 93.6916 15.994 93.225 15.994C92.7956 15.994 92.4363 16.1013 92.147 16.316C91.867 16.5307 91.727 16.8153 91.727 17.17V19.494C91.727 19.8767 91.867 20.1707 92.147 20.376C92.4363 20.5813 92.7956 20.684 93.225 20.684ZM102.858 20.782H102.788C102.722 20.9687 102.634 21.146 102.522 21.314C102.419 21.4727 102.284 21.6173 102.116 21.748C101.957 21.8787 101.761 21.9813 101.528 22.056C101.304 22.1307 101.042 22.168 100.744 22.168C99.9875 22.168 99.4088 21.9207 99.0075 21.426C98.6062 20.9313 98.4055 20.2267 98.4055 19.312V14.692H100.198V19.13C100.198 19.634 100.296 20.0213 100.492 20.292C100.688 20.5533 101 20.684 101.43 20.684C101.607 20.684 101.78 20.6607 101.948 20.614C102.125 20.5673 102.279 20.4973 102.41 20.404C102.54 20.3013 102.648 20.18 102.732 20.04C102.816 19.8907 102.858 19.718 102.858 19.522V14.692H104.65V22H102.858V20.782ZM109.162 22C108.546 22 108.075 21.8413 107.748 21.524C107.431 21.1973 107.272 20.7353 107.272 20.138V16.12H106.194V14.692H106.754C107.025 14.692 107.207 14.6313 107.3 14.51C107.403 14.3793 107.454 14.188 107.454 13.936V12.69H109.064V14.692H110.562V16.12H109.064V20.572H110.45V22H109.162Z"/><line x1="178.5" x2="178.5" y2="268" stroke="#DDE1E6"/><circle cx="48" cy="73" r="19.5" fill="#BE95FF" stroke="#491D8B"/><path stroke="#343A3F" d="M127 178.5H118.5H114V178.5C111.651 178.5 109.746 176.596 109.746 174.246V78.5C109.746 75.7386 107.508 73.5 104.746 73.5L101.5 73.5H93"/><path fill="#491D8B" d="M64 75L68 73.5L64 72V75Z"/><line x1="64" x2="47" y1="73.5" y2="73.5" stroke="#491D8B"/><path fill="#491D8B" d="M233 75L237 73.5L233 72V75Z"/><line x1="233" x2="221" y1="73.5" y2="73.5" stroke="#491D8B"/><path fill="#491D8B" d="M233 180L237 178.5L233 177V180Z"/><line x1="233" x2="221" y1="178.5" y2="178.5" stroke="#491D8B"/><path fill="#343A3F" d="M190 75L194 73.5L190 72V75Z"/><line x1="190" x2="86" y1="73.5" y2="73.5" stroke="#343A3F"/><path fill="#343A3F" d="M190 180L194 178.5L190 177V180Z"/><line x1="190" x2="127" y1="178.5" y2="178.5" stroke="#343A3F"/><rect width="178" height="268" x="337" fill="#F2F4F8" opacity=".4"/><rect width="317" height="267" x="337.5" y=".5" stroke="#DDE1E6"/><path fill="#121619" d="M377.18 110.656V99.88H378.02V110.656H377.18ZM382.535 109V108.124H384.935V101.368H384.851L382.739 103.336L382.151 102.7L384.371 100.624H385.943V108.124H388.151V109H382.535ZM390.051 107.812L394.311 105.4V105.304L390.051 102.892V101.872L395.211 104.86V105.82L390.051 108.808V107.812Z"/><path fill="#121619" d="M550.18 110.656V99.88H551.02V110.656H550.18ZM558.115 109.144C557.603 109.144 557.163 109.048 556.795 108.856C556.427 108.656 556.123 108.372 555.883 108.004C555.643 107.636 555.467 107.184 555.355 106.648C555.243 106.112 555.187 105.5 555.187 104.812C555.187 104.132 555.243 103.524 555.355 102.988C555.467 102.444 555.643 101.988 555.883 101.62C556.123 101.252 556.427 100.972 556.795 100.78C557.163 100.58 557.603 100.48 558.115 100.48C558.627 100.48 559.067 100.58 559.435 100.78C559.803 100.972 560.107 101.252 560.347 101.62C560.587 101.988 560.763 102.444 560.875 102.988C560.987 103.524 561.043 104.132 561.043 104.812C561.043 105.5 560.987 106.112 560.875 106.648C560.763 107.184 560.587 107.636 560.347 108.004C560.107 108.372 559.803 108.656 559.435 108.856C559.067 109.048 558.627 109.144 558.115 109.144ZM558.115 108.268C558.451 108.268 558.739 108.204 558.979 108.076C559.219 107.94 559.411 107.752 559.555 107.512C559.707 107.272 559.819 106.984 559.891 106.648C559.963 106.304 559.999 105.92 559.999 105.496V104.128C559.999 103.712 559.963 103.332 559.891 102.988C559.819 102.644 559.707 102.352 559.555 102.112C559.411 101.872 559.219 101.688 558.979 101.56C558.739 101.424 558.451 101.356 558.115 101.356C557.779 101.356 557.491 101.424 557.251 101.56C557.011 101.688 556.815 101.872 556.663 102.112C556.519 102.352 556.411 102.644 556.339 102.988C556.267 103.332 556.231 103.712 556.231 104.128V105.496C556.231 105.92 556.267 106.304 556.339 106.648C556.411 106.984 556.519 107.272 556.663 107.512C556.815 107.752 557.011 107.94 557.251 108.076C557.491 108.204 557.779 108.268 558.115 108.268ZM558.115 105.52C557.835 105.52 557.639 105.464 557.527 105.352C557.423 105.24 557.371 105.104 557.371 104.944V104.68C557.371 104.52 557.423 104.384 557.527 104.272C557.639 104.16 557.835 104.104 558.115 104.104C558.395 104.104 558.587 104.16 558.691 104.272C558.803 104.384 558.859 104.52 558.859 104.68V104.944C558.859 105.104 558.803 105.24 558.691 105.352C558.587 105.464 558.395 105.52 558.115 105.52ZM563.051 107.812L567.311 105.4V105.304L563.051 102.892V101.872L568.211 104.86V105.82L563.051 108.808V107.812Z"/><path fill="#121619" d="M550.18 215.656V204.88H551.02V215.656H550.18ZM555.535 214V213.124H557.935V206.368H557.851L555.739 208.336L555.151 207.7L557.371 205.624H558.943V213.124H561.151V214H555.535ZM563.051 212.812L567.311 210.4V210.304L563.051 207.892V206.872L568.211 209.86V210.82L563.051 213.808V212.812Z"/><circle cx="558" cy="73" r="20" fill="#DDE1E6"/><circle cx="558" cy="73" r="16.5" fill="#BE95FF" stroke="#491D8B"/><circle cx="558" cy="178" r="20" fill="#DDE1E6"/><circle cx="558" cy="178" r="16.5" fill="#BE95FF" stroke="#491D8B"/><path fill="#121619" d="M472.036 66L470.536 60.576H469.348V59.808H471.268L471.808 61.8L472.708 65.196H472.768L473.704 61.8L474.868 57.624H475.804L473.392 66H472.036ZM477.511 62.256C477.511 61.68 477.567 61.124 477.679 60.588C477.791 60.052 477.943 59.556 478.135 59.1C478.335 58.636 478.567 58.216 478.831 57.84C479.095 57.464 479.379 57.144 479.683 56.88H480.595C480.259 57.184 479.955 57.528 479.683 57.912C479.419 58.296 479.191 58.704 478.999 59.136C478.815 59.568 478.671 60.008 478.567 60.456C478.463 60.904 478.411 61.336 478.411 61.752V62.784C478.411 63.208 478.463 63.644 478.567 64.092C478.671 64.54 478.819 64.98 479.011 65.412C479.203 65.844 479.431 66.252 479.695 66.636C479.967 67.02 480.267 67.356 480.595 67.644H479.683C479.387 67.396 479.107 67.084 478.843 66.708C478.579 66.332 478.347 65.912 478.147 65.448C477.955 64.984 477.799 64.484 477.679 63.948C477.567 63.404 477.511 62.84 477.511 62.256ZM481.911 66V65.112H484.251V58.368H484.167L482.055 60.336L481.467 59.7L483.687 57.624H485.259V65.112H487.419V66H481.911ZM488.478 67.812L491.61 57.12H492.474L489.342 67.812H488.478ZM499.68 66H494.184V64.968L496.92 62.448C497.312 62.088 497.64 61.708 497.904 61.308C498.168 60.9 498.3 60.492 498.3 60.084V59.94C498.3 59.476 498.172 59.1 497.916 58.812C497.66 58.524 497.272 58.38 496.752 58.38C496.496 58.38 496.272 58.416 496.08 58.488C495.888 58.56 495.72 58.66 495.576 58.788C495.44 58.916 495.324 59.068 495.228 59.244C495.14 59.412 495.068 59.596 495.012 59.796L494.112 59.448C494.192 59.2 494.3 58.96 494.436 58.728C494.58 58.488 494.756 58.276 494.964 58.092C495.18 57.908 495.436 57.76 495.732 57.648C496.036 57.536 496.392 57.48 496.8 57.48C497.208 57.48 497.572 57.54 497.892 57.66C498.212 57.78 498.48 57.948 498.696 58.164C498.912 58.38 499.076 58.636 499.188 58.932C499.308 59.228 499.368 59.556 499.368 59.916C499.368 60.244 499.32 60.548 499.224 60.828C499.136 61.108 499.012 61.376 498.852 61.632C498.692 61.88 498.496 62.124 498.264 62.364C498.04 62.604 497.796 62.844 497.532 63.084L495.276 65.112H499.68V66ZM503.823 62.256C503.823 62.84 503.763 63.404 503.643 63.948C503.531 64.484 503.375 64.984 503.175 65.448C502.983 65.912 502.755 66.332 502.491 66.708C502.227 67.084 501.947 67.396 501.651 67.644H500.739C501.067 67.356 501.363 67.02 501.627 66.636C501.899 66.252 502.131 65.844 502.323 65.412C502.515 64.98 502.663 64.54 502.767 64.092C502.871 63.644 502.923 63.208 502.923 62.784V61.752C502.923 61.336 502.871 60.904 502.767 60.456C502.663 60.008 502.515 59.568 502.323 59.136C502.139 58.704 501.911 58.296 501.639 57.912C501.375 57.528 501.075 57.184 500.739 56.88H501.651C501.955 57.144 502.239 57.464 502.503 57.84C502.767 58.216 502.995 58.636 503.187 59.1C503.387 59.556 503.543 60.052 503.655 60.588C503.767 61.124 503.823 61.68 503.823 62.256Z"/><path fill="#121619" d="M469.828 167.868V166.836H472.96V167.868H469.828ZM477.149 171L475.649 165.576H474.461V164.808H476.381L476.921 166.8L477.821 170.196H477.881L478.817 166.8L479.981 162.624H480.917L478.505 171H477.149ZM482.624 167.256C482.624 166.68 482.68 166.124 482.792 165.588C482.904 165.052 483.056 164.556 483.248 164.1C483.448 163.636 483.68 163.216 483.944 162.84C484.208 162.464 484.492 162.144 484.796 161.88H485.708C485.372 162.184 485.068 162.528 484.796 162.912C484.532 163.296 484.304 163.704 484.112 164.136C483.928 164.568 483.784 165.008 483.68 165.456C483.576 165.904 483.524 166.336 483.524 166.752V167.784C483.524 168.208 483.576 168.644 483.68 169.092C483.784 169.54 483.932 169.98 484.124 170.412C484.316 170.844 484.544 171.252 484.808 171.636C485.08 172.02 485.38 172.356 485.708 172.644H484.796C484.5 172.396 484.22 172.084 483.956 171.708C483.692 171.332 483.46 170.912 483.26 170.448C483.068 169.984 482.912 169.484 482.792 168.948C482.68 168.404 482.624 167.84 482.624 167.256ZM487.024 171V170.112H489.364V163.368H489.28L487.168 165.336L486.58 164.7L488.8 162.624H490.372V170.112H492.532V171H487.024ZM493.591 172.812L496.723 162.12H497.587L494.455 172.812H493.591ZM504.793 171H499.297V169.968L502.033 167.448C502.425 167.088 502.753 166.708 503.017 166.308C503.281 165.9 503.413 165.492 503.413 165.084V164.94C503.413 164.476 503.285 164.1 503.029 163.812C502.773 163.524 502.385 163.38 501.865 163.38C501.609 163.38 501.385 163.416 501.193 163.488C501.001 163.56 500.833 163.66 500.689 163.788C500.553 163.916 500.437 164.068 500.341 164.244C500.253 164.412 500.181 164.596 500.125 164.796L499.225 164.448C499.305 164.2 499.413 163.96 499.549 163.728C499.693 163.488 499.869 163.276 500.077 163.092C500.293 162.908 500.549 162.76 500.845 162.648C501.149 162.536 501.505 162.48 501.913 162.48C502.321 162.48 502.685 162.54 503.005 162.66C503.325 162.78 503.593 162.948 503.809 163.164C504.025 163.38 504.189 163.636 504.301 163.932C504.421 164.228 504.481 164.556 504.481 164.916C504.481 165.244 504.433 165.548 504.337 165.828C504.249 166.108 504.125 166.376 503.965 166.632C503.805 166.88 503.609 167.124 503.377 167.364C503.153 167.604 502.909 167.844 502.645 168.084L500.389 170.112H504.793V171ZM508.936 167.256C508.936 167.84 508.876 168.404 508.756 168.948C508.644 169.484 508.488 169.984 508.288 170.448C508.096 170.912 507.868 171.332 507.604 171.708C507.34 172.084 507.06 172.396 506.764 172.644H505.852C506.18 172.356 506.476 172.02 506.74 171.636C507.012 171.252 507.244 170.844 507.436 170.412C507.628 169.98 507.776 169.54 507.88 169.092C507.984 168.644 508.036 168.208 508.036 167.784V166.752C508.036 166.336 507.984 165.904 507.88 165.456C507.776 165.008 507.628 164.568 507.436 164.136C507.252 163.704 507.024 163.296 506.752 162.912C506.488 162.528 506.188 162.184 505.852 161.88H506.764C507.068 162.144 507.352 162.464 507.616 162.84C507.88 163.216 508.108 163.636 508.3 164.1C508.5 164.556 508.656 165.052 508.768 165.588C508.88 166.124 508.936 166.68 508.936 167.256Z"/><path fill="#121619" d="M539.07 17.87H534.996V22H533.148V12.228H534.996V16.232H539.07V12.228H540.918V22H539.07V17.87ZM543.034 18.626V16.848H547.039V18.626H543.034ZM555.645 22.616C555.645 22.9987 555.575 23.3347 555.435 23.624C555.305 23.9227 555.085 24.17 554.777 24.366C554.469 24.562 554.073 24.7113 553.587 24.814C553.102 24.9167 552.509 24.968 551.809 24.968C551.193 24.968 550.671 24.926 550.241 24.842C549.812 24.7673 549.457 24.6553 549.177 24.506C548.907 24.366 548.711 24.1887 548.589 23.974C548.468 23.7593 548.407 23.5167 548.407 23.246C548.407 22.8353 548.519 22.5133 548.743 22.28C548.977 22.056 549.299 21.9113 549.709 21.846V21.692C549.411 21.6173 549.177 21.4727 549.009 21.258C548.851 21.034 548.771 20.7727 548.771 20.474C548.771 20.2873 548.809 20.124 548.883 19.984C548.958 19.8347 549.056 19.7087 549.177 19.606C549.308 19.5033 549.453 19.4193 549.611 19.354C549.77 19.2793 549.938 19.2233 550.115 19.186V19.13C549.667 18.9247 549.331 18.64 549.107 18.276C548.893 17.912 548.785 17.4873 548.785 17.002C548.785 16.2553 549.042 15.658 549.555 15.21C550.069 14.7527 550.82 14.524 551.809 14.524C552.033 14.524 552.253 14.538 552.467 14.566C552.691 14.594 552.897 14.6407 553.083 14.706V14.468C553.083 13.7587 553.429 13.404 554.119 13.404H555.253V14.776H553.699V14.972C554.082 15.1867 554.367 15.4667 554.553 15.812C554.74 16.1573 554.833 16.554 554.833 17.002C554.833 17.7393 554.577 18.332 554.063 18.78C553.559 19.228 552.808 19.452 551.809 19.452C551.38 19.452 551.007 19.41 550.689 19.326C550.549 19.3913 550.428 19.48 550.325 19.592C550.223 19.6947 550.171 19.8253 550.171 19.984C550.171 20.348 550.489 20.53 551.123 20.53H553.083C553.979 20.53 554.628 20.7167 555.029 21.09C555.44 21.454 555.645 21.9627 555.645 22.616ZM553.965 22.826C553.965 22.5927 553.872 22.4107 553.685 22.28C553.499 22.1493 553.177 22.084 552.719 22.084H550.227C549.975 22.2707 549.849 22.5227 549.849 22.84C549.849 23.12 549.966 23.3393 550.199 23.498C550.433 23.6567 550.829 23.736 551.389 23.736H552.285C552.873 23.736 553.298 23.6613 553.559 23.512C553.83 23.3627 553.965 23.134 553.965 22.826ZM551.809 18.234C552.687 18.234 553.125 17.8607 553.125 17.114V16.876C553.125 16.1293 552.687 15.756 551.809 15.756C550.932 15.756 550.493 16.1293 550.493 16.876V17.114C550.493 17.8607 550.932 18.234 551.809 18.234ZM562.189 22C561.797 22 561.484 21.888 561.251 21.664C561.027 21.4307 560.887 21.1227 560.831 20.74H560.747C560.626 21.216 560.378 21.5753 560.005 21.818C559.632 22.0513 559.17 22.168 558.619 22.168C557.872 22.168 557.298 21.972 556.897 21.58C556.496 21.188 556.295 20.6653 556.295 20.012C556.295 19.256 556.566 18.696 557.107 18.332C557.648 17.9587 558.418 17.772 559.417 17.772H560.663V17.24C560.663 16.8293 560.556 16.512 560.341 16.288C560.126 16.064 559.781 15.952 559.305 15.952C558.885 15.952 558.544 16.0453 558.283 16.232C558.031 16.4093 557.816 16.624 557.639 16.876L556.575 15.924C556.846 15.504 557.205 15.168 557.653 14.916C558.101 14.6547 558.694 14.524 559.431 14.524C560.42 14.524 561.172 14.748 561.685 15.196C562.198 15.644 562.455 16.288 562.455 17.128V20.572H563.183V22H562.189ZM559.221 20.866C559.622 20.866 559.963 20.7773 560.243 20.6C560.523 20.4227 560.663 20.1613 560.663 19.816V18.85H559.515C558.582 18.85 558.115 19.1487 558.115 19.746V19.984C558.115 20.2827 558.208 20.5067 558.395 20.656C558.591 20.796 558.866 20.866 559.221 20.866ZM567.02 22C566.404 22 565.933 21.8413 565.606 21.524C565.289 21.1973 565.13 20.7353 565.13 20.138V16.12H564.052V14.692H564.612C564.883 14.692 565.065 14.6313 565.158 14.51C565.261 14.3793 565.312 14.188 565.312 13.936V12.69H566.922V14.692H568.42V16.12H566.922V20.572H568.308V22H567.02ZM573.034 22.168C572.493 22.168 572.007 22.0793 571.578 21.902C571.158 21.7153 570.799 21.4587 570.5 21.132C570.211 20.796 569.987 20.3947 569.828 19.928C569.669 19.452 569.59 18.92 569.59 18.332C569.59 17.7533 569.665 17.2307 569.814 16.764C569.973 16.2973 570.197 15.9007 570.486 15.574C570.775 15.238 571.13 14.9813 571.55 14.804C571.97 14.6173 572.446 14.524 572.978 14.524C573.547 14.524 574.042 14.622 574.462 14.818C574.882 15.014 575.227 15.28 575.498 15.616C575.769 15.952 575.969 16.344 576.1 16.792C576.24 17.2307 576.31 17.702 576.31 18.206V18.794H571.452V18.976C571.452 19.508 571.601 19.9373 571.9 20.264C572.199 20.5813 572.642 20.74 573.23 20.74C573.678 20.74 574.042 20.6467 574.322 20.46C574.611 20.2733 574.868 20.0353 575.092 19.746L576.058 20.824C575.759 21.244 575.349 21.5753 574.826 21.818C574.313 22.0513 573.715 22.168 573.034 22.168ZM573.006 15.868C572.53 15.868 572.152 16.0267 571.872 16.344C571.592 16.6613 571.452 17.072 571.452 17.576V17.688H574.448V17.562C574.448 17.058 574.322 16.652 574.07 16.344C573.827 16.0267 573.473 15.868 573.006 15.868ZM584.413 22.168C583.891 22.168 583.419 22.0793 582.999 21.902C582.589 21.7247 582.234 21.468 581.935 21.132C581.646 20.796 581.422 20.3947 581.263 19.928C581.105 19.452 581.025 18.92 581.025 18.332C581.025 17.744 581.105 17.2167 581.263 16.75C581.422 16.2833 581.646 15.8867 581.935 15.56C582.234 15.224 582.589 14.9673 582.999 14.79C583.419 14.6127 583.891 14.524 584.413 14.524C584.936 14.524 585.407 14.6127 585.827 14.79C586.247 14.9673 586.602 15.224 586.891 15.56C587.19 15.8867 587.419 16.2833 587.577 16.75C587.736 17.2167 587.815 17.744 587.815 18.332C587.815 18.92 587.736 19.452 587.577 19.928C587.419 20.3947 587.19 20.796 586.891 21.132C586.602 21.468 586.247 21.7247 585.827 21.902C585.407 22.0793 584.936 22.168 584.413 22.168ZM584.413 20.726C584.889 20.726 585.263 20.5813 585.533 20.292C585.804 20.0027 585.939 19.578 585.939 19.018V17.66C585.939 17.1093 585.804 16.6893 585.533 16.4C585.263 16.1107 584.889 15.966 584.413 15.966C583.947 15.966 583.578 16.1107 583.307 16.4C583.037 16.6893 582.901 17.1093 582.901 17.66V19.018C582.901 19.578 583.037 20.0027 583.307 20.292C583.578 20.5813 583.947 20.726 584.413 20.726ZM593.932 20.782H593.862C593.797 20.9687 593.708 21.146 593.596 21.314C593.493 21.4727 593.358 21.6173 593.19 21.748C593.031 21.8787 592.835 21.9813 592.602 22.056C592.378 22.1307 592.117 22.168 591.818 22.168C591.062 22.168 590.483 21.9207 590.082 21.426C589.681 20.9313 589.48 20.2267 589.48 19.312V14.692H591.272V19.13C591.272 19.634 591.37 20.0213 591.566 20.292C591.762 20.5533 592.075 20.684 592.504 20.684C592.681 20.684 592.854 20.6607 593.022 20.614C593.199 20.5673 593.353 20.4973 593.484 20.404C593.615 20.3013 593.722 20.18 593.806 20.04C593.89 19.8907 593.932 19.718 593.932 19.522V14.692H595.724V22H593.932V20.782ZM600.237 22C599.621 22 599.149 21.8413 598.823 21.524C598.505 21.1973 598.347 20.7353 598.347 20.138V16.12H597.269V14.692H597.829C598.099 14.692 598.281 14.6313 598.375 14.51C598.477 14.3793 598.529 14.188 598.529 13.936V12.69H600.139V14.692H601.637V16.12H600.139V20.572H601.525V22H600.237ZM603.351 14.692H605.143V15.896H605.199C605.33 15.476 605.577 15.1447 605.941 14.902C606.305 14.65 606.73 14.524 607.215 14.524C608.148 14.524 608.858 14.8553 609.343 15.518C609.838 16.1713 610.085 17.1093 610.085 18.332C610.085 19.564 609.838 20.5113 609.343 21.174C608.858 21.8367 608.148 22.168 607.215 22.168C606.73 22.168 606.305 22.042 605.941 21.79C605.586 21.538 605.339 21.202 605.199 20.782H605.143V24.8H603.351V14.692ZM606.641 20.684C607.108 20.684 607.486 20.53 607.775 20.222C608.064 19.914 608.209 19.4987 608.209 18.976V17.716C608.209 17.1933 608.064 16.778 607.775 16.47C607.486 16.1527 607.108 15.994 606.641 15.994C606.212 15.994 605.852 16.1013 605.563 16.316C605.283 16.5307 605.143 16.8153 605.143 17.17V19.494C605.143 19.8767 605.283 20.1707 605.563 20.376C605.852 20.5813 606.212 20.684 606.641 20.684ZM616.273 20.782H616.203C616.138 20.9687 616.049 21.146 615.937 21.314C615.835 21.4727 615.699 21.6173 615.531 21.748C615.373 21.8787 615.177 21.9813 614.943 22.056C614.719 22.1307 614.458 22.168 614.159 22.168C613.403 22.168 612.825 21.9207 612.423 21.426C612.022 20.9313 611.821 20.2267 611.821 19.312V14.692H613.613V19.13C613.613 19.634 613.711 20.0213 613.907 20.292C614.103 20.5533 614.416 20.684 614.845 20.684C615.023 20.684 615.195 20.6607 615.363 20.614C615.541 20.5673 615.695 20.4973 615.825 20.404C615.956 20.3013 616.063 20.18 616.147 20.04C616.231 19.8907 616.273 19.718 616.273 19.522V14.692H618.065V22H616.273V20.782ZM622.578 22C621.962 22 621.491 21.8413 621.164 21.524C620.847 21.1973 620.688 20.7353 620.688 20.138V16.12H619.61V14.692H620.17C620.441 14.692 620.623 14.6313 620.716 14.51C620.819 14.3793 620.87 14.188 620.87 13.936V12.69H622.48V14.692H623.978V16.12H622.48V20.572H623.866V22H622.578Z"/><path fill="#121619" d="M372.07 17.87H367.996V22H366.148V12.228H367.996V16.232H372.07V12.228H373.918V22H372.07V17.87ZM376.034 18.626V16.848H380.039V18.626H376.034ZM388.645 22.616C388.645 22.9987 388.575 23.3347 388.435 23.624C388.305 23.9227 388.085 24.17 387.777 24.366C387.469 24.562 387.073 24.7113 386.587 24.814C386.102 24.9167 385.509 24.968 384.809 24.968C384.193 24.968 383.671 24.926 383.241 24.842C382.812 24.7673 382.457 24.6553 382.177 24.506C381.907 24.366 381.711 24.1887 381.589 23.974C381.468 23.7593 381.407 23.5167 381.407 23.246C381.407 22.8353 381.519 22.5133 381.743 22.28C381.977 22.056 382.299 21.9113 382.709 21.846V21.692C382.411 21.6173 382.177 21.4727 382.009 21.258C381.851 21.034 381.771 20.7727 381.771 20.474C381.771 20.2873 381.809 20.124 381.883 19.984C381.958 19.8347 382.056 19.7087 382.177 19.606C382.308 19.5033 382.453 19.4193 382.611 19.354C382.77 19.2793 382.938 19.2233 383.115 19.186V19.13C382.667 18.9247 382.331 18.64 382.107 18.276C381.893 17.912 381.785 17.4873 381.785 17.002C381.785 16.2553 382.042 15.658 382.555 15.21C383.069 14.7527 383.82 14.524 384.809 14.524C385.033 14.524 385.253 14.538 385.467 14.566C385.691 14.594 385.897 14.6407 386.083 14.706V14.468C386.083 13.7587 386.429 13.404 387.119 13.404H388.253V14.776H386.699V14.972C387.082 15.1867 387.367 15.4667 387.553 15.812C387.74 16.1573 387.833 16.554 387.833 17.002C387.833 17.7393 387.577 18.332 387.063 18.78C386.559 19.228 385.808 19.452 384.809 19.452C384.38 19.452 384.007 19.41 383.689 19.326C383.549 19.3913 383.428 19.48 383.325 19.592C383.223 19.6947 383.171 19.8253 383.171 19.984C383.171 20.348 383.489 20.53 384.123 20.53H386.083C386.979 20.53 387.628 20.7167 388.029 21.09C388.44 21.454 388.645 21.9627 388.645 22.616ZM386.965 22.826C386.965 22.5927 386.872 22.4107 386.685 22.28C386.499 22.1493 386.177 22.084 385.719 22.084H383.227C382.975 22.2707 382.849 22.5227 382.849 22.84C382.849 23.12 382.966 23.3393 383.199 23.498C383.433 23.6567 383.829 23.736 384.389 23.736H385.285C385.873 23.736 386.298 23.6613 386.559 23.512C386.83 23.3627 386.965 23.134 386.965 22.826ZM384.809 18.234C385.687 18.234 386.125 17.8607 386.125 17.114V16.876C386.125 16.1293 385.687 15.756 384.809 15.756C383.932 15.756 383.493 16.1293 383.493 16.876V17.114C383.493 17.8607 383.932 18.234 384.809 18.234ZM395.189 22C394.797 22 394.484 21.888 394.251 21.664C394.027 21.4307 393.887 21.1227 393.831 20.74H393.747C393.626 21.216 393.378 21.5753 393.005 21.818C392.632 22.0513 392.17 22.168 391.619 22.168C390.872 22.168 390.298 21.972 389.897 21.58C389.496 21.188 389.295 20.6653 389.295 20.012C389.295 19.256 389.566 18.696 390.107 18.332C390.648 17.9587 391.418 17.772 392.417 17.772H393.663V17.24C393.663 16.8293 393.556 16.512 393.341 16.288C393.126 16.064 392.781 15.952 392.305 15.952C391.885 15.952 391.544 16.0453 391.283 16.232C391.031 16.4093 390.816 16.624 390.639 16.876L389.575 15.924C389.846 15.504 390.205 15.168 390.653 14.916C391.101 14.6547 391.694 14.524 392.431 14.524C393.42 14.524 394.172 14.748 394.685 15.196C395.198 15.644 395.455 16.288 395.455 17.128V20.572H396.183V22H395.189ZM392.221 20.866C392.622 20.866 392.963 20.7773 393.243 20.6C393.523 20.4227 393.663 20.1613 393.663 19.816V18.85H392.515C391.582 18.85 391.115 19.1487 391.115 19.746V19.984C391.115 20.2827 391.208 20.5067 391.395 20.656C391.591 20.796 391.866 20.866 392.221 20.866ZM400.02 22C399.404 22 398.933 21.8413 398.606 21.524C398.289 21.1973 398.13 20.7353 398.13 20.138V16.12H397.052V14.692H397.612C397.883 14.692 398.065 14.6313 398.158 14.51C398.261 14.3793 398.312 14.188 398.312 13.936V12.69H399.922V14.692H401.42V16.12H399.922V20.572H401.308V22H400.02ZM406.034 22.168C405.493 22.168 405.007 22.0793 404.578 21.902C404.158 21.7153 403.799 21.4587 403.5 21.132C403.211 20.796 402.987 20.3947 402.828 19.928C402.669 19.452 402.59 18.92 402.59 18.332C402.59 17.7533 402.665 17.2307 402.814 16.764C402.973 16.2973 403.197 15.9007 403.486 15.574C403.775 15.238 404.13 14.9813 404.55 14.804C404.97 14.6173 405.446 14.524 405.978 14.524C406.547 14.524 407.042 14.622 407.462 14.818C407.882 15.014 408.227 15.28 408.498 15.616C408.769 15.952 408.969 16.344 409.1 16.792C409.24 17.2307 409.31 17.702 409.31 18.206V18.794H404.452V18.976C404.452 19.508 404.601 19.9373 404.9 20.264C405.199 20.5813 405.642 20.74 406.23 20.74C406.678 20.74 407.042 20.6467 407.322 20.46C407.611 20.2733 407.868 20.0353 408.092 19.746L409.058 20.824C408.759 21.244 408.349 21.5753 407.826 21.818C407.313 22.0513 406.715 22.168 406.034 22.168ZM406.006 15.868C405.53 15.868 405.152 16.0267 404.872 16.344C404.592 16.6613 404.452 17.072 404.452 17.576V17.688H407.448V17.562C407.448 17.058 407.322 16.652 407.07 16.344C406.827 16.0267 406.473 15.868 406.006 15.868ZM415.411 13.628C415.038 13.628 414.767 13.544 414.599 13.376C414.441 13.208 414.361 12.9933 414.361 12.732V12.452C414.361 12.1907 414.441 11.976 414.599 11.808C414.767 11.64 415.038 11.556 415.411 11.556C415.775 11.556 416.041 11.64 416.209 11.808C416.377 11.976 416.461 12.1907 416.461 12.452V12.732C416.461 12.9933 416.377 13.208 416.209 13.376C416.041 13.544 415.775 13.628 415.411 13.628ZM414.515 14.692H416.307V22H414.515V14.692ZM418.545 22V14.692H420.337V15.91H420.407C420.556 15.518 420.789 15.1913 421.107 14.93C421.433 14.6593 421.881 14.524 422.451 14.524C423.207 14.524 423.785 14.7713 424.187 15.266C424.588 15.7607 424.789 16.4653 424.789 17.38V22H422.997V17.562C422.997 17.0393 422.903 16.6473 422.717 16.386C422.53 16.1247 422.222 15.994 421.793 15.994C421.606 15.994 421.424 16.022 421.247 16.078C421.079 16.1247 420.925 16.1993 420.785 16.302C420.654 16.3953 420.547 16.5167 420.463 16.666C420.379 16.806 420.337 16.974 420.337 17.17V22H418.545ZM426.935 14.692H428.727V15.896H428.783C428.914 15.476 429.161 15.1447 429.525 14.902C429.889 14.65 430.314 14.524 430.799 14.524C431.732 14.524 432.442 14.8553 432.927 15.518C433.422 16.1713 433.669 17.1093 433.669 18.332C433.669 19.564 433.422 20.5113 432.927 21.174C432.442 21.8367 431.732 22.168 430.799 22.168C430.314 22.168 429.889 22.042 429.525 21.79C429.17 21.538 428.923 21.202 428.783 20.782H428.727V24.8H426.935V14.692ZM430.225 20.684C430.692 20.684 431.07 20.53 431.359 20.222C431.648 19.914 431.793 19.4987 431.793 18.976V17.716C431.793 17.1933 431.648 16.778 431.359 16.47C431.07 16.1527 430.692 15.994 430.225 15.994C429.796 15.994 429.436 16.1013 429.147 16.316C428.867 16.5307 428.727 16.8153 428.727 17.17V19.494C428.727 19.8767 428.867 20.1707 429.147 20.376C429.436 20.5813 429.796 20.684 430.225 20.684ZM439.858 20.782H439.788C439.722 20.9687 439.634 21.146 439.522 21.314C439.419 21.4727 439.284 21.6173 439.116 21.748C438.957 21.8787 438.761 21.9813 438.528 22.056C438.304 22.1307 438.042 22.168 437.744 22.168C436.988 22.168 436.409 21.9207 436.008 21.426C435.606 20.9313 435.406 20.2267 435.406 19.312V14.692H437.198V19.13C437.198 19.634 437.296 20.0213 437.492 20.292C437.688 20.5533 438 20.684 438.43 20.684C438.607 20.684 438.78 20.6607 438.948 20.614C439.125 20.5673 439.279 20.4973 439.41 20.404C439.54 20.3013 439.648 20.18 439.732 20.04C439.816 19.8907 439.858 19.718 439.858 19.522V14.692H441.65V22H439.858V20.782ZM446.162 22C445.546 22 445.075 21.8413 444.748 21.524C444.431 21.1973 444.272 20.7353 444.272 20.138V16.12H443.194V14.692H443.754C444.025 14.692 444.207 14.6313 444.3 14.51C444.403 14.3793 444.454 14.188 444.454 13.936V12.69H446.064V14.692H447.562V16.12H446.064V20.572H447.45V22H446.162Z"/><line x1="515.5" x2="515.5" y2="268" stroke="#DDE1E6"/><circle cx="385" cy="73" r="19.5" fill="#BE95FF" stroke="#491D8B"/><path stroke="#343A3F" d="M464 178.5H455.5H451V178.5C448.651 178.5 446.746 176.596 446.746 174.246V78.5C446.746 75.7386 444.508 73.5 441.746 73.5L438.5 73.5H430"/><path fill="#491D8B" d="M401 75L405 73.5L401 72V75Z"/><line x1="401" x2="384" y1="73.5" y2="73.5" stroke="#491D8B"/><path fill="#491D8B" d="M570 75L574 73.5L570 72V75Z"/><line x1="570" x2="558" y1="73.5" y2="73.5" stroke="#491D8B"/><path fill="#491D8B" d="M545 180L541 178.5L545 177V180Z"/><line x2="13" y1="-.5" y2="-.5" stroke="#491D8B" transform="matrix(1 -4.37115e-08 -4.37115e-08 -1 545 178)"/><path fill="#343A3F" d="M527 75L531 73.5L527 72V75Z"/><line x1="527" x2="423" y1="73.5" y2="73.5" stroke="#343A3F"/><path fill="#343A3F" d="M527 180L531 178.5L527 177V180Z"/><line x1="527" x2="464" y1="178.5" y2="178.5" stroke="#343A3F"/></svg>