<svg xmlns="http://www.w3.org/2000/svg" width="576" height="336" fill="none" viewBox="0 0 576 336"><rect width="574" height="334" x="1" y="1" fill="#fff"/><rect width="574" height="334" x="1" y="1" fill="#fff"/><rect width="574" height="334" x="1" y="1" fill="#fff"/><rect width="574" height="334" x="1" y="1" fill="#fff"/><line x1="299" x2="264" y1="73.5" y2="73.5" stroke="#343A3F"/><line x1="299" x2="264" y1="223.5" y2="223.5" stroke="#343A3F"/><rect width="191" height="334" x="1" fill="#F2F4F8" opacity=".4"/><rect width="191" height="334" x="384" fill="#F2F4F8" opacity=".4"/><rect width="575" height="335" x=".5" y=".5" stroke="#DDE1E6"/><path fill="#121619" d="M28.18 110.656V99.88H29.02V110.656H28.18ZM36.1153 109.144C35.6033 109.144 35.1633 109.048 34.7953 108.856C34.4273 108.656 34.1233 108.372 33.8833 108.004C33.6433 107.636 33.4673 107.184 33.3553 106.648C33.2433 106.112 33.1873 105.5 33.1873 104.812C33.1873 104.132 33.2433 103.524 33.3553 102.988C33.4673 102.444 33.6433 101.988 33.8833 101.62C34.1233 101.252 34.4273 100.972 34.7953 100.78C35.1633 100.58 35.6033 100.48 36.1153 100.48C36.6273 100.48 37.0673 100.58 37.4353 100.78C37.8033 100.972 38.1073 101.252 38.3473 101.62C38.5873 101.988 38.7633 102.444 38.8753 102.988C38.9873 103.524 39.0433 104.132 39.0433 104.812C39.0433 105.5 38.9873 106.112 38.8753 106.648C38.7633 107.184 38.5873 107.636 38.3473 108.004C38.1073 108.372 37.8033 108.656 37.4353 108.856C37.0673 109.048 36.6273 109.144 36.1153 109.144ZM36.1153 108.268C36.4513 108.268 36.7393 108.204 36.9793 108.076C37.2193 107.94 37.4113 107.752 37.5553 107.512C37.7073 107.272 37.8193 106.984 37.8913 106.648C37.9633 106.304 37.9993 105.92 37.9993 105.496V104.128C37.9993 103.712 37.9633 103.332 37.8913 102.988C37.8193 102.644 37.7073 102.352 37.5553 102.112C37.4113 101.872 37.2193 101.688 36.9793 101.56C36.7393 101.424 36.4513 101.356 36.1153 101.356C35.7793 101.356 35.4913 101.424 35.2513 101.56C35.0113 101.688 34.8153 101.872 34.6633 102.112C34.5193 102.352 34.4113 102.644 34.3393 102.988C34.2673 103.332 34.2313 103.712 34.2313 104.128V105.496C34.2313 105.92 34.2673 106.304 34.3393 106.648C34.4113 106.984 34.5193 107.272 34.6633 107.512C34.8153 107.752 35.0113 107.94 35.2513 108.076C35.4913 108.204 35.7793 108.268 36.1153 108.268ZM36.1153 105.52C35.8353 105.52 35.6393 105.464 35.5273 105.352C35.4233 105.24 35.3713 105.104 35.3713 104.944V104.68C35.3713 104.52 35.4233 104.384 35.5273 104.272C35.6393 104.16 35.8353 104.104 36.1153 104.104C36.3953 104.104 36.5873 104.16 36.6913 104.272C36.8033 104.384 36.8593 104.52 36.8593 104.68V104.944C36.8593 105.104 36.8033 105.24 36.6913 105.352C36.5873 105.464 36.3953 105.52 36.1153 105.52ZM41.0506 107.812L45.3106 105.4V105.304L41.0506 102.892V101.872L46.2106 104.86V105.82L41.0506 108.808V107.812Z"/><path fill="#121619" d="M227.18 110.656V99.88H228.02V110.656H227.18ZM235.115 109.144C234.603 109.144 234.163 109.048 233.795 108.856C233.427 108.656 233.123 108.372 232.883 108.004C232.643 107.636 232.467 107.184 232.355 106.648C232.243 106.112 232.187 105.5 232.187 104.812C232.187 104.132 232.243 103.524 232.355 102.988C232.467 102.444 232.643 101.988 232.883 101.62C233.123 101.252 233.427 100.972 233.795 100.78C234.163 100.58 234.603 100.48 235.115 100.48C235.627 100.48 236.067 100.58 236.435 100.78C236.803 100.972 237.107 101.252 237.347 101.62C237.587 101.988 237.763 102.444 237.875 102.988C237.987 103.524 238.043 104.132 238.043 104.812C238.043 105.5 237.987 106.112 237.875 106.648C237.763 107.184 237.587 107.636 237.347 108.004C237.107 108.372 236.803 108.656 236.435 108.856C236.067 109.048 235.627 109.144 235.115 109.144ZM235.115 108.268C235.451 108.268 235.739 108.204 235.979 108.076C236.219 107.94 236.411 107.752 236.555 107.512C236.707 107.272 236.819 106.984 236.891 106.648C236.963 106.304 236.999 105.92 236.999 105.496V104.128C236.999 103.712 236.963 103.332 236.891 102.988C236.819 102.644 236.707 102.352 236.555 102.112C236.411 101.872 236.219 101.688 235.979 101.56C235.739 101.424 235.451 101.356 235.115 101.356C234.779 101.356 234.491 101.424 234.251 101.56C234.011 101.688 233.815 101.872 233.663 102.112C233.519 102.352 233.411 102.644 233.339 102.988C233.267 103.332 233.231 103.712 233.231 104.128V105.496C233.231 105.92 233.267 106.304 233.339 106.648C233.411 106.984 233.519 107.272 233.663 107.512C233.815 107.752 234.011 107.94 234.251 108.076C234.491 108.204 234.779 108.268 235.115 108.268ZM235.115 105.52C234.835 105.52 234.639 105.464 234.527 105.352C234.423 105.24 234.371 105.104 234.371 104.944V104.68C234.371 104.52 234.423 104.384 234.527 104.272C234.639 104.16 234.835 104.104 235.115 104.104C235.395 104.104 235.587 104.16 235.691 104.272C235.803 104.384 235.859 104.52 235.859 104.68V104.944C235.859 105.104 235.803 105.24 235.691 105.352C235.587 105.464 235.395 105.52 235.115 105.52ZM240.051 107.812L244.311 105.4V105.304L240.051 102.892V101.872L245.211 104.86V105.82L240.051 108.808V107.812Z"/><path fill="#121619" fill-opacity=".15" d="M419.18 110.656V99.88H420.02V110.656H419.18ZM427.115 109.144C426.603 109.144 426.163 109.048 425.795 108.856C425.427 108.656 425.123 108.372 424.883 108.004C424.643 107.636 424.467 107.184 424.355 106.648C424.243 106.112 424.187 105.5 424.187 104.812C424.187 104.132 424.243 103.524 424.355 102.988C424.467 102.444 424.643 101.988 424.883 101.62C425.123 101.252 425.427 100.972 425.795 100.78C426.163 100.58 426.603 100.48 427.115 100.48C427.627 100.48 428.067 100.58 428.435 100.78C428.803 100.972 429.107 101.252 429.347 101.62C429.587 101.988 429.763 102.444 429.875 102.988C429.987 103.524 430.043 104.132 430.043 104.812C430.043 105.5 429.987 106.112 429.875 106.648C429.763 107.184 429.587 107.636 429.347 108.004C429.107 108.372 428.803 108.656 428.435 108.856C428.067 109.048 427.627 109.144 427.115 109.144ZM427.115 108.268C427.451 108.268 427.739 108.204 427.979 108.076C428.219 107.94 428.411 107.752 428.555 107.512C428.707 107.272 428.819 106.984 428.891 106.648C428.963 106.304 428.999 105.92 428.999 105.496V104.128C428.999 103.712 428.963 103.332 428.891 102.988C428.819 102.644 428.707 102.352 428.555 102.112C428.411 101.872 428.219 101.688 427.979 101.56C427.739 101.424 427.451 101.356 427.115 101.356C426.779 101.356 426.491 101.424 426.251 101.56C426.011 101.688 425.815 101.872 425.663 102.112C425.519 102.352 425.411 102.644 425.339 102.988C425.267 103.332 425.231 103.712 425.231 104.128V105.496C425.231 105.92 425.267 106.304 425.339 106.648C425.411 106.984 425.519 107.272 425.663 107.512C425.815 107.752 426.011 107.94 426.251 108.076C426.491 108.204 426.779 108.268 427.115 108.268ZM427.115 105.52C426.835 105.52 426.639 105.464 426.527 105.352C426.423 105.24 426.371 105.104 426.371 104.944V104.68C426.371 104.52 426.423 104.384 426.527 104.272C426.639 104.16 426.835 104.104 427.115 104.104C427.395 104.104 427.587 104.16 427.691 104.272C427.803 104.384 427.859 104.52 427.859 104.68V104.944C427.859 105.104 427.803 105.24 427.691 105.352C427.587 105.464 427.395 105.52 427.115 105.52ZM432.051 107.812L436.311 105.4V105.304L432.051 102.892V101.872L437.211 104.86V105.82L432.051 108.808V107.812Z"/><path fill="#121619" fill-opacity=".15" d="M419.18 260.656V249.88H420.02V260.656H419.18ZM427.115 259.144C426.603 259.144 426.163 259.048 425.795 258.856C425.427 258.656 425.123 258.372 424.883 258.004C424.643 257.636 424.467 257.184 424.355 256.648C424.243 256.112 424.187 255.5 424.187 254.812C424.187 254.132 424.243 253.524 424.355 252.988C424.467 252.444 424.643 251.988 424.883 251.62C425.123 251.252 425.427 250.972 425.795 250.78C426.163 250.58 426.603 250.48 427.115 250.48C427.627 250.48 428.067 250.58 428.435 250.78C428.803 250.972 429.107 251.252 429.347 251.62C429.587 251.988 429.763 252.444 429.875 252.988C429.987 253.524 430.043 254.132 430.043 254.812C430.043 255.5 429.987 256.112 429.875 256.648C429.763 257.184 429.587 257.636 429.347 258.004C429.107 258.372 428.803 258.656 428.435 258.856C428.067 259.048 427.627 259.144 427.115 259.144ZM427.115 258.268C427.451 258.268 427.739 258.204 427.979 258.076C428.219 257.94 428.411 257.752 428.555 257.512C428.707 257.272 428.819 256.984 428.891 256.648C428.963 256.304 428.999 255.92 428.999 255.496V254.128C428.999 253.712 428.963 253.332 428.891 252.988C428.819 252.644 428.707 252.352 428.555 252.112C428.411 251.872 428.219 251.688 427.979 251.56C427.739 251.424 427.451 251.356 427.115 251.356C426.779 251.356 426.491 251.424 426.251 251.56C426.011 251.688 425.815 251.872 425.663 252.112C425.519 252.352 425.411 252.644 425.339 252.988C425.267 253.332 425.231 253.712 425.231 254.128V255.496C425.231 255.92 425.267 256.304 425.339 256.648C425.411 256.984 425.519 257.272 425.663 257.512C425.815 257.752 426.011 257.94 426.251 258.076C426.491 258.204 426.779 258.268 427.115 258.268ZM427.115 255.52C426.835 255.52 426.639 255.464 426.527 255.352C426.423 255.24 426.371 255.104 426.371 254.944V254.68C426.371 254.52 426.423 254.384 426.527 254.272C426.639 254.16 426.835 254.104 427.115 254.104C427.395 254.104 427.587 254.16 427.691 254.272C427.803 254.384 427.859 254.52 427.859 254.68V254.944C427.859 255.104 427.803 255.24 427.691 255.352C427.587 255.464 427.395 255.52 427.115 255.52ZM432.051 257.812L436.311 255.4V255.304L432.051 252.892V251.872L437.211 254.86V255.82L432.051 258.808V257.812Z"/><path fill="#121619" d="M227.18 260.656V249.88H228.02V260.656H227.18ZM232.535 259V258.124H234.935V251.368H234.851L232.739 253.336L232.151 252.7L234.371 250.624H235.943V258.124H238.151V259H232.535ZM240.051 257.812L244.311 255.4V255.304L240.051 252.892V251.872L245.211 254.86V255.82L240.051 258.808V257.812Z"/><path fill="#121619" d="M419.18 177.656V166.88H420.02V177.656H419.18ZM424.535 176V175.124H426.935V168.368H426.851L424.739 170.336L424.151 169.7L426.371 167.624H427.943V175.124H430.151V176H424.535ZM432.051 174.812L436.311 172.4V172.304L432.051 169.892V168.872L437.211 171.86V172.82L432.051 175.808V174.812Z"/><path fill="#121619" d="M419.18 327.656V316.88H420.02V327.656H419.18ZM424.535 326V325.124H426.935V318.368H426.851L424.739 320.336L424.151 319.7L426.371 317.624H427.943V325.124H430.151V326H424.535ZM432.051 324.812L436.311 322.4V322.304L432.051 319.892V318.872L437.211 321.86V322.82L432.051 325.808V324.812Z"/><circle cx="235" cy="73" r="20" fill="#DDE1E6"/><circle cx="235" cy="73" r="16.5" fill="#BE95FF" stroke="#491D8B"/><circle cx="427" cy="73" r="20" fill="#DDE1E6"/><circle cx="427" cy="73" r="8" fill="#BE95FF"/><circle cx="427" cy="73" r="7.5" stroke="#491D8B" stroke-opacity=".15"/><circle cx="427" cy="223" r="20" fill="#DDE1E6"/><circle cx="427" cy="223" r="8" fill="#BE95FF"/><circle cx="427" cy="223" r="7.5" stroke="#491D8B" stroke-opacity=".15"/><circle cx="235" cy="223" r="20" fill="#DDE1E6"/><circle cx="235" cy="223" r="16.5" fill="#BE95FF" stroke="#491D8B"/><circle cx="427" cy="140" r="20" fill="#DDE1E6"/><circle cx="427" cy="140" r="7.5" fill="#BE95FF" stroke="#491D8B"/><circle cx="427" cy="290" r="20" fill="#DDE1E6"/><circle cx="427" cy="290" r="7.5" fill="#BE95FF" stroke="#491D8B"/><path fill="#121619" d="M149.036 66L147.536 60.576H146.348V59.808H148.268L148.808 61.8L149.708 65.196H149.768L150.704 61.8L151.868 57.624H152.804L150.392 66H149.036ZM154.511 62.256C154.511 61.68 154.567 61.124 154.679 60.588C154.791 60.052 154.943 59.556 155.135 59.1C155.335 58.636 155.567 58.216 155.831 57.84C156.095 57.464 156.379 57.144 156.683 56.88H157.595C157.259 57.184 156.955 57.528 156.683 57.912C156.419 58.296 156.191 58.704 155.999 59.136C155.815 59.568 155.671 60.008 155.567 60.456C155.463 60.904 155.411 61.336 155.411 61.752V62.784C155.411 63.208 155.463 63.644 155.567 64.092C155.671 64.54 155.819 64.98 156.011 65.412C156.203 65.844 156.431 66.252 156.695 66.636C156.967 67.02 157.267 67.356 157.595 67.644H156.683C156.387 67.396 156.107 67.084 155.843 66.708C155.579 66.332 155.347 65.912 155.147 65.448C154.955 64.984 154.799 64.484 154.679 63.948C154.567 63.404 154.511 62.84 154.511 62.256ZM158.911 66V65.112H161.251V58.368H161.167L159.055 60.336L158.467 59.7L160.687 57.624H162.259V65.112H164.419V66H158.911ZM165.478 67.812L168.61 57.12H169.474L166.342 67.812H165.478ZM176.68 66H171.184V64.968L173.92 62.448C174.312 62.088 174.64 61.708 174.904 61.308C175.168 60.9 175.3 60.492 175.3 60.084V59.94C175.3 59.476 175.172 59.1 174.916 58.812C174.66 58.524 174.272 58.38 173.752 58.38C173.496 58.38 173.272 58.416 173.08 58.488C172.888 58.56 172.72 58.66 172.576 58.788C172.44 58.916 172.324 59.068 172.228 59.244C172.14 59.412 172.068 59.596 172.012 59.796L171.112 59.448C171.192 59.2 171.3 58.96 171.436 58.728C171.58 58.488 171.756 58.276 171.964 58.092C172.18 57.908 172.436 57.76 172.732 57.648C173.036 57.536 173.392 57.48 173.8 57.48C174.208 57.48 174.572 57.54 174.892 57.66C175.212 57.78 175.48 57.948 175.696 58.164C175.912 58.38 176.076 58.636 176.188 58.932C176.308 59.228 176.368 59.556 176.368 59.916C176.368 60.244 176.32 60.548 176.224 60.828C176.136 61.108 176.012 61.376 175.852 61.632C175.692 61.88 175.496 62.124 175.264 62.364C175.04 62.604 174.796 62.844 174.532 63.084L172.276 65.112H176.68V66ZM180.823 62.256C180.823 62.84 180.763 63.404 180.643 63.948C180.531 64.484 180.375 64.984 180.175 65.448C179.983 65.912 179.755 66.332 179.491 66.708C179.227 67.084 178.947 67.396 178.651 67.644H177.739C178.067 67.356 178.363 67.02 178.627 66.636C178.899 66.252 179.131 65.844 179.323 65.412C179.515 64.98 179.663 64.54 179.767 64.092C179.871 63.644 179.923 63.208 179.923 62.784V61.752C179.923 61.336 179.871 60.904 179.767 60.456C179.663 60.008 179.515 59.568 179.323 59.136C179.139 58.704 178.911 58.296 178.639 57.912C178.375 57.528 178.075 57.184 177.739 56.88H178.651C178.955 57.144 179.239 57.464 179.503 57.84C179.767 58.216 179.995 58.636 180.187 59.1C180.387 59.556 180.543 60.052 180.655 60.588C180.767 61.124 180.823 61.68 180.823 62.256Z"/><path fill="#121619" fill-opacity=".15" d="M341.036 66L339.536 60.576H338.348V59.808H340.268L340.808 61.8L341.708 65.196H341.768L342.704 61.8L343.868 57.624H344.804L342.392 66H341.036ZM346.511 62.256C346.511 61.68 346.567 61.124 346.679 60.588C346.791 60.052 346.943 59.556 347.135 59.1C347.335 58.636 347.567 58.216 347.831 57.84C348.095 57.464 348.379 57.144 348.683 56.88H349.595C349.259 57.184 348.955 57.528 348.683 57.912C348.419 58.296 348.191 58.704 347.999 59.136C347.815 59.568 347.671 60.008 347.567 60.456C347.463 60.904 347.411 61.336 347.411 61.752V62.784C347.411 63.208 347.463 63.644 347.567 64.092C347.671 64.54 347.819 64.98 348.011 65.412C348.203 65.844 348.431 66.252 348.695 66.636C348.967 67.02 349.267 67.356 349.595 67.644H348.683C348.387 67.396 348.107 67.084 347.843 66.708C347.579 66.332 347.347 65.912 347.147 65.448C346.955 64.984 346.799 64.484 346.679 63.948C346.567 63.404 346.511 62.84 346.511 62.256ZM350.911 66V65.112H353.251V58.368H353.167L351.055 60.336L350.467 59.7L352.687 57.624H354.259V65.112H356.419V66H350.911ZM357.478 67.812L360.61 57.12H361.474L358.342 67.812H357.478ZM368.68 66H363.184V64.968L365.92 62.448C366.312 62.088 366.64 61.708 366.904 61.308C367.168 60.9 367.3 60.492 367.3 60.084V59.94C367.3 59.476 367.172 59.1 366.916 58.812C366.66 58.524 366.272 58.38 365.752 58.38C365.496 58.38 365.272 58.416 365.08 58.488C364.888 58.56 364.72 58.66 364.576 58.788C364.44 58.916 364.324 59.068 364.228 59.244C364.14 59.412 364.068 59.596 364.012 59.796L363.112 59.448C363.192 59.2 363.3 58.96 363.436 58.728C363.58 58.488 363.756 58.276 363.964 58.092C364.18 57.908 364.436 57.76 364.732 57.648C365.036 57.536 365.392 57.48 365.8 57.48C366.208 57.48 366.572 57.54 366.892 57.66C367.212 57.78 367.48 57.948 367.696 58.164C367.912 58.38 368.076 58.636 368.188 58.932C368.308 59.228 368.368 59.556 368.368 59.916C368.368 60.244 368.32 60.548 368.224 60.828C368.136 61.108 368.012 61.376 367.852 61.632C367.692 61.88 367.496 62.124 367.264 62.364C367.04 62.604 366.796 62.844 366.532 63.084L364.276 65.112H368.68V66ZM372.823 62.256C372.823 62.84 372.763 63.404 372.643 63.948C372.531 64.484 372.375 64.984 372.175 65.448C371.983 65.912 371.755 66.332 371.491 66.708C371.227 67.084 370.947 67.396 370.651 67.644H369.739C370.067 67.356 370.363 67.02 370.627 66.636C370.899 66.252 371.131 65.844 371.323 65.412C371.515 64.98 371.663 64.54 371.767 64.092C371.871 63.644 371.923 63.208 371.923 62.784V61.752C371.923 61.336 371.871 60.904 371.767 60.456C371.663 60.008 371.515 59.568 371.323 59.136C371.139 58.704 370.911 58.296 370.639 57.912C370.375 57.528 370.075 57.184 369.739 56.88H370.651C370.955 57.144 371.239 57.464 371.503 57.84C371.767 58.216 371.995 58.636 372.187 59.1C372.387 59.556 372.543 60.052 372.655 60.588C372.767 61.124 372.823 61.68 372.823 62.256Z"/><path fill="#121619" fill-opacity=".15" d="M341.036 216L339.536 210.576H338.348V209.808H340.268L340.808 211.8L341.708 215.196H341.768L342.704 211.8L343.868 207.624H344.804L342.392 216H341.036ZM346.511 212.256C346.511 211.68 346.567 211.124 346.679 210.588C346.791 210.052 346.943 209.556 347.135 209.1C347.335 208.636 347.567 208.216 347.831 207.84C348.095 207.464 348.379 207.144 348.683 206.88H349.595C349.259 207.184 348.955 207.528 348.683 207.912C348.419 208.296 348.191 208.704 347.999 209.136C347.815 209.568 347.671 210.008 347.567 210.456C347.463 210.904 347.411 211.336 347.411 211.752V212.784C347.411 213.208 347.463 213.644 347.567 214.092C347.671 214.54 347.819 214.98 348.011 215.412C348.203 215.844 348.431 216.252 348.695 216.636C348.967 217.02 349.267 217.356 349.595 217.644H348.683C348.387 217.396 348.107 217.084 347.843 216.708C347.579 216.332 347.347 215.912 347.147 215.448C346.955 214.984 346.799 214.484 346.679 213.948C346.567 213.404 346.511 212.84 346.511 212.256ZM350.911 216V215.112H353.251V208.368H353.167L351.055 210.336L350.467 209.7L352.687 207.624H354.259V215.112H356.419V216H350.911ZM357.478 217.812L360.61 207.12H361.474L358.342 217.812H357.478ZM368.68 216H363.184V214.968L365.92 212.448C366.312 212.088 366.64 211.708 366.904 211.308C367.168 210.9 367.3 210.492 367.3 210.084V209.94C367.3 209.476 367.172 209.1 366.916 208.812C366.66 208.524 366.272 208.38 365.752 208.38C365.496 208.38 365.272 208.416 365.08 208.488C364.888 208.56 364.72 208.66 364.576 208.788C364.44 208.916 364.324 209.068 364.228 209.244C364.14 209.412 364.068 209.596 364.012 209.796L363.112 209.448C363.192 209.2 363.3 208.96 363.436 208.728C363.58 208.488 363.756 208.276 363.964 208.092C364.18 207.908 364.436 207.76 364.732 207.648C365.036 207.536 365.392 207.48 365.8 207.48C366.208 207.48 366.572 207.54 366.892 207.66C367.212 207.78 367.48 207.948 367.696 208.164C367.912 208.38 368.076 208.636 368.188 208.932C368.308 209.228 368.368 209.556 368.368 209.916C368.368 210.244 368.32 210.548 368.224 210.828C368.136 211.108 368.012 211.376 367.852 211.632C367.692 211.88 367.496 212.124 367.264 212.364C367.04 212.604 366.796 212.844 366.532 213.084L364.276 215.112H368.68V216ZM372.823 212.256C372.823 212.84 372.763 213.404 372.643 213.948C372.531 214.484 372.375 214.984 372.175 215.448C371.983 215.912 371.755 216.332 371.491 216.708C371.227 217.084 370.947 217.396 370.651 217.644H369.739C370.067 217.356 370.363 217.02 370.627 216.636C370.899 216.252 371.131 215.844 371.323 215.412C371.515 214.98 371.663 214.54 371.767 214.092C371.871 213.644 371.923 213.208 371.923 212.784V211.752C371.923 211.336 371.871 210.904 371.767 210.456C371.663 210.008 371.515 209.568 371.323 209.136C371.139 208.704 370.911 208.296 370.639 207.912C370.375 207.528 370.075 207.184 369.739 206.88H370.651C370.955 207.144 371.239 207.464 371.503 207.84C371.767 208.216 371.995 208.636 372.187 209.1C372.387 209.556 372.543 210.052 372.655 210.588C372.767 211.124 372.823 211.68 372.823 212.256Z"/><path fill="#121619" d="M149.036 216L147.536 210.576H146.348V209.808H148.268L148.808 211.8L149.708 215.196H149.768L150.704 211.8L151.868 207.624H152.804L150.392 216H149.036ZM154.511 212.256C154.511 211.68 154.567 211.124 154.679 210.588C154.791 210.052 154.943 209.556 155.135 209.1C155.335 208.636 155.567 208.216 155.831 207.84C156.095 207.464 156.379 207.144 156.683 206.88H157.595C157.259 207.184 156.955 207.528 156.683 207.912C156.419 208.296 156.191 208.704 155.999 209.136C155.815 209.568 155.671 210.008 155.567 210.456C155.463 210.904 155.411 211.336 155.411 211.752V212.784C155.411 213.208 155.463 213.644 155.567 214.092C155.671 214.54 155.819 214.98 156.011 215.412C156.203 215.844 156.431 216.252 156.695 216.636C156.967 217.02 157.267 217.356 157.595 217.644H156.683C156.387 217.396 156.107 217.084 155.843 216.708C155.579 216.332 155.347 215.912 155.147 215.448C154.955 214.984 154.799 214.484 154.679 213.948C154.567 213.404 154.511 212.84 154.511 212.256ZM158.911 216V215.112H161.251V208.368H161.167L159.055 210.336L158.467 209.7L160.687 207.624H162.259V215.112H164.419V216H158.911ZM165.478 217.812L168.61 207.12H169.474L166.342 217.812H165.478ZM176.68 216H171.184V214.968L173.92 212.448C174.312 212.088 174.64 211.708 174.904 211.308C175.168 210.9 175.3 210.492 175.3 210.084V209.94C175.3 209.476 175.172 209.1 174.916 208.812C174.66 208.524 174.272 208.38 173.752 208.38C173.496 208.38 173.272 208.416 173.08 208.488C172.888 208.56 172.72 208.66 172.576 208.788C172.44 208.916 172.324 209.068 172.228 209.244C172.14 209.412 172.068 209.596 172.012 209.796L171.112 209.448C171.192 209.2 171.3 208.96 171.436 208.728C171.58 208.488 171.756 208.276 171.964 208.092C172.18 207.908 172.436 207.76 172.732 207.648C173.036 207.536 173.392 207.48 173.8 207.48C174.208 207.48 174.572 207.54 174.892 207.66C175.212 207.78 175.48 207.948 175.696 208.164C175.912 208.38 176.076 208.636 176.188 208.932C176.308 209.228 176.368 209.556 176.368 209.916C176.368 210.244 176.32 210.548 176.224 210.828C176.136 211.108 176.012 211.376 175.852 211.632C175.692 211.88 175.496 212.124 175.264 212.364C175.04 212.604 174.796 212.844 174.532 213.084L172.276 215.112H176.68V216ZM180.823 212.256C180.823 212.84 180.763 213.404 180.643 213.948C180.531 214.484 180.375 214.984 180.175 215.448C179.983 215.912 179.755 216.332 179.491 216.708C179.227 217.084 178.947 217.396 178.651 217.644H177.739C178.067 217.356 178.363 217.02 178.627 216.636C178.899 216.252 179.131 215.844 179.323 215.412C179.515 214.98 179.663 214.54 179.767 214.092C179.871 213.644 179.923 213.208 179.923 212.784V211.752C179.923 211.336 179.871 210.904 179.767 210.456C179.663 210.008 179.515 209.568 179.323 209.136C179.139 208.704 178.911 208.296 178.639 207.912C178.375 207.528 178.075 207.184 177.739 206.88H178.651C178.955 207.144 179.239 207.464 179.503 207.84C179.767 208.216 179.995 208.636 180.187 209.1C180.387 209.556 180.543 210.052 180.655 210.588C180.767 211.124 180.823 211.68 180.823 212.256Z"/><path fill="#121619" d="M341.036 133L339.536 127.576H338.348V126.808H340.268L340.808 128.8L341.708 132.196H341.768L342.704 128.8L343.868 124.624H344.804L342.392 133H341.036ZM346.511 129.256C346.511 128.68 346.567 128.124 346.679 127.588C346.791 127.052 346.943 126.556 347.135 126.1C347.335 125.636 347.567 125.216 347.831 124.84C348.095 124.464 348.379 124.144 348.683 123.88H349.595C349.259 124.184 348.955 124.528 348.683 124.912C348.419 125.296 348.191 125.704 347.999 126.136C347.815 126.568 347.671 127.008 347.567 127.456C347.463 127.904 347.411 128.336 347.411 128.752V129.784C347.411 130.208 347.463 130.644 347.567 131.092C347.671 131.54 347.819 131.98 348.011 132.412C348.203 132.844 348.431 133.252 348.695 133.636C348.967 134.02 349.267 134.356 349.595 134.644H348.683C348.387 134.396 348.107 134.084 347.843 133.708C347.579 133.332 347.347 132.912 347.147 132.448C346.955 131.984 346.799 131.484 346.679 130.948C346.567 130.404 346.511 129.84 346.511 129.256ZM350.911 133V132.112H353.251V125.368H353.167L351.055 127.336L350.467 126.7L352.687 124.624H354.259V132.112H356.419V133H350.911ZM357.478 134.812L360.61 124.12H361.474L358.342 134.812H357.478ZM368.68 133H363.184V131.968L365.92 129.448C366.312 129.088 366.64 128.708 366.904 128.308C367.168 127.9 367.3 127.492 367.3 127.084V126.94C367.3 126.476 367.172 126.1 366.916 125.812C366.66 125.524 366.272 125.38 365.752 125.38C365.496 125.38 365.272 125.416 365.08 125.488C364.888 125.56 364.72 125.66 364.576 125.788C364.44 125.916 364.324 126.068 364.228 126.244C364.14 126.412 364.068 126.596 364.012 126.796L363.112 126.448C363.192 126.2 363.3 125.96 363.436 125.728C363.58 125.488 363.756 125.276 363.964 125.092C364.18 124.908 364.436 124.76 364.732 124.648C365.036 124.536 365.392 124.48 365.8 124.48C366.208 124.48 366.572 124.54 366.892 124.66C367.212 124.78 367.48 124.948 367.696 125.164C367.912 125.38 368.076 125.636 368.188 125.932C368.308 126.228 368.368 126.556 368.368 126.916C368.368 127.244 368.32 127.548 368.224 127.828C368.136 128.108 368.012 128.376 367.852 128.632C367.692 128.88 367.496 129.124 367.264 129.364C367.04 129.604 366.796 129.844 366.532 130.084L364.276 132.112H368.68V133ZM372.823 129.256C372.823 129.84 372.763 130.404 372.643 130.948C372.531 131.484 372.375 131.984 372.175 132.448C371.983 132.912 371.755 133.332 371.491 133.708C371.227 134.084 370.947 134.396 370.651 134.644H369.739C370.067 134.356 370.363 134.02 370.627 133.636C370.899 133.252 371.131 132.844 371.323 132.412C371.515 131.98 371.663 131.54 371.767 131.092C371.871 130.644 371.923 130.208 371.923 129.784V128.752C371.923 128.336 371.871 127.904 371.767 127.456C371.663 127.008 371.515 126.568 371.323 126.136C371.139 125.704 370.911 125.296 370.639 124.912C370.375 124.528 370.075 124.184 369.739 123.88H370.651C370.955 124.144 371.239 124.464 371.503 124.84C371.767 125.216 371.995 125.636 372.187 126.1C372.387 126.556 372.543 127.052 372.655 127.588C372.767 128.124 372.823 128.68 372.823 129.256Z"/><path fill="#121619" d="M338.828 279.868V278.836H341.96V279.868H338.828ZM346.149 283L344.649 277.576H343.461V276.808H345.381L345.921 278.8L346.821 282.196H346.881L347.817 278.8L348.981 274.624H349.917L347.505 283H346.149ZM351.624 279.256C351.624 278.68 351.68 278.124 351.792 277.588C351.904 277.052 352.056 276.556 352.248 276.1C352.448 275.636 352.68 275.216 352.944 274.84C353.208 274.464 353.492 274.144 353.796 273.88H354.708C354.372 274.184 354.068 274.528 353.796 274.912C353.532 275.296 353.304 275.704 353.112 276.136C352.928 276.568 352.784 277.008 352.68 277.456C352.576 277.904 352.524 278.336 352.524 278.752V279.784C352.524 280.208 352.576 280.644 352.68 281.092C352.784 281.54 352.932 281.98 353.124 282.412C353.316 282.844 353.544 283.252 353.808 283.636C354.08 284.02 354.38 284.356 354.708 284.644H353.796C353.5 284.396 353.22 284.084 352.956 283.708C352.692 283.332 352.46 282.912 352.26 282.448C352.068 281.984 351.912 281.484 351.792 280.948C351.68 280.404 351.624 279.84 351.624 279.256ZM356.024 283V282.112H358.364V275.368H358.28L356.168 277.336L355.58 276.7L357.8 274.624H359.372V282.112H361.532V283H356.024ZM362.591 284.812L365.723 274.12H366.587L363.455 284.812H362.591ZM373.793 283H368.297V281.968L371.033 279.448C371.425 279.088 371.753 278.708 372.017 278.308C372.281 277.9 372.413 277.492 372.413 277.084V276.94C372.413 276.476 372.285 276.1 372.029 275.812C371.773 275.524 371.385 275.38 370.865 275.38C370.609 275.38 370.385 275.416 370.193 275.488C370.001 275.56 369.833 275.66 369.689 275.788C369.553 275.916 369.437 276.068 369.341 276.244C369.253 276.412 369.181 276.596 369.125 276.796L368.225 276.448C368.305 276.2 368.413 275.96 368.549 275.728C368.693 275.488 368.869 275.276 369.077 275.092C369.293 274.908 369.549 274.76 369.845 274.648C370.149 274.536 370.505 274.48 370.913 274.48C371.321 274.48 371.685 274.54 372.005 274.66C372.325 274.78 372.593 274.948 372.809 275.164C373.025 275.38 373.189 275.636 373.301 275.932C373.421 276.228 373.481 276.556 373.481 276.916C373.481 277.244 373.433 277.548 373.337 277.828C373.249 278.108 373.125 278.376 372.965 278.632C372.805 278.88 372.609 279.124 372.377 279.364C372.153 279.604 371.909 279.844 371.645 280.084L369.389 282.112H373.793V283ZM377.936 279.256C377.936 279.84 377.876 280.404 377.756 280.948C377.644 281.484 377.488 281.984 377.288 282.448C377.096 282.912 376.868 283.332 376.604 283.708C376.34 284.084 376.06 284.396 375.764 284.644H374.852C375.18 284.356 375.476 284.02 375.74 283.636C376.012 283.252 376.244 282.844 376.436 282.412C376.628 281.98 376.776 281.54 376.88 281.092C376.984 280.644 377.036 280.208 377.036 279.784V278.752C377.036 278.336 376.984 277.904 376.88 277.456C376.776 277.008 376.628 276.568 376.436 276.136C376.252 275.704 376.024 275.296 375.752 274.912C375.488 274.528 375.188 274.184 374.852 273.88H375.764C376.068 274.144 376.352 274.464 376.616 274.84C376.88 275.216 377.108 275.636 377.3 276.1C377.5 276.556 377.656 277.052 377.768 277.588C377.88 278.124 377.936 278.68 377.936 279.256Z"/><path fill="#121619" d="M216.196 22L215.412 19.508H211.94L211.17 22H209.294L212.57 12.228H214.866L218.114 22H216.196ZM213.704 13.908H213.634L212.388 17.926H214.964L213.704 13.908ZM219.966 16.106H218.888V14.692H219.966V13.642C219.966 12.998 220.134 12.5033 220.47 12.158C220.816 11.8127 221.32 11.64 221.982 11.64H223.256V13.068H221.758V14.692H223.256V16.106H221.758V22H219.966V16.106ZM226.939 22C226.323 22 225.851 21.8413 225.525 21.524C225.207 21.1973 225.049 20.7353 225.049 20.138V16.12H223.971V14.692H224.531C224.801 14.692 224.983 14.6313 225.077 14.51C225.179 14.3793 225.231 14.188 225.231 13.936V12.69H226.841V14.692H228.339V16.12H226.841V20.572H228.227V22H226.939ZM232.952 22.168C232.411 22.168 231.926 22.0793 231.496 21.902C231.076 21.7153 230.717 21.4587 230.418 21.132C230.129 20.796 229.905 20.3947 229.746 19.928C229.588 19.452 229.508 18.92 229.508 18.332C229.508 17.7533 229.583 17.2307 229.732 16.764C229.891 16.2973 230.115 15.9007 230.404 15.574C230.694 15.238 231.048 14.9813 231.468 14.804C231.888 14.6173 232.364 14.524 232.896 14.524C233.466 14.524 233.96 14.622 234.38 14.818C234.8 15.014 235.146 15.28 235.416 15.616C235.687 15.952 235.888 16.344 236.018 16.792C236.158 17.2307 236.228 17.702 236.228 18.206V18.794H231.37V18.976C231.37 19.508 231.52 19.9373 231.818 20.264C232.117 20.5813 232.56 20.74 233.148 20.74C233.596 20.74 233.96 20.6467 234.24 20.46C234.53 20.2733 234.786 20.0353 235.01 19.746L235.976 20.824C235.678 21.244 235.267 21.5753 234.744 21.818C234.231 22.0513 233.634 22.168 232.952 22.168ZM232.924 15.868C232.448 15.868 232.07 16.0267 231.79 16.344C231.51 16.6613 231.37 17.072 231.37 17.576V17.688H234.366V17.562C234.366 17.058 234.24 16.652 233.988 16.344C233.746 16.0267 233.391 15.868 232.924 15.868ZM237.965 22V14.692H239.757V16.204H239.827C239.874 16.008 239.944 15.8213 240.037 15.644C240.14 15.4573 240.27 15.294 240.429 15.154C240.588 15.014 240.774 14.902 240.989 14.818C241.213 14.734 241.47 14.692 241.759 14.692H242.151V16.386H241.591C240.984 16.386 240.527 16.4747 240.219 16.652C239.911 16.8293 239.757 17.1187 239.757 17.52V22H237.965ZM247.454 16.106H246.376V14.692H247.454V13.642C247.454 12.998 247.622 12.5033 247.958 12.158C248.303 11.8127 248.807 11.64 249.47 11.64H250.744V13.068H249.246V14.692H253.754V22H251.962V16.106H249.246V22H247.454V16.106ZM252.858 13.628C252.484 13.628 252.214 13.544 252.046 13.376C251.887 13.208 251.808 12.9933 251.808 12.732V12.452C251.808 12.1907 251.887 11.976 252.046 11.808C252.214 11.64 252.484 11.556 252.858 11.556C253.222 11.556 253.488 11.64 253.656 11.808C253.824 11.976 253.908 12.1907 253.908 12.452V12.732C253.908 12.9933 253.824 13.208 253.656 13.376C253.488 13.544 253.222 13.628 252.858 13.628ZM255.986 22V14.692H257.778V16.204H257.848C257.895 16.008 257.965 15.8213 258.058 15.644C258.161 15.4573 258.291 15.294 258.45 15.154C258.609 15.014 258.795 14.902 259.01 14.818C259.234 14.734 259.491 14.692 259.78 14.692H260.172V16.386H259.612C259.005 16.386 258.548 16.4747 258.24 16.652C257.932 16.8293 257.778 17.1187 257.778 17.52V22H255.986ZM264.036 22.168C263.336 22.168 262.748 22.0513 262.272 21.818C261.796 21.5753 261.376 21.244 261.012 20.824L262.104 19.76C262.375 20.068 262.669 20.3107 262.986 20.488C263.313 20.6653 263.686 20.754 264.106 20.754C264.536 20.754 264.844 20.6793 265.03 20.53C265.226 20.3807 265.324 20.1753 265.324 19.914C265.324 19.6993 265.254 19.5313 265.114 19.41C264.984 19.2793 264.755 19.1907 264.428 19.144L263.7 19.046C262.907 18.9433 262.3 18.7193 261.88 18.374C261.47 18.0193 261.264 17.506 261.264 16.834C261.264 16.4793 261.33 16.162 261.46 15.882C261.591 15.5927 261.778 15.35 262.02 15.154C262.263 14.9487 262.552 14.7947 262.888 14.692C263.234 14.58 263.616 14.524 264.036 14.524C264.391 14.524 264.704 14.552 264.974 14.608C265.254 14.6547 265.506 14.7293 265.73 14.832C265.954 14.9253 266.16 15.0467 266.346 15.196C266.533 15.336 266.715 15.4947 266.892 15.672L265.842 16.722C265.628 16.498 265.371 16.3113 265.072 16.162C264.774 16.0127 264.447 15.938 264.092 15.938C263.7 15.938 263.416 16.008 263.238 16.148C263.07 16.288 262.986 16.47 262.986 16.694C262.986 16.9367 263.056 17.1233 263.196 17.254C263.346 17.3753 263.593 17.464 263.938 17.52L264.68 17.618C266.258 17.842 267.046 18.5607 267.046 19.774C267.046 20.1287 266.972 20.4553 266.822 20.754C266.682 21.0433 266.482 21.2953 266.22 21.51C265.959 21.7153 265.642 21.8787 265.268 22C264.904 22.112 264.494 22.168 264.036 22.168ZM270.961 22C270.345 22 269.874 21.8413 269.547 21.524C269.23 21.1973 269.071 20.7353 269.071 20.138V16.12H267.993V14.692H268.553C268.824 14.692 269.006 14.6313 269.099 14.51C269.202 14.3793 269.253 14.188 269.253 13.936V12.69H270.863V14.692H272.361V16.12H270.863V20.572H272.249V22H270.961ZM283.578 17.87H279.504V22H277.656V12.228H279.504V16.232H283.578V12.228H285.426V22H283.578V17.87ZM287.543 18.626V16.848H291.547V18.626H287.543ZM300.153 22.616C300.153 22.9987 300.083 23.3347 299.943 23.624C299.813 23.9227 299.593 24.17 299.285 24.366C298.977 24.562 298.581 24.7113 298.095 24.814C297.61 24.9167 297.017 24.968 296.317 24.968C295.701 24.968 295.179 24.926 294.749 24.842C294.32 24.7673 293.965 24.6553 293.685 24.506C293.415 24.366 293.219 24.1887 293.097 23.974C292.976 23.7593 292.915 23.5167 292.915 23.246C292.915 22.8353 293.027 22.5133 293.251 22.28C293.485 22.056 293.807 21.9113 294.217 21.846V21.692C293.919 21.6173 293.685 21.4727 293.517 21.258C293.359 21.034 293.279 20.7727 293.279 20.474C293.279 20.2873 293.317 20.124 293.391 19.984C293.466 19.8347 293.564 19.7087 293.685 19.606C293.816 19.5033 293.961 19.4193 294.119 19.354C294.278 19.2793 294.446 19.2233 294.623 19.186V19.13C294.175 18.9247 293.839 18.64 293.615 18.276C293.401 17.912 293.293 17.4873 293.293 17.002C293.293 16.2553 293.55 15.658 294.063 15.21C294.577 14.7527 295.328 14.524 296.317 14.524C296.541 14.524 296.761 14.538 296.975 14.566C297.199 14.594 297.405 14.6407 297.591 14.706V14.468C297.591 13.7587 297.937 13.404 298.627 13.404H299.761V14.776H298.207V14.972C298.59 15.1867 298.875 15.4667 299.061 15.812C299.248 16.1573 299.341 16.554 299.341 17.002C299.341 17.7393 299.085 18.332 298.571 18.78C298.067 19.228 297.316 19.452 296.317 19.452C295.888 19.452 295.515 19.41 295.197 19.326C295.057 19.3913 294.936 19.48 294.833 19.592C294.731 19.6947 294.679 19.8253 294.679 19.984C294.679 20.348 294.997 20.53 295.631 20.53H297.591C298.487 20.53 299.136 20.7167 299.537 21.09C299.948 21.454 300.153 21.9627 300.153 22.616ZM298.473 22.826C298.473 22.5927 298.38 22.4107 298.193 22.28C298.007 22.1493 297.685 22.084 297.227 22.084H294.735C294.483 22.2707 294.357 22.5227 294.357 22.84C294.357 23.12 294.474 23.3393 294.707 23.498C294.941 23.6567 295.337 23.736 295.897 23.736H296.793C297.381 23.736 297.806 23.6613 298.067 23.512C298.338 23.3627 298.473 23.134 298.473 22.826ZM296.317 18.234C297.195 18.234 297.633 17.8607 297.633 17.114V16.876C297.633 16.1293 297.195 15.756 296.317 15.756C295.44 15.756 295.001 16.1293 295.001 16.876V17.114C295.001 17.8607 295.44 18.234 296.317 18.234ZM306.697 22C306.305 22 305.992 21.888 305.759 21.664C305.535 21.4307 305.395 21.1227 305.339 20.74H305.255C305.134 21.216 304.886 21.5753 304.513 21.818C304.14 22.0513 303.678 22.168 303.127 22.168C302.38 22.168 301.806 21.972 301.405 21.58C301.004 21.188 300.803 20.6653 300.803 20.012C300.803 19.256 301.074 18.696 301.615 18.332C302.156 17.9587 302.926 17.772 303.925 17.772H305.171V17.24C305.171 16.8293 305.064 16.512 304.849 16.288C304.634 16.064 304.289 15.952 303.813 15.952C303.393 15.952 303.052 16.0453 302.791 16.232C302.539 16.4093 302.324 16.624 302.147 16.876L301.083 15.924C301.354 15.504 301.713 15.168 302.161 14.916C302.609 14.6547 303.202 14.524 303.939 14.524C304.928 14.524 305.68 14.748 306.193 15.196C306.706 15.644 306.963 16.288 306.963 17.128V20.572H307.691V22H306.697ZM303.729 20.866C304.13 20.866 304.471 20.7773 304.751 20.6C305.031 20.4227 305.171 20.1613 305.171 19.816V18.85H304.023C303.09 18.85 302.623 19.1487 302.623 19.746V19.984C302.623 20.2827 302.716 20.5067 302.903 20.656C303.099 20.796 303.374 20.866 303.729 20.866ZM311.529 22C310.913 22 310.441 21.8413 310.115 21.524C309.797 21.1973 309.639 20.7353 309.639 20.138V16.12H308.561V14.692H309.121C309.391 14.692 309.573 14.6313 309.667 14.51C309.769 14.3793 309.821 14.188 309.821 13.936V12.69H311.431V14.692H312.929V16.12H311.431V20.572H312.817V22H311.529ZM317.542 22.168C317.001 22.168 316.516 22.0793 316.086 21.902C315.666 21.7153 315.307 21.4587 315.008 21.132C314.719 20.796 314.495 20.3947 314.336 19.928C314.178 19.452 314.098 18.92 314.098 18.332C314.098 17.7533 314.173 17.2307 314.322 16.764C314.481 16.2973 314.705 15.9007 314.994 15.574C315.284 15.238 315.638 14.9813 316.058 14.804C316.478 14.6173 316.954 14.524 317.486 14.524C318.056 14.524 318.55 14.622 318.97 14.818C319.39 15.014 319.736 15.28 320.006 15.616C320.277 15.952 320.478 16.344 320.608 16.792C320.748 17.2307 320.818 17.702 320.818 18.206V18.794H315.96V18.976C315.96 19.508 316.11 19.9373 316.408 20.264C316.707 20.5813 317.15 20.74 317.738 20.74C318.186 20.74 318.55 20.6467 318.83 20.46C319.12 20.2733 319.376 20.0353 319.6 19.746L320.566 20.824C320.268 21.244 319.857 21.5753 319.334 21.818C318.821 22.0513 318.224 22.168 317.542 22.168ZM317.514 15.868C317.038 15.868 316.66 16.0267 316.38 16.344C316.1 16.6613 315.96 17.072 315.96 17.576V17.688H318.956V17.562C318.956 17.058 318.83 16.652 318.578 16.344C318.336 16.0267 317.981 15.868 317.514 15.868Z"/><path fill="#121619" d="M409.196 22L408.412 19.508H404.94L404.17 22H402.294L405.57 12.228H407.866L411.114 22H409.196ZM406.704 13.908H406.634L405.388 17.926H407.964L406.704 13.908ZM412.966 16.106H411.888V14.692H412.966V13.642C412.966 12.998 413.134 12.5033 413.47 12.158C413.816 11.8127 414.32 11.64 414.982 11.64H416.256V13.068H414.758V14.692H416.256V16.106H414.758V22H412.966V16.106ZM419.939 22C419.323 22 418.851 21.8413 418.525 21.524C418.207 21.1973 418.049 20.7353 418.049 20.138V16.12H416.971V14.692H417.531C417.801 14.692 417.983 14.6313 418.077 14.51C418.179 14.3793 418.231 14.188 418.231 13.936V12.69H419.841V14.692H421.339V16.12H419.841V20.572H421.227V22H419.939ZM425.952 22.168C425.411 22.168 424.926 22.0793 424.496 21.902C424.076 21.7153 423.717 21.4587 423.418 21.132C423.129 20.796 422.905 20.3947 422.746 19.928C422.588 19.452 422.508 18.92 422.508 18.332C422.508 17.7533 422.583 17.2307 422.732 16.764C422.891 16.2973 423.115 15.9007 423.404 15.574C423.694 15.238 424.048 14.9813 424.468 14.804C424.888 14.6173 425.364 14.524 425.896 14.524C426.466 14.524 426.96 14.622 427.38 14.818C427.8 15.014 428.146 15.28 428.416 15.616C428.687 15.952 428.888 16.344 429.018 16.792C429.158 17.2307 429.228 17.702 429.228 18.206V18.794H424.37V18.976C424.37 19.508 424.52 19.9373 424.818 20.264C425.117 20.5813 425.56 20.74 426.148 20.74C426.596 20.74 426.96 20.6467 427.24 20.46C427.53 20.2733 427.786 20.0353 428.01 19.746L428.976 20.824C428.678 21.244 428.267 21.5753 427.744 21.818C427.231 22.0513 426.634 22.168 425.952 22.168ZM425.924 15.868C425.448 15.868 425.07 16.0267 424.79 16.344C424.51 16.6613 424.37 17.072 424.37 17.576V17.688H427.366V17.562C427.366 17.058 427.24 16.652 426.988 16.344C426.746 16.0267 426.391 15.868 425.924 15.868ZM430.965 22V14.692H432.757V16.204H432.827C432.874 16.008 432.944 15.8213 433.037 15.644C433.14 15.4573 433.27 15.294 433.429 15.154C433.588 15.014 433.774 14.902 433.989 14.818C434.213 14.734 434.47 14.692 434.759 14.692H435.151V16.386H434.591C433.984 16.386 433.527 16.4747 433.219 16.652C432.911 16.8293 432.757 17.1187 432.757 17.52V22H430.965ZM442.484 22.168C441.784 22.168 441.196 22.0513 440.72 21.818C440.244 21.5753 439.824 21.244 439.46 20.824L440.552 19.76C440.822 20.068 441.116 20.3107 441.434 20.488C441.76 20.6653 442.134 20.754 442.554 20.754C442.983 20.754 443.291 20.6793 443.478 20.53C443.674 20.3807 443.772 20.1753 443.772 19.914C443.772 19.6993 443.702 19.5313 443.562 19.41C443.431 19.2793 443.202 19.1907 442.876 19.144L442.148 19.046C441.354 18.9433 440.748 18.7193 440.328 18.374C439.917 18.0193 439.712 17.506 439.712 16.834C439.712 16.4793 439.777 16.162 439.908 15.882C440.038 15.5927 440.225 15.35 440.468 15.154C440.71 14.9487 441 14.7947 441.336 14.692C441.681 14.58 442.064 14.524 442.484 14.524C442.838 14.524 443.151 14.552 443.422 14.608C443.702 14.6547 443.954 14.7293 444.178 14.832C444.402 14.9253 444.607 15.0467 444.794 15.196C444.98 15.336 445.162 15.4947 445.34 15.672L444.29 16.722C444.075 16.498 443.818 16.3113 443.52 16.162C443.221 16.0127 442.894 15.938 442.54 15.938C442.148 15.938 441.863 16.008 441.686 16.148C441.518 16.288 441.434 16.47 441.434 16.694C441.434 16.9367 441.504 17.1233 441.644 17.254C441.793 17.3753 442.04 17.464 442.386 17.52L443.128 17.618C444.705 17.842 445.494 18.5607 445.494 19.774C445.494 20.1287 445.419 20.4553 445.27 20.754C445.13 21.0433 444.929 21.2953 444.668 21.51C444.406 21.7153 444.089 21.8787 443.716 22C443.352 22.112 442.941 22.168 442.484 22.168ZM450.19 22.168C449.649 22.168 449.163 22.0793 448.734 21.902C448.314 21.7153 447.955 21.4587 447.656 21.132C447.367 20.796 447.143 20.3947 446.984 19.928C446.825 19.452 446.746 18.92 446.746 18.332C446.746 17.7533 446.821 17.2307 446.97 16.764C447.129 16.2973 447.353 15.9007 447.642 15.574C447.931 15.238 448.286 14.9813 448.706 14.804C449.126 14.6173 449.602 14.524 450.134 14.524C450.703 14.524 451.198 14.622 451.618 14.818C452.038 15.014 452.383 15.28 452.654 15.616C452.925 15.952 453.125 16.344 453.256 16.792C453.396 17.2307 453.466 17.702 453.466 18.206V18.794H448.608V18.976C448.608 19.508 448.757 19.9373 449.056 20.264C449.355 20.5813 449.798 20.74 450.386 20.74C450.834 20.74 451.198 20.6467 451.478 20.46C451.767 20.2733 452.024 20.0353 452.248 19.746L453.214 20.824C452.915 21.244 452.505 21.5753 451.982 21.818C451.469 22.0513 450.871 22.168 450.19 22.168ZM450.162 15.868C449.686 15.868 449.308 16.0267 449.028 16.344C448.748 16.6613 448.608 17.072 448.608 17.576V17.688H451.604V17.562C451.604 17.058 451.478 16.652 451.226 16.344C450.983 16.0267 450.629 15.868 450.162 15.868ZM458.087 22.168C457.545 22.168 457.065 22.0793 456.645 21.902C456.225 21.7247 455.87 21.468 455.581 21.132C455.301 20.796 455.086 20.3947 454.937 19.928C454.787 19.452 454.713 18.92 454.713 18.332C454.713 17.744 454.787 17.2167 454.937 16.75C455.086 16.2833 455.301 15.8867 455.581 15.56C455.87 15.224 456.225 14.9673 456.645 14.79C457.065 14.6127 457.545 14.524 458.087 14.524C458.824 14.524 459.431 14.6873 459.907 15.014C460.392 15.3407 460.742 15.7933 460.957 16.372L459.487 17.03C459.403 16.722 459.244 16.47 459.011 16.274C458.787 16.0687 458.479 15.966 458.087 15.966C457.583 15.966 457.205 16.1247 456.953 16.442C456.71 16.7593 456.589 17.1747 456.589 17.688V19.018C456.589 19.5313 456.71 19.9467 456.953 20.264C457.205 20.572 457.583 20.726 458.087 20.726C458.516 20.726 458.847 20.6187 459.081 20.404C459.314 20.18 459.496 19.9047 459.627 19.578L460.999 20.236C460.756 20.88 460.387 21.3653 459.893 21.692C459.398 22.0093 458.796 22.168 458.087 22.168ZM465.37 22.168C464.847 22.168 464.376 22.0793 463.956 21.902C463.545 21.7247 463.191 21.468 462.892 21.132C462.603 20.796 462.379 20.3947 462.22 19.928C462.061 19.452 461.982 18.92 461.982 18.332C461.982 17.744 462.061 17.2167 462.22 16.75C462.379 16.2833 462.603 15.8867 462.892 15.56C463.191 15.224 463.545 14.9673 463.956 14.79C464.376 14.6127 464.847 14.524 465.37 14.524C465.893 14.524 466.364 14.6127 466.784 14.79C467.204 14.9673 467.559 15.224 467.848 15.56C468.147 15.8867 468.375 16.2833 468.534 16.75C468.693 17.2167 468.772 17.744 468.772 18.332C468.772 18.92 468.693 19.452 468.534 19.928C468.375 20.3947 468.147 20.796 467.848 21.132C467.559 21.468 467.204 21.7247 466.784 21.902C466.364 22.0793 465.893 22.168 465.37 22.168ZM465.37 20.726C465.846 20.726 466.219 20.5813 466.49 20.292C466.761 20.0027 466.896 19.578 466.896 19.018V17.66C466.896 17.1093 466.761 16.6893 466.49 16.4C466.219 16.1107 465.846 15.966 465.37 15.966C464.903 15.966 464.535 16.1107 464.264 16.4C463.993 16.6893 463.858 17.1093 463.858 17.66V19.018C463.858 19.578 463.993 20.0027 464.264 20.292C464.535 20.5813 464.903 20.726 465.37 20.726ZM470.521 22V14.692H472.313V15.91H472.383C472.532 15.518 472.765 15.1913 473.083 14.93C473.409 14.6593 473.857 14.524 474.427 14.524C475.183 14.524 475.761 14.7713 476.163 15.266C476.564 15.7607 476.765 16.4653 476.765 17.38V22H474.973V17.562C474.973 17.0393 474.879 16.6473 474.693 16.386C474.506 16.1247 474.198 15.994 473.769 15.994C473.582 15.994 473.4 16.022 473.223 16.078C473.055 16.1247 472.901 16.1993 472.761 16.302C472.63 16.3953 472.523 16.5167 472.439 16.666C472.355 16.806 472.313 16.974 472.313 17.17V22H470.521ZM483.447 20.782H483.377C483.247 21.202 482.999 21.538 482.635 21.79C482.271 22.042 481.847 22.168 481.361 22.168C480.437 22.168 479.728 21.8367 479.233 21.174C478.748 20.5113 478.505 19.564 478.505 18.332C478.505 17.1093 478.748 16.1713 479.233 15.518C479.728 14.8553 480.437 14.524 481.361 14.524C481.847 14.524 482.271 14.65 482.635 14.902C482.999 15.1447 483.247 15.476 483.377 15.896H483.447V11.64H485.239V22H483.447V20.782ZM481.935 20.684C482.365 20.684 482.724 20.5813 483.013 20.376C483.303 20.1707 483.447 19.8767 483.447 19.494V17.17C483.447 16.8153 483.303 16.5307 483.013 16.316C482.724 16.1013 482.365 15.994 481.935 15.994C481.469 15.994 481.091 16.1527 480.801 16.47C480.521 16.778 480.381 17.1933 480.381 17.716V18.976C480.381 19.4987 480.521 19.914 480.801 20.222C481.091 20.53 481.469 20.684 481.935 20.684ZM496.968 17.87H492.894V22H491.046V12.228H492.894V16.232H496.968V12.228H498.816V22H496.968V17.87ZM500.933 18.626V16.848H504.937V18.626H500.933ZM513.544 22.616C513.544 22.9987 513.474 23.3347 513.334 23.624C513.203 23.9227 512.984 24.17 512.676 24.366C512.368 24.562 511.971 24.7113 511.486 24.814C511 24.9167 510.408 24.968 509.708 24.968C509.092 24.968 508.569 24.926 508.14 24.842C507.71 24.7673 507.356 24.6553 507.076 24.506C506.805 24.366 506.609 24.1887 506.488 23.974C506.366 23.7593 506.306 23.5167 506.306 23.246C506.306 22.8353 506.418 22.5133 506.642 22.28C506.875 22.056 507.197 21.9113 507.608 21.846V21.692C507.309 21.6173 507.076 21.4727 506.908 21.258C506.749 21.034 506.67 20.7727 506.67 20.474C506.67 20.2873 506.707 20.124 506.782 19.984C506.856 19.8347 506.954 19.7087 507.076 19.606C507.206 19.5033 507.351 19.4193 507.51 19.354C507.668 19.2793 507.836 19.2233 508.014 19.186V19.13C507.566 18.9247 507.23 18.64 507.006 18.276C506.791 17.912 506.684 17.4873 506.684 17.002C506.684 16.2553 506.94 15.658 507.454 15.21C507.967 14.7527 508.718 14.524 509.708 14.524C509.932 14.524 510.151 14.538 510.366 14.566C510.59 14.594 510.795 14.6407 510.982 14.706V14.468C510.982 13.7587 511.327 13.404 512.018 13.404H513.152V14.776H511.598V14.972C511.98 15.1867 512.265 15.4667 512.452 15.812C512.638 16.1573 512.732 16.554 512.732 17.002C512.732 17.7393 512.475 18.332 511.962 18.78C511.458 19.228 510.706 19.452 509.708 19.452C509.278 19.452 508.905 19.41 508.588 19.326C508.448 19.3913 508.326 19.48 508.224 19.592C508.121 19.6947 508.07 19.8253 508.07 19.984C508.07 20.348 508.387 20.53 509.022 20.53H510.982C511.878 20.53 512.526 20.7167 512.928 21.09C513.338 21.454 513.544 21.9627 513.544 22.616ZM511.864 22.826C511.864 22.5927 511.77 22.4107 511.584 22.28C511.397 22.1493 511.075 22.084 510.618 22.084H508.126C507.874 22.2707 507.748 22.5227 507.748 22.84C507.748 23.12 507.864 23.3393 508.098 23.498C508.331 23.6567 508.728 23.736 509.288 23.736H510.184C510.772 23.736 511.196 23.6613 511.458 23.512C511.728 23.3627 511.864 23.134 511.864 22.826ZM509.708 18.234C510.585 18.234 511.024 17.8607 511.024 17.114V16.876C511.024 16.1293 510.585 15.756 509.708 15.756C508.83 15.756 508.392 16.1293 508.392 16.876V17.114C508.392 17.8607 508.83 18.234 509.708 18.234ZM520.087 22C519.695 22 519.383 21.888 519.149 21.664C518.925 21.4307 518.785 21.1227 518.729 20.74H518.645C518.524 21.216 518.277 21.5753 517.903 21.818C517.53 22.0513 517.068 22.168 516.517 22.168C515.771 22.168 515.197 21.972 514.795 21.58C514.394 21.188 514.193 20.6653 514.193 20.012C514.193 19.256 514.464 18.696 515.005 18.332C515.547 17.9587 516.317 17.772 517.315 17.772H518.561V17.24C518.561 16.8293 518.454 16.512 518.239 16.288C518.025 16.064 517.679 15.952 517.203 15.952C516.783 15.952 516.443 16.0453 516.181 16.232C515.929 16.4093 515.715 16.624 515.537 16.876L514.473 15.924C514.744 15.504 515.103 15.168 515.551 14.916C515.999 14.6547 516.592 14.524 517.329 14.524C518.319 14.524 519.07 14.748 519.583 15.196C520.097 15.644 520.353 16.288 520.353 17.128V20.572H521.081V22H520.087ZM517.119 20.866C517.521 20.866 517.861 20.7773 518.141 20.6C518.421 20.4227 518.561 20.1613 518.561 19.816V18.85H517.413C516.48 18.85 516.013 19.1487 516.013 19.746V19.984C516.013 20.2827 516.107 20.5067 516.293 20.656C516.489 20.796 516.765 20.866 517.119 20.866ZM524.919 22C524.303 22 523.832 21.8413 523.505 21.524C523.188 21.1973 523.029 20.7353 523.029 20.138V16.12H521.951V14.692H522.511C522.782 14.692 522.964 14.6313 523.057 14.51C523.16 14.3793 523.211 14.188 523.211 13.936V12.69H524.821V14.692H526.319V16.12H524.821V20.572H526.207V22H524.919ZM530.932 22.168C530.391 22.168 529.906 22.0793 529.476 21.902C529.056 21.7153 528.697 21.4587 528.398 21.132C528.109 20.796 527.885 20.3947 527.726 19.928C527.568 19.452 527.488 18.92 527.488 18.332C527.488 17.7533 527.563 17.2307 527.712 16.764C527.871 16.2973 528.095 15.9007 528.384 15.574C528.674 15.238 529.028 14.9813 529.448 14.804C529.868 14.6173 530.344 14.524 530.876 14.524C531.446 14.524 531.94 14.622 532.36 14.818C532.78 15.014 533.126 15.28 533.396 15.616C533.667 15.952 533.868 16.344 533.998 16.792C534.138 17.2307 534.208 17.702 534.208 18.206V18.794H529.35V18.976C529.35 19.508 529.5 19.9373 529.798 20.264C530.097 20.5813 530.54 20.74 531.128 20.74C531.576 20.74 531.94 20.6467 532.22 20.46C532.51 20.2733 532.766 20.0353 532.99 19.746L533.956 20.824C533.658 21.244 533.247 21.5753 532.724 21.818C532.211 22.0513 531.614 22.168 530.932 22.168ZM530.904 15.868C530.428 15.868 530.05 16.0267 529.77 16.344C529.49 16.6613 529.35 17.072 529.35 17.576V17.688H532.346V17.562C532.346 17.058 532.22 16.652 531.968 16.344C531.726 16.0267 531.371 15.868 530.904 15.868Z"/><path fill="#121619" d="M20.186 22.168C19.346 22.168 18.632 22.0187 18.044 21.72C17.4653 21.4213 16.966 21.0293 16.546 20.544L17.792 19.34C18.128 19.732 18.5013 20.0307 18.912 20.236C19.332 20.4413 19.794 20.544 20.298 20.544C20.8673 20.544 21.2967 20.4227 21.586 20.18C21.8753 19.928 22.02 19.592 22.02 19.172C22.02 18.8453 21.9267 18.5793 21.74 18.374C21.5533 18.1687 21.2033 18.0193 20.69 17.926L19.766 17.786C17.8153 17.478 16.84 16.5307 16.84 14.944C16.84 14.5053 16.9193 14.1087 17.078 13.754C17.246 13.3993 17.484 13.096 17.792 12.844C18.1 12.592 18.4687 12.4007 18.898 12.27C19.3367 12.13 19.8313 12.06 20.382 12.06C21.1193 12.06 21.7633 12.1813 22.314 12.424C22.8647 12.6667 23.336 13.026 23.728 13.502L22.468 14.692C22.2253 14.3933 21.9313 14.1507 21.586 13.964C21.2407 13.7773 20.8067 13.684 20.284 13.684C19.752 13.684 19.3507 13.7867 19.08 13.992C18.8187 14.188 18.688 14.468 18.688 14.832C18.688 15.2053 18.7953 15.4807 19.01 15.658C19.2247 15.8353 19.57 15.966 20.046 16.05L20.956 16.218C21.9453 16.3953 22.6733 16.7127 23.14 17.17C23.616 17.618 23.854 18.248 23.854 19.06C23.854 19.5267 23.77 19.9513 23.602 20.334C23.4433 20.7073 23.2053 21.034 22.888 21.314C22.58 21.5847 22.1973 21.7947 21.74 21.944C21.292 22.0933 20.774 22.168 20.186 22.168ZM27.9819 22C27.3659 22 26.8946 21.8413 26.5679 21.524C26.2506 21.1973 26.0919 20.7353 26.0919 20.138V16.12H25.0139V14.692H25.5739C25.8446 14.692 26.0266 14.6313 26.1199 14.51C26.2226 14.3793 26.2739 14.188 26.2739 13.936V12.69H27.8839V14.692H29.3819V16.12H27.8839V20.572H29.2699V22H27.9819ZM36.4722 22C36.0802 22 35.7676 21.888 35.5342 21.664C35.3102 21.4307 35.1702 21.1227 35.1142 20.74H35.0302C34.9089 21.216 34.6616 21.5753 34.2882 21.818C33.9149 22.0513 33.4529 22.168 32.9022 22.168C32.1556 22.168 31.5816 21.972 31.1802 21.58C30.7789 21.188 30.5782 20.6653 30.5782 20.012C30.5782 19.256 30.8489 18.696 31.3902 18.332C31.9316 17.9587 32.7016 17.772 33.7002 17.772H34.9462V17.24C34.9462 16.8293 34.8389 16.512 34.6242 16.288C34.4096 16.064 34.0642 15.952 33.5882 15.952C33.1682 15.952 32.8276 16.0453 32.5662 16.232C32.3142 16.4093 32.0996 16.624 31.9222 16.876L30.8582 15.924C31.1289 15.504 31.4882 15.168 31.9362 14.916C32.3842 14.6547 32.9769 14.524 33.7142 14.524C34.7036 14.524 35.4549 14.748 35.9682 15.196C36.4816 15.644 36.7382 16.288 36.7382 17.128V20.572H37.4662V22H36.4722ZM33.5042 20.866C33.9056 20.866 34.2462 20.7773 34.5262 20.6C34.8062 20.4227 34.9462 20.1613 34.9462 19.816V18.85H33.7982C32.8649 18.85 32.3982 19.1487 32.3982 19.746V19.984C32.3982 20.2827 32.4916 20.5067 32.6782 20.656C32.8742 20.796 33.1496 20.866 33.5042 20.866ZM39.0765 22V14.692H40.8685V16.204H40.9385C40.9852 16.008 41.0552 15.8213 41.1485 15.644C41.2512 15.4573 41.3819 15.294 41.5405 15.154C41.6992 15.014 41.8859 14.902 42.1005 14.818C42.3245 14.734 42.5812 14.692 42.8705 14.692H43.2625V16.386H42.7025C42.0959 16.386 41.6385 16.4747 41.3305 16.652C41.0225 16.8293 40.8685 17.1187 40.8685 17.52V22H39.0765ZM47.0693 22C46.4533 22 45.982 21.8413 45.6553 21.524C45.338 21.1973 45.1793 20.7353 45.1793 20.138V16.12H44.1013V14.692H44.6613C44.932 14.692 45.114 14.6313 45.2073 14.51C45.31 14.3793 45.3613 14.188 45.3613 13.936V12.69H46.9713V14.692H48.4693V16.12H46.9713V20.572H48.3573V22H47.0693ZM51.0797 13.628C50.7063 13.628 50.4357 13.544 50.2677 13.376C50.109 13.208 50.0297 12.9933 50.0297 12.732V12.452C50.0297 12.1907 50.109 11.976 50.2677 11.808C50.4357 11.64 50.7063 11.556 51.0797 11.556C51.4437 11.556 51.7097 11.64 51.8777 11.808C52.0457 11.976 52.1297 12.1907 52.1297 12.452V12.732C52.1297 12.9933 52.0457 13.208 51.8777 13.376C51.7097 13.544 51.4437 13.628 51.0797 13.628ZM50.1837 14.692H51.9757V22H50.1837V14.692ZM54.2128 22V14.692H56.0048V15.91H56.0748C56.2241 15.518 56.4575 15.1913 56.7748 14.93C57.1015 14.6593 57.5495 14.524 58.1188 14.524C58.8748 14.524 59.4535 14.7713 59.8548 15.266C60.2561 15.7607 60.4568 16.4653 60.4568 17.38V22H58.6648V17.562C58.6648 17.0393 58.5715 16.6473 58.3848 16.386C58.1981 16.1247 57.8901 15.994 57.4608 15.994C57.2741 15.994 57.0921 16.022 56.9148 16.078C56.7468 16.1247 56.5928 16.1993 56.4528 16.302C56.3221 16.3953 56.2148 16.5167 56.1308 16.666C56.0468 16.806 56.0048 16.974 56.0048 17.17V22H54.2128ZM69.1973 22.616C69.1973 22.9987 69.1273 23.3347 68.9873 23.624C68.8566 23.9227 68.6373 24.17 68.3293 24.366C68.0213 24.562 67.6246 24.7113 67.1393 24.814C66.6539 24.9167 66.0613 24.968 65.3613 24.968C64.7453 24.968 64.2226 24.926 63.7933 24.842C63.3639 24.7673 63.0093 24.6553 62.7293 24.506C62.4586 24.366 62.2626 24.1887 62.1413 23.974C62.0199 23.7593 61.9593 23.5167 61.9593 23.246C61.9593 22.8353 62.0713 22.5133 62.2953 22.28C62.5286 22.056 62.8506 21.9113 63.2613 21.846V21.692C62.9626 21.6173 62.7293 21.4727 62.5613 21.258C62.4026 21.034 62.3233 20.7727 62.3233 20.474C62.3233 20.2873 62.3606 20.124 62.4353 19.984C62.5099 19.8347 62.6079 19.7087 62.7293 19.606C62.8599 19.5033 63.0046 19.4193 63.1633 19.354C63.3219 19.2793 63.4899 19.2233 63.6673 19.186V19.13C63.2193 18.9247 62.8833 18.64 62.6593 18.276C62.4446 17.912 62.3373 17.4873 62.3373 17.002C62.3373 16.2553 62.5939 15.658 63.1073 15.21C63.6206 14.7527 64.3719 14.524 65.3613 14.524C65.5853 14.524 65.8046 14.538 66.0193 14.566C66.2433 14.594 66.4486 14.6407 66.6353 14.706V14.468C66.6353 13.7587 66.9806 13.404 67.6713 13.404H68.8053V14.776H67.2513V14.972C67.6339 15.1867 67.9186 15.4667 68.1053 15.812C68.2919 16.1573 68.3853 16.554 68.3853 17.002C68.3853 17.7393 68.1286 18.332 67.6153 18.78C67.1113 19.228 66.3599 19.452 65.3613 19.452C64.9319 19.452 64.5586 19.41 64.2413 19.326C64.1013 19.3913 63.9799 19.48 63.8773 19.592C63.7746 19.6947 63.7233 19.8253 63.7233 19.984C63.7233 20.348 64.0406 20.53 64.6753 20.53H66.6353C67.5313 20.53 68.1799 20.7167 68.5813 21.09C68.9919 21.454 69.1973 21.9627 69.1973 22.616ZM67.5173 22.826C67.5173 22.5927 67.4239 22.4107 67.2373 22.28C67.0506 22.1493 66.7286 22.084 66.2713 22.084H63.7793C63.5273 22.2707 63.4013 22.5227 63.4013 22.84C63.4013 23.12 63.5179 23.3393 63.7513 23.498C63.9846 23.6567 64.3813 23.736 64.9413 23.736H65.8373C66.4253 23.736 66.8499 23.6613 67.1113 23.512C67.3819 23.3627 67.5173 23.134 67.5173 22.826ZM65.3613 18.234C66.2386 18.234 66.6773 17.8607 66.6773 17.114V16.876C66.6773 16.1293 66.2386 15.756 65.3613 15.756C64.4839 15.756 64.0453 16.1293 64.0453 16.876V17.114C64.0453 17.8607 64.4839 18.234 65.3613 18.234ZM79.2368 22C78.8448 22 78.5321 21.888 78.2988 21.664C78.0748 21.4307 77.9348 21.1227 77.8788 20.74H77.7948C77.6734 21.216 77.4261 21.5753 77.0528 21.818C76.6794 22.0513 76.2174 22.168 75.6668 22.168C74.9201 22.168 74.3461 21.972 73.9448 21.58C73.5434 21.188 73.3428 20.6653 73.3428 20.012C73.3428 19.256 73.6134 18.696 74.1548 18.332C74.6961 17.9587 75.4661 17.772 76.4648 17.772H77.7108V17.24C77.7108 16.8293 77.6034 16.512 77.3888 16.288C77.1741 16.064 76.8288 15.952 76.3528 15.952C75.9328 15.952 75.5921 16.0453 75.3308 16.232C75.0788 16.4093 74.8641 16.624 74.6868 16.876L73.6228 15.924C73.8934 15.504 74.2528 15.168 74.7008 14.916C75.1488 14.6547 75.7414 14.524 76.4788 14.524C77.4681 14.524 78.2194 14.748 78.7328 15.196C79.2461 15.644 79.5028 16.288 79.5028 17.128V20.572H80.2308V22H79.2368ZM76.2688 20.866C76.6701 20.866 77.0108 20.7773 77.2908 20.6C77.5708 20.4227 77.7108 20.1613 77.7108 19.816V18.85H76.5628C75.6294 18.85 75.1628 19.1487 75.1628 19.746V19.984C75.1628 20.2827 75.2561 20.5067 75.4428 20.656C75.6388 20.796 75.9141 20.866 76.2688 20.866ZM81.8411 22V14.692H83.6331V15.91H83.7031C83.8431 15.5273 84.0671 15.2007 84.3751 14.93C84.6831 14.6593 85.1124 14.524 85.6631 14.524C86.1671 14.524 86.6011 14.6453 86.9651 14.888C87.3291 15.1307 87.5997 15.4993 87.7771 15.994H87.8051C87.9357 15.5833 88.1924 15.238 88.5751 14.958C88.9671 14.6687 89.4571 14.524 90.0451 14.524C90.7637 14.524 91.3144 14.7713 91.6971 15.266C92.0891 15.7607 92.2851 16.4653 92.2851 17.38V22H90.4931V17.562C90.4931 16.5167 90.1011 15.994 89.3171 15.994C89.1397 15.994 88.9671 16.022 88.7991 16.078C88.6404 16.1247 88.4957 16.1993 88.3651 16.302C88.2437 16.3953 88.1457 16.5167 88.0711 16.666C87.9964 16.806 87.9591 16.974 87.9591 17.17V22H86.1671V17.562C86.1671 16.5167 85.7751 15.994 84.9911 15.994C84.8231 15.994 84.6551 16.022 84.4871 16.078C84.3284 16.1247 84.1837 16.1993 84.0531 16.302C83.9317 16.3953 83.8291 16.5167 83.7451 16.666C83.6704 16.806 83.6331 16.974 83.6331 17.17V22H81.8411ZM94.4288 14.692H96.2208V15.896H96.2768C96.4075 15.476 96.6548 15.1447 97.0188 14.902C97.3828 14.65 97.8075 14.524 98.2928 14.524C99.2261 14.524 99.9355 14.8553 100.421 15.518C100.915 16.1713 101.163 17.1093 101.163 18.332C101.163 19.564 100.915 20.5113 100.421 21.174C99.9355 21.8367 99.2261 22.168 98.2928 22.168C97.8075 22.168 97.3828 22.042 97.0188 21.79C96.6641 21.538 96.4168 21.202 96.2768 20.782H96.2208V24.8H94.4288V14.692ZM97.7188 20.684C98.1855 20.684 98.5635 20.53 98.8528 20.222C99.1421 19.914 99.2868 19.4987 99.2868 18.976V17.716C99.2868 17.1933 99.1421 16.778 98.8528 16.47C98.5635 16.1527 98.1855 15.994 97.7188 15.994C97.2895 15.994 96.9301 16.1013 96.6408 16.316C96.3608 16.5307 96.2208 16.8153 96.2208 17.17V19.494C96.2208 19.8767 96.3608 20.1707 96.6408 20.376C96.9301 20.5813 97.2895 20.684 97.7188 20.684ZM104.775 22C104.159 22 103.707 21.846 103.417 21.538C103.128 21.23 102.983 20.796 102.983 20.236V11.64H104.775V20.572H105.741V22H104.775ZM108.155 13.628C107.781 13.628 107.511 13.544 107.343 13.376C107.184 13.208 107.105 12.9933 107.105 12.732V12.452C107.105 12.1907 107.184 11.976 107.343 11.808C107.511 11.64 107.781 11.556 108.155 11.556C108.519 11.556 108.785 11.64 108.953 11.808C109.121 11.976 109.205 12.1907 109.205 12.452V12.732C109.205 12.9933 109.121 13.208 108.953 13.376C108.785 13.544 108.519 13.628 108.155 13.628ZM107.259 14.692H109.051V22H107.259V14.692ZM113.57 22C112.954 22 112.482 21.8413 112.156 21.524C111.838 21.1973 111.68 20.7353 111.68 20.138V16.12H110.602V14.692H111.162C111.432 14.692 111.614 14.6313 111.708 14.51C111.81 14.3793 111.862 14.188 111.862 13.936V12.69H113.472V14.692H114.97V16.12H113.472V20.572H114.858V22H113.57ZM121.052 20.782H120.982C120.917 20.9687 120.828 21.146 120.716 21.314C120.613 21.4727 120.478 21.6173 120.31 21.748C120.151 21.8787 119.955 21.9813 119.722 22.056C119.498 22.1307 119.237 22.168 118.938 22.168C118.182 22.168 117.603 21.9207 117.202 21.426C116.801 20.9313 116.6 20.2267 116.6 19.312V14.692H118.392V19.13C118.392 19.634 118.49 20.0213 118.686 20.292C118.882 20.5533 119.195 20.684 119.624 20.684C119.801 20.684 119.974 20.6607 120.142 20.614C120.319 20.5673 120.473 20.4973 120.604 20.404C120.735 20.3013 120.842 20.18 120.926 20.04C121.01 19.8907 121.052 19.718 121.052 19.522V14.692H122.844V22H121.052V20.782ZM129.611 20.782H129.541C129.41 21.202 129.163 21.538 128.799 21.79C128.435 22.042 128.01 22.168 127.525 22.168C126.601 22.168 125.891 21.8367 125.397 21.174C124.911 20.5113 124.669 19.564 124.669 18.332C124.669 17.1093 124.911 16.1713 125.397 15.518C125.891 14.8553 126.601 14.524 127.525 14.524C128.01 14.524 128.435 14.65 128.799 14.902C129.163 15.1447 129.41 15.476 129.541 15.896H129.611V11.64H131.403V22H129.611V20.782ZM128.099 20.684C128.528 20.684 128.887 20.5813 129.177 20.376C129.466 20.1707 129.611 19.8767 129.611 19.494V17.17C129.611 16.8153 129.466 16.5307 129.177 16.316C128.887 16.1013 128.528 15.994 128.099 15.994C127.632 15.994 127.254 16.1527 126.965 16.47C126.685 16.778 126.545 17.1933 126.545 17.716V18.976C126.545 19.4987 126.685 19.914 126.965 20.222C127.254 20.53 127.632 20.684 128.099 20.684ZM136.583 22.168C136.042 22.168 135.556 22.0793 135.127 21.902C134.707 21.7153 134.348 21.4587 134.049 21.132C133.76 20.796 133.536 20.3947 133.377 19.928C133.218 19.452 133.139 18.92 133.139 18.332C133.139 17.7533 133.214 17.2307 133.363 16.764C133.522 16.2973 133.746 15.9007 134.035 15.574C134.324 15.238 134.679 14.9813 135.099 14.804C135.519 14.6173 135.995 14.524 136.527 14.524C137.096 14.524 137.591 14.622 138.011 14.818C138.431 15.014 138.776 15.28 139.047 15.616C139.318 15.952 139.518 16.344 139.649 16.792C139.789 17.2307 139.859 17.702 139.859 18.206V18.794H135.001V18.976C135.001 19.508 135.15 19.9373 135.449 20.264C135.748 20.5813 136.191 20.74 136.779 20.74C137.227 20.74 137.591 20.6467 137.871 20.46C138.16 20.2733 138.417 20.0353 138.641 19.746L139.607 20.824C139.308 21.244 138.898 21.5753 138.375 21.818C137.862 22.0513 137.264 22.168 136.583 22.168ZM136.555 15.868C136.079 15.868 135.701 16.0267 135.421 16.344C135.141 16.6613 135.001 17.072 135.001 17.576V17.688H137.997V17.562C137.997 17.058 137.871 16.652 137.619 16.344C137.376 16.0267 137.022 15.868 136.555 15.868ZM143.99 22.168C143.29 22.168 142.702 22.0513 142.226 21.818C141.75 21.5753 141.33 21.244 140.966 20.824L142.058 19.76C142.328 20.068 142.622 20.3107 142.94 20.488C143.266 20.6653 143.64 20.754 144.06 20.754C144.489 20.754 144.797 20.6793 144.984 20.53C145.18 20.3807 145.278 20.1753 145.278 19.914C145.278 19.6993 145.208 19.5313 145.068 19.41C144.937 19.2793 144.708 19.1907 144.382 19.144L143.654 19.046C142.86 18.9433 142.254 18.7193 141.834 18.374C141.423 18.0193 141.218 17.506 141.218 16.834C141.218 16.4793 141.283 16.162 141.414 15.882C141.544 15.5927 141.731 15.35 141.974 15.154C142.216 14.9487 142.506 14.7947 142.842 14.692C143.187 14.58 143.57 14.524 143.99 14.524C144.344 14.524 144.657 14.552 144.928 14.608C145.208 14.6547 145.46 14.7293 145.684 14.832C145.908 14.9253 146.113 15.0467 146.3 15.196C146.486 15.336 146.668 15.4947 146.846 15.672L145.796 16.722C145.581 16.498 145.324 16.3113 145.026 16.162C144.727 16.0127 144.4 15.938 144.046 15.938C143.654 15.938 143.369 16.008 143.192 16.148C143.024 16.288 142.94 16.47 142.94 16.694C142.94 16.9367 143.01 17.1233 143.15 17.254C143.299 17.3753 143.546 17.464 143.892 17.52L144.634 17.618C146.211 17.842 147 18.5607 147 19.774C147 20.1287 146.925 20.4553 146.776 20.754C146.636 21.0433 146.435 21.2953 146.174 21.51C145.912 21.7153 145.595 21.8787 145.222 22C144.858 22.112 144.447 22.168 143.99 22.168Z"/><line x1="192.5" x2="192.5" y2="336" stroke="#DDE1E6"/><line x1="384.5" x2="384.5" y2="336" stroke="#DDE1E6"/><circle cx="36" cy="73" r="19.5" fill="#BE95FF" stroke="#491D8B"/><path stroke="#343A3F" d="M141 223.5H128.746C125.985 223.5 123.746 221.261 123.746 218.5V78.5C123.746 75.7386 121.508 73.5 118.746 73.5H107"/><path stroke="#343A3F" d="M333 140.5H320.746C317.985 140.5 315.746 138.261 315.746 135.5V78.5C315.746 75.7386 313.508 73.5 310.746 73.5H299"/><path stroke="#343A3F" d="M333 290.5H320.746C317.985 290.5 315.746 288.261 315.746 285.5V228.5C315.746 225.739 313.508 223.5 310.746 223.5H299"/><path fill="#491D8B" d="M52 75L56 73.5L52 72V75Z"/><line x1="52" x2="35" y1="73.5" y2="73.5" stroke="#491D8B"/><path fill="#491D8B" d="M247 75L251 73.5L247 72V75Z"/><line x1="247" x2="235" y1="73.5" y2="73.5" stroke="#491D8B"/><path fill="#491D8B" fill-opacity=".15" d="M430 75L434 73.5L430 72V75Z"/><line x1="430" x2="427" y1="73.5" y2="73.5" stroke="#491D8B" stroke-opacity=".15"/><path fill="#491D8B" d="M430 142L434 140.5L430 139V142Z"/><line x1="430" x2="427" y1="140.5" y2="140.5" stroke="#491D8B"/><path fill="#491D8B" fill-opacity=".15" d="M430 225L434 223.5L430 222V225Z"/><line x1="430" x2="427" y1="223.5" y2="223.5" stroke="#491D8B" stroke-opacity=".15"/><path fill="#491D8B" d="M424 289L420 290.5L424 292V289Z"/><line x1="424" x2="427" y1="290.5" y2="290.5" stroke="#491D8B"/><path fill="#491D8B" d="M247 225L251 223.5L247 222V225Z"/><line x1="247" x2="235" y1="223.5" y2="223.5" stroke="#491D8B"/><path fill="#343A3F" d="M204 75L208 73.5L204 72V75Z"/><line x1="204" x2="80" y1="73.5" y2="73.5" stroke="#343A3F"/><path fill="#343A3F" fill-opacity=".15" d="M396 75L400 73.5L396 72V75Z"/><line x1="396" x2="264" y1="73.5" y2="73.5" stroke="#343A3F" stroke-opacity=".15"/><path fill="#343A3F" d="M396 142L400 140.5L396 139V142Z"/><line x1="396" x2="333" y1="140.5" y2="140.5" stroke="#343A3F"/><path fill="#343A3F" d="M396 292L400 290.5L396 289V292Z"/><line x1="396" x2="333" y1="290.5" y2="290.5" stroke="#343A3F"/><path fill="#343A3F" fill-opacity=".15" d="M396 225L400 223.5L396 222V225Z"/><line x1="396" x2="264" y1="223.5" y2="223.5" stroke="#343A3F" stroke-opacity=".15"/><path fill="#343A3F" d="M204 225L208 223.5L204 222V225Z"/><line x1="204" x2="141" y1="223.5" y2="223.5" stroke="#343A3F"/></svg>