<svg xmlns="http://www.w3.org/2000/svg" width="736" height="232" fill="none" viewBox="0 0 736 232"><rect width="191" height="231" x="1" fill="#F2F4F8" opacity=".4"/><rect width="191" height="231" x="384" fill="#F2F4F8" opacity=".4"/><rect width="735" height="231" x=".5" y=".5" stroke="#DDE1E6"/><path stroke="#343A3F" d="M64 49H77C78.6569 49 80 50.3431 80 52V206C80 207.657 78.6569 209 77 209H66.5"/><path stroke="#343A3F" d="M32 49H19C17.3431 49 16 50.3431 16 52V206C16 207.657 17.3431 209 19 209H29.5"/><circle cx="48" cy="81" r="15.5" fill="#BE95FF" stroke="#491D8B" transform="rotate(-180 48 81)"/><path fill="#491D8B" d="M59 83L63 81.5L59 80V83Z"/><line x1="59" x2="48" y1="81.5" y2="81.5" stroke="#491D8B"/><circle cx="48" cy="129" r="16" fill="#DDE1E6"/><circle cx="48" cy="177" r="16" fill="#DDE1E6"/><circle cx="240" cy="81" r="16" fill="#DDE1E6"/><path stroke="#343A3F" d="M256 49H269C270.657 49 272 50.3431 272 52V206C272 207.657 270.657 209 269 209H258.5"/><path stroke="#343A3F" d="M224 49H211C209.343 49 208 50.3431 208 52V206C208 207.657 209.343 209 211 209H221.5"/><path fill="#BE95FF" stroke="#491D8B" d="M248.5 81C248.5 85.6944 244.694 89.5 240 89.5C235.306 89.5 231.5 85.6944 231.5 81C231.5 76.3056 235.306 72.5 240 72.5C244.694 72.5 248.5 76.3056 248.5 81Z"/><path fill="#491D8B" d="M235.562 79.5625L231.562 81.0625L235.562 82.5625V79.5625Z"/><line x1="235.563" x2="239.562" y1="81.063" y2="81.063" stroke="#491D8B"/><circle cx="240" cy="129" r="16" fill="#DDE1E6"/><circle cx="240" cy="177" r="16" fill="#DDE1E6"/><path fill="#BE95FF" stroke="#491D8B" d="M233.652 134.652C230.53 131.146 230.842 125.773 234.348 122.652C237.854 119.53 243.227 119.842 246.348 123.348C249.47 126.854 249.158 132.227 245.652 135.348C242.146 138.47 236.773 138.158 233.652 134.652Z"/><path fill="#491D8B" d="M244.27 127.123L246.26 123.342L242.275 124.882L244.27 127.123Z"/><line x1="243.273" x2="240.285" y1="126.002" y2="128.662" stroke="#491D8B"/><path fill="#BE95FF" stroke="#491D8B" d="M232.197 173.335C234.059 169.026 239.062 167.042 243.371 168.903C247.68 170.765 249.665 175.768 247.803 180.077C245.941 184.387 240.938 186.371 236.629 184.509C232.319 182.647 230.335 177.645 232.197 173.335Z"/><path fill="#491D8B" d="M243.503 179.786L247.77 179.995L244.693 177.032L243.503 179.786Z"/><line x1="244.099" x2="240.427" y1="178.409" y2="176.822" stroke="#491D8B"/><circle cx="432" cy="81" r="16" fill="#DDE1E6"/><path stroke="#343A3F" d="M448 49H461C462.657 49 464 50.3431 464 52V206C464 207.657 462.657 209 461 209H450.5"/><path stroke="#343A3F" d="M416 49H403C401.343 49 400 50.3431 400 52V206C400 207.657 401.343 209 403 209H413.5"/><circle cx="432" cy="81" r="11.5" fill="#BE95FF" stroke="#491D8B" transform="rotate(-180 432 81)"/><path fill="#491D8B" d="M439.25 82.25L443.25 80.75L439.25 79.25V82.25Z"/><line x1="439.25" x2="432.25" y1="80.75" y2="80.75" stroke="#491D8B"/><circle cx="432" cy="129" r="16" fill="#DDE1E6"/><circle cx="432" cy="177" r="16" fill="#DDE1E6"/><circle cx="432" cy="129" r="11.5" fill="#BE95FF" stroke="#491D8B"/><path fill="#491D8B" d="M424.75 127.75L420.75 129.25L424.75 130.75V127.75Z"/><line x1="424.75" x2="431.75" y1="129.25" y2="129.25" stroke="#491D8B"/><path fill="#121619" d="M99.468 101.144C98.788 101.144 98.208 101.016 97.728 100.76C97.248 100.496 96.84 100.136 96.504 99.68L97.248 99.056C97.544 99.448 97.872 99.748 98.232 99.956C98.592 100.156 99.016 100.256 99.504 100.256C100.104 100.256 100.56 100.112 100.872 99.824C101.192 99.536 101.352 99.152 101.352 98.672C101.352 98.272 101.232 97.964 100.992 97.748C100.752 97.532 100.356 97.36 99.804 97.232L99.12 97.076C98.352 96.9 97.764 96.636 97.356 96.284C96.956 95.924 96.756 95.42 96.756 94.772C96.756 94.404 96.824 94.076 96.96 93.788C97.096 93.5 97.284 93.26 97.524 93.068C97.772 92.876 98.064 92.732 98.4 92.636C98.744 92.532 99.12 92.48 99.528 92.48C100.16 92.48 100.7 92.596 101.148 92.828C101.604 93.06 101.988 93.4 102.3 93.848L101.544 94.4C101.312 94.08 101.032 93.828 100.704 93.644C100.376 93.46 99.968 93.368 99.48 93.368C98.944 93.368 98.52 93.484 98.208 93.716C97.904 93.94 97.752 94.28 97.752 94.736C97.752 95.136 97.88 95.44 98.136 95.648C98.4 95.848 98.796 96.008 99.324 96.128L100.008 96.284C100.832 96.468 101.428 96.748 101.796 97.124C102.164 97.5 102.348 98 102.348 98.624C102.348 99.008 102.28 99.356 102.144 99.668C102.016 99.98 101.828 100.244 101.58 100.46C101.332 100.676 101.028 100.844 100.668 100.964C100.316 101.084 99.916 101.144 99.468 101.144ZM106.653 101.144C106.237 101.144 105.857 101.068 105.513 100.916C105.169 100.764 104.873 100.548 104.625 100.268C104.385 99.98 104.197 99.64 104.061 99.248C103.925 98.848 103.857 98.4 103.857 97.904C103.857 97.416 103.925 96.972 104.061 96.572C104.197 96.172 104.385 95.832 104.625 95.552C104.873 95.264 105.169 95.044 105.513 94.892C105.857 94.74 106.237 94.664 106.653 94.664C107.069 94.664 107.445 94.74 107.781 94.892C108.125 95.044 108.421 95.264 108.669 95.552C108.917 95.832 109.109 96.172 109.245 96.572C109.381 96.972 109.449 97.416 109.449 97.904C109.449 98.4 109.381 98.848 109.245 99.248C109.109 99.64 108.917 99.98 108.669 100.268C108.421 100.548 108.125 100.764 107.781 100.916C107.445 101.068 107.069 101.144 106.653 101.144ZM106.653 100.292C107.173 100.292 107.597 100.132 107.925 99.812C108.253 99.492 108.417 99.004 108.417 98.348V97.46C108.417 96.804 108.253 96.316 107.925 95.996C107.597 95.676 107.173 95.516 106.653 95.516C106.133 95.516 105.709 95.676 105.381 95.996C105.053 96.316 104.889 96.804 104.889 97.46V98.348C104.889 99.004 105.053 99.492 105.381 99.812C105.709 100.132 106.133 100.292 106.653 100.292ZM111.348 101V94.808H112.308V95.816H112.356C112.428 95.656 112.508 95.508 112.596 95.372C112.692 95.228 112.804 95.104 112.932 95C113.068 94.896 113.224 94.816 113.4 94.76C113.576 94.696 113.784 94.664 114.024 94.664C114.432 94.664 114.808 94.764 115.152 94.964C115.496 95.156 115.752 95.476 115.92 95.924H115.944C116.056 95.588 116.264 95.296 116.568 95.048C116.88 94.792 117.3 94.664 117.828 94.664C118.46 94.664 118.952 94.872 119.304 95.288C119.664 95.696 119.844 96.276 119.844 97.028V101H118.884V97.196C118.884 96.644 118.776 96.228 118.56 95.948C118.344 95.668 118 95.528 117.528 95.528C117.336 95.528 117.152 95.552 116.976 95.6C116.808 95.648 116.656 95.72 116.52 95.816C116.384 95.912 116.276 96.036 116.196 96.188C116.116 96.332 116.076 96.504 116.076 96.704V101H115.116V97.196C115.116 96.644 115.008 96.228 114.792 95.948C114.576 95.668 114.24 95.528 113.784 95.528C113.592 95.528 113.408 95.552 113.232 95.6C113.056 95.648 112.9 95.72 112.764 95.816C112.628 95.912 112.516 96.036 112.428 96.188C112.348 96.332 112.308 96.504 112.308 96.704V101H111.348ZM124.472 101.144C124.048 101.144 123.664 101.068 123.32 100.916C122.984 100.764 122.692 100.548 122.444 100.268C122.204 99.98 122.016 99.64 121.88 99.248C121.752 98.848 121.688 98.4 121.688 97.904C121.688 97.416 121.752 96.972 121.88 96.572C122.016 96.172 122.204 95.832 122.444 95.552C122.692 95.264 122.984 95.044 123.32 94.892C123.664 94.74 124.048 94.664 124.472 94.664C124.888 94.664 125.26 94.74 125.588 94.892C125.916 95.044 126.196 95.256 126.428 95.528C126.66 95.792 126.836 96.108 126.956 96.476C127.084 96.844 127.148 97.248 127.148 97.688V98.144H122.696V98.432C122.696 98.696 122.736 98.944 122.816 99.176C122.904 99.4 123.024 99.596 123.176 99.764C123.336 99.932 123.528 100.064 123.752 100.16C123.984 100.256 124.244 100.304 124.532 100.304C124.924 100.304 125.264 100.212 125.552 100.028C125.848 99.844 126.076 99.58 126.236 99.236L126.92 99.728C126.72 100.152 126.408 100.496 125.984 100.76C125.56 101.016 125.056 101.144 124.472 101.144ZM124.472 95.468C124.208 95.468 123.968 95.516 123.752 95.612C123.536 95.7 123.348 95.828 123.188 95.996C123.036 96.164 122.916 96.364 122.828 96.596C122.74 96.82 122.696 97.068 122.696 97.34V97.424H126.116V97.292C126.116 96.74 125.964 96.3 125.66 95.972C125.364 95.636 124.968 95.468 124.472 95.468ZM99.36 117.144C98.944 117.144 98.564 117.068 98.22 116.916C97.876 116.764 97.58 116.548 97.332 116.268C97.092 115.98 96.904 115.64 96.768 115.248C96.632 114.848 96.564 114.4 96.564 113.904C96.564 113.416 96.632 112.972 96.768 112.572C96.904 112.172 97.092 111.832 97.332 111.552C97.58 111.264 97.876 111.044 98.22 110.892C98.564 110.74 98.944 110.664 99.36 110.664C99.776 110.664 100.152 110.74 100.488 110.892C100.832 111.044 101.128 111.264 101.376 111.552C101.624 111.832 101.816 112.172 101.952 112.572C102.088 112.972 102.156 113.416 102.156 113.904C102.156 114.4 102.088 114.848 101.952 115.248C101.816 115.64 101.624 115.98 101.376 116.268C101.128 116.548 100.832 116.764 100.488 116.916C100.152 117.068 99.776 117.144 99.36 117.144ZM99.36 116.292C99.88 116.292 100.304 116.132 100.632 115.812C100.96 115.492 101.124 115.004 101.124 114.348V113.46C101.124 112.804 100.96 112.316 100.632 111.996C100.304 111.676 99.88 111.516 99.36 111.516C98.84 111.516 98.416 111.676 98.088 111.996C97.76 112.316 97.596 112.804 97.596 113.46V114.348C97.596 115.004 97.76 115.492 98.088 115.812C98.416 116.132 98.84 116.292 99.36 116.292ZM104.055 110.808H105.015V111.816H105.063C105.223 111.424 105.455 111.136 105.759 110.952C106.071 110.76 106.443 110.664 106.875 110.664C107.259 110.664 107.607 110.74 107.919 110.892C108.231 111.044 108.495 111.26 108.711 111.54C108.935 111.82 109.103 112.16 109.215 112.56C109.335 112.96 109.395 113.408 109.395 113.904C109.395 114.4 109.335 114.848 109.215 115.248C109.103 115.648 108.935 115.988 108.711 116.268C108.495 116.548 108.231 116.764 107.919 116.916C107.607 117.068 107.259 117.144 106.875 117.144C106.035 117.144 105.431 116.76 105.063 115.992H105.015V119.4H104.055V110.808ZM106.611 116.28C107.155 116.28 107.583 116.112 107.895 115.776C108.207 115.432 108.363 114.984 108.363 114.432V113.376C108.363 112.824 108.207 112.38 107.895 112.044C107.583 111.7 107.155 111.528 106.611 111.528C106.395 111.528 106.187 111.56 105.987 111.624C105.795 111.68 105.627 111.76 105.483 111.864C105.339 111.968 105.223 112.096 105.135 112.248C105.055 112.392 105.015 112.548 105.015 112.716V115.02C105.015 115.22 105.055 115.4 105.135 115.56C105.223 115.712 105.339 115.844 105.483 115.956C105.627 116.06 105.795 116.14 105.987 116.196C106.187 116.252 106.395 116.28 106.611 116.28ZM113.664 117.144C113.24 117.144 112.856 117.068 112.512 116.916C112.176 116.764 111.884 116.548 111.636 116.268C111.396 115.98 111.208 115.64 111.072 115.248C110.944 114.848 110.88 114.4 110.88 113.904C110.88 113.416 110.944 112.972 111.072 112.572C111.208 112.172 111.396 111.832 111.636 111.552C111.884 111.264 112.176 111.044 112.512 110.892C112.856 110.74 113.24 110.664 113.664 110.664C114.08 110.664 114.452 110.74 114.78 110.892C115.108 111.044 115.388 111.256 115.62 111.528C115.852 111.792 116.028 112.108 116.148 112.476C116.276 112.844 116.34 113.248 116.34 113.688V114.144H111.888V114.432C111.888 114.696 111.928 114.944 112.008 115.176C112.096 115.4 112.216 115.596 112.368 115.764C112.528 115.932 112.72 116.064 112.944 116.16C113.176 116.256 113.436 116.304 113.724 116.304C114.116 116.304 114.456 116.212 114.744 116.028C115.04 115.844 115.268 115.58 115.428 115.236L116.112 115.728C115.912 116.152 115.6 116.496 115.176 116.76C114.752 117.016 114.248 117.144 113.664 117.144ZM113.664 111.468C113.4 111.468 113.16 111.516 112.944 111.612C112.728 111.7 112.54 111.828 112.38 111.996C112.228 112.164 112.108 112.364 112.02 112.596C111.932 112.82 111.888 113.068 111.888 113.34V113.424H115.308V113.292C115.308 112.74 115.156 112.3 114.852 111.972C114.556 111.636 114.16 111.468 113.664 111.468ZM118.242 117V110.808H119.202V111.948H119.262C119.374 111.652 119.574 111.388 119.862 111.156C120.15 110.924 120.546 110.808 121.05 110.808H121.422V111.768H120.858C120.338 111.768 119.93 111.868 119.634 112.068C119.346 112.26 119.202 112.504 119.202 112.8V117H118.242ZM127.421 117C127.061 117 126.801 116.904 126.641 116.712C126.489 116.52 126.393 116.28 126.353 115.992H126.293C126.157 116.376 125.933 116.664 125.621 116.856C125.309 117.048 124.937 117.144 124.505 117.144C123.849 117.144 123.337 116.976 122.969 116.64C122.609 116.304 122.429 115.848 122.429 115.272C122.429 114.688 122.641 114.24 123.065 113.928C123.497 113.616 124.165 113.46 125.069 113.46H126.293V112.848C126.293 112.408 126.173 112.072 125.933 111.84C125.693 111.608 125.325 111.492 124.829 111.492C124.453 111.492 124.137 111.576 123.881 111.744C123.633 111.912 123.425 112.136 123.257 112.416L122.681 111.876C122.849 111.54 123.117 111.256 123.485 111.024C123.853 110.784 124.317 110.664 124.877 110.664C125.629 110.664 126.213 110.848 126.629 111.216C127.045 111.584 127.253 112.096 127.253 112.752V116.16H127.961V117H127.421ZM124.661 116.328C124.901 116.328 125.121 116.3 125.321 116.244C125.521 116.188 125.693 116.108 125.837 116.004C125.981 115.9 126.093 115.78 126.173 115.644C126.253 115.508 126.293 115.36 126.293 115.2V114.18H125.021C124.469 114.18 124.065 114.26 123.809 114.42C123.561 114.58 123.437 114.812 123.437 115.116V115.368C123.437 115.672 123.545 115.908 123.761 116.076C123.985 116.244 124.285 116.328 124.661 116.328ZM131.019 117C130.683 117 130.427 116.908 130.251 116.724C130.083 116.532 129.999 116.284 129.999 115.98V111.648H128.979V110.808H129.555C129.763 110.808 129.903 110.768 129.975 110.688C130.055 110.6 130.095 110.452 130.095 110.244V109.092H130.959V110.808H132.315V111.648H130.959V116.16H132.219V117H131.019ZM134.658 109.356C134.45 109.356 134.298 109.308 134.202 109.212C134.114 109.108 134.07 108.976 134.07 108.816V108.66C134.07 108.5 134.114 108.372 134.202 108.276C134.298 108.172 134.45 108.12 134.658 108.12C134.866 108.12 135.014 108.172 135.102 108.276C135.198 108.372 135.246 108.5 135.246 108.66V108.816C135.246 108.976 135.198 109.108 135.102 109.212C135.014 109.308 134.866 109.356 134.658 109.356ZM134.178 110.808H135.138V117H134.178V110.808ZM139.838 117.144C139.422 117.144 139.042 117.068 138.698 116.916C138.354 116.764 138.058 116.548 137.81 116.268C137.57 115.98 137.382 115.64 137.246 115.248C137.11 114.848 137.042 114.4 137.042 113.904C137.042 113.416 137.11 112.972 137.246 112.572C137.382 112.172 137.57 111.832 137.81 111.552C138.058 111.264 138.354 111.044 138.698 110.892C139.042 110.74 139.422 110.664 139.838 110.664C140.254 110.664 140.63 110.74 140.966 110.892C141.31 111.044 141.606 111.264 141.854 111.552C142.102 111.832 142.294 112.172 142.43 112.572C142.566 112.972 142.634 113.416 142.634 113.904C142.634 114.4 142.566 114.848 142.43 115.248C142.294 115.64 142.102 115.98 141.854 116.268C141.606 116.548 141.31 116.764 140.966 116.916C140.63 117.068 140.254 117.144 139.838 117.144ZM139.838 116.292C140.358 116.292 140.782 116.132 141.11 115.812C141.438 115.492 141.602 115.004 141.602 114.348V113.46C141.602 112.804 141.438 112.316 141.11 111.996C140.782 111.676 140.358 111.516 139.838 111.516C139.318 111.516 138.894 111.676 138.566 111.996C138.238 112.316 138.074 112.804 138.074 113.46V114.348C138.074 115.004 138.238 115.492 138.566 115.812C138.894 116.132 139.318 116.292 139.838 116.292ZM144.533 117V110.808H145.493V111.816H145.541C145.693 111.464 145.905 111.184 146.177 110.976C146.457 110.768 146.829 110.664 147.293 110.664C147.933 110.664 148.437 110.872 148.805 111.288C149.181 111.696 149.369 112.276 149.369 113.028V117H148.409V113.196C148.409 112.084 147.941 111.528 147.005 111.528C146.813 111.528 146.625 111.552 146.441 111.6C146.265 111.648 146.105 111.72 145.961 111.816C145.817 111.912 145.701 112.036 145.613 112.188C145.533 112.332 145.493 112.504 145.493 112.704V117H144.533ZM153.533 117.144C152.957 117.144 152.473 117.036 152.081 116.82C151.697 116.596 151.365 116.3 151.085 115.932L151.769 115.38C152.009 115.684 152.277 115.92 152.573 116.088C152.869 116.248 153.213 116.328 153.605 116.328C154.013 116.328 154.329 116.24 154.553 116.064C154.785 115.888 154.901 115.64 154.901 115.32C154.901 115.08 154.821 114.876 154.661 114.708C154.509 114.532 154.229 114.412 153.821 114.348L153.329 114.276C153.041 114.236 152.777 114.176 152.537 114.096C152.297 114.008 152.085 113.896 151.901 113.76C151.725 113.616 151.585 113.44 151.481 113.232C151.385 113.024 151.337 112.776 151.337 112.488C151.337 112.184 151.393 111.92 151.505 111.696C151.617 111.464 151.769 111.272 151.961 111.12C152.161 110.968 152.397 110.856 152.669 110.784C152.941 110.704 153.233 110.664 153.545 110.664C154.049 110.664 154.469 110.752 154.805 110.928C155.149 111.104 155.449 111.348 155.705 111.66L155.069 112.236C154.933 112.044 154.733 111.872 154.469 111.72C154.205 111.56 153.873 111.48 153.473 111.48C153.073 111.48 152.769 111.568 152.561 111.744C152.361 111.912 152.261 112.144 152.261 112.44C152.261 112.744 152.361 112.964 152.561 113.1C152.769 113.236 153.065 113.336 153.449 113.4L153.929 113.472C154.617 113.576 155.105 113.776 155.393 114.072C155.681 114.36 155.825 114.74 155.825 115.212C155.825 115.812 155.621 116.284 155.213 116.628C154.805 116.972 154.245 117.144 153.533 117.144Z"/><path fill="#121619" d="M291.468 101.144C290.788 101.144 290.208 101.016 289.728 100.76C289.248 100.496 288.84 100.136 288.504 99.68L289.248 99.056C289.544 99.448 289.872 99.748 290.232 99.956C290.592 100.156 291.016 100.256 291.504 100.256C292.104 100.256 292.56 100.112 292.872 99.824C293.192 99.536 293.352 99.152 293.352 98.672C293.352 98.272 293.232 97.964 292.992 97.748C292.752 97.532 292.356 97.36 291.804 97.232L291.12 97.076C290.352 96.9 289.764 96.636 289.356 96.284C288.956 95.924 288.756 95.42 288.756 94.772C288.756 94.404 288.824 94.076 288.96 93.788C289.096 93.5 289.284 93.26 289.524 93.068C289.772 92.876 290.064 92.732 290.4 92.636C290.744 92.532 291.12 92.48 291.528 92.48C292.16 92.48 292.7 92.596 293.148 92.828C293.604 93.06 293.988 93.4 294.3 93.848L293.544 94.4C293.312 94.08 293.032 93.828 292.704 93.644C292.376 93.46 291.968 93.368 291.48 93.368C290.944 93.368 290.52 93.484 290.208 93.716C289.904 93.94 289.752 94.28 289.752 94.736C289.752 95.136 289.88 95.44 290.136 95.648C290.4 95.848 290.796 96.008 291.324 96.128L292.008 96.284C292.832 96.468 293.428 96.748 293.796 97.124C294.164 97.5 294.348 98 294.348 98.624C294.348 99.008 294.28 99.356 294.144 99.668C294.016 99.98 293.828 100.244 293.58 100.46C293.332 100.676 293.028 100.844 292.668 100.964C292.316 101.084 291.916 101.144 291.468 101.144ZM298.653 101.144C298.237 101.144 297.857 101.068 297.513 100.916C297.169 100.764 296.873 100.548 296.625 100.268C296.385 99.98 296.197 99.64 296.061 99.248C295.925 98.848 295.857 98.4 295.857 97.904C295.857 97.416 295.925 96.972 296.061 96.572C296.197 96.172 296.385 95.832 296.625 95.552C296.873 95.264 297.169 95.044 297.513 94.892C297.857 94.74 298.237 94.664 298.653 94.664C299.069 94.664 299.445 94.74 299.781 94.892C300.125 95.044 300.421 95.264 300.669 95.552C300.917 95.832 301.109 96.172 301.245 96.572C301.381 96.972 301.449 97.416 301.449 97.904C301.449 98.4 301.381 98.848 301.245 99.248C301.109 99.64 300.917 99.98 300.669 100.268C300.421 100.548 300.125 100.764 299.781 100.916C299.445 101.068 299.069 101.144 298.653 101.144ZM298.653 100.292C299.173 100.292 299.597 100.132 299.925 99.812C300.253 99.492 300.417 99.004 300.417 98.348V97.46C300.417 96.804 300.253 96.316 299.925 95.996C299.597 95.676 299.173 95.516 298.653 95.516C298.133 95.516 297.709 95.676 297.381 95.996C297.053 96.316 296.889 96.804 296.889 97.46V98.348C296.889 99.004 297.053 99.492 297.381 99.812C297.709 100.132 298.133 100.292 298.653 100.292ZM303.348 101V94.808H304.308V95.816H304.356C304.428 95.656 304.508 95.508 304.596 95.372C304.692 95.228 304.804 95.104 304.932 95C305.068 94.896 305.224 94.816 305.4 94.76C305.576 94.696 305.784 94.664 306.024 94.664C306.432 94.664 306.808 94.764 307.152 94.964C307.496 95.156 307.752 95.476 307.92 95.924H307.944C308.056 95.588 308.264 95.296 308.568 95.048C308.88 94.792 309.3 94.664 309.828 94.664C310.46 94.664 310.952 94.872 311.304 95.288C311.664 95.696 311.844 96.276 311.844 97.028V101H310.884V97.196C310.884 96.644 310.776 96.228 310.56 95.948C310.344 95.668 310 95.528 309.528 95.528C309.336 95.528 309.152 95.552 308.976 95.6C308.808 95.648 308.656 95.72 308.52 95.816C308.384 95.912 308.276 96.036 308.196 96.188C308.116 96.332 308.076 96.504 308.076 96.704V101H307.116V97.196C307.116 96.644 307.008 96.228 306.792 95.948C306.576 95.668 306.24 95.528 305.784 95.528C305.592 95.528 305.408 95.552 305.232 95.6C305.056 95.648 304.9 95.72 304.764 95.816C304.628 95.912 304.516 96.036 304.428 96.188C304.348 96.332 304.308 96.504 304.308 96.704V101H303.348ZM316.472 101.144C316.048 101.144 315.664 101.068 315.32 100.916C314.984 100.764 314.692 100.548 314.444 100.268C314.204 99.98 314.016 99.64 313.88 99.248C313.752 98.848 313.688 98.4 313.688 97.904C313.688 97.416 313.752 96.972 313.88 96.572C314.016 96.172 314.204 95.832 314.444 95.552C314.692 95.264 314.984 95.044 315.32 94.892C315.664 94.74 316.048 94.664 316.472 94.664C316.888 94.664 317.26 94.74 317.588 94.892C317.916 95.044 318.196 95.256 318.428 95.528C318.66 95.792 318.836 96.108 318.956 96.476C319.084 96.844 319.148 97.248 319.148 97.688V98.144H314.696V98.432C314.696 98.696 314.736 98.944 314.816 99.176C314.904 99.4 315.024 99.596 315.176 99.764C315.336 99.932 315.528 100.064 315.752 100.16C315.984 100.256 316.244 100.304 316.532 100.304C316.924 100.304 317.264 100.212 317.552 100.028C317.848 99.844 318.076 99.58 318.236 99.236L318.92 99.728C318.72 100.152 318.408 100.496 317.984 100.76C317.56 101.016 317.056 101.144 316.472 101.144ZM316.472 95.468C316.208 95.468 315.968 95.516 315.752 95.612C315.536 95.7 315.348 95.828 315.188 95.996C315.036 96.164 314.916 96.364 314.828 96.596C314.74 96.82 314.696 97.068 314.696 97.34V97.424H318.116V97.292C318.116 96.74 317.964 96.3 317.66 95.972C317.364 95.636 316.968 95.468 316.472 95.468ZM324.206 101V94.808H325.166V95.816H325.214C325.286 95.656 325.366 95.508 325.454 95.372C325.55 95.228 325.662 95.104 325.79 95C325.926 94.896 326.082 94.816 326.258 94.76C326.434 94.696 326.642 94.664 326.882 94.664C327.29 94.664 327.666 94.764 328.01 94.964C328.354 95.156 328.61 95.476 328.778 95.924H328.802C328.914 95.588 329.122 95.296 329.426 95.048C329.738 94.792 330.158 94.664 330.686 94.664C331.318 94.664 331.81 94.872 332.162 95.288C332.522 95.696 332.702 96.276 332.702 97.028V101H331.742V97.196C331.742 96.644 331.634 96.228 331.418 95.948C331.202 95.668 330.858 95.528 330.386 95.528C330.194 95.528 330.01 95.552 329.834 95.6C329.666 95.648 329.514 95.72 329.378 95.816C329.242 95.912 329.134 96.036 329.054 96.188C328.974 96.332 328.934 96.504 328.934 96.704V101H327.974V97.196C327.974 96.644 327.866 96.228 327.65 95.948C327.434 95.668 327.098 95.528 326.642 95.528C326.45 95.528 326.266 95.552 326.09 95.6C325.914 95.648 325.758 95.72 325.622 95.816C325.486 95.912 325.374 96.036 325.286 96.188C325.206 96.332 325.166 96.504 325.166 96.704V101H324.206ZM337.342 101.144C336.926 101.144 336.546 101.068 336.202 100.916C335.858 100.764 335.562 100.548 335.314 100.268C335.074 99.98 334.886 99.64 334.75 99.248C334.614 98.848 334.546 98.4 334.546 97.904C334.546 97.416 334.614 96.972 334.75 96.572C334.886 96.172 335.074 95.832 335.314 95.552C335.562 95.264 335.858 95.044 336.202 94.892C336.546 94.74 336.926 94.664 337.342 94.664C337.758 94.664 338.134 94.74 338.47 94.892C338.814 95.044 339.11 95.264 339.358 95.552C339.606 95.832 339.798 96.172 339.934 96.572C340.07 96.972 340.138 97.416 340.138 97.904C340.138 98.4 340.07 98.848 339.934 99.248C339.798 99.64 339.606 99.98 339.358 100.268C339.11 100.548 338.814 100.764 338.47 100.916C338.134 101.068 337.758 101.144 337.342 101.144ZM337.342 100.292C337.862 100.292 338.286 100.132 338.614 99.812C338.942 99.492 339.106 99.004 339.106 98.348V97.46C339.106 96.804 338.942 96.316 338.614 95.996C338.286 95.676 337.862 95.516 337.342 95.516C336.822 95.516 336.398 95.676 336.07 95.996C335.742 96.316 335.578 96.804 335.578 97.46V98.348C335.578 99.004 335.742 99.492 336.07 99.812C336.398 100.132 336.822 100.292 337.342 100.292ZM342.037 101V94.808H342.997V95.948H343.057C343.169 95.652 343.369 95.388 343.657 95.156C343.945 94.924 344.341 94.808 344.845 94.808H345.217V95.768H344.653C344.133 95.768 343.725 95.868 343.429 96.068C343.141 96.26 342.997 96.504 342.997 96.8V101H342.037ZM349.033 101.144C348.609 101.144 348.225 101.068 347.881 100.916C347.545 100.764 347.253 100.548 347.005 100.268C346.765 99.98 346.577 99.64 346.441 99.248C346.313 98.848 346.249 98.4 346.249 97.904C346.249 97.416 346.313 96.972 346.441 96.572C346.577 96.172 346.765 95.832 347.005 95.552C347.253 95.264 347.545 95.044 347.881 94.892C348.225 94.74 348.609 94.664 349.033 94.664C349.449 94.664 349.821 94.74 350.149 94.892C350.477 95.044 350.757 95.256 350.989 95.528C351.221 95.792 351.397 96.108 351.517 96.476C351.645 96.844 351.709 97.248 351.709 97.688V98.144H347.257V98.432C347.257 98.696 347.297 98.944 347.377 99.176C347.465 99.4 347.585 99.596 347.737 99.764C347.897 99.932 348.089 100.064 348.313 100.16C348.545 100.256 348.805 100.304 349.093 100.304C349.485 100.304 349.825 100.212 350.113 100.028C350.409 99.844 350.637 99.58 350.797 99.236L351.481 99.728C351.281 100.152 350.969 100.496 350.545 100.76C350.121 101.016 349.617 101.144 349.033 101.144ZM349.033 95.468C348.769 95.468 348.529 95.516 348.313 95.612C348.097 95.7 347.909 95.828 347.749 95.996C347.597 96.164 347.477 96.364 347.389 96.596C347.301 96.82 347.257 97.068 347.257 97.34V97.424H350.677V97.292C350.677 96.74 350.525 96.3 350.221 95.972C349.925 95.636 349.529 95.468 349.033 95.468ZM291.36 117.144C290.944 117.144 290.564 117.068 290.22 116.916C289.876 116.764 289.58 116.548 289.332 116.268C289.092 115.98 288.904 115.64 288.768 115.248C288.632 114.848 288.564 114.4 288.564 113.904C288.564 113.416 288.632 112.972 288.768 112.572C288.904 112.172 289.092 111.832 289.332 111.552C289.58 111.264 289.876 111.044 290.22 110.892C290.564 110.74 290.944 110.664 291.36 110.664C291.776 110.664 292.152 110.74 292.488 110.892C292.832 111.044 293.128 111.264 293.376 111.552C293.624 111.832 293.816 112.172 293.952 112.572C294.088 112.972 294.156 113.416 294.156 113.904C294.156 114.4 294.088 114.848 293.952 115.248C293.816 115.64 293.624 115.98 293.376 116.268C293.128 116.548 292.832 116.764 292.488 116.916C292.152 117.068 291.776 117.144 291.36 117.144ZM291.36 116.292C291.88 116.292 292.304 116.132 292.632 115.812C292.96 115.492 293.124 115.004 293.124 114.348V113.46C293.124 112.804 292.96 112.316 292.632 111.996C292.304 111.676 291.88 111.516 291.36 111.516C290.84 111.516 290.416 111.676 290.088 111.996C289.76 112.316 289.596 112.804 289.596 113.46V114.348C289.596 115.004 289.76 115.492 290.088 115.812C290.416 116.132 290.84 116.292 291.36 116.292ZM296.055 110.808H297.015V111.816H297.063C297.223 111.424 297.455 111.136 297.759 110.952C298.071 110.76 298.443 110.664 298.875 110.664C299.259 110.664 299.607 110.74 299.919 110.892C300.231 111.044 300.495 111.26 300.711 111.54C300.935 111.82 301.103 112.16 301.215 112.56C301.335 112.96 301.395 113.408 301.395 113.904C301.395 114.4 301.335 114.848 301.215 115.248C301.103 115.648 300.935 115.988 300.711 116.268C300.495 116.548 300.231 116.764 299.919 116.916C299.607 117.068 299.259 117.144 298.875 117.144C298.035 117.144 297.431 116.76 297.063 115.992H297.015V119.4H296.055V110.808ZM298.611 116.28C299.155 116.28 299.583 116.112 299.895 115.776C300.207 115.432 300.363 114.984 300.363 114.432V113.376C300.363 112.824 300.207 112.38 299.895 112.044C299.583 111.7 299.155 111.528 298.611 111.528C298.395 111.528 298.187 111.56 297.987 111.624C297.795 111.68 297.627 111.76 297.483 111.864C297.339 111.968 297.223 112.096 297.135 112.248C297.055 112.392 297.015 112.548 297.015 112.716V115.02C297.015 115.22 297.055 115.4 297.135 115.56C297.223 115.712 297.339 115.844 297.483 115.956C297.627 116.06 297.795 116.14 297.987 116.196C298.187 116.252 298.395 116.28 298.611 116.28ZM305.664 117.144C305.24 117.144 304.856 117.068 304.512 116.916C304.176 116.764 303.884 116.548 303.636 116.268C303.396 115.98 303.208 115.64 303.072 115.248C302.944 114.848 302.88 114.4 302.88 113.904C302.88 113.416 302.944 112.972 303.072 112.572C303.208 112.172 303.396 111.832 303.636 111.552C303.884 111.264 304.176 111.044 304.512 110.892C304.856 110.74 305.24 110.664 305.664 110.664C306.08 110.664 306.452 110.74 306.78 110.892C307.108 111.044 307.388 111.256 307.62 111.528C307.852 111.792 308.028 112.108 308.148 112.476C308.276 112.844 308.34 113.248 308.34 113.688V114.144H303.888V114.432C303.888 114.696 303.928 114.944 304.008 115.176C304.096 115.4 304.216 115.596 304.368 115.764C304.528 115.932 304.72 116.064 304.944 116.16C305.176 116.256 305.436 116.304 305.724 116.304C306.116 116.304 306.456 116.212 306.744 116.028C307.04 115.844 307.268 115.58 307.428 115.236L308.112 115.728C307.912 116.152 307.6 116.496 307.176 116.76C306.752 117.016 306.248 117.144 305.664 117.144ZM305.664 111.468C305.4 111.468 305.16 111.516 304.944 111.612C304.728 111.7 304.54 111.828 304.38 111.996C304.228 112.164 304.108 112.364 304.02 112.596C303.932 112.82 303.888 113.068 303.888 113.34V113.424H307.308V113.292C307.308 112.74 307.156 112.3 306.852 111.972C306.556 111.636 306.16 111.468 305.664 111.468ZM310.242 117V110.808H311.202V111.948H311.262C311.374 111.652 311.574 111.388 311.862 111.156C312.15 110.924 312.546 110.808 313.05 110.808H313.422V111.768H312.858C312.338 111.768 311.93 111.868 311.634 112.068C311.346 112.26 311.202 112.504 311.202 112.8V117H310.242ZM319.421 117C319.061 117 318.801 116.904 318.641 116.712C318.489 116.52 318.393 116.28 318.353 115.992H318.293C318.157 116.376 317.933 116.664 317.621 116.856C317.309 117.048 316.937 117.144 316.505 117.144C315.849 117.144 315.337 116.976 314.969 116.64C314.609 116.304 314.429 115.848 314.429 115.272C314.429 114.688 314.641 114.24 315.065 113.928C315.497 113.616 316.165 113.46 317.069 113.46H318.293V112.848C318.293 112.408 318.173 112.072 317.933 111.84C317.693 111.608 317.325 111.492 316.829 111.492C316.453 111.492 316.137 111.576 315.881 111.744C315.633 111.912 315.425 112.136 315.257 112.416L314.681 111.876C314.849 111.54 315.117 111.256 315.485 111.024C315.853 110.784 316.317 110.664 316.877 110.664C317.629 110.664 318.213 110.848 318.629 111.216C319.045 111.584 319.253 112.096 319.253 112.752V116.16H319.961V117H319.421ZM316.661 116.328C316.901 116.328 317.121 116.3 317.321 116.244C317.521 116.188 317.693 116.108 317.837 116.004C317.981 115.9 318.093 115.78 318.173 115.644C318.253 115.508 318.293 115.36 318.293 115.2V114.18H317.021C316.469 114.18 316.065 114.26 315.809 114.42C315.561 114.58 315.437 114.812 315.437 115.116V115.368C315.437 115.672 315.545 115.908 315.761 116.076C315.985 116.244 316.285 116.328 316.661 116.328ZM323.019 117C322.683 117 322.427 116.908 322.251 116.724C322.083 116.532 321.999 116.284 321.999 115.98V111.648H320.979V110.808H321.555C321.763 110.808 321.903 110.768 321.975 110.688C322.055 110.6 322.095 110.452 322.095 110.244V109.092H322.959V110.808H324.315V111.648H322.959V116.16H324.219V117H323.019ZM326.658 109.356C326.45 109.356 326.298 109.308 326.202 109.212C326.114 109.108 326.07 108.976 326.07 108.816V108.66C326.07 108.5 326.114 108.372 326.202 108.276C326.298 108.172 326.45 108.12 326.658 108.12C326.866 108.12 327.014 108.172 327.102 108.276C327.198 108.372 327.246 108.5 327.246 108.66V108.816C327.246 108.976 327.198 109.108 327.102 109.212C327.014 109.308 326.866 109.356 326.658 109.356ZM326.178 110.808H327.138V117H326.178V110.808ZM331.838 117.144C331.422 117.144 331.042 117.068 330.698 116.916C330.354 116.764 330.058 116.548 329.81 116.268C329.57 115.98 329.382 115.64 329.246 115.248C329.11 114.848 329.042 114.4 329.042 113.904C329.042 113.416 329.11 112.972 329.246 112.572C329.382 112.172 329.57 111.832 329.81 111.552C330.058 111.264 330.354 111.044 330.698 110.892C331.042 110.74 331.422 110.664 331.838 110.664C332.254 110.664 332.63 110.74 332.966 110.892C333.31 111.044 333.606 111.264 333.854 111.552C334.102 111.832 334.294 112.172 334.43 112.572C334.566 112.972 334.634 113.416 334.634 113.904C334.634 114.4 334.566 114.848 334.43 115.248C334.294 115.64 334.102 115.98 333.854 116.268C333.606 116.548 333.31 116.764 332.966 116.916C332.63 117.068 332.254 117.144 331.838 117.144ZM331.838 116.292C332.358 116.292 332.782 116.132 333.11 115.812C333.438 115.492 333.602 115.004 333.602 114.348V113.46C333.602 112.804 333.438 112.316 333.11 111.996C332.782 111.676 332.358 111.516 331.838 111.516C331.318 111.516 330.894 111.676 330.566 111.996C330.238 112.316 330.074 112.804 330.074 113.46V114.348C330.074 115.004 330.238 115.492 330.566 115.812C330.894 116.132 331.318 116.292 331.838 116.292ZM336.533 117V110.808H337.493V111.816H337.541C337.693 111.464 337.905 111.184 338.177 110.976C338.457 110.768 338.829 110.664 339.293 110.664C339.933 110.664 340.437 110.872 340.805 111.288C341.181 111.696 341.369 112.276 341.369 113.028V117H340.409V113.196C340.409 112.084 339.941 111.528 339.005 111.528C338.813 111.528 338.625 111.552 338.441 111.6C338.265 111.648 338.105 111.72 337.961 111.816C337.817 111.912 337.701 112.036 337.613 112.188C337.533 112.332 337.493 112.504 337.493 112.704V117H336.533ZM345.533 117.144C344.957 117.144 344.473 117.036 344.081 116.82C343.697 116.596 343.365 116.3 343.085 115.932L343.769 115.38C344.009 115.684 344.277 115.92 344.573 116.088C344.869 116.248 345.213 116.328 345.605 116.328C346.013 116.328 346.329 116.24 346.553 116.064C346.785 115.888 346.901 115.64 346.901 115.32C346.901 115.08 346.821 114.876 346.661 114.708C346.509 114.532 346.229 114.412 345.821 114.348L345.329 114.276C345.041 114.236 344.777 114.176 344.537 114.096C344.297 114.008 344.085 113.896 343.901 113.76C343.725 113.616 343.585 113.44 343.481 113.232C343.385 113.024 343.337 112.776 343.337 112.488C343.337 112.184 343.393 111.92 343.505 111.696C343.617 111.464 343.769 111.272 343.961 111.12C344.161 110.968 344.397 110.856 344.669 110.784C344.941 110.704 345.233 110.664 345.545 110.664C346.049 110.664 346.469 110.752 346.805 110.928C347.149 111.104 347.449 111.348 347.705 111.66L347.069 112.236C346.933 112.044 346.733 111.872 346.469 111.72C346.205 111.56 345.873 111.48 345.473 111.48C345.073 111.48 344.769 111.568 344.561 111.744C344.361 111.912 344.261 112.144 344.261 112.44C344.261 112.744 344.361 112.964 344.561 113.1C344.769 113.236 345.065 113.336 345.449 113.4L345.929 113.472C346.617 113.576 347.105 113.776 347.393 114.072C347.681 114.36 347.825 114.74 347.825 115.212C347.825 115.812 347.621 116.284 347.213 116.628C346.805 116.972 346.245 117.144 345.533 117.144Z"/><path fill="#121619" d="M481.02 117V110.808H481.98V111.816H482.028C482.1 111.656 482.18 111.508 482.268 111.372C482.364 111.228 482.476 111.104 482.604 111C482.74 110.896 482.896 110.816 483.072 110.76C483.248 110.696 483.456 110.664 483.696 110.664C484.104 110.664 484.48 110.764 484.824 110.964C485.168 111.156 485.424 111.476 485.592 111.924H485.616C485.728 111.588 485.936 111.296 486.24 111.048C486.552 110.792 486.972 110.664 487.5 110.664C488.132 110.664 488.624 110.872 488.976 111.288C489.336 111.696 489.516 112.276 489.516 113.028V117H488.556V113.196C488.556 112.644 488.448 112.228 488.232 111.948C488.016 111.668 487.672 111.528 487.2 111.528C487.008 111.528 486.824 111.552 486.648 111.6C486.48 111.648 486.328 111.72 486.192 111.816C486.056 111.912 485.948 112.036 485.868 112.188C485.788 112.332 485.748 112.504 485.748 112.704V117H484.788V113.196C484.788 112.644 484.68 112.228 484.464 111.948C484.248 111.668 483.912 111.528 483.456 111.528C483.264 111.528 483.08 111.552 482.904 111.6C482.728 111.648 482.572 111.72 482.436 111.816C482.3 111.912 482.188 112.036 482.1 112.188C482.02 112.332 481.98 112.504 481.98 112.704V117H481.02ZM494.145 117.144C493.721 117.144 493.337 117.068 492.993 116.916C492.657 116.764 492.365 116.548 492.117 116.268C491.877 115.98 491.689 115.64 491.553 115.248C491.425 114.848 491.361 114.4 491.361 113.904C491.361 113.416 491.425 112.972 491.553 112.572C491.689 112.172 491.877 111.832 492.117 111.552C492.365 111.264 492.657 111.044 492.993 110.892C493.337 110.74 493.721 110.664 494.145 110.664C494.561 110.664 494.933 110.74 495.261 110.892C495.589 111.044 495.869 111.256 496.101 111.528C496.333 111.792 496.509 112.108 496.629 112.476C496.757 112.844 496.821 113.248 496.821 113.688V114.144H492.369V114.432C492.369 114.696 492.409 114.944 492.489 115.176C492.577 115.4 492.697 115.596 492.849 115.764C493.009 115.932 493.201 116.064 493.425 116.16C493.657 116.256 493.917 116.304 494.205 116.304C494.597 116.304 494.937 116.212 495.225 116.028C495.521 115.844 495.749 115.58 495.909 115.236L496.593 115.728C496.393 116.152 496.081 116.496 495.657 116.76C495.233 117.016 494.729 117.144 494.145 117.144ZM494.145 111.468C493.881 111.468 493.641 111.516 493.425 111.612C493.209 111.7 493.021 111.828 492.861 111.996C492.709 112.164 492.589 112.364 492.501 112.596C492.413 112.82 492.369 113.068 492.369 113.34V113.424H495.789V113.292C495.789 112.74 495.637 112.3 495.333 111.972C495.037 111.636 494.641 111.468 494.145 111.468ZM503.222 117C502.862 117 502.602 116.904 502.442 116.712C502.29 116.52 502.194 116.28 502.154 115.992H502.094C501.958 116.376 501.734 116.664 501.422 116.856C501.11 117.048 500.738 117.144 500.306 117.144C499.65 117.144 499.138 116.976 498.77 116.64C498.41 116.304 498.23 115.848 498.23 115.272C498.23 114.688 498.442 114.24 498.866 113.928C499.298 113.616 499.966 113.46 500.87 113.46H502.094V112.848C502.094 112.408 501.974 112.072 501.734 111.84C501.494 111.608 501.126 111.492 500.63 111.492C500.254 111.492 499.938 111.576 499.682 111.744C499.434 111.912 499.226 112.136 499.058 112.416L498.482 111.876C498.65 111.54 498.918 111.256 499.286 111.024C499.654 110.784 500.118 110.664 500.678 110.664C501.43 110.664 502.014 110.848 502.43 111.216C502.846 111.584 503.054 112.096 503.054 112.752V116.16H503.762V117H503.222ZM500.462 116.328C500.702 116.328 500.922 116.3 501.122 116.244C501.322 116.188 501.494 116.108 501.638 116.004C501.782 115.9 501.894 115.78 501.974 115.644C502.054 115.508 502.094 115.36 502.094 115.2V114.18H500.822C500.27 114.18 499.866 114.26 499.61 114.42C499.362 114.58 499.238 114.812 499.238 115.116V115.368C499.238 115.672 499.346 115.908 499.562 116.076C499.786 116.244 500.086 116.328 500.462 116.328ZM507.313 117.144C506.737 117.144 506.253 117.036 505.861 116.82C505.477 116.596 505.145 116.3 504.865 115.932L505.549 115.38C505.789 115.684 506.057 115.92 506.353 116.088C506.649 116.248 506.993 116.328 507.385 116.328C507.793 116.328 508.109 116.24 508.333 116.064C508.565 115.888 508.681 115.64 508.681 115.32C508.681 115.08 508.601 114.876 508.441 114.708C508.289 114.532 508.009 114.412 507.601 114.348L507.109 114.276C506.821 114.236 506.557 114.176 506.317 114.096C506.077 114.008 505.865 113.896 505.681 113.76C505.505 113.616 505.365 113.44 505.261 113.232C505.165 113.024 505.117 112.776 505.117 112.488C505.117 112.184 505.173 111.92 505.285 111.696C505.397 111.464 505.549 111.272 505.741 111.12C505.941 110.968 506.177 110.856 506.449 110.784C506.721 110.704 507.013 110.664 507.325 110.664C507.829 110.664 508.249 110.752 508.585 110.928C508.929 111.104 509.229 111.348 509.485 111.66L508.849 112.236C508.713 112.044 508.513 111.872 508.249 111.72C507.985 111.56 507.653 111.48 507.253 111.48C506.853 111.48 506.549 111.568 506.341 111.744C506.141 111.912 506.041 112.144 506.041 112.44C506.041 112.744 506.141 112.964 506.341 113.1C506.549 113.236 506.845 113.336 507.229 113.4L507.709 113.472C508.397 113.576 508.885 113.776 509.173 114.072C509.461 114.36 509.605 114.74 509.605 115.212C509.605 115.812 509.401 116.284 508.993 116.628C508.585 116.972 508.025 117.144 507.313 117.144ZM515.436 115.992H515.388C515.324 116.136 515.244 116.28 515.148 116.424C515.06 116.56 514.948 116.684 514.812 116.796C514.676 116.9 514.512 116.984 514.32 117.048C514.128 117.112 513.904 117.144 513.648 117.144C513.008 117.144 512.5 116.94 512.124 116.532C511.748 116.116 511.56 115.532 511.56 114.78V110.808H512.52V114.612C512.52 115.724 512.992 116.28 513.936 116.28C514.128 116.28 514.312 116.256 514.488 116.208C514.672 116.16 514.832 116.088 514.968 115.992C515.112 115.896 515.224 115.776 515.304 115.632C515.392 115.48 515.436 115.3 515.436 115.092V110.808H516.396V117H515.436V115.992ZM518.761 117V110.808H519.721V111.948H519.781C519.893 111.652 520.093 111.388 520.381 111.156C520.669 110.924 521.065 110.808 521.569 110.808H521.941V111.768H521.377C520.857 111.768 520.449 111.868 520.153 112.068C519.865 112.26 519.721 112.504 519.721 112.8V117H518.761ZM525.756 117.144C525.332 117.144 524.948 117.068 524.604 116.916C524.268 116.764 523.976 116.548 523.728 116.268C523.488 115.98 523.3 115.64 523.164 115.248C523.036 114.848 522.972 114.4 522.972 113.904C522.972 113.416 523.036 112.972 523.164 112.572C523.3 112.172 523.488 111.832 523.728 111.552C523.976 111.264 524.268 111.044 524.604 110.892C524.948 110.74 525.332 110.664 525.756 110.664C526.172 110.664 526.544 110.74 526.872 110.892C527.2 111.044 527.48 111.256 527.712 111.528C527.944 111.792 528.12 112.108 528.24 112.476C528.368 112.844 528.432 113.248 528.432 113.688V114.144H523.98V114.432C523.98 114.696 524.02 114.944 524.1 115.176C524.188 115.4 524.308 115.596 524.46 115.764C524.62 115.932 524.812 116.064 525.036 116.16C525.268 116.256 525.528 116.304 525.816 116.304C526.208 116.304 526.548 116.212 526.836 116.028C527.132 115.844 527.36 115.58 527.52 115.236L528.204 115.728C528.004 116.152 527.692 116.496 527.268 116.76C526.844 117.016 526.34 117.144 525.756 117.144ZM525.756 111.468C525.492 111.468 525.252 111.516 525.036 111.612C524.82 111.7 524.632 111.828 524.472 111.996C524.32 112.164 524.2 112.364 524.112 112.596C524.024 112.82 523.98 113.068 523.98 113.34V113.424H527.4V113.292C527.4 112.74 527.248 112.3 526.944 111.972C526.648 111.636 526.252 111.468 525.756 111.468Z"/><path fill="#121619" d="M206.742 22V20.516H208.03V13.712H206.742V12.228H211.18V13.712H209.878V20.516H211.18V22H206.742ZM213.116 22V14.692H214.908V15.91H214.978C215.127 15.518 215.361 15.1913 215.678 14.93C216.005 14.6593 216.453 14.524 217.022 14.524C217.778 14.524 218.357 14.7713 218.758 15.266C219.159 15.7607 219.36 16.4653 219.36 17.38V22H217.568V17.562C217.568 17.0393 217.475 16.6473 217.288 16.386C217.101 16.1247 216.793 15.994 216.364 15.994C216.177 15.994 215.995 16.022 215.818 16.078C215.65 16.1247 215.496 16.1993 215.356 16.302C215.225 16.3953 215.118 16.5167 215.034 16.666C214.95 16.806 214.908 16.974 214.908 17.17V22H213.116ZM223.788 22C223.172 22 222.701 21.8413 222.374 21.524C222.057 21.1973 221.898 20.7353 221.898 20.138V16.12H220.82V14.692H221.38C221.651 14.692 221.833 14.6313 221.926 14.51C222.029 14.3793 222.08 14.188 222.08 13.936V12.69H223.69V14.692H225.188V16.12H223.69V20.572H225.076V22H223.788ZM229.802 22.168C229.261 22.168 228.775 22.0793 228.346 21.902C227.926 21.7153 227.567 21.4587 227.268 21.132C226.979 20.796 226.755 20.3947 226.596 19.928C226.437 19.452 226.358 18.92 226.358 18.332C226.358 17.7533 226.433 17.2307 226.582 16.764C226.741 16.2973 226.965 15.9007 227.254 15.574C227.543 15.238 227.898 14.9813 228.318 14.804C228.738 14.6173 229.214 14.524 229.746 14.524C230.315 14.524 230.81 14.622 231.23 14.818C231.65 15.014 231.995 15.28 232.266 15.616C232.537 15.952 232.737 16.344 232.868 16.792C233.008 17.2307 233.078 17.702 233.078 18.206V18.794H228.22V18.976C228.22 19.508 228.369 19.9373 228.668 20.264C228.967 20.5813 229.41 20.74 229.998 20.74C230.446 20.74 230.81 20.6467 231.09 20.46C231.379 20.2733 231.636 20.0353 231.86 19.746L232.826 20.824C232.527 21.244 232.117 21.5753 231.594 21.818C231.081 22.0513 230.483 22.168 229.802 22.168ZM229.774 15.868C229.298 15.868 228.92 16.0267 228.64 16.344C228.36 16.6613 228.22 17.072 228.22 17.576V17.688H231.216V17.562C231.216 17.058 231.09 16.652 230.838 16.344C230.595 16.0267 230.241 15.868 229.774 15.868ZM234.815 22V14.692H236.607V16.204H236.677C236.723 16.008 236.793 15.8213 236.887 15.644C236.989 15.4573 237.12 15.294 237.279 15.154C237.437 15.014 237.624 14.902 237.839 14.818C238.063 14.734 238.319 14.692 238.609 14.692H239.001V16.386H238.441C237.834 16.386 237.377 16.4747 237.069 16.652C236.761 16.8293 236.607 17.1187 236.607 17.52V22H234.815ZM240.471 22V14.692H242.263V15.91H242.333C242.473 15.5273 242.697 15.2007 243.005 14.93C243.313 14.6593 243.742 14.524 244.293 14.524C244.797 14.524 245.231 14.6453 245.595 14.888C245.959 15.1307 246.229 15.4993 246.407 15.994H246.435C246.565 15.5833 246.822 15.238 247.205 14.958C247.597 14.6687 248.087 14.524 248.675 14.524C249.393 14.524 249.944 14.7713 250.327 15.266C250.719 15.7607 250.915 16.4653 250.915 17.38V22H249.123V17.562C249.123 16.5167 248.731 15.994 247.947 15.994C247.769 15.994 247.597 16.022 247.429 16.078C247.27 16.1247 247.125 16.1993 246.995 16.302C246.873 16.3953 246.775 16.5167 246.701 16.666C246.626 16.806 246.589 16.974 246.589 17.17V22H244.797V17.562C244.797 16.5167 244.405 15.994 243.621 15.994C243.453 15.994 243.285 16.022 243.117 16.078C242.958 16.1247 242.813 16.1993 242.683 16.302C242.561 16.3953 242.459 16.5167 242.375 16.666C242.3 16.806 242.263 16.974 242.263 17.17V22H240.471ZM256.012 22.168C255.471 22.168 254.986 22.0793 254.556 21.902C254.136 21.7153 253.777 21.4587 253.478 21.132C253.189 20.796 252.965 20.3947 252.806 19.928C252.648 19.452 252.568 18.92 252.568 18.332C252.568 17.7533 252.643 17.2307 252.792 16.764C252.951 16.2973 253.175 15.9007 253.464 15.574C253.754 15.238 254.108 14.9813 254.528 14.804C254.948 14.6173 255.424 14.524 255.956 14.524C256.526 14.524 257.02 14.622 257.44 14.818C257.86 15.014 258.206 15.28 258.476 15.616C258.747 15.952 258.948 16.344 259.078 16.792C259.218 17.2307 259.288 17.702 259.288 18.206V18.794H254.43V18.976C254.43 19.508 254.58 19.9373 254.878 20.264C255.177 20.5813 255.62 20.74 256.208 20.74C256.656 20.74 257.02 20.6467 257.3 20.46C257.59 20.2733 257.846 20.0353 258.07 19.746L259.036 20.824C258.738 21.244 258.327 21.5753 257.804 21.818C257.291 22.0513 256.694 22.168 256.012 22.168ZM255.984 15.868C255.508 15.868 255.13 16.0267 254.85 16.344C254.57 16.6613 254.43 17.072 254.43 17.576V17.688H257.426V17.562C257.426 17.058 257.3 16.652 257.048 16.344C256.806 16.0267 256.451 15.868 255.984 15.868ZM265.561 20.782H265.491C265.36 21.202 265.113 21.538 264.749 21.79C264.385 22.042 263.96 22.168 263.475 22.168C262.551 22.168 261.842 21.8367 261.347 21.174C260.862 20.5113 260.619 19.564 260.619 18.332C260.619 17.1093 260.862 16.1713 261.347 15.518C261.842 14.8553 262.551 14.524 263.475 14.524C263.96 14.524 264.385 14.65 264.749 14.902C265.113 15.1447 265.36 15.476 265.491 15.896H265.561V11.64H267.353V22H265.561V20.782ZM264.049 20.684C264.478 20.684 264.838 20.5813 265.127 20.376C265.416 20.1707 265.561 19.8767 265.561 19.494V17.17C265.561 16.8153 265.416 16.5307 265.127 16.316C264.838 16.1013 264.478 15.994 264.049 15.994C263.582 15.994 263.204 16.1527 262.915 16.47C262.635 16.778 262.495 17.1933 262.495 17.716V18.976C262.495 19.4987 262.635 19.914 262.915 20.222C263.204 20.53 263.582 20.684 264.049 20.684ZM270.476 13.628C270.102 13.628 269.832 13.544 269.664 13.376C269.505 13.208 269.426 12.9933 269.426 12.732V12.452C269.426 12.1907 269.505 11.976 269.664 11.808C269.832 11.64 270.102 11.556 270.476 11.556C270.84 11.556 271.106 11.64 271.274 11.808C271.442 11.976 271.526 12.1907 271.526 12.452V12.732C271.526 12.9933 271.442 13.208 271.274 13.376C271.106 13.544 270.84 13.628 270.476 13.628ZM269.58 14.692H271.372V22H269.58V14.692ZM278.985 22C278.593 22 278.28 21.888 278.047 21.664C277.823 21.4307 277.683 21.1227 277.627 20.74H277.543C277.421 21.216 277.174 21.5753 276.801 21.818C276.427 22.0513 275.965 22.168 275.415 22.168C274.668 22.168 274.094 21.972 273.693 21.58C273.291 21.188 273.091 20.6653 273.091 20.012C273.091 19.256 273.361 18.696 273.903 18.332C274.444 17.9587 275.214 17.772 276.213 17.772H277.459V17.24C277.459 16.8293 277.351 16.512 277.137 16.288C276.922 16.064 276.577 15.952 276.101 15.952C275.681 15.952 275.34 16.0453 275.079 16.232C274.827 16.4093 274.612 16.624 274.435 16.876L273.371 15.924C273.641 15.504 274.001 15.168 274.449 14.916C274.897 14.6547 275.489 14.524 276.227 14.524C277.216 14.524 277.967 14.748 278.481 15.196C278.994 15.644 279.251 16.288 279.251 17.128V20.572H279.979V22H278.985ZM276.017 20.866C276.418 20.866 276.759 20.7773 277.039 20.6C277.319 20.4227 277.459 20.1613 277.459 19.816V18.85H276.311C275.377 18.85 274.911 19.1487 274.911 19.746V19.984C274.911 20.2827 275.004 20.5067 275.191 20.656C275.387 20.796 275.662 20.866 276.017 20.866ZM283.816 22C283.2 22 282.729 21.8413 282.402 21.524C282.085 21.1973 281.926 20.7353 281.926 20.138V16.12H280.848V14.692H281.408C281.679 14.692 281.861 14.6313 281.954 14.51C282.057 14.3793 282.108 14.188 282.108 13.936V12.69H283.718V14.692H285.216V16.12H283.718V20.572H285.104V22H283.816ZM289.83 22.168C289.289 22.168 288.803 22.0793 288.374 21.902C287.954 21.7153 287.595 21.4587 287.296 21.132C287.007 20.796 286.783 20.3947 286.624 19.928C286.465 19.452 286.386 18.92 286.386 18.332C286.386 17.7533 286.461 17.2307 286.61 16.764C286.769 16.2973 286.993 15.9007 287.282 15.574C287.571 15.238 287.926 14.9813 288.346 14.804C288.766 14.6173 289.242 14.524 289.774 14.524C290.343 14.524 290.838 14.622 291.258 14.818C291.678 15.014 292.023 15.28 292.294 15.616C292.565 15.952 292.765 16.344 292.896 16.792C293.036 17.2307 293.106 17.702 293.106 18.206V18.794H288.248V18.976C288.248 19.508 288.397 19.9373 288.696 20.264C288.995 20.5813 289.438 20.74 290.026 20.74C290.474 20.74 290.838 20.6467 291.118 20.46C291.407 20.2733 291.664 20.0353 291.888 19.746L292.854 20.824C292.555 21.244 292.145 21.5753 291.622 21.818C291.109 22.0513 290.511 22.168 289.83 22.168ZM289.802 15.868C289.326 15.868 288.948 16.0267 288.668 16.344C288.388 16.6613 288.248 17.072 288.248 17.576V17.688H291.244V17.562C291.244 17.058 291.118 16.652 290.866 16.344C290.623 16.0267 290.269 15.868 289.802 15.868ZM303.687 22C303.295 22 302.983 21.888 302.749 21.664C302.525 21.4307 302.385 21.1227 302.329 20.74H302.245C302.124 21.216 301.877 21.5753 301.503 21.818C301.13 22.0513 300.668 22.168 300.117 22.168C299.371 22.168 298.797 21.972 298.395 21.58C297.994 21.188 297.793 20.6653 297.793 20.012C297.793 19.256 298.064 18.696 298.605 18.332C299.147 17.9587 299.917 17.772 300.915 17.772H302.161V17.24C302.161 16.8293 302.054 16.512 301.839 16.288C301.625 16.064 301.279 15.952 300.803 15.952C300.383 15.952 300.043 16.0453 299.781 16.232C299.529 16.4093 299.315 16.624 299.137 16.876L298.073 15.924C298.344 15.504 298.703 15.168 299.151 14.916C299.599 14.6547 300.192 14.524 300.929 14.524C301.919 14.524 302.67 14.748 303.183 15.196C303.697 15.644 303.953 16.288 303.953 17.128V20.572H304.681V22H303.687ZM300.719 20.866C301.121 20.866 301.461 20.7773 301.741 20.6C302.021 20.4227 302.161 20.1613 302.161 19.816V18.85H301.013C300.08 18.85 299.613 19.1487 299.613 19.746V19.984C299.613 20.2827 299.707 20.5067 299.893 20.656C300.089 20.796 300.365 20.866 300.719 20.866ZM306.292 22V14.692H308.084V15.91H308.154C308.294 15.5273 308.518 15.2007 308.826 14.93C309.134 14.6593 309.563 14.524 310.114 14.524C310.618 14.524 311.052 14.6453 311.416 14.888C311.78 15.1307 312.05 15.4993 312.228 15.994H312.256C312.386 15.5833 312.643 15.238 313.026 14.958C313.418 14.6687 313.908 14.524 314.496 14.524C315.214 14.524 315.765 14.7713 316.148 15.266C316.54 15.7607 316.736 16.4653 316.736 17.38V22H314.944V17.562C314.944 16.5167 314.552 15.994 313.768 15.994C313.59 15.994 313.418 16.022 313.25 16.078C313.091 16.1247 312.946 16.1993 312.816 16.302C312.694 16.3953 312.596 16.5167 312.522 16.666C312.447 16.806 312.41 16.974 312.41 17.17V22H310.618V17.562C310.618 16.5167 310.226 15.994 309.442 15.994C309.274 15.994 309.106 16.022 308.938 16.078C308.779 16.1247 308.634 16.1993 308.504 16.302C308.382 16.3953 308.28 16.5167 308.196 16.666C308.121 16.806 308.084 16.974 308.084 17.17V22H306.292ZM318.879 14.692H320.671V15.896H320.727C320.858 15.476 321.105 15.1447 321.469 14.902C321.833 14.65 322.258 14.524 322.743 14.524C323.677 14.524 324.386 14.8553 324.871 15.518C325.366 16.1713 325.613 17.1093 325.613 18.332C325.613 19.564 325.366 20.5113 324.871 21.174C324.386 21.8367 323.677 22.168 322.743 22.168C322.258 22.168 321.833 22.042 321.469 21.79C321.115 21.538 320.867 21.202 320.727 20.782H320.671V24.8H318.879V14.692ZM322.169 20.684C322.636 20.684 323.014 20.53 323.303 20.222C323.593 19.914 323.737 19.4987 323.737 18.976V17.716C323.737 17.1933 323.593 16.778 323.303 16.47C323.014 16.1527 322.636 15.994 322.169 15.994C321.74 15.994 321.381 16.1013 321.091 16.316C320.811 16.5307 320.671 16.8153 320.671 17.17V19.494C320.671 19.8767 320.811 20.1707 321.091 20.376C321.381 20.5813 321.74 20.684 322.169 20.684ZM329.226 22C328.61 22 328.157 21.846 327.868 21.538C327.579 21.23 327.434 20.796 327.434 20.236V11.64H329.226V20.572H330.192V22H329.226ZM332.605 13.628C332.232 13.628 331.961 13.544 331.793 13.376C331.634 13.208 331.555 12.9933 331.555 12.732V12.452C331.555 12.1907 331.634 11.976 331.793 11.808C331.961 11.64 332.232 11.556 332.605 11.556C332.969 11.556 333.235 11.64 333.403 11.808C333.571 11.976 333.655 12.1907 333.655 12.452V12.732C333.655 12.9933 333.571 13.208 333.403 13.376C333.235 13.544 332.969 13.628 332.605 13.628ZM331.709 14.692H333.501V22H331.709V14.692ZM338.02 22C337.404 22 336.933 21.8413 336.606 21.524C336.289 21.1973 336.13 20.7353 336.13 20.138V16.12H335.052V14.692H335.612C335.883 14.692 336.065 14.6313 336.158 14.51C336.261 14.3793 336.312 14.188 336.312 13.936V12.69H337.922V14.692H339.42V16.12H337.922V20.572H339.308V22H338.02ZM345.503 20.782H345.433C345.367 20.9687 345.279 21.146 345.167 21.314C345.064 21.4727 344.929 21.6173 344.761 21.748C344.602 21.8787 344.406 21.9813 344.173 22.056C343.949 22.1307 343.687 22.168 343.389 22.168C342.633 22.168 342.054 21.9207 341.653 21.426C341.251 20.9313 341.051 20.2267 341.051 19.312V14.692H342.843V19.13C342.843 19.634 342.941 20.0213 343.137 20.292C343.333 20.5533 343.645 20.684 344.075 20.684C344.252 20.684 344.425 20.6607 344.593 20.614C344.77 20.5673 344.924 20.4973 345.055 20.404C345.185 20.3013 345.293 20.18 345.377 20.04C345.461 19.8907 345.503 19.718 345.503 19.522V14.692H347.295V22H345.503V20.782ZM354.061 20.782H353.991C353.86 21.202 353.613 21.538 353.249 21.79C352.885 22.042 352.46 22.168 351.975 22.168C351.051 22.168 350.342 21.8367 349.847 21.174C349.362 20.5113 349.119 19.564 349.119 18.332C349.119 17.1093 349.362 16.1713 349.847 15.518C350.342 14.8553 351.051 14.524 351.975 14.524C352.46 14.524 352.885 14.65 353.249 14.902C353.613 15.1447 353.86 15.476 353.991 15.896H354.061V11.64H355.853V22H354.061V20.782ZM352.549 20.684C352.978 20.684 353.338 20.5813 353.627 20.376C353.916 20.1707 354.061 19.8767 354.061 19.494V17.17C354.061 16.8153 353.916 16.5307 353.627 16.316C353.338 16.1013 352.978 15.994 352.549 15.994C352.082 15.994 351.704 16.1527 351.415 16.47C351.135 16.778 350.995 17.1933 350.995 17.716V18.976C350.995 19.4987 351.135 19.914 351.415 20.222C351.704 20.53 352.082 20.684 352.549 20.684ZM361.034 22.168C360.492 22.168 360.007 22.0793 359.578 21.902C359.158 21.7153 358.798 21.4587 358.5 21.132C358.21 20.796 357.986 20.3947 357.828 19.928C357.669 19.452 357.59 18.92 357.59 18.332C357.59 17.7533 357.664 17.2307 357.814 16.764C357.972 16.2973 358.196 15.9007 358.486 15.574C358.775 15.238 359.13 14.9813 359.55 14.804C359.97 14.6173 360.446 14.524 360.978 14.524C361.547 14.524 362.042 14.622 362.462 14.818C362.882 15.014 363.227 15.28 363.498 15.616C363.768 15.952 363.969 16.344 364.1 16.792C364.24 17.2307 364.31 17.702 364.31 18.206V18.794H359.452V18.976C359.452 19.508 359.601 19.9373 359.9 20.264C360.198 20.5813 360.642 20.74 361.23 20.74C361.678 20.74 362.042 20.6467 362.322 20.46C362.611 20.2733 362.868 20.0353 363.092 19.746L364.058 20.824C363.759 21.244 363.348 21.5753 362.826 21.818C362.312 22.0513 361.715 22.168 361.034 22.168ZM361.006 15.868C360.53 15.868 360.152 16.0267 359.872 16.344C359.592 16.6613 359.452 17.072 359.452 17.576V17.688H362.448V17.562C362.448 17.058 362.322 16.652 362.07 16.344C361.827 16.0267 361.472 15.868 361.006 15.868ZM368.44 22.168C367.74 22.168 367.152 22.0513 366.676 21.818C366.2 21.5753 365.78 21.244 365.416 20.824L366.508 19.76C366.779 20.068 367.073 20.3107 367.39 20.488C367.717 20.6653 368.09 20.754 368.51 20.754C368.94 20.754 369.248 20.6793 369.434 20.53C369.63 20.3807 369.728 20.1753 369.728 19.914C369.728 19.6993 369.658 19.5313 369.518 19.41C369.388 19.2793 369.159 19.1907 368.832 19.144L368.104 19.046C367.311 18.9433 366.704 18.7193 366.284 18.374C365.874 18.0193 365.668 17.506 365.668 16.834C365.668 16.4793 365.734 16.162 365.864 15.882C365.995 15.5927 366.182 15.35 366.424 15.154C366.667 14.9487 366.956 14.7947 367.292 14.692C367.638 14.58 368.02 14.524 368.44 14.524C368.795 14.524 369.108 14.552 369.378 14.608C369.658 14.6547 369.91 14.7293 370.134 14.832C370.358 14.9253 370.564 15.0467 370.75 15.196C370.937 15.336 371.119 15.4947 371.296 15.672L370.246 16.722C370.032 16.498 369.775 16.3113 369.476 16.162C369.178 16.0127 368.851 15.938 368.496 15.938C368.104 15.938 367.82 16.008 367.642 16.148C367.474 16.288 367.39 16.47 367.39 16.694C367.39 16.9367 367.46 17.1233 367.6 17.254C367.75 17.3753 367.997 17.464 368.342 17.52L369.084 17.618C370.662 17.842 371.45 18.5607 371.45 19.774C371.45 20.1287 371.376 20.4553 371.226 20.754C371.086 21.0433 370.886 21.2953 370.624 21.51C370.363 21.7153 370.046 21.8787 369.672 22C369.308 22.112 368.898 22.168 368.44 22.168Z"/><path fill="#121619" d="M400.148 22V12.228H406.434V13.866H401.996V16.232H405.86V17.87H401.996V22H400.148ZM409.172 13.628C408.799 13.628 408.528 13.544 408.36 13.376C408.201 13.208 408.122 12.9933 408.122 12.732V12.452C408.122 12.1907 408.201 11.976 408.36 11.808C408.528 11.64 408.799 11.556 409.172 11.556C409.536 11.556 409.802 11.64 409.97 11.808C410.138 11.976 410.222 12.1907 410.222 12.452V12.732C410.222 12.9933 410.138 13.208 409.97 13.376C409.802 13.544 409.536 13.628 409.172 13.628ZM408.276 14.692H410.068V22H408.276V14.692ZM412.305 22V14.692H414.097V15.91H414.167C414.317 15.518 414.55 15.1913 414.867 14.93C415.194 14.6593 415.642 14.524 416.211 14.524C416.967 14.524 417.546 14.7713 417.947 15.266C418.349 15.7607 418.549 16.4653 418.549 17.38V22H416.757V17.562C416.757 17.0393 416.664 16.6473 416.477 16.386C416.291 16.1247 415.983 15.994 415.553 15.994C415.367 15.994 415.185 16.022 415.007 16.078C414.839 16.1247 414.685 16.1993 414.545 16.302C414.415 16.3953 414.307 16.5167 414.223 16.666C414.139 16.806 414.097 16.974 414.097 17.17V22H412.305ZM426.072 22C425.68 22 425.367 21.888 425.134 21.664C424.91 21.4307 424.77 21.1227 424.714 20.74H424.63C424.508 21.216 424.261 21.5753 423.888 21.818C423.514 22.0513 423.052 22.168 422.502 22.168C421.755 22.168 421.181 21.972 420.78 21.58C420.378 21.188 420.178 20.6653 420.178 20.012C420.178 19.256 420.448 18.696 420.99 18.332C421.531 17.9587 422.301 17.772 423.3 17.772H424.546V17.24C424.546 16.8293 424.438 16.512 424.224 16.288C424.009 16.064 423.664 15.952 423.188 15.952C422.768 15.952 422.427 16.0453 422.166 16.232C421.914 16.4093 421.699 16.624 421.522 16.876L420.458 15.924C420.728 15.504 421.088 15.168 421.536 14.916C421.984 14.6547 422.576 14.524 423.314 14.524C424.303 14.524 425.054 14.748 425.568 15.196C426.081 15.644 426.338 16.288 426.338 17.128V20.572H427.066V22H426.072ZM423.104 20.866C423.505 20.866 423.846 20.7773 424.126 20.6C424.406 20.4227 424.546 20.1613 424.546 19.816V18.85H423.398C422.464 18.85 421.998 19.1487 421.998 19.746V19.984C421.998 20.2827 422.091 20.5067 422.278 20.656C422.474 20.796 422.749 20.866 423.104 20.866ZM430.468 22C429.852 22 429.399 21.846 429.11 21.538C428.821 21.23 428.676 20.796 428.676 20.236V11.64H430.468V20.572H431.434V22H430.468ZM441.796 22C441.404 22 441.091 21.888 440.858 21.664C440.634 21.4307 440.494 21.1227 440.438 20.74H440.354C440.232 21.216 439.985 21.5753 439.612 21.818C439.238 22.0513 438.776 22.168 438.226 22.168C437.479 22.168 436.905 21.972 436.504 21.58C436.102 21.188 435.902 20.6653 435.902 20.012C435.902 19.256 436.172 18.696 436.714 18.332C437.255 17.9587 438.025 17.772 439.024 17.772H440.27V17.24C440.27 16.8293 440.162 16.512 439.948 16.288C439.733 16.064 439.388 15.952 438.912 15.952C438.492 15.952 438.151 16.0453 437.89 16.232C437.638 16.4093 437.423 16.624 437.246 16.876L436.182 15.924C436.452 15.504 436.812 15.168 437.26 14.916C437.708 14.6547 438.3 14.524 439.038 14.524C440.027 14.524 440.778 14.748 441.292 15.196C441.805 15.644 442.062 16.288 442.062 17.128V20.572H442.79V22H441.796ZM438.828 20.866C439.229 20.866 439.57 20.7773 439.85 20.6C440.13 20.4227 440.27 20.1613 440.27 19.816V18.85H439.122C438.188 18.85 437.722 19.1487 437.722 19.746V19.984C437.722 20.2827 437.815 20.5067 438.002 20.656C438.198 20.796 438.473 20.866 438.828 20.866ZM444.4 22V14.692H446.192V15.91H446.262C446.402 15.5273 446.626 15.2007 446.934 14.93C447.242 14.6593 447.671 14.524 448.222 14.524C448.726 14.524 449.16 14.6453 449.524 14.888C449.888 15.1307 450.159 15.4993 450.336 15.994H450.364C450.495 15.5833 450.751 15.238 451.134 14.958C451.526 14.6687 452.016 14.524 452.604 14.524C453.323 14.524 453.873 14.7713 454.256 15.266C454.648 15.7607 454.844 16.4653 454.844 17.38V22H453.052V17.562C453.052 16.5167 452.66 15.994 451.876 15.994C451.699 15.994 451.526 16.022 451.358 16.078C451.199 16.1247 451.055 16.1993 450.924 16.302C450.803 16.3953 450.705 16.5167 450.63 16.666C450.555 16.806 450.518 16.974 450.518 17.17V22H448.726V17.562C448.726 16.5167 448.334 15.994 447.55 15.994C447.382 15.994 447.214 16.022 447.046 16.078C446.887 16.1247 446.743 16.1993 446.612 16.302C446.491 16.3953 446.388 16.5167 446.304 16.666C446.229 16.806 446.192 16.974 446.192 17.17V22H444.4ZM456.988 14.692H458.78V15.896H458.836C458.967 15.476 459.214 15.1447 459.578 14.902C459.942 14.65 460.367 14.524 460.852 14.524C461.785 14.524 462.495 14.8553 462.98 15.518C463.475 16.1713 463.722 17.1093 463.722 18.332C463.722 19.564 463.475 20.5113 462.98 21.174C462.495 21.8367 461.785 22.168 460.852 22.168C460.367 22.168 459.942 22.042 459.578 21.79C459.223 21.538 458.976 21.202 458.836 20.782H458.78V24.8H456.988V14.692ZM460.278 20.684C460.745 20.684 461.123 20.53 461.412 20.222C461.701 19.914 461.846 19.4987 461.846 18.976V17.716C461.846 17.1933 461.701 16.778 461.412 16.47C461.123 16.1527 460.745 15.994 460.278 15.994C459.849 15.994 459.489 16.1013 459.2 16.316C458.92 16.5307 458.78 16.8153 458.78 17.17V19.494C458.78 19.8767 458.92 20.1707 459.2 20.376C459.489 20.5813 459.849 20.684 460.278 20.684ZM467.334 22C466.718 22 466.266 21.846 465.976 21.538C465.687 21.23 465.542 20.796 465.542 20.236V11.64H467.334V20.572H468.3V22H467.334ZM470.714 13.628C470.34 13.628 470.07 13.544 469.902 13.376C469.743 13.208 469.664 12.9933 469.664 12.732V12.452C469.664 12.1907 469.743 11.976 469.902 11.808C470.07 11.64 470.34 11.556 470.714 11.556C471.078 11.556 471.344 11.64 471.512 11.808C471.68 11.976 471.764 12.1907 471.764 12.452V12.732C471.764 12.9933 471.68 13.208 471.512 13.376C471.344 13.544 471.078 13.628 470.714 13.628ZM469.818 14.692H471.61V22H469.818V14.692ZM476.129 22C475.513 22 475.041 21.8413 474.715 21.524C474.397 21.1973 474.239 20.7353 474.239 20.138V16.12H473.161V14.692H473.721C473.991 14.692 474.173 14.6313 474.267 14.51C474.369 14.3793 474.421 14.188 474.421 13.936V12.69H476.031V14.692H477.529V16.12H476.031V20.572H477.417V22H476.129ZM483.611 20.782H483.541C483.476 20.9687 483.387 21.146 483.275 21.314C483.172 21.4727 483.037 21.6173 482.869 21.748C482.71 21.8787 482.514 21.9813 482.281 22.056C482.057 22.1307 481.796 22.168 481.497 22.168C480.741 22.168 480.162 21.9207 479.761 21.426C479.36 20.9313 479.159 20.2267 479.159 19.312V14.692H480.951V19.13C480.951 19.634 481.049 20.0213 481.245 20.292C481.441 20.5533 481.754 20.684 482.183 20.684C482.36 20.684 482.533 20.6607 482.701 20.614C482.878 20.5673 483.032 20.4973 483.163 20.404C483.294 20.3013 483.401 20.18 483.485 20.04C483.569 19.8907 483.611 19.718 483.611 19.522V14.692H485.403V22H483.611V20.782ZM492.17 20.782H492.1C491.969 21.202 491.722 21.538 491.358 21.79C490.994 22.042 490.569 22.168 490.084 22.168C489.16 22.168 488.45 21.8367 487.956 21.174C487.47 20.5113 487.228 19.564 487.228 18.332C487.228 17.1093 487.47 16.1713 487.956 15.518C488.45 14.8553 489.16 14.524 490.084 14.524C490.569 14.524 490.994 14.65 491.358 14.902C491.722 15.1447 491.969 15.476 492.1 15.896H492.17V11.64H493.962V22H492.17V20.782ZM490.658 20.684C491.087 20.684 491.446 20.5813 491.736 20.376C492.025 20.1707 492.17 19.8767 492.17 19.494V17.17C492.17 16.8153 492.025 16.5307 491.736 16.316C491.446 16.1013 491.087 15.994 490.658 15.994C490.191 15.994 489.813 16.1527 489.524 16.47C489.244 16.778 489.104 17.1933 489.104 17.716V18.976C489.104 19.4987 489.244 19.914 489.524 20.222C489.813 20.53 490.191 20.684 490.658 20.684ZM499.142 22.168C498.601 22.168 498.115 22.0793 497.686 21.902C497.266 21.7153 496.907 21.4587 496.608 21.132C496.319 20.796 496.095 20.3947 495.936 19.928C495.777 19.452 495.698 18.92 495.698 18.332C495.698 17.7533 495.773 17.2307 495.922 16.764C496.081 16.2973 496.305 15.9007 496.594 15.574C496.883 15.238 497.238 14.9813 497.658 14.804C498.078 14.6173 498.554 14.524 499.086 14.524C499.655 14.524 500.15 14.622 500.57 14.818C500.99 15.014 501.335 15.28 501.606 15.616C501.877 15.952 502.077 16.344 502.208 16.792C502.348 17.2307 502.418 17.702 502.418 18.206V18.794H497.56V18.976C497.56 19.508 497.709 19.9373 498.008 20.264C498.307 20.5813 498.75 20.74 499.338 20.74C499.786 20.74 500.15 20.6467 500.43 20.46C500.719 20.2733 500.976 20.0353 501.2 19.746L502.166 20.824C501.867 21.244 501.457 21.5753 500.934 21.818C500.421 22.0513 499.823 22.168 499.142 22.168ZM499.114 15.868C498.638 15.868 498.26 16.0267 497.98 16.344C497.7 16.6613 497.56 17.072 497.56 17.576V17.688H500.556V17.562C500.556 17.058 500.43 16.652 500.178 16.344C499.935 16.0267 499.581 15.868 499.114 15.868ZM506.549 22.168C505.849 22.168 505.261 22.0513 504.785 21.818C504.309 21.5753 503.889 21.244 503.525 20.824L504.617 19.76C504.887 20.068 505.181 20.3107 505.499 20.488C505.825 20.6653 506.199 20.754 506.619 20.754C507.048 20.754 507.356 20.6793 507.543 20.53C507.739 20.3807 507.837 20.1753 507.837 19.914C507.837 19.6993 507.767 19.5313 507.627 19.41C507.496 19.2793 507.267 19.1907 506.941 19.144L506.213 19.046C505.419 18.9433 504.813 18.7193 504.393 18.374C503.982 18.0193 503.777 17.506 503.777 16.834C503.777 16.4793 503.842 16.162 503.973 15.882C504.103 15.5927 504.29 15.35 504.533 15.154C504.775 14.9487 505.065 14.7947 505.401 14.692C505.746 14.58 506.129 14.524 506.549 14.524C506.903 14.524 507.216 14.552 507.487 14.608C507.767 14.6547 508.019 14.7293 508.243 14.832C508.467 14.9253 508.672 15.0467 508.859 15.196C509.045 15.336 509.227 15.4947 509.405 15.672L508.355 16.722C508.14 16.498 507.883 16.3113 507.585 16.162C507.286 16.0127 506.959 15.938 506.605 15.938C506.213 15.938 505.928 16.008 505.751 16.148C505.583 16.288 505.499 16.47 505.499 16.694C505.499 16.9367 505.569 17.1233 505.709 17.254C505.858 17.3753 506.105 17.464 506.451 17.52L507.193 17.618C508.77 17.842 509.559 18.5607 509.559 19.774C509.559 20.1287 509.484 20.4553 509.335 20.754C509.195 21.0433 508.994 21.2953 508.733 21.51C508.471 21.7153 508.154 21.8787 507.781 22C507.417 22.112 507.006 22.168 506.549 22.168Z"/><path fill="#121619" d="M17.186 22.168C16.346 22.168 15.632 22.0187 15.044 21.72C14.4653 21.4213 13.966 21.0293 13.546 20.544L14.792 19.34C15.128 19.732 15.5013 20.0307 15.912 20.236C16.332 20.4413 16.794 20.544 17.298 20.544C17.8673 20.544 18.2967 20.4227 18.586 20.18C18.8753 19.928 19.02 19.592 19.02 19.172C19.02 18.8453 18.9267 18.5793 18.74 18.374C18.5533 18.1687 18.2033 18.0193 17.69 17.926L16.766 17.786C14.8153 17.478 13.84 16.5307 13.84 14.944C13.84 14.5053 13.9193 14.1087 14.078 13.754C14.246 13.3993 14.484 13.096 14.792 12.844C15.1 12.592 15.4687 12.4007 15.898 12.27C16.3367 12.13 16.8313 12.06 17.382 12.06C18.1193 12.06 18.7633 12.1813 19.314 12.424C19.8647 12.6667 20.336 13.026 20.728 13.502L19.468 14.692C19.2253 14.3933 18.9313 14.1507 18.586 13.964C18.2407 13.7773 17.8067 13.684 17.284 13.684C16.752 13.684 16.3507 13.7867 16.08 13.992C15.8187 14.188 15.688 14.468 15.688 14.832C15.688 15.2053 15.7953 15.4807 16.01 15.658C16.2247 15.8353 16.57 15.966 17.046 16.05L17.956 16.218C18.9453 16.3953 19.6733 16.7127 20.14 17.17C20.616 17.618 20.854 18.248 20.854 19.06C20.854 19.5267 20.77 19.9513 20.602 20.334C20.4433 20.7073 20.2053 21.034 19.888 21.314C19.58 21.5847 19.1973 21.7947 18.74 21.944C18.292 22.0933 17.774 22.168 17.186 22.168ZM24.9819 22C24.3659 22 23.8946 21.8413 23.5679 21.524C23.2506 21.1973 23.0919 20.7353 23.0919 20.138V16.12H22.0139V14.692H22.5739C22.8446 14.692 23.0266 14.6313 23.1199 14.51C23.2226 14.3793 23.2739 14.188 23.2739 13.936V12.69H24.8839V14.692H26.3819V16.12H24.8839V20.572H26.2699V22H24.9819ZM33.4722 22C33.0802 22 32.7676 21.888 32.5342 21.664C32.3102 21.4307 32.1702 21.1227 32.1142 20.74H32.0302C31.9089 21.216 31.6616 21.5753 31.2882 21.818C30.9149 22.0513 30.4529 22.168 29.9022 22.168C29.1556 22.168 28.5816 21.972 28.1802 21.58C27.7789 21.188 27.5782 20.6653 27.5782 20.012C27.5782 19.256 27.8489 18.696 28.3902 18.332C28.9316 17.9587 29.7016 17.772 30.7002 17.772H31.9462V17.24C31.9462 16.8293 31.8389 16.512 31.6242 16.288C31.4096 16.064 31.0642 15.952 30.5882 15.952C30.1682 15.952 29.8276 16.0453 29.5662 16.232C29.3142 16.4093 29.0996 16.624 28.9222 16.876L27.8582 15.924C28.1289 15.504 28.4882 15.168 28.9362 14.916C29.3842 14.6547 29.9769 14.524 30.7142 14.524C31.7036 14.524 32.4549 14.748 32.9682 15.196C33.4816 15.644 33.7382 16.288 33.7382 17.128V20.572H34.4662V22H33.4722ZM30.5042 20.866C30.9056 20.866 31.2462 20.7773 31.5262 20.6C31.8062 20.4227 31.9462 20.1613 31.9462 19.816V18.85H30.7982C29.8649 18.85 29.3982 19.1487 29.3982 19.746V19.984C29.3982 20.2827 29.4916 20.5067 29.6782 20.656C29.8742 20.796 30.1496 20.866 30.5042 20.866ZM36.0765 22V14.692H37.8685V16.204H37.9385C37.9852 16.008 38.0552 15.8213 38.1485 15.644C38.2512 15.4573 38.3819 15.294 38.5405 15.154C38.6992 15.014 38.8859 14.902 39.1005 14.818C39.3245 14.734 39.5812 14.692 39.8705 14.692H40.2625V16.386H39.7025C39.0959 16.386 38.6385 16.4747 38.3305 16.652C38.0225 16.8293 37.8685 17.1187 37.8685 17.52V22H36.0765ZM44.0693 22C43.4533 22 42.982 21.8413 42.6553 21.524C42.338 21.1973 42.1793 20.7353 42.1793 20.138V16.12H41.1013V14.692H41.6613C41.932 14.692 42.114 14.6313 42.2073 14.51C42.31 14.3793 42.3613 14.188 42.3613 13.936V12.69H43.9713V14.692H45.4693V16.12H43.9713V20.572H45.3573V22H44.0693ZM48.0797 13.628C47.7063 13.628 47.4357 13.544 47.2677 13.376C47.109 13.208 47.0297 12.9933 47.0297 12.732V12.452C47.0297 12.1907 47.109 11.976 47.2677 11.808C47.4357 11.64 47.7063 11.556 48.0797 11.556C48.4437 11.556 48.7097 11.64 48.8777 11.808C49.0457 11.976 49.1297 12.1907 49.1297 12.452V12.732C49.1297 12.9933 49.0457 13.208 48.8777 13.376C48.7097 13.544 48.4437 13.628 48.0797 13.628ZM47.1837 14.692H48.9757V22H47.1837V14.692ZM51.2128 22V14.692H53.0048V15.91H53.0748C53.2241 15.518 53.4575 15.1913 53.7748 14.93C54.1015 14.6593 54.5495 14.524 55.1188 14.524C55.8748 14.524 56.4535 14.7713 56.8548 15.266C57.2561 15.7607 57.4568 16.4653 57.4568 17.38V22H55.6648V17.562C55.6648 17.0393 55.5715 16.6473 55.3848 16.386C55.1981 16.1247 54.8901 15.994 54.4608 15.994C54.2741 15.994 54.0921 16.022 53.9148 16.078C53.7468 16.1247 53.5928 16.1993 53.4528 16.302C53.3221 16.3953 53.2148 16.5167 53.1308 16.666C53.0468 16.806 53.0048 16.974 53.0048 17.17V22H51.2128ZM66.1973 22.616C66.1973 22.9987 66.1273 23.3347 65.9873 23.624C65.8566 23.9227 65.6373 24.17 65.3293 24.366C65.0213 24.562 64.6246 24.7113 64.1393 24.814C63.6539 24.9167 63.0613 24.968 62.3613 24.968C61.7453 24.968 61.2226 24.926 60.7933 24.842C60.3639 24.7673 60.0093 24.6553 59.7293 24.506C59.4586 24.366 59.2626 24.1887 59.1413 23.974C59.0199 23.7593 58.9593 23.5167 58.9593 23.246C58.9593 22.8353 59.0713 22.5133 59.2953 22.28C59.5286 22.056 59.8506 21.9113 60.2613 21.846V21.692C59.9626 21.6173 59.7293 21.4727 59.5613 21.258C59.4026 21.034 59.3233 20.7727 59.3233 20.474C59.3233 20.2873 59.3606 20.124 59.4353 19.984C59.5099 19.8347 59.6079 19.7087 59.7293 19.606C59.8599 19.5033 60.0046 19.4193 60.1633 19.354C60.3219 19.2793 60.4899 19.2233 60.6673 19.186V19.13C60.2193 18.9247 59.8833 18.64 59.6593 18.276C59.4446 17.912 59.3373 17.4873 59.3373 17.002C59.3373 16.2553 59.5939 15.658 60.1073 15.21C60.6206 14.7527 61.3719 14.524 62.3613 14.524C62.5853 14.524 62.8046 14.538 63.0193 14.566C63.2433 14.594 63.4486 14.6407 63.6353 14.706V14.468C63.6353 13.7587 63.9806 13.404 64.6713 13.404H65.8053V14.776H64.2513V14.972C64.6339 15.1867 64.9186 15.4667 65.1053 15.812C65.2919 16.1573 65.3853 16.554 65.3853 17.002C65.3853 17.7393 65.1286 18.332 64.6153 18.78C64.1113 19.228 63.3599 19.452 62.3613 19.452C61.9319 19.452 61.5586 19.41 61.2413 19.326C61.1013 19.3913 60.9799 19.48 60.8773 19.592C60.7746 19.6947 60.7233 19.8253 60.7233 19.984C60.7233 20.348 61.0406 20.53 61.6753 20.53H63.6353C64.5313 20.53 65.1799 20.7167 65.5813 21.09C65.9919 21.454 66.1973 21.9627 66.1973 22.616ZM64.5173 22.826C64.5173 22.5927 64.4239 22.4107 64.2373 22.28C64.0506 22.1493 63.7286 22.084 63.2713 22.084H60.7793C60.5273 22.2707 60.4013 22.5227 60.4013 22.84C60.4013 23.12 60.5179 23.3393 60.7513 23.498C60.9846 23.6567 61.3813 23.736 61.9413 23.736H62.8373C63.4253 23.736 63.8499 23.6613 64.1113 23.512C64.3819 23.3627 64.5173 23.134 64.5173 22.826ZM62.3613 18.234C63.2386 18.234 63.6773 17.8607 63.6773 17.114V16.876C63.6773 16.1293 63.2386 15.756 62.3613 15.756C61.4839 15.756 61.0453 16.1293 61.0453 16.876V17.114C61.0453 17.8607 61.4839 18.234 62.3613 18.234ZM76.2368 22C75.8448 22 75.5321 21.888 75.2988 21.664C75.0748 21.4307 74.9348 21.1227 74.8788 20.74H74.7948C74.6734 21.216 74.4261 21.5753 74.0528 21.818C73.6794 22.0513 73.2174 22.168 72.6668 22.168C71.9201 22.168 71.3461 21.972 70.9448 21.58C70.5434 21.188 70.3428 20.6653 70.3428 20.012C70.3428 19.256 70.6134 18.696 71.1548 18.332C71.6961 17.9587 72.4661 17.772 73.4648 17.772H74.7108V17.24C74.7108 16.8293 74.6034 16.512 74.3888 16.288C74.1741 16.064 73.8288 15.952 73.3528 15.952C72.9328 15.952 72.5921 16.0453 72.3308 16.232C72.0788 16.4093 71.8641 16.624 71.6868 16.876L70.6228 15.924C70.8934 15.504 71.2528 15.168 71.7008 14.916C72.1488 14.6547 72.7414 14.524 73.4788 14.524C74.4681 14.524 75.2194 14.748 75.7328 15.196C76.2461 15.644 76.5028 16.288 76.5028 17.128V20.572H77.2308V22H76.2368ZM73.2688 20.866C73.6701 20.866 74.0108 20.7773 74.2908 20.6C74.5708 20.4227 74.7108 20.1613 74.7108 19.816V18.85H73.5628C72.6294 18.85 72.1628 19.1487 72.1628 19.746V19.984C72.1628 20.2827 72.2561 20.5067 72.4428 20.656C72.6388 20.796 72.9141 20.866 73.2688 20.866ZM78.8411 22V14.692H80.6331V15.91H80.7031C80.8431 15.5273 81.0671 15.2007 81.3751 14.93C81.6831 14.6593 82.1124 14.524 82.6631 14.524C83.1671 14.524 83.6011 14.6453 83.9651 14.888C84.3291 15.1307 84.5997 15.4993 84.7771 15.994H84.8051C84.9357 15.5833 85.1924 15.238 85.5751 14.958C85.9671 14.6687 86.4571 14.524 87.0451 14.524C87.7637 14.524 88.3144 14.7713 88.6971 15.266C89.0891 15.7607 89.2851 16.4653 89.2851 17.38V22H87.4931V17.562C87.4931 16.5167 87.1011 15.994 86.3171 15.994C86.1397 15.994 85.9671 16.022 85.7991 16.078C85.6404 16.1247 85.4957 16.1993 85.3651 16.302C85.2437 16.3953 85.1457 16.5167 85.0711 16.666C84.9964 16.806 84.9591 16.974 84.9591 17.17V22H83.1671V17.562C83.1671 16.5167 82.7751 15.994 81.9911 15.994C81.8231 15.994 81.6551 16.022 81.4871 16.078C81.3284 16.1247 81.1837 16.1993 81.0531 16.302C80.9317 16.3953 80.8291 16.5167 80.7451 16.666C80.6704 16.806 80.6331 16.974 80.6331 17.17V22H78.8411ZM91.4288 14.692H93.2208V15.896H93.2768C93.4075 15.476 93.6548 15.1447 94.0188 14.902C94.3828 14.65 94.8075 14.524 95.2928 14.524C96.2261 14.524 96.9355 14.8553 97.4208 15.518C97.9155 16.1713 98.1628 17.1093 98.1628 18.332C98.1628 19.564 97.9155 20.5113 97.4208 21.174C96.9355 21.8367 96.2261 22.168 95.2928 22.168C94.8075 22.168 94.3828 22.042 94.0188 21.79C93.6641 21.538 93.4168 21.202 93.2768 20.782H93.2208V24.8H91.4288V14.692ZM94.7188 20.684C95.1855 20.684 95.5635 20.53 95.8528 20.222C96.1421 19.914 96.2868 19.4987 96.2868 18.976V17.716C96.2868 17.1933 96.1421 16.778 95.8528 16.47C95.5635 16.1527 95.1855 15.994 94.7188 15.994C94.2895 15.994 93.9301 16.1013 93.6408 16.316C93.3608 16.5307 93.2208 16.8153 93.2208 17.17V19.494C93.2208 19.8767 93.3608 20.1707 93.6408 20.376C93.9301 20.5813 94.2895 20.684 94.7188 20.684ZM101.775 22C101.159 22 100.707 21.846 100.417 21.538C100.128 21.23 99.9833 20.796 99.9833 20.236V11.64H101.775V20.572H102.741V22H101.775ZM105.155 13.628C104.781 13.628 104.511 13.544 104.343 13.376C104.184 13.208 104.105 12.9933 104.105 12.732V12.452C104.105 12.1907 104.184 11.976 104.343 11.808C104.511 11.64 104.781 11.556 105.155 11.556C105.519 11.556 105.785 11.64 105.953 11.808C106.121 11.976 106.205 12.1907 106.205 12.452V12.732C106.205 12.9933 106.121 13.208 105.953 13.376C105.785 13.544 105.519 13.628 105.155 13.628ZM104.259 14.692H106.051V22H104.259V14.692ZM110.57 22C109.954 22 109.482 21.8413 109.156 21.524C108.838 21.1973 108.68 20.7353 108.68 20.138V16.12H107.602V14.692H108.162C108.432 14.692 108.614 14.6313 108.708 14.51C108.81 14.3793 108.862 14.188 108.862 13.936V12.69H110.472V14.692H111.97V16.12H110.472V20.572H111.858V22H110.57ZM118.052 20.782H117.982C117.917 20.9687 117.828 21.146 117.716 21.314C117.613 21.4727 117.478 21.6173 117.31 21.748C117.151 21.8787 116.955 21.9813 116.722 22.056C116.498 22.1307 116.237 22.168 115.938 22.168C115.182 22.168 114.603 21.9207 114.202 21.426C113.801 20.9313 113.6 20.2267 113.6 19.312V14.692H115.392V19.13C115.392 19.634 115.49 20.0213 115.686 20.292C115.882 20.5533 116.195 20.684 116.624 20.684C116.801 20.684 116.974 20.6607 117.142 20.614C117.319 20.5673 117.473 20.4973 117.604 20.404C117.735 20.3013 117.842 20.18 117.926 20.04C118.01 19.8907 118.052 19.718 118.052 19.522V14.692H119.844V22H118.052V20.782ZM126.611 20.782H126.541C126.41 21.202 126.163 21.538 125.799 21.79C125.435 22.042 125.01 22.168 124.525 22.168C123.601 22.168 122.891 21.8367 122.397 21.174C121.911 20.5113 121.669 19.564 121.669 18.332C121.669 17.1093 121.911 16.1713 122.397 15.518C122.891 14.8553 123.601 14.524 124.525 14.524C125.01 14.524 125.435 14.65 125.799 14.902C126.163 15.1447 126.41 15.476 126.541 15.896H126.611V11.64H128.403V22H126.611V20.782ZM125.099 20.684C125.528 20.684 125.887 20.5813 126.177 20.376C126.466 20.1707 126.611 19.8767 126.611 19.494V17.17C126.611 16.8153 126.466 16.5307 126.177 16.316C125.887 16.1013 125.528 15.994 125.099 15.994C124.632 15.994 124.254 16.1527 123.965 16.47C123.685 16.778 123.545 17.1933 123.545 17.716V18.976C123.545 19.4987 123.685 19.914 123.965 20.222C124.254 20.53 124.632 20.684 125.099 20.684ZM133.583 22.168C133.042 22.168 132.556 22.0793 132.127 21.902C131.707 21.7153 131.348 21.4587 131.049 21.132C130.76 20.796 130.536 20.3947 130.377 19.928C130.218 19.452 130.139 18.92 130.139 18.332C130.139 17.7533 130.214 17.2307 130.363 16.764C130.522 16.2973 130.746 15.9007 131.035 15.574C131.324 15.238 131.679 14.9813 132.099 14.804C132.519 14.6173 132.995 14.524 133.527 14.524C134.096 14.524 134.591 14.622 135.011 14.818C135.431 15.014 135.776 15.28 136.047 15.616C136.318 15.952 136.518 16.344 136.649 16.792C136.789 17.2307 136.859 17.702 136.859 18.206V18.794H132.001V18.976C132.001 19.508 132.15 19.9373 132.449 20.264C132.748 20.5813 133.191 20.74 133.779 20.74C134.227 20.74 134.591 20.6467 134.871 20.46C135.16 20.2733 135.417 20.0353 135.641 19.746L136.607 20.824C136.308 21.244 135.898 21.5753 135.375 21.818C134.862 22.0513 134.264 22.168 133.583 22.168ZM133.555 15.868C133.079 15.868 132.701 16.0267 132.421 16.344C132.141 16.6613 132.001 17.072 132.001 17.576V17.688H134.997V17.562C134.997 17.058 134.871 16.652 134.619 16.344C134.376 16.0267 134.022 15.868 133.555 15.868ZM140.99 22.168C140.29 22.168 139.702 22.0513 139.226 21.818C138.75 21.5753 138.33 21.244 137.966 20.824L139.058 19.76C139.328 20.068 139.622 20.3107 139.94 20.488C140.266 20.6653 140.64 20.754 141.06 20.754C141.489 20.754 141.797 20.6793 141.984 20.53C142.18 20.3807 142.278 20.1753 142.278 19.914C142.278 19.6993 142.208 19.5313 142.068 19.41C141.937 19.2793 141.708 19.1907 141.382 19.144L140.654 19.046C139.86 18.9433 139.254 18.7193 138.834 18.374C138.423 18.0193 138.218 17.506 138.218 16.834C138.218 16.4793 138.283 16.162 138.414 15.882C138.544 15.5927 138.731 15.35 138.974 15.154C139.216 14.9487 139.506 14.7947 139.842 14.692C140.187 14.58 140.57 14.524 140.99 14.524C141.344 14.524 141.657 14.552 141.928 14.608C142.208 14.6547 142.46 14.7293 142.684 14.832C142.908 14.9253 143.113 15.0467 143.3 15.196C143.486 15.336 143.668 15.4947 143.846 15.672L142.796 16.722C142.581 16.498 142.324 16.3113 142.026 16.162C141.727 16.0127 141.4 15.938 141.046 15.938C140.654 15.938 140.369 16.008 140.192 16.148C140.024 16.288 139.94 16.47 139.94 16.694C139.94 16.9367 140.01 17.1233 140.15 17.254C140.299 17.3753 140.546 17.464 140.892 17.52L141.634 17.618C143.211 17.842 144 18.5607 144 19.774C144 20.1287 143.925 20.4553 143.776 20.754C143.636 21.0433 143.435 21.2953 143.174 21.51C142.912 21.7153 142.595 21.8787 142.222 22C141.858 22.112 141.447 22.168 140.99 22.168Z"/><path fill="#343A3F" d="M602.023 123.664H611.207C613.063 123.664 614.514 124.187 615.559 125.232C616.626 126.277 617.159 127.675 617.159 129.424C617.159 130.256 617.042 130.96 616.807 131.536C616.572 132.112 616.274 132.592 615.911 132.976C615.548 133.339 615.154 133.616 614.727 133.808C614.3 133.979 613.906 134.096 613.543 134.16V134.352C613.948 134.373 614.396 134.48 614.887 134.672C615.399 134.864 615.879 135.173 616.327 135.6C616.775 136.005 617.148 136.539 617.447 137.2C617.767 137.84 617.927 138.619 617.927 139.536C617.927 140.453 617.778 141.307 617.479 142.096C617.202 142.885 616.807 143.568 616.295 144.144C615.783 144.72 615.175 145.179 614.471 145.52C613.767 145.84 612.999 146 612.167 146H602.023V123.664ZM604.711 143.632H611.335C612.487 143.632 613.394 143.344 614.055 142.768C614.716 142.171 615.047 141.307 615.047 140.176V139.088C615.047 137.957 614.716 137.104 614.055 136.528C613.394 135.931 612.487 135.632 611.335 135.632H604.711V143.632ZM604.711 133.328H610.887C611.954 133.328 612.786 133.061 613.383 132.528C613.98 131.995 614.279 131.227 614.279 130.224V129.136C614.279 128.133 613.98 127.365 613.383 126.832C612.786 126.299 611.954 126.032 610.887 126.032H604.711V133.328Z"/><path fill="#121619" d="M594.984 22.168C594.34 22.168 593.757 22.0607 593.234 21.846C592.711 21.6313 592.263 21.3093 591.89 20.88C591.526 20.4507 591.241 19.9233 591.036 19.298C590.831 18.6727 590.728 17.9447 590.728 17.114C590.728 16.2927 590.831 15.5693 591.036 14.944C591.241 14.3093 591.526 13.7773 591.89 13.348C592.263 12.9187 592.711 12.5967 593.234 12.382C593.757 12.1673 594.34 12.06 594.984 12.06C595.628 12.06 596.211 12.1673 596.734 12.382C597.257 12.5967 597.705 12.9187 598.078 13.348C598.451 13.7773 598.736 14.3093 598.932 14.944C599.137 15.5693 599.24 16.2927 599.24 17.114C599.24 17.9447 599.137 18.6727 598.932 19.298C598.736 19.9233 598.451 20.4507 598.078 20.88C597.705 21.3093 597.257 21.6313 596.734 21.846C596.211 22.0607 595.628 22.168 594.984 22.168ZM594.984 20.53C595.684 20.53 596.239 20.2967 596.65 19.83C597.07 19.3633 597.28 18.71 597.28 17.87V16.358C597.28 15.518 597.07 14.8647 596.65 14.398C596.239 13.9313 595.684 13.698 594.984 13.698C594.284 13.698 593.724 13.9313 593.304 14.398C592.893 14.8647 592.688 15.518 592.688 16.358V17.87C592.688 18.71 592.893 19.3633 593.304 19.83C593.724 20.2967 594.284 20.53 594.984 20.53ZM605.531 20.782H605.461C605.395 20.9687 605.307 21.146 605.195 21.314C605.092 21.4727 604.957 21.6173 604.789 21.748C604.63 21.8787 604.434 21.9813 604.201 22.056C603.977 22.1307 603.715 22.168 603.417 22.168C602.661 22.168 602.082 21.9207 601.681 21.426C601.279 20.9313 601.079 20.2267 601.079 19.312V14.692H602.871V19.13C602.871 19.634 602.969 20.0213 603.165 20.292C603.361 20.5533 603.673 20.684 604.103 20.684C604.28 20.684 604.453 20.6607 604.621 20.614C604.798 20.5673 604.952 20.4973 605.083 20.404C605.213 20.3013 605.321 20.18 605.405 20.04C605.489 19.8907 605.531 19.718 605.531 19.522V14.692H607.323V22H605.531V20.782ZM611.835 22C611.219 22 610.748 21.8413 610.421 21.524C610.104 21.1973 609.945 20.7353 609.945 20.138V16.12H608.867V14.692H609.427C609.698 14.692 609.88 14.6313 609.973 14.51C610.076 14.3793 610.127 14.188 610.127 13.936V12.69H611.737V14.692H613.235V16.12H611.737V20.572H613.123V22H611.835ZM614.95 14.692H616.742V15.896H616.798C616.928 15.476 617.176 15.1447 617.54 14.902C617.904 14.65 618.328 14.524 618.814 14.524C619.747 14.524 620.456 14.8553 620.942 15.518C621.436 16.1713 621.684 17.1093 621.684 18.332C621.684 19.564 621.436 20.5113 620.942 21.174C620.456 21.8367 619.747 22.168 618.814 22.168C618.328 22.168 617.904 22.042 617.54 21.79C617.185 21.538 616.938 21.202 616.798 20.782H616.742V24.8H614.95V14.692ZM618.24 20.684C618.706 20.684 619.084 20.53 619.374 20.222C619.663 19.914 619.808 19.4987 619.808 18.976V17.716C619.808 17.1933 619.663 16.778 619.374 16.47C619.084 16.1527 618.706 15.994 618.24 15.994C617.81 15.994 617.451 16.1013 617.162 16.316C616.882 16.5307 616.742 16.8153 616.742 17.17V19.494C616.742 19.8767 616.882 20.1707 617.162 20.376C617.451 20.5813 617.81 20.684 618.24 20.684ZM627.872 20.782H627.802C627.737 20.9687 627.648 21.146 627.536 21.314C627.433 21.4727 627.298 21.6173 627.13 21.748C626.971 21.8787 626.775 21.9813 626.542 22.056C626.318 22.1307 626.057 22.168 625.758 22.168C625.002 22.168 624.423 21.9207 624.022 21.426C623.621 20.9313 623.42 20.2267 623.42 19.312V14.692H625.212V19.13C625.212 19.634 625.31 20.0213 625.506 20.292C625.702 20.5533 626.015 20.684 626.444 20.684C626.621 20.684 626.794 20.6607 626.962 20.614C627.139 20.5673 627.293 20.4973 627.424 20.404C627.555 20.3013 627.662 20.18 627.746 20.04C627.83 19.8907 627.872 19.718 627.872 19.522V14.692H629.664V22H627.872V20.782ZM634.177 22C633.561 22 633.089 21.8413 632.763 21.524C632.445 21.1973 632.287 20.7353 632.287 20.138V16.12H631.209V14.692H631.769C632.039 14.692 632.221 14.6313 632.315 14.51C632.417 14.3793 632.469 14.188 632.469 13.936V12.69H634.079V14.692H635.577V16.12H634.079V20.572H635.465V22H634.177Z"/><line x1="192.5" x2="192.5" y2="232" stroke="#DDE1E6"/><line x1="576.5" x2="576.5" y2="232" stroke="#DDE1E6"/><line x1="384.5" x2="384.5" y2="232" stroke="#DDE1E6"/><path fill="#343A3F" d="M388 136L392 134.5L388 133V136Z"/><line x1="388" x2="288" y1="134.5" y2="134.5" stroke="#343A3F"/><path fill="#343A3F" d="M196 136L200 134.5L196 133V136Z"/><line x1="196" x2="96" y1="134.5" y2="134.5" stroke="#343A3F"/><path fill="#343A3F" d="M580 136L584 134.5L580 133V136Z"/><line x1="580" x2="480" y1="134.5" y2="134.5" stroke="#343A3F"/></svg>