<svg xmlns="http://www.w3.org/2000/svg" width="384" height="245" fill="none" viewBox="0 0 384 245"><rect width="384" height="56" y="189" fill="#F2F4F8" opacity=".4"/><path fill="#000" d="M27.644 204.944H27.584L26.876 206.348L24.872 209.996L22.868 206.348L22.16 204.944H22.1V212H21.116V203.624H22.46L24.86 208.136H24.92L27.332 203.624H28.628V212H27.644V204.944ZM35.4183 212C35.0583 212 34.7983 211.904 34.6383 211.712C34.4863 211.52 34.3903 211.28 34.3503 210.992H34.2903C34.1543 211.376 33.9303 211.664 33.6183 211.856C33.3063 212.048 32.9343 212.144 32.5023 212.144C31.8463 212.144 31.3343 211.976 30.9663 211.64C30.6063 211.304 30.4263 210.848 30.4263 210.272C30.4263 209.688 30.6383 209.24 31.0623 208.928C31.4943 208.616 32.1623 208.46 33.0663 208.46H34.2903V207.848C34.2903 207.408 34.1703 207.072 33.9303 206.84C33.6903 206.608 33.3223 206.492 32.8263 206.492C32.4503 206.492 32.1343 206.576 31.8783 206.744C31.6303 206.912 31.4223 207.136 31.2543 207.416L30.6783 206.876C30.8463 206.54 31.1143 206.256 31.4823 206.024C31.8503 205.784 32.3143 205.664 32.8743 205.664C33.6263 205.664 34.2103 205.848 34.6263 206.216C35.0423 206.584 35.2503 207.096 35.2503 207.752V211.16H35.9583V212H35.4183ZM32.6583 211.328C32.8983 211.328 33.1183 211.3 33.3183 211.244C33.5183 211.188 33.6903 211.108 33.8343 211.004C33.9783 210.9 34.0903 210.78 34.1703 210.644C34.2503 210.508 34.2903 210.36 34.2903 210.2V209.18H33.0183C32.4663 209.18 32.0623 209.26 31.8063 209.42C31.5583 209.58 31.4343 209.812 31.4343 210.116V210.368C31.4343 210.672 31.5423 210.908 31.7583 211.076C31.9823 211.244 32.2823 211.328 32.6583 211.328ZM42.7084 212.684C42.7084 213.324 42.4564 213.792 41.9524 214.088C41.4564 214.392 40.7084 214.544 39.7084 214.544C38.7404 214.544 38.0444 214.412 37.6204 214.148C37.1964 213.884 36.9844 213.508 36.9844 213.02C36.9844 212.684 37.0724 212.42 37.2484 212.228C37.4244 212.044 37.6644 211.908 37.9684 211.82V211.688C37.6004 211.512 37.4164 211.224 37.4164 210.824C37.4164 210.512 37.5164 210.276 37.7164 210.116C37.9164 209.948 38.1724 209.824 38.4844 209.744V209.696C38.1164 209.52 37.8284 209.268 37.6204 208.94C37.4204 208.612 37.3204 208.232 37.3204 207.8C37.3204 207.488 37.3764 207.2 37.4884 206.936C37.6004 206.672 37.7564 206.448 37.9564 206.264C38.1644 206.072 38.4084 205.924 38.6884 205.82C38.9764 205.716 39.2964 205.664 39.6484 205.664C40.0884 205.664 40.4804 205.744 40.8244 205.904V205.796C40.8244 205.556 40.8804 205.36 40.9924 205.208C41.1044 205.048 41.2884 204.968 41.5444 204.968H42.4684V205.808H41.2924V206.204C41.5164 206.396 41.6884 206.628 41.8084 206.9C41.9364 207.164 42.0004 207.464 42.0004 207.8C42.0004 208.112 41.9444 208.4 41.8324 208.664C41.7204 208.928 41.5604 209.156 41.3524 209.348C41.1524 209.532 40.9084 209.676 40.6204 209.78C40.3324 209.884 40.0124 209.936 39.6604 209.936C39.4604 209.936 39.2604 209.916 39.0604 209.876C38.8524 209.932 38.6644 210.016 38.4964 210.128C38.3284 210.232 38.2444 210.38 38.2444 210.572C38.2444 210.756 38.3324 210.88 38.5084 210.944C38.6844 211.008 38.9124 211.04 39.1924 211.04H40.5124C41.2804 211.04 41.8364 211.188 42.1804 211.484C42.5324 211.772 42.7084 212.172 42.7084 212.684ZM41.8084 212.756C41.8084 212.508 41.7124 212.308 41.5204 212.156C41.3364 212.012 41.0044 211.94 40.5244 211.94H38.4604C38.0764 212.116 37.8844 212.396 37.8844 212.78C37.8844 213.052 37.9844 213.284 38.1844 213.476C38.3924 213.668 38.7404 213.764 39.2284 213.764H40.1164C40.6524 213.764 41.0684 213.68 41.3644 213.512C41.6604 213.344 41.8084 213.092 41.8084 212.756ZM39.6604 209.168C40.0684 209.168 40.3924 209.072 40.6324 208.88C40.8724 208.68 40.9924 208.376 40.9924 207.968V207.632C40.9924 207.224 40.8724 206.924 40.6324 206.732C40.3924 206.532 40.0684 206.432 39.6604 206.432C39.2524 206.432 38.9284 206.532 38.6884 206.732C38.4484 206.924 38.3284 207.224 38.3284 207.632V207.968C38.3284 208.376 38.4484 208.68 38.6884 208.88C38.9284 209.072 39.2524 209.168 39.6604 209.168ZM43.9883 212V205.808H44.9483V206.816H44.9963C45.1483 206.464 45.3603 206.184 45.6323 205.976C45.9123 205.768 46.2843 205.664 46.7483 205.664C47.3883 205.664 47.8923 205.872 48.2603 206.288C48.6363 206.696 48.8243 207.276 48.8243 208.028V212H47.8643V208.196C47.8643 207.084 47.3963 206.528 46.4603 206.528C46.2683 206.528 46.0803 206.552 45.8963 206.6C45.7203 206.648 45.5603 206.72 45.4163 206.816C45.2723 206.912 45.1563 207.036 45.0683 207.188C44.9883 207.332 44.9483 207.504 44.9483 207.704V212H43.9883ZM51.4486 204.356C51.2406 204.356 51.0886 204.308 50.9926 204.212C50.9046 204.108 50.8606 203.976 50.8606 203.816V203.66C50.8606 203.5 50.9046 203.372 50.9926 203.276C51.0886 203.172 51.2406 203.12 51.4486 203.12C51.6566 203.12 51.8046 203.172 51.8926 203.276C51.9886 203.372 52.0366 203.5 52.0366 203.66V203.816C52.0366 203.976 51.9886 204.108 51.8926 204.212C51.8046 204.308 51.6566 204.356 51.4486 204.356ZM50.9686 205.808H51.9286V212H50.9686V205.808ZM55.4966 212C55.1606 212 54.9046 211.908 54.7286 211.724C54.5606 211.532 54.4766 211.284 54.4766 210.98V206.648H53.4566V205.808H54.0326C54.2406 205.808 54.3806 205.768 54.4526 205.688C54.5326 205.6 54.5726 205.452 54.5726 205.244V204.092H55.4366V205.808H56.7926V206.648H55.4366V211.16H56.6966V212H55.4966ZM62.3116 210.992H62.2636C62.1996 211.136 62.1196 211.28 62.0236 211.424C61.9356 211.56 61.8236 211.684 61.6876 211.796C61.5516 211.9 61.3876 211.984 61.1956 212.048C61.0036 212.112 60.7796 212.144 60.5236 212.144C59.8836 212.144 59.3756 211.94 58.9996 211.532C58.6236 211.116 58.4356 210.532 58.4356 209.78V205.808H59.3956V209.612C59.3956 210.724 59.8676 211.28 60.8116 211.28C61.0036 211.28 61.1876 211.256 61.3636 211.208C61.5476 211.16 61.7076 211.088 61.8436 210.992C61.9876 210.896 62.0996 210.776 62.1796 210.632C62.2676 210.48 62.3116 210.3 62.3116 210.092V205.808H63.2716V212H62.3116V210.992ZM69.4359 210.992H69.3879C69.0119 211.76 68.4079 212.144 67.5759 212.144C67.1919 212.144 66.8439 212.068 66.5319 211.916C66.2199 211.764 65.9519 211.548 65.7279 211.268C65.5119 210.988 65.3439 210.648 65.2239 210.248C65.1119 209.848 65.0559 209.4 65.0559 208.904C65.0559 208.408 65.1119 207.96 65.2239 207.56C65.3439 207.16 65.5119 206.82 65.7279 206.54C65.9519 206.26 66.2199 206.044 66.5319 205.892C66.8439 205.74 67.1919 205.664 67.5759 205.664C68.0079 205.664 68.3759 205.76 68.6799 205.952C68.9919 206.136 69.2279 206.424 69.3879 206.816H69.4359V203.12H70.3959V212H69.4359V210.992ZM67.8399 211.28C68.0559 211.28 68.2599 211.252 68.4519 211.196C68.6519 211.14 68.8239 211.06 68.9679 210.956C69.1119 210.844 69.2239 210.712 69.3039 210.56C69.3919 210.4 69.4359 210.22 69.4359 210.02V207.716C69.4359 207.548 69.3919 207.392 69.3039 207.248C69.2239 207.096 69.1119 206.968 68.9679 206.864C68.8239 206.76 68.6519 206.68 68.4519 206.624C68.2599 206.56 68.0559 206.528 67.8399 206.528C67.2959 206.528 66.8679 206.7 66.5559 207.044C66.2439 207.38 66.0879 207.824 66.0879 208.376V209.432C66.0879 209.984 66.2439 210.432 66.5559 210.776C66.8679 211.112 67.2959 211.28 67.8399 211.28ZM74.9249 212.144C74.5009 212.144 74.1169 212.068 73.7729 211.916C73.4369 211.764 73.1449 211.548 72.8969 211.268C72.6569 210.98 72.4689 210.64 72.3329 210.248C72.2049 209.848 72.1409 209.4 72.1409 208.904C72.1409 208.416 72.2049 207.972 72.3329 207.572C72.4689 207.172 72.6569 206.832 72.8969 206.552C73.1449 206.264 73.4369 206.044 73.7729 205.892C74.1169 205.74 74.5009 205.664 74.9249 205.664C75.3409 205.664 75.7129 205.74 76.0409 205.892C76.3689 206.044 76.6489 206.256 76.8809 206.528C77.1129 206.792 77.2889 207.108 77.4089 207.476C77.5369 207.844 77.6009 208.248 77.6009 208.688V209.144H73.1489V209.432C73.1489 209.696 73.1889 209.944 73.2689 210.176C73.3569 210.4 73.4769 210.596 73.6289 210.764C73.7889 210.932 73.9809 211.064 74.2049 211.16C74.4369 211.256 74.6969 211.304 74.9849 211.304C75.3769 211.304 75.7169 211.212 76.0049 211.028C76.3009 210.844 76.5289 210.58 76.6889 210.236L77.3729 210.728C77.1729 211.152 76.8609 211.496 76.4369 211.76C76.0129 212.016 75.5089 212.144 74.9249 212.144ZM74.9249 206.468C74.6609 206.468 74.4209 206.516 74.2049 206.612C73.9889 206.7 73.8009 206.828 73.6409 206.996C73.4889 207.164 73.3689 207.364 73.2809 207.596C73.1929 207.82 73.1489 208.068 73.1489 208.34V208.424H76.5689V208.292C76.5689 207.74 76.4169 207.3 76.1129 206.972C75.8169 206.636 75.4209 206.468 74.9249 206.468ZM80.0748 212.144C79.8188 212.144 79.6308 212.08 79.5108 211.952C79.3988 211.824 79.3428 211.656 79.3428 211.448V211.292C79.3428 211.084 79.3988 210.916 79.5108 210.788C79.6308 210.66 79.8188 210.596 80.0748 210.596C80.3308 210.596 80.5148 210.66 80.6268 210.788C80.7468 210.916 80.8068 211.084 80.8068 211.292V211.448C80.8068 211.656 80.7468 211.824 80.6268 211.952C80.5148 212.08 80.3308 212.144 80.0748 212.144ZM80.0748 207.212C79.8188 207.212 79.6308 207.148 79.5108 207.02C79.3988 206.892 79.3428 206.724 79.3428 206.516V206.36C79.3428 206.152 79.3988 205.984 79.5108 205.856C79.6308 205.728 79.8188 205.664 80.0748 205.664C80.3308 205.664 80.5148 205.728 80.6268 205.856C80.7468 205.984 80.8068 206.152 80.8068 206.36V206.516C80.8068 206.724 80.7468 206.892 80.6268 207.02C80.5148 207.148 80.3308 207.212 80.0748 207.212ZM88.5827 212.144C87.5827 212.144 86.8507 211.764 86.3867 211.004C85.9307 210.244 85.7027 209.18 85.7027 207.812C85.7027 206.444 85.9307 205.38 86.3867 204.62C86.8507 203.86 87.5827 203.48 88.5827 203.48C89.5827 203.48 90.3107 203.86 90.7667 204.62C91.2307 205.38 91.4627 206.444 91.4627 207.812C91.4627 209.18 91.2307 210.244 90.7667 211.004C90.3107 211.764 89.5827 212.144 88.5827 212.144ZM88.5827 211.268C88.9107 211.268 89.1907 211.2 89.4227 211.064C89.6547 210.928 89.8427 210.736 89.9867 210.488C90.1307 210.24 90.2347 209.948 90.2987 209.612C90.3707 209.276 90.4067 208.904 90.4067 208.496V207.128C90.4067 206.72 90.3707 206.348 90.2987 206.012C90.2347 205.676 90.1307 205.384 89.9867 205.136C89.8427 204.888 89.6547 204.696 89.4227 204.56C89.1907 204.424 88.9107 204.356 88.5827 204.356C88.2547 204.356 87.9747 204.424 87.7427 204.56C87.5107 204.696 87.3227 204.888 87.1787 205.136C87.0347 205.384 86.9267 205.676 86.8547 206.012C86.7907 206.348 86.7587 206.72 86.7587 207.128V208.496C86.7587 208.904 86.7907 209.276 86.8547 209.612C86.9267 209.948 87.0347 210.24 87.1787 210.488C87.3227 210.736 87.5107 210.928 87.7427 211.064C87.9747 211.2 88.2547 211.268 88.5827 211.268ZM93.97 212.144C93.714 212.144 93.526 212.08 93.406 211.952C93.294 211.824 93.238 211.656 93.238 211.448V211.292C93.238 211.084 93.294 210.916 93.406 210.788C93.526 210.66 93.714 210.596 93.97 210.596C94.226 210.596 94.41 210.66 94.522 210.788C94.642 210.916 94.702 211.084 94.702 211.292V211.448C94.702 211.656 94.642 211.824 94.522 211.952C94.41 212.08 94.226 212.144 93.97 212.144ZM99.3795 212.144C98.9475 212.144 98.5555 212.072 98.2035 211.928C97.8595 211.776 97.5635 211.564 97.3155 211.292C97.0755 211.012 96.8915 210.672 96.7635 210.272C96.6355 209.872 96.5715 209.424 96.5715 208.928C96.5715 208.304 96.6635 207.72 96.8475 207.176C97.0315 206.624 97.2675 206.124 97.5555 205.676C97.8515 205.22 98.1755 204.82 98.5275 204.476C98.8795 204.124 99.2235 203.84 99.5595 203.624H100.856C100.408 203.952 100.008 204.272 99.6555 204.584C99.3035 204.896 98.9955 205.224 98.7315 205.568C98.4675 205.904 98.2435 206.268 98.0595 206.66C97.8755 207.044 97.7275 207.48 97.6155 207.968L97.6755 207.992C97.8755 207.648 98.1315 207.364 98.4435 207.14C98.7635 206.908 99.1795 206.792 99.6915 206.792C100.052 206.792 100.384 206.852 100.688 206.972C100.992 207.092 101.252 207.264 101.468 207.488C101.684 207.712 101.852 207.984 101.972 208.304C102.1 208.624 102.164 208.98 102.164 209.372C102.164 209.78 102.096 210.156 101.96 210.5C101.832 210.836 101.644 211.128 101.396 211.376C101.156 211.616 100.864 211.804 100.52 211.94C100.176 212.076 99.7955 212.144 99.3795 212.144ZM99.3675 211.268C99.9195 211.268 100.348 211.116 100.652 210.812C100.964 210.508 101.12 210.072 101.12 209.504V209.408C101.12 208.84 100.964 208.404 100.652 208.1C100.348 207.796 99.9195 207.644 99.3675 207.644C98.8155 207.644 98.3835 207.796 98.0715 208.1C97.7675 208.404 97.6155 208.84 97.6155 209.408V209.504C97.6155 210.072 97.7675 210.508 98.0715 210.812C98.3835 211.116 98.8155 211.268 99.3675 211.268ZM106.735 212.144C106.303 212.144 105.911 212.072 105.559 211.928C105.215 211.776 104.919 211.564 104.671 211.292C104.431 211.012 104.247 210.672 104.119 210.272C103.991 209.872 103.927 209.424 103.927 208.928C103.927 208.304 104.019 207.72 104.203 207.176C104.387 206.624 104.623 206.124 104.911 205.676C105.207 205.22 105.531 204.82 105.883 204.476C106.235 204.124 106.579 203.84 106.915 203.624H108.211C107.763 203.952 107.363 204.272 107.011 204.584C106.659 204.896 106.351 205.224 106.087 205.568C105.823 205.904 105.599 206.268 105.415 206.66C105.231 207.044 105.083 207.48 104.971 207.968L105.031 207.992C105.231 207.648 105.487 207.364 105.799 207.14C106.119 206.908 106.535 206.792 107.047 206.792C107.407 206.792 107.739 206.852 108.043 206.972C108.347 207.092 108.607 207.264 108.823 207.488C109.039 207.712 109.207 207.984 109.327 208.304C109.455 208.624 109.519 208.98 109.519 209.372C109.519 209.78 109.451 210.156 109.315 210.5C109.187 210.836 108.999 211.128 108.751 211.376C108.511 211.616 108.219 211.804 107.875 211.94C107.531 212.076 107.151 212.144 106.735 212.144ZM106.723 211.268C107.275 211.268 107.703 211.116 108.007 210.812C108.319 210.508 108.475 210.072 108.475 209.504V209.408C108.475 208.84 108.319 208.404 108.007 208.1C107.703 207.796 107.275 207.644 106.723 207.644C106.171 207.644 105.739 207.796 105.427 208.1C105.123 208.404 104.971 208.84 104.971 209.408V209.504C104.971 210.072 105.123 210.508 105.427 210.812C105.739 211.116 106.171 211.268 106.723 211.268Z"/><rect width="32" height="116" x="16" y="49" fill="#DDE1E6"/><rect width="31" height="73" x="16.5" y="91.5" fill="#BE95FF" stroke="#491D8B"/><path fill="#000" d="M215.644 204.944H215.584L214.876 206.348L212.872 209.996L210.868 206.348L210.16 204.944H210.1V212H209.116V203.624H210.46L212.86 208.136H212.92L215.332 203.624H216.628V212H215.644V204.944ZM223.418 212C223.058 212 222.798 211.904 222.638 211.712C222.486 211.52 222.39 211.28 222.35 210.992H222.29C222.154 211.376 221.93 211.664 221.618 211.856C221.306 212.048 220.934 212.144 220.502 212.144C219.846 212.144 219.334 211.976 218.966 211.64C218.606 211.304 218.426 210.848 218.426 210.272C218.426 209.688 218.638 209.24 219.062 208.928C219.494 208.616 220.162 208.46 221.066 208.46H222.29V207.848C222.29 207.408 222.17 207.072 221.93 206.84C221.69 206.608 221.322 206.492 220.826 206.492C220.45 206.492 220.134 206.576 219.878 206.744C219.63 206.912 219.422 207.136 219.254 207.416L218.678 206.876C218.846 206.54 219.114 206.256 219.482 206.024C219.85 205.784 220.314 205.664 220.874 205.664C221.626 205.664 222.21 205.848 222.626 206.216C223.042 206.584 223.25 207.096 223.25 207.752V211.16H223.958V212H223.418ZM220.658 211.328C220.898 211.328 221.118 211.3 221.318 211.244C221.518 211.188 221.69 211.108 221.834 211.004C221.978 210.9 222.09 210.78 222.17 210.644C222.25 210.508 222.29 210.36 222.29 210.2V209.18H221.018C220.466 209.18 220.062 209.26 219.806 209.42C219.558 209.58 219.434 209.812 219.434 210.116V210.368C219.434 210.672 219.542 210.908 219.758 211.076C219.982 211.244 220.282 211.328 220.658 211.328ZM230.708 212.684C230.708 213.324 230.456 213.792 229.952 214.088C229.456 214.392 228.708 214.544 227.708 214.544C226.74 214.544 226.044 214.412 225.62 214.148C225.196 213.884 224.984 213.508 224.984 213.02C224.984 212.684 225.072 212.42 225.248 212.228C225.424 212.044 225.664 211.908 225.968 211.82V211.688C225.6 211.512 225.416 211.224 225.416 210.824C225.416 210.512 225.516 210.276 225.716 210.116C225.916 209.948 226.172 209.824 226.484 209.744V209.696C226.116 209.52 225.828 209.268 225.62 208.94C225.42 208.612 225.32 208.232 225.32 207.8C225.32 207.488 225.376 207.2 225.488 206.936C225.6 206.672 225.756 206.448 225.956 206.264C226.164 206.072 226.408 205.924 226.688 205.82C226.976 205.716 227.296 205.664 227.648 205.664C228.088 205.664 228.48 205.744 228.824 205.904V205.796C228.824 205.556 228.88 205.36 228.992 205.208C229.104 205.048 229.288 204.968 229.544 204.968H230.468V205.808H229.292V206.204C229.516 206.396 229.688 206.628 229.808 206.9C229.936 207.164 230 207.464 230 207.8C230 208.112 229.944 208.4 229.832 208.664C229.72 208.928 229.56 209.156 229.352 209.348C229.152 209.532 228.908 209.676 228.62 209.78C228.332 209.884 228.012 209.936 227.66 209.936C227.46 209.936 227.26 209.916 227.06 209.876C226.852 209.932 226.664 210.016 226.496 210.128C226.328 210.232 226.244 210.38 226.244 210.572C226.244 210.756 226.332 210.88 226.508 210.944C226.684 211.008 226.912 211.04 227.192 211.04H228.512C229.28 211.04 229.836 211.188 230.18 211.484C230.532 211.772 230.708 212.172 230.708 212.684ZM229.808 212.756C229.808 212.508 229.712 212.308 229.52 212.156C229.336 212.012 229.004 211.94 228.524 211.94H226.46C226.076 212.116 225.884 212.396 225.884 212.78C225.884 213.052 225.984 213.284 226.184 213.476C226.392 213.668 226.74 213.764 227.228 213.764H228.116C228.652 213.764 229.068 213.68 229.364 213.512C229.66 213.344 229.808 213.092 229.808 212.756ZM227.66 209.168C228.068 209.168 228.392 209.072 228.632 208.88C228.872 208.68 228.992 208.376 228.992 207.968V207.632C228.992 207.224 228.872 206.924 228.632 206.732C228.392 206.532 228.068 206.432 227.66 206.432C227.252 206.432 226.928 206.532 226.688 206.732C226.448 206.924 226.328 207.224 226.328 207.632V207.968C226.328 208.376 226.448 208.68 226.688 208.88C226.928 209.072 227.252 209.168 227.66 209.168ZM231.988 212V205.808H232.948V206.816H232.996C233.148 206.464 233.36 206.184 233.632 205.976C233.912 205.768 234.284 205.664 234.748 205.664C235.388 205.664 235.892 205.872 236.26 206.288C236.636 206.696 236.824 207.276 236.824 208.028V212H235.864V208.196C235.864 207.084 235.396 206.528 234.46 206.528C234.268 206.528 234.08 206.552 233.896 206.6C233.72 206.648 233.56 206.72 233.416 206.816C233.272 206.912 233.156 207.036 233.068 207.188C232.988 207.332 232.948 207.504 232.948 207.704V212H231.988ZM239.449 204.356C239.241 204.356 239.089 204.308 238.993 204.212C238.905 204.108 238.861 203.976 238.861 203.816V203.66C238.861 203.5 238.905 203.372 238.993 203.276C239.089 203.172 239.241 203.12 239.449 203.12C239.657 203.12 239.805 203.172 239.893 203.276C239.989 203.372 240.037 203.5 240.037 203.66V203.816C240.037 203.976 239.989 204.108 239.893 204.212C239.805 204.308 239.657 204.356 239.449 204.356ZM238.969 205.808H239.929V212H238.969V205.808ZM243.497 212C243.161 212 242.905 211.908 242.729 211.724C242.561 211.532 242.477 211.284 242.477 210.98V206.648H241.457V205.808H242.033C242.241 205.808 242.381 205.768 242.453 205.688C242.533 205.6 242.573 205.452 242.573 205.244V204.092H243.437V205.808H244.793V206.648H243.437V211.16H244.697V212H243.497ZM250.312 210.992H250.264C250.2 211.136 250.12 211.28 250.024 211.424C249.936 211.56 249.824 211.684 249.688 211.796C249.552 211.9 249.388 211.984 249.196 212.048C249.004 212.112 248.78 212.144 248.524 212.144C247.884 212.144 247.376 211.94 247 211.532C246.624 211.116 246.436 210.532 246.436 209.78V205.808H247.396V209.612C247.396 210.724 247.868 211.28 248.812 211.28C249.004 211.28 249.188 211.256 249.364 211.208C249.548 211.16 249.708 211.088 249.844 210.992C249.988 210.896 250.1 210.776 250.18 210.632C250.268 210.48 250.312 210.3 250.312 210.092V205.808H251.272V212H250.312V210.992ZM257.436 210.992H257.388C257.012 211.76 256.408 212.144 255.576 212.144C255.192 212.144 254.844 212.068 254.532 211.916C254.22 211.764 253.952 211.548 253.728 211.268C253.512 210.988 253.344 210.648 253.224 210.248C253.112 209.848 253.056 209.4 253.056 208.904C253.056 208.408 253.112 207.96 253.224 207.56C253.344 207.16 253.512 206.82 253.728 206.54C253.952 206.26 254.22 206.044 254.532 205.892C254.844 205.74 255.192 205.664 255.576 205.664C256.008 205.664 256.376 205.76 256.68 205.952C256.992 206.136 257.228 206.424 257.388 206.816H257.436V203.12H258.396V212H257.436V210.992ZM255.84 211.28C256.056 211.28 256.26 211.252 256.452 211.196C256.652 211.14 256.824 211.06 256.968 210.956C257.112 210.844 257.224 210.712 257.304 210.56C257.392 210.4 257.436 210.22 257.436 210.02V207.716C257.436 207.548 257.392 207.392 257.304 207.248C257.224 207.096 257.112 206.968 256.968 206.864C256.824 206.76 256.652 206.68 256.452 206.624C256.26 206.56 256.056 206.528 255.84 206.528C255.296 206.528 254.868 206.7 254.556 207.044C254.244 207.38 254.088 207.824 254.088 208.376V209.432C254.088 209.984 254.244 210.432 254.556 210.776C254.868 211.112 255.296 211.28 255.84 211.28ZM262.925 212.144C262.501 212.144 262.117 212.068 261.773 211.916C261.437 211.764 261.145 211.548 260.897 211.268C260.657 210.98 260.469 210.64 260.333 210.248C260.205 209.848 260.141 209.4 260.141 208.904C260.141 208.416 260.205 207.972 260.333 207.572C260.469 207.172 260.657 206.832 260.897 206.552C261.145 206.264 261.437 206.044 261.773 205.892C262.117 205.74 262.501 205.664 262.925 205.664C263.341 205.664 263.713 205.74 264.041 205.892C264.369 206.044 264.649 206.256 264.881 206.528C265.113 206.792 265.289 207.108 265.409 207.476C265.537 207.844 265.601 208.248 265.601 208.688V209.144H261.149V209.432C261.149 209.696 261.189 209.944 261.269 210.176C261.357 210.4 261.477 210.596 261.629 210.764C261.789 210.932 261.981 211.064 262.205 211.16C262.437 211.256 262.697 211.304 262.985 211.304C263.377 211.304 263.717 211.212 264.005 211.028C264.301 210.844 264.529 210.58 264.689 210.236L265.373 210.728C265.173 211.152 264.861 211.496 264.437 211.76C264.013 212.016 263.509 212.144 262.925 212.144ZM262.925 206.468C262.661 206.468 262.421 206.516 262.205 206.612C261.989 206.7 261.801 206.828 261.641 206.996C261.489 207.164 261.369 207.364 261.281 207.596C261.193 207.82 261.149 208.068 261.149 208.34V208.424H264.569V208.292C264.569 207.74 264.417 207.3 264.113 206.972C263.817 206.636 263.421 206.468 262.925 206.468ZM268.075 212.144C267.819 212.144 267.631 212.08 267.511 211.952C267.399 211.824 267.343 211.656 267.343 211.448V211.292C267.343 211.084 267.399 210.916 267.511 210.788C267.631 210.66 267.819 210.596 268.075 210.596C268.331 210.596 268.515 210.66 268.627 210.788C268.747 210.916 268.807 211.084 268.807 211.292V211.448C268.807 211.656 268.747 211.824 268.627 211.952C268.515 212.08 268.331 212.144 268.075 212.144ZM268.075 207.212C267.819 207.212 267.631 207.148 267.511 207.02C267.399 206.892 267.343 206.724 267.343 206.516V206.36C267.343 206.152 267.399 205.984 267.511 205.856C267.631 205.728 267.819 205.664 268.075 205.664C268.331 205.664 268.515 205.728 268.627 205.856C268.747 205.984 268.807 206.152 268.807 206.36V206.516C268.807 206.724 268.747 206.892 268.627 207.02C268.515 207.148 268.331 207.212 268.075 207.212ZM276.583 212.144C275.583 212.144 274.851 211.764 274.387 211.004C273.931 210.244 273.703 209.18 273.703 207.812C273.703 206.444 273.931 205.38 274.387 204.62C274.851 203.86 275.583 203.48 276.583 203.48C277.583 203.48 278.311 203.86 278.767 204.62C279.231 205.38 279.463 206.444 279.463 207.812C279.463 209.18 279.231 210.244 278.767 211.004C278.311 211.764 277.583 212.144 276.583 212.144ZM276.583 211.268C276.911 211.268 277.191 211.2 277.423 211.064C277.655 210.928 277.843 210.736 277.987 210.488C278.131 210.24 278.235 209.948 278.299 209.612C278.371 209.276 278.407 208.904 278.407 208.496V207.128C278.407 206.72 278.371 206.348 278.299 206.012C278.235 205.676 278.131 205.384 277.987 205.136C277.843 204.888 277.655 204.696 277.423 204.56C277.191 204.424 276.911 204.356 276.583 204.356C276.255 204.356 275.975 204.424 275.743 204.56C275.511 204.696 275.323 204.888 275.179 205.136C275.035 205.384 274.927 205.676 274.855 206.012C274.791 206.348 274.759 206.72 274.759 207.128V208.496C274.759 208.904 274.791 209.276 274.855 209.612C274.927 209.948 275.035 210.24 275.179 210.488C275.323 210.736 275.511 210.928 275.743 211.064C275.975 211.2 276.255 211.268 276.583 211.268ZM281.97 212.144C281.714 212.144 281.526 212.08 281.406 211.952C281.294 211.824 281.238 211.656 281.238 211.448V211.292C281.238 211.084 281.294 210.916 281.406 210.788C281.526 210.66 281.714 210.596 281.97 210.596C282.226 210.596 282.41 210.66 282.522 210.788C282.642 210.916 282.702 211.084 282.702 211.292V211.448C282.702 211.656 282.642 211.824 282.522 211.952C282.41 212.08 282.226 212.144 281.97 212.144ZM285.868 212L289.072 204.488H285.496V206.048H284.596V203.624H290.092V204.512L286.948 212H285.868ZM297.099 204.512H293.427L293.187 207.704H293.271C293.471 207.424 293.695 207.2 293.943 207.032C294.199 206.864 294.547 206.78 294.987 206.78C295.347 206.78 295.679 206.84 295.983 206.96C296.287 207.08 296.551 207.252 296.775 207.476C296.999 207.692 297.171 207.96 297.291 208.28C297.419 208.6 297.483 208.964 297.483 209.372C297.483 209.78 297.419 210.156 297.291 210.5C297.163 210.836 296.975 211.128 296.727 211.376C296.487 211.616 296.191 211.804 295.839 211.94C295.495 212.076 295.103 212.144 294.663 212.144C294.311 212.144 293.999 212.104 293.727 212.024C293.463 211.944 293.227 211.836 293.019 211.7C292.811 211.564 292.627 211.412 292.467 211.244C292.315 211.076 292.175 210.9 292.047 210.716L292.803 210.14C292.907 210.308 293.015 210.46 293.127 210.596C293.247 210.732 293.375 210.848 293.511 210.944C293.655 211.04 293.819 211.116 294.003 211.172C294.187 211.22 294.407 211.244 294.663 211.244C295.239 211.244 295.675 211.092 295.971 210.788C296.267 210.484 296.415 210.056 296.415 209.504V209.384C296.415 208.832 296.267 208.404 295.971 208.1C295.675 207.796 295.239 207.644 294.663 207.644C294.279 207.644 293.975 207.716 293.751 207.86C293.535 207.996 293.339 208.16 293.163 208.352L292.311 208.232L292.611 203.624H297.099V204.512ZM209.116 232V223.624H212.452C213.204 223.624 213.78 223.84 214.18 224.272C214.588 224.696 214.792 225.28 214.792 226.024C214.792 226.768 214.588 227.356 214.18 227.788C213.78 228.212 213.204 228.424 212.452 228.424H210.124V232H209.116ZM210.124 227.536H212.452C212.852 227.536 213.16 227.432 213.376 227.224C213.6 227.016 213.712 226.72 213.712 226.336V225.712C213.712 225.328 213.6 225.032 213.376 224.824C213.16 224.616 212.852 224.512 212.452 224.512H210.124V227.536ZM216.457 223.12H217.417V226.816H217.465C217.617 226.464 217.829 226.184 218.101 225.976C218.381 225.768 218.753 225.664 219.217 225.664C219.857 225.664 220.361 225.872 220.729 226.288C221.105 226.696 221.293 227.276 221.293 228.028V232H220.333V228.196C220.333 227.084 219.865 226.528 218.929 226.528C218.737 226.528 218.549 226.552 218.365 226.6C218.189 226.648 218.029 226.72 217.885 226.816C217.741 226.912 217.625 227.036 217.537 227.188C217.457 227.332 217.417 227.504 217.417 227.704V232H216.457V223.12ZM227.938 232C227.578 232 227.318 231.904 227.158 231.712C227.006 231.52 226.91 231.28 226.87 230.992H226.81C226.674 231.376 226.45 231.664 226.138 231.856C225.826 232.048 225.454 232.144 225.022 232.144C224.366 232.144 223.854 231.976 223.486 231.64C223.126 231.304 222.946 230.848 222.946 230.272C222.946 229.688 223.158 229.24 223.582 228.928C224.014 228.616 224.682 228.46 225.586 228.46H226.81V227.848C226.81 227.408 226.69 227.072 226.45 226.84C226.21 226.608 225.842 226.492 225.346 226.492C224.97 226.492 224.654 226.576 224.398 226.744C224.15 226.912 223.942 227.136 223.774 227.416L223.198 226.876C223.366 226.54 223.634 226.256 224.002 226.024C224.37 225.784 224.834 225.664 225.394 225.664C226.146 225.664 226.73 225.848 227.146 226.216C227.562 226.584 227.77 227.096 227.77 227.752V231.16H228.478V232H227.938ZM225.178 231.328C225.418 231.328 225.638 231.3 225.838 231.244C226.038 231.188 226.21 231.108 226.354 231.004C226.498 230.9 226.61 230.78 226.69 230.644C226.77 230.508 226.81 230.36 226.81 230.2V229.18H225.538C224.986 229.18 224.582 229.26 224.326 229.42C224.078 229.58 223.954 229.812 223.954 230.116V230.368C223.954 230.672 224.062 230.908 224.278 231.076C224.502 231.244 224.802 231.328 225.178 231.328ZM231.868 232.144C231.292 232.144 230.808 232.036 230.416 231.82C230.032 231.596 229.7 231.3 229.42 230.932L230.104 230.38C230.344 230.684 230.612 230.92 230.908 231.088C231.204 231.248 231.548 231.328 231.94 231.328C232.348 231.328 232.664 231.24 232.888 231.064C233.12 230.888 233.236 230.64 233.236 230.32C233.236 230.08 233.156 229.876 232.996 229.708C232.844 229.532 232.564 229.412 232.156 229.348L231.664 229.276C231.376 229.236 231.112 229.176 230.872 229.096C230.632 229.008 230.42 228.896 230.236 228.76C230.06 228.616 229.92 228.44 229.816 228.232C229.72 228.024 229.672 227.776 229.672 227.488C229.672 227.184 229.728 226.92 229.84 226.696C229.952 226.464 230.104 226.272 230.296 226.12C230.496 225.968 230.732 225.856 231.004 225.784C231.276 225.704 231.568 225.664 231.88 225.664C232.384 225.664 232.804 225.752 233.14 225.928C233.484 226.104 233.784 226.348 234.04 226.66L233.404 227.236C233.268 227.044 233.068 226.872 232.804 226.72C232.54 226.56 232.208 226.48 231.808 226.48C231.408 226.48 231.104 226.568 230.896 226.744C230.696 226.912 230.596 227.144 230.596 227.44C230.596 227.744 230.696 227.964 230.896 228.1C231.104 228.236 231.4 228.336 231.784 228.4L232.264 228.472C232.952 228.576 233.44 228.776 233.728 229.072C234.016 229.36 234.16 229.74 234.16 230.212C234.16 230.812 233.956 231.284 233.548 231.628C233.14 231.972 232.58 232.144 231.868 232.144ZM238.343 232.144C237.919 232.144 237.535 232.068 237.191 231.916C236.855 231.764 236.563 231.548 236.315 231.268C236.075 230.98 235.887 230.64 235.751 230.248C235.623 229.848 235.559 229.4 235.559 228.904C235.559 228.416 235.623 227.972 235.751 227.572C235.887 227.172 236.075 226.832 236.315 226.552C236.563 226.264 236.855 226.044 237.191 225.892C237.535 225.74 237.919 225.664 238.343 225.664C238.759 225.664 239.131 225.74 239.459 225.892C239.787 226.044 240.067 226.256 240.299 226.528C240.531 226.792 240.707 227.108 240.827 227.476C240.955 227.844 241.019 228.248 241.019 228.688V229.144H236.567V229.432C236.567 229.696 236.607 229.944 236.687 230.176C236.775 230.4 236.895 230.596 237.047 230.764C237.207 230.932 237.399 231.064 237.623 231.16C237.855 231.256 238.115 231.304 238.403 231.304C238.795 231.304 239.135 231.212 239.423 231.028C239.719 230.844 239.947 230.58 240.107 230.236L240.791 230.728C240.591 231.152 240.279 231.496 239.855 231.76C239.431 232.016 238.927 232.144 238.343 232.144ZM238.343 226.468C238.079 226.468 237.839 226.516 237.623 226.612C237.407 226.7 237.219 226.828 237.059 226.996C236.907 227.164 236.787 227.364 236.699 227.596C236.611 227.82 236.567 228.068 236.567 228.34V228.424H239.987V228.292C239.987 227.74 239.835 227.3 239.531 226.972C239.235 226.636 238.839 226.468 238.343 226.468ZM243.493 232.144C243.237 232.144 243.049 232.08 242.929 231.952C242.817 231.824 242.761 231.656 242.761 231.448V231.292C242.761 231.084 242.817 230.916 242.929 230.788C243.049 230.66 243.237 230.596 243.493 230.596C243.749 230.596 243.933 230.66 244.045 230.788C244.165 230.916 244.225 231.084 244.225 231.292V231.448C244.225 231.656 244.165 231.824 244.045 231.952C243.933 232.08 243.749 232.144 243.493 232.144ZM243.493 227.212C243.237 227.212 243.049 227.148 242.929 227.02C242.817 226.892 242.761 226.724 242.761 226.516V226.36C242.761 226.152 242.817 225.984 242.929 225.856C243.049 225.728 243.237 225.664 243.493 225.664C243.749 225.664 243.933 225.728 244.045 225.856C244.165 225.984 244.225 226.152 244.225 226.36V226.516C244.225 226.724 244.165 226.892 244.045 227.02C243.933 227.148 243.749 227.212 243.493 227.212ZM252.901 232V230.356H248.857V229.468L252.361 223.624H253.861V229.516H255.073V230.356H253.861V232H252.901ZM249.805 229.516H252.901V224.404H252.841L249.805 229.516ZM261.733 224.512H258.061L257.821 227.704H257.905C258.105 227.424 258.329 227.2 258.577 227.032C258.833 226.864 259.181 226.78 259.621 226.78C259.981 226.78 260.313 226.84 260.617 226.96C260.921 227.08 261.185 227.252 261.409 227.476C261.633 227.692 261.805 227.96 261.925 228.28C262.053 228.6 262.117 228.964 262.117 229.372C262.117 229.78 262.053 230.156 261.925 230.5C261.797 230.836 261.609 231.128 261.361 231.376C261.121 231.616 260.825 231.804 260.473 231.94C260.129 232.076 259.737 232.144 259.297 232.144C258.945 232.144 258.633 232.104 258.361 232.024C258.097 231.944 257.861 231.836 257.653 231.7C257.445 231.564 257.261 231.412 257.101 231.244C256.949 231.076 256.809 230.9 256.681 230.716L257.437 230.14C257.541 230.308 257.649 230.46 257.761 230.596C257.881 230.732 258.009 230.848 258.145 230.944C258.289 231.04 258.453 231.116 258.637 231.172C258.821 231.22 259.041 231.244 259.297 231.244C259.873 231.244 260.309 231.092 260.605 230.788C260.901 230.484 261.049 230.056 261.049 229.504V229.384C261.049 228.832 260.901 228.404 260.605 228.1C260.309 227.796 259.873 227.644 259.297 227.644C258.913 227.644 258.609 227.716 258.385 227.86C258.169 227.996 257.973 228.16 257.797 228.352L256.945 228.232L257.245 223.624H261.733V224.512ZM265.92 227.608C265.632 227.608 265.364 227.556 265.116 227.452C264.876 227.348 264.664 227.204 264.48 227.02C264.304 226.836 264.164 226.62 264.06 226.372C263.956 226.116 263.904 225.84 263.904 225.544C263.904 225.248 263.956 224.976 264.06 224.728C264.164 224.472 264.304 224.252 264.48 224.068C264.664 223.884 264.876 223.74 265.116 223.636C265.364 223.532 265.632 223.48 265.92 223.48C266.208 223.48 266.472 223.532 266.712 223.636C266.96 223.74 267.172 223.884 267.348 224.068C267.532 224.252 267.676 224.472 267.78 224.728C267.884 224.976 267.936 225.248 267.936 225.544C267.936 225.84 267.884 226.116 267.78 226.372C267.676 226.62 267.532 226.836 267.348 227.02C267.172 227.204 266.96 227.348 266.712 227.452C266.472 227.556 266.208 227.608 265.92 227.608ZM265.92 226.84C266.28 226.84 266.564 226.716 266.772 226.468C266.988 226.212 267.096 225.904 267.096 225.544C267.096 225.184 266.988 224.88 266.772 224.632C266.564 224.376 266.28 224.248 265.92 224.248C265.56 224.248 265.272 224.376 265.056 224.632C264.848 224.88 264.744 225.184 264.744 225.544C264.744 225.904 264.848 226.212 265.056 226.468C265.272 226.716 265.56 226.84 265.92 226.84Z"/><path fill="#000" d="M216.196 22L215.412 19.508H211.94L211.17 22H209.294L212.57 12.228H214.866L218.114 22H216.196ZM213.704 13.908H213.634L212.388 17.926H214.964L213.704 13.908ZM219.602 22V14.692H221.394V15.91H221.464C221.604 15.5273 221.828 15.2007 222.136 14.93C222.444 14.6593 222.874 14.524 223.424 14.524C223.928 14.524 224.362 14.6453 224.726 14.888C225.09 15.1307 225.361 15.4993 225.538 15.994H225.566C225.697 15.5833 225.954 15.238 226.336 14.958C226.728 14.6687 227.218 14.524 227.806 14.524C228.525 14.524 229.076 14.7713 229.458 15.266C229.85 15.7607 230.046 16.4653 230.046 17.38V22H228.254V17.562C228.254 16.5167 227.862 15.994 227.078 15.994C226.901 15.994 226.728 16.022 226.56 16.078C226.402 16.1247 226.257 16.1993 226.126 16.302C226.005 16.3953 225.907 16.5167 225.832 16.666C225.758 16.806 225.72 16.974 225.72 17.17V22H223.928V17.562C223.928 16.5167 223.536 15.994 222.752 15.994C222.584 15.994 222.416 16.022 222.248 16.078C222.09 16.1247 221.945 16.1993 221.814 16.302C221.693 16.3953 221.59 16.5167 221.506 16.666C221.432 16.806 221.394 16.974 221.394 17.17V22H219.602ZM232.19 14.692H233.982V15.896H234.038C234.169 15.476 234.416 15.1447 234.78 14.902C235.144 14.65 235.569 14.524 236.054 14.524C236.987 14.524 237.697 14.8553 238.182 15.518C238.677 16.1713 238.924 17.1093 238.924 18.332C238.924 19.564 238.677 20.5113 238.182 21.174C237.697 21.8367 236.987 22.168 236.054 22.168C235.569 22.168 235.144 22.042 234.78 21.79C234.425 21.538 234.178 21.202 234.038 20.782H233.982V24.8H232.19V14.692ZM235.48 20.684C235.947 20.684 236.325 20.53 236.614 20.222C236.903 19.914 237.048 19.4987 237.048 18.976V17.716C237.048 17.1933 236.903 16.778 236.614 16.47C236.325 16.1527 235.947 15.994 235.48 15.994C235.051 15.994 234.691 16.1013 234.402 16.316C234.122 16.5307 233.982 16.8153 233.982 17.17V19.494C233.982 19.8767 234.122 20.1707 234.402 20.376C234.691 20.5813 235.051 20.684 235.48 20.684ZM242.537 22C241.921 22 241.468 21.846 241.179 21.538C240.889 21.23 240.745 20.796 240.745 20.236V11.64H242.537V20.572H243.503V22H242.537ZM245.916 13.628C245.542 13.628 245.272 13.544 245.104 13.376C244.945 13.208 244.866 12.9933 244.866 12.732V12.452C244.866 12.1907 244.945 11.976 245.104 11.808C245.272 11.64 245.542 11.556 245.916 11.556C246.28 11.556 246.546 11.64 246.714 11.808C246.882 11.976 246.966 12.1907 246.966 12.452V12.732C246.966 12.9933 246.882 13.208 246.714 13.376C246.546 13.544 246.28 13.628 245.916 13.628ZM245.02 14.692H246.812V22H245.02V14.692ZM251.331 22C250.715 22 250.244 21.8413 249.917 21.524C249.6 21.1973 249.441 20.7353 249.441 20.138V16.12H248.363V14.692H248.923C249.194 14.692 249.376 14.6313 249.469 14.51C249.572 14.3793 249.623 14.188 249.623 13.936V12.69H251.233V14.692H252.731V16.12H251.233V20.572H252.619V22H251.331ZM258.813 20.782H258.743C258.678 20.9687 258.589 21.146 258.477 21.314C258.375 21.4727 258.239 21.6173 258.071 21.748C257.913 21.8787 257.717 21.9813 257.483 22.056C257.259 22.1307 256.998 22.168 256.699 22.168C255.943 22.168 255.365 21.9207 254.963 21.426C254.562 20.9313 254.361 20.2267 254.361 19.312V14.692H256.153V19.13C256.153 19.634 256.251 20.0213 256.447 20.292C256.643 20.5533 256.956 20.684 257.385 20.684C257.563 20.684 257.735 20.6607 257.903 20.614C258.081 20.5673 258.235 20.4973 258.365 20.404C258.496 20.3013 258.603 20.18 258.687 20.04C258.771 19.8907 258.813 19.718 258.813 19.522V14.692H260.605V22H258.813V20.782ZM267.372 20.782H267.302C267.171 21.202 266.924 21.538 266.56 21.79C266.196 22.042 265.771 22.168 265.286 22.168C264.362 22.168 263.652 21.8367 263.158 21.174C262.672 20.5113 262.43 19.564 262.43 18.332C262.43 17.1093 262.672 16.1713 263.158 15.518C263.652 14.8553 264.362 14.524 265.286 14.524C265.771 14.524 266.196 14.65 266.56 14.902C266.924 15.1447 267.171 15.476 267.302 15.896H267.372V11.64H269.164V22H267.372V20.782ZM265.86 20.684C266.289 20.684 266.648 20.5813 266.938 20.376C267.227 20.1707 267.372 19.8767 267.372 19.494V17.17C267.372 16.8153 267.227 16.5307 266.938 16.316C266.648 16.1013 266.289 15.994 265.86 15.994C265.393 15.994 265.015 16.1527 264.726 16.47C264.446 16.778 264.306 17.1933 264.306 17.716V18.976C264.306 19.4987 264.446 19.914 264.726 20.222C265.015 20.53 265.393 20.684 265.86 20.684ZM274.344 22.168C273.803 22.168 273.318 22.0793 272.888 21.902C272.468 21.7153 272.109 21.4587 271.81 21.132C271.521 20.796 271.297 20.3947 271.138 19.928C270.98 19.452 270.9 18.92 270.9 18.332C270.9 17.7533 270.975 17.2307 271.124 16.764C271.283 16.2973 271.507 15.9007 271.796 15.574C272.086 15.238 272.44 14.9813 272.86 14.804C273.28 14.6173 273.756 14.524 274.288 14.524C274.858 14.524 275.352 14.622 275.772 14.818C276.192 15.014 276.538 15.28 276.808 15.616C277.079 15.952 277.28 16.344 277.41 16.792C277.55 17.2307 277.62 17.702 277.62 18.206V18.794H272.762V18.976C272.762 19.508 272.912 19.9373 273.21 20.264C273.509 20.5813 273.952 20.74 274.54 20.74C274.988 20.74 275.352 20.6467 275.632 20.46C275.922 20.2733 276.178 20.0353 276.402 19.746L277.368 20.824C277.07 21.244 276.659 21.5753 276.136 21.818C275.623 22.0513 275.026 22.168 274.344 22.168ZM274.316 15.868C273.84 15.868 273.462 16.0267 273.182 16.344C272.902 16.6613 272.762 17.072 272.762 17.576V17.688H275.758V17.562C275.758 17.058 275.632 16.652 275.38 16.344C275.138 16.0267 274.783 15.868 274.316 15.868Z"/><path fill="#000" d="M17.148 22V12.228H21.544C21.992 12.228 22.3933 12.3027 22.748 12.452C23.112 12.592 23.42 12.7973 23.672 13.068C23.924 13.3293 24.1153 13.6467 24.246 14.02C24.3767 14.3933 24.442 14.804 24.442 15.252C24.442 15.7093 24.3767 16.1247 24.246 16.498C24.1153 16.862 23.924 17.1793 23.672 17.45C23.42 17.7113 23.112 17.9167 22.748 18.066C22.3933 18.206 21.992 18.276 21.544 18.276H18.996V22H17.148ZM18.996 16.68H21.376C21.7307 16.68 22.0107 16.5867 22.216 16.4C22.4213 16.204 22.524 15.9287 22.524 15.574V14.93C22.524 14.5753 22.4213 14.3047 22.216 14.118C22.0107 13.9313 21.7307 13.838 21.376 13.838H18.996V16.68ZM26.028 22V14.692H27.82V16.204H27.89C27.9367 16.008 28.0067 15.8213 28.1 15.644C28.2027 15.4573 28.3334 15.294 28.492 15.154C28.6507 15.014 28.8374 14.902 29.052 14.818C29.276 14.734 29.5327 14.692 29.822 14.692H30.214V16.386H29.654C29.0474 16.386 28.59 16.4747 28.282 16.652C27.974 16.8293 27.82 17.1187 27.82 17.52V22H26.028ZM34.5138 22.168C33.9911 22.168 33.5198 22.0793 33.0998 21.902C32.6891 21.7247 32.3344 21.468 32.0358 21.132C31.7464 20.796 31.5224 20.3947 31.3638 19.928C31.2051 19.452 31.1258 18.92 31.1258 18.332C31.1258 17.744 31.2051 17.2167 31.3638 16.75C31.5224 16.2833 31.7464 15.8867 32.0358 15.56C32.3344 15.224 32.6891 14.9673 33.0998 14.79C33.5198 14.6127 33.9911 14.524 34.5138 14.524C35.0364 14.524 35.5078 14.6127 35.9278 14.79C36.3478 14.9673 36.7024 15.224 36.9918 15.56C37.2904 15.8867 37.5191 16.2833 37.6778 16.75C37.8364 17.2167 37.9158 17.744 37.9158 18.332C37.9158 18.92 37.8364 19.452 37.6778 19.928C37.5191 20.3947 37.2904 20.796 36.9918 21.132C36.7024 21.468 36.3478 21.7247 35.9278 21.902C35.5078 22.0793 35.0364 22.168 34.5138 22.168ZM34.5138 20.726C34.9898 20.726 35.3631 20.5813 35.6338 20.292C35.9044 20.0027 36.0398 19.578 36.0398 19.018V17.66C36.0398 17.1093 35.9044 16.6893 35.6338 16.4C35.3631 16.1107 34.9898 15.966 34.5138 15.966C34.0471 15.966 33.6784 16.1107 33.4078 16.4C33.1371 16.6893 33.0018 17.1093 33.0018 17.66V19.018C33.0018 19.578 33.1371 20.0027 33.4078 20.292C33.6784 20.5813 34.0471 20.726 34.5138 20.726ZM39.6644 11.64H41.4564V15.896H41.5124C41.6431 15.476 41.8904 15.1447 42.2544 14.902C42.6184 14.65 43.0431 14.524 43.5284 14.524C44.4618 14.524 45.1711 14.8553 45.6564 15.518C46.1511 16.1713 46.3984 17.1093 46.3984 18.332C46.3984 19.564 46.1511 20.5113 45.6564 21.174C45.1711 21.8367 44.4618 22.168 43.5284 22.168C43.0431 22.168 42.6184 22.042 42.2544 21.79C41.8998 21.538 41.6524 21.202 41.5124 20.782H41.4564V22H39.6644V11.64ZM42.9544 20.684C43.4211 20.684 43.7991 20.53 44.0884 20.222C44.3778 19.914 44.5224 19.4987 44.5224 18.976V17.716C44.5224 17.1933 44.3778 16.778 44.0884 16.47C43.7991 16.1527 43.4211 15.994 42.9544 15.994C42.5251 15.994 42.1658 16.1013 41.8764 16.316C41.5964 16.5307 41.4564 16.8153 41.4564 17.17V19.494C41.4564 19.8767 41.5964 20.1707 41.8764 20.376C42.1658 20.5813 42.5251 20.684 42.9544 20.684ZM53.595 22C53.203 22 52.8903 21.888 52.657 21.664C52.433 21.4307 52.293 21.1227 52.237 20.74H52.153C52.0316 21.216 51.7843 21.5753 51.411 21.818C51.0376 22.0513 50.5756 22.168 50.025 22.168C49.2783 22.168 48.7043 21.972 48.303 21.58C47.9016 21.188 47.701 20.6653 47.701 20.012C47.701 19.256 47.9716 18.696 48.513 18.332C49.0543 17.9587 49.8243 17.772 50.823 17.772H52.069V17.24C52.069 16.8293 51.9616 16.512 51.747 16.288C51.5323 16.064 51.187 15.952 50.711 15.952C50.291 15.952 49.9503 16.0453 49.689 16.232C49.437 16.4093 49.2223 16.624 49.045 16.876L47.981 15.924C48.2516 15.504 48.611 15.168 49.059 14.916C49.507 14.6547 50.0996 14.524 50.837 14.524C51.8263 14.524 52.5776 14.748 53.091 15.196C53.6043 15.644 53.861 16.288 53.861 17.128V20.572H54.589V22H53.595ZM50.627 20.866C51.0283 20.866 51.369 20.7773 51.649 20.6C51.929 20.4227 52.069 20.1613 52.069 19.816V18.85H50.921C49.9876 18.85 49.521 19.1487 49.521 19.746V19.984C49.521 20.2827 49.6143 20.5067 49.801 20.656C49.997 20.796 50.2723 20.866 50.627 20.866ZM56.1993 11.64H57.9913V15.896H58.0473C58.1779 15.476 58.4253 15.1447 58.7893 14.902C59.1533 14.65 59.5779 14.524 60.0633 14.524C60.9966 14.524 61.7059 14.8553 62.1913 15.518C62.6859 16.1713 62.9333 17.1093 62.9333 18.332C62.9333 19.564 62.6859 20.5113 62.1913 21.174C61.7059 21.8367 60.9966 22.168 60.0633 22.168C59.5779 22.168 59.1533 22.042 58.7893 21.79C58.4346 21.538 58.1873 21.202 58.0473 20.782H57.9913V22H56.1993V11.64ZM59.4893 20.684C59.9559 20.684 60.3339 20.53 60.6233 20.222C60.9126 19.914 61.0573 19.4987 61.0573 18.976V17.716C61.0573 17.1933 60.9126 16.778 60.6233 16.47C60.3339 16.1527 59.9559 15.994 59.4893 15.994C59.0599 15.994 58.7006 16.1013 58.4113 16.316C58.1313 16.5307 57.9913 16.8153 57.9913 17.17V19.494C57.9913 19.8767 58.1313 20.1707 58.4113 20.376C58.7006 20.5813 59.0599 20.684 59.4893 20.684ZM65.6498 13.628C65.2765 13.628 65.0058 13.544 64.8378 13.376C64.6791 13.208 64.5998 12.9933 64.5998 12.732V12.452C64.5998 12.1907 64.6791 11.976 64.8378 11.808C65.0058 11.64 65.2765 11.556 65.6498 11.556C66.0138 11.556 66.2798 11.64 66.4478 11.808C66.6158 11.976 66.6998 12.1907 66.6998 12.452V12.732C66.6998 12.9933 66.6158 13.208 66.4478 13.376C66.2798 13.544 66.0138 13.628 65.6498 13.628ZM64.7538 14.692H66.5458V22H64.7538V14.692ZM70.575 22C69.959 22 69.5063 21.846 69.217 21.538C68.9276 21.23 68.783 20.796 68.783 20.236V11.64H70.575V20.572H71.541V22H70.575ZM73.9542 13.628C73.5809 13.628 73.3102 13.544 73.1422 13.376C72.9835 13.208 72.9042 12.9933 72.9042 12.732V12.452C72.9042 12.1907 72.9835 11.976 73.1422 11.808C73.3102 11.64 73.5809 11.556 73.9542 11.556C74.3182 11.556 74.5842 11.64 74.7522 11.808C74.9202 11.976 75.0042 12.1907 75.0042 12.452V12.732C75.0042 12.9933 74.9202 13.208 74.7522 13.376C74.5842 13.544 74.3182 13.628 73.9542 13.628ZM73.0582 14.692H74.8502V22H73.0582V14.692ZM79.3693 22C78.7533 22 78.282 21.8413 77.9553 21.524C77.638 21.1973 77.4793 20.7353 77.4793 20.138V16.12H76.4013V14.692H76.9613C77.232 14.692 77.414 14.6313 77.5073 14.51C77.61 14.3793 77.6613 14.188 77.6613 13.936V12.69H79.2713V14.692H80.7693V16.12H79.2713V20.572H80.6573V22H79.3693ZM86.9637 14.692H88.6437L85.7037 23.302C85.6103 23.5633 85.503 23.7873 85.3817 23.974C85.2697 24.17 85.1343 24.3287 84.9757 24.45C84.817 24.5713 84.6257 24.66 84.4017 24.716C84.1777 24.772 83.9163 24.8 83.6177 24.8H82.5397V23.372H83.8557L84.1917 22.35L81.5737 14.692H83.3517L84.6257 18.556L85.1017 20.404H85.1857L85.6897 18.556L86.9637 14.692Z"/><line x1="192.5" x2="192.5" y2="245" stroke="#DDE1E6"/><circle cx="288" cy="109" r="64" fill="#DDE1E6"/><circle cx="288.894" cy="108.135" r="50.527" fill="#BE95FF" stroke="#491D8B"/><path fill="#491D8B" d="M322.853 76.689L324.621 72.7999L320.732 74.5677L322.853 76.689Z"/><line x1="321.793" x2="289.266" y1="75.629" y2="108.155" stroke="#491D8B"/><rect width="383" height="244" x=".5" y=".5" stroke="#DDE1E6"/></svg>