<svg width="430" height="274" viewBox="0 0 430 274" fill="none" xmlns="http://www.w3.org/2000/svg">
<g clip-path="url(#clip0_1125_20004)">
<rect width="430" height="274" fill="white"/>
<rect opacity="0.4" y="200" width="430" height="40" fill="#F2F4F8"/>
<rect opacity="0.4" y="120" width="430" height="40" fill="#F2F4F8"/>
<rect opacity="0.4" y="40" width="430" height="40" fill="#F2F4F8"/>
<rect x="0.5" y="0.180664" width="429" height="273.319" stroke="#DDE1E6"/>
<path fill-rule="evenodd" clip-rule="evenodd" d="M52.3996 77.2H53.5996C54.5937 77.2 55.3996 76.3942 55.3996 75.4V70.6C55.3996 69.6059 54.5937 68.8 53.5996 68.8H52.3996C51.4055 68.8 50.5996 69.6059 50.5996 70.6V75.4C50.5996 76.3942 51.4055 77.2 52.3996 77.2ZM51.7996 70.6C51.7996 70.2687 52.0682 70 52.3996 70H53.5996C53.931 70 54.1996 70.2687 54.1996 70.6V75.4C54.1996 75.7314 53.931 76 53.5996 76H52.3996C52.0682 76 51.7996 75.7314 51.7996 75.4V70.6Z" fill="#161616"/>
<path d="M58.0545 79L57 78.46L59.6804 73L57 67.54L58.0545 67L61 73L58.0545 79Z" fill="#161616"/>
<rect x="47" y="67" width="1" height="12" fill="#161616"/>
<line x1="69" y1="72.5" x2="331" y2="72.5" stroke="black"/>
<path fill-rule="evenodd" clip-rule="evenodd" d="M52.3996 125.2H53.5996C54.5937 125.2 55.3996 124.394 55.3996 123.4V118.6C55.3996 117.606 54.5937 116.8 53.5996 116.8H52.3996C51.4055 116.8 50.5996 117.606 50.5996 118.6V123.4C50.5996 124.394 51.4055 125.2 52.3996 125.2ZM51.7996 118.6C51.7996 118.269 52.0682 118 52.3996 118H53.5996C53.931 118 54.1996 118.269 54.1996 118.6V123.4C54.1996 123.731 53.931 124 53.5996 124H52.3996C52.0682 124 51.7996 123.731 51.7996 123.4V118.6Z" fill="#161616"/>
<path d="M58.0545 127L57 126.46L59.6804 121L57 115.54L58.0545 115L61 121L58.0545 127Z" fill="#161616"/>
<rect x="47" y="115" width="1" height="12" fill="#161616"/>
<line x1="69" y1="120.5" x2="331" y2="120.5" stroke="black"/>
<path fill-rule="evenodd" clip-rule="evenodd" d="M52.3996 189.2H53.5996C54.5937 189.2 55.3996 188.394 55.3996 187.4V182.6C55.3996 181.606 54.5937 180.8 53.5996 180.8H52.3996C51.4055 180.8 50.5996 181.606 50.5996 182.6V187.4C50.5996 188.394 51.4055 189.2 52.3996 189.2ZM51.7996 182.6C51.7996 182.269 52.0682 182 52.3996 182H53.5996C53.931 182 54.1996 182.269 54.1996 182.6V187.4C54.1996 187.731 53.931 188 53.5996 188H52.3996C52.0682 188 51.7996 187.731 51.7996 187.4V182.6Z" fill="#161616"/>
<path d="M58.0545 191L57 190.46L59.6804 185L57 179.54L58.0545 179L61 185L58.0545 191Z" fill="#161616"/>
<rect x="47" y="179" width="1" height="12" fill="#161616"/>
<line x1="69" y1="184.5" x2="331" y2="184.5" stroke="black"/>
<rect width="70" height="144" transform="translate(91 57)" fill="#1192E8"/>
<rect width="70" height="144" transform="translate(182 57)" fill="#1192E8"/>
<rect x="276" y="57" width="32" height="32" fill="#121619"/>
<path d="M299 72.89L301.427 68.6667L299.408 67.5L296.865 71.8983C292.573 70.3076 287.774 70.9158 284.014 73.5269C280.254 76.1381 278.008 80.4224 278 84.9999H280.333C280.336 81.2518 282.14 77.7333 285.181 75.5426C288.222 73.3518 292.131 72.7556 295.687 73.94L292 80.3333C290.944 80.3322 290.018 81.0409 289.744 82.061C289.47 83.0811 289.915 84.1581 290.83 84.6867C291.744 85.2154 292.9 85.0637 293.647 84.317C294.394 83.5702 294.546 82.4147 294.018 81.5L297.833 74.9083C301.439 76.9902 303.662 80.8361 303.667 84.9999H306C305.995 80.0034 303.327 75.3883 299 72.89Z" fill="white"/>
<rect x="276" y="105" width="32" height="32" fill="#121619"/>
<path d="M299 120.89L301.427 116.667L299.408 115.5L296.865 119.898C292.573 118.308 287.774 118.916 284.014 121.527C280.254 124.138 278.008 128.422 278 133H280.333C280.336 129.252 282.14 125.733 285.181 123.543C288.222 121.352 292.131 120.756 295.687 121.94L292 128.333C290.944 128.332 290.018 129.041 289.744 130.061C289.47 131.081 289.915 132.158 290.83 132.687C291.744 133.215 292.9 133.064 293.647 132.317C294.394 131.57 294.546 130.415 294.018 129.5L297.833 122.908C301.439 124.99 303.662 128.836 303.667 133H306C305.995 128.003 303.327 123.388 299 120.89Z" fill="white"/>
<rect x="276" y="169" width="32" height="32" fill="#121619"/>
<path d="M299 184.89L301.427 180.667L299.408 179.5L296.865 183.898C292.573 182.308 287.774 182.916 284.014 185.527C280.254 188.138 278.008 192.422 278 197H280.333C280.336 193.252 282.14 189.733 285.181 187.543C288.222 185.352 292.131 184.756 295.687 185.94L292 192.333C290.944 192.332 290.018 193.041 289.744 194.061C289.47 195.081 289.915 196.158 290.83 196.687C291.744 197.215 292.9 197.064 293.647 196.317C294.394 195.57 294.546 194.415 294.018 193.5L297.833 186.908C301.439 188.99 303.662 192.836 303.667 197H306C305.995 192.003 303.327 187.388 299 184.89Z" fill="white"/>
<line x1="52" y1="144" x2="52" y2="160" stroke="black" stroke-width="2" stroke-linecap="round" stroke-dasharray="0.1 6"/>
<line x1="292" y1="144" x2="292" y2="160" stroke="black" stroke-width="2" stroke-linecap="round" stroke-dasharray="0.1 6"/>
<path d="M183.582 231H184.702V224.756H186.256V223.776H184.702V221.62H186.256V220.64H185.164C184.1 220.64 183.582 221.326 183.582 222.32V223.776H182.406V224.756H183.582V231ZM190.55 231.168C191.908 231.168 192.944 230.496 193.406 229.516L192.608 228.942C192.23 229.74 191.53 230.188 190.62 230.188C189.276 230.188 188.478 229.25 188.478 228.004V227.668H193.672V227.136C193.672 225.092 192.482 223.608 190.55 223.608C188.59 223.608 187.302 225.092 187.302 227.388C187.302 229.684 188.59 231.168 190.55 231.168ZM190.55 224.546C191.698 224.546 192.468 225.4 192.468 226.674V226.828H188.478V226.73C188.478 225.47 189.332 224.546 190.55 224.546ZM201.558 231V230.02H200.732V226.044C200.732 224.518 199.696 223.608 197.96 223.608C196.658 223.608 195.79 224.252 195.398 225.022L196.07 225.652C196.462 224.994 197.036 224.574 197.904 224.574C199.052 224.574 199.612 225.134 199.612 226.156V226.87H198.184C196.084 226.87 195.104 227.626 195.104 228.984C195.104 230.328 196 231.168 197.526 231.168C198.534 231.168 199.304 230.706 199.612 229.824H199.682C199.766 230.496 200.102 231 200.928 231H201.558ZM197.708 230.216C196.84 230.216 196.28 229.81 196.28 229.096V228.802C196.28 228.102 196.854 227.71 198.128 227.71H199.612V228.9C199.612 229.642 198.814 230.216 197.708 230.216ZM206.312 231V230.02H204.842V224.756H206.424V223.776H204.842V221.774H203.834V223.118C203.834 223.608 203.68 223.776 203.204 223.776H202.532V224.756H203.722V229.81C203.722 230.51 204.142 231 204.912 231H206.312ZM212.837 231H213.957V223.776H212.837V228.774C212.837 229.726 211.969 230.16 211.087 230.16C210.009 230.16 209.435 229.502 209.435 228.214V223.776H208.315V228.41C208.315 230.16 209.267 231.168 210.751 231.168C211.955 231.168 212.501 230.51 212.781 229.824H212.837V231ZM217.622 231V226.1C217.622 225.414 218.35 224.896 219.554 224.896H220.212V223.776H219.778C218.602 223.776 217.944 224.42 217.692 225.106H217.622V223.776H216.502V231H217.622ZM224.45 231.168C225.808 231.168 226.844 230.496 227.306 229.516L226.508 228.942C226.13 229.74 225.43 230.188 224.52 230.188C223.176 230.188 222.378 229.25 222.378 228.004V227.668H227.572V227.136C227.572 225.092 226.382 223.608 224.45 223.608C222.49 223.608 221.202 225.092 221.202 227.388C221.202 229.684 222.49 231.168 224.45 231.168ZM224.45 224.546C225.598 224.546 226.368 225.4 226.368 226.674V226.828H222.378V226.73C222.378 225.47 223.232 224.546 224.45 224.546ZM184.31 251V245.988C184.31 245.064 185.15 244.616 186.032 244.616C187.096 244.616 187.586 245.274 187.586 246.562V251H188.706V245.988C188.706 245.064 189.518 244.616 190.4 244.616C191.492 244.616 191.982 245.288 191.982 246.562V251H193.102V246.366C193.102 244.616 192.22 243.608 190.75 243.608C189.518 243.608 188.818 244.294 188.552 245.078H188.524C188.132 244.042 187.264 243.608 186.312 243.608C185.192 243.608 184.688 244.21 184.366 244.952H184.31V243.776H183.19V251H184.31ZM201.453 251V250.02H200.627V246.044C200.627 244.518 199.591 243.608 197.855 243.608C196.553 243.608 195.685 244.252 195.293 245.022L195.965 245.652C196.357 244.994 196.931 244.574 197.799 244.574C198.947 244.574 199.507 245.134 199.507 246.156V246.87H198.079C195.979 246.87 194.999 247.626 194.999 248.984C194.999 250.328 195.895 251.168 197.421 251.168C198.429 251.168 199.199 250.706 199.507 249.824H199.577C199.661 250.496 199.997 251 200.823 251H201.453ZM197.603 250.216C196.735 250.216 196.175 249.81 196.175 249.096V248.802C196.175 248.102 196.749 247.71 198.023 247.71H199.507V248.9C199.507 249.642 198.709 250.216 197.603 250.216ZM203.211 253.8H204.331V249.824H204.387C204.821 250.72 205.507 251.168 206.501 251.168C208.307 251.168 209.441 249.698 209.441 247.388C209.441 245.078 208.307 243.608 206.501 243.608C205.507 243.608 204.765 244.042 204.387 244.952H204.331V243.776H203.211V253.8ZM206.193 250.16C205.171 250.16 204.331 249.628 204.331 248.69V246.002C204.331 245.204 205.171 244.616 206.193 244.616C207.453 244.616 208.237 245.484 208.237 246.772V248.004C208.237 249.292 207.453 250.16 206.193 250.16Z" fill="black"/>
<path d="M278.31 231V225.988C278.31 225.064 279.15 224.616 280.032 224.616C281.096 224.616 281.586 225.274 281.586 226.562V231H282.706V225.988C282.706 225.064 283.518 224.616 284.4 224.616C285.492 224.616 285.982 225.288 285.982 226.562V231H287.102V226.366C287.102 224.616 286.22 223.608 284.75 223.608C283.518 223.608 282.818 224.294 282.552 225.078H282.524C282.132 224.042 281.264 223.608 280.312 223.608C279.192 223.608 278.688 224.21 278.366 224.952H278.31V223.776H277.19V231H278.31ZM292.289 231.168C293.647 231.168 294.683 230.496 295.145 229.516L294.347 228.942C293.969 229.74 293.269 230.188 292.359 230.188C291.015 230.188 290.217 229.25 290.217 228.004V227.668H295.411V227.136C295.411 225.092 294.221 223.608 292.289 223.608C290.329 223.608 289.041 225.092 289.041 227.388C289.041 229.684 290.329 231.168 292.289 231.168ZM292.289 224.546C293.437 224.546 294.207 225.4 294.207 226.674V226.828H290.217V226.73C290.217 225.47 291.071 224.546 292.289 224.546ZM303.296 231V230.02H302.47V226.044C302.47 224.518 301.434 223.608 299.698 223.608C298.396 223.608 297.528 224.252 297.136 225.022L297.808 225.652C298.2 224.994 298.774 224.574 299.642 224.574C300.79 224.574 301.35 225.134 301.35 226.156V226.87H299.922C297.822 226.87 296.842 227.626 296.842 228.984C296.842 230.328 297.738 231.168 299.264 231.168C300.272 231.168 301.042 230.706 301.35 229.824H301.42C301.504 230.496 301.84 231 302.666 231H303.296ZM299.446 230.216C298.578 230.216 298.018 229.81 298.018 229.096V228.802C298.018 228.102 298.592 227.71 299.866 227.71H301.35V228.9C301.35 229.642 300.552 230.216 299.446 230.216ZM307.225 231.168C308.877 231.168 309.899 230.314 309.899 228.914C309.899 227.822 309.283 227.122 307.687 226.884L307.127 226.8C306.231 226.66 305.741 226.38 305.741 225.68C305.741 224.994 306.231 224.56 307.155 224.56C308.079 224.56 308.695 224.994 309.017 225.442L309.759 224.77C309.171 224.042 308.401 223.608 307.239 223.608C305.769 223.608 304.663 224.308 304.663 225.736C304.663 227.08 305.657 227.626 306.987 227.822L307.561 227.906C308.513 228.046 308.821 228.48 308.821 229.04C308.821 229.782 308.261 230.216 307.309 230.216C306.399 230.216 305.727 229.81 305.167 229.11L304.369 229.754C305.013 230.608 305.895 231.168 307.225 231.168ZM316.489 231H317.609V223.776H316.489V228.774C316.489 229.726 315.621 230.16 314.739 230.16C313.661 230.16 313.087 229.502 313.087 228.214V223.776H311.967V228.41C311.967 230.16 312.919 231.168 314.403 231.168C315.607 231.168 316.153 230.51 316.433 229.824H316.489V231ZM321.274 231V226.1C321.274 225.414 322.002 224.896 323.206 224.896H323.864V223.776H323.43C322.254 223.776 321.596 224.42 321.344 225.106H321.274V223.776H320.154V231H321.274ZM328.102 231.168C329.46 231.168 330.496 230.496 330.958 229.516L330.16 228.942C329.782 229.74 329.082 230.188 328.172 230.188C326.828 230.188 326.03 229.25 326.03 228.004V227.668H331.224V227.136C331.224 225.092 330.034 223.608 328.102 223.608C326.142 223.608 324.854 225.092 324.854 227.388C324.854 229.684 326.142 231.168 328.102 231.168ZM328.102 224.546C329.25 224.546 330.02 225.4 330.02 226.674V226.828H326.03V226.73C326.03 225.47 326.884 224.546 328.102 224.546ZM334.35 231V225.988C334.35 225.064 335.19 224.616 336.072 224.616C337.136 224.616 337.626 225.274 337.626 226.562V231H338.746V225.988C338.746 225.064 339.558 224.616 340.44 224.616C341.532 224.616 342.022 225.288 342.022 226.562V231H343.142V226.366C343.142 224.616 342.26 223.608 340.79 223.608C339.558 223.608 338.858 224.294 338.592 225.078H338.564C338.172 224.042 337.304 223.608 336.352 223.608C335.232 223.608 334.728 224.21 334.406 224.952H334.35V223.776H333.23V231H334.35ZM348.329 231.168C349.687 231.168 350.723 230.496 351.185 229.516L350.387 228.942C350.009 229.74 349.309 230.188 348.399 230.188C347.055 230.188 346.257 229.25 346.257 228.004V227.668H351.451V227.136C351.451 225.092 350.261 223.608 348.329 223.608C346.369 223.608 345.081 225.092 345.081 227.388C345.081 229.684 346.369 231.168 348.329 231.168ZM348.329 224.546C349.477 224.546 350.247 225.4 350.247 226.674V226.828H346.257V226.73C346.257 225.47 347.111 224.546 348.329 224.546ZM354.576 231V225.988C354.576 225.064 355.444 224.616 356.34 224.616C357.418 224.616 357.978 225.274 357.978 226.562V231H359.098V226.366C359.098 224.616 358.16 223.608 356.676 223.608C355.598 223.608 354.982 224.14 354.632 224.952H354.576V223.776H353.456V231H354.576ZM364.569 231V230.02H363.099V224.756H364.681V223.776H363.099V221.774H362.091V223.118C362.091 223.608 361.937 223.776 361.461 223.776H360.789V224.756H361.979V229.81C361.979 230.51 362.399 231 363.169 231H364.569Z" fill="black"/>
<path d="M92.582 231H93.702V224.756H95.256V223.776H93.702V221.62H95.256V220.64H94.164C93.1 220.64 92.582 221.326 92.582 222.32V223.776H91.406V224.756H92.582V231ZM99.5504 231.168C100.908 231.168 101.944 230.496 102.406 229.516L101.608 228.942C101.23 229.74 100.53 230.188 99.6204 230.188C98.2764 230.188 97.4784 229.25 97.4784 228.004V227.668H102.672V227.136C102.672 225.092 101.482 223.608 99.5504 223.608C97.5904 223.608 96.3024 225.092 96.3024 227.388C96.3024 229.684 97.5904 231.168 99.5504 231.168ZM99.5504 224.546C100.698 224.546 101.468 225.4 101.468 226.674V226.828H97.4784V226.73C97.4784 225.47 98.3324 224.546 99.5504 224.546ZM110.558 231V230.02H109.732V226.044C109.732 224.518 108.696 223.608 106.96 223.608C105.658 223.608 104.79 224.252 104.398 225.022L105.07 225.652C105.462 224.994 106.036 224.574 106.904 224.574C108.052 224.574 108.612 225.134 108.612 226.156V226.87H107.184C105.084 226.87 104.104 227.626 104.104 228.984C104.104 230.328 105 231.168 106.526 231.168C107.534 231.168 108.304 230.706 108.612 229.824H108.682C108.766 230.496 109.102 231 109.928 231H110.558ZM106.708 230.216C105.84 230.216 105.28 229.81 105.28 229.096V228.802C105.28 228.102 105.854 227.71 107.128 227.71H108.612V228.9C108.612 229.642 107.814 230.216 106.708 230.216ZM115.312 231V230.02H113.842V224.756H115.424V223.776H113.842V221.774H112.834V223.118C112.834 223.608 112.68 223.776 112.204 223.776H111.532V224.756H112.722V229.81C112.722 230.51 113.142 231 113.912 231H115.312ZM121.837 231H122.957V223.776H121.837V228.774C121.837 229.726 120.969 230.16 120.087 230.16C119.009 230.16 118.435 229.502 118.435 228.214V223.776H117.315V228.41C117.315 230.16 118.267 231.168 119.751 231.168C120.955 231.168 121.501 230.51 121.781 229.824H121.837V231ZM126.622 231V226.1C126.622 225.414 127.35 224.896 128.554 224.896H129.212V223.776H128.778C127.602 223.776 126.944 224.42 126.692 225.106H126.622V223.776H125.502V231H126.622ZM133.45 231.168C134.808 231.168 135.844 230.496 136.306 229.516L135.508 228.942C135.13 229.74 134.43 230.188 133.52 230.188C132.176 230.188 131.378 229.25 131.378 228.004V227.668H136.572V227.136C136.572 225.092 135.382 223.608 133.45 223.608C131.49 223.608 130.202 225.092 130.202 227.388C130.202 229.684 131.49 231.168 133.45 231.168ZM133.45 224.546C134.598 224.546 135.368 225.4 135.368 226.674V226.828H131.378V226.73C131.378 225.47 132.232 224.546 133.45 224.546ZM93.31 251V245.988C93.31 245.064 94.15 244.616 95.032 244.616C96.096 244.616 96.586 245.274 96.586 246.562V251H97.706V245.988C97.706 245.064 98.518 244.616 99.4 244.616C100.492 244.616 100.982 245.288 100.982 246.562V251H102.102V246.366C102.102 244.616 101.22 243.608 99.75 243.608C98.518 243.608 97.818 244.294 97.552 245.078H97.524C97.132 244.042 96.264 243.608 95.312 243.608C94.192 243.608 93.688 244.21 93.366 244.952H93.31V243.776H92.19V251H93.31ZM110.453 251V250.02H109.627V246.044C109.627 244.518 108.591 243.608 106.855 243.608C105.553 243.608 104.685 244.252 104.293 245.022L104.965 245.652C105.357 244.994 105.931 244.574 106.799 244.574C107.947 244.574 108.507 245.134 108.507 246.156V246.87H107.079C104.979 246.87 103.999 247.626 103.999 248.984C103.999 250.328 104.895 251.168 106.421 251.168C107.429 251.168 108.199 250.706 108.507 249.824H108.577C108.661 250.496 108.997 251 109.823 251H110.453ZM106.603 250.216C105.735 250.216 105.175 249.81 105.175 249.096V248.802C105.175 248.102 105.749 247.71 107.023 247.71H108.507V248.9C108.507 249.642 107.709 250.216 106.603 250.216ZM112.211 253.8H113.331V249.824H113.387C113.821 250.72 114.507 251.168 115.501 251.168C117.307 251.168 118.441 249.698 118.441 247.388C118.441 245.078 117.307 243.608 115.501 243.608C114.507 243.608 113.765 244.042 113.387 244.952H113.331V243.776H112.211V253.8ZM115.193 250.16C114.171 250.16 113.331 249.628 113.331 248.69V246.002C113.331 245.204 114.171 244.616 115.193 244.616C116.453 244.616 117.237 245.484 117.237 246.772V248.004C117.237 249.292 116.453 250.16 115.193 250.16Z" fill="black"/>
<line x1="307" y1="75.5" x2="331" y2="75.5" stroke="black"/>
<line x1="307" y1="123.5" x2="331" y2="123.5" stroke="black"/>
<line x1="307" y1="187.5" x2="331" y2="187.5" stroke="black"/>
<path d="M360.579 68.5582C360.687 68.4322 360.777 68.3241 360.777 68.1441C360.777 68.018 360.759 68 360.345 68H352.908C352.493 68 352.475 68.018 352.367 68.3421L351.377 71.5834C351.323 71.7635 351.323 71.7995 351.323 71.8355C351.323 71.9076 351.377 72.0156 351.503 72.0156C351.647 72.0156 351.683 71.9436 351.755 71.7095C352.421 69.7647 353.304 68.5222 356.149 68.5222H359.102L349.234 79.6867C349.072 79.8848 349 79.9568 349 80.1549C349 80.2989 349.09 80.2989 349.432 80.2989H357.121C357.535 80.2989 357.553 80.2809 357.661 79.9568L358.922 75.9772C358.94 75.9232 358.976 75.7971 358.976 75.7251C358.976 75.6351 358.904 75.545 358.796 75.545C358.652 75.545 358.634 75.563 358.49 76.0132C357.734 78.3362 356.941 79.7407 353.808 79.7407H350.693L360.579 68.5582Z" fill="black"/>
<path d="M363.811 75.353C363.811 75.0289 363.787 75.0168 363.463 75.0168C362.971 75.497 362.335 75.7852 361.194 75.7852V76.1813C361.518 76.1813 362.167 76.1813 362.863 75.8572V82.0157C362.863 82.4598 362.827 82.6039 361.687 82.6039H361.266V83.0001C361.759 82.964 362.791 82.964 363.331 82.964C363.871 82.964 364.916 82.964 365.408 83.0001V82.6039H364.988C363.847 82.6039 363.811 82.4598 363.811 82.0157V75.353Z" fill="black"/>
<path d="M359.579 116.558C359.687 116.432 359.777 116.324 359.777 116.144C359.777 116.018 359.759 116 359.345 116H351.908C351.493 116 351.475 116.018 351.367 116.342L350.377 119.583C350.323 119.764 350.323 119.8 350.323 119.836C350.323 119.908 350.377 120.016 350.503 120.016C350.647 120.016 350.683 119.944 350.755 119.709C351.421 117.765 352.304 116.522 355.149 116.522H358.102L348.234 127.687C348.072 127.885 348 127.957 348 128.155C348 128.299 348.09 128.299 348.432 128.299H356.121C356.535 128.299 356.553 128.281 356.661 127.957L357.922 123.977C357.94 123.923 357.976 123.797 357.976 123.725C357.976 123.635 357.904 123.545 357.796 123.545C357.652 123.545 357.634 123.563 357.49 124.013C356.734 126.336 355.941 127.741 352.808 127.741H349.693L359.579 116.558Z" fill="black"/>
<path d="M362.427 128.551C362.619 128.371 363.124 127.975 363.316 127.807C364.06 127.122 364.768 126.462 364.768 125.37C364.768 123.941 363.568 123.017 362.067 123.017C360.627 123.017 359.678 124.109 359.678 125.178C359.678 125.766 360.146 125.85 360.314 125.85C360.567 125.85 360.939 125.67 360.939 125.214C360.939 124.589 360.338 124.589 360.194 124.589C360.543 123.713 361.347 123.413 361.935 123.413C363.052 123.413 363.628 124.361 363.628 125.37C363.628 126.618 362.751 127.531 361.335 128.983L359.822 130.544C359.678 130.676 359.678 130.7 359.678 131H364.42L364.768 128.851H364.396C364.36 129.091 364.264 129.692 364.12 129.92C364.048 130.016 363.136 130.016 362.944 130.016H360.807L362.427 128.551Z" fill="black"/>
<path d="M358.487 180.554C358.594 180.429 358.683 180.322 358.683 180.143C358.683 180.018 358.665 180 358.254 180H350.877C350.466 180 350.448 180.018 350.341 180.339L349.358 183.555C349.304 183.734 349.304 183.769 349.304 183.805C349.304 183.877 349.358 183.984 349.483 183.984C349.626 183.984 349.662 183.912 349.733 183.68C350.394 181.751 351.27 180.518 354.092 180.518H357.022L347.232 191.594C347.071 191.79 347 191.862 347 192.058C347 192.201 347.089 192.201 347.429 192.201H355.057C355.468 192.201 355.486 192.183 355.593 191.862L356.843 187.914C356.861 187.86 356.897 187.735 356.897 187.664C356.897 187.574 356.825 187.485 356.718 187.485C356.575 187.485 356.557 187.503 356.414 187.95C355.664 190.254 354.878 191.647 351.77 191.647H348.679L358.487 180.554Z" fill="black"/>
<path d="M360.336 192.928C360.372 192.749 360.491 192.297 360.527 192.118C360.693 191.475 360.693 191.463 360.967 191.07C361.36 190.486 361.92 189.962 362.718 189.962C363.147 189.962 363.397 190.212 363.397 190.772C363.397 191.427 362.897 192.785 362.67 193.368C362.516 193.761 362.516 193.833 362.516 193.988C362.516 194.667 363.075 195 363.587 195C364.755 195 365.243 193.333 365.243 193.178C365.243 193.059 365.148 193.023 365.064 193.023C364.921 193.023 364.897 193.106 364.862 193.225C364.576 194.202 364.076 194.667 363.623 194.667C363.433 194.667 363.337 194.547 363.337 194.273C363.337 194 363.433 193.738 363.552 193.44C363.73 192.987 364.254 191.618 364.254 190.951C364.254 190.058 363.635 189.629 362.778 189.629C361.813 189.629 361.194 190.212 360.848 190.665C360.765 190.01 360.241 189.629 359.633 189.629C359.205 189.629 358.907 189.903 358.716 190.272C358.431 190.832 358.312 191.427 358.312 191.451C358.312 191.558 358.395 191.606 358.49 191.606C358.645 191.606 358.657 191.558 358.74 191.248C358.883 190.665 359.098 189.962 359.598 189.962C359.907 189.962 359.979 190.26 359.979 190.522C359.979 190.736 359.919 190.963 359.824 191.356C359.8 191.451 359.622 192.154 359.574 192.32L359.133 194.107C359.086 194.285 359.014 194.583 359.014 194.631C359.014 194.905 359.24 195 359.395 195C359.61 195 359.788 194.857 359.872 194.714C359.907 194.643 360.003 194.238 360.062 193.988L360.336 192.928Z" fill="black"/>
<path d="M111.162 133.47C110.658 135.308 109.892 138.022 109.892 139.707C109.892 140.298 110.264 140.561 110.79 140.561C111.665 140.561 113.306 139.62 113.306 139.182C113.306 139.072 113.197 139.029 113.088 139.029C112.825 139.029 112.431 139.226 112.19 139.357C111.906 139.313 111.753 139.094 111.753 138.788C111.753 136.118 114.248 128.458 114.882 126.838C115.145 126.226 115.429 125.328 115.429 125.153C115.429 125 115.298 125 115.211 125C114.751 125 113.766 125.591 113.591 126.007C113.306 126.773 113.263 126.882 113 127.692C112.278 129.771 110.111 133.382 107.945 135.921C107.266 136.687 105.121 139.226 103.567 139.226C102.517 139.226 101.86 138.328 101.86 136.884C101.86 135.352 102.714 133.382 104.027 130.384C104.815 128.589 105.471 127.035 105.471 126.051C105.471 125.022 104.771 125 104.377 125C102.692 125 100.591 126.357 100.591 126.817C100.591 126.948 100.744 126.948 100.832 126.948C101.094 126.948 101.488 126.773 101.838 126.532C101.992 126.423 102.342 126.204 102.933 126.204C103.414 126.204 103.611 126.51 103.611 126.992C103.611 127.955 102.823 129.749 101.904 131.85C100.46 135.133 100 136.534 100 137.803C100 139.248 100.569 140.429 102.123 140.429C103.48 140.429 105.471 139.532 107.704 137.453C109.214 136.03 110.199 134.717 111.14 133.448L111.162 133.47Z" fill="white"/>
<path d="M120.226 141.368C122.94 141.12 124.384 139.69 124.384 138.377C124.384 136.991 122.867 135.605 120.226 135.371V134.584C120.226 134.073 120.226 133.869 121.598 133.869H122.064V133.387C121.408 133.431 120.314 133.431 119.613 133.431C118.913 133.431 117.804 133.431 117.147 133.387V133.869H117.614C118.986 133.869 118.986 134.073 118.986 134.584V135.386C116.549 135.605 114.93 136.947 114.93 138.362C114.93 139.851 116.622 141.135 118.986 141.353V142.156C118.986 142.667 118.986 142.871 117.614 142.871H117.147V143.352C117.804 143.309 118.898 143.309 119.599 143.309C120.299 143.309 121.408 143.309 122.064 143.352V142.871H121.598C120.226 142.871 120.226 142.667 120.226 142.156V141.368ZM118.986 140.945C117.716 140.799 116.403 140.201 116.403 138.377C116.403 136.743 117.439 135.97 118.986 135.795V140.945ZM120.226 135.795C121.51 135.897 122.911 136.48 122.911 138.362C122.911 140.23 121.568 140.828 120.226 140.945V135.795Z" fill="white"/>
<path d="M130.124 147C130.24 147 130.415 147 130.415 146.825C130.415 146.767 130.401 146.752 130.211 146.562C128.212 144.68 127.716 141.966 127.716 139.705C127.716 135.503 129.452 133.533 130.197 132.862C130.401 132.672 130.415 132.658 130.415 132.585C130.415 132.512 130.357 132.41 130.211 132.41C129.978 132.41 129.248 133.154 129.131 133.285C127.176 135.328 126.768 137.954 126.768 139.705C126.768 142.973 128.139 145.599 130.124 147Z" fill="white"/>
<path d="M140.01 134.715L139.659 135.065C139.411 135.328 139.368 135.43 139.368 135.532C139.368 135.707 139.528 135.867 139.703 135.867C139.864 135.867 139.937 135.765 139.98 135.722C140.185 135.488 140.535 135.05 141.221 134.729C141.367 134.656 141.527 134.583 141.527 134.379C141.527 134.19 141.381 134.117 141.308 134.058C140.827 133.766 140.695 133.431 140.622 133.212C140.593 133.095 140.52 132.891 140.287 132.891C140.068 132.891 139.951 133.081 139.951 133.227C139.951 133.314 140.053 133.693 140.301 134.044H135.195C134.961 134.044 134.64 134.044 134.64 134.379C134.64 134.715 134.961 134.715 135.195 134.715H140.01Z" fill="white"/>
<path d="M140.238 137.575C140.34 137.458 140.413 137.37 140.413 137.283C140.413 137.151 140.311 137.064 140.209 137.064C140.107 137.064 140.077 137.093 139.946 137.239L136.488 140.901C135.657 138.61 135.657 138.581 135.321 137.954C135.175 137.647 134.81 136.918 133.439 136.918C132.476 136.918 132.082 137.72 132.082 137.925C132.082 138.041 132.169 138.114 132.301 138.114C132.476 138.114 132.49 138.041 132.534 137.925C132.709 137.487 133.103 137.327 133.322 137.327C134.125 137.327 135.292 141.018 135.569 141.864L131.965 145.687C131.819 145.847 131.79 145.862 131.79 145.964C131.79 146.095 131.892 146.183 132.009 146.183C132.053 146.183 132.111 146.183 132.272 146.008L135.729 142.346C136.868 145.731 137.159 145.877 137.714 146.125C137.947 146.227 138.341 146.329 138.779 146.329C139.683 146.329 140.121 145.57 140.121 145.322C140.121 145.191 140.034 145.132 139.902 145.132C139.742 145.132 139.713 145.205 139.669 145.322C139.552 145.643 139.202 145.92 138.881 145.92C138.443 145.92 137.933 144.782 137.728 144.345C137.393 143.615 137.393 143.586 136.634 141.397L140.238 137.575Z" fill="white"/>
<path d="M144.728 138.749C144.728 138.486 144.531 138.311 144.279 138.311C143.984 138.311 143.666 138.595 143.666 138.913C143.666 139.186 143.863 139.35 144.104 139.35C144.454 139.35 144.728 139.022 144.728 138.749ZM144.071 142.568C144.115 142.458 144.213 142.196 144.257 142.097C144.29 141.999 144.334 141.889 144.334 141.703C144.334 141.09 143.787 140.751 143.24 140.751C142.123 140.751 141.587 142.196 141.587 142.436C141.587 142.491 141.631 142.589 141.784 142.589C141.937 142.589 141.97 142.524 142.003 142.425C142.309 141.364 142.889 141.112 143.196 141.112C143.415 141.112 143.491 141.254 143.491 141.506C143.491 141.725 143.426 141.889 143.404 141.966L142.835 143.366C142.703 143.684 142.703 143.706 142.561 144.078C142.419 144.406 142.364 144.548 142.364 144.734C142.364 145.292 142.867 145.686 143.469 145.686C144.575 145.686 145.122 144.242 145.122 144.001C145.122 143.979 145.111 143.848 144.914 143.848C144.761 143.848 144.75 143.903 144.684 144.11C144.509 144.669 144.06 145.325 143.502 145.325C143.305 145.325 143.207 145.194 143.207 144.931C143.207 144.712 143.272 144.548 143.415 144.209L144.071 142.568Z" fill="white"/>
<path d="M151.216 139.705C151.216 138.319 150.983 136.655 150.078 134.934C149.363 133.591 148.035 132.41 147.773 132.41C147.627 132.41 147.583 132.512 147.583 132.585C147.583 132.643 147.583 132.672 147.758 132.847C149.801 134.788 150.268 137.458 150.268 139.705C150.268 143.892 148.531 145.877 147.787 146.548C147.598 146.737 147.583 146.752 147.583 146.825C147.583 146.898 147.627 147 147.773 147C148.006 147 148.736 146.256 148.852 146.125C150.807 144.082 151.216 141.456 151.216 139.705Z" fill="white"/>
<path d="M202.461 134.279C201.989 136.002 201.271 138.546 201.271 140.125C201.271 140.679 201.62 140.925 202.112 140.925C202.933 140.925 204.471 140.043 204.471 139.633C204.471 139.53 204.368 139.489 204.266 139.489C204.02 139.489 203.651 139.674 203.425 139.797C203.158 139.756 203.015 139.551 203.015 139.264C203.015 136.761 205.353 129.582 205.948 128.064C206.194 127.49 206.461 126.649 206.461 126.485C206.461 126.341 206.338 126.341 206.256 126.341C205.825 126.341 204.902 126.895 204.738 127.285C204.471 128.003 204.43 128.105 204.184 128.864C203.507 130.813 201.476 134.197 199.446 136.577C198.81 137.294 196.8 139.674 195.343 139.674C194.359 139.674 193.743 138.833 193.743 137.479C193.743 136.043 194.543 134.197 195.774 131.387C196.513 129.705 197.128 128.249 197.128 127.326C197.128 126.362 196.472 126.341 196.102 126.341C194.523 126.341 192.554 127.613 192.554 128.044C192.554 128.167 192.697 128.167 192.779 128.167C193.026 128.167 193.395 128.003 193.723 127.777C193.867 127.675 194.195 127.469 194.749 127.469C195.2 127.469 195.384 127.757 195.384 128.208C195.384 129.11 194.646 130.792 193.785 132.761C192.431 135.838 192 137.151 192 138.341C192 139.694 192.533 140.802 193.99 140.802C195.261 140.802 197.128 139.961 199.22 138.012C200.635 136.679 201.558 135.448 202.44 134.259L202.461 134.279Z" fill="white"/>
<path d="M210.614 124.925C210.942 124.966 210.969 124.966 211.571 125.13C211.776 125.184 212.077 125.253 212.296 125.253C212.829 125.253 212.856 124.801 212.856 124.747C212.856 124.596 212.788 124.227 212.296 124.227C211.981 124.227 211.571 124.337 211.325 124.419C210.969 124.514 210.887 124.528 210.614 124.555C210.641 124.159 210.682 123.749 210.819 122.887C210.901 122.463 210.956 122.039 210.956 121.615C210.956 121.41 210.901 121 210.45 121C209.93 121 209.93 121.492 209.93 121.615C209.93 121.656 209.93 122.135 210.067 122.887C210.176 123.598 210.245 124.063 210.272 124.555C209.944 124.514 209.916 124.514 209.315 124.35C209.11 124.296 208.809 124.227 208.59 124.227C208.057 124.227 208.029 124.678 208.029 124.733C208.029 124.884 208.098 125.253 208.59 125.253C208.904 125.253 209.315 125.143 209.561 125.061C209.916 124.966 209.998 124.952 210.272 124.925C210.245 125.294 210.19 125.567 210.108 125.923C209.93 126.798 209.93 126.935 209.93 127.632C209.93 130.189 210.176 132.897 210.217 133.28C210.245 133.471 210.245 133.567 210.436 133.567C210.627 133.567 210.641 133.471 210.668 133.307C210.737 132.733 210.792 131.857 210.833 131.256C210.874 130.681 210.956 128.958 210.956 127.632C210.956 127.017 210.956 126.784 210.792 126.046C210.792 126.005 210.641 125.321 210.614 124.925Z" fill="white"/>
<path d="M210.956 144.963C213.5 144.731 214.853 143.391 214.853 142.16C214.853 140.861 213.431 139.562 210.956 139.343V138.605C210.956 138.126 210.956 137.935 212.242 137.935H212.679V137.484C212.064 137.525 211.038 137.525 210.382 137.525C209.726 137.525 208.686 137.525 208.071 137.484V137.935H208.509C209.794 137.935 209.794 138.126 209.794 138.605V139.357C207.51 139.562 205.992 140.82 205.992 142.146C205.992 143.541 207.579 144.745 209.794 144.95V145.702C209.794 146.18 209.794 146.372 208.509 146.372H208.071V146.823C208.686 146.782 209.712 146.782 210.368 146.782C211.025 146.782 212.064 146.782 212.679 146.823V146.372H212.242C210.956 146.372 210.956 146.18 210.956 145.702V144.963ZM209.794 144.567C208.604 144.43 207.374 143.869 207.374 142.16C207.374 140.629 208.344 139.904 209.794 139.74V144.567ZM210.956 139.74C212.16 139.836 213.472 140.382 213.472 142.146C213.472 143.897 212.214 144.457 210.956 144.567V139.74Z" fill="white"/>
<path d="M220.233 150.242C220.342 150.242 220.506 150.242 220.506 150.078C220.506 150.023 220.492 150.009 220.315 149.831C218.441 148.068 217.976 145.524 217.976 143.405C217.976 139.466 219.603 137.62 220.301 136.991C220.492 136.814 220.506 136.8 220.506 136.731C220.506 136.663 220.451 136.567 220.315 136.567C220.096 136.567 219.412 137.265 219.303 137.388C217.47 139.302 217.087 141.764 217.087 143.405C217.087 146.468 218.373 148.929 220.233 150.242Z" fill="white"/>
<path d="M229.497 138.728L229.169 139.056C228.937 139.302 228.896 139.398 228.896 139.494C228.896 139.658 229.046 139.808 229.21 139.808C229.361 139.808 229.429 139.712 229.47 139.671C229.661 139.453 229.99 139.042 230.632 138.742C230.769 138.673 230.919 138.605 230.919 138.413C230.919 138.236 230.783 138.167 230.714 138.113C230.263 137.839 230.14 137.525 230.072 137.319C230.044 137.21 229.976 137.019 229.757 137.019C229.552 137.019 229.443 137.196 229.443 137.333C229.443 137.415 229.538 137.771 229.771 138.099H224.985C224.766 138.099 224.465 138.099 224.465 138.413C224.465 138.728 224.766 138.728 224.985 138.728H229.497Z" fill="white"/>
<path d="M229.712 141.408C229.807 141.299 229.876 141.217 229.876 141.135C229.876 141.012 229.78 140.93 229.684 140.93C229.589 140.93 229.561 140.957 229.438 141.094L226.197 144.526C225.418 142.379 225.418 142.352 225.103 141.764C224.967 141.477 224.625 140.793 223.339 140.793C222.437 140.793 222.068 141.545 222.068 141.736C222.068 141.846 222.15 141.914 222.273 141.914C222.437 141.914 222.451 141.846 222.492 141.736C222.656 141.326 223.025 141.176 223.23 141.176C223.982 141.176 225.076 144.635 225.336 145.429L221.958 149.011C221.822 149.162 221.794 149.175 221.794 149.271C221.794 149.394 221.89 149.476 221.999 149.476C222.04 149.476 222.095 149.476 222.245 149.312L225.486 145.88C226.553 149.052 226.826 149.189 227.346 149.421C227.565 149.517 227.934 149.613 228.344 149.613C229.192 149.613 229.602 148.902 229.602 148.669C229.602 148.546 229.52 148.492 229.397 148.492C229.247 148.492 229.219 148.56 229.178 148.669C229.069 148.97 228.741 149.23 228.44 149.23C228.03 149.23 227.551 148.163 227.36 147.753C227.045 147.069 227.045 147.042 226.334 144.991L229.712 141.408Z" fill="white"/>
<path d="M235.109 142.508C235.109 142.2 234.863 142.098 234.699 142.098C234.371 142.098 234.114 142.416 234.114 142.662C234.114 142.877 234.279 143.072 234.535 143.072C234.802 143.072 235.109 142.816 235.109 142.508ZM232.925 149.369C232.73 150.138 232.125 150.661 231.53 150.661C231.499 150.661 231.212 150.651 231.212 150.61C231.212 150.6 231.243 150.579 231.243 150.569C231.397 150.446 231.468 150.282 231.468 150.128C231.468 149.8 231.202 149.728 231.058 149.728C230.781 149.728 230.474 149.954 230.474 150.333C230.474 150.877 231.12 151 231.54 151C232.227 151 233.458 150.61 233.766 149.379L234.689 145.708C234.709 145.605 234.74 145.513 234.74 145.369C234.74 144.795 234.227 144.385 233.571 144.385C232.412 144.385 231.694 145.769 231.694 145.964C231.694 146.026 231.735 146.108 231.879 146.108C232.022 146.108 232.033 146.067 232.104 145.923C232.402 145.257 232.976 144.723 233.54 144.723C233.848 144.723 233.92 144.98 233.92 145.236C233.92 145.369 233.899 145.513 233.889 145.544L232.925 149.369Z" fill="white"/>
<path d="M241.272 143.405C241.272 142.105 241.053 140.547 240.205 138.933C239.535 137.675 238.291 136.567 238.044 136.567C237.908 136.567 237.867 136.663 237.867 136.731C237.867 136.786 237.867 136.814 238.031 136.978C239.945 138.796 240.383 141.299 240.383 143.405C240.383 147.329 238.756 149.189 238.058 149.818C237.88 149.996 237.867 150.009 237.867 150.078C237.867 150.146 237.908 150.242 238.044 150.242C238.263 150.242 238.947 149.544 239.056 149.421C240.889 147.507 241.272 145.045 241.272 143.405Z" fill="white"/>
</g>
<defs>
<clipPath id="clip0_1125_20004">
<rect width="430" height="274" fill="white"/>
</clipPath>
</defs>
</svg>
