<svg width="506" height="274" viewBox="0 0 506 274" fill="none" xmlns="http://www.w3.org/2000/svg">
<g clip-path="url(#clip0_1125_22962)">
<rect width="506" height="274" fill="white"/>
<rect opacity="0.4" y="200" width="506" height="40" fill="#F2F4F8"/>
<rect opacity="0.4" y="120" width="506" height="40" fill="#F2F4F8"/>
<rect opacity="0.4" y="40" width="506" height="40" fill="#F2F4F8"/>
<rect x="0.5" y="0.180664" width="505" height="273.319" stroke="#DDE1E6"/>
<path fill-rule="evenodd" clip-rule="evenodd" d="M52.3996 77.1998H53.5996C54.5937 77.1998 55.3996 76.3939 55.3996 75.3998V70.5998C55.3996 69.6057 54.5937 68.7998 53.5996 68.7998H52.3996C51.4055 68.7998 50.5996 69.6057 50.5996 70.5998V75.3998C50.5996 76.3939 51.4055 77.1998 52.3996 77.1998ZM51.7996 70.5998C51.7996 70.2684 52.0682 69.9998 52.3996 69.9998H53.5996C53.931 69.9998 54.1996 70.2684 54.1996 70.5998V75.3998C54.1996 75.7312 53.931 75.9998 53.5996 75.9998H52.3996C52.0682 75.9998 51.7996 75.7312 51.7996 75.3998V70.5998Z" fill="#161616"/>
<path d="M58.0545 79L57 78.46L59.6804 73L57 67.54L58.0545 67L61 73L58.0545 79Z" fill="#161616"/>
<rect x="47" y="67" width="1" height="12" fill="#161616"/>
<line x1="69" y1="72.5" x2="331" y2="72.5" stroke="black"/>
<path fill-rule="evenodd" clip-rule="evenodd" d="M52.3996 125.2H53.5996C54.5937 125.2 55.3996 124.394 55.3996 123.4V118.6C55.3996 117.606 54.5937 116.8 53.5996 116.8H52.3996C51.4055 116.8 50.5996 117.606 50.5996 118.6V123.4C50.5996 124.394 51.4055 125.2 52.3996 125.2ZM51.7996 118.6C51.7996 118.268 52.0682 118 52.3996 118H53.5996C53.931 118 54.1996 118.268 54.1996 118.6V123.4C54.1996 123.731 53.931 124 53.5996 124H52.3996C52.0682 124 51.7996 123.731 51.7996 123.4V118.6Z" fill="#161616"/>
<path d="M58.0545 127L57 126.46L59.6804 121L57 115.54L58.0545 115L61 121L58.0545 127Z" fill="#161616"/>
<rect x="47" y="115" width="1" height="12" fill="#161616"/>
<line x1="69" y1="120.5" x2="331" y2="120.5" stroke="black"/>
<path fill-rule="evenodd" clip-rule="evenodd" d="M52.3996 189.2H53.5996C54.5937 189.2 55.3996 188.394 55.3996 187.4V182.6C55.3996 181.606 54.5937 180.8 53.5996 180.8H52.3996C51.4055 180.8 50.5996 181.606 50.5996 182.6V187.4C50.5996 188.394 51.4055 189.2 52.3996 189.2ZM51.7996 182.6C51.7996 182.268 52.0682 182 52.3996 182H53.5996C53.931 182 54.1996 182.268 54.1996 182.6V187.4C54.1996 187.731 53.931 188 53.5996 188H52.3996C52.0682 188 51.7996 187.731 51.7996 187.4V182.6Z" fill="#161616"/>
<path d="M58.0545 191L57 190.46L59.6804 185L57 179.54L58.0545 179L61 185L58.0545 191Z" fill="#161616"/>
<rect x="47" y="179" width="1" height="12" fill="#161616"/>
<line x1="69" y1="184.5" x2="331" y2="184.5" stroke="black"/>
<rect width="70" height="144" transform="translate(91 57)" fill="#1192E8"/>
<rect width="70" height="144" transform="translate(182 57)" fill="#1192E8"/>
<rect x="276" y="57" width="32" height="32" fill="#121619"/>
<path d="M299 72.89L301.427 68.6667L299.408 67.5L296.865 71.8983C292.573 70.3076 287.774 70.9158 284.014 73.5269C280.254 76.1381 278.008 80.4224 278 84.9999H280.333C280.336 81.2518 282.14 77.7333 285.181 75.5426C288.222 73.3518 292.131 72.7556 295.687 73.94L292 80.3333C290.944 80.3322 290.018 81.0409 289.744 82.061C289.47 83.0811 289.915 84.1581 290.83 84.6867C291.744 85.2154 292.9 85.0637 293.647 84.317C294.394 83.5702 294.546 82.4147 294.018 81.5L297.833 74.9083C301.439 76.9902 303.662 80.8361 303.667 84.9999H306C305.995 80.0034 303.327 75.3883 299 72.89Z" fill="white"/>
<rect x="276" y="105" width="32" height="32" fill="#121619"/>
<path d="M299 120.89L301.427 116.667L299.408 115.5L296.865 119.898C292.573 118.308 287.774 118.916 284.014 121.527C280.254 124.138 278.008 128.422 278 133H280.333C280.336 129.252 282.14 125.733 285.181 123.543C288.222 121.352 292.131 120.756 295.687 121.94L292 128.333C290.944 128.332 290.018 129.041 289.744 130.061C289.47 131.081 289.915 132.158 290.83 132.687C291.744 133.215 292.9 133.064 293.647 132.317C294.394 131.57 294.546 130.415 294.018 129.5L297.833 122.908C301.439 124.99 303.662 128.836 303.667 133H306C305.995 128.003 303.327 123.388 299 120.89Z" fill="white"/>
<rect x="276" y="169" width="32" height="32" fill="#121619"/>
<path d="M299 184.89L301.427 180.667L299.408 179.5L296.865 183.898C292.573 182.308 287.774 182.916 284.014 185.527C280.254 188.138 278.008 192.422 278 197H280.333C280.336 193.252 282.14 189.733 285.181 187.543C288.222 185.352 292.131 184.756 295.687 185.94L292 192.333C290.944 192.332 290.018 193.041 289.744 194.061C289.47 195.081 289.915 196.158 290.83 196.687C291.744 197.215 292.9 197.064 293.647 196.317C294.394 195.57 294.546 194.415 294.018 193.5L297.833 186.908C301.439 188.99 303.662 192.836 303.667 197H306C305.995 192.003 303.327 187.388 299 184.89Z" fill="white"/>
<line x1="52" y1="144" x2="52" y2="160" stroke="black" stroke-width="2" stroke-linecap="round" stroke-dasharray="0.1 6"/>
<line x1="292" y1="144" x2="292" y2="160" stroke="black" stroke-width="2" stroke-linecap="round" stroke-dasharray="0.1 6"/>
<path d="M186.088 231L188.636 223.776H187.558L186.27 227.36L185.486 229.824H185.416L184.632 227.36L183.372 223.776H182.252L184.786 231H186.088ZM195.998 231V230.02H195.172V226.044C195.172 224.518 194.136 223.608 192.4 223.608C191.098 223.608 190.23 224.252 189.838 225.022L190.51 225.652C190.902 224.994 191.476 224.574 192.344 224.574C193.492 224.574 194.052 225.134 194.052 226.156V226.87H192.624C190.524 226.87 189.544 227.626 189.544 228.984C189.544 230.328 190.44 231.168 191.966 231.168C192.974 231.168 193.744 230.706 194.052 229.824H194.122C194.206 230.496 194.542 231 195.368 231H195.998ZM192.148 230.216C191.28 230.216 190.72 229.81 190.72 229.096V228.802C190.72 228.102 191.294 227.71 192.568 227.71H194.052V228.9C194.052 229.642 193.254 230.216 192.148 230.216ZM198.876 231V226.1C198.876 225.414 199.604 224.896 200.808 224.896H201.466V223.776H201.032C199.856 223.776 199.198 224.42 198.946 225.106H198.876V223.776H197.756V231H198.876ZM203.617 222.082C204.093 222.082 204.303 221.83 204.303 221.452V221.27C204.303 220.892 204.093 220.64 203.617 220.64C203.141 220.64 202.931 220.892 202.931 221.27V221.452C202.931 221.83 203.141 222.082 203.617 222.082ZM203.057 231H204.177V223.776H203.057V231ZM212.597 231V230.02H211.771V226.044C211.771 224.518 210.735 223.608 208.999 223.608C207.697 223.608 206.829 224.252 206.437 225.022L207.109 225.652C207.501 224.994 208.075 224.574 208.943 224.574C210.091 224.574 210.651 225.134 210.651 226.156V226.87H209.223C207.123 226.87 206.143 227.626 206.143 228.984C206.143 230.328 207.039 231.168 208.565 231.168C209.573 231.168 210.343 230.706 210.651 229.824H210.721C210.805 230.496 211.141 231 211.967 231H212.597ZM208.747 230.216C207.879 230.216 207.319 229.81 207.319 229.096V228.802C207.319 228.102 207.893 227.71 209.167 227.71H210.651V228.9C210.651 229.642 209.853 230.216 208.747 230.216ZM217.351 231V230.02H215.881V224.756H217.463V223.776H215.881V221.774H214.873V223.118C214.873 223.608 214.719 223.776 214.243 223.776H213.571V224.756H214.761V229.81C214.761 230.51 215.181 231 215.951 231H217.351ZM219.983 222.082C220.459 222.082 220.669 221.83 220.669 221.452V221.27C220.669 220.892 220.459 220.64 219.983 220.64C219.507 220.64 219.297 220.892 219.297 221.27V221.452C219.297 221.83 219.507 222.082 219.983 222.082ZM219.423 231H220.543V223.776H219.423V231ZM225.813 231.168C227.745 231.168 229.075 229.684 229.075 227.388C229.075 225.092 227.745 223.608 225.813 223.608C223.881 223.608 222.551 225.092 222.551 227.388C222.551 229.684 223.881 231.168 225.813 231.168ZM225.813 230.174C224.609 230.174 223.755 229.432 223.755 227.906V226.87C223.755 225.344 224.609 224.602 225.813 224.602C227.017 224.602 227.871 225.344 227.871 226.87V227.906C227.871 229.432 227.017 230.174 225.813 230.174ZM232.197 231V225.988C232.197 225.064 233.065 224.616 233.961 224.616C235.039 224.616 235.599 225.274 235.599 226.562V231H236.719V226.366C236.719 224.616 235.781 223.608 234.297 223.608C233.219 223.608 232.603 224.14 232.253 224.952H232.197V223.776H231.077V231H232.197ZM245.074 231V230.02H244.248V226.044C244.248 224.518 243.212 223.608 241.476 223.608C240.174 223.608 239.306 224.252 238.914 225.022L239.586 225.652C239.978 224.994 240.552 224.574 241.42 224.574C242.568 224.574 243.128 225.134 243.128 226.156V226.87H241.7C239.6 226.87 238.62 227.626 238.62 228.984C238.62 230.328 239.516 231.168 241.042 231.168C242.05 231.168 242.82 230.706 243.128 229.824H243.198C243.282 230.496 243.618 231 244.444 231H245.074ZM241.224 230.216C240.356 230.216 239.796 229.81 239.796 229.096V228.802C239.796 228.102 240.37 227.71 241.644 227.71H243.128V228.9C243.128 229.642 242.33 230.216 241.224 230.216ZM249.017 231V230.02H247.953V220.64H246.833V229.838C246.833 230.51 247.253 231 248.023 231H249.017ZM184.31 251V245.988C184.31 245.064 185.15 244.616 186.032 244.616C187.096 244.616 187.586 245.274 187.586 246.562V251H188.706V245.988C188.706 245.064 189.518 244.616 190.4 244.616C191.492 244.616 191.982 245.288 191.982 246.562V251H193.102V246.366C193.102 244.616 192.22 243.608 190.75 243.608C189.518 243.608 188.818 244.294 188.552 245.078H188.524C188.132 244.042 187.264 243.608 186.312 243.608C185.192 243.608 184.688 244.21 184.366 244.952H184.31V243.776H183.19V251H184.31ZM198.303 251.168C200.235 251.168 201.565 249.684 201.565 247.388C201.565 245.092 200.235 243.608 198.303 243.608C196.371 243.608 195.041 245.092 195.041 247.388C195.041 249.684 196.371 251.168 198.303 251.168ZM198.303 250.174C197.099 250.174 196.245 249.432 196.245 247.906V246.87C196.245 245.344 197.099 244.602 198.303 244.602C199.507 244.602 200.361 245.344 200.361 246.87V247.906C200.361 249.432 199.507 250.174 198.303 250.174ZM208.187 251H209.307V240.64H208.187V244.952H208.131C207.753 244.042 207.011 243.608 206.017 243.608C204.211 243.608 203.077 245.078 203.077 247.388C203.077 249.698 204.211 251.168 206.017 251.168C207.011 251.168 207.697 250.72 208.131 249.824H208.187V251ZM206.325 250.16C205.065 250.16 204.281 249.292 204.281 248.004V246.772C204.281 245.484 205.065 244.616 206.325 244.616C207.347 244.616 208.187 245.204 208.187 246.002V248.69C208.187 249.628 207.347 250.16 206.325 250.16ZM214.564 251.168C215.922 251.168 216.958 250.496 217.42 249.516L216.622 248.942C216.244 249.74 215.544 250.188 214.634 250.188C213.29 250.188 212.492 249.25 212.492 248.004V247.668H217.686V247.136C217.686 245.092 216.496 243.608 214.564 243.608C212.604 243.608 211.316 245.092 211.316 247.388C211.316 249.684 212.604 251.168 214.564 251.168ZM214.564 244.546C215.712 244.546 216.482 245.4 216.482 246.674V246.828H212.492V246.73C212.492 245.47 213.346 244.546 214.564 244.546ZM221.875 251V250.02H220.811V240.64H219.691V249.838C219.691 250.51 220.111 251 220.881 251H221.875Z" fill="black"/>
<path d="M278.31 231V225.988C278.31 225.064 279.15 224.616 280.032 224.616C281.096 224.616 281.586 225.274 281.586 226.562V231H282.706V225.988C282.706 225.064 283.518 224.616 284.4 224.616C285.492 224.616 285.982 225.288 285.982 226.562V231H287.102V226.366C287.102 224.616 286.22 223.608 284.75 223.608C283.518 223.608 282.818 224.294 282.552 225.078H282.524C282.132 224.042 281.264 223.608 280.312 223.608C279.192 223.608 278.688 224.21 278.366 224.952H278.31V223.776H277.19V231H278.31ZM292.289 231.168C293.647 231.168 294.683 230.496 295.145 229.516L294.347 228.942C293.969 229.74 293.269 230.188 292.359 230.188C291.015 230.188 290.217 229.25 290.217 228.004V227.668H295.411V227.136C295.411 225.092 294.221 223.608 292.289 223.608C290.329 223.608 289.041 225.092 289.041 227.388C289.041 229.684 290.329 231.168 292.289 231.168ZM292.289 224.546C293.437 224.546 294.207 225.4 294.207 226.674V226.828H290.217V226.73C290.217 225.47 291.071 224.546 292.289 224.546ZM303.296 231V230.02H302.47V226.044C302.47 224.518 301.434 223.608 299.698 223.608C298.396 223.608 297.528 224.252 297.136 225.022L297.808 225.652C298.2 224.994 298.774 224.574 299.642 224.574C300.79 224.574 301.35 225.134 301.35 226.156V226.87H299.922C297.822 226.87 296.842 227.626 296.842 228.984C296.842 230.328 297.738 231.168 299.264 231.168C300.272 231.168 301.042 230.706 301.35 229.824H301.42C301.504 230.496 301.84 231 302.666 231H303.296ZM299.446 230.216C298.578 230.216 298.018 229.81 298.018 229.096V228.802C298.018 228.102 298.592 227.71 299.866 227.71H301.35V228.9C301.35 229.642 300.552 230.216 299.446 230.216ZM307.225 231.168C308.877 231.168 309.899 230.314 309.899 228.914C309.899 227.822 309.283 227.122 307.687 226.884L307.127 226.8C306.231 226.66 305.741 226.38 305.741 225.68C305.741 224.994 306.231 224.56 307.155 224.56C308.079 224.56 308.695 224.994 309.017 225.442L309.759 224.77C309.171 224.042 308.401 223.608 307.239 223.608C305.769 223.608 304.663 224.308 304.663 225.736C304.663 227.08 305.657 227.626 306.987 227.822L307.561 227.906C308.513 228.046 308.821 228.48 308.821 229.04C308.821 229.782 308.261 230.216 307.309 230.216C306.399 230.216 305.727 229.81 305.167 229.11L304.369 229.754C305.013 230.608 305.895 231.168 307.225 231.168ZM316.489 231H317.609V223.776H316.489V228.774C316.489 229.726 315.621 230.16 314.739 230.16C313.661 230.16 313.087 229.502 313.087 228.214V223.776H311.967V228.41C311.967 230.16 312.919 231.168 314.403 231.168C315.607 231.168 316.153 230.51 316.433 229.824H316.489V231ZM321.274 231V226.1C321.274 225.414 322.002 224.896 323.206 224.896H323.864V223.776H323.43C322.254 223.776 321.596 224.42 321.344 225.106H321.274V223.776H320.154V231H321.274ZM328.102 231.168C329.46 231.168 330.496 230.496 330.958 229.516L330.16 228.942C329.782 229.74 329.082 230.188 328.172 230.188C326.828 230.188 326.03 229.25 326.03 228.004V227.668H331.224V227.136C331.224 225.092 330.034 223.608 328.102 223.608C326.142 223.608 324.854 225.092 324.854 227.388C324.854 229.684 326.142 231.168 328.102 231.168ZM328.102 224.546C329.25 224.546 330.02 225.4 330.02 226.674V226.828H326.03V226.73C326.03 225.47 326.884 224.546 328.102 224.546ZM334.35 231V225.988C334.35 225.064 335.19 224.616 336.072 224.616C337.136 224.616 337.626 225.274 337.626 226.562V231H338.746V225.988C338.746 225.064 339.558 224.616 340.44 224.616C341.532 224.616 342.022 225.288 342.022 226.562V231H343.142V226.366C343.142 224.616 342.26 223.608 340.79 223.608C339.558 223.608 338.858 224.294 338.592 225.078H338.564C338.172 224.042 337.304 223.608 336.352 223.608C335.232 223.608 334.728 224.21 334.406 224.952H334.35V223.776H333.23V231H334.35ZM348.329 231.168C349.687 231.168 350.723 230.496 351.185 229.516L350.387 228.942C350.009 229.74 349.309 230.188 348.399 230.188C347.055 230.188 346.257 229.25 346.257 228.004V227.668H351.451V227.136C351.451 225.092 350.261 223.608 348.329 223.608C346.369 223.608 345.081 225.092 345.081 227.388C345.081 229.684 346.369 231.168 348.329 231.168ZM348.329 224.546C349.477 224.546 350.247 225.4 350.247 226.674V226.828H346.257V226.73C346.257 225.47 347.111 224.546 348.329 224.546ZM354.576 231V225.988C354.576 225.064 355.444 224.616 356.34 224.616C357.418 224.616 357.978 225.274 357.978 226.562V231H359.098V226.366C359.098 224.616 358.16 223.608 356.676 223.608C355.598 223.608 354.982 224.14 354.632 224.952H354.576V223.776H353.456V231H354.576ZM364.569 231V230.02H363.099V224.756H364.681V223.776H363.099V221.774H362.091V223.118C362.091 223.608 361.937 223.776 361.461 223.776H360.789V224.756H361.979V229.81C361.979 230.51 362.399 231 363.169 231H364.569Z" fill="black"/>
<path d="M92.582 231H93.702V224.756H95.256V223.776H93.702V221.62H95.256V220.64H94.164C93.1 220.64 92.582 221.326 92.582 222.32V223.776H91.406V224.756H92.582V231ZM99.5504 231.168C100.908 231.168 101.944 230.496 102.406 229.516L101.608 228.942C101.23 229.74 100.53 230.188 99.6204 230.188C98.2764 230.188 97.4784 229.25 97.4784 228.004V227.668H102.672V227.136C102.672 225.092 101.482 223.608 99.5504 223.608C97.5904 223.608 96.3024 225.092 96.3024 227.388C96.3024 229.684 97.5904 231.168 99.5504 231.168ZM99.5504 224.546C100.698 224.546 101.468 225.4 101.468 226.674V226.828H97.4784V226.73C97.4784 225.47 98.3324 224.546 99.5504 224.546ZM110.558 231V230.02H109.732V226.044C109.732 224.518 108.696 223.608 106.96 223.608C105.658 223.608 104.79 224.252 104.398 225.022L105.07 225.652C105.462 224.994 106.036 224.574 106.904 224.574C108.052 224.574 108.612 225.134 108.612 226.156V226.87H107.184C105.084 226.87 104.104 227.626 104.104 228.984C104.104 230.328 105 231.168 106.526 231.168C107.534 231.168 108.304 230.706 108.612 229.824H108.682C108.766 230.496 109.102 231 109.928 231H110.558ZM106.708 230.216C105.84 230.216 105.28 229.81 105.28 229.096V228.802C105.28 228.102 105.854 227.71 107.128 227.71H108.612V228.9C108.612 229.642 107.814 230.216 106.708 230.216ZM115.312 231V230.02H113.842V224.756H115.424V223.776H113.842V221.774H112.834V223.118C112.834 223.608 112.68 223.776 112.204 223.776H111.532V224.756H112.722V229.81C112.722 230.51 113.142 231 113.912 231H115.312ZM121.837 231H122.957V223.776H121.837V228.774C121.837 229.726 120.969 230.16 120.087 230.16C119.009 230.16 118.435 229.502 118.435 228.214V223.776H117.315V228.41C117.315 230.16 118.267 231.168 119.751 231.168C120.955 231.168 121.501 230.51 121.781 229.824H121.837V231ZM126.622 231V226.1C126.622 225.414 127.35 224.896 128.554 224.896H129.212V223.776H128.778C127.602 223.776 126.944 224.42 126.692 225.106H126.622V223.776H125.502V231H126.622ZM133.45 231.168C134.808 231.168 135.844 230.496 136.306 229.516L135.508 228.942C135.13 229.74 134.43 230.188 133.52 230.188C132.176 230.188 131.378 229.25 131.378 228.004V227.668H136.572V227.136C136.572 225.092 135.382 223.608 133.45 223.608C131.49 223.608 130.202 225.092 130.202 227.388C130.202 229.684 131.49 231.168 133.45 231.168ZM133.45 224.546C134.598 224.546 135.368 225.4 135.368 226.674V226.828H131.378V226.73C131.378 225.47 132.232 224.546 133.45 224.546ZM93.31 251V245.988C93.31 245.064 94.15 244.616 95.032 244.616C96.096 244.616 96.586 245.274 96.586 246.562V251H97.706V245.988C97.706 245.064 98.518 244.616 99.4 244.616C100.492 244.616 100.982 245.288 100.982 246.562V251H102.102V246.366C102.102 244.616 101.22 243.608 99.75 243.608C98.518 243.608 97.818 244.294 97.552 245.078H97.524C97.132 244.042 96.264 243.608 95.312 243.608C94.192 243.608 93.688 244.21 93.366 244.952H93.31V243.776H92.19V251H93.31ZM110.453 251V250.02H109.627V246.044C109.627 244.518 108.591 243.608 106.855 243.608C105.553 243.608 104.685 244.252 104.293 245.022L104.965 245.652C105.357 244.994 105.931 244.574 106.799 244.574C107.947 244.574 108.507 245.134 108.507 246.156V246.87H107.079C104.979 246.87 103.999 247.626 103.999 248.984C103.999 250.328 104.895 251.168 106.421 251.168C107.429 251.168 108.199 250.706 108.507 249.824H108.577C108.661 250.496 108.997 251 109.823 251H110.453ZM106.603 250.216C105.735 250.216 105.175 249.81 105.175 249.096V248.802C105.175 248.102 105.749 247.71 107.023 247.71H108.507V248.9C108.507 249.642 107.709 250.216 106.603 250.216ZM112.211 253.8H113.331V249.824H113.387C113.821 250.72 114.507 251.168 115.501 251.168C117.307 251.168 118.441 249.698 118.441 247.388C118.441 245.078 117.307 243.608 115.501 243.608C114.507 243.608 113.765 244.042 113.387 244.952H113.331V243.776H112.211V253.8ZM115.193 250.16C114.171 250.16 113.331 249.628 113.331 248.69V246.002C113.331 245.204 114.171 244.616 115.193 244.616C116.453 244.616 117.237 245.484 117.237 246.772V248.004C117.237 249.292 116.453 250.16 115.193 250.16Z" fill="black"/>
<line x1="307" y1="75.5" x2="331" y2="75.5" stroke="black"/>
<line x1="307" y1="123.5" x2="331" y2="123.5" stroke="black"/>
<line x1="307" y1="187.5" x2="331" y2="187.5" stroke="black"/>
<path d="M360.579 70.5582C360.687 70.4322 360.777 70.3241 360.777 70.1441C360.777 70.018 360.759 70 360.345 70H352.908C352.493 70 352.475 70.018 352.367 70.3421L351.377 73.5834C351.323 73.7635 351.323 73.7995 351.323 73.8355C351.323 73.9076 351.377 74.0156 351.503 74.0156C351.647 74.0156 351.683 73.9436 351.755 73.7095C352.421 71.7647 353.304 70.5222 356.149 70.5222H359.102L349.234 81.6867C349.072 81.8848 349 81.9568 349 82.1549C349 82.2989 349.09 82.2989 349.432 82.2989H357.121C357.535 82.2989 357.553 82.2809 357.661 81.9568L358.922 77.9772C358.94 77.9232 358.976 77.7971 358.976 77.7251C358.976 77.6351 358.904 77.545 358.796 77.545C358.652 77.545 358.634 77.563 358.49 78.0132C357.734 80.3362 356.941 81.7407 353.808 81.7407H350.693L360.579 70.5582Z" fill="black"/>
<path d="M363.812 77.3527C363.812 77.0286 363.788 77.0166 363.464 77.0166C362.972 77.4968 362.336 77.7849 361.195 77.7849V78.1811C361.519 78.1811 362.168 78.1811 362.864 77.8569V84.0154C362.864 84.4596 362.828 84.6036 361.688 84.6036H361.267V84.9998C361.76 84.9638 362.792 84.9638 363.332 84.9638C363.872 84.9638 364.917 84.9638 365.409 84.9998V84.6036H364.989C363.848 84.6036 363.812 84.4596 363.812 84.0154V77.3527Z" fill="black"/>
<path d="M359.579 118.558C359.687 118.432 359.777 118.324 359.777 118.144C359.777 118.018 359.759 118 359.345 118H351.908C351.493 118 351.475 118.018 351.367 118.342L350.377 121.583C350.323 121.764 350.323 121.8 350.323 121.836C350.323 121.908 350.377 122.016 350.503 122.016C350.647 122.016 350.683 121.944 350.755 121.709C351.421 119.765 352.304 118.522 355.149 118.522H358.102L348.234 129.687C348.072 129.885 348 129.957 348 130.155C348 130.299 348.09 130.299 348.432 130.299H356.121C356.535 130.299 356.553 130.281 356.661 129.957L357.922 125.977C357.94 125.923 357.976 125.797 357.976 125.725C357.976 125.635 357.904 125.545 357.796 125.545C357.652 125.545 357.634 125.563 357.49 126.013C356.734 128.336 355.941 129.741 352.808 129.741H349.693L359.579 118.558Z" fill="black"/>
<path d="M362.427 130.551C362.619 130.371 363.123 129.975 363.315 129.807C364.059 129.122 364.768 128.462 364.768 127.37C364.768 125.941 363.567 125.017 362.067 125.017C360.626 125.017 359.678 126.109 359.678 127.177C359.678 127.766 360.146 127.85 360.314 127.85C360.566 127.85 360.938 127.67 360.938 127.213C360.938 126.589 360.338 126.589 360.194 126.589C360.542 125.713 361.346 125.413 361.935 125.413C363.051 125.413 363.627 126.361 363.627 127.37C363.627 128.618 362.751 129.53 361.334 130.983L359.822 132.544C359.678 132.676 359.678 132.7 359.678 133H364.42L364.768 130.851H364.396C364.36 131.091 364.264 131.691 364.12 131.919C364.047 132.015 363.135 132.015 362.943 132.015H360.806L362.427 130.551Z" fill="black"/>
<path d="M358.487 182.554C358.594 182.429 358.683 182.322 358.683 182.143C358.683 182.018 358.665 182 358.254 182H350.877C350.466 182 350.448 182.018 350.341 182.339L349.358 185.555C349.304 185.734 349.304 185.769 349.304 185.805C349.304 185.877 349.358 185.984 349.483 185.984C349.626 185.984 349.662 185.912 349.733 185.68C350.394 183.751 351.27 182.518 354.092 182.518H357.022L347.232 193.594C347.071 193.79 347 193.862 347 194.058C347 194.201 347.089 194.201 347.429 194.201H355.057C355.468 194.201 355.486 194.183 355.593 193.862L356.843 189.914C356.861 189.86 356.897 189.735 356.897 189.664C356.897 189.574 356.825 189.485 356.718 189.485C356.575 189.485 356.557 189.503 356.414 189.95C355.664 192.254 354.878 193.647 351.77 193.647H348.679L358.487 182.554Z" fill="black"/>
<path d="M360.335 194.928C360.371 194.749 360.49 194.297 360.526 194.118C360.692 193.475 360.692 193.463 360.966 193.07C361.359 192.486 361.919 191.962 362.717 191.962C363.146 191.962 363.396 192.212 363.396 192.772C363.396 193.427 362.896 194.785 362.669 195.368C362.515 195.762 362.515 195.833 362.515 195.988C362.515 196.667 363.074 197 363.586 197C364.754 197 365.242 195.333 365.242 195.178C365.242 195.059 365.147 195.023 365.063 195.023C364.92 195.023 364.897 195.106 364.861 195.226C364.575 196.202 364.075 196.667 363.622 196.667C363.432 196.667 363.336 196.548 363.336 196.274C363.336 196 363.432 195.738 363.551 195.44C363.729 194.987 364.253 193.618 364.253 192.951C364.253 192.058 363.634 191.629 362.777 191.629C361.812 191.629 361.193 192.212 360.847 192.665C360.764 192.01 360.24 191.629 359.633 191.629C359.204 191.629 358.906 191.903 358.715 192.272C358.43 192.832 358.311 193.427 358.311 193.451C358.311 193.558 358.394 193.606 358.489 193.606C358.644 193.606 358.656 193.558 358.739 193.249C358.882 192.665 359.097 191.962 359.597 191.962C359.906 191.962 359.978 192.26 359.978 192.522C359.978 192.736 359.918 192.963 359.823 193.356C359.799 193.451 359.621 194.154 359.573 194.32L359.132 196.107C359.085 196.286 359.013 196.583 359.013 196.631C359.013 196.905 359.239 197 359.394 197C359.609 197 359.787 196.857 359.871 196.714C359.906 196.643 360.002 196.238 360.061 195.988L360.335 194.928Z" fill="black"/>
<path d="M212.229 132.254C212.642 131.556 213.036 130.893 214.111 130.785C214.272 130.767 214.433 130.749 214.433 130.463C214.433 130.266 214.272 130.266 214.218 130.266C214.182 130.266 214.057 130.301 212.874 130.301C212.337 130.301 211.781 130.266 211.262 130.266C211.154 130.266 210.939 130.266 210.939 130.606C210.939 130.767 211.083 130.785 211.19 130.785C211.549 130.803 212.122 130.911 212.122 131.466C212.122 131.699 212.05 131.824 211.871 132.129L206.98 140.693L206.335 131.359C206.335 131.144 206.532 130.803 207.535 130.785C207.768 130.785 207.947 130.785 207.947 130.445C207.947 130.266 207.768 130.266 207.679 130.266C207.051 130.266 206.388 130.301 205.743 130.301H204.812C204.543 130.301 204.221 130.266 203.952 130.266C203.844 130.266 203.629 130.266 203.629 130.606C203.629 130.785 203.755 130.785 204.059 130.785C204.883 130.785 204.883 130.803 204.955 131.896L205.009 132.541L200.368 140.693L199.705 131.448C199.705 131.251 199.705 130.803 200.924 130.785C201.121 130.785 201.318 130.785 201.318 130.463C201.318 130.266 201.157 130.266 201.049 130.266C200.422 130.266 199.759 130.301 199.114 130.301H198.183C197.914 130.301 197.591 130.266 197.323 130.266C197.215 130.266 197 130.266 197 130.606C197 130.785 197.143 130.785 197.394 130.785C198.236 130.785 198.254 130.893 198.29 131.466L199.078 142.467C199.096 142.772 199.114 142.879 199.329 142.879C199.508 142.879 199.544 142.807 199.705 142.539L205.045 133.204L205.708 142.467C205.726 142.772 205.743 142.879 205.958 142.879C206.138 142.879 206.191 142.79 206.335 142.539L212.229 132.254Z" fill="white"/>
<path d="M220.872 146.857C220.872 146.803 220.872 146.767 220.567 146.463C218.776 144.653 217.772 141.697 217.772 138.042C217.772 134.566 218.614 131.574 220.693 129.46C220.872 129.298 220.872 129.263 220.872 129.209C220.872 129.101 220.782 129.065 220.711 129.065C220.478 129.065 219.008 130.355 218.131 132.111C217.217 133.921 216.805 135.838 216.805 138.042C216.805 139.636 217.056 141.769 217.987 143.686C219.044 145.836 220.513 147 220.711 147C220.782 147 220.872 146.964 220.872 146.857Z" fill="white"/>
<path d="M231.487 127.078C231.272 127.275 230.609 127.903 230.609 128.153C230.609 128.333 230.77 128.494 230.95 128.494C231.111 128.494 231.183 128.386 231.308 128.207C231.738 127.67 232.222 127.329 232.634 127.096C232.813 126.989 232.938 126.935 232.938 126.738C232.938 126.577 232.795 126.487 232.688 126.398C232.186 126.057 232.06 125.573 232.007 125.358C231.953 125.215 231.899 125 231.648 125C231.541 125 231.326 125.072 231.326 125.34C231.326 125.502 231.433 125.932 231.774 126.415H225.754C225.449 126.415 225.145 126.415 225.145 126.756C225.145 127.078 225.467 127.078 225.754 127.078H231.487Z" fill="white"/>
<path d="M229.808 133.491C229.808 131.663 229.235 129.89 227.766 129.89C225.258 129.89 222.588 135.139 222.588 139.081C222.588 139.905 222.767 142.682 224.648 142.682C227.085 142.682 229.808 137.558 229.808 133.491ZM224.38 136.017C224.648 134.96 225.025 133.455 225.741 132.183C226.333 131.108 226.96 130.248 227.748 130.248C228.339 130.248 228.733 130.75 228.733 132.47C228.733 133.115 228.68 134.011 228.16 136.017H224.38ZM228.035 136.555C227.587 138.311 227.21 139.439 226.565 140.568C226.046 141.482 225.419 142.324 224.666 142.324C224.111 142.324 223.663 141.894 223.663 140.12C223.663 138.956 223.95 137.737 224.236 136.555H228.035Z" fill="white"/>
<path d="M235.587 138.042C235.587 136.68 235.408 134.458 234.404 132.38C233.347 130.23 231.878 129.065 231.681 129.065C231.609 129.065 231.52 129.101 231.52 129.209C231.52 129.263 231.52 129.298 231.824 129.603C233.616 131.413 234.619 134.369 234.619 138.024C234.619 141.5 233.777 144.492 231.699 146.606C231.52 146.767 231.52 146.803 231.52 146.857C231.52 146.964 231.609 147 231.681 147C231.914 147 233.383 145.71 234.261 143.954C235.175 142.127 235.587 140.192 235.587 138.042Z" fill="white"/>
<path d="M416.103 130.258C416.463 130.258 416.606 130.258 416.606 129.916C416.606 129.736 416.463 129.736 416.139 129.736H414.682C415.024 127.884 415.276 126.607 415.42 126.032C415.527 125.6 415.905 125.187 416.373 125.187C416.75 125.187 417.128 125.349 417.308 125.51C416.606 125.582 416.391 126.104 416.391 126.41C416.391 126.769 416.66 126.985 417.002 126.985C417.362 126.985 417.901 126.679 417.901 125.996C417.901 125.241 417.146 124.827 416.355 124.827C415.581 124.827 414.826 125.403 414.467 126.104C414.143 126.733 413.963 127.381 413.549 129.736H412.345C412.003 129.736 411.823 129.736 411.823 130.06C411.823 130.258 411.931 130.258 412.291 130.258H413.442C413.118 131.93 412.381 135.994 411.967 137.918C411.661 139.482 411.392 140.795 410.493 140.795C410.439 140.795 409.917 140.795 409.593 140.454C410.51 140.382 410.51 139.59 410.51 139.572C410.51 139.213 410.241 138.997 409.899 138.997C409.539 138.997 409 139.303 409 139.986C409 140.759 409.791 141.155 410.493 141.155C412.327 141.155 413.082 137.864 413.28 136.965C413.603 135.58 414.485 130.797 414.574 130.258H416.103Z" fill="black"/>
<path d="M424.525 141.856C424.525 141.802 424.525 141.766 424.22 141.461C422.421 139.644 421.414 136.677 421.414 133.009C421.414 129.52 422.26 126.517 424.345 124.396C424.525 124.234 424.525 124.198 424.525 124.144C424.525 124.036 424.435 124 424.363 124C424.13 124 422.655 125.295 421.774 127.057C420.857 128.873 420.443 130.797 420.443 133.009C420.443 134.609 420.695 136.749 421.63 138.673C422.691 140.831 424.166 142 424.363 142C424.435 142 424.525 141.964 424.525 141.856Z" fill="black"/>
<path d="M438.117 125.763C438.225 125.637 438.315 125.529 438.315 125.349C438.315 125.223 438.297 125.205 437.883 125.205H430.457C430.043 125.205 430.025 125.223 429.917 125.547L428.928 128.783C428.874 128.963 428.874 128.999 428.874 129.035C428.874 129.107 428.928 129.215 429.054 129.215C429.198 129.215 429.234 129.143 429.306 128.909C429.971 126.967 430.852 125.727 433.694 125.727H436.643L426.788 136.875C426.627 137.073 426.555 137.145 426.555 137.343C426.555 137.487 426.645 137.487 426.986 137.487H434.665C435.078 137.487 435.096 137.469 435.204 137.145L436.463 133.171C436.481 133.117 436.517 132.991 436.517 132.919C436.517 132.829 436.445 132.74 436.337 132.74C436.193 132.74 436.175 132.758 436.031 133.207C435.276 135.527 434.485 136.929 431.356 136.929H428.245L438.117 125.763Z" fill="black"/>
<path d="M443.943 133.009C443.943 131.642 443.763 129.413 442.756 127.327C441.695 125.169 440.221 124 440.023 124C439.951 124 439.861 124.036 439.861 124.144C439.861 124.198 439.861 124.234 440.167 124.539C441.965 126.356 442.972 129.323 442.972 132.991C442.972 136.48 442.127 139.483 440.041 141.604C439.861 141.766 439.861 141.802 439.861 141.856C439.861 141.964 439.951 142 440.023 142C440.257 142 441.731 140.705 442.613 138.943C443.53 137.109 443.943 135.167 443.943 133.009Z" fill="black"/>
<path d="M462.852 131.66C463.104 131.66 463.428 131.66 463.428 131.337C463.428 130.995 463.122 130.995 462.852 130.995H452.261C452.009 130.995 451.686 130.995 451.686 131.319C451.686 131.66 451.991 131.66 452.261 131.66H462.852ZM462.852 135.005C463.104 135.005 463.428 135.005 463.428 134.681C463.428 134.34 463.122 134.34 462.852 134.34H452.261C452.009 134.34 451.686 134.34 451.686 134.663C451.686 135.005 451.991 135.005 452.261 135.005H462.852Z" fill="black"/>
<path d="M479.976 127.201L480.39 126.787C481.181 125.978 481.846 125.781 482.476 125.727C482.673 125.709 482.835 125.691 482.835 125.385C482.835 125.205 482.655 125.205 482.619 125.205C482.404 125.205 482.17 125.241 481.954 125.241H481.217C480.695 125.241 480.138 125.205 479.634 125.205C479.509 125.205 479.311 125.205 479.311 125.547C479.311 125.709 479.491 125.727 479.545 125.727C480.084 125.763 480.084 126.032 480.084 126.14C480.084 126.338 479.94 126.608 479.581 127.021L475.301 131.93L473.269 126.464C473.161 126.212 473.161 126.176 473.161 126.14C473.161 125.763 473.898 125.727 474.114 125.727C474.33 125.727 474.528 125.727 474.528 125.403C474.528 125.205 474.366 125.205 474.258 125.205C473.952 125.205 473.592 125.241 473.287 125.241H471.291C470.967 125.241 470.625 125.205 470.32 125.205C470.194 125.205 469.996 125.205 469.996 125.547C469.996 125.727 470.158 125.727 470.428 125.727C471.309 125.727 471.471 125.888 471.632 126.302L473.862 132.29C473.88 132.344 473.934 132.542 473.934 132.596C473.934 132.65 473.053 136.192 472.999 136.372C472.855 136.857 472.675 136.947 471.525 136.965C471.219 136.965 471.075 136.965 471.075 137.307C471.075 137.487 471.273 137.487 471.327 137.487C471.65 137.487 472.028 137.451 472.37 137.451H474.492C474.815 137.451 475.193 137.487 475.517 137.487C475.642 137.487 475.858 137.487 475.858 137.163C475.858 136.965 475.732 136.965 475.427 136.965C474.312 136.965 474.312 136.839 474.312 136.642C474.312 136.516 474.456 135.94 474.546 135.581L475.193 132.991C475.301 132.614 475.301 132.578 475.463 132.398L479.976 127.201Z" fill="black"/>
<path d="M488.621 134.915C488.621 134.825 488.549 134.753 488.441 134.753C488.279 134.753 488.261 134.807 488.171 135.112C487.704 136.749 486.967 137.306 486.373 137.306C486.157 137.306 485.906 137.252 485.906 136.713C485.906 136.227 486.121 135.688 486.319 135.148L487.578 131.804C487.632 131.66 487.758 131.336 487.758 130.995C487.758 130.239 487.218 129.556 486.337 129.556C484.683 129.556 484.018 132.163 484.018 132.307C484.018 132.379 484.09 132.469 484.215 132.469C484.377 132.469 484.395 132.397 484.467 132.145C484.899 130.635 485.582 129.916 486.283 129.916C486.445 129.916 486.751 129.934 486.751 130.509C486.751 130.977 486.517 131.57 486.373 131.966L485.114 135.31C485.007 135.598 484.899 135.886 484.899 136.209C484.899 137.019 485.456 137.666 486.319 137.666C487.974 137.666 488.621 135.041 488.621 134.915ZM488.477 126.265C488.477 125.996 488.261 125.672 487.866 125.672C487.452 125.672 486.985 126.067 486.985 126.535C486.985 126.985 487.362 127.128 487.578 127.128C488.064 127.128 488.477 126.661 488.477 126.265Z" fill="black"/>
<path d="M384 65C399.867 70.2734 383.474 108.018 398 131.973C387.348 147.833 398 192.09 384 200" stroke="black"/>
<path d="M111.162 133.47C110.658 135.308 109.892 138.022 109.892 139.707C109.892 140.298 110.264 140.561 110.79 140.561C111.665 140.561 113.306 139.62 113.306 139.182C113.306 139.072 113.197 139.029 113.088 139.029C112.825 139.029 112.431 139.226 112.19 139.357C111.906 139.313 111.753 139.094 111.753 138.788C111.753 136.118 114.248 128.458 114.882 126.838C115.145 126.226 115.429 125.328 115.429 125.153C115.429 125 115.298 125 115.211 125C114.751 125 113.766 125.591 113.591 126.007C113.306 126.773 113.263 126.882 113 127.692C112.278 129.771 110.111 133.382 107.945 135.921C107.266 136.687 105.121 139.226 103.567 139.226C102.517 139.226 101.86 138.328 101.86 136.884C101.86 135.352 102.714 133.382 104.027 130.384C104.815 128.589 105.471 127.035 105.471 126.051C105.471 125.022 104.771 125 104.377 125C102.692 125 100.591 126.357 100.591 126.817C100.591 126.948 100.744 126.948 100.832 126.948C101.094 126.948 101.488 126.773 101.838 126.532C101.992 126.423 102.342 126.204 102.933 126.204C103.414 126.204 103.611 126.51 103.611 126.992C103.611 127.955 102.823 129.749 101.904 131.85C100.46 135.133 100 136.534 100 137.803C100 139.248 100.569 140.429 102.123 140.429C103.48 140.429 105.471 139.532 107.704 137.453C109.214 136.03 110.199 134.717 111.14 133.448L111.162 133.47Z" fill="white"/>
<path d="M120.226 141.368C122.94 141.12 124.384 139.69 124.384 138.377C124.384 136.991 122.867 135.604 120.226 135.371V134.583C120.226 134.072 120.226 133.868 121.598 133.868H122.064V133.387C121.408 133.43 120.314 133.43 119.613 133.43C118.913 133.43 117.804 133.43 117.147 133.387V133.868H117.614C118.986 133.868 118.986 134.072 118.986 134.583V135.386C116.549 135.604 114.93 136.947 114.93 138.362C114.93 139.85 116.622 141.134 118.986 141.353V142.156C118.986 142.666 118.986 142.871 117.614 142.871H117.147V143.352C117.804 143.308 118.898 143.308 119.599 143.308C120.299 143.308 121.408 143.308 122.064 143.352V142.871H121.598C120.226 142.871 120.226 142.666 120.226 142.156V141.368ZM118.986 140.945C117.716 140.799 116.403 140.2 116.403 138.377C116.403 136.743 117.439 135.969 118.986 135.794V140.945ZM120.226 135.794C121.51 135.896 122.911 136.48 122.911 138.362C122.911 140.23 121.568 140.828 120.226 140.945V135.794Z" fill="white"/>
<path d="M130.123 147C130.24 147 130.415 147 130.415 146.825C130.415 146.766 130.401 146.752 130.211 146.562C128.212 144.68 127.716 141.966 127.716 139.704C127.716 135.502 129.452 133.533 130.196 132.861C130.401 132.672 130.415 132.657 130.415 132.584C130.415 132.511 130.357 132.409 130.211 132.409C129.977 132.409 129.248 133.153 129.131 133.285C127.176 135.327 126.768 137.954 126.768 139.704C126.768 142.973 128.139 145.599 130.123 147Z" fill="white"/>
<path d="M140.01 134.714L139.66 135.065C139.412 135.327 139.368 135.429 139.368 135.531C139.368 135.707 139.528 135.867 139.704 135.867C139.864 135.867 139.937 135.765 139.981 135.721C140.185 135.488 140.535 135.05 141.221 134.729C141.367 134.656 141.527 134.583 141.527 134.379C141.527 134.189 141.381 134.116 141.308 134.058C140.827 133.766 140.696 133.43 140.623 133.212C140.594 133.095 140.521 132.891 140.287 132.891C140.068 132.891 139.952 133.08 139.952 133.226C139.952 133.314 140.054 133.693 140.302 134.043H135.195C134.962 134.043 134.641 134.043 134.641 134.379C134.641 134.714 134.962 134.714 135.195 134.714H140.01Z" fill="white"/>
<path d="M140.239 137.575C140.341 137.458 140.414 137.37 140.414 137.283C140.414 137.151 140.312 137.064 140.21 137.064C140.108 137.064 140.078 137.093 139.947 137.239L136.489 140.901C135.657 138.61 135.657 138.581 135.322 137.954C135.176 137.647 134.811 136.918 133.44 136.918C132.477 136.918 132.083 137.72 132.083 137.925C132.083 138.041 132.17 138.114 132.302 138.114C132.477 138.114 132.491 138.041 132.535 137.925C132.71 137.487 133.104 137.327 133.323 137.327C134.125 137.327 135.293 141.018 135.57 141.864L131.966 145.687C131.82 145.847 131.791 145.862 131.791 145.964C131.791 146.095 131.893 146.183 132.01 146.183C132.054 146.183 132.112 146.183 132.273 146.008L135.73 142.346C136.868 145.731 137.16 145.877 137.715 146.125C137.948 146.227 138.342 146.329 138.78 146.329C139.684 146.329 140.122 145.57 140.122 145.322C140.122 145.191 140.035 145.132 139.903 145.132C139.743 145.132 139.714 145.205 139.67 145.322C139.553 145.643 139.203 145.92 138.882 145.92C138.444 145.92 137.934 144.782 137.729 144.345C137.394 143.615 137.394 143.586 136.635 141.397L140.239 137.575Z" fill="white"/>
<path d="M144.728 138.748C144.728 138.486 144.532 138.311 144.28 138.311C143.984 138.311 143.667 138.595 143.667 138.912C143.667 139.186 143.864 139.35 144.105 139.35C144.455 139.35 144.728 139.022 144.728 138.748ZM144.072 142.567C144.116 142.458 144.214 142.195 144.258 142.097C144.291 141.998 144.335 141.889 144.335 141.703C144.335 141.09 143.787 140.751 143.24 140.751C142.124 140.751 141.588 142.195 141.588 142.436C141.588 142.491 141.632 142.589 141.785 142.589C141.938 142.589 141.971 142.524 142.004 142.425C142.31 141.364 142.89 141.112 143.196 141.112C143.415 141.112 143.492 141.254 143.492 141.506C143.492 141.725 143.426 141.889 143.404 141.965L142.835 143.366C142.704 143.683 142.704 143.705 142.562 144.077C142.42 144.406 142.365 144.548 142.365 144.734C142.365 145.292 142.868 145.686 143.47 145.686C144.575 145.686 145.122 144.242 145.122 144.001C145.122 143.979 145.111 143.848 144.915 143.848C144.761 143.848 144.75 143.902 144.685 144.11C144.51 144.668 144.061 145.325 143.503 145.325C143.306 145.325 143.207 145.194 143.207 144.931C143.207 144.712 143.273 144.548 143.415 144.209L144.072 142.567Z" fill="white"/>
<path d="M151.217 139.704C151.217 138.318 150.984 136.655 150.079 134.933C149.364 133.591 148.036 132.409 147.774 132.409C147.628 132.409 147.584 132.511 147.584 132.584C147.584 132.643 147.584 132.672 147.759 132.847C149.802 134.787 150.269 137.457 150.269 139.704C150.269 143.892 148.532 145.876 147.788 146.547C147.599 146.737 147.584 146.752 147.584 146.825C147.584 146.898 147.628 147 147.774 147C148.007 147 148.737 146.256 148.853 146.124C150.808 144.082 151.217 141.455 151.217 139.704Z" fill="white"/>
</g>
<defs>
<clipPath id="clip0_1125_22962">
<rect width="506" height="274" fill="white"/>
</clipPath>
</defs>
</svg>
