<svg width="506" height="212" viewBox="0 0 506 212" fill="none" xmlns="http://www.w3.org/2000/svg">
<g clip-path="url(#clip0_1339_19136)">
<rect width="506" height="212" fill="white"/>
<rect opacity="0.4" y="200" width="506" height="40" fill="#F2F4F8"/>
<rect opacity="0.4" y="120" width="506" height="40" fill="#F2F4F8"/>
<rect opacity="0.4" y="40" width="506" height="40" fill="#F2F4F8"/>
<rect x="0.5" y="0.180664" width="505" height="211.319" stroke="#DDE1E6"/>
<path fill-rule="evenodd" clip-rule="evenodd" d="M52.3996 86.1998H53.5996C54.5937 86.1998 55.3996 85.3939 55.3996 84.3998V79.5998C55.3996 78.6057 54.5937 77.7998 53.5996 77.7998H52.3996C51.4055 77.7998 50.5996 78.6057 50.5996 79.5998V84.3998C50.5996 85.3939 51.4055 86.1998 52.3996 86.1998ZM51.7996 79.5998C51.7996 79.2684 52.0682 78.9998 52.3996 78.9998H53.5996C53.931 78.9998 54.1996 79.2684 54.1996 79.5998V84.3998C54.1996 84.7312 53.931 84.9998 53.5996 84.9998H52.3996C52.0682 84.9998 51.7996 84.7312 51.7996 84.3998V79.5998Z" fill="#161616"/>
<path d="M58.0545 88L57 87.46L59.6804 82L57 76.54L58.0545 76L61 82L58.0545 88Z" fill="#161616"/>
<rect x="47" y="76" width="1" height="12" fill="#161616"/>
<line x1="69" y1="81.5" x2="331" y2="81.5" stroke="black"/>
<path fill-rule="evenodd" clip-rule="evenodd" d="M52.3996 134.2H53.5996C54.5937 134.2 55.3996 133.394 55.3996 132.4V127.6C55.3996 126.606 54.5937 125.8 53.5996 125.8H52.3996C51.4055 125.8 50.5996 126.606 50.5996 127.6V132.4C50.5996 133.394 51.4055 134.2 52.3996 134.2ZM51.7996 127.6C51.7996 127.268 52.0682 127 52.3996 127H53.5996C53.931 127 54.1996 127.268 54.1996 127.6V132.4C54.1996 132.731 53.931 133 53.5996 133H52.3996C52.0682 133 51.7996 132.731 51.7996 132.4V127.6Z" fill="#161616"/>
<path d="M58.0545 136L57 135.46L59.6804 130L57 124.54L58.0545 124L61 130L58.0545 136Z" fill="#161616"/>
<rect x="47" y="124" width="1" height="12" fill="#161616"/>
<line x1="69" y1="129.5" x2="331" y2="129.5" stroke="black"/>
<rect width="70" height="144" transform="translate(183 34)" fill="#1192E8"/>
<path d="M111.162 112.268C110.658 113.69 109.892 115.79 109.892 117.094C109.892 117.551 110.264 117.755 110.79 117.755C111.665 117.755 113.306 117.026 113.306 116.688C113.306 116.603 113.197 116.569 113.088 116.569C112.825 116.569 112.431 116.722 112.19 116.823C111.906 116.789 111.753 116.62 111.753 116.383C111.753 114.317 114.248 108.39 114.882 107.137C115.145 106.663 115.429 105.969 115.429 105.833C115.429 105.715 115.298 105.715 115.211 105.715C114.751 105.715 113.766 106.172 113.591 106.494C113.306 107.086 113.263 107.171 113 107.798C112.278 109.406 110.111 112.2 107.945 114.165C107.266 114.757 105.121 116.722 103.567 116.722C102.517 116.722 101.86 116.027 101.86 114.91C101.86 113.724 102.714 112.2 104.027 109.88C104.815 108.492 105.471 107.29 105.471 106.528C105.471 105.732 104.771 105.715 104.377 105.715C102.692 105.715 100.591 106.765 100.591 107.12C100.591 107.222 100.744 107.222 100.832 107.222C101.094 107.222 101.488 107.086 101.838 106.9C101.992 106.816 102.342 106.646 102.933 106.646C103.414 106.646 103.611 106.883 103.611 107.256C103.611 108.001 102.823 109.389 101.904 111.015C100.46 113.555 100 114.639 100 115.621C100 116.739 100.569 117.653 102.123 117.653C103.48 117.653 105.471 116.959 107.704 115.35C109.214 114.249 110.199 113.233 111.14 112.251L111.162 112.268Z" fill="white"/>
<path d="M120.226 118.379C122.94 118.187 124.384 117.081 124.384 116.065C124.384 114.992 122.867 113.92 120.226 113.739V113.13C120.226 112.735 120.226 112.577 121.598 112.577H122.064V112.204C121.408 112.238 120.314 112.238 119.613 112.238C118.913 112.238 117.804 112.238 117.147 112.204V112.577H117.614C118.986 112.577 118.986 112.735 118.986 113.13V113.751C116.549 113.92 114.93 114.959 114.93 116.054C114.93 117.205 116.622 118.199 118.986 118.368V118.989C118.986 119.384 118.986 119.542 117.614 119.542H117.147V119.914C117.804 119.881 118.898 119.881 119.599 119.881C120.299 119.881 121.408 119.881 122.064 119.914V119.542H121.598C120.226 119.542 120.226 119.384 120.226 118.989V118.379ZM118.986 118.052C117.716 117.939 116.403 117.476 116.403 116.065C116.403 114.801 117.439 114.202 118.986 114.067V118.052ZM120.226 114.067C121.51 114.146 122.911 114.597 122.911 116.054C122.911 117.499 121.568 117.961 120.226 118.052V114.067Z" fill="white"/>
<path d="M130.123 122.737C130.24 122.737 130.415 122.737 130.415 122.602C130.415 122.557 130.401 122.545 130.211 122.399C128.212 120.942 127.716 118.843 127.716 117.093C127.716 113.842 129.452 112.317 130.196 111.798C130.401 111.651 130.415 111.64 130.415 111.584C130.415 111.527 130.357 111.448 130.211 111.448C129.977 111.448 129.248 112.024 129.131 112.126C127.176 113.706 126.768 115.738 126.768 117.093C126.768 119.621 128.139 121.653 130.123 122.737Z" fill="white"/>
<path d="M140.01 113.231L139.66 113.502C139.412 113.706 139.368 113.785 139.368 113.864C139.368 113.999 139.528 114.123 139.704 114.123C139.864 114.123 139.937 114.044 139.981 114.01C140.185 113.83 140.535 113.491 141.221 113.243C141.367 113.186 141.527 113.13 141.527 112.972C141.527 112.825 141.381 112.769 141.308 112.723C140.827 112.498 140.696 112.238 140.623 112.069C140.594 111.978 140.521 111.82 140.287 111.82C140.068 111.82 139.952 111.967 139.952 112.08C139.952 112.148 140.054 112.441 140.302 112.712H135.195C134.962 112.712 134.641 112.712 134.641 112.972C134.641 113.231 134.962 113.231 135.195 113.231H140.01Z" fill="white"/>
<path d="M140.239 115.445C140.341 115.354 140.414 115.286 140.414 115.219C140.414 115.117 140.312 115.049 140.21 115.049C140.108 115.049 140.078 115.072 139.947 115.185L136.489 118.018C135.657 116.246 135.657 116.223 135.322 115.738C135.176 115.501 134.811 114.937 133.44 114.937C132.477 114.937 132.083 115.557 132.083 115.715C132.083 115.806 132.17 115.862 132.302 115.862C132.477 115.862 132.491 115.806 132.535 115.715C132.71 115.377 133.104 115.253 133.323 115.253C134.125 115.253 135.293 118.109 135.57 118.763L131.966 121.721C131.82 121.845 131.791 121.857 131.791 121.936C131.791 122.037 131.893 122.105 132.01 122.105C132.054 122.105 132.112 122.105 132.273 121.97L135.73 119.136C136.868 121.755 137.16 121.868 137.715 122.06C137.948 122.139 138.342 122.218 138.78 122.218C139.684 122.218 140.122 121.631 140.122 121.439C140.122 121.337 140.035 121.292 139.903 121.292C139.743 121.292 139.714 121.349 139.67 121.439C139.553 121.687 139.203 121.902 138.882 121.902C138.444 121.902 137.934 121.021 137.729 120.683C137.394 120.118 137.394 120.096 136.635 118.402L140.239 115.445Z" fill="white"/>
<path d="M144.728 116.352C144.728 116.149 144.532 116.014 144.28 116.014C143.984 116.014 143.667 116.234 143.667 116.479C143.667 116.691 143.864 116.818 144.105 116.818C144.455 116.818 144.728 116.564 144.728 116.352ZM144.072 119.307C144.116 119.223 144.214 119.019 144.258 118.943C144.291 118.867 144.335 118.782 144.335 118.638C144.335 118.164 143.787 117.902 143.24 117.902C142.124 117.902 141.588 119.019 141.588 119.206C141.588 119.248 141.632 119.324 141.785 119.324C141.938 119.324 141.971 119.273 142.004 119.197C142.31 118.376 142.89 118.181 143.196 118.181C143.415 118.181 143.492 118.291 143.492 118.486C143.492 118.655 143.426 118.782 143.404 118.842L142.835 119.925C142.704 120.171 142.704 120.188 142.562 120.476C142.42 120.73 142.365 120.84 142.365 120.984C142.365 121.415 142.868 121.72 143.47 121.72C144.575 121.72 145.122 120.603 145.122 120.416C145.122 120.399 145.111 120.298 144.915 120.298C144.761 120.298 144.75 120.34 144.685 120.501C144.51 120.933 144.061 121.441 143.503 121.441C143.306 121.441 143.207 121.339 143.207 121.136C143.207 120.967 143.273 120.84 143.415 120.577L144.072 119.307Z" fill="white"/>
<path d="M151.217 117.093C151.217 116.02 150.984 114.733 150.079 113.401C149.364 112.363 148.036 111.448 147.774 111.448C147.628 111.448 147.584 111.527 147.584 111.584C147.584 111.629 147.584 111.651 147.759 111.787C149.802 113.288 150.269 115.354 150.269 117.093C150.269 120.333 148.532 121.868 147.788 122.387C147.599 122.534 147.584 122.545 147.584 122.602C147.584 122.658 147.628 122.737 147.774 122.737C148.007 122.737 148.737 122.161 148.853 122.06C150.808 120.479 151.217 118.447 151.217 117.093Z" fill="white"/>
<rect x="315" y="113" width="32" height="32" fill="#121619"/>
<path d="M338 128.89L340.427 124.667L338.408 123.5L335.865 127.898C331.573 126.308 326.774 126.916 323.014 129.527C319.254 132.138 317.008 136.422 317 141H319.333C319.336 137.252 321.14 133.733 324.181 131.543C327.222 129.352 331.131 128.756 334.687 129.94L331 136.333C329.944 136.332 329.018 137.041 328.744 138.061C328.47 139.081 328.915 140.158 329.83 140.687C330.744 141.215 331.9 141.064 332.647 140.317C333.394 139.57 333.546 138.415 333.018 137.5L336.833 130.908C340.439 132.99 342.662 136.836 342.667 141H345C344.995 136.003 342.327 131.388 338 128.89Z" fill="white"/>
<path d="M389.022 133.964H383.17L388.826 126.292V125.228H382.204V126.264H387.552L381.91 133.936V135H389.022V133.964Z" fill="black"/>
<path d="M409.478 130.8H411.76L413.874 135H415.204L412.964 130.688C414.238 130.394 414.924 129.428 414.924 128C414.924 126.222 413.902 125.228 412.194 125.228H408.302V135H409.478V130.8ZM409.478 129.792V126.264H412.194C413.118 126.264 413.664 126.768 413.664 127.664V128.392C413.664 129.288 413.118 129.792 412.194 129.792H409.478ZM419.816 135.168C421.174 135.168 422.21 134.496 422.672 133.516L421.874 132.942C421.496 133.74 420.796 134.188 419.886 134.188C418.542 134.188 417.744 133.25 417.744 132.004V131.668H422.938V131.136C422.938 129.092 421.748 127.608 419.816 127.608C417.856 127.608 416.568 129.092 416.568 131.388C416.568 133.684 417.856 135.168 419.816 135.168ZM419.816 128.546C420.964 128.546 421.734 129.4 421.734 130.674V130.828H417.744V130.73C417.744 129.47 418.598 128.546 419.816 128.546ZM430.824 135V134.02H429.998V130.044C429.998 128.518 428.962 127.608 427.226 127.608C425.924 127.608 425.056 128.252 424.664 129.022L425.336 129.652C425.728 128.994 426.302 128.574 427.17 128.574C428.318 128.574 428.878 129.134 428.878 130.156V130.87H427.45C425.35 130.87 424.37 131.626 424.37 132.984C424.37 134.328 425.266 135.168 426.792 135.168C427.8 135.168 428.57 134.706 428.878 133.824H428.948C429.032 134.496 429.368 135 430.194 135H430.824ZM426.974 134.216C426.106 134.216 425.546 133.81 425.546 133.096V132.802C425.546 132.102 426.12 131.71 427.394 131.71H428.878V132.9C428.878 133.642 428.08 134.216 426.974 134.216ZM434.766 135V134.02H433.702V124.64H432.582V133.838C432.582 134.51 433.002 135 433.772 135H434.766ZM436.501 137.114L440.155 124.64H439.147L435.493 137.114H436.501ZM443.364 135V130.576H447.606V129.54H443.364V126.264H448.012V125.228H442.188V135H443.364ZM455.376 135V134.02H454.55V130.044C454.55 128.518 453.514 127.608 451.778 127.608C450.476 127.608 449.608 128.252 449.216 129.022L449.888 129.652C450.28 128.994 450.854 128.574 451.722 128.574C452.87 128.574 453.43 129.134 453.43 130.156V130.87H452.002C449.902 130.87 448.922 131.626 448.922 132.984C448.922 134.328 449.818 135.168 451.344 135.168C452.352 135.168 453.122 134.706 453.43 133.824H453.5C453.584 134.496 453.92 135 454.746 135H455.376ZM451.526 134.216C450.658 134.216 450.098 133.81 450.098 133.096V132.802C450.098 132.102 450.672 131.71 451.946 131.71H453.43V132.9C453.43 133.642 452.632 134.216 451.526 134.216ZM457.134 135H458.254V132.424L459.332 131.318L461.726 135H463.084L460.144 130.632L462.818 127.776H461.46L459.416 129.974L458.31 131.206H458.254V124.64H457.134V135ZM467.161 135.168C468.519 135.168 469.555 134.496 470.017 133.516L469.219 132.942C468.841 133.74 468.141 134.188 467.231 134.188C465.887 134.188 465.089 133.25 465.089 132.004V131.668H470.283V131.136C470.283 129.092 469.093 127.608 467.161 127.608C465.201 127.608 463.913 129.092 463.913 131.388C463.913 133.684 465.201 135.168 467.161 135.168ZM467.161 128.546C468.309 128.546 469.079 129.4 469.079 130.674V130.828H465.089V130.73C465.089 129.47 465.943 128.546 467.161 128.546Z" fill="black"/>
<path d="M208.254 115.294C208.152 115.693 208.129 115.807 207.331 115.807C207.114 115.807 207 115.807 207 116.013C207 116.138 207.068 116.138 207.296 116.138H210.911C213.214 116.138 215.46 113.755 215.46 111.212C215.46 109.571 214.48 108.351 212.849 108.351H209.189C208.972 108.351 208.87 108.351 208.87 108.567C208.87 108.681 208.972 108.681 209.144 108.681C209.839 108.681 209.839 108.772 209.839 108.898C209.839 108.921 209.839 108.989 209.793 109.16L208.254 115.294ZM210.66 109.126C210.763 108.704 210.808 108.681 211.253 108.681H212.507C213.579 108.681 214.559 109.263 214.559 110.836C214.559 111.406 214.331 113.39 213.225 114.644C212.906 115.021 212.04 115.807 210.728 115.807H209.429C209.269 115.807 209.246 115.807 209.178 115.796C209.052 115.784 209.041 115.762 209.041 115.67C209.041 115.591 209.064 115.522 209.087 115.42L210.66 109.126Z" fill="white"/>
<path d="M219.75 118.909C219.75 118.875 219.75 118.852 219.556 118.658C218.416 117.506 217.778 115.625 217.778 113.299C217.778 111.087 218.314 109.183 219.636 107.838C219.75 107.735 219.75 107.712 219.75 107.678C219.75 107.61 219.693 107.587 219.648 107.587C219.499 107.587 218.565 108.408 218.006 109.525C217.424 110.677 217.162 111.897 217.162 113.299C217.162 114.314 217.322 115.671 217.915 116.891C218.587 118.259 219.522 119 219.648 119C219.693 119 219.75 118.977 219.75 118.909Z" fill="white"/>
<path d="M226.503 106.323C226.366 106.448 225.944 106.847 225.944 107.007C225.944 107.121 226.047 107.223 226.161 107.223C226.264 107.223 226.309 107.155 226.389 107.041C226.663 106.699 226.97 106.482 227.233 106.334C227.347 106.266 227.427 106.231 227.427 106.106C227.427 106.003 227.335 105.946 227.267 105.889C226.948 105.673 226.868 105.365 226.834 105.228C226.799 105.137 226.765 105 226.606 105C226.537 105 226.4 105.046 226.4 105.217C226.4 105.319 226.469 105.593 226.685 105.901H222.854C222.661 105.901 222.467 105.901 222.467 106.117C222.467 106.323 222.672 106.323 222.854 106.323H226.503Z" fill="white"/>
<path d="M225.437 110.403C225.437 109.24 225.072 108.111 224.137 108.111C222.541 108.111 220.842 111.452 220.842 113.96C220.842 114.485 220.956 116.252 222.153 116.252C223.704 116.252 225.437 112.991 225.437 110.403ZM221.982 112.011C222.153 111.338 222.392 110.38 222.848 109.571C223.225 108.887 223.624 108.339 224.125 108.339C224.502 108.339 224.753 108.659 224.753 109.753C224.753 110.164 224.718 110.734 224.388 112.011H221.982ZM224.308 112.353C224.023 113.47 223.783 114.188 223.373 114.907C223.042 115.488 222.643 116.024 222.164 116.024C221.811 116.024 221.526 115.75 221.526 114.622C221.526 113.881 221.708 113.105 221.891 112.353H224.308Z" fill="white"/>
<path d="M229.114 113.299C229.114 112.433 229 111.019 228.361 109.696C227.688 108.328 226.753 107.587 226.628 107.587C226.582 107.587 226.525 107.61 226.525 107.678C226.525 107.712 226.525 107.735 226.719 107.929C227.859 109.081 228.498 110.962 228.498 113.288C228.498 115.5 227.962 117.404 226.639 118.749C226.525 118.852 226.525 118.875 226.525 118.909C226.525 118.977 226.582 119 226.628 119C226.776 119 227.711 118.179 228.27 117.062C228.851 115.899 229.114 114.667 229.114 113.299Z" fill="white"/>
<rect x="121" y="65" width="32" height="32" fill="#6929C4"/>
<path d="M132.486 70.832V77.424C132.486 80.672 133.478 82.192 136.454 82.192C139.43 82.192 140.518 80.672 140.518 77.424V70.832H139.174V77.744C139.174 79.872 138.486 80.992 136.502 80.992C134.518 80.992 133.83 79.872 133.83 77.744V70.832H132.486Z" fill="white"/>
<line x1="82.67" y1="89.4642" x2="100.701" y2="73.6245" stroke="black"/>
<path d="M84.3315 75V69.988C84.3315 69.064 85.1995 68.616 86.0955 68.616C87.1735 68.616 87.7335 69.274 87.7335 70.562V75H88.8535V70.366C88.8535 68.616 87.9155 67.608 86.4315 67.608C85.3535 67.608 84.7375 68.14 84.3875 68.952H84.3315V67.776H83.2115V75H84.3315Z" fill="black"/>
<path d="M214.232 91.228V96.996C214.232 99.838 215.1 101.168 217.704 101.168C220.308 101.168 221.26 99.838 221.26 96.996V91.228H220.084V97.276C220.084 99.138 219.482 100.118 217.746 100.118C216.01 100.118 215.408 99.138 215.408 97.276V91.228H214.232Z" fill="white"/>
<path d="M393.5 124L396.5 130L393.5 136" stroke="black"/>
<path d="M378 124L375 130L378 136" stroke="black"/>
</g>
<path d="M134.235 85.525C134.235 85.4443 134.172 85.4443 134.154 85.4443C134.137 85.4443 134.101 85.4443 134.029 85.5339L133.411 86.2775C133.366 86.2058 133.187 85.8923 132.838 85.6862C132.452 85.4443 132.067 85.4443 131.933 85.4443C130.016 85.4443 128 87.3973 128 89.5115C128 90.9896 129.021 91.9392 130.365 91.9392C131.01 91.9392 131.825 91.7242 132.273 91.1599C132.372 91.5003 132.569 91.7422 132.632 91.7422C132.676 91.7422 132.685 91.7153 132.694 91.7153C132.703 91.6974 132.775 91.3838 132.82 91.2226L132.963 90.6492C133.035 90.3536 133.071 90.2282 133.133 89.9594C133.223 89.619 133.241 89.5921 133.733 89.5832C133.769 89.5832 133.877 89.5832 133.877 89.4129C133.877 89.3234 133.787 89.3234 133.76 89.3234C133.608 89.3234 133.438 89.3413 133.277 89.3413H132.793C132.417 89.3413 132.022 89.3234 131.655 89.3234C131.574 89.3234 131.467 89.3234 131.467 89.4846C131.467 89.5742 131.539 89.5742 131.539 89.5832H131.763C132.47 89.5832 132.47 89.6548 132.47 89.7892C132.47 89.7982 132.3 90.703 132.13 90.9717C131.789 91.4734 131.082 91.6794 130.553 91.6794C129.863 91.6794 128.744 91.3211 128.744 89.7713C128.744 89.1711 128.959 87.8004 129.828 86.7881C130.392 86.1431 131.225 85.7041 132.013 85.7041C133.071 85.7041 133.447 86.6089 133.447 87.4331C133.447 87.5765 133.411 87.7735 133.411 87.899C133.411 87.9796 133.501 87.9796 133.527 87.9796C133.626 87.9796 133.635 87.9706 133.671 87.8094L134.235 85.525Z" fill="white"/>
<path d="M137.383 93.928C137.383 93.9011 137.383 93.8832 137.231 93.7309C136.335 92.8261 135.833 91.348 135.833 89.5204C135.833 87.7825 136.254 86.2864 137.294 85.2293C137.383 85.1487 137.383 85.1308 137.383 85.1039C137.383 85.0501 137.338 85.0322 137.303 85.0322C137.186 85.0322 136.452 85.6772 136.013 86.5552C135.556 87.46 135.35 88.4185 135.35 89.5204C135.35 90.3177 135.475 91.3838 135.941 92.3424C136.469 93.4174 137.204 93.9997 137.303 93.9997C137.338 93.9997 137.383 93.9818 137.383 93.928Z" fill="white"/>
<path d="M142.691 84.0392C142.583 84.1377 142.252 84.4513 142.252 84.5767C142.252 84.6663 142.332 84.7469 142.422 84.7469C142.503 84.7469 142.539 84.6932 142.601 84.6036C142.816 84.3348 143.058 84.1646 143.264 84.0481C143.354 83.9944 143.416 83.9675 143.416 83.869C143.416 83.7883 143.345 83.7436 143.291 83.6988C143.04 83.5286 142.978 83.2867 142.951 83.1792C142.924 83.1075 142.897 83 142.771 83C142.718 83 142.61 83.0358 142.61 83.1702C142.61 83.2508 142.664 83.4658 142.834 83.7077H139.824C139.672 83.7077 139.52 83.7077 139.52 83.8779C139.52 84.0392 139.681 84.0392 139.824 84.0392H142.691Z" fill="white"/>
<path d="M141.851 87.245C141.851 86.3312 141.564 85.4443 140.829 85.4443C139.575 85.4443 138.24 88.0692 138.24 90.04C138.24 90.4521 138.33 91.8407 139.27 91.8407C140.489 91.8407 141.851 89.2786 141.851 87.245ZM139.136 88.5081C139.27 87.9796 139.459 87.2271 139.817 86.591C140.113 86.0535 140.426 85.6235 140.82 85.6235C141.116 85.6235 141.313 85.8743 141.313 86.7344C141.313 87.0569 141.286 87.5048 141.026 88.5081H139.136ZM140.964 88.7769C140.74 89.6548 140.552 90.2192 140.229 90.7836C139.969 91.2405 139.656 91.6615 139.279 91.6615C139.002 91.6615 138.778 91.4465 138.778 90.5596C138.778 89.9773 138.921 89.3682 139.064 88.7769H140.964Z" fill="white"/>
<path d="M144.741 89.5204C144.741 88.8396 144.651 87.7287 144.149 86.6895C143.621 85.6145 142.886 85.0322 142.788 85.0322C142.752 85.0322 142.707 85.0501 142.707 85.1039C142.707 85.1308 142.707 85.1487 142.859 85.301C143.755 86.2058 144.257 87.6839 144.257 89.5115C144.257 91.2494 143.836 92.7455 142.797 93.8026C142.707 93.8832 142.707 93.9011 142.707 93.928C142.707 93.9818 142.752 93.9997 142.788 93.9997C142.904 93.9997 143.639 93.3547 144.078 92.4767C144.535 91.563 144.741 90.5955 144.741 89.5204Z" fill="white"/>
<defs>
<clipPath id="clip0_1339_19136">
<rect width="506" height="212" fill="white"/>
</clipPath>
</defs>
</svg>
