<svg xmlns="http://www.w3.org/2000/svg" xmlns:svg="http://www.w3.org/2000/svg" id="svg893" width="317.856" height="100pt" version="1.1" viewBox="0 0 238.392 100"><metadata id="metadata897"/><defs id="defs835"><style id="style833" type="text/css">*{stroke-linecap:butt;stroke-linejoin:round}</style></defs><g id="line2d_1" transform="translate(-45.161218,-26.652522)"><path style="fill:none;stroke:#000;stroke-width:2;stroke-linecap:square" id="path840" d="m 125.81198,53.6984 h 81.8118" clip-path="url(#p63bd212177)"/></g><g id="line2d_2" transform="translate(-45.161218,-26.652522)"><path style="fill:none;stroke:#000;stroke-width:2;stroke-linecap:square" id="path843" d="m 125.81198,99.1494 h 81.8118" clip-path="url(#p63bd212177)"/></g><g id="line2d_3" transform="translate(-45.161218,-26.652522)"><path style="fill:none;stroke:#6fa4ff;stroke-width:2;stroke-linecap:square" id="path846" d="M 162.17278,99.1494 V 53.6984" clip-path="url(#p63bd212177)"/></g><g id="patch_2" transform="translate(-45.161218,-26.652522)"><path style="fill:#6fa4ff;stroke:#6fa4ff;stroke-width:1.5;stroke-linejoin:miter" id="path849" d="m 162.17278,58.129873 c 1.17524,0 2.3025,-0.466928 3.13352,-1.297949 0.83102,-0.83102 1.29795,-1.958284 1.29795,-3.133524 0,-1.17524 -0.46693,-2.302504 -1.29795,-3.133524 -0.83102,-0.831021 -1.95828,-1.297948 -3.13352,-1.297948 -1.17524,0 -2.3025,0.466927 -3.13352,1.297948 -0.83103,0.83102 -1.29795,1.958284 -1.29795,3.133524 0,1.17524 0.46692,2.302504 1.29795,3.133524 0.83102,0.831021 1.95828,1.297949 3.13352,1.297949 z" clip-path="url(#p63bd212177)"/></g><g id="patch_3" transform="translate(-45.161218,-26.652522)"><path style="fill:#6fa4ff;stroke:#6fa4ff;stroke-width:2;stroke-linejoin:miter" id="path852" d="m 162.17278,109.4895 c 2.74223,0 5.37251,-1.0895 7.31156,-3.02854 1.93904,-1.93905 3.02854,-4.56933 3.02854,-7.31156 0,-2.742227 -1.0895,-5.372509 -3.02854,-7.311557 -1.93905,-1.939047 -4.56933,-3.028545 -7.31156,-3.028545 -2.74223,0 -5.37251,1.089498 -7.31156,3.028545 -1.93904,1.939048 -3.02854,4.56933 -3.02854,7.311557 0,2.74223 1.0895,5.37251 3.02854,7.31156 1.93905,1.93904 4.56933,3.02854 7.31156,3.02854 z" clip-path="url(#p63bd212177)"/></g><g id="line2d_4" transform="translate(-45.161218,-26.652522)"><path style="fill:none;stroke:#fff;stroke-width:2;stroke-linecap:square" id="path855" d="M 162.17278,105.05803 V 93.24077" clip-path="url(#p63bd212177)"/></g><g id="line2d_5" transform="translate(-45.161218,-26.652522)"><path style="fill:none;stroke:#fff;stroke-width:2;stroke-linecap:square" id="path858" d="m 156.26415,99.1494 h 11.81726" clip-path="url(#p63bd212177)"/></g><defs id="defs891"><clipPath id="p63bd212177"><rect id="rect888" width="179.986" height="109.082" x="32.183" y="17.338"/></clipPath></defs><text style="font-style:normal;font-weight:400;font-size:30px;line-height:1.25;font-family:sans-serif;fill:#000;fill-opacity:1;stroke:none;stroke-width:.75;stroke-linecap:butt;stroke-linejoin:round" id="text986" x="11.846" y="30.848" xml:space="preserve"><tspan id="tspan984" x="11.846" y="30.848" style="font-style:normal;font-variant:normal;font-weight:400;font-stretch:normal;font-size:12px;font-family:sans-serif;-inkscape-font-specification:'sans-serif Normal';font-variant-ligatures:normal;font-variant-caps:normal;font-variant-numeric:normal;font-variant-east-asian:normal;stroke-width:.75">Input A</tspan></text><text style="font-style:normal;font-weight:400;font-size:30px;line-height:1.25;font-family:sans-serif;fill:#000;fill-opacity:1;stroke:none;stroke-width:.75;stroke-linecap:butt;stroke-linejoin:round" id="text990" x="11.846" y="76.749" xml:space="preserve"><tspan id="tspan988" x="11.846" y="76.749" style="font-style:normal;font-variant:normal;font-weight:400;font-stretch:normal;font-size:12px;font-family:sans-serif;-inkscape-font-specification:'sans-serif Normal';font-variant-ligatures:normal;font-variant-caps:normal;font-variant-numeric:normal;font-variant-east-asian:normal;stroke-width:.75">Input B</tspan></text><text style="font-style:normal;font-weight:400;font-size:30px;line-height:1.25;font-family:sans-serif;fill:#000;fill-opacity:1;stroke:none;stroke-width:.75;stroke-linecap:butt;stroke-linejoin:round" id="text994" x="174.969" y="76.996" xml:space="preserve"><tspan id="tspan992" x="174.969" y="76.996" style="font-style:normal;font-variant:normal;font-weight:400;font-stretch:normal;font-size:12px;font-family:sans-serif;-inkscape-font-specification:'sans-serif Normal';font-variant-ligatures:normal;font-variant-caps:normal;font-variant-numeric:normal;font-variant-east-asian:normal;stroke-width:.75">A XOR B</tspan></text><text id="text986-2" x="175.153" y="30.301" xml:space="preserve" style="font-style:normal;font-weight:400;font-size:30px;line-height:1.25;font-family:sans-serif;fill:#000;fill-opacity:1;stroke:none;stroke-width:.75;stroke-linecap:butt;stroke-linejoin:round"><tspan style="font-style:normal;font-variant:normal;font-weight:400;font-stretch:normal;font-size:12px;font-family:sans-serif;-inkscape-font-specification:'sans-serif Normal';font-variant-ligatures:normal;font-variant-caps:normal;font-variant-numeric:normal;font-variant-east-asian:normal;stroke-width:.75" id="tspan984-7" x="175.153" y="30.301">Input A</tspan></text></svg>