<svg width="615" height="432" viewBox="0 0 615 432" fill="none" xmlns="http://www.w3.org/2000/svg">
<rect x="315" y="33" width="300" height="192" fill="white"/>
<rect opacity="0.4" x="315" y="153" width="300" height="40" fill="#F2F4F8"/>
<rect opacity="0.4" x="315" y="73" width="300" height="40" fill="#F2F4F8"/>
<rect x="315.5" y="33.5" width="299" height="191" stroke="#DDE1E6"/>
<line x1="374" y1="104.5" x2="574" y2="104.5" stroke="black"/>
<path d="M356.331 108V107.02H355.505V103.044C355.505 101.518 354.469 100.608 352.733 100.608C351.431 100.608 350.563 101.252 350.171 102.022L350.843 102.652C351.235 101.994 351.809 101.574 352.677 101.574C353.825 101.574 354.385 102.134 354.385 103.156V103.87H352.957C350.857 103.87 349.877 104.626 349.877 105.984C349.877 107.328 350.773 108.168 352.299 108.168C353.307 108.168 354.077 107.706 354.385 106.824H354.455C354.539 107.496 354.875 108 355.701 108H356.331ZM352.481 107.216C351.613 107.216 351.053 106.81 351.053 106.096V105.802C351.053 105.102 351.627 104.71 352.901 104.71H354.385V105.9C354.385 106.642 353.587 107.216 352.481 107.216Z" fill="black"/>
<line x1="375" y1="154.5" x2="574" y2="154.5" stroke="black"/>
<path d="M351.629 158H352.749V156.824H352.805C353.239 157.72 353.925 158.168 354.919 158.168C356.725 158.168 357.859 156.698 357.859 154.388C357.859 152.078 356.725 150.608 354.919 150.608C353.925 150.608 353.183 151.042 352.805 151.952H352.749V147.64H351.629V158ZM354.611 157.16C353.589 157.16 352.749 156.628 352.749 155.69V153.002C352.749 152.204 353.589 151.616 354.611 151.616C355.871 151.616 356.655 152.484 356.655 153.772V155.004C356.655 156.292 355.871 157.16 354.611 157.16Z" fill="black"/>
<rect x="423" y="139" width="32" height="32" rx="16" fill="#1192E8"/>
<path d="M440 154V146H438V154H430V156H438V164H440V156H448V154H440Z" fill="white"/>
<rect x="433" y="99" width="12" height="12" rx="6" fill="#1192E8"/>
<line x1="439" y1="141" x2="439" y2="110" stroke="#1192E8" stroke-width="2"/>
<rect x="412.5" y="79.5" width="114" height="104" stroke="#8D8D8D" stroke-dasharray="5 5"/>
<rect x="315" y="240" width="300" height="192" fill="white"/>
<rect opacity="0.4" x="315" y="360" width="300" height="40" fill="#F2F4F8"/>
<rect opacity="0.4" x="315" y="280" width="300" height="40" fill="#F2F4F8"/>
<rect x="315.5" y="240.5" width="299" height="191" stroke="#DDE1E6"/>
<line x1="374" y1="311.5" x2="574" y2="311.5" stroke="black"/>
<path d="M356.331 315V314.02H355.505V310.044C355.505 308.518 354.469 307.608 352.733 307.608C351.431 307.608 350.563 308.252 350.171 309.022L350.843 309.652C351.235 308.994 351.809 308.574 352.677 308.574C353.825 308.574 354.385 309.134 354.385 310.156V310.87H352.957C350.857 310.87 349.877 311.626 349.877 312.984C349.877 314.328 350.773 315.168 352.299 315.168C353.307 315.168 354.077 314.706 354.385 313.824H354.455C354.539 314.496 354.875 315 355.701 315H356.331ZM352.481 314.216C351.613 314.216 351.053 313.81 351.053 313.096V312.802C351.053 312.102 351.627 311.71 352.901 311.71H354.385V312.9C354.385 313.642 353.587 314.216 352.481 314.216Z" fill="black"/>
<line x1="375" y1="361.5" x2="574" y2="361.5" stroke="black"/>
<path d="M351.629 365H352.749V363.824H352.805C353.239 364.72 353.925 365.168 354.919 365.168C356.725 365.168 357.859 363.698 357.859 361.388C357.859 359.078 356.725 357.608 354.919 357.608C353.925 357.608 353.183 358.042 352.805 358.952H352.749V354.64H351.629V365ZM354.611 364.16C353.589 364.16 352.749 363.628 352.749 362.69V360.002C352.749 359.204 353.589 358.616 354.611 358.616C355.871 358.616 356.655 359.484 356.655 360.772V362.004C356.655 363.292 355.871 364.16 354.611 364.16Z" fill="black"/>
<rect x="423" y="346" width="32" height="32" rx="16" fill="#1192E8"/>
<path d="M440 361V353H438V361H430V363H438V371H440V363H448V361H440Z" fill="white"/>
<rect x="433" y="306" width="12" height="12" rx="6" fill="#1192E8"/>
<line x1="439" y1="348" x2="439" y2="317" stroke="#1192E8" stroke-width="2"/>
<path d="M484 346H516V378H484V346Z" fill="#005D5D"/>
<path d="M494.412 369H496.14L499.434 363.726H499.47L502.764 369H504.582L500.442 362.556L504.474 356.436H502.746L499.524 361.44H499.488L496.338 356.436H494.52L498.516 362.61L494.412 369Z" fill="white"/>
<rect x="412.5" y="286.5" width="114" height="104" stroke="#8D8D8D" stroke-dasharray="5 5"/>
<rect y="33" width="300" height="192" fill="white"/>
<rect opacity="0.4" y="153" width="300" height="40" fill="#F2F4F8"/>
<rect opacity="0.4" y="73" width="300" height="40" fill="#F2F4F8"/>
<rect x="0.5" y="33.5" width="299" height="191" stroke="#DDE1E6"/>
<line x1="59" y1="104.5" x2="259" y2="104.5" stroke="black"/>
<path d="M41.3307 108V107.02H40.5047V103.044C40.5047 101.518 39.4687 100.608 37.7327 100.608C36.4307 100.608 35.5627 101.252 35.1707 102.022L35.8427 102.652C36.2347 101.994 36.8087 101.574 37.6767 101.574C38.8247 101.574 39.3847 102.134 39.3847 103.156V103.87H37.9567C35.8567 103.87 34.8767 104.626 34.8767 105.984C34.8767 107.328 35.7727 108.168 37.2987 108.168C38.3067 108.168 39.0767 107.706 39.3847 106.824H39.4547C39.5387 107.496 39.8747 108 40.7007 108H41.3307ZM37.4807 107.216C36.6127 107.216 36.0527 106.81 36.0527 106.096V105.802C36.0527 105.102 36.6267 104.71 37.9007 104.71H39.3847V105.9C39.3847 106.642 38.5867 107.216 37.4807 107.216Z" fill="black"/>
<line x1="60" y1="154.5" x2="259" y2="154.5" stroke="black"/>
<path d="M36.6295 158H37.7495V156.824H37.8055C38.2395 157.72 38.9255 158.168 39.9195 158.168C41.7255 158.168 42.8595 156.698 42.8595 154.388C42.8595 152.078 41.7255 150.608 39.9195 150.608C38.9255 150.608 38.1835 151.042 37.8055 151.952H37.7495V147.64H36.6295V158ZM39.6115 157.16C38.5895 157.16 37.7495 156.628 37.7495 155.69V153.002C37.7495 152.204 38.5895 151.616 39.6115 151.616C40.8715 151.616 41.6555 152.484 41.6555 153.772V155.004C41.6555 156.292 40.8715 157.16 39.6115 157.16Z" fill="black"/>
<rect x="97.5" y="79.5" width="114" height="104" stroke="#8D8D8D" stroke-dasharray="5 5"/>
<rect y="240" width="300" height="192" fill="white"/>
<rect opacity="0.4" y="360" width="300" height="40" fill="#F2F4F8"/>
<rect opacity="0.4" y="280" width="300" height="40" fill="#F2F4F8"/>
<rect x="0.5" y="240.5" width="299" height="191" stroke="#DDE1E6"/>
<line x1="59" y1="311.5" x2="259" y2="311.5" stroke="black"/>
<path d="M41.3307 315V314.02H40.5047V310.044C40.5047 308.518 39.4687 307.608 37.7327 307.608C36.4307 307.608 35.5627 308.252 35.1707 309.022L35.8427 309.652C36.2347 308.994 36.8087 308.574 37.6767 308.574C38.8247 308.574 39.3847 309.134 39.3847 310.156V310.87H37.9567C35.8567 310.87 34.8767 311.626 34.8767 312.984C34.8767 314.328 35.7727 315.168 37.2987 315.168C38.3067 315.168 39.0767 314.706 39.3847 313.824H39.4547C39.5387 314.496 39.8747 315 40.7007 315H41.3307ZM37.4807 314.216C36.6127 314.216 36.0527 313.81 36.0527 313.096V312.802C36.0527 312.102 36.6267 311.71 37.9007 311.71H39.3847V312.9C39.3847 313.642 38.5867 314.216 37.4807 314.216Z" fill="black"/>
<line x1="60" y1="361.5" x2="259" y2="361.5" stroke="black"/>
<path d="M36.6295 365H37.7495V363.824H37.8055C38.2395 364.72 38.9255 365.168 39.9195 365.168C41.7255 365.168 42.8595 363.698 42.8595 361.388C42.8595 359.078 41.7255 357.608 39.9195 357.608C38.9255 357.608 38.1835 358.042 37.8055 358.952H37.7495V354.64H36.6295V365ZM39.6115 364.16C38.5895 364.16 37.7495 363.628 37.7495 362.69V360.002C37.7495 359.204 38.5895 358.616 39.6115 358.616C40.8715 358.616 41.6555 359.484 41.6555 360.772V362.004C41.6555 363.292 40.8715 364.16 39.6115 364.16Z" fill="black"/>
<path d="M169 346H201V378H169V346Z" fill="#005D5D"/>
<path d="M179.412 369H181.14L184.434 363.726H184.47L187.764 369H189.582L185.442 362.556L189.474 356.436H187.746L184.524 361.44H184.488L181.338 356.436H179.52L183.516 362.61L179.412 369Z" fill="white"/>
<rect x="97.5" y="286.5" width="114" height="104" stroke="#8D8D8D" stroke-dasharray="5 5"/>
<path d="M316.734 16H322.44C324.294 16 325.68 14.434 325.68 12.364C325.68 10.276 324.114 9.502 323.214 9.448V9.34C324.042 9.214 325.248 8.548 325.248 6.676C325.248 4.714 323.97 3.436 321.9 3.436H316.734V16ZM318.246 10.168H321.972C323.268 10.168 324.06 10.852 324.06 12.112V12.724C324.06 13.984 323.268 14.668 321.972 14.668H318.246V10.168ZM318.246 4.768H321.72C322.908 4.768 323.628 5.398 323.628 6.514V7.126C323.628 8.242 322.908 8.872 321.72 8.872H318.246V4.768ZM335.909 16V14.74H334.847V9.628C334.847 7.666 333.515 6.496 331.283 6.496C329.609 6.496 328.493 7.324 327.989 8.314L328.853 9.124C329.357 8.278 330.095 7.738 331.211 7.738C332.687 7.738 333.407 8.458 333.407 9.772V10.69H331.571C328.871 10.69 327.611 11.662 327.611 13.408C327.611 15.136 328.763 16.216 330.725 16.216C332.021 16.216 333.011 15.622 333.407 14.488H333.497C333.605 15.352 334.037 16 335.099 16H335.909ZM330.959 14.992C329.843 14.992 329.123 14.47 329.123 13.552V13.174C329.123 12.274 329.861 11.77 331.499 11.77H333.407V13.3C333.407 14.254 332.381 14.992 330.959 14.992ZM340.773 16V14.74H339.405V2.68H337.965V14.506C337.965 15.37 338.505 16 339.495 16H340.773ZM350.429 16V14.74H349.367V9.628C349.367 7.666 348.035 6.496 345.803 6.496C344.129 6.496 343.013 7.324 342.509 8.314L343.373 9.124C343.877 8.278 344.615 7.738 345.731 7.738C347.207 7.738 347.927 8.458 347.927 9.772V10.69H346.091C343.391 10.69 342.131 11.662 342.131 13.408C342.131 15.136 343.283 16.216 345.245 16.216C346.541 16.216 347.531 15.622 347.927 14.488H348.017C348.125 15.352 348.557 16 349.619 16H350.429ZM345.479 14.992C344.363 14.992 343.643 14.47 343.643 13.552V13.174C343.643 12.274 344.381 11.77 346.019 11.77H347.927V13.3C347.927 14.254 346.901 14.992 345.479 14.992ZM353.924 16V9.556C353.924 8.368 355.04 7.792 356.192 7.792C357.578 7.792 358.298 8.638 358.298 10.294V16H359.738V10.042C359.738 7.792 358.532 6.496 356.624 6.496C355.238 6.496 354.446 7.18 353.996 8.224H353.924V6.712H352.484V16H353.924ZM366.171 16.216C367.935 16.216 369.141 15.352 369.735 14.02L368.691 13.318C368.187 14.38 367.341 14.938 366.171 14.938C364.461 14.938 363.579 13.768 363.579 12.148V10.564C363.579 8.944 364.461 7.774 366.171 7.774C367.305 7.774 368.097 8.332 368.439 9.286L369.645 8.674C369.105 7.396 368.007 6.496 366.171 6.496C363.561 6.496 362.031 8.386 362.031 11.356C362.031 14.326 363.561 16.216 366.171 16.216ZM375.154 16.216C376.9 16.216 378.232 15.352 378.826 14.092L377.8 13.354C377.314 14.38 376.414 14.956 375.244 14.956C373.516 14.956 372.49 13.75 372.49 12.148V11.716H379.168V11.032C379.168 8.404 377.638 6.496 375.154 6.496C372.634 6.496 370.978 8.404 370.978 11.356C370.978 14.308 372.634 16.216 375.154 16.216ZM375.154 7.702C376.63 7.702 377.62 8.8 377.62 10.438V10.636H372.49V10.51C372.49 8.89 373.588 7.702 375.154 7.702ZM387.481 16H388.921V2.68H387.481V8.224H387.409C386.923 7.054 385.969 6.496 384.691 6.496C382.369 6.496 380.911 8.386 380.911 11.356C380.911 14.326 382.369 16.216 384.691 16.216C385.969 16.216 386.851 15.64 387.409 14.488H387.481V16ZM385.087 14.92C383.467 14.92 382.459 13.804 382.459 12.148V10.564C382.459 8.908 383.467 7.792 385.087 7.792C386.401 7.792 387.481 8.548 387.481 9.574V13.03C387.481 14.236 386.401 14.92 385.087 14.92ZM396.74 16H398.18V7.972H400.178V6.712H398.18V3.94H400.178V2.68H398.774C397.406 2.68 396.74 3.562 396.74 4.84V6.712H395.228V7.972H396.74V16ZM407.796 16H409.236V6.712H407.796V13.138C407.796 14.362 406.68 14.92 405.546 14.92C404.16 14.92 403.422 14.074 403.422 12.418V6.712H401.982V12.67C401.982 14.92 403.206 16.216 405.114 16.216C406.662 16.216 407.364 15.37 407.724 14.488H407.796V16ZM413.742 16V9.556C413.742 8.368 414.858 7.792 416.01 7.792C417.396 7.792 418.116 8.638 418.116 10.294V16H419.556V10.042C419.556 7.792 418.35 6.496 416.442 6.496C415.056 6.496 414.264 7.18 413.814 8.224H413.742V6.712H412.302V16H413.742ZM425.989 16.216C427.753 16.216 428.959 15.352 429.553 14.02L428.509 13.318C428.005 14.38 427.159 14.938 425.989 14.938C424.279 14.938 423.397 13.768 423.397 12.148V10.564C423.397 8.944 424.279 7.774 425.989 7.774C427.123 7.774 427.915 8.332 428.257 9.286L429.463 8.674C428.923 7.396 427.825 6.496 425.989 6.496C423.379 6.496 421.849 8.386 421.849 11.356C421.849 14.326 423.379 16.216 425.989 16.216ZM435.438 16V14.74H433.548V7.972H435.582V6.712H433.548V4.138H432.252V5.866C432.252 6.496 432.054 6.712 431.442 6.712H430.578V7.972H432.108V14.47C432.108 15.37 432.648 16 433.638 16H435.438ZM438.616 4.534C439.228 4.534 439.498 4.21 439.498 3.724V3.49C439.498 3.004 439.228 2.68 438.616 2.68C438.004 2.68 437.734 3.004 437.734 3.49V3.724C437.734 4.21 438.004 4.534 438.616 4.534ZM437.896 16H439.336V6.712H437.896V16ZM445.906 16.216C448.39 16.216 450.1 14.308 450.1 11.356C450.1 8.404 448.39 6.496 445.906 6.496C443.422 6.496 441.712 8.404 441.712 11.356C441.712 14.308 443.422 16.216 445.906 16.216ZM445.906 14.938C444.358 14.938 443.26 13.984 443.26 12.022V10.69C443.26 8.728 444.358 7.774 445.906 7.774C447.454 7.774 448.552 8.728 448.552 10.69V12.022C448.552 13.984 447.454 14.938 445.906 14.938ZM453.908 16V9.556C453.908 8.368 455.024 7.792 456.176 7.792C457.562 7.792 458.282 8.638 458.282 10.294V16H459.722V10.042C459.722 7.792 458.516 6.496 456.608 6.496C455.222 6.496 454.43 7.18 453.98 8.224H453.908V6.712H452.468V16H453.908ZM465.489 16.216C467.613 16.216 468.927 15.118 468.927 13.318C468.927 11.914 468.135 11.014 466.083 10.708L465.363 10.6C464.211 10.42 463.581 10.06 463.581 9.16C463.581 8.278 464.211 7.72 465.399 7.72C466.587 7.72 467.379 8.278 467.793 8.854L468.747 7.99C467.991 7.054 467.001 6.496 465.507 6.496C463.617 6.496 462.195 7.396 462.195 9.232C462.195 10.96 463.473 11.662 465.183 11.914L465.921 12.022C467.145 12.202 467.541 12.76 467.541 13.48C467.541 14.434 466.821 14.992 465.597 14.992C464.427 14.992 463.563 14.47 462.843 13.57L461.817 14.398C462.645 15.496 463.779 16.216 465.489 16.216Z" fill="black"/>
<path d="M6.55903 16.216C8.64703 16.216 10.177 15.118 10.969 13.354L9.76303 12.598C9.25903 13.966 8.16103 14.866 6.55903 14.866C4.39903 14.866 3.12103 13.3 3.12103 10.726V8.854C3.12103 6.28 4.39903 4.57 6.55903 4.57C8.10703 4.57 9.15103 5.416 9.65503 6.712L10.879 5.974C10.087 4.228 8.64703 3.22 6.55903 3.22C3.39103 3.22 1.50103 5.596 1.50103 9.79C1.50103 13.984 3.39103 16.216 6.55903 16.216ZM16.6767 16.216C19.1607 16.216 20.8707 14.308 20.8707 11.356C20.8707 8.404 19.1607 6.496 16.6767 6.496C14.1927 6.496 12.4827 8.404 12.4827 11.356C12.4827 14.308 14.1927 16.216 16.6767 16.216ZM16.6767 14.938C15.1287 14.938 14.0307 13.984 14.0307 12.022V10.69C14.0307 8.728 15.1287 7.774 16.6767 7.774C18.2247 7.774 19.3227 8.728 19.3227 10.69V12.022C19.3227 13.984 18.2247 14.938 16.6767 14.938ZM24.679 16V9.556C24.679 8.368 25.795 7.792 26.947 7.792C28.333 7.792 29.053 8.638 29.053 10.294V16H30.493V10.042C30.493 7.792 29.287 6.496 27.379 6.496C25.993 6.496 25.201 7.18 24.751 8.224H24.679V6.712H23.239V16H24.679ZM36.2595 16.216C38.3835 16.216 39.6975 15.118 39.6975 13.318C39.6975 11.914 38.9055 11.014 36.8535 10.708L36.1335 10.6C34.9815 10.42 34.3515 10.06 34.3515 9.16C34.3515 8.278 34.9815 7.72 36.1695 7.72C37.3575 7.72 38.1495 8.278 38.5635 8.854L39.5175 7.99C38.7615 7.054 37.7715 6.496 36.2775 6.496C34.3875 6.496 32.9655 7.396 32.9655 9.232C32.9655 10.96 34.2435 11.662 35.9535 11.914L36.6915 12.022C37.9155 12.202 38.3115 12.76 38.3115 13.48C38.3115 14.434 37.5915 14.992 36.3675 14.992C35.1975 14.992 34.3335 14.47 33.6135 13.57L32.5875 14.398C33.4155 15.496 34.5495 16.216 36.2595 16.216ZM45.9699 16V14.74H44.0799V7.972H46.1139V6.712H44.0799V4.138H42.7839V5.866C42.7839 6.496 42.5859 6.712 41.9739 6.712H41.1099V7.972H42.6399V14.47C42.6399 15.37 43.1799 16 44.1699 16H45.9699ZM55.9884 16V14.74H54.9264V9.628C54.9264 7.666 53.5944 6.496 51.3624 6.496C49.6884 6.496 48.5724 7.324 48.0684 8.314L48.9324 9.124C49.4364 8.278 50.1744 7.738 51.2904 7.738C52.7664 7.738 53.4864 8.458 53.4864 9.772V10.69H51.6504C48.9504 10.69 47.6904 11.662 47.6904 13.408C47.6904 15.136 48.8424 16.216 50.8044 16.216C52.1004 16.216 53.0904 15.622 53.4864 14.488H53.5764C53.6844 15.352 54.1164 16 55.1784 16H55.9884ZM51.0384 14.992C49.9224 14.992 49.2024 14.47 49.2024 13.552V13.174C49.2024 12.274 49.9404 11.77 51.5784 11.77H53.4864V13.3C53.4864 14.254 52.4604 14.992 51.0384 14.992ZM59.4837 16V9.556C59.4837 8.368 60.5997 7.792 61.7517 7.792C63.1377 7.792 63.8577 8.638 63.8577 10.294V16H65.2977V10.042C65.2977 7.792 64.0917 6.496 62.1837 6.496C60.7977 6.496 60.0057 7.18 59.5557 8.224H59.4837V6.712H58.0437V16H59.4837ZM72.1261 16V14.74H70.2361V7.972H72.2701V6.712H70.2361V4.138H68.9401V5.866C68.9401 6.496 68.7421 6.712 68.1301 6.712H67.2661V7.972H68.7961V14.47C68.7961 15.37 69.3361 16 70.3261 16H72.1261ZM79.3426 16H80.7826V7.972H82.7806V6.712H80.7826V3.94H82.7806V2.68H81.3766C80.0086 2.68 79.3426 3.562 79.3426 4.84V6.712H77.8306V7.972H79.3426V16ZM90.3985 16H91.8385V6.712H90.3985V13.138C90.3985 14.362 89.2825 14.92 88.1485 14.92C86.7625 14.92 86.0245 14.074 86.0245 12.418V6.712H84.5845V12.67C84.5845 14.92 85.8085 16.216 87.7165 16.216C89.2645 16.216 89.9665 15.37 90.3265 14.488H90.3985V16ZM96.345 16V9.556C96.345 8.368 97.461 7.792 98.613 7.792C99.999 7.792 100.719 8.638 100.719 10.294V16H102.159V10.042C102.159 7.792 100.953 6.496 99.045 6.496C97.659 6.496 96.867 7.18 96.417 8.224H96.345V6.712H94.905V16H96.345ZM108.591 16.216C110.355 16.216 111.561 15.352 112.155 14.02L111.111 13.318C110.607 14.38 109.761 14.938 108.591 14.938C106.881 14.938 105.999 13.768 105.999 12.148V10.564C105.999 8.944 106.881 7.774 108.591 7.774C109.725 7.774 110.517 8.332 110.859 9.286L112.065 8.674C111.525 7.396 110.427 6.496 108.591 6.496C105.981 6.496 104.451 8.386 104.451 11.356C104.451 14.326 105.981 16.216 108.591 16.216ZM118.04 16V14.74H116.15V7.972H118.184V6.712H116.15V4.138H114.854V5.866C114.854 6.496 114.656 6.712 114.044 6.712H113.18V7.972H114.71V14.47C114.71 15.37 115.25 16 116.24 16H118.04ZM121.219 4.534C121.831 4.534 122.101 4.21 122.101 3.724V3.49C122.101 3.004 121.831 2.68 121.219 2.68C120.607 2.68 120.337 3.004 120.337 3.49V3.724C120.337 4.21 120.607 4.534 121.219 4.534ZM120.499 16H121.939V6.712H120.499V16ZM128.509 16.216C130.993 16.216 132.703 14.308 132.703 11.356C132.703 8.404 130.993 6.496 128.509 6.496C126.025 6.496 124.315 8.404 124.315 11.356C124.315 14.308 126.025 16.216 128.509 16.216ZM128.509 14.938C126.961 14.938 125.863 13.984 125.863 12.022V10.69C125.863 8.728 126.961 7.774 128.509 7.774C130.057 7.774 131.155 8.728 131.155 10.69V12.022C131.155 13.984 130.057 14.938 128.509 14.938ZM136.511 16V9.556C136.511 8.368 137.627 7.792 138.779 7.792C140.165 7.792 140.885 8.638 140.885 10.294V16H142.325V10.042C142.325 7.792 141.119 6.496 139.211 6.496C137.825 6.496 137.033 7.18 136.583 8.224H136.511V6.712H135.071V16H136.511ZM148.091 16.216C150.215 16.216 151.529 15.118 151.529 13.318C151.529 11.914 150.737 11.014 148.685 10.708L147.965 10.6C146.813 10.42 146.183 10.06 146.183 9.16C146.183 8.278 146.813 7.72 148.001 7.72C149.189 7.72 149.981 8.278 150.395 8.854L151.349 7.99C150.593 7.054 149.603 6.496 148.109 6.496C146.219 6.496 144.797 7.396 144.797 9.232C144.797 10.96 146.075 11.662 147.785 11.914L148.523 12.022C149.747 12.202 150.143 12.76 150.143 13.48C150.143 14.434 149.423 14.992 148.199 14.992C147.029 14.992 146.165 14.47 145.445 13.57L144.419 14.398C145.247 15.496 146.381 16.216 148.091 16.216Z" fill="black"/>
</svg>
