<svg width="330" height="192" viewBox="0 0 330 192" fill="none" xmlns="http://www.w3.org/2000/svg">
<rect width="330" height="192" fill="white"/>
<rect opacity="0.4" y="120" width="330" height="40" fill="#F2F4F8"/>
<rect opacity="0.4" y="40" width="330" height="40" fill="#F2F4F8"/>
<rect x="0.5" y="0.5" width="329" height="191" stroke="#DDE1E6"/>
<line x1="69" y1="71.5" x2="231" y2="71.5" stroke="black"/>
<path d="M51.3307 75H50.7007C49.8747 75 49.5387 74.496 49.4547 73.824H49.3847C49.0767 74.706 48.3067 75.168 47.2987 75.168C45.7727 75.168 44.8767 74.328 44.8767 72.984C44.8767 71.626 45.8567 70.87 47.9567 70.87H49.3847V70.156C49.3847 69.134 48.8247 68.574 47.6767 68.574C46.8087 68.574 46.2347 68.994 45.8427 69.652L45.1707 69.022C45.5627 68.252 46.4307 67.608 47.7327 67.608C49.4687 67.608 50.5047 68.518 50.5047 70.044V74.02H51.3307V75ZM47.4807 74.216C48.5867 74.216 49.3847 73.642 49.3847 72.9V71.71H47.9007C46.6267 71.71 46.0527 72.102 46.0527 72.802V73.096C46.0527 73.81 46.6127 74.216 47.4807 74.216Z" fill="black"/>
<line x1="69" y1="121.5" x2="231" y2="121.5" stroke="black"/>
<path d="M45.6295 125V114.64H46.7495V118.952H46.8055C47.1835 118.042 47.9255 117.608 48.9195 117.608C50.7255 117.608 51.8595 119.078 51.8595 121.388C51.8595 123.698 50.7255 125.168 48.9195 125.168C47.9255 125.168 47.2395 124.72 46.8055 123.824H46.7495V125H45.6295ZM48.6115 124.16C49.8715 124.16 50.6555 123.292 50.6555 122.004V120.772C50.6555 119.484 49.8715 118.616 48.6115 118.616C47.5895 118.616 46.7495 119.204 46.7495 120.002V122.69C46.7495 123.628 47.5895 124.16 48.6115 124.16Z" fill="black"/>
<rect width="93" height="82" transform="translate(100 51)" fill="#1192E8"/>
<path d="M138.077 108.346C138.121 108.346 138.187 108.372 138.275 108.423C138.363 108.474 138.484 108.513 138.637 108.538C138.791 108.564 138.923 108.577 139.033 108.577C139.319 108.577 139.582 108.41 139.824 108.077C140.066 107.744 140.242 107.372 140.352 106.962C140.571 106.269 140.945 104.308 141.473 101.077C142 97.8462 142.505 94.7692 142.989 91.8462C143.473 88.9231 143.714 87.4487 143.714 87.4231V87.3077H142.165C141.132 87.3077 140.582 87.2821 140.516 87.2308C140.429 87.1538 140.385 87.0256 140.385 86.8462L140.615 85.7692C140.659 85.641 140.747 85.5769 140.879 85.5769C141.011 85.5769 141.527 85.5641 142.429 85.5385C143.484 85.5385 144.011 85.5256 144.011 85.5C144.011 85.4487 144.11 84.8077 144.308 83.5769C144.505 82.3462 144.637 81.6026 144.703 81.3462C145.516 77.1154 147.121 75 149.516 75C150.33 75.0513 151 75.3333 151.527 75.8462C152.055 76.359 152.319 77.0385 152.319 77.8846C152.319 78.8077 152.088 79.4744 151.626 79.8846C151.165 80.2949 150.703 80.5128 150.242 80.5385C149.275 80.5385 148.791 80 148.791 78.9231C148.791 78.4359 148.912 78.0128 149.154 77.6538C149.396 77.2949 149.659 77.0256 149.945 76.8462L150.242 76.6538C149.89 76.5 149.56 76.4231 149.253 76.4231C148.989 76.4231 148.736 76.5513 148.495 76.8077C148.253 77.0641 148.088 77.4231 148 77.8846C147.846 78.6282 147.67 79.6282 147.473 80.8846C147.275 82.141 147.099 83.2051 146.945 84.0769C146.791 84.9487 146.714 85.4103 146.714 85.4615C146.714 85.5128 147.319 85.5385 148.527 85.5385C149.516 85.5385 150.088 85.5513 150.242 85.5769C150.396 85.6026 150.516 85.6795 150.604 85.8077C150.626 85.9103 150.604 86.1282 150.538 86.4615C150.473 86.7949 150.418 87 150.374 87.0769C150.33 87.2051 150.231 87.2692 150.077 87.2692C149.923 87.2692 149.33 87.2821 148.297 87.3077H146.451L145.692 92C144.637 98.359 143.901 102.333 143.484 103.923C142.89 106.103 142.121 107.718 141.176 108.769C140.363 109.59 139.56 110 138.769 110C138.066 110 137.429 109.756 136.857 109.269C136.286 108.782 136 108.09 136 107.192C136 106.244 136.231 105.551 136.692 105.115C137.154 104.679 137.615 104.462 138.077 104.462C139.044 104.462 139.527 105 139.527 106.077C139.527 106.564 139.407 106.987 139.165 107.346C138.923 107.705 138.659 107.974 138.374 108.154L138.077 108.346Z" fill="white"/>
<path d="M252.331 75V74.02H251.505V70.044C251.505 68.518 250.469 67.608 248.733 67.608C247.431 67.608 246.563 68.252 246.171 69.022L246.843 69.652C247.235 68.994 247.809 68.574 248.677 68.574C249.825 68.574 250.385 69.134 250.385 70.156V70.87H248.957C246.857 70.87 245.877 71.626 245.877 72.984C245.877 74.328 246.773 75.168 248.299 75.168C249.307 75.168 250.077 74.706 250.385 73.824H250.455C250.539 74.496 250.875 75 251.701 75H252.331ZM248.481 74.216C247.613 74.216 247.053 73.81 247.053 73.096V72.802C247.053 72.102 247.627 71.71 248.901 71.71H250.385V72.9C250.385 73.642 249.587 74.216 248.481 74.216Z" fill="black"/>
<path d="M241.758 125V118.756H240.582V117.776H241.758V116.32C241.758 115.326 242.276 114.64 243.34 114.64H244.432V115.62H242.878V117.776H244.432V118.756H242.878V125H241.758ZM247.533 120.632C247.533 117.93 248.639 115.578 250.067 114.36H251.131C249.577 115.76 248.583 118.084 248.583 120.044V121.248C248.583 123.208 249.619 125.574 251.131 126.918H250.067C248.681 125.742 247.533 123.362 247.533 120.632ZM258.451 125H257.821C256.995 125 256.659 124.496 256.575 123.824H256.505C256.197 124.706 255.427 125.168 254.419 125.168C252.893 125.168 251.997 124.328 251.997 122.984C251.997 121.626 252.977 120.87 255.077 120.87H256.505V120.156C256.505 119.134 255.945 118.574 254.797 118.574C253.929 118.574 253.355 118.994 252.963 119.652L252.291 119.022C252.683 118.252 253.551 117.608 254.853 117.608C256.589 117.608 257.625 118.518 257.625 120.044V124.02H258.451V125ZM254.601 124.216C255.707 124.216 256.505 123.642 256.505 122.9V121.71H255.021C253.747 121.71 253.173 122.102 253.173 122.802V123.096C253.173 123.81 253.733 124.216 254.601 124.216ZM262.707 120.632C262.707 123.362 261.559 125.742 260.173 126.918H259.109C260.621 125.574 261.657 123.208 261.657 121.248V120.044C261.657 118.084 260.663 115.76 259.109 114.36H260.173C261.601 115.578 262.707 117.93 262.707 120.632ZM279.893 125V114.64H281.013V118.952H281.069C281.447 118.042 282.189 117.608 283.183 117.608C284.989 117.608 286.123 119.078 286.123 121.388C286.123 123.698 284.989 125.168 283.183 125.168C282.189 125.168 281.503 124.72 281.069 123.824H281.013V125H279.893ZM282.875 124.16C284.135 124.16 284.919 123.292 284.919 122.004V120.772C284.919 119.484 284.135 118.616 282.875 118.616C281.853 118.616 281.013 119.204 281.013 120.002V122.69C281.013 123.628 281.853 124.16 282.875 124.16Z" fill="black"/>
<path d="M266 121.001C266 119.56 266.5 118.368 267.501 117.427C268.502 116.486 269.643 116.011 270.925 116.001C272.386 116.001 273.597 116.491 274.558 117.472C275.519 118.453 276 119.63 276 121.001C276 122.402 275.514 123.584 274.543 124.545C273.572 125.505 272.396 125.991 271.015 126.001C269.603 126.001 268.417 125.515 267.456 124.545C266.495 123.574 266.01 122.392 266 121.001ZM273.898 117.683C273.387 117.292 272.957 117.032 272.606 116.902C272.106 116.712 271.53 116.617 270.88 116.617C270.309 116.617 269.764 116.732 269.243 116.962C268.722 117.192 268.342 117.432 268.102 117.683L271 120.581L272.441 119.124L273.898 117.683ZM267.666 118.118C266.946 118.919 266.585 119.88 266.585 121.001C266.585 122.132 266.946 123.093 267.666 123.884L270.549 121.001L267.666 118.118ZM274.318 123.884C275.039 123.083 275.399 122.122 275.399 121.001C275.399 119.87 275.039 118.909 274.318 118.118L271.435 121.001L274.318 123.884ZM268.102 124.319C268.232 124.449 268.402 124.585 268.612 124.725C268.823 124.865 269.148 125.01 269.588 125.16C270.029 125.31 270.494 125.385 270.985 125.385C271.195 125.385 271.4 125.375 271.6 125.355C271.801 125.335 271.981 125.3 272.141 125.25C272.301 125.2 272.456 125.15 272.606 125.1C272.757 125.05 272.887 124.99 272.997 124.92C273.107 124.85 273.217 124.79 273.327 124.74C273.437 124.69 273.522 124.63 273.582 124.56C273.642 124.489 273.707 124.444 273.778 124.424C273.848 124.404 273.888 124.369 273.898 124.319L270.985 121.421L268.102 124.319Z" fill="black" stroke="black" stroke-width="0.4"/>
</svg>
